%TF.GenerationSoftware,KiCad,Pcbnew,10.0.6-10.0.6~ubuntu24.04.1*%
%TF.CreationDate,2026-09-26T22:40:42+00:00*%
%TF.ProjectId,cheapdrone-esc,63686561-7064-4726-9f6e-652d6573632e,rev?*%
%TF.SameCoordinates,Original*%
%TF.FileFunction,Paste,Top*%
%TF.FilePolarity,Positive*%
%FSLAX46Y46*%
G04 Gerber Fmt 4.6, Leading zero omitted, Abs format (unit mm)*
G04 Created by KiCad (PCBNEW 10.0.6-10.0.6~ubuntu24.04.1) date 2026-09-26 22:40:42*
%MOMM*%
%LPD*%
G01*
G04 APERTURE LIST*
G04 Aperture macros list*
%AMRoundRect*
0 Rectangle with rounded corners*
0 $1 Rounding radius*
0 $2 $3 $4 $5 $6 $7 $8 $9 X,Y pos of 4 corners*
0 Add a 4 corners polygon primitive as box body*
4,1,4,$2,$3,$4,$5,$6,$7,$8,$9,$2,$3,0*
0 Add four circle primitives for the rounded corners*
1,1,$1+$1,$2,$3*
1,1,$1+$1,$4,$5*
1,1,$1+$1,$6,$7*
1,1,$1+$1,$8,$9*
0 Add four rect primitives between the rounded corners*
20,1,$1+$1,$2,$3,$4,$5,0*
20,1,$1+$1,$4,$5,$6,$7,0*
20,1,$1+$1,$6,$7,$8,$9,0*
20,1,$1+$1,$8,$9,$2,$3,0*%
G04 Aperture macros list end*
%ADD10RoundRect,0.135000X-0.185000X0.135000X-0.185000X-0.135000X0.185000X-0.135000X0.185000X0.135000X0*%
%ADD11RoundRect,0.140000X0.140000X0.170000X-0.140000X0.170000X-0.140000X-0.170000X0.140000X-0.170000X0*%
%ADD12RoundRect,0.140000X0.170000X-0.140000X0.170000X0.140000X-0.170000X0.140000X-0.170000X-0.140000X0*%
%ADD13RoundRect,0.135000X0.185000X-0.135000X0.185000X0.135000X-0.185000X0.135000X-0.185000X-0.135000X0*%
%ADD14R,0.360000X0.600000*%
%ADD15RoundRect,0.135000X0.135000X0.185000X-0.135000X0.185000X-0.135000X-0.185000X0.135000X-0.185000X0*%
%ADD16RoundRect,0.135000X-0.135000X-0.185000X0.135000X-0.185000X0.135000X0.185000X-0.135000X0.185000X0*%
%ADD17R,0.600000X0.360000*%
%ADD18RoundRect,0.250000X-0.250000X-0.475000X0.250000X-0.475000X0.250000X0.475000X-0.250000X0.475000X0*%
%ADD19RoundRect,0.140000X-0.140000X-0.170000X0.140000X-0.170000X0.140000X0.170000X-0.140000X0.170000X0*%
%ADD20RoundRect,0.250000X-0.475000X0.250000X-0.475000X-0.250000X0.475000X-0.250000X0.475000X0.250000X0*%
%ADD21RoundRect,0.250000X0.475000X-0.250000X0.475000X0.250000X-0.475000X0.250000X-0.475000X-0.250000X0*%
%ADD22R,1.550000X0.600000*%
%ADD23R,2.000000X1.500000*%
%ADD24RoundRect,0.140000X-0.170000X0.140000X-0.170000X-0.140000X0.170000X-0.140000X0.170000X0.140000X0*%
%ADD25RoundRect,0.250000X0.250000X0.475000X-0.250000X0.475000X-0.250000X-0.475000X0.250000X-0.475000X0*%
G04 APERTURE END LIST*
D10*
%TO.C,R46*%
X93110000Y-84340000D03*
X93110000Y-85360000D03*
%TD*%
D11*
%TO.C,C33*%
X91271800Y-89499400D03*
X90311800Y-89499400D03*
%TD*%
D12*
%TO.C,C27*%
X110450000Y-97080000D03*
X110450000Y-96120000D03*
%TD*%
D13*
%TO.C,R25*%
X110262000Y-109437800D03*
X110262000Y-108417800D03*
%TD*%
D14*
%TO.C,D1*%
X96954100Y-104385500D03*
X96954100Y-103085500D03*
%TD*%
D15*
%TO.C,R27*%
X103758500Y-109137800D03*
X102738500Y-109137800D03*
%TD*%
D13*
%TO.C,R13*%
X105700000Y-115660000D03*
X105700000Y-114640000D03*
%TD*%
D11*
%TO.C,C2*%
X97261200Y-98579200D03*
X96301200Y-98579200D03*
%TD*%
D16*
%TO.C,R29*%
X84340000Y-93110000D03*
X85360000Y-93110000D03*
%TD*%
D17*
%TO.C,D8*%
X110435200Y-98333000D03*
X109135200Y-98333000D03*
%TD*%
D10*
%TO.C,R36*%
X89738000Y-90562200D03*
X89738000Y-91582200D03*
%TD*%
D16*
%TO.C,R32*%
X84340000Y-101690000D03*
X85360000Y-101690000D03*
%TD*%
D10*
%TO.C,R43*%
X98310000Y-84340000D03*
X98310000Y-85360000D03*
%TD*%
D18*
%TO.C,C52*%
X104250000Y-87850000D03*
X106150000Y-87850000D03*
%TD*%
%TO.C,C23*%
X111912400Y-91395000D03*
X113812400Y-91395000D03*
%TD*%
D14*
%TO.C,D14*%
X102509800Y-90347400D03*
X102509800Y-89047400D03*
%TD*%
D13*
%TO.C,R7*%
X97400000Y-115660000D03*
X97400000Y-114640000D03*
%TD*%
D14*
%TO.C,D16*%
X98333000Y-89564800D03*
X98333000Y-90864800D03*
%TD*%
D16*
%TO.C,R37*%
X84340000Y-103510000D03*
X85360000Y-103510000D03*
%TD*%
D15*
%TO.C,R21*%
X115660000Y-98310000D03*
X114640000Y-98310000D03*
%TD*%
D17*
%TO.C,D12*%
X89564800Y-101667000D03*
X90864800Y-101667000D03*
%TD*%
D15*
%TO.C,R24*%
X115660000Y-93110000D03*
X114640000Y-93110000D03*
%TD*%
D13*
%TO.C,R10*%
X103900000Y-115660000D03*
X103900000Y-114640000D03*
%TD*%
D16*
%TO.C,R34*%
X84340000Y-98310000D03*
X85360000Y-98310000D03*
%TD*%
%TO.C,R14*%
X90562200Y-110262000D03*
X91582200Y-110262000D03*
%TD*%
D19*
%TO.C,C54*%
X99520000Y-87850000D03*
X100480000Y-87850000D03*
%TD*%
D17*
%TO.C,D15*%
X100710600Y-90150000D03*
X99410600Y-90150000D03*
%TD*%
D20*
%TO.C,C28*%
X112150000Y-104250000D03*
X112150000Y-106150000D03*
%TD*%
D15*
%TO.C,R18*%
X115660000Y-106890000D03*
X114640000Y-106890000D03*
%TD*%
D16*
%TO.C,R31*%
X84340000Y-96490000D03*
X85360000Y-96490000D03*
%TD*%
D13*
%TO.C,R16*%
X90862200Y-103758500D03*
X90862200Y-102738500D03*
%TD*%
D21*
%TO.C,C40*%
X87850000Y-95750000D03*
X87850000Y-93850000D03*
%TD*%
D14*
%TO.C,D13*%
X103045900Y-95630400D03*
X103045900Y-96930400D03*
%TD*%
D22*
%TO.C,J_FC*%
X98740000Y-96500000D03*
X98740000Y-97500000D03*
X98740000Y-98500000D03*
X98740000Y-99500000D03*
X98740000Y-100500000D03*
X98740000Y-101500000D03*
X98740000Y-102500000D03*
X98740000Y-103500000D03*
D23*
X101260000Y-104800000D03*
X101260000Y-95200000D03*
%TD*%
D21*
%TO.C,C1*%
X96765000Y-101815500D03*
X96765000Y-99915500D03*
%TD*%
D17*
%TO.C,D3*%
X99592900Y-109850000D03*
X98292900Y-109850000D03*
%TD*%
%TO.C,D2*%
X97348800Y-110180800D03*
X96048800Y-110180800D03*
%TD*%
D24*
%TO.C,C6*%
X84916500Y-108648000D03*
X84916500Y-109608000D03*
%TD*%
D17*
%TO.C,D4*%
X102667500Y-110255900D03*
X101367500Y-110255900D03*
%TD*%
D10*
%TO.C,R40*%
X106890000Y-84340000D03*
X106890000Y-85360000D03*
%TD*%
D18*
%TO.C,C11*%
X113898600Y-108625100D03*
X115798600Y-108625100D03*
%TD*%
D17*
%TO.C,D5*%
X104369600Y-103045900D03*
X103069600Y-103045900D03*
%TD*%
D20*
%TO.C,C4*%
X103462400Y-98197900D03*
X103462400Y-100097900D03*
%TD*%
D12*
%TO.C,C45*%
X110500600Y-91271800D03*
X110500600Y-90311800D03*
%TD*%
D25*
%TO.C,C16*%
X103150000Y-112150000D03*
X101250000Y-112150000D03*
%TD*%
D12*
%TO.C,C18*%
X98000000Y-112630000D03*
X98000000Y-111670000D03*
%TD*%
D18*
%TO.C,C53*%
X93850000Y-87850000D03*
X95750000Y-87850000D03*
%TD*%
D24*
%TO.C,C30*%
X112150000Y-99520000D03*
X112150000Y-100480000D03*
%TD*%
D25*
%TO.C,C35*%
X88146500Y-108605000D03*
X86246500Y-108605000D03*
%TD*%
D13*
%TO.C,R15*%
X109100000Y-115660000D03*
X109100000Y-114640000D03*
%TD*%
D20*
%TO.C,C29*%
X112150000Y-93850000D03*
X112150000Y-95750000D03*
%TD*%
D10*
%TO.C,R49*%
X109137800Y-96241500D03*
X109137800Y-97261500D03*
%TD*%
%TO.C,R48*%
X96490000Y-84340000D03*
X96490000Y-85360000D03*
%TD*%
D11*
%TO.C,C51*%
X97080000Y-89550000D03*
X96120000Y-89550000D03*
%TD*%
D16*
%TO.C,R11*%
X93099700Y-102787900D03*
X94119700Y-102787900D03*
%TD*%
D17*
%TO.C,D9*%
X95630400Y-96954100D03*
X96930400Y-96954100D03*
%TD*%
D25*
%TO.C,C17*%
X108350000Y-112150000D03*
X106450000Y-112150000D03*
%TD*%
D19*
%TO.C,C21*%
X108760000Y-110485800D03*
X109720000Y-110485800D03*
%TD*%
D10*
%TO.C,R45*%
X101690000Y-84340000D03*
X101690000Y-85360000D03*
%TD*%
D16*
%TO.C,R35*%
X84340000Y-106890000D03*
X85360000Y-106890000D03*
%TD*%
D17*
%TO.C,D10*%
X90347400Y-97490200D03*
X89047400Y-97490200D03*
%TD*%
D24*
%TO.C,C9*%
X89499400Y-108728200D03*
X89499400Y-109688200D03*
%TD*%
D21*
%TO.C,C47*%
X91395000Y-88087600D03*
X91395000Y-86187600D03*
%TD*%
D10*
%TO.C,R42*%
X103510000Y-84340000D03*
X103510000Y-85360000D03*
%TD*%
D24*
%TO.C,C39*%
X89550000Y-102920000D03*
X89550000Y-103880000D03*
%TD*%
D17*
%TO.C,D6*%
X109652600Y-102509800D03*
X110952600Y-102509800D03*
%TD*%
D14*
%TO.C,D7*%
X109850000Y-100710600D03*
X109850000Y-99410600D03*
%TD*%
D15*
%TO.C,R20*%
X115660000Y-103510000D03*
X114640000Y-103510000D03*
%TD*%
D16*
%TO.C,R38*%
X96241500Y-90862200D03*
X97261500Y-90862200D03*
%TD*%
D12*
%TO.C,C42*%
X87850000Y-100480000D03*
X87850000Y-99520000D03*
%TD*%
D15*
%TO.C,R47*%
X109437800Y-89738000D03*
X108417800Y-89738000D03*
%TD*%
%TO.C,R44*%
X106900300Y-97212100D03*
X105880300Y-97212100D03*
%TD*%
%TO.C,R26*%
X115660000Y-96490000D03*
X114640000Y-96490000D03*
%TD*%
%TO.C,R23*%
X115660000Y-101690000D03*
X114640000Y-101690000D03*
%TD*%
D13*
%TO.C,R22*%
X102950000Y-106900300D03*
X102950000Y-105880300D03*
%TD*%
D21*
%TO.C,C41*%
X87850000Y-106150000D03*
X87850000Y-104250000D03*
%TD*%
D14*
%TO.C,D11*%
X90150000Y-99289400D03*
X90150000Y-100589400D03*
%TD*%
D10*
%TO.C,R33*%
X97212100Y-93099700D03*
X97212100Y-94119700D03*
%TD*%
D11*
%TO.C,C15*%
X107780000Y-110450000D03*
X106820000Y-110450000D03*
%TD*%
M02*
