%TF.GenerationSoftware,KiCad,Pcbnew,10.0.6-10.0.6~ubuntu24.04.1*%
%TF.CreationDate,2026-09-26T22:40:43+00:00*%
%TF.ProjectId,cheapdrone-esc,63686561-7064-4726-9f6e-652d6573632e,rev?*%
%TF.SameCoordinates,Original*%
%TF.FileFunction,Drillmap*%
%TF.FilePolarity,Positive*%
%FSLAX45Y45*%
G04 Gerber Fmt 4.5, Leading zero omitted, Abs format (unit mm)*
G04 Created by KiCad (PCBNEW 10.0.6-10.0.6~ubuntu24.04.1) date 2026-09-26 22:40:43*
%MOMM*%
%LPD*%
G01*
G04 APERTURE LIST*
%ADD10C,0.100000*%
%ADD11C,0.200000*%
%ADD12C,0.320000*%
G04 APERTURE END LIST*
D10*
X8310000Y-8310000D02*
X11690000Y-8310000D01*
X8310000Y-11690000D02*
X8310000Y-8310000D01*
X11690000Y-8310000D02*
X11690000Y-11690000D01*
X11690000Y-11690000D02*
X8310000Y-11690000D01*
D11*
D12*
X8565000Y-8565000D02*
X8885000Y-8885000D01*
X8885000Y-8565000D02*
X8565000Y-8885000D01*
X8565000Y-11115000D02*
X8885000Y-11435000D01*
X8885000Y-11115000D02*
X8565000Y-11435000D01*
X11115000Y-8565000D02*
X11435000Y-8885000D01*
X11435000Y-8565000D02*
X11115000Y-8885000D01*
X11115000Y-11115000D02*
X11435000Y-11435000D01*
X11435000Y-11115000D02*
X11115000Y-11435000D01*
D11*
X8565777Y-12006484D02*
X8565777Y-11806484D01*
X8565777Y-11806484D02*
X8613396Y-11806484D01*
X8613396Y-11806484D02*
X8641967Y-11816008D01*
X8641967Y-11816008D02*
X8661015Y-11835055D01*
X8661015Y-11835055D02*
X8670539Y-11854103D01*
X8670539Y-11854103D02*
X8680063Y-11892198D01*
X8680063Y-11892198D02*
X8680063Y-11920769D01*
X8680063Y-11920769D02*
X8670539Y-11958865D01*
X8670539Y-11958865D02*
X8661015Y-11977912D01*
X8661015Y-11977912D02*
X8641967Y-11996960D01*
X8641967Y-11996960D02*
X8613396Y-12006484D01*
X8613396Y-12006484D02*
X8565777Y-12006484D01*
X8765777Y-12006484D02*
X8765777Y-11873150D01*
X8765777Y-11911246D02*
X8775301Y-11892198D01*
X8775301Y-11892198D02*
X8784824Y-11882674D01*
X8784824Y-11882674D02*
X8803872Y-11873150D01*
X8803872Y-11873150D02*
X8822920Y-11873150D01*
X8889586Y-12006484D02*
X8889586Y-11873150D01*
X8889586Y-11806484D02*
X8880063Y-11816008D01*
X8880063Y-11816008D02*
X8889586Y-11825531D01*
X8889586Y-11825531D02*
X8899110Y-11816008D01*
X8899110Y-11816008D02*
X8889586Y-11806484D01*
X8889586Y-11806484D02*
X8889586Y-11825531D01*
X9013396Y-12006484D02*
X8994348Y-11996960D01*
X8994348Y-11996960D02*
X8984824Y-11977912D01*
X8984824Y-11977912D02*
X8984824Y-11806484D01*
X9118158Y-12006484D02*
X9099110Y-11996960D01*
X9099110Y-11996960D02*
X9089586Y-11977912D01*
X9089586Y-11977912D02*
X9089586Y-11806484D01*
X9346729Y-12006484D02*
X9346729Y-11806484D01*
X9346729Y-11806484D02*
X9413396Y-11949341D01*
X9413396Y-11949341D02*
X9480063Y-11806484D01*
X9480063Y-11806484D02*
X9480063Y-12006484D01*
X9661015Y-12006484D02*
X9661015Y-11901722D01*
X9661015Y-11901722D02*
X9651491Y-11882674D01*
X9651491Y-11882674D02*
X9632444Y-11873150D01*
X9632444Y-11873150D02*
X9594348Y-11873150D01*
X9594348Y-11873150D02*
X9575301Y-11882674D01*
X9661015Y-11996960D02*
X9641967Y-12006484D01*
X9641967Y-12006484D02*
X9594348Y-12006484D01*
X9594348Y-12006484D02*
X9575301Y-11996960D01*
X9575301Y-11996960D02*
X9565777Y-11977912D01*
X9565777Y-11977912D02*
X9565777Y-11958865D01*
X9565777Y-11958865D02*
X9575301Y-11939817D01*
X9575301Y-11939817D02*
X9594348Y-11930293D01*
X9594348Y-11930293D02*
X9641967Y-11930293D01*
X9641967Y-11930293D02*
X9661015Y-11920769D01*
X9756253Y-11873150D02*
X9756253Y-12073150D01*
X9756253Y-11882674D02*
X9775301Y-11873150D01*
X9775301Y-11873150D02*
X9813396Y-11873150D01*
X9813396Y-11873150D02*
X9832444Y-11882674D01*
X9832444Y-11882674D02*
X9841967Y-11892198D01*
X9841967Y-11892198D02*
X9851491Y-11911246D01*
X9851491Y-11911246D02*
X9851491Y-11968388D01*
X9851491Y-11968388D02*
X9841967Y-11987436D01*
X9841967Y-11987436D02*
X9832444Y-11996960D01*
X9832444Y-11996960D02*
X9813396Y-12006484D01*
X9813396Y-12006484D02*
X9775301Y-12006484D01*
X9775301Y-12006484D02*
X9756253Y-11996960D01*
X9937205Y-11987436D02*
X9946729Y-11996960D01*
X9946729Y-11996960D02*
X9937205Y-12006484D01*
X9937205Y-12006484D02*
X9927682Y-11996960D01*
X9927682Y-11996960D02*
X9937205Y-11987436D01*
X9937205Y-11987436D02*
X9937205Y-12006484D01*
X9937205Y-11882674D02*
X9946729Y-11892198D01*
X9946729Y-11892198D02*
X9937205Y-11901722D01*
X9937205Y-11901722D02*
X9927682Y-11892198D01*
X9927682Y-11892198D02*
X9937205Y-11882674D01*
X9937205Y-11882674D02*
X9937205Y-11901722D01*
X8105000Y-12235000D02*
X8305000Y-12435000D01*
X8305000Y-12235000D02*
X8105000Y-12435000D01*
X8546729Y-12226484D02*
X8670539Y-12226484D01*
X8670539Y-12226484D02*
X8603872Y-12302674D01*
X8603872Y-12302674D02*
X8632444Y-12302674D01*
X8632444Y-12302674D02*
X8651491Y-12312198D01*
X8651491Y-12312198D02*
X8661015Y-12321722D01*
X8661015Y-12321722D02*
X8670539Y-12340769D01*
X8670539Y-12340769D02*
X8670539Y-12388388D01*
X8670539Y-12388388D02*
X8661015Y-12407436D01*
X8661015Y-12407436D02*
X8651491Y-12416960D01*
X8651491Y-12416960D02*
X8632444Y-12426484D01*
X8632444Y-12426484D02*
X8575301Y-12426484D01*
X8575301Y-12426484D02*
X8556253Y-12416960D01*
X8556253Y-12416960D02*
X8546729Y-12407436D01*
X8756253Y-12407436D02*
X8765777Y-12416960D01*
X8765777Y-12416960D02*
X8756253Y-12426484D01*
X8756253Y-12426484D02*
X8746729Y-12416960D01*
X8746729Y-12416960D02*
X8756253Y-12407436D01*
X8756253Y-12407436D02*
X8756253Y-12426484D01*
X8841967Y-12245531D02*
X8851491Y-12236008D01*
X8851491Y-12236008D02*
X8870539Y-12226484D01*
X8870539Y-12226484D02*
X8918158Y-12226484D01*
X8918158Y-12226484D02*
X8937205Y-12236008D01*
X8937205Y-12236008D02*
X8946729Y-12245531D01*
X8946729Y-12245531D02*
X8956253Y-12264579D01*
X8956253Y-12264579D02*
X8956253Y-12283627D01*
X8956253Y-12283627D02*
X8946729Y-12312198D01*
X8946729Y-12312198D02*
X8832444Y-12426484D01*
X8832444Y-12426484D02*
X8956253Y-12426484D01*
X9080063Y-12226484D02*
X9099110Y-12226484D01*
X9099110Y-12226484D02*
X9118158Y-12236008D01*
X9118158Y-12236008D02*
X9127682Y-12245531D01*
X9127682Y-12245531D02*
X9137205Y-12264579D01*
X9137205Y-12264579D02*
X9146729Y-12302674D01*
X9146729Y-12302674D02*
X9146729Y-12350293D01*
X9146729Y-12350293D02*
X9137205Y-12388388D01*
X9137205Y-12388388D02*
X9127682Y-12407436D01*
X9127682Y-12407436D02*
X9118158Y-12416960D01*
X9118158Y-12416960D02*
X9099110Y-12426484D01*
X9099110Y-12426484D02*
X9080063Y-12426484D01*
X9080063Y-12426484D02*
X9061015Y-12416960D01*
X9061015Y-12416960D02*
X9051491Y-12407436D01*
X9051491Y-12407436D02*
X9041967Y-12388388D01*
X9041967Y-12388388D02*
X9032444Y-12350293D01*
X9032444Y-12350293D02*
X9032444Y-12302674D01*
X9032444Y-12302674D02*
X9041967Y-12264579D01*
X9041967Y-12264579D02*
X9051491Y-12245531D01*
X9051491Y-12245531D02*
X9061015Y-12236008D01*
X9061015Y-12236008D02*
X9080063Y-12226484D01*
X9270539Y-12226484D02*
X9289586Y-12226484D01*
X9289586Y-12226484D02*
X9308634Y-12236008D01*
X9308634Y-12236008D02*
X9318158Y-12245531D01*
X9318158Y-12245531D02*
X9327682Y-12264579D01*
X9327682Y-12264579D02*
X9337205Y-12302674D01*
X9337205Y-12302674D02*
X9337205Y-12350293D01*
X9337205Y-12350293D02*
X9327682Y-12388388D01*
X9327682Y-12388388D02*
X9318158Y-12407436D01*
X9318158Y-12407436D02*
X9308634Y-12416960D01*
X9308634Y-12416960D02*
X9289586Y-12426484D01*
X9289586Y-12426484D02*
X9270539Y-12426484D01*
X9270539Y-12426484D02*
X9251491Y-12416960D01*
X9251491Y-12416960D02*
X9241967Y-12407436D01*
X9241967Y-12407436D02*
X9232444Y-12388388D01*
X9232444Y-12388388D02*
X9222920Y-12350293D01*
X9222920Y-12350293D02*
X9222920Y-12302674D01*
X9222920Y-12302674D02*
X9232444Y-12264579D01*
X9232444Y-12264579D02*
X9241967Y-12245531D01*
X9241967Y-12245531D02*
X9251491Y-12236008D01*
X9251491Y-12236008D02*
X9270539Y-12226484D01*
X9422920Y-12426484D02*
X9422920Y-12293150D01*
X9422920Y-12312198D02*
X9432444Y-12302674D01*
X9432444Y-12302674D02*
X9451491Y-12293150D01*
X9451491Y-12293150D02*
X9480063Y-12293150D01*
X9480063Y-12293150D02*
X9499110Y-12302674D01*
X9499110Y-12302674D02*
X9508634Y-12321722D01*
X9508634Y-12321722D02*
X9508634Y-12426484D01*
X9508634Y-12321722D02*
X9518158Y-12302674D01*
X9518158Y-12302674D02*
X9537205Y-12293150D01*
X9537205Y-12293150D02*
X9565777Y-12293150D01*
X9565777Y-12293150D02*
X9584825Y-12302674D01*
X9584825Y-12302674D02*
X9594348Y-12321722D01*
X9594348Y-12321722D02*
X9594348Y-12426484D01*
X9689586Y-12426484D02*
X9689586Y-12293150D01*
X9689586Y-12312198D02*
X9699110Y-12302674D01*
X9699110Y-12302674D02*
X9718158Y-12293150D01*
X9718158Y-12293150D02*
X9746729Y-12293150D01*
X9746729Y-12293150D02*
X9765777Y-12302674D01*
X9765777Y-12302674D02*
X9775301Y-12321722D01*
X9775301Y-12321722D02*
X9775301Y-12426484D01*
X9775301Y-12321722D02*
X9784825Y-12302674D01*
X9784825Y-12302674D02*
X9803872Y-12293150D01*
X9803872Y-12293150D02*
X9832444Y-12293150D01*
X9832444Y-12293150D02*
X9851491Y-12302674D01*
X9851491Y-12302674D02*
X9861015Y-12321722D01*
X9861015Y-12321722D02*
X9861015Y-12426484D01*
X10251491Y-12216960D02*
X10080063Y-12474103D01*
X10508634Y-12226484D02*
X10527682Y-12226484D01*
X10527682Y-12226484D02*
X10546729Y-12236008D01*
X10546729Y-12236008D02*
X10556253Y-12245531D01*
X10556253Y-12245531D02*
X10565777Y-12264579D01*
X10565777Y-12264579D02*
X10575301Y-12302674D01*
X10575301Y-12302674D02*
X10575301Y-12350293D01*
X10575301Y-12350293D02*
X10565777Y-12388388D01*
X10565777Y-12388388D02*
X10556253Y-12407436D01*
X10556253Y-12407436D02*
X10546729Y-12416960D01*
X10546729Y-12416960D02*
X10527682Y-12426484D01*
X10527682Y-12426484D02*
X10508634Y-12426484D01*
X10508634Y-12426484D02*
X10489587Y-12416960D01*
X10489587Y-12416960D02*
X10480063Y-12407436D01*
X10480063Y-12407436D02*
X10470539Y-12388388D01*
X10470539Y-12388388D02*
X10461015Y-12350293D01*
X10461015Y-12350293D02*
X10461015Y-12302674D01*
X10461015Y-12302674D02*
X10470539Y-12264579D01*
X10470539Y-12264579D02*
X10480063Y-12245531D01*
X10480063Y-12245531D02*
X10489587Y-12236008D01*
X10489587Y-12236008D02*
X10508634Y-12226484D01*
X10661015Y-12407436D02*
X10670539Y-12416960D01*
X10670539Y-12416960D02*
X10661015Y-12426484D01*
X10661015Y-12426484D02*
X10651491Y-12416960D01*
X10651491Y-12416960D02*
X10661015Y-12407436D01*
X10661015Y-12407436D02*
X10661015Y-12426484D01*
X10861015Y-12426484D02*
X10746729Y-12426484D01*
X10803872Y-12426484D02*
X10803872Y-12226484D01*
X10803872Y-12226484D02*
X10784825Y-12255055D01*
X10784825Y-12255055D02*
X10765777Y-12274103D01*
X10765777Y-12274103D02*
X10746729Y-12283627D01*
X10937206Y-12245531D02*
X10946729Y-12236008D01*
X10946729Y-12236008D02*
X10965777Y-12226484D01*
X10965777Y-12226484D02*
X11013396Y-12226484D01*
X11013396Y-12226484D02*
X11032444Y-12236008D01*
X11032444Y-12236008D02*
X11041968Y-12245531D01*
X11041968Y-12245531D02*
X11051491Y-12264579D01*
X11051491Y-12264579D02*
X11051491Y-12283627D01*
X11051491Y-12283627D02*
X11041968Y-12312198D01*
X11041968Y-12312198D02*
X10927682Y-12426484D01*
X10927682Y-12426484D02*
X11051491Y-12426484D01*
X11222920Y-12226484D02*
X11184825Y-12226484D01*
X11184825Y-12226484D02*
X11165777Y-12236008D01*
X11165777Y-12236008D02*
X11156253Y-12245531D01*
X11156253Y-12245531D02*
X11137206Y-12274103D01*
X11137206Y-12274103D02*
X11127682Y-12312198D01*
X11127682Y-12312198D02*
X11127682Y-12388388D01*
X11127682Y-12388388D02*
X11137206Y-12407436D01*
X11137206Y-12407436D02*
X11146729Y-12416960D01*
X11146729Y-12416960D02*
X11165777Y-12426484D01*
X11165777Y-12426484D02*
X11203872Y-12426484D01*
X11203872Y-12426484D02*
X11222920Y-12416960D01*
X11222920Y-12416960D02*
X11232444Y-12407436D01*
X11232444Y-12407436D02*
X11241967Y-12388388D01*
X11241967Y-12388388D02*
X11241967Y-12340769D01*
X11241967Y-12340769D02*
X11232444Y-12321722D01*
X11232444Y-12321722D02*
X11222920Y-12312198D01*
X11222920Y-12312198D02*
X11203872Y-12302674D01*
X11203872Y-12302674D02*
X11165777Y-12302674D01*
X11165777Y-12302674D02*
X11146729Y-12312198D01*
X11146729Y-12312198D02*
X11137206Y-12321722D01*
X11137206Y-12321722D02*
X11127682Y-12340769D01*
X11365777Y-12226484D02*
X11384825Y-12226484D01*
X11384825Y-12226484D02*
X11403872Y-12236008D01*
X11403872Y-12236008D02*
X11413396Y-12245531D01*
X11413396Y-12245531D02*
X11422920Y-12264579D01*
X11422920Y-12264579D02*
X11432444Y-12302674D01*
X11432444Y-12302674D02*
X11432444Y-12350293D01*
X11432444Y-12350293D02*
X11422920Y-12388388D01*
X11422920Y-12388388D02*
X11413396Y-12407436D01*
X11413396Y-12407436D02*
X11403872Y-12416960D01*
X11403872Y-12416960D02*
X11384825Y-12426484D01*
X11384825Y-12426484D02*
X11365777Y-12426484D01*
X11365777Y-12426484D02*
X11346729Y-12416960D01*
X11346729Y-12416960D02*
X11337206Y-12407436D01*
X11337206Y-12407436D02*
X11327682Y-12388388D01*
X11327682Y-12388388D02*
X11318158Y-12350293D01*
X11318158Y-12350293D02*
X11318158Y-12302674D01*
X11318158Y-12302674D02*
X11327682Y-12264579D01*
X11327682Y-12264579D02*
X11337206Y-12245531D01*
X11337206Y-12245531D02*
X11346729Y-12236008D01*
X11346729Y-12236008D02*
X11365777Y-12226484D01*
X11508634Y-12226484D02*
X11508634Y-12264579D01*
X11584825Y-12226484D02*
X11584825Y-12264579D01*
X11880063Y-12502674D02*
X11870539Y-12493150D01*
X11870539Y-12493150D02*
X11851491Y-12464579D01*
X11851491Y-12464579D02*
X11841968Y-12445531D01*
X11841968Y-12445531D02*
X11832444Y-12416960D01*
X11832444Y-12416960D02*
X11822920Y-12369341D01*
X11822920Y-12369341D02*
X11822920Y-12331246D01*
X11822920Y-12331246D02*
X11832444Y-12283627D01*
X11832444Y-12283627D02*
X11841968Y-12255055D01*
X11841968Y-12255055D02*
X11851491Y-12236008D01*
X11851491Y-12236008D02*
X11870539Y-12207436D01*
X11870539Y-12207436D02*
X11880063Y-12197912D01*
X12041968Y-12293150D02*
X12041968Y-12426484D01*
X11994348Y-12216960D02*
X11946729Y-12359817D01*
X11946729Y-12359817D02*
X12070539Y-12359817D01*
X12299110Y-12426484D02*
X12299110Y-12226484D01*
X12384825Y-12426484D02*
X12384825Y-12321722D01*
X12384825Y-12321722D02*
X12375301Y-12302674D01*
X12375301Y-12302674D02*
X12356253Y-12293150D01*
X12356253Y-12293150D02*
X12327682Y-12293150D01*
X12327682Y-12293150D02*
X12308634Y-12302674D01*
X12308634Y-12302674D02*
X12299110Y-12312198D01*
X12508634Y-12426484D02*
X12489587Y-12416960D01*
X12489587Y-12416960D02*
X12480063Y-12407436D01*
X12480063Y-12407436D02*
X12470539Y-12388388D01*
X12470539Y-12388388D02*
X12470539Y-12331246D01*
X12470539Y-12331246D02*
X12480063Y-12312198D01*
X12480063Y-12312198D02*
X12489587Y-12302674D01*
X12489587Y-12302674D02*
X12508634Y-12293150D01*
X12508634Y-12293150D02*
X12537206Y-12293150D01*
X12537206Y-12293150D02*
X12556253Y-12302674D01*
X12556253Y-12302674D02*
X12565777Y-12312198D01*
X12565777Y-12312198D02*
X12575301Y-12331246D01*
X12575301Y-12331246D02*
X12575301Y-12388388D01*
X12575301Y-12388388D02*
X12565777Y-12407436D01*
X12565777Y-12407436D02*
X12556253Y-12416960D01*
X12556253Y-12416960D02*
X12537206Y-12426484D01*
X12537206Y-12426484D02*
X12508634Y-12426484D01*
X12689587Y-12426484D02*
X12670539Y-12416960D01*
X12670539Y-12416960D02*
X12661015Y-12397912D01*
X12661015Y-12397912D02*
X12661015Y-12226484D01*
X12841968Y-12416960D02*
X12822920Y-12426484D01*
X12822920Y-12426484D02*
X12784825Y-12426484D01*
X12784825Y-12426484D02*
X12765777Y-12416960D01*
X12765777Y-12416960D02*
X12756253Y-12397912D01*
X12756253Y-12397912D02*
X12756253Y-12321722D01*
X12756253Y-12321722D02*
X12765777Y-12302674D01*
X12765777Y-12302674D02*
X12784825Y-12293150D01*
X12784825Y-12293150D02*
X12822920Y-12293150D01*
X12822920Y-12293150D02*
X12841968Y-12302674D01*
X12841968Y-12302674D02*
X12851491Y-12321722D01*
X12851491Y-12321722D02*
X12851491Y-12340769D01*
X12851491Y-12340769D02*
X12756253Y-12359817D01*
X12927682Y-12416960D02*
X12946730Y-12426484D01*
X12946730Y-12426484D02*
X12984825Y-12426484D01*
X12984825Y-12426484D02*
X13003872Y-12416960D01*
X13003872Y-12416960D02*
X13013396Y-12397912D01*
X13013396Y-12397912D02*
X13013396Y-12388388D01*
X13013396Y-12388388D02*
X13003872Y-12369341D01*
X13003872Y-12369341D02*
X12984825Y-12359817D01*
X12984825Y-12359817D02*
X12956253Y-12359817D01*
X12956253Y-12359817D02*
X12937206Y-12350293D01*
X12937206Y-12350293D02*
X12927682Y-12331246D01*
X12927682Y-12331246D02*
X12927682Y-12321722D01*
X12927682Y-12321722D02*
X12937206Y-12302674D01*
X12937206Y-12302674D02*
X12956253Y-12293150D01*
X12956253Y-12293150D02*
X12984825Y-12293150D01*
X12984825Y-12293150D02*
X13003872Y-12302674D01*
X13080063Y-12502674D02*
X13089587Y-12493150D01*
X13089587Y-12493150D02*
X13108634Y-12464579D01*
X13108634Y-12464579D02*
X13118158Y-12445531D01*
X13118158Y-12445531D02*
X13127682Y-12416960D01*
X13127682Y-12416960D02*
X13137206Y-12369341D01*
X13137206Y-12369341D02*
X13137206Y-12331246D01*
X13137206Y-12331246D02*
X13127682Y-12283627D01*
X13127682Y-12283627D02*
X13118158Y-12255055D01*
X13118158Y-12255055D02*
X13108634Y-12236008D01*
X13108634Y-12236008D02*
X13089587Y-12207436D01*
X13089587Y-12207436D02*
X13080063Y-12197912D01*
X13441968Y-12502674D02*
X13432444Y-12493150D01*
X13432444Y-12493150D02*
X13413396Y-12464579D01*
X13413396Y-12464579D02*
X13403872Y-12445531D01*
X13403872Y-12445531D02*
X13394349Y-12416960D01*
X13394349Y-12416960D02*
X13384825Y-12369341D01*
X13384825Y-12369341D02*
X13384825Y-12331246D01*
X13384825Y-12331246D02*
X13394349Y-12283627D01*
X13394349Y-12283627D02*
X13403872Y-12255055D01*
X13403872Y-12255055D02*
X13413396Y-12236008D01*
X13413396Y-12236008D02*
X13432444Y-12207436D01*
X13432444Y-12207436D02*
X13441968Y-12197912D01*
X13518158Y-12293150D02*
X13518158Y-12426484D01*
X13518158Y-12312198D02*
X13527682Y-12302674D01*
X13527682Y-12302674D02*
X13546730Y-12293150D01*
X13546730Y-12293150D02*
X13575301Y-12293150D01*
X13575301Y-12293150D02*
X13594349Y-12302674D01*
X13594349Y-12302674D02*
X13603872Y-12321722D01*
X13603872Y-12321722D02*
X13603872Y-12426484D01*
X13727682Y-12426484D02*
X13708634Y-12416960D01*
X13708634Y-12416960D02*
X13699111Y-12407436D01*
X13699111Y-12407436D02*
X13689587Y-12388388D01*
X13689587Y-12388388D02*
X13689587Y-12331246D01*
X13689587Y-12331246D02*
X13699111Y-12312198D01*
X13699111Y-12312198D02*
X13708634Y-12302674D01*
X13708634Y-12302674D02*
X13727682Y-12293150D01*
X13727682Y-12293150D02*
X13756253Y-12293150D01*
X13756253Y-12293150D02*
X13775301Y-12302674D01*
X13775301Y-12302674D02*
X13784825Y-12312198D01*
X13784825Y-12312198D02*
X13794349Y-12331246D01*
X13794349Y-12331246D02*
X13794349Y-12388388D01*
X13794349Y-12388388D02*
X13784825Y-12407436D01*
X13784825Y-12407436D02*
X13775301Y-12416960D01*
X13775301Y-12416960D02*
X13756253Y-12426484D01*
X13756253Y-12426484D02*
X13727682Y-12426484D01*
X13851492Y-12293150D02*
X13927682Y-12293150D01*
X13880063Y-12226484D02*
X13880063Y-12397912D01*
X13880063Y-12397912D02*
X13889587Y-12416960D01*
X13889587Y-12416960D02*
X13908634Y-12426484D01*
X13908634Y-12426484D02*
X13927682Y-12426484D01*
X14146730Y-12293150D02*
X14146730Y-12493150D01*
X14146730Y-12302674D02*
X14165777Y-12293150D01*
X14165777Y-12293150D02*
X14203873Y-12293150D01*
X14203873Y-12293150D02*
X14222920Y-12302674D01*
X14222920Y-12302674D02*
X14232444Y-12312198D01*
X14232444Y-12312198D02*
X14241968Y-12331246D01*
X14241968Y-12331246D02*
X14241968Y-12388388D01*
X14241968Y-12388388D02*
X14232444Y-12407436D01*
X14232444Y-12407436D02*
X14222920Y-12416960D01*
X14222920Y-12416960D02*
X14203873Y-12426484D01*
X14203873Y-12426484D02*
X14165777Y-12426484D01*
X14165777Y-12426484D02*
X14146730Y-12416960D01*
X14356253Y-12426484D02*
X14337206Y-12416960D01*
X14337206Y-12416960D02*
X14327682Y-12397912D01*
X14327682Y-12397912D02*
X14327682Y-12226484D01*
X14518158Y-12426484D02*
X14518158Y-12321722D01*
X14518158Y-12321722D02*
X14508634Y-12302674D01*
X14508634Y-12302674D02*
X14489587Y-12293150D01*
X14489587Y-12293150D02*
X14451492Y-12293150D01*
X14451492Y-12293150D02*
X14432444Y-12302674D01*
X14518158Y-12416960D02*
X14499111Y-12426484D01*
X14499111Y-12426484D02*
X14451492Y-12426484D01*
X14451492Y-12426484D02*
X14432444Y-12416960D01*
X14432444Y-12416960D02*
X14422920Y-12397912D01*
X14422920Y-12397912D02*
X14422920Y-12378865D01*
X14422920Y-12378865D02*
X14432444Y-12359817D01*
X14432444Y-12359817D02*
X14451492Y-12350293D01*
X14451492Y-12350293D02*
X14499111Y-12350293D01*
X14499111Y-12350293D02*
X14518158Y-12340769D01*
X14584825Y-12293150D02*
X14661015Y-12293150D01*
X14613396Y-12226484D02*
X14613396Y-12397912D01*
X14613396Y-12397912D02*
X14622920Y-12416960D01*
X14622920Y-12416960D02*
X14641968Y-12426484D01*
X14641968Y-12426484D02*
X14661015Y-12426484D01*
X14803873Y-12416960D02*
X14784825Y-12426484D01*
X14784825Y-12426484D02*
X14746730Y-12426484D01*
X14746730Y-12426484D02*
X14727682Y-12416960D01*
X14727682Y-12416960D02*
X14718158Y-12397912D01*
X14718158Y-12397912D02*
X14718158Y-12321722D01*
X14718158Y-12321722D02*
X14727682Y-12302674D01*
X14727682Y-12302674D02*
X14746730Y-12293150D01*
X14746730Y-12293150D02*
X14784825Y-12293150D01*
X14784825Y-12293150D02*
X14803873Y-12302674D01*
X14803873Y-12302674D02*
X14813396Y-12321722D01*
X14813396Y-12321722D02*
X14813396Y-12340769D01*
X14813396Y-12340769D02*
X14718158Y-12359817D01*
X14984825Y-12426484D02*
X14984825Y-12226484D01*
X14984825Y-12416960D02*
X14965777Y-12426484D01*
X14965777Y-12426484D02*
X14927682Y-12426484D01*
X14927682Y-12426484D02*
X14908634Y-12416960D01*
X14908634Y-12416960D02*
X14899111Y-12407436D01*
X14899111Y-12407436D02*
X14889587Y-12388388D01*
X14889587Y-12388388D02*
X14889587Y-12331246D01*
X14889587Y-12331246D02*
X14899111Y-12312198D01*
X14899111Y-12312198D02*
X14908634Y-12302674D01*
X14908634Y-12302674D02*
X14927682Y-12293150D01*
X14927682Y-12293150D02*
X14965777Y-12293150D01*
X14965777Y-12293150D02*
X14984825Y-12302674D01*
X15061015Y-12502674D02*
X15070539Y-12493150D01*
X15070539Y-12493150D02*
X15089587Y-12464579D01*
X15089587Y-12464579D02*
X15099111Y-12445531D01*
X15099111Y-12445531D02*
X15108634Y-12416960D01*
X15108634Y-12416960D02*
X15118158Y-12369341D01*
X15118158Y-12369341D02*
X15118158Y-12331246D01*
X15118158Y-12331246D02*
X15108634Y-12283627D01*
X15108634Y-12283627D02*
X15099111Y-12255055D01*
X15099111Y-12255055D02*
X15089587Y-12236008D01*
X15089587Y-12236008D02*
X15070539Y-12207436D01*
X15070539Y-12207436D02*
X15061015Y-12197912D01*
M02*
