%TF.GenerationSoftware,KiCad,Pcbnew,10.0.6-10.0.6~ubuntu24.04.1*%
%TF.CreationDate,2026-09-26T22:40:42+00:00*%
%TF.ProjectId,cheapdrone-esc,63686561-7064-4726-9f6e-652d6573632e,rev?*%
%TF.SameCoordinates,Original*%
%TF.FileFunction,Copper,L6,Bot*%
%TF.FilePolarity,Positive*%
%FSLAX46Y46*%
G04 Gerber Fmt 4.6, Leading zero omitted, Abs format (unit mm)*
G04 Created by KiCad (PCBNEW 10.0.6-10.0.6~ubuntu24.04.1) date 2026-09-26 22:40:42*
%MOMM*%
%LPD*%
G01*
G04 APERTURE LIST*
G04 Aperture macros list*
%AMRoundRect*
0 Rectangle with rounded corners*
0 $1 Rounding radius*
0 $2 $3 $4 $5 $6 $7 $8 $9 X,Y pos of 4 corners*
0 Add a 4 corners polygon primitive as box body*
4,1,4,$2,$3,$4,$5,$6,$7,$8,$9,$2,$3,0*
0 Add four circle primitives for the rounded corners*
1,1,$1+$1,$2,$3*
1,1,$1+$1,$4,$5*
1,1,$1+$1,$6,$7*
1,1,$1+$1,$8,$9*
0 Add four rect primitives between the rounded corners*
20,1,$1+$1,$2,$3,$4,$5,0*
20,1,$1+$1,$4,$5,$6,$7,0*
20,1,$1+$1,$6,$7,$8,$9,0*
20,1,$1+$1,$8,$9,$2,$3,0*%
G04 Aperture macros list end*
%TA.AperFunction,SMDPad,CuDef*%
%ADD10RoundRect,0.140000X-0.170000X0.140000X-0.170000X-0.140000X0.170000X-0.140000X0.170000X0.140000X0*%
%TD*%
%TA.AperFunction,SMDPad,CuDef*%
%ADD11R,0.400000X0.600000*%
%TD*%
%TA.AperFunction,SMDPad,CuDef*%
%ADD12R,2.500000X0.500000*%
%TD*%
%TA.AperFunction,SMDPad,CuDef*%
%ADD13R,2.500000X1.000000*%
%TD*%
%TA.AperFunction,SMDPad,CuDef*%
%ADD14R,0.633000X0.280000*%
%TD*%
%TA.AperFunction,SMDPad,CuDef*%
%ADD15R,0.280000X0.633000*%
%TD*%
%TA.AperFunction,SMDPad,CuDef*%
%ADD16R,2.700000X2.700000*%
%TD*%
%TA.AperFunction,SMDPad,CuDef*%
%ADD17R,0.800000X0.800000*%
%TD*%
%TA.AperFunction,SMDPad,CuDef*%
%ADD18RoundRect,0.135000X-0.135000X-0.185000X0.135000X-0.185000X0.135000X0.185000X-0.135000X0.185000X0*%
%TD*%
%TA.AperFunction,SMDPad,CuDef*%
%ADD19R,0.300000X0.600000*%
%TD*%
%TA.AperFunction,SMDPad,CuDef*%
%ADD20R,0.600000X0.300000*%
%TD*%
%TA.AperFunction,SMDPad,CuDef*%
%ADD21R,3.450000X3.450000*%
%TD*%
%TA.AperFunction,SMDPad,CuDef*%
%ADD22RoundRect,0.135000X-0.185000X0.135000X-0.185000X-0.135000X0.185000X-0.135000X0.185000X0.135000X0*%
%TD*%
%TA.AperFunction,SMDPad,CuDef*%
%ADD23RoundRect,0.140000X-0.140000X-0.170000X0.140000X-0.170000X0.140000X0.170000X-0.140000X0.170000X0*%
%TD*%
%TA.AperFunction,SMDPad,CuDef*%
%ADD24RoundRect,0.140000X0.140000X0.170000X-0.140000X0.170000X-0.140000X-0.170000X0.140000X-0.170000X0*%
%TD*%
%TA.AperFunction,SMDPad,CuDef*%
%ADD25C,0.900000*%
%TD*%
%TA.AperFunction,SMDPad,CuDef*%
%ADD26RoundRect,0.135000X0.135000X0.185000X-0.135000X0.185000X-0.135000X-0.185000X0.135000X-0.185000X0*%
%TD*%
%TA.AperFunction,SMDPad,CuDef*%
%ADD27R,0.600000X0.400000*%
%TD*%
%TA.AperFunction,SMDPad,CuDef*%
%ADD28R,0.500000X2.500000*%
%TD*%
%TA.AperFunction,SMDPad,CuDef*%
%ADD29R,1.000000X2.500000*%
%TD*%
%TA.AperFunction,SMDPad,CuDef*%
%ADD30RoundRect,0.140000X0.170000X-0.140000X0.170000X0.140000X-0.170000X0.140000X-0.170000X-0.140000X0*%
%TD*%
%TA.AperFunction,SMDPad,CuDef*%
%ADD31R,1.072000X0.532000*%
%TD*%
%TA.AperFunction,SMDPad,CuDef*%
%ADD32RoundRect,0.250000X0.475000X-0.250000X0.475000X0.250000X-0.475000X0.250000X-0.475000X-0.250000X0*%
%TD*%
%TA.AperFunction,SMDPad,CuDef*%
%ADD33RoundRect,0.135000X0.185000X-0.135000X0.185000X0.135000X-0.185000X0.135000X-0.185000X-0.135000X0*%
%TD*%
%TA.AperFunction,SMDPad,CuDef*%
%ADD34R,2.720000X1.300000*%
%TD*%
%TA.AperFunction,ViaPad*%
%ADD35C,0.500000*%
%TD*%
%TA.AperFunction,ViaPad*%
%ADD36C,0.450000*%
%TD*%
%TA.AperFunction,ViaPad*%
%ADD37C,0.350000*%
%TD*%
%TA.AperFunction,Conductor*%
%ADD38C,0.200000*%
%TD*%
%TA.AperFunction,Conductor*%
%ADD39C,0.100000*%
%TD*%
%TA.AperFunction,Conductor*%
%ADD40C,0.250000*%
%TD*%
%TA.AperFunction,Conductor*%
%ADD41C,0.300000*%
%TD*%
%TA.AperFunction,Conductor*%
%ADD42C,0.150000*%
%TD*%
%TA.AperFunction,Conductor*%
%ADD43C,0.400000*%
%TD*%
G04 APERTURE END LIST*
D10*
%TO.P,C34,1*%
%TO.N,M3_NRST*%
X88917500Y-90620300D03*
%TO.P,C34,2*%
%TO.N,GND*%
X88917500Y-91580300D03*
%TD*%
D11*
%TO.P,Q3B,1*%
%TO.N,M3_GHB*%
X88820000Y-101500000D03*
%TO.P,Q3B,2*%
%TO.N,VBAT*%
X88170000Y-101500000D03*
%TO.P,Q3B,3*%
X87530000Y-101500000D03*
%TO.P,Q3B,4*%
X86880000Y-101500000D03*
%TO.P,Q3B,5*%
%TO.N,GND*%
X86880000Y-98500000D03*
%TO.P,Q3B,6*%
X87530000Y-98500000D03*
%TO.P,Q3B,7*%
X88170000Y-98500000D03*
%TO.P,Q3B,8*%
%TO.N,M3_GLB*%
X88820000Y-98500000D03*
D12*
%TO.P,Q3B,9*%
%TO.N,VBAT*%
X87850000Y-100670000D03*
D13*
%TO.P,Q3B,10*%
%TO.N,M3_B*%
X87850000Y-99580000D03*
%TD*%
D14*
%TO.P,U_GD2,1*%
%TO.N,M2_LA*%
X104990000Y-101750000D03*
%TO.P,U_GD2,2*%
%TO.N,M2_LB*%
X104990000Y-101250000D03*
%TO.P,U_GD2,3*%
%TO.N,M2_LC*%
X104990000Y-100750000D03*
%TO.P,U_GD2,4*%
%TO.N,M2_VCC*%
X104990000Y-100250000D03*
%TO.P,U_GD2,5*%
%TO.N,N/C*%
X104990000Y-99750000D03*
%TO.P,U_GD2,6*%
%TO.N,GND*%
X104990000Y-99250000D03*
D15*
%TO.P,U_GD2,7*%
%TO.N,N/C*%
X105650000Y-98590000D03*
%TO.P,U_GD2,8*%
X106150000Y-98590000D03*
%TO.P,U_GD2,9*%
%TO.N,M2_GLC*%
X106650000Y-98590000D03*
%TO.P,U_GD2,10*%
%TO.N,M2_GLB*%
X107150000Y-98590000D03*
%TO.P,U_GD2,11*%
%TO.N,M2_GLA*%
X107650000Y-98590000D03*
%TO.P,U_GD2,12*%
%TO.N,M2_C*%
X108150000Y-98590000D03*
D14*
%TO.P,U_GD2,13*%
%TO.N,M2_GHC*%
X108810000Y-99250000D03*
%TO.P,U_GD2,14*%
%TO.N,M2_VBC*%
X108810000Y-99750000D03*
%TO.P,U_GD2,15*%
%TO.N,M2_B*%
X108810000Y-100250000D03*
%TO.P,U_GD2,16*%
%TO.N,M2_GHB*%
X108810000Y-100750000D03*
%TO.P,U_GD2,17*%
%TO.N,M2_VBB*%
X108810000Y-101250000D03*
%TO.P,U_GD2,18*%
%TO.N,M2_A*%
X108810000Y-101750000D03*
D15*
%TO.P,U_GD2,19*%
%TO.N,M2_GHA*%
X108150000Y-102410000D03*
%TO.P,U_GD2,20*%
%TO.N,M2_VBA*%
X107650000Y-102410000D03*
%TO.P,U_GD2,21*%
%TO.N,N/C*%
X107150000Y-102410000D03*
%TO.P,U_GD2,22*%
%TO.N,M2_HA*%
X106650000Y-102410000D03*
%TO.P,U_GD2,23*%
%TO.N,M2_HB*%
X106150000Y-102410000D03*
%TO.P,U_GD2,24*%
%TO.N,M2_HC*%
X105650000Y-102410000D03*
D16*
%TO.P,U_GD2,25*%
%TO.N,GND*%
X106900000Y-100500000D03*
%TD*%
D10*
%TO.P,C36,1*%
%TO.N,M3_VCC*%
X96039500Y-99940100D03*
%TO.P,C36,2*%
%TO.N,GND*%
X96039500Y-100900100D03*
%TD*%
D17*
%TO.P,LED_PWR,1*%
%TO.N,LED_PWR_A*%
X115500000Y-90650000D03*
%TO.P,LED_PWR,2*%
%TO.N,GND*%
X115500000Y-92150000D03*
%TD*%
D11*
%TO.P,Q3A,1*%
%TO.N,M3_GHA*%
X88820000Y-96300000D03*
%TO.P,Q3A,2*%
%TO.N,VBAT*%
X88170000Y-96300000D03*
%TO.P,Q3A,3*%
X87530000Y-96300000D03*
%TO.P,Q3A,4*%
X86880000Y-96300000D03*
%TO.P,Q3A,5*%
%TO.N,GND*%
X86880000Y-93300000D03*
%TO.P,Q3A,6*%
X87530000Y-93300000D03*
%TO.P,Q3A,7*%
X88170000Y-93300000D03*
%TO.P,Q3A,8*%
%TO.N,M3_GLA*%
X88820000Y-93300000D03*
D12*
%TO.P,Q3A,9*%
%TO.N,VBAT*%
X87850000Y-95470000D03*
D13*
%TO.P,Q3A,10*%
%TO.N,M3_A*%
X87850000Y-94380000D03*
%TD*%
D10*
%TO.P,C32,1*%
%TO.N,+3V3*%
X96171000Y-96700500D03*
%TO.P,C32,2*%
%TO.N,GND*%
X96171000Y-97660500D03*
%TD*%
D18*
%TO.P,R4,1*%
%TO.N,VBAT*%
X83886000Y-97672900D03*
%TO.P,R4,2*%
%TO.N,ESC_VSENSE*%
X84906000Y-97672900D03*
%TD*%
D19*
%TO.P,U_ESC2,1*%
%TO.N,+3V3*%
X108150000Y-109440000D03*
%TO.P,U_ESC2,2*%
%TO.N,N/C*%
X107650000Y-109440000D03*
%TO.P,U_ESC2,3*%
X107150000Y-109440000D03*
%TO.P,U_ESC2,4*%
%TO.N,M2_NRST*%
X106650000Y-109440000D03*
%TO.P,U_ESC2,5*%
%TO.N,+3V3*%
X106150000Y-109440000D03*
%TO.P,U_ESC2,6*%
%TO.N,M2_CMP_C*%
X105650000Y-109440000D03*
%TO.P,U_ESC2,7*%
%TO.N,M2_NEUTRAL*%
X105150000Y-109440000D03*
%TO.P,U_ESC2,8*%
%TO.N,M2_SIG*%
X104650000Y-109440000D03*
D20*
%TO.P,U_ESC2,9*%
%TO.N,ESC_VSENSE*%
X103860000Y-108650000D03*
%TO.P,U_ESC2,10*%
%TO.N,M2_CMP_B*%
X103860000Y-108150000D03*
%TO.P,U_ESC2,11*%
%TO.N,M2_CMP_A*%
X103860000Y-107650000D03*
%TO.P,U_ESC2,12*%
%TO.N,GND*%
X103860000Y-107150000D03*
%TO.P,U_ESC2,13*%
%TO.N,M2_LC*%
X103860000Y-106650000D03*
%TO.P,U_ESC2,14*%
%TO.N,M2_LB*%
X103860000Y-106150000D03*
%TO.P,U_ESC2,15*%
%TO.N,M2_LA*%
X103860000Y-105650000D03*
%TO.P,U_ESC2,16*%
%TO.N,N/C*%
X103860000Y-105150000D03*
D19*
%TO.P,U_ESC2,17*%
%TO.N,+3V3*%
X104650000Y-104360000D03*
%TO.P,U_ESC2,18*%
%TO.N,M2_HC*%
X105150000Y-104360000D03*
%TO.P,U_ESC2,19*%
%TO.N,M2_HB*%
X105650000Y-104360000D03*
%TO.P,U_ESC2,20*%
%TO.N,M2_HA*%
X106150000Y-104360000D03*
%TO.P,U_ESC2,21*%
%TO.N,N/C*%
X106650000Y-104360000D03*
%TO.P,U_ESC2,22*%
X107150000Y-104360000D03*
%TO.P,U_ESC2,23*%
%TO.N,M2_SWDIO*%
X107650000Y-104360000D03*
%TO.P,U_ESC2,24*%
%TO.N,M2_SWCLK*%
X108150000Y-104360000D03*
D20*
%TO.P,U_ESC2,25*%
%TO.N,N/C*%
X108940000Y-105150000D03*
%TO.P,U_ESC2,26*%
X108940000Y-105650000D03*
%TO.P,U_ESC2,27*%
X108940000Y-106150000D03*
%TO.P,U_ESC2,28*%
X108940000Y-106650000D03*
%TO.P,U_ESC2,29*%
X108940000Y-107150000D03*
%TO.P,U_ESC2,30*%
X108940000Y-107650000D03*
%TO.P,U_ESC2,31*%
%TO.N,GND*%
X108940000Y-108150000D03*
%TO.P,U_ESC2,32*%
%TO.N,N/C*%
X108940000Y-108650000D03*
D21*
%TO.P,U_ESC2,33*%
%TO.N,GND*%
X106400000Y-106900000D03*
%TD*%
D22*
%TO.P,R39,1*%
%TO.N,VBAT*%
X90910700Y-87062500D03*
%TO.P,R39,2*%
%TO.N,M4_VCC*%
X90910700Y-88082500D03*
%TD*%
D23*
%TO.P,C14,1*%
%TO.N,M1_VBB*%
X98770000Y-109950000D03*
%TO.P,C14,2*%
%TO.N,M1_B*%
X99730000Y-109950000D03*
%TD*%
D10*
%TO.P,C10,1*%
%TO.N,M1_NRST*%
X89465000Y-108240200D03*
%TO.P,C10,2*%
%TO.N,GND*%
X89465000Y-109200200D03*
%TD*%
D24*
%TO.P,C44,1*%
%TO.N,+3V3*%
X103299500Y-96171000D03*
%TO.P,C44,2*%
%TO.N,GND*%
X102339500Y-96171000D03*
%TD*%
D25*
%TO.P,TP_GND,1*%
%TO.N,GND*%
X83999800Y-107354800D03*
%TD*%
D24*
%TO.P,C43,1*%
%TO.N,+3V3*%
X109305200Y-89969400D03*
%TO.P,C43,2*%
%TO.N,GND*%
X108345200Y-89969400D03*
%TD*%
D26*
%TO.P,R17,1*%
%TO.N,VBAT*%
X112937500Y-90910700D03*
%TO.P,R17,2*%
%TO.N,M2_VCC*%
X111917500Y-90910700D03*
%TD*%
D23*
%TO.P,C12,1*%
%TO.N,M1_VCC*%
X99940100Y-103869700D03*
%TO.P,C12,2*%
%TO.N,GND*%
X100900100Y-103869700D03*
%TD*%
D24*
%TO.P,C50,1*%
%TO.N,M4_VBB*%
X101230000Y-90050000D03*
%TO.P,C50,2*%
%TO.N,M4_B*%
X100270000Y-90050000D03*
%TD*%
D27*
%TO.P,Q1C,1*%
%TO.N,M1_GHC*%
X108900000Y-111180000D03*
%TO.P,Q1C,2*%
%TO.N,VBAT*%
X108900000Y-111830000D03*
%TO.P,Q1C,3*%
X108900000Y-112470000D03*
%TO.P,Q1C,4*%
X108900000Y-113120000D03*
%TO.P,Q1C,5*%
%TO.N,GND*%
X105900000Y-113120000D03*
%TO.P,Q1C,6*%
X105900000Y-112470000D03*
%TO.P,Q1C,7*%
X105900000Y-111830000D03*
%TO.P,Q1C,8*%
%TO.N,M1_GLC*%
X105900000Y-111180000D03*
D28*
%TO.P,Q1C,9*%
%TO.N,VBAT*%
X108070000Y-112150000D03*
D29*
%TO.P,Q1C,10*%
%TO.N,M1_C*%
X106980000Y-112150000D03*
%TD*%
D25*
%TO.P,TP_3V3,1*%
%TO.N,+3V3*%
X84005400Y-102708000D03*
%TD*%
D11*
%TO.P,Q2B,1*%
%TO.N,M2_GHB*%
X111180000Y-98500000D03*
%TO.P,Q2B,2*%
%TO.N,VBAT*%
X111830000Y-98500000D03*
%TO.P,Q2B,3*%
X112470000Y-98500000D03*
%TO.P,Q2B,4*%
X113120000Y-98500000D03*
%TO.P,Q2B,5*%
%TO.N,GND*%
X113120000Y-101500000D03*
%TO.P,Q2B,6*%
X112470000Y-101500000D03*
%TO.P,Q2B,7*%
X111830000Y-101500000D03*
%TO.P,Q2B,8*%
%TO.N,M2_GLB*%
X111180000Y-101500000D03*
D12*
%TO.P,Q2B,9*%
%TO.N,VBAT*%
X112150000Y-99330000D03*
D13*
%TO.P,Q2B,10*%
%TO.N,M2_B*%
X112150000Y-100420000D03*
%TD*%
D24*
%TO.P,C46,1*%
%TO.N,M4_NRST*%
X109379700Y-88917500D03*
%TO.P,C46,2*%
%TO.N,GND*%
X108419700Y-88917500D03*
%TD*%
D30*
%TO.P,C24,1*%
%TO.N,M2_VCC*%
X103994000Y-100059900D03*
%TO.P,C24,2*%
%TO.N,GND*%
X103994000Y-99099900D03*
%TD*%
%TO.P,C26,1*%
%TO.N,M2_VBB*%
X109950000Y-101230000D03*
%TO.P,C26,2*%
%TO.N,M2_B*%
X109950000Y-100270000D03*
%TD*%
D23*
%TO.P,C8,1*%
%TO.N,+3V3*%
X96700500Y-103829000D03*
%TO.P,C8,2*%
%TO.N,GND*%
X97660500Y-103829000D03*
%TD*%
D27*
%TO.P,Q4A,1*%
%TO.N,M4_GHA*%
X103700000Y-88820000D03*
%TO.P,Q4A,2*%
%TO.N,VBAT*%
X103700000Y-88170000D03*
%TO.P,Q4A,3*%
X103700000Y-87530000D03*
%TO.P,Q4A,4*%
X103700000Y-86880000D03*
%TO.P,Q4A,5*%
%TO.N,GND*%
X106700000Y-86880000D03*
%TO.P,Q4A,6*%
X106700000Y-87530000D03*
%TO.P,Q4A,7*%
X106700000Y-88170000D03*
%TO.P,Q4A,8*%
%TO.N,M4_GLA*%
X106700000Y-88820000D03*
D28*
%TO.P,Q4A,9*%
%TO.N,VBAT*%
X104530000Y-87850000D03*
D29*
%TO.P,Q4A,10*%
%TO.N,M4_A*%
X105620000Y-87850000D03*
%TD*%
D27*
%TO.P,Q4C,1*%
%TO.N,M4_GHC*%
X93300000Y-88820000D03*
%TO.P,Q4C,2*%
%TO.N,VBAT*%
X93300000Y-88170000D03*
%TO.P,Q4C,3*%
X93300000Y-87530000D03*
%TO.P,Q4C,4*%
X93300000Y-86880000D03*
%TO.P,Q4C,5*%
%TO.N,GND*%
X96300000Y-86880000D03*
%TO.P,Q4C,6*%
X96300000Y-87530000D03*
%TO.P,Q4C,7*%
X96300000Y-88170000D03*
%TO.P,Q4C,8*%
%TO.N,M4_GLC*%
X96300000Y-88820000D03*
D28*
%TO.P,Q4C,9*%
%TO.N,VBAT*%
X94130000Y-87850000D03*
D29*
%TO.P,Q4C,10*%
%TO.N,M4_C*%
X95220000Y-87850000D03*
%TD*%
D31*
%TO.P,U_BUCK,1*%
%TO.N,GND*%
X99555500Y-99951900D03*
%TO.P,U_BUCK,2*%
%TO.N,BUCK_SW*%
X99555500Y-100901900D03*
%TO.P,U_BUCK,3*%
%TO.N,VBAT*%
X99555500Y-101851900D03*
%TO.P,U_BUCK,4*%
%TO.N,BUCK_FB*%
X97255500Y-101851900D03*
%TO.P,U_BUCK,5*%
%TO.N,VBAT*%
X97255500Y-100901900D03*
%TO.P,U_BUCK,6*%
%TO.N,BUCK_CB*%
X97255500Y-99951900D03*
%TD*%
D10*
%TO.P,C25,1*%
%TO.N,M2_VBA*%
X109950000Y-105140000D03*
%TO.P,C25,2*%
%TO.N,M2_A*%
X109950000Y-106100000D03*
%TD*%
D11*
%TO.P,Q2A,1*%
%TO.N,M2_GHA*%
X111180000Y-103700000D03*
%TO.P,Q2A,2*%
%TO.N,VBAT*%
X111830000Y-103700000D03*
%TO.P,Q2A,3*%
X112470000Y-103700000D03*
%TO.P,Q2A,4*%
X113120000Y-103700000D03*
%TO.P,Q2A,5*%
%TO.N,GND*%
X113120000Y-106700000D03*
%TO.P,Q2A,6*%
X112470000Y-106700000D03*
%TO.P,Q2A,7*%
X111830000Y-106700000D03*
%TO.P,Q2A,8*%
%TO.N,M2_GLA*%
X111180000Y-106700000D03*
D12*
%TO.P,Q2A,9*%
%TO.N,VBAT*%
X112150000Y-104530000D03*
D13*
%TO.P,Q2A,10*%
%TO.N,M2_A*%
X112150000Y-105620000D03*
%TD*%
D23*
%TO.P,C3,1*%
%TO.N,BUCK_CB*%
X97525500Y-98771900D03*
%TO.P,C3,2*%
%TO.N,BUCK_SW*%
X98485500Y-98771900D03*
%TD*%
D11*
%TO.P,Q2C,1*%
%TO.N,M2_GHC*%
X111180000Y-93300000D03*
%TO.P,Q2C,2*%
%TO.N,VBAT*%
X111830000Y-93300000D03*
%TO.P,Q2C,3*%
X112470000Y-93300000D03*
%TO.P,Q2C,4*%
X113120000Y-93300000D03*
%TO.P,Q2C,5*%
%TO.N,GND*%
X113120000Y-96300000D03*
%TO.P,Q2C,6*%
X112470000Y-96300000D03*
%TO.P,Q2C,7*%
X111830000Y-96300000D03*
%TO.P,Q2C,8*%
%TO.N,M2_GLC*%
X111180000Y-96300000D03*
D12*
%TO.P,Q2C,9*%
%TO.N,VBAT*%
X112150000Y-94130000D03*
D13*
%TO.P,Q2C,10*%
%TO.N,M2_C*%
X112150000Y-95220000D03*
%TD*%
D23*
%TO.P,C49,1*%
%TO.N,M4_VBA*%
X105140000Y-90050000D03*
%TO.P,C49,2*%
%TO.N,M4_A*%
X106100000Y-90050000D03*
%TD*%
D32*
%TO.P,C5,1*%
%TO.N,+3V3*%
X84400000Y-92750000D03*
%TO.P,C5,2*%
%TO.N,GND*%
X84400000Y-90850000D03*
%TD*%
D22*
%TO.P,R1,1*%
%TO.N,+3V3*%
X99689700Y-97758800D03*
%TO.P,R1,2*%
%TO.N,BUCK_FB*%
X99689700Y-98778800D03*
%TD*%
D14*
%TO.P,U_GD3,1*%
%TO.N,M3_LA*%
X95010000Y-98250000D03*
%TO.P,U_GD3,2*%
%TO.N,M3_LB*%
X95010000Y-98750000D03*
%TO.P,U_GD3,3*%
%TO.N,M3_LC*%
X95010000Y-99250000D03*
%TO.P,U_GD3,4*%
%TO.N,M3_VCC*%
X95010000Y-99750000D03*
%TO.P,U_GD3,5*%
%TO.N,N/C*%
X95010000Y-100250000D03*
%TO.P,U_GD3,6*%
%TO.N,GND*%
X95010000Y-100750000D03*
D15*
%TO.P,U_GD3,7*%
%TO.N,N/C*%
X94350000Y-101410000D03*
%TO.P,U_GD3,8*%
X93850000Y-101410000D03*
%TO.P,U_GD3,9*%
%TO.N,M3_GLC*%
X93350000Y-101410000D03*
%TO.P,U_GD3,10*%
%TO.N,M3_GLB*%
X92850000Y-101410000D03*
%TO.P,U_GD3,11*%
%TO.N,M3_GLA*%
X92350000Y-101410000D03*
%TO.P,U_GD3,12*%
%TO.N,M3_C*%
X91850000Y-101410000D03*
D14*
%TO.P,U_GD3,13*%
%TO.N,M3_GHC*%
X91190000Y-100750000D03*
%TO.P,U_GD3,14*%
%TO.N,M3_VBC*%
X91190000Y-100250000D03*
%TO.P,U_GD3,15*%
%TO.N,M3_B*%
X91190000Y-99750000D03*
%TO.P,U_GD3,16*%
%TO.N,M3_GHB*%
X91190000Y-99250000D03*
%TO.P,U_GD3,17*%
%TO.N,M3_VBB*%
X91190000Y-98750000D03*
%TO.P,U_GD3,18*%
%TO.N,M3_A*%
X91190000Y-98250000D03*
D15*
%TO.P,U_GD3,19*%
%TO.N,M3_GHA*%
X91850000Y-97590000D03*
%TO.P,U_GD3,20*%
%TO.N,M3_VBA*%
X92350000Y-97590000D03*
%TO.P,U_GD3,21*%
%TO.N,N/C*%
X92850000Y-97590000D03*
%TO.P,U_GD3,22*%
%TO.N,M3_HA*%
X93350000Y-97590000D03*
%TO.P,U_GD3,23*%
%TO.N,M3_HB*%
X93850000Y-97590000D03*
%TO.P,U_GD3,24*%
%TO.N,M3_HC*%
X94350000Y-97590000D03*
D16*
%TO.P,U_GD3,25*%
%TO.N,GND*%
X93100000Y-99500000D03*
%TD*%
D23*
%TO.P,C7,1*%
%TO.N,+3V3*%
X90691500Y-110033600D03*
%TO.P,C7,2*%
%TO.N,GND*%
X91651500Y-110033600D03*
%TD*%
D26*
%TO.P,R41,1*%
%TO.N,M4_CMP_A*%
X106861100Y-97413100D03*
%TO.P,R41,2*%
%TO.N,GND*%
X105841100Y-97413100D03*
%TD*%
D33*
%TO.P,R19,1*%
%TO.N,M2_CMP_A*%
X102586900Y-106861100D03*
%TO.P,R19,2*%
%TO.N,GND*%
X102586900Y-105841100D03*
%TD*%
%TO.P,R12,1*%
%TO.N,M1_B*%
X103750000Y-115660000D03*
%TO.P,R12,2*%
%TO.N,M1_NEUTRAL*%
X103750000Y-114640000D03*
%TD*%
D30*
%TO.P,C37,1*%
%TO.N,M3_VBA*%
X90050000Y-94860000D03*
%TO.P,C37,2*%
%TO.N,M3_A*%
X90050000Y-93900000D03*
%TD*%
D25*
%TO.P,TP_E1_CLK,1*%
%TO.N,M1_SWCLK*%
X93216700Y-110130100D03*
%TD*%
D26*
%TO.P,R6,1*%
%TO.N,VBAT*%
X114845500Y-109122300D03*
%TO.P,R6,2*%
%TO.N,M1_VCC*%
X113825500Y-109122300D03*
%TD*%
D30*
%TO.P,C22,1*%
%TO.N,M2_NRST*%
X111082500Y-109379700D03*
%TO.P,C22,2*%
%TO.N,GND*%
X111082500Y-108419700D03*
%TD*%
D18*
%TO.P,R28,1*%
%TO.N,VBAT*%
X87062500Y-109089300D03*
%TO.P,R28,2*%
%TO.N,M3_VCC*%
X88082500Y-109089300D03*
%TD*%
D27*
%TO.P,Q4B,1*%
%TO.N,M4_GHB*%
X98500000Y-88820000D03*
%TO.P,Q4B,2*%
%TO.N,VBAT*%
X98500000Y-88170000D03*
%TO.P,Q4B,3*%
X98500000Y-87530000D03*
%TO.P,Q4B,4*%
X98500000Y-86880000D03*
%TO.P,Q4B,5*%
%TO.N,GND*%
X101500000Y-86880000D03*
%TO.P,Q4B,6*%
X101500000Y-87530000D03*
%TO.P,Q4B,7*%
X101500000Y-88170000D03*
%TO.P,Q4B,8*%
%TO.N,M4_GLB*%
X101500000Y-88820000D03*
D28*
%TO.P,Q4B,9*%
%TO.N,VBAT*%
X99330000Y-87850000D03*
D29*
%TO.P,Q4B,10*%
%TO.N,M4_B*%
X100420000Y-87850000D03*
%TD*%
D24*
%TO.P,C48,1*%
%TO.N,M4_VCC*%
X100059900Y-96130300D03*
%TO.P,C48,2*%
%TO.N,GND*%
X99099900Y-96130300D03*
%TD*%
D22*
%TO.P,R30,1*%
%TO.N,M3_CMP_A*%
X97413100Y-93138900D03*
%TO.P,R30,2*%
%TO.N,GND*%
X97413100Y-94158900D03*
%TD*%
D20*
%TO.P,U_ESC1,1*%
%TO.N,+3V3*%
X90560000Y-108150000D03*
%TO.P,U_ESC1,2*%
%TO.N,N/C*%
X90560000Y-107650000D03*
%TO.P,U_ESC1,3*%
X90560000Y-107150000D03*
%TO.P,U_ESC1,4*%
%TO.N,M1_NRST*%
X90560000Y-106650000D03*
%TO.P,U_ESC1,5*%
%TO.N,+3V3*%
X90560000Y-106150000D03*
%TO.P,U_ESC1,6*%
%TO.N,M1_CMP_C*%
X90560000Y-105650000D03*
%TO.P,U_ESC1,7*%
%TO.N,M1_NEUTRAL*%
X90560000Y-105150000D03*
%TO.P,U_ESC1,8*%
%TO.N,M1_SIG*%
X90560000Y-104650000D03*
D19*
%TO.P,U_ESC1,9*%
%TO.N,ESC_VSENSE*%
X91350000Y-103860000D03*
%TO.P,U_ESC1,10*%
%TO.N,M1_CMP_B*%
X91850000Y-103860000D03*
%TO.P,U_ESC1,11*%
%TO.N,M1_CMP_A*%
X92350000Y-103860000D03*
%TO.P,U_ESC1,12*%
%TO.N,GND*%
X92850000Y-103860000D03*
%TO.P,U_ESC1,13*%
%TO.N,M1_LC*%
X93350000Y-103860000D03*
%TO.P,U_ESC1,14*%
%TO.N,M1_LB*%
X93850000Y-103860000D03*
%TO.P,U_ESC1,15*%
%TO.N,M1_LA*%
X94350000Y-103860000D03*
%TO.P,U_ESC1,16*%
%TO.N,N/C*%
X94850000Y-103860000D03*
D20*
%TO.P,U_ESC1,17*%
%TO.N,+3V3*%
X95640000Y-104650000D03*
%TO.P,U_ESC1,18*%
%TO.N,M1_HC*%
X95640000Y-105150000D03*
%TO.P,U_ESC1,19*%
%TO.N,M1_HB*%
X95640000Y-105650000D03*
%TO.P,U_ESC1,20*%
%TO.N,M1_HA*%
X95640000Y-106150000D03*
%TO.P,U_ESC1,21*%
%TO.N,N/C*%
X95640000Y-106650000D03*
%TO.P,U_ESC1,22*%
X95640000Y-107150000D03*
%TO.P,U_ESC1,23*%
%TO.N,M1_SWDIO*%
X95640000Y-107650000D03*
%TO.P,U_ESC1,24*%
%TO.N,M1_SWCLK*%
X95640000Y-108150000D03*
D19*
%TO.P,U_ESC1,25*%
%TO.N,N/C*%
X94850000Y-108940000D03*
%TO.P,U_ESC1,26*%
X94350000Y-108940000D03*
%TO.P,U_ESC1,27*%
X93850000Y-108940000D03*
%TO.P,U_ESC1,28*%
X93350000Y-108940000D03*
%TO.P,U_ESC1,29*%
X92850000Y-108940000D03*
%TO.P,U_ESC1,30*%
X92350000Y-108940000D03*
%TO.P,U_ESC1,31*%
%TO.N,GND*%
X91850000Y-108940000D03*
%TO.P,U_ESC1,32*%
%TO.N,N/C*%
X91350000Y-108940000D03*
D21*
%TO.P,U_ESC1,33*%
%TO.N,GND*%
X93100000Y-106400000D03*
%TD*%
D33*
%TO.P,R9,1*%
%TO.N,M1_A*%
X100650000Y-115660000D03*
%TO.P,R9,2*%
%TO.N,M1_NEUTRAL*%
X100650000Y-114640000D03*
%TD*%
D24*
%TO.P,C13,1*%
%TO.N,M1_VBA*%
X97060000Y-109950000D03*
%TO.P,C13,2*%
%TO.N,M1_A*%
X96100000Y-109950000D03*
%TD*%
D19*
%TO.P,U_ESC3,1*%
%TO.N,+3V3*%
X91850000Y-90560000D03*
%TO.P,U_ESC3,2*%
%TO.N,N/C*%
X92350000Y-90560000D03*
%TO.P,U_ESC3,3*%
X92850000Y-90560000D03*
%TO.P,U_ESC3,4*%
%TO.N,M3_NRST*%
X93350000Y-90560000D03*
%TO.P,U_ESC3,5*%
%TO.N,+3V3*%
X93850000Y-90560000D03*
%TO.P,U_ESC3,6*%
%TO.N,M3_CMP_C*%
X94350000Y-90560000D03*
%TO.P,U_ESC3,7*%
%TO.N,M3_NEUTRAL*%
X94850000Y-90560000D03*
%TO.P,U_ESC3,8*%
%TO.N,M3_SIG*%
X95350000Y-90560000D03*
D20*
%TO.P,U_ESC3,9*%
%TO.N,ESC_VSENSE*%
X96140000Y-91350000D03*
%TO.P,U_ESC3,10*%
%TO.N,M3_CMP_B*%
X96140000Y-91850000D03*
%TO.P,U_ESC3,11*%
%TO.N,M3_CMP_A*%
X96140000Y-92350000D03*
%TO.P,U_ESC3,12*%
%TO.N,GND*%
X96140000Y-92850000D03*
%TO.P,U_ESC3,13*%
%TO.N,M3_LC*%
X96140000Y-93350000D03*
%TO.P,U_ESC3,14*%
%TO.N,M3_LB*%
X96140000Y-93850000D03*
%TO.P,U_ESC3,15*%
%TO.N,M3_LA*%
X96140000Y-94350000D03*
%TO.P,U_ESC3,16*%
%TO.N,N/C*%
X96140000Y-94850000D03*
D19*
%TO.P,U_ESC3,17*%
%TO.N,+3V3*%
X95350000Y-95640000D03*
%TO.P,U_ESC3,18*%
%TO.N,M3_HC*%
X94850000Y-95640000D03*
%TO.P,U_ESC3,19*%
%TO.N,M3_HB*%
X94350000Y-95640000D03*
%TO.P,U_ESC3,20*%
%TO.N,M3_HA*%
X93850000Y-95640000D03*
%TO.P,U_ESC3,21*%
%TO.N,N/C*%
X93350000Y-95640000D03*
%TO.P,U_ESC3,22*%
X92850000Y-95640000D03*
%TO.P,U_ESC3,23*%
%TO.N,M3_SWDIO*%
X92350000Y-95640000D03*
%TO.P,U_ESC3,24*%
%TO.N,M3_SWCLK*%
X91850000Y-95640000D03*
D20*
%TO.P,U_ESC3,25*%
%TO.N,N/C*%
X91060000Y-94850000D03*
%TO.P,U_ESC3,26*%
X91060000Y-94350000D03*
%TO.P,U_ESC3,27*%
X91060000Y-93850000D03*
%TO.P,U_ESC3,28*%
X91060000Y-93350000D03*
%TO.P,U_ESC3,29*%
X91060000Y-92850000D03*
%TO.P,U_ESC3,30*%
X91060000Y-92350000D03*
%TO.P,U_ESC3,31*%
%TO.N,GND*%
X91060000Y-91850000D03*
%TO.P,U_ESC3,32*%
%TO.N,N/C*%
X91060000Y-91350000D03*
D21*
%TO.P,U_ESC3,33*%
%TO.N,GND*%
X93600000Y-93100000D03*
%TD*%
D18*
%TO.P,R2,1*%
%TO.N,BUCK_FB*%
X100752500Y-102264800D03*
%TO.P,R2,2*%
%TO.N,GND*%
X101772500Y-102264800D03*
%TD*%
D26*
%TO.P,R5,1*%
%TO.N,ESC_VSENSE*%
X84929900Y-108494800D03*
%TO.P,R5,2*%
%TO.N,GND*%
X83909900Y-108494800D03*
%TD*%
D33*
%TO.P,R3,1*%
%TO.N,+3V3*%
X114400000Y-91910000D03*
%TO.P,R3,2*%
%TO.N,LED_PWR_A*%
X114400000Y-90890000D03*
%TD*%
D15*
%TO.P,U_GD4,1*%
%TO.N,M4_LA*%
X101750000Y-95010000D03*
%TO.P,U_GD4,2*%
%TO.N,M4_LB*%
X101250000Y-95010000D03*
%TO.P,U_GD4,3*%
%TO.N,M4_LC*%
X100750000Y-95010000D03*
%TO.P,U_GD4,4*%
%TO.N,M4_VCC*%
X100250000Y-95010000D03*
%TO.P,U_GD4,5*%
%TO.N,N/C*%
X99750000Y-95010000D03*
%TO.P,U_GD4,6*%
%TO.N,GND*%
X99250000Y-95010000D03*
D14*
%TO.P,U_GD4,7*%
%TO.N,N/C*%
X98590000Y-94350000D03*
%TO.P,U_GD4,8*%
X98590000Y-93850000D03*
%TO.P,U_GD4,9*%
%TO.N,M4_GLC*%
X98590000Y-93350000D03*
%TO.P,U_GD4,10*%
%TO.N,M4_GLB*%
X98590000Y-92850000D03*
%TO.P,U_GD4,11*%
%TO.N,M4_GLA*%
X98590000Y-92350000D03*
%TO.P,U_GD4,12*%
%TO.N,M4_C*%
X98590000Y-91850000D03*
D15*
%TO.P,U_GD4,13*%
%TO.N,M4_GHC*%
X99250000Y-91190000D03*
%TO.P,U_GD4,14*%
%TO.N,M4_VBC*%
X99750000Y-91190000D03*
%TO.P,U_GD4,15*%
%TO.N,M4_B*%
X100250000Y-91190000D03*
%TO.P,U_GD4,16*%
%TO.N,M4_GHB*%
X100750000Y-91190000D03*
%TO.P,U_GD4,17*%
%TO.N,M4_VBB*%
X101250000Y-91190000D03*
%TO.P,U_GD4,18*%
%TO.N,M4_A*%
X101750000Y-91190000D03*
D14*
%TO.P,U_GD4,19*%
%TO.N,M4_GHA*%
X102410000Y-91850000D03*
%TO.P,U_GD4,20*%
%TO.N,M4_VBA*%
X102410000Y-92350000D03*
%TO.P,U_GD4,21*%
%TO.N,N/C*%
X102410000Y-92850000D03*
%TO.P,U_GD4,22*%
%TO.N,M4_HA*%
X102410000Y-93350000D03*
%TO.P,U_GD4,23*%
%TO.N,M4_HB*%
X102410000Y-93850000D03*
%TO.P,U_GD4,24*%
%TO.N,M4_HC*%
X102410000Y-94350000D03*
D16*
%TO.P,U_GD4,25*%
%TO.N,GND*%
X100500000Y-93100000D03*
%TD*%
D10*
%TO.P,C38,1*%
%TO.N,M3_VBB*%
X90050000Y-98770000D03*
%TO.P,C38,2*%
%TO.N,M3_B*%
X90050000Y-99730000D03*
%TD*%
D15*
%TO.P,U_GD1,1*%
%TO.N,M1_LA*%
X98250000Y-104990000D03*
%TO.P,U_GD1,2*%
%TO.N,M1_LB*%
X98750000Y-104990000D03*
%TO.P,U_GD1,3*%
%TO.N,M1_LC*%
X99250000Y-104990000D03*
%TO.P,U_GD1,4*%
%TO.N,M1_VCC*%
X99750000Y-104990000D03*
%TO.P,U_GD1,5*%
%TO.N,N/C*%
X100250000Y-104990000D03*
%TO.P,U_GD1,6*%
%TO.N,GND*%
X100750000Y-104990000D03*
D14*
%TO.P,U_GD1,7*%
%TO.N,N/C*%
X101410000Y-105650000D03*
%TO.P,U_GD1,8*%
X101410000Y-106150000D03*
%TO.P,U_GD1,9*%
%TO.N,M1_GLC*%
X101410000Y-106650000D03*
%TO.P,U_GD1,10*%
%TO.N,M1_GLB*%
X101410000Y-107150000D03*
%TO.P,U_GD1,11*%
%TO.N,M1_GLA*%
X101410000Y-107650000D03*
%TO.P,U_GD1,12*%
%TO.N,M1_C*%
X101410000Y-108150000D03*
D15*
%TO.P,U_GD1,13*%
%TO.N,M1_GHC*%
X100750000Y-108810000D03*
%TO.P,U_GD1,14*%
%TO.N,M1_VBC*%
X100250000Y-108810000D03*
%TO.P,U_GD1,15*%
%TO.N,M1_B*%
X99750000Y-108810000D03*
%TO.P,U_GD1,16*%
%TO.N,M1_GHB*%
X99250000Y-108810000D03*
%TO.P,U_GD1,17*%
%TO.N,M1_VBB*%
X98750000Y-108810000D03*
%TO.P,U_GD1,18*%
%TO.N,M1_A*%
X98250000Y-108810000D03*
D14*
%TO.P,U_GD1,19*%
%TO.N,M1_GHA*%
X97590000Y-108150000D03*
%TO.P,U_GD1,20*%
%TO.N,M1_VBA*%
X97590000Y-107650000D03*
%TO.P,U_GD1,21*%
%TO.N,N/C*%
X97590000Y-107150000D03*
%TO.P,U_GD1,22*%
%TO.N,M1_HA*%
X97590000Y-106650000D03*
%TO.P,U_GD1,23*%
%TO.N,M1_HB*%
X97590000Y-106150000D03*
%TO.P,U_GD1,24*%
%TO.N,M1_HC*%
X97590000Y-105650000D03*
D16*
%TO.P,U_GD1,25*%
%TO.N,GND*%
X99500000Y-106900000D03*
%TD*%
D27*
%TO.P,Q1B,1*%
%TO.N,M1_GHB*%
X103700000Y-111180000D03*
%TO.P,Q1B,2*%
%TO.N,VBAT*%
X103700000Y-111830000D03*
%TO.P,Q1B,3*%
X103700000Y-112470000D03*
%TO.P,Q1B,4*%
X103700000Y-113120000D03*
%TO.P,Q1B,5*%
%TO.N,GND*%
X100700000Y-113120000D03*
%TO.P,Q1B,6*%
X100700000Y-112470000D03*
%TO.P,Q1B,7*%
X100700000Y-111830000D03*
%TO.P,Q1B,8*%
%TO.N,M1_GLB*%
X100700000Y-111180000D03*
D28*
%TO.P,Q1B,9*%
%TO.N,VBAT*%
X102870000Y-112150000D03*
D29*
%TO.P,Q1B,10*%
%TO.N,M1_B*%
X101780000Y-112150000D03*
%TD*%
D11*
%TO.P,Q3C,1*%
%TO.N,M3_GHC*%
X88820000Y-106700000D03*
%TO.P,Q3C,2*%
%TO.N,VBAT*%
X88170000Y-106700000D03*
%TO.P,Q3C,3*%
X87530000Y-106700000D03*
%TO.P,Q3C,4*%
X86880000Y-106700000D03*
%TO.P,Q3C,5*%
%TO.N,GND*%
X86880000Y-103700000D03*
%TO.P,Q3C,6*%
X87530000Y-103700000D03*
%TO.P,Q3C,7*%
X88170000Y-103700000D03*
%TO.P,Q3C,8*%
%TO.N,M3_GLC*%
X88820000Y-103700000D03*
D12*
%TO.P,Q3C,9*%
%TO.N,VBAT*%
X87850000Y-105870000D03*
D13*
%TO.P,Q3C,10*%
%TO.N,M3_C*%
X87850000Y-104780000D03*
%TD*%
D10*
%TO.P,C31,1*%
%TO.N,+3V3*%
X89969400Y-90694800D03*
%TO.P,C31,2*%
%TO.N,GND*%
X89969400Y-91654800D03*
%TD*%
D20*
%TO.P,U_ESC4,1*%
%TO.N,+3V3*%
X109440000Y-91850000D03*
%TO.P,U_ESC4,2*%
%TO.N,N/C*%
X109440000Y-92350000D03*
%TO.P,U_ESC4,3*%
X109440000Y-92850000D03*
%TO.P,U_ESC4,4*%
%TO.N,M4_NRST*%
X109440000Y-93350000D03*
%TO.P,U_ESC4,5*%
%TO.N,+3V3*%
X109440000Y-93850000D03*
%TO.P,U_ESC4,6*%
%TO.N,M4_CMP_C*%
X109440000Y-94350000D03*
%TO.P,U_ESC4,7*%
%TO.N,M4_NEUTRAL*%
X109440000Y-94850000D03*
%TO.P,U_ESC4,8*%
%TO.N,M4_SIG*%
X109440000Y-95350000D03*
D19*
%TO.P,U_ESC4,9*%
%TO.N,ESC_VSENSE*%
X108650000Y-96140000D03*
%TO.P,U_ESC4,10*%
%TO.N,M4_CMP_B*%
X108150000Y-96140000D03*
%TO.P,U_ESC4,11*%
%TO.N,M4_CMP_A*%
X107650000Y-96140000D03*
%TO.P,U_ESC4,12*%
%TO.N,GND*%
X107150000Y-96140000D03*
%TO.P,U_ESC4,13*%
%TO.N,M4_LC*%
X106650000Y-96140000D03*
%TO.P,U_ESC4,14*%
%TO.N,M4_LB*%
X106150000Y-96140000D03*
%TO.P,U_ESC4,15*%
%TO.N,M4_LA*%
X105650000Y-96140000D03*
%TO.P,U_ESC4,16*%
%TO.N,N/C*%
X105150000Y-96140000D03*
D20*
%TO.P,U_ESC4,17*%
%TO.N,+3V3*%
X104360000Y-95350000D03*
%TO.P,U_ESC4,18*%
%TO.N,M4_HC*%
X104360000Y-94850000D03*
%TO.P,U_ESC4,19*%
%TO.N,M4_HB*%
X104360000Y-94350000D03*
%TO.P,U_ESC4,20*%
%TO.N,M4_HA*%
X104360000Y-93850000D03*
%TO.P,U_ESC4,21*%
%TO.N,N/C*%
X104360000Y-93350000D03*
%TO.P,U_ESC4,22*%
X104360000Y-92850000D03*
%TO.P,U_ESC4,23*%
%TO.N,M4_SWDIO*%
X104360000Y-92350000D03*
%TO.P,U_ESC4,24*%
%TO.N,M4_SWCLK*%
X104360000Y-91850000D03*
D19*
%TO.P,U_ESC4,25*%
%TO.N,N/C*%
X105150000Y-91060000D03*
%TO.P,U_ESC4,26*%
X105650000Y-91060000D03*
%TO.P,U_ESC4,27*%
X106150000Y-91060000D03*
%TO.P,U_ESC4,28*%
X106650000Y-91060000D03*
%TO.P,U_ESC4,29*%
X107150000Y-91060000D03*
%TO.P,U_ESC4,30*%
X107650000Y-91060000D03*
%TO.P,U_ESC4,31*%
%TO.N,GND*%
X108150000Y-91060000D03*
%TO.P,U_ESC4,32*%
%TO.N,N/C*%
X108650000Y-91060000D03*
D21*
%TO.P,U_ESC4,33*%
%TO.N,GND*%
X106900000Y-93600000D03*
%TD*%
D30*
%TO.P,C19,1*%
%TO.N,+3V3*%
X110030600Y-109305200D03*
%TO.P,C19,2*%
%TO.N,GND*%
X110030600Y-108345200D03*
%TD*%
D18*
%TO.P,R8,1*%
%TO.N,M1_CMP_A*%
X93138900Y-102586900D03*
%TO.P,R8,2*%
%TO.N,GND*%
X94158900Y-102586900D03*
%TD*%
D34*
%TO.P,L1,1*%
%TO.N,BUCK_SW*%
X101905500Y-100901900D03*
%TO.P,L1,2*%
%TO.N,+3V3*%
X101905500Y-98201900D03*
%TD*%
D25*
%TO.P,TP_E1_DIO,1*%
%TO.N,M1_SWDIO*%
X94430000Y-110137200D03*
%TD*%
D30*
%TO.P,C20,1*%
%TO.N,+3V3*%
X103829000Y-103299500D03*
%TO.P,C20,2*%
%TO.N,GND*%
X103829000Y-102339500D03*
%TD*%
D27*
%TO.P,Q1A,1*%
%TO.N,M1_GHA*%
X98500000Y-111180000D03*
%TO.P,Q1A,2*%
%TO.N,VBAT*%
X98500000Y-111830000D03*
%TO.P,Q1A,3*%
X98500000Y-112470000D03*
%TO.P,Q1A,4*%
X98500000Y-113120000D03*
%TO.P,Q1A,5*%
%TO.N,GND*%
X95500000Y-113120000D03*
%TO.P,Q1A,6*%
X95500000Y-112470000D03*
%TO.P,Q1A,7*%
X95500000Y-111830000D03*
%TO.P,Q1A,8*%
%TO.N,M1_GLA*%
X95500000Y-111180000D03*
D28*
%TO.P,Q1A,9*%
%TO.N,VBAT*%
X97670000Y-112150000D03*
D29*
%TO.P,Q1A,10*%
%TO.N,M1_A*%
X96580000Y-112150000D03*
%TD*%
D35*
%TO.N,M4_C*%
X95560000Y-85000000D03*
D36*
X96120000Y-89550000D03*
D35*
X94040000Y-84200000D03*
X94800000Y-84200000D03*
X94040000Y-85000000D03*
X95560000Y-84200000D03*
D37*
X97288500Y-90222400D03*
X98038500Y-91850000D03*
D36*
X95400000Y-89100000D03*
D35*
X94800000Y-85000000D03*
D37*
%TO.N,M4_CMP_C*%
X109450000Y-88200000D03*
X97600000Y-85100000D03*
X110425000Y-94350000D03*
%TO.N,+3V3*%
X85422500Y-92485200D03*
D36*
X103462400Y-98197900D03*
D37*
X109975000Y-93850000D03*
X90025000Y-106150000D03*
X96216700Y-104725000D03*
D36*
X91271815Y-89499355D03*
D37*
X93850000Y-90025000D03*
X90025000Y-108650000D03*
D36*
X84005400Y-102708000D03*
X110500643Y-91271815D03*
D37*
X104700000Y-103780000D03*
X91850000Y-90025000D03*
D36*
X108759999Y-110485797D03*
D37*
X106150000Y-109975000D03*
X109975000Y-91850000D03*
X108400000Y-109975000D03*
D36*
%TO.N,GND*%
X86246500Y-108605000D03*
D35*
X87500000Y-97900000D03*
X102100000Y-88250000D03*
X105300000Y-112500000D03*
X105300000Y-113250000D03*
D36*
X84916500Y-109608000D03*
X115500000Y-92150000D03*
D35*
X107300000Y-88250000D03*
X96160000Y-115110000D03*
X112500000Y-102100000D03*
D36*
X93850000Y-100250000D03*
D35*
X86750000Y-92700000D03*
X96900000Y-87500000D03*
D36*
X98532700Y-95802800D03*
X109138000Y-97261500D03*
X98000000Y-110535000D03*
D35*
X88250000Y-92700000D03*
X96900000Y-88250000D03*
X111750000Y-96900000D03*
X102100000Y-87500000D03*
D36*
X103994000Y-99099900D03*
D35*
X100100000Y-112500000D03*
X113250000Y-96900000D03*
D36*
X101005500Y-99551900D03*
X89738000Y-91582200D03*
D35*
X94640000Y-115870000D03*
D36*
X89465000Y-109855000D03*
X93850000Y-98750000D03*
X115799000Y-108625000D03*
D35*
X111750000Y-102100000D03*
X113250000Y-102100000D03*
D36*
X90311800Y-89499400D03*
X110501000Y-90311800D03*
X93600000Y-93100000D03*
X102738000Y-109138000D03*
X99750000Y-93850000D03*
X101250000Y-93850000D03*
D35*
X86750000Y-103100000D03*
X112500000Y-107300000D03*
X94900000Y-113250000D03*
D36*
X111082000Y-108420000D03*
X107650000Y-101250000D03*
D35*
X100100000Y-111750000D03*
X87500000Y-103100000D03*
X88250000Y-103100000D03*
X111750000Y-107300000D03*
D36*
X83999800Y-107576000D03*
X105548000Y-97788000D03*
X100250000Y-107650000D03*
X106150000Y-99750000D03*
D35*
X95400000Y-115870000D03*
D36*
X88917500Y-91580300D03*
D35*
X94900000Y-112500000D03*
D36*
X101533000Y-103700000D03*
D35*
X96160000Y-115870000D03*
D36*
X110262000Y-108418000D03*
D35*
X94900000Y-111750000D03*
X112500000Y-96900000D03*
D36*
X91395000Y-86187600D03*
X91582200Y-110262000D03*
X90862200Y-102738000D03*
X99866500Y-99951900D03*
X106400000Y-106900000D03*
X109720000Y-110486000D03*
X98750000Y-107650000D03*
X99750000Y-92350000D03*
X106150000Y-101250000D03*
X92350000Y-100250000D03*
X108420000Y-88917500D03*
X98740000Y-97500000D03*
D35*
X100100000Y-113250000D03*
D36*
X102182000Y-106086000D03*
X98750000Y-106150000D03*
X106900000Y-93600000D03*
X97261500Y-90862200D03*
D35*
X87500000Y-92700000D03*
D36*
X108418000Y-89738000D03*
X92350000Y-98750000D03*
X97410200Y-103542000D03*
D35*
X88250000Y-97900000D03*
D36*
X102590000Y-96474300D03*
X107650000Y-99750000D03*
X84400000Y-90850000D03*
X94452200Y-102212000D03*
D35*
X95400000Y-115110000D03*
D36*
X101250000Y-92350000D03*
X103526000Y-102590000D03*
D35*
X107300000Y-86750000D03*
X107300000Y-87500000D03*
D36*
X83909900Y-108495000D03*
X96474300Y-97410200D03*
X93100000Y-106400000D03*
D35*
X105300000Y-111750000D03*
X94640000Y-115110000D03*
X96160000Y-114350000D03*
D36*
X101772000Y-102265000D03*
X96039500Y-100900000D03*
X100250000Y-106150000D03*
D35*
X94640000Y-114350000D03*
X95400000Y-114350000D03*
D36*
X113812000Y-91395000D03*
D35*
X86750000Y-97900000D03*
D36*
X97788000Y-94452200D03*
D35*
X113250000Y-107300000D03*
X102100000Y-86750000D03*
X96900000Y-86750000D03*
D37*
%TO.N,M2_VBC*%
X109361500Y-99750000D03*
D35*
%TO.N,M2_C*%
X115000000Y-94040000D03*
X115800000Y-95560000D03*
D36*
X110900000Y-95400000D03*
D35*
X115800000Y-94800000D03*
X115800000Y-94040000D03*
X115000000Y-95560000D03*
D37*
X108150000Y-98038500D03*
D36*
X110450000Y-96120000D03*
D35*
X115000000Y-94800000D03*
D37*
%TO.N,M2_CMP_C*%
X105650000Y-110425000D03*
D36*
X114640000Y-93110000D03*
%TO.N,M4_SWCLK*%
X103699600Y-90217400D03*
D37*
%TO.N,M1_VCC*%
X99402200Y-104237000D03*
D36*
X113825499Y-109217299D03*
X113898591Y-108625101D03*
D35*
%TO.N,M3_A*%
X85000000Y-94800000D03*
X84200000Y-94800000D03*
X85000000Y-95560000D03*
X84200000Y-95560000D03*
D36*
X89100000Y-94000000D03*
D35*
X85000000Y-94040000D03*
D37*
X90302100Y-98189400D03*
D35*
X84200000Y-94040000D03*
D36*
%TO.N,M2_NEUTRAL*%
X114640000Y-96490000D03*
D37*
X113985000Y-101350000D03*
D36*
X103758500Y-109137800D03*
D37*
X105150000Y-109975000D03*
D35*
%TO.N,VBAT*%
X91800000Y-112070000D03*
D36*
X97762000Y-96710100D03*
D35*
X97900000Y-88250000D03*
X91800000Y-114350000D03*
X91040000Y-113590000D03*
D36*
X83886000Y-97672900D03*
D35*
X92700000Y-88250000D03*
D36*
X97255500Y-100902000D03*
X98465000Y-96500000D03*
X90910700Y-87062500D03*
D35*
X97900000Y-86750000D03*
X99100000Y-113250000D03*
X91040000Y-115110000D03*
X92560000Y-113590000D03*
X103100000Y-86750000D03*
X111750000Y-97900000D03*
X92560000Y-114350000D03*
X88250000Y-107300000D03*
X103100000Y-88250000D03*
X92560000Y-115110000D03*
X92560000Y-112830000D03*
X111750000Y-103100000D03*
D36*
X114846000Y-109122000D03*
D35*
X92560000Y-115870000D03*
X92700000Y-86750000D03*
D36*
X98000000Y-112630000D03*
D35*
X87500000Y-102100000D03*
X104300000Y-112500000D03*
X97900000Y-87500000D03*
X87500000Y-96900000D03*
X91800000Y-115870000D03*
X104300000Y-111750000D03*
X91040000Y-115870000D03*
X92700000Y-87500000D03*
X92560000Y-112070000D03*
X113250000Y-97900000D03*
X91040000Y-112070000D03*
X103100000Y-87500000D03*
X86750000Y-96900000D03*
D36*
X99866500Y-101852000D03*
D35*
X91800000Y-113590000D03*
X91800000Y-115110000D03*
D36*
X87234600Y-108447000D03*
D35*
X109500000Y-111750000D03*
X112500000Y-103100000D03*
X113250000Y-92700000D03*
X91800000Y-112830000D03*
D36*
X112938000Y-90910700D03*
D35*
X91040000Y-114350000D03*
X99100000Y-111750000D03*
X104300000Y-113250000D03*
X91040000Y-112830000D03*
X112500000Y-92700000D03*
X86750000Y-107300000D03*
X112500000Y-97900000D03*
X111750000Y-92700000D03*
X87500000Y-107300000D03*
X88250000Y-102100000D03*
X99100000Y-112500000D03*
X88250000Y-96900000D03*
D36*
X96265000Y-101816000D03*
D35*
X86750000Y-102100000D03*
X113250000Y-103100000D03*
D37*
%TO.N,M4_SWDIO*%
X103825000Y-92350000D03*
%TO.N,M1_C*%
X101961500Y-108150000D03*
D35*
X108160000Y-115000000D03*
X107400000Y-115800000D03*
X108160000Y-115800000D03*
X106640000Y-115800000D03*
X106640000Y-115000000D03*
X107400000Y-115000000D03*
D36*
X106800000Y-110900000D03*
D37*
%TO.N,M1_CMP_C*%
X89575000Y-105650000D03*
D36*
X105699999Y-114640000D03*
D37*
%TO.N,M3_CMP_A*%
X97125000Y-92350000D03*
%TO.N,M2_VCC*%
X109820000Y-98586900D03*
D36*
X111917500Y-90815699D03*
X111912400Y-91395000D03*
D37*
X103668000Y-101265000D03*
%TO.N,M3_CMP_C*%
X94350000Y-89575000D03*
D36*
X85360000Y-106890000D03*
D37*
%TO.N,M2_SWDIO*%
X107650000Y-103825000D03*
D35*
%TO.N,M3_B*%
X85000000Y-99240000D03*
X84200000Y-100760000D03*
X85000000Y-100760000D03*
X84200000Y-99240000D03*
X84200000Y-100000000D03*
X85000000Y-100000000D03*
D37*
%TO.N,M3_CMP_B*%
X96675000Y-91850000D03*
D36*
X85360000Y-101690000D03*
D35*
%TO.N,M4_B*%
X99240000Y-85000000D03*
X100000000Y-85000000D03*
X99240000Y-84200000D03*
X100000000Y-84200000D03*
X100760000Y-85000000D03*
X100760000Y-84200000D03*
D37*
%TO.N,M4_CMP_B*%
X108150000Y-96675000D03*
D36*
X98310000Y-85360000D03*
D37*
%TO.N,M3_SWCLK*%
X91850000Y-96625000D03*
D36*
X90217400Y-96300400D03*
D37*
%TO.N,M1_A*%
X97959500Y-109389000D03*
D35*
X98340000Y-115800000D03*
X99100000Y-115800000D03*
X99860000Y-115000000D03*
D36*
X96200000Y-110900000D03*
D35*
X98340000Y-115000000D03*
X99100000Y-115000000D03*
X99860000Y-115800000D03*
D36*
%TO.N,M4_VBA*%
X102509800Y-90347400D03*
D37*
X102961500Y-92350000D03*
D36*
%TO.N,M4_VCC*%
X90815699Y-88082500D03*
D37*
X102016000Y-89357100D03*
X100659000Y-96241500D03*
X102563000Y-95269100D03*
D36*
X91395000Y-88087600D03*
D37*
%TO.N,M1_CMP_A*%
X92350000Y-102875000D03*
D36*
X97399999Y-114640000D03*
D37*
%TO.N,M4_VBC*%
X99750000Y-90638500D03*
%TO.N,M3_C*%
X89791900Y-102251000D03*
D35*
X85000000Y-104440000D03*
X85000000Y-105960000D03*
D36*
X89550000Y-103880000D03*
D35*
X84200000Y-104440000D03*
X84200000Y-105960000D03*
D36*
X89100000Y-104600000D03*
D35*
X85000000Y-105200000D03*
X84200000Y-105200000D03*
D37*
X91850000Y-101961500D03*
%TO.N,M3_NEUTRAL*%
X85929400Y-98600700D03*
D36*
X85360000Y-103510000D03*
D37*
X94850000Y-90025000D03*
D36*
X96241499Y-90862200D03*
D35*
%TO.N,M2_B*%
X115800000Y-100760000D03*
X115000000Y-100000000D03*
X115000000Y-100760000D03*
X115800000Y-100000000D03*
X115800000Y-99240000D03*
X115000000Y-99240000D03*
D37*
%TO.N,M2_CMP_B*%
X103325000Y-108150000D03*
D36*
X114640000Y-98310000D03*
D37*
%TO.N,M3_VBC*%
X90638500Y-100250000D03*
%TO.N,M3_VCC*%
X95829000Y-99193100D03*
D36*
X88146500Y-108604999D03*
D37*
X90391300Y-102295000D03*
D36*
X88082500Y-109184299D03*
D35*
%TO.N,M1_B*%
X101440000Y-115800000D03*
X102200000Y-115000000D03*
X101440000Y-115000000D03*
X102960000Y-115800000D03*
X102960000Y-115000000D03*
X102200000Y-115800000D03*
D37*
%TO.N,M1_CMP_B*%
X91850000Y-103325000D03*
X103491000Y-114091000D03*
%TO.N,M3_SWDIO*%
X92350000Y-96175000D03*
%TO.N,M4_VBB*%
X98974000Y-89662500D03*
X101787000Y-89794300D03*
D35*
%TO.N,M2_A*%
X115800000Y-105200000D03*
X115000000Y-105200000D03*
X115800000Y-104440000D03*
D37*
X109404000Y-101848000D03*
D35*
X115800000Y-105960000D03*
X115000000Y-105960000D03*
X115000000Y-104440000D03*
D36*
X110900000Y-106000000D03*
D37*
%TO.N,M2_CMP_A*%
X102875000Y-107650000D03*
D36*
X114640000Y-106890000D03*
%TO.N,M1_NEUTRAL*%
X90862200Y-103758500D03*
D37*
X90025000Y-105150000D03*
D36*
X109100000Y-114640000D03*
D37*
X100650000Y-114066000D03*
X104503000Y-114450000D03*
%TO.N,M1_SIG*%
X89575000Y-104900000D03*
D36*
%TO.N,M2_SIG*%
X98464999Y-101500000D03*
D37*
X104650000Y-110425000D03*
D36*
%TO.N,M3_SIG*%
X98740000Y-102500000D03*
D37*
X95100000Y-89575000D03*
D36*
%TO.N,M4_SIG*%
X98740000Y-103500000D03*
D37*
X110425000Y-95100000D03*
%TO.N,M1_VBB*%
X97261400Y-108971000D03*
D36*
%TO.N,M1_VBA*%
X97348800Y-110180799D03*
%TO.N,ESC_VSENSE*%
X84916499Y-108648000D03*
X84905999Y-97672899D03*
D37*
X90906100Y-108596000D03*
X108650000Y-96731900D03*
X101913000Y-108626000D03*
X95777500Y-90412200D03*
%TO.N,M1_VBC*%
X100250000Y-109361500D03*
D36*
X107780000Y-110449999D03*
X102667499Y-110255900D03*
D37*
%TO.N,M4_A*%
X101809000Y-90347800D03*
D35*
X104440000Y-84200000D03*
X105200000Y-84200000D03*
X105960000Y-85000000D03*
X105960000Y-84200000D03*
X105200000Y-85000000D03*
X104440000Y-85000000D03*
D36*
X106000000Y-89100000D03*
D37*
%TO.N,M4_CMP_A*%
X107650000Y-97125000D03*
D36*
X106890000Y-85360000D03*
%TO.N,M4_NEUTRAL*%
X109137800Y-96241499D03*
X96490000Y-85360000D03*
D37*
X101458000Y-85907700D03*
X109975000Y-94850000D03*
%TO.N,M2_SWCLK*%
X108150000Y-103375000D03*
%TO.N,M3_VBA*%
X92350000Y-97038500D03*
D36*
X90347400Y-97490200D03*
%TO.N,M2_VBA*%
X109652600Y-102509800D03*
D37*
X109554000Y-104591000D03*
X107650000Y-102961500D03*
%TO.N,M2_VBB*%
X110383000Y-101809000D03*
%TO.N,M3_VBB*%
X89756400Y-98205900D03*
%TO.N,M3_GHB*%
X89450000Y-99250000D03*
X88920000Y-101500000D03*
%TO.N,M3_GLB*%
X88920000Y-98500000D03*
X92850000Y-101961500D03*
%TO.N,M2_LC*%
X104388000Y-100789000D03*
X103777000Y-104156000D03*
%TO.N,M2_GLC*%
X109800000Y-96450000D03*
X106600000Y-98150000D03*
%TO.N,M2_GLB*%
X111080000Y-101500000D03*
X107150000Y-98038500D03*
%TO.N,M2_GLA*%
X111080000Y-106700000D03*
X107650000Y-98038500D03*
%TO.N,M2_GHC*%
X110298000Y-98973800D03*
X111080000Y-93300000D03*
%TO.N,M2_GHB*%
X111080000Y-98500000D03*
X110550000Y-100750000D03*
%TO.N,M3_GHA*%
X90935900Y-97226200D03*
X88920000Y-96300000D03*
%TO.N,M3_GLA*%
X92350000Y-101961500D03*
X88920000Y-93300000D03*
%TO.N,M1_GHC*%
X108900000Y-111140000D03*
X101048000Y-109372000D03*
%TO.N,M1_GLC*%
X103350000Y-109750000D03*
X105900000Y-111080000D03*
X101759999Y-106650000D03*
%TO.N,M4_GHA*%
X102967000Y-90791600D03*
X103700000Y-88920000D03*
%TO.N,M4_GLA*%
X106700000Y-88920000D03*
X98038500Y-92350000D03*
%TO.N,M4_GHC*%
X93300000Y-88920000D03*
X98811800Y-90336700D03*
%TO.N,M4_GLC*%
X97972600Y-93514400D03*
X96300000Y-88920000D03*
%TO.N,M3_LA*%
X95010000Y-96704000D03*
X95783000Y-95931000D03*
%TO.N,M3_LB*%
X96606000Y-96218900D03*
X96835200Y-97938800D03*
%TO.N,M3_LC*%
X96762900Y-99039700D03*
X96793400Y-95552600D03*
%TO.N,M3_GLC*%
X93490100Y-102026000D03*
X88920000Y-103700000D03*
%TO.N,M3_GHC*%
X89662500Y-101026000D03*
X88920000Y-106700000D03*
%TO.N,M4_GHB*%
X100750000Y-89450000D03*
X98500000Y-88920000D03*
%TO.N,M4_GLB*%
X101500000Y-88920000D03*
X98038500Y-92850000D03*
%TO.N,M1_LB*%
X95293300Y-104178000D03*
X96927100Y-105271000D03*
%TO.N,M1_LA*%
X97676100Y-104703000D03*
X95354600Y-103701000D03*
%TO.N,M4_LA*%
X102941000Y-94864600D03*
X104715000Y-96399900D03*
%TO.N,M4_LB*%
X101907000Y-96734800D03*
X104299000Y-96821800D03*
%TO.N,M4_LC*%
X104694000Y-95785800D03*
X101235000Y-96232900D03*
%TO.N,M1_GLB*%
X100700000Y-111080000D03*
X101961500Y-107150000D03*
%TO.N,M1_GLA*%
X101961500Y-107650000D03*
X95500000Y-111080000D03*
%TO.N,M1_GHB*%
X99250000Y-110550000D03*
X103700000Y-111080000D03*
%TO.N,M1_GHA*%
X97640900Y-108567000D03*
X98500000Y-111080000D03*
%TD*%
%TO.N,M4_C*%
D38*
X98590000Y-91850000D02*
X98038500Y-91850000D01*
%TO.N,M4_CMP_C*%
X109440000Y-94350000D02*
X110425000Y-94350000D01*
%TO.N,+3V3*%
X91850000Y-90560000D02*
X91850000Y-90025000D01*
X95908800Y-96700500D02*
X96171000Y-96700500D01*
X104700000Y-103780000D02*
X104650000Y-103830000D01*
X91715200Y-90694800D02*
X91850000Y-90560000D01*
X89969400Y-90694800D02*
X91715200Y-90694800D01*
X95640000Y-104650000D02*
X96141700Y-104650000D01*
X103858000Y-95350000D02*
X103858000Y-95612200D01*
X104650000Y-104360000D02*
X104650000Y-103858000D01*
X99689700Y-97758800D02*
X99506400Y-97942100D01*
X108850000Y-110486000D02*
X108759999Y-110485797D01*
X104360000Y-95350000D02*
X103858000Y-95350000D01*
X95350000Y-96141700D02*
X95908800Y-96700500D01*
X96141700Y-104388000D02*
X96700500Y-103829000D01*
X109440000Y-93850000D02*
X109975000Y-93850000D01*
X99506400Y-97942100D02*
X97692000Y-97942100D01*
X104091000Y-103300000D02*
X103829000Y-103300000D01*
X95350000Y-95640000D02*
X95350000Y-96141700D01*
X90025000Y-109367000D02*
X90025000Y-108650000D01*
X96141700Y-104650000D02*
X96141700Y-104388000D01*
X90691500Y-110034000D02*
X90025000Y-109367000D01*
X97692000Y-97942100D02*
X96450400Y-96700500D01*
X103300000Y-96171000D02*
X103462000Y-96333500D01*
X84400000Y-92750000D02*
X85157700Y-92750000D01*
X108150000Y-109440000D02*
X108150000Y-109725000D01*
X108150000Y-109725000D02*
X108400000Y-109975000D01*
X114400000Y-91910000D02*
X111139000Y-91910000D01*
X103462000Y-96333500D02*
X103462400Y-98197900D01*
X103858000Y-95612200D02*
X103300000Y-96171000D01*
X101905500Y-98201900D02*
X100133000Y-98201900D01*
X109305000Y-91499700D02*
X109305000Y-89969400D01*
X96216700Y-104725000D02*
X96141700Y-104650000D01*
X93850000Y-90560000D02*
X93850000Y-90025000D01*
X90560000Y-108150000D02*
X90525000Y-108150000D01*
X104650000Y-103858000D02*
X104091000Y-103300000D01*
X110030600Y-109305400D02*
X108850000Y-110486000D01*
X103462400Y-98197900D02*
X101905500Y-98201900D01*
X90525000Y-108150000D02*
X90025000Y-108650000D01*
X90560000Y-106150000D02*
X90025000Y-106150000D01*
X109656000Y-91850000D02*
X109305000Y-91499700D01*
X111139000Y-91910000D02*
X110500643Y-91271815D01*
X106150000Y-109440000D02*
X106150000Y-109975000D01*
X100133000Y-98201900D02*
X99689700Y-97758800D01*
X85157700Y-92750000D02*
X85422500Y-92485200D01*
X96450400Y-96700500D02*
X96171000Y-96700500D01*
X104650000Y-103830000D02*
X104650000Y-103858000D01*
X109440000Y-91850000D02*
X109975000Y-91850000D01*
%TO.N,GND*%
D39*
X100942500Y-103827500D02*
X100900000Y-103870000D01*
X110146000Y-108382000D02*
X110110000Y-108345000D01*
D40*
X99099900Y-96130300D02*
X98532700Y-95802800D01*
X102340000Y-96171000D02*
X102590000Y-96474300D01*
D39*
X102464000Y-105964000D02*
X102587000Y-105841000D01*
X91651500Y-110034000D02*
X91850000Y-109835000D01*
D40*
X101216000Y-103785000D02*
X101533000Y-103700000D01*
D38*
X108940000Y-108150000D02*
X108025000Y-108150000D01*
D40*
X89969400Y-91654800D02*
X89853700Y-91618500D01*
D39*
X103678000Y-102465000D02*
X103704000Y-102465000D01*
X107988000Y-88936000D02*
X107988000Y-90445800D01*
X89853700Y-91618500D02*
X90085200Y-91850000D01*
X108445000Y-89296200D02*
X108327000Y-89178000D01*
D40*
X89465000Y-109200200D02*
X89465000Y-109855000D01*
D39*
X108382000Y-89853700D02*
X108445000Y-89789800D01*
X110110000Y-108345000D02*
X110031000Y-108345000D01*
X108017000Y-88906900D02*
X107988000Y-88936000D01*
X108150000Y-90608300D02*
X108150000Y-91060000D01*
D40*
X110146000Y-108382000D02*
X110262000Y-108418000D01*
D38*
X91850000Y-108940000D02*
X91850000Y-108025000D01*
D39*
X109392000Y-108150000D02*
X108940000Y-108150000D01*
X103704000Y-102465000D02*
X103829000Y-102340000D01*
D38*
X107150000Y-96140000D02*
X107150000Y-95225000D01*
D39*
X83999800Y-107576000D02*
X83999800Y-107355000D01*
D38*
X95010000Y-100750000D02*
X94350000Y-100750000D01*
D39*
X107988000Y-90445800D02*
X108150000Y-90608300D01*
D38*
X103860000Y-107150000D02*
X104775000Y-107150000D01*
X96140000Y-92850000D02*
X95225000Y-92850000D01*
D40*
X102384000Y-105964000D02*
X102182000Y-106086000D01*
D39*
X108327000Y-89178000D02*
X108242000Y-89178000D01*
X101216000Y-103785000D02*
X100985000Y-103785000D01*
X100750000Y-105650000D02*
X100250000Y-106150000D01*
X102587000Y-105841000D02*
X103408000Y-106662000D01*
D38*
X99250000Y-95010000D02*
X99250000Y-94350000D01*
D39*
X110031000Y-108345000D02*
X109587000Y-108345000D01*
X100250000Y-106150000D02*
X99500000Y-106900000D01*
D40*
X99555500Y-99951900D02*
X101005500Y-99551900D01*
X108345000Y-89969400D02*
X108382000Y-89853700D01*
D38*
X100750000Y-104990000D02*
X100750000Y-105650000D01*
D39*
X103408000Y-107150000D02*
X103860000Y-107150000D01*
D40*
X105841000Y-97413100D02*
X105548000Y-97788000D01*
X103829000Y-102340000D02*
X103678000Y-102465000D01*
D39*
X93100000Y-106400000D02*
X92850000Y-106150000D01*
D40*
X91651500Y-110034000D02*
X91582200Y-110262000D01*
D39*
X91850000Y-109835000D02*
X91850000Y-108940000D01*
D38*
X108150000Y-91060000D02*
X108150000Y-91975000D01*
D39*
X100985000Y-103785000D02*
X100942500Y-103827500D01*
X108242000Y-89178000D02*
X108189000Y-89125100D01*
X102384000Y-105964000D02*
X102464000Y-105964000D01*
X99750000Y-93850000D02*
X100500000Y-93100000D01*
X108445000Y-89789800D02*
X108445000Y-89296200D01*
D40*
X89853700Y-91618500D02*
X89738000Y-91582200D01*
D38*
X91060000Y-91850000D02*
X91975000Y-91850000D01*
X92850000Y-103860000D02*
X92850000Y-104775000D01*
D39*
X108071000Y-88906900D02*
X108017000Y-88906900D01*
X108189000Y-89025100D02*
X108071000Y-88906900D01*
D38*
X104990000Y-99250000D02*
X105650000Y-99250000D01*
D40*
X97413100Y-94158900D02*
X97788000Y-94452200D01*
X102587000Y-105841000D02*
X102384000Y-105964000D01*
X108382000Y-89853700D02*
X108418000Y-89738000D01*
D39*
X106900000Y-93600000D02*
X107150000Y-93850000D01*
D40*
X96171000Y-97660500D02*
X96474300Y-97410200D01*
X110031000Y-108345000D02*
X110146000Y-108382000D01*
D39*
X92850000Y-106150000D02*
X92850000Y-104775000D01*
D40*
X103678000Y-102465000D02*
X103526000Y-102590000D01*
D39*
X107650000Y-101250000D02*
X106900000Y-100500000D01*
D40*
X94158900Y-102587000D02*
X94452200Y-102212000D01*
D39*
X103408000Y-106662000D02*
X103408000Y-107150000D01*
X109587000Y-108345000D02*
X109392000Y-108150000D01*
D40*
X100900000Y-103870000D02*
X101216000Y-103785000D01*
D39*
X99250000Y-94350000D02*
X99750000Y-93850000D01*
X92350000Y-98750000D02*
X93100000Y-99500000D01*
X107150000Y-93850000D02*
X107150000Y-95225000D01*
X108189000Y-89125100D02*
X108189000Y-89025100D01*
X90085200Y-91850000D02*
X91060000Y-91850000D01*
D40*
X97660500Y-103829000D02*
X97410200Y-103542000D01*
%TO.N,M2_VBC*%
D38*
X108810000Y-99750000D02*
X109361500Y-99750000D01*
%TO.N,M2_C*%
X108150000Y-98590000D02*
X108150000Y-98038500D01*
%TO.N,M2_CMP_C*%
X105650000Y-109440000D02*
X105650000Y-110425000D01*
%TO.N,M4_SWCLK*%
D39*
X103868000Y-91850000D02*
X103700000Y-91682500D01*
X103700000Y-91682500D02*
X103699600Y-90217400D01*
D38*
X104360000Y-91850000D02*
X103868000Y-91850000D01*
%TO.N,M1_VCC*%
X113825499Y-109217299D02*
X113826000Y-109122300D01*
X99750000Y-104237000D02*
X99750000Y-104060000D01*
X99750000Y-104060000D02*
X99940100Y-103870000D01*
X99402200Y-104237000D02*
X99750000Y-104237000D01*
X99750000Y-104990000D02*
X99750000Y-104237000D01*
%TO.N,M3_A*%
D40*
X90050000Y-93900000D02*
X89100000Y-94000000D01*
D38*
X90302100Y-98189400D02*
X90362700Y-98250000D01*
X90362700Y-98250000D02*
X91190000Y-98250000D01*
%TO.N,M2_NEUTRAL*%
D39*
X104400000Y-108850000D02*
X104100000Y-109150000D01*
X104850000Y-108850000D02*
X104400000Y-108850000D01*
X105100000Y-109100000D02*
X104850000Y-108850000D01*
D38*
X105150000Y-109440000D02*
X105150000Y-109975000D01*
D39*
X105100000Y-109300000D02*
X105100000Y-109100000D01*
X103950000Y-109050000D02*
X104100000Y-109050000D01*
X104100000Y-109150000D02*
X104100000Y-109050000D01*
%TO.N,VBAT*%
D40*
X87062500Y-109089000D02*
X87234600Y-108447000D01*
D41*
X99866500Y-101852000D02*
X99555600Y-101852000D01*
%TO.N,M4_SWDIO*%
D38*
X104360000Y-92350000D02*
X103825000Y-92350000D01*
%TO.N,M1_C*%
X101410000Y-108150000D02*
X101961500Y-108150000D01*
%TO.N,M1_CMP_C*%
X90560000Y-105650000D02*
X89575000Y-105650000D01*
%TO.N,M3_CMP_A*%
D39*
X97125000Y-92350000D02*
X97413100Y-92638100D01*
D38*
X96140000Y-92350000D02*
X97125000Y-92350000D01*
D39*
X97413100Y-92638100D02*
X97413100Y-93138900D01*
%TO.N,M2_VCC*%
D38*
X103668000Y-100766000D02*
X103668000Y-101265000D01*
X104184000Y-100250000D02*
X103994000Y-100060000D01*
X104184000Y-100250000D02*
X103668000Y-100766000D01*
X104990000Y-100250000D02*
X104184000Y-100250000D01*
X111917500Y-90815699D02*
X111918000Y-90910700D01*
%TO.N,M3_CMP_C*%
X94350000Y-90560000D02*
X94350000Y-89575000D01*
%TO.N,M2_SWDIO*%
X107650000Y-104360000D02*
X107650000Y-103825000D01*
%TO.N,M3_B*%
X91190000Y-99750000D02*
X90671800Y-99750000D01*
X90651800Y-99730000D02*
X90050000Y-99730000D01*
D40*
X90050000Y-99730000D02*
X89100000Y-99730000D01*
D38*
X90671800Y-99750000D02*
X90651800Y-99730000D01*
%TO.N,M3_CMP_B*%
X96140000Y-91850000D02*
X96675000Y-91850000D01*
%TO.N,M4_B*%
D40*
X100270000Y-90050000D02*
X100270000Y-89100000D01*
D38*
X100270000Y-90651800D02*
X100270000Y-90050000D01*
X100250000Y-90671800D02*
X100270000Y-90651800D01*
X100250000Y-91190000D02*
X100250000Y-90671800D01*
%TO.N,M4_CMP_B*%
X108150000Y-96140000D02*
X108150000Y-96675000D01*
%TO.N,M3_SWCLK*%
X91850000Y-95640000D02*
X91850000Y-96625000D01*
%TO.N,M1_A*%
X98020100Y-109328000D02*
X97959500Y-109389000D01*
D40*
X96100000Y-109950000D02*
X96200000Y-110900000D01*
D38*
X98250000Y-108810000D02*
X98250000Y-109328000D01*
X98250000Y-109328000D02*
X98020100Y-109328000D01*
%TO.N,M4_VBA*%
X102410000Y-92350000D02*
X102961500Y-92350000D01*
X103148000Y-89709300D02*
X102509800Y-90347400D01*
X105140000Y-90050000D02*
X104799000Y-89709300D01*
X104799000Y-89709300D02*
X103148000Y-89709300D01*
%TO.N,M4_VCC*%
X90815699Y-88082500D02*
X90910700Y-88082500D01*
X100250000Y-95940200D02*
X100358000Y-95940200D01*
X100250000Y-95010000D02*
X100250000Y-95940200D01*
X100358000Y-95940200D02*
X100659000Y-96241500D01*
X100250000Y-95940200D02*
X100060000Y-96130300D01*
%TO.N,M1_CMP_A*%
D39*
X92850800Y-102875000D02*
X93138900Y-102587000D01*
D38*
X92350000Y-103860000D02*
X92350000Y-102875000D01*
D39*
X92350000Y-102875000D02*
X92850800Y-102875000D01*
%TO.N,M4_VBC*%
D38*
X99750000Y-91190000D02*
X99750000Y-90638500D01*
%TO.N,M3_C*%
X91850000Y-101410000D02*
X91850000Y-101961500D01*
%TO.N,M3_NEUTRAL*%
X94850000Y-90560000D02*
X94850000Y-90025000D01*
%TO.N,M2_B*%
D40*
X109950000Y-100270000D02*
X110900000Y-100270000D01*
D38*
X109348000Y-100270000D02*
X109328000Y-100250000D01*
X109950000Y-100270000D02*
X109348000Y-100270000D01*
X109328000Y-100250000D02*
X108810000Y-100250000D01*
%TO.N,M2_CMP_B*%
X103860000Y-108150000D02*
X103325000Y-108150000D01*
%TO.N,M3_VBC*%
X91190000Y-100250000D02*
X90638500Y-100250000D01*
%TO.N,M3_VCC*%
X95829000Y-99750000D02*
X95849400Y-99750000D01*
X95849400Y-99750000D02*
X96039500Y-99940100D01*
X95829000Y-99750000D02*
X95829000Y-99193100D01*
X88082500Y-109184299D02*
X88082500Y-109089300D01*
X95010000Y-99750000D02*
X95829000Y-99750000D01*
%TO.N,M1_B*%
D40*
X99730000Y-109950000D02*
X101600000Y-110900000D01*
D38*
X99750000Y-109100000D02*
X99750000Y-109800000D01*
%TO.N,M1_CMP_B*%
X91850000Y-103860000D02*
X91850000Y-103325000D01*
%TO.N,M3_SWDIO*%
X92350000Y-95640000D02*
X92350000Y-96175000D01*
%TO.N,M4_VBB*%
X101250000Y-90070000D02*
X101250000Y-89974100D01*
X101250000Y-90070000D02*
X101230000Y-90050000D01*
X101250000Y-90630000D02*
X101250000Y-90070000D01*
X101633000Y-89639700D02*
X101787000Y-89794300D01*
X101584000Y-89639700D02*
X101633000Y-89639700D01*
X101250000Y-91190000D02*
X101250000Y-90630000D01*
X101250000Y-89974100D02*
X101584000Y-89639700D01*
%TO.N,M2_A*%
X109328000Y-101750000D02*
X108810000Y-101750000D01*
X109404000Y-101848000D02*
X109328000Y-101772000D01*
X109328000Y-101772000D02*
X109328000Y-101750000D01*
D40*
X109950000Y-106100000D02*
X110900000Y-106000000D01*
%TO.N,M2_CMP_A*%
D38*
X103860000Y-107650000D02*
X102875000Y-107650000D01*
D39*
X102587000Y-107111500D02*
X102586900Y-106861100D01*
X102587000Y-107362000D02*
X102587000Y-107111500D01*
X102875000Y-107650000D02*
X102587000Y-107362000D01*
%TO.N,M1_NEUTRAL*%
X103940000Y-114450000D02*
X103750000Y-114640000D01*
D38*
X90560000Y-105150000D02*
X90025000Y-105150000D01*
D39*
X100650000Y-114640000D02*
X100650000Y-114066000D01*
X104503000Y-114450000D02*
X103940000Y-114450000D01*
%TO.N,M1_SIG*%
D38*
X90560000Y-104650000D02*
X89825000Y-104650000D01*
X89825000Y-104650000D02*
X89575000Y-104900000D01*
%TO.N,M2_SIG*%
X104650000Y-109440000D02*
X104650000Y-110425000D01*
%TO.N,M3_SIG*%
X95350000Y-90560000D02*
X95350000Y-89825000D01*
X95350000Y-89825000D02*
X95100000Y-89575000D01*
%TO.N,M4_SIG*%
X110175000Y-95350000D02*
X110425000Y-95100000D01*
X109440000Y-95350000D02*
X110175000Y-95350000D01*
%TO.N,M1_VBB*%
X97725400Y-109766000D02*
X97261400Y-109302000D01*
X98750000Y-109766000D02*
X98750000Y-109930000D01*
X98750000Y-109930000D02*
X98770000Y-109950000D01*
X98750000Y-108810000D02*
X98750000Y-109766000D01*
X98750000Y-109766000D02*
X97725400Y-109766000D01*
X97261400Y-109302000D02*
X97261400Y-108971000D01*
%TO.N,M1_VBA*%
X96884700Y-109751000D02*
X97071800Y-109938000D01*
X97590000Y-107650000D02*
X97071800Y-107650000D01*
X97071800Y-109938000D02*
X97106000Y-109938000D01*
X97071800Y-108628000D02*
X96884700Y-108815000D01*
X97106000Y-109938000D02*
X97348800Y-110180799D01*
X97071800Y-109938000D02*
X97060000Y-109950000D01*
X97071800Y-107650000D02*
X97071800Y-108628000D01*
X96884700Y-108815000D02*
X96884700Y-109751000D01*
%TO.N,ESC_VSENSE*%
D39*
X103860000Y-108650000D02*
X101937000Y-108650000D01*
X101937000Y-108650000D02*
X101913000Y-108626000D01*
X91350000Y-103860000D02*
X91350000Y-104312000D01*
X95688300Y-91350000D02*
X96140000Y-91350000D01*
X84916499Y-108648000D02*
X84929900Y-108635000D01*
X95688300Y-90501400D02*
X95688300Y-91350000D01*
X84929900Y-108635000D02*
X84929900Y-108495000D01*
X91350000Y-104312000D02*
X91049800Y-104612000D01*
X95777500Y-90412200D02*
X95688300Y-90501400D01*
X91049800Y-108452000D02*
X90906100Y-108596000D01*
X91049800Y-104612000D02*
X91049800Y-108452000D01*
X108650000Y-96731900D02*
X108650000Y-96140000D01*
%TO.N,M1_VBC*%
D38*
X100250000Y-108810000D02*
X100250000Y-109361500D01*
%TO.N,M4_A*%
D40*
X106100000Y-90050000D02*
X106000000Y-89100000D01*
D38*
X101750000Y-91190000D02*
X101750000Y-90407200D01*
X101750000Y-90407200D02*
X101809000Y-90347800D01*
%TO.N,M4_CMP_A*%
X107650000Y-96140000D02*
X107650000Y-97125000D01*
D39*
X107149000Y-97125000D02*
X106861000Y-97413100D01*
X107650000Y-97125000D02*
X107149000Y-97125000D01*
%TO.N,M4_NEUTRAL*%
D38*
X109440000Y-94850000D02*
X109975000Y-94850000D01*
%TO.N,M2_SWCLK*%
X108150000Y-104360000D02*
X108150000Y-103375000D01*
%TO.N,M3_VBA*%
X90347400Y-97282100D02*
X90347400Y-97490200D01*
X90689400Y-96940100D02*
X90347400Y-97282100D01*
X90689400Y-95499400D02*
X90689400Y-96940100D01*
X92350000Y-97590000D02*
X92350000Y-97038500D01*
X90050000Y-94860000D02*
X90689400Y-95499400D01*
%TO.N,M2_VBA*%
X109554000Y-104591000D02*
X109950000Y-104987000D01*
X107650000Y-102410000D02*
X107650000Y-102961500D01*
X109950000Y-104987000D02*
X109950000Y-105140000D01*
%TO.N,M2_VBB*%
X110383000Y-101809000D02*
X109950000Y-101376000D01*
X109950000Y-101376000D02*
X109950000Y-101230000D01*
X108810000Y-101250000D02*
X109930000Y-101250000D01*
X109930000Y-101250000D02*
X109950000Y-101230000D01*
%TO.N,M3_VBB*%
X89756400Y-98205900D02*
X89756400Y-98476400D01*
X89756400Y-98476400D02*
X90050000Y-98770000D01*
X90070000Y-98750000D02*
X90050000Y-98770000D01*
X91190000Y-98750000D02*
X90070000Y-98750000D01*
%TO.N,M3_NRST*%
D39*
X91662900Y-89641000D02*
X91297500Y-90006400D01*
X89531400Y-90006400D02*
X88917500Y-90620300D01*
X91297500Y-90006400D02*
X89531400Y-90006400D01*
X93350000Y-90108300D02*
X92882700Y-89641000D01*
X92882700Y-89641000D02*
X91662900Y-89641000D01*
X93350000Y-90560000D02*
X93350000Y-90108300D01*
%TO.N,M3_GHB*%
D42*
X91190000Y-99250000D02*
X89450000Y-99250000D01*
D38*
X88920000Y-101500000D02*
X88820000Y-101500000D01*
%TO.N,M3_GLB*%
X92850000Y-101410000D02*
X92850000Y-101961500D01*
X88920000Y-98500000D02*
X88820000Y-98500000D01*
%TO.N,M2_LA*%
D39*
X103123000Y-102308000D02*
X103637000Y-101793000D01*
X104479000Y-101793000D02*
X104522000Y-101750000D01*
X103123000Y-105077000D02*
X103123000Y-102308000D01*
X103860000Y-105650000D02*
X103696000Y-105650000D01*
X104522000Y-101750000D02*
X104990000Y-101750000D01*
X103637000Y-101793000D02*
X104479000Y-101793000D01*
X103696000Y-105650000D02*
X103123000Y-105077000D01*
%TO.N,M2_LB*%
X103408000Y-106150000D02*
X103408000Y-105863000D01*
X102921000Y-102224000D02*
X103554000Y-101591000D01*
X103860000Y-106150000D02*
X103408000Y-106150000D01*
X103408000Y-105863000D02*
X102921000Y-105375000D01*
X102921000Y-105375000D02*
X102921000Y-102224000D01*
X103554000Y-101591000D02*
X104099000Y-101591000D01*
X104440000Y-101250000D02*
X104990000Y-101250000D01*
X104099000Y-101591000D02*
X104440000Y-101250000D01*
%TO.N,M2_LC*%
X103860000Y-106650000D02*
X104312000Y-106650000D01*
X104522000Y-100750000D02*
X104990000Y-100750000D01*
X104483000Y-100789000D02*
X104522000Y-100750000D01*
X104312000Y-104690000D02*
X103777000Y-104156000D01*
X104312000Y-106650000D02*
X104312000Y-104690000D01*
X104388000Y-100789000D02*
X104483000Y-100789000D01*
%TO.N,M2_GLC*%
D38*
X110000000Y-96650000D02*
X109800000Y-96450000D01*
X111080000Y-96300000D02*
X111180000Y-96300000D01*
X110650000Y-96650000D02*
X110000000Y-96650000D01*
X106600000Y-98150000D02*
X106600000Y-98250000D01*
X110950000Y-96350000D02*
X110650000Y-96650000D01*
%TO.N,M2_GLB*%
X111080000Y-101500000D02*
X111180000Y-101500000D01*
X107150000Y-98590000D02*
X107150000Y-98038500D01*
%TO.N,M2_GLA*%
X111080000Y-106700000D02*
X111180000Y-106700000D01*
X107650000Y-98590000D02*
X107650000Y-98038500D01*
%TO.N,M2_GHC*%
X111080000Y-93300000D02*
X111180000Y-93300000D01*
X109604000Y-98973800D02*
X110298000Y-98973800D01*
X109328000Y-99250000D02*
X109604000Y-98973800D01*
X108810000Y-99250000D02*
X109328000Y-99250000D01*
%TO.N,M2_GHB*%
X111080000Y-98500000D02*
X111180000Y-98500000D01*
D42*
X108810000Y-100750000D02*
X110550000Y-100750000D01*
%TO.N,M2_GHA*%
D38*
X108740000Y-103000000D02*
X108668000Y-102928000D01*
X108668000Y-102928000D02*
X108150000Y-102928000D01*
X108150000Y-102928000D02*
X108150000Y-102410000D01*
X111080000Y-103700000D02*
X110380000Y-103000000D01*
X111180000Y-103700000D02*
X111080000Y-103700000D01*
X110380000Y-103000000D02*
X108740000Y-103000000D01*
%TO.N,M2_HA*%
D39*
X106650000Y-103197000D02*
X106650000Y-102410000D01*
X106150000Y-104360000D02*
X106150000Y-103697000D01*
X106150000Y-103697000D02*
X106650000Y-103197000D01*
%TO.N,M2_HB*%
X105650000Y-103908000D02*
X106150000Y-103408000D01*
X105650000Y-104360000D02*
X105650000Y-103908000D01*
X106150000Y-103408000D02*
X106150000Y-102410000D01*
%TO.N,M2_HC*%
X105150000Y-103378000D02*
X105650000Y-102878000D01*
X105150000Y-104360000D02*
X105150000Y-103378000D01*
X105650000Y-102878000D02*
X105650000Y-102410000D01*
%TO.N,LED_PWR_A*%
X115500000Y-90650000D02*
X114640000Y-90650000D01*
X114640000Y-90650000D02*
X114400000Y-90890000D01*
%TO.N,M3_GHA*%
D38*
X91850000Y-97071800D02*
X91850000Y-97590000D01*
X88920000Y-96300000D02*
X88820000Y-96300000D01*
X90935900Y-97226200D02*
X91090300Y-97071800D01*
X91090300Y-97071800D02*
X91850000Y-97071800D01*
%TO.N,M3_GLA*%
X88920000Y-93300000D02*
X88820000Y-93300000D01*
X92350000Y-101410000D02*
X92350000Y-101961500D01*
%TO.N,M2_NRST*%
D39*
X106650000Y-108988000D02*
X109406000Y-108988000D01*
X110817500Y-109115000D02*
X111082500Y-109379700D01*
X109406000Y-108988000D02*
X109544000Y-108850000D01*
X109544000Y-108850000D02*
X110553000Y-108850000D01*
X106650000Y-109440000D02*
X106650000Y-108988000D01*
X110553000Y-108850000D02*
X110817500Y-109115000D01*
%TO.N,M1_NRST*%
X90108300Y-106650000D02*
X90108300Y-107597000D01*
X90108300Y-107597000D02*
X89465000Y-108240000D01*
X90560000Y-106650000D02*
X90108300Y-106650000D01*
%TO.N,M1_GHC*%
D38*
X101048000Y-109372000D02*
X101005000Y-109328000D01*
X108900000Y-111140000D02*
X108900000Y-111180000D01*
X101005000Y-109328000D02*
X100750000Y-109328000D01*
X100750000Y-109328000D02*
X100750000Y-108810000D01*
%TO.N,M1_GLC*%
X105900000Y-111080000D02*
X105900000Y-111180000D01*
X101410000Y-106650000D02*
X101759999Y-106650000D01*
%TO.N,M4_NRST*%
D39*
X110359000Y-91758200D02*
X109971000Y-91369900D01*
X109440000Y-93350000D02*
X109892000Y-93350000D01*
X109971000Y-89508700D02*
X109675500Y-89213100D01*
X109892000Y-93350000D02*
X110359000Y-92882500D01*
X110359000Y-92882500D02*
X110359000Y-91758200D01*
X109675500Y-89213100D02*
X109380000Y-88917500D01*
X109971000Y-91369900D02*
X109971000Y-89508700D01*
%TO.N,M4_GHA*%
D38*
X102928000Y-90830700D02*
X102928000Y-91850000D01*
X102928000Y-91850000D02*
X102410000Y-91850000D01*
X102967000Y-90791600D02*
X102928000Y-90830700D01*
X103700000Y-88920000D02*
X103700000Y-88820000D01*
%TO.N,M4_GLA*%
X98590000Y-92350000D02*
X98038500Y-92350000D01*
X106700000Y-88920000D02*
X106700000Y-88820000D01*
%TO.N,M4_GHC*%
X99250000Y-91190000D02*
X99250000Y-90671800D01*
X99146900Y-90671800D02*
X98811800Y-90336700D01*
X93300000Y-88920000D02*
X93300000Y-88820000D01*
X99250000Y-90671800D02*
X99146900Y-90671800D01*
%TO.N,M4_GLC*%
X98071800Y-93350000D02*
X98071800Y-93415200D01*
X98071800Y-93415200D02*
X97972600Y-93514400D01*
X96300000Y-88920000D02*
X96300000Y-88820000D01*
X98590000Y-93350000D02*
X98071800Y-93350000D01*
%TO.N,BUCK_SW*%
D43*
X98485500Y-100901900D02*
X99555500Y-100901900D01*
X98485500Y-98771900D02*
X98485500Y-100901900D01*
X101905400Y-100902000D02*
X101006100Y-100901900D01*
X99555500Y-100901900D02*
X101006100Y-100901900D01*
%TO.N,BUCK_FB*%
D39*
X97970100Y-101825000D02*
X97970100Y-98473700D01*
X99137600Y-98226700D02*
X99689700Y-98778800D01*
X97943200Y-102270000D02*
X98550300Y-102877000D01*
X97943200Y-101852000D02*
X97943200Y-102270000D01*
X97970100Y-98473700D02*
X98217100Y-98226700D01*
X100141000Y-102877000D02*
X100752000Y-102265000D01*
X97255600Y-101852000D02*
X97943200Y-101852000D01*
X97943200Y-101852000D02*
X97970100Y-101825000D01*
X98550300Y-102877000D02*
X100141000Y-102877000D01*
X98217100Y-98226700D02*
X99137600Y-98226700D01*
%TO.N,BUCK_CB*%
D40*
X97255500Y-99951900D02*
X97525500Y-98771900D01*
%TO.N,M3_LA*%
D39*
X95688300Y-94350000D02*
X95688300Y-95836300D01*
X95010000Y-96704000D02*
X95478200Y-97172200D01*
X95688300Y-95836300D02*
X95783000Y-95931000D01*
X96140000Y-94350000D02*
X95688300Y-94350000D01*
X95478200Y-97172200D02*
X95478200Y-98250000D01*
X95478200Y-98250000D02*
X95010000Y-98250000D01*
%TO.N,M3_LB*%
X96835200Y-97938800D02*
X96323800Y-98450200D01*
X96408000Y-95246400D02*
X96408000Y-96020900D01*
X96408000Y-96020900D02*
X96606000Y-96218900D01*
X96140000Y-93850000D02*
X96591700Y-93850000D01*
X96591700Y-95062700D02*
X96408000Y-95246400D01*
X95320200Y-98750000D02*
X95010000Y-98750000D01*
X95620000Y-98450200D02*
X95320200Y-98750000D01*
X96323800Y-98450200D02*
X95620000Y-98450200D01*
X96591700Y-93850000D02*
X96591700Y-95062700D01*
%TO.N,M3_LC*%
X96140000Y-93350000D02*
X96591700Y-93350000D01*
X96573200Y-98850000D02*
X96762900Y-99039700D01*
X95478200Y-98987100D02*
X95615300Y-98850000D01*
X96793400Y-93551700D02*
X96793400Y-95552600D01*
X95010000Y-99250000D02*
X95478200Y-99250000D01*
X95478200Y-99250000D02*
X95478200Y-98987100D01*
X95615300Y-98850000D02*
X96573200Y-98850000D01*
X96591700Y-93350000D02*
X96793400Y-93551700D01*
%TO.N,M3_GLC*%
D38*
X93350000Y-101928000D02*
X93392100Y-101928000D01*
X93350000Y-101410000D02*
X93350000Y-101928000D01*
X88920000Y-103700000D02*
X88820000Y-103700000D01*
X93392100Y-101928000D02*
X93490100Y-102026000D01*
%TO.N,M3_GHC*%
X88920000Y-106700000D02*
X88820000Y-106700000D01*
X91190000Y-100750000D02*
X89938500Y-100750000D01*
X89938500Y-100750000D02*
X89662500Y-101026000D01*
%TO.N,M3_HA*%
D39*
X93350000Y-96802800D02*
X93350000Y-97590000D01*
X93850000Y-96302800D02*
X93350000Y-96802800D01*
X93850000Y-95640000D02*
X93850000Y-96302800D01*
%TO.N,M3_HB*%
X94350000Y-96091700D02*
X93850000Y-96591700D01*
X93850000Y-96591700D02*
X93850000Y-97590000D01*
X94350000Y-95640000D02*
X94350000Y-96091700D01*
%TO.N,M3_HC*%
X94850000Y-95640000D02*
X94850000Y-96091700D01*
X94850000Y-96091700D02*
X94350000Y-96591700D01*
X94350000Y-96591700D02*
X94350000Y-97590000D01*
%TO.N,M1_SWCLK*%
D38*
X95640000Y-108150000D02*
X96625000Y-108150000D01*
D39*
X94698100Y-110752000D02*
X93839000Y-110752000D01*
X95420700Y-109321000D02*
X95420700Y-110030000D01*
X93839000Y-110752000D02*
X93216700Y-110130000D01*
X96591800Y-108150000D02*
X95420700Y-109321000D01*
X95420700Y-110030000D02*
X94698100Y-110752000D01*
%TO.N,M4_GHB*%
D38*
X98500000Y-88920000D02*
X98500000Y-88820000D01*
D42*
X100750000Y-91190000D02*
X100750000Y-89450000D01*
%TO.N,M4_GLB*%
D38*
X98590000Y-92850000D02*
X98038500Y-92850000D01*
X101500000Y-88920000D02*
X101500000Y-88820000D01*
%TO.N,M1_LC*%
D39*
X99250000Y-104649000D02*
X99250000Y-104990000D01*
X93622800Y-103136000D02*
X97736700Y-103136000D01*
X93350000Y-103860000D02*
X93350000Y-103408000D01*
X97736700Y-103136000D02*
X99250000Y-104649000D01*
X93350000Y-103408000D02*
X93622800Y-103136000D01*
%TO.N,M1_LB*%
X97540900Y-104376000D02*
X97349400Y-104568000D01*
X98750000Y-104990000D02*
X98750000Y-104522000D01*
X93850000Y-104312000D02*
X95159200Y-104312000D01*
X93850000Y-103860000D02*
X93850000Y-104312000D01*
X95159200Y-104312000D02*
X95293300Y-104178000D01*
X98604500Y-104376000D02*
X97540900Y-104376000D01*
X97349400Y-104848000D02*
X96927100Y-105271000D01*
X97349400Y-104568000D02*
X97349400Y-104848000D01*
X98750000Y-104522000D02*
X98604500Y-104376000D01*
%TO.N,M1_LA*%
X98250000Y-104990000D02*
X97963100Y-104990000D01*
X97963100Y-104990000D02*
X97676100Y-104703000D01*
X94350000Y-103408000D02*
X95134500Y-103408000D01*
X95354600Y-103628000D02*
X95354600Y-103701000D01*
X94350000Y-103860000D02*
X94350000Y-103408000D01*
X95134500Y-103408000D02*
X95354600Y-103628000D01*
%TO.N,M1_HC*%
X95640000Y-105150000D02*
X96344400Y-105150000D01*
X96844400Y-105650000D02*
X97590000Y-105650000D01*
X96344400Y-105150000D02*
X96844400Y-105650000D01*
%TO.N,M1_HB*%
X95640000Y-105650000D02*
X96547900Y-105650000D01*
X97047900Y-106150000D02*
X97590000Y-106150000D01*
X96547900Y-105650000D02*
X97047900Y-106150000D01*
%TO.N,M1_HA*%
X97590000Y-106650000D02*
X96920700Y-106650000D01*
X96920700Y-106650000D02*
X96420700Y-106150000D01*
X96420700Y-106150000D02*
X95640000Y-106150000D01*
%TO.N,M1_SWDIO*%
X95188300Y-107650000D02*
X95188300Y-109379000D01*
X95188300Y-109379000D02*
X94430000Y-110137000D01*
X95640000Y-107650000D02*
X95188300Y-107650000D01*
%TO.N,M4_LA*%
X101895000Y-94864600D02*
X101750000Y-95010000D01*
X105650000Y-96140000D02*
X105650000Y-96591700D01*
X105650000Y-96591700D02*
X104907000Y-96591700D01*
X102941000Y-94864600D02*
X101895000Y-94864600D01*
X104907000Y-96591700D02*
X104715000Y-96399900D01*
%TO.N,M4_LB*%
X101250000Y-95697900D02*
X101250000Y-95010000D01*
X105920000Y-96821800D02*
X104299000Y-96821800D01*
X106150000Y-96591700D02*
X105920000Y-96821800D01*
X101907000Y-96734800D02*
X101907000Y-96355200D01*
X101907000Y-96355200D02*
X101250000Y-95697900D01*
X106150000Y-96140000D02*
X106150000Y-96591700D01*
%TO.N,M4_LC*%
X106650000Y-96140000D02*
X106650000Y-95688300D01*
X104791000Y-95688300D02*
X104694000Y-95785800D01*
X106650000Y-95688300D02*
X104791000Y-95688300D01*
X101235000Y-96232900D02*
X100750000Y-95748200D01*
X100750000Y-95748200D02*
X100750000Y-95010000D01*
%TO.N,M4_HA*%
X103197000Y-93350000D02*
X102410000Y-93350000D01*
X103697000Y-93850000D02*
X103197000Y-93350000D01*
X104360000Y-93850000D02*
X103697000Y-93850000D01*
%TO.N,M4_HB*%
X103378000Y-94350000D02*
X102878000Y-93850000D01*
X104360000Y-94350000D02*
X103378000Y-94350000D01*
X102878000Y-93850000D02*
X102410000Y-93850000D01*
%TO.N,M4_HC*%
X102922000Y-94350000D02*
X103422000Y-94850000D01*
X103422000Y-94850000D02*
X104360000Y-94850000D01*
X102410000Y-94350000D02*
X102922000Y-94350000D01*
%TO.N,M1_GLB*%
D38*
X101410000Y-107150000D02*
X101961500Y-107150000D01*
X100700000Y-111080000D02*
X100700000Y-111180000D01*
%TO.N,M1_GLA*%
X101410000Y-107650000D02*
X101961500Y-107650000D01*
X95500000Y-111080000D02*
X95500000Y-111180000D01*
%TO.N,M1_GHB*%
X103700000Y-111080000D02*
X103700000Y-111180000D01*
D42*
X99250000Y-108810000D02*
X99250000Y-110550000D01*
%TO.N,M1_GHA*%
D38*
X98500000Y-111080000D02*
X98500000Y-111180000D01*
X97640900Y-108201000D02*
X97640900Y-108567000D01*
X97590000Y-108150000D02*
X97640900Y-108201000D01*
%TD*%
%TA.AperFunction,Conductor*%
%TO.N,VBAT*%
G36*
X89065908Y-95104843D02*
G01*
X89078595Y-95108966D01*
X89128095Y-95144927D01*
X89128096Y-95144928D01*
X89131091Y-95149050D01*
X89150000Y-95207240D01*
X89150000Y-95736097D01*
X89145154Y-95766690D01*
X89141032Y-95779376D01*
X89105338Y-95828679D01*
X89105297Y-95828709D01*
X89052677Y-95847641D01*
X89024129Y-95849328D01*
X89018289Y-95849500D01*
X88605165Y-95849500D01*
X88561281Y-95858230D01*
X88561280Y-95858231D01*
X88561275Y-95858233D01*
X88511498Y-95891494D01*
X88511494Y-95891498D01*
X88478233Y-95941275D01*
X88478231Y-95941280D01*
X88478230Y-95941281D01*
X88469500Y-95985165D01*
X88469500Y-96614833D01*
X88478230Y-96658717D01*
X88478235Y-96658727D01*
X88511493Y-96708500D01*
X88511496Y-96708504D01*
X88561278Y-96741767D01*
X88572316Y-96743961D01*
X88572324Y-96743966D01*
X88572325Y-96743964D01*
X88594846Y-96748444D01*
X88603487Y-96750163D01*
X88605034Y-96750500D01*
X89020497Y-96750500D01*
X89032099Y-96751182D01*
X89039867Y-96752098D01*
X89039868Y-96752099D01*
X89060472Y-96754530D01*
X89116016Y-96780100D01*
X89116046Y-96780129D01*
X89144682Y-96827856D01*
X89146787Y-96835916D01*
X89150000Y-96860932D01*
X89150000Y-97185319D01*
X89145154Y-97215912D01*
X89141032Y-97228598D01*
X89105080Y-97278089D01*
X89100959Y-97281084D01*
X89042771Y-97300000D01*
X86514680Y-97300000D01*
X86484087Y-97295154D01*
X86471401Y-97291032D01*
X86421901Y-97255068D01*
X86421894Y-97255058D01*
X86418900Y-97250936D01*
X86400000Y-97192756D01*
X86400000Y-96014361D01*
X86418907Y-95956170D01*
X86454041Y-95926158D01*
X86491878Y-95906873D01*
X86495999Y-95903878D01*
X86530389Y-95869481D01*
X86566341Y-95819990D01*
X86588421Y-95776651D01*
X86592543Y-95763965D01*
X86598239Y-95740240D01*
X86603085Y-95709647D01*
X86605000Y-95685319D01*
X86605000Y-95211654D01*
X86605120Y-95206779D01*
X86605192Y-95205321D01*
X86605333Y-95201509D01*
X86605453Y-95196642D01*
X86605453Y-95196641D01*
X86605455Y-95196561D01*
X86625790Y-95138854D01*
X86676161Y-95104120D01*
X86704425Y-95100000D01*
X89035320Y-95100000D01*
X89065908Y-95104843D01*
G37*
%TD.AperFunction*%
%TD*%
%TA.AperFunction,Conductor*%
%TO.N,M4_C*%
G36*
X95715908Y-83504843D02*
G01*
X95728595Y-83508966D01*
X95778095Y-83544927D01*
X95778096Y-83544928D01*
X95781091Y-83549050D01*
X95800000Y-83607240D01*
X95800000Y-86262216D01*
X95781093Y-86320407D01*
X95769146Y-86334029D01*
X95759311Y-86343361D01*
X95720902Y-86414102D01*
X95706618Y-86473596D01*
X95702802Y-86522098D01*
X95703850Y-86535421D01*
X95704836Y-86544519D01*
X95706431Y-86556044D01*
X95707952Y-86565068D01*
X95709514Y-86572926D01*
X95709535Y-86573025D01*
X95713098Y-86590938D01*
X95715000Y-86610251D01*
X95715000Y-88359001D01*
X95716258Y-88378727D01*
X95716261Y-88378758D01*
X95719454Y-88403693D01*
X95723213Y-88423127D01*
X95725299Y-88431136D01*
X95742549Y-88472137D01*
X95745821Y-88477572D01*
X95760000Y-88528625D01*
X95760000Y-89035319D01*
X95755154Y-89065912D01*
X95751032Y-89078598D01*
X95715080Y-89128089D01*
X95710959Y-89131084D01*
X95652771Y-89150000D01*
X94794680Y-89150000D01*
X94764087Y-89145154D01*
X94751401Y-89141032D01*
X94701901Y-89105068D01*
X94701894Y-89105058D01*
X94698900Y-89100936D01*
X94680000Y-89042756D01*
X94680000Y-86450001D01*
X94680000Y-86450000D01*
X94679999Y-86450000D01*
X94662026Y-86432027D01*
X94659150Y-86431093D01*
X94651919Y-86421920D01*
X94651003Y-86421004D01*
X94651111Y-86420895D01*
X94625876Y-86388882D01*
X94620958Y-86377008D01*
X94584995Y-86327507D01*
X94574751Y-86314857D01*
X94574747Y-86314854D01*
X94507247Y-86271019D01*
X94507241Y-86271016D01*
X94449048Y-86252109D01*
X94449049Y-86252109D01*
X94401003Y-86244500D01*
X94401000Y-86244500D01*
X93899000Y-86244500D01*
X93840809Y-86225593D01*
X93804845Y-86176093D01*
X93800000Y-86145500D01*
X93800000Y-83614680D01*
X93804843Y-83584094D01*
X93808965Y-83571405D01*
X93844923Y-83521906D01*
X93845522Y-83521471D01*
X93849063Y-83518900D01*
X93907243Y-83500000D01*
X95685320Y-83500000D01*
X95715908Y-83504843D01*
G37*
%TD.AperFunction*%
%TD*%
%TA.AperFunction,Conductor*%
%TO.N,GND*%
G36*
X97215908Y-86404843D02*
G01*
X97228595Y-86408966D01*
X97278095Y-86444927D01*
X97278096Y-86444928D01*
X97281091Y-86449050D01*
X97300000Y-86507240D01*
X97300000Y-88485319D01*
X97295154Y-88515912D01*
X97291032Y-88528598D01*
X97255080Y-88578089D01*
X97250959Y-88581084D01*
X97192771Y-88600000D01*
X96836237Y-88600000D01*
X96805646Y-88595155D01*
X96785949Y-88588755D01*
X96745156Y-88563193D01*
X96744294Y-88562296D01*
X96733370Y-88548710D01*
X96711957Y-88516664D01*
X96709824Y-88512993D01*
X96708506Y-88511497D01*
X96708283Y-88511348D01*
X96707840Y-88511052D01*
X96707830Y-88511045D01*
X96658729Y-88478236D01*
X96658721Y-88478232D01*
X96658720Y-88478231D01*
X96658717Y-88478230D01*
X96614833Y-88469500D01*
X96614827Y-88469500D01*
X96614820Y-88469500D01*
X96000564Y-88469500D01*
X95988847Y-88468804D01*
X95959918Y-88465356D01*
X95904738Y-88440030D01*
X95904690Y-88439986D01*
X95875782Y-88391954D01*
X95873695Y-88383939D01*
X95870500Y-88358993D01*
X95870500Y-86585190D01*
X95870500Y-86585181D01*
X95870499Y-86585172D01*
X95866152Y-86563326D01*
X95861767Y-86541278D01*
X95861765Y-86541276D01*
X95860466Y-86534743D01*
X95858870Y-86523208D01*
X95857822Y-86509895D01*
X95872105Y-86450403D01*
X95918630Y-86410666D01*
X95918630Y-86410665D01*
X95926191Y-86407533D01*
X95964072Y-86400000D01*
X97185320Y-86400000D01*
X97215908Y-86404843D01*
G37*
%TD.AperFunction*%
%TD*%
%TA.AperFunction,Conductor*%
%TO.N,GND*%
G36*
X105394353Y-111404845D02*
G01*
X105414046Y-111411243D01*
X105454842Y-111436805D01*
X105455703Y-111437700D01*
X105466629Y-111451289D01*
X105491496Y-111488505D01*
X105491497Y-111488506D01*
X105541275Y-111521765D01*
X105541278Y-111521767D01*
X105552316Y-111523961D01*
X105552324Y-111523966D01*
X105552325Y-111523964D01*
X105574846Y-111528444D01*
X105583487Y-111530163D01*
X105585034Y-111530500D01*
X106185500Y-111530500D01*
X106243691Y-111549407D01*
X106279655Y-111598907D01*
X106284500Y-111629500D01*
X106284500Y-113474855D01*
X106272672Y-113520184D01*
X106272965Y-113520312D01*
X106272158Y-113522155D01*
X106271880Y-113523223D01*
X106271018Y-113524760D01*
X106271014Y-113524771D01*
X106268799Y-113531590D01*
X106232837Y-113581091D01*
X106174646Y-113600000D01*
X105014680Y-113600000D01*
X104984087Y-113595154D01*
X104971401Y-113591032D01*
X104921901Y-113555068D01*
X104921894Y-113555058D01*
X104918900Y-113550936D01*
X104900000Y-113492756D01*
X104900000Y-111514680D01*
X104904843Y-111484094D01*
X104908965Y-111471405D01*
X104944923Y-111421906D01*
X104945522Y-111421471D01*
X104949063Y-111418900D01*
X105007243Y-111400000D01*
X105363763Y-111400000D01*
X105394353Y-111404845D01*
G37*
%TD.AperFunction*%
%TD*%
%TA.AperFunction,Conductor*%
%TO.N,M4_A*%
G36*
X106115908Y-83504843D02*
G01*
X106128595Y-83508966D01*
X106178095Y-83544927D01*
X106178096Y-83544928D01*
X106181091Y-83549050D01*
X106200000Y-83607240D01*
X106200000Y-86256788D01*
X106181093Y-86314979D01*
X106169150Y-86328598D01*
X106154526Y-86342476D01*
X106122559Y-86394642D01*
X106114793Y-86408945D01*
X106114793Y-86408946D01*
X106100124Y-86488090D01*
X106104275Y-86540828D01*
X106103649Y-86543432D01*
X106113098Y-86590939D01*
X106115000Y-86610250D01*
X106115000Y-88371678D01*
X106118348Y-88397811D01*
X106120022Y-88410881D01*
X106132597Y-88459152D01*
X106132605Y-88459181D01*
X106134540Y-88465973D01*
X106144769Y-88482214D01*
X106160000Y-88534975D01*
X106160000Y-89035319D01*
X106155154Y-89065912D01*
X106151032Y-89078598D01*
X106115080Y-89128089D01*
X106110959Y-89131084D01*
X106052771Y-89150000D01*
X105194680Y-89150000D01*
X105164087Y-89145154D01*
X105151401Y-89141032D01*
X105101901Y-89105068D01*
X105101894Y-89105058D01*
X105098900Y-89100936D01*
X105080000Y-89042756D01*
X105080000Y-86450001D01*
X105080000Y-86450000D01*
X105079999Y-86450000D01*
X105062026Y-86432027D01*
X105059150Y-86431093D01*
X105051919Y-86421920D01*
X105051003Y-86421004D01*
X105051111Y-86420895D01*
X105025876Y-86388882D01*
X105020958Y-86377008D01*
X104984995Y-86327507D01*
X104974751Y-86314857D01*
X104974747Y-86314854D01*
X104907247Y-86271019D01*
X104907241Y-86271016D01*
X104849048Y-86252109D01*
X104849049Y-86252109D01*
X104801003Y-86244500D01*
X104801000Y-86244500D01*
X104299000Y-86244500D01*
X104240809Y-86225593D01*
X104204845Y-86176093D01*
X104200000Y-86145500D01*
X104200000Y-83614680D01*
X104204843Y-83584094D01*
X104208965Y-83571405D01*
X104244923Y-83521906D01*
X104245522Y-83521471D01*
X104249063Y-83518900D01*
X104307243Y-83500000D01*
X106085320Y-83500000D01*
X106115908Y-83504843D01*
G37*
%TD.AperFunction*%
%TD*%
%TA.AperFunction,Conductor*%
%TO.N,M3_A*%
G36*
X86314978Y-93818907D02*
G01*
X86328602Y-93830856D01*
X86342459Y-93845460D01*
X86342461Y-93845461D01*
X86394629Y-93877433D01*
X86408931Y-93885199D01*
X86488075Y-93899872D01*
X86540838Y-93895722D01*
X86543443Y-93896348D01*
X86571618Y-93890743D01*
X86590921Y-93886902D01*
X86610237Y-93885000D01*
X88371673Y-93885000D01*
X88371679Y-93885000D01*
X88410943Y-93879961D01*
X88459319Y-93867337D01*
X88466172Y-93865380D01*
X88482188Y-93855273D01*
X88535018Y-93840000D01*
X89035320Y-93840000D01*
X89065908Y-93844843D01*
X89078595Y-93848966D01*
X89128095Y-93884927D01*
X89128096Y-93884928D01*
X89131091Y-93889050D01*
X89150000Y-93947240D01*
X89150000Y-94805319D01*
X89145154Y-94835912D01*
X89141032Y-94848598D01*
X89105080Y-94898089D01*
X89100959Y-94901084D01*
X89042771Y-94920000D01*
X86450000Y-94920000D01*
X86450000Y-94920001D01*
X86450000Y-95192809D01*
X86449880Y-95197676D01*
X86449642Y-95202511D01*
X86449609Y-95202958D01*
X86449500Y-95205184D01*
X86449500Y-95685319D01*
X86444654Y-95715912D01*
X86440532Y-95728598D01*
X86404580Y-95778089D01*
X86400459Y-95781084D01*
X86342271Y-95800000D01*
X83614680Y-95800000D01*
X83584087Y-95795154D01*
X83571401Y-95791032D01*
X83521901Y-95755068D01*
X83521894Y-95755058D01*
X83518900Y-95750936D01*
X83500000Y-95692756D01*
X83500000Y-93914680D01*
X83504843Y-93884094D01*
X83508965Y-93871405D01*
X83544923Y-93821906D01*
X83545522Y-93821471D01*
X83549063Y-93818900D01*
X83607243Y-93800000D01*
X86256787Y-93800000D01*
X86314978Y-93818907D01*
G37*
%TD.AperFunction*%
%TD*%
%TA.AperFunction,Conductor*%
%TO.N,GND*%
G36*
X102415908Y-86404843D02*
G01*
X102428595Y-86408966D01*
X102478095Y-86444927D01*
X102478096Y-86444928D01*
X102481091Y-86449050D01*
X102500000Y-86507240D01*
X102500000Y-88485319D01*
X102495154Y-88515912D01*
X102491032Y-88528598D01*
X102455080Y-88578089D01*
X102450959Y-88581084D01*
X102392771Y-88600000D01*
X102036237Y-88600000D01*
X102005646Y-88595155D01*
X101985949Y-88588755D01*
X101945156Y-88563193D01*
X101944294Y-88562296D01*
X101933370Y-88548710D01*
X101911957Y-88516664D01*
X101909824Y-88512993D01*
X101908506Y-88511497D01*
X101908283Y-88511348D01*
X101907840Y-88511052D01*
X101907830Y-88511045D01*
X101858729Y-88478236D01*
X101858721Y-88478232D01*
X101858720Y-88478231D01*
X101858717Y-88478230D01*
X101814833Y-88469500D01*
X101814827Y-88469500D01*
X101814820Y-88469500D01*
X101214500Y-88469500D01*
X101156309Y-88450593D01*
X101120345Y-88401093D01*
X101115500Y-88370500D01*
X101115500Y-86525144D01*
X101127328Y-86479817D01*
X101127035Y-86479689D01*
X101127845Y-86477836D01*
X101128124Y-86476769D01*
X101128237Y-86476565D01*
X101128983Y-86475235D01*
X101131201Y-86468410D01*
X101167163Y-86418909D01*
X101225354Y-86400000D01*
X102385320Y-86400000D01*
X102415908Y-86404843D01*
G37*
%TD.AperFunction*%
%TD*%
%TA.AperFunction,Conductor*%
%TO.N,VBAT*%
G36*
X94459191Y-86418907D02*
G01*
X94495155Y-86468407D01*
X94500000Y-86499000D01*
X94500000Y-89051000D01*
X94481093Y-89109191D01*
X94431593Y-89145155D01*
X94401000Y-89150000D01*
X93848222Y-89150000D01*
X93790031Y-89131093D01*
X93754067Y-89081593D01*
X93751598Y-89039819D01*
X93750023Y-89039664D01*
X93750500Y-89034818D01*
X93750500Y-88605181D01*
X93750499Y-88605172D01*
X93741767Y-88561279D01*
X93741765Y-88561275D01*
X93708505Y-88511498D01*
X93708504Y-88511496D01*
X93707840Y-88511052D01*
X93658724Y-88478234D01*
X93658720Y-88478232D01*
X93614827Y-88469500D01*
X93614820Y-88469500D01*
X92985180Y-88469500D01*
X92985172Y-88469500D01*
X92941279Y-88478232D01*
X92941275Y-88478234D01*
X92891498Y-88511494D01*
X92891494Y-88511498D01*
X92858234Y-88561275D01*
X92858232Y-88561279D01*
X92849500Y-88605172D01*
X92849500Y-89034818D01*
X92849977Y-89039664D01*
X92847913Y-89039867D01*
X92841674Y-89092470D01*
X92800130Y-89137389D01*
X92751778Y-89150000D01*
X92399000Y-89150000D01*
X92340809Y-89131093D01*
X92304845Y-89081593D01*
X92300000Y-89051000D01*
X92300000Y-86499000D01*
X92318907Y-86440809D01*
X92368407Y-86404845D01*
X92399000Y-86400000D01*
X94401000Y-86400000D01*
X94459191Y-86418907D01*
G37*
%TD.AperFunction*%
%TD*%
%TA.AperFunction,Conductor*%
%TO.N,M2_A*%
G36*
X116415908Y-104204843D02*
G01*
X116428595Y-104208966D01*
X116478095Y-104244927D01*
X116478096Y-104244928D01*
X116481091Y-104249050D01*
X116500000Y-104307240D01*
X116500000Y-106085319D01*
X116495154Y-106115912D01*
X116491032Y-106128598D01*
X116455080Y-106178089D01*
X116450959Y-106181084D01*
X116392771Y-106200000D01*
X113743211Y-106200000D01*
X113685020Y-106181093D01*
X113671400Y-106169148D01*
X113657525Y-106154527D01*
X113605357Y-106122559D01*
X113591053Y-106114793D01*
X113511908Y-106100124D01*
X113459195Y-106104274D01*
X113456581Y-106103646D01*
X113423230Y-106110280D01*
X113409060Y-106113098D01*
X113389750Y-106115000D01*
X111628321Y-106115000D01*
X111628317Y-106115000D01*
X111628305Y-106115001D01*
X111589068Y-106120037D01*
X111589059Y-106120038D01*
X111589057Y-106120039D01*
X111589053Y-106120039D01*
X111589043Y-106120042D01*
X111540686Y-106132661D01*
X111533828Y-106134619D01*
X111533827Y-106134620D01*
X111517812Y-106144726D01*
X111464982Y-106160000D01*
X110964680Y-106160000D01*
X110934087Y-106155154D01*
X110921401Y-106151032D01*
X110871901Y-106115068D01*
X110871894Y-106115058D01*
X110868900Y-106110936D01*
X110850000Y-106052756D01*
X110850000Y-105194680D01*
X110854843Y-105164094D01*
X110858965Y-105151405D01*
X110894923Y-105101906D01*
X110895522Y-105101471D01*
X110899063Y-105098900D01*
X110957243Y-105080000D01*
X113549999Y-105080000D01*
X113550000Y-105080000D01*
X113550000Y-105079998D01*
X113566660Y-105063338D01*
X113568907Y-105056425D01*
X113604043Y-105026413D01*
X113642374Y-105006875D01*
X113642373Y-105006875D01*
X113642378Y-105006873D01*
X113646499Y-105003878D01*
X113680889Y-104969481D01*
X113716841Y-104919990D01*
X113738921Y-104876651D01*
X113743043Y-104863965D01*
X113748739Y-104840240D01*
X113753585Y-104809647D01*
X113755500Y-104785319D01*
X113755500Y-104299000D01*
X113774407Y-104240809D01*
X113823907Y-104204845D01*
X113854500Y-104200000D01*
X116385320Y-104200000D01*
X116415908Y-104204843D01*
G37*
%TD.AperFunction*%
%TD*%
%TA.AperFunction,Conductor*%
%TO.N,M1_B*%
G36*
X102235908Y-110854843D02*
G01*
X102248595Y-110858966D01*
X102298095Y-110894927D01*
X102298096Y-110894928D01*
X102301091Y-110899050D01*
X102320000Y-110957240D01*
X102320000Y-113550000D01*
X102320001Y-113550000D01*
X102337973Y-113567972D01*
X102340850Y-113568907D01*
X102348080Y-113578079D01*
X102348997Y-113578996D01*
X102348888Y-113579104D01*
X102374124Y-113611118D01*
X102379041Y-113622991D01*
X102415004Y-113672492D01*
X102425248Y-113685142D01*
X102425252Y-113685145D01*
X102492752Y-113728980D01*
X102492758Y-113728983D01*
X102550949Y-113747890D01*
X102560559Y-113749412D01*
X102598996Y-113755500D01*
X102599000Y-113755500D01*
X103101000Y-113755500D01*
X103159191Y-113774407D01*
X103195155Y-113823907D01*
X103200000Y-113854500D01*
X103200000Y-113904466D01*
X103196628Y-113930084D01*
X103181508Y-113986521D01*
X103181536Y-113986709D01*
X103179603Y-113995508D01*
X103165500Y-114048144D01*
X103165500Y-114133852D01*
X103179076Y-114184521D01*
X103179077Y-114184525D01*
X103179601Y-114186481D01*
X103179517Y-114188076D01*
X103196625Y-114251907D01*
X103200000Y-114277536D01*
X103200000Y-115420000D01*
X103100000Y-115420000D01*
X103100000Y-115900000D01*
X103200000Y-115900000D01*
X103200000Y-115900001D01*
X103200000Y-116385319D01*
X103195154Y-116415912D01*
X103191032Y-116428598D01*
X103155080Y-116478089D01*
X103150959Y-116481084D01*
X103092771Y-116500000D01*
X101314680Y-116500000D01*
X101284087Y-116495154D01*
X101271401Y-116491032D01*
X101221901Y-116455068D01*
X101221894Y-116455058D01*
X101218900Y-116450936D01*
X101200000Y-116392756D01*
X101200000Y-113743210D01*
X101218907Y-113685019D01*
X101230848Y-113671402D01*
X101245476Y-113657521D01*
X101277443Y-113605351D01*
X101285208Y-113591049D01*
X101299874Y-113511904D01*
X101295724Y-113459194D01*
X101296352Y-113456576D01*
X101286903Y-113409074D01*
X101285000Y-113389758D01*
X101285000Y-111628326D01*
X101284998Y-111628305D01*
X101279962Y-111589068D01*
X101279961Y-111589057D01*
X101267337Y-111540681D01*
X101265380Y-111533828D01*
X101265378Y-111533824D01*
X101255273Y-111517809D01*
X101240000Y-111464981D01*
X101240000Y-110964680D01*
X101244843Y-110934094D01*
X101248965Y-110921405D01*
X101284923Y-110871906D01*
X101285522Y-110871471D01*
X101289063Y-110868900D01*
X101347243Y-110850000D01*
X102205320Y-110850000D01*
X102235908Y-110854843D01*
G37*
%TD.AperFunction*%
%TD*%
%TA.AperFunction,Conductor*%
%TO.N,M1_A*%
G36*
X97035908Y-110854843D02*
G01*
X97048595Y-110858966D01*
X97098095Y-110894927D01*
X97098096Y-110894928D01*
X97101091Y-110899050D01*
X97120000Y-110957240D01*
X97120000Y-113550000D01*
X97120001Y-113550000D01*
X97136661Y-113566660D01*
X97143575Y-113568907D01*
X97173598Y-113604064D01*
X97193083Y-113642315D01*
X97193091Y-113642328D01*
X97208848Y-113664022D01*
X97219010Y-113669184D01*
X97219707Y-113669886D01*
X97221194Y-113671399D01*
X97230500Y-113680870D01*
X97230506Y-113680874D01*
X97230508Y-113680876D01*
X97279994Y-113716830D01*
X97280005Y-113716837D01*
X97323338Y-113738916D01*
X97323348Y-113738921D01*
X97336034Y-113743043D01*
X97336042Y-113743045D01*
X97336049Y-113743047D01*
X97347316Y-113745751D01*
X97359759Y-113748739D01*
X97390352Y-113753585D01*
X97414680Y-113755500D01*
X99392771Y-113755500D01*
X99440845Y-113747882D01*
X99499033Y-113728966D01*
X99542378Y-113706873D01*
X99542381Y-113706870D01*
X99545695Y-113704840D01*
X99546216Y-113705691D01*
X99600391Y-113688067D01*
X99654346Y-113704038D01*
X99674044Y-113716830D01*
X99692731Y-113728966D01*
X99692758Y-113728983D01*
X99750949Y-113747890D01*
X99760559Y-113749412D01*
X99798996Y-113755500D01*
X99799000Y-113755500D01*
X100001000Y-113755500D01*
X100059191Y-113774407D01*
X100095155Y-113823907D01*
X100100000Y-113854500D01*
X100100000Y-115420000D01*
X100000000Y-115420000D01*
X100000000Y-115900000D01*
X100100000Y-115900000D01*
X100100000Y-115900001D01*
X100100000Y-116385319D01*
X100095154Y-116415912D01*
X100091032Y-116428598D01*
X100055080Y-116478089D01*
X100050959Y-116481084D01*
X99992771Y-116500000D01*
X96114680Y-116500000D01*
X96084087Y-116495154D01*
X96071401Y-116491032D01*
X96021901Y-116455068D01*
X96021894Y-116455058D01*
X96018900Y-116450936D01*
X96000000Y-116392756D01*
X96000000Y-116384945D01*
X96004843Y-116354359D01*
X96008965Y-116341670D01*
X96044923Y-116292171D01*
X96046381Y-116291112D01*
X96095520Y-116272619D01*
X96100784Y-116272136D01*
X96100784Y-116272135D01*
X96114083Y-116270915D01*
X96123134Y-116270500D01*
X96212725Y-116270500D01*
X96212727Y-116270500D01*
X96314587Y-116243207D01*
X96405913Y-116190480D01*
X96480480Y-116115913D01*
X96533207Y-116024587D01*
X96560500Y-115922727D01*
X96560500Y-115817273D01*
X96533207Y-115715413D01*
X96480480Y-115624087D01*
X96427479Y-115571085D01*
X96409275Y-115546029D01*
X96403220Y-115534145D01*
X96393649Y-115473725D01*
X96394447Y-115468686D01*
X96422218Y-115414173D01*
X96480480Y-115355913D01*
X96533207Y-115264587D01*
X96560500Y-115162727D01*
X96560500Y-115057273D01*
X96533207Y-114955413D01*
X96523812Y-114939141D01*
X96484218Y-114870562D01*
X96480480Y-114864087D01*
X96427482Y-114811089D01*
X96426589Y-114809336D01*
X96423231Y-114804816D01*
X96419948Y-114802638D01*
X96409273Y-114786023D01*
X96407002Y-114781565D01*
X96408031Y-114781040D01*
X96401479Y-114768460D01*
X96400065Y-114769014D01*
X96399050Y-114766419D01*
X96398691Y-114763108D01*
X96396979Y-114759821D01*
X96396947Y-114759707D01*
X96398282Y-114759332D01*
X96396682Y-114744555D01*
X96392253Y-114731396D01*
X96394485Y-114724272D01*
X96393467Y-114714869D01*
X96394089Y-114710936D01*
X96394091Y-114710934D01*
X96394448Y-114708680D01*
X96407235Y-114683583D01*
X96410549Y-114673010D01*
X96413886Y-114670531D01*
X96422223Y-114654168D01*
X96480480Y-114595913D01*
X96483568Y-114590565D01*
X97024499Y-114590565D01*
X97024499Y-114596369D01*
X97024499Y-114689434D01*
X97036877Y-114735633D01*
X97050089Y-114784941D01*
X97050090Y-114784942D01*
X97095785Y-114864087D01*
X97099520Y-114870555D01*
X97099519Y-114870555D01*
X97099522Y-114870559D01*
X97099524Y-114870562D01*
X97169437Y-114940475D01*
X97169439Y-114940476D01*
X97169989Y-114940873D01*
X97172000Y-114941954D01*
X97198287Y-114957132D01*
X97219882Y-114981115D01*
X97254191Y-114989692D01*
X97255794Y-114990106D01*
X97350564Y-115015500D01*
X97350566Y-115015500D01*
X97449432Y-115015500D01*
X97449434Y-115015500D01*
X97544937Y-114989910D01*
X97544939Y-114989908D01*
X97544941Y-114989908D01*
X97570376Y-114975222D01*
X97630561Y-114940475D01*
X97700474Y-114870562D01*
X97735823Y-114809336D01*
X97749907Y-114784942D01*
X97749907Y-114784940D01*
X97749909Y-114784938D01*
X97775499Y-114689435D01*
X97775499Y-114590565D01*
X97749909Y-114495062D01*
X97749907Y-114495059D01*
X97749907Y-114495057D01*
X97749905Y-114495054D01*
X97749815Y-114494717D01*
X97748321Y-114492310D01*
X97701956Y-114412004D01*
X97700874Y-114409994D01*
X97700475Y-114409440D01*
X97700474Y-114409438D01*
X97630561Y-114339525D01*
X97630558Y-114339523D01*
X97602227Y-114323166D01*
X97581192Y-114299803D01*
X97507885Y-114280160D01*
X97507885Y-114280161D01*
X97449434Y-114264500D01*
X97350564Y-114264500D01*
X97350562Y-114264500D01*
X97292114Y-114280159D01*
X97292115Y-114280160D01*
X97255057Y-114290090D01*
X97169443Y-114339519D01*
X97099520Y-114409442D01*
X97050088Y-114495060D01*
X97049811Y-114495793D01*
X97049623Y-114496598D01*
X97049632Y-114496724D01*
X97049444Y-114497466D01*
X97024499Y-114590565D01*
X96483568Y-114590565D01*
X96533207Y-114504587D01*
X96560500Y-114402727D01*
X96560500Y-114297273D01*
X96533207Y-114195413D01*
X96480480Y-114104087D01*
X96405913Y-114029520D01*
X96314587Y-113976793D01*
X96212727Y-113949500D01*
X96212725Y-113949500D01*
X96124268Y-113949500D01*
X96106179Y-113947833D01*
X96083343Y-113943589D01*
X96029590Y-113914372D01*
X96028347Y-113913061D01*
X96003624Y-113866769D01*
X96002435Y-113861508D01*
X96000000Y-113839684D01*
X96000000Y-113743210D01*
X96018907Y-113685019D01*
X96030848Y-113671402D01*
X96045476Y-113657521D01*
X96077443Y-113605351D01*
X96085208Y-113591049D01*
X96099874Y-113511904D01*
X96095724Y-113459194D01*
X96096352Y-113456576D01*
X96086903Y-113409074D01*
X96085000Y-113389758D01*
X96085000Y-111628326D01*
X96084998Y-111628305D01*
X96079962Y-111589068D01*
X96079961Y-111589057D01*
X96067337Y-111540681D01*
X96065380Y-111533828D01*
X96065378Y-111533824D01*
X96055273Y-111517809D01*
X96040000Y-111464981D01*
X96040000Y-110964680D01*
X96044843Y-110934094D01*
X96048965Y-110921405D01*
X96084923Y-110871906D01*
X96085522Y-110871471D01*
X96089063Y-110868900D01*
X96147243Y-110850000D01*
X97005320Y-110850000D01*
X97035908Y-110854843D01*
G37*
%TD.AperFunction*%
%TD*%
%TA.AperFunction,Conductor*%
%TO.N,GND*%
G36*
X88515908Y-102704843D02*
G01*
X88528595Y-102708966D01*
X88578095Y-102744927D01*
X88578096Y-102744928D01*
X88581091Y-102749050D01*
X88600000Y-102807240D01*
X88600000Y-103163761D01*
X88595154Y-103194357D01*
X88588754Y-103214052D01*
X88563231Y-103254806D01*
X88562339Y-103255664D01*
X88548712Y-103266628D01*
X88523496Y-103283477D01*
X88511497Y-103291495D01*
X88511496Y-103291496D01*
X88511495Y-103291496D01*
X88511494Y-103291498D01*
X88478233Y-103341275D01*
X88478231Y-103341280D01*
X88478230Y-103341281D01*
X88469500Y-103385165D01*
X88469500Y-103985500D01*
X88450593Y-104043691D01*
X88401093Y-104079655D01*
X88370500Y-104084500D01*
X86520285Y-104084500D01*
X86478839Y-104075407D01*
X86457554Y-104065595D01*
X86412624Y-104024063D01*
X86400000Y-103975688D01*
X86400000Y-102814680D01*
X86404843Y-102784094D01*
X86408965Y-102771405D01*
X86444923Y-102721906D01*
X86445522Y-102721471D01*
X86449063Y-102718900D01*
X86507243Y-102700000D01*
X88485320Y-102700000D01*
X88515908Y-102704843D01*
G37*
%TD.AperFunction*%
%TD*%
%TA.AperFunction,Conductor*%
%TO.N,VBAT*%
G36*
X98841057Y-86418907D02*
G01*
X98874331Y-86461117D01*
X98879042Y-86472493D01*
X98915004Y-86521992D01*
X98925248Y-86534642D01*
X98925252Y-86534645D01*
X98992752Y-86578480D01*
X98992758Y-86578483D01*
X99050949Y-86597390D01*
X99060559Y-86598912D01*
X99098996Y-86605000D01*
X99099000Y-86605000D01*
X99588337Y-86605000D01*
X99593183Y-86605119D01*
X99594002Y-86605159D01*
X99597140Y-86605313D01*
X99603428Y-86605467D01*
X99661137Y-86625795D01*
X99695876Y-86676162D01*
X99700000Y-86704437D01*
X99700000Y-89035319D01*
X99695154Y-89065912D01*
X99691032Y-89078598D01*
X99655080Y-89128089D01*
X99650959Y-89131084D01*
X99592771Y-89150000D01*
X99063902Y-89150000D01*
X99033309Y-89145154D01*
X99020623Y-89141032D01*
X98971563Y-89105669D01*
X98971532Y-89105627D01*
X98952357Y-89052676D01*
X98951598Y-89039819D01*
X98951597Y-89039818D01*
X98950672Y-89024151D01*
X98950500Y-89018313D01*
X98950500Y-88605190D01*
X98950500Y-88605181D01*
X98950499Y-88605172D01*
X98941767Y-88561279D01*
X98941765Y-88561275D01*
X98911953Y-88516659D01*
X98909823Y-88512993D01*
X98908505Y-88511498D01*
X98908504Y-88511496D01*
X98859132Y-88478507D01*
X98859118Y-88478488D01*
X98859114Y-88478494D01*
X98858724Y-88478234D01*
X98858720Y-88478232D01*
X98858718Y-88478231D01*
X98858717Y-88478230D01*
X98814833Y-88469500D01*
X98814827Y-88469500D01*
X98814820Y-88469500D01*
X98185180Y-88469500D01*
X98185172Y-88469500D01*
X98185165Y-88469500D01*
X98141281Y-88478230D01*
X98141280Y-88478231D01*
X98141275Y-88478233D01*
X98091498Y-88511494D01*
X98091494Y-88511498D01*
X98058233Y-88561275D01*
X98058231Y-88561280D01*
X98058230Y-88561281D01*
X98049500Y-88605165D01*
X98049500Y-89020633D01*
X98048811Y-89032295D01*
X98045462Y-89060527D01*
X98019897Y-89116015D01*
X98019861Y-89116054D01*
X97972107Y-89144697D01*
X97964067Y-89146794D01*
X97939081Y-89150000D01*
X97614680Y-89150000D01*
X97584087Y-89145154D01*
X97571401Y-89141032D01*
X97521901Y-89105068D01*
X97521894Y-89105058D01*
X97518900Y-89100936D01*
X97500000Y-89042756D01*
X97500000Y-86514680D01*
X97504843Y-86484094D01*
X97508965Y-86471405D01*
X97544923Y-86421906D01*
X97545522Y-86421471D01*
X97549063Y-86418900D01*
X97607243Y-86400000D01*
X98782866Y-86400000D01*
X98841057Y-86418907D01*
G37*
%TD.AperFunction*%
%TD*%
%TA.AperFunction,Conductor*%
%TO.N,VBAT*%
G36*
X113515908Y-92304843D02*
G01*
X113528595Y-92308966D01*
X113578095Y-92344927D01*
X113578096Y-92344928D01*
X113581091Y-92349050D01*
X113600000Y-92407240D01*
X113600000Y-93582865D01*
X113581093Y-93641056D01*
X113538888Y-93674328D01*
X113527507Y-93679042D01*
X113478007Y-93715004D01*
X113465357Y-93725248D01*
X113465354Y-93725252D01*
X113421519Y-93792752D01*
X113421516Y-93792758D01*
X113402609Y-93850950D01*
X113395000Y-93898996D01*
X113395000Y-94388327D01*
X113394881Y-94393175D01*
X113394687Y-94397127D01*
X113394533Y-94403424D01*
X113374207Y-94461134D01*
X113323841Y-94495875D01*
X113295563Y-94500000D01*
X110964680Y-94500000D01*
X110934087Y-94495154D01*
X110921401Y-94491032D01*
X110871901Y-94455068D01*
X110871894Y-94455058D01*
X110868900Y-94450936D01*
X110850000Y-94392756D01*
X110850000Y-93863901D01*
X110854843Y-93833315D01*
X110858965Y-93820626D01*
X110894576Y-93771381D01*
X110894606Y-93771359D01*
X110947338Y-93752364D01*
X110960179Y-93751610D01*
X110960179Y-93751608D01*
X110976157Y-93750670D01*
X110981964Y-93750500D01*
X111398107Y-93750500D01*
X111404361Y-93748601D01*
X111416615Y-93746163D01*
X111416623Y-93746164D01*
X111416623Y-93746162D01*
X111438722Y-93741767D01*
X111488504Y-93708504D01*
X111521767Y-93658722D01*
X111530500Y-93614820D01*
X111530500Y-92985180D01*
X111530500Y-92985032D01*
X111530161Y-92983471D01*
X111521768Y-92941281D01*
X111521768Y-92941280D01*
X111521765Y-92941275D01*
X111491957Y-92896665D01*
X111489823Y-92892993D01*
X111488503Y-92891495D01*
X111470459Y-92879439D01*
X111470458Y-92879438D01*
X111438724Y-92858234D01*
X111438720Y-92858232D01*
X111438719Y-92858231D01*
X111438718Y-92858231D01*
X111438717Y-92858230D01*
X111394833Y-92849500D01*
X111394827Y-92849500D01*
X111394820Y-92849500D01*
X110979362Y-92849500D01*
X110967698Y-92848811D01*
X110960132Y-92847913D01*
X110949305Y-92846628D01*
X110939470Y-92845462D01*
X110883984Y-92819897D01*
X110883945Y-92819861D01*
X110855300Y-92772099D01*
X110853202Y-92764055D01*
X110850000Y-92739081D01*
X110850000Y-92414680D01*
X110854843Y-92384094D01*
X110858965Y-92371405D01*
X110894923Y-92321906D01*
X110895522Y-92321471D01*
X110899063Y-92318900D01*
X110957243Y-92300000D01*
X113485320Y-92300000D01*
X113515908Y-92304843D01*
G37*
%TD.AperFunction*%
%TD*%
%TA.AperFunction,Conductor*%
%TO.N,M3_C*%
G36*
X86383904Y-104204845D02*
G01*
X86396241Y-104208853D01*
X86407130Y-104212391D01*
X86446543Y-104236542D01*
X86450000Y-104239999D01*
X86450000Y-104240000D01*
X89035320Y-104240000D01*
X89065908Y-104244843D01*
X89078595Y-104248966D01*
X89128095Y-104284927D01*
X89128096Y-104284928D01*
X89131091Y-104289050D01*
X89150000Y-104347240D01*
X89150000Y-105205319D01*
X89145154Y-105235912D01*
X89141032Y-105248598D01*
X89105080Y-105298089D01*
X89100959Y-105301084D01*
X89042771Y-105320000D01*
X86450000Y-105320000D01*
X86432027Y-105337973D01*
X86431093Y-105340849D01*
X86421922Y-105348078D01*
X86421004Y-105348997D01*
X86420895Y-105348888D01*
X86388887Y-105374122D01*
X86377005Y-105379043D01*
X86327507Y-105415004D01*
X86314857Y-105425248D01*
X86314854Y-105425252D01*
X86271019Y-105492752D01*
X86271016Y-105492758D01*
X86252109Y-105550950D01*
X86244500Y-105598996D01*
X86244500Y-106101000D01*
X86225593Y-106159191D01*
X86176093Y-106195155D01*
X86145500Y-106200000D01*
X83614680Y-106200000D01*
X83584087Y-106195154D01*
X83571401Y-106191032D01*
X83521901Y-106155068D01*
X83521894Y-106155058D01*
X83518900Y-106150936D01*
X83500000Y-106092756D01*
X83500000Y-104314680D01*
X83504843Y-104284094D01*
X83508965Y-104271405D01*
X83544923Y-104221906D01*
X83545522Y-104221471D01*
X83549063Y-104218900D01*
X83607243Y-104200000D01*
X86353313Y-104200000D01*
X86383904Y-104204845D01*
G37*
%TD.AperFunction*%
%TD*%
%TA.AperFunction,Conductor*%
%TO.N,VBAT*%
G36*
X113515908Y-102704843D02*
G01*
X113528595Y-102708966D01*
X113578095Y-102744927D01*
X113578096Y-102744928D01*
X113581091Y-102749050D01*
X113600000Y-102807240D01*
X113600000Y-104785319D01*
X113595154Y-104815912D01*
X113591032Y-104828598D01*
X113555080Y-104878089D01*
X113550959Y-104881084D01*
X113492771Y-104900000D01*
X110964680Y-104900000D01*
X110934087Y-104895154D01*
X110921401Y-104891032D01*
X110871901Y-104855068D01*
X110871894Y-104855058D01*
X110868900Y-104850936D01*
X110850000Y-104792756D01*
X110850000Y-104263901D01*
X110854843Y-104233315D01*
X110858965Y-104220626D01*
X110894576Y-104171381D01*
X110894606Y-104171359D01*
X110947338Y-104152364D01*
X110960179Y-104151610D01*
X110960179Y-104151608D01*
X110976157Y-104150670D01*
X110981964Y-104150500D01*
X111398107Y-104150500D01*
X111404361Y-104148601D01*
X111416615Y-104146163D01*
X111416623Y-104146164D01*
X111416623Y-104146162D01*
X111438722Y-104141767D01*
X111488504Y-104108504D01*
X111521767Y-104058722D01*
X111530500Y-104014820D01*
X111530500Y-103385180D01*
X111530500Y-103385032D01*
X111530161Y-103383471D01*
X111521768Y-103341281D01*
X111521768Y-103341280D01*
X111521765Y-103341275D01*
X111491957Y-103296665D01*
X111489823Y-103292992D01*
X111488506Y-103291497D01*
X111488283Y-103291348D01*
X111487840Y-103291052D01*
X111487830Y-103291045D01*
X111438729Y-103258236D01*
X111438721Y-103258232D01*
X111438720Y-103258231D01*
X111438717Y-103258230D01*
X111394833Y-103249500D01*
X111394827Y-103249500D01*
X111394820Y-103249500D01*
X111040449Y-103249500D01*
X111009856Y-103244654D01*
X110986629Y-103237107D01*
X110947218Y-103212957D01*
X110890082Y-103155821D01*
X110871876Y-103130762D01*
X110860788Y-103109000D01*
X110850000Y-103064058D01*
X110850000Y-102814680D01*
X110854843Y-102784094D01*
X110858965Y-102771405D01*
X110894923Y-102721906D01*
X110895522Y-102721471D01*
X110899063Y-102718900D01*
X110957243Y-102700000D01*
X113485320Y-102700000D01*
X113515908Y-102704843D01*
G37*
%TD.AperFunction*%
%TD*%
%TA.AperFunction,Conductor*%
%TO.N,GND*%
G36*
X95037634Y-111418907D02*
G01*
X95061758Y-111443998D01*
X95091496Y-111488504D01*
X95141278Y-111521767D01*
X95152327Y-111523964D01*
X95185172Y-111530499D01*
X95185178Y-111530499D01*
X95185180Y-111530500D01*
X95185181Y-111530500D01*
X95814819Y-111530500D01*
X95814820Y-111530500D01*
X95814820Y-111530499D01*
X95819664Y-111530023D01*
X95819883Y-111532253D01*
X95871945Y-111538414D01*
X95916876Y-111579945D01*
X95929500Y-111628321D01*
X95929500Y-113414827D01*
X95938231Y-113458717D01*
X95940052Y-113463111D01*
X95944854Y-113524108D01*
X95912887Y-113576278D01*
X95856360Y-113599695D01*
X95848589Y-113600000D01*
X94599000Y-113600000D01*
X94540809Y-113581093D01*
X94504845Y-113531593D01*
X94500000Y-113501000D01*
X94500000Y-111499000D01*
X94518907Y-111440809D01*
X94568407Y-111404845D01*
X94599000Y-111400000D01*
X94979443Y-111400000D01*
X95037634Y-111418907D01*
G37*
%TD.AperFunction*%
%TD*%
%TA.AperFunction,Conductor*%
%TO.N,VBAT*%
G36*
X104859191Y-86418907D02*
G01*
X104895155Y-86468407D01*
X104900000Y-86499000D01*
X104900000Y-89051000D01*
X104881093Y-89109191D01*
X104831593Y-89145155D01*
X104801000Y-89150000D01*
X104248222Y-89150000D01*
X104190031Y-89131093D01*
X104154067Y-89081593D01*
X104151598Y-89039819D01*
X104150023Y-89039664D01*
X104150500Y-89034818D01*
X104150500Y-88605181D01*
X104150499Y-88605172D01*
X104141767Y-88561279D01*
X104141765Y-88561275D01*
X104108505Y-88511498D01*
X104108504Y-88511496D01*
X104059128Y-88478504D01*
X104058724Y-88478234D01*
X104058720Y-88478232D01*
X104014827Y-88469500D01*
X104014820Y-88469500D01*
X103385180Y-88469500D01*
X103385172Y-88469500D01*
X103341279Y-88478232D01*
X103341275Y-88478234D01*
X103291498Y-88511494D01*
X103291494Y-88511498D01*
X103258234Y-88561275D01*
X103258232Y-88561279D01*
X103249500Y-88605172D01*
X103249500Y-89034818D01*
X103249977Y-89039664D01*
X103247913Y-89039867D01*
X103241674Y-89092470D01*
X103200130Y-89137389D01*
X103151778Y-89150000D01*
X102799000Y-89150000D01*
X102740809Y-89131093D01*
X102704845Y-89081593D01*
X102700000Y-89051000D01*
X102700000Y-86499000D01*
X102718907Y-86440809D01*
X102768407Y-86404845D01*
X102799000Y-86400000D01*
X104801000Y-86400000D01*
X104859191Y-86418907D01*
G37*
%TD.AperFunction*%
%TD*%
%TA.AperFunction,Conductor*%
%TO.N,GND*%
G36*
X107659191Y-86418907D02*
G01*
X107695155Y-86468407D01*
X107700000Y-86499000D01*
X107700000Y-88501000D01*
X107681093Y-88559191D01*
X107631593Y-88595155D01*
X107601000Y-88600000D01*
X107220557Y-88600000D01*
X107162366Y-88581093D01*
X107138242Y-88556002D01*
X107108505Y-88511498D01*
X107108504Y-88511496D01*
X107107840Y-88511052D01*
X107058724Y-88478234D01*
X107058720Y-88478232D01*
X107014827Y-88469500D01*
X107014820Y-88469500D01*
X106385180Y-88469500D01*
X106385179Y-88469500D01*
X106380336Y-88469977D01*
X106380118Y-88467764D01*
X106327979Y-88461550D01*
X106283083Y-88419981D01*
X106270500Y-88371678D01*
X106270500Y-86585181D01*
X106270499Y-86585172D01*
X106266152Y-86563326D01*
X106261767Y-86541278D01*
X106261763Y-86541273D01*
X106259947Y-86536886D01*
X106255146Y-86475890D01*
X106287115Y-86423720D01*
X106343643Y-86400305D01*
X106351411Y-86400000D01*
X107601000Y-86400000D01*
X107659191Y-86418907D01*
G37*
%TD.AperFunction*%
%TD*%
%TA.AperFunction,Conductor*%
%TO.N,VBAT*%
G36*
X108366686Y-110854843D02*
G01*
X108379373Y-110858966D01*
X108428873Y-110894927D01*
X108429343Y-110895578D01*
X108429373Y-110895620D01*
X108447641Y-110947323D01*
X108449328Y-110975870D01*
X108449500Y-110981710D01*
X108449500Y-111394833D01*
X108458230Y-111438717D01*
X108458235Y-111438727D01*
X108491493Y-111488500D01*
X108491496Y-111488504D01*
X108541278Y-111521767D01*
X108552316Y-111523961D01*
X108552324Y-111523966D01*
X108552325Y-111523964D01*
X108574846Y-111528444D01*
X108583487Y-111530163D01*
X108585034Y-111530500D01*
X109214820Y-111530500D01*
X109218107Y-111530500D01*
X109224361Y-111528601D01*
X109236615Y-111526163D01*
X109236623Y-111526164D01*
X109236623Y-111526162D01*
X109258722Y-111521767D01*
X109308504Y-111488504D01*
X109341767Y-111438722D01*
X109346162Y-111416623D01*
X109350499Y-111394827D01*
X109350500Y-111394818D01*
X109350500Y-110979351D01*
X109351189Y-110967689D01*
X109352085Y-110960132D01*
X109352086Y-110960132D01*
X109354536Y-110939470D01*
X109380165Y-110883916D01*
X109380208Y-110883869D01*
X109427903Y-110855299D01*
X109435941Y-110853202D01*
X109460919Y-110850000D01*
X109608125Y-110850000D01*
X109618785Y-110850576D01*
X109619926Y-110850699D01*
X109640234Y-110853373D01*
X109644910Y-110854625D01*
X109670565Y-110861500D01*
X109670566Y-110861500D01*
X109769433Y-110861500D01*
X109769434Y-110861500D01*
X109769435Y-110861500D01*
X109769435Y-110861499D01*
X109770755Y-110861326D01*
X109788844Y-110860613D01*
X109803322Y-110861372D01*
X109860439Y-110883295D01*
X109893063Y-110932117D01*
X109895923Y-110941772D01*
X109896775Y-110947649D01*
X109897901Y-110949614D01*
X109897541Y-110952933D01*
X109900000Y-110969890D01*
X109900000Y-111500429D01*
X109897033Y-111524485D01*
X109890889Y-111549012D01*
X109886322Y-111562837D01*
X109885974Y-111563676D01*
X109709565Y-112145214D01*
X109709562Y-112145225D01*
X109709560Y-112145237D01*
X109650000Y-112749988D01*
X109650000Y-112750011D01*
X109709560Y-113354760D01*
X109709562Y-113354773D01*
X109709563Y-113354777D01*
X109740651Y-113457257D01*
X109744895Y-113487944D01*
X109744664Y-113499681D01*
X109724615Y-113557488D01*
X109675353Y-113592182D01*
X109664953Y-113595449D01*
X109635283Y-113600000D01*
X108617134Y-113600000D01*
X108558943Y-113581093D01*
X108525669Y-113538883D01*
X108520957Y-113527506D01*
X108484995Y-113478007D01*
X108474751Y-113465357D01*
X108474747Y-113465354D01*
X108407247Y-113421519D01*
X108407241Y-113421516D01*
X108349048Y-113402609D01*
X108349049Y-113402609D01*
X108301003Y-113395000D01*
X108301000Y-113395000D01*
X107811663Y-113395000D01*
X107806817Y-113394881D01*
X107802874Y-113394687D01*
X107796559Y-113394532D01*
X107738852Y-113374196D01*
X107704120Y-113323824D01*
X107700000Y-113295562D01*
X107700000Y-110964680D01*
X107704843Y-110934094D01*
X107708965Y-110921405D01*
X107744923Y-110871906D01*
X107745522Y-110871471D01*
X107749063Y-110868900D01*
X107807243Y-110850000D01*
X108336098Y-110850000D01*
X108366686Y-110854843D01*
G37*
%TD.AperFunction*%
%TD*%
%TA.AperFunction,Conductor*%
%TO.N,VBAT*%
G36*
X113515908Y-97504843D02*
G01*
X113528595Y-97508966D01*
X113578095Y-97544927D01*
X113578096Y-97544928D01*
X113581091Y-97549050D01*
X113600000Y-97607240D01*
X113600000Y-98782865D01*
X113581093Y-98841056D01*
X113538888Y-98874328D01*
X113527507Y-98879042D01*
X113478007Y-98915004D01*
X113465357Y-98925248D01*
X113465354Y-98925252D01*
X113421519Y-98992752D01*
X113421516Y-98992758D01*
X113402609Y-99050950D01*
X113395000Y-99098996D01*
X113395000Y-99588327D01*
X113394881Y-99593175D01*
X113394687Y-99597127D01*
X113394533Y-99603424D01*
X113374207Y-99661134D01*
X113323841Y-99695875D01*
X113295563Y-99700000D01*
X110964680Y-99700000D01*
X110934087Y-99695154D01*
X110921401Y-99691032D01*
X110871901Y-99655068D01*
X110871894Y-99655058D01*
X110868900Y-99650936D01*
X110850000Y-99592756D01*
X110850000Y-99063901D01*
X110854843Y-99033315D01*
X110858965Y-99020626D01*
X110894576Y-98971381D01*
X110894606Y-98971359D01*
X110947338Y-98952364D01*
X110960179Y-98951610D01*
X110960179Y-98951608D01*
X110976157Y-98950670D01*
X110981964Y-98950500D01*
X111398107Y-98950500D01*
X111404361Y-98948601D01*
X111416615Y-98946163D01*
X111416623Y-98946164D01*
X111416623Y-98946162D01*
X111438722Y-98941767D01*
X111488504Y-98908504D01*
X111521767Y-98858722D01*
X111530500Y-98814820D01*
X111530500Y-98185180D01*
X111530500Y-98185032D01*
X111530161Y-98183471D01*
X111521768Y-98141281D01*
X111521768Y-98141280D01*
X111521765Y-98141275D01*
X111491957Y-98096665D01*
X111489823Y-98092993D01*
X111488503Y-98091495D01*
X111470459Y-98079439D01*
X111470458Y-98079438D01*
X111438724Y-98058234D01*
X111438720Y-98058232D01*
X111438719Y-98058231D01*
X111438718Y-98058231D01*
X111438717Y-98058230D01*
X111394833Y-98049500D01*
X111394827Y-98049500D01*
X111394820Y-98049500D01*
X110979362Y-98049500D01*
X110967698Y-98048811D01*
X110960132Y-98047913D01*
X110949305Y-98046628D01*
X110939470Y-98045462D01*
X110883984Y-98019897D01*
X110883945Y-98019861D01*
X110855300Y-97972099D01*
X110853202Y-97964055D01*
X110850000Y-97939081D01*
X110850000Y-97614680D01*
X110854843Y-97584094D01*
X110858965Y-97571405D01*
X110894923Y-97521906D01*
X110895522Y-97521471D01*
X110899063Y-97518900D01*
X110957243Y-97500000D01*
X113485320Y-97500000D01*
X113515908Y-97504843D01*
G37*
%TD.AperFunction*%
%TD*%
%TA.AperFunction,Conductor*%
%TO.N,GND*%
G36*
X113520183Y-101127328D02*
G01*
X113520312Y-101127035D01*
X113522162Y-101127844D01*
X113523228Y-101128122D01*
X113524765Y-101128983D01*
X113524770Y-101128984D01*
X113524771Y-101128985D01*
X113531590Y-101131201D01*
X113581091Y-101167163D01*
X113600000Y-101225354D01*
X113600000Y-102385319D01*
X113595154Y-102415912D01*
X113591032Y-102428598D01*
X113555080Y-102478089D01*
X113550959Y-102481084D01*
X113492771Y-102500000D01*
X111514680Y-102500000D01*
X111484087Y-102495154D01*
X111471401Y-102491032D01*
X111421901Y-102455068D01*
X111421894Y-102455058D01*
X111418900Y-102450936D01*
X111400000Y-102392756D01*
X111400000Y-102036237D01*
X111404844Y-102005649D01*
X111406382Y-102000913D01*
X111411243Y-101985952D01*
X111420126Y-101971775D01*
X111420552Y-101969086D01*
X111424820Y-101964283D01*
X111436800Y-101945162D01*
X111437699Y-101944297D01*
X111451295Y-101933365D01*
X111453752Y-101931723D01*
X111488504Y-101908504D01*
X111521767Y-101858722D01*
X111530500Y-101814820D01*
X111530500Y-101214500D01*
X111549407Y-101156309D01*
X111598907Y-101120345D01*
X111629500Y-101115500D01*
X113474856Y-101115500D01*
X113520183Y-101127328D01*
G37*
%TD.AperFunction*%
%TD*%
%TA.AperFunction,Conductor*%
%TO.N,GND*%
G36*
X113520183Y-95927328D02*
G01*
X113520312Y-95927035D01*
X113522162Y-95927844D01*
X113523228Y-95928122D01*
X113524765Y-95928983D01*
X113524770Y-95928984D01*
X113524771Y-95928985D01*
X113531590Y-95931201D01*
X113581091Y-95967163D01*
X113600000Y-96025354D01*
X113600000Y-97185319D01*
X113595154Y-97215912D01*
X113591032Y-97228598D01*
X113555080Y-97278089D01*
X113550959Y-97281084D01*
X113492771Y-97300000D01*
X111514680Y-97300000D01*
X111484087Y-97295154D01*
X111471401Y-97291032D01*
X111421901Y-97255068D01*
X111421894Y-97255058D01*
X111418900Y-97250936D01*
X111400000Y-97192756D01*
X111400000Y-96836237D01*
X111404844Y-96805649D01*
X111406382Y-96800913D01*
X111411243Y-96785952D01*
X111420126Y-96771775D01*
X111420552Y-96769086D01*
X111424820Y-96764283D01*
X111436800Y-96745162D01*
X111437699Y-96744297D01*
X111451295Y-96733365D01*
X111453752Y-96731723D01*
X111488504Y-96708504D01*
X111521767Y-96658722D01*
X111530500Y-96614820D01*
X111530500Y-96014500D01*
X111549407Y-95956309D01*
X111598907Y-95920345D01*
X111629500Y-95915500D01*
X113474856Y-95915500D01*
X113520183Y-95927328D01*
G37*
%TD.AperFunction*%
%TD*%
%TA.AperFunction,Conductor*%
%TO.N,M4_B*%
G36*
X100959191Y-83518907D02*
G01*
X100995155Y-83568407D01*
X101000000Y-83599000D01*
X101000000Y-86368993D01*
X100981093Y-86427184D01*
X100971004Y-86438997D01*
X100960001Y-86450000D01*
X100960000Y-86450000D01*
X100960000Y-86450001D01*
X100960000Y-89040267D01*
X100941093Y-89098458D01*
X100891593Y-89134422D01*
X100835378Y-89135894D01*
X100807796Y-89128504D01*
X100792853Y-89124500D01*
X100707147Y-89124500D01*
X100624565Y-89146627D01*
X100598946Y-89150000D01*
X99979000Y-89150000D01*
X99920809Y-89131093D01*
X99884845Y-89081593D01*
X99880000Y-89051000D01*
X99880000Y-86450001D01*
X99880000Y-86450000D01*
X99879999Y-86450000D01*
X99604761Y-86450000D01*
X99595060Y-86449524D01*
X99594823Y-86449500D01*
X99594820Y-86449500D01*
X99099000Y-86449500D01*
X99040809Y-86430593D01*
X99004845Y-86381093D01*
X99000000Y-86350500D01*
X99000000Y-83599000D01*
X99018907Y-83540809D01*
X99068407Y-83504845D01*
X99099000Y-83500000D01*
X100901000Y-83500000D01*
X100959191Y-83518907D01*
G37*
%TD.AperFunction*%
%TD*%
%TA.AperFunction,Conductor*%
%TO.N,VBAT*%
G36*
X103209969Y-110868907D02*
G01*
X103245933Y-110918407D01*
X103248401Y-110960180D01*
X103249977Y-110960336D01*
X103249500Y-110965181D01*
X103249500Y-111394827D01*
X103258232Y-111438720D01*
X103258233Y-111438722D01*
X103291496Y-111488504D01*
X103341278Y-111521767D01*
X103352327Y-111523964D01*
X103385172Y-111530499D01*
X103385178Y-111530499D01*
X103385180Y-111530500D01*
X103385181Y-111530500D01*
X104014819Y-111530500D01*
X104014820Y-111530500D01*
X104014821Y-111530499D01*
X104014827Y-111530499D01*
X104036623Y-111526162D01*
X104058722Y-111521767D01*
X104108504Y-111488504D01*
X104141767Y-111438722D01*
X104150500Y-111394820D01*
X104150500Y-110965180D01*
X104150499Y-110965179D01*
X104150023Y-110960336D01*
X104152086Y-110960132D01*
X104158326Y-110907530D01*
X104199870Y-110862611D01*
X104248222Y-110850000D01*
X104601000Y-110850000D01*
X104659191Y-110868907D01*
X104695155Y-110918407D01*
X104700000Y-110949000D01*
X104700000Y-113501000D01*
X104681093Y-113559191D01*
X104631593Y-113595155D01*
X104601000Y-113600000D01*
X102599000Y-113600000D01*
X102540809Y-113581093D01*
X102504845Y-113531593D01*
X102500000Y-113501000D01*
X102500000Y-110949000D01*
X102518907Y-110890809D01*
X102568407Y-110854845D01*
X102599000Y-110850000D01*
X103151778Y-110850000D01*
X103209969Y-110868907D01*
G37*
%TD.AperFunction*%
%TD*%
%TA.AperFunction,Conductor*%
%TO.N,M2_C*%
G36*
X116459191Y-93818907D02*
G01*
X116495155Y-93868407D01*
X116500000Y-93899000D01*
X116500000Y-95701000D01*
X116481093Y-95759191D01*
X116431593Y-95795155D01*
X116401000Y-95800000D01*
X113631007Y-95800000D01*
X113572816Y-95781093D01*
X113561003Y-95771004D01*
X113550000Y-95760001D01*
X113550000Y-95760000D01*
X113549999Y-95760000D01*
X110949000Y-95760000D01*
X110890809Y-95741093D01*
X110854845Y-95691593D01*
X110850000Y-95661000D01*
X110850000Y-94779000D01*
X110868907Y-94720809D01*
X110918407Y-94684845D01*
X110949000Y-94680000D01*
X113549999Y-94680000D01*
X113550000Y-94680000D01*
X113550000Y-94404759D01*
X113550477Y-94395050D01*
X113550500Y-94394816D01*
X113550500Y-93899000D01*
X113569407Y-93840809D01*
X113618907Y-93804845D01*
X113649500Y-93800000D01*
X116401000Y-93800000D01*
X116459191Y-93818907D01*
G37*
%TD.AperFunction*%
%TD*%
%TA.AperFunction,Conductor*%
%TO.N,M3_B*%
G36*
X86314978Y-99018907D02*
G01*
X86328602Y-99030856D01*
X86342459Y-99045460D01*
X86353524Y-99052241D01*
X86394629Y-99077433D01*
X86408931Y-99085199D01*
X86488075Y-99099872D01*
X86540838Y-99095722D01*
X86543443Y-99096348D01*
X86571618Y-99090743D01*
X86590921Y-99086902D01*
X86610237Y-99085000D01*
X88371673Y-99085000D01*
X88371679Y-99085000D01*
X88410943Y-99079961D01*
X88459319Y-99067337D01*
X88466172Y-99065380D01*
X88482188Y-99055273D01*
X88535018Y-99040000D01*
X89024588Y-99040000D01*
X89055173Y-99044842D01*
X89066877Y-99048645D01*
X89116378Y-99084605D01*
X89135255Y-99140214D01*
X89135518Y-99150275D01*
X89132180Y-99178481D01*
X89124500Y-99207147D01*
X89124500Y-99292852D01*
X89144948Y-99369166D01*
X89147474Y-99381865D01*
X89149153Y-99394616D01*
X89150000Y-99407540D01*
X89150000Y-100005319D01*
X89145154Y-100035912D01*
X89141032Y-100048598D01*
X89105080Y-100098089D01*
X89100959Y-100101084D01*
X89042771Y-100120000D01*
X86450000Y-100120000D01*
X86432027Y-100137973D01*
X86431093Y-100140849D01*
X86421922Y-100148078D01*
X86421004Y-100148997D01*
X86420895Y-100148888D01*
X86388887Y-100174122D01*
X86377005Y-100179043D01*
X86327507Y-100215004D01*
X86314857Y-100225248D01*
X86314854Y-100225252D01*
X86271019Y-100292752D01*
X86271016Y-100292758D01*
X86252109Y-100350950D01*
X86244500Y-100398996D01*
X86244500Y-100901000D01*
X86225593Y-100959191D01*
X86176093Y-100995155D01*
X86145500Y-101000000D01*
X83614680Y-101000000D01*
X83584087Y-100995154D01*
X83571401Y-100991032D01*
X83521901Y-100955068D01*
X83521894Y-100955058D01*
X83518900Y-100950936D01*
X83500000Y-100892756D01*
X83500000Y-99114680D01*
X83504843Y-99084094D01*
X83508965Y-99071405D01*
X83544923Y-99021906D01*
X83545522Y-99021471D01*
X83549063Y-99018900D01*
X83607243Y-99000000D01*
X86256787Y-99000000D01*
X86314978Y-99018907D01*
G37*
%TD.AperFunction*%
%TD*%
%TA.AperFunction,Conductor*%
%TO.N,GND*%
G36*
X88559191Y-92318907D02*
G01*
X88595155Y-92368407D01*
X88600000Y-92399000D01*
X88600000Y-92779442D01*
X88581093Y-92837633D01*
X88556003Y-92861757D01*
X88511497Y-92891495D01*
X88511494Y-92891498D01*
X88478234Y-92941275D01*
X88478232Y-92941279D01*
X88469500Y-92985172D01*
X88469500Y-93614818D01*
X88469977Y-93619664D01*
X88467746Y-93619883D01*
X88461586Y-93671945D01*
X88420055Y-93716876D01*
X88371679Y-93729500D01*
X86585172Y-93729500D01*
X86541278Y-93738232D01*
X86536881Y-93740054D01*
X86475884Y-93744851D01*
X86423716Y-93712879D01*
X86400305Y-93656350D01*
X86400000Y-93648588D01*
X86400000Y-92399000D01*
X86418907Y-92340809D01*
X86468407Y-92304845D01*
X86499000Y-92300000D01*
X88501000Y-92300000D01*
X88559191Y-92318907D01*
G37*
%TD.AperFunction*%
%TD*%
%TA.AperFunction,Conductor*%
%TO.N,VBAT*%
G36*
X97780652Y-110853371D02*
G01*
X97804980Y-110859889D01*
X97828852Y-110869777D01*
X97851349Y-110882766D01*
X97853338Y-110883915D01*
X97855062Y-110884910D01*
X97947742Y-110909743D01*
X97952673Y-110911205D01*
X97956839Y-110912558D01*
X97956839Y-110912559D01*
X97978097Y-110919466D01*
X98027592Y-110955423D01*
X98030588Y-110959546D01*
X98049500Y-111017736D01*
X98049500Y-111394833D01*
X98058230Y-111438717D01*
X98058235Y-111438727D01*
X98091493Y-111488500D01*
X98091496Y-111488504D01*
X98141278Y-111521767D01*
X98152316Y-111523961D01*
X98152324Y-111523966D01*
X98152325Y-111523964D01*
X98174846Y-111528444D01*
X98183487Y-111530163D01*
X98185034Y-111530500D01*
X98814820Y-111530500D01*
X98818107Y-111530500D01*
X98824361Y-111528601D01*
X98836615Y-111526163D01*
X98836623Y-111526164D01*
X98836623Y-111526162D01*
X98858722Y-111521767D01*
X98908504Y-111488504D01*
X98941767Y-111438722D01*
X98946162Y-111416623D01*
X98950499Y-111394827D01*
X98950500Y-111394818D01*
X98950500Y-110979351D01*
X98951189Y-110967689D01*
X98952085Y-110960132D01*
X98952086Y-110960132D01*
X98954536Y-110939470D01*
X98980165Y-110883916D01*
X98980208Y-110883869D01*
X99027903Y-110855299D01*
X99035941Y-110853202D01*
X99060919Y-110850000D01*
X99092462Y-110850000D01*
X99105368Y-110850845D01*
X99118136Y-110852525D01*
X99130825Y-110855049D01*
X99207147Y-110875500D01*
X99207148Y-110875500D01*
X99292853Y-110875500D01*
X99292854Y-110875500D01*
X99292854Y-110875499D01*
X99360234Y-110857444D01*
X99391036Y-110854207D01*
X99403325Y-110854851D01*
X99460445Y-110876779D01*
X99493061Y-110925592D01*
X99495921Y-110935245D01*
X99500000Y-110963368D01*
X99500000Y-113485319D01*
X99495154Y-113515912D01*
X99491032Y-113528598D01*
X99455080Y-113578089D01*
X99450959Y-113581084D01*
X99392771Y-113600000D01*
X97414680Y-113600000D01*
X97384087Y-113595154D01*
X97371401Y-113591032D01*
X97321901Y-113555068D01*
X97321894Y-113555058D01*
X97318900Y-113550936D01*
X97300000Y-113492756D01*
X97300000Y-110964680D01*
X97304843Y-110934094D01*
X97306366Y-110929407D01*
X97308965Y-110921405D01*
X97344923Y-110871906D01*
X97347851Y-110869780D01*
X97349063Y-110868900D01*
X97407243Y-110850000D01*
X97755037Y-110850000D01*
X97780652Y-110853371D01*
G37*
%TD.AperFunction*%
%TD*%
%TA.AperFunction,Conductor*%
%TO.N,GND*%
G36*
X113576280Y-106287115D02*
G01*
X113599695Y-106343643D01*
X113600000Y-106351411D01*
X113600000Y-107601000D01*
X113581093Y-107659191D01*
X113531593Y-107695155D01*
X113501000Y-107700000D01*
X111499000Y-107700000D01*
X111440809Y-107681093D01*
X111404845Y-107631593D01*
X111400000Y-107601000D01*
X111400000Y-107220557D01*
X111418907Y-107162366D01*
X111443998Y-107138242D01*
X111453752Y-107131723D01*
X111488504Y-107108504D01*
X111521767Y-107058722D01*
X111530500Y-107014820D01*
X111530500Y-106385180D01*
X111530499Y-106385179D01*
X111530023Y-106380336D01*
X111532253Y-106380116D01*
X111538414Y-106328055D01*
X111579945Y-106283124D01*
X111628321Y-106270500D01*
X113414819Y-106270500D01*
X113414820Y-106270500D01*
X113414821Y-106270499D01*
X113414827Y-106270499D01*
X113429324Y-106267614D01*
X113458722Y-106261767D01*
X113458728Y-106261762D01*
X113463114Y-106259947D01*
X113524110Y-106255146D01*
X113576280Y-106287115D01*
G37*
%TD.AperFunction*%
%TD*%
%TA.AperFunction,Conductor*%
%TO.N,M1_B*%
G36*
X103809191Y-115438907D02*
G01*
X103845155Y-115488407D01*
X103850000Y-115519000D01*
X103850000Y-115801000D01*
X103831093Y-115859191D01*
X103781593Y-115895155D01*
X103751000Y-115900000D01*
X103100000Y-115900000D01*
X103100000Y-115420000D01*
X103200000Y-115420000D01*
X103200001Y-115420000D01*
X103751000Y-115420000D01*
X103809191Y-115438907D01*
G37*
%TD.AperFunction*%
%TD*%
%TA.AperFunction,Conductor*%
%TO.N,VBAT*%
G36*
X89109191Y-100318907D02*
G01*
X89145155Y-100368407D01*
X89150000Y-100399000D01*
X89150000Y-100951778D01*
X89131093Y-101009969D01*
X89081593Y-101045933D01*
X89039819Y-101048401D01*
X89039664Y-101049977D01*
X89034820Y-101049500D01*
X88605180Y-101049500D01*
X88605172Y-101049500D01*
X88561279Y-101058232D01*
X88561275Y-101058234D01*
X88511498Y-101091494D01*
X88511494Y-101091498D01*
X88478234Y-101141275D01*
X88478232Y-101141279D01*
X88469500Y-101185172D01*
X88469500Y-101814827D01*
X88478232Y-101858720D01*
X88478233Y-101858722D01*
X88511496Y-101908504D01*
X88561278Y-101941767D01*
X88572327Y-101943964D01*
X88605172Y-101950499D01*
X88605178Y-101950499D01*
X88605180Y-101950500D01*
X88605181Y-101950500D01*
X89034819Y-101950500D01*
X89034820Y-101950500D01*
X89034820Y-101950499D01*
X89039664Y-101950023D01*
X89039868Y-101952099D01*
X89092417Y-101958301D01*
X89137361Y-101999818D01*
X89150000Y-102048221D01*
X89150000Y-102401000D01*
X89131093Y-102459191D01*
X89081593Y-102495155D01*
X89051000Y-102500000D01*
X86499000Y-102500000D01*
X86440809Y-102481093D01*
X86404845Y-102431593D01*
X86400000Y-102401000D01*
X86400000Y-100399000D01*
X86418907Y-100340809D01*
X86468407Y-100304845D01*
X86499000Y-100300000D01*
X89051000Y-100300000D01*
X89109191Y-100318907D01*
G37*
%TD.AperFunction*%
%TD*%
%TA.AperFunction,Conductor*%
%TO.N,GND*%
G36*
X100237634Y-111418907D02*
G01*
X100261758Y-111443998D01*
X100291496Y-111488504D01*
X100341278Y-111521767D01*
X100352327Y-111523964D01*
X100385172Y-111530499D01*
X100385178Y-111530499D01*
X100385180Y-111530500D01*
X100385181Y-111530500D01*
X101014819Y-111530500D01*
X101014820Y-111530500D01*
X101014820Y-111530499D01*
X101019664Y-111530023D01*
X101019883Y-111532253D01*
X101071945Y-111538414D01*
X101116876Y-111579945D01*
X101129500Y-111628321D01*
X101129500Y-113414827D01*
X101138231Y-113458717D01*
X101140052Y-113463111D01*
X101144854Y-113524108D01*
X101112887Y-113576278D01*
X101056360Y-113599695D01*
X101048589Y-113600000D01*
X99799000Y-113600000D01*
X99740809Y-113581093D01*
X99704845Y-113531593D01*
X99700000Y-113501000D01*
X99700000Y-111499000D01*
X99718907Y-111440809D01*
X99768407Y-111404845D01*
X99799000Y-111400000D01*
X100179443Y-111400000D01*
X100237634Y-111418907D01*
G37*
%TD.AperFunction*%
%TD*%
%TA.AperFunction,Conductor*%
%TO.N,M1_A*%
G36*
X100709191Y-115438907D02*
G01*
X100745155Y-115488407D01*
X100750000Y-115519000D01*
X100750000Y-115801000D01*
X100731093Y-115859191D01*
X100681593Y-115895155D01*
X100651000Y-115900000D01*
X100000000Y-115900000D01*
X100000000Y-115420000D01*
X100100000Y-115420000D01*
X100100001Y-115420000D01*
X100651000Y-115420000D01*
X100709191Y-115438907D01*
G37*
%TD.AperFunction*%
%TD*%
%TA.AperFunction,Conductor*%
%TO.N,M1_C*%
G36*
X107479191Y-110868907D02*
G01*
X107515155Y-110918407D01*
X107520000Y-110949000D01*
X107520000Y-113550000D01*
X107795239Y-113550000D01*
X107804940Y-113550476D01*
X107805176Y-113550499D01*
X107805180Y-113550500D01*
X107805184Y-113550500D01*
X108301000Y-113550500D01*
X108359191Y-113569407D01*
X108395155Y-113618907D01*
X108400000Y-113649500D01*
X108400000Y-116401000D01*
X108381093Y-116459191D01*
X108331593Y-116495155D01*
X108301000Y-116500000D01*
X106499000Y-116500000D01*
X106440809Y-116481093D01*
X106404845Y-116431593D01*
X106400000Y-116401000D01*
X106400000Y-113631007D01*
X106418907Y-113572816D01*
X106428996Y-113561003D01*
X106439999Y-113550000D01*
X106440000Y-113550000D01*
X106440000Y-110949000D01*
X106458907Y-110890809D01*
X106508407Y-110854845D01*
X106539000Y-110850000D01*
X107421000Y-110850000D01*
X107479191Y-110868907D01*
G37*
%TD.AperFunction*%
%TD*%
%TA.AperFunction,Conductor*%
%TO.N,GND*%
G36*
X88559191Y-97518907D02*
G01*
X88595155Y-97568407D01*
X88600000Y-97599000D01*
X88600000Y-97979442D01*
X88581093Y-98037633D01*
X88556003Y-98061757D01*
X88511497Y-98091495D01*
X88511494Y-98091498D01*
X88478234Y-98141275D01*
X88478232Y-98141279D01*
X88469500Y-98185172D01*
X88469500Y-98814818D01*
X88469977Y-98819664D01*
X88467746Y-98819883D01*
X88461586Y-98871945D01*
X88420055Y-98916876D01*
X88371679Y-98929500D01*
X86585172Y-98929500D01*
X86541278Y-98938232D01*
X86536881Y-98940054D01*
X86475884Y-98944851D01*
X86423716Y-98912879D01*
X86400305Y-98856350D01*
X86400000Y-98848588D01*
X86400000Y-97599000D01*
X86418907Y-97540809D01*
X86468407Y-97504845D01*
X86499000Y-97500000D01*
X88501000Y-97500000D01*
X88559191Y-97518907D01*
G37*
%TD.AperFunction*%
%TD*%
%TA.AperFunction,Conductor*%
%TO.N,VBAT*%
G36*
X89109191Y-105518907D02*
G01*
X89145155Y-105568407D01*
X89150000Y-105599000D01*
X89150000Y-106151778D01*
X89131093Y-106209969D01*
X89081593Y-106245933D01*
X89039819Y-106248401D01*
X89039664Y-106249977D01*
X89034820Y-106249500D01*
X88605180Y-106249500D01*
X88605172Y-106249500D01*
X88561279Y-106258232D01*
X88561275Y-106258234D01*
X88511498Y-106291494D01*
X88511494Y-106291498D01*
X88478234Y-106341275D01*
X88478232Y-106341279D01*
X88469500Y-106385172D01*
X88469500Y-107014827D01*
X88478232Y-107058720D01*
X88478233Y-107058722D01*
X88511496Y-107108504D01*
X88561278Y-107141767D01*
X88572327Y-107143964D01*
X88605172Y-107150499D01*
X88605178Y-107150499D01*
X88605180Y-107150500D01*
X88605181Y-107150500D01*
X89034819Y-107150500D01*
X89034820Y-107150500D01*
X89034820Y-107150499D01*
X89039664Y-107150023D01*
X89039868Y-107152099D01*
X89092417Y-107158301D01*
X89137361Y-107199818D01*
X89150000Y-107248221D01*
X89150000Y-107601000D01*
X89131093Y-107659191D01*
X89081593Y-107695155D01*
X89051000Y-107700000D01*
X86499000Y-107700000D01*
X86440809Y-107681093D01*
X86404845Y-107631593D01*
X86400000Y-107601000D01*
X86400000Y-105599000D01*
X86418907Y-105540809D01*
X86468407Y-105504845D01*
X86499000Y-105500000D01*
X89051000Y-105500000D01*
X89109191Y-105518907D01*
G37*
%TD.AperFunction*%
%TD*%
%TA.AperFunction,Conductor*%
%TO.N,M2_B*%
G36*
X116459191Y-99018907D02*
G01*
X116495155Y-99068407D01*
X116500000Y-99099000D01*
X116500000Y-100901000D01*
X116481093Y-100959191D01*
X116431593Y-100995155D01*
X116401000Y-101000000D01*
X113631007Y-101000000D01*
X113572816Y-100981093D01*
X113561003Y-100971004D01*
X113550000Y-100960001D01*
X113550000Y-100960000D01*
X113549999Y-100960000D01*
X110959732Y-100960000D01*
X110901541Y-100941093D01*
X110865577Y-100891593D01*
X110864105Y-100835379D01*
X110875500Y-100792853D01*
X110875500Y-100707147D01*
X110853372Y-100624565D01*
X110850000Y-100598946D01*
X110850000Y-99979000D01*
X110868907Y-99920809D01*
X110918407Y-99884845D01*
X110949000Y-99880000D01*
X113549999Y-99880000D01*
X113550000Y-99880000D01*
X113550000Y-99604759D01*
X113550477Y-99595050D01*
X113550500Y-99594816D01*
X113550500Y-99099000D01*
X113569407Y-99040809D01*
X113618907Y-99004845D01*
X113649500Y-99000000D01*
X116401000Y-99000000D01*
X116459191Y-99018907D01*
G37*
%TD.AperFunction*%
%TD*%
M02*
