M48
; DRILL file KiCad 10.0.6-10.0.6~ubuntu24.04.1 date 2026-09-26T22:40:43
; FORMAT={-:-/ absolute / metric / decimal}
; #@! TF.CreationDate,2026-09-26T22:40:43+00:00
; #@! TF.GenerationSoftware,Kicad,Pcbnew,10.0.6-10.0.6~ubuntu24.04.1
; #@! TF.FileFunction,Plated,1,6,PTH
FMAT,2
METRIC
; #@! TA.AperFunction,Plated,PTH,ViaDrill
T1C0.200
; #@! TA.AperFunction,Plated,PTH,ViaDrill
T2C0.250
; #@! TA.AperFunction,Plated,PTH,ViaDrill
T3C0.300
%
G90
G05
T1
X85.422Y-92.485
X85.929Y-98.601
X88.92Y-93.3
X88.92Y-96.3
X88.92Y-98.5
X88.92Y-101.5
X88.92Y-103.7
X88.92Y-106.7
X89.45Y-99.25
X89.575Y-104.9
X89.575Y-105.65
X89.662Y-101.026
X89.756Y-98.206
X89.792Y-102.251
X90.025Y-105.15
X90.025Y-106.15
X90.025Y-108.65
X90.302Y-98.189
X90.391Y-102.295
X90.638Y-100.25
X90.906Y-108.596
X90.936Y-97.226
X91.85Y-90.025
X91.85Y-96.625
X91.85Y-101.962
X91.85Y-103.325
X92.35Y-96.175
X92.35Y-97.038
X92.35Y-101.962
X92.35Y-102.875
X92.85Y-101.962
X93.3Y-88.92
X93.49Y-102.026
X93.85Y-90.025
X94.35Y-89.575
X94.85Y-90.025
X95.01Y-96.704
X95.1Y-89.575
X95.293Y-104.178
X95.355Y-103.701
X95.5Y-111.08
X95.777Y-90.412
X95.783Y-95.931
X95.829Y-99.193
X96.217Y-104.725
X96.3Y-88.92
X96.606Y-96.219
X96.675Y-91.85
X96.763Y-99.04
X96.793Y-95.553
X96.835Y-97.939
X96.927Y-105.271
X97.125Y-92.35
X97.261Y-108.971
X97.288Y-90.222
X97.6Y-85.1
X97.641Y-108.567
X97.676Y-104.703
X97.959Y-109.389
X97.973Y-93.514
X98.038Y-91.85
X98.038Y-92.35
X98.038Y-92.85
X98.5Y-88.92
X98.5Y-111.08
X98.812Y-90.337
X98.974Y-89.662
X99.25Y-110.55
X99.402Y-104.237
X99.75Y-90.638
X100.25Y-109.361
X100.65Y-114.066
X100.659Y-96.242
X100.7Y-111.08
X100.75Y-89.45
X101.048Y-109.372
X101.235Y-96.233
X101.458Y-85.908
X101.5Y-88.92
X101.76Y-106.65
X101.787Y-89.794
X101.809Y-90.348
X101.907Y-96.735
X101.913Y-108.626
X101.962Y-107.15
X101.962Y-107.65
X101.962Y-108.15
X102.016Y-89.357
X102.563Y-95.269
X102.875Y-107.65
X102.941Y-94.865
X102.962Y-92.35
X102.967Y-90.792
X103.325Y-108.15
X103.35Y-109.75
X103.491Y-114.091
X103.668Y-101.265
X103.7Y-88.92
X103.7Y-111.08
X103.777Y-104.156
X103.825Y-92.35
X104.299Y-96.822
X104.388Y-100.789
X104.503Y-114.45
X104.65Y-110.425
X104.694Y-95.786
X104.7Y-103.78
X104.715Y-96.4
X105.15Y-109.975
X105.65Y-110.425
X105.9Y-111.08
X106.15Y-109.975
X106.6Y-98.15
X106.7Y-88.92
X107.15Y-98.038
X107.65Y-97.125
X107.65Y-98.038
X107.65Y-102.962
X107.65Y-103.825
X108.15Y-96.675
X108.15Y-98.038
X108.15Y-103.375
X108.4Y-109.975
X108.65Y-96.732
X108.9Y-111.14
X109.361Y-99.75
X109.404Y-101.848
X109.45Y-88.2
X109.554Y-104.591
X109.8Y-96.45
X109.82Y-98.587
X109.975Y-91.85
X109.975Y-93.85
X109.975Y-94.85
X110.298Y-98.974
X110.383Y-101.809
X110.425Y-94.35
X110.425Y-95.1
X110.55Y-100.75
X111.08Y-93.3
X111.08Y-98.5
X111.08Y-101.5
X111.08Y-106.7
X113.985Y-101.35
T2
X87.235Y-108.447
X89.465Y-109.855
X94.452Y-102.212
X96.474Y-97.41
X97.41Y-103.542
X97.762Y-96.71
X97.788Y-94.452
X98.0Y-110.535
X98.533Y-95.803
X101.533Y-103.7
X102.182Y-106.086
X102.59Y-96.474
X103.526Y-102.59
X105.548Y-97.788
T3
X83.886Y-97.673
X83.91Y-108.495
X84.0Y-107.576
X84.005Y-102.708
X84.2Y-94.04
X84.2Y-94.8
X84.2Y-95.56
X84.2Y-99.24
X84.2Y-100.0
X84.2Y-100.76
X84.2Y-104.44
X84.2Y-105.2
X84.2Y-105.96
X84.4Y-90.85
X84.906Y-97.673
X84.916Y-108.648
X84.916Y-109.608
X85.0Y-94.04
X85.0Y-94.8
X85.0Y-95.56
X85.0Y-99.24
X85.0Y-100.0
X85.0Y-100.76
X85.0Y-104.44
X85.0Y-105.2
X85.0Y-105.96
X85.36Y-101.69
X85.36Y-103.51
X85.36Y-106.89
X86.246Y-108.605
X86.75Y-92.7
X86.75Y-96.9
X86.75Y-97.9
X86.75Y-102.1
X86.75Y-103.1
X86.75Y-107.3
X87.5Y-92.7
X87.5Y-96.9
X87.5Y-97.9
X87.5Y-102.1
X87.5Y-103.1
X87.5Y-107.3
X88.082Y-109.184
X88.146Y-108.605
X88.25Y-92.7
X88.25Y-96.9
X88.25Y-97.9
X88.25Y-102.1
X88.25Y-103.1
X88.25Y-107.3
X88.917Y-91.58
X89.1Y-94.0
X89.1Y-104.6
X89.55Y-103.88
X89.738Y-91.582
X90.217Y-96.3
X90.312Y-89.499
X90.347Y-97.49
X90.816Y-88.082
X90.862Y-102.738
X90.862Y-103.758
X90.911Y-87.062
X91.04Y-112.07
X91.04Y-112.83
X91.04Y-113.59
X91.04Y-114.35
X91.04Y-115.11
X91.04Y-115.87
X91.272Y-89.499
X91.395Y-86.188
X91.395Y-88.088
X91.582Y-110.262
X91.8Y-112.07
X91.8Y-112.83
X91.8Y-113.59
X91.8Y-114.35
X91.8Y-115.11
X91.8Y-115.87
X92.35Y-98.75
X92.35Y-100.25
X92.56Y-112.07
X92.56Y-112.83
X92.56Y-113.59
X92.56Y-114.35
X92.56Y-115.11
X92.56Y-115.87
X92.7Y-86.75
X92.7Y-87.5
X92.7Y-88.25
X93.1Y-106.4
X93.6Y-93.1
X93.85Y-98.75
X93.85Y-100.25
X94.04Y-84.2
X94.04Y-85.0
X94.64Y-114.35
X94.64Y-115.11
X94.64Y-115.87
X94.8Y-84.2
X94.8Y-85.0
X94.9Y-111.75
X94.9Y-112.5
X94.9Y-113.25
X95.4Y-89.1
X95.4Y-114.35
X95.4Y-115.11
X95.4Y-115.87
X95.56Y-84.2
X95.56Y-85.0
X96.039Y-100.9
X96.12Y-89.55
X96.16Y-114.35
X96.16Y-115.11
X96.16Y-115.87
X96.2Y-110.9
X96.241Y-90.862
X96.265Y-101.816
X96.49Y-85.36
X96.9Y-86.75
X96.9Y-87.5
X96.9Y-88.25
X97.255Y-100.902
X97.261Y-90.862
X97.349Y-110.181
X97.4Y-114.64
X97.9Y-86.75
X97.9Y-87.5
X97.9Y-88.25
X98.0Y-112.63
X98.31Y-85.36
X98.34Y-115.0
X98.34Y-115.8
X98.465Y-101.5
X98.465Y-96.5
X98.74Y-97.5
X98.74Y-102.5
X98.74Y-103.5
X98.75Y-106.15
X98.75Y-107.65
X99.1Y-111.75
X99.1Y-112.5
X99.1Y-113.25
X99.1Y-115.0
X99.1Y-115.8
X99.24Y-84.2
X99.24Y-85.0
X99.75Y-92.35
X99.75Y-93.85
X99.86Y-115.0
X99.86Y-115.8
X99.867Y-99.952
X99.867Y-101.852
X100.0Y-84.2
X100.0Y-85.0
X100.1Y-111.75
X100.1Y-112.5
X100.1Y-113.25
X100.25Y-106.15
X100.25Y-107.65
X100.76Y-84.2
X100.76Y-85.0
X101.005Y-99.552
X101.25Y-92.35
X101.25Y-93.85
X101.44Y-115.0
X101.44Y-115.8
X101.772Y-102.265
X102.1Y-86.75
X102.1Y-87.5
X102.1Y-88.25
X102.2Y-115.0
X102.2Y-115.8
X102.51Y-90.347
X102.667Y-110.256
X102.738Y-109.138
X102.96Y-115.0
X102.96Y-115.8
X103.1Y-86.75
X103.1Y-87.5
X103.1Y-88.25
X103.462Y-98.198
X103.7Y-90.217
X103.758Y-109.138
X103.994Y-99.1
X104.3Y-111.75
X104.3Y-112.5
X104.3Y-113.25
X104.44Y-84.2
X104.44Y-85.0
X105.2Y-84.2
X105.2Y-85.0
X105.3Y-111.75
X105.3Y-112.5
X105.3Y-113.25
X105.7Y-114.64
X105.96Y-84.2
X105.96Y-85.0
X106.0Y-89.1
X106.15Y-99.75
X106.15Y-101.25
X106.4Y-106.9
X106.64Y-115.0
X106.64Y-115.8
X106.8Y-110.9
X106.89Y-85.36
X106.9Y-93.6
X107.3Y-86.75
X107.3Y-87.5
X107.3Y-88.25
X107.4Y-115.0
X107.4Y-115.8
X107.65Y-99.75
X107.65Y-101.25
X107.78Y-110.45
X108.16Y-115.0
X108.16Y-115.8
X108.418Y-89.738
X108.42Y-88.917
X108.76Y-110.486
X109.1Y-114.64
X109.138Y-96.241
X109.138Y-97.261
X109.5Y-111.75
X109.653Y-102.51
X109.72Y-110.486
X110.262Y-108.418
X110.45Y-96.12
X110.501Y-91.272
X110.501Y-90.312
X110.9Y-95.4
X110.9Y-106.0
X111.082Y-108.42
X111.75Y-92.7
X111.75Y-96.9
X111.75Y-97.9
X111.75Y-102.1
X111.75Y-103.1
X111.75Y-107.3
X111.912Y-91.395
X111.917Y-90.816
X112.5Y-92.7
X112.5Y-96.9
X112.5Y-97.9
X112.5Y-102.1
X112.5Y-103.1
X112.5Y-107.3
X112.938Y-90.911
X113.25Y-92.7
X113.25Y-96.9
X113.25Y-97.9
X113.25Y-102.1
X113.25Y-103.1
X113.25Y-107.3
X113.812Y-91.395
X113.825Y-109.217
X113.899Y-108.625
X114.64Y-93.11
X114.64Y-96.49
X114.64Y-98.31
X114.64Y-106.89
X114.846Y-109.122
X115.0Y-94.04
X115.0Y-94.8
X115.0Y-95.56
X115.0Y-99.24
X115.0Y-100.0
X115.0Y-100.76
X115.0Y-104.44
X115.0Y-105.2
X115.0Y-105.96
X115.5Y-92.15
X115.799Y-108.625
X115.8Y-94.04
X115.8Y-94.8
X115.8Y-95.56
X115.8Y-99.24
X115.8Y-100.0
X115.8Y-100.76
X115.8Y-104.44
X115.8Y-105.2
X115.8Y-105.96
M30
