%TF.GenerationSoftware,KiCad,Pcbnew,10.0.6-10.0.6~ubuntu24.04.1*%
%TF.CreationDate,2026-09-26T22:40:42+00:00*%
%TF.ProjectId,cheapdrone-esc,63686561-7064-4726-9f6e-652d6573632e,rev?*%
%TF.SameCoordinates,Original*%
%TF.FileFunction,Copper,L4,Inr*%
%TF.FilePolarity,Positive*%
%FSLAX46Y46*%
G04 Gerber Fmt 4.6, Leading zero omitted, Abs format (unit mm)*
G04 Created by KiCad (PCBNEW 10.0.6-10.0.6~ubuntu24.04.1) date 2026-09-26 22:40:42*
%MOMM*%
%LPD*%
G01*
G04 APERTURE LIST*
%TA.AperFunction,ViaPad*%
%ADD10C,0.500000*%
%TD*%
%TA.AperFunction,ViaPad*%
%ADD11C,0.450000*%
%TD*%
%TA.AperFunction,ViaPad*%
%ADD12C,0.350000*%
%TD*%
%TA.AperFunction,Conductor*%
%ADD13C,0.200000*%
%TD*%
%TA.AperFunction,Conductor*%
%ADD14C,0.100000*%
%TD*%
G04 APERTURE END LIST*
D10*
%TO.N,M4_C*%
X95560000Y-85000000D03*
D11*
X96120000Y-89550000D03*
D10*
X94040000Y-84200000D03*
X94800000Y-84200000D03*
X94040000Y-85000000D03*
X95560000Y-84200000D03*
D12*
X97288500Y-90222400D03*
X98038500Y-91850000D03*
D11*
X95400000Y-89100000D03*
D10*
X94800000Y-85000000D03*
D12*
%TO.N,M4_CMP_C*%
X109450000Y-88200000D03*
X97600000Y-85100000D03*
X110425000Y-94350000D03*
%TO.N,+3V3*%
X85422500Y-92485200D03*
D11*
X103462400Y-98197900D03*
D12*
X109975000Y-93850000D03*
X90025000Y-106150000D03*
X96216700Y-104725000D03*
D11*
X91271815Y-89499355D03*
D12*
X93850000Y-90025000D03*
X90025000Y-108650000D03*
D11*
X84005400Y-102708000D03*
X110500643Y-91271815D03*
D12*
X104700000Y-103780000D03*
X91850000Y-90025000D03*
D11*
X108759999Y-110485797D03*
D12*
X106150000Y-109975000D03*
X109975000Y-91850000D03*
X108400000Y-109975000D03*
D11*
%TO.N,GND*%
X86246500Y-108605000D03*
D10*
X87500000Y-97900000D03*
X102100000Y-88250000D03*
X105300000Y-112500000D03*
X105300000Y-113250000D03*
D11*
X84916500Y-109608000D03*
X115500000Y-92150000D03*
D10*
X107300000Y-88250000D03*
X96160000Y-115110000D03*
X112500000Y-102100000D03*
D11*
X93850000Y-100250000D03*
D10*
X86750000Y-92700000D03*
X96900000Y-87500000D03*
D11*
X98532700Y-95802800D03*
X109138000Y-97261500D03*
X98000000Y-110535000D03*
D10*
X88250000Y-92700000D03*
X96900000Y-88250000D03*
X111750000Y-96900000D03*
X102100000Y-87500000D03*
D11*
X103994000Y-99099900D03*
D10*
X100100000Y-112500000D03*
X113250000Y-96900000D03*
D11*
X101005500Y-99551900D03*
X89738000Y-91582200D03*
D10*
X94640000Y-115870000D03*
D11*
X89465000Y-109855000D03*
X93850000Y-98750000D03*
X115799000Y-108625000D03*
D10*
X111750000Y-102100000D03*
X113250000Y-102100000D03*
D11*
X90311800Y-89499400D03*
X110501000Y-90311800D03*
X93600000Y-93100000D03*
X102738000Y-109138000D03*
X99750000Y-93850000D03*
X101250000Y-93850000D03*
D10*
X86750000Y-103100000D03*
X112500000Y-107300000D03*
X94900000Y-113250000D03*
D11*
X111082000Y-108420000D03*
X107650000Y-101250000D03*
D10*
X100100000Y-111750000D03*
X87500000Y-103100000D03*
X88250000Y-103100000D03*
X111750000Y-107300000D03*
D11*
X83999800Y-107576000D03*
X105548000Y-97788000D03*
X100250000Y-107650000D03*
X106150000Y-99750000D03*
D10*
X95400000Y-115870000D03*
D11*
X88917500Y-91580300D03*
D10*
X94900000Y-112500000D03*
D11*
X101533000Y-103700000D03*
D10*
X96160000Y-115870000D03*
D11*
X110262000Y-108418000D03*
D10*
X94900000Y-111750000D03*
X112500000Y-96900000D03*
D11*
X91395000Y-86187600D03*
X91582200Y-110262000D03*
X90862200Y-102738000D03*
X99866500Y-99951900D03*
X106400000Y-106900000D03*
X109720000Y-110486000D03*
X98750000Y-107650000D03*
X99750000Y-92350000D03*
X106150000Y-101250000D03*
X92350000Y-100250000D03*
X108420000Y-88917500D03*
X98740000Y-97500000D03*
D10*
X100100000Y-113250000D03*
D11*
X102182000Y-106086000D03*
X98750000Y-106150000D03*
X106900000Y-93600000D03*
X97261500Y-90862200D03*
D10*
X87500000Y-92700000D03*
D11*
X108418000Y-89738000D03*
X92350000Y-98750000D03*
X97410200Y-103542000D03*
D10*
X88250000Y-97900000D03*
D11*
X102590000Y-96474300D03*
X107650000Y-99750000D03*
X84400000Y-90850000D03*
X94452200Y-102212000D03*
D10*
X95400000Y-115110000D03*
D11*
X101250000Y-92350000D03*
X103526000Y-102590000D03*
D10*
X107300000Y-86750000D03*
X107300000Y-87500000D03*
D11*
X83909900Y-108495000D03*
X96474300Y-97410200D03*
X93100000Y-106400000D03*
D10*
X105300000Y-111750000D03*
X94640000Y-115110000D03*
X96160000Y-114350000D03*
D11*
X101772000Y-102265000D03*
X96039500Y-100900000D03*
X100250000Y-106150000D03*
D10*
X94640000Y-114350000D03*
X95400000Y-114350000D03*
D11*
X113812000Y-91395000D03*
D10*
X86750000Y-97900000D03*
D11*
X97788000Y-94452200D03*
D10*
X113250000Y-107300000D03*
X102100000Y-86750000D03*
X96900000Y-86750000D03*
D12*
%TO.N,M2_VBC*%
X109361500Y-99750000D03*
D10*
%TO.N,M2_C*%
X115000000Y-94040000D03*
X115800000Y-95560000D03*
D11*
X110900000Y-95400000D03*
D10*
X115800000Y-94800000D03*
X115800000Y-94040000D03*
X115000000Y-95560000D03*
D12*
X108150000Y-98038500D03*
D11*
X110450000Y-96120000D03*
D10*
X115000000Y-94800000D03*
D12*
%TO.N,M2_CMP_C*%
X105650000Y-110425000D03*
D11*
X114640000Y-93110000D03*
%TO.N,M4_SWCLK*%
X103699600Y-90217400D03*
D12*
%TO.N,M1_VCC*%
X99402200Y-104237000D03*
D11*
X113825499Y-109217299D03*
X113898591Y-108625101D03*
D10*
%TO.N,M3_A*%
X85000000Y-94800000D03*
X84200000Y-94800000D03*
X85000000Y-95560000D03*
X84200000Y-95560000D03*
D11*
X89100000Y-94000000D03*
D10*
X85000000Y-94040000D03*
D12*
X90302100Y-98189400D03*
D10*
X84200000Y-94040000D03*
D11*
%TO.N,M2_NEUTRAL*%
X114640000Y-96490000D03*
D12*
X113985000Y-101350000D03*
D11*
X103758500Y-109137800D03*
D12*
X105150000Y-109975000D03*
D10*
%TO.N,VBAT*%
X91800000Y-112070000D03*
D11*
X97762000Y-96710100D03*
D10*
X97900000Y-88250000D03*
X91800000Y-114350000D03*
X91040000Y-113590000D03*
D11*
X83886000Y-97672900D03*
D10*
X92700000Y-88250000D03*
D11*
X97255500Y-100902000D03*
X98465000Y-96500000D03*
X90910700Y-87062500D03*
D10*
X97900000Y-86750000D03*
X99100000Y-113250000D03*
X91040000Y-115110000D03*
X92560000Y-113590000D03*
X103100000Y-86750000D03*
X111750000Y-97900000D03*
X92560000Y-114350000D03*
X88250000Y-107300000D03*
X103100000Y-88250000D03*
X92560000Y-115110000D03*
X92560000Y-112830000D03*
X111750000Y-103100000D03*
D11*
X114846000Y-109122000D03*
D10*
X92560000Y-115870000D03*
X92700000Y-86750000D03*
D11*
X98000000Y-112630000D03*
D10*
X87500000Y-102100000D03*
X104300000Y-112500000D03*
X97900000Y-87500000D03*
X87500000Y-96900000D03*
X91800000Y-115870000D03*
X104300000Y-111750000D03*
X91040000Y-115870000D03*
X92700000Y-87500000D03*
X92560000Y-112070000D03*
X113250000Y-97900000D03*
X91040000Y-112070000D03*
X103100000Y-87500000D03*
X86750000Y-96900000D03*
D11*
X99866500Y-101852000D03*
D10*
X91800000Y-113590000D03*
X91800000Y-115110000D03*
D11*
X87234600Y-108447000D03*
D10*
X109500000Y-111750000D03*
X112500000Y-103100000D03*
X113250000Y-92700000D03*
X91800000Y-112830000D03*
D11*
X112938000Y-90910700D03*
D10*
X91040000Y-114350000D03*
X99100000Y-111750000D03*
X104300000Y-113250000D03*
X91040000Y-112830000D03*
X112500000Y-92700000D03*
X86750000Y-107300000D03*
X112500000Y-97900000D03*
X111750000Y-92700000D03*
X87500000Y-107300000D03*
X88250000Y-102100000D03*
X99100000Y-112500000D03*
X88250000Y-96900000D03*
D11*
X96265000Y-101816000D03*
D10*
X86750000Y-102100000D03*
X113250000Y-103100000D03*
D12*
%TO.N,M4_SWDIO*%
X103825000Y-92350000D03*
%TO.N,M1_C*%
X101961500Y-108150000D03*
D10*
X108160000Y-115000000D03*
X107400000Y-115800000D03*
X108160000Y-115800000D03*
X106640000Y-115800000D03*
X106640000Y-115000000D03*
X107400000Y-115000000D03*
D11*
X106800000Y-110900000D03*
D12*
%TO.N,M1_CMP_C*%
X89575000Y-105650000D03*
D11*
X105699999Y-114640000D03*
D12*
%TO.N,M3_CMP_A*%
X97125000Y-92350000D03*
%TO.N,M2_VCC*%
X109820000Y-98586900D03*
D11*
X111917500Y-90815699D03*
X111912400Y-91395000D03*
D12*
X103668000Y-101265000D03*
%TO.N,M3_CMP_C*%
X94350000Y-89575000D03*
D11*
X85360000Y-106890000D03*
D12*
%TO.N,M2_SWDIO*%
X107650000Y-103825000D03*
D10*
%TO.N,M3_B*%
X85000000Y-99240000D03*
X84200000Y-100760000D03*
X85000000Y-100760000D03*
X84200000Y-99240000D03*
X84200000Y-100000000D03*
X85000000Y-100000000D03*
D12*
%TO.N,M3_CMP_B*%
X96675000Y-91850000D03*
D11*
X85360000Y-101690000D03*
D10*
%TO.N,M4_B*%
X99240000Y-85000000D03*
X100000000Y-85000000D03*
X99240000Y-84200000D03*
X100000000Y-84200000D03*
X100760000Y-85000000D03*
X100760000Y-84200000D03*
D12*
%TO.N,M4_CMP_B*%
X108150000Y-96675000D03*
D11*
X98310000Y-85360000D03*
D12*
%TO.N,M3_SWCLK*%
X91850000Y-96625000D03*
D11*
X90217400Y-96300400D03*
D12*
%TO.N,M1_A*%
X97959500Y-109389000D03*
D10*
X98340000Y-115800000D03*
X99100000Y-115800000D03*
X99860000Y-115000000D03*
D11*
X96200000Y-110900000D03*
D10*
X98340000Y-115000000D03*
X99100000Y-115000000D03*
X99860000Y-115800000D03*
D11*
%TO.N,M4_VBA*%
X102509800Y-90347400D03*
D12*
X102961500Y-92350000D03*
D11*
%TO.N,M4_VCC*%
X90815699Y-88082500D03*
D12*
X102016000Y-89357100D03*
X100659000Y-96241500D03*
X102563000Y-95269100D03*
D11*
X91395000Y-88087600D03*
D12*
%TO.N,M1_CMP_A*%
X92350000Y-102875000D03*
D11*
X97399999Y-114640000D03*
D12*
%TO.N,M4_VBC*%
X99750000Y-90638500D03*
%TO.N,M3_C*%
X89791900Y-102251000D03*
D10*
X85000000Y-104440000D03*
X85000000Y-105960000D03*
D11*
X89550000Y-103880000D03*
D10*
X84200000Y-104440000D03*
X84200000Y-105960000D03*
D11*
X89100000Y-104600000D03*
D10*
X85000000Y-105200000D03*
X84200000Y-105200000D03*
D12*
X91850000Y-101961500D03*
%TO.N,M3_NEUTRAL*%
X85929400Y-98600700D03*
D11*
X85360000Y-103510000D03*
D12*
X94850000Y-90025000D03*
D11*
X96241499Y-90862200D03*
D10*
%TO.N,M2_B*%
X115800000Y-100760000D03*
X115000000Y-100000000D03*
X115000000Y-100760000D03*
X115800000Y-100000000D03*
X115800000Y-99240000D03*
X115000000Y-99240000D03*
D12*
%TO.N,M2_CMP_B*%
X103325000Y-108150000D03*
D11*
X114640000Y-98310000D03*
D12*
%TO.N,M3_VBC*%
X90638500Y-100250000D03*
%TO.N,M3_VCC*%
X95829000Y-99193100D03*
D11*
X88146500Y-108604999D03*
D12*
X90391300Y-102295000D03*
D11*
X88082500Y-109184299D03*
D10*
%TO.N,M1_B*%
X101440000Y-115800000D03*
X102200000Y-115000000D03*
X101440000Y-115000000D03*
X102960000Y-115800000D03*
X102960000Y-115000000D03*
X102200000Y-115800000D03*
D12*
%TO.N,M1_CMP_B*%
X91850000Y-103325000D03*
X103491000Y-114091000D03*
%TO.N,M3_SWDIO*%
X92350000Y-96175000D03*
%TO.N,M4_VBB*%
X98974000Y-89662500D03*
X101787000Y-89794300D03*
D10*
%TO.N,M2_A*%
X115800000Y-105200000D03*
X115000000Y-105200000D03*
X115800000Y-104440000D03*
D12*
X109404000Y-101848000D03*
D10*
X115800000Y-105960000D03*
X115000000Y-105960000D03*
X115000000Y-104440000D03*
D11*
X110900000Y-106000000D03*
D12*
%TO.N,M2_CMP_A*%
X102875000Y-107650000D03*
D11*
X114640000Y-106890000D03*
%TO.N,M1_NEUTRAL*%
X90862200Y-103758500D03*
D12*
X90025000Y-105150000D03*
D11*
X109100000Y-114640000D03*
D12*
X100650000Y-114066000D03*
X104503000Y-114450000D03*
%TO.N,M1_SIG*%
X89575000Y-104900000D03*
D11*
%TO.N,M2_SIG*%
X98464999Y-101500000D03*
D12*
X104650000Y-110425000D03*
D11*
%TO.N,M3_SIG*%
X98740000Y-102500000D03*
D12*
X95100000Y-89575000D03*
D11*
%TO.N,M4_SIG*%
X98740000Y-103500000D03*
D12*
X110425000Y-95100000D03*
%TO.N,M1_VBB*%
X97261400Y-108971000D03*
D11*
%TO.N,M1_VBA*%
X97348800Y-110180799D03*
%TO.N,ESC_VSENSE*%
X84916499Y-108648000D03*
X84905999Y-97672899D03*
D12*
X90906100Y-108596000D03*
X108650000Y-96731900D03*
X101913000Y-108626000D03*
X95777500Y-90412200D03*
%TO.N,M1_VBC*%
X100250000Y-109361500D03*
D11*
X107780000Y-110449999D03*
X102667499Y-110255900D03*
D12*
%TO.N,M4_A*%
X101809000Y-90347800D03*
D10*
X104440000Y-84200000D03*
X105200000Y-84200000D03*
X105960000Y-85000000D03*
X105960000Y-84200000D03*
X105200000Y-85000000D03*
X104440000Y-85000000D03*
D11*
X106000000Y-89100000D03*
D12*
%TO.N,M4_CMP_A*%
X107650000Y-97125000D03*
D11*
X106890000Y-85360000D03*
%TO.N,M4_NEUTRAL*%
X109137800Y-96241499D03*
X96490000Y-85360000D03*
D12*
X101458000Y-85907700D03*
X109975000Y-94850000D03*
%TO.N,M2_SWCLK*%
X108150000Y-103375000D03*
%TO.N,M3_VBA*%
X92350000Y-97038500D03*
D11*
X90347400Y-97490200D03*
%TO.N,M2_VBA*%
X109652600Y-102509800D03*
D12*
X109554000Y-104591000D03*
X107650000Y-102961500D03*
%TO.N,M2_VBB*%
X110383000Y-101809000D03*
%TO.N,M3_VBB*%
X89756400Y-98205900D03*
%TO.N,M3_GHB*%
X89450000Y-99250000D03*
X88920000Y-101500000D03*
%TO.N,M3_GLB*%
X88920000Y-98500000D03*
X92850000Y-101961500D03*
%TO.N,M2_LC*%
X104388000Y-100789000D03*
X103777000Y-104156000D03*
%TO.N,M2_GLC*%
X109800000Y-96450000D03*
X106600000Y-98150000D03*
%TO.N,M2_GLB*%
X111080000Y-101500000D03*
X107150000Y-98038500D03*
%TO.N,M2_GLA*%
X111080000Y-106700000D03*
X107650000Y-98038500D03*
%TO.N,M2_GHC*%
X110298000Y-98973800D03*
X111080000Y-93300000D03*
%TO.N,M2_GHB*%
X111080000Y-98500000D03*
X110550000Y-100750000D03*
%TO.N,M3_GHA*%
X90935900Y-97226200D03*
X88920000Y-96300000D03*
%TO.N,M3_GLA*%
X92350000Y-101961500D03*
X88920000Y-93300000D03*
%TO.N,M1_GHC*%
X108900000Y-111140000D03*
X101048000Y-109372000D03*
%TO.N,M1_GLC*%
X103350000Y-109750000D03*
X105900000Y-111080000D03*
X101759999Y-106650000D03*
%TO.N,M4_GHA*%
X102967000Y-90791600D03*
X103700000Y-88920000D03*
%TO.N,M4_GLA*%
X106700000Y-88920000D03*
X98038500Y-92350000D03*
%TO.N,M4_GHC*%
X93300000Y-88920000D03*
X98811800Y-90336700D03*
%TO.N,M4_GLC*%
X97972600Y-93514400D03*
X96300000Y-88920000D03*
%TO.N,M3_LA*%
X95010000Y-96704000D03*
X95783000Y-95931000D03*
%TO.N,M3_LB*%
X96606000Y-96218900D03*
X96835200Y-97938800D03*
%TO.N,M3_LC*%
X96762900Y-99039700D03*
X96793400Y-95552600D03*
%TO.N,M3_GLC*%
X93490100Y-102026000D03*
X88920000Y-103700000D03*
%TO.N,M3_GHC*%
X89662500Y-101026000D03*
X88920000Y-106700000D03*
%TO.N,M4_GHB*%
X100750000Y-89450000D03*
X98500000Y-88920000D03*
%TO.N,M4_GLB*%
X101500000Y-88920000D03*
X98038500Y-92850000D03*
%TO.N,M1_LB*%
X95293300Y-104178000D03*
X96927100Y-105271000D03*
%TO.N,M1_LA*%
X97676100Y-104703000D03*
X95354600Y-103701000D03*
%TO.N,M4_LA*%
X102941000Y-94864600D03*
X104715000Y-96399900D03*
%TO.N,M4_LB*%
X101907000Y-96734800D03*
X104299000Y-96821800D03*
%TO.N,M4_LC*%
X104694000Y-95785800D03*
X101235000Y-96232900D03*
%TO.N,M1_GLB*%
X100700000Y-111080000D03*
X101961500Y-107150000D03*
%TO.N,M1_GLA*%
X101961500Y-107650000D03*
X95500000Y-111080000D03*
%TO.N,M1_GHB*%
X99250000Y-110550000D03*
X103700000Y-111080000D03*
%TO.N,M1_GHA*%
X97640900Y-108567000D03*
X98500000Y-111080000D03*
%TD*%
%TO.N,M4_C*%
D13*
X96616100Y-89550000D02*
X97288500Y-90222400D01*
X96120000Y-89550000D02*
X96616100Y-89550000D01*
%TO.N,M4_CMP_C*%
D14*
X104950000Y-86200000D02*
X107450000Y-86200000D01*
X107450000Y-86200000D02*
X109450000Y-88200000D01*
X97600000Y-85100000D02*
X99050000Y-83649999D01*
X102400000Y-83649999D02*
X104950000Y-86200000D01*
X99050000Y-83649999D02*
X102400000Y-83649999D01*
%TO.N,+3V3*%
D13*
X107810000Y-93850000D02*
X103462400Y-98197900D01*
X96384500Y-104893000D02*
X97333300Y-104893000D01*
X97520200Y-105080000D02*
X103400000Y-105080000D01*
X96216700Y-104725000D02*
X96384500Y-104893000D01*
X85763000Y-92144700D02*
X85422500Y-92485200D01*
X87348800Y-106150000D02*
X90025000Y-106150000D01*
X91271815Y-89499355D02*
X91324400Y-89499400D01*
X91850000Y-90025000D02*
X89534000Y-90025000D01*
X84005400Y-102807000D02*
X87348800Y-106150000D01*
X93850000Y-90025000D02*
X91850000Y-90025000D01*
X103400000Y-105080000D02*
X104700000Y-103780000D01*
X87414300Y-92144700D02*
X85763000Y-92144700D01*
X109975000Y-93850000D02*
X107810000Y-93850000D01*
X91324400Y-89499400D02*
X91850000Y-90025000D01*
X89534000Y-90025000D02*
X87414300Y-92144700D01*
X97333300Y-104893000D02*
X97520200Y-105080000D01*
X84005400Y-102708000D02*
X84005400Y-102807000D01*
%TO.N,M2_C*%
X109067000Y-98038500D02*
X108150000Y-98038500D01*
X110450000Y-96120000D02*
X110450000Y-96655300D01*
X110450000Y-96655300D02*
X109067000Y-98038500D01*
%TO.N,M1_C*%
X101992000Y-108150000D02*
X101961500Y-108150000D01*
X105419000Y-108711000D02*
X102553000Y-108711000D01*
X102553000Y-108711000D02*
X101992000Y-108150000D01*
X106800000Y-110900000D02*
X106800000Y-110092000D01*
X106800000Y-110092000D02*
X105419000Y-108711000D01*
%TO.N,M1_CMP_C*%
D14*
X94085600Y-111315000D02*
X91656500Y-108886000D01*
X98011800Y-114579000D02*
X97303400Y-113871000D01*
X101033000Y-116019000D02*
X101033000Y-115464000D01*
X97303400Y-113871000D02*
X94926800Y-113871000D01*
X101231000Y-116218000D02*
X101033000Y-116019000D01*
X104122000Y-116218000D02*
X101231000Y-116218000D01*
X91656500Y-107241000D02*
X90065200Y-105650000D01*
X91656500Y-108886000D02*
X91656500Y-107241000D01*
X94085600Y-113030000D02*
X94085600Y-111315000D01*
X100148000Y-114579000D02*
X98011800Y-114579000D01*
X90065200Y-105650000D02*
X89575000Y-105650000D01*
X101033000Y-115464000D02*
X100148000Y-114579000D01*
X105699999Y-114640000D02*
X104122000Y-116218000D01*
X94926800Y-113871000D02*
X94085600Y-113030000D01*
%TO.N,M3_CMP_B*%
X93768000Y-94757000D02*
X96675000Y-91850000D01*
X85360000Y-101690000D02*
X85492100Y-101558000D01*
X85492100Y-101558000D02*
X85492100Y-97541700D01*
X88276800Y-94757000D02*
X93768000Y-94757000D01*
X85492100Y-97541700D02*
X88276800Y-94757000D01*
%TO.N,M3_SWCLK*%
X90217400Y-96300400D02*
X91525400Y-96300400D01*
X91525400Y-96300400D02*
X91850000Y-96625000D01*
%TO.N,M4_VCC*%
D13*
X91389900Y-88082500D02*
X91395000Y-88087600D01*
X101631000Y-95269100D02*
X100659000Y-96241500D01*
X95390800Y-86296300D02*
X99457700Y-86296300D01*
X92056500Y-88749100D02*
X92938000Y-88749100D01*
X99457700Y-86296300D02*
X102016000Y-88855100D01*
X102563000Y-95269100D02*
X101631000Y-95269100D01*
X91395000Y-88087600D02*
X92056500Y-88749100D01*
X102016000Y-88855100D02*
X102016000Y-89357100D01*
X92938000Y-88749100D02*
X95390800Y-86296300D01*
X90815699Y-88082500D02*
X91389900Y-88082500D01*
%TO.N,M3_C*%
X90125200Y-101918000D02*
X89791900Y-102251000D01*
X91806100Y-101918000D02*
X90125200Y-101918000D01*
X91850000Y-101961500D02*
X91806100Y-101918000D01*
%TO.N,M3_NEUTRAL*%
D14*
X88570700Y-96144800D02*
X88867200Y-95848300D01*
X86650000Y-97400000D02*
X88350800Y-97400000D01*
X85929400Y-98600700D02*
X85929400Y-98120600D01*
X97528000Y-92424400D02*
X97528000Y-92148700D01*
X96241499Y-90862200D02*
X96241500Y-90382100D01*
X88691900Y-96622100D02*
X88570700Y-96500900D01*
X95884400Y-90025000D02*
X94850000Y-90025000D01*
X85929400Y-98120600D02*
X86650000Y-97400000D01*
X94104100Y-95848300D02*
X97528000Y-92424400D01*
X88691900Y-97058900D02*
X88691900Y-96622100D01*
X96241500Y-90382100D02*
X95884400Y-90025000D01*
X88867200Y-95848300D02*
X94104100Y-95848300D01*
X97528000Y-92148700D02*
X96241499Y-90862200D01*
X88570700Y-96500900D02*
X88570700Y-96144800D01*
X88350800Y-97400000D02*
X88691900Y-97058900D01*
%TO.N,M2_CMP_B*%
X102524000Y-107532000D02*
X102524000Y-107779000D01*
X105519000Y-106924000D02*
X103132000Y-106924000D01*
X103132000Y-106924000D02*
X102524000Y-107532000D01*
X114640000Y-98419100D02*
X109809000Y-103250000D01*
X114640000Y-98310000D02*
X114640000Y-98419100D01*
X109809000Y-103250000D02*
X109193000Y-103250000D01*
X102895000Y-108150000D02*
X103325000Y-108150000D01*
X109193000Y-103250000D02*
X105519000Y-106924000D01*
X102524000Y-107779000D02*
X102895000Y-108150000D01*
%TO.N,M4_VBB*%
D13*
X99157400Y-89845900D02*
X98974000Y-89662500D01*
X101736000Y-89845900D02*
X99157400Y-89845900D01*
X101787000Y-89794300D02*
X101736000Y-89845900D01*
%TO.N,M2_CMP_A*%
D14*
X114640000Y-106890000D02*
X113822000Y-107708000D01*
X102933000Y-107708000D02*
X102875000Y-107650000D01*
X113822000Y-107708000D02*
X102933000Y-107708000D01*
%TO.N,M1_NEUTRAL*%
X101034000Y-114450000D02*
X104503000Y-114450000D01*
X109100000Y-114640000D02*
X108708000Y-114248000D01*
X104705000Y-114248000D02*
X104503000Y-114450000D01*
X108708000Y-114248000D02*
X104705000Y-114248000D01*
X98022200Y-114066000D02*
X100650000Y-114066000D01*
X100650000Y-114066000D02*
X101034000Y-114450000D01*
X94285800Y-110330000D02*
X98022200Y-114066000D01*
X94285800Y-109411000D02*
X94285800Y-110330000D01*
X90025000Y-105150000D02*
X94285800Y-109411000D01*
%TO.N,M4_SIG*%
X109757000Y-95767600D02*
X110425000Y-95100000D01*
X98740000Y-103500000D02*
X99044600Y-103500000D01*
X106777000Y-95767600D02*
X109757000Y-95767600D01*
X99044600Y-103500000D02*
X106777000Y-95767600D01*
%TO.N,ESC_VSENSE*%
X90334500Y-108024000D02*
X85540400Y-108024000D01*
X88123500Y-94455400D02*
X91524300Y-94455400D01*
X95567500Y-90412200D02*
X95777500Y-90412200D01*
X85540400Y-108024000D02*
X84916499Y-108648000D01*
X90906100Y-108596000D02*
X90334500Y-108024000D01*
X91524300Y-94455400D02*
X95567500Y-90412200D01*
X84905999Y-97672899D02*
X88123500Y-94455400D01*
%TO.N,M1_VBC*%
D13*
X104334000Y-110818000D02*
X103772000Y-110256000D01*
X103772000Y-110256000D02*
X102667499Y-110255900D01*
X106856000Y-111475000D02*
X105713000Y-111475000D01*
X107780000Y-110449999D02*
X107780000Y-110551000D01*
X105713000Y-111475000D02*
X105057000Y-110818000D01*
X105057000Y-110818000D02*
X104334000Y-110818000D01*
X101144000Y-110256000D02*
X102667499Y-110255900D01*
X107780000Y-110551000D02*
X106856000Y-111475000D01*
X100250000Y-109361500D02*
X101144000Y-110256000D01*
%TO.N,M4_A*%
X106000000Y-89100000D02*
X105803000Y-89296700D01*
X102860000Y-89296700D02*
X101809000Y-90347800D01*
X105803000Y-89296700D02*
X102860000Y-89296700D01*
%TO.N,M4_NEUTRAL*%
D14*
X104247000Y-85907700D02*
X101458000Y-85907700D01*
X101458000Y-85907700D02*
X97037700Y-85907700D01*
X110322000Y-91720600D02*
X109407000Y-90805600D01*
X110322000Y-93978300D02*
X110322000Y-91720600D01*
X109975000Y-94850000D02*
X109975000Y-94325000D01*
X109407000Y-90805600D02*
X109407000Y-90128600D01*
X108605000Y-89326800D02*
X107666000Y-89326800D01*
X109975000Y-94325000D02*
X110322000Y-93978300D01*
X107666000Y-89326800D02*
X104247000Y-85907700D01*
X97037700Y-85907700D02*
X96490000Y-85360000D01*
X109407000Y-90128600D02*
X108605000Y-89326800D01*
%TO.N,M3_VBA*%
D13*
X90460100Y-97602900D02*
X91785600Y-97602900D01*
X90347400Y-97490200D02*
X90460100Y-97602900D01*
X91785600Y-97602900D02*
X92350000Y-97038500D01*
%TO.N,M2_VBA*%
X108102000Y-102510000D02*
X109652600Y-102509800D01*
X107650000Y-102961500D02*
X108102000Y-102510000D01*
%TO.N,M3_GLB*%
X92850000Y-101882000D02*
X89467700Y-98500000D01*
X89467700Y-98500000D02*
X88920000Y-98500000D01*
X92850000Y-101961500D02*
X92850000Y-101882000D01*
%TO.N,M2_LC*%
D14*
X103134000Y-102350000D02*
X104388000Y-101095000D01*
X104388000Y-101095000D02*
X104388000Y-100789000D01*
X103134000Y-103512000D02*
X103134000Y-102350000D01*
X103777000Y-104156000D02*
X103134000Y-103512000D01*
%TO.N,M2_GLB*%
D13*
X107150000Y-98117700D02*
X107150000Y-98038500D01*
X111012000Y-101432000D02*
X110465000Y-101432000D01*
X110465000Y-101432000D02*
X107150000Y-98117700D01*
X111080000Y-101500000D02*
X111012000Y-101432000D01*
%TO.N,M2_GHC*%
X110298000Y-98973800D02*
X110299000Y-97663400D01*
X111466000Y-96495500D02*
X111466000Y-93686500D01*
X111466000Y-93686500D02*
X111080000Y-93300000D01*
X110299000Y-97663400D02*
X111466000Y-96495500D01*
%TO.N,M3_GHA*%
X88920000Y-96300000D02*
X89545200Y-96925200D01*
X90634900Y-96925200D02*
X90935900Y-97226200D01*
X89545200Y-96925200D02*
X90634900Y-96925200D01*
%TO.N,M4_GLA*%
X98038500Y-92350000D02*
X99146700Y-92350000D01*
X106700000Y-89064300D02*
X106700000Y-88920000D01*
X99146700Y-92350000D02*
X100270000Y-91226300D01*
X104538000Y-91226300D02*
X106700000Y-89064300D01*
X100270000Y-91226300D02*
X104538000Y-91226300D01*
%TO.N,M4_GHC*%
X93300000Y-88920000D02*
X93683300Y-88536700D01*
X98298800Y-90336700D02*
X98811800Y-90336700D01*
X93683300Y-88536700D02*
X96498800Y-88536700D01*
X96498800Y-88536700D02*
X98298800Y-90336700D01*
%TO.N,M3_LA*%
D14*
X95010000Y-96704000D02*
X95783000Y-95931000D01*
%TO.N,M3_LC*%
X96054000Y-98330800D02*
X96054000Y-96292000D01*
X96054000Y-96292000D02*
X96793400Y-95552600D01*
X96762900Y-99039700D02*
X96054000Y-98330800D01*
%TO.N,M3_GLC*%
D13*
X91285600Y-103310000D02*
X89310300Y-103310000D01*
X92078900Y-103717000D02*
X91693000Y-103717000D01*
X91693000Y-103717000D02*
X91285600Y-103310000D01*
X93490100Y-102026000D02*
X93490100Y-102306000D01*
X93490100Y-102306000D02*
X92078900Y-103717000D01*
X89310300Y-103310000D02*
X88920000Y-103700000D01*
%TO.N,M4_GHB*%
X98764200Y-88920000D02*
X98500000Y-88920000D01*
X100750000Y-89450000D02*
X100656000Y-89544200D01*
X99388400Y-89544200D02*
X98764200Y-88920000D01*
X100656000Y-89544200D02*
X99388400Y-89544200D01*
%TO.N,M1_LB*%
D14*
X96927100Y-105271000D02*
X96266200Y-105271000D01*
X96266200Y-105271000D02*
X95293400Y-104298000D01*
X95293400Y-104298000D02*
X95293300Y-104178000D01*
%TO.N,M1_LA*%
X96755000Y-103701000D02*
X95354600Y-103701000D01*
X97676100Y-104622000D02*
X96755000Y-103701000D01*
X97676100Y-104703000D02*
X97676100Y-104622000D01*
%TO.N,M4_LB*%
X104222000Y-96899100D02*
X104299000Y-96821800D01*
X101907000Y-96734800D02*
X102072000Y-96899100D01*
X102072000Y-96899100D02*
X104222000Y-96899100D01*
%TO.N,M4_LC*%
X104694000Y-95785800D02*
X101682000Y-95785800D01*
X101682000Y-95785800D02*
X101235000Y-96232900D01*
%TO.N,M1_GLA*%
D13*
X97417300Y-109348000D02*
X97786000Y-108979000D01*
X100102000Y-108979000D02*
X101432000Y-107650000D01*
X97143700Y-109348000D02*
X97417300Y-109348000D01*
X95500000Y-110992000D02*
X97143700Y-109348000D01*
X95500000Y-111080000D02*
X95500000Y-110992000D01*
X97786000Y-108979000D02*
X100102000Y-108979000D01*
X101432000Y-107650000D02*
X101961500Y-107650000D01*
%TO.N,M1_GHB*%
X100539000Y-111501000D02*
X103279000Y-111501000D01*
X99250000Y-110550000D02*
X99588200Y-110550000D01*
X103279000Y-111501000D02*
X103700000Y-111080000D01*
X99588200Y-110550000D02*
X100539000Y-111501000D01*
%TD*%
M02*
