%TF.GenerationSoftware,KiCad,Pcbnew,10.0.6-10.0.6~ubuntu24.04.1*%
%TF.CreationDate,2026-09-29T02:57:08+00:00*%
%TF.ProjectId,ridge3-esc,72696467-6533-42d6-9573-632e6b696361,1.0*%
%TF.SameCoordinates,Original*%
%TF.FileFunction,Copper,L6,Bot*%
%TF.FilePolarity,Positive*%
%FSLAX46Y46*%
G04 Gerber Fmt 4.6, Leading zero omitted, Abs format (unit mm)*
G04 Created by KiCad (PCBNEW 10.0.6-10.0.6~ubuntu24.04.1) date 2026-09-29 02:57:08*
%MOMM*%
%LPD*%
G01*
G04 APERTURE LIST*
G04 Aperture macros list*
%AMRoundRect*
0 Rectangle with rounded corners*
0 $1 Rounding radius*
0 $2 $3 $4 $5 $6 $7 $8 $9 X,Y pos of 4 corners*
0 Add a 4 corners polygon primitive as box body*
4,1,4,$2,$3,$4,$5,$6,$7,$8,$9,$2,$3,0*
0 Add four circle primitives for the rounded corners*
1,1,$1+$1,$2,$3*
1,1,$1+$1,$4,$5*
1,1,$1+$1,$6,$7*
1,1,$1+$1,$8,$9*
0 Add four rect primitives between the rounded corners*
20,1,$1+$1,$2,$3,$4,$5,0*
20,1,$1+$1,$4,$5,$6,$7,0*
20,1,$1+$1,$6,$7,$8,$9,0*
20,1,$1+$1,$8,$9,$2,$3,0*%
%AMFreePoly0*
4,1,6,0.149885,-0.275057,0.099898,-0.275057,-0.150139,-0.025044,-0.150139,0.399999,0.149885,0.399999,0.149885,-0.275057,0.149885,-0.275057,$1*%
%AMFreePoly1*
4,1,6,0.149885,-0.024968,-0.100152,-0.274980,-0.150139,-0.274980,-0.150139,0.399999,0.149885,0.399999,0.149885,-0.024968,0.149885,-0.024968,$1*%
%AMFreePoly2*
4,1,6,0.399999,-0.150139,-0.275057,-0.150139,-0.275057,-0.100152,-0.025044,0.149885,0.399999,0.149885,0.399999,-0.150139,0.399999,-0.150139,$1*%
%AMFreePoly3*
4,1,6,0.399999,-0.150139,-0.024968,-0.150139,-0.274980,0.099898,-0.274980,0.149885,0.399999,0.149885,0.399999,-0.150139,0.399999,-0.150139,$1*%
%AMFreePoly4*
4,1,6,0.149885,0.025044,0.149885,-0.399999,-0.150139,-0.399999,-0.150139,0.275057,-0.100152,0.275057,0.149885,0.025044,0.149885,0.025044,$1*%
%AMFreePoly5*
4,1,6,0.149885,-0.399999,-0.150139,-0.399999,-0.150139,0.024968,0.099898,0.274980,0.149860,0.274980,0.149885,-0.399999,0.149885,-0.399999,$1*%
%AMFreePoly6*
4,1,6,0.275057,0.099898,0.025044,-0.150139,-0.399999,-0.150114,-0.399999,0.149911,0.275057,0.149911,0.275057,0.099898,0.275057,0.099898,$1*%
%AMFreePoly7*
4,1,6,0.274980,-0.100152,0.274980,-0.150139,-0.399999,-0.150139,-0.399999,0.149885,0.024968,0.149885,0.274980,-0.100152,0.274980,-0.100152,$1*%
G04 Aperture macros list end*
%TA.AperFunction,ComponentPad*%
%ADD10C,3.000000*%
%TD*%
%TA.AperFunction,SMDPad,CuDef*%
%ADD11RoundRect,0.100000X0.130000X0.100000X-0.130000X0.100000X-0.130000X-0.100000X0.130000X-0.100000X0*%
%TD*%
%TA.AperFunction,SMDPad,CuDef*%
%ADD12RoundRect,0.135000X-0.185000X0.135000X-0.185000X-0.135000X0.185000X-0.135000X0.185000X0.135000X0*%
%TD*%
%TA.AperFunction,SMDPad,CuDef*%
%ADD13RoundRect,0.140000X0.140000X0.170000X-0.140000X0.170000X-0.140000X-0.170000X0.140000X-0.170000X0*%
%TD*%
%TA.AperFunction,SMDPad,CuDef*%
%ADD14RoundRect,0.100000X-0.130000X-0.100000X0.130000X-0.100000X0.130000X0.100000X-0.130000X0.100000X0*%
%TD*%
%TA.AperFunction,SMDPad,CuDef*%
%ADD15FreePoly0,90.000000*%
%TD*%
%TA.AperFunction,SMDPad,CuDef*%
%ADD16R,0.700000X0.300000*%
%TD*%
%TA.AperFunction,SMDPad,CuDef*%
%ADD17FreePoly1,90.000000*%
%TD*%
%TA.AperFunction,SMDPad,CuDef*%
%ADD18FreePoly2,90.000000*%
%TD*%
%TA.AperFunction,SMDPad,CuDef*%
%ADD19R,0.300000X0.700000*%
%TD*%
%TA.AperFunction,SMDPad,CuDef*%
%ADD20FreePoly3,90.000000*%
%TD*%
%TA.AperFunction,SMDPad,CuDef*%
%ADD21FreePoly4,90.000000*%
%TD*%
%TA.AperFunction,SMDPad,CuDef*%
%ADD22FreePoly5,90.000000*%
%TD*%
%TA.AperFunction,SMDPad,CuDef*%
%ADD23FreePoly6,90.000000*%
%TD*%
%TA.AperFunction,SMDPad,CuDef*%
%ADD24FreePoly7,90.000000*%
%TD*%
%TA.AperFunction,SMDPad,CuDef*%
%ADD25FreePoly0,270.000000*%
%TD*%
%TA.AperFunction,SMDPad,CuDef*%
%ADD26FreePoly1,270.000000*%
%TD*%
%TA.AperFunction,SMDPad,CuDef*%
%ADD27FreePoly2,270.000000*%
%TD*%
%TA.AperFunction,SMDPad,CuDef*%
%ADD28FreePoly3,270.000000*%
%TD*%
%TA.AperFunction,SMDPad,CuDef*%
%ADD29FreePoly4,270.000000*%
%TD*%
%TA.AperFunction,SMDPad,CuDef*%
%ADD30FreePoly5,270.000000*%
%TD*%
%TA.AperFunction,SMDPad,CuDef*%
%ADD31FreePoly6,270.000000*%
%TD*%
%TA.AperFunction,SMDPad,CuDef*%
%ADD32FreePoly7,270.000000*%
%TD*%
%TA.AperFunction,SMDPad,CuDef*%
%ADD33RoundRect,0.140000X-0.140000X-0.170000X0.140000X-0.170000X0.140000X0.170000X-0.140000X0.170000X0*%
%TD*%
%TA.AperFunction,SMDPad,CuDef*%
%ADD34RoundRect,0.135000X0.185000X-0.135000X0.185000X0.135000X-0.185000X0.135000X-0.185000X-0.135000X0*%
%TD*%
%TA.AperFunction,SMDPad,CuDef*%
%ADD35RoundRect,0.140000X-0.170000X0.140000X-0.170000X-0.140000X0.170000X-0.140000X0.170000X0.140000X0*%
%TD*%
%TA.AperFunction,SMDPad,CuDef*%
%ADD36R,0.400000X0.600000*%
%TD*%
%TA.AperFunction,SMDPad,CuDef*%
%ADD37R,0.600000X0.400000*%
%TD*%
%TA.AperFunction,SMDPad,CuDef*%
%ADD38R,2.700000X2.300000*%
%TD*%
%TA.AperFunction,SMDPad,CuDef*%
%ADD39RoundRect,0.100000X0.100000X-0.130000X0.100000X0.130000X-0.100000X0.130000X-0.100000X-0.130000X0*%
%TD*%
%TA.AperFunction,SMDPad,CuDef*%
%ADD40R,1.800000X1.700000*%
%TD*%
%TA.AperFunction,SMDPad,CuDef*%
%ADD41R,0.500000X0.250000*%
%TD*%
%TA.AperFunction,SMDPad,CuDef*%
%ADD42R,1.700000X1.800000*%
%TD*%
%TA.AperFunction,SMDPad,CuDef*%
%ADD43R,0.250000X0.500000*%
%TD*%
%TA.AperFunction,SMDPad,CuDef*%
%ADD44R,2.300000X2.700000*%
%TD*%
%TA.AperFunction,SMDPad,CuDef*%
%ADD45RoundRect,0.250000X0.250000X0.475000X-0.250000X0.475000X-0.250000X-0.475000X0.250000X-0.475000X0*%
%TD*%
%TA.AperFunction,SMDPad,CuDef*%
%ADD46RoundRect,0.250000X0.475000X-0.250000X0.475000X0.250000X-0.475000X0.250000X-0.475000X-0.250000X0*%
%TD*%
%TA.AperFunction,SMDPad,CuDef*%
%ADD47RoundRect,0.100000X-0.100000X0.130000X-0.100000X-0.130000X0.100000X-0.130000X0.100000X0.130000X0*%
%TD*%
%TA.AperFunction,SMDPad,CuDef*%
%ADD48RoundRect,0.140000X0.170000X-0.140000X0.170000X0.140000X-0.170000X0.140000X-0.170000X-0.140000X0*%
%TD*%
%TA.AperFunction,SMDPad,CuDef*%
%ADD49RoundRect,0.135000X0.135000X0.185000X-0.135000X0.185000X-0.135000X-0.185000X0.135000X-0.185000X0*%
%TD*%
%TA.AperFunction,SMDPad,CuDef*%
%ADD50R,0.250000X0.600000*%
%TD*%
%TA.AperFunction,SMDPad,CuDef*%
%ADD51R,0.600000X0.250000*%
%TD*%
%TA.AperFunction,SMDPad,CuDef*%
%ADD52R,2.450000X2.450000*%
%TD*%
%TA.AperFunction,SMDPad,CuDef*%
%ADD53RoundRect,0.250000X-0.475000X0.250000X-0.475000X-0.250000X0.475000X-0.250000X0.475000X0.250000X0*%
%TD*%
%TA.AperFunction,SMDPad,CuDef*%
%ADD54RoundRect,0.135000X-0.135000X-0.185000X0.135000X-0.185000X0.135000X0.185000X-0.135000X0.185000X0*%
%TD*%
%TA.AperFunction,SMDPad,CuDef*%
%ADD55RoundRect,0.250000X-0.250000X-0.475000X0.250000X-0.475000X0.250000X0.475000X-0.250000X0.475000X0*%
%TD*%
%TA.AperFunction,SMDPad,CuDef*%
%ADD56FreePoly0,180.000000*%
%TD*%
%TA.AperFunction,SMDPad,CuDef*%
%ADD57FreePoly1,180.000000*%
%TD*%
%TA.AperFunction,SMDPad,CuDef*%
%ADD58FreePoly2,180.000000*%
%TD*%
%TA.AperFunction,SMDPad,CuDef*%
%ADD59FreePoly3,180.000000*%
%TD*%
%TA.AperFunction,SMDPad,CuDef*%
%ADD60FreePoly4,180.000000*%
%TD*%
%TA.AperFunction,SMDPad,CuDef*%
%ADD61FreePoly5,180.000000*%
%TD*%
%TA.AperFunction,SMDPad,CuDef*%
%ADD62FreePoly6,180.000000*%
%TD*%
%TA.AperFunction,SMDPad,CuDef*%
%ADD63FreePoly7,180.000000*%
%TD*%
%TA.AperFunction,SMDPad,CuDef*%
%ADD64R,1.600000X3.500000*%
%TD*%
%TA.AperFunction,SMDPad,CuDef*%
%ADD65FreePoly0,0.000000*%
%TD*%
%TA.AperFunction,SMDPad,CuDef*%
%ADD66FreePoly1,0.000000*%
%TD*%
%TA.AperFunction,SMDPad,CuDef*%
%ADD67FreePoly2,0.000000*%
%TD*%
%TA.AperFunction,SMDPad,CuDef*%
%ADD68FreePoly3,0.000000*%
%TD*%
%TA.AperFunction,SMDPad,CuDef*%
%ADD69FreePoly4,0.000000*%
%TD*%
%TA.AperFunction,SMDPad,CuDef*%
%ADD70FreePoly5,0.000000*%
%TD*%
%TA.AperFunction,SMDPad,CuDef*%
%ADD71FreePoly6,0.000000*%
%TD*%
%TA.AperFunction,SMDPad,CuDef*%
%ADD72FreePoly7,0.000000*%
%TD*%
%TA.AperFunction,ViaPad*%
%ADD73C,0.250000*%
%TD*%
%TA.AperFunction,ViaPad*%
%ADD74C,0.350000*%
%TD*%
%TA.AperFunction,ViaPad*%
%ADD75C,0.500000*%
%TD*%
%TA.AperFunction,ViaPad*%
%ADD76C,0.450000*%
%TD*%
%TA.AperFunction,Conductor*%
%ADD77C,0.100000*%
%TD*%
%TA.AperFunction,Conductor*%
%ADD78C,0.200000*%
%TD*%
%TA.AperFunction,Conductor*%
%ADD79C,0.120000*%
%TD*%
%TA.AperFunction,Conductor*%
%ADD80C,0.150000*%
%TD*%
%TA.AperFunction,Conductor*%
%ADD81C,0.250000*%
%TD*%
%TA.AperFunction,Conductor*%
%ADD82C,0.400000*%
%TD*%
G04 APERTURE END LIST*
D10*
%TO.P,P_BAT+,1*%
%TO.N,VBAT*%
X90500000Y-116100000D03*
%TD*%
%TO.P,P_BAT-,1*%
%TO.N,GND*%
X109500000Y-116100000D03*
%TD*%
D11*
%TO.P,R30,1*%
%TO.N,M2_CMP_A*%
X106310000Y-92790000D03*
%TO.P,R30,2*%
%TO.N,GND*%
X105670000Y-92790000D03*
%TD*%
D12*
%TO.P,R61,1*%
%TO.N,M4_A*%
X102500000Y-84090000D03*
%TO.P,R61,2*%
%TO.N,M4_CMP_A*%
X102500000Y-85110000D03*
%TD*%
D13*
%TO.P,C23,1*%
%TO.N,GVDD*%
X104180000Y-102450000D03*
%TO.P,C23,2*%
%TO.N,GND*%
X103220000Y-102450000D03*
%TD*%
D14*
%TO.P,R15,1*%
%TO.N,M1_CMP_A*%
X103430000Y-104450000D03*
%TO.P,R15,2*%
%TO.N,M1_NEUTRAL*%
X104070000Y-104450000D03*
%TD*%
D12*
%TO.P,R71,1*%
%TO.N,M4_C*%
X92640000Y-84090000D03*
%TO.P,R71,2*%
%TO.N,M4_CMP_C*%
X92640000Y-85110000D03*
%TD*%
D15*
%TO.P,U_ESC2,1*%
%TO.N,N/C*%
X105320000Y-99120000D03*
D16*
%TO.P,U_ESC2,2*%
X105270000Y-98620000D03*
%TO.P,U_ESC2,3*%
%TO.N,+3V3*%
X105270000Y-98120000D03*
%TO.P,U_ESC2,4*%
%TO.N,GND*%
X105270000Y-97620000D03*
%TO.P,U_ESC2,5*%
%TO.N,M2_NRST*%
X105270000Y-97120000D03*
%TO.P,U_ESC2,6*%
%TO.N,N/C*%
X105270000Y-96620000D03*
D17*
%TO.P,U_ESC2,7*%
X105320000Y-96120000D03*
D18*
%TO.P,U_ESC2,8*%
%TO.N,M2_CMP_C*%
X105700000Y-95740000D03*
D19*
%TO.P,U_ESC2,9*%
%TO.N,M2_NEUTRAL*%
X106200000Y-95690000D03*
%TO.P,U_ESC2,10*%
%TO.N,N/C*%
X106700000Y-95690000D03*
%TO.P,U_ESC2,11*%
%TO.N,M2_ISENSE*%
X107200000Y-95690000D03*
%TO.P,U_ESC2,12*%
%TO.N,ESC_VSENSE*%
X107700000Y-95690000D03*
%TO.P,U_ESC2,13*%
%TO.N,M2_LC*%
X108200000Y-95690000D03*
D20*
%TO.P,U_ESC2,14*%
%TO.N,M2_LB*%
X108700000Y-95740000D03*
D21*
%TO.P,U_ESC2,15*%
%TO.N,M2_LA*%
X109080000Y-96120000D03*
D16*
%TO.P,U_ESC2,16*%
%TO.N,M2_HC*%
X109130000Y-96620000D03*
%TO.P,U_ESC2,17*%
%TO.N,N/C*%
X109130000Y-97120000D03*
%TO.P,U_ESC2,18*%
%TO.N,M2_HB*%
X109130000Y-97620000D03*
%TO.P,U_ESC2,19*%
%TO.N,M2_HA*%
X109130000Y-98120000D03*
%TO.P,U_ESC2,20*%
%TO.N,M2_SWDIO*%
X109130000Y-98620000D03*
D22*
%TO.P,U_ESC2,21*%
%TO.N,M2_SWCLK*%
X109080000Y-99120000D03*
D23*
%TO.P,U_ESC2,22*%
%TO.N,N/C*%
X108700000Y-99500000D03*
D19*
%TO.P,U_ESC2,23*%
%TO.N,M2_CMP_B*%
X108200000Y-99550000D03*
%TO.P,U_ESC2,24*%
%TO.N,M2_SIG*%
X107700000Y-99550000D03*
%TO.P,U_ESC2,25*%
%TO.N,N/C*%
X107200000Y-99550000D03*
%TO.P,U_ESC2,26*%
X106700000Y-99550000D03*
%TO.P,U_ESC2,27*%
%TO.N,M2_CMP_A*%
X106200000Y-99550000D03*
D24*
%TO.P,U_ESC2,28*%
%TO.N,N/C*%
X105700000Y-99500000D03*
%TD*%
D14*
%TO.P,R57,1*%
%TO.N,M3_CMP_C*%
X93690000Y-105410000D03*
%TO.P,R57,2*%
%TO.N,M3_NEUTRAL*%
X94330000Y-105410000D03*
%TD*%
D25*
%TO.P,U_ESC3,1*%
%TO.N,N/C*%
X94680000Y-100880000D03*
D16*
%TO.P,U_ESC3,2*%
X94730000Y-101380000D03*
%TO.P,U_ESC3,3*%
%TO.N,+3V3*%
X94730000Y-101880000D03*
%TO.P,U_ESC3,4*%
%TO.N,GND*%
X94730000Y-102380000D03*
%TO.P,U_ESC3,5*%
%TO.N,M3_NRST*%
X94730000Y-102880000D03*
%TO.P,U_ESC3,6*%
%TO.N,N/C*%
X94730000Y-103380000D03*
D26*
%TO.P,U_ESC3,7*%
X94680000Y-103880000D03*
D27*
%TO.P,U_ESC3,8*%
%TO.N,M3_CMP_C*%
X94300000Y-104260000D03*
D19*
%TO.P,U_ESC3,9*%
%TO.N,M3_NEUTRAL*%
X93800000Y-104310000D03*
%TO.P,U_ESC3,10*%
%TO.N,N/C*%
X93300000Y-104310000D03*
%TO.P,U_ESC3,11*%
%TO.N,M3_ISENSE*%
X92800000Y-104310000D03*
%TO.P,U_ESC3,12*%
%TO.N,ESC_VSENSE*%
X92300000Y-104310000D03*
%TO.P,U_ESC3,13*%
%TO.N,M3_LC*%
X91800000Y-104310000D03*
D28*
%TO.P,U_ESC3,14*%
%TO.N,M3_LB*%
X91300000Y-104260000D03*
D29*
%TO.P,U_ESC3,15*%
%TO.N,M3_LA*%
X90920000Y-103880000D03*
D16*
%TO.P,U_ESC3,16*%
%TO.N,M3_HC*%
X90870000Y-103380000D03*
%TO.P,U_ESC3,17*%
%TO.N,N/C*%
X90870000Y-102880000D03*
%TO.P,U_ESC3,18*%
%TO.N,M3_HB*%
X90870000Y-102380000D03*
%TO.P,U_ESC3,19*%
%TO.N,M3_HA*%
X90870000Y-101880000D03*
%TO.P,U_ESC3,20*%
%TO.N,M3_SWDIO*%
X90870000Y-101380000D03*
D30*
%TO.P,U_ESC3,21*%
%TO.N,M3_SWCLK*%
X90920000Y-100880000D03*
D31*
%TO.P,U_ESC3,22*%
%TO.N,N/C*%
X91300000Y-100500000D03*
D19*
%TO.P,U_ESC3,23*%
%TO.N,M3_CMP_B*%
X91800000Y-100450000D03*
%TO.P,U_ESC3,24*%
%TO.N,M3_SIG*%
X92300000Y-100450000D03*
%TO.P,U_ESC3,25*%
%TO.N,N/C*%
X92800000Y-100450000D03*
%TO.P,U_ESC3,26*%
X93300000Y-100450000D03*
%TO.P,U_ESC3,27*%
%TO.N,M3_CMP_A*%
X93800000Y-100450000D03*
D32*
%TO.P,U_ESC3,28*%
%TO.N,N/C*%
X94300000Y-100500000D03*
%TD*%
D33*
%TO.P,C35,1*%
%TO.N,GVDD*%
X95820000Y-97550000D03*
%TO.P,C35,2*%
%TO.N,GND*%
X96780000Y-97550000D03*
%TD*%
D34*
%TO.P,R18,1*%
%TO.N,M1_B*%
X102500000Y-115910000D03*
%TO.P,R18,2*%
%TO.N,M1_CMP_B*%
X102500000Y-114890000D03*
%TD*%
D35*
%TO.P,C47,1*%
%TO.N,GVDD*%
X102450000Y-95820000D03*
%TO.P,C47,2*%
%TO.N,GND*%
X102450000Y-96780000D03*
%TD*%
D36*
%TO.P,Q4CL,1*%
%TO.N,M4_SRC*%
X95970000Y-86980000D03*
%TO.P,Q4CL,2*%
X95320000Y-86980000D03*
%TO.P,Q4CL,3*%
X94680000Y-86980000D03*
%TO.P,Q4CL,4*%
%TO.N,M4_GLC*%
X94030000Y-86980000D03*
%TO.P,Q4CL,5*%
%TO.N,M4_C*%
X94030000Y-83620000D03*
%TO.P,Q4CL,6*%
X94680000Y-83620000D03*
%TO.P,Q4CL,7*%
X95320000Y-83620000D03*
%TO.P,Q4CL,8*%
X95970000Y-83620000D03*
D37*
%TO.P,Q4CL,9*%
X96420000Y-85300000D03*
D38*
X94980000Y-84980000D03*
D37*
X93580000Y-85300000D03*
%TD*%
D39*
%TO.P,R12,1*%
%TO.N,M1_GLA_D*%
X97500000Y-114070000D03*
%TO.P,R12,2*%
%TO.N,M1_GLA*%
X97500000Y-113430000D03*
%TD*%
D40*
%TO.P,R_SH2,1*%
%TO.N,M2_SRC*%
X108000000Y-90450000D03*
%TO.P,R_SH2,2*%
%TO.N,GND*%
X108000000Y-93550000D03*
D41*
%TO.P,R_SH2,3*%
%TO.N,M2_SNSP*%
X109100000Y-91175000D03*
%TO.P,R_SH2,4*%
%TO.N,M2_SNSN*%
X109100000Y-92825000D03*
%TD*%
D42*
%TO.P,R_SH1,1*%
%TO.N,M1_SRC*%
X109550000Y-108000000D03*
%TO.P,R_SH1,2*%
%TO.N,GND*%
X106450000Y-108000000D03*
D43*
%TO.P,R_SH1,3*%
%TO.N,M1_SNSP*%
X108825000Y-109100000D03*
%TO.P,R_SH1,4*%
%TO.N,M1_SNSN*%
X107175000Y-109100000D03*
%TD*%
D39*
%TO.P,R22,1*%
%TO.N,M1_GLC_D*%
X107500000Y-114070000D03*
%TO.P,R22,2*%
%TO.N,M1_GLC*%
X107500000Y-113430000D03*
%TD*%
D37*
%TO.P,Q3CL,1*%
%TO.N,M3_SRC*%
X86980000Y-104030000D03*
%TO.P,Q3CL,2*%
X86980000Y-104680000D03*
%TO.P,Q3CL,3*%
X86980000Y-105320000D03*
%TO.P,Q3CL,4*%
%TO.N,M3_GLC*%
X86980000Y-105970000D03*
%TO.P,Q3CL,5*%
%TO.N,M3_C*%
X83620000Y-105970000D03*
%TO.P,Q3CL,6*%
X83620000Y-105320000D03*
%TO.P,Q3CL,7*%
X83620000Y-104680000D03*
%TO.P,Q3CL,8*%
X83620000Y-104030000D03*
D36*
%TO.P,Q3CL,9*%
X85300000Y-103580000D03*
D44*
X84980000Y-105020000D03*
D36*
X85300000Y-106420000D03*
%TD*%
D39*
%TO.P,R17,1*%
%TO.N,M1_GLB_D*%
X102500000Y-114070000D03*
%TO.P,R17,2*%
%TO.N,M1_GLB*%
X102500000Y-113430000D03*
%TD*%
D45*
%TO.P,C17,1*%
%TO.N,VBAT*%
X105950000Y-110650000D03*
%TO.P,C17,2*%
%TO.N,M1_SRC*%
X104050000Y-110650000D03*
%TD*%
D46*
%TO.P,C39,1*%
%TO.N,VBAT*%
X89350000Y-100950000D03*
%TO.P,C39,2*%
%TO.N,M3_SRC*%
X89350000Y-99050000D03*
%TD*%
D47*
%TO.P,R72,1*%
%TO.N,M4_CMP_C*%
X93690000Y-93690000D03*
%TO.P,R72,2*%
%TO.N,GND*%
X93690000Y-94330000D03*
%TD*%
D46*
%TO.P,C37,1*%
%TO.N,VBAT*%
X89350000Y-95950000D03*
%TO.P,C37,2*%
%TO.N,M3_SRC*%
X89350000Y-94050000D03*
%TD*%
D47*
%TO.P,R67,1*%
%TO.N,M4_CMP_B*%
X90990000Y-93690000D03*
%TO.P,R67,2*%
%TO.N,GND*%
X90990000Y-94330000D03*
%TD*%
D48*
%TO.P,C8,1*%
%TO.N,+3V3*%
X101850000Y-104180000D03*
%TO.P,C8,2*%
%TO.N,GND*%
X101850000Y-103220000D03*
%TD*%
D37*
%TO.P,Q3AL,1*%
%TO.N,M3_SRC*%
X86980000Y-94030000D03*
%TO.P,Q3AL,2*%
X86980000Y-94680000D03*
%TO.P,Q3AL,3*%
X86980000Y-95320000D03*
%TO.P,Q3AL,4*%
%TO.N,M3_GLA*%
X86980000Y-95970000D03*
%TO.P,Q3AL,5*%
%TO.N,M3_A*%
X83620000Y-95970000D03*
%TO.P,Q3AL,6*%
X83620000Y-95320000D03*
%TO.P,Q3AL,7*%
X83620000Y-94680000D03*
%TO.P,Q3AL,8*%
X83620000Y-94030000D03*
D36*
%TO.P,Q3AL,9*%
X85300000Y-93580000D03*
D44*
X84980000Y-95020000D03*
D36*
X85300000Y-96420000D03*
%TD*%
D49*
%TO.P,R7,1*%
%TO.N,GVDD*%
X104185000Y-99315000D03*
%TO.P,R7,2*%
%TO.N,GVDD_FB*%
X103165000Y-99315000D03*
%TD*%
D47*
%TO.P,R47,1*%
%TO.N,M3_CMP_A*%
X95550000Y-103430000D03*
%TO.P,R47,2*%
%TO.N,M3_NEUTRAL*%
X95550000Y-104070000D03*
%TD*%
D37*
%TO.P,Q2AL,1*%
%TO.N,M2_SRC*%
X113020000Y-105970000D03*
%TO.P,Q2AL,2*%
X113020000Y-105320000D03*
%TO.P,Q2AL,3*%
X113020000Y-104680000D03*
%TO.P,Q2AL,4*%
%TO.N,M2_GLA*%
X113020000Y-104030000D03*
%TO.P,Q2AL,5*%
%TO.N,M2_A*%
X116380000Y-104030000D03*
%TO.P,Q2AL,6*%
X116380000Y-104680000D03*
%TO.P,Q2AL,7*%
X116380000Y-105320000D03*
%TO.P,Q2AL,8*%
X116380000Y-105970000D03*
D36*
%TO.P,Q2AL,9*%
X114700000Y-106420000D03*
D44*
X115020000Y-104980000D03*
D36*
X114700000Y-103580000D03*
%TD*%
D50*
%TO.P,U_GD1,1*%
%TO.N,M1_LA*%
X96060000Y-105300000D03*
%TO.P,U_GD1,2*%
%TO.N,M1_LB*%
X96560000Y-105300000D03*
%TO.P,U_GD1,3*%
%TO.N,M1_LC*%
X97060000Y-105300000D03*
%TO.P,U_GD1,4*%
%TO.N,GVDD*%
X97560000Y-105300000D03*
%TO.P,U_GD1,5*%
%TO.N,N/C*%
X98060000Y-105300000D03*
%TO.P,U_GD1,6*%
%TO.N,GND*%
X98560000Y-105300000D03*
D51*
%TO.P,U_GD1,7*%
%TO.N,N/C*%
X99210000Y-105950000D03*
%TO.P,U_GD1,8*%
X99210000Y-106450000D03*
%TO.P,U_GD1,9*%
%TO.N,M1_GLC_D*%
X99210000Y-106950000D03*
%TO.P,U_GD1,10*%
%TO.N,M1_GLB_D*%
X99210000Y-107450000D03*
%TO.P,U_GD1,11*%
%TO.N,M1_GLA_D*%
X99210000Y-107950000D03*
%TO.P,U_GD1,12*%
%TO.N,M1_C*%
X99210000Y-108450000D03*
D50*
%TO.P,U_GD1,13*%
%TO.N,M1_GHC_D*%
X98560000Y-109100000D03*
%TO.P,U_GD1,14*%
%TO.N,M1_BSTC*%
X98060000Y-109100000D03*
%TO.P,U_GD1,15*%
%TO.N,M1_B*%
X97560000Y-109100000D03*
%TO.P,U_GD1,16*%
%TO.N,M1_GHB_D*%
X97060000Y-109100000D03*
%TO.P,U_GD1,17*%
%TO.N,M1_BSTB*%
X96560000Y-109100000D03*
%TO.P,U_GD1,18*%
%TO.N,M1_A*%
X96060000Y-109100000D03*
D51*
%TO.P,U_GD1,19*%
%TO.N,M1_GHA_D*%
X95410000Y-108450000D03*
%TO.P,U_GD1,20*%
%TO.N,M1_BSTA*%
X95410000Y-107950000D03*
%TO.P,U_GD1,21*%
%TO.N,N/C*%
X95410000Y-107450000D03*
%TO.P,U_GD1,22*%
%TO.N,M1_HA*%
X95410000Y-106950000D03*
%TO.P,U_GD1,23*%
%TO.N,M1_HB*%
X95410000Y-106450000D03*
%TO.P,U_GD1,24*%
%TO.N,M1_HC*%
X95410000Y-105950000D03*
D52*
%TO.P,U_GD1,25*%
%TO.N,GND*%
X97310000Y-107200000D03*
%TD*%
D14*
%TO.P,R44,1*%
%TO.N,M3_GLA_D*%
X85930000Y-97500000D03*
%TO.P,R44,2*%
%TO.N,M3_GLA*%
X86570000Y-97500000D03*
%TD*%
D48*
%TO.P,C10,1*%
%TO.N,GVDD*%
X98750000Y-104180000D03*
%TO.P,C10,2*%
%TO.N,GND*%
X98750000Y-103220000D03*
%TD*%
D11*
%TO.P,R40,1*%
%TO.N,M2_CMP_C*%
X106310000Y-93690000D03*
%TO.P,R40,2*%
%TO.N,GND*%
X105670000Y-93690000D03*
%TD*%
D47*
%TO.P,R26,1*%
%TO.N,M1_IOUT*%
X108110000Y-105670000D03*
%TO.P,R26,2*%
%TO.N,M1_ISENSE*%
X108110000Y-106310000D03*
%TD*%
D49*
%TO.P,R29,1*%
%TO.N,M2_A*%
X115910000Y-102500000D03*
%TO.P,R29,2*%
%TO.N,M2_CMP_A*%
X114890000Y-102500000D03*
%TD*%
D11*
%TO.P,R33,1*%
%TO.N,M2_GLB_D*%
X114070000Y-97500000D03*
%TO.P,R33,2*%
%TO.N,M2_GLB*%
X113430000Y-97500000D03*
%TD*%
D14*
%TO.P,R42,1*%
%TO.N,M2_IOUT*%
X105670000Y-91890000D03*
%TO.P,R42,2*%
%TO.N,M2_ISENSE*%
X106310000Y-91890000D03*
%TD*%
D35*
%TO.P,C44,1*%
%TO.N,+3V3*%
X98150000Y-95820000D03*
%TO.P,C44,2*%
%TO.N,GND*%
X98150000Y-96780000D03*
%TD*%
D45*
%TO.P,C13,1*%
%TO.N,VBAT*%
X95950000Y-110650000D03*
%TO.P,C13,2*%
%TO.N,M1_SRC*%
X94050000Y-110650000D03*
%TD*%
D53*
%TO.P,C29,1*%
%TO.N,VBAT*%
X110650000Y-94050000D03*
%TO.P,C29,2*%
%TO.N,M2_SRC*%
X110650000Y-95950000D03*
%TD*%
D40*
%TO.P,R_SH3,1*%
%TO.N,M3_SRC*%
X92000000Y-109550000D03*
%TO.P,R_SH3,2*%
%TO.N,GND*%
X92000000Y-106450000D03*
D41*
%TO.P,R_SH3,3*%
%TO.N,M3_SNSP*%
X90900000Y-108825000D03*
%TO.P,R_SH3,4*%
%TO.N,M3_SNSN*%
X90900000Y-107175000D03*
%TD*%
D14*
%TO.P,R56,1*%
%TO.N,M3_CMP_C*%
X93690000Y-106310000D03*
%TO.P,R56,2*%
%TO.N,GND*%
X94330000Y-106310000D03*
%TD*%
D42*
%TO.P,R_SH4,1*%
%TO.N,M4_SRC*%
X90450000Y-92000000D03*
%TO.P,R_SH4,2*%
%TO.N,GND*%
X93550000Y-92000000D03*
D43*
%TO.P,R_SH4,3*%
%TO.N,M4_SNSP*%
X91175000Y-90900000D03*
%TO.P,R_SH4,4*%
%TO.N,M4_SNSN*%
X92825000Y-90900000D03*
%TD*%
D39*
%TO.P,R14,1*%
%TO.N,M1_CMP_A*%
X107210000Y-106310000D03*
%TO.P,R14,2*%
%TO.N,GND*%
X107210000Y-105670000D03*
%TD*%
D54*
%TO.P,R45,1*%
%TO.N,M3_A*%
X84090000Y-97500000D03*
%TO.P,R45,2*%
%TO.N,M3_CMP_A*%
X85110000Y-97500000D03*
%TD*%
%TO.P,R55,1*%
%TO.N,M3_C*%
X84090000Y-107360000D03*
%TO.P,R55,2*%
%TO.N,M3_CMP_C*%
X85110000Y-107360000D03*
%TD*%
D12*
%TO.P,R66,1*%
%TO.N,M4_B*%
X97500000Y-84090000D03*
%TO.P,R66,2*%
%TO.N,M4_CMP_B*%
X97500000Y-85110000D03*
%TD*%
D33*
%TO.P,C32,1*%
%TO.N,+3V3*%
X95820000Y-101850000D03*
%TO.P,C32,2*%
%TO.N,GND*%
X96780000Y-101850000D03*
%TD*%
D55*
%TO.P,C49,1*%
%TO.N,VBAT*%
X104050000Y-89350000D03*
%TO.P,C49,2*%
%TO.N,M4_SRC*%
X105950000Y-89350000D03*
%TD*%
D51*
%TO.P,U_GD2,1*%
%TO.N,M2_LA*%
X105300000Y-103940000D03*
%TO.P,U_GD2,2*%
%TO.N,M2_LB*%
X105300000Y-103440000D03*
%TO.P,U_GD2,3*%
%TO.N,M2_LC*%
X105300000Y-102940000D03*
%TO.P,U_GD2,4*%
%TO.N,GVDD*%
X105300000Y-102440000D03*
%TO.P,U_GD2,5*%
%TO.N,N/C*%
X105300000Y-101940000D03*
%TO.P,U_GD2,6*%
%TO.N,GND*%
X105300000Y-101440000D03*
D50*
%TO.P,U_GD2,7*%
%TO.N,N/C*%
X105950000Y-100790000D03*
%TO.P,U_GD2,8*%
X106450000Y-100790000D03*
%TO.P,U_GD2,9*%
%TO.N,M2_GLC_D*%
X106950000Y-100790000D03*
%TO.P,U_GD2,10*%
%TO.N,M2_GLB_D*%
X107450000Y-100790000D03*
%TO.P,U_GD2,11*%
%TO.N,M2_GLA_D*%
X107950000Y-100790000D03*
%TO.P,U_GD2,12*%
%TO.N,M2_C*%
X108450000Y-100790000D03*
D51*
%TO.P,U_GD2,13*%
%TO.N,M2_GHC_D*%
X109100000Y-101440000D03*
%TO.P,U_GD2,14*%
%TO.N,M2_BSTC*%
X109100000Y-101940000D03*
%TO.P,U_GD2,15*%
%TO.N,M2_B*%
X109100000Y-102440000D03*
%TO.P,U_GD2,16*%
%TO.N,M2_GHB_D*%
X109100000Y-102940000D03*
%TO.P,U_GD2,17*%
%TO.N,M2_BSTB*%
X109100000Y-103440000D03*
%TO.P,U_GD2,18*%
%TO.N,M2_A*%
X109100000Y-103940000D03*
D50*
%TO.P,U_GD2,19*%
%TO.N,M2_GHA_D*%
X108450000Y-104590000D03*
%TO.P,U_GD2,20*%
%TO.N,M2_BSTA*%
X107950000Y-104590000D03*
%TO.P,U_GD2,21*%
%TO.N,N/C*%
X107450000Y-104590000D03*
%TO.P,U_GD2,22*%
%TO.N,M2_HA*%
X106950000Y-104590000D03*
%TO.P,U_GD2,23*%
%TO.N,M2_HB*%
X106450000Y-104590000D03*
%TO.P,U_GD2,24*%
%TO.N,M2_HC*%
X105950000Y-104590000D03*
D52*
%TO.P,U_GD2,25*%
%TO.N,GND*%
X107200000Y-102690000D03*
%TD*%
D36*
%TO.P,Q1CL,1*%
%TO.N,M1_SRC*%
X104030000Y-113020000D03*
%TO.P,Q1CL,2*%
X104680000Y-113020000D03*
%TO.P,Q1CL,3*%
X105320000Y-113020000D03*
%TO.P,Q1CL,4*%
%TO.N,M1_GLC*%
X105970000Y-113020000D03*
%TO.P,Q1CL,5*%
%TO.N,M1_C*%
X105970000Y-116380000D03*
%TO.P,Q1CL,6*%
X105320000Y-116380000D03*
%TO.P,Q1CL,7*%
X104680000Y-116380000D03*
%TO.P,Q1CL,8*%
X104030000Y-116380000D03*
D37*
%TO.P,Q1CL,9*%
X103580000Y-114700000D03*
D38*
X105020000Y-115020000D03*
D37*
X106420000Y-114700000D03*
%TD*%
D13*
%TO.P,C22,1*%
%TO.N,GVDD*%
X104180000Y-101250000D03*
%TO.P,C22,2*%
%TO.N,GND*%
X103220000Y-101250000D03*
%TD*%
D47*
%TO.P,R65,1*%
%TO.N,M4_GLB_D*%
X97500000Y-85930000D03*
%TO.P,R65,2*%
%TO.N,M4_GLB*%
X97500000Y-86570000D03*
%TD*%
%TO.P,R60,1*%
%TO.N,M4_GLA_D*%
X102500000Y-85930000D03*
%TO.P,R60,2*%
%TO.N,M4_GLA*%
X102500000Y-86570000D03*
%TD*%
D39*
%TO.P,R24,1*%
%TO.N,M1_CMP_C*%
X106310000Y-106310000D03*
%TO.P,R24,2*%
%TO.N,GND*%
X106310000Y-105670000D03*
%TD*%
D13*
%TO.P,C20,1*%
%TO.N,+3V3*%
X104180000Y-98150000D03*
%TO.P,C20,2*%
%TO.N,GND*%
X103220000Y-98150000D03*
%TD*%
D14*
%TO.P,R51,1*%
%TO.N,M3_CMP_B*%
X93690000Y-109010000D03*
%TO.P,R51,2*%
%TO.N,GND*%
X94330000Y-109010000D03*
%TD*%
D39*
%TO.P,R25,1*%
%TO.N,M1_CMP_C*%
X105410000Y-106310000D03*
%TO.P,R25,2*%
%TO.N,M1_NEUTRAL*%
X105410000Y-105670000D03*
%TD*%
D51*
%TO.P,U_GD3,1*%
%TO.N,M3_LA*%
X94700000Y-96060000D03*
%TO.P,U_GD3,2*%
%TO.N,M3_LB*%
X94700000Y-96560000D03*
%TO.P,U_GD3,3*%
%TO.N,M3_LC*%
X94700000Y-97060000D03*
%TO.P,U_GD3,4*%
%TO.N,GVDD*%
X94700000Y-97560000D03*
%TO.P,U_GD3,5*%
%TO.N,N/C*%
X94700000Y-98060000D03*
%TO.P,U_GD3,6*%
%TO.N,GND*%
X94700000Y-98560000D03*
D50*
%TO.P,U_GD3,7*%
%TO.N,N/C*%
X94050000Y-99210000D03*
%TO.P,U_GD3,8*%
X93550000Y-99210000D03*
%TO.P,U_GD3,9*%
%TO.N,M3_GLC_D*%
X93050000Y-99210000D03*
%TO.P,U_GD3,10*%
%TO.N,M3_GLB_D*%
X92550000Y-99210000D03*
%TO.P,U_GD3,11*%
%TO.N,M3_GLA_D*%
X92050000Y-99210000D03*
%TO.P,U_GD3,12*%
%TO.N,M3_C*%
X91550000Y-99210000D03*
D51*
%TO.P,U_GD3,13*%
%TO.N,M3_GHC_D*%
X90900000Y-98560000D03*
%TO.P,U_GD3,14*%
%TO.N,M3_BSTC*%
X90900000Y-98060000D03*
%TO.P,U_GD3,15*%
%TO.N,M3_B*%
X90900000Y-97560000D03*
%TO.P,U_GD3,16*%
%TO.N,M3_GHB_D*%
X90900000Y-97060000D03*
%TO.P,U_GD3,17*%
%TO.N,M3_BSTB*%
X90900000Y-96560000D03*
%TO.P,U_GD3,18*%
%TO.N,M3_A*%
X90900000Y-96060000D03*
D50*
%TO.P,U_GD3,19*%
%TO.N,M3_GHA_D*%
X91550000Y-95410000D03*
%TO.P,U_GD3,20*%
%TO.N,M3_BSTA*%
X92050000Y-95410000D03*
%TO.P,U_GD3,21*%
%TO.N,N/C*%
X92550000Y-95410000D03*
%TO.P,U_GD3,22*%
%TO.N,M3_HA*%
X93050000Y-95410000D03*
%TO.P,U_GD3,23*%
%TO.N,M3_HB*%
X93550000Y-95410000D03*
%TO.P,U_GD3,24*%
%TO.N,M3_HC*%
X94050000Y-95410000D03*
D52*
%TO.P,U_GD3,25*%
%TO.N,GND*%
X92800000Y-97310000D03*
%TD*%
D56*
%TO.P,U_ESC4,1*%
%TO.N,N/C*%
X99120000Y-94680000D03*
D19*
%TO.P,U_ESC4,2*%
X98620000Y-94730000D03*
%TO.P,U_ESC4,3*%
%TO.N,+3V3*%
X98120000Y-94730000D03*
%TO.P,U_ESC4,4*%
%TO.N,GND*%
X97620000Y-94730000D03*
%TO.P,U_ESC4,5*%
%TO.N,M4_NRST*%
X97120000Y-94730000D03*
%TO.P,U_ESC4,6*%
%TO.N,N/C*%
X96620000Y-94730000D03*
D57*
%TO.P,U_ESC4,7*%
X96120000Y-94680000D03*
D58*
%TO.P,U_ESC4,8*%
%TO.N,M4_CMP_C*%
X95740000Y-94300000D03*
D16*
%TO.P,U_ESC4,9*%
%TO.N,M4_NEUTRAL*%
X95690000Y-93800000D03*
%TO.P,U_ESC4,10*%
%TO.N,N/C*%
X95690000Y-93300000D03*
%TO.P,U_ESC4,11*%
%TO.N,M4_ISENSE*%
X95690000Y-92800000D03*
%TO.P,U_ESC4,12*%
%TO.N,ESC_VSENSE*%
X95690000Y-92300000D03*
%TO.P,U_ESC4,13*%
%TO.N,M4_LC*%
X95690000Y-91800000D03*
D59*
%TO.P,U_ESC4,14*%
%TO.N,M4_LB*%
X95740000Y-91300000D03*
D60*
%TO.P,U_ESC4,15*%
%TO.N,M4_LA*%
X96120000Y-90920000D03*
D19*
%TO.P,U_ESC4,16*%
%TO.N,M4_HC*%
X96620000Y-90870000D03*
%TO.P,U_ESC4,17*%
%TO.N,N/C*%
X97120000Y-90870000D03*
%TO.P,U_ESC4,18*%
%TO.N,M4_HB*%
X97620000Y-90870000D03*
%TO.P,U_ESC4,19*%
%TO.N,M4_HA*%
X98120000Y-90870000D03*
%TO.P,U_ESC4,20*%
%TO.N,M4_SWDIO*%
X98620000Y-90870000D03*
D61*
%TO.P,U_ESC4,21*%
%TO.N,M4_SWCLK*%
X99120000Y-90920000D03*
D62*
%TO.P,U_ESC4,22*%
%TO.N,N/C*%
X99500000Y-91300000D03*
D16*
%TO.P,U_ESC4,23*%
%TO.N,M4_CMP_B*%
X99550000Y-91800000D03*
%TO.P,U_ESC4,24*%
%TO.N,M4_SIG*%
X99550000Y-92300000D03*
%TO.P,U_ESC4,25*%
%TO.N,N/C*%
X99550000Y-92800000D03*
%TO.P,U_ESC4,26*%
X99550000Y-93300000D03*
%TO.P,U_ESC4,27*%
%TO.N,M4_CMP_A*%
X99550000Y-93800000D03*
D63*
%TO.P,U_ESC4,28*%
%TO.N,N/C*%
X99500000Y-94300000D03*
%TD*%
D36*
%TO.P,Q4AL,1*%
%TO.N,M4_SRC*%
X105970000Y-86980000D03*
%TO.P,Q4AL,2*%
X105320000Y-86980000D03*
%TO.P,Q4AL,3*%
X104680000Y-86980000D03*
%TO.P,Q4AL,4*%
%TO.N,M4_GLA*%
X104030000Y-86980000D03*
%TO.P,Q4AL,5*%
%TO.N,M4_A*%
X104030000Y-83620000D03*
%TO.P,Q4AL,6*%
X104680000Y-83620000D03*
%TO.P,Q4AL,7*%
X105320000Y-83620000D03*
%TO.P,Q4AL,8*%
X105970000Y-83620000D03*
D37*
%TO.P,Q4AL,9*%
X106420000Y-85300000D03*
D38*
X104980000Y-84980000D03*
D37*
X103580000Y-85300000D03*
%TD*%
D53*
%TO.P,C25,1*%
%TO.N,VBAT*%
X110650000Y-104050000D03*
%TO.P,C25,2*%
%TO.N,M2_SRC*%
X110650000Y-105950000D03*
%TD*%
D37*
%TO.P,Q2BL,1*%
%TO.N,M2_SRC*%
X113020000Y-100970000D03*
%TO.P,Q2BL,2*%
X113020000Y-100320000D03*
%TO.P,Q2BL,3*%
X113020000Y-99680000D03*
%TO.P,Q2BL,4*%
%TO.N,M2_GLB*%
X113020000Y-99030000D03*
%TO.P,Q2BL,5*%
%TO.N,M2_B*%
X116380000Y-99030000D03*
%TO.P,Q2BL,6*%
X116380000Y-99680000D03*
%TO.P,Q2BL,7*%
X116380000Y-100320000D03*
%TO.P,Q2BL,8*%
X116380000Y-100970000D03*
D36*
%TO.P,Q2BL,9*%
X114700000Y-101420000D03*
D44*
X115020000Y-99980000D03*
D36*
X114700000Y-98580000D03*
%TD*%
D49*
%TO.P,R34,1*%
%TO.N,M2_B*%
X115910000Y-97500000D03*
%TO.P,R34,2*%
%TO.N,M2_CMP_B*%
X114890000Y-97500000D03*
%TD*%
D45*
%TO.P,C15,1*%
%TO.N,VBAT*%
X100950000Y-110650000D03*
%TO.P,C15,2*%
%TO.N,M1_SRC*%
X99050000Y-110650000D03*
%TD*%
D39*
%TO.P,R74,1*%
%TO.N,M4_IOUT*%
X91890000Y-94330000D03*
%TO.P,R74,2*%
%TO.N,M4_ISENSE*%
X91890000Y-93690000D03*
%TD*%
D35*
%TO.P,C46,1*%
%TO.N,GVDD*%
X101250000Y-95820000D03*
%TO.P,C46,2*%
%TO.N,GND*%
X101250000Y-96780000D03*
%TD*%
D11*
%TO.P,R58,1*%
%TO.N,M3_IOUT*%
X94330000Y-108110000D03*
%TO.P,R58,2*%
%TO.N,M3_ISENSE*%
X93690000Y-108110000D03*
%TD*%
D37*
%TO.P,Q2CL,1*%
%TO.N,M2_SRC*%
X113020000Y-95970000D03*
%TO.P,Q2CL,2*%
X113020000Y-95320000D03*
%TO.P,Q2CL,3*%
X113020000Y-94680000D03*
%TO.P,Q2CL,4*%
%TO.N,M2_GLC*%
X113020000Y-94030000D03*
%TO.P,Q2CL,5*%
%TO.N,M2_C*%
X116380000Y-94030000D03*
%TO.P,Q2CL,6*%
X116380000Y-94680000D03*
%TO.P,Q2CL,7*%
X116380000Y-95320000D03*
%TO.P,Q2CL,8*%
X116380000Y-95970000D03*
D36*
%TO.P,Q2CL,9*%
X114700000Y-96420000D03*
D44*
X115020000Y-94980000D03*
D36*
X114700000Y-93580000D03*
%TD*%
%TO.P,Q4BL,1*%
%TO.N,M4_SRC*%
X100970000Y-86980000D03*
%TO.P,Q4BL,2*%
X100320000Y-86980000D03*
%TO.P,Q4BL,3*%
X99680000Y-86980000D03*
%TO.P,Q4BL,4*%
%TO.N,M4_GLB*%
X99030000Y-86980000D03*
%TO.P,Q4BL,5*%
%TO.N,M4_B*%
X99030000Y-83620000D03*
%TO.P,Q4BL,6*%
X99680000Y-83620000D03*
%TO.P,Q4BL,7*%
X100320000Y-83620000D03*
%TO.P,Q4BL,8*%
X100970000Y-83620000D03*
D37*
%TO.P,Q4BL,9*%
X101420000Y-85300000D03*
D38*
X99980000Y-84980000D03*
D37*
X98580000Y-85300000D03*
%TD*%
D14*
%TO.P,R54,1*%
%TO.N,M3_GLC_D*%
X85930000Y-107500000D03*
%TO.P,R54,2*%
%TO.N,M3_GLC*%
X86570000Y-107500000D03*
%TD*%
D39*
%TO.P,R31,1*%
%TO.N,M2_CMP_A*%
X104450000Y-96570000D03*
%TO.P,R31,2*%
%TO.N,M2_NEUTRAL*%
X104450000Y-95930000D03*
%TD*%
D33*
%TO.P,C34,1*%
%TO.N,GVDD*%
X95820000Y-98750000D03*
%TO.P,C34,2*%
%TO.N,GND*%
X96780000Y-98750000D03*
%TD*%
D36*
%TO.P,Q1AL,1*%
%TO.N,M1_SRC*%
X94030000Y-113020000D03*
%TO.P,Q1AL,2*%
X94680000Y-113020000D03*
%TO.P,Q1AL,3*%
X95320000Y-113020000D03*
%TO.P,Q1AL,4*%
%TO.N,M1_GLA*%
X95970000Y-113020000D03*
%TO.P,Q1AL,5*%
%TO.N,M1_A*%
X95970000Y-116380000D03*
%TO.P,Q1AL,6*%
X95320000Y-116380000D03*
%TO.P,Q1AL,7*%
X94680000Y-116380000D03*
%TO.P,Q1AL,8*%
X94030000Y-116380000D03*
D37*
%TO.P,Q1AL,9*%
X93580000Y-114700000D03*
D38*
X95020000Y-115020000D03*
D37*
X96420000Y-114700000D03*
%TD*%
D47*
%TO.P,R73,1*%
%TO.N,M4_CMP_C*%
X94590000Y-93690000D03*
%TO.P,R73,2*%
%TO.N,M4_NEUTRAL*%
X94590000Y-94330000D03*
%TD*%
D49*
%TO.P,R39,1*%
%TO.N,M2_C*%
X115910000Y-92640000D03*
%TO.P,R39,2*%
%TO.N,M2_CMP_C*%
X114890000Y-92640000D03*
%TD*%
D11*
%TO.P,R5,1*%
%TO.N,+3V3*%
X117115000Y-110545000D03*
%TO.P,R5,2*%
%TO.N,LED_PWR_A*%
X116475000Y-110545000D03*
%TD*%
D34*
%TO.P,R8,1*%
%TO.N,GVDD_FB*%
X100065000Y-97285000D03*
%TO.P,R8,2*%
%TO.N,GND*%
X100065000Y-96265000D03*
%TD*%
D50*
%TO.P,U_GD4,1*%
%TO.N,M4_LA*%
X103940000Y-94700000D03*
%TO.P,U_GD4,2*%
%TO.N,M4_LB*%
X103440000Y-94700000D03*
%TO.P,U_GD4,3*%
%TO.N,M4_LC*%
X102940000Y-94700000D03*
%TO.P,U_GD4,4*%
%TO.N,GVDD*%
X102440000Y-94700000D03*
%TO.P,U_GD4,5*%
%TO.N,N/C*%
X101940000Y-94700000D03*
%TO.P,U_GD4,6*%
%TO.N,GND*%
X101440000Y-94700000D03*
D51*
%TO.P,U_GD4,7*%
%TO.N,N/C*%
X100790000Y-94050000D03*
%TO.P,U_GD4,8*%
X100790000Y-93550000D03*
%TO.P,U_GD4,9*%
%TO.N,M4_GLC_D*%
X100790000Y-93050000D03*
%TO.P,U_GD4,10*%
%TO.N,M4_GLB_D*%
X100790000Y-92550000D03*
%TO.P,U_GD4,11*%
%TO.N,M4_GLA_D*%
X100790000Y-92050000D03*
%TO.P,U_GD4,12*%
%TO.N,M4_C*%
X100790000Y-91550000D03*
D50*
%TO.P,U_GD4,13*%
%TO.N,M4_GHC_D*%
X101440000Y-90900000D03*
%TO.P,U_GD4,14*%
%TO.N,M4_BSTC*%
X101940000Y-90900000D03*
%TO.P,U_GD4,15*%
%TO.N,M4_B*%
X102440000Y-90900000D03*
%TO.P,U_GD4,16*%
%TO.N,M4_GHB_D*%
X102940000Y-90900000D03*
%TO.P,U_GD4,17*%
%TO.N,M4_BSTB*%
X103440000Y-90900000D03*
%TO.P,U_GD4,18*%
%TO.N,M4_A*%
X103940000Y-90900000D03*
D51*
%TO.P,U_GD4,19*%
%TO.N,M4_GHA_D*%
X104590000Y-91550000D03*
%TO.P,U_GD4,20*%
%TO.N,M4_BSTA*%
X104590000Y-92050000D03*
%TO.P,U_GD4,21*%
%TO.N,N/C*%
X104590000Y-92550000D03*
%TO.P,U_GD4,22*%
%TO.N,M4_HA*%
X104590000Y-93050000D03*
%TO.P,U_GD4,23*%
%TO.N,M4_HB*%
X104590000Y-93550000D03*
%TO.P,U_GD4,24*%
%TO.N,M4_HC*%
X104590000Y-94050000D03*
D52*
%TO.P,U_GD4,25*%
%TO.N,GND*%
X102690000Y-92800000D03*
%TD*%
D39*
%TO.P,R19,1*%
%TO.N,M1_CMP_B*%
X109010000Y-106310000D03*
%TO.P,R19,2*%
%TO.N,GND*%
X109010000Y-105670000D03*
%TD*%
D37*
%TO.P,Q3BL,1*%
%TO.N,M3_SRC*%
X86980000Y-99030000D03*
%TO.P,Q3BL,2*%
X86980000Y-99680000D03*
%TO.P,Q3BL,3*%
X86980000Y-100320000D03*
%TO.P,Q3BL,4*%
%TO.N,M3_GLB*%
X86980000Y-100970000D03*
%TO.P,Q3BL,5*%
%TO.N,M3_B*%
X83620000Y-100970000D03*
%TO.P,Q3BL,6*%
X83620000Y-100320000D03*
%TO.P,Q3BL,7*%
X83620000Y-99680000D03*
%TO.P,Q3BL,8*%
X83620000Y-99030000D03*
D36*
%TO.P,Q3BL,9*%
X85300000Y-98580000D03*
D44*
X84980000Y-100020000D03*
D36*
X85300000Y-101420000D03*
%TD*%
D11*
%TO.P,R41,1*%
%TO.N,M2_CMP_C*%
X106310000Y-94590000D03*
%TO.P,R41,2*%
%TO.N,M2_NEUTRAL*%
X105670000Y-94590000D03*
%TD*%
D64*
%TO.P,L1,1*%
%TO.N,BUCK_LX*%
X98395000Y-99995000D03*
%TO.P,L1,2*%
%TO.N,+3V3*%
X101595000Y-99995000D03*
%TD*%
D47*
%TO.P,R70,1*%
%TO.N,M4_GLC_D*%
X92500000Y-85930000D03*
%TO.P,R70,2*%
%TO.N,M4_GLC*%
X92500000Y-86570000D03*
%TD*%
D34*
%TO.P,R23,1*%
%TO.N,M1_C*%
X107360000Y-115910000D03*
%TO.P,R23,2*%
%TO.N,M1_CMP_C*%
X107360000Y-114890000D03*
%TD*%
D55*
%TO.P,C53,1*%
%TO.N,VBAT*%
X94050000Y-89350000D03*
%TO.P,C53,2*%
%TO.N,M4_SRC*%
X95950000Y-89350000D03*
%TD*%
D13*
%TO.P,C7,1*%
%TO.N,ESC_VSENSE*%
X96835000Y-100655000D03*
%TO.P,C7,2*%
%TO.N,GND*%
X95875000Y-100655000D03*
%TD*%
D47*
%TO.P,R62,1*%
%TO.N,M4_CMP_A*%
X92790000Y-93690000D03*
%TO.P,R62,2*%
%TO.N,GND*%
X92790000Y-94330000D03*
%TD*%
D11*
%TO.P,R35,1*%
%TO.N,M2_CMP_B*%
X106310000Y-90990000D03*
%TO.P,R35,2*%
%TO.N,GND*%
X105670000Y-90990000D03*
%TD*%
%TO.P,R63,1*%
%TO.N,M4_CMP_A*%
X96570000Y-95550000D03*
%TO.P,R63,2*%
%TO.N,M4_NEUTRAL*%
X95930000Y-95550000D03*
%TD*%
D54*
%TO.P,R50,1*%
%TO.N,M3_B*%
X84090000Y-102500000D03*
%TO.P,R50,2*%
%TO.N,M3_CMP_B*%
X85110000Y-102500000D03*
%TD*%
D36*
%TO.P,Q1BL,1*%
%TO.N,M1_SRC*%
X99030000Y-113020000D03*
%TO.P,Q1BL,2*%
X99680000Y-113020000D03*
%TO.P,Q1BL,3*%
X100320000Y-113020000D03*
%TO.P,Q1BL,4*%
%TO.N,M1_GLB*%
X100970000Y-113020000D03*
%TO.P,Q1BL,5*%
%TO.N,M1_B*%
X100970000Y-116380000D03*
%TO.P,Q1BL,6*%
X100320000Y-116380000D03*
%TO.P,Q1BL,7*%
X99680000Y-116380000D03*
%TO.P,Q1BL,8*%
X99030000Y-116380000D03*
D37*
%TO.P,Q1BL,9*%
X98580000Y-114700000D03*
D38*
X100020000Y-115020000D03*
D37*
X101420000Y-114700000D03*
%TD*%
D55*
%TO.P,C51,1*%
%TO.N,VBAT*%
X99050000Y-89350000D03*
%TO.P,C51,2*%
%TO.N,M4_SRC*%
X100950000Y-89350000D03*
%TD*%
D48*
%TO.P,C1,1*%
%TO.N,CUR*%
X100655000Y-104135000D03*
%TO.P,C1,2*%
%TO.N,GND*%
X100655000Y-103175000D03*
%TD*%
D11*
%TO.P,R38,1*%
%TO.N,M2_GLC_D*%
X114070000Y-92500000D03*
%TO.P,R38,2*%
%TO.N,M2_GLC*%
X113430000Y-92500000D03*
%TD*%
D14*
%TO.P,R49,1*%
%TO.N,M3_GLB_D*%
X85930000Y-102500000D03*
%TO.P,R49,2*%
%TO.N,M3_GLB*%
X86570000Y-102500000D03*
%TD*%
%TO.P,R46,1*%
%TO.N,M3_CMP_A*%
X93690000Y-107210000D03*
%TO.P,R46,2*%
%TO.N,GND*%
X94330000Y-107210000D03*
%TD*%
D46*
%TO.P,C41,1*%
%TO.N,VBAT*%
X89350000Y-105950000D03*
%TO.P,C41,2*%
%TO.N,M3_SRC*%
X89350000Y-104050000D03*
%TD*%
D65*
%TO.P,U_ESC1,1*%
%TO.N,N/C*%
X100880000Y-105320000D03*
D19*
%TO.P,U_ESC1,2*%
X101380000Y-105270000D03*
%TO.P,U_ESC1,3*%
%TO.N,+3V3*%
X101880000Y-105270000D03*
%TO.P,U_ESC1,4*%
%TO.N,GND*%
X102380000Y-105270000D03*
%TO.P,U_ESC1,5*%
%TO.N,M1_NRST*%
X102880000Y-105270000D03*
%TO.P,U_ESC1,6*%
%TO.N,N/C*%
X103380000Y-105270000D03*
D66*
%TO.P,U_ESC1,7*%
X103880000Y-105320000D03*
D67*
%TO.P,U_ESC1,8*%
%TO.N,M1_CMP_C*%
X104260000Y-105700000D03*
D16*
%TO.P,U_ESC1,9*%
%TO.N,M1_NEUTRAL*%
X104310000Y-106200000D03*
%TO.P,U_ESC1,10*%
%TO.N,N/C*%
X104310000Y-106700000D03*
%TO.P,U_ESC1,11*%
%TO.N,M1_ISENSE*%
X104310000Y-107200000D03*
%TO.P,U_ESC1,12*%
%TO.N,ESC_VSENSE*%
X104310000Y-107700000D03*
%TO.P,U_ESC1,13*%
%TO.N,M1_LC*%
X104310000Y-108200000D03*
D68*
%TO.P,U_ESC1,14*%
%TO.N,M1_LB*%
X104260000Y-108700000D03*
D69*
%TO.P,U_ESC1,15*%
%TO.N,M1_LA*%
X103880000Y-109080000D03*
D19*
%TO.P,U_ESC1,16*%
%TO.N,M1_HC*%
X103380000Y-109130000D03*
%TO.P,U_ESC1,17*%
%TO.N,N/C*%
X102880000Y-109130000D03*
%TO.P,U_ESC1,18*%
%TO.N,M1_HB*%
X102380000Y-109130000D03*
%TO.P,U_ESC1,19*%
%TO.N,M1_HA*%
X101880000Y-109130000D03*
%TO.P,U_ESC1,20*%
%TO.N,M1_SWDIO*%
X101380000Y-109130000D03*
D70*
%TO.P,U_ESC1,21*%
%TO.N,M1_SWCLK*%
X100880000Y-109080000D03*
D71*
%TO.P,U_ESC1,22*%
%TO.N,N/C*%
X100500000Y-108700000D03*
D16*
%TO.P,U_ESC1,23*%
%TO.N,M1_CMP_B*%
X100450000Y-108200000D03*
%TO.P,U_ESC1,24*%
%TO.N,M1_SIG*%
X100450000Y-107700000D03*
%TO.P,U_ESC1,25*%
%TO.N,N/C*%
X100450000Y-107200000D03*
%TO.P,U_ESC1,26*%
X100450000Y-106700000D03*
%TO.P,U_ESC1,27*%
%TO.N,M1_CMP_A*%
X100450000Y-106200000D03*
D72*
%TO.P,U_ESC1,28*%
%TO.N,N/C*%
X100500000Y-105700000D03*
%TD*%
D53*
%TO.P,C27,1*%
%TO.N,VBAT*%
X110650000Y-99050000D03*
%TO.P,C27,2*%
%TO.N,M2_SRC*%
X110650000Y-100950000D03*
%TD*%
D11*
%TO.P,R28,1*%
%TO.N,M2_GLA_D*%
X114070000Y-102500000D03*
%TO.P,R28,2*%
%TO.N,M2_GLA*%
X113430000Y-102500000D03*
%TD*%
D48*
%TO.P,C11,1*%
%TO.N,GVDD*%
X97550000Y-104180000D03*
%TO.P,C11,2*%
%TO.N,GND*%
X97550000Y-103220000D03*
%TD*%
D34*
%TO.P,R13,1*%
%TO.N,M1_A*%
X97500000Y-115910000D03*
%TO.P,R13,2*%
%TO.N,M1_CMP_A*%
X97500000Y-114890000D03*
%TD*%
D73*
%TO.N,M2_SWCLK*%
X109212489Y-99120000D03*
%TO.N,M4_CMP_B*%
X99695000Y-91800000D03*
D74*
X96979800Y-82698200D03*
D73*
X97500000Y-85175000D03*
D74*
X90990000Y-93225000D03*
%TO.N,M4_NEUTRAL*%
X95090000Y-94795000D03*
D73*
X95545000Y-93800000D03*
D75*
%TO.N,M1_B*%
X100800000Y-115100000D03*
X100000000Y-114300000D03*
X99200000Y-115900000D03*
D73*
X97560000Y-109195000D03*
D75*
X99200000Y-115100000D03*
X100000000Y-115100000D03*
X99200000Y-114300000D03*
D74*
X97075000Y-116525000D03*
D75*
X100800000Y-115900000D03*
X100000000Y-115900000D03*
D73*
%TO.N,M3_BSTA*%
X92050000Y-95315000D03*
D75*
%TO.N,M3_A*%
X84100000Y-94200000D03*
X84900000Y-95000000D03*
X84100000Y-95800000D03*
X85700000Y-94200000D03*
D73*
X90805000Y-96060000D03*
D75*
X84900000Y-94200000D03*
X84100000Y-95000000D03*
X84900000Y-95800000D03*
X85700000Y-95000000D03*
D73*
%TO.N,M3_GHA_D*%
X91550000Y-95315000D03*
%TO.N,M1_SWDIO*%
X101380000Y-109274999D03*
D75*
%TO.N,M2_C*%
X115100000Y-94200000D03*
D74*
X117015000Y-101907000D03*
D75*
X115900000Y-94200000D03*
D73*
X108450000Y-100695000D03*
D75*
X115100000Y-95800000D03*
X114300000Y-95000000D03*
X114300000Y-95800000D03*
X115100000Y-95000000D03*
X115900000Y-95000000D03*
X115900000Y-95800000D03*
D73*
%TO.N,+3V3*%
X101880000Y-105125000D03*
D74*
X94476900Y-90819200D03*
X115220000Y-110079700D03*
X105523000Y-109181000D03*
D73*
X98120000Y-94875000D03*
D74*
X109181000Y-94476900D03*
D73*
X105125000Y-98120000D03*
X94875000Y-101880000D03*
D74*
X98988200Y-105482700D03*
X99833400Y-100592200D03*
X90819200Y-105523000D03*
D75*
%TO.N,GND*%
X107600000Y-93950000D03*
D76*
X91635000Y-102880000D03*
X103220000Y-101250000D03*
X100285000Y-95655000D03*
D75*
X108400000Y-93950000D03*
D76*
X92050000Y-98060000D03*
X107950000Y-101940000D03*
X102145000Y-97450000D03*
X96780000Y-98750000D03*
D75*
X93149999Y-91600000D03*
D76*
X96560000Y-107950000D03*
X105292000Y-93832800D03*
X94707500Y-106167000D03*
X92050000Y-96560000D03*
X96780000Y-101850000D03*
X102880000Y-108365000D03*
X90491500Y-94828500D03*
D75*
X108400000Y-93149999D03*
X106050000Y-108400000D03*
D76*
X104599000Y-97440100D03*
X110785000Y-107520000D03*
X106450000Y-103440000D03*
X116150000Y-110022000D03*
X107520000Y-89215000D03*
X108365000Y-97120000D03*
X98060000Y-107950000D03*
X97165000Y-102740000D03*
X97550000Y-103220000D03*
X98150000Y-96780000D03*
D75*
X92400000Y-106050000D03*
D76*
X102450000Y-96780000D03*
X102829000Y-104199000D03*
D75*
X91600000Y-106850000D03*
D76*
X96342500Y-99845300D03*
X95401300Y-102560000D03*
D75*
X93950000Y-92400000D03*
D76*
X97120000Y-91635000D03*
X102892000Y-101883000D03*
X91750000Y-91800000D03*
D75*
X91600000Y-106050000D03*
D76*
X91800000Y-108250000D03*
X93550000Y-98060000D03*
X101940000Y-92050000D03*
X93550000Y-96560000D03*
X96780000Y-97550000D03*
X92480000Y-110785000D03*
X107950000Y-103440000D03*
X93832800Y-94707500D03*
X106525000Y-96495000D03*
X96560000Y-106450000D03*
X103440000Y-92050000D03*
X103595000Y-106575000D03*
X106167000Y-105292000D03*
X103440000Y-93550000D03*
X97440100Y-95401300D03*
X89215000Y-92480000D03*
X97745000Y-96475000D03*
D75*
X93950000Y-91600000D03*
D76*
X102757000Y-97686800D03*
X109509000Y-105171000D03*
X106450000Y-101940000D03*
X107909000Y-116500000D03*
X99558100Y-97769900D03*
D75*
X106850000Y-108400000D03*
D76*
X101940000Y-93550000D03*
X97545000Y-97625000D03*
X108200000Y-91750000D03*
X101250000Y-96780000D03*
X100297000Y-101837000D03*
X103595000Y-97025000D03*
X105171000Y-90491500D03*
X98060000Y-106450000D03*
X108250000Y-108200000D03*
X102560000Y-105941000D03*
X94828500Y-109509000D03*
D75*
X106050000Y-107600000D03*
%TO.N,M3_B*%
X84100000Y-99200000D03*
X84100000Y-100800000D03*
X84900000Y-100800000D03*
D73*
X90805000Y-97560000D03*
D75*
X84900000Y-100000000D03*
X85700000Y-100000000D03*
X84900000Y-99200000D03*
X85700000Y-99200000D03*
X84100000Y-100000000D03*
D74*
X83475000Y-97075000D03*
D75*
%TO.N,VBAT*%
X100950000Y-110300000D03*
X100950000Y-112000000D03*
X110300000Y-94050000D03*
X105100000Y-112000000D03*
X88000000Y-100950000D03*
X88900000Y-100950000D03*
X88000000Y-105100000D03*
X112000000Y-94050000D03*
X110300000Y-104050000D03*
X88900000Y-105950000D03*
X112000000Y-104900000D03*
D76*
X98165000Y-104615000D03*
D75*
X112000000Y-94900000D03*
X88000000Y-95100000D03*
X100950000Y-111100000D03*
X105950000Y-112000000D03*
D76*
X100265000Y-104810000D03*
D75*
X94900000Y-88000000D03*
D76*
X96500000Y-103060000D03*
D75*
X95100000Y-112000000D03*
X88000000Y-95950000D03*
X112000000Y-104050000D03*
X99050000Y-88900000D03*
X95950000Y-112000000D03*
X94050000Y-88000000D03*
X95950000Y-110300000D03*
X111100000Y-99050000D03*
X104050000Y-88900000D03*
X94050000Y-89700000D03*
X111100000Y-104050000D03*
X88900000Y-95950000D03*
X89700000Y-95950000D03*
X99050000Y-89700000D03*
X99050000Y-88000000D03*
X88000000Y-100100000D03*
X104900000Y-88000000D03*
X104050000Y-89700000D03*
X105950000Y-111100000D03*
X104050000Y-88000000D03*
D76*
X95110000Y-99051600D03*
D75*
X89700000Y-100950000D03*
X94050000Y-88900000D03*
X88000000Y-105950000D03*
X112000000Y-99900000D03*
X111100000Y-94050000D03*
X99900000Y-88000000D03*
X89700000Y-105950000D03*
X112000000Y-99050000D03*
X110300000Y-99050000D03*
X100100000Y-112000000D03*
X95950000Y-111100000D03*
X105950000Y-110300000D03*
D76*
X98752100Y-97830500D03*
D75*
%TO.N,M4_C*%
X95000000Y-84900000D03*
X95000000Y-84100000D03*
X95800000Y-84900000D03*
X94200000Y-84900000D03*
X95800000Y-85700000D03*
X95800000Y-84100000D03*
D73*
X100695000Y-91550000D03*
D75*
X95000000Y-85700000D03*
D74*
X101907000Y-82984700D03*
D75*
X94200000Y-84100000D03*
D73*
%TO.N,M1_GHC_D*%
X98560000Y-109195000D03*
D74*
X98066500Y-114034000D03*
X108253000Y-113743000D03*
D73*
%TO.N,M3_SWCLK*%
X90787510Y-100880000D03*
%TO.N,M3_GHB_D*%
X90805000Y-97060000D03*
%TO.N,M4_GHB_D*%
X102940000Y-90805000D03*
D74*
%TO.N,ESC_VSENSE*%
X92325000Y-103925000D03*
X107550000Y-97775000D03*
X96625000Y-104350000D03*
X102225000Y-107550000D03*
X99600000Y-104350000D03*
X99450000Y-104775000D03*
X97775000Y-92450000D03*
X96750000Y-100325000D03*
D73*
%TO.N,M3_SWDIO*%
X90725000Y-101380000D03*
%TO.N,GVDD*%
X102440000Y-94795000D03*
D74*
X100123100Y-100221900D03*
X96503800Y-93343900D03*
D73*
X94795000Y-97560000D03*
X97560000Y-105205000D03*
D74*
X106452900Y-97919600D03*
D73*
X105205000Y-102440000D03*
D74*
%TO.N,GVDD_FB*%
X102875000Y-99150000D03*
%TO.N,GVDD_IN*%
X103675000Y-95475000D03*
X101225000Y-104450000D03*
X101850000Y-95475000D03*
D73*
%TO.N,M3_BSTC*%
X90805000Y-98060000D03*
D75*
%TO.N,M3_C*%
X84100000Y-105000000D03*
D73*
X91550000Y-99305000D03*
D75*
X84900000Y-104200000D03*
X84900000Y-105000000D03*
D74*
X82984700Y-98092900D03*
D75*
X84100000Y-105800000D03*
X85700000Y-104200000D03*
X84100000Y-104200000D03*
X85700000Y-105000000D03*
X84900000Y-105800000D03*
D73*
%TO.N,M1_BSTA*%
X95315000Y-107950000D03*
D75*
%TO.N,M1_A*%
X94200000Y-115100000D03*
X94200000Y-114300000D03*
X95000000Y-114300000D03*
X95000000Y-115900000D03*
X95000000Y-115100000D03*
X95800000Y-115100000D03*
X94200000Y-115900000D03*
X95800000Y-115900000D03*
D73*
X96060000Y-109195000D03*
D75*
%TO.N,M1_C*%
X105800000Y-115900000D03*
X104200000Y-114300000D03*
X105000000Y-114300000D03*
X104200000Y-115100000D03*
D73*
X99305000Y-108450000D03*
D75*
X105800000Y-115100000D03*
D74*
X98092900Y-117015000D03*
D75*
X104200000Y-115900000D03*
X105000000Y-115900000D03*
X105000000Y-115100000D03*
D74*
%TO.N,M4_GHC_D*%
X91746800Y-86256700D03*
X101934000Y-85966000D03*
D73*
X101440000Y-90805000D03*
D75*
%TO.N,M2_B*%
X115100000Y-100000000D03*
X115100000Y-100800000D03*
X115900000Y-99200000D03*
X114300000Y-100800000D03*
X115100000Y-99200000D03*
X115900000Y-100800000D03*
X114300000Y-100000000D03*
D73*
X109195000Y-102440000D03*
D75*
X115900000Y-100000000D03*
D74*
X116525000Y-102925000D03*
%TO.N,M3_SNSP*%
X90415000Y-108825000D03*
D73*
X94220000Y-109550000D03*
D74*
%TO.N,M3_SNSN*%
X90415000Y-107175000D03*
D73*
%TO.N,M3_IOUT*%
X94220000Y-108250000D03*
D74*
%TO.N,M4_ISENSE*%
X91890000Y-93225000D03*
X93682700Y-90554800D03*
%TO.N,M1_ISENSE*%
X106317000Y-109445000D03*
X108110000Y-106775000D03*
D73*
%TO.N,M1_SNSP*%
X109550000Y-105780000D03*
D74*
X108825000Y-109585000D03*
%TO.N,M1_SNSN*%
X107175000Y-109585000D03*
D73*
%TO.N,M1_IOUT*%
X108250000Y-105780000D03*
D75*
%TO.N,M2_A*%
X114300000Y-105000000D03*
D73*
X109195000Y-103940000D03*
D75*
X114300000Y-105800000D03*
X115900000Y-105800000D03*
X115100000Y-105000000D03*
X115900000Y-105000000D03*
X115100000Y-105800000D03*
X115900000Y-104200000D03*
X115100000Y-104200000D03*
D73*
%TO.N,M2_SNSP*%
X105780000Y-90450000D03*
D74*
X109585000Y-91175000D03*
%TO.N,M2_SNSN*%
X109585000Y-92825000D03*
D73*
%TO.N,M2_IOUT*%
X105780000Y-91750000D03*
%TO.N,M1_GHB_D*%
X97060000Y-109195000D03*
%TO.N,M4_SNSP*%
X90450000Y-94220000D03*
D74*
X91175000Y-90415000D03*
%TO.N,M4_SNSN*%
X92825000Y-90415000D03*
D73*
%TO.N,M4_IOUT*%
X91750000Y-94220000D03*
D74*
%TO.N,M3_GHC_D*%
X86256700Y-108253000D03*
X85966000Y-98066500D03*
D73*
X90805000Y-98560000D03*
%TO.N,M2_SWDIO*%
X109274999Y-98620000D03*
%TO.N,M4_BSTA*%
X104685000Y-92050000D03*
D75*
%TO.N,M4_A*%
X105000000Y-85700000D03*
X104200000Y-84100000D03*
X105800000Y-85700000D03*
D73*
X103940000Y-90805000D03*
D75*
X105800000Y-84100000D03*
X105000000Y-84900000D03*
X105800000Y-84900000D03*
X105000000Y-84100000D03*
X104200000Y-84900000D03*
D73*
%TO.N,M2_GHA_D*%
X108450000Y-104685000D03*
D74*
%TO.N,M4_NRST*%
X98080000Y-91550000D03*
D73*
%TO.N,M2_GHC_D*%
X109195000Y-101440000D03*
D74*
X113743000Y-91746800D03*
X114034000Y-101934000D03*
D73*
%TO.N,M2_BSTB*%
X109195000Y-103440000D03*
%TO.N,M4_BSTC*%
X101940000Y-90805000D03*
%TO.N,M4_SWCLK*%
X99120000Y-90787510D03*
%TO.N,M4_SWDIO*%
X98620000Y-90725000D03*
%TO.N,M1_SWCLK*%
X100880000Y-109212489D03*
D74*
%TO.N,M2_ISENSE*%
X106775000Y-91890000D03*
X109445000Y-93682700D03*
%TO.N,M1_NRST*%
X101920000Y-108450000D03*
D73*
%TO.N,M1_BSTB*%
X96560000Y-109195000D03*
D74*
%TO.N,M3_ISENSE*%
X93225000Y-108110000D03*
X90554800Y-106317000D03*
%TO.N,M2_NRST*%
X108450000Y-98080000D03*
%TO.N,BUCK_VCC*%
X100025000Y-98250000D03*
X99425000Y-96025000D03*
%TO.N,BUCK_LX*%
X99750000Y-99400000D03*
X98950000Y-96925000D03*
%TO.N,LED_PWR_A*%
X116600000Y-109275000D03*
%TO.N,M3_NRST*%
X91550000Y-101920000D03*
D73*
%TO.N,M1_BSTC*%
X98060000Y-109195000D03*
%TO.N,M4_BSTB*%
X103440000Y-90805000D03*
D75*
%TO.N,M4_B*%
X100800000Y-84100000D03*
X99200000Y-84900000D03*
X100000000Y-84100000D03*
X99200000Y-84100000D03*
X100000000Y-85700000D03*
D73*
X102440000Y-90805000D03*
D75*
X100800000Y-84900000D03*
X100000000Y-84900000D03*
X100800000Y-85700000D03*
D74*
X102925000Y-83475000D03*
D73*
%TO.N,M2_CMP_B*%
X108200000Y-99695000D03*
X114825000Y-97500000D03*
D74*
X106775000Y-90990000D03*
X117302000Y-96979800D03*
D73*
%TO.N,M2_NEUTRAL*%
X106200000Y-95545000D03*
D74*
X105205000Y-95090000D03*
D73*
%TO.N,M3_BSTB*%
X90805000Y-96560000D03*
%TO.N,M2_BSTC*%
X109195000Y-101940000D03*
D74*
%TO.N,CUR*%
X98200000Y-102675000D03*
X101050000Y-95200000D03*
X94525000Y-99125000D03*
X100450000Y-100975000D03*
X104100000Y-103900000D03*
D73*
%TO.N,M1_SIG*%
X100305000Y-107700000D03*
%TO.N,M2_SIG*%
X107700000Y-99695000D03*
D74*
%TO.N,M3_SIG*%
X94025000Y-101375000D03*
X102200000Y-102650000D03*
D73*
X92300000Y-100305000D03*
D74*
%TO.N,M4_SIG*%
X99600000Y-95025000D03*
D73*
X99695000Y-92300000D03*
D74*
X103450000Y-103050000D03*
D73*
%TO.N,M4_GHA_D*%
X104685000Y-91550000D03*
%TO.N,M1_GHA_D*%
X95315000Y-108450000D03*
D74*
%TO.N,M1_CMP_B*%
X109010000Y-106775000D03*
D73*
X100305000Y-108200000D03*
X102500000Y-114825000D03*
D74*
X103020000Y-117302000D03*
%TO.N,M1_NEUTRAL*%
X104910000Y-105205000D03*
D73*
X104455000Y-106200000D03*
%TO.N,M3_CMP_B*%
X85175000Y-102500000D03*
D74*
X82698200Y-103020000D03*
X93225000Y-109010000D03*
D73*
X91800000Y-100305000D03*
D74*
%TO.N,M3_NEUTRAL*%
X94795000Y-104910000D03*
D73*
X93800000Y-104455000D03*
%TO.N,M2_GHB_D*%
X109195000Y-102940000D03*
%TO.N,M2_BSTA*%
X107950000Y-104685000D03*
%TO.N,M2_CMP_A*%
X114825000Y-102500000D03*
D74*
X104575000Y-96750000D03*
X106775000Y-92790000D03*
D73*
X106200000Y-99695000D03*
%TO.N,M4_CMP_A*%
X99695000Y-93800000D03*
D74*
X96750000Y-95425000D03*
X92790000Y-93225000D03*
D73*
X102500000Y-85175000D03*
D74*
%TO.N,M1_CMP_A*%
X107210000Y-106775000D03*
D73*
X97500000Y-114825000D03*
D74*
X103250000Y-104575000D03*
D73*
X100305000Y-106200000D03*
%TO.N,M4_CMP_C*%
X93690000Y-93664999D03*
X92640000Y-85175000D03*
%TO.N,M2_CMP_C*%
X106335000Y-93690000D03*
X114825000Y-92640000D03*
D74*
%TO.N,M2_LC*%
X108007000Y-98548300D03*
D73*
X105205000Y-102940000D03*
D74*
%TO.N,M2_LB*%
X109200000Y-95167510D03*
D73*
X105205000Y-103440000D03*
%TO.N,M2_LA*%
X105205000Y-103940000D03*
X109212527Y-96120000D03*
%TO.N,M2_HC*%
X109274999Y-96620000D03*
X105950000Y-104685000D03*
%TO.N,M2_HB*%
X109274999Y-97620000D03*
X106450000Y-104685000D03*
%TO.N,M2_HA*%
X106950000Y-104685000D03*
X109274999Y-98120000D03*
%TO.N,M3_CMP_C*%
X93664999Y-106310000D03*
X85175000Y-107360000D03*
D74*
%TO.N,M3_LC*%
X91992700Y-101452000D03*
D73*
X94795000Y-97060000D03*
D74*
%TO.N,M3_LB*%
X90800000Y-104832489D03*
D73*
X94795000Y-96560000D03*
%TO.N,M3_LA*%
X94795000Y-96060000D03*
X90787472Y-103880000D03*
%TO.N,M3_HC*%
X90725000Y-103380000D03*
X94050000Y-95315000D03*
%TO.N,M3_HB*%
X93550000Y-95315000D03*
X90725000Y-102380000D03*
%TO.N,M3_HA*%
X93050000Y-95315000D03*
X90725000Y-101880000D03*
%TO.N,M3_CMP_A*%
X93800000Y-100305000D03*
D74*
X95425000Y-103250000D03*
D73*
X85175000Y-97500000D03*
D74*
X93225000Y-107210000D03*
D75*
%TO.N,M4_SRC*%
X102500000Y-88150000D03*
X92500000Y-88150000D03*
X91700000Y-89750000D03*
X97500000Y-88150000D03*
X91700000Y-88950000D03*
X90900000Y-88950000D03*
X90900000Y-89750000D03*
X90100000Y-89750000D03*
X107500000Y-88150000D03*
D73*
%TO.N,M1_GLA_D*%
X97500000Y-114070000D03*
X99305000Y-107950000D03*
D75*
%TO.N,M2_SRC*%
X111850000Y-102500000D03*
X111850000Y-92500000D03*
X110250000Y-91700000D03*
X111850000Y-107500000D03*
X111850000Y-97500000D03*
X111050000Y-90900000D03*
X111050000Y-91700000D03*
X110250000Y-90100000D03*
X110250000Y-90900000D03*
%TO.N,M1_SRC*%
X92500000Y-111850000D03*
X97500000Y-111850000D03*
X109900000Y-110250000D03*
X108300000Y-111050000D03*
X109100000Y-111050000D03*
X107500000Y-111850000D03*
X108300000Y-110250000D03*
X102500000Y-111850000D03*
X109100000Y-110250000D03*
D73*
%TO.N,M1_GLC_D*%
X107500000Y-114070000D03*
X99305000Y-106950000D03*
D74*
X102093000Y-116722000D03*
D75*
%TO.N,M3_SRC*%
X88150000Y-97500000D03*
X89750000Y-109100000D03*
X89750000Y-109900000D03*
X88150000Y-102500000D03*
X88950000Y-109100000D03*
X89750000Y-108300000D03*
X88150000Y-107500000D03*
X88950000Y-108300000D03*
X88150000Y-92500000D03*
D73*
%TO.N,M1_GLB_D*%
X99305000Y-107450000D03*
X102500000Y-114070000D03*
%TO.N,M1_LA*%
X103880000Y-109212527D03*
X96060000Y-105205000D03*
D74*
%TO.N,M1_LB*%
X104832489Y-109200000D03*
D73*
X96560000Y-105205000D03*
%TO.N,M1_LC*%
X97060000Y-105205000D03*
D74*
X101452000Y-108007000D03*
D73*
%TO.N,M1_HA*%
X101880000Y-109274999D03*
X95315000Y-106950000D03*
%TO.N,M1_HB*%
X95315000Y-106450000D03*
X102380000Y-109274999D03*
%TO.N,M1_HC*%
X103380000Y-109274999D03*
X95315000Y-105950000D03*
%TO.N,M3_GLA_D*%
X85930000Y-97500000D03*
X92050000Y-99305000D03*
%TO.N,M2_GLB_D*%
X114070000Y-97500000D03*
X107450000Y-100695000D03*
%TO.N,M2_GLC_D*%
X106950000Y-100695000D03*
D74*
X116722000Y-97906600D03*
D73*
X114070000Y-92500000D03*
%TO.N,M2_GLA_D*%
X114070000Y-102500000D03*
X107950000Y-100695000D03*
%TO.N,M4_GLB_D*%
X100695000Y-92550000D03*
X97500000Y-85930000D03*
%TO.N,M4_GLA_D*%
X100695000Y-92050000D03*
X102500000Y-85930000D03*
%TO.N,M1_CMP_C*%
X106310000Y-106335000D03*
X107360000Y-114825000D03*
%TO.N,M3_GLC_D*%
X93050000Y-99305000D03*
D74*
X83278300Y-102093000D03*
D73*
X85930000Y-107500000D03*
%TO.N,M3_GLB_D*%
X85930000Y-102500000D03*
X92550000Y-99305000D03*
D74*
%TO.N,M4_LC*%
X98548300Y-91992700D03*
D73*
X102940000Y-94795000D03*
%TO.N,M4_LB*%
X103440000Y-94795000D03*
D74*
X95167510Y-90800000D03*
D73*
%TO.N,M4_LA*%
X96120000Y-90787472D03*
X103940000Y-94795000D03*
%TO.N,M4_HC*%
X96620000Y-90725000D03*
X104685000Y-94050000D03*
%TO.N,M4_HB*%
X97620000Y-90725000D03*
X104685000Y-93550000D03*
%TO.N,M4_HA*%
X98120000Y-90725000D03*
X104685000Y-93050000D03*
D74*
%TO.N,M4_GLC_D*%
X97906600Y-83278300D03*
D73*
X92500000Y-85930000D03*
X100695000Y-93050000D03*
%TD*%
%TO.N,M2_SWCLK*%
D77*
X109212489Y-99120000D02*
X109080000Y-99120000D01*
%TO.N,M4_CMP_B*%
D78*
X90990000Y-93560000D02*
X90990000Y-93225000D01*
D77*
X90990000Y-93560000D02*
X90990000Y-93690000D01*
X99695000Y-91800000D02*
X99550000Y-91800000D01*
X97500000Y-85175000D02*
X97500000Y-85110000D01*
%TO.N,M4_NEUTRAL*%
X95500000Y-95175000D02*
X95470000Y-95175000D01*
D78*
X94590000Y-94295000D02*
X95090000Y-94795000D01*
D77*
X95500000Y-95175000D02*
X95625000Y-95300000D01*
X95625000Y-95300000D02*
X95750000Y-95425000D01*
X95680000Y-95300000D02*
X95930000Y-95550000D01*
X95690000Y-93800000D02*
X95545000Y-93800000D01*
X95250000Y-94925000D02*
X95500000Y-95175000D01*
X95625000Y-95300000D02*
X95680000Y-95300000D01*
X95470000Y-95175000D02*
X95090000Y-94795000D01*
D78*
X94590000Y-94460000D02*
X94590000Y-94295000D01*
%TO.N,M1_B*%
D79*
X97560000Y-109100000D02*
X97560000Y-109195000D01*
%TO.N,M3_BSTA*%
D78*
X92050000Y-95315000D02*
X92050000Y-95410000D01*
%TO.N,M3_A*%
D79*
X90900000Y-96060000D02*
X90805000Y-96060000D01*
%TO.N,M3_GHA_D*%
D77*
X91550000Y-95315000D02*
X91550000Y-95410000D01*
%TO.N,M1_SWDIO*%
X101380000Y-109274999D02*
X101380000Y-109130000D01*
%TO.N,M2_C*%
D79*
X108450000Y-100790000D02*
X108450000Y-100695000D01*
%TO.N,+3V3*%
D80*
X100319800Y-100592200D02*
X99833400Y-100592200D01*
X94875000Y-101880000D02*
X94905000Y-101850000D01*
X103326400Y-99995000D02*
X103612800Y-99708600D01*
X101595000Y-99995000D02*
X103326400Y-99995000D01*
X101595000Y-99995000D02*
X100618300Y-99995000D01*
X98120000Y-94875000D02*
X98120000Y-94730000D01*
X100618300Y-99995000D02*
X100618300Y-100293700D01*
X117115000Y-109229400D02*
X116750000Y-108864400D01*
X101850000Y-105095000D02*
X101850000Y-104180000D01*
X103612800Y-99708600D02*
X103612800Y-98717200D01*
X117115000Y-110545000D02*
X117115000Y-109229400D01*
X101880000Y-105125000D02*
X101880000Y-105270000D01*
X103612800Y-98717200D02*
X104180000Y-98150000D01*
X101880000Y-105125000D02*
X101850000Y-105095000D01*
X116435300Y-108864400D02*
X115220000Y-110079700D01*
X105095000Y-98150000D02*
X104180000Y-98150000D01*
X98150000Y-94905000D02*
X98150000Y-95820000D01*
X98120000Y-94875000D02*
X98150000Y-94905000D01*
X94905000Y-101850000D02*
X95820000Y-101850000D01*
X100618300Y-100293700D02*
X100319800Y-100592200D01*
X116750000Y-108864400D02*
X116435300Y-108864400D01*
X94875000Y-101880000D02*
X94730000Y-101880000D01*
X105125000Y-98120000D02*
X105095000Y-98150000D01*
X105125000Y-98120000D02*
X105270000Y-98120000D01*
%TO.N,GND*%
D81*
X103220000Y-98150000D02*
X102757000Y-97686800D01*
D77*
X106450000Y-101940000D02*
X106450000Y-101844000D01*
D81*
X105670000Y-90990000D02*
X105171000Y-90491500D01*
X105670000Y-92790000D02*
X105292000Y-93832800D01*
X103220000Y-102450000D02*
X102892000Y-101883000D01*
X105670000Y-93690000D02*
X105292000Y-93832800D01*
X107210000Y-105670000D02*
X106167000Y-105292000D01*
X95875000Y-100655000D02*
X96342500Y-99845300D01*
X97620000Y-94730000D02*
X97440100Y-95401300D01*
X105270000Y-97620000D02*
X104599000Y-97440100D01*
D77*
X98060000Y-106450000D02*
X98156300Y-106450000D01*
X93550000Y-98060000D02*
X93550000Y-98156200D01*
D81*
X106310000Y-105670000D02*
X106167000Y-105292000D01*
X93690000Y-94330000D02*
X93832800Y-94707500D01*
X94330000Y-107210000D02*
X94707500Y-106167000D01*
X102380000Y-105270000D02*
X102560000Y-105941000D01*
X100065000Y-96265000D02*
X101250000Y-96780000D01*
X94330000Y-109010000D02*
X94828500Y-109509000D01*
X101850000Y-103220000D02*
X102829000Y-104199000D01*
D78*
X101440000Y-94700000D02*
X101469000Y-93925100D01*
D81*
X94730000Y-102380000D02*
X95401300Y-102560000D01*
X109010000Y-105670000D02*
X109509000Y-105171000D01*
D77*
X106450000Y-101844000D02*
X106075000Y-101469000D01*
D81*
X94330000Y-106310000D02*
X94707500Y-106167000D01*
X92790000Y-94330000D02*
X93832800Y-94707500D01*
D77*
X93550000Y-98156200D02*
X93925100Y-98531300D01*
D78*
X94700000Y-98560000D02*
X93925100Y-98531300D01*
D77*
X98156300Y-106450000D02*
X98531300Y-106075000D01*
D78*
X98560000Y-105300000D02*
X98531300Y-106075000D01*
D77*
X93550000Y-98060000D02*
X92800000Y-97310000D01*
X101940000Y-93550000D02*
X101844100Y-93550000D01*
D81*
X90990000Y-94330000D02*
X90491500Y-94828500D01*
X100655000Y-103175000D02*
X100297000Y-101837000D01*
D78*
X105300000Y-101440000D02*
X106075000Y-101469000D01*
D77*
X101844100Y-93550000D02*
X101469000Y-93925100D01*
D81*
X98750000Y-103220000D02*
X97550000Y-103220000D01*
%TO.N,M3_B*%
D79*
X90900000Y-97560000D02*
X90805000Y-97560000D01*
%TO.N,M4_C*%
X100790000Y-91550000D02*
X100695000Y-91550000D01*
%TO.N,M1_GHC_D*%
D77*
X98560000Y-109195000D02*
X98560000Y-109100000D01*
%TO.N,M3_SWCLK*%
X90787510Y-100880000D02*
X90920000Y-100880000D01*
%TO.N,M3_GHB_D*%
X90805000Y-97060000D02*
X90900000Y-97060000D01*
%TO.N,M4_GHB_D*%
X102940000Y-90805000D02*
X102940000Y-90900000D01*
%TO.N,ESC_VSENSE*%
X95690000Y-92300000D02*
X95900000Y-92300000D01*
X103950000Y-107550000D02*
X102225000Y-107550000D01*
X104100000Y-107700000D02*
X103950000Y-107550000D01*
X96750000Y-100325000D02*
X96835000Y-100410000D01*
X92450000Y-103740000D02*
X92400000Y-103790000D01*
X107550000Y-96050000D02*
X107550000Y-97775000D01*
X95900000Y-92300000D02*
X96050000Y-92450000D01*
X107618100Y-96191700D02*
X107700000Y-96191700D01*
X92300000Y-104310000D02*
X92300000Y-103950000D01*
X96050000Y-92450000D02*
X97775000Y-92450000D01*
X107700000Y-95690000D02*
X107700000Y-96191700D01*
X92400000Y-103790000D02*
X92400000Y-103925000D01*
X92400000Y-103925000D02*
X92325000Y-103925000D01*
X92300000Y-103950000D02*
X92325000Y-103925000D01*
X96835000Y-100410000D02*
X96835000Y-100655000D01*
X104310000Y-107700000D02*
X104100000Y-107700000D01*
%TO.N,M3_SWDIO*%
X90725000Y-101380000D02*
X90870000Y-101380000D01*
%TO.N,GVDD*%
D78*
X98553600Y-103984000D02*
X98750000Y-104180000D01*
X102440000Y-94700000D02*
X102440000Y-94795000D01*
X103984000Y-101446000D02*
X104180000Y-101250000D01*
X102440000Y-95810000D02*
X102450000Y-95820000D01*
X95810000Y-97560000D02*
X95820000Y-97550000D01*
X97560000Y-104190000D02*
X97766400Y-103984000D01*
X97560000Y-105205000D02*
X97560000Y-104190000D01*
X104190000Y-102440000D02*
X104180000Y-102450000D01*
X105205000Y-102440000D02*
X104190000Y-102440000D01*
X104190000Y-102440000D02*
X103984000Y-102234000D01*
X102440000Y-95810000D02*
X102234000Y-96016400D01*
X97766400Y-103984000D02*
X98553600Y-103984000D01*
X95810000Y-97560000D02*
X96016400Y-97766400D01*
X104180000Y-101250000D02*
X104185000Y-99315000D01*
X96016400Y-97766400D02*
X96016400Y-98553600D01*
X105300000Y-102440000D02*
X105205000Y-102440000D01*
X103984000Y-102234000D02*
X103984000Y-101446000D01*
X96016400Y-98553600D02*
X95820000Y-98750000D01*
X94795000Y-97560000D02*
X95810000Y-97560000D01*
X101446000Y-96016400D02*
X101250000Y-95820000D01*
X97560000Y-104190000D02*
X97550000Y-104180000D01*
X102234000Y-96016400D02*
X101446000Y-96016400D01*
X94700000Y-97560000D02*
X94795000Y-97560000D01*
X97560000Y-105300000D02*
X97560000Y-105205000D01*
X102440000Y-94795000D02*
X102440000Y-95810000D01*
%TO.N,GVDD_FB*%
D77*
X103000000Y-99150000D02*
X103165000Y-99315000D01*
X102800000Y-98975000D02*
X102800000Y-99075000D01*
X102875000Y-99150000D02*
X103000000Y-99150000D01*
X100437200Y-97657200D02*
X100065000Y-97285000D01*
X100632200Y-97657200D02*
X100437200Y-97657200D01*
X102725000Y-98300000D02*
X102725000Y-98900000D01*
X102725000Y-98900000D02*
X102800000Y-98975000D01*
X102450000Y-98025000D02*
X102725000Y-98300000D01*
X101000000Y-98025000D02*
X102450000Y-98025000D01*
X102800000Y-99075000D02*
X102875000Y-99150000D01*
X100375000Y-97400000D02*
X101000000Y-98025000D01*
%TO.N,M3_BSTC*%
D78*
X90805000Y-98060000D02*
X90900000Y-98060000D01*
%TO.N,M3_C*%
D79*
X91550000Y-99210000D02*
X91550000Y-99305000D01*
%TO.N,M1_BSTA*%
D78*
X95315000Y-107950000D02*
X95410000Y-107950000D01*
%TO.N,M1_A*%
D79*
X96060000Y-109100000D02*
X96060000Y-109195000D01*
%TO.N,M1_C*%
X99210000Y-108450000D02*
X99305000Y-108450000D01*
%TO.N,M4_GHC_D*%
D77*
X101440000Y-90805000D02*
X101440000Y-90900000D01*
%TO.N,M2_B*%
D79*
X109100000Y-102440000D02*
X109195000Y-102440000D01*
%TO.N,M3_SNSP*%
D78*
X90750000Y-108825000D02*
X90415000Y-108825000D01*
%TO.N,M3_SNSN*%
X90750000Y-107175000D02*
X90415000Y-107175000D01*
%TO.N,M3_IOUT*%
D77*
X94220000Y-108250000D02*
X94220000Y-108220000D01*
X94220000Y-108220000D02*
X94330000Y-108110000D01*
%TO.N,M4_ISENSE*%
D78*
X91890000Y-93560000D02*
X91890000Y-93225000D01*
D77*
X94841300Y-92453000D02*
X94841300Y-90721400D01*
X94566400Y-90446500D02*
X93791000Y-90446500D01*
X91890000Y-93560000D02*
X91890000Y-93690000D01*
X95188300Y-92800000D02*
X94841300Y-92453000D01*
X93791000Y-90446500D02*
X93682700Y-90554800D01*
X95690000Y-92800000D02*
X95188300Y-92800000D01*
X94841300Y-90721400D02*
X94566400Y-90446500D01*
%TO.N,M1_ISENSE*%
X108110000Y-106440000D02*
X108110000Y-106310000D01*
X106209000Y-109554000D02*
X106317000Y-109445000D01*
X104812000Y-107200000D02*
X105159000Y-107547000D01*
X105434000Y-109554000D02*
X106209000Y-109554000D01*
X105159000Y-109279000D02*
X105434000Y-109554000D01*
D78*
X108110000Y-106440000D02*
X108110000Y-106775000D01*
D77*
X105159000Y-107547000D02*
X105159000Y-109279000D01*
X104310000Y-107200000D02*
X104812000Y-107200000D01*
%TO.N,M1_SNSP*%
D78*
X108825000Y-109250000D02*
X108825000Y-109585000D01*
%TO.N,M1_SNSN*%
X107175000Y-109250000D02*
X107175000Y-109585000D01*
%TO.N,M1_IOUT*%
D77*
X108220000Y-105780000D02*
X108110000Y-105670000D01*
X108250000Y-105780000D02*
X108220000Y-105780000D01*
%TO.N,M2_A*%
D79*
X109100000Y-103940000D02*
X109195000Y-103940000D01*
%TO.N,M2_SNSP*%
D78*
X109250000Y-91175000D02*
X109585000Y-91175000D01*
%TO.N,M2_SNSN*%
X109250000Y-92825000D02*
X109585000Y-92825000D01*
%TO.N,M2_IOUT*%
D77*
X105780000Y-91750000D02*
X105780000Y-91780000D01*
X105780000Y-91780000D02*
X105670000Y-91890000D01*
%TO.N,M1_GHB_D*%
X97060000Y-109195000D02*
X97060000Y-109100000D01*
%TO.N,M4_SNSP*%
D78*
X91175000Y-90750000D02*
X91175000Y-90415000D01*
%TO.N,M4_SNSN*%
X92825000Y-90750000D02*
X92825000Y-90415000D01*
%TO.N,M4_IOUT*%
D77*
X91750000Y-94220000D02*
X91780000Y-94220000D01*
X91780000Y-94220000D02*
X91890000Y-94330000D01*
%TO.N,M3_GHC_D*%
X90805000Y-98560000D02*
X90900000Y-98560000D01*
%TO.N,M2_SWDIO*%
X109274999Y-98620000D02*
X109130000Y-98620000D01*
%TO.N,M4_BSTA*%
D78*
X104685000Y-92050000D02*
X104590000Y-92050000D01*
%TO.N,M4_A*%
D79*
X103940000Y-90900000D02*
X103940000Y-90805000D01*
%TO.N,M2_GHA_D*%
D77*
X108450000Y-104685000D02*
X108450000Y-104590000D01*
%TO.N,M4_NRST*%
X98702800Y-92375200D02*
X98875100Y-92202900D01*
X98530300Y-92375200D02*
X98702800Y-92375200D01*
X97120000Y-94730000D02*
X97057200Y-94667200D01*
X98875100Y-91766100D02*
X98659000Y-91550000D01*
X98659000Y-91550000D02*
X98080000Y-91550000D01*
X97120000Y-94875000D02*
X97120000Y-94730000D01*
X98875100Y-92202900D02*
X98875100Y-91766100D01*
X97057200Y-93848300D02*
X98530300Y-92375200D01*
X97057200Y-94667200D02*
X97057200Y-93848300D01*
%TO.N,M2_GHC_D*%
X109195000Y-101440000D02*
X109100000Y-101440000D01*
%TO.N,M2_BSTB*%
D78*
X109195000Y-103440000D02*
X109100000Y-103440000D01*
%TO.N,M4_BSTC*%
X101940000Y-90805000D02*
X101940000Y-90900000D01*
%TO.N,M4_SWCLK*%
D77*
X99120000Y-90787510D02*
X99120000Y-90920000D01*
%TO.N,M4_SWDIO*%
X98620000Y-90725000D02*
X98620000Y-90870000D01*
%TO.N,M1_SWCLK*%
X100880000Y-109212489D02*
X100880000Y-109080000D01*
%TO.N,M2_ISENSE*%
D78*
X106440000Y-91890000D02*
X106775000Y-91890000D01*
D77*
X109554000Y-94566400D02*
X109554000Y-93791000D01*
X107547000Y-94841300D02*
X109279000Y-94841300D01*
X107200000Y-95188300D02*
X107547000Y-94841300D01*
X107200000Y-95690000D02*
X107200000Y-95188300D01*
X109554000Y-93791000D02*
X109445000Y-93682700D01*
X106440000Y-91890000D02*
X106310000Y-91890000D01*
X109279000Y-94841300D02*
X109554000Y-94566400D01*
%TO.N,M1_NRST*%
X102880000Y-105125000D02*
X102880000Y-105270000D01*
X101125000Y-108234000D02*
X101341000Y-108450000D01*
X101341000Y-108450000D02*
X101920000Y-108450000D01*
X101470000Y-107625000D02*
X101297000Y-107625000D01*
X102943000Y-106152000D02*
X101470000Y-107625000D01*
X101297000Y-107625000D02*
X101125000Y-107797000D01*
X102943000Y-105333000D02*
X102943000Y-106152000D01*
X101125000Y-107797000D02*
X101125000Y-108234000D01*
X102880000Y-105270000D02*
X102943000Y-105333000D01*
%TO.N,M1_BSTB*%
D78*
X96560000Y-109195000D02*
X96560000Y-109100000D01*
%TO.N,M3_ISENSE*%
D77*
X90446500Y-106209000D02*
X90554800Y-106317000D01*
X90446500Y-105434000D02*
X90446500Y-106209000D01*
X90721400Y-105159000D02*
X90446500Y-105434000D01*
X92453000Y-105159000D02*
X90721400Y-105159000D01*
X92800000Y-104812000D02*
X92453000Y-105159000D01*
X93560000Y-108110000D02*
X93690000Y-108110000D01*
D78*
X93560000Y-108110000D02*
X93225000Y-108110000D01*
D77*
X92800000Y-104310000D02*
X92800000Y-104812000D01*
%TO.N,M2_NRST*%
X108234000Y-98875100D02*
X108450000Y-98659000D01*
X105125000Y-97120000D02*
X105270000Y-97120000D01*
X105333000Y-97057200D02*
X106152000Y-97057200D01*
X107625000Y-98530300D02*
X107625000Y-98702800D01*
X107625000Y-98702800D02*
X107797000Y-98875100D01*
X107797000Y-98875100D02*
X108234000Y-98875100D01*
X105270000Y-97120000D02*
X105333000Y-97057200D01*
X108450000Y-98659000D02*
X108450000Y-98080000D01*
X106152000Y-97057200D02*
X107625000Y-98530300D01*
%TO.N,BUCK_LX*%
D82*
X99175000Y-99400000D02*
X99750000Y-99400000D01*
X98580000Y-99995000D02*
X99175000Y-99400000D01*
X98395000Y-99995000D02*
X98580000Y-99995000D01*
%TO.N,LED_PWR_A*%
D77*
X116600000Y-110420000D02*
X116475000Y-110545000D01*
X116600000Y-110325000D02*
X116600000Y-110420000D01*
X116600000Y-110325000D02*
X116600000Y-109275000D01*
%TO.N,M3_NRST*%
X92375200Y-101470000D02*
X92375200Y-101297000D01*
X92375200Y-101297000D02*
X92202900Y-101125000D01*
X91550000Y-101341000D02*
X91550000Y-101920000D01*
X92202900Y-101125000D02*
X91766100Y-101125000D01*
X94667200Y-102943000D02*
X93848300Y-102943000D01*
X91766100Y-101125000D02*
X91550000Y-101341000D01*
X94730000Y-102880000D02*
X94667200Y-102943000D01*
X93848300Y-102943000D02*
X92375200Y-101470000D01*
X94875000Y-102880000D02*
X94730000Y-102880000D01*
%TO.N,M1_BSTC*%
D78*
X98060000Y-109195000D02*
X98060000Y-109100000D01*
%TO.N,M4_BSTB*%
X103440000Y-90805000D02*
X103440000Y-90900000D01*
%TO.N,M4_B*%
D79*
X102440000Y-90900000D02*
X102440000Y-90805000D01*
%TO.N,M2_CMP_B*%
D78*
X106440000Y-90990000D02*
X106775000Y-90990000D01*
D77*
X108200000Y-99695000D02*
X108200000Y-99550000D01*
X114825000Y-97500000D02*
X114890000Y-97500000D01*
X106440000Y-90990000D02*
X106310000Y-90990000D01*
%TO.N,M2_NEUTRAL*%
X105075000Y-95250000D02*
X104825000Y-95500000D01*
X104825000Y-95500000D02*
X104825000Y-95470000D01*
X104575000Y-95750000D02*
X104450000Y-95875000D01*
X104450000Y-95875000D02*
X104450000Y-95930000D01*
X104825000Y-95470000D02*
X105205000Y-95090000D01*
D78*
X105705000Y-94590000D02*
X105205000Y-95090000D01*
D77*
X106200000Y-95690000D02*
X106200000Y-95545000D01*
D78*
X105540000Y-94590000D02*
X105705000Y-94590000D01*
D77*
X104825000Y-95500000D02*
X104575000Y-95750000D01*
%TO.N,M3_BSTB*%
D78*
X90805000Y-96560000D02*
X90900000Y-96560000D01*
%TO.N,M2_BSTC*%
X109195000Y-101940000D02*
X109100000Y-101940000D01*
%TO.N,CUR*%
D77*
X101150000Y-103475000D02*
X100775000Y-103850000D01*
X100655000Y-104135000D02*
X100500000Y-103980000D01*
X101150000Y-103125000D02*
X101150000Y-103475000D01*
X102575000Y-102700000D02*
X102575000Y-102500000D01*
X102575000Y-102500000D02*
X102325000Y-102250000D01*
X102025000Y-102250000D02*
X101150000Y-103125000D01*
X98375000Y-102500000D02*
X98200000Y-102675000D01*
X100655000Y-103970000D02*
X100655000Y-104135000D01*
X100500000Y-103980000D02*
X100500000Y-103850000D01*
X99850000Y-101650000D02*
X99850000Y-103200000D01*
X99775000Y-102500000D02*
X98275000Y-102500000D01*
X99775000Y-102500000D02*
X99850000Y-102500000D01*
X103775000Y-103900000D02*
X102575000Y-102700000D01*
X102325000Y-102250000D02*
X102025000Y-102250000D01*
X100775000Y-103850000D02*
X100655000Y-103970000D01*
X104100000Y-103900000D02*
X103775000Y-103900000D01*
X100450000Y-101050000D02*
X99850000Y-101650000D01*
X99850000Y-103200000D02*
X100500000Y-103850000D01*
X100450000Y-100975000D02*
X100450000Y-101050000D01*
%TO.N,M1_SIG*%
X100305000Y-107700000D02*
X100450000Y-107700000D01*
%TO.N,M2_SIG*%
X107700000Y-99695000D02*
X107700000Y-99550000D01*
%TO.N,M3_SIG*%
X92300000Y-100305000D02*
X92300000Y-100450000D01*
%TO.N,M4_SIG*%
X99695000Y-92300000D02*
X99550000Y-92300000D01*
%TO.N,M4_GHA_D*%
X104685000Y-91550000D02*
X104590000Y-91550000D01*
%TO.N,M1_GHA_D*%
X95315000Y-108450000D02*
X95410000Y-108450000D01*
%TO.N,M1_CMP_B*%
X109010000Y-106440000D02*
X109010000Y-106310000D01*
X100305000Y-108200000D02*
X100450000Y-108200000D01*
D78*
X109010000Y-106440000D02*
X109010000Y-106775000D01*
D77*
X102500000Y-114825000D02*
X102500000Y-114890000D01*
%TO.N,M1_NEUTRAL*%
D78*
X105410000Y-105705000D02*
X104910000Y-105205000D01*
D77*
X104310000Y-106200000D02*
X104455000Y-106200000D01*
X104530000Y-104825000D02*
X104910000Y-105205000D01*
X104750000Y-105075000D02*
X104500000Y-104825000D01*
X104500000Y-104825000D02*
X104530000Y-104825000D01*
D78*
X105410000Y-105540000D02*
X105410000Y-105705000D01*
D77*
X104500000Y-104825000D02*
X104375000Y-104700000D01*
X104320000Y-104700000D02*
X104070000Y-104450000D01*
X104375000Y-104700000D02*
X104320000Y-104700000D01*
X104375000Y-104700000D02*
X104250000Y-104575000D01*
%TO.N,M3_CMP_B*%
D78*
X93560000Y-109010000D02*
X93225000Y-109010000D01*
D77*
X85175000Y-102500000D02*
X85110000Y-102500000D01*
X93560000Y-109010000D02*
X93690000Y-109010000D01*
X91800000Y-100305000D02*
X91800000Y-100450000D01*
%TO.N,M3_NEUTRAL*%
X95175000Y-104500000D02*
X95425000Y-104250000D01*
X95550000Y-104125000D02*
X95550000Y-104070000D01*
X95425000Y-104250000D02*
X95550000Y-104125000D01*
X95175000Y-104530000D02*
X94795000Y-104910000D01*
D78*
X94460000Y-105410000D02*
X94295000Y-105410000D01*
D77*
X95175000Y-104500000D02*
X95175000Y-104530000D01*
X93800000Y-104310000D02*
X93800000Y-104455000D01*
X94925000Y-104750000D02*
X95175000Y-104500000D01*
D78*
X94295000Y-105410000D02*
X94795000Y-104910000D01*
%TO.N,M2_GHB_D*%
D77*
X109195000Y-102940000D02*
X109100000Y-102940000D01*
%TO.N,M2_BSTA*%
D78*
X107950000Y-104685000D02*
X107950000Y-104590000D01*
%TO.N,M2_CMP_A*%
X106440000Y-92790000D02*
X106775000Y-92790000D01*
D77*
X104575000Y-96695000D02*
X104575000Y-96750000D01*
X106440000Y-92790000D02*
X106310000Y-92790000D01*
X106200000Y-99695000D02*
X106200000Y-99550000D01*
X104450000Y-96570000D02*
X104575000Y-96695000D01*
X114825000Y-102500000D02*
X114890000Y-102500000D01*
%TO.N,M4_CMP_A*%
D78*
X92790000Y-93560000D02*
X92790000Y-93225000D01*
D77*
X99695000Y-93800000D02*
X99550000Y-93800000D01*
X96695000Y-95425000D02*
X96570000Y-95550000D01*
X96750000Y-95425000D02*
X96695000Y-95425000D01*
X102500000Y-85175000D02*
X102500000Y-85110000D01*
X92790000Y-93560000D02*
X92790000Y-93690000D01*
%TO.N,M1_CMP_A*%
X103250000Y-104575000D02*
X103305000Y-104575000D01*
X100305000Y-106200000D02*
X100450000Y-106200000D01*
D78*
X107210000Y-106440000D02*
X107210000Y-106775000D01*
D77*
X97500000Y-114825000D02*
X97500000Y-114890000D01*
X107210000Y-106440000D02*
X107210000Y-106310000D01*
X103305000Y-104575000D02*
X103430000Y-104450000D01*
%TO.N,M4_CMP_C*%
X93690000Y-93664999D02*
X93690000Y-93690000D01*
X94590000Y-93690000D02*
X93690000Y-93690000D01*
X95188300Y-94300000D02*
X95188300Y-94288300D01*
X92640000Y-85175000D02*
X92640000Y-85110000D01*
X95188300Y-94288300D02*
X94590000Y-93690000D01*
X95740000Y-94300000D02*
X95188300Y-94300000D01*
%TO.N,M2_CMP_C*%
X105700000Y-95188300D02*
X105712000Y-95188300D01*
X106335000Y-93690000D02*
X106310000Y-93690000D01*
X114825000Y-92640000D02*
X114890000Y-92640000D01*
X105712000Y-95188300D02*
X106310000Y-94590000D01*
X106310000Y-94590000D02*
X106310000Y-93690000D01*
X105700000Y-95740000D02*
X105700000Y-95188300D01*
%TO.N,M2_LC*%
X107950000Y-96569600D02*
X107950000Y-98491400D01*
X107950000Y-98491400D02*
X108007000Y-98548300D01*
X108200000Y-95690000D02*
X108200000Y-96320000D01*
X105205000Y-102940000D02*
X105300000Y-102940000D01*
X108200000Y-96320000D02*
X107950000Y-96569600D01*
%TO.N,M2_LB*%
D78*
X108700000Y-95502510D02*
X108700000Y-95667510D01*
D77*
X105205000Y-103440000D02*
X105300000Y-103440000D01*
X108700000Y-95667510D02*
X108700000Y-95740000D01*
X108700000Y-95585500D02*
X108700000Y-95667510D01*
D78*
X108700000Y-95667510D02*
X109200000Y-95167510D01*
%TO.N,M2_LA*%
D77*
X105205000Y-103940000D02*
X105300000Y-103940000D01*
X109212527Y-96120000D02*
X109080000Y-96120000D01*
%TO.N,M2_HC*%
X109274999Y-96620000D02*
X109130000Y-96620000D01*
X105950000Y-104685000D02*
X105950000Y-104590000D01*
%TO.N,M2_HB*%
X106450000Y-104685000D02*
X106450000Y-104590000D01*
X109274999Y-97620000D02*
X109130000Y-97620000D01*
%TO.N,M2_HA*%
X106950000Y-104685000D02*
X106950000Y-104590000D01*
X109274999Y-98120000D02*
X109130000Y-98120000D01*
%TO.N,M3_CMP_C*%
X94288300Y-104812000D02*
X93690000Y-105410000D01*
X93664999Y-106310000D02*
X93690000Y-106310000D01*
X94300000Y-104812000D02*
X94288300Y-104812000D01*
X85175000Y-107360000D02*
X85110000Y-107360000D01*
X94300000Y-104260000D02*
X94300000Y-104812000D01*
X93690000Y-105410000D02*
X93690000Y-106310000D01*
%TO.N,M3_LC*%
X94795000Y-97060000D02*
X94700000Y-97060000D01*
X91800000Y-103680000D02*
X92049600Y-103430000D01*
X92049600Y-101509000D02*
X91992700Y-101452000D01*
X92049600Y-103430000D02*
X92049600Y-101509000D01*
X91800000Y-104310000D02*
X91800000Y-103680000D01*
%TO.N,M3_LB*%
D78*
X91300000Y-104497489D02*
X91300000Y-104332489D01*
X91300000Y-104332489D02*
X90800000Y-104832489D01*
D77*
X91300000Y-104414000D02*
X91300000Y-104260000D01*
X94795000Y-96560000D02*
X94700000Y-96560000D01*
%TO.N,M3_LA*%
X94795000Y-96060000D02*
X94700000Y-96060000D01*
X90787472Y-103880000D02*
X90920000Y-103880000D01*
%TO.N,M3_HC*%
X94050000Y-95315000D02*
X94050000Y-95410000D01*
X90725000Y-103380000D02*
X90870000Y-103380000D01*
%TO.N,M3_HB*%
X90725000Y-102380000D02*
X90870000Y-102380000D01*
X93550000Y-95315000D02*
X93550000Y-95410000D01*
%TO.N,M3_HA*%
X93050000Y-95315000D02*
X93050000Y-95410000D01*
X90725000Y-101880000D02*
X90870000Y-101880000D01*
%TO.N,M3_CMP_A*%
D78*
X93560000Y-107210000D02*
X93225000Y-107210000D01*
D77*
X93800000Y-100305000D02*
X93800000Y-100450000D01*
X85175000Y-97500000D02*
X85110000Y-97500000D01*
X95425000Y-103250000D02*
X95550000Y-103375000D01*
X95550000Y-103375000D02*
X95550000Y-103430000D01*
X93560000Y-107210000D02*
X93690000Y-107210000D01*
%TO.N,M4_GLC*%
D81*
X94030000Y-86980000D02*
X92500000Y-86570000D01*
%TO.N,M1_GLA_D*%
D77*
X99305000Y-107950000D02*
X99210000Y-107950000D01*
%TO.N,M1_GLA*%
D81*
X95970000Y-113020000D02*
X97500000Y-113430000D01*
%TO.N,M1_GLC_D*%
D77*
X99305000Y-106950000D02*
X99210000Y-106950000D01*
%TO.N,M1_GLC*%
D81*
X105970000Y-113020000D02*
X107500000Y-113430000D01*
%TO.N,M3_GLC*%
X86980000Y-105970000D02*
X86570000Y-107500000D01*
%TO.N,M1_GLB_D*%
D77*
X99305000Y-107450000D02*
X99210000Y-107450000D01*
%TO.N,M1_GLB*%
D81*
X100970000Y-113020000D02*
X102500000Y-113430000D01*
%TO.N,M3_GLA*%
X86980000Y-95970000D02*
X86570000Y-97500000D01*
%TO.N,M2_GLA*%
X113020000Y-104030000D02*
X113430000Y-102500000D01*
%TO.N,M1_LA*%
D77*
X103880000Y-109212527D02*
X103880000Y-109080000D01*
X96060000Y-105205000D02*
X96060000Y-105300000D01*
%TO.N,M1_LB*%
D78*
X104332000Y-108700000D02*
X104832489Y-109200000D01*
X104497489Y-108700000D02*
X104332000Y-108700000D01*
D77*
X104332000Y-108700000D02*
X104260000Y-108700000D01*
X96560000Y-105205000D02*
X96560000Y-105300000D01*
X104414000Y-108700000D02*
X104332000Y-108700000D01*
%TO.N,M1_LC*%
X104310000Y-108200000D02*
X103680000Y-108200000D01*
X97060000Y-105205000D02*
X97060000Y-105300000D01*
X103430000Y-107950000D02*
X101509000Y-107950000D01*
X103680000Y-108200000D02*
X103430000Y-107950000D01*
X101509000Y-107950000D02*
X101452000Y-108007000D01*
%TO.N,M1_HA*%
X101880000Y-109274999D02*
X101880000Y-109130000D01*
X95315000Y-106950000D02*
X95410000Y-106950000D01*
%TO.N,M1_HB*%
X95315000Y-106450000D02*
X95410000Y-106450000D01*
X102380000Y-109274999D02*
X102380000Y-109130000D01*
%TO.N,M1_HC*%
X95315000Y-105950000D02*
X95410000Y-105950000D01*
X103380000Y-109274999D02*
X103380000Y-109130000D01*
%TO.N,M3_GLA_D*%
X92050000Y-99305000D02*
X92050000Y-99210000D01*
%TO.N,M2_GLB_D*%
X107450000Y-100695000D02*
X107450000Y-100790000D01*
%TO.N,M2_GLB*%
D81*
X113020000Y-99030000D02*
X113430000Y-97500000D01*
%TO.N,M2_GLC_D*%
D77*
X106950000Y-100695000D02*
X106950000Y-100790000D01*
%TO.N,M2_GLA_D*%
X107950000Y-100695000D02*
X107950000Y-100790000D01*
%TO.N,M4_GLB_D*%
X100695000Y-92550000D02*
X100790000Y-92550000D01*
%TO.N,M4_GLB*%
D81*
X99030000Y-86980000D02*
X97500000Y-86570000D01*
%TO.N,M4_GLA_D*%
D77*
X100695000Y-92050000D02*
X100790000Y-92050000D01*
%TO.N,M4_GLA*%
D81*
X104030000Y-86980000D02*
X102500000Y-86570000D01*
%TO.N,M1_CMP_C*%
D77*
X106310000Y-106335000D02*
X106310000Y-106310000D01*
X105410000Y-106310000D02*
X106310000Y-106310000D01*
X104812000Y-105700000D02*
X104812000Y-105712000D01*
X104812000Y-105712000D02*
X105410000Y-106310000D01*
X107360000Y-114825000D02*
X107360000Y-114890000D01*
X104260000Y-105700000D02*
X104812000Y-105700000D01*
%TO.N,M3_GLC_D*%
X93050000Y-99305000D02*
X93050000Y-99210000D01*
%TO.N,M3_GLB_D*%
X92550000Y-99305000D02*
X92550000Y-99210000D01*
%TO.N,M4_LC*%
X95690000Y-91800000D02*
X96320000Y-91800000D01*
X96320000Y-91800000D02*
X96569600Y-92049600D01*
X98491400Y-92049600D02*
X98548300Y-91992700D01*
X96569600Y-92049600D02*
X98491400Y-92049600D01*
X102940000Y-94795000D02*
X102940000Y-94700000D01*
%TO.N,M4_LB*%
X95667500Y-91300000D02*
X95740000Y-91300000D01*
X95585500Y-91300000D02*
X95667500Y-91300000D01*
D78*
X95502510Y-91300000D02*
X95667500Y-91300000D01*
X95667500Y-91300000D02*
X95167510Y-90800000D01*
D77*
X103440000Y-94795000D02*
X103440000Y-94700000D01*
%TO.N,M4_LA*%
X103940000Y-94795000D02*
X103940000Y-94700000D01*
X96120000Y-90787472D02*
X96120000Y-90920000D01*
%TO.N,M4_HC*%
X104685000Y-94050000D02*
X104590000Y-94050000D01*
X96620000Y-90725000D02*
X96620000Y-90870000D01*
%TO.N,M4_HB*%
X97620000Y-90725000D02*
X97620000Y-90870000D01*
X104685000Y-93550000D02*
X104590000Y-93550000D01*
%TO.N,M4_HA*%
X98120000Y-90725000D02*
X98120000Y-90870000D01*
X104685000Y-93050000D02*
X104590000Y-93050000D01*
%TO.N,M2_GLC*%
D81*
X113020000Y-94030000D02*
X113430000Y-92500000D01*
%TO.N,M4_GLC_D*%
D77*
X100695000Y-93050000D02*
X100790000Y-93050000D01*
%TO.N,M3_GLB*%
D81*
X86980000Y-100970000D02*
X86570000Y-102500000D01*
%TD*%
%TA.AperFunction,Conductor*%
%TO.N,M4_B*%
G36*
X101515908Y-83154843D02*
G01*
X101528595Y-83158966D01*
X101578095Y-83194927D01*
X101578096Y-83194928D01*
X101581091Y-83199050D01*
X101600000Y-83257240D01*
X101600000Y-85753946D01*
X101596627Y-85779564D01*
X101590113Y-85803880D01*
X101586095Y-85813578D01*
X101580718Y-85833641D01*
X101580716Y-85833650D01*
X101558500Y-85916565D01*
X101558500Y-86015435D01*
X101571295Y-86063186D01*
X101584090Y-86110940D01*
X101585624Y-86114643D01*
X101589782Y-86126894D01*
X101596625Y-86152427D01*
X101600000Y-86178055D01*
X101600000Y-86235319D01*
X101595155Y-86265912D01*
X101591847Y-86276093D01*
X101555883Y-86325593D01*
X101497692Y-86344500D01*
X99539101Y-86344500D01*
X99518010Y-86345585D01*
X99497781Y-86347674D01*
X99497731Y-86347681D01*
X99490430Y-86348819D01*
X99475187Y-86350000D01*
X98514680Y-86350000D01*
X98484087Y-86345154D01*
X98471401Y-86341032D01*
X98421901Y-86305068D01*
X98421894Y-86305058D01*
X98418900Y-86300936D01*
X98400000Y-86242756D01*
X98400000Y-84360001D01*
X98400000Y-84360000D01*
X98900000Y-84360000D01*
X98900000Y-83820000D01*
X98400000Y-83820000D01*
X98400000Y-83264680D01*
X98404843Y-83234094D01*
X98408965Y-83221405D01*
X98444923Y-83171906D01*
X98445522Y-83171471D01*
X98449063Y-83168900D01*
X98507243Y-83150000D01*
X101485320Y-83150000D01*
X101515908Y-83154843D01*
G37*
%TD.AperFunction*%
%TD*%
%TA.AperFunction,Conductor*%
%TO.N,VBAT*%
G36*
X112309191Y-93398907D02*
G01*
X112345155Y-93448407D01*
X112350000Y-93479000D01*
X112350000Y-95201000D01*
X112331093Y-95259191D01*
X112281593Y-95295155D01*
X112251000Y-95300000D01*
X111719000Y-95300000D01*
X111660809Y-95281093D01*
X111624845Y-95231593D01*
X111620000Y-95201000D01*
X111620000Y-94700001D01*
X111620000Y-94700000D01*
X111619999Y-94700000D01*
X109903500Y-94700000D01*
X109845309Y-94681093D01*
X109809345Y-94631593D01*
X109804500Y-94601000D01*
X109804500Y-94566445D01*
X109804504Y-94544552D01*
X109804509Y-94516618D01*
X109804508Y-94516616D01*
X109804510Y-94507046D01*
X109804500Y-94506934D01*
X109804500Y-93850429D01*
X109804686Y-93848503D01*
X109804658Y-93840021D01*
X109804659Y-93840020D01*
X109804545Y-93805027D01*
X109807916Y-93779093D01*
X109820500Y-93732135D01*
X109820500Y-93633265D01*
X109794910Y-93537762D01*
X109789561Y-93528498D01*
X109776841Y-93468651D01*
X109801728Y-93412756D01*
X109854716Y-93382163D01*
X109875299Y-93380000D01*
X112251000Y-93380000D01*
X112309191Y-93398907D01*
G37*
%TD.AperFunction*%
%TD*%
%TA.AperFunction,Conductor*%
%TO.N,M1_A*%
G36*
X97779191Y-115658907D02*
G01*
X97815155Y-115708407D01*
X97820000Y-115739000D01*
X97820000Y-116081000D01*
X97801093Y-116139191D01*
X97751593Y-116175155D01*
X97721000Y-116180000D01*
X97251295Y-116180000D01*
X97225672Y-116176627D01*
X97219939Y-116175091D01*
X97219938Y-116175090D01*
X97124435Y-116149500D01*
X97025565Y-116149500D01*
X96930062Y-116175090D01*
X96930060Y-116175091D01*
X96924328Y-116176627D01*
X96898705Y-116180000D01*
X96100000Y-116180000D01*
X96100000Y-115640000D01*
X96600000Y-115640000D01*
X96600001Y-115640000D01*
X97721000Y-115640000D01*
X97779191Y-115658907D01*
G37*
%TD.AperFunction*%
%TD*%
%TA.AperFunction,Conductor*%
%TO.N,M2_B*%
G36*
X115640000Y-98900000D02*
G01*
X116180000Y-98900000D01*
X116180000Y-98400000D01*
X116180001Y-98400000D01*
X116735320Y-98400000D01*
X116765908Y-98404843D01*
X116778595Y-98408966D01*
X116828095Y-98444927D01*
X116828096Y-98444928D01*
X116831091Y-98449050D01*
X116850000Y-98507240D01*
X116850000Y-101485319D01*
X116845154Y-101515912D01*
X116841032Y-101528598D01*
X116805080Y-101578089D01*
X116800959Y-101581084D01*
X116742771Y-101600000D01*
X114246054Y-101600000D01*
X114220434Y-101596627D01*
X114194909Y-101589788D01*
X114182653Y-101585628D01*
X114178938Y-101584089D01*
X114167753Y-101581092D01*
X114167753Y-101581093D01*
X114083435Y-101558500D01*
X114083433Y-101558500D01*
X113984566Y-101558500D01*
X113984565Y-101558500D01*
X113952730Y-101567030D01*
X113920895Y-101575560D01*
X113920894Y-101575559D01*
X113889055Y-101584091D01*
X113885345Y-101585628D01*
X113873089Y-101589788D01*
X113847570Y-101596626D01*
X113821946Y-101600000D01*
X113764680Y-101600000D01*
X113734085Y-101595154D01*
X113723905Y-101591846D01*
X113674406Y-101555880D01*
X113655500Y-101497692D01*
X113655500Y-99539124D01*
X113655500Y-99539111D01*
X113654408Y-99517955D01*
X113652310Y-99497684D01*
X113651182Y-99490449D01*
X113650000Y-99475196D01*
X113650000Y-98514680D01*
X113654843Y-98484094D01*
X113658965Y-98471405D01*
X113694923Y-98421906D01*
X113695522Y-98421471D01*
X113699063Y-98418900D01*
X113757243Y-98400000D01*
X115639999Y-98400000D01*
X115640000Y-98400000D01*
X115640000Y-98900000D01*
G37*
%TD.AperFunction*%
%TD*%
%TA.AperFunction,Conductor*%
%TO.N,VBAT*%
G36*
X100259191Y-87668907D02*
G01*
X100295155Y-87718407D01*
X100300000Y-87749000D01*
X100300000Y-88281000D01*
X100281093Y-88339191D01*
X100231593Y-88375155D01*
X100201000Y-88380000D01*
X99700000Y-88380000D01*
X99700000Y-88380001D01*
X99700000Y-90151000D01*
X99681093Y-90209191D01*
X99631593Y-90245155D01*
X99601000Y-90250000D01*
X98479000Y-90250000D01*
X98420809Y-90231093D01*
X98384845Y-90181593D01*
X98380000Y-90151000D01*
X98380000Y-87749000D01*
X98398907Y-87690809D01*
X98448407Y-87654845D01*
X98479000Y-87650000D01*
X100201000Y-87650000D01*
X100259191Y-87668907D01*
G37*
%TD.AperFunction*%
%TD*%
%TA.AperFunction,Conductor*%
%TO.N,M2_C*%
G36*
X116139191Y-92338907D02*
G01*
X116175155Y-92388407D01*
X116180000Y-92419000D01*
X116180000Y-93900000D01*
X115640000Y-93900000D01*
X115640000Y-92419000D01*
X115658907Y-92360809D01*
X115708407Y-92324845D01*
X115739000Y-92320000D01*
X116081000Y-92320000D01*
X116139191Y-92338907D01*
G37*
%TD.AperFunction*%
%TD*%
%TA.AperFunction,Conductor*%
%TO.N,M4_SRC*%
G36*
X91489871Y-86553373D02*
G01*
X91494681Y-86554661D01*
X91514193Y-86559890D01*
X91538077Y-86569784D01*
X91545097Y-86573838D01*
X91566680Y-86597814D01*
X91600992Y-86606392D01*
X91602595Y-86606806D01*
X91697365Y-86632200D01*
X91697367Y-86632200D01*
X91796233Y-86632200D01*
X91796235Y-86632200D01*
X91891738Y-86606610D01*
X91937427Y-86580230D01*
X91966334Y-86569134D01*
X91977485Y-86566764D01*
X92038334Y-86573163D01*
X92083789Y-86614084D01*
X92086226Y-86618305D01*
X92099500Y-86667821D01*
X92099500Y-86744869D01*
X92099550Y-86745292D01*
X92102412Y-86769985D01*
X92102413Y-86769989D01*
X92102414Y-86769990D01*
X92127756Y-86827385D01*
X92127756Y-86827386D01*
X92147792Y-86872762D01*
X92147793Y-86872763D01*
X92147794Y-86872765D01*
X92227235Y-86952206D01*
X92330009Y-86997585D01*
X92355135Y-87000500D01*
X92644864Y-87000499D01*
X92669991Y-86997585D01*
X92687221Y-86989976D01*
X92717158Y-86982052D01*
X92744675Y-86979245D01*
X92780339Y-86982107D01*
X93540981Y-87185939D01*
X93569276Y-87198538D01*
X93580464Y-87205804D01*
X93618961Y-87253345D01*
X93622922Y-87263662D01*
X93629098Y-87296981D01*
X93629110Y-87296980D01*
X93629146Y-87297238D01*
X93629231Y-87297697D01*
X93629328Y-87297689D01*
X93629328Y-87297695D01*
X93629415Y-87297692D01*
X93629468Y-87298975D01*
X93629500Y-87299146D01*
X93629500Y-87299756D01*
X93634758Y-87326184D01*
X93627568Y-87386946D01*
X93586036Y-87431876D01*
X93537661Y-87444500D01*
X93479000Y-87444500D01*
X93446856Y-87447030D01*
X93416206Y-87451883D01*
X93411718Y-87452646D01*
X93411713Y-87452647D01*
X93327617Y-87488591D01*
X93278118Y-87524555D01*
X93250372Y-87548797D01*
X93203464Y-87627307D01*
X93203462Y-87627310D01*
X93184556Y-87685499D01*
X93174500Y-87748996D01*
X93174500Y-89990883D01*
X93155593Y-90049074D01*
X93106093Y-90085038D01*
X93049876Y-90086509D01*
X92932886Y-90055160D01*
X92932886Y-90055161D01*
X92874435Y-90039500D01*
X92775565Y-90039500D01*
X92775563Y-90039500D01*
X92717115Y-90055159D01*
X92717116Y-90055160D01*
X92680058Y-90065090D01*
X92594444Y-90114519D01*
X92524521Y-90184442D01*
X92475090Y-90270057D01*
X92473823Y-90274789D01*
X92473633Y-90275500D01*
X92449500Y-90365565D01*
X92449500Y-90464435D01*
X92475089Y-90559936D01*
X92475090Y-90559938D01*
X92475092Y-90559941D01*
X92479719Y-90567956D01*
X92489608Y-90591829D01*
X92496126Y-90616153D01*
X92499500Y-90641778D01*
X92499500Y-92924614D01*
X92497904Y-92924614D01*
X92497113Y-92928216D01*
X92499124Y-92939419D01*
X92495800Y-92967492D01*
X92483224Y-93005350D01*
X92440089Y-93080062D01*
X92440086Y-93080069D01*
X92439681Y-93081582D01*
X92427085Y-93109871D01*
X92422597Y-93116782D01*
X92375047Y-93155287D01*
X92313945Y-93158490D01*
X92262631Y-93125166D01*
X92262630Y-93125165D01*
X92259978Y-93121890D01*
X92241290Y-93085212D01*
X92239910Y-93080062D01*
X92239908Y-93080058D01*
X92191961Y-92997012D01*
X92190874Y-92994992D01*
X92190476Y-92994440D01*
X92190475Y-92994438D01*
X92120562Y-92924525D01*
X92120559Y-92924523D01*
X92092228Y-92908166D01*
X92071193Y-92884803D01*
X91997886Y-92865160D01*
X91997886Y-92865161D01*
X91939435Y-92849500D01*
X91840565Y-92849500D01*
X91840563Y-92849500D01*
X91782115Y-92865159D01*
X91782116Y-92865160D01*
X91745058Y-92875090D01*
X91659444Y-92924519D01*
X91589522Y-92994441D01*
X91540088Y-93080063D01*
X91539683Y-93081577D01*
X91538539Y-93084146D01*
X91538316Y-93084734D01*
X91538282Y-93084721D01*
X91527084Y-93109873D01*
X91522595Y-93116785D01*
X91475044Y-93155289D01*
X91413942Y-93158489D01*
X91362630Y-93125165D01*
X91359978Y-93121890D01*
X91341290Y-93085212D01*
X91339910Y-93080062D01*
X91339908Y-93080058D01*
X91291961Y-92997012D01*
X91290874Y-92994992D01*
X91290476Y-92994440D01*
X91290475Y-92994438D01*
X91220562Y-92924525D01*
X91220559Y-92924523D01*
X91192228Y-92908166D01*
X91171193Y-92884803D01*
X91097886Y-92865160D01*
X91097886Y-92865161D01*
X91039435Y-92849500D01*
X90940565Y-92849500D01*
X90940563Y-92849500D01*
X90882115Y-92865159D01*
X90882116Y-92865160D01*
X90845058Y-92875090D01*
X90759444Y-92924519D01*
X90689522Y-92994441D01*
X90671248Y-93026093D01*
X90640094Y-93080054D01*
X90640089Y-93080062D01*
X90631671Y-93111479D01*
X90619071Y-93139776D01*
X90611807Y-93150961D01*
X90564262Y-93189463D01*
X90553947Y-93193423D01*
X90518465Y-93200000D01*
X90410267Y-93200000D01*
X90352076Y-93181093D01*
X90348972Y-93178743D01*
X90348871Y-93178663D01*
X90299384Y-93142711D01*
X90299381Y-93142709D01*
X90299379Y-93142708D01*
X90242108Y-93113527D01*
X90229421Y-93109404D01*
X90213733Y-93105637D01*
X90198043Y-93101870D01*
X90198041Y-93101869D01*
X90167465Y-93097029D01*
X90167458Y-93097028D01*
X90167457Y-93097028D01*
X90167454Y-93097027D01*
X90167439Y-93097026D01*
X90142134Y-93095036D01*
X90135320Y-93094500D01*
X90135318Y-93094500D01*
X89552901Y-93094500D01*
X89494710Y-93075593D01*
X89458746Y-93026093D01*
X89454666Y-93007782D01*
X89452026Y-92986669D01*
X89449175Y-92963863D01*
X89449174Y-92963859D01*
X89449174Y-92963857D01*
X89439205Y-92924614D01*
X89439171Y-92924479D01*
X89443169Y-92863425D01*
X89471975Y-92825374D01*
X89471674Y-92825073D01*
X89473853Y-92822893D01*
X89474869Y-92821552D01*
X89476246Y-92820494D01*
X89476263Y-92820485D01*
X89555485Y-92741263D01*
X89611503Y-92644237D01*
X89640500Y-92536018D01*
X89640500Y-92423982D01*
X89611503Y-92315763D01*
X89611501Y-92315760D01*
X89611501Y-92315758D01*
X89611499Y-92315755D01*
X89611409Y-92315418D01*
X89609915Y-92313011D01*
X89563759Y-92233068D01*
X89555486Y-92218739D01*
X89555485Y-92218737D01*
X89476263Y-92139515D01*
X89476260Y-92139513D01*
X89456453Y-92128077D01*
X89447317Y-92119138D01*
X89439011Y-92112412D01*
X89426310Y-92098307D01*
X89403039Y-92052627D01*
X89402160Y-92048488D01*
X89400000Y-92027922D01*
X89400000Y-90365565D01*
X90799500Y-90365565D01*
X90799500Y-90464435D01*
X90825089Y-90559936D01*
X90825090Y-90559938D01*
X90825092Y-90559941D01*
X90829719Y-90567956D01*
X90839608Y-90591829D01*
X90846126Y-90616153D01*
X90849500Y-90641778D01*
X90849500Y-91169746D01*
X90849501Y-91169758D01*
X90860391Y-91224500D01*
X90861133Y-91228231D01*
X90861133Y-91228232D01*
X90861134Y-91228233D01*
X90878846Y-91254740D01*
X90905448Y-91294552D01*
X90971769Y-91338867D01*
X90971770Y-91338867D01*
X90971772Y-91338868D01*
X90988334Y-91342162D01*
X91003307Y-91345140D01*
X91003309Y-91345141D01*
X91017442Y-91347952D01*
X91024156Y-91349287D01*
X91026324Y-91349862D01*
X91028518Y-91350218D01*
X91030079Y-91350500D01*
X91319748Y-91350500D01*
X91323551Y-91350500D01*
X91329291Y-91348602D01*
X91331297Y-91348202D01*
X91362258Y-91346983D01*
X91370453Y-91347952D01*
X91426015Y-91373569D01*
X91455911Y-91426953D01*
X91448719Y-91487715D01*
X91448717Y-91487718D01*
X91446011Y-91493587D01*
X91426114Y-91522135D01*
X91411882Y-91536367D01*
X91411879Y-91536371D01*
X91409514Y-91538737D01*
X91353498Y-91635758D01*
X91353497Y-91635763D01*
X91349604Y-91650288D01*
X91349603Y-91650292D01*
X91324500Y-91743982D01*
X91324500Y-91856017D01*
X91337691Y-91905251D01*
X91353497Y-91964240D01*
X91353498Y-91964241D01*
X91409513Y-92061260D01*
X91409515Y-92061263D01*
X91488737Y-92140485D01*
X91521076Y-92159155D01*
X91528986Y-92163722D01*
X91550585Y-92187708D01*
X91584893Y-92196285D01*
X91586496Y-92196699D01*
X91693982Y-92225500D01*
X91693984Y-92225500D01*
X91806016Y-92225500D01*
X91806018Y-92225500D01*
X91914237Y-92196503D01*
X91914238Y-92196501D01*
X91914240Y-92196501D01*
X91914241Y-92196501D01*
X91950615Y-92175500D01*
X92011263Y-92140485D01*
X92090485Y-92061263D01*
X92146503Y-91964237D01*
X92175500Y-91856018D01*
X92175500Y-91743982D01*
X92146503Y-91635763D01*
X92146501Y-91635760D01*
X92146501Y-91635758D01*
X92146499Y-91635755D01*
X92146409Y-91635418D01*
X92144915Y-91633011D01*
X92091266Y-91540089D01*
X92091261Y-91540081D01*
X92090486Y-91538739D01*
X92090485Y-91538737D01*
X92011263Y-91459515D01*
X92011260Y-91459513D01*
X91971526Y-91436572D01*
X91950492Y-91413210D01*
X91854852Y-91387585D01*
X91854851Y-91387584D01*
X91819102Y-91378005D01*
X91806018Y-91374500D01*
X91806017Y-91374500D01*
X91693983Y-91374500D01*
X91693982Y-91374500D01*
X91664682Y-91382350D01*
X91604384Y-91398507D01*
X91586441Y-91401582D01*
X91567444Y-91403060D01*
X91507962Y-91388723D01*
X91468267Y-91342162D01*
X91463521Y-91281161D01*
X91465044Y-91274842D01*
X91478973Y-91243036D01*
X91488867Y-91228231D01*
X91500500Y-91169748D01*
X91500500Y-90641778D01*
X91503873Y-90616157D01*
X91510391Y-90591831D01*
X91520281Y-90567955D01*
X91524910Y-90559938D01*
X91550500Y-90464435D01*
X91550500Y-90365565D01*
X91524910Y-90270062D01*
X91524908Y-90270059D01*
X91524908Y-90270057D01*
X91524906Y-90270054D01*
X91524816Y-90269717D01*
X91523322Y-90267310D01*
X91476957Y-90187004D01*
X91475875Y-90184994D01*
X91475476Y-90184440D01*
X91475475Y-90184438D01*
X91405562Y-90114525D01*
X91404698Y-90114026D01*
X91404686Y-90114019D01*
X91404686Y-90114018D01*
X91377229Y-90098166D01*
X91356194Y-90074804D01*
X91282886Y-90055160D01*
X91282886Y-90055161D01*
X91224435Y-90039500D01*
X91125565Y-90039500D01*
X91125563Y-90039500D01*
X91067115Y-90055159D01*
X91067116Y-90055160D01*
X91030058Y-90065090D01*
X90944444Y-90114519D01*
X90874521Y-90184442D01*
X90825090Y-90270057D01*
X90823822Y-90274789D01*
X90823799Y-90274879D01*
X90823633Y-90275500D01*
X90799500Y-90365565D01*
X89400000Y-90365565D01*
X89400000Y-89539028D01*
X89404845Y-89508437D01*
X89411792Y-89487055D01*
X89439539Y-89446408D01*
X89438596Y-89445465D01*
X89442025Y-89442035D01*
X89442031Y-89442031D01*
X89827555Y-88972267D01*
X89837459Y-88953739D01*
X89879808Y-88874511D01*
X90037270Y-88579918D01*
X90114026Y-88436318D01*
X90290434Y-87854779D01*
X90290435Y-87854774D01*
X90350000Y-87250003D01*
X90350000Y-87249997D01*
X90350000Y-87249989D01*
X90312846Y-86872765D01*
X90293299Y-86674302D01*
X90295121Y-86643396D01*
X90297982Y-86630353D01*
X90328919Y-86577573D01*
X90330919Y-86575796D01*
X90376413Y-86552901D01*
X90380274Y-86552093D01*
X90400528Y-86550000D01*
X91464251Y-86550000D01*
X91489871Y-86553373D01*
G37*
%TD.AperFunction*%
%TA.AperFunction,Conductor*%
G36*
X97015409Y-86554843D02*
G01*
X97028096Y-86558966D01*
X97077596Y-86594927D01*
X97077597Y-86594928D01*
X97080592Y-86599050D01*
X97099501Y-86657240D01*
X97099501Y-86744864D01*
X97099502Y-86744869D01*
X97102413Y-86769988D01*
X97102414Y-86769990D01*
X97127756Y-86827385D01*
X97127756Y-86827386D01*
X97147792Y-86872762D01*
X97147793Y-86872763D01*
X97147794Y-86872765D01*
X97227235Y-86952206D01*
X97330009Y-86997585D01*
X97355135Y-87000500D01*
X97644864Y-87000499D01*
X97669991Y-86997585D01*
X97687221Y-86989976D01*
X97717158Y-86982052D01*
X97744675Y-86979245D01*
X97780339Y-86982107D01*
X98540981Y-87185939D01*
X98569276Y-87198538D01*
X98580464Y-87205804D01*
X98618961Y-87253345D01*
X98622922Y-87263662D01*
X98629098Y-87296981D01*
X98629110Y-87296980D01*
X98629146Y-87297238D01*
X98629231Y-87297697D01*
X98629328Y-87297689D01*
X98629328Y-87297695D01*
X98629415Y-87297692D01*
X98629468Y-87298975D01*
X98629500Y-87299146D01*
X98629500Y-87299756D01*
X98634758Y-87326184D01*
X98627568Y-87386946D01*
X98586036Y-87431876D01*
X98537661Y-87444500D01*
X98479000Y-87444500D01*
X98446856Y-87447030D01*
X98416206Y-87451883D01*
X98411718Y-87452646D01*
X98411713Y-87452647D01*
X98327617Y-87488591D01*
X98278118Y-87524555D01*
X98250372Y-87548797D01*
X98203464Y-87627307D01*
X98203462Y-87627310D01*
X98184556Y-87685499D01*
X98174500Y-87748996D01*
X98174500Y-90151000D01*
X98155593Y-90209191D01*
X98106093Y-90245155D01*
X98075500Y-90250000D01*
X94997182Y-90250000D01*
X94938991Y-90231093D01*
X94903027Y-90181593D01*
X94899401Y-90135514D01*
X94905500Y-90097003D01*
X94905500Y-88684500D01*
X94924407Y-88626309D01*
X94973907Y-88590345D01*
X95004500Y-88585500D01*
X95200993Y-88585500D01*
X95201000Y-88585500D01*
X95233144Y-88582970D01*
X95263737Y-88578125D01*
X95263748Y-88578123D01*
X95263793Y-88578116D01*
X95268281Y-88577353D01*
X95268280Y-88577353D01*
X95268287Y-88577352D01*
X95352383Y-88541408D01*
X95401883Y-88505444D01*
X95429628Y-88481203D01*
X95476536Y-88402693D01*
X95495443Y-88344502D01*
X95505500Y-88281000D01*
X95505500Y-87749000D01*
X95502970Y-87716856D01*
X95498125Y-87686263D01*
X95498116Y-87686206D01*
X95497353Y-87681714D01*
X95497352Y-87681713D01*
X95461408Y-87597617D01*
X95425444Y-87548117D01*
X95401203Y-87520372D01*
X95322693Y-87473464D01*
X95322691Y-87473463D01*
X95322689Y-87473462D01*
X95264499Y-87454556D01*
X95264500Y-87454556D01*
X95201003Y-87444500D01*
X95201000Y-87444500D01*
X94522339Y-87444500D01*
X94464148Y-87425593D01*
X94428184Y-87376093D01*
X94425241Y-87326185D01*
X94430500Y-87299748D01*
X94430500Y-86668739D01*
X94432801Y-86647517D01*
X94433708Y-86643387D01*
X94435926Y-86633277D01*
X94466868Y-86580493D01*
X94522927Y-86555976D01*
X94532625Y-86555500D01*
X96492771Y-86555500D01*
X96519783Y-86551220D01*
X96535276Y-86550000D01*
X96984821Y-86550000D01*
X97015409Y-86554843D01*
G37*
%TD.AperFunction*%
%TA.AperFunction,Conductor*%
G36*
X102015409Y-86554843D02*
G01*
X102028096Y-86558966D01*
X102077596Y-86594927D01*
X102077597Y-86594928D01*
X102080592Y-86599050D01*
X102099501Y-86657240D01*
X102099501Y-86744864D01*
X102099502Y-86744869D01*
X102102413Y-86769988D01*
X102102414Y-86769990D01*
X102127756Y-86827385D01*
X102127756Y-86827386D01*
X102147792Y-86872762D01*
X102147793Y-86872763D01*
X102147794Y-86872765D01*
X102227235Y-86952206D01*
X102330009Y-86997585D01*
X102355135Y-87000500D01*
X102644864Y-87000499D01*
X102669991Y-86997585D01*
X102687221Y-86989976D01*
X102717158Y-86982052D01*
X102744675Y-86979245D01*
X102780339Y-86982107D01*
X103540981Y-87185939D01*
X103569276Y-87198538D01*
X103580464Y-87205804D01*
X103618961Y-87253345D01*
X103622922Y-87263662D01*
X103629098Y-87296981D01*
X103629110Y-87296980D01*
X103629146Y-87297238D01*
X103629231Y-87297697D01*
X103629328Y-87297689D01*
X103629328Y-87297695D01*
X103629415Y-87297692D01*
X103629468Y-87298975D01*
X103629500Y-87299146D01*
X103629500Y-87299756D01*
X103634758Y-87326184D01*
X103627568Y-87386946D01*
X103586036Y-87431876D01*
X103537661Y-87444500D01*
X103479000Y-87444500D01*
X103446856Y-87447030D01*
X103416206Y-87451883D01*
X103411718Y-87452646D01*
X103411713Y-87452647D01*
X103327617Y-87488591D01*
X103278118Y-87524555D01*
X103250372Y-87548797D01*
X103203464Y-87627307D01*
X103203462Y-87627310D01*
X103184556Y-87685499D01*
X103174500Y-87748996D01*
X103174500Y-90151000D01*
X103155593Y-90209191D01*
X103106093Y-90245155D01*
X103075500Y-90250000D01*
X100004500Y-90250000D01*
X99946309Y-90231093D01*
X99910345Y-90181593D01*
X99905500Y-90151000D01*
X99905500Y-88684500D01*
X99924407Y-88626309D01*
X99973907Y-88590345D01*
X100004500Y-88585500D01*
X100200993Y-88585500D01*
X100201000Y-88585500D01*
X100233144Y-88582970D01*
X100263737Y-88578125D01*
X100263748Y-88578123D01*
X100263793Y-88578116D01*
X100268281Y-88577353D01*
X100268280Y-88577353D01*
X100268287Y-88577352D01*
X100352383Y-88541408D01*
X100401883Y-88505444D01*
X100429628Y-88481203D01*
X100476536Y-88402693D01*
X100495443Y-88344502D01*
X100505500Y-88281000D01*
X100505500Y-87749000D01*
X100502970Y-87716856D01*
X100498125Y-87686263D01*
X100498116Y-87686206D01*
X100497353Y-87681714D01*
X100497352Y-87681713D01*
X100461408Y-87597617D01*
X100425444Y-87548117D01*
X100401203Y-87520372D01*
X100322693Y-87473464D01*
X100322691Y-87473463D01*
X100322689Y-87473462D01*
X100264499Y-87454556D01*
X100264500Y-87454556D01*
X100201003Y-87444500D01*
X100201000Y-87444500D01*
X99522339Y-87444500D01*
X99464148Y-87425593D01*
X99428184Y-87376093D01*
X99425241Y-87326185D01*
X99430500Y-87299748D01*
X99430500Y-86668739D01*
X99432800Y-86647522D01*
X99432801Y-86647517D01*
X99436567Y-86630355D01*
X99467502Y-86577575D01*
X99469504Y-86575796D01*
X99515011Y-86552898D01*
X99518873Y-86552090D01*
X99539112Y-86550000D01*
X101984821Y-86550000D01*
X102015409Y-86554843D01*
G37*
%TD.AperFunction*%
%TA.AperFunction,Conductor*%
G36*
X107815908Y-86554843D02*
G01*
X107828595Y-86558966D01*
X107878095Y-86594927D01*
X107878096Y-86594928D01*
X107881091Y-86599050D01*
X107900000Y-86657240D01*
X107900000Y-88755913D01*
X107895154Y-88786507D01*
X107891633Y-88797343D01*
X107855669Y-88846843D01*
X107797479Y-88865749D01*
X107792607Y-88865749D01*
X107743107Y-88852485D01*
X107718133Y-88838066D01*
X107684237Y-88818496D01*
X107648165Y-88808830D01*
X107648165Y-88808831D01*
X107605289Y-88797343D01*
X107576018Y-88789500D01*
X107576017Y-88789500D01*
X107463983Y-88789500D01*
X107463982Y-88789500D01*
X107449986Y-88793250D01*
X107397748Y-88807246D01*
X107397748Y-88807247D01*
X107364626Y-88816121D01*
X107355754Y-88818499D01*
X107258741Y-88874511D01*
X107179511Y-88953741D01*
X107123498Y-89050756D01*
X107115687Y-89079905D01*
X107104643Y-89121123D01*
X107071321Y-89172437D01*
X107014200Y-89194364D01*
X107009018Y-89194500D01*
X106907246Y-89194500D01*
X106907243Y-89194500D01*
X106843752Y-89204554D01*
X106813564Y-89214360D01*
X106785571Y-89223454D01*
X106771279Y-89230733D01*
X106754617Y-89239218D01*
X106709691Y-89250000D01*
X106700000Y-89250000D01*
X106695003Y-89254997D01*
X106681093Y-89297810D01*
X106680808Y-89298172D01*
X106642703Y-89350627D01*
X106613519Y-89407914D01*
X106613517Y-89407919D01*
X106609396Y-89420606D01*
X106601874Y-89451941D01*
X106601873Y-89451948D01*
X106597029Y-89482534D01*
X106595667Y-89499846D01*
X106594992Y-89508437D01*
X106594500Y-89514686D01*
X106594500Y-90151000D01*
X106575593Y-90209191D01*
X106526093Y-90245155D01*
X106495500Y-90250000D01*
X106097015Y-90250000D01*
X106066423Y-90245155D01*
X106043194Y-90237607D01*
X106003785Y-90213458D01*
X105979862Y-90189535D01*
X105979859Y-90189533D01*
X105956151Y-90175845D01*
X105956151Y-90175844D01*
X105905639Y-90146682D01*
X105878043Y-90139288D01*
X105822853Y-90124500D01*
X105822851Y-90124500D01*
X105737148Y-90124500D01*
X105737147Y-90124500D01*
X105724341Y-90127931D01*
X105654363Y-90146680D01*
X105654359Y-90146682D01*
X105590174Y-90183739D01*
X105561255Y-90194839D01*
X105548207Y-90197612D01*
X105487359Y-90191215D01*
X105477268Y-90186722D01*
X105447537Y-90166288D01*
X105432265Y-90151017D01*
X105432262Y-90151014D01*
X105425567Y-90147149D01*
X105425567Y-90147148D01*
X105392528Y-90128073D01*
X105371492Y-90104710D01*
X105293251Y-90083747D01*
X105293250Y-90083746D01*
X105244764Y-90070755D01*
X105227018Y-90066000D01*
X105227017Y-90066000D01*
X105114983Y-90066000D01*
X105114982Y-90066000D01*
X105082124Y-90074804D01*
X105048747Y-90083747D01*
X105048745Y-90083747D01*
X105030120Y-90088737D01*
X104969019Y-90085533D01*
X104921470Y-90047027D01*
X104905500Y-89993110D01*
X104905500Y-88684500D01*
X104924407Y-88626309D01*
X104973907Y-88590345D01*
X105004500Y-88585500D01*
X105200993Y-88585500D01*
X105201000Y-88585500D01*
X105233144Y-88582970D01*
X105263737Y-88578125D01*
X105263748Y-88578123D01*
X105263793Y-88578116D01*
X105268281Y-88577353D01*
X105268280Y-88577353D01*
X105268287Y-88577352D01*
X105352383Y-88541408D01*
X105401883Y-88505444D01*
X105429628Y-88481203D01*
X105476536Y-88402693D01*
X105495443Y-88344502D01*
X105505500Y-88281000D01*
X105505500Y-87749000D01*
X105502970Y-87716856D01*
X105498125Y-87686263D01*
X105498116Y-87686206D01*
X105497353Y-87681714D01*
X105497352Y-87681713D01*
X105461408Y-87597617D01*
X105425444Y-87548117D01*
X105401203Y-87520372D01*
X105322693Y-87473464D01*
X105322691Y-87473463D01*
X105322689Y-87473462D01*
X105264499Y-87454556D01*
X105264500Y-87454556D01*
X105201003Y-87444500D01*
X105201000Y-87444500D01*
X104522339Y-87444500D01*
X104464148Y-87425593D01*
X104428184Y-87376093D01*
X104425241Y-87326185D01*
X104430500Y-87299748D01*
X104430500Y-86668739D01*
X104432801Y-86647517D01*
X104433708Y-86643387D01*
X104435926Y-86633277D01*
X104466868Y-86580493D01*
X104522927Y-86555976D01*
X104532625Y-86555500D01*
X106500993Y-86555500D01*
X106501000Y-86555500D01*
X106533144Y-86552970D01*
X106544201Y-86551218D01*
X106559686Y-86550000D01*
X107785320Y-86550000D01*
X107815908Y-86554843D01*
G37*
%TD.AperFunction*%
%TD*%
%TA.AperFunction,Conductor*%
%TO.N,M2_SRC*%
G36*
X112681765Y-104426822D02*
G01*
X112686229Y-104427711D01*
X112686231Y-104427711D01*
X112694159Y-104429288D01*
X112696324Y-104429861D01*
X112698514Y-104430217D01*
X112700081Y-104430500D01*
X113331260Y-104430500D01*
X113352474Y-104432800D01*
X113362318Y-104434959D01*
X113366714Y-104435924D01*
X113419502Y-104466861D01*
X113444023Y-104522918D01*
X113444500Y-104532624D01*
X113444500Y-106501000D01*
X113446467Y-106526000D01*
X113447030Y-106533146D01*
X113448781Y-106544198D01*
X113450000Y-106559685D01*
X113450000Y-107785319D01*
X113445154Y-107815912D01*
X113441032Y-107828598D01*
X113405080Y-107878089D01*
X113400959Y-107881084D01*
X113342771Y-107900000D01*
X111244085Y-107900000D01*
X111213488Y-107895153D01*
X111202653Y-107891632D01*
X111153155Y-107855666D01*
X111134250Y-107797479D01*
X111134250Y-107792609D01*
X111147512Y-107743110D01*
X111181501Y-107684241D01*
X111181501Y-107684239D01*
X111181503Y-107684237D01*
X111210500Y-107576018D01*
X111210500Y-107463982D01*
X111181503Y-107355763D01*
X111181501Y-107355760D01*
X111181501Y-107355758D01*
X111181499Y-107355755D01*
X111181409Y-107355418D01*
X111179915Y-107353011D01*
X111126967Y-107261303D01*
X111125885Y-107259293D01*
X111125486Y-107258739D01*
X111125485Y-107258737D01*
X111046263Y-107179515D01*
X111006527Y-107156573D01*
X110985490Y-107133210D01*
X110878877Y-107104644D01*
X110827563Y-107071320D01*
X110805636Y-107014199D01*
X110805500Y-107009017D01*
X110805500Y-106907243D01*
X110805500Y-106907240D01*
X110795440Y-106843731D01*
X110776531Y-106785541D01*
X110760790Y-106754651D01*
X110750000Y-106709705D01*
X110750000Y-106700001D01*
X110750000Y-106700000D01*
X110749999Y-106700000D01*
X110745057Y-106695058D01*
X110702076Y-106681093D01*
X110698972Y-106678743D01*
X110698871Y-106678663D01*
X110649384Y-106642711D01*
X110649381Y-106642709D01*
X110649379Y-106642708D01*
X110592108Y-106613527D01*
X110579421Y-106609404D01*
X110563733Y-106605637D01*
X110548043Y-106601870D01*
X110548041Y-106601869D01*
X110517465Y-106597029D01*
X110517458Y-106597028D01*
X110517457Y-106597028D01*
X110517454Y-106597027D01*
X110517439Y-106597026D01*
X110492134Y-106595036D01*
X110485320Y-106594500D01*
X110485318Y-106594500D01*
X109849000Y-106594500D01*
X109790809Y-106575593D01*
X109754845Y-106526093D01*
X109750000Y-106495500D01*
X109750000Y-106097014D01*
X109754845Y-106066422D01*
X109762392Y-106043194D01*
X109786545Y-106003781D01*
X109810465Y-105979862D01*
X109853318Y-105905638D01*
X109875500Y-105822853D01*
X109875500Y-105737147D01*
X109853318Y-105654362D01*
X109816442Y-105590490D01*
X109805344Y-105561580D01*
X109802570Y-105548532D01*
X109808962Y-105487686D01*
X109813461Y-105477582D01*
X109833895Y-105447851D01*
X109849485Y-105432263D01*
X109849486Y-105432260D01*
X109849488Y-105432259D01*
X109905501Y-105335241D01*
X109905501Y-105335239D01*
X109905503Y-105335237D01*
X109934500Y-105227018D01*
X109934500Y-105114982D01*
X109911762Y-105030122D01*
X109914965Y-104969021D01*
X109953470Y-104921471D01*
X110007389Y-104905500D01*
X111315500Y-104905500D01*
X111373691Y-104924407D01*
X111409655Y-104973907D01*
X111414500Y-105004500D01*
X111414500Y-105201000D01*
X111416548Y-105227016D01*
X111417030Y-105233143D01*
X111421883Y-105263793D01*
X111422646Y-105268281D01*
X111422647Y-105268286D01*
X111458591Y-105352382D01*
X111458592Y-105352383D01*
X111494556Y-105401883D01*
X111518797Y-105429628D01*
X111597307Y-105476536D01*
X111655498Y-105495443D01*
X111667552Y-105497352D01*
X111718996Y-105505500D01*
X111719000Y-105505500D01*
X112250993Y-105505500D01*
X112251000Y-105505500D01*
X112283144Y-105502970D01*
X112313737Y-105498125D01*
X112313748Y-105498123D01*
X112313793Y-105498116D01*
X112318281Y-105497353D01*
X112318280Y-105497353D01*
X112318287Y-105497352D01*
X112402383Y-105461408D01*
X112451883Y-105425444D01*
X112479628Y-105401203D01*
X112526536Y-105322693D01*
X112545443Y-105264502D01*
X112550409Y-105233143D01*
X112555500Y-105201003D01*
X112555500Y-104522338D01*
X112574407Y-104464147D01*
X112623907Y-104428183D01*
X112673819Y-104425242D01*
X112681765Y-104426822D01*
G37*
%TD.AperFunction*%
%TA.AperFunction,Conductor*%
G36*
X112681765Y-99426822D02*
G01*
X112686229Y-99427711D01*
X112686231Y-99427711D01*
X112694159Y-99429288D01*
X112696324Y-99429861D01*
X112698514Y-99430217D01*
X112700081Y-99430500D01*
X113331260Y-99430500D01*
X113352477Y-99432800D01*
X113369642Y-99436567D01*
X113422425Y-99467503D01*
X113424200Y-99469501D01*
X113447096Y-99514987D01*
X113447902Y-99518840D01*
X113450000Y-99539111D01*
X113450000Y-101984819D01*
X113445154Y-102015412D01*
X113441032Y-102028098D01*
X113405080Y-102077589D01*
X113400959Y-102080584D01*
X113342771Y-102099500D01*
X113255124Y-102099500D01*
X113254708Y-102099550D01*
X113230007Y-102102414D01*
X113127237Y-102147792D01*
X113047794Y-102227235D01*
X113002413Y-102330013D01*
X112999500Y-102355123D01*
X112999500Y-102644854D01*
X112999784Y-102647724D01*
X112999967Y-102648886D01*
X113002415Y-102669995D01*
X113010022Y-102687223D01*
X113017946Y-102717167D01*
X113020751Y-102744677D01*
X113017888Y-102780343D01*
X112985691Y-102900499D01*
X112985691Y-102900500D01*
X112830979Y-103477845D01*
X112830668Y-103479006D01*
X112814060Y-103540980D01*
X112801461Y-103569275D01*
X112794197Y-103580460D01*
X112746654Y-103618961D01*
X112736337Y-103622922D01*
X112702707Y-103629156D01*
X112702719Y-103629377D01*
X112701073Y-103629459D01*
X112700853Y-103629500D01*
X112700248Y-103629500D01*
X112700241Y-103629501D01*
X112673813Y-103634758D01*
X112613052Y-103627566D01*
X112568122Y-103586033D01*
X112555500Y-103537660D01*
X112555500Y-103479006D01*
X112555409Y-103477845D01*
X112552970Y-103446856D01*
X112548125Y-103416263D01*
X112548116Y-103416206D01*
X112547353Y-103411718D01*
X112547352Y-103411713D01*
X112511408Y-103327617D01*
X112475444Y-103278117D01*
X112451203Y-103250372D01*
X112372693Y-103203464D01*
X112372691Y-103203463D01*
X112372689Y-103203462D01*
X112314499Y-103184556D01*
X112314500Y-103184556D01*
X112251003Y-103174500D01*
X112251000Y-103174500D01*
X109849000Y-103174500D01*
X109790809Y-103155593D01*
X109754845Y-103106093D01*
X109750000Y-103075500D01*
X109750000Y-100004500D01*
X109768907Y-99946309D01*
X109818407Y-99910345D01*
X109849000Y-99905500D01*
X111315500Y-99905500D01*
X111373691Y-99924407D01*
X111409655Y-99973907D01*
X111414500Y-100004500D01*
X111414500Y-100201000D01*
X111417030Y-100233143D01*
X111421883Y-100263793D01*
X111422646Y-100268281D01*
X111422647Y-100268286D01*
X111458591Y-100352382D01*
X111458592Y-100352383D01*
X111494556Y-100401883D01*
X111518797Y-100429628D01*
X111597307Y-100476536D01*
X111655498Y-100495443D01*
X111667552Y-100497352D01*
X111718996Y-100505500D01*
X111719000Y-100505500D01*
X112250993Y-100505500D01*
X112251000Y-100505500D01*
X112283144Y-100502970D01*
X112313737Y-100498125D01*
X112313748Y-100498123D01*
X112313793Y-100498116D01*
X112318281Y-100497353D01*
X112318280Y-100497353D01*
X112318287Y-100497352D01*
X112402383Y-100461408D01*
X112451883Y-100425444D01*
X112479628Y-100401203D01*
X112526536Y-100322693D01*
X112545443Y-100264502D01*
X112555500Y-100201000D01*
X112555500Y-99522338D01*
X112574407Y-99464147D01*
X112623907Y-99428183D01*
X112673819Y-99425242D01*
X112681765Y-99426822D01*
G37*
%TD.AperFunction*%
%TA.AperFunction,Conductor*%
G36*
X112681765Y-94426822D02*
G01*
X112686229Y-94427711D01*
X112686231Y-94427711D01*
X112694159Y-94429288D01*
X112696324Y-94429861D01*
X112698514Y-94430217D01*
X112700081Y-94430500D01*
X113331260Y-94430500D01*
X113352474Y-94432800D01*
X113362318Y-94434959D01*
X113366714Y-94435924D01*
X113419502Y-94466861D01*
X113444023Y-94522918D01*
X113444500Y-94532624D01*
X113444500Y-96492754D01*
X113448782Y-96519796D01*
X113450000Y-96535280D01*
X113450000Y-96984819D01*
X113445154Y-97015412D01*
X113441032Y-97028098D01*
X113405080Y-97077589D01*
X113400959Y-97080584D01*
X113342771Y-97099500D01*
X113255124Y-97099500D01*
X113254708Y-97099550D01*
X113230007Y-97102414D01*
X113127237Y-97147792D01*
X113047794Y-97227235D01*
X113002413Y-97330013D01*
X112999500Y-97355123D01*
X112999500Y-97644854D01*
X112999784Y-97647724D01*
X112999967Y-97648886D01*
X113002415Y-97669995D01*
X113010022Y-97687223D01*
X113017946Y-97717167D01*
X113020751Y-97744677D01*
X113017888Y-97780344D01*
X112910083Y-98182648D01*
X112886807Y-98269510D01*
X112830979Y-98477845D01*
X112830668Y-98479006D01*
X112814060Y-98540980D01*
X112801461Y-98569275D01*
X112794197Y-98580460D01*
X112746654Y-98618961D01*
X112736337Y-98622922D01*
X112702707Y-98629156D01*
X112702719Y-98629377D01*
X112701073Y-98629459D01*
X112700853Y-98629500D01*
X112700248Y-98629500D01*
X112700241Y-98629501D01*
X112673813Y-98634758D01*
X112613052Y-98627566D01*
X112568122Y-98586033D01*
X112555500Y-98537660D01*
X112555500Y-98479006D01*
X112555409Y-98477845D01*
X112552970Y-98446856D01*
X112548125Y-98416263D01*
X112548116Y-98416206D01*
X112547353Y-98411718D01*
X112547352Y-98411713D01*
X112511408Y-98327617D01*
X112475444Y-98278117D01*
X112451203Y-98250372D01*
X112372693Y-98203464D01*
X112372691Y-98203463D01*
X112372689Y-98203462D01*
X112314499Y-98184556D01*
X112314500Y-98184556D01*
X112251003Y-98174500D01*
X112251000Y-98174500D01*
X109849000Y-98174500D01*
X109790809Y-98155593D01*
X109754845Y-98106093D01*
X109750000Y-98075500D01*
X109750000Y-94997102D01*
X109768907Y-94938911D01*
X109818407Y-94902947D01*
X109864485Y-94899321D01*
X109894825Y-94904126D01*
X109903499Y-94905500D01*
X109903500Y-94905500D01*
X111315500Y-94905500D01*
X111373691Y-94924407D01*
X111409655Y-94973907D01*
X111414500Y-95004500D01*
X111414500Y-95201000D01*
X111417030Y-95233143D01*
X111421883Y-95263793D01*
X111422646Y-95268281D01*
X111422647Y-95268286D01*
X111458591Y-95352382D01*
X111458592Y-95352383D01*
X111494556Y-95401883D01*
X111518797Y-95429628D01*
X111597307Y-95476536D01*
X111655498Y-95495443D01*
X111667552Y-95497352D01*
X111718996Y-95505500D01*
X111719000Y-95505500D01*
X112250993Y-95505500D01*
X112251000Y-95505500D01*
X112283144Y-95502970D01*
X112313737Y-95498125D01*
X112313748Y-95498123D01*
X112313793Y-95498116D01*
X112318281Y-95497353D01*
X112318280Y-95497353D01*
X112318287Y-95497352D01*
X112402383Y-95461408D01*
X112451883Y-95425444D01*
X112479628Y-95401203D01*
X112526536Y-95322693D01*
X112545443Y-95264502D01*
X112555500Y-95201000D01*
X112555500Y-94522338D01*
X112574407Y-94464147D01*
X112623907Y-94428183D01*
X112673819Y-94425242D01*
X112681765Y-94426822D01*
G37*
%TD.AperFunction*%
%TA.AperFunction,Conductor*%
G36*
X107093241Y-89404846D02*
G01*
X107111288Y-89410710D01*
X107154258Y-89438612D01*
X107157094Y-89441761D01*
X107169266Y-89458512D01*
X107179515Y-89476263D01*
X107258737Y-89555485D01*
X107258739Y-89555486D01*
X107259289Y-89555883D01*
X107261300Y-89556964D01*
X107298989Y-89578725D01*
X107320585Y-89602708D01*
X107354893Y-89611285D01*
X107356496Y-89611699D01*
X107463982Y-89640500D01*
X107463984Y-89640500D01*
X107576016Y-89640500D01*
X107576018Y-89640500D01*
X107684237Y-89611503D01*
X107684238Y-89611501D01*
X107684240Y-89611501D01*
X107684241Y-89611501D01*
X107713064Y-89594859D01*
X107781263Y-89555485D01*
X107860485Y-89476263D01*
X107868095Y-89463080D01*
X107887586Y-89439012D01*
X107901691Y-89426311D01*
X107947369Y-89403040D01*
X107951516Y-89402159D01*
X107972081Y-89400000D01*
X110460970Y-89400000D01*
X110491561Y-89404845D01*
X110512943Y-89411792D01*
X110553591Y-89439532D01*
X110554531Y-89438593D01*
X110557963Y-89442025D01*
X110557968Y-89442031D01*
X110557973Y-89442035D01*
X110599680Y-89476263D01*
X110764469Y-89611502D01*
X111027734Y-89827557D01*
X111027740Y-89827560D01*
X111563667Y-90114020D01*
X111563673Y-90114023D01*
X111563678Y-90114025D01*
X111563680Y-90114025D01*
X111563681Y-90114026D01*
X111968811Y-90236920D01*
X112145219Y-90290434D01*
X112145224Y-90290435D01*
X112749997Y-90350000D01*
X112749999Y-90350000D01*
X112750000Y-90350000D01*
X112750003Y-90350000D01*
X113325696Y-90293298D01*
X113356604Y-90295120D01*
X113369644Y-90297981D01*
X113422427Y-90328919D01*
X113424201Y-90330915D01*
X113447094Y-90376391D01*
X113447901Y-90380247D01*
X113450000Y-90400527D01*
X113450000Y-91463731D01*
X113446625Y-91489359D01*
X113440108Y-91513676D01*
X113430220Y-91537548D01*
X113393089Y-91601861D01*
X113392812Y-91602593D01*
X113392266Y-91604934D01*
X113377662Y-91659440D01*
X113367500Y-91697365D01*
X113367500Y-91796235D01*
X113379378Y-91840565D01*
X113384560Y-91859903D01*
X113384559Y-91859903D01*
X113393090Y-91891739D01*
X113406079Y-91914237D01*
X113419464Y-91937419D01*
X113430566Y-91966343D01*
X113432934Y-91977487D01*
X113426534Y-92038337D01*
X113385607Y-92083794D01*
X113381389Y-92086230D01*
X113331878Y-92099500D01*
X113255124Y-92099500D01*
X113254708Y-92099550D01*
X113230007Y-92102414D01*
X113127237Y-92147792D01*
X113047794Y-92227235D01*
X113002413Y-92330013D01*
X112999500Y-92355123D01*
X112999500Y-92644854D01*
X112999784Y-92647724D01*
X112999967Y-92648886D01*
X113002415Y-92669995D01*
X113010022Y-92687223D01*
X113017946Y-92717167D01*
X113020751Y-92744677D01*
X113017888Y-92780344D01*
X112912157Y-93174908D01*
X112814060Y-93540979D01*
X112801461Y-93569275D01*
X112794197Y-93580460D01*
X112746654Y-93618961D01*
X112736337Y-93622922D01*
X112702707Y-93629156D01*
X112702719Y-93629377D01*
X112701073Y-93629459D01*
X112700853Y-93629500D01*
X112700248Y-93629500D01*
X112700241Y-93629501D01*
X112673813Y-93634758D01*
X112613052Y-93627566D01*
X112568122Y-93586033D01*
X112555500Y-93537660D01*
X112555500Y-93479006D01*
X112555500Y-93479000D01*
X112552970Y-93446856D01*
X112548125Y-93416263D01*
X112548116Y-93416206D01*
X112547353Y-93411718D01*
X112547352Y-93411713D01*
X112511408Y-93327617D01*
X112509223Y-93324609D01*
X112475444Y-93278117D01*
X112451203Y-93250372D01*
X112372693Y-93203464D01*
X112372691Y-93203463D01*
X112372689Y-93203462D01*
X112314499Y-93184556D01*
X112314500Y-93184556D01*
X112251003Y-93174500D01*
X112251000Y-93174500D01*
X109988279Y-93174500D01*
X109930088Y-93155593D01*
X109894124Y-93106093D01*
X109894124Y-93044907D01*
X109902543Y-93026000D01*
X109934908Y-92969942D01*
X109934908Y-92969940D01*
X109934910Y-92969938D01*
X109960500Y-92874435D01*
X109960500Y-92775565D01*
X109934910Y-92680062D01*
X109934908Y-92680059D01*
X109934908Y-92680057D01*
X109934906Y-92680054D01*
X109934816Y-92679717D01*
X109933322Y-92677310D01*
X109886957Y-92597004D01*
X109885875Y-92594994D01*
X109885476Y-92594440D01*
X109885475Y-92594438D01*
X109815562Y-92524525D01*
X109815559Y-92524523D01*
X109787228Y-92508166D01*
X109766193Y-92484803D01*
X109692886Y-92465160D01*
X109692886Y-92465161D01*
X109634435Y-92449500D01*
X109535565Y-92449500D01*
X109503730Y-92458030D01*
X109471895Y-92466560D01*
X109440062Y-92475089D01*
X109439341Y-92475415D01*
X109437292Y-92476688D01*
X109432038Y-92479721D01*
X109408170Y-92489608D01*
X109383848Y-92496126D01*
X109358221Y-92499500D01*
X108919748Y-92499500D01*
X107080252Y-92499500D01*
X107080250Y-92499500D01*
X107080247Y-92499500D01*
X107077789Y-92499623D01*
X107077728Y-92498404D01*
X107073103Y-92497391D01*
X107060563Y-92499123D01*
X107032506Y-92495800D01*
X106994652Y-92483225D01*
X106981124Y-92475415D01*
X106977229Y-92473166D01*
X106956190Y-92449800D01*
X106918426Y-92439683D01*
X106890136Y-92427090D01*
X106883225Y-92422603D01*
X106844714Y-92375057D01*
X106841506Y-92313956D01*
X106874823Y-92262639D01*
X106878109Y-92259978D01*
X106914795Y-92241288D01*
X106916281Y-92240889D01*
X106919938Y-92239910D01*
X106919940Y-92239908D01*
X106919942Y-92239908D01*
X106945813Y-92224971D01*
X107005562Y-92190475D01*
X107075475Y-92120562D01*
X107124910Y-92034938D01*
X107150500Y-91939435D01*
X107150500Y-91840565D01*
X107124910Y-91745062D01*
X107095419Y-91693982D01*
X107774500Y-91693982D01*
X107774500Y-91806018D01*
X107783757Y-91840565D01*
X107797469Y-91891739D01*
X107797469Y-91891741D01*
X107803495Y-91914235D01*
X107803498Y-91914242D01*
X107816880Y-91937419D01*
X107839942Y-91977362D01*
X107859515Y-92011263D01*
X107938737Y-92090485D01*
X107954353Y-92099501D01*
X107978990Y-92113725D01*
X108000583Y-92137707D01*
X108034893Y-92146285D01*
X108036496Y-92146699D01*
X108143982Y-92175500D01*
X108143984Y-92175500D01*
X108256016Y-92175500D01*
X108256018Y-92175500D01*
X108364237Y-92146503D01*
X108364239Y-92146501D01*
X108364241Y-92146501D01*
X108428042Y-92109665D01*
X108461263Y-92090485D01*
X108540485Y-92011263D01*
X108596503Y-91914237D01*
X108625500Y-91806018D01*
X108625500Y-91693982D01*
X108601570Y-91604673D01*
X108598514Y-91586955D01*
X108596969Y-91567652D01*
X108611173Y-91508138D01*
X108657646Y-91468339D01*
X108718629Y-91463456D01*
X108724870Y-91464945D01*
X108756892Y-91478927D01*
X108771527Y-91488706D01*
X108771528Y-91488706D01*
X108771574Y-91488737D01*
X108771769Y-91488867D01*
X108809396Y-91496351D01*
X108809399Y-91496353D01*
X108824152Y-91499287D01*
X108826327Y-91499863D01*
X108828519Y-91500219D01*
X108830076Y-91500500D01*
X108830252Y-91500500D01*
X108830253Y-91500500D01*
X109358220Y-91500500D01*
X109383842Y-91503873D01*
X109399760Y-91508138D01*
X109407530Y-91510220D01*
X109408165Y-91510390D01*
X109432042Y-91520280D01*
X109434952Y-91521960D01*
X109438149Y-91523806D01*
X109438150Y-91523806D01*
X109438153Y-91523808D01*
X109440062Y-91524910D01*
X109535565Y-91550500D01*
X109535567Y-91550500D01*
X109634433Y-91550500D01*
X109634435Y-91550500D01*
X109729938Y-91524910D01*
X109729940Y-91524908D01*
X109729942Y-91524908D01*
X109755377Y-91510222D01*
X109815562Y-91475475D01*
X109885475Y-91405562D01*
X109911792Y-91359980D01*
X109923343Y-91339973D01*
X109923353Y-91339954D01*
X109923380Y-91339908D01*
X109934908Y-91319942D01*
X109934908Y-91319940D01*
X109934910Y-91319938D01*
X109960500Y-91224435D01*
X109960500Y-91125565D01*
X109934910Y-91030062D01*
X109934908Y-91030059D01*
X109934908Y-91030057D01*
X109934906Y-91030054D01*
X109934816Y-91029717D01*
X109933322Y-91027310D01*
X109886957Y-90947004D01*
X109885875Y-90944994D01*
X109885476Y-90944440D01*
X109885475Y-90944438D01*
X109815562Y-90874525D01*
X109815559Y-90874523D01*
X109787228Y-90858166D01*
X109766193Y-90834803D01*
X109692886Y-90815160D01*
X109692886Y-90815161D01*
X109634435Y-90799500D01*
X109535565Y-90799500D01*
X109503730Y-90808030D01*
X109471895Y-90816560D01*
X109440062Y-90825089D01*
X109439341Y-90825415D01*
X109437292Y-90826688D01*
X109432038Y-90829721D01*
X109408170Y-90839608D01*
X109383848Y-90846126D01*
X109358221Y-90849500D01*
X108830245Y-90849500D01*
X108771778Y-90861130D01*
X108771763Y-90861135D01*
X108705454Y-90905442D01*
X108705442Y-90905454D01*
X108661135Y-90971763D01*
X108661130Y-90971778D01*
X108649500Y-91030245D01*
X108649500Y-91319756D01*
X108651800Y-91331319D01*
X108653015Y-91362265D01*
X108652046Y-91370451D01*
X108626429Y-91426015D01*
X108573045Y-91455911D01*
X108512284Y-91448719D01*
X108506411Y-91446011D01*
X108477861Y-91426112D01*
X108461265Y-91409517D01*
X108461262Y-91409514D01*
X108461260Y-91409513D01*
X108421527Y-91386573D01*
X108400492Y-91363210D01*
X108293036Y-91334419D01*
X108293035Y-91334418D01*
X108265936Y-91327157D01*
X108256018Y-91324500D01*
X108256017Y-91324500D01*
X108143983Y-91324500D01*
X108143982Y-91324500D01*
X108137524Y-91326230D01*
X108106963Y-91334418D01*
X108106964Y-91334419D01*
X108035754Y-91353499D01*
X107938741Y-91409511D01*
X107859511Y-91488741D01*
X107803498Y-91585757D01*
X107799182Y-91601860D01*
X107799183Y-91601861D01*
X107799183Y-91601862D01*
X107774500Y-91693982D01*
X107095419Y-91693982D01*
X107075475Y-91659438D01*
X107005562Y-91589525D01*
X107005559Y-91589523D01*
X107005558Y-91589522D01*
X106988190Y-91579495D01*
X106977228Y-91573166D01*
X106956189Y-91549800D01*
X106918426Y-91539683D01*
X106890136Y-91527090D01*
X106883225Y-91522603D01*
X106844714Y-91475057D01*
X106841506Y-91413956D01*
X106874823Y-91362639D01*
X106878109Y-91359978D01*
X106914795Y-91341288D01*
X106916281Y-91340889D01*
X106919938Y-91339910D01*
X106919940Y-91339908D01*
X106919942Y-91339908D01*
X106946629Y-91324500D01*
X107005562Y-91290475D01*
X107075475Y-91220562D01*
X107124910Y-91134938D01*
X107150500Y-91039435D01*
X107150500Y-90940565D01*
X107124910Y-90845062D01*
X107124908Y-90845059D01*
X107124908Y-90845057D01*
X107124906Y-90845054D01*
X107124816Y-90844717D01*
X107123322Y-90842310D01*
X107076957Y-90762004D01*
X107075875Y-90759994D01*
X107075476Y-90759440D01*
X107075475Y-90759438D01*
X107005562Y-90689525D01*
X107005559Y-90689523D01*
X107005555Y-90689520D01*
X107005551Y-90689518D01*
X106919944Y-90640092D01*
X106919936Y-90640088D01*
X106888521Y-90631671D01*
X106860223Y-90619071D01*
X106849038Y-90611807D01*
X106810534Y-90564256D01*
X106810532Y-90564251D01*
X106806573Y-90553935D01*
X106800000Y-90518464D01*
X106800000Y-89514680D01*
X106804843Y-89484094D01*
X106808965Y-89471405D01*
X106844923Y-89421906D01*
X106845522Y-89421471D01*
X106849063Y-89418900D01*
X106907243Y-89400000D01*
X107062647Y-89400000D01*
X107093241Y-89404846D01*
G37*
%TD.AperFunction*%
%TD*%
%TA.AperFunction,Conductor*%
%TO.N,M4_A*%
G36*
X102774328Y-83823373D02*
G01*
X102780060Y-83824908D01*
X102780062Y-83824910D01*
X102875565Y-83850500D01*
X102875567Y-83850500D01*
X102974433Y-83850500D01*
X102974435Y-83850500D01*
X103069938Y-83824910D01*
X103069939Y-83824908D01*
X103075672Y-83823373D01*
X103101295Y-83820000D01*
X103399999Y-83820000D01*
X103900000Y-83820000D01*
X103900000Y-84360000D01*
X102279000Y-84360000D01*
X102220809Y-84341093D01*
X102184845Y-84291593D01*
X102180000Y-84261000D01*
X102180000Y-83919000D01*
X102198907Y-83860809D01*
X102248407Y-83824845D01*
X102279000Y-83820000D01*
X102748705Y-83820000D01*
X102774328Y-83823373D01*
G37*
%TD.AperFunction*%
%TD*%
%TA.AperFunction,Conductor*%
%TO.N,VBAT*%
G36*
X95259191Y-87668907D02*
G01*
X95295155Y-87718407D01*
X95300000Y-87749000D01*
X95300000Y-88281000D01*
X95281093Y-88339191D01*
X95231593Y-88375155D01*
X95201000Y-88380000D01*
X94700000Y-88380000D01*
X94700000Y-88380001D01*
X94700000Y-90097000D01*
X94681093Y-90155191D01*
X94631593Y-90191155D01*
X94601000Y-90196000D01*
X93807494Y-90196000D01*
X93781872Y-90192627D01*
X93732135Y-90179300D01*
X93633265Y-90179300D01*
X93537762Y-90204890D01*
X93537760Y-90204890D01*
X93537760Y-90204891D01*
X93537757Y-90204892D01*
X93528495Y-90210239D01*
X93468646Y-90222957D01*
X93412752Y-90198068D01*
X93382162Y-90145078D01*
X93380000Y-90124500D01*
X93380000Y-87749000D01*
X93398907Y-87690809D01*
X93448407Y-87654845D01*
X93479000Y-87650000D01*
X95201000Y-87650000D01*
X95259191Y-87668907D01*
G37*
%TD.AperFunction*%
%TD*%
%TA.AperFunction,Conductor*%
%TO.N,VBAT*%
G36*
X112309191Y-103398907D02*
G01*
X112345155Y-103448407D01*
X112350000Y-103479000D01*
X112350000Y-105201000D01*
X112331093Y-105259191D01*
X112281593Y-105295155D01*
X112251000Y-105300000D01*
X111719000Y-105300000D01*
X111660809Y-105281093D01*
X111624845Y-105231593D01*
X111620000Y-105201000D01*
X111620000Y-104700001D01*
X111620000Y-104700000D01*
X111619999Y-104700000D01*
X109849000Y-104700000D01*
X109790809Y-104681093D01*
X109754845Y-104631593D01*
X109750000Y-104601000D01*
X109750000Y-103479000D01*
X109768907Y-103420809D01*
X109818407Y-103384845D01*
X109849000Y-103380000D01*
X112251000Y-103380000D01*
X112309191Y-103398907D01*
G37*
%TD.AperFunction*%
%TD*%
%TA.AperFunction,Conductor*%
%TO.N,M3_C*%
G36*
X86265907Y-103404844D02*
G01*
X86276087Y-103408151D01*
X86325589Y-103444111D01*
X86344500Y-103502301D01*
X86344500Y-105460892D01*
X86345588Y-105482019D01*
X86345590Y-105482049D01*
X86347677Y-105502241D01*
X86347681Y-105502268D01*
X86348819Y-105509568D01*
X86350000Y-105524814D01*
X86350000Y-106485319D01*
X86345154Y-106515912D01*
X86341032Y-106528598D01*
X86305080Y-106578089D01*
X86300959Y-106581084D01*
X86242771Y-106600000D01*
X84360000Y-106600000D01*
X84360000Y-106100000D01*
X83820000Y-106100000D01*
X83820000Y-106600000D01*
X83264680Y-106600000D01*
X83234087Y-106595154D01*
X83221401Y-106591032D01*
X83171901Y-106555068D01*
X83171894Y-106555058D01*
X83168900Y-106550936D01*
X83150000Y-106492756D01*
X83150000Y-103514680D01*
X83154843Y-103484094D01*
X83158965Y-103471405D01*
X83194923Y-103421906D01*
X83195522Y-103421471D01*
X83199063Y-103418900D01*
X83257243Y-103400000D01*
X86235320Y-103400000D01*
X86265907Y-103404844D01*
G37*
%TD.AperFunction*%
%TD*%
%TA.AperFunction,Conductor*%
%TO.N,VBAT*%
G36*
X105259191Y-87668907D02*
G01*
X105295155Y-87718407D01*
X105300000Y-87749000D01*
X105300000Y-88281000D01*
X105281093Y-88339191D01*
X105231593Y-88375155D01*
X105201000Y-88380000D01*
X104700000Y-88380000D01*
X104700000Y-88380001D01*
X104700000Y-90151000D01*
X104681093Y-90209191D01*
X104631593Y-90245155D01*
X104601000Y-90250000D01*
X103479000Y-90250000D01*
X103420809Y-90231093D01*
X103384845Y-90181593D01*
X103380000Y-90151000D01*
X103380000Y-87749000D01*
X103398907Y-87690809D01*
X103448407Y-87654845D01*
X103479000Y-87650000D01*
X105201000Y-87650000D01*
X105259191Y-87668907D01*
G37*
%TD.AperFunction*%
%TD*%
%TA.AperFunction,Conductor*%
%TO.N,M3_A*%
G36*
X84360000Y-96600000D02*
G01*
X84360000Y-96600001D01*
X84360000Y-97721000D01*
X84341093Y-97779191D01*
X84291593Y-97815155D01*
X84261000Y-97820000D01*
X83919000Y-97820000D01*
X83860809Y-97801093D01*
X83824845Y-97751593D01*
X83820000Y-97721000D01*
X83820000Y-97251295D01*
X83823373Y-97225672D01*
X83824908Y-97219939D01*
X83824910Y-97219938D01*
X83850500Y-97124435D01*
X83850500Y-97025565D01*
X83824910Y-96930062D01*
X83824908Y-96930060D01*
X83823373Y-96924328D01*
X83820000Y-96898705D01*
X83820000Y-96600001D01*
X83820000Y-96100000D01*
X84360000Y-96100000D01*
X84360000Y-96600000D01*
G37*
%TD.AperFunction*%
%TD*%
%TA.AperFunction,Conductor*%
%TO.N,M1_B*%
G36*
X101515908Y-113654843D02*
G01*
X101528595Y-113658966D01*
X101578095Y-113694927D01*
X101578096Y-113694928D01*
X101581091Y-113699050D01*
X101600000Y-113757240D01*
X101600000Y-115640000D01*
X101100000Y-115640000D01*
X101100000Y-116180000D01*
X101600000Y-116180000D01*
X101600000Y-116180001D01*
X101600000Y-116735319D01*
X101595154Y-116765912D01*
X101591032Y-116778598D01*
X101555080Y-116828089D01*
X101550959Y-116831084D01*
X101492771Y-116850000D01*
X98514680Y-116850000D01*
X98484087Y-116845154D01*
X98471401Y-116841032D01*
X98421901Y-116805068D01*
X98421894Y-116805058D01*
X98418900Y-116800936D01*
X98400000Y-116742756D01*
X98400000Y-114246923D01*
X98403373Y-114221302D01*
X98409957Y-114196728D01*
X98414126Y-114184449D01*
X98416407Y-114178943D01*
X98416410Y-114178938D01*
X98442000Y-114083435D01*
X98442000Y-113984565D01*
X98416410Y-113889062D01*
X98416407Y-113889056D01*
X98414109Y-113883503D01*
X98409955Y-113871261D01*
X98403374Y-113846701D01*
X98400000Y-113821077D01*
X98400000Y-113764680D01*
X98404846Y-113734085D01*
X98408154Y-113723905D01*
X98444120Y-113674406D01*
X98502308Y-113655500D01*
X100460875Y-113655500D01*
X100460888Y-113655500D01*
X100482044Y-113654408D01*
X100497245Y-113652834D01*
X100502299Y-113652312D01*
X100502305Y-113652310D01*
X100502315Y-113652310D01*
X100509551Y-113651181D01*
X100524802Y-113650000D01*
X101485320Y-113650000D01*
X101515908Y-113654843D01*
G37*
%TD.AperFunction*%
%TD*%
%TA.AperFunction,Conductor*%
%TO.N,M4_A*%
G36*
X106559191Y-83168907D02*
G01*
X106595155Y-83218407D01*
X106600000Y-83249000D01*
X106600000Y-86251000D01*
X106581093Y-86309191D01*
X106531593Y-86345155D01*
X106501000Y-86350000D01*
X103499000Y-86350000D01*
X103440809Y-86331093D01*
X103404845Y-86281593D01*
X103400000Y-86251000D01*
X103400000Y-84360001D01*
X103400000Y-84360000D01*
X103900000Y-84360000D01*
X103900000Y-83820000D01*
X103400000Y-83820000D01*
X103400000Y-83249000D01*
X103418907Y-83190809D01*
X103468407Y-83154845D01*
X103499000Y-83150000D01*
X106501000Y-83150000D01*
X106559191Y-83168907D01*
G37*
%TD.AperFunction*%
%TD*%
%TA.AperFunction,Conductor*%
%TO.N,VBAT*%
G36*
X106587243Y-109801554D02*
G01*
X106617836Y-109854542D01*
X106620000Y-109875126D01*
X106620000Y-112251000D01*
X106601093Y-112309191D01*
X106551593Y-112345155D01*
X106521000Y-112350000D01*
X104799000Y-112350000D01*
X104740809Y-112331093D01*
X104704845Y-112281593D01*
X104700000Y-112251000D01*
X104700000Y-111719000D01*
X104718907Y-111660809D01*
X104768407Y-111624845D01*
X104799000Y-111620000D01*
X105299999Y-111620000D01*
X105300000Y-111620000D01*
X105300000Y-109903501D01*
X105318907Y-109845310D01*
X105368407Y-109809346D01*
X105399000Y-109804501D01*
X105495351Y-109804501D01*
X105495359Y-109804500D01*
X106149634Y-109804500D01*
X106152375Y-109804763D01*
X106160325Y-109804726D01*
X106160327Y-109804727D01*
X106194616Y-109804568D01*
X106220695Y-109807940D01*
X106267565Y-109820500D01*
X106366433Y-109820500D01*
X106366435Y-109820500D01*
X106461938Y-109794910D01*
X106471499Y-109789390D01*
X106531347Y-109776668D01*
X106587243Y-109801554D01*
G37*
%TD.AperFunction*%
%TD*%
%TA.AperFunction,Conductor*%
%TO.N,M3_SRC*%
G36*
X87386944Y-106372430D02*
G01*
X87431875Y-106413961D01*
X87444500Y-106462338D01*
X87444500Y-106521000D01*
X87447030Y-106553143D01*
X87451883Y-106583793D01*
X87452646Y-106588281D01*
X87452647Y-106588286D01*
X87488591Y-106672382D01*
X87502127Y-106691012D01*
X87524556Y-106721883D01*
X87548797Y-106749628D01*
X87627307Y-106796536D01*
X87685498Y-106815443D01*
X87698198Y-106817454D01*
X87748996Y-106825500D01*
X90011719Y-106825500D01*
X90069910Y-106844407D01*
X90105874Y-106893907D01*
X90105874Y-106955093D01*
X90097455Y-106974000D01*
X90065092Y-107030053D01*
X90065091Y-107030055D01*
X90055691Y-107065135D01*
X90055692Y-107065136D01*
X90039500Y-107125565D01*
X90039500Y-107224435D01*
X90062067Y-107308657D01*
X90062068Y-107308660D01*
X90065090Y-107319940D01*
X90114518Y-107405551D01*
X90114520Y-107405555D01*
X90114523Y-107405559D01*
X90114525Y-107405562D01*
X90184438Y-107475475D01*
X90184440Y-107475476D01*
X90184990Y-107475873D01*
X90187001Y-107476954D01*
X90213288Y-107492132D01*
X90234883Y-107516115D01*
X90269192Y-107524692D01*
X90270795Y-107525106D01*
X90365565Y-107550500D01*
X90365567Y-107550500D01*
X90464433Y-107550500D01*
X90464435Y-107550500D01*
X90559938Y-107524910D01*
X90567957Y-107520279D01*
X90591836Y-107510389D01*
X90616157Y-107503873D01*
X90641777Y-107500500D01*
X92924612Y-107500500D01*
X92924612Y-107500729D01*
X92939407Y-107500874D01*
X92967479Y-107504195D01*
X93005346Y-107516772D01*
X93019439Y-107524909D01*
X93070547Y-107554417D01*
X93075643Y-107557359D01*
X93080062Y-107559910D01*
X93081571Y-107560314D01*
X93109869Y-107572913D01*
X93116788Y-107577406D01*
X93155290Y-107624959D01*
X93158488Y-107686060D01*
X93125162Y-107737371D01*
X93121888Y-107740022D01*
X93085216Y-107758708D01*
X93080063Y-107760088D01*
X92994441Y-107809522D01*
X92924521Y-107879442D01*
X92875089Y-107965060D01*
X92874812Y-107965793D01*
X92874266Y-107968134D01*
X92856708Y-108033663D01*
X92849500Y-108060565D01*
X92849500Y-108159435D01*
X92858757Y-108193982D01*
X92875091Y-108254942D01*
X92924523Y-108340559D01*
X92924525Y-108340562D01*
X92994438Y-108410475D01*
X92994440Y-108410476D01*
X93013198Y-108421307D01*
X93013205Y-108421310D01*
X93080054Y-108459906D01*
X93080058Y-108459908D01*
X93080062Y-108459910D01*
X93081568Y-108460313D01*
X93084122Y-108461450D01*
X93084737Y-108461684D01*
X93084723Y-108461718D01*
X93109868Y-108472913D01*
X93116782Y-108477403D01*
X93155287Y-108524953D01*
X93158490Y-108586054D01*
X93125166Y-108637368D01*
X93125162Y-108637371D01*
X93121888Y-108640022D01*
X93085216Y-108658708D01*
X93080063Y-108660088D01*
X92994441Y-108709522D01*
X92924521Y-108779442D01*
X92875090Y-108865056D01*
X92875089Y-108865059D01*
X92860782Y-108918454D01*
X92849500Y-108960561D01*
X92849500Y-109059434D01*
X92867195Y-109125475D01*
X92870783Y-109138865D01*
X92875091Y-109154942D01*
X92924523Y-109240559D01*
X92924525Y-109240562D01*
X92994438Y-109310475D01*
X92994440Y-109310476D01*
X92994990Y-109310873D01*
X92996999Y-109311953D01*
X93072202Y-109355372D01*
X93077304Y-109358318D01*
X93079717Y-109359816D01*
X93080055Y-109359906D01*
X93080058Y-109359908D01*
X93080059Y-109359908D01*
X93080062Y-109359910D01*
X93111483Y-109368329D01*
X93139773Y-109380925D01*
X93149891Y-109387496D01*
X93150961Y-109388191D01*
X93189462Y-109435733D01*
X93193422Y-109446047D01*
X93200000Y-109481532D01*
X93200000Y-109589619D01*
X93181093Y-109647810D01*
X93180808Y-109648172D01*
X93142704Y-109700625D01*
X93113513Y-109757934D01*
X93113508Y-109757945D01*
X93112515Y-109761004D01*
X93112513Y-109761011D01*
X93109401Y-109770587D01*
X93109394Y-109770614D01*
X93101871Y-109801959D01*
X93097029Y-109832534D01*
X93094500Y-109864686D01*
X93094500Y-110447098D01*
X93075593Y-110505289D01*
X93026093Y-110541253D01*
X93007778Y-110545334D01*
X92963875Y-110550821D01*
X92924458Y-110560830D01*
X92863404Y-110556825D01*
X92827063Y-110528445D01*
X92826128Y-110529381D01*
X92820486Y-110523739D01*
X92820485Y-110523737D01*
X92741263Y-110444515D01*
X92741260Y-110444513D01*
X92701526Y-110421572D01*
X92680492Y-110398210D01*
X92602251Y-110377247D01*
X92602250Y-110377246D01*
X92553764Y-110364255D01*
X92536018Y-110359500D01*
X92536017Y-110359500D01*
X92423983Y-110359500D01*
X92423982Y-110359500D01*
X92409986Y-110363250D01*
X92357748Y-110377246D01*
X92357748Y-110377247D01*
X92324626Y-110386121D01*
X92315754Y-110388499D01*
X92218741Y-110444511D01*
X92139510Y-110523742D01*
X92131902Y-110536920D01*
X92112412Y-110560989D01*
X92098308Y-110573689D01*
X92052654Y-110596954D01*
X92048511Y-110597835D01*
X92027919Y-110600000D01*
X89539029Y-110600000D01*
X89508437Y-110595155D01*
X89497006Y-110591441D01*
X89487055Y-110588207D01*
X89446426Y-110560465D01*
X89445477Y-110561415D01*
X89442032Y-110557969D01*
X89421663Y-110541253D01*
X89303785Y-110444513D01*
X88972264Y-110172441D01*
X88972261Y-110172439D01*
X88972252Y-110172433D01*
X88436330Y-109885978D01*
X88436326Y-109885976D01*
X88436315Y-109885972D01*
X87854783Y-109709565D01*
X87854772Y-109709562D01*
X87854773Y-109709562D01*
X87854760Y-109709560D01*
X87250012Y-109650000D01*
X87250003Y-109650000D01*
X87249996Y-109650000D01*
X87249988Y-109650000D01*
X86674308Y-109706699D01*
X86643385Y-109704875D01*
X86630356Y-109702016D01*
X86577570Y-109671076D01*
X86575797Y-109669080D01*
X86552900Y-109623582D01*
X86552094Y-109619726D01*
X86550000Y-109599470D01*
X86550000Y-108775565D01*
X90039500Y-108775565D01*
X90039500Y-108874435D01*
X90062067Y-108958657D01*
X90062068Y-108958660D01*
X90065090Y-108969940D01*
X90114518Y-109055551D01*
X90114520Y-109055555D01*
X90114523Y-109055559D01*
X90114525Y-109055562D01*
X90184438Y-109125475D01*
X90184440Y-109125476D01*
X90184990Y-109125873D01*
X90187001Y-109126954D01*
X90213288Y-109142132D01*
X90234883Y-109166115D01*
X90269192Y-109174692D01*
X90270795Y-109175106D01*
X90365565Y-109200500D01*
X90365567Y-109200500D01*
X90464433Y-109200500D01*
X90464435Y-109200500D01*
X90559938Y-109174910D01*
X90567957Y-109170279D01*
X90591836Y-109160389D01*
X90616157Y-109153873D01*
X90641777Y-109150500D01*
X91169747Y-109150500D01*
X91169748Y-109150500D01*
X91228231Y-109138867D01*
X91294552Y-109094552D01*
X91338867Y-109028231D01*
X91350500Y-108969748D01*
X91350500Y-108680252D01*
X91348199Y-108668683D01*
X91349771Y-108655398D01*
X91346983Y-108637736D01*
X91347952Y-108629544D01*
X91354517Y-108615307D01*
X91355391Y-108607924D01*
X91360438Y-108602463D01*
X91373569Y-108573983D01*
X91426953Y-108544087D01*
X91487712Y-108551278D01*
X91491208Y-108552890D01*
X91493587Y-108553987D01*
X91522137Y-108573886D01*
X91533739Y-108585488D01*
X91533741Y-108585489D01*
X91538737Y-108590485D01*
X91545584Y-108594438D01*
X91635759Y-108646501D01*
X91635757Y-108646501D01*
X91635761Y-108646502D01*
X91635763Y-108646503D01*
X91743982Y-108675500D01*
X91743984Y-108675500D01*
X91856016Y-108675500D01*
X91856018Y-108675500D01*
X91964237Y-108646503D01*
X91964238Y-108646501D01*
X91964240Y-108646501D01*
X91964241Y-108646501D01*
X91995419Y-108628500D01*
X92061263Y-108590485D01*
X92140485Y-108511263D01*
X92179859Y-108443064D01*
X92196501Y-108414241D01*
X92196501Y-108414239D01*
X92196503Y-108414237D01*
X92225500Y-108306018D01*
X92225500Y-108193982D01*
X92196503Y-108085763D01*
X92196501Y-108085760D01*
X92196501Y-108085758D01*
X92196499Y-108085755D01*
X92196409Y-108085417D01*
X92194915Y-108083011D01*
X92148806Y-108003150D01*
X92148806Y-108003149D01*
X92148804Y-108003147D01*
X92140485Y-107988737D01*
X92140483Y-107988735D01*
X92140481Y-107988732D01*
X92061267Y-107909518D01*
X92061263Y-107909515D01*
X92050132Y-107903088D01*
X92050132Y-107903087D01*
X92021528Y-107886573D01*
X92000492Y-107863210D01*
X91922251Y-107842247D01*
X91922250Y-107842246D01*
X91873764Y-107829255D01*
X91856018Y-107824500D01*
X91856017Y-107824500D01*
X91743983Y-107824500D01*
X91743982Y-107824500D01*
X91729986Y-107828250D01*
X91677748Y-107842246D01*
X91677748Y-107842247D01*
X91644626Y-107851121D01*
X91635754Y-107853499D01*
X91538741Y-107909511D01*
X91459509Y-107988743D01*
X91403497Y-108085758D01*
X91403219Y-108086494D01*
X91402673Y-108088835D01*
X91374500Y-108193982D01*
X91374500Y-108306017D01*
X91398474Y-108395492D01*
X91401542Y-108413347D01*
X91403047Y-108432472D01*
X91388763Y-108491967D01*
X91342237Y-108531703D01*
X91281243Y-108536504D01*
X91274956Y-108534994D01*
X91243069Y-108521047D01*
X91241736Y-108520157D01*
X91241734Y-108520156D01*
X91241734Y-108520155D01*
X91228232Y-108511133D01*
X91228017Y-108511062D01*
X91226488Y-108510786D01*
X91169768Y-108499503D01*
X91169758Y-108499501D01*
X91169753Y-108499500D01*
X91169750Y-108499500D01*
X91169748Y-108499500D01*
X90641779Y-108499500D01*
X90616156Y-108496127D01*
X90591829Y-108489608D01*
X90567956Y-108479719D01*
X90559941Y-108475092D01*
X90559939Y-108475091D01*
X90559938Y-108475090D01*
X90464435Y-108449500D01*
X90464433Y-108449500D01*
X90365566Y-108449500D01*
X90365565Y-108449500D01*
X90355544Y-108452184D01*
X90318146Y-108462205D01*
X90318146Y-108462206D01*
X90270057Y-108475091D01*
X90270054Y-108475092D01*
X90270053Y-108475093D01*
X90184442Y-108524521D01*
X90114521Y-108594442D01*
X90065091Y-108680056D01*
X90057195Y-108709522D01*
X90057196Y-108709523D01*
X90039500Y-108775565D01*
X86550000Y-108775565D01*
X86550000Y-108535549D01*
X86553373Y-108509929D01*
X86559518Y-108486991D01*
X86559889Y-108485607D01*
X86569776Y-108461734D01*
X86606610Y-108397938D01*
X86632200Y-108302435D01*
X86632200Y-108203565D01*
X86606610Y-108108062D01*
X86580347Y-108062574D01*
X86569249Y-108033663D01*
X86566880Y-108022518D01*
X86573276Y-107961668D01*
X86614214Y-107916200D01*
X86618451Y-107913754D01*
X86667936Y-107900499D01*
X86744861Y-107900499D01*
X86744864Y-107900499D01*
X86769991Y-107897585D01*
X86872765Y-107852206D01*
X86952206Y-107772765D01*
X86997585Y-107669991D01*
X87000500Y-107644865D01*
X87000499Y-107355136D01*
X86997585Y-107330009D01*
X86993140Y-107319942D01*
X86993140Y-107319941D01*
X86993140Y-107319940D01*
X86989978Y-107312780D01*
X86982051Y-107282834D01*
X86979246Y-107255325D01*
X86982109Y-107219656D01*
X87023516Y-107065136D01*
X87185940Y-106459015D01*
X87198536Y-106430726D01*
X87205805Y-106419533D01*
X87253354Y-106381033D01*
X87263674Y-106377072D01*
X87294941Y-106371279D01*
X87294912Y-106370976D01*
X87298466Y-106370626D01*
X87299147Y-106370500D01*
X87299747Y-106370500D01*
X87299748Y-106370500D01*
X87326184Y-106365241D01*
X87386944Y-106372430D01*
G37*
%TD.AperFunction*%
%TA.AperFunction,Conductor*%
G36*
X87386944Y-101372430D02*
G01*
X87431875Y-101413961D01*
X87444500Y-101462338D01*
X87444500Y-101521000D01*
X87447030Y-101553143D01*
X87451883Y-101583793D01*
X87452646Y-101588281D01*
X87452647Y-101588286D01*
X87488591Y-101672382D01*
X87488592Y-101672383D01*
X87524556Y-101721883D01*
X87548797Y-101749628D01*
X87627307Y-101796536D01*
X87685498Y-101815443D01*
X87697552Y-101817352D01*
X87748996Y-101825500D01*
X90151000Y-101825500D01*
X90209191Y-101844407D01*
X90245155Y-101893907D01*
X90250000Y-101924500D01*
X90250000Y-105002819D01*
X90231093Y-105061010D01*
X90181593Y-105096974D01*
X90135514Y-105100600D01*
X90096997Y-105094500D01*
X90096994Y-105094500D01*
X88684500Y-105094500D01*
X88626309Y-105075593D01*
X88590345Y-105026093D01*
X88585500Y-104995500D01*
X88585500Y-104799006D01*
X88585500Y-104799000D01*
X88582970Y-104766856D01*
X88578125Y-104736263D01*
X88578116Y-104736206D01*
X88577353Y-104731714D01*
X88577352Y-104731713D01*
X88541408Y-104647617D01*
X88505444Y-104598117D01*
X88481203Y-104570372D01*
X88402693Y-104523464D01*
X88402691Y-104523463D01*
X88402689Y-104523462D01*
X88344499Y-104504556D01*
X88344500Y-104504556D01*
X88281003Y-104494500D01*
X88281000Y-104494500D01*
X87749000Y-104494500D01*
X87716856Y-104497030D01*
X87686206Y-104501883D01*
X87681718Y-104502646D01*
X87681713Y-104502647D01*
X87597617Y-104538591D01*
X87548118Y-104574555D01*
X87520372Y-104598797D01*
X87473464Y-104677307D01*
X87473462Y-104677310D01*
X87454556Y-104735499D01*
X87444500Y-104798996D01*
X87444500Y-105477660D01*
X87425593Y-105535851D01*
X87376093Y-105571815D01*
X87326188Y-105574758D01*
X87306373Y-105570817D01*
X87299758Y-105569501D01*
X87299753Y-105569500D01*
X87299750Y-105569500D01*
X87299748Y-105569500D01*
X86668734Y-105569500D01*
X86647501Y-105567196D01*
X86638885Y-105565304D01*
X86630341Y-105563428D01*
X86577560Y-105532479D01*
X86575787Y-105530483D01*
X86552897Y-105484987D01*
X86552092Y-105481139D01*
X86550000Y-105460893D01*
X86550000Y-103015179D01*
X86554843Y-102984593D01*
X86558965Y-102971904D01*
X86594923Y-102922405D01*
X86595522Y-102921970D01*
X86599063Y-102919399D01*
X86657243Y-102900499D01*
X86744861Y-102900499D01*
X86744864Y-102900499D01*
X86769991Y-102897585D01*
X86872765Y-102852206D01*
X86952206Y-102772765D01*
X86997585Y-102669991D01*
X87000500Y-102644865D01*
X87000499Y-102355136D01*
X86997585Y-102330009D01*
X86997583Y-102330004D01*
X86997579Y-102329995D01*
X86997576Y-102329987D01*
X86989977Y-102312778D01*
X86982051Y-102282834D01*
X86979246Y-102255325D01*
X86982109Y-102219656D01*
X87088410Y-101822970D01*
X87185940Y-101459015D01*
X87198536Y-101430726D01*
X87205805Y-101419533D01*
X87253354Y-101381033D01*
X87263674Y-101377072D01*
X87294941Y-101371279D01*
X87294912Y-101370976D01*
X87298466Y-101370626D01*
X87299147Y-101370500D01*
X87299747Y-101370500D01*
X87299748Y-101370500D01*
X87326184Y-101365241D01*
X87386944Y-101372430D01*
G37*
%TD.AperFunction*%
%TA.AperFunction,Conductor*%
G36*
X87386944Y-96372430D02*
G01*
X87431875Y-96413961D01*
X87444500Y-96462338D01*
X87444500Y-96521000D01*
X87447030Y-96553143D01*
X87451883Y-96583793D01*
X87452646Y-96588281D01*
X87452647Y-96588286D01*
X87488591Y-96672382D01*
X87488592Y-96672383D01*
X87524556Y-96721883D01*
X87548797Y-96749628D01*
X87627307Y-96796536D01*
X87685498Y-96815443D01*
X87697552Y-96817352D01*
X87748996Y-96825500D01*
X90151000Y-96825500D01*
X90209191Y-96844407D01*
X90245155Y-96893907D01*
X90250000Y-96924500D01*
X90250000Y-99995500D01*
X90231093Y-100053691D01*
X90181593Y-100089655D01*
X90151000Y-100094500D01*
X88684500Y-100094500D01*
X88626309Y-100075593D01*
X88590345Y-100026093D01*
X88585500Y-99995500D01*
X88585500Y-99799006D01*
X88585500Y-99799000D01*
X88582970Y-99766856D01*
X88578125Y-99736263D01*
X88578116Y-99736206D01*
X88577353Y-99731714D01*
X88577352Y-99731713D01*
X88541408Y-99647617D01*
X88505444Y-99598117D01*
X88481203Y-99570372D01*
X88402693Y-99523464D01*
X88402691Y-99523463D01*
X88402689Y-99523462D01*
X88344499Y-99504556D01*
X88344500Y-99504556D01*
X88281003Y-99494500D01*
X88281000Y-99494500D01*
X87749000Y-99494500D01*
X87716856Y-99497030D01*
X87686206Y-99501883D01*
X87681718Y-99502646D01*
X87681713Y-99502647D01*
X87597617Y-99538591D01*
X87548118Y-99574555D01*
X87520372Y-99598797D01*
X87473464Y-99677307D01*
X87473462Y-99677310D01*
X87454556Y-99735499D01*
X87444500Y-99798996D01*
X87444500Y-100477660D01*
X87425593Y-100535851D01*
X87376093Y-100571815D01*
X87326188Y-100574758D01*
X87306373Y-100570817D01*
X87299758Y-100569501D01*
X87299753Y-100569500D01*
X87299750Y-100569500D01*
X87299748Y-100569500D01*
X86668734Y-100569500D01*
X86647502Y-100567196D01*
X86633264Y-100564070D01*
X86580484Y-100533120D01*
X86555975Y-100477058D01*
X86555500Y-100467374D01*
X86555500Y-98507238D01*
X86551219Y-98480213D01*
X86550000Y-98464724D01*
X86550000Y-98015179D01*
X86554843Y-97984593D01*
X86558965Y-97971904D01*
X86594923Y-97922405D01*
X86595522Y-97921970D01*
X86599063Y-97919399D01*
X86657243Y-97900499D01*
X86744861Y-97900499D01*
X86744864Y-97900499D01*
X86769991Y-97897585D01*
X86872765Y-97852206D01*
X86952206Y-97772765D01*
X86997585Y-97669991D01*
X87000500Y-97644865D01*
X87000499Y-97355136D01*
X86997585Y-97330009D01*
X86997583Y-97330004D01*
X86997579Y-97329995D01*
X86997576Y-97329987D01*
X86989977Y-97312778D01*
X86982051Y-97282834D01*
X86979246Y-97255325D01*
X86982109Y-97219656D01*
X87088410Y-96822970D01*
X87185940Y-96459015D01*
X87198536Y-96430726D01*
X87205805Y-96419533D01*
X87253354Y-96381033D01*
X87263674Y-96377072D01*
X87294941Y-96371279D01*
X87294912Y-96370976D01*
X87298466Y-96370626D01*
X87299147Y-96370500D01*
X87299747Y-96370500D01*
X87299748Y-96370500D01*
X87326184Y-96365241D01*
X87386944Y-96372430D01*
G37*
%TD.AperFunction*%
%TA.AperFunction,Conductor*%
G36*
X88786503Y-92104843D02*
G01*
X88797340Y-92108365D01*
X88846840Y-92144326D01*
X88865750Y-92202516D01*
X88865750Y-92207389D01*
X88852486Y-92256890D01*
X88818497Y-92315758D01*
X88818219Y-92316495D01*
X88817673Y-92318835D01*
X88789500Y-92423982D01*
X88789500Y-92536017D01*
X88815071Y-92631453D01*
X88818497Y-92644241D01*
X88874513Y-92741260D01*
X88874515Y-92741263D01*
X88953737Y-92820485D01*
X88953739Y-92820486D01*
X88954289Y-92820883D01*
X88956300Y-92821964D01*
X88993989Y-92843725D01*
X89015585Y-92867708D01*
X89049893Y-92876285D01*
X89051505Y-92876702D01*
X89072946Y-92882447D01*
X89158361Y-92905333D01*
X89175349Y-92911601D01*
X89190110Y-92918641D01*
X89234491Y-92960751D01*
X89238000Y-92967214D01*
X89250000Y-93014456D01*
X89250000Y-93300000D01*
X90135320Y-93300000D01*
X90165908Y-93304843D01*
X90178595Y-93308966D01*
X90228095Y-93344927D01*
X90228096Y-93344928D01*
X90231091Y-93349050D01*
X90250000Y-93407240D01*
X90250000Y-93902984D01*
X90245154Y-93933579D01*
X90237606Y-93956807D01*
X90213457Y-93996214D01*
X90189540Y-94020131D01*
X90189537Y-94020134D01*
X90189535Y-94020137D01*
X90168108Y-94057249D01*
X90146682Y-94094361D01*
X90146682Y-94094362D01*
X90124500Y-94177147D01*
X90124500Y-94262853D01*
X90146682Y-94345638D01*
X90146683Y-94345640D01*
X90183555Y-94409504D01*
X90194656Y-94438421D01*
X90197429Y-94451467D01*
X90191033Y-94512317D01*
X90191030Y-94512324D01*
X90186534Y-94522420D01*
X90166103Y-94552146D01*
X90151015Y-94567235D01*
X90094996Y-94664261D01*
X90094719Y-94664994D01*
X90094173Y-94667335D01*
X90066000Y-94772482D01*
X90066000Y-94884520D01*
X90077145Y-94926111D01*
X90077145Y-94926114D01*
X90077146Y-94926114D01*
X90088872Y-94969878D01*
X90085669Y-95030979D01*
X90047163Y-95078529D01*
X89993245Y-95094500D01*
X88684500Y-95094500D01*
X88626309Y-95075593D01*
X88590345Y-95026093D01*
X88585500Y-94995500D01*
X88585500Y-94799006D01*
X88585500Y-94799000D01*
X88582970Y-94766856D01*
X88578125Y-94736263D01*
X88578116Y-94736206D01*
X88577353Y-94731714D01*
X88577352Y-94731713D01*
X88541408Y-94647617D01*
X88505444Y-94598117D01*
X88481203Y-94570372D01*
X88402693Y-94523464D01*
X88402691Y-94523463D01*
X88402689Y-94523462D01*
X88344499Y-94504556D01*
X88344500Y-94504556D01*
X88281003Y-94494500D01*
X88281000Y-94494500D01*
X87749000Y-94494500D01*
X87716856Y-94497030D01*
X87686206Y-94501883D01*
X87681718Y-94502646D01*
X87681713Y-94502647D01*
X87597617Y-94538591D01*
X87548118Y-94574555D01*
X87520372Y-94598797D01*
X87473464Y-94677307D01*
X87473462Y-94677310D01*
X87454556Y-94735499D01*
X87444500Y-94798996D01*
X87444500Y-95477660D01*
X87425593Y-95535851D01*
X87376093Y-95571815D01*
X87326188Y-95574758D01*
X87306373Y-95570817D01*
X87299758Y-95569501D01*
X87299753Y-95569500D01*
X87299750Y-95569500D01*
X87299748Y-95569500D01*
X86668734Y-95569500D01*
X86647502Y-95567196D01*
X86633264Y-95564070D01*
X86580484Y-95533120D01*
X86555975Y-95477058D01*
X86555500Y-95467374D01*
X86555500Y-93499006D01*
X86555500Y-93499000D01*
X86552970Y-93466856D01*
X86551218Y-93455798D01*
X86550000Y-93440314D01*
X86550000Y-92214680D01*
X86554843Y-92184094D01*
X86558965Y-92171405D01*
X86594923Y-92121906D01*
X86595522Y-92121471D01*
X86599063Y-92118900D01*
X86657243Y-92100000D01*
X88755915Y-92100000D01*
X88786503Y-92104843D01*
G37*
%TD.AperFunction*%
%TD*%
%TA.AperFunction,Conductor*%
%TO.N,M1_SRC*%
G36*
X93933573Y-109754843D02*
G01*
X93956804Y-109762391D01*
X93996213Y-109786540D01*
X94020138Y-109810465D01*
X94094362Y-109853318D01*
X94177147Y-109875500D01*
X94177149Y-109875500D01*
X94262851Y-109875500D01*
X94262853Y-109875500D01*
X94345638Y-109853318D01*
X94409192Y-109816625D01*
X94438098Y-109805528D01*
X94451151Y-109802753D01*
X94457577Y-109803428D01*
X94463539Y-109800929D01*
X94511959Y-109809142D01*
X94511998Y-109809147D01*
X94512004Y-109809150D01*
X94512007Y-109809151D01*
X94522101Y-109813646D01*
X94530866Y-109819670D01*
X94547542Y-109829790D01*
X94567237Y-109849485D01*
X94599579Y-109868157D01*
X94664259Y-109905501D01*
X94664257Y-109905501D01*
X94664261Y-109905502D01*
X94664263Y-109905503D01*
X94772482Y-109934500D01*
X94772484Y-109934500D01*
X94884516Y-109934500D01*
X94884517Y-109934500D01*
X94884518Y-109934500D01*
X94969877Y-109911628D01*
X95030978Y-109914829D01*
X95078528Y-109953334D01*
X95094500Y-110007254D01*
X95094500Y-111315500D01*
X95075593Y-111373691D01*
X95026093Y-111409655D01*
X94995500Y-111414500D01*
X94799000Y-111414500D01*
X94766856Y-111417030D01*
X94736206Y-111421883D01*
X94731718Y-111422646D01*
X94731713Y-111422647D01*
X94647617Y-111458591D01*
X94598118Y-111494555D01*
X94570372Y-111518797D01*
X94523464Y-111597307D01*
X94523462Y-111597310D01*
X94504556Y-111655499D01*
X94494500Y-111718996D01*
X94494500Y-111719000D01*
X94494500Y-112251000D01*
X94497030Y-112283143D01*
X94501883Y-112313793D01*
X94502646Y-112318281D01*
X94502647Y-112318286D01*
X94538591Y-112402382D01*
X94538592Y-112402383D01*
X94574556Y-112451883D01*
X94598797Y-112479628D01*
X94677307Y-112526536D01*
X94735498Y-112545443D01*
X94747552Y-112547352D01*
X94798996Y-112555500D01*
X94799000Y-112555500D01*
X95477660Y-112555500D01*
X95535851Y-112574407D01*
X95571815Y-112623907D01*
X95574758Y-112673813D01*
X95569500Y-112700244D01*
X95569500Y-113331260D01*
X95567199Y-113352481D01*
X95564074Y-113366721D01*
X95533133Y-113419506D01*
X95477074Y-113444024D01*
X95467375Y-113444500D01*
X93499000Y-113444500D01*
X93480249Y-113445975D01*
X93466851Y-113447030D01*
X93457073Y-113448579D01*
X93455798Y-113448781D01*
X93440314Y-113450000D01*
X92214680Y-113450000D01*
X92184087Y-113445154D01*
X92171401Y-113441032D01*
X92121901Y-113405068D01*
X92121894Y-113405058D01*
X92118900Y-113400936D01*
X92100000Y-113342756D01*
X92100000Y-111244085D01*
X92104847Y-111213488D01*
X92108368Y-111202653D01*
X92144334Y-111153155D01*
X92202521Y-111134250D01*
X92207390Y-111134250D01*
X92256894Y-111147516D01*
X92258993Y-111148728D01*
X92280582Y-111172707D01*
X92314893Y-111181285D01*
X92316496Y-111181699D01*
X92423982Y-111210500D01*
X92423984Y-111210500D01*
X92536016Y-111210500D01*
X92536018Y-111210500D01*
X92644237Y-111181503D01*
X92644239Y-111181501D01*
X92644241Y-111181501D01*
X92703104Y-111147516D01*
X92711498Y-111142670D01*
X92711499Y-111142669D01*
X92741263Y-111125485D01*
X92820485Y-111046263D01*
X92876503Y-110949237D01*
X92905334Y-110841635D01*
X92911601Y-110824650D01*
X92918642Y-110809887D01*
X92960753Y-110765507D01*
X92967228Y-110761992D01*
X93014457Y-110750000D01*
X93299999Y-110750000D01*
X93300000Y-110750000D01*
X93300000Y-109864680D01*
X93304843Y-109834094D01*
X93307960Y-109824500D01*
X93308965Y-109821405D01*
X93344923Y-109771906D01*
X93345522Y-109771471D01*
X93349063Y-109768900D01*
X93407243Y-109750000D01*
X93902985Y-109750000D01*
X93933573Y-109754843D01*
G37*
%TD.AperFunction*%
%TA.AperFunction,Conductor*%
G36*
X100053691Y-109768907D02*
G01*
X100089655Y-109818407D01*
X100094500Y-109849000D01*
X100094500Y-111315500D01*
X100075593Y-111373691D01*
X100026093Y-111409655D01*
X99995500Y-111414500D01*
X99799000Y-111414500D01*
X99766856Y-111417030D01*
X99736206Y-111421883D01*
X99731718Y-111422646D01*
X99731713Y-111422647D01*
X99647617Y-111458591D01*
X99598118Y-111494555D01*
X99570372Y-111518797D01*
X99523464Y-111597307D01*
X99523462Y-111597310D01*
X99504556Y-111655499D01*
X99494500Y-111718996D01*
X99494500Y-111719000D01*
X99494500Y-112251000D01*
X99497030Y-112283143D01*
X99501883Y-112313793D01*
X99502646Y-112318281D01*
X99502647Y-112318286D01*
X99538591Y-112402382D01*
X99538592Y-112402383D01*
X99574556Y-112451883D01*
X99598797Y-112479628D01*
X99677307Y-112526536D01*
X99735498Y-112545443D01*
X99747552Y-112547352D01*
X99798996Y-112555500D01*
X99799000Y-112555500D01*
X100477660Y-112555500D01*
X100535851Y-112574407D01*
X100571815Y-112623907D01*
X100574758Y-112673813D01*
X100569500Y-112700244D01*
X100569500Y-113331260D01*
X100567199Y-113352483D01*
X100563432Y-113369647D01*
X100532491Y-113422430D01*
X100530499Y-113424200D01*
X100485012Y-113447096D01*
X100481159Y-113447902D01*
X100460888Y-113450000D01*
X98015179Y-113450000D01*
X97984586Y-113445154D01*
X97971900Y-113441032D01*
X97922400Y-113405068D01*
X97922393Y-113405058D01*
X97919399Y-113400936D01*
X97900499Y-113342756D01*
X97900499Y-113255139D01*
X97900499Y-113255138D01*
X97900499Y-113255136D01*
X97897585Y-113230009D01*
X97852206Y-113127235D01*
X97772765Y-113047794D01*
X97772763Y-113047793D01*
X97686919Y-113009888D01*
X97685211Y-113008719D01*
X97669061Y-113002029D01*
X97664308Y-113001755D01*
X97658374Y-113001066D01*
X97644868Y-112999500D01*
X97644866Y-112999500D01*
X97355145Y-112999500D01*
X97355140Y-112999500D01*
X97355135Y-112999500D01*
X97352260Y-112999785D01*
X97351103Y-112999968D01*
X97330017Y-113002412D01*
X97330010Y-113002414D01*
X97330004Y-113002416D01*
X97312769Y-113010025D01*
X97282830Y-113017947D01*
X97255323Y-113020752D01*
X97219655Y-113017889D01*
X96459020Y-112814059D01*
X96430724Y-112801460D01*
X96419539Y-112794196D01*
X96381035Y-112746645D01*
X96377075Y-112736328D01*
X96371140Y-112704307D01*
X96370838Y-112704333D01*
X96370589Y-112701337D01*
X96370500Y-112700852D01*
X96370500Y-112700251D01*
X96370499Y-112700250D01*
X96370498Y-112700241D01*
X96367712Y-112686236D01*
X96367712Y-112686231D01*
X96367711Y-112686232D01*
X96367711Y-112686231D01*
X96365241Y-112673813D01*
X96372432Y-112613053D01*
X96413965Y-112568123D01*
X96462339Y-112555500D01*
X96520993Y-112555500D01*
X96521000Y-112555500D01*
X96553144Y-112552970D01*
X96583737Y-112548125D01*
X96583748Y-112548123D01*
X96583793Y-112548116D01*
X96588281Y-112547353D01*
X96588280Y-112547353D01*
X96588287Y-112547352D01*
X96672383Y-112511408D01*
X96721883Y-112475444D01*
X96749628Y-112451203D01*
X96796536Y-112372693D01*
X96815443Y-112314502D01*
X96825500Y-112251000D01*
X96825500Y-109849000D01*
X96844407Y-109790809D01*
X96893907Y-109754845D01*
X96924500Y-109750000D01*
X99995500Y-109750000D01*
X100053691Y-109768907D01*
G37*
%TD.AperFunction*%
%TA.AperFunction,Conductor*%
G36*
X105061088Y-109768907D02*
G01*
X105097052Y-109818407D01*
X105100678Y-109864485D01*
X105094500Y-109903495D01*
X105094500Y-111315500D01*
X105075593Y-111373691D01*
X105026093Y-111409655D01*
X104995500Y-111414500D01*
X104799000Y-111414500D01*
X104766856Y-111417030D01*
X104736206Y-111421883D01*
X104731718Y-111422646D01*
X104731713Y-111422647D01*
X104647617Y-111458591D01*
X104598118Y-111494555D01*
X104570372Y-111518797D01*
X104523464Y-111597307D01*
X104523462Y-111597310D01*
X104504556Y-111655499D01*
X104494500Y-111718996D01*
X104494500Y-111719000D01*
X104494500Y-112251000D01*
X104497030Y-112283143D01*
X104501883Y-112313793D01*
X104502646Y-112318281D01*
X104502647Y-112318286D01*
X104538591Y-112402382D01*
X104538592Y-112402383D01*
X104574556Y-112451883D01*
X104598797Y-112479628D01*
X104677307Y-112526536D01*
X104735498Y-112545443D01*
X104747552Y-112547352D01*
X104798996Y-112555500D01*
X104799000Y-112555500D01*
X105477660Y-112555500D01*
X105535851Y-112574407D01*
X105571815Y-112623907D01*
X105574758Y-112673813D01*
X105569500Y-112700244D01*
X105569500Y-113331260D01*
X105567199Y-113352481D01*
X105564074Y-113366721D01*
X105533133Y-113419506D01*
X105477074Y-113444024D01*
X105467375Y-113444500D01*
X103507243Y-113444500D01*
X103485760Y-113447902D01*
X103480203Y-113448782D01*
X103464719Y-113450000D01*
X103015179Y-113450000D01*
X102984586Y-113445154D01*
X102971900Y-113441032D01*
X102922400Y-113405068D01*
X102922393Y-113405058D01*
X102919399Y-113400936D01*
X102900499Y-113342756D01*
X102900499Y-113255139D01*
X102900499Y-113255138D01*
X102900499Y-113255136D01*
X102897585Y-113230009D01*
X102852206Y-113127235D01*
X102772765Y-113047794D01*
X102772763Y-113047793D01*
X102686919Y-113009888D01*
X102685211Y-113008719D01*
X102669061Y-113002029D01*
X102664308Y-113001755D01*
X102658374Y-113001066D01*
X102644868Y-112999500D01*
X102644866Y-112999500D01*
X102355145Y-112999500D01*
X102355140Y-112999500D01*
X102355135Y-112999500D01*
X102352260Y-112999785D01*
X102351103Y-112999968D01*
X102330017Y-113002412D01*
X102330010Y-113002414D01*
X102330004Y-113002416D01*
X102312769Y-113010025D01*
X102282830Y-113017947D01*
X102255323Y-113020752D01*
X102219655Y-113017889D01*
X101459020Y-112814059D01*
X101430724Y-112801460D01*
X101419539Y-112794196D01*
X101381035Y-112746645D01*
X101377075Y-112736328D01*
X101371140Y-112704307D01*
X101370838Y-112704333D01*
X101370589Y-112701337D01*
X101370500Y-112700852D01*
X101370500Y-112700251D01*
X101370499Y-112700250D01*
X101370498Y-112700241D01*
X101367712Y-112686236D01*
X101367712Y-112686231D01*
X101367711Y-112686232D01*
X101367711Y-112686231D01*
X101365241Y-112673813D01*
X101372432Y-112613053D01*
X101413965Y-112568123D01*
X101462339Y-112555500D01*
X101520993Y-112555500D01*
X101521000Y-112555500D01*
X101553144Y-112552970D01*
X101583737Y-112548125D01*
X101583748Y-112548123D01*
X101583793Y-112548116D01*
X101588281Y-112547353D01*
X101588280Y-112547353D01*
X101588287Y-112547352D01*
X101672383Y-112511408D01*
X101721883Y-112475444D01*
X101749628Y-112451203D01*
X101796536Y-112372693D01*
X101815443Y-112314502D01*
X101825500Y-112251000D01*
X101825500Y-109849000D01*
X101844407Y-109790809D01*
X101893907Y-109754845D01*
X101924500Y-109750000D01*
X105002897Y-109750000D01*
X105061088Y-109768907D01*
G37*
%TD.AperFunction*%
%TA.AperFunction,Conductor*%
G36*
X110515908Y-106804843D02*
G01*
X110528595Y-106808966D01*
X110578095Y-106844927D01*
X110578096Y-106844928D01*
X110581091Y-106849050D01*
X110600000Y-106907240D01*
X110600000Y-107062645D01*
X110595154Y-107093240D01*
X110589289Y-107111289D01*
X110561384Y-107154260D01*
X110558237Y-107157094D01*
X110541492Y-107169262D01*
X110523741Y-107179511D01*
X110444509Y-107258743D01*
X110388500Y-107355753D01*
X110388496Y-107355764D01*
X110383477Y-107374497D01*
X110383477Y-107374499D01*
X110359500Y-107463983D01*
X110359500Y-107576017D01*
X110379526Y-107650760D01*
X110388497Y-107684240D01*
X110441829Y-107776612D01*
X110444511Y-107781258D01*
X110444513Y-107781260D01*
X110444515Y-107781263D01*
X110523737Y-107860485D01*
X110523739Y-107860486D01*
X110523740Y-107860487D01*
X110536918Y-107868095D01*
X110560991Y-107887588D01*
X110573689Y-107901690D01*
X110596952Y-107947334D01*
X110597833Y-107951480D01*
X110600000Y-107972076D01*
X110600000Y-110460968D01*
X110595155Y-110491560D01*
X110588208Y-110512941D01*
X110559110Y-110555596D01*
X110559639Y-110556180D01*
X110559698Y-110556239D01*
X110559695Y-110556241D01*
X110559775Y-110556330D01*
X110557984Y-110557952D01*
X110557958Y-110557978D01*
X110172443Y-111027730D01*
X110172437Y-111027740D01*
X109885978Y-111563667D01*
X109885976Y-111563671D01*
X109885972Y-111563682D01*
X109709565Y-112145214D01*
X109709562Y-112145225D01*
X109709560Y-112145237D01*
X109650000Y-112749988D01*
X109650000Y-112750011D01*
X109706699Y-113325691D01*
X109704875Y-113356614D01*
X109702016Y-113369643D01*
X109671076Y-113422429D01*
X109671073Y-113422432D01*
X109669082Y-113424201D01*
X109623611Y-113447093D01*
X109621126Y-113447613D01*
X109619753Y-113447900D01*
X109599471Y-113450000D01*
X108536069Y-113450000D01*
X108510445Y-113446626D01*
X108486124Y-113440109D01*
X108462251Y-113430220D01*
X108455227Y-113426165D01*
X108434193Y-113402804D01*
X108360886Y-113383160D01*
X108360886Y-113383161D01*
X108302435Y-113367500D01*
X108203565Y-113367500D01*
X108195567Y-113369643D01*
X108155812Y-113380294D01*
X108155813Y-113380295D01*
X108108060Y-113393090D01*
X108108059Y-113393090D01*
X108108057Y-113393091D01*
X108062579Y-113419349D01*
X108033655Y-113430451D01*
X108022511Y-113432819D01*
X107961661Y-113426419D01*
X107916196Y-113385478D01*
X107913759Y-113381257D01*
X107900499Y-113331763D01*
X107900499Y-113255139D01*
X107900499Y-113255138D01*
X107900499Y-113255136D01*
X107897585Y-113230009D01*
X107852206Y-113127235D01*
X107772765Y-113047794D01*
X107772763Y-113047793D01*
X107686919Y-113009888D01*
X107685211Y-113008719D01*
X107669061Y-113002029D01*
X107664308Y-113001755D01*
X107658374Y-113001066D01*
X107644868Y-112999500D01*
X107644866Y-112999500D01*
X107355145Y-112999500D01*
X107355140Y-112999500D01*
X107355135Y-112999500D01*
X107352260Y-112999785D01*
X107351103Y-112999968D01*
X107330017Y-113002412D01*
X107330010Y-113002414D01*
X107330004Y-113002416D01*
X107312769Y-113010025D01*
X107282830Y-113017947D01*
X107255323Y-113020752D01*
X107219655Y-113017889D01*
X106459020Y-112814059D01*
X106430724Y-112801460D01*
X106419539Y-112794196D01*
X106381035Y-112746645D01*
X106377075Y-112736328D01*
X106371140Y-112704307D01*
X106370838Y-112704333D01*
X106370589Y-112701337D01*
X106370500Y-112700852D01*
X106370500Y-112700251D01*
X106370499Y-112700250D01*
X106370498Y-112700241D01*
X106367712Y-112686236D01*
X106367712Y-112686231D01*
X106367711Y-112686232D01*
X106367711Y-112686231D01*
X106365241Y-112673813D01*
X106372432Y-112613053D01*
X106413965Y-112568123D01*
X106462339Y-112555500D01*
X106520993Y-112555500D01*
X106521000Y-112555500D01*
X106553144Y-112552970D01*
X106583737Y-112548125D01*
X106583748Y-112548123D01*
X106583793Y-112548116D01*
X106588281Y-112547353D01*
X106588280Y-112547353D01*
X106588287Y-112547352D01*
X106672383Y-112511408D01*
X106721883Y-112475444D01*
X106749628Y-112451203D01*
X106796536Y-112372693D01*
X106815443Y-112314502D01*
X106825500Y-112251000D01*
X106825500Y-110010566D01*
X106844407Y-109952375D01*
X106893907Y-109916411D01*
X106948510Y-109914522D01*
X107029192Y-109934692D01*
X107030795Y-109935106D01*
X107125565Y-109960500D01*
X107125567Y-109960500D01*
X107224433Y-109960500D01*
X107224435Y-109960500D01*
X107319938Y-109934910D01*
X107319940Y-109934908D01*
X107319942Y-109934908D01*
X107345377Y-109920222D01*
X107405562Y-109885475D01*
X107475475Y-109815562D01*
X107524910Y-109729938D01*
X107550500Y-109634435D01*
X107550500Y-109535565D01*
X107524910Y-109440062D01*
X107523808Y-109438153D01*
X107520280Y-109432042D01*
X107510390Y-109408165D01*
X107503873Y-109383842D01*
X107500500Y-109358220D01*
X107500500Y-108143982D01*
X107824500Y-108143982D01*
X107824500Y-108256017D01*
X107838691Y-108308980D01*
X107838692Y-108308982D01*
X107853499Y-108364244D01*
X107908729Y-108459901D01*
X107908730Y-108459907D01*
X107908732Y-108459907D01*
X107909513Y-108461259D01*
X107909515Y-108461263D01*
X107988737Y-108540485D01*
X107988739Y-108540486D01*
X107989289Y-108540883D01*
X107991300Y-108541964D01*
X108028989Y-108563725D01*
X108050585Y-108587708D01*
X108084893Y-108596285D01*
X108086496Y-108596699D01*
X108193982Y-108625500D01*
X108193984Y-108625500D01*
X108306016Y-108625500D01*
X108306017Y-108625500D01*
X108306018Y-108625500D01*
X108395189Y-108601606D01*
X108412813Y-108598557D01*
X108421320Y-108597867D01*
X108421321Y-108597869D01*
X108432260Y-108596982D01*
X108491784Y-108611130D01*
X108531627Y-108657564D01*
X108536567Y-108718550D01*
X108535093Y-108724752D01*
X108521094Y-108756859D01*
X108511135Y-108771764D01*
X108511133Y-108771768D01*
X108511131Y-108771777D01*
X108499500Y-108830245D01*
X108499500Y-109358221D01*
X108496126Y-109383846D01*
X108489609Y-109408166D01*
X108479724Y-109432033D01*
X108475090Y-109440059D01*
X108475044Y-109440153D01*
X108474708Y-109441487D01*
X108449500Y-109535566D01*
X108449500Y-109634437D01*
X108461186Y-109678047D01*
X108461186Y-109678049D01*
X108461187Y-109678049D01*
X108475092Y-109729945D01*
X108499319Y-109771905D01*
X108521581Y-109810464D01*
X108521583Y-109810466D01*
X108521585Y-109810470D01*
X108524522Y-109815558D01*
X108524523Y-109815559D01*
X108524525Y-109815562D01*
X108594438Y-109885475D01*
X108594440Y-109885476D01*
X108594990Y-109885873D01*
X108597001Y-109886954D01*
X108623288Y-109902132D01*
X108644883Y-109926115D01*
X108679192Y-109934692D01*
X108680795Y-109935106D01*
X108775565Y-109960500D01*
X108775567Y-109960500D01*
X108874433Y-109960500D01*
X108874435Y-109960500D01*
X108969938Y-109934910D01*
X108969940Y-109934908D01*
X108969942Y-109934908D01*
X108995377Y-109920222D01*
X109055562Y-109885475D01*
X109125475Y-109815562D01*
X109174910Y-109729938D01*
X109200500Y-109634435D01*
X109200500Y-109535565D01*
X109174910Y-109440062D01*
X109173808Y-109438153D01*
X109170280Y-109432042D01*
X109160390Y-109408165D01*
X109153873Y-109383842D01*
X109150500Y-109358220D01*
X109150500Y-108830251D01*
X109139374Y-108774319D01*
X109139372Y-108774309D01*
X109139276Y-108773829D01*
X109138867Y-108771769D01*
X109094552Y-108705448D01*
X109094548Y-108705445D01*
X109028233Y-108661134D01*
X109028234Y-108661134D01*
X109028232Y-108661133D01*
X109028227Y-108661131D01*
X109028025Y-108661063D01*
X109026488Y-108660786D01*
X108969768Y-108649503D01*
X108969758Y-108649501D01*
X108969753Y-108649500D01*
X108969750Y-108649500D01*
X108969748Y-108649500D01*
X108680252Y-108649500D01*
X108680244Y-108649500D01*
X108680243Y-108649500D01*
X108668680Y-108651800D01*
X108637745Y-108653016D01*
X108629559Y-108652048D01*
X108573991Y-108626438D01*
X108544089Y-108573057D01*
X108551273Y-108512297D01*
X108553989Y-108506406D01*
X108573890Y-108477857D01*
X108590485Y-108461263D01*
X108590486Y-108461260D01*
X108590488Y-108461259D01*
X108646501Y-108364241D01*
X108646501Y-108364239D01*
X108646503Y-108364237D01*
X108675500Y-108256018D01*
X108675500Y-108143982D01*
X108646503Y-108035763D01*
X108646501Y-108035760D01*
X108646501Y-108035758D01*
X108646499Y-108035755D01*
X108646409Y-108035418D01*
X108644915Y-108033011D01*
X108591967Y-107941303D01*
X108590885Y-107939293D01*
X108590486Y-107938739D01*
X108590485Y-107938737D01*
X108511263Y-107859515D01*
X108511260Y-107859513D01*
X108511259Y-107859512D01*
X108500839Y-107853496D01*
X108500839Y-107853495D01*
X108471528Y-107836573D01*
X108450492Y-107813210D01*
X108372251Y-107792247D01*
X108372250Y-107792246D01*
X108323764Y-107779255D01*
X108306018Y-107774500D01*
X108306017Y-107774500D01*
X108193983Y-107774500D01*
X108193982Y-107774500D01*
X108186100Y-107776612D01*
X108127748Y-107792246D01*
X108127748Y-107792247D01*
X108094626Y-107801121D01*
X108085754Y-107803499D01*
X107988741Y-107859511D01*
X107909509Y-107938743D01*
X107853497Y-108035758D01*
X107853219Y-108036494D01*
X107852673Y-108038835D01*
X107824500Y-108143982D01*
X107500500Y-108143982D01*
X107500500Y-107074182D01*
X107500943Y-107074182D01*
X107500908Y-107060304D01*
X107504196Y-107032514D01*
X107516771Y-106994653D01*
X107559910Y-106919938D01*
X107560314Y-106918431D01*
X107572909Y-106890133D01*
X107577402Y-106883215D01*
X107624948Y-106844711D01*
X107686049Y-106841506D01*
X107737364Y-106874827D01*
X107740020Y-106878107D01*
X107758710Y-106914787D01*
X107760090Y-106919940D01*
X107760093Y-106919946D01*
X107799174Y-106987635D01*
X107809525Y-107005563D01*
X107864260Y-107060297D01*
X107879438Y-107075475D01*
X107879440Y-107075476D01*
X107879990Y-107075873D01*
X107882001Y-107076954D01*
X107908288Y-107092132D01*
X107929883Y-107116115D01*
X107964192Y-107124692D01*
X107965795Y-107125106D01*
X108060565Y-107150500D01*
X108060567Y-107150500D01*
X108159433Y-107150500D01*
X108159435Y-107150500D01*
X108254938Y-107124910D01*
X108254939Y-107124909D01*
X108254941Y-107124908D01*
X108254942Y-107124908D01*
X108307180Y-107094748D01*
X108340562Y-107075475D01*
X108410475Y-107005562D01*
X108459910Y-106919938D01*
X108460314Y-106918431D01*
X108472909Y-106890133D01*
X108477402Y-106883215D01*
X108524948Y-106844711D01*
X108586049Y-106841506D01*
X108637364Y-106874827D01*
X108640020Y-106878107D01*
X108658710Y-106914787D01*
X108660090Y-106919940D01*
X108660093Y-106919946D01*
X108699174Y-106987635D01*
X108709525Y-107005563D01*
X108764260Y-107060297D01*
X108779438Y-107075475D01*
X108779440Y-107075476D01*
X108779990Y-107075873D01*
X108782001Y-107076954D01*
X108808288Y-107092132D01*
X108829883Y-107116115D01*
X108864192Y-107124692D01*
X108865795Y-107125106D01*
X108960565Y-107150500D01*
X108960567Y-107150500D01*
X109059433Y-107150500D01*
X109059435Y-107150500D01*
X109154938Y-107124910D01*
X109154939Y-107124909D01*
X109154941Y-107124908D01*
X109154942Y-107124908D01*
X109207180Y-107094748D01*
X109240562Y-107075475D01*
X109310475Y-107005562D01*
X109351285Y-106934876D01*
X109359909Y-106919940D01*
X109359911Y-106919936D01*
X109364374Y-106903280D01*
X109368328Y-106888520D01*
X109380924Y-106860229D01*
X109388192Y-106849037D01*
X109435738Y-106810536D01*
X109441895Y-106808172D01*
X109446064Y-106806573D01*
X109481535Y-106800000D01*
X110485320Y-106800000D01*
X110515908Y-106804843D01*
G37*
%TD.AperFunction*%
%TD*%
%TA.AperFunction,Conductor*%
%TO.N,VBAT*%
G36*
X96579191Y-109768907D02*
G01*
X96615155Y-109818407D01*
X96620000Y-109849000D01*
X96620000Y-112251000D01*
X96601093Y-112309191D01*
X96551593Y-112345155D01*
X96521000Y-112350000D01*
X94799000Y-112350000D01*
X94740809Y-112331093D01*
X94704845Y-112281593D01*
X94700000Y-112251000D01*
X94700000Y-111719000D01*
X94718907Y-111660809D01*
X94768407Y-111624845D01*
X94799000Y-111620000D01*
X95299999Y-111620000D01*
X95300000Y-111620000D01*
X95300000Y-109849000D01*
X95318907Y-109790809D01*
X95368407Y-109754845D01*
X95399000Y-109750000D01*
X96521000Y-109750000D01*
X96579191Y-109768907D01*
G37*
%TD.AperFunction*%
%TD*%
%TA.AperFunction,Conductor*%
%TO.N,M2_C*%
G36*
X115640000Y-93900000D02*
G01*
X116180000Y-93900000D01*
X116180000Y-93400000D01*
X116180001Y-93400000D01*
X116735320Y-93400000D01*
X116765908Y-93404843D01*
X116778595Y-93408966D01*
X116828095Y-93444927D01*
X116828096Y-93444928D01*
X116831091Y-93449050D01*
X116850000Y-93507240D01*
X116850000Y-96485319D01*
X116845154Y-96515912D01*
X116841032Y-96528598D01*
X116805080Y-96578089D01*
X116800959Y-96581084D01*
X116742771Y-96600000D01*
X113764680Y-96600000D01*
X113734087Y-96595154D01*
X113721401Y-96591032D01*
X113671901Y-96555068D01*
X113671894Y-96555058D01*
X113668900Y-96550936D01*
X113650000Y-96492756D01*
X113650000Y-93514680D01*
X113654843Y-93484094D01*
X113658965Y-93471405D01*
X113694923Y-93421906D01*
X113695522Y-93421471D01*
X113699063Y-93418900D01*
X113757243Y-93400000D01*
X115639999Y-93400000D01*
X115640000Y-93400000D01*
X115640000Y-93900000D01*
G37*
%TD.AperFunction*%
%TD*%
%TA.AperFunction,Conductor*%
%TO.N,M3_C*%
G36*
X84360000Y-106600000D02*
G01*
X84360000Y-106600001D01*
X84360000Y-107581000D01*
X84341093Y-107639191D01*
X84291593Y-107675155D01*
X84261000Y-107680000D01*
X83919000Y-107680000D01*
X83860809Y-107661093D01*
X83824845Y-107611593D01*
X83820000Y-107581000D01*
X83820000Y-106600001D01*
X83820000Y-106100000D01*
X84360000Y-106100000D01*
X84360000Y-106600000D01*
G37*
%TD.AperFunction*%
%TD*%
%TA.AperFunction,Conductor*%
%TO.N,M2_A*%
G36*
X115640000Y-103900000D02*
G01*
X116180000Y-103900000D01*
X116180000Y-103400000D01*
X116180001Y-103400000D01*
X116751000Y-103400000D01*
X116809191Y-103418907D01*
X116845155Y-103468407D01*
X116850000Y-103499000D01*
X116850000Y-106501000D01*
X116831093Y-106559191D01*
X116781593Y-106595155D01*
X116751000Y-106600000D01*
X113749000Y-106600000D01*
X113690809Y-106581093D01*
X113654845Y-106531593D01*
X113650000Y-106501000D01*
X113650000Y-103499000D01*
X113668907Y-103440809D01*
X113718407Y-103404845D01*
X113749000Y-103400000D01*
X115639999Y-103400000D01*
X115640000Y-103400000D01*
X115640000Y-103900000D01*
G37*
%TD.AperFunction*%
%TD*%
%TA.AperFunction,Conductor*%
%TO.N,M4_C*%
G36*
X93900000Y-84360000D02*
G01*
X92419000Y-84360000D01*
X92360809Y-84341093D01*
X92324845Y-84291593D01*
X92320000Y-84261000D01*
X92320000Y-83919000D01*
X92338907Y-83860809D01*
X92388407Y-83824845D01*
X92419000Y-83820000D01*
X93399999Y-83820000D01*
X93900000Y-83820000D01*
X93900000Y-84360000D01*
G37*
%TD.AperFunction*%
%TD*%
%TA.AperFunction,Conductor*%
%TO.N,M3_B*%
G36*
X85778701Y-98403374D02*
G01*
X85803261Y-98409955D01*
X85815503Y-98414109D01*
X85821056Y-98416407D01*
X85821057Y-98416407D01*
X85821062Y-98416410D01*
X85916565Y-98442000D01*
X85916567Y-98442000D01*
X86015433Y-98442000D01*
X86015435Y-98442000D01*
X86110938Y-98416410D01*
X86110949Y-98416403D01*
X86116459Y-98414122D01*
X86128732Y-98409956D01*
X86153303Y-98403373D01*
X86178923Y-98400000D01*
X86235320Y-98400000D01*
X86265908Y-98404843D01*
X86278595Y-98408966D01*
X86328095Y-98444927D01*
X86328096Y-98444928D01*
X86331091Y-98449050D01*
X86350000Y-98507240D01*
X86350000Y-101485319D01*
X86345154Y-101515912D01*
X86341032Y-101528598D01*
X86305080Y-101578089D01*
X86300959Y-101581084D01*
X86242771Y-101600000D01*
X84360000Y-101600000D01*
X84360000Y-101100000D01*
X83820000Y-101100000D01*
X83820000Y-101600000D01*
X83264680Y-101600000D01*
X83234087Y-101595154D01*
X83221401Y-101591032D01*
X83171901Y-101555068D01*
X83171894Y-101555058D01*
X83168900Y-101550936D01*
X83150000Y-101492756D01*
X83150000Y-98514680D01*
X83154843Y-98484094D01*
X83158965Y-98471405D01*
X83194923Y-98421906D01*
X83195522Y-98421471D01*
X83199063Y-98418900D01*
X83257243Y-98400000D01*
X85753077Y-98400000D01*
X85778701Y-98403374D01*
G37*
%TD.AperFunction*%
%TD*%
%TA.AperFunction,Conductor*%
%TO.N,VBAT*%
G36*
X88339191Y-104718907D02*
G01*
X88375155Y-104768407D01*
X88380000Y-104799000D01*
X88380000Y-105300000D01*
X90096994Y-105300000D01*
X90155185Y-105318907D01*
X90191149Y-105368407D01*
X90195994Y-105398983D01*
X90196000Y-105434046D01*
X90196000Y-106149528D01*
X90195918Y-106150364D01*
X90195976Y-106192157D01*
X90192603Y-106217915D01*
X90179300Y-106267565D01*
X90179300Y-106366435D01*
X90204890Y-106461938D01*
X90204891Y-106461940D01*
X90210410Y-106471499D01*
X90223132Y-106531347D01*
X90198246Y-106587243D01*
X90145258Y-106617836D01*
X90124674Y-106620000D01*
X87749000Y-106620000D01*
X87690809Y-106601093D01*
X87654845Y-106551593D01*
X87650000Y-106521000D01*
X87650000Y-104799000D01*
X87668907Y-104740809D01*
X87718407Y-104704845D01*
X87749000Y-104700000D01*
X88281000Y-104700000D01*
X88339191Y-104718907D01*
G37*
%TD.AperFunction*%
%TD*%
%TA.AperFunction,Conductor*%
%TO.N,M1_A*%
G36*
X96559191Y-113668907D02*
G01*
X96595155Y-113718407D01*
X96600000Y-113749000D01*
X96600000Y-115640000D01*
X96100000Y-115640000D01*
X96100000Y-116180000D01*
X96600000Y-116180000D01*
X96600000Y-116180001D01*
X96600000Y-116751000D01*
X96581093Y-116809191D01*
X96531593Y-116845155D01*
X96501000Y-116850000D01*
X93499000Y-116850000D01*
X93440809Y-116831093D01*
X93404845Y-116781593D01*
X93400000Y-116751000D01*
X93400000Y-113749000D01*
X93418907Y-113690809D01*
X93468407Y-113654845D01*
X93499000Y-113650000D01*
X96501000Y-113650000D01*
X96559191Y-113668907D01*
G37*
%TD.AperFunction*%
%TD*%
%TA.AperFunction,Conductor*%
%TO.N,M3_B*%
G36*
X84360000Y-101600000D02*
G01*
X84360000Y-101600001D01*
X84360000Y-102721000D01*
X84341093Y-102779191D01*
X84291593Y-102815155D01*
X84261000Y-102820000D01*
X83919000Y-102820000D01*
X83860809Y-102801093D01*
X83824845Y-102751593D01*
X83820000Y-102721000D01*
X83820000Y-101600001D01*
X83820000Y-101100000D01*
X84360000Y-101100000D01*
X84360000Y-101600000D01*
G37*
%TD.AperFunction*%
%TD*%
%TA.AperFunction,Conductor*%
%TO.N,VBAT*%
G36*
X88339191Y-99718907D02*
G01*
X88375155Y-99768407D01*
X88380000Y-99799000D01*
X88380000Y-100300000D01*
X90151000Y-100300000D01*
X90209191Y-100318907D01*
X90245155Y-100368407D01*
X90250000Y-100399000D01*
X90250000Y-101521000D01*
X90231093Y-101579191D01*
X90181593Y-101615155D01*
X90151000Y-101620000D01*
X87749000Y-101620000D01*
X87690809Y-101601093D01*
X87654845Y-101551593D01*
X87650000Y-101521000D01*
X87650000Y-99799000D01*
X87668907Y-99740809D01*
X87718407Y-99704845D01*
X87749000Y-99700000D01*
X88281000Y-99700000D01*
X88339191Y-99718907D01*
G37*
%TD.AperFunction*%
%TD*%
%TA.AperFunction,Conductor*%
%TO.N,VBAT*%
G36*
X101579191Y-109768907D02*
G01*
X101615155Y-109818407D01*
X101620000Y-109849000D01*
X101620000Y-112251000D01*
X101601093Y-112309191D01*
X101551593Y-112345155D01*
X101521000Y-112350000D01*
X99799000Y-112350000D01*
X99740809Y-112331093D01*
X99704845Y-112281593D01*
X99700000Y-112251000D01*
X99700000Y-111719000D01*
X99718907Y-111660809D01*
X99768407Y-111624845D01*
X99799000Y-111620000D01*
X100299999Y-111620000D01*
X100300000Y-111620000D01*
X100300000Y-109849000D01*
X100318907Y-109790809D01*
X100368407Y-109754845D01*
X100399000Y-109750000D01*
X101521000Y-109750000D01*
X101579191Y-109768907D01*
G37*
%TD.AperFunction*%
%TD*%
%TA.AperFunction,Conductor*%
%TO.N,M1_C*%
G36*
X107639191Y-115658907D02*
G01*
X107675155Y-115708407D01*
X107680000Y-115739000D01*
X107680000Y-116081000D01*
X107661093Y-116139191D01*
X107611593Y-116175155D01*
X107581000Y-116180000D01*
X106100000Y-116180000D01*
X106100000Y-115640000D01*
X106600000Y-115640000D01*
X106600001Y-115640000D01*
X107581000Y-115640000D01*
X107639191Y-115658907D01*
G37*
%TD.AperFunction*%
%TD*%
%TA.AperFunction,Conductor*%
%TO.N,M2_B*%
G36*
X116139191Y-97198907D02*
G01*
X116175155Y-97248407D01*
X116180000Y-97279000D01*
X116180000Y-98900000D01*
X115640000Y-98900000D01*
X115640000Y-97279000D01*
X115658907Y-97220809D01*
X115708407Y-97184845D01*
X115739000Y-97180000D01*
X116081000Y-97180000D01*
X116139191Y-97198907D01*
G37*
%TD.AperFunction*%
%TD*%
%TA.AperFunction,Conductor*%
%TO.N,M1_B*%
G36*
X102779191Y-115658907D02*
G01*
X102815155Y-115708407D01*
X102820000Y-115739000D01*
X102820000Y-116081000D01*
X102801093Y-116139191D01*
X102751593Y-116175155D01*
X102721000Y-116180000D01*
X101100000Y-116180000D01*
X101100000Y-115640000D01*
X101600000Y-115640000D01*
X101600001Y-115640000D01*
X102721000Y-115640000D01*
X102779191Y-115658907D01*
G37*
%TD.AperFunction*%
%TD*%
%TA.AperFunction,Conductor*%
%TO.N,M4_B*%
G36*
X98900000Y-84360000D02*
G01*
X97279000Y-84360000D01*
X97220809Y-84341093D01*
X97184845Y-84291593D01*
X97180000Y-84261000D01*
X97180000Y-83919000D01*
X97198907Y-83860809D01*
X97248407Y-83824845D01*
X97279000Y-83820000D01*
X98399999Y-83820000D01*
X98900000Y-83820000D01*
X98900000Y-84360000D01*
G37*
%TD.AperFunction*%
%TD*%
%TA.AperFunction,Conductor*%
%TO.N,M4_C*%
G36*
X96515908Y-83154843D02*
G01*
X96528595Y-83158966D01*
X96578095Y-83194927D01*
X96578096Y-83194928D01*
X96581091Y-83199050D01*
X96600000Y-83257240D01*
X96600000Y-86235319D01*
X96595154Y-86265912D01*
X96591032Y-86278598D01*
X96555080Y-86328089D01*
X96550959Y-86331084D01*
X96492771Y-86350000D01*
X93514680Y-86350000D01*
X93484087Y-86345154D01*
X93471401Y-86341032D01*
X93421901Y-86305068D01*
X93421894Y-86305058D01*
X93418900Y-86300936D01*
X93400000Y-86242756D01*
X93400000Y-84360001D01*
X93400000Y-84360000D01*
X93900000Y-84360000D01*
X93900000Y-83820000D01*
X93400000Y-83820000D01*
X93400000Y-83264680D01*
X93404843Y-83234094D01*
X93408965Y-83221405D01*
X93444923Y-83171906D01*
X93445522Y-83171471D01*
X93449063Y-83168900D01*
X93507243Y-83150000D01*
X96485320Y-83150000D01*
X96515908Y-83154843D01*
G37*
%TD.AperFunction*%
%TD*%
%TA.AperFunction,Conductor*%
%TO.N,VBAT*%
G36*
X112309191Y-98398907D02*
G01*
X112345155Y-98448407D01*
X112350000Y-98479000D01*
X112350000Y-100201000D01*
X112331093Y-100259191D01*
X112281593Y-100295155D01*
X112251000Y-100300000D01*
X111719000Y-100300000D01*
X111660809Y-100281093D01*
X111624845Y-100231593D01*
X111620000Y-100201000D01*
X111620000Y-99700001D01*
X111620000Y-99700000D01*
X111619999Y-99700000D01*
X109849000Y-99700000D01*
X109790809Y-99681093D01*
X109754845Y-99631593D01*
X109750000Y-99601000D01*
X109750000Y-98479000D01*
X109768907Y-98420809D01*
X109818407Y-98384845D01*
X109849000Y-98380000D01*
X112251000Y-98380000D01*
X112309191Y-98398907D01*
G37*
%TD.AperFunction*%
%TD*%
%TA.AperFunction,Conductor*%
%TO.N,VBAT*%
G36*
X88339191Y-94718907D02*
G01*
X88375155Y-94768407D01*
X88380000Y-94799000D01*
X88380000Y-95300000D01*
X90151000Y-95300000D01*
X90209191Y-95318907D01*
X90245155Y-95368407D01*
X90250000Y-95399000D01*
X90250000Y-96521000D01*
X90231093Y-96579191D01*
X90181593Y-96615155D01*
X90151000Y-96620000D01*
X87749000Y-96620000D01*
X87690809Y-96601093D01*
X87654845Y-96551593D01*
X87650000Y-96521000D01*
X87650000Y-94799000D01*
X87668907Y-94740809D01*
X87718407Y-94704845D01*
X87749000Y-94700000D01*
X88281000Y-94700000D01*
X88339191Y-94718907D01*
G37*
%TD.AperFunction*%
%TD*%
%TA.AperFunction,Conductor*%
%TO.N,M2_A*%
G36*
X116139191Y-102198907D02*
G01*
X116175155Y-102248407D01*
X116180000Y-102279000D01*
X116180000Y-102748705D01*
X116176627Y-102774328D01*
X116175091Y-102780060D01*
X116175090Y-102780062D01*
X116149500Y-102875565D01*
X116149500Y-102974435D01*
X116175090Y-103069938D01*
X116175091Y-103069939D01*
X116176627Y-103075672D01*
X116180000Y-103101295D01*
X116180000Y-103900000D01*
X115640000Y-103900000D01*
X115640000Y-102279000D01*
X115658907Y-102220809D01*
X115708407Y-102184845D01*
X115739000Y-102180000D01*
X116081000Y-102180000D01*
X116139191Y-102198907D01*
G37*
%TD.AperFunction*%
%TD*%
%TA.AperFunction,Conductor*%
%TO.N,M1_C*%
G36*
X106515908Y-113654843D02*
G01*
X106528595Y-113658966D01*
X106578095Y-113694927D01*
X106578096Y-113694928D01*
X106581091Y-113699050D01*
X106600000Y-113757240D01*
X106600000Y-115640000D01*
X106100000Y-115640000D01*
X106100000Y-116180000D01*
X106600000Y-116180000D01*
X106600000Y-116180001D01*
X106600000Y-116735319D01*
X106595154Y-116765912D01*
X106591032Y-116778598D01*
X106555080Y-116828089D01*
X106550959Y-116831084D01*
X106492771Y-116850000D01*
X103514680Y-116850000D01*
X103484087Y-116845154D01*
X103471401Y-116841032D01*
X103421901Y-116805068D01*
X103421894Y-116805058D01*
X103418900Y-116800936D01*
X103400000Y-116742756D01*
X103400000Y-113764680D01*
X103404843Y-113734094D01*
X103408965Y-113721405D01*
X103444923Y-113671906D01*
X103445522Y-113671471D01*
X103449063Y-113668900D01*
X103507243Y-113650000D01*
X106485320Y-113650000D01*
X106515908Y-113654843D01*
G37*
%TD.AperFunction*%
%TD*%
%TA.AperFunction,Conductor*%
%TO.N,M3_A*%
G36*
X86309191Y-93418907D02*
G01*
X86345155Y-93468407D01*
X86350000Y-93499000D01*
X86350000Y-96501000D01*
X86331093Y-96559191D01*
X86281593Y-96595155D01*
X86251000Y-96600000D01*
X84360000Y-96600000D01*
X84360000Y-96100000D01*
X83820000Y-96100000D01*
X83820000Y-96600000D01*
X83249000Y-96600000D01*
X83190809Y-96581093D01*
X83154845Y-96531593D01*
X83150000Y-96501000D01*
X83150000Y-93499000D01*
X83168907Y-93440809D01*
X83218407Y-93404845D01*
X83249000Y-93400000D01*
X86251000Y-93400000D01*
X86309191Y-93418907D01*
G37*
%TD.AperFunction*%
%TD*%
M02*
