%TF.GenerationSoftware,KiCad,Pcbnew,10.0.6-10.0.6~ubuntu24.04.1*%
%TF.CreationDate,2026-10-02T23:36:00+00:00*%
%TF.ProjectId,ridge3-esc,72696467-6533-42d6-9573-632e6b696361,2.0*%
%TF.SameCoordinates,Original*%
%TF.FileFunction,Paste,Top*%
%TF.FilePolarity,Positive*%
%FSLAX46Y46*%
G04 Gerber Fmt 4.6, Leading zero omitted, Abs format (unit mm)*
G04 Created by KiCad (PCBNEW 10.0.6-10.0.6~ubuntu24.04.1) date 2026-10-02 23:36:00*
%MOMM*%
%LPD*%
G01*
G04 APERTURE LIST*
G04 Aperture macros list*
%AMRoundRect*
0 Rectangle with rounded corners*
0 $1 Rounding radius*
0 $2 $3 $4 $5 $6 $7 $8 $9 X,Y pos of 4 corners*
0 Add a 4 corners polygon primitive as box body*
4,1,4,$2,$3,$4,$5,$6,$7,$8,$9,$2,$3,0*
0 Add four circle primitives for the rounded corners*
1,1,$1+$1,$2,$3*
1,1,$1+$1,$4,$5*
1,1,$1+$1,$6,$7*
1,1,$1+$1,$8,$9*
0 Add four rect primitives between the rounded corners*
20,1,$1+$1,$2,$3,$4,$5,0*
20,1,$1+$1,$4,$5,$6,$7,0*
20,1,$1+$1,$6,$7,$8,$9,0*
20,1,$1+$1,$8,$9,$2,$3,0*%
G04 Aperture macros list end*
%ADD10RoundRect,0.140000X-0.140000X-0.170000X0.140000X-0.170000X0.140000X0.170000X-0.140000X0.170000X0*%
%ADD11R,0.240000X0.600000*%
%ADD12R,0.240000X1.400000*%
%ADD13R,0.240000X0.700000*%
%ADD14R,1.090000X1.400000*%
%ADD15RoundRect,0.079500X-0.079500X-0.100500X0.079500X-0.100500X0.079500X0.100500X-0.079500X0.100500X0*%
%ADD16RoundRect,0.135000X-0.185000X0.135000X-0.185000X-0.135000X0.185000X-0.135000X0.185000X0.135000X0*%
%ADD17RoundRect,0.079500X0.100500X-0.079500X0.100500X0.079500X-0.100500X0.079500X-0.100500X-0.079500X0*%
%ADD18RoundRect,0.079500X-0.100500X0.079500X-0.100500X-0.079500X0.100500X-0.079500X0.100500X0.079500X0*%
%ADD19RoundRect,0.135000X-0.135000X-0.185000X0.135000X-0.185000X0.135000X0.185000X-0.135000X0.185000X0*%
%ADD20RoundRect,0.140000X-0.170000X0.140000X-0.170000X-0.140000X0.170000X-0.140000X0.170000X0.140000X0*%
%ADD21RoundRect,0.135000X0.135000X0.185000X-0.135000X0.185000X-0.135000X-0.185000X0.135000X-0.185000X0*%
%ADD22RoundRect,0.140000X0.170000X-0.140000X0.170000X0.140000X-0.170000X0.140000X-0.170000X-0.140000X0*%
%ADD23RoundRect,0.140000X0.140000X0.170000X-0.140000X0.170000X-0.140000X-0.170000X0.140000X-0.170000X0*%
%ADD24R,0.600000X0.240000*%
%ADD25R,1.400000X0.240000*%
%ADD26R,0.700000X0.240000*%
%ADD27R,1.400000X1.090000*%
%ADD28RoundRect,0.079500X0.079500X0.100500X-0.079500X0.100500X-0.079500X-0.100500X0.079500X-0.100500X0*%
%ADD29R,0.850000X0.350000*%
%ADD30RoundRect,0.135000X0.185000X-0.135000X0.185000X0.135000X-0.185000X0.135000X-0.185000X-0.135000X0*%
%ADD31R,0.350000X0.850000*%
%ADD32RoundRect,0.225000X0.250000X-0.225000X0.250000X0.225000X-0.250000X0.225000X-0.250000X-0.225000X0*%
%ADD33RoundRect,0.225000X-0.225000X-0.250000X0.225000X-0.250000X0.225000X0.250000X-0.225000X0.250000X0*%
%ADD34RoundRect,0.200000X-0.200000X-0.275000X0.200000X-0.275000X0.200000X0.275000X-0.200000X0.275000X0*%
%ADD35RoundRect,0.225000X-0.250000X0.225000X-0.250000X-0.225000X0.250000X-0.225000X0.250000X0.225000X0*%
%ADD36RoundRect,0.225000X0.225000X0.250000X-0.225000X0.250000X-0.225000X-0.250000X0.225000X-0.250000X0*%
%ADD37RoundRect,0.250000X-0.325000X-1.100000X0.325000X-1.100000X0.325000X1.100000X-0.325000X1.100000X0*%
G04 APERTURE END LIST*
D10*
%TO.C,C4*%
X101925000Y-99505000D03*
X102885000Y-99505000D03*
%TD*%
D11*
%TO.C,Q4BH*%
X100975000Y-89250000D03*
D12*
X100975000Y-88050000D03*
D13*
X100975000Y-86200000D03*
D11*
X100325000Y-89250000D03*
D13*
X100325000Y-86200000D03*
D14*
X100000000Y-88050000D03*
D11*
X99675000Y-89250000D03*
D13*
X99675000Y-86200000D03*
D11*
X99025000Y-89250000D03*
D12*
X99025000Y-88050000D03*
D13*
X99025000Y-86200000D03*
%TD*%
D15*
%TO.C,FB1*%
X96255000Y-104250000D03*
X96945000Y-104250000D03*
%TD*%
D16*
%TO.C,R10*%
X102320000Y-108290000D03*
X102320000Y-109310000D03*
%TD*%
D17*
%TO.C,R53*%
X102700000Y-91195000D03*
X102700000Y-90505000D03*
%TD*%
D16*
%TO.C,R28*%
X108670000Y-100790000D03*
X108670000Y-101810000D03*
%TD*%
D18*
%TO.C,R38*%
X94600000Y-94255000D03*
X94600000Y-94945000D03*
%TD*%
D16*
%TO.C,RT3*%
X90550000Y-95090000D03*
X90550000Y-96110000D03*
%TD*%
D19*
%TO.C,R22*%
X108290000Y-97680000D03*
X109310000Y-97680000D03*
%TD*%
D20*
%TO.C,C55*%
X108150000Y-91170000D03*
X108150000Y-92130000D03*
%TD*%
D21*
%TO.C,RT4*%
X104910000Y-90550000D03*
X103890000Y-90550000D03*
%TD*%
D22*
%TO.C,C22*%
X106850000Y-107880000D03*
X106850000Y-106920000D03*
%TD*%
D20*
%TO.C,C45*%
X108000000Y-94270000D03*
X108000000Y-95230000D03*
%TD*%
D21*
%TO.C,R34*%
X91710000Y-102320000D03*
X90690000Y-102320000D03*
%TD*%
D17*
%TO.C,FB2*%
X104250000Y-103745000D03*
X104250000Y-103055000D03*
%TD*%
D16*
%TO.C,R49*%
X98950000Y-90570000D03*
X98950000Y-91590000D03*
%TD*%
D22*
%TO.C,C35*%
X92730000Y-102430000D03*
X92730000Y-101470000D03*
%TD*%
D23*
%TO.C,C46*%
X107880000Y-93150000D03*
X106920000Y-93150000D03*
%TD*%
%TO.C,C8*%
X96780000Y-106000000D03*
X95820000Y-106000000D03*
%TD*%
D24*
%TO.C,Q3CH*%
X89250000Y-94025000D03*
D25*
X88050000Y-94025000D03*
D26*
X86200000Y-94025000D03*
D24*
X89250000Y-94675000D03*
D26*
X86200000Y-94675000D03*
D27*
X88050000Y-95000000D03*
D24*
X89250000Y-95325000D03*
D26*
X86200000Y-95325000D03*
D24*
X89250000Y-95975000D03*
D25*
X88050000Y-95975000D03*
D26*
X86200000Y-95975000D03*
%TD*%
D15*
%TO.C,R48*%
X105855000Y-91100000D03*
X106545000Y-91100000D03*
%TD*%
D17*
%TO.C,R36*%
X91100000Y-94145000D03*
X91100000Y-93455000D03*
%TD*%
D11*
%TO.C,Q4CH*%
X105975000Y-89250000D03*
D12*
X105975000Y-88050000D03*
D13*
X105975000Y-86200000D03*
D11*
X105325000Y-89250000D03*
D13*
X105325000Y-86200000D03*
D14*
X105000000Y-88050000D03*
D11*
X104675000Y-89250000D03*
D13*
X104675000Y-86200000D03*
D11*
X104025000Y-89250000D03*
D12*
X104025000Y-88050000D03*
D13*
X104025000Y-86200000D03*
%TD*%
D15*
%TO.C,R14*%
X94255000Y-105400000D03*
X94945000Y-105400000D03*
%TD*%
D28*
%TO.C,R18*%
X95245000Y-107150000D03*
X94555000Y-107150000D03*
%TD*%
D18*
%TO.C,R17*%
X97300000Y-108805000D03*
X97300000Y-109495000D03*
%TD*%
D15*
%TO.C,R54*%
X104755000Y-92850000D03*
X105445000Y-92850000D03*
%TD*%
%TO.C,R11*%
X93505000Y-109700000D03*
X94195000Y-109700000D03*
%TD*%
D11*
%TO.C,Q1AH*%
X104025000Y-110750000D03*
D12*
X104025000Y-111950000D03*
D13*
X104025000Y-113800000D03*
D11*
X104675000Y-110750000D03*
D13*
X104675000Y-113800000D03*
D14*
X105000000Y-111950000D03*
D11*
X105325000Y-110750000D03*
D13*
X105325000Y-113800000D03*
D11*
X105975000Y-110750000D03*
D12*
X105975000Y-111950000D03*
D13*
X105975000Y-113800000D03*
%TD*%
D15*
%TO.C,R55*%
X106555000Y-91900000D03*
X107245000Y-91900000D03*
%TD*%
%TO.C,R51*%
X105355000Y-93750000D03*
X106045000Y-93750000D03*
%TD*%
D18*
%TO.C,R24*%
X108900000Y-105855000D03*
X108900000Y-106545000D03*
%TD*%
D28*
%TO.C,FB4*%
X103745000Y-95750000D03*
X103055000Y-95750000D03*
%TD*%
D23*
%TO.C,C13*%
X102980000Y-104450000D03*
X102020000Y-104450000D03*
%TD*%
D28*
%TO.C,R41*%
X91195000Y-97300000D03*
X90505000Y-97300000D03*
%TD*%
D24*
%TO.C,Q3BH*%
X89250000Y-99025000D03*
D25*
X88050000Y-99025000D03*
D26*
X86200000Y-99025000D03*
D24*
X89250000Y-99675000D03*
D26*
X86200000Y-99675000D03*
D27*
X88050000Y-100000000D03*
D24*
X89250000Y-100325000D03*
D26*
X86200000Y-100325000D03*
D24*
X89250000Y-100975000D03*
D25*
X88050000Y-100975000D03*
D26*
X86200000Y-100975000D03*
%TD*%
D29*
%TO.C,U_CS3*%
X87400000Y-91250000D03*
X87400000Y-91900000D03*
X87400000Y-92550000D03*
X89600000Y-92550000D03*
X89600000Y-91900000D03*
X89600000Y-91250000D03*
%TD*%
D18*
%TO.C,R4*%
X107400000Y-84655000D03*
X107400000Y-85345000D03*
%TD*%
D28*
%TO.C,R12*%
X94145000Y-108900000D03*
X93455000Y-108900000D03*
%TD*%
D10*
%TO.C,C10*%
X92120000Y-106850000D03*
X93080000Y-106850000D03*
%TD*%
D30*
%TO.C,R6*%
X103165000Y-101635000D03*
X103165000Y-100615000D03*
%TD*%
D20*
%TO.C,C25*%
X104450000Y-97020000D03*
X104450000Y-97980000D03*
%TD*%
D31*
%TO.C,U_CS4*%
X108750000Y-87400000D03*
X108100000Y-87400000D03*
X107450000Y-87400000D03*
X107450000Y-89600000D03*
X108100000Y-89600000D03*
X108750000Y-89600000D03*
%TD*%
D18*
%TO.C,R27*%
X106250000Y-105355000D03*
X106250000Y-106045000D03*
%TD*%
D29*
%TO.C,U_CS2*%
X112600000Y-108750000D03*
X112600000Y-108100000D03*
X112600000Y-107450000D03*
X110400000Y-107450000D03*
X110400000Y-108100000D03*
X110400000Y-108750000D03*
%TD*%
D21*
%TO.C,R25*%
X109430000Y-98950000D03*
X108410000Y-98950000D03*
%TD*%
D22*
%TO.C,C37*%
X95550000Y-102980000D03*
X95550000Y-102020000D03*
%TD*%
D18*
%TO.C,R44*%
X106850000Y-94055000D03*
X106850000Y-94745000D03*
%TD*%
%TO.C,R31*%
X108100000Y-106555000D03*
X108100000Y-107245000D03*
%TD*%
D32*
%TO.C,C24*%
X105950000Y-98925000D03*
X105950000Y-97375000D03*
%TD*%
D19*
%TO.C,R52*%
X100790000Y-91330000D03*
X101810000Y-91330000D03*
%TD*%
D28*
%TO.C,R50*%
X105745000Y-94600000D03*
X105055000Y-94600000D03*
%TD*%
D10*
%TO.C,C33*%
X94270000Y-92000000D03*
X95230000Y-92000000D03*
%TD*%
D17*
%TO.C,R42*%
X92850000Y-95245000D03*
X92850000Y-94555000D03*
%TD*%
D22*
%TO.C,C32*%
X94000000Y-96780000D03*
X94000000Y-95820000D03*
%TD*%
D10*
%TO.C,C44*%
X103220000Y-94000000D03*
X104180000Y-94000000D03*
%TD*%
D17*
%TO.C,R39*%
X93750000Y-94645000D03*
X93750000Y-93955000D03*
%TD*%
D15*
%TO.C,R29*%
X108805000Y-102700000D03*
X109495000Y-102700000D03*
%TD*%
D22*
%TO.C,C19*%
X91850000Y-108830000D03*
X91850000Y-107870000D03*
%TD*%
D24*
%TO.C,Q2AH*%
X110750000Y-95975000D03*
D25*
X111950000Y-95975000D03*
D26*
X113800000Y-95975000D03*
D24*
X110750000Y-95325000D03*
D26*
X113800000Y-95325000D03*
D27*
X111950000Y-95000000D03*
D24*
X110750000Y-94675000D03*
D26*
X113800000Y-94675000D03*
D24*
X110750000Y-94025000D03*
D25*
X111950000Y-94025000D03*
D26*
X113800000Y-94025000D03*
%TD*%
D15*
%TO.C,R32*%
X94055000Y-93150000D03*
X94745000Y-93150000D03*
%TD*%
D31*
%TO.C,U_CS1*%
X91250000Y-112600000D03*
X91900000Y-112600000D03*
X92550000Y-112600000D03*
X92550000Y-110400000D03*
X91900000Y-110400000D03*
X91250000Y-110400000D03*
%TD*%
D19*
%TO.C,R37*%
X90570000Y-101050000D03*
X91590000Y-101050000D03*
%TD*%
D28*
%TO.C,R20*%
X105945000Y-106850000D03*
X105255000Y-106850000D03*
%TD*%
D22*
%TO.C,C7*%
X103205000Y-98085000D03*
X103205000Y-97125000D03*
%TD*%
D15*
%TO.C,R9*%
X97955000Y-107350000D03*
X98645000Y-107350000D03*
%TD*%
D24*
%TO.C,Q2CH*%
X110750000Y-105975000D03*
D25*
X111950000Y-105975000D03*
D26*
X113800000Y-105975000D03*
D24*
X110750000Y-105325000D03*
D26*
X113800000Y-105325000D03*
D27*
X111950000Y-105000000D03*
D24*
X110750000Y-104675000D03*
D26*
X113800000Y-104675000D03*
D24*
X110750000Y-104025000D03*
D25*
X111950000Y-104025000D03*
D26*
X113800000Y-104025000D03*
%TD*%
D20*
%TO.C,C20*%
X106000000Y-103220000D03*
X106000000Y-104180000D03*
%TD*%
D18*
%TO.C,R33*%
X92650000Y-97955000D03*
X92650000Y-98645000D03*
%TD*%
D11*
%TO.C,Q1CH*%
X94025000Y-110750000D03*
D12*
X94025000Y-111950000D03*
D13*
X94025000Y-113800000D03*
D11*
X94675000Y-110750000D03*
D13*
X94675000Y-113800000D03*
D14*
X95000000Y-111950000D03*
D11*
X95325000Y-110750000D03*
D13*
X95325000Y-113800000D03*
D11*
X95975000Y-110750000D03*
D12*
X95975000Y-111950000D03*
D13*
X95975000Y-113800000D03*
%TD*%
D30*
%TO.C,R13*%
X101050000Y-109430000D03*
X101050000Y-108410000D03*
%TD*%
D15*
%TO.C,R3*%
X84655000Y-92600000D03*
X85345000Y-92600000D03*
%TD*%
D33*
%TO.C,C12*%
X101075000Y-105950000D03*
X102625000Y-105950000D03*
%TD*%
D23*
%TO.C,C30*%
X110680000Y-109700000D03*
X109720000Y-109700000D03*
%TD*%
D11*
%TO.C,Q1BH*%
X99025000Y-110750000D03*
D12*
X99025000Y-111950000D03*
D13*
X99025000Y-113800000D03*
D11*
X99675000Y-110750000D03*
D13*
X99675000Y-113800000D03*
D14*
X100000000Y-111950000D03*
D11*
X100325000Y-110750000D03*
D13*
X100325000Y-113800000D03*
D11*
X100975000Y-110750000D03*
D12*
X100975000Y-111950000D03*
D13*
X100975000Y-113800000D03*
%TD*%
D22*
%TO.C,C26*%
X104700000Y-101830000D03*
X104700000Y-100870000D03*
%TD*%
D34*
%TO.C,R5*%
X96950000Y-99575000D03*
X98600000Y-99575000D03*
%TD*%
D23*
%TO.C,C11*%
X102430000Y-107270000D03*
X101470000Y-107270000D03*
%TD*%
D18*
%TO.C,FB3*%
X95750000Y-96255000D03*
X95750000Y-96945000D03*
%TD*%
D17*
%TO.C,R23*%
X109700000Y-106495000D03*
X109700000Y-105805000D03*
%TD*%
D22*
%TO.C,C6*%
X96855000Y-98085000D03*
X96855000Y-97125000D03*
%TD*%
D20*
%TO.C,C54*%
X109700000Y-89320000D03*
X109700000Y-90280000D03*
%TD*%
D28*
%TO.C,R45*%
X102045000Y-92650000D03*
X101355000Y-92650000D03*
%TD*%
D35*
%TO.C,C36*%
X94050000Y-101075000D03*
X94050000Y-102625000D03*
%TD*%
D10*
%TO.C,C14*%
X98170000Y-104700000D03*
X99130000Y-104700000D03*
%TD*%
D17*
%TO.C,R8*%
X93150000Y-105945000D03*
X93150000Y-105255000D03*
%TD*%
D20*
%TO.C,C34*%
X93150000Y-92120000D03*
X93150000Y-93080000D03*
%TD*%
D30*
%TO.C,RT2*%
X109450000Y-104910000D03*
X109450000Y-103890000D03*
%TD*%
D21*
%TO.C,R16*%
X99210000Y-108670000D03*
X98190000Y-108670000D03*
%TD*%
D28*
%TO.C,R19*%
X93445000Y-108100000D03*
X92755000Y-108100000D03*
%TD*%
D30*
%TO.C,R46*%
X97680000Y-91710000D03*
X97680000Y-90690000D03*
%TD*%
D23*
%TO.C,C50*%
X101830000Y-95300000D03*
X100870000Y-95300000D03*
%TD*%
D17*
%TO.C,R21*%
X107350000Y-102045000D03*
X107350000Y-101355000D03*
%TD*%
D36*
%TO.C,C48*%
X98925000Y-94050000D03*
X97375000Y-94050000D03*
%TD*%
D24*
%TO.C,Q2BH*%
X110750000Y-100975000D03*
D25*
X111950000Y-100975000D03*
D26*
X113800000Y-100975000D03*
D24*
X110750000Y-100325000D03*
D26*
X113800000Y-100325000D03*
D27*
X111950000Y-100000000D03*
D24*
X110750000Y-99675000D03*
D26*
X113800000Y-99675000D03*
D24*
X110750000Y-99025000D03*
D25*
X111950000Y-99025000D03*
D26*
X113800000Y-99025000D03*
%TD*%
D23*
%TO.C,C31*%
X108830000Y-108150000D03*
X107870000Y-108150000D03*
%TD*%
D18*
%TO.C,R35*%
X90300000Y-93505000D03*
X90300000Y-94195000D03*
%TD*%
%TO.C,R30*%
X107150000Y-104755000D03*
X107150000Y-105445000D03*
%TD*%
D28*
%TO.C,R15*%
X94645000Y-106250000D03*
X93955000Y-106250000D03*
%TD*%
D23*
%TO.C,C21*%
X105730000Y-108000000D03*
X104770000Y-108000000D03*
%TD*%
D11*
%TO.C,Q4AH*%
X95975000Y-89250000D03*
D12*
X95975000Y-88050000D03*
D13*
X95975000Y-86200000D03*
D11*
X95325000Y-89250000D03*
D13*
X95325000Y-86200000D03*
D14*
X95000000Y-88050000D03*
D11*
X94675000Y-89250000D03*
D13*
X94675000Y-86200000D03*
D11*
X94025000Y-89250000D03*
D12*
X94025000Y-88050000D03*
D13*
X94025000Y-86200000D03*
%TD*%
D17*
%TO.C,R26*%
X105400000Y-105745000D03*
X105400000Y-105055000D03*
%TD*%
%TO.C,R1*%
X92600000Y-115345000D03*
X92600000Y-114655000D03*
%TD*%
D28*
%TO.C,R47*%
X106495000Y-90300000D03*
X105805000Y-90300000D03*
%TD*%
D37*
%TO.C,C1*%
X98520000Y-102095000D03*
X101470000Y-102095000D03*
%TD*%
D20*
%TO.C,C38*%
X95300000Y-98170000D03*
X95300000Y-99130000D03*
%TD*%
D24*
%TO.C,Q3AH*%
X89250000Y-104025000D03*
D25*
X88050000Y-104025000D03*
D26*
X86200000Y-104025000D03*
D24*
X89250000Y-104675000D03*
D26*
X86200000Y-104675000D03*
D27*
X88050000Y-105000000D03*
D24*
X89250000Y-105325000D03*
D26*
X86200000Y-105325000D03*
D24*
X89250000Y-105975000D03*
D25*
X88050000Y-105975000D03*
D26*
X86200000Y-105975000D03*
%TD*%
D17*
%TO.C,R7*%
X103145000Y-103290000D03*
X103145000Y-102600000D03*
%TD*%
D28*
%TO.C,R2*%
X115345000Y-107400000D03*
X114655000Y-107400000D03*
%TD*%
D22*
%TO.C,C18*%
X90300000Y-110680000D03*
X90300000Y-109720000D03*
%TD*%
%TO.C,C9*%
X92000000Y-105730000D03*
X92000000Y-104770000D03*
%TD*%
D10*
%TO.C,C43*%
X91170000Y-91850000D03*
X92130000Y-91850000D03*
%TD*%
%TO.C,C49*%
X97020000Y-95550000D03*
X97980000Y-95550000D03*
%TD*%
D30*
%TO.C,R40*%
X91330000Y-99210000D03*
X91330000Y-98190000D03*
%TD*%
D10*
%TO.C,C42*%
X89320000Y-90300000D03*
X90280000Y-90300000D03*
%TD*%
D17*
%TO.C,R43*%
X91900000Y-93445000D03*
X91900000Y-92755000D03*
%TD*%
D19*
%TO.C,RT1*%
X95090000Y-109450000D03*
X96110000Y-109450000D03*
%TD*%
D20*
%TO.C,C23*%
X107270000Y-97570000D03*
X107270000Y-98530000D03*
%TD*%
D10*
%TO.C,C47*%
X97570000Y-92730000D03*
X98530000Y-92730000D03*
%TD*%
M02*
