M48
; DRILL file KiCad 10.0.6-10.0.6~ubuntu24.04.1 date 2026-09-29T00:38:51
; FORMAT={-:-/ absolute / metric / decimal}
; #@! TF.CreationDate,2026-09-29T00:38:51+00:00
; #@! TF.GenerationSoftware,Kicad,Pcbnew,10.0.6-10.0.6~ubuntu24.04.1
; #@! TF.FileFunction,Plated,1,6,PTH
FMAT,2
METRIC
; #@! TA.AperFunction,Plated,PTH,ViaDrill
T1C0.150
; #@! TA.AperFunction,Plated,PTH,ViaDrill
T2C0.250
; #@! TA.AperFunction,Plated,PTH,ViaDrill
T3C0.300
; #@! TA.AperFunction,Plated,PTH,ComponentDrill
T4C1.600
%
G90
G05
T1
X82.698Y-103.02
X82.985Y-98.093
X83.278Y-102.093
X83.475Y-97.075
X85.175Y-97.5
X85.175Y-102.5
X85.175Y-107.36
X85.93Y-97.5
X85.93Y-102.5
X85.93Y-107.5
X85.966Y-98.066
X86.257Y-108.253
X90.415Y-107.175
X90.415Y-108.825
X90.45Y-94.22
X90.555Y-106.317
X90.725Y-101.38
X90.725Y-101.88
X90.725Y-102.38
X90.725Y-103.38
X90.787Y-103.88
X90.788Y-100.88
X90.8Y-104.832
X90.805Y-96.06
X90.805Y-96.56
X90.805Y-97.06
X90.805Y-97.56
X90.805Y-98.06
X90.805Y-98.56
X90.819Y-105.523
X90.99Y-93.225
X91.175Y-90.415
X91.55Y-95.315
X91.55Y-99.305
X91.55Y-101.92
X91.747Y-86.257
X91.75Y-94.22
X91.8Y-100.305
X91.89Y-93.225
X91.993Y-101.452
X92.05Y-95.315
X92.05Y-99.305
X92.3Y-100.305
X92.325Y-103.925
X92.5Y-85.93
X92.55Y-99.305
X92.64Y-85.175
X92.79Y-93.225
X92.825Y-90.415
X93.05Y-95.315
X93.05Y-99.305
X93.225Y-107.21
X93.225Y-108.11
X93.225Y-109.01
X93.55Y-95.315
X93.665Y-106.31
X93.683Y-90.555
X93.69Y-93.665
X93.8Y-100.305
X93.8Y-104.455
X94.025Y-101.375
X94.05Y-95.315
X94.22Y-108.25
X94.22Y-109.55
X94.477Y-90.819
X94.525Y-99.125
X94.795Y-96.06
X94.795Y-96.56
X94.795Y-97.06
X94.795Y-97.56
X94.795Y-104.91
X94.875Y-101.88
X95.09Y-94.795
X95.168Y-90.8
X95.315Y-105.95
X95.315Y-106.45
X95.315Y-106.95
X95.315Y-107.95
X95.315Y-108.45
X95.425Y-103.25
X95.545Y-93.8
X96.06Y-105.205
X96.06Y-109.195
X96.12Y-90.787
X96.504Y-93.344
X96.56Y-105.205
X96.56Y-109.195
X96.62Y-90.725
X96.625Y-104.35
X96.75Y-95.425
X96.75Y-100.325
X96.98Y-82.698
X97.06Y-105.205
X97.06Y-109.195
X97.075Y-116.525
X97.5Y-85.175
X97.5Y-85.93
X97.5Y-114.07
X97.5Y-114.825
X97.56Y-105.205
X97.56Y-109.195
X97.62Y-90.725
X97.775Y-92.45
X97.907Y-83.278
X98.06Y-109.195
X98.066Y-114.034
X98.08Y-91.55
X98.093Y-117.015
X98.12Y-90.725
X98.12Y-94.875
X98.2Y-102.675
X98.548Y-91.993
X98.56Y-109.195
X98.62Y-90.725
X98.95Y-96.925
X98.988Y-105.483
X99.12Y-90.788
X99.305Y-106.95
X99.305Y-107.45
X99.305Y-107.95
X99.305Y-108.45
X99.425Y-96.025
X99.45Y-104.775
X99.6Y-95.025
X99.6Y-104.35
X99.695Y-91.8
X99.695Y-92.3
X99.695Y-93.8
X99.75Y-99.4
X99.833Y-100.592
X100.025Y-98.25
X100.123Y-100.222
X100.305Y-106.2
X100.305Y-107.7
X100.305Y-108.2
X100.45Y-100.975
X100.695Y-91.55
X100.695Y-92.05
X100.695Y-92.55
X100.695Y-93.05
X100.88Y-109.212
X101.05Y-95.2
X101.225Y-104.45
X101.38Y-109.275
X101.44Y-90.805
X101.452Y-108.007
X101.85Y-95.475
X101.88Y-105.125
X101.88Y-109.275
X101.907Y-82.985
X101.92Y-108.45
X101.934Y-85.966
X101.94Y-90.805
X102.093Y-116.722
X102.2Y-102.65
X102.225Y-107.55
X102.38Y-109.275
X102.44Y-90.805
X102.44Y-94.795
X102.5Y-85.175
X102.5Y-85.93
X102.5Y-114.07
X102.5Y-114.825
X102.875Y-99.15
X102.925Y-83.475
X102.94Y-90.805
X102.94Y-94.795
X103.02Y-117.302
X103.25Y-104.575
X103.38Y-109.275
X103.44Y-90.805
X103.44Y-94.795
X103.45Y-103.05
X103.675Y-95.475
X103.88Y-109.213
X103.94Y-90.805
X103.94Y-94.795
X104.1Y-103.9
X104.455Y-106.2
X104.575Y-96.75
X104.685Y-91.55
X104.685Y-92.05
X104.685Y-93.05
X104.685Y-93.55
X104.685Y-94.05
X104.832Y-109.2
X104.91Y-105.205
X105.125Y-98.12
X105.205Y-95.09
X105.205Y-102.44
X105.205Y-102.94
X105.205Y-103.44
X105.205Y-103.94
X105.523Y-109.181
X105.78Y-90.45
X105.78Y-91.75
X105.95Y-104.685
X106.2Y-95.545
X106.2Y-99.695
X106.31Y-106.335
X106.317Y-109.445
X106.335Y-93.69
X106.45Y-104.685
X106.453Y-97.92
X106.775Y-90.99
X106.775Y-91.89
X106.775Y-92.79
X106.95Y-100.695
X106.95Y-104.685
X107.175Y-109.585
X107.21Y-106.775
X107.36Y-114.825
X107.45Y-100.695
X107.5Y-114.07
X107.55Y-97.775
X107.7Y-99.695
X107.95Y-100.695
X107.95Y-104.685
X108.007Y-98.548
X108.11Y-106.775
X108.2Y-99.695
X108.25Y-105.78
X108.253Y-113.743
X108.45Y-98.08
X108.45Y-100.695
X108.45Y-104.685
X108.825Y-109.585
X109.01Y-106.775
X109.181Y-94.477
X109.195Y-101.44
X109.195Y-101.94
X109.195Y-102.44
X109.195Y-102.94
X109.195Y-103.44
X109.195Y-103.94
X109.2Y-95.168
X109.212Y-99.12
X109.213Y-96.12
X109.275Y-96.62
X109.275Y-97.62
X109.275Y-98.12
X109.275Y-98.62
X109.445Y-93.683
X109.55Y-105.78
X109.585Y-91.175
X109.585Y-92.825
X113.743Y-91.747
X114.034Y-101.934
X114.07Y-92.5
X114.07Y-97.5
X114.07Y-102.5
X114.825Y-92.64
X114.825Y-97.5
X114.825Y-102.5
X115.22Y-110.08
X116.525Y-102.925
X116.6Y-109.275
X116.722Y-97.907
X117.015Y-101.907
X117.302Y-96.98
T2
X89.215Y-92.48
X90.492Y-94.828
X91.635Y-102.88
X91.75Y-91.8
X91.8Y-108.25
X92.05Y-96.56
X92.05Y-98.06
X92.48Y-110.785
X93.55Y-96.56
X93.55Y-98.06
X93.833Y-94.707
X94.707Y-106.167
X94.828Y-109.509
X95.11Y-99.052
X95.401Y-102.56
X96.343Y-99.845
X96.5Y-103.06
X96.56Y-106.45
X96.56Y-107.95
X96.78Y-97.55
X96.78Y-98.75
X96.78Y-101.85
X97.12Y-91.635
X97.165Y-102.74
X97.44Y-95.401
X97.545Y-97.625
X97.55Y-103.22
X97.745Y-96.475
X98.06Y-106.45
X98.06Y-107.95
X98.15Y-96.78
X98.165Y-104.615
X98.752Y-97.831
X99.558Y-97.77
X100.265Y-104.81
X100.285Y-95.655
X100.297Y-101.837
X101.25Y-96.78
X101.94Y-92.05
X101.94Y-93.55
X102.145Y-97.45
X102.45Y-96.78
X102.56Y-105.941
X102.757Y-97.687
X102.829Y-104.199
X102.88Y-108.365
X102.892Y-101.883
X103.22Y-101.25
X103.44Y-92.05
X103.44Y-93.55
X103.595Y-97.025
X103.595Y-106.575
X104.599Y-97.44
X105.171Y-90.492
X105.292Y-93.833
X106.167Y-105.292
X106.45Y-101.94
X106.45Y-103.44
X106.525Y-96.495
X107.52Y-89.215
X107.909Y-116.5
X107.95Y-101.94
X107.95Y-103.44
X108.2Y-91.75
X108.25Y-108.2
X108.365Y-97.12
X109.509Y-105.171
X110.785Y-107.52
X116.15Y-110.022
T3
X84.1Y-94.2
X84.1Y-95.0
X84.1Y-95.8
X84.1Y-99.2
X84.1Y-100.0
X84.1Y-100.8
X84.1Y-104.2
X84.1Y-105.0
X84.1Y-105.8
X84.9Y-94.2
X84.9Y-95.0
X84.9Y-95.8
X84.9Y-99.2
X84.9Y-100.0
X84.9Y-100.8
X84.9Y-104.2
X84.9Y-105.0
X84.9Y-105.8
X85.7Y-94.2
X85.7Y-95.0
X85.7Y-99.2
X85.7Y-100.0
X85.7Y-104.2
X85.7Y-105.0
X88.0Y-95.1
X88.0Y-95.95
X88.0Y-100.1
X88.0Y-100.95
X88.0Y-105.1
X88.0Y-105.95
X88.15Y-92.5
X88.15Y-97.5
X88.15Y-102.5
X88.15Y-107.5
X88.9Y-95.95
X88.9Y-100.95
X88.9Y-105.95
X88.95Y-108.3
X88.95Y-109.1
X89.7Y-95.95
X89.7Y-100.95
X89.7Y-105.95
X89.75Y-108.3
X89.75Y-109.1
X89.75Y-109.9
X90.1Y-89.75
X90.9Y-88.95
X90.9Y-89.75
X91.6Y-106.05
X91.6Y-106.85
X91.7Y-88.95
X91.7Y-89.75
X92.4Y-106.05
X92.5Y-88.15
X92.5Y-111.85
X93.15Y-91.6
X93.95Y-91.6
X93.95Y-92.4
X94.05Y-88.0
X94.05Y-88.9
X94.05Y-89.7
X94.2Y-84.1
X94.2Y-84.9
X94.2Y-114.3
X94.2Y-115.1
X94.2Y-115.9
X94.9Y-88.0
X95.0Y-84.1
X95.0Y-84.9
X95.0Y-85.7
X95.0Y-114.3
X95.0Y-115.1
X95.0Y-115.9
X95.1Y-112.0
X95.8Y-84.1
X95.8Y-84.9
X95.8Y-85.7
X95.8Y-115.1
X95.8Y-115.9
X95.95Y-110.3
X95.95Y-111.1
X95.95Y-112.0
X97.5Y-88.15
X97.5Y-111.85
X99.05Y-88.0
X99.05Y-88.9
X99.05Y-89.7
X99.2Y-84.1
X99.2Y-84.9
X99.2Y-114.3
X99.2Y-115.1
X99.2Y-115.9
X99.9Y-88.0
X100.0Y-84.1
X100.0Y-84.9
X100.0Y-85.7
X100.0Y-114.3
X100.0Y-115.1
X100.0Y-115.9
X100.1Y-112.0
X100.8Y-84.1
X100.8Y-84.9
X100.8Y-85.7
X100.8Y-115.1
X100.8Y-115.9
X100.95Y-110.3
X100.95Y-111.1
X100.95Y-112.0
X102.5Y-88.15
X102.5Y-111.85
X104.05Y-88.0
X104.05Y-88.9
X104.05Y-89.7
X104.2Y-84.1
X104.2Y-84.9
X104.2Y-114.3
X104.2Y-115.1
X104.2Y-115.9
X104.9Y-88.0
X105.0Y-84.1
X105.0Y-84.9
X105.0Y-85.7
X105.0Y-114.3
X105.0Y-115.1
X105.0Y-115.9
X105.1Y-112.0
X105.8Y-84.1
X105.8Y-84.9
X105.8Y-85.7
X105.8Y-115.1
X105.8Y-115.9
X105.95Y-110.3
X105.95Y-111.1
X105.95Y-112.0
X106.05Y-107.6
X106.05Y-108.4
X106.85Y-108.4
X107.5Y-88.15
X107.5Y-111.85
X107.6Y-93.95
X108.3Y-110.25
X108.3Y-111.05
X108.4Y-93.15
X108.4Y-93.95
X109.1Y-110.25
X109.1Y-111.05
X109.9Y-110.25
X110.25Y-90.1
X110.25Y-90.9
X110.25Y-91.7
X110.3Y-94.05
X110.3Y-99.05
X110.3Y-104.05
X111.05Y-90.9
X111.05Y-91.7
X111.1Y-94.05
X111.1Y-99.05
X111.1Y-104.05
X111.85Y-92.5
X111.85Y-97.5
X111.85Y-102.5
X111.85Y-107.5
X112.0Y-94.05
X112.0Y-94.9
X112.0Y-99.05
X112.0Y-99.9
X112.0Y-104.05
X112.0Y-104.9
X114.3Y-95.0
X114.3Y-95.8
X114.3Y-100.0
X114.3Y-100.8
X114.3Y-105.0
X114.3Y-105.8
X115.1Y-94.2
X115.1Y-95.0
X115.1Y-95.8
X115.1Y-99.2
X115.1Y-100.0
X115.1Y-100.8
X115.1Y-104.2
X115.1Y-105.0
X115.1Y-105.8
X115.9Y-94.2
X115.9Y-95.0
X115.9Y-95.8
X115.9Y-99.2
X115.9Y-100.0
X115.9Y-100.8
X115.9Y-104.2
X115.9Y-105.0
X115.9Y-105.8
T4
X90.5Y-116.1
X109.5Y-116.1
M30
