%TF.GenerationSoftware,KiCad,Pcbnew,10.0.6-10.0.6~ubuntu24.04.1*%
%TF.CreationDate,2026-10-02T08:50:24+00:00*%
%TF.ProjectId,ridge3-esc,72696467-6533-42d6-9573-632e6b696361,2.0*%
%TF.SameCoordinates,Original*%
%TF.FileFunction,Copper,L1,Top*%
%TF.FilePolarity,Positive*%
%FSLAX46Y46*%
G04 Gerber Fmt 4.6, Leading zero omitted, Abs format (unit mm)*
G04 Created by KiCad (PCBNEW 10.0.6-10.0.6~ubuntu24.04.1) date 2026-10-02 08:50:24*
%MOMM*%
%LPD*%
G01*
G04 APERTURE LIST*
G04 Aperture macros list*
%AMRoundRect*
0 Rectangle with rounded corners*
0 $1 Rounding radius*
0 $2 $3 $4 $5 $6 $7 $8 $9 X,Y pos of 4 corners*
0 Add a 4 corners polygon primitive as box body*
4,1,4,$2,$3,$4,$5,$6,$7,$8,$9,$2,$3,0*
0 Add four circle primitives for the rounded corners*
1,1,$1+$1,$2,$3*
1,1,$1+$1,$4,$5*
1,1,$1+$1,$6,$7*
1,1,$1+$1,$8,$9*
0 Add four rect primitives between the rounded corners*
20,1,$1+$1,$2,$3,$4,$5,0*
20,1,$1+$1,$4,$5,$6,$7,0*
20,1,$1+$1,$6,$7,$8,$9,0*
20,1,$1+$1,$8,$9,$2,$3,0*%
G04 Aperture macros list end*
%TA.AperFunction,SMDPad,CuDef*%
%ADD10RoundRect,0.140000X0.170000X-0.140000X0.170000X0.140000X-0.170000X0.140000X-0.170000X-0.140000X0*%
%TD*%
%TA.AperFunction,SMDPad,CuDef*%
%ADD11RoundRect,0.100000X0.130000X0.100000X-0.130000X0.100000X-0.130000X-0.100000X0.130000X-0.100000X0*%
%TD*%
%TA.AperFunction,SMDPad,CuDef*%
%ADD12RoundRect,0.135000X0.185000X-0.135000X0.185000X0.135000X-0.185000X0.135000X-0.185000X-0.135000X0*%
%TD*%
%TA.AperFunction,SMDPad,CuDef*%
%ADD13RoundRect,0.100000X0.100000X-0.130000X0.100000X0.130000X-0.100000X0.130000X-0.100000X-0.130000X0*%
%TD*%
%TA.AperFunction,SMDPad,CuDef*%
%ADD14RoundRect,0.140000X-0.170000X0.140000X-0.170000X-0.140000X0.170000X-0.140000X0.170000X0.140000X0*%
%TD*%
%TA.AperFunction,SMDPad,CuDef*%
%ADD15R,0.900000X0.340000*%
%TD*%
%TA.AperFunction,SMDPad,CuDef*%
%ADD16R,0.650000X0.340000*%
%TD*%
%TA.AperFunction,SMDPad,CuDef*%
%ADD17R,1.710000X2.290000*%
%TD*%
%TA.AperFunction,SMDPad,CuDef*%
%ADD18RoundRect,0.135000X-0.185000X0.135000X-0.185000X-0.135000X0.185000X-0.135000X0.185000X0.135000X0*%
%TD*%
%TA.AperFunction,SMDPad,CuDef*%
%ADD19C,0.900000*%
%TD*%
%TA.AperFunction,SMDPad,CuDef*%
%ADD20RoundRect,0.400000X-0.750000X0.600000X-0.750000X-0.600000X0.750000X-0.600000X0.750000X0.600000X0*%
%TD*%
%TA.AperFunction,ComponentPad*%
%ADD21C,3.000000*%
%TD*%
%TA.AperFunction,SMDPad,CuDef*%
%ADD22R,0.500000X0.600000*%
%TD*%
%TA.AperFunction,SMDPad,CuDef*%
%ADD23RoundRect,0.140000X0.140000X0.170000X-0.140000X0.170000X-0.140000X-0.170000X0.140000X-0.170000X0*%
%TD*%
%TA.AperFunction,SMDPad,CuDef*%
%ADD24C,0.800000*%
%TD*%
%TA.AperFunction,SMDPad,CuDef*%
%ADD25RoundRect,0.225000X-0.225000X-0.250000X0.225000X-0.250000X0.225000X0.250000X-0.225000X0.250000X0*%
%TD*%
%TA.AperFunction,SMDPad,CuDef*%
%ADD26RoundRect,0.100000X-0.130000X-0.100000X0.130000X-0.100000X0.130000X0.100000X-0.130000X0.100000X0*%
%TD*%
%TA.AperFunction,SMDPad,CuDef*%
%ADD27R,0.850000X0.350000*%
%TD*%
%TA.AperFunction,SMDPad,CuDef*%
%ADD28RoundRect,0.400000X0.600000X0.750000X-0.600000X0.750000X-0.600000X-0.750000X0.600000X-0.750000X0*%
%TD*%
%TA.AperFunction,SMDPad,CuDef*%
%ADD29R,0.350000X0.850000*%
%TD*%
%TA.AperFunction,SMDPad,CuDef*%
%ADD30RoundRect,0.135000X-0.135000X-0.185000X0.135000X-0.185000X0.135000X0.185000X-0.135000X0.185000X0*%
%TD*%
%TA.AperFunction,SMDPad,CuDef*%
%ADD31RoundRect,0.200000X-0.200000X-0.275000X0.200000X-0.275000X0.200000X0.275000X-0.200000X0.275000X0*%
%TD*%
%TA.AperFunction,SMDPad,CuDef*%
%ADD32RoundRect,0.400000X-0.600000X-0.750000X0.600000X-0.750000X0.600000X0.750000X-0.600000X0.750000X0*%
%TD*%
%TA.AperFunction,SMDPad,CuDef*%
%ADD33RoundRect,0.400000X0.750000X-0.600000X0.750000X0.600000X-0.750000X0.600000X-0.750000X-0.600000X0*%
%TD*%
%TA.AperFunction,SMDPad,CuDef*%
%ADD34RoundRect,0.100000X-0.100000X0.130000X-0.100000X-0.130000X0.100000X-0.130000X0.100000X0.130000X0*%
%TD*%
%TA.AperFunction,SMDPad,CuDef*%
%ADD35R,0.340000X0.900000*%
%TD*%
%TA.AperFunction,SMDPad,CuDef*%
%ADD36R,0.340000X0.650000*%
%TD*%
%TA.AperFunction,SMDPad,CuDef*%
%ADD37R,2.290000X1.710000*%
%TD*%
%TA.AperFunction,SMDPad,CuDef*%
%ADD38RoundRect,0.140000X-0.140000X-0.170000X0.140000X-0.170000X0.140000X0.170000X-0.140000X0.170000X0*%
%TD*%
%TA.AperFunction,SMDPad,CuDef*%
%ADD39RoundRect,0.135000X0.135000X0.185000X-0.135000X0.185000X-0.135000X-0.185000X0.135000X-0.185000X0*%
%TD*%
%TA.AperFunction,SMDPad,CuDef*%
%ADD40RoundRect,0.225000X-0.250000X0.225000X-0.250000X-0.225000X0.250000X-0.225000X0.250000X0.225000X0*%
%TD*%
%TA.AperFunction,SMDPad,CuDef*%
%ADD41RoundRect,0.225000X0.250000X-0.225000X0.250000X0.225000X-0.250000X0.225000X-0.250000X-0.225000X0*%
%TD*%
%TA.AperFunction,SMDPad,CuDef*%
%ADD42RoundRect,0.225000X0.225000X0.250000X-0.225000X0.250000X-0.225000X-0.250000X0.225000X-0.250000X0*%
%TD*%
%TA.AperFunction,SMDPad,CuDef*%
%ADD43RoundRect,0.250000X-0.325000X-1.100000X0.325000X-1.100000X0.325000X1.100000X-0.325000X1.100000X0*%
%TD*%
%TA.AperFunction,ViaPad*%
%ADD44C,0.350000*%
%TD*%
%TA.AperFunction,ViaPad*%
%ADD45C,0.450000*%
%TD*%
%TA.AperFunction,ViaPad*%
%ADD46C,0.500000*%
%TD*%
%TA.AperFunction,ViaPad*%
%ADD47C,0.250000*%
%TD*%
%TA.AperFunction,Conductor*%
%ADD48C,0.100000*%
%TD*%
%TA.AperFunction,Conductor*%
%ADD49C,0.250000*%
%TD*%
%TA.AperFunction,Conductor*%
%ADD50C,0.150000*%
%TD*%
%TA.AperFunction,Conductor*%
%ADD51C,0.200000*%
%TD*%
%TA.AperFunction,Conductor*%
%ADD52C,0.120000*%
%TD*%
%TA.AperFunction,Conductor*%
%ADD53C,0.400000*%
%TD*%
G04 APERTURE END LIST*
D10*
%TO.P,C5,1*%
%TO.N,DRV_EN*%
X96855000Y-98085000D03*
%TO.P,C5,2*%
%TO.N,GND*%
X96855000Y-97125000D03*
%TD*%
D11*
%TO.P,R20,1*%
%TO.N,M2_DVDD*%
X105920000Y-106850000D03*
%TO.P,R20,2*%
%TO.N,M2_NTC*%
X105280000Y-106850000D03*
%TD*%
D12*
%TO.P,RT2,1*%
%TO.N,M2_NTC*%
X109450000Y-104910000D03*
%TO.P,RT2,2*%
%TO.N,GND*%
X109450000Y-103890000D03*
%TD*%
D10*
%TO.P,C18,1*%
%TO.N,M1_ISENSE*%
X91850000Y-108830000D03*
%TO.P,C18,2*%
%TO.N,GND*%
X91850000Y-107870000D03*
%TD*%
%TO.P,C34,1*%
%TO.N,VBAT*%
X92730000Y-102430000D03*
%TO.P,C34,2*%
%TO.N,GND*%
X92730000Y-101470000D03*
%TD*%
D13*
%TO.P,R53,1*%
%TO.N,M4_CMP_C*%
X102700000Y-91170000D03*
%TO.P,R53,2*%
%TO.N,GND*%
X102700000Y-90530000D03*
%TD*%
D14*
%TO.P,C24,1*%
%TO.N,M2_CPH*%
X104450000Y-97020000D03*
%TO.P,C24,2*%
%TO.N,M2_CPL*%
X104450000Y-97980000D03*
%TD*%
D15*
%TO.P,Q2AH,1*%
%TO.N,M2_A*%
X113750000Y-95975000D03*
%TO.P,Q2AH,2*%
X113750000Y-95325000D03*
%TO.P,Q2AH,3*%
X113750000Y-94675000D03*
%TO.P,Q2AH,4*%
%TO.N,M2_GHA*%
X113750000Y-94025000D03*
D16*
%TO.P,Q2AH,5*%
%TO.N,VBAT*%
X110725000Y-94025000D03*
%TO.P,Q2AH,6*%
X110725000Y-94675000D03*
%TO.P,Q2AH,7*%
X110725000Y-95325000D03*
%TO.P,Q2AH,8*%
X110725000Y-95975000D03*
D17*
%TO.P,Q2AH,9*%
X111905000Y-95000000D03*
%TD*%
D15*
%TO.P,Q2CH,1*%
%TO.N,M2_C*%
X113750000Y-105975000D03*
%TO.P,Q2CH,2*%
X113750000Y-105325000D03*
%TO.P,Q2CH,3*%
X113750000Y-104675000D03*
%TO.P,Q2CH,4*%
%TO.N,M2_GHC*%
X113750000Y-104025000D03*
D16*
%TO.P,Q2CH,5*%
%TO.N,VBAT*%
X110725000Y-104025000D03*
%TO.P,Q2CH,6*%
X110725000Y-104675000D03*
%TO.P,Q2CH,7*%
X110725000Y-105325000D03*
%TO.P,Q2CH,8*%
X110725000Y-105975000D03*
D17*
%TO.P,Q2CH,9*%
X111905000Y-105000000D03*
%TD*%
D18*
%TO.P,R28,1*%
%TO.N,M2_C*%
X108670000Y-100790000D03*
%TO.P,R28,2*%
%TO.N,M2_CMP_C*%
X108670000Y-101810000D03*
%TD*%
D19*
%TO.P,TP_E1_CLK,1*%
%TO.N,M1_SWCLK*%
X95150000Y-108250000D03*
%TD*%
D20*
%TO.P,P_M3A,1*%
%TO.N,M3_A*%
X83600000Y-105000000D03*
%TD*%
D19*
%TO.P,TP_E2_CLK,1*%
%TO.N,M2_SWCLK*%
X108250000Y-104850000D03*
%TD*%
D11*
%TO.P,R41,1*%
%TO.N,M3_CMP_C*%
X91170000Y-97300000D03*
%TO.P,R41,2*%
%TO.N,GND*%
X90530000Y-97300000D03*
%TD*%
D14*
%TO.P,C19,1*%
%TO.N,M2_DVDD*%
X106000000Y-103220000D03*
%TO.P,C19,2*%
%TO.N,GND*%
X106000000Y-104180000D03*
%TD*%
D10*
%TO.P,C36,1*%
%TO.N,M3_CPH*%
X95550000Y-102980000D03*
%TO.P,C36,2*%
%TO.N,M3_CPL*%
X95550000Y-102020000D03*
%TD*%
D13*
%TO.P,R26,1*%
%TO.N,M2_CMP_B*%
X105400000Y-105720000D03*
%TO.P,R26,2*%
%TO.N,GND*%
X105400000Y-105080000D03*
%TD*%
D21*
%TO.P,P_BAT-,1*%
%TO.N,GND*%
X109400000Y-116050000D03*
D22*
%TO.P,P_BAT-,2*%
%TO.N,FC_GND*%
X107750000Y-116050000D03*
%TD*%
D23*
%TO.P,C10,1*%
%TO.N,VBAT*%
X102430000Y-107270000D03*
%TO.P,C10,2*%
%TO.N,GND*%
X101470000Y-107270000D03*
%TD*%
D24*
%TO.P,P_L1,1*%
%TO.N,M1_SIG*%
X98095000Y-96850000D03*
%TD*%
D13*
%TO.P,R8,1*%
%TO.N,M1_DVDD*%
X93150000Y-105920000D03*
%TO.P,R8,2*%
%TO.N,M1_NTC*%
X93150000Y-105280000D03*
%TD*%
%TO.P,R42,1*%
%TO.N,M3_CMP_C*%
X92850000Y-95220000D03*
%TO.P,R42,2*%
%TO.N,M3_NEUTRAL*%
X92850000Y-94580000D03*
%TD*%
D25*
%TO.P,C11,1*%
%TO.N,M1_VCP*%
X101075000Y-105950000D03*
%TO.P,C11,2*%
%TO.N,VBAT*%
X102625000Y-105950000D03*
%TD*%
D23*
%TO.P,C20,1*%
%TO.N,M2_DVDD*%
X105730000Y-108000000D03*
%TO.P,C20,2*%
%TO.N,GND*%
X104770000Y-108000000D03*
%TD*%
D26*
%TO.P,R3,1*%
%TO.N,M3_IOUT*%
X84680000Y-92600000D03*
%TO.P,R3,2*%
%TO.N,CUR*%
X85320000Y-92600000D03*
%TD*%
D27*
%TO.P,U_CS2,1*%
%TO.N,GND*%
X112600000Y-108750000D03*
%TO.P,U_CS2,2*%
X112600000Y-108100000D03*
%TO.P,U_CS2,3*%
%TO.N,M2_DVDD*%
X112600000Y-107450000D03*
%TO.P,U_CS2,4*%
%TO.N,M2_SNSP*%
X110400000Y-107450000D03*
%TO.P,U_CS2,5*%
%TO.N,M2_SNSN*%
X110400000Y-108100000D03*
%TO.P,U_CS2,6*%
%TO.N,M2_IOUT*%
X110400000Y-108750000D03*
%TD*%
D13*
%TO.P,R36,1*%
%TO.N,M3_CMP_A*%
X91100000Y-94120000D03*
%TO.P,R36,2*%
%TO.N,M3_NEUTRAL*%
X91100000Y-93480000D03*
%TD*%
D28*
%TO.P,P_M4C,1*%
%TO.N,M4_C*%
X105000000Y-83600000D03*
%TD*%
D13*
%TO.P,R23,1*%
%TO.N,M2_CMP_A*%
X109700000Y-106470000D03*
%TO.P,R23,2*%
%TO.N,GND*%
X109700000Y-105830000D03*
%TD*%
D23*
%TO.P,C45,1*%
%TO.N,M4_NRST*%
X107880000Y-93150000D03*
%TO.P,C45,2*%
%TO.N,GND*%
X106920000Y-93150000D03*
%TD*%
D15*
%TO.P,Q3CH,1*%
%TO.N,M3_C*%
X86250000Y-94025000D03*
%TO.P,Q3CH,2*%
X86250000Y-94675000D03*
%TO.P,Q3CH,3*%
X86250000Y-95325000D03*
%TO.P,Q3CH,4*%
%TO.N,M3_GHC*%
X86250000Y-95975000D03*
D16*
%TO.P,Q3CH,5*%
%TO.N,VBAT*%
X89275000Y-95975000D03*
%TO.P,Q3CH,6*%
X89275000Y-95325000D03*
%TO.P,Q3CH,7*%
X89275000Y-94675000D03*
%TO.P,Q3CH,8*%
X89275000Y-94025000D03*
D17*
%TO.P,Q3CH,9*%
X88095000Y-95000000D03*
%TD*%
D29*
%TO.P,U_CS4,1*%
%TO.N,GND*%
X108750000Y-87400000D03*
%TO.P,U_CS4,2*%
X108100000Y-87400000D03*
%TO.P,U_CS4,3*%
%TO.N,M4_DVDD*%
X107450000Y-87400000D03*
%TO.P,U_CS4,4*%
%TO.N,M4_SNSP*%
X107450000Y-89600000D03*
%TO.P,U_CS4,5*%
%TO.N,M4_SNSN*%
X108100000Y-89600000D03*
%TO.P,U_CS4,6*%
%TO.N,M4_IOUT*%
X108750000Y-89600000D03*
%TD*%
D30*
%TO.P,R52,1*%
%TO.N,M4_C*%
X100790000Y-91330000D03*
%TO.P,R52,2*%
%TO.N,M4_CMP_C*%
X101810000Y-91330000D03*
%TD*%
D31*
%TO.P,R5,1*%
%TO.N,VBAT*%
X96950000Y-99575000D03*
%TO.P,R5,2*%
%TO.N,DRV_EN*%
X98600000Y-99575000D03*
%TD*%
D26*
%TO.P,R14,1*%
%TO.N,M1_CMP_B*%
X94280000Y-105400000D03*
%TO.P,R14,2*%
%TO.N,GND*%
X94920000Y-105400000D03*
%TD*%
%TO.P,R32,1*%
%TO.N,M3_DVDD*%
X94080000Y-93150000D03*
%TO.P,R32,2*%
%TO.N,M3_NTC*%
X94720000Y-93150000D03*
%TD*%
D23*
%TO.P,C12,1*%
%TO.N,M1_CPH*%
X102980000Y-104450000D03*
%TO.P,C12,2*%
%TO.N,M1_CPL*%
X102020000Y-104450000D03*
%TD*%
D30*
%TO.P,R37,1*%
%TO.N,M3_B*%
X90570000Y-101050000D03*
%TO.P,R37,2*%
%TO.N,M3_CMP_B*%
X91590000Y-101050000D03*
%TD*%
D11*
%TO.P,R45,1*%
%TO.N,M4_IDRIVE*%
X102020000Y-92650000D03*
%TO.P,R45,2*%
%TO.N,GND*%
X101380000Y-92650000D03*
%TD*%
D14*
%TO.P,C33,1*%
%TO.N,M3_NRST*%
X93150000Y-92120000D03*
%TO.P,C33,2*%
%TO.N,GND*%
X93150000Y-93080000D03*
%TD*%
D19*
%TO.P,TP_E3_CLK,1*%
%TO.N,M3_SWCLK*%
X91750000Y-95150000D03*
%TD*%
D24*
%TO.P,P_L4,1*%
%TO.N,M4_SIG*%
X101905000Y-96850000D03*
%TD*%
D20*
%TO.P,P_M3B,1*%
%TO.N,M3_B*%
X83600000Y-100000000D03*
%TD*%
D32*
%TO.P,P_M1B,1*%
%TO.N,M1_B*%
X100000000Y-116400000D03*
%TD*%
D23*
%TO.P,C30,1*%
%TO.N,M2_ISENSE*%
X108830000Y-108150000D03*
%TO.P,C30,2*%
%TO.N,GND*%
X107870000Y-108150000D03*
%TD*%
D33*
%TO.P,P_M2B,1*%
%TO.N,M2_B*%
X116400000Y-100000000D03*
%TD*%
D14*
%TO.P,C44,1*%
%TO.N,M4_DVDD*%
X108000000Y-94270000D03*
%TO.P,C44,2*%
%TO.N,GND*%
X108000000Y-95230000D03*
%TD*%
D34*
%TO.P,R38,1*%
%TO.N,M3_CMP_B*%
X94600000Y-94280000D03*
%TO.P,R38,2*%
%TO.N,GND*%
X94600000Y-94920000D03*
%TD*%
D10*
%TO.P,C17,1*%
%TO.N,M1_DVDD*%
X90300000Y-110680000D03*
%TO.P,C17,2*%
%TO.N,GND*%
X90300000Y-109720000D03*
%TD*%
D35*
%TO.P,Q1CH,1*%
%TO.N,M1_C*%
X94025000Y-113750000D03*
%TO.P,Q1CH,2*%
X94675000Y-113750000D03*
%TO.P,Q1CH,3*%
X95325000Y-113750000D03*
%TO.P,Q1CH,4*%
%TO.N,M1_GHC*%
X95975000Y-113750000D03*
D36*
%TO.P,Q1CH,5*%
%TO.N,VBAT*%
X95975000Y-110725000D03*
%TO.P,Q1CH,6*%
X95325000Y-110725000D03*
%TO.P,Q1CH,7*%
X94675000Y-110725000D03*
%TO.P,Q1CH,8*%
X94025000Y-110725000D03*
D37*
%TO.P,Q1CH,9*%
X95000000Y-111905000D03*
%TD*%
D13*
%TO.P,R43,1*%
%TO.N,M3_IOUT*%
X91900000Y-93420000D03*
%TO.P,R43,2*%
%TO.N,M3_ISENSE*%
X91900000Y-92780000D03*
%TD*%
D35*
%TO.P,Q4CH,1*%
%TO.N,M4_C*%
X105975000Y-86250000D03*
%TO.P,Q4CH,2*%
X105325000Y-86250000D03*
%TO.P,Q4CH,3*%
X104675000Y-86250000D03*
%TO.P,Q4CH,4*%
%TO.N,M4_GHC*%
X104025000Y-86250000D03*
D36*
%TO.P,Q4CH,5*%
%TO.N,VBAT*%
X104025000Y-89275000D03*
%TO.P,Q4CH,6*%
X104675000Y-89275000D03*
%TO.P,Q4CH,7*%
X105325000Y-89275000D03*
%TO.P,Q4CH,8*%
X105975000Y-89275000D03*
D37*
%TO.P,Q4CH,9*%
X105000000Y-88095000D03*
%TD*%
D24*
%TO.P,P_L3,1*%
%TO.N,M3_SIG*%
X100635000Y-96850000D03*
%TD*%
D19*
%TO.P,TP_E4_CLK,1*%
%TO.N,M4_SWCLK*%
X104850000Y-91750000D03*
%TD*%
D13*
%TO.P,R7,1*%
%TO.N,ESC_VSENSE*%
X103145000Y-103265000D03*
%TO.P,R7,2*%
%TO.N,GND*%
X103145000Y-102625000D03*
%TD*%
D24*
%TO.P,P_LV,1*%
%TO.N,VBAT*%
X98730000Y-98120000D03*
%TD*%
D38*
%TO.P,C32,1*%
%TO.N,M3_DVDD*%
X94270000Y-92000000D03*
%TO.P,C32,2*%
%TO.N,GND*%
X95230000Y-92000000D03*
%TD*%
D33*
%TO.P,P_M2A,1*%
%TO.N,M2_A*%
X116400000Y-95000000D03*
%TD*%
D35*
%TO.P,Q4BH,1*%
%TO.N,M4_B*%
X100975000Y-86250000D03*
%TO.P,Q4BH,2*%
X100325000Y-86250000D03*
%TO.P,Q4BH,3*%
X99675000Y-86250000D03*
%TO.P,Q4BH,4*%
%TO.N,M4_GHB*%
X99025000Y-86250000D03*
D36*
%TO.P,Q4BH,5*%
%TO.N,VBAT*%
X99025000Y-89275000D03*
%TO.P,Q4BH,6*%
X99675000Y-89275000D03*
%TO.P,Q4BH,7*%
X100325000Y-89275000D03*
%TO.P,Q4BH,8*%
X100975000Y-89275000D03*
D37*
%TO.P,Q4BH,9*%
X100000000Y-88095000D03*
%TD*%
D24*
%TO.P,P_L2,1*%
%TO.N,M2_SIG*%
X99365000Y-96850000D03*
%TD*%
D35*
%TO.P,Q4AH,1*%
%TO.N,M4_A*%
X95975000Y-86250000D03*
%TO.P,Q4AH,2*%
X95325000Y-86250000D03*
%TO.P,Q4AH,3*%
X94675000Y-86250000D03*
%TO.P,Q4AH,4*%
%TO.N,M4_GHA*%
X94025000Y-86250000D03*
D36*
%TO.P,Q4AH,5*%
%TO.N,VBAT*%
X94025000Y-89275000D03*
%TO.P,Q4AH,6*%
X94675000Y-89275000D03*
%TO.P,Q4AH,7*%
X95325000Y-89275000D03*
%TO.P,Q4AH,8*%
X95975000Y-89275000D03*
D37*
%TO.P,Q4AH,9*%
X95000000Y-88095000D03*
%TD*%
D26*
%TO.P,R48,1*%
%TO.N,M4_CMP_A*%
X105880000Y-91100000D03*
%TO.P,R48,2*%
%TO.N,M4_NEUTRAL*%
X106520000Y-91100000D03*
%TD*%
D25*
%TO.P,C13,1*%
%TO.N,M1_DVDD*%
X97525000Y-104700000D03*
%TO.P,C13,2*%
%TO.N,GND*%
X99075000Y-104700000D03*
%TD*%
D39*
%TO.P,R25,1*%
%TO.N,M2_B*%
X109430000Y-98950000D03*
%TO.P,R25,2*%
%TO.N,M2_CMP_B*%
X108410000Y-98950000D03*
%TD*%
D12*
%TO.P,R13,1*%
%TO.N,M1_B*%
X101050000Y-109430000D03*
%TO.P,R13,2*%
%TO.N,M1_CMP_B*%
X101050000Y-108410000D03*
%TD*%
D38*
%TO.P,C41,1*%
%TO.N,M3_DVDD*%
X89320000Y-90300000D03*
%TO.P,C41,2*%
%TO.N,GND*%
X90280000Y-90300000D03*
%TD*%
D40*
%TO.P,C37,1*%
%TO.N,M3_DVDD*%
X95300000Y-97525000D03*
%TO.P,C37,2*%
%TO.N,GND*%
X95300000Y-99075000D03*
%TD*%
D13*
%TO.P,R1,1*%
%TO.N,M1_IOUT*%
X92600000Y-115320000D03*
%TO.P,R1,2*%
%TO.N,CUR*%
X92600000Y-114680000D03*
%TD*%
D41*
%TO.P,C23,1*%
%TO.N,M2_VCP*%
X105950000Y-98925000D03*
%TO.P,C23,2*%
%TO.N,VBAT*%
X105950000Y-97375000D03*
%TD*%
D27*
%TO.P,U_CS3,1*%
%TO.N,GND*%
X87400000Y-91250000D03*
%TO.P,U_CS3,2*%
X87400000Y-91900000D03*
%TO.P,U_CS3,3*%
%TO.N,M3_DVDD*%
X87400000Y-92550000D03*
%TO.P,U_CS3,4*%
%TO.N,M3_SNSP*%
X89600000Y-92550000D03*
%TO.P,U_CS3,5*%
%TO.N,M3_SNSN*%
X89600000Y-91900000D03*
%TO.P,U_CS3,6*%
%TO.N,M3_IOUT*%
X89600000Y-91250000D03*
%TD*%
D12*
%TO.P,R46,1*%
%TO.N,M4_A*%
X97680000Y-91710000D03*
%TO.P,R46,2*%
%TO.N,M4_CMP_A*%
X97680000Y-90690000D03*
%TD*%
%TO.P,R40,1*%
%TO.N,M3_C*%
X91330000Y-99210000D03*
%TO.P,R40,2*%
%TO.N,M3_CMP_C*%
X91330000Y-98190000D03*
%TD*%
D15*
%TO.P,Q3AH,1*%
%TO.N,M3_A*%
X86250000Y-104025000D03*
%TO.P,Q3AH,2*%
X86250000Y-104675000D03*
%TO.P,Q3AH,3*%
X86250000Y-105325000D03*
%TO.P,Q3AH,4*%
%TO.N,M3_GHA*%
X86250000Y-105975000D03*
D16*
%TO.P,Q3AH,5*%
%TO.N,VBAT*%
X89275000Y-105975000D03*
%TO.P,Q3AH,6*%
X89275000Y-105325000D03*
%TO.P,Q3AH,7*%
X89275000Y-104675000D03*
%TO.P,Q3AH,8*%
X89275000Y-104025000D03*
D17*
%TO.P,Q3AH,9*%
X88095000Y-105000000D03*
%TD*%
D26*
%TO.P,R11,1*%
%TO.N,M1_CMP_A*%
X93530000Y-109700000D03*
%TO.P,R11,2*%
%TO.N,GND*%
X94170000Y-109700000D03*
%TD*%
D24*
%TO.P,P_LC,1*%
%TO.N,CUR*%
X101270000Y-98120000D03*
%TD*%
D11*
%TO.P,R2,1*%
%TO.N,M2_IOUT*%
X115320000Y-107400000D03*
%TO.P,R2,2*%
%TO.N,CUR*%
X114680000Y-107400000D03*
%TD*%
D35*
%TO.P,Q1AH,1*%
%TO.N,M1_A*%
X104025000Y-113750000D03*
%TO.P,Q1AH,2*%
X104675000Y-113750000D03*
%TO.P,Q1AH,3*%
X105325000Y-113750000D03*
%TO.P,Q1AH,4*%
%TO.N,M1_GHA*%
X105975000Y-113750000D03*
D36*
%TO.P,Q1AH,5*%
%TO.N,VBAT*%
X105975000Y-110725000D03*
%TO.P,Q1AH,6*%
X105325000Y-110725000D03*
%TO.P,Q1AH,7*%
X104675000Y-110725000D03*
%TO.P,Q1AH,8*%
X104025000Y-110725000D03*
D37*
%TO.P,Q1AH,9*%
X105000000Y-111905000D03*
%TD*%
D20*
%TO.P,P_M3C,1*%
%TO.N,M3_C*%
X83600000Y-95000000D03*
%TD*%
D30*
%TO.P,RT1,1*%
%TO.N,M1_NTC*%
X95090000Y-109450000D03*
%TO.P,RT1,2*%
%TO.N,GND*%
X96110000Y-109450000D03*
%TD*%
D26*
%TO.P,R55,1*%
%TO.N,M4_IOUT*%
X106580000Y-91900000D03*
%TO.P,R55,2*%
%TO.N,M4_ISENSE*%
X107220000Y-91900000D03*
%TD*%
D32*
%TO.P,P_M1A,1*%
%TO.N,M1_A*%
X105000000Y-116400000D03*
%TD*%
D39*
%TO.P,R34,1*%
%TO.N,M3_A*%
X91710000Y-102320000D03*
%TO.P,R34,2*%
%TO.N,M3_CMP_A*%
X90690000Y-102320000D03*
%TD*%
D40*
%TO.P,C35,1*%
%TO.N,M3_VCP*%
X94050000Y-101075000D03*
%TO.P,C35,2*%
%TO.N,VBAT*%
X94050000Y-102625000D03*
%TD*%
D41*
%TO.P,C25,1*%
%TO.N,M2_DVDD*%
X104700000Y-102475000D03*
%TO.P,C25,2*%
%TO.N,GND*%
X104700000Y-100925000D03*
%TD*%
D34*
%TO.P,R24,1*%
%TO.N,M2_CMP_A*%
X108900000Y-105880000D03*
%TO.P,R24,2*%
%TO.N,M2_NEUTRAL*%
X108900000Y-106520000D03*
%TD*%
%TO.P,R4,1*%
%TO.N,M4_IOUT*%
X107400000Y-84680000D03*
%TO.P,R4,2*%
%TO.N,CUR*%
X107400000Y-85320000D03*
%TD*%
D13*
%TO.P,R21,1*%
%TO.N,M2_IDRIVE*%
X107350000Y-102020000D03*
%TO.P,R21,2*%
%TO.N,GND*%
X107350000Y-101380000D03*
%TD*%
D39*
%TO.P,R16,1*%
%TO.N,M1_C*%
X99210000Y-108670000D03*
%TO.P,R16,2*%
%TO.N,M1_CMP_C*%
X98190000Y-108670000D03*
%TD*%
D18*
%TO.P,RT3,1*%
%TO.N,M3_NTC*%
X90550000Y-95090000D03*
%TO.P,RT3,2*%
%TO.N,GND*%
X90550000Y-96110000D03*
%TD*%
D14*
%TO.P,C22,1*%
%TO.N,VBAT*%
X107270000Y-97570000D03*
%TO.P,C22,2*%
%TO.N,GND*%
X107270000Y-98530000D03*
%TD*%
D26*
%TO.P,R29,1*%
%TO.N,M2_CMP_C*%
X108830000Y-102700000D03*
%TO.P,R29,2*%
%TO.N,GND*%
X109470000Y-102700000D03*
%TD*%
D11*
%TO.P,R50,1*%
%TO.N,M4_CMP_B*%
X105720000Y-94600000D03*
%TO.P,R50,2*%
%TO.N,GND*%
X105080000Y-94600000D03*
%TD*%
D30*
%TO.P,R22,1*%
%TO.N,M2_A*%
X108290000Y-97680000D03*
%TO.P,R22,2*%
%TO.N,M2_CMP_A*%
X109310000Y-97680000D03*
%TD*%
D10*
%TO.P,C8,1*%
%TO.N,M1_DVDD*%
X92000000Y-105730000D03*
%TO.P,C8,2*%
%TO.N,GND*%
X92000000Y-104770000D03*
%TD*%
D38*
%TO.P,C48,1*%
%TO.N,M4_CPH*%
X97020000Y-95550000D03*
%TO.P,C48,2*%
%TO.N,M4_CPL*%
X97980000Y-95550000D03*
%TD*%
D12*
%TO.P,R6,1*%
%TO.N,VBAT*%
X103165000Y-101635000D03*
%TO.P,R6,2*%
%TO.N,ESC_VSENSE*%
X103165000Y-100615000D03*
%TD*%
D15*
%TO.P,Q2BH,1*%
%TO.N,M2_B*%
X113750000Y-100975000D03*
%TO.P,Q2BH,2*%
X113750000Y-100325000D03*
%TO.P,Q2BH,3*%
X113750000Y-99675000D03*
%TO.P,Q2BH,4*%
%TO.N,M2_GHB*%
X113750000Y-99025000D03*
D16*
%TO.P,Q2BH,5*%
%TO.N,VBAT*%
X110725000Y-99025000D03*
%TO.P,Q2BH,6*%
X110725000Y-99675000D03*
%TO.P,Q2BH,7*%
X110725000Y-100325000D03*
%TO.P,Q2BH,8*%
X110725000Y-100975000D03*
D17*
%TO.P,Q2BH,9*%
X111905000Y-100000000D03*
%TD*%
D18*
%TO.P,R10,1*%
%TO.N,M1_A*%
X102320000Y-108290000D03*
%TO.P,R10,2*%
%TO.N,M1_CMP_A*%
X102320000Y-109310000D03*
%TD*%
D35*
%TO.P,Q1BH,1*%
%TO.N,M1_B*%
X99025000Y-113750000D03*
%TO.P,Q1BH,2*%
X99675000Y-113750000D03*
%TO.P,Q1BH,3*%
X100325000Y-113750000D03*
%TO.P,Q1BH,4*%
%TO.N,M1_GHB*%
X100975000Y-113750000D03*
D36*
%TO.P,Q1BH,5*%
%TO.N,VBAT*%
X100975000Y-110725000D03*
%TO.P,Q1BH,6*%
X100325000Y-110725000D03*
%TO.P,Q1BH,7*%
X99675000Y-110725000D03*
%TO.P,Q1BH,8*%
X99025000Y-110725000D03*
D37*
%TO.P,Q1BH,9*%
X100000000Y-111905000D03*
%TD*%
D15*
%TO.P,Q3BH,1*%
%TO.N,M3_B*%
X86250000Y-99025000D03*
%TO.P,Q3BH,2*%
X86250000Y-99675000D03*
%TO.P,Q3BH,3*%
X86250000Y-100325000D03*
%TO.P,Q3BH,4*%
%TO.N,M3_GHB*%
X86250000Y-100975000D03*
D16*
%TO.P,Q3BH,5*%
%TO.N,VBAT*%
X89275000Y-100975000D03*
%TO.P,Q3BH,6*%
X89275000Y-100325000D03*
%TO.P,Q3BH,7*%
X89275000Y-99675000D03*
%TO.P,Q3BH,8*%
X89275000Y-99025000D03*
D17*
%TO.P,Q3BH,9*%
X88095000Y-100000000D03*
%TD*%
D10*
%TO.P,C31,1*%
%TO.N,M3_DVDD*%
X94000000Y-96780000D03*
%TO.P,C31,2*%
%TO.N,GND*%
X94000000Y-95820000D03*
%TD*%
D23*
%TO.P,C7,1*%
%TO.N,M1_DVDD*%
X96780000Y-106000000D03*
%TO.P,C7,2*%
%TO.N,GND*%
X95820000Y-106000000D03*
%TD*%
D33*
%TO.P,P_M2C,1*%
%TO.N,M2_C*%
X116400000Y-105000000D03*
%TD*%
D38*
%TO.P,C42,1*%
%TO.N,M3_ISENSE*%
X91170000Y-91850000D03*
%TO.P,C42,2*%
%TO.N,GND*%
X92130000Y-91850000D03*
%TD*%
D42*
%TO.P,C47,1*%
%TO.N,M4_VCP*%
X98925000Y-94050000D03*
%TO.P,C47,2*%
%TO.N,VBAT*%
X97375000Y-94050000D03*
%TD*%
D38*
%TO.P,C9,1*%
%TO.N,M1_NRST*%
X92120000Y-106850000D03*
%TO.P,C9,2*%
%TO.N,GND*%
X93080000Y-106850000D03*
%TD*%
D34*
%TO.P,R30,1*%
%TO.N,M2_CMP_C*%
X107150000Y-104780000D03*
%TO.P,R30,2*%
%TO.N,M2_NEUTRAL*%
X107150000Y-105420000D03*
%TD*%
D38*
%TO.P,C4,1*%
%TO.N,CUR*%
X101925000Y-99505000D03*
%TO.P,C4,2*%
%TO.N,GND*%
X102885000Y-99505000D03*
%TD*%
D13*
%TO.P,R39,1*%
%TO.N,M3_CMP_B*%
X93750000Y-94620000D03*
%TO.P,R39,2*%
%TO.N,M3_NEUTRAL*%
X93750000Y-93980000D03*
%TD*%
D24*
%TO.P,P_LG,1*%
%TO.N,FC_GND*%
X108300000Y-113500000D03*
%TD*%
D19*
%TO.P,TP_E4_DIO,1*%
%TO.N,M4_SWDIO*%
X103100000Y-92250000D03*
%TD*%
D29*
%TO.P,U_CS1,1*%
%TO.N,GND*%
X91250000Y-112600000D03*
%TO.P,U_CS1,2*%
X91900000Y-112600000D03*
%TO.P,U_CS1,3*%
%TO.N,M1_DVDD*%
X92550000Y-112600000D03*
%TO.P,U_CS1,4*%
%TO.N,M1_SNSP*%
X92550000Y-110400000D03*
%TO.P,U_CS1,5*%
%TO.N,M1_SNSN*%
X91900000Y-110400000D03*
%TO.P,U_CS1,6*%
%TO.N,M1_IOUT*%
X91250000Y-110400000D03*
%TD*%
D34*
%TO.P,R31,1*%
%TO.N,M2_IOUT*%
X108100000Y-106580000D03*
%TO.P,R31,2*%
%TO.N,M2_ISENSE*%
X108100000Y-107220000D03*
%TD*%
D42*
%TO.P,C49,1*%
%TO.N,M4_DVDD*%
X102475000Y-95300000D03*
%TO.P,C49,2*%
%TO.N,GND*%
X100925000Y-95300000D03*
%TD*%
D11*
%TO.P,R15,1*%
%TO.N,M1_CMP_B*%
X94620000Y-106250000D03*
%TO.P,R15,2*%
%TO.N,M1_NEUTRAL*%
X93980000Y-106250000D03*
%TD*%
D43*
%TO.P,C1,1*%
%TO.N,VBAT*%
X98520000Y-102095000D03*
%TO.P,C1,2*%
%TO.N,GND*%
X101470000Y-102095000D03*
%TD*%
D26*
%TO.P,R54,1*%
%TO.N,M4_CMP_C*%
X104780000Y-92850000D03*
%TO.P,R54,2*%
%TO.N,M4_NEUTRAL*%
X105420000Y-92850000D03*
%TD*%
D34*
%TO.P,R17,1*%
%TO.N,M1_CMP_C*%
X97300000Y-108830000D03*
%TO.P,R17,2*%
%TO.N,GND*%
X97300000Y-109470000D03*
%TD*%
D10*
%TO.P,C21,1*%
%TO.N,M2_NRST*%
X106850000Y-107880000D03*
%TO.P,C21,2*%
%TO.N,GND*%
X106850000Y-106920000D03*
%TD*%
D23*
%TO.P,C29,1*%
%TO.N,M2_DVDD*%
X110680000Y-109700000D03*
%TO.P,C29,2*%
%TO.N,GND*%
X109720000Y-109700000D03*
%TD*%
D19*
%TO.P,TP_E3_DIO,1*%
%TO.N,M3_SWDIO*%
X92250000Y-96900000D03*
%TD*%
D11*
%TO.P,R47,1*%
%TO.N,M4_CMP_A*%
X106470000Y-90300000D03*
%TO.P,R47,2*%
%TO.N,GND*%
X105830000Y-90300000D03*
%TD*%
D28*
%TO.P,P_M4A,1*%
%TO.N,M4_A*%
X95000000Y-83600000D03*
%TD*%
D11*
%TO.P,R12,1*%
%TO.N,M1_CMP_A*%
X94120000Y-108900000D03*
%TO.P,R12,2*%
%TO.N,M1_NEUTRAL*%
X93480000Y-108900000D03*
%TD*%
D19*
%TO.P,TP_E2_DIO,1*%
%TO.N,M2_SWDIO*%
X107750000Y-103100000D03*
%TD*%
D38*
%TO.P,C46,1*%
%TO.N,VBAT*%
X97570000Y-92730000D03*
%TO.P,C46,2*%
%TO.N,GND*%
X98530000Y-92730000D03*
%TD*%
D39*
%TO.P,RT4,1*%
%TO.N,M4_NTC*%
X104910000Y-90550000D03*
%TO.P,RT4,2*%
%TO.N,GND*%
X103890000Y-90550000D03*
%TD*%
D21*
%TO.P,P_BAT+,1*%
%TO.N,VBAT*%
X90600000Y-116050000D03*
%TD*%
D26*
%TO.P,R9,1*%
%TO.N,M1_IDRIVE*%
X97980000Y-107350000D03*
%TO.P,R9,2*%
%TO.N,GND*%
X98620000Y-107350000D03*
%TD*%
D28*
%TO.P,P_M4B,1*%
%TO.N,M4_B*%
X100000000Y-83600000D03*
%TD*%
D34*
%TO.P,R33,1*%
%TO.N,M3_IDRIVE*%
X92650000Y-97980000D03*
%TO.P,R33,2*%
%TO.N,GND*%
X92650000Y-98620000D03*
%TD*%
D19*
%TO.P,TP_E1_DIO,1*%
%TO.N,M1_SWDIO*%
X96900000Y-107750000D03*
%TD*%
D32*
%TO.P,P_M1C,1*%
%TO.N,M1_C*%
X95000000Y-116400000D03*
%TD*%
D11*
%TO.P,R19,1*%
%TO.N,M1_IOUT*%
X93420000Y-108100000D03*
%TO.P,R19,2*%
%TO.N,M1_ISENSE*%
X92780000Y-108100000D03*
%TD*%
D34*
%TO.P,R44,1*%
%TO.N,M4_DVDD*%
X106850000Y-94080000D03*
%TO.P,R44,2*%
%TO.N,M4_NTC*%
X106850000Y-94720000D03*
%TD*%
D11*
%TO.P,R18,1*%
%TO.N,M1_CMP_C*%
X95220000Y-107150000D03*
%TO.P,R18,2*%
%TO.N,M1_NEUTRAL*%
X94580000Y-107150000D03*
%TD*%
D26*
%TO.P,R51,1*%
%TO.N,M4_CMP_B*%
X105380000Y-93750000D03*
%TO.P,R51,2*%
%TO.N,M4_NEUTRAL*%
X106020000Y-93750000D03*
%TD*%
D34*
%TO.P,R35,1*%
%TO.N,M3_CMP_A*%
X90300000Y-93530000D03*
%TO.P,R35,2*%
%TO.N,GND*%
X90300000Y-94170000D03*
%TD*%
D14*
%TO.P,C53,1*%
%TO.N,M4_DVDD*%
X109700000Y-89320000D03*
%TO.P,C53,2*%
%TO.N,GND*%
X109700000Y-90280000D03*
%TD*%
%TO.P,C54,1*%
%TO.N,M4_ISENSE*%
X108150000Y-91170000D03*
%TO.P,C54,2*%
%TO.N,GND*%
X108150000Y-92130000D03*
%TD*%
D18*
%TO.P,R49,1*%
%TO.N,M4_B*%
X98950000Y-90570000D03*
%TO.P,R49,2*%
%TO.N,M4_CMP_B*%
X98950000Y-91590000D03*
%TD*%
D10*
%TO.P,C6,1*%
%TO.N,ESC_VSENSE*%
X103205000Y-98085000D03*
%TO.P,C6,2*%
%TO.N,GND*%
X103205000Y-97125000D03*
%TD*%
D34*
%TO.P,R27,1*%
%TO.N,M2_CMP_B*%
X106250000Y-105380000D03*
%TO.P,R27,2*%
%TO.N,M2_NEUTRAL*%
X106250000Y-106020000D03*
%TD*%
D38*
%TO.P,C43,1*%
%TO.N,M4_DVDD*%
X103220000Y-94000000D03*
%TO.P,C43,2*%
%TO.N,GND*%
X104180000Y-94000000D03*
%TD*%
D44*
%TO.N,DRV_EN*%
X95200000Y-96725000D03*
X115268400Y-92098300D03*
X117039000Y-107091700D03*
X97600000Y-98700000D03*
X104800000Y-103275000D03*
X107883200Y-109676900D03*
X103275000Y-95200000D03*
X100875000Y-97500000D03*
X96725000Y-104800000D03*
D45*
%TO.N,GND*%
X94170000Y-109700000D03*
D46*
X112750000Y-109100000D03*
D45*
X98620000Y-107350000D03*
D46*
X113950000Y-107900000D03*
X112750000Y-108500000D03*
D45*
X92000000Y-104770000D03*
X93735000Y-106850000D03*
X103890000Y-90550000D03*
X105080000Y-94600000D03*
D46*
X109100000Y-87250000D03*
D45*
X107270000Y-98530000D03*
D46*
X91500000Y-113950000D03*
D45*
X93400000Y-100300000D03*
X93900000Y-99800000D03*
D46*
X86050000Y-90900000D03*
D45*
X90215000Y-109720000D03*
D46*
X113350000Y-108500000D03*
D45*
X92730000Y-101470000D03*
X103205000Y-97125000D03*
X102700000Y-90530000D03*
D46*
X108500000Y-86050000D03*
D45*
X94600000Y-94920000D03*
D46*
X91500000Y-112750000D03*
D45*
X100925000Y-95050000D03*
X101470000Y-101345000D03*
X90300000Y-94170000D03*
X101045000Y-99620000D03*
X104950000Y-100925000D03*
X100200000Y-93900000D03*
X90280000Y-90215000D03*
D46*
X86650000Y-90900000D03*
X87250000Y-91500000D03*
D45*
X97300000Y-109470000D03*
X99075000Y-104950000D03*
X109450000Y-103890000D03*
D46*
X90900000Y-113350000D03*
X87250000Y-90900000D03*
X91500000Y-113350000D03*
D45*
X104770000Y-108000000D03*
X103643000Y-102337000D03*
X101380000Y-92650000D03*
D46*
X86650000Y-91500000D03*
X90900000Y-113950000D03*
X86050000Y-91500000D03*
D45*
X101470000Y-107270000D03*
X106600000Y-99700000D03*
X96110000Y-109450000D03*
D46*
X92100000Y-113350000D03*
D45*
X93150000Y-93735000D03*
X106265000Y-93150000D03*
X107870000Y-108150000D03*
D46*
X86050000Y-92100000D03*
D45*
X102885000Y-99505000D03*
X90550000Y-96110000D03*
X105400000Y-105080000D03*
X100300000Y-106600000D03*
D46*
X113950000Y-109100000D03*
D45*
X105830000Y-90300000D03*
D46*
X86650000Y-92100000D03*
D45*
X95050000Y-99075000D03*
X97845000Y-99545000D03*
X94920000Y-105400000D03*
D46*
X113950000Y-108500000D03*
D45*
X92130000Y-91850000D03*
D46*
X113350000Y-109100000D03*
D45*
X109470000Y-102700000D03*
X108000000Y-95230000D03*
X106100000Y-100200000D03*
D46*
X107900000Y-86050000D03*
X107900000Y-86650000D03*
D45*
X109700000Y-105830000D03*
D46*
X109100000Y-86050000D03*
D45*
X95230000Y-92000000D03*
X90530000Y-97300000D03*
X106850000Y-106265000D03*
D46*
X113350000Y-107900000D03*
X90900000Y-112750000D03*
D45*
X109785000Y-90280000D03*
D46*
X92100000Y-113950000D03*
D45*
X98530000Y-92730000D03*
X108150000Y-92130000D03*
X107350000Y-101380000D03*
X92650000Y-98620000D03*
X99800000Y-106100000D03*
D46*
X108500000Y-87250000D03*
D45*
X91850000Y-107870000D03*
D46*
X108500000Y-86650000D03*
X109100000Y-86650000D03*
D45*
X99700000Y-93400000D03*
X109720000Y-109785000D03*
X96855000Y-97125000D03*
D47*
%TO.N,M2_DVDD*%
X104850000Y-102395000D03*
X106200000Y-107410000D03*
X106200000Y-103410000D03*
D44*
X110400000Y-109850000D03*
D47*
%TO.N,M2_NTC*%
X104820000Y-106430000D03*
D44*
X109325000Y-104975000D03*
%TO.N,M1_ISENSE*%
X91875000Y-108475000D03*
D47*
X94770000Y-104380000D03*
D46*
%TO.N,VBAT*%
X98800000Y-89850000D03*
X96200000Y-110150000D03*
X89850000Y-101200000D03*
X104650000Y-110150000D03*
D45*
X98520000Y-101345000D03*
D46*
X100350000Y-110150000D03*
X99650000Y-89850000D03*
X89850000Y-96200000D03*
D45*
X98445000Y-101995000D03*
D46*
X110150000Y-95350000D03*
X89800000Y-98800000D03*
X110150000Y-93800000D03*
X100350000Y-89850000D03*
X110150000Y-98800000D03*
D45*
X94050000Y-102625000D03*
D46*
X110150000Y-105350000D03*
X104650000Y-89850000D03*
X103800000Y-110200000D03*
D45*
X97375000Y-94050000D03*
D46*
X103800000Y-89850000D03*
X89850000Y-100350000D03*
X93800000Y-89850000D03*
X89850000Y-95350000D03*
D45*
X102545000Y-102570000D03*
D46*
X96200000Y-89800000D03*
X101200000Y-110150000D03*
X105350000Y-89850000D03*
X95350000Y-89850000D03*
X110150000Y-103800000D03*
X94650000Y-89850000D03*
X89850000Y-106200000D03*
D45*
X98945000Y-102570000D03*
D46*
X99650000Y-110150000D03*
X89850000Y-99650000D03*
X110150000Y-100350000D03*
X110150000Y-104650000D03*
X89800000Y-103800000D03*
X89850000Y-94650000D03*
D45*
X97445000Y-102570000D03*
D46*
X110150000Y-99650000D03*
X89850000Y-105350000D03*
X101200000Y-89800000D03*
X110200000Y-101200000D03*
D45*
X98730000Y-98120000D03*
D46*
X89850000Y-104650000D03*
X106200000Y-110150000D03*
X95350000Y-110150000D03*
X98800000Y-110200000D03*
D45*
X96737800Y-98782900D03*
X102625000Y-105950000D03*
D46*
X110150000Y-94650000D03*
X94650000Y-110150000D03*
X110200000Y-96200000D03*
D45*
X103165000Y-101635000D03*
X105950000Y-97375000D03*
D46*
X105350000Y-110150000D03*
D47*
%TO.N,M4_CMP_C*%
X105630000Y-95180000D03*
D44*
X104000000Y-91450000D03*
D47*
%TO.N,M2_CPH*%
X104850000Y-97005000D03*
%TO.N,M2_CPL*%
X103905000Y-97950000D03*
D46*
%TO.N,M2_A*%
X116250000Y-94200000D03*
X115500000Y-95800000D03*
D47*
X107350000Y-97005000D03*
D46*
X114750000Y-95800000D03*
X114750000Y-95000000D03*
X116250000Y-95000000D03*
X115500000Y-95000000D03*
X116250000Y-95800000D03*
D44*
X108950000Y-96725000D03*
D46*
X115500000Y-94200000D03*
D47*
%TO.N,M2_GHA*%
X106850000Y-97005000D03*
D44*
X113750000Y-93050000D03*
D46*
%TO.N,M2_C*%
X114750000Y-105000000D03*
X115500000Y-105800000D03*
X116250000Y-105000000D03*
X114750000Y-105800000D03*
X115500000Y-104200000D03*
X116250000Y-104200000D03*
D47*
X109294999Y-100450000D03*
D46*
X116250000Y-105800000D03*
X115500000Y-105000000D03*
D44*
%TO.N,M2_GHC*%
X113750000Y-103050000D03*
D47*
X109294999Y-99950000D03*
%TO.N,M2_CMP_C*%
X104820000Y-105630000D03*
D44*
X108550000Y-104000000D03*
D47*
%TO.N,M1_SWCLK*%
X95570000Y-108820000D03*
D46*
%TO.N,M3_A*%
X83750000Y-105000000D03*
X85250000Y-104200000D03*
D44*
X91050000Y-103275000D03*
D46*
X84500000Y-105000000D03*
X83750000Y-104200000D03*
D47*
X92650000Y-102994999D03*
D46*
X84500000Y-104200000D03*
X84500000Y-105800000D03*
X85250000Y-105000000D03*
X83750000Y-105800000D03*
D47*
%TO.N,M2_SWCLK*%
X108820000Y-104430000D03*
D44*
%TO.N,M3_CMP_C*%
X91450000Y-96000000D03*
D47*
X95180000Y-94370000D03*
%TO.N,M3_CPH*%
X95150000Y-102994999D03*
%TO.N,M3_CPL*%
X96095000Y-102050000D03*
%TO.N,M2_CMP_B*%
X104380000Y-106030000D03*
D45*
%TO.N,M1_SIG*%
X98095000Y-96850000D03*
D44*
X96000000Y-104800000D03*
D47*
X94370000Y-108380000D03*
%TO.N,M1_DVDD*%
X97605000Y-104850000D03*
X96590000Y-106200000D03*
X92590000Y-106200000D03*
D44*
X90150000Y-110400000D03*
D47*
%TO.N,M1_NTC*%
X93570000Y-104820000D03*
D44*
X95025000Y-109325000D03*
D47*
%TO.N,M3_NEUTRAL*%
X94600000Y-92590000D03*
D44*
X93625000Y-91625000D03*
%TO.N,M1_VCP*%
X103435000Y-105350000D03*
D45*
%TO.N,CUR*%
X101270000Y-98120000D03*
D44*
X97575000Y-101400000D03*
X92625000Y-114400000D03*
X107375000Y-85600000D03*
X100300000Y-100350000D03*
X114400000Y-107375000D03*
X85600000Y-92625000D03*
X99800000Y-98050000D03*
X102900000Y-98700000D03*
X102075000Y-100500000D03*
%TO.N,M2_SNSP*%
X110975000Y-106915000D03*
%TO.N,M2_SNSN*%
X111525000Y-107775000D03*
%TO.N,M3_CMP_A*%
X90625000Y-93100000D03*
X93075000Y-91100000D03*
X94200000Y-91260000D03*
X85418600Y-102325000D03*
D46*
%TO.N,M4_C*%
X105000000Y-83750000D03*
D47*
X100450000Y-90705000D03*
D46*
X105000000Y-84500000D03*
X105000000Y-85250000D03*
X105800000Y-85250000D03*
X104200000Y-83750000D03*
X104200000Y-84500000D03*
X105800000Y-84500000D03*
X105800000Y-83750000D03*
D44*
%TO.N,M2_CMP_A*%
X109350000Y-106875000D03*
X105800000Y-108740000D03*
X106900000Y-108875000D03*
X114582000Y-97675000D03*
D47*
%TO.N,M4_NRST*%
X107850000Y-93400000D03*
D46*
%TO.N,M3_C*%
X85250000Y-95000000D03*
X84500000Y-95800000D03*
X85250000Y-94200000D03*
X83750000Y-95800000D03*
X84500000Y-95000000D03*
D47*
X90705000Y-99550000D03*
D46*
X84500000Y-94200000D03*
X83750000Y-95000000D03*
X83750000Y-94200000D03*
D44*
%TO.N,M3_GHC*%
X86250000Y-96950000D03*
D47*
X90705000Y-100050000D03*
%TO.N,M4_DVDD*%
X103410000Y-93800000D03*
X107410000Y-93800000D03*
D44*
X109850000Y-89600000D03*
D47*
X102395000Y-95150000D03*
D44*
%TO.N,M4_SNSP*%
X106915000Y-89025000D03*
%TO.N,M4_SNSN*%
X107775000Y-88475000D03*
D47*
%TO.N,M1_CMP_B*%
X93970000Y-104380000D03*
D44*
%TO.N,M3_DVDD*%
X89600000Y-90150000D03*
D47*
X95150000Y-97605000D03*
X93800000Y-92590000D03*
X93800000Y-96590000D03*
%TO.N,M3_NTC*%
X95180000Y-93570000D03*
D44*
X90675000Y-95025000D03*
D47*
%TO.N,M1_CPH*%
X102994999Y-104850000D03*
%TO.N,M1_CPL*%
X102050000Y-103905000D03*
D46*
%TO.N,M3_B*%
X83750000Y-100800000D03*
X83750000Y-100000000D03*
X83750000Y-99200000D03*
X84500000Y-100800000D03*
X85250000Y-100000000D03*
D47*
X90705000Y-101050000D03*
D46*
X85250000Y-99200000D03*
X84500000Y-100000000D03*
X84500000Y-99200000D03*
D47*
%TO.N,M3_CMP_B*%
X95620000Y-93970000D03*
%TO.N,M4_IDRIVE*%
X102395000Y-92650000D03*
%TO.N,M3_NRST*%
X93400000Y-92150000D03*
%TO.N,M3_SWCLK*%
X91180000Y-95570000D03*
%TO.N,M4_SIG*%
X105630000Y-91620000D03*
D44*
X104000000Y-95200000D03*
X102350000Y-96625000D03*
D46*
%TO.N,M1_B*%
X99200000Y-116250000D03*
D47*
X101050000Y-109294999D03*
D46*
X100800000Y-115500000D03*
X100000000Y-115500000D03*
X100800000Y-116250000D03*
X99200000Y-114750000D03*
X100000000Y-114750000D03*
X99200000Y-115500000D03*
X100000000Y-116250000D03*
D47*
%TO.N,M2_ISENSE*%
X104380000Y-105230000D03*
D44*
X108475000Y-108125000D03*
D46*
%TO.N,M2_B*%
X116250000Y-100800000D03*
X114750000Y-100000000D03*
X115500000Y-100000000D03*
X116250000Y-100000000D03*
D47*
X109294999Y-98950000D03*
D46*
X115500000Y-100800000D03*
X115500000Y-99200000D03*
X116250000Y-99200000D03*
X114750000Y-100800000D03*
%TO.N,M1_C*%
X95000000Y-115500000D03*
X94200000Y-115500000D03*
X95800000Y-115500000D03*
X95000000Y-114750000D03*
X95000000Y-116250000D03*
X94200000Y-114750000D03*
X95800000Y-116250000D03*
D47*
X99550000Y-109294999D03*
D46*
X94200000Y-116250000D03*
D44*
%TO.N,M1_GHC*%
X96950000Y-113750000D03*
D47*
X100050000Y-109294999D03*
D44*
%TO.N,M3_ISENSE*%
X91525000Y-91875000D03*
D47*
X95620000Y-94770000D03*
%TO.N,M4_GHC*%
X99950000Y-90705000D03*
D44*
X103050000Y-86250000D03*
D47*
%TO.N,M3_SIG*%
X91620000Y-94370000D03*
D44*
X95200000Y-96000000D03*
X97650000Y-97550000D03*
D47*
%TO.N,M4_SWCLK*%
X104430000Y-91180000D03*
D44*
%TO.N,ESC_VSENSE*%
X107075000Y-95250000D03*
X104750000Y-107075000D03*
X103125000Y-101000000D03*
X103250000Y-103775000D03*
X92925000Y-104750000D03*
X100125000Y-103125000D03*
D47*
X104380000Y-106830000D03*
D44*
X97850000Y-98275000D03*
X102875000Y-97925000D03*
X95250000Y-92925000D03*
X103550000Y-104825000D03*
D46*
%TO.N,M4_B*%
X100000000Y-83750000D03*
X99200000Y-83750000D03*
X100800000Y-84500000D03*
X100800000Y-85250000D03*
X99200000Y-84500000D03*
D47*
X98950000Y-90705000D03*
D46*
X100000000Y-84500000D03*
X100800000Y-83750000D03*
X100000000Y-85250000D03*
D47*
%TO.N,M4_GHB*%
X99450000Y-91095000D03*
D44*
X98050000Y-86250000D03*
%TO.N,M2_SIG*%
X99600000Y-97300000D03*
X104800000Y-104000000D03*
D45*
X99365000Y-96850000D03*
D47*
X108380000Y-105630000D03*
D46*
%TO.N,M4_A*%
X94200000Y-84500000D03*
X95800000Y-84500000D03*
X95800000Y-85250000D03*
X95000000Y-84500000D03*
X95800000Y-83750000D03*
D44*
X96725000Y-91050000D03*
D47*
X97005000Y-92650000D03*
D46*
X95000000Y-85250000D03*
X94200000Y-83750000D03*
X95000000Y-83750000D03*
D44*
%TO.N,M4_GHA*%
X93050000Y-86250000D03*
D47*
X97005000Y-93150000D03*
D44*
%TO.N,M4_CMP_A*%
X106875000Y-90625000D03*
X97007600Y-85417900D03*
X108740000Y-94200000D03*
X109175000Y-91950000D03*
D47*
%TO.N,M4_NEUTRAL*%
X107410000Y-94600000D03*
D44*
X108375000Y-93625000D03*
%TO.N,M2_VCP*%
X105350000Y-96565000D03*
%TO.N,M3_SNSP*%
X89025000Y-93085000D03*
%TO.N,M3_SNSN*%
X88475000Y-92225000D03*
D47*
%TO.N,M3_GHA*%
X93150000Y-102994999D03*
D44*
X86250000Y-106950000D03*
%TO.N,M1_CMP_A*%
X97250000Y-103900000D03*
X91260000Y-105800000D03*
X92725000Y-109025000D03*
D46*
%TO.N,M1_A*%
X105000000Y-116250000D03*
X105000000Y-114750000D03*
X105800000Y-116250000D03*
X104200000Y-116250000D03*
X105800000Y-115500000D03*
D44*
X103275000Y-108950000D03*
D46*
X105000000Y-115500000D03*
D47*
X102994999Y-107350000D03*
D46*
X104200000Y-114750000D03*
X104200000Y-115500000D03*
D44*
%TO.N,M1_GHA*%
X106950000Y-113750000D03*
D47*
X102994999Y-106850000D03*
D44*
%TO.N,M4_ISENSE*%
X108125000Y-91525000D03*
D47*
X105230000Y-95620000D03*
D44*
%TO.N,M3_VCP*%
X94650000Y-103435000D03*
%TO.N,M2_NEUTRAL*%
X106375000Y-108375000D03*
D47*
X105400000Y-107410000D03*
%TO.N,M2_IDRIVE*%
X107350000Y-102395000D03*
D44*
%TO.N,M1_CMP_C*%
X96000000Y-108550000D03*
D47*
X94370000Y-104820000D03*
%TO.N,M4_CMP_B*%
X106030000Y-95620000D03*
%TO.N,M4_CPH*%
X97005000Y-95150000D03*
%TO.N,M4_CPL*%
X97950000Y-96095000D03*
%TO.N,M2_GHB*%
X108905000Y-99450000D03*
D44*
X113750000Y-98050000D03*
D47*
%TO.N,M1_GHB*%
X100550000Y-108905000D03*
D44*
X101950000Y-113750000D03*
%TO.N,M3_GHB*%
X86250000Y-101950000D03*
D47*
X91095000Y-100550000D03*
D44*
%TO.N,M4_VCP*%
X96565000Y-94650000D03*
D47*
%TO.N,M1_NRST*%
X92150000Y-106600000D03*
%TO.N,M4_SWDIO*%
X103410000Y-92200000D03*
D44*
%TO.N,M1_SNSP*%
X93085000Y-110975000D03*
%TO.N,M1_SNSN*%
X92225000Y-111525000D03*
D47*
%TO.N,M1_NEUTRAL*%
X92590000Y-105400000D03*
D44*
X91625000Y-106375000D03*
D47*
%TO.N,M2_NRST*%
X106600000Y-107850000D03*
%TO.N,M3_SWDIO*%
X92200000Y-96590000D03*
%TO.N,M2_SWDIO*%
X107800000Y-103410000D03*
%TO.N,M4_NTC*%
X106430000Y-95180000D03*
D44*
X104975000Y-90675000D03*
D47*
%TO.N,M1_IDRIVE*%
X97605000Y-107350000D03*
%TO.N,M3_IDRIVE*%
X92650000Y-97605000D03*
%TO.N,M1_SWDIO*%
X96590000Y-107800000D03*
%TO.N,M1_SRC*%
X98550000Y-109294999D03*
D46*
X93100000Y-111800000D03*
X106600000Y-112200000D03*
X106600000Y-111300000D03*
X103100000Y-111800000D03*
X101600000Y-112200000D03*
X102500000Y-111850000D03*
X101600000Y-111300000D03*
X107500000Y-111850000D03*
D44*
X101800000Y-109735000D03*
D46*
X98100000Y-111800000D03*
X97500000Y-111850000D03*
D47*
%TO.N,M1_GLB*%
X101550000Y-108905000D03*
D44*
X101950000Y-113250000D03*
D46*
%TO.N,M4_SRC*%
X106900000Y-88200000D03*
D47*
X101450000Y-90705000D03*
D46*
X101900000Y-88200000D03*
X98400000Y-87800000D03*
X93400000Y-88700000D03*
X96900000Y-88200000D03*
X97500000Y-88150000D03*
X98400000Y-88700000D03*
X93400000Y-87800000D03*
X102500000Y-88150000D03*
X92500000Y-88150000D03*
D44*
X98200000Y-90265000D03*
%TO.N,M1_GLA*%
X106950000Y-113250000D03*
X107050000Y-109850000D03*
D47*
%TO.N,M1_GLC*%
X99050000Y-109294999D03*
D44*
X96950000Y-113250000D03*
D47*
%TO.N,M1_HA*%
X98550000Y-103905000D03*
X96150000Y-107400000D03*
%TO.N,M1_LA*%
X99050000Y-103905000D03*
X96590000Y-105400000D03*
%TO.N,M1_HB*%
X99550000Y-103905000D03*
X96590000Y-107000000D03*
%TO.N,M1_LB*%
X100050000Y-103905000D03*
X95570000Y-104380000D03*
%TO.N,M1_HC*%
X100550000Y-103905000D03*
X96150000Y-106600000D03*
%TO.N,M1_LC*%
X95170000Y-104820000D03*
X101050000Y-103905000D03*
D46*
%TO.N,M2_SRC*%
X111300000Y-98400000D03*
X111800000Y-96900000D03*
X111300000Y-93400000D03*
X111800000Y-101900000D03*
X111850000Y-97500000D03*
X111800000Y-106900000D03*
X112200000Y-98400000D03*
X111850000Y-92500000D03*
D47*
X109294999Y-101450000D03*
D44*
X109735000Y-98200000D03*
D46*
X111850000Y-102500000D03*
X112200000Y-93400000D03*
%TO.N,M3_SRC*%
X87800000Y-106600000D03*
X88150000Y-97500000D03*
D47*
X90705000Y-98550000D03*
D46*
X88700000Y-106600000D03*
X88200000Y-98100000D03*
X88150000Y-107500000D03*
X88200000Y-93100000D03*
X88200000Y-103100000D03*
X88700000Y-101600000D03*
X88150000Y-102500000D03*
X87800000Y-101600000D03*
D44*
X90265000Y-101800000D03*
%TO.N,M4_GLA*%
X93050000Y-86750000D03*
X92950000Y-90150000D03*
D47*
%TO.N,M4_GLB*%
X98450000Y-91095000D03*
D44*
X98050000Y-86750000D03*
%TO.N,M4_GLC*%
X103050000Y-86750000D03*
D47*
X100950000Y-90705000D03*
%TO.N,M4_HA*%
X103850000Y-92600000D03*
X101450000Y-96095000D03*
%TO.N,M4_LA*%
X100950000Y-96095000D03*
X103410000Y-94600000D03*
%TO.N,M4_HB*%
X103410000Y-93000000D03*
X100450000Y-96095000D03*
%TO.N,M4_LB*%
X104430000Y-95620000D03*
X99950000Y-96095000D03*
%TO.N,M4_HC*%
X99450000Y-96095000D03*
X103850000Y-93400000D03*
%TO.N,M4_LC*%
X104830000Y-95180000D03*
X98950000Y-96095000D03*
%TO.N,M3_GLC*%
X90705000Y-99050000D03*
D44*
X86750000Y-96950000D03*
D47*
%TO.N,M2_GLC*%
X109294999Y-100950000D03*
D44*
X113250000Y-103050000D03*
%TO.N,M3_GLA*%
X90150000Y-107050000D03*
X86750000Y-106950000D03*
%TO.N,M2_GLB*%
X113250000Y-98050000D03*
D47*
X108905000Y-98450000D03*
D44*
%TO.N,M2_GLA*%
X109850000Y-92950000D03*
X113250000Y-93050000D03*
D47*
%TO.N,M2_HA*%
X107400000Y-103850000D03*
X103905000Y-101450000D03*
%TO.N,M2_LA*%
X105400000Y-103410000D03*
X103905000Y-100950000D03*
%TO.N,M2_HB*%
X103905000Y-100450000D03*
X107000000Y-103410000D03*
%TO.N,M2_LB*%
X103905000Y-99950000D03*
X104380000Y-104430000D03*
%TO.N,M2_HC*%
X103905000Y-99450000D03*
X106600000Y-103850000D03*
%TO.N,M2_LC*%
X104820000Y-104830000D03*
X103905000Y-98950000D03*
D44*
%TO.N,M3_GLB*%
X86750000Y-101950000D03*
D47*
X91095000Y-101550000D03*
%TO.N,M3_HA*%
X92600000Y-96150000D03*
X96095000Y-98550000D03*
%TO.N,M3_LA*%
X96095000Y-99050000D03*
X94600000Y-96590000D03*
%TO.N,M3_HB*%
X96095000Y-99550000D03*
X93000000Y-96590000D03*
%TO.N,M3_LB*%
X95620000Y-95570000D03*
X96095000Y-100050000D03*
%TO.N,M3_HC*%
X93400000Y-96150000D03*
X96095000Y-100550000D03*
%TO.N,M3_LC*%
X96095000Y-101050000D03*
X95180000Y-95170000D03*
%TD*%
%TO.N,DRV_EN*%
D48*
X103275000Y-95200000D02*
X103275000Y-96200000D01*
X96725000Y-103800000D02*
X97000000Y-103525000D01*
X98600000Y-99575000D02*
X98475000Y-99575000D01*
X102425000Y-97150000D02*
X102075000Y-97500000D01*
X96975000Y-102650000D02*
X96975000Y-101400000D01*
X96325000Y-96975000D02*
X96325000Y-97425000D01*
X109459900Y-94546200D02*
X109459900Y-92789900D01*
X102425000Y-97100000D02*
X102425000Y-97150000D01*
X95200000Y-96725000D02*
X96200000Y-96725000D01*
X96687500Y-97787500D02*
X96687500Y-97917500D01*
X102875000Y-96650000D02*
X102425000Y-97100000D01*
X98050000Y-99175000D02*
X98075000Y-99175000D01*
X102075000Y-97500000D02*
X100875000Y-97500000D01*
X105462100Y-109465900D02*
X107672200Y-109465900D01*
X104015200Y-103275000D02*
X104015200Y-108019000D01*
X97000000Y-103525000D02*
X97000000Y-102675000D01*
X103275000Y-95782500D02*
X103489600Y-95997100D01*
X104800000Y-103275000D02*
X104015200Y-103275000D01*
X97146400Y-98376400D02*
X96855000Y-98085000D01*
X98600000Y-99775000D02*
X98600000Y-99575000D01*
X96350000Y-96875000D02*
X96350000Y-96950000D01*
X102950000Y-96650000D02*
X102875000Y-96650000D01*
X98075000Y-99175000D02*
X98200000Y-99300000D01*
X108009000Y-95997100D02*
X109459900Y-94546200D01*
X104015200Y-108019000D02*
X105462100Y-109465900D01*
X98475000Y-99575000D02*
X98200000Y-99300000D01*
X103099634Y-96375366D02*
X103000000Y-96475000D01*
X96725000Y-104800000D02*
X96725000Y-103800000D01*
X96350000Y-96950000D02*
X96325000Y-96975000D01*
X97600000Y-98725000D02*
X97600000Y-98700000D01*
X109459900Y-92789900D02*
X110151500Y-92098300D01*
X103000000Y-96475000D02*
X103000000Y-96625366D01*
X97000000Y-102675000D02*
X96975000Y-102650000D01*
X107672200Y-109465900D02*
X107883200Y-109676900D01*
X103275000Y-96200000D02*
X103099634Y-96375366D01*
X97150000Y-98275000D02*
X98050000Y-99175000D01*
X102950000Y-96650000D02*
X103000000Y-96600000D01*
X96200000Y-96725000D02*
X96375366Y-96900366D01*
X96687500Y-97917500D02*
X96855000Y-98085000D01*
X96325000Y-97425000D02*
X96700000Y-97800000D01*
X110151500Y-92098300D02*
X115268400Y-92098300D01*
X96975000Y-101400000D02*
X98350000Y-100025000D01*
X103489600Y-95997100D02*
X108009000Y-95997100D01*
%TO.N,GND*%
D49*
X91900000Y-112600000D02*
X91500000Y-112750000D01*
X104180000Y-94000000D02*
X105080000Y-94600000D01*
D48*
X90280000Y-90215000D02*
X90280000Y-90300000D01*
X90215000Y-109720000D02*
X90300000Y-109720000D01*
D49*
X87400000Y-91900000D02*
X87250000Y-91500000D01*
D48*
X109720000Y-109785000D02*
X109720000Y-109700000D01*
D49*
X112600000Y-108100000D02*
X112750000Y-108500000D01*
D48*
X101470000Y-101345000D02*
X101470000Y-102095000D01*
D49*
X106920000Y-93150000D02*
X106265000Y-93150000D01*
X108100000Y-87400000D02*
X108500000Y-87250000D01*
X87400000Y-91250000D02*
X87250000Y-91500000D01*
D48*
X99075000Y-104950000D02*
X99075000Y-104700000D01*
D49*
X94000000Y-95820000D02*
X94600000Y-94920000D01*
D48*
X95050000Y-99075000D02*
X95300000Y-99075000D01*
D49*
X91250000Y-112600000D02*
X91500000Y-112750000D01*
X106850000Y-106920000D02*
X106850000Y-106265000D01*
D48*
X100925000Y-95050000D02*
X100925000Y-95300000D01*
D49*
X108750000Y-87400000D02*
X108500000Y-87250000D01*
D48*
X109785000Y-90280000D02*
X109700000Y-90280000D01*
D49*
X106000000Y-104180000D02*
X105400000Y-105080000D01*
X93150000Y-93080000D02*
X93150000Y-93735000D01*
D48*
X104950000Y-100925000D02*
X104700000Y-100925000D01*
D49*
X112600000Y-108750000D02*
X112750000Y-108500000D01*
X103145000Y-102625000D02*
X103643000Y-102337000D01*
X95820000Y-106000000D02*
X94920000Y-105400000D01*
X93080000Y-106850000D02*
X93735000Y-106850000D01*
%TO.N,M2_DVDD*%
D50*
X111925000Y-108275000D02*
X111925000Y-107875000D01*
D48*
X111012000Y-109368000D02*
X110680000Y-109700000D01*
X104885000Y-102435000D02*
X105475000Y-103025000D01*
X106075000Y-107005000D02*
X105920000Y-106850000D01*
X105945000Y-107680000D02*
X105945000Y-107785000D01*
X110400000Y-109850000D02*
X110550000Y-109700000D01*
X104850000Y-102435000D02*
X104885000Y-102435000D01*
X106075000Y-107050000D02*
X106075000Y-107005000D01*
X104810000Y-102475000D02*
X104850000Y-102435000D01*
X106190000Y-103410000D02*
X106200000Y-103410000D01*
D50*
X106075000Y-107050000D02*
X106075000Y-107350000D01*
D48*
X104850000Y-102395000D02*
X104850000Y-102435000D01*
D50*
X105150000Y-102800000D02*
X105375000Y-103025000D01*
D48*
X105725000Y-103025000D02*
X105805000Y-103025000D01*
X106140000Y-107350000D02*
X106075000Y-107350000D01*
D50*
X106100000Y-107525000D02*
X105900000Y-107725000D01*
D48*
X104700000Y-102475000D02*
X104810000Y-102475000D01*
X106000000Y-103220000D02*
X106190000Y-103410000D01*
X112600000Y-107450000D02*
X112400000Y-107650000D01*
X106000000Y-107625000D02*
X106000000Y-107425000D01*
X110550000Y-109700000D02*
X110680000Y-109700000D01*
X112400000Y-107650000D02*
X112150000Y-107650000D01*
X105805000Y-103025000D02*
X106000000Y-103220000D01*
X105945000Y-107785000D02*
X105730000Y-108000000D01*
X111012000Y-109188000D02*
X111012000Y-109368000D01*
D50*
X110800000Y-109400000D02*
X111925000Y-108275000D01*
X111925000Y-107875000D02*
X112150000Y-107650000D01*
D48*
X106000000Y-107425000D02*
X106075000Y-107350000D01*
D50*
X105375000Y-103025000D02*
X105725000Y-103025000D01*
D48*
X106200000Y-107410000D02*
X106140000Y-107350000D01*
%TO.N,M2_NTC*%
X104962000Y-106572000D02*
X104820000Y-106430000D01*
X109390000Y-104910000D02*
X109450000Y-104910000D01*
X104962000Y-106637000D02*
X104962000Y-106572000D01*
X109325000Y-104975000D02*
X109390000Y-104910000D01*
X105013000Y-106688000D02*
X105118000Y-106688000D01*
X105118000Y-106688000D02*
X105280000Y-106850000D01*
X105050000Y-106725000D02*
X104875000Y-106550000D01*
%TO.N,M1_ISENSE*%
X92204000Y-108546000D02*
X92525000Y-108225000D01*
X92125000Y-108625000D02*
X92550000Y-108200000D01*
X92525000Y-108225000D02*
X92550000Y-108200000D01*
X92125000Y-108625000D02*
X92204000Y-108546000D01*
X91875000Y-108525000D02*
X91875000Y-108475000D01*
X92000000Y-108500000D02*
X92125000Y-108625000D01*
X92204000Y-108546000D02*
X92134000Y-108546000D01*
X91875000Y-108500000D02*
X92000000Y-108500000D01*
X92134000Y-108546000D02*
X91850000Y-108830000D01*
X92655000Y-108225000D02*
X92780000Y-108100000D01*
X92525000Y-108225000D02*
X92655000Y-108225000D01*
%TO.N,VBAT*%
D49*
X102430000Y-107270000D02*
X102625000Y-105950000D01*
D51*
X98445000Y-101995000D02*
X98520000Y-102070000D01*
D49*
X97570000Y-92730000D02*
X97375000Y-94050000D01*
X92730000Y-102430000D02*
X94050000Y-102625000D01*
X107270000Y-97570000D02*
X105950000Y-97375000D01*
D51*
X98520000Y-102070000D02*
X98520000Y-102095000D01*
D49*
X96950000Y-99575000D02*
X96737800Y-98782900D01*
%TO.N,M4_CMP_C*%
D48*
X104625000Y-92675000D02*
X104625000Y-92450000D01*
X102520000Y-91350000D02*
X102610000Y-91260000D01*
X102520000Y-91350000D02*
X102100000Y-91350000D01*
X103925000Y-91375000D02*
X103850000Y-91375000D01*
X104780000Y-92717500D02*
X104780000Y-92850000D01*
X104625000Y-92450000D02*
X104000000Y-91825000D01*
X102610000Y-91260000D02*
X102700000Y-91260000D01*
X102700000Y-91260000D02*
X102700000Y-91170000D01*
X103425000Y-91350000D02*
X102900000Y-91350000D01*
X102810000Y-91260000D02*
X102900000Y-91350000D01*
X102700000Y-91260000D02*
X102810000Y-91260000D01*
X104000000Y-91450000D02*
X103925000Y-91375000D01*
X103450000Y-91375000D02*
X103425000Y-91350000D01*
X102100000Y-91350000D02*
X101830000Y-91350000D01*
X101830000Y-91350000D02*
X101810000Y-91330000D01*
X103850000Y-91375000D02*
X103450000Y-91375000D01*
X104000000Y-91825000D02*
X104000000Y-91450000D01*
X104625000Y-92562500D02*
X104780000Y-92717500D01*
%TO.N,M2_CPH*%
D50*
X104850000Y-97005000D02*
X104835000Y-97020000D01*
X104835000Y-97020000D02*
X104450000Y-97020000D01*
%TO.N,M2_CPL*%
D48*
X103935000Y-97980000D02*
X104450000Y-97980000D01*
X103905000Y-97950000D02*
X103935000Y-97980000D01*
%TO.N,M2_A*%
D52*
X107350000Y-96925000D02*
X107375000Y-96900000D01*
X108950000Y-96725000D02*
X108825000Y-96850000D01*
X108950000Y-97025000D02*
X108325000Y-96400000D01*
X107675000Y-96600000D02*
X107375000Y-96900000D01*
X108775000Y-96850000D02*
X108825000Y-96850000D01*
X107350000Y-97005000D02*
X107350000Y-96925000D01*
X108325000Y-96400000D02*
X108125000Y-96600000D01*
X108525000Y-97450000D02*
X108950000Y-97025000D01*
X108125000Y-96600000D02*
X107675000Y-96600000D01*
X108290000Y-97680000D02*
X108525000Y-97450000D01*
%TO.N,M2_GHA*%
D49*
X113750000Y-94025000D02*
X113750000Y-93050000D01*
%TO.N,M2_C*%
D52*
X108975000Y-100625000D02*
X109150000Y-100450000D01*
X109294999Y-100450000D02*
X109150000Y-100450000D01*
X108670000Y-100790000D02*
X108835000Y-100625000D01*
X108835000Y-100625000D02*
X108975000Y-100625000D01*
%TO.N,M2_GHC*%
D49*
X113750000Y-104025000D02*
X113750000Y-103050000D01*
%TO.N,M2_CMP_C*%
D48*
X108650000Y-102525000D02*
X108740000Y-102610000D01*
X108740000Y-102610000D02*
X108740000Y-102700000D01*
X107282000Y-104780000D02*
X107150000Y-104780000D01*
X108740000Y-102810000D02*
X108650000Y-102900000D01*
X108740000Y-102700000D02*
X108830000Y-102700000D01*
X108625000Y-103925000D02*
X108625000Y-103850000D01*
X107438000Y-104625000D02*
X107282000Y-104780000D01*
X107550000Y-104625000D02*
X108175000Y-104000000D01*
X108650000Y-103425000D02*
X108650000Y-102900000D01*
X108625000Y-103450000D02*
X108650000Y-103425000D01*
X108650000Y-102525000D02*
X108650000Y-102100000D01*
X107325000Y-104625000D02*
X107550000Y-104625000D01*
X108650000Y-102100000D02*
X108650000Y-101830000D01*
X108550000Y-104000000D02*
X108625000Y-103925000D01*
X108175000Y-104000000D02*
X108550000Y-104000000D01*
X108740000Y-102700000D02*
X108740000Y-102810000D01*
X108650000Y-101830000D02*
X108670000Y-101810000D01*
X108625000Y-103850000D02*
X108625000Y-103450000D01*
%TO.N,M1_SWCLK*%
X95570000Y-108820000D02*
X95150000Y-108400000D01*
X95150000Y-108400000D02*
X95150000Y-108250000D01*
%TO.N,M3_A*%
D52*
X91710000Y-102320000D02*
X91475000Y-102550000D01*
X91475000Y-102550000D02*
X91050000Y-102975000D01*
X91675000Y-103600000D02*
X91875000Y-103400000D01*
X91225000Y-103150000D02*
X91175000Y-103150000D01*
X92325000Y-103400000D02*
X92625000Y-103100000D01*
X91050000Y-102975000D02*
X91675000Y-103600000D01*
X92650000Y-103075000D02*
X92625000Y-103100000D01*
X91875000Y-103400000D02*
X92325000Y-103400000D01*
X91050000Y-103275000D02*
X91175000Y-103150000D01*
X92650000Y-102994999D02*
X92650000Y-103075000D01*
%TO.N,M2_SWCLK*%
D48*
X108820000Y-104430000D02*
X108400000Y-104850000D01*
X108400000Y-104850000D02*
X108250000Y-104850000D01*
%TO.N,M3_CMP_C*%
X91350000Y-96575000D02*
X91350000Y-97100000D01*
X91375000Y-96075000D02*
X91375000Y-96150000D01*
X91350000Y-97480000D02*
X91260000Y-97390000D01*
X92450000Y-95375000D02*
X91825000Y-96000000D01*
X91260000Y-97300000D02*
X91260000Y-97190000D01*
X91375000Y-96150000D02*
X91375000Y-96550000D01*
X91260000Y-97190000D02*
X91350000Y-97100000D01*
X92717500Y-95220000D02*
X92850000Y-95220000D01*
X92675000Y-95375000D02*
X92450000Y-95375000D01*
X91450000Y-96000000D02*
X91375000Y-96075000D01*
X91260000Y-97390000D02*
X91260000Y-97300000D01*
X91825000Y-96000000D02*
X91450000Y-96000000D01*
X91375000Y-96550000D02*
X91350000Y-96575000D01*
X92562500Y-95375000D02*
X92717500Y-95220000D01*
X91260000Y-97300000D02*
X91170000Y-97300000D01*
X91350000Y-98170000D02*
X91330000Y-98190000D01*
X91350000Y-97480000D02*
X91350000Y-97900000D01*
X91350000Y-97900000D02*
X91350000Y-98170000D01*
%TO.N,M3_CPH*%
D50*
X95150000Y-102994999D02*
X95165000Y-102980000D01*
X95165000Y-102980000D02*
X95550000Y-102980000D01*
%TO.N,M3_CPL*%
D48*
X96095000Y-102050000D02*
X96065000Y-102020000D01*
X96065000Y-102020000D02*
X95550000Y-102020000D01*
%TO.N,M2_CMP_B*%
X104693000Y-106030000D02*
X104380000Y-106030000D01*
X108250000Y-102200000D02*
X108100000Y-102050000D01*
X107050000Y-104250000D02*
X107525000Y-104250000D01*
X108400000Y-102875000D02*
X108250000Y-102725000D01*
X108410000Y-98950000D02*
X108225000Y-99135000D01*
X106550000Y-105080000D02*
X106250000Y-105380000D01*
X107525000Y-104250000D02*
X108400000Y-103375000D01*
X105850000Y-105525000D02*
X105995000Y-105380000D01*
X105995000Y-105380000D02*
X106250000Y-105380000D01*
X108225000Y-99135000D02*
X108225000Y-99275000D01*
X105200000Y-105900000D02*
X105075000Y-105900000D01*
X108250000Y-102725000D02*
X108250000Y-102200000D01*
X105575000Y-105525000D02*
X105575000Y-105545000D01*
X108400000Y-103375000D02*
X108400000Y-102875000D01*
X105575000Y-105545000D02*
X105400000Y-105720000D01*
X104950000Y-106025000D02*
X104500000Y-106025000D01*
X106725000Y-104575000D02*
X107050000Y-104250000D01*
X105075000Y-105900000D02*
X104950000Y-106025000D01*
X106725000Y-104825000D02*
X106725000Y-104575000D01*
X108100000Y-99400000D02*
X108225000Y-99275000D01*
X108100000Y-102050000D02*
X108100000Y-99400000D01*
X106375000Y-105175000D02*
X106725000Y-104825000D01*
X106025000Y-105525000D02*
X105550000Y-105525000D01*
X105325000Y-105720000D02*
X105400000Y-105720000D01*
X105145000Y-105900000D02*
X105325000Y-105720000D01*
%TO.N,FC_GND*%
D53*
X108125000Y-113850000D02*
X107575000Y-114400000D01*
X108300000Y-113500000D02*
X108125000Y-113675000D01*
X107575000Y-114400000D02*
X107575000Y-115725000D01*
X108125000Y-113675000D02*
X108125000Y-113850000D01*
%TO.N,M1_DVDD*%
D48*
X96975000Y-105805000D02*
X96780000Y-106000000D01*
D50*
X92475000Y-106100000D02*
X92275000Y-105900000D01*
D48*
X92350000Y-112400000D02*
X92350000Y-112150000D01*
X97525000Y-104700000D02*
X97525000Y-104810000D01*
X92550000Y-112600000D02*
X92350000Y-112400000D01*
D50*
X97200000Y-105150000D02*
X96975000Y-105375000D01*
D48*
X92215000Y-105945000D02*
X92000000Y-105730000D01*
X92650000Y-106140000D02*
X92650000Y-106075000D01*
D50*
X91725000Y-111925000D02*
X92125000Y-111925000D01*
D48*
X96590000Y-106190000D02*
X96590000Y-106200000D01*
X97565000Y-104885000D02*
X96975000Y-105475000D01*
D50*
X92125000Y-111925000D02*
X92350000Y-112150000D01*
D48*
X92375000Y-106000000D02*
X92575000Y-106000000D01*
X90300000Y-110550000D02*
X90300000Y-110680000D01*
X96975000Y-105725000D02*
X96975000Y-105805000D01*
X97565000Y-104850000D02*
X97565000Y-104885000D01*
X96780000Y-106000000D02*
X96590000Y-106190000D01*
X90812000Y-111012000D02*
X90632500Y-111012000D01*
X97525000Y-104810000D02*
X97565000Y-104850000D01*
X97605000Y-104850000D02*
X97565000Y-104850000D01*
X92320000Y-105945000D02*
X92215000Y-105945000D01*
D50*
X92950000Y-106075000D02*
X92650000Y-106075000D01*
X90600000Y-110800000D02*
X91725000Y-111925000D01*
D48*
X92995000Y-106075000D02*
X93150000Y-105920000D01*
X90150000Y-110400000D02*
X90300000Y-110550000D01*
X92590000Y-106200000D02*
X92650000Y-106140000D01*
X92575000Y-106000000D02*
X92650000Y-106075000D01*
D50*
X96975000Y-105375000D02*
X96975000Y-105725000D01*
D48*
X90632500Y-111012000D02*
X90300000Y-110680000D01*
X92950000Y-106075000D02*
X92995000Y-106075000D01*
%TO.N,M1_NTC*%
X93312500Y-105118000D02*
X93150000Y-105280000D01*
X93275000Y-105050000D02*
X93450000Y-104875000D01*
X95090000Y-109390000D02*
X95090000Y-109450000D01*
X93363000Y-104962000D02*
X93427500Y-104962000D01*
X93427500Y-104962000D02*
X93570000Y-104820000D01*
X93312500Y-105012500D02*
X93312500Y-105118000D01*
X95025000Y-109325000D02*
X95090000Y-109390000D01*
%TO.N,M3_NEUTRAL*%
X92775000Y-93900000D02*
X92650000Y-93775000D01*
X92775000Y-94325000D02*
X92775000Y-93900000D01*
X93050000Y-94400000D02*
X93350000Y-94100000D01*
X92100000Y-93850000D02*
X91575000Y-93850000D01*
X91300000Y-93575000D02*
X91205000Y-93480000D01*
X93350000Y-94100000D02*
X93550000Y-94100000D01*
X92775000Y-94467500D02*
X92850000Y-94542500D01*
X92625000Y-93800000D02*
X92150000Y-93800000D01*
X91575000Y-93850000D02*
X91300000Y-93575000D01*
X92850000Y-94542500D02*
X92850000Y-94580000D01*
X92650000Y-91850000D02*
X92875000Y-91625000D01*
X93550000Y-94100000D02*
X93630000Y-94100000D01*
X92775000Y-94325000D02*
X92775000Y-94467500D01*
X92150000Y-93800000D02*
X92100000Y-93850000D01*
X92875000Y-91625000D02*
X93625000Y-91625000D01*
X92907500Y-94542500D02*
X93050000Y-94400000D01*
X92650000Y-93775000D02*
X92650000Y-91850000D01*
X92850000Y-94542500D02*
X92907500Y-94542500D01*
X93630000Y-94100000D02*
X93750000Y-93980000D01*
X91205000Y-93480000D02*
X91100000Y-93480000D01*
%TO.N,M1_VCP*%
D50*
X103352000Y-105267000D02*
X101758000Y-105267000D01*
X101758000Y-105267000D02*
X101075000Y-105950000D01*
X103435000Y-105350000D02*
X103352000Y-105267000D01*
%TO.N,M3_IOUT*%
D51*
X89925000Y-91250000D02*
X90563000Y-91250000D01*
D48*
X91163700Y-92382900D02*
X91450600Y-92669800D01*
X88639300Y-89777900D02*
X90550400Y-89777900D01*
X90382300Y-91785600D02*
X90979600Y-92382900D01*
X90550400Y-89777900D02*
X90734500Y-89962000D01*
X90979600Y-92382900D02*
X91163700Y-92382900D01*
X86095600Y-90250000D02*
X88167200Y-90250000D01*
X85631700Y-90713900D02*
X86095600Y-90250000D01*
X89925000Y-91250000D02*
X89600000Y-91250000D01*
X91450600Y-92669800D02*
X91450600Y-92970600D01*
X85631700Y-91648300D02*
X85631700Y-90713900D01*
X91450600Y-92970600D02*
X91900000Y-93420000D01*
X84680000Y-92600000D02*
X85631700Y-91648300D01*
X90382300Y-91250000D02*
X90382300Y-91785600D01*
X88167200Y-90250000D02*
X88639300Y-89777900D01*
X90734500Y-91078500D02*
X90563000Y-91250000D01*
X90734500Y-89962000D02*
X90734500Y-91078500D01*
%TO.N,CUR*%
X102550000Y-99050000D02*
X102500000Y-99050000D01*
X85345000Y-92625000D02*
X85320000Y-92600000D01*
X85550000Y-92625000D02*
X85345000Y-92625000D01*
X102075000Y-100500000D02*
X102075000Y-99800000D01*
X92625000Y-114425000D02*
X92600000Y-114450000D01*
X102500000Y-99050000D02*
X102200000Y-99350000D01*
X114450000Y-107375000D02*
X114400000Y-107375000D01*
X100850000Y-98050000D02*
X101200000Y-98050000D01*
X101250000Y-100025000D02*
X101625000Y-99650000D01*
X100300000Y-100350000D02*
X100625000Y-100025000D01*
X92625000Y-114450000D02*
X92625000Y-114400000D01*
X101628000Y-99802500D02*
X101925000Y-99505000D01*
X114655000Y-107375000D02*
X114680000Y-107400000D01*
X101200000Y-98050000D02*
X101270000Y-98120000D01*
X102045000Y-99505000D02*
X102200000Y-99350000D01*
X101925000Y-99505000D02*
X102045000Y-99505000D01*
X102900000Y-98700000D02*
X102550000Y-99050000D01*
X107400000Y-85550000D02*
X107400000Y-85320000D01*
X92600000Y-114450000D02*
X92600000Y-114680000D01*
X101472500Y-99802500D02*
X101628000Y-99802500D01*
X99800000Y-98050000D02*
X100850000Y-98050000D01*
X85550000Y-92625000D02*
X85600000Y-92625000D01*
X102075000Y-99655000D02*
X102075000Y-99800000D01*
X107375000Y-85575000D02*
X107400000Y-85550000D01*
X100625000Y-100025000D02*
X101250000Y-100025000D01*
X101925000Y-99505000D02*
X102075000Y-99655000D01*
X114450000Y-107375000D02*
X114655000Y-107375000D01*
X107375000Y-85550000D02*
X107375000Y-85600000D01*
%TO.N,M2_SNSP*%
D51*
X110075000Y-107450000D02*
X109990000Y-107450000D01*
D48*
X110977000Y-107450000D02*
X110975000Y-106915000D01*
X110400000Y-107450000D02*
X110977000Y-107450000D01*
X110075000Y-107450000D02*
X110400000Y-107450000D01*
%TO.N,M2_SNSN*%
X110575000Y-107925000D02*
X111375000Y-107925000D01*
X110400000Y-108100000D02*
X110575000Y-107925000D01*
X111375000Y-107925000D02*
X111525000Y-107775000D01*
%TO.N,M2_IOUT*%
X109020000Y-107617000D02*
X108836000Y-107617000D01*
X109450000Y-110222000D02*
X109266000Y-110038000D01*
X109266000Y-108922000D02*
X109437000Y-108750000D01*
X109266000Y-110038000D02*
X109266000Y-108922000D01*
X115320000Y-107400000D02*
X114368000Y-108352000D01*
X108549000Y-107330000D02*
X108549000Y-107029000D01*
X111361000Y-110222000D02*
X109450000Y-110222000D01*
X108549000Y-107029000D02*
X108100000Y-106580000D01*
X114368000Y-108352000D02*
X114368000Y-109286000D01*
X109618000Y-108750000D02*
X109618000Y-108214000D01*
X111833000Y-109750000D02*
X111361000Y-110222000D01*
X110075000Y-108750000D02*
X110400000Y-108750000D01*
X109618000Y-108214000D02*
X109020000Y-107617000D01*
X114368000Y-109286000D02*
X113904000Y-109750000D01*
D51*
X110075000Y-108750000D02*
X109437000Y-108750000D01*
D48*
X113904000Y-109750000D02*
X111833000Y-109750000D01*
X108836000Y-107617000D02*
X108549000Y-107330000D01*
%TO.N,M3_CMP_A*%
X90431800Y-93268200D02*
X90431800Y-93398200D01*
X90431800Y-93398200D02*
X90402500Y-93427500D01*
X86878400Y-102325000D02*
X85418600Y-102325000D01*
X90915200Y-93940200D02*
X91100000Y-94120000D01*
X88854100Y-102320000D02*
X88632400Y-102098000D01*
X90690000Y-102320000D02*
X90810000Y-102200000D01*
X90810000Y-102200000D02*
X90975000Y-102200000D01*
X90475000Y-93225000D02*
X90600000Y-93100000D01*
X87105000Y-102098000D02*
X86878400Y-102325000D01*
X90402500Y-93427500D02*
X90915200Y-93940200D01*
X90690000Y-102320000D02*
X88854100Y-102320000D01*
X88632400Y-102098000D02*
X87105000Y-102098000D01*
X90402500Y-93427500D02*
X90300000Y-93530000D01*
X90600000Y-93100000D02*
X90625000Y-93100000D01*
%TO.N,M4_C*%
D52*
X100450000Y-90850000D02*
X100450000Y-90705000D01*
X100790000Y-91330000D02*
X100625000Y-91165000D01*
X100625000Y-91025000D02*
X100450000Y-90850000D01*
X100625000Y-91165000D02*
X100625000Y-91025000D01*
%TO.N,M2_CMP_A*%
D48*
X109598000Y-106572000D02*
X109700000Y-106470000D01*
X113122000Y-97675000D02*
X114582000Y-97675000D01*
X109310000Y-97680000D02*
X109190000Y-97800000D01*
X109310000Y-97680000D02*
X111146000Y-97680000D01*
X111368000Y-97901700D02*
X112895000Y-97901700D01*
X109536000Y-106511000D02*
X109598000Y-106572000D01*
X109500000Y-106750000D02*
X109375000Y-106875000D01*
X109084800Y-106059800D02*
X108900000Y-105880000D01*
X109568000Y-106602000D02*
X109598000Y-106572000D01*
X109475000Y-106450000D02*
X109084800Y-106059800D01*
X109475000Y-106450000D02*
X109536000Y-106511000D01*
X109190000Y-97800000D02*
X109025000Y-97800000D01*
X109375000Y-106875000D02*
X109350000Y-106875000D01*
X112895000Y-97901700D02*
X113122000Y-97675000D01*
X111146000Y-97680000D02*
X111368000Y-97901700D01*
X109568000Y-106732000D02*
X109568000Y-106602000D01*
%TO.N,M4_NRST*%
X107880000Y-93370000D02*
X107880000Y-93150000D01*
X107850000Y-93400000D02*
X107880000Y-93370000D01*
%TO.N,M3_C*%
D52*
X91330000Y-99210000D02*
X91165000Y-99375000D01*
X91165000Y-99375000D02*
X91025000Y-99375000D01*
X90705000Y-99550000D02*
X90850000Y-99550000D01*
X91025000Y-99375000D02*
X90850000Y-99550000D01*
%TO.N,M3_GHC*%
D49*
X86250000Y-95975000D02*
X86250000Y-96950000D01*
%TO.N,M4_DVDD*%
D50*
X103025000Y-94625000D02*
X103025000Y-94275000D01*
D48*
X107650000Y-87600000D02*
X107650000Y-87850000D01*
X107350000Y-93860000D02*
X107350000Y-93925000D01*
X103220000Y-94000000D02*
X103410000Y-93810000D01*
X107410000Y-93800000D02*
X107350000Y-93860000D01*
X102435000Y-95115100D02*
X103025000Y-94525100D01*
D50*
X107525000Y-93900000D02*
X107725000Y-94100000D01*
X102800000Y-94850000D02*
X103025000Y-94625000D01*
D48*
X103410000Y-93810000D02*
X103410000Y-93800000D01*
D50*
X108275000Y-88075000D02*
X107875000Y-88075000D01*
D48*
X102395000Y-95150000D02*
X102435000Y-95150000D01*
X109278000Y-88987500D02*
X109368000Y-88987500D01*
X107425000Y-94000000D02*
X107350000Y-93925000D01*
X109850000Y-89600000D02*
X109700000Y-89450000D01*
X107625000Y-94000000D02*
X107425000Y-94000000D01*
X107450000Y-87400000D02*
X107650000Y-87600000D01*
D50*
X109400000Y-89200000D02*
X108275000Y-88075000D01*
D48*
X103025000Y-94195000D02*
X103220000Y-94000000D01*
D50*
X107050000Y-93925000D02*
X107350000Y-93925000D01*
D48*
X109368000Y-88987500D02*
X109700000Y-89320000D01*
X107050000Y-93925000D02*
X107005000Y-93925000D01*
X103025000Y-94275000D02*
X103025000Y-94195000D01*
X107785000Y-94055000D02*
X108000000Y-94270000D01*
X107005000Y-93925000D02*
X106850000Y-94080000D01*
D50*
X107875000Y-88075000D02*
X107650000Y-87850000D01*
D48*
X109233000Y-88987500D02*
X109210300Y-89010200D01*
X109278000Y-88987500D02*
X109233000Y-89032700D01*
X109233000Y-88987500D02*
X109278000Y-88987500D01*
X102475000Y-95190000D02*
X102435000Y-95150000D01*
X102435000Y-95150000D02*
X102435000Y-95115100D01*
X109700000Y-89450000D02*
X109700000Y-89320000D01*
X107680000Y-94055000D02*
X107785000Y-94055000D01*
X102475000Y-95300000D02*
X102475000Y-95190000D01*
%TO.N,M4_SNSP*%
X107450000Y-89925000D02*
X107450000Y-89600000D01*
X107450000Y-89023300D02*
X106915000Y-89025000D01*
X107450000Y-89600000D02*
X107450000Y-89023300D01*
D51*
X107450000Y-89925000D02*
X107450000Y-90009999D01*
%TO.N,M4_SNSN*%
D48*
X108100000Y-89023300D02*
X108048000Y-89023300D01*
X107925000Y-89175000D02*
X107925000Y-88900000D01*
X107925000Y-88900000D02*
X107925000Y-88625000D01*
X108048000Y-89023300D02*
X107925000Y-88900000D01*
X108100000Y-89600000D02*
X108100000Y-89023300D01*
X107925000Y-88625000D02*
X107775000Y-88475000D01*
%TO.N,M4_IOUT*%
X108922000Y-90734500D02*
X108750000Y-90563000D01*
X108750000Y-89925000D02*
X108750000Y-89600000D01*
X107617000Y-90979600D02*
X107617000Y-91163700D01*
X110222000Y-90550400D02*
X110038000Y-90734500D01*
X110038000Y-90734500D02*
X108922000Y-90734500D01*
X108214000Y-90382300D02*
X107617000Y-90979600D01*
X107330000Y-91450600D02*
X107029000Y-91450600D01*
X109750000Y-88167200D02*
X110222000Y-88639300D01*
X107029000Y-91450600D02*
X106580000Y-91900000D01*
X107400000Y-84680000D02*
X108352000Y-85631700D01*
D51*
X108750000Y-89925000D02*
X108750000Y-90563000D01*
D48*
X110222000Y-88639300D02*
X110222000Y-90550400D01*
X108750000Y-90382300D02*
X108214000Y-90382300D01*
X108352000Y-85631700D02*
X109286000Y-85631700D01*
X107617000Y-91163700D02*
X107330000Y-91450600D01*
X109286000Y-85631700D02*
X109750000Y-86095600D01*
X109750000Y-86095600D02*
X109750000Y-88167200D01*
%TO.N,M1_CMP_B*%
X94825000Y-106375000D02*
X95175000Y-106725000D01*
X96625000Y-108400000D02*
X97125000Y-108400000D01*
X94475000Y-105575000D02*
X94454800Y-105575000D01*
X94920000Y-106550000D02*
X94620000Y-106250000D01*
X100865000Y-108225000D02*
X100725000Y-108225000D01*
X93975000Y-104950000D02*
X93975000Y-104500000D01*
X94620000Y-105995000D02*
X94620000Y-106250000D01*
X95425000Y-106725000D02*
X95750000Y-107050000D01*
X94280000Y-105325000D02*
X94280000Y-105400000D01*
X95750000Y-107050000D02*
X95750000Y-107525000D01*
X97125000Y-108400000D02*
X97275000Y-108250000D01*
X93970000Y-104693000D02*
X93970000Y-104380000D01*
X94100000Y-105145000D02*
X94280000Y-105325000D01*
X101050000Y-108410000D02*
X100865000Y-108225000D01*
X95175000Y-106725000D02*
X95425000Y-106725000D01*
X94100000Y-105200000D02*
X94100000Y-105075000D01*
X97275000Y-108250000D02*
X97800000Y-108250000D01*
X97800000Y-108250000D02*
X97950000Y-108100000D01*
X94454800Y-105575000D02*
X94280000Y-105400000D01*
X94475000Y-106025000D02*
X94475000Y-105550000D01*
X94475000Y-105850000D02*
X94620000Y-105995000D01*
X100600000Y-108100000D02*
X100725000Y-108225000D01*
X94100000Y-105075000D02*
X93975000Y-104950000D01*
X95750000Y-107525000D02*
X96625000Y-108400000D01*
X97950000Y-108100000D02*
X100600000Y-108100000D01*
%TO.N,M3_DVDD*%
X87600000Y-92350000D02*
X87850000Y-92350000D01*
X94275000Y-96975000D02*
X94195000Y-96975000D01*
X93925000Y-92950000D02*
X93925000Y-92995000D01*
D50*
X93925000Y-92950000D02*
X93925000Y-92650000D01*
D48*
X89450000Y-90300000D02*
X89320000Y-90300000D01*
D50*
X88075000Y-92125000D02*
X87850000Y-92350000D01*
X89200000Y-90600000D02*
X88075000Y-91725000D01*
D48*
X93925000Y-92995000D02*
X94080000Y-93150000D01*
D50*
X94850000Y-97200000D02*
X94625000Y-96975000D01*
D48*
X89600000Y-90150000D02*
X89450000Y-90300000D01*
X93860000Y-92650000D02*
X93925000Y-92650000D01*
X95115100Y-97565000D02*
X94525100Y-96975000D01*
X94055000Y-92215000D02*
X94270000Y-92000000D01*
X94000000Y-92375000D02*
X94000000Y-92575000D01*
X95150000Y-97605000D02*
X95150000Y-97565000D01*
X95150000Y-97565000D02*
X95115100Y-97565000D01*
X94000000Y-96780000D02*
X93810000Y-96590000D01*
X94000000Y-92575000D02*
X93925000Y-92650000D01*
X94195000Y-96975000D02*
X94000000Y-96780000D01*
D50*
X93900000Y-92475000D02*
X94100000Y-92275000D01*
D48*
X93800000Y-92590000D02*
X93860000Y-92650000D01*
X87400000Y-92550000D02*
X87600000Y-92350000D01*
X95190000Y-97525000D02*
X95150000Y-97565000D01*
X95300000Y-97525000D02*
X95190000Y-97525000D01*
D50*
X88075000Y-91725000D02*
X88075000Y-92125000D01*
D48*
X93810000Y-96590000D02*
X93800000Y-96590000D01*
X88987500Y-90812500D02*
X88987500Y-90632500D01*
X94055000Y-92320000D02*
X94055000Y-92215000D01*
D50*
X94625000Y-96975000D02*
X94275000Y-96975000D01*
D48*
X88987500Y-90632500D02*
X89320000Y-90300000D01*
%TO.N,M3_NTC*%
X90610000Y-95090000D02*
X90550000Y-95090000D01*
X94882500Y-93312500D02*
X94720000Y-93150000D01*
X95037500Y-93362500D02*
X95037500Y-93427500D01*
X90675000Y-95025000D02*
X90610000Y-95090000D01*
X95037500Y-93427500D02*
X95180000Y-93570000D01*
X94987500Y-93312500D02*
X94882500Y-93312500D01*
X94950000Y-93275000D02*
X95125000Y-93450000D01*
%TO.N,M1_CPH*%
D50*
X102994999Y-104850000D02*
X102980000Y-104835000D01*
X102980000Y-104835000D02*
X102980000Y-104450000D01*
%TO.N,M1_CPL*%
D48*
X102050000Y-103905000D02*
X102020000Y-103935000D01*
X102020000Y-103935000D02*
X102020000Y-104450000D01*
%TO.N,M3_B*%
D52*
X90570000Y-101050000D02*
X90705000Y-101050000D01*
%TO.N,M3_CMP_B*%
D48*
X94674800Y-94280000D02*
X94600000Y-94280000D01*
X93975000Y-94475000D02*
X94450000Y-94475000D01*
X94800000Y-94100000D02*
X94925000Y-94100000D01*
X94150000Y-94475000D02*
X94005000Y-94620000D01*
X94854800Y-94100000D02*
X94674800Y-94280000D01*
X91600000Y-97125000D02*
X91750000Y-97275000D01*
X93625000Y-94825000D02*
X93275000Y-95175000D01*
X95050000Y-93975000D02*
X95500000Y-93975000D01*
X91600000Y-96625000D02*
X91600000Y-97125000D01*
X91590000Y-101050000D02*
X91775000Y-100865000D01*
X92475000Y-95750000D02*
X91600000Y-96625000D01*
X91750000Y-97275000D02*
X91750000Y-97800000D01*
X91750000Y-97800000D02*
X91900000Y-97950000D01*
X94425200Y-94454800D02*
X94600000Y-94280000D01*
X93450000Y-94920000D02*
X93750000Y-94620000D01*
X92950000Y-95750000D02*
X92475000Y-95750000D01*
X93275000Y-95175000D02*
X93275000Y-95425000D01*
X94425200Y-94475000D02*
X94425200Y-94454800D01*
X95306600Y-93970000D02*
X95620000Y-93970000D01*
X94005000Y-94620000D02*
X93750000Y-94620000D01*
X91900000Y-97950000D02*
X91900000Y-100600000D01*
X94925000Y-94100000D02*
X95050000Y-93975000D01*
X91900000Y-100600000D02*
X91775000Y-100725000D01*
X91775000Y-100865000D02*
X91775000Y-100725000D01*
X93275000Y-95425000D02*
X92950000Y-95750000D01*
%TO.N,M4_IDRIVE*%
X102395000Y-92650000D02*
X102020000Y-92650000D01*
%TO.N,M3_NRST*%
X93370000Y-92120000D02*
X93150000Y-92120000D01*
X93400000Y-92150000D02*
X93370000Y-92120000D01*
%TO.N,M3_SWCLK*%
X91600000Y-95150000D02*
X91750000Y-95150000D01*
X91180000Y-95570000D02*
X91600000Y-95150000D01*
%TO.N,M4_SIG*%
X102350000Y-96625000D02*
X102250000Y-96725000D01*
%TO.N,M1_B*%
D52*
X101050000Y-109430000D02*
X101050000Y-109294999D01*
%TO.N,M2_ISENSE*%
D48*
X108500000Y-108000000D02*
X108625000Y-107875000D01*
X108225000Y-107345000D02*
X108100000Y-107220000D01*
X108500000Y-108125000D02*
X108500000Y-108000000D01*
X108625000Y-107875000D02*
X108200000Y-107450000D01*
X108525000Y-108125000D02*
X108475000Y-108125000D01*
X108546000Y-107866000D02*
X108830000Y-108150000D01*
X108225000Y-107475000D02*
X108225000Y-107345000D01*
%TO.N,M2_B*%
D52*
X109430000Y-98950000D02*
X109294999Y-98950000D01*
%TO.N,M1_C*%
X99210000Y-108670000D02*
X99375000Y-108835000D01*
X99375000Y-108835000D02*
X99375000Y-108975000D01*
X99550000Y-109294999D02*
X99550000Y-109150000D01*
X99375000Y-108975000D02*
X99550000Y-109150000D01*
%TO.N,M1_GHC*%
D49*
X95975000Y-113750000D02*
X96950000Y-113750000D01*
%TO.N,M3_ISENSE*%
D48*
X91454000Y-92134000D02*
X91170000Y-91850000D01*
X91500000Y-91875000D02*
X91500000Y-92000000D01*
X91375000Y-92125000D02*
X91800000Y-92550000D01*
X91475000Y-91875000D02*
X91525000Y-91875000D01*
X91775000Y-92525000D02*
X91775000Y-92655000D01*
X91500000Y-92000000D02*
X91375000Y-92125000D01*
X91775000Y-92655000D02*
X91900000Y-92780000D01*
%TO.N,M4_GHC*%
D49*
X104025000Y-86250000D02*
X103050000Y-86250000D01*
%TO.N,M3_SIG*%
D48*
X98425000Y-97550000D02*
X98500000Y-97475000D01*
X99250000Y-97475000D02*
X99450000Y-97675000D01*
X99725000Y-97675000D02*
X100325000Y-97075000D01*
X98500000Y-97475000D02*
X99250000Y-97475000D01*
X99450000Y-97675000D02*
X99725000Y-97675000D01*
X100550000Y-96850000D02*
X100325000Y-97075000D01*
X97650000Y-97550000D02*
X98425000Y-97550000D01*
X100635000Y-96850000D02*
X100550000Y-96850000D01*
%TO.N,M4_SWCLK*%
X104430000Y-91180000D02*
X104850000Y-91600000D01*
X104850000Y-91600000D02*
X104850000Y-91750000D01*
%TO.N,ESC_VSENSE*%
X97850000Y-98275000D02*
X98000000Y-98275000D01*
X98000000Y-98275000D02*
X98475000Y-98750000D01*
X103250000Y-103625000D02*
X103145000Y-103520000D01*
X103250000Y-103775000D02*
X103250000Y-103475000D01*
X103125000Y-100650000D02*
X103125000Y-101000000D01*
X98475000Y-98750000D02*
X102300000Y-98750000D01*
X103145000Y-103520000D02*
X103145000Y-103265000D01*
X102875000Y-97925000D02*
X102875000Y-98085000D01*
X103337000Y-98216700D02*
X103205000Y-98085000D01*
X103165000Y-100615000D02*
X103337000Y-100443000D01*
X102300000Y-98750000D02*
X102875000Y-98175000D01*
X102875000Y-98085000D02*
X102875000Y-98175000D01*
X103337000Y-100443000D02*
X103337000Y-98216700D01*
X102875000Y-98085000D02*
X103205000Y-98085000D01*
%TO.N,M4_B*%
D52*
X98950000Y-90570000D02*
X98950000Y-90705000D01*
%TO.N,M4_GHB*%
D49*
X99025000Y-86250000D02*
X98050000Y-86250000D01*
%TO.N,M2_SIG*%
D48*
X99600000Y-97300000D02*
X99500000Y-97200000D01*
%TO.N,M4_A*%
D52*
X96725000Y-91050000D02*
X96850000Y-91175000D01*
X96600000Y-91875000D02*
X96600000Y-92325000D01*
X96850000Y-91225000D02*
X96850000Y-91175000D01*
X96400000Y-91675000D02*
X96600000Y-91875000D01*
X97450000Y-91480000D02*
X97025000Y-91050000D01*
X97680000Y-91710000D02*
X97450000Y-91480000D01*
X96600000Y-92325000D02*
X96900000Y-92625000D01*
X96925000Y-92650000D02*
X96900000Y-92625000D01*
X97025000Y-91050000D02*
X96400000Y-91675000D01*
X97005000Y-92650000D02*
X96925000Y-92650000D01*
%TO.N,M4_GHA*%
D49*
X94025000Y-86250000D02*
X93050000Y-86250000D01*
%TO.N,M4_CMP_A*%
D48*
X97007600Y-86502000D02*
X97007600Y-85417900D01*
X97901700Y-87396100D02*
X97007600Y-86502000D01*
X106450000Y-90525000D02*
X106572000Y-90402500D01*
X106875000Y-90600000D02*
X106875000Y-90625000D01*
X106750000Y-90475000D02*
X106875000Y-90600000D01*
X97680000Y-90690000D02*
X97800000Y-90810000D01*
X97901700Y-88632400D02*
X97901700Y-87396100D01*
X97680000Y-90690000D02*
X97680000Y-88854100D01*
X106732000Y-90431800D02*
X106602000Y-90431800D01*
X97800000Y-90810000D02*
X97800000Y-90975000D01*
X106602000Y-90431800D02*
X106572000Y-90402500D01*
X106572000Y-90402500D02*
X106470000Y-90300000D01*
X97680000Y-88854100D02*
X97901700Y-88632400D01*
X105880000Y-91095000D02*
X106450000Y-90525000D01*
%TO.N,M4_NEUTRAL*%
X106100000Y-92775000D02*
X106225000Y-92650000D01*
X106225000Y-92650000D02*
X108150000Y-92650000D01*
X106425000Y-91300000D02*
X106520000Y-91205000D01*
X106150000Y-91575000D02*
X106425000Y-91300000D01*
X105900000Y-93550000D02*
X105900000Y-93630000D01*
X106520000Y-91205000D02*
X106520000Y-91100000D01*
X106200000Y-92150000D02*
X106150000Y-92100000D01*
X106200000Y-92625000D02*
X106200000Y-92150000D01*
X105458000Y-92850000D02*
X105420000Y-92850000D01*
X105458000Y-92850000D02*
X105458000Y-92907500D01*
X106150000Y-92100000D02*
X106150000Y-91575000D01*
X105458000Y-92907500D02*
X105600000Y-93050000D01*
X105900000Y-93350000D02*
X105900000Y-93550000D01*
X105900000Y-93630000D02*
X106020000Y-93750000D01*
X105675000Y-92775000D02*
X105532000Y-92775000D01*
X105532000Y-92775000D02*
X105458000Y-92850000D01*
X105675000Y-92775000D02*
X106100000Y-92775000D01*
X105600000Y-93050000D02*
X105900000Y-93350000D01*
X108150000Y-92650000D02*
X108375000Y-92875000D01*
X108375000Y-92875000D02*
X108375000Y-93625000D01*
%TO.N,M1_IOUT*%
X90713900Y-114368000D02*
X90250000Y-113904000D01*
X91648300Y-114368000D02*
X90713900Y-114368000D01*
X90250000Y-113904000D02*
X90250000Y-111833000D01*
X89777900Y-111361000D02*
X89777900Y-109450000D01*
D51*
X91250000Y-110075000D02*
X91250000Y-109437000D01*
D48*
X91078500Y-109266000D02*
X91250000Y-109437000D01*
X92970600Y-108549000D02*
X93420000Y-108100000D01*
X90250000Y-111833000D02*
X89777900Y-111361000D01*
X92600000Y-115320000D02*
X91648300Y-114368000D01*
X91250000Y-109618000D02*
X91785600Y-109618000D01*
X92382900Y-108836000D02*
X92669800Y-108549000D01*
X92669800Y-108549000D02*
X92970600Y-108549000D01*
X89777900Y-109450000D02*
X89962000Y-109266000D01*
X92382900Y-109020000D02*
X92382900Y-108836000D01*
X91250000Y-110075000D02*
X91250000Y-110400000D01*
X89962000Y-109266000D02*
X91078500Y-109266000D01*
X91785600Y-109618000D02*
X92382900Y-109020000D01*
%TO.N,M2_VCP*%
D50*
X105350000Y-96565000D02*
X105267000Y-96647600D01*
X105267000Y-96647600D02*
X105267000Y-98242400D01*
X105267000Y-98242400D02*
X105950000Y-98925000D01*
%TO.N,M3_SNSP*%
D51*
X89925000Y-92550000D02*
X90009999Y-92550000D01*
D48*
X89925000Y-92550000D02*
X89600000Y-92550000D01*
X89600000Y-92550000D02*
X89023300Y-92550000D01*
X89023300Y-92550000D02*
X89025000Y-93085000D01*
%TO.N,M3_SNSN*%
X89425000Y-92075000D02*
X88625000Y-92075000D01*
X88625000Y-92075000D02*
X88475000Y-92225000D01*
X89600000Y-91900000D02*
X89425000Y-92075000D01*
%TO.N,M3_GHA*%
D49*
X86250000Y-105975000D02*
X86250000Y-106950000D01*
%TO.N,M1_CMP_A*%
D48*
X97900000Y-104000000D02*
X98400000Y-104500000D01*
X93550000Y-109475000D02*
X93427500Y-109598000D01*
X101750000Y-108325000D02*
X101750000Y-108575000D01*
X101025000Y-107925000D02*
X101350000Y-107925000D01*
X93398200Y-109568000D02*
X93427500Y-109598000D01*
X93275000Y-109575000D02*
X92725000Y-109025000D01*
X93950000Y-109075000D02*
X94120000Y-108905000D01*
X98400000Y-104500000D02*
X98400000Y-105300000D01*
X98400000Y-105300000D02*
X101025000Y-107925000D01*
X93268200Y-109568000D02*
X93398200Y-109568000D01*
X101750000Y-108575000D02*
X102200000Y-109025000D01*
X93427500Y-109598000D02*
X93530000Y-109700000D01*
X97350000Y-104000000D02*
X97900000Y-104000000D01*
X102200000Y-109190000D02*
X102200000Y-109025000D01*
X93950000Y-109075000D02*
X93550000Y-109475000D01*
X101350000Y-107925000D02*
X101750000Y-108325000D01*
X102320000Y-109310000D02*
X102200000Y-109190000D01*
X97250000Y-103900000D02*
X97350000Y-104000000D01*
%TO.N,M1_A*%
D52*
X102994999Y-107350000D02*
X103075000Y-107350000D01*
X103400000Y-107675000D02*
X103100000Y-107375000D01*
X103150000Y-108775000D02*
X103150000Y-108825000D01*
X102550000Y-108525000D02*
X102975000Y-108950000D01*
X102975000Y-108950000D02*
X103600000Y-108325000D01*
X102320000Y-108290000D02*
X102550000Y-108525000D01*
X103075000Y-107350000D02*
X103100000Y-107375000D01*
X103600000Y-108325000D02*
X103400000Y-108125000D01*
X103400000Y-108125000D02*
X103400000Y-107675000D01*
X103275000Y-108950000D02*
X103150000Y-108825000D01*
%TO.N,M1_GHA*%
D49*
X105975000Y-113750000D02*
X106950000Y-113750000D01*
%TO.N,M4_ISENSE*%
D48*
X108125000Y-91500000D02*
X108000000Y-91500000D01*
X107866000Y-91454000D02*
X108150000Y-91170000D01*
X107875000Y-91375000D02*
X107450000Y-91800000D01*
X108125000Y-91475000D02*
X108125000Y-91525000D01*
X107345000Y-91775000D02*
X107220000Y-91900000D01*
X107475000Y-91775000D02*
X107345000Y-91775000D01*
X108000000Y-91500000D02*
X107875000Y-91375000D01*
%TO.N,M3_VCP*%
D50*
X94732600Y-101758000D02*
X94050000Y-101075000D01*
X94732600Y-103352000D02*
X94732600Y-101758000D01*
X94650000Y-103435000D02*
X94732600Y-103352000D01*
%TO.N,M2_NEUTRAL*%
D48*
X108425000Y-106150000D02*
X108700000Y-106425000D01*
X107225000Y-105675000D02*
X107225000Y-105532000D01*
X108700000Y-106425000D02*
X108795000Y-106520000D01*
X107150000Y-105458000D02*
X107092000Y-105458000D01*
X108795000Y-106520000D02*
X108900000Y-106520000D01*
X107350000Y-108150000D02*
X107125000Y-108375000D01*
X106950000Y-105600000D02*
X106650000Y-105900000D01*
X106650000Y-105900000D02*
X106450000Y-105900000D01*
X107850000Y-106200000D02*
X107900000Y-106150000D01*
X107225000Y-105532000D02*
X107150000Y-105458000D01*
X107225000Y-105675000D02*
X107225000Y-106100000D01*
X107350000Y-106225000D02*
X107350000Y-108150000D01*
X106450000Y-105900000D02*
X106370000Y-105900000D01*
X107150000Y-105458000D02*
X107150000Y-105420000D01*
X107092000Y-105458000D02*
X106950000Y-105600000D01*
X107125000Y-108375000D02*
X106375000Y-108375000D01*
X107900000Y-106150000D02*
X108425000Y-106150000D01*
X107225000Y-106100000D02*
X107350000Y-106225000D01*
X106370000Y-105900000D02*
X106250000Y-106020000D01*
X107375000Y-106200000D02*
X107850000Y-106200000D01*
%TO.N,M2_IDRIVE*%
X107350000Y-102395000D02*
X107350000Y-102020000D01*
%TO.N,M1_CMP_C*%
X97475000Y-108650000D02*
X97900000Y-108650000D01*
X95375000Y-107325000D02*
X95375000Y-107550000D01*
X97300000Y-108740000D02*
X97190000Y-108740000D01*
X97300000Y-108740000D02*
X97300000Y-108830000D01*
X96000000Y-108175000D02*
X96000000Y-108550000D01*
X96000000Y-108550000D02*
X96075000Y-108625000D01*
X96550000Y-108625000D02*
X96575000Y-108650000D01*
X95220000Y-107282000D02*
X95220000Y-107150000D01*
X98170000Y-108650000D02*
X98190000Y-108670000D01*
X97900000Y-108650000D02*
X98170000Y-108650000D01*
X97190000Y-108740000D02*
X97100000Y-108650000D01*
X95375000Y-107550000D02*
X96000000Y-108175000D01*
X97390000Y-108740000D02*
X97300000Y-108740000D01*
X96575000Y-108650000D02*
X97100000Y-108650000D01*
X95375000Y-107438000D02*
X95220000Y-107282000D01*
X97475000Y-108650000D02*
X97390000Y-108740000D01*
X96150000Y-108625000D02*
X96550000Y-108625000D01*
X96075000Y-108625000D02*
X96150000Y-108625000D01*
%TO.N,M4_CMP_B*%
X105900000Y-94854800D02*
X105720000Y-94674800D01*
X102725000Y-91750000D02*
X102200000Y-91750000D01*
X105525000Y-94150000D02*
X105380000Y-94005000D01*
X105545000Y-94425200D02*
X105720000Y-94600000D01*
X105080000Y-93450000D02*
X105380000Y-93750000D01*
X106030000Y-95306600D02*
X106030000Y-95620000D01*
X105900000Y-94800000D02*
X105900000Y-94925000D01*
X104250000Y-92475000D02*
X103375000Y-91600000D01*
X105900000Y-94925000D02*
X106025000Y-95050000D01*
X98950000Y-91590000D02*
X99135000Y-91775000D01*
X102050000Y-91900000D02*
X99400000Y-91900000D01*
X105720000Y-94674800D02*
X105720000Y-94600000D01*
X104575000Y-93275000D02*
X104250000Y-92950000D01*
X105525000Y-93975000D02*
X105525000Y-94450000D01*
X99400000Y-91900000D02*
X99275000Y-91775000D01*
X104250000Y-92950000D02*
X104250000Y-92475000D01*
X105525000Y-94425200D02*
X105545000Y-94425200D01*
X102200000Y-91750000D02*
X102050000Y-91900000D01*
X103375000Y-91600000D02*
X102875000Y-91600000D01*
X106025000Y-95050000D02*
X106025000Y-95500000D01*
X105380000Y-94005000D02*
X105380000Y-93750000D01*
X99135000Y-91775000D02*
X99275000Y-91775000D01*
X105175000Y-93625000D02*
X104825000Y-93275000D01*
X102875000Y-91600000D02*
X102725000Y-91750000D01*
X104825000Y-93275000D02*
X104575000Y-93275000D01*
%TO.N,M4_CPH*%
D50*
X97005000Y-95150000D02*
X97020000Y-95165000D01*
X97020000Y-95165000D02*
X97020000Y-95550000D01*
%TO.N,M4_CPL*%
D48*
X97950000Y-96095000D02*
X97980000Y-96065000D01*
X97980000Y-96065000D02*
X97980000Y-95550000D01*
%TO.N,M2_GHB*%
D49*
X113750000Y-99025000D02*
X113750000Y-98050000D01*
%TO.N,M1_GHB*%
X100975000Y-113750000D02*
X101950000Y-113750000D01*
%TO.N,M3_GHB*%
X86250000Y-100975000D02*
X86250000Y-101950000D01*
%TO.N,M4_VCP*%
D50*
X96565000Y-94650000D02*
X96647600Y-94732600D01*
X96647600Y-94732600D02*
X98242400Y-94732600D01*
X98242400Y-94732600D02*
X98925000Y-94050000D01*
%TO.N,M1_NRST*%
D48*
X92120000Y-106630000D02*
X92120000Y-106850000D01*
X92150000Y-106600000D02*
X92120000Y-106630000D01*
%TO.N,M4_SWDIO*%
X103410000Y-92200000D02*
X103150000Y-92200000D01*
X103150000Y-92200000D02*
X103100000Y-92250000D01*
%TO.N,M1_SNSP*%
X92550000Y-110075000D02*
X92550000Y-110400000D01*
X92550000Y-110977000D02*
X93085000Y-110975000D01*
D51*
X92550000Y-110075000D02*
X92550000Y-109990000D01*
D48*
X92550000Y-110400000D02*
X92550000Y-110977000D01*
%TO.N,M1_SNSN*%
X92075000Y-110825000D02*
X92075000Y-111100000D01*
X91951700Y-110977000D02*
X91900000Y-110977000D01*
X91900000Y-110977000D02*
X91900000Y-110400000D01*
X92075000Y-111375000D02*
X92225000Y-111525000D01*
X92075000Y-111100000D02*
X92075000Y-111375000D01*
X92075000Y-111100000D02*
X91951700Y-110977000D01*
%TO.N,M1_NEUTRAL*%
X94542500Y-107150000D02*
X94580000Y-107150000D01*
X94100000Y-106370000D02*
X93980000Y-106250000D01*
X93480000Y-108795000D02*
X93480000Y-108900000D01*
X94100000Y-106450000D02*
X94100000Y-106370000D01*
X94542500Y-107150000D02*
X94542500Y-107092000D01*
X93800000Y-107375000D02*
X93800000Y-107850000D01*
X93575000Y-108700000D02*
X93480000Y-108795000D01*
X93850000Y-107900000D02*
X93850000Y-108425000D01*
X94467500Y-107225000D02*
X94542500Y-107150000D01*
X94542500Y-107092000D02*
X94400000Y-106950000D01*
X94100000Y-106650000D02*
X94100000Y-106450000D01*
X94400000Y-106950000D02*
X94100000Y-106650000D01*
X94325000Y-107225000D02*
X94467500Y-107225000D01*
X94325000Y-107225000D02*
X93900000Y-107225000D01*
X93900000Y-107225000D02*
X93775000Y-107350000D01*
X93775000Y-107350000D02*
X91850000Y-107350000D01*
X93850000Y-108425000D02*
X93575000Y-108700000D01*
X93800000Y-107850000D02*
X93850000Y-107900000D01*
X91850000Y-107350000D02*
X91625000Y-107125000D01*
X91625000Y-107125000D02*
X91625000Y-106375000D01*
%TO.N,M2_NRST*%
X106600000Y-107850000D02*
X106630000Y-107880000D01*
X106630000Y-107880000D02*
X106850000Y-107880000D01*
%TO.N,M3_SWDIO*%
X92200000Y-96850000D02*
X92250000Y-96900000D01*
X92200000Y-96590000D02*
X92200000Y-96850000D01*
%TO.N,M2_SWDIO*%
X107800000Y-103410000D02*
X107800000Y-103150000D01*
X107800000Y-103150000D02*
X107750000Y-103100000D01*
%TO.N,M4_NTC*%
X106688000Y-94987000D02*
X106688000Y-94882500D01*
X106572000Y-95037500D02*
X106430000Y-95180000D01*
X104910000Y-90610000D02*
X104910000Y-90550000D01*
X106725000Y-94950000D02*
X106550000Y-95125000D01*
X104975000Y-90675000D02*
X104910000Y-90610000D01*
X106637500Y-95037500D02*
X106572000Y-95037500D01*
X106688000Y-94882500D02*
X106850000Y-94720000D01*
%TO.N,M1_IDRIVE*%
X97605000Y-107350000D02*
X97980000Y-107350000D01*
%TO.N,M3_IDRIVE*%
X92650000Y-97605000D02*
X92650000Y-97980000D01*
%TO.N,M1_SWDIO*%
X96590000Y-107800000D02*
X96850000Y-107800000D01*
X96850000Y-107800000D02*
X96900000Y-107750000D01*
%TO.N,M1_GLA*%
X107025000Y-111900000D02*
X107025000Y-111375000D01*
X107025000Y-111375000D02*
X107050000Y-111350000D01*
X107050000Y-111925000D02*
X107025000Y-111900000D01*
X107025000Y-112275000D02*
X107050000Y-112250000D01*
X107050000Y-111350000D02*
X107050000Y-109850000D01*
X107050000Y-112250000D02*
X107050000Y-111925000D01*
X107025000Y-113075000D02*
X107025000Y-112275000D01*
X106950000Y-113250000D02*
X107025000Y-113175000D01*
X107025000Y-113175000D02*
X107025000Y-113075000D01*
%TO.N,M1_GLC*%
X97025000Y-113075000D02*
X97025000Y-111225000D01*
X97025000Y-113175000D02*
X97025000Y-113075000D01*
X96950000Y-113250000D02*
X97025000Y-113175000D01*
X97025000Y-111225000D02*
X98600000Y-109650000D01*
X99050000Y-109294999D02*
X98975000Y-109375000D01*
X98600000Y-109650000D02*
X98700000Y-109650000D01*
X98700000Y-109650000D02*
X98975000Y-109375000D01*
%TO.N,M4_GLA*%
X92975000Y-87725000D02*
X92950000Y-87750000D01*
X92975000Y-88625000D02*
X92950000Y-88650000D01*
X92950000Y-87750000D02*
X92950000Y-88075000D01*
X92975000Y-86825000D02*
X92975000Y-86925000D01*
X92975000Y-86925000D02*
X92975000Y-87725000D01*
X92950000Y-88075000D02*
X92975000Y-88100000D01*
X92950000Y-88650000D02*
X92950000Y-90150000D01*
X92975000Y-88100000D02*
X92975000Y-88625000D01*
X93050000Y-86750000D02*
X92975000Y-86825000D01*
%TO.N,M4_GLC*%
X101300000Y-90350000D02*
X101025000Y-90625000D01*
X100950000Y-90705000D02*
X101025000Y-90625000D01*
X103050000Y-86750000D02*
X102975000Y-86825000D01*
X102975000Y-86925000D02*
X102975000Y-88775000D01*
X102975000Y-86825000D02*
X102975000Y-86925000D01*
X101400000Y-90350000D02*
X101300000Y-90350000D01*
X102975000Y-88775000D02*
X101400000Y-90350000D01*
%TO.N,M4_HB*%
X100309000Y-94904300D02*
X101738000Y-93474800D01*
X100450000Y-96095000D02*
X100309000Y-95954000D01*
X101738000Y-93474800D02*
X102935000Y-93474800D01*
X100309000Y-95954000D02*
X100309000Y-94904300D01*
X102935000Y-93474800D02*
X103410000Y-93000000D01*
%TO.N,M3_GLC*%
X90350000Y-98700000D02*
X90625000Y-98975000D01*
X90350000Y-98600000D02*
X90350000Y-98700000D01*
X88775000Y-97025000D02*
X90350000Y-98600000D01*
X86925000Y-97025000D02*
X88775000Y-97025000D01*
X90705000Y-99050000D02*
X90625000Y-98975000D01*
X86750000Y-96950000D02*
X86825000Y-97025000D01*
X86825000Y-97025000D02*
X86925000Y-97025000D01*
%TO.N,M2_GLC*%
X113175000Y-102975000D02*
X113075000Y-102975000D01*
X109294999Y-100950000D02*
X109375000Y-101025000D01*
X109650000Y-101400000D02*
X109650000Y-101300000D01*
X113250000Y-103050000D02*
X113175000Y-102975000D01*
X113075000Y-102975000D02*
X111225000Y-102975000D01*
X109650000Y-101300000D02*
X109375000Y-101025000D01*
X111225000Y-102975000D02*
X109650000Y-101400000D01*
%TO.N,M3_GLA*%
X88100000Y-107025000D02*
X88625000Y-107025000D01*
X86750000Y-106950000D02*
X86825000Y-107025000D01*
X87725000Y-107025000D02*
X87750000Y-107050000D01*
X86925000Y-107025000D02*
X87725000Y-107025000D01*
X87750000Y-107050000D02*
X88075000Y-107050000D01*
X86825000Y-107025000D02*
X86925000Y-107025000D01*
X88075000Y-107050000D02*
X88100000Y-107025000D01*
X88625000Y-107025000D02*
X88650000Y-107050000D01*
X88650000Y-107050000D02*
X90150000Y-107050000D01*
%TO.N,M2_GLA*%
X112275000Y-92975000D02*
X112250000Y-92950000D01*
X111350000Y-92950000D02*
X109850000Y-92950000D01*
X111925000Y-92950000D02*
X111900000Y-92975000D01*
X111375000Y-92975000D02*
X111350000Y-92950000D01*
X113250000Y-93050000D02*
X113175000Y-92975000D01*
X113175000Y-92975000D02*
X113075000Y-92975000D01*
X111900000Y-92975000D02*
X111375000Y-92975000D01*
X113075000Y-92975000D02*
X112275000Y-92975000D01*
X112250000Y-92950000D02*
X111925000Y-92950000D01*
%TO.N,M2_HB*%
X104066000Y-100289000D02*
X103905000Y-100450000D01*
X106521000Y-102931000D02*
X106521000Y-101658000D01*
X105152000Y-100289000D02*
X104066000Y-100289000D01*
X106521000Y-101658000D02*
X105152000Y-100289000D01*
X107000000Y-103410000D02*
X106521000Y-102931000D01*
%TO.N,M3_HB*%
X93478700Y-97068700D02*
X93478700Y-98341600D01*
X93478700Y-98341600D02*
X94848400Y-99711300D01*
X94848400Y-99711300D02*
X95933700Y-99711300D01*
X95933700Y-99711300D02*
X96095000Y-99550000D01*
X93000000Y-96590000D02*
X93478700Y-97068700D01*
%TD*%
%TA.AperFunction,Conductor*%
%TO.N,VBAT*%
G36*
X96515908Y-110154843D02*
G01*
X96528595Y-110158966D01*
X96578095Y-110194927D01*
X96578096Y-110194928D01*
X96581091Y-110199050D01*
X96600000Y-110257240D01*
X96600000Y-112785319D01*
X96595154Y-112815912D01*
X96591032Y-112828598D01*
X96555080Y-112878089D01*
X96550959Y-112881084D01*
X96492771Y-112900000D01*
X95543518Y-112900000D01*
X95528031Y-112898781D01*
X95501002Y-112894500D01*
X95501000Y-112894500D01*
X93500993Y-112894500D01*
X93442802Y-112875593D01*
X93420892Y-112853679D01*
X93418899Y-112850935D01*
X93400000Y-112792756D01*
X93400000Y-112193789D01*
X93404845Y-112163197D01*
X93412392Y-112139969D01*
X93436545Y-112100556D01*
X93460489Y-112076613D01*
X93519799Y-111973886D01*
X93550500Y-111859309D01*
X93550500Y-111740691D01*
X93519799Y-111626114D01*
X93519797Y-111626111D01*
X93519797Y-111626109D01*
X93519796Y-111626108D01*
X93519706Y-111625770D01*
X93518224Y-111623384D01*
X93461960Y-111525934D01*
X93460783Y-111523746D01*
X93460594Y-111523492D01*
X93440082Y-111502979D01*
X93421876Y-111477920D01*
X93410789Y-111456159D01*
X93400000Y-111411216D01*
X93400000Y-111219963D01*
X93403373Y-111194341D01*
X93409889Y-111170022D01*
X93419780Y-111146143D01*
X93434908Y-111119941D01*
X93434907Y-111119941D01*
X93434910Y-111119938D01*
X93460500Y-111024435D01*
X93460500Y-110925565D01*
X93434910Y-110830062D01*
X93434909Y-110830060D01*
X93419780Y-110803855D01*
X93409890Y-110779978D01*
X93403373Y-110755655D01*
X93400000Y-110730033D01*
X93400000Y-110264680D01*
X93404843Y-110234094D01*
X93408965Y-110221405D01*
X93444923Y-110171906D01*
X93445522Y-110171471D01*
X93449063Y-110168900D01*
X93507243Y-110150000D01*
X96485320Y-110150000D01*
X96515908Y-110154843D01*
G37*
%TD.AperFunction*%
%TD*%
%TA.AperFunction,Conductor*%
%TO.N,VBAT*%
G36*
X104471969Y-87101219D02*
G01*
X104498998Y-87105500D01*
X106499007Y-87105500D01*
X106557198Y-87124407D01*
X106579098Y-87146307D01*
X106581091Y-87149050D01*
X106600000Y-87207241D01*
X106600000Y-87806209D01*
X106595155Y-87836801D01*
X106587608Y-87860029D01*
X106563458Y-87899439D01*
X106539508Y-87923389D01*
X106539503Y-87923395D01*
X106480201Y-88026109D01*
X106479924Y-88026844D01*
X106479377Y-88029185D01*
X106449500Y-88140691D01*
X106449500Y-88259308D01*
X106468457Y-88330060D01*
X106480202Y-88373890D01*
X106539508Y-88476610D01*
X106559919Y-88497022D01*
X106578123Y-88522078D01*
X106589209Y-88543835D01*
X106600000Y-88588781D01*
X106600000Y-88780033D01*
X106596626Y-88805657D01*
X106590109Y-88829978D01*
X106580220Y-88853854D01*
X106565089Y-88880060D01*
X106555219Y-88916895D01*
X106555220Y-88916896D01*
X106555220Y-88916897D01*
X106539500Y-88975565D01*
X106539500Y-89074435D01*
X106565090Y-89169938D01*
X106565091Y-89169940D01*
X106580220Y-89196144D01*
X106590110Y-89220021D01*
X106596626Y-89244338D01*
X106600000Y-89269962D01*
X106600000Y-89735319D01*
X106595154Y-89765912D01*
X106591032Y-89778598D01*
X106555080Y-89828089D01*
X106550959Y-89831084D01*
X106492771Y-89850000D01*
X103514680Y-89850000D01*
X103484087Y-89845154D01*
X103471401Y-89841032D01*
X103421901Y-89805068D01*
X103421894Y-89805058D01*
X103418900Y-89800936D01*
X103400000Y-89742756D01*
X103400000Y-87214680D01*
X103404843Y-87184094D01*
X103408965Y-87171405D01*
X103444923Y-87121906D01*
X103445522Y-87121471D01*
X103449063Y-87118900D01*
X103507243Y-87100000D01*
X104456482Y-87100000D01*
X104471969Y-87101219D01*
G37*
%TD.AperFunction*%
%TD*%
%TA.AperFunction,Conductor*%
%TO.N,M2_B*%
G36*
X117565908Y-98404843D02*
G01*
X117578595Y-98408966D01*
X117628095Y-98444927D01*
X117628096Y-98444928D01*
X117631091Y-98449050D01*
X117650000Y-98507240D01*
X117650000Y-101485319D01*
X117645154Y-101515912D01*
X117641032Y-101528598D01*
X117605080Y-101578089D01*
X117600959Y-101581084D01*
X117542771Y-101600000D01*
X113214680Y-101600000D01*
X113184085Y-101595154D01*
X113173905Y-101591846D01*
X113124406Y-101555880D01*
X113105500Y-101497692D01*
X113105500Y-99500993D01*
X113124407Y-99442802D01*
X113146307Y-99420902D01*
X113149050Y-99418909D01*
X113207241Y-99400000D01*
X114399999Y-99400000D01*
X114400000Y-99400000D01*
X114400000Y-99227122D01*
X114400118Y-99222283D01*
X114400360Y-99217357D01*
X114400391Y-99216945D01*
X114400500Y-99214734D01*
X114400500Y-98835256D01*
X114400389Y-98833014D01*
X114400356Y-98832563D01*
X114400119Y-98827728D01*
X114400000Y-98822881D01*
X114400000Y-98514680D01*
X114404843Y-98484094D01*
X114408965Y-98471405D01*
X114444923Y-98421906D01*
X114445522Y-98421471D01*
X114449063Y-98418900D01*
X114507243Y-98400000D01*
X117535320Y-98400000D01*
X117565908Y-98404843D01*
G37*
%TD.AperFunction*%
%TD*%
%TA.AperFunction,Conductor*%
%TO.N,M4_A*%
G36*
X96515908Y-82354843D02*
G01*
X96528595Y-82358966D01*
X96578095Y-82394927D01*
X96578096Y-82394928D01*
X96581091Y-82399050D01*
X96600000Y-82457240D01*
X96600000Y-86785319D01*
X96595155Y-86815912D01*
X96591847Y-86826093D01*
X96555883Y-86875593D01*
X96497692Y-86894500D01*
X94500993Y-86894500D01*
X94442802Y-86875593D01*
X94420892Y-86853679D01*
X94418899Y-86850935D01*
X94400000Y-86792756D01*
X94400000Y-85600001D01*
X94400000Y-85600000D01*
X94399999Y-85600000D01*
X94227116Y-85600000D01*
X94222244Y-85599880D01*
X94217535Y-85599648D01*
X94217192Y-85599623D01*
X94214752Y-85599500D01*
X94214751Y-85599500D01*
X94214748Y-85599500D01*
X93835252Y-85599500D01*
X93835248Y-85599500D01*
X93835246Y-85599500D01*
X93832752Y-85599626D01*
X93832423Y-85599651D01*
X93831073Y-85599717D01*
X93827734Y-85599881D01*
X93822884Y-85600000D01*
X93514680Y-85600000D01*
X93484087Y-85595154D01*
X93471401Y-85591032D01*
X93421901Y-85555068D01*
X93421894Y-85555058D01*
X93418900Y-85550936D01*
X93400000Y-85492756D01*
X93400000Y-82464680D01*
X93404843Y-82434094D01*
X93408965Y-82421405D01*
X93444923Y-82371906D01*
X93445522Y-82371471D01*
X93449063Y-82368900D01*
X93507243Y-82350000D01*
X96485320Y-82350000D01*
X96515908Y-82354843D01*
G37*
%TD.AperFunction*%
%TD*%
%TA.AperFunction,Conductor*%
%TO.N,M2_C*%
G36*
X117565908Y-103404843D02*
G01*
X117578595Y-103408966D01*
X117628095Y-103444927D01*
X117628096Y-103444928D01*
X117631091Y-103449050D01*
X117650000Y-103507240D01*
X117650000Y-106485319D01*
X117645154Y-106515912D01*
X117641032Y-106528598D01*
X117605080Y-106578089D01*
X117600959Y-106581084D01*
X117542771Y-106600000D01*
X113214680Y-106600000D01*
X113184085Y-106595154D01*
X113173905Y-106591846D01*
X113124406Y-106555880D01*
X113105500Y-106497692D01*
X113105500Y-104500993D01*
X113124407Y-104442802D01*
X113146307Y-104420902D01*
X113149050Y-104418909D01*
X113207241Y-104400000D01*
X114399999Y-104400000D01*
X114400000Y-104400000D01*
X114400000Y-104227122D01*
X114400118Y-104222283D01*
X114400360Y-104217357D01*
X114400391Y-104216945D01*
X114400500Y-104214734D01*
X114400500Y-103835256D01*
X114400389Y-103833014D01*
X114400356Y-103832563D01*
X114400119Y-103827728D01*
X114400000Y-103822881D01*
X114400000Y-103514680D01*
X114404843Y-103484094D01*
X114408965Y-103471405D01*
X114444923Y-103421906D01*
X114445522Y-103421471D01*
X114449063Y-103418900D01*
X114507243Y-103400000D01*
X117535320Y-103400000D01*
X117565908Y-103404843D01*
G37*
%TD.AperFunction*%
%TD*%
%TA.AperFunction,Conductor*%
%TO.N,M3_C*%
G36*
X86815907Y-93404844D02*
G01*
X86826087Y-93408151D01*
X86875589Y-93444111D01*
X86894500Y-93502301D01*
X86894500Y-95499006D01*
X86875593Y-95557197D01*
X86853712Y-95579083D01*
X86850969Y-95581077D01*
X86792783Y-95600000D01*
X85600000Y-95600000D01*
X85600000Y-95600001D01*
X85600000Y-95772881D01*
X85599880Y-95777748D01*
X85599642Y-95782583D01*
X85599609Y-95783030D01*
X85599500Y-95785256D01*
X85599500Y-96164734D01*
X85599607Y-96166927D01*
X85599641Y-96167379D01*
X85599881Y-96172263D01*
X85600000Y-96177122D01*
X85600000Y-96485319D01*
X85595154Y-96515912D01*
X85591032Y-96528598D01*
X85555080Y-96578089D01*
X85550959Y-96581084D01*
X85492771Y-96600000D01*
X82464680Y-96600000D01*
X82434087Y-96595154D01*
X82421401Y-96591032D01*
X82371901Y-96555068D01*
X82371894Y-96555058D01*
X82368900Y-96550936D01*
X82350000Y-96492756D01*
X82350000Y-93514680D01*
X82354843Y-93484094D01*
X82355642Y-93481635D01*
X82358965Y-93471405D01*
X82394923Y-93421906D01*
X82395522Y-93421471D01*
X82399063Y-93418900D01*
X82457243Y-93400000D01*
X86785320Y-93400000D01*
X86815907Y-93404844D01*
G37*
%TD.AperFunction*%
%TD*%
%TA.AperFunction,Conductor*%
%TO.N,M4_C*%
G36*
X106559191Y-82368907D02*
G01*
X106595155Y-82418407D01*
X106600000Y-82449000D01*
X106600000Y-86801000D01*
X106581093Y-86859191D01*
X106531593Y-86895155D01*
X106501000Y-86900000D01*
X104499000Y-86900000D01*
X104440809Y-86881093D01*
X104404845Y-86831593D01*
X104400000Y-86801000D01*
X104400000Y-85600001D01*
X104400000Y-85600000D01*
X104399999Y-85600000D01*
X104224689Y-85600000D01*
X104214988Y-85599524D01*
X104214751Y-85599500D01*
X104214748Y-85599500D01*
X103835252Y-85599500D01*
X103835248Y-85599500D01*
X103835012Y-85599524D01*
X103825311Y-85600000D01*
X103499000Y-85600000D01*
X103440809Y-85581093D01*
X103404845Y-85531593D01*
X103400000Y-85501000D01*
X103400000Y-82449000D01*
X103418907Y-82390809D01*
X103468407Y-82354845D01*
X103499000Y-82350000D01*
X106501000Y-82350000D01*
X106559191Y-82368907D01*
G37*
%TD.AperFunction*%
%TD*%
%TA.AperFunction,Conductor*%
%TO.N,VBAT*%
G36*
X110815834Y-98418907D02*
G01*
X110851798Y-98468407D01*
X110853265Y-98473360D01*
X110873777Y-98549910D01*
X110880202Y-98573890D01*
X110939507Y-98676608D01*
X110939509Y-98676610D01*
X110939511Y-98676613D01*
X111023387Y-98760489D01*
X111023389Y-98760490D01*
X111023391Y-98760492D01*
X111126110Y-98819797D01*
X111126111Y-98819797D01*
X111126114Y-98819799D01*
X111240691Y-98850500D01*
X111240693Y-98850500D01*
X111359307Y-98850500D01*
X111359309Y-98850500D01*
X111473886Y-98819799D01*
X111473888Y-98819797D01*
X111473890Y-98819797D01*
X111576608Y-98760492D01*
X111576608Y-98760491D01*
X111576613Y-98760489D01*
X111660489Y-98676613D01*
X111664263Y-98670075D01*
X111709731Y-98629135D01*
X111770581Y-98622738D01*
X111823570Y-98653329D01*
X111835735Y-98670073D01*
X111839511Y-98676613D01*
X111923387Y-98760489D01*
X111923389Y-98760490D01*
X111923391Y-98760492D01*
X112026110Y-98819797D01*
X112026111Y-98819797D01*
X112026114Y-98819799D01*
X112140691Y-98850500D01*
X112140693Y-98850500D01*
X112259307Y-98850500D01*
X112259309Y-98850500D01*
X112373886Y-98819799D01*
X112373888Y-98819797D01*
X112373890Y-98819797D01*
X112476608Y-98760492D01*
X112476608Y-98760491D01*
X112476613Y-98760489D01*
X112560489Y-98676613D01*
X112619799Y-98573886D01*
X112646730Y-98473375D01*
X112680054Y-98422062D01*
X112737176Y-98400136D01*
X112742357Y-98400000D01*
X112801000Y-98400000D01*
X112859191Y-98418907D01*
X112895155Y-98468407D01*
X112900000Y-98499000D01*
X112900000Y-101501000D01*
X112881093Y-101559191D01*
X112831593Y-101595155D01*
X112801000Y-101600000D01*
X112178110Y-101600000D01*
X112119919Y-101581093D01*
X112108107Y-101571005D01*
X112096293Y-101559191D01*
X112076613Y-101539511D01*
X112076610Y-101539509D01*
X112076609Y-101539508D01*
X112076608Y-101539507D01*
X111973889Y-101480202D01*
X111973890Y-101480202D01*
X111960351Y-101476574D01*
X111859309Y-101449500D01*
X111740691Y-101449500D01*
X111670567Y-101468289D01*
X111626109Y-101480202D01*
X111523391Y-101539507D01*
X111491893Y-101571005D01*
X111437376Y-101598781D01*
X111421890Y-101600000D01*
X110249000Y-101600000D01*
X110190809Y-101581093D01*
X110154845Y-101531593D01*
X110150000Y-101501000D01*
X110150000Y-98499000D01*
X110168907Y-98440809D01*
X110218407Y-98404845D01*
X110249000Y-98400000D01*
X110757643Y-98400000D01*
X110815834Y-98418907D01*
G37*
%TD.AperFunction*%
%TD*%
%TA.AperFunction,Conductor*%
%TO.N,M1_A*%
G36*
X105557198Y-113124407D02*
G01*
X105579098Y-113146307D01*
X105581091Y-113149050D01*
X105600000Y-113207241D01*
X105600000Y-114400000D01*
X105772884Y-114400000D01*
X105777707Y-114400117D01*
X105781464Y-114400301D01*
X105783766Y-114400500D01*
X106164748Y-114400500D01*
X106167666Y-114400500D01*
X106170429Y-114400209D01*
X106171549Y-114400154D01*
X106172312Y-114400117D01*
X106177116Y-114400000D01*
X106485320Y-114400000D01*
X106515908Y-114404843D01*
X106528595Y-114408966D01*
X106578095Y-114444927D01*
X106578096Y-114444928D01*
X106581091Y-114449050D01*
X106600000Y-114507240D01*
X106600000Y-117535319D01*
X106595154Y-117565912D01*
X106591032Y-117578598D01*
X106555080Y-117628089D01*
X106550959Y-117631084D01*
X106492771Y-117650000D01*
X103514680Y-117650000D01*
X103484087Y-117645154D01*
X103471401Y-117641032D01*
X103421901Y-117605068D01*
X103421894Y-117605058D01*
X103418900Y-117600936D01*
X103400000Y-117542756D01*
X103400000Y-113214680D01*
X103404846Y-113184085D01*
X103408154Y-113173905D01*
X103444120Y-113124406D01*
X103502308Y-113105500D01*
X105499007Y-113105500D01*
X105557198Y-113124407D01*
G37*
%TD.AperFunction*%
%TD*%
%TA.AperFunction,Conductor*%
%TO.N,VBAT*%
G36*
X96559191Y-87118907D02*
G01*
X96595155Y-87168407D01*
X96600000Y-87199000D01*
X96600000Y-87821890D01*
X96581093Y-87880081D01*
X96571005Y-87891893D01*
X96539507Y-87923391D01*
X96480202Y-88026109D01*
X96480201Y-88026114D01*
X96449500Y-88140691D01*
X96449500Y-88259309D01*
X96469979Y-88335738D01*
X96480202Y-88373890D01*
X96539507Y-88476608D01*
X96539509Y-88476610D01*
X96539511Y-88476613D01*
X96571005Y-88508107D01*
X96598781Y-88562622D01*
X96600000Y-88578109D01*
X96600000Y-89751000D01*
X96581093Y-89809191D01*
X96531593Y-89845155D01*
X96501000Y-89850000D01*
X93499000Y-89850000D01*
X93440809Y-89831093D01*
X93404845Y-89781593D01*
X93400000Y-89751000D01*
X93400000Y-89242356D01*
X93418907Y-89184165D01*
X93468407Y-89148201D01*
X93473335Y-89146741D01*
X93573886Y-89119799D01*
X93676613Y-89060489D01*
X93760489Y-88976613D01*
X93819799Y-88873886D01*
X93850500Y-88759309D01*
X93850500Y-88640691D01*
X93819799Y-88526114D01*
X93819797Y-88526111D01*
X93819797Y-88526109D01*
X93760492Y-88423391D01*
X93760490Y-88423389D01*
X93760489Y-88423387D01*
X93676613Y-88339511D01*
X93670075Y-88335736D01*
X93629135Y-88290269D01*
X93622738Y-88229419D01*
X93653329Y-88176430D01*
X93670073Y-88164264D01*
X93676613Y-88160489D01*
X93760489Y-88076613D01*
X93819799Y-87973886D01*
X93850500Y-87859309D01*
X93850500Y-87740691D01*
X93819799Y-87626114D01*
X93819797Y-87626111D01*
X93819797Y-87626109D01*
X93760492Y-87523391D01*
X93760490Y-87523389D01*
X93760489Y-87523387D01*
X93676613Y-87439511D01*
X93676610Y-87439509D01*
X93676608Y-87439507D01*
X93573889Y-87380202D01*
X93573890Y-87380202D01*
X93560520Y-87376619D01*
X93473375Y-87353269D01*
X93422062Y-87319946D01*
X93400136Y-87262824D01*
X93400000Y-87257643D01*
X93400000Y-87199000D01*
X93418907Y-87140809D01*
X93468407Y-87104845D01*
X93499000Y-87100000D01*
X96501000Y-87100000D01*
X96559191Y-87118907D01*
G37*
%TD.AperFunction*%
%TD*%
%TA.AperFunction,Conductor*%
%TO.N,M4_B*%
G36*
X101515908Y-82354843D02*
G01*
X101528595Y-82358966D01*
X101578095Y-82394927D01*
X101578096Y-82394928D01*
X101581091Y-82399050D01*
X101600000Y-82457240D01*
X101600000Y-86785319D01*
X101595155Y-86815912D01*
X101591847Y-86826093D01*
X101555883Y-86875593D01*
X101497692Y-86894500D01*
X99500993Y-86894500D01*
X99442802Y-86875593D01*
X99420892Y-86853679D01*
X99418899Y-86850935D01*
X99400000Y-86792756D01*
X99400000Y-85600001D01*
X99400000Y-85600000D01*
X99399999Y-85600000D01*
X99227116Y-85600000D01*
X99222244Y-85599880D01*
X99217535Y-85599648D01*
X99217192Y-85599623D01*
X99214752Y-85599500D01*
X99214751Y-85599500D01*
X99214748Y-85599500D01*
X98835252Y-85599500D01*
X98835248Y-85599500D01*
X98835246Y-85599500D01*
X98832752Y-85599626D01*
X98832423Y-85599651D01*
X98831073Y-85599717D01*
X98827734Y-85599881D01*
X98822884Y-85600000D01*
X98514680Y-85600000D01*
X98484087Y-85595154D01*
X98471401Y-85591032D01*
X98421901Y-85555068D01*
X98421894Y-85555058D01*
X98418900Y-85550936D01*
X98400000Y-85492756D01*
X98400000Y-82464680D01*
X98404843Y-82434094D01*
X98408965Y-82421405D01*
X98444923Y-82371906D01*
X98445522Y-82371471D01*
X98449063Y-82368900D01*
X98507243Y-82350000D01*
X101485320Y-82350000D01*
X101515908Y-82354843D01*
G37*
%TD.AperFunction*%
%TD*%
%TA.AperFunction,Conductor*%
%TO.N,VBAT*%
G36*
X112859191Y-103418907D02*
G01*
X112895155Y-103468407D01*
X112900000Y-103499000D01*
X112900000Y-106501000D01*
X112881093Y-106559191D01*
X112831593Y-106595155D01*
X112801000Y-106600000D01*
X112178110Y-106600000D01*
X112119919Y-106581093D01*
X112108107Y-106571005D01*
X112096293Y-106559191D01*
X112076613Y-106539511D01*
X112076610Y-106539509D01*
X112076609Y-106539508D01*
X112076608Y-106539507D01*
X111973889Y-106480202D01*
X111973890Y-106480202D01*
X111960351Y-106476574D01*
X111859309Y-106449500D01*
X111740691Y-106449500D01*
X111670567Y-106468289D01*
X111626109Y-106480202D01*
X111523391Y-106539507D01*
X111491893Y-106571005D01*
X111437376Y-106598781D01*
X111421890Y-106600000D01*
X111206931Y-106600000D01*
X111157432Y-106586737D01*
X111119938Y-106565090D01*
X111024435Y-106539500D01*
X110925565Y-106539500D01*
X110830062Y-106565090D01*
X110792567Y-106586737D01*
X110743069Y-106600000D01*
X110249000Y-106600000D01*
X110190809Y-106581093D01*
X110154845Y-106531593D01*
X110150000Y-106501000D01*
X110150000Y-103499000D01*
X110168907Y-103440809D01*
X110218407Y-103404845D01*
X110249000Y-103400000D01*
X112801000Y-103400000D01*
X112859191Y-103418907D01*
G37*
%TD.AperFunction*%
%TD*%
%TA.AperFunction,Conductor*%
%TO.N,M1_B*%
G36*
X100557198Y-113124407D02*
G01*
X100579098Y-113146307D01*
X100581091Y-113149050D01*
X100600000Y-113207241D01*
X100600000Y-114400000D01*
X100772884Y-114400000D01*
X100777707Y-114400117D01*
X100781464Y-114400301D01*
X100783766Y-114400500D01*
X101164748Y-114400500D01*
X101167666Y-114400500D01*
X101170429Y-114400209D01*
X101171549Y-114400154D01*
X101172312Y-114400117D01*
X101177116Y-114400000D01*
X101485320Y-114400000D01*
X101515908Y-114404843D01*
X101528595Y-114408966D01*
X101578095Y-114444927D01*
X101578096Y-114444928D01*
X101581091Y-114449050D01*
X101600000Y-114507240D01*
X101600000Y-117535319D01*
X101595154Y-117565912D01*
X101591032Y-117578598D01*
X101555080Y-117628089D01*
X101550959Y-117631084D01*
X101492771Y-117650000D01*
X98514680Y-117650000D01*
X98484087Y-117645154D01*
X98471401Y-117641032D01*
X98421901Y-117605068D01*
X98421894Y-117605058D01*
X98418900Y-117600936D01*
X98400000Y-117542756D01*
X98400000Y-113214680D01*
X98404846Y-113184085D01*
X98408154Y-113173905D01*
X98444120Y-113124406D01*
X98502308Y-113105500D01*
X100499007Y-113105500D01*
X100557198Y-113124407D01*
G37*
%TD.AperFunction*%
%TD*%
%TA.AperFunction,Conductor*%
%TO.N,VBAT*%
G36*
X87836798Y-98404843D02*
G01*
X87860029Y-98412391D01*
X87899438Y-98436540D01*
X87923387Y-98460489D01*
X87923389Y-98460490D01*
X87923496Y-98460597D01*
X87923746Y-98460783D01*
X87925934Y-98461960D01*
X88023369Y-98518214D01*
X88025770Y-98519706D01*
X88026111Y-98519797D01*
X88026114Y-98519799D01*
X88140691Y-98550500D01*
X88140693Y-98550500D01*
X88259307Y-98550500D01*
X88259309Y-98550500D01*
X88373886Y-98519799D01*
X88373887Y-98519798D01*
X88373889Y-98519797D01*
X88373890Y-98519797D01*
X88470473Y-98464034D01*
X88473361Y-98462631D01*
X88474145Y-98462115D01*
X88479162Y-98459016D01*
X88480461Y-98458265D01*
X88485820Y-98451281D01*
X88497022Y-98440080D01*
X88522079Y-98421876D01*
X88535427Y-98415075D01*
X88543843Y-98410788D01*
X88588784Y-98400000D01*
X89735320Y-98400000D01*
X89765908Y-98404843D01*
X89778595Y-98408966D01*
X89828095Y-98444927D01*
X89828096Y-98444928D01*
X89831091Y-98449050D01*
X89850000Y-98507240D01*
X89850000Y-101485319D01*
X89845154Y-101515912D01*
X89841032Y-101528598D01*
X89805080Y-101578089D01*
X89800959Y-101581084D01*
X89742771Y-101600000D01*
X89258037Y-101600000D01*
X89227444Y-101595154D01*
X89214758Y-101591032D01*
X89165259Y-101555070D01*
X89162275Y-101550963D01*
X89158764Y-101546131D01*
X89143230Y-101513562D01*
X89119708Y-101425773D01*
X89118224Y-101423384D01*
X89061960Y-101325934D01*
X89060783Y-101323746D01*
X89060597Y-101323496D01*
X89060490Y-101323389D01*
X89060489Y-101323387D01*
X88976613Y-101239511D01*
X88976610Y-101239509D01*
X88976608Y-101239507D01*
X88931175Y-101213276D01*
X88910142Y-101189916D01*
X88860352Y-101176574D01*
X88860351Y-101176574D01*
X88759309Y-101149500D01*
X88759307Y-101149500D01*
X88640692Y-101149500D01*
X88640691Y-101149500D01*
X88630763Y-101152159D01*
X88583784Y-101164747D01*
X88583785Y-101164748D01*
X88526109Y-101180202D01*
X88526108Y-101180202D01*
X88526106Y-101180203D01*
X88423393Y-101239505D01*
X88339503Y-101323395D01*
X88337250Y-101326332D01*
X88324952Y-101339634D01*
X88315613Y-101348042D01*
X88259716Y-101372925D01*
X88199869Y-101360201D01*
X88196127Y-101358040D01*
X88167816Y-101327940D01*
X88165154Y-101329860D01*
X88160490Y-101323389D01*
X88160489Y-101323387D01*
X88076613Y-101239511D01*
X88076610Y-101239509D01*
X88076608Y-101239507D01*
X88031175Y-101213276D01*
X88010142Y-101189916D01*
X87960352Y-101176574D01*
X87960351Y-101176574D01*
X87859309Y-101149500D01*
X87859307Y-101149500D01*
X87740692Y-101149500D01*
X87740691Y-101149500D01*
X87730763Y-101152159D01*
X87683784Y-101164747D01*
X87683785Y-101164748D01*
X87626109Y-101180202D01*
X87626108Y-101180202D01*
X87626106Y-101180203D01*
X87523393Y-101239505D01*
X87439506Y-101323392D01*
X87380200Y-101426113D01*
X87368872Y-101468389D01*
X87357328Y-101511475D01*
X87344727Y-101539777D01*
X87337462Y-101550963D01*
X87289921Y-101589462D01*
X87279607Y-101593422D01*
X87244122Y-101600000D01*
X87214680Y-101600000D01*
X87184087Y-101595154D01*
X87171401Y-101591032D01*
X87121901Y-101555068D01*
X87121894Y-101555058D01*
X87118900Y-101550936D01*
X87100000Y-101492756D01*
X87100000Y-100543517D01*
X87101219Y-100528029D01*
X87105500Y-100501000D01*
X87105500Y-98500993D01*
X87124407Y-98442802D01*
X87146307Y-98420902D01*
X87149050Y-98418909D01*
X87207241Y-98400000D01*
X87806210Y-98400000D01*
X87836798Y-98404843D01*
G37*
%TD.AperFunction*%
%TD*%
%TA.AperFunction,Conductor*%
%TO.N,M2_A*%
G36*
X117565908Y-93404843D02*
G01*
X117578595Y-93408966D01*
X117628095Y-93444927D01*
X117628096Y-93444928D01*
X117631091Y-93449050D01*
X117650000Y-93507240D01*
X117650000Y-96485319D01*
X117645154Y-96515912D01*
X117641032Y-96528598D01*
X117605080Y-96578089D01*
X117600959Y-96581084D01*
X117542771Y-96600000D01*
X113214680Y-96600000D01*
X113184085Y-96595154D01*
X113173905Y-96591846D01*
X113124406Y-96555880D01*
X113105500Y-96497692D01*
X113105500Y-94500993D01*
X113124407Y-94442802D01*
X113146307Y-94420902D01*
X113149050Y-94418909D01*
X113207241Y-94400000D01*
X114399999Y-94400000D01*
X114400000Y-94400000D01*
X114400000Y-94227122D01*
X114400118Y-94222283D01*
X114400360Y-94217357D01*
X114400391Y-94216945D01*
X114400500Y-94214734D01*
X114400500Y-93835256D01*
X114400389Y-93833014D01*
X114400356Y-93832563D01*
X114400119Y-93827728D01*
X114400000Y-93822881D01*
X114400000Y-93514680D01*
X114404843Y-93484094D01*
X114408965Y-93471405D01*
X114444923Y-93421906D01*
X114445522Y-93421471D01*
X114449063Y-93418900D01*
X114507243Y-93400000D01*
X117535320Y-93400000D01*
X117565908Y-93404843D01*
G37*
%TD.AperFunction*%
%TD*%
%TA.AperFunction,Conductor*%
%TO.N,VBAT*%
G36*
X101559191Y-87118907D02*
G01*
X101595155Y-87168407D01*
X101600000Y-87199000D01*
X101600000Y-87821890D01*
X101581093Y-87880081D01*
X101571005Y-87891893D01*
X101539507Y-87923391D01*
X101480202Y-88026109D01*
X101480201Y-88026114D01*
X101449500Y-88140691D01*
X101449500Y-88259309D01*
X101469979Y-88335738D01*
X101480202Y-88373890D01*
X101539507Y-88476608D01*
X101539509Y-88476610D01*
X101539511Y-88476613D01*
X101571005Y-88508107D01*
X101598781Y-88562622D01*
X101600000Y-88578109D01*
X101600000Y-89751000D01*
X101581093Y-89809191D01*
X101531593Y-89845155D01*
X101501000Y-89850000D01*
X98499000Y-89850000D01*
X98440809Y-89831093D01*
X98404845Y-89781593D01*
X98400000Y-89751000D01*
X98400000Y-89242356D01*
X98418907Y-89184165D01*
X98468407Y-89148201D01*
X98473335Y-89146741D01*
X98573886Y-89119799D01*
X98676613Y-89060489D01*
X98760489Y-88976613D01*
X98771316Y-88957861D01*
X98819797Y-88873890D01*
X98819797Y-88873888D01*
X98819799Y-88873886D01*
X98850500Y-88759309D01*
X98850500Y-88640691D01*
X98819799Y-88526114D01*
X98819797Y-88526111D01*
X98819797Y-88526109D01*
X98760492Y-88423391D01*
X98760490Y-88423389D01*
X98760489Y-88423387D01*
X98676613Y-88339511D01*
X98670075Y-88335736D01*
X98629135Y-88290269D01*
X98622738Y-88229419D01*
X98653329Y-88176430D01*
X98670073Y-88164264D01*
X98676613Y-88160489D01*
X98760489Y-88076613D01*
X98819799Y-87973886D01*
X98850500Y-87859309D01*
X98850500Y-87740691D01*
X98819799Y-87626114D01*
X98819797Y-87626111D01*
X98819797Y-87626109D01*
X98760492Y-87523391D01*
X98760490Y-87523389D01*
X98760489Y-87523387D01*
X98676613Y-87439511D01*
X98676610Y-87439509D01*
X98676608Y-87439507D01*
X98573889Y-87380202D01*
X98573890Y-87380202D01*
X98560520Y-87376619D01*
X98473375Y-87353269D01*
X98422062Y-87319946D01*
X98400136Y-87262824D01*
X98400000Y-87257643D01*
X98400000Y-87199000D01*
X98418907Y-87140809D01*
X98468407Y-87104845D01*
X98499000Y-87100000D01*
X101501000Y-87100000D01*
X101559191Y-87118907D01*
G37*
%TD.AperFunction*%
%TD*%
%TA.AperFunction,Conductor*%
%TO.N,VBAT*%
G36*
X87880081Y-93418907D02*
G01*
X87891893Y-93428995D01*
X87923387Y-93460489D01*
X87923389Y-93460490D01*
X87923390Y-93460491D01*
X87923391Y-93460492D01*
X88026110Y-93519797D01*
X88026111Y-93519797D01*
X88026114Y-93519799D01*
X88140691Y-93550500D01*
X88140693Y-93550500D01*
X88259307Y-93550500D01*
X88259309Y-93550500D01*
X88373886Y-93519799D01*
X88373888Y-93519797D01*
X88373890Y-93519797D01*
X88476608Y-93460492D01*
X88476608Y-93460491D01*
X88476613Y-93460489D01*
X88508107Y-93428995D01*
X88562624Y-93401219D01*
X88578110Y-93400000D01*
X88793069Y-93400000D01*
X88842567Y-93413262D01*
X88880062Y-93434910D01*
X88975565Y-93460500D01*
X88975567Y-93460500D01*
X89074433Y-93460500D01*
X89074435Y-93460500D01*
X89169938Y-93434910D01*
X89207432Y-93413262D01*
X89256931Y-93400000D01*
X89751000Y-93400000D01*
X89809191Y-93418907D01*
X89845155Y-93468407D01*
X89850000Y-93499000D01*
X89850000Y-96501000D01*
X89831093Y-96559191D01*
X89781593Y-96595155D01*
X89751000Y-96600000D01*
X87199000Y-96600000D01*
X87140809Y-96581093D01*
X87104845Y-96531593D01*
X87100000Y-96501000D01*
X87100000Y-93499000D01*
X87118907Y-93440809D01*
X87168407Y-93404845D01*
X87199000Y-93400000D01*
X87821890Y-93400000D01*
X87880081Y-93418907D01*
G37*
%TD.AperFunction*%
%TD*%
%TA.AperFunction,Conductor*%
%TO.N,VBAT*%
G36*
X106559191Y-110168907D02*
G01*
X106595155Y-110218407D01*
X106600000Y-110249000D01*
X106600000Y-110757643D01*
X106581093Y-110815834D01*
X106531593Y-110851798D01*
X106526639Y-110853265D01*
X106468386Y-110868873D01*
X106426109Y-110880202D01*
X106323391Y-110939507D01*
X106239507Y-111023391D01*
X106180202Y-111126109D01*
X106180201Y-111126114D01*
X106149500Y-111240691D01*
X106149500Y-111359309D01*
X106160357Y-111399828D01*
X106180202Y-111473890D01*
X106239507Y-111576608D01*
X106239509Y-111576610D01*
X106239511Y-111576613D01*
X106323387Y-111660489D01*
X106323389Y-111660490D01*
X106329925Y-111664264D01*
X106370865Y-111709734D01*
X106377260Y-111770584D01*
X106346667Y-111823572D01*
X106329925Y-111835736D01*
X106323389Y-111839509D01*
X106239507Y-111923391D01*
X106180202Y-112026109D01*
X106180201Y-112026114D01*
X106149500Y-112140691D01*
X106149500Y-112259309D01*
X106152311Y-112269799D01*
X106180202Y-112373890D01*
X106239507Y-112476608D01*
X106239509Y-112476610D01*
X106239511Y-112476613D01*
X106323387Y-112560489D01*
X106323389Y-112560490D01*
X106323391Y-112560492D01*
X106426110Y-112619797D01*
X106426111Y-112619797D01*
X106426114Y-112619799D01*
X106526625Y-112646731D01*
X106577937Y-112680053D01*
X106599864Y-112737174D01*
X106600000Y-112742356D01*
X106600000Y-112801000D01*
X106581093Y-112859191D01*
X106531593Y-112895155D01*
X106501000Y-112900000D01*
X103499000Y-112900000D01*
X103440809Y-112881093D01*
X103404845Y-112831593D01*
X103400000Y-112801000D01*
X103400000Y-112178109D01*
X103418907Y-112119918D01*
X103428990Y-112108111D01*
X103460489Y-112076613D01*
X103519799Y-111973886D01*
X103550500Y-111859309D01*
X103550500Y-111740691D01*
X103519799Y-111626114D01*
X103519797Y-111626111D01*
X103519797Y-111626109D01*
X103460492Y-111523391D01*
X103460491Y-111523390D01*
X103460490Y-111523389D01*
X103460489Y-111523387D01*
X103428995Y-111491893D01*
X103401219Y-111437376D01*
X103400000Y-111421890D01*
X103400000Y-110249000D01*
X103418907Y-110190809D01*
X103468407Y-110154845D01*
X103499000Y-110150000D01*
X106501000Y-110150000D01*
X106559191Y-110168907D01*
G37*
%TD.AperFunction*%
%TD*%
%TA.AperFunction,Conductor*%
%TO.N,M3_B*%
G36*
X86859191Y-98418907D02*
G01*
X86895155Y-98468407D01*
X86900000Y-98499000D01*
X86900000Y-100501000D01*
X86881093Y-100559191D01*
X86831593Y-100595155D01*
X86801000Y-100600000D01*
X85600000Y-100600000D01*
X85600000Y-100600001D01*
X85600000Y-100775310D01*
X85599524Y-100785009D01*
X85599500Y-100785252D01*
X85599500Y-101164744D01*
X85599523Y-101164978D01*
X85600000Y-101174687D01*
X85600000Y-101501000D01*
X85581093Y-101559191D01*
X85531593Y-101595155D01*
X85501000Y-101600000D01*
X82449000Y-101600000D01*
X82390809Y-101581093D01*
X82354845Y-101531593D01*
X82350000Y-101501000D01*
X82350000Y-98499000D01*
X82368907Y-98440809D01*
X82418407Y-98404845D01*
X82449000Y-98400000D01*
X86801000Y-98400000D01*
X86859191Y-98418907D01*
G37*
%TD.AperFunction*%
%TD*%
%TA.AperFunction,Conductor*%
%TO.N,M3_A*%
G36*
X86815907Y-103404844D02*
G01*
X86826087Y-103408151D01*
X86875589Y-103444111D01*
X86894500Y-103502301D01*
X86894500Y-105499006D01*
X86875593Y-105557197D01*
X86853712Y-105579083D01*
X86850969Y-105581077D01*
X86792783Y-105600000D01*
X85600000Y-105600000D01*
X85600000Y-105600001D01*
X85600000Y-105772881D01*
X85599880Y-105777748D01*
X85599642Y-105782583D01*
X85599609Y-105783030D01*
X85599500Y-105785256D01*
X85599500Y-106164734D01*
X85599607Y-106166927D01*
X85599641Y-106167379D01*
X85599881Y-106172263D01*
X85600000Y-106177122D01*
X85600000Y-106485319D01*
X85595154Y-106515912D01*
X85591032Y-106528598D01*
X85555080Y-106578089D01*
X85550959Y-106581084D01*
X85492771Y-106600000D01*
X82464680Y-106600000D01*
X82434087Y-106595154D01*
X82421401Y-106591032D01*
X82371901Y-106555068D01*
X82371894Y-106555058D01*
X82368900Y-106550936D01*
X82350000Y-106492756D01*
X82350000Y-103514680D01*
X82354843Y-103484094D01*
X82355642Y-103481635D01*
X82358965Y-103471405D01*
X82394923Y-103421906D01*
X82395522Y-103421471D01*
X82399063Y-103418900D01*
X82457243Y-103400000D01*
X86785320Y-103400000D01*
X86815907Y-103404844D01*
G37*
%TD.AperFunction*%
%TD*%
%TA.AperFunction,Conductor*%
%TO.N,VBAT*%
G36*
X87880081Y-103418907D02*
G01*
X87891893Y-103428995D01*
X87923387Y-103460489D01*
X87923389Y-103460490D01*
X87923390Y-103460491D01*
X87923391Y-103460492D01*
X88026110Y-103519797D01*
X88026111Y-103519797D01*
X88026114Y-103519799D01*
X88140691Y-103550500D01*
X88140693Y-103550500D01*
X88259307Y-103550500D01*
X88259309Y-103550500D01*
X88373886Y-103519799D01*
X88373888Y-103519797D01*
X88373890Y-103519797D01*
X88476608Y-103460492D01*
X88476608Y-103460491D01*
X88476613Y-103460489D01*
X88508107Y-103428995D01*
X88562624Y-103401219D01*
X88578110Y-103400000D01*
X89751000Y-103400000D01*
X89809191Y-103418907D01*
X89845155Y-103468407D01*
X89850000Y-103499000D01*
X89850000Y-106501000D01*
X89831093Y-106559191D01*
X89781593Y-106595155D01*
X89751000Y-106600000D01*
X89242357Y-106600000D01*
X89184166Y-106581093D01*
X89148202Y-106531593D01*
X89146730Y-106526623D01*
X89119799Y-106426114D01*
X89119797Y-106426111D01*
X89119797Y-106426109D01*
X89060492Y-106323391D01*
X89060490Y-106323389D01*
X89060489Y-106323387D01*
X88976613Y-106239511D01*
X88976610Y-106239509D01*
X88976608Y-106239507D01*
X88873889Y-106180202D01*
X88873890Y-106180202D01*
X88860351Y-106176574D01*
X88759309Y-106149500D01*
X88640691Y-106149500D01*
X88583785Y-106164748D01*
X88526109Y-106180202D01*
X88423391Y-106239507D01*
X88339509Y-106323389D01*
X88335736Y-106329925D01*
X88290266Y-106370865D01*
X88229416Y-106377260D01*
X88176428Y-106346667D01*
X88164264Y-106329925D01*
X88160490Y-106323389D01*
X88160489Y-106323387D01*
X88076613Y-106239511D01*
X88076610Y-106239509D01*
X88076608Y-106239507D01*
X87973889Y-106180202D01*
X87973890Y-106180202D01*
X87960351Y-106176574D01*
X87859309Y-106149500D01*
X87740691Y-106149500D01*
X87683785Y-106164748D01*
X87626109Y-106180202D01*
X87523391Y-106239507D01*
X87439507Y-106323391D01*
X87380202Y-106426109D01*
X87353270Y-106526623D01*
X87319946Y-106577938D01*
X87262824Y-106599864D01*
X87257643Y-106600000D01*
X87199000Y-106600000D01*
X87140809Y-106581093D01*
X87104845Y-106531593D01*
X87100000Y-106501000D01*
X87100000Y-103499000D01*
X87118907Y-103440809D01*
X87168407Y-103404845D01*
X87199000Y-103400000D01*
X87821890Y-103400000D01*
X87880081Y-103418907D01*
G37*
%TD.AperFunction*%
%TD*%
%TA.AperFunction,Conductor*%
%TO.N,VBAT*%
G36*
X110815834Y-93418907D02*
G01*
X110851798Y-93468407D01*
X110853265Y-93473360D01*
X110876619Y-93560520D01*
X110880202Y-93573890D01*
X110939507Y-93676608D01*
X110939509Y-93676610D01*
X110939511Y-93676613D01*
X111023387Y-93760489D01*
X111023389Y-93760490D01*
X111023391Y-93760492D01*
X111126110Y-93819797D01*
X111126111Y-93819797D01*
X111126114Y-93819799D01*
X111240691Y-93850500D01*
X111240693Y-93850500D01*
X111359307Y-93850500D01*
X111359309Y-93850500D01*
X111473886Y-93819799D01*
X111473888Y-93819797D01*
X111473890Y-93819797D01*
X111576608Y-93760492D01*
X111576608Y-93760491D01*
X111576613Y-93760489D01*
X111660489Y-93676613D01*
X111664263Y-93670075D01*
X111709731Y-93629135D01*
X111770581Y-93622738D01*
X111823570Y-93653329D01*
X111835735Y-93670073D01*
X111839511Y-93676613D01*
X111923387Y-93760489D01*
X111923389Y-93760490D01*
X111923391Y-93760492D01*
X112026110Y-93819797D01*
X112026111Y-93819797D01*
X112026114Y-93819799D01*
X112140691Y-93850500D01*
X112140693Y-93850500D01*
X112259307Y-93850500D01*
X112259309Y-93850500D01*
X112373886Y-93819799D01*
X112373888Y-93819797D01*
X112373890Y-93819797D01*
X112476608Y-93760492D01*
X112476608Y-93760491D01*
X112476613Y-93760489D01*
X112560489Y-93676613D01*
X112619799Y-93573886D01*
X112646730Y-93473375D01*
X112680054Y-93422062D01*
X112737176Y-93400136D01*
X112742357Y-93400000D01*
X112801000Y-93400000D01*
X112859191Y-93418907D01*
X112895155Y-93468407D01*
X112900000Y-93499000D01*
X112900000Y-96501000D01*
X112881093Y-96559191D01*
X112831593Y-96595155D01*
X112801000Y-96600000D01*
X112178110Y-96600000D01*
X112119919Y-96581093D01*
X112108107Y-96571005D01*
X112096293Y-96559191D01*
X112076613Y-96539511D01*
X112076610Y-96539509D01*
X112076609Y-96539508D01*
X112076608Y-96539507D01*
X111973889Y-96480202D01*
X111973890Y-96480202D01*
X111960351Y-96476574D01*
X111859309Y-96449500D01*
X111740691Y-96449500D01*
X111670567Y-96468289D01*
X111626109Y-96480202D01*
X111523391Y-96539507D01*
X111491893Y-96571005D01*
X111437376Y-96598781D01*
X111421890Y-96600000D01*
X110249000Y-96600000D01*
X110190809Y-96581093D01*
X110154845Y-96531593D01*
X110150000Y-96501000D01*
X110150000Y-93499000D01*
X110168907Y-93440809D01*
X110218407Y-93404845D01*
X110249000Y-93400000D01*
X110757643Y-93400000D01*
X110815834Y-93418907D01*
G37*
%TD.AperFunction*%
%TD*%
%TA.AperFunction,Conductor*%
%TO.N,M1_C*%
G36*
X95559191Y-113118907D02*
G01*
X95595155Y-113168407D01*
X95600000Y-113199000D01*
X95600000Y-114400000D01*
X95775311Y-114400000D01*
X95785012Y-114400476D01*
X95785248Y-114400499D01*
X95785252Y-114400500D01*
X95785256Y-114400500D01*
X96164744Y-114400500D01*
X96164748Y-114400500D01*
X96164751Y-114400499D01*
X96164988Y-114400476D01*
X96174689Y-114400000D01*
X96501000Y-114400000D01*
X96559191Y-114418907D01*
X96595155Y-114468407D01*
X96600000Y-114499000D01*
X96600000Y-117551000D01*
X96581093Y-117609191D01*
X96531593Y-117645155D01*
X96501000Y-117650000D01*
X93499000Y-117650000D01*
X93440809Y-117631093D01*
X93404845Y-117581593D01*
X93400000Y-117551000D01*
X93400000Y-113199000D01*
X93418907Y-113140809D01*
X93468407Y-113104845D01*
X93499000Y-113100000D01*
X95501000Y-113100000D01*
X95559191Y-113118907D01*
G37*
%TD.AperFunction*%
%TD*%
%TA.AperFunction,Conductor*%
%TO.N,VBAT*%
G36*
X101559191Y-110168907D02*
G01*
X101595155Y-110218407D01*
X101600000Y-110249000D01*
X101600000Y-110757643D01*
X101581093Y-110815834D01*
X101531593Y-110851798D01*
X101526639Y-110853265D01*
X101468386Y-110868873D01*
X101426109Y-110880202D01*
X101323391Y-110939507D01*
X101239507Y-111023391D01*
X101180202Y-111126109D01*
X101180201Y-111126114D01*
X101149500Y-111240691D01*
X101149500Y-111359309D01*
X101166269Y-111421890D01*
X101180202Y-111473890D01*
X101239507Y-111576608D01*
X101239509Y-111576610D01*
X101239511Y-111576613D01*
X101323387Y-111660489D01*
X101323389Y-111660490D01*
X101329925Y-111664264D01*
X101370865Y-111709734D01*
X101377260Y-111770584D01*
X101346667Y-111823572D01*
X101329925Y-111835736D01*
X101323389Y-111839509D01*
X101239507Y-111923391D01*
X101180202Y-112026109D01*
X101180201Y-112026114D01*
X101149500Y-112140691D01*
X101149500Y-112259309D01*
X101152311Y-112269799D01*
X101180202Y-112373890D01*
X101239507Y-112476608D01*
X101239509Y-112476610D01*
X101239511Y-112476613D01*
X101323387Y-112560489D01*
X101323389Y-112560490D01*
X101323391Y-112560492D01*
X101426110Y-112619797D01*
X101426111Y-112619797D01*
X101426114Y-112619799D01*
X101526625Y-112646731D01*
X101577937Y-112680053D01*
X101599864Y-112737174D01*
X101600000Y-112742356D01*
X101600000Y-112801000D01*
X101581093Y-112859191D01*
X101531593Y-112895155D01*
X101501000Y-112900000D01*
X98499000Y-112900000D01*
X98440809Y-112881093D01*
X98404845Y-112831593D01*
X98400000Y-112801000D01*
X98400000Y-112178109D01*
X98418907Y-112119918D01*
X98428990Y-112108111D01*
X98460489Y-112076613D01*
X98519799Y-111973886D01*
X98550500Y-111859309D01*
X98550500Y-111740691D01*
X98519799Y-111626114D01*
X98519797Y-111626111D01*
X98519797Y-111626109D01*
X98460492Y-111523391D01*
X98460491Y-111523390D01*
X98460490Y-111523389D01*
X98460489Y-111523387D01*
X98428995Y-111491893D01*
X98401219Y-111437376D01*
X98400000Y-111421890D01*
X98400000Y-110249000D01*
X98418907Y-110190809D01*
X98468407Y-110154845D01*
X98499000Y-110150000D01*
X101501000Y-110150000D01*
X101559191Y-110168907D01*
G37*
%TD.AperFunction*%
%TD*%
M02*
