%TF.GenerationSoftware,KiCad,Pcbnew,10.0.6-10.0.6~ubuntu24.04.1*%
%TF.CreationDate,2026-09-29T02:57:08+00:00*%
%TF.ProjectId,ridge3-esc,72696467-6533-42d6-9573-632e6b696361,1.0*%
%TF.SameCoordinates,Original*%
%TF.FileFunction,Paste,Top*%
%TF.FilePolarity,Positive*%
%FSLAX46Y46*%
G04 Gerber Fmt 4.6, Leading zero omitted, Abs format (unit mm)*
G04 Created by KiCad (PCBNEW 10.0.6-10.0.6~ubuntu24.04.1) date 2026-09-29 02:57:08*
%MOMM*%
%LPD*%
G01*
G04 APERTURE LIST*
G04 Aperture macros list*
%AMRoundRect*
0 Rectangle with rounded corners*
0 $1 Rounding radius*
0 $2 $3 $4 $5 $6 $7 $8 $9 X,Y pos of 4 corners*
0 Add a 4 corners polygon primitive as box body*
4,1,4,$2,$3,$4,$5,$6,$7,$8,$9,$2,$3,0*
0 Add four circle primitives for the rounded corners*
1,1,$1+$1,$2,$3*
1,1,$1+$1,$4,$5*
1,1,$1+$1,$6,$7*
1,1,$1+$1,$8,$9*
0 Add four rect primitives between the rounded corners*
20,1,$1+$1,$2,$3,$4,$5,0*
20,1,$1+$1,$4,$5,$6,$7,0*
20,1,$1+$1,$6,$7,$8,$9,0*
20,1,$1+$1,$8,$9,$2,$3,0*%
G04 Aperture macros list end*
%ADD10RoundRect,0.079500X-0.100500X0.079500X-0.100500X-0.079500X0.100500X-0.079500X0.100500X0.079500X0*%
%ADD11RoundRect,0.079500X0.079500X0.100500X-0.079500X0.100500X-0.079500X-0.100500X0.079500X-0.100500X0*%
%ADD12RoundRect,0.140000X-0.140000X-0.170000X0.140000X-0.170000X0.140000X0.170000X-0.140000X0.170000X0*%
%ADD13R,0.600000X0.400000*%
%ADD14R,0.400000X0.600000*%
%ADD15R,2.300000X2.700000*%
%ADD16R,2.700000X2.300000*%
%ADD17RoundRect,0.079500X0.100500X-0.079500X0.100500X0.079500X-0.100500X0.079500X-0.100500X-0.079500X0*%
%ADD18RoundRect,0.079500X-0.079500X-0.100500X0.079500X-0.100500X0.079500X0.100500X-0.079500X0.100500X0*%
%ADD19RoundRect,0.135000X-0.135000X-0.185000X0.135000X-0.185000X0.135000X0.185000X-0.135000X0.185000X0*%
%ADD20RoundRect,0.242500X0.242500X-0.422500X0.242500X0.422500X-0.242500X0.422500X-0.242500X-0.422500X0*%
%ADD21RoundRect,0.087500X0.087500X-0.337500X0.087500X0.337500X-0.087500X0.337500X-0.087500X-0.337500X0*%
%ADD22RoundRect,0.250000X0.475000X-0.250000X0.475000X0.250000X-0.475000X0.250000X-0.475000X-0.250000X0*%
%ADD23RoundRect,0.140000X0.170000X-0.140000X0.170000X0.140000X-0.170000X0.140000X-0.170000X-0.140000X0*%
%ADD24R,0.850000X0.350000*%
%ADD25RoundRect,0.140000X-0.170000X0.140000X-0.170000X-0.140000X0.170000X-0.140000X0.170000X0.140000X0*%
%ADD26R,0.350000X0.850000*%
%ADD27RoundRect,0.250000X-0.250000X-0.475000X0.250000X-0.475000X0.250000X0.475000X-0.250000X0.475000X0*%
%ADD28RoundRect,0.140000X0.140000X0.170000X-0.140000X0.170000X-0.140000X-0.170000X0.140000X-0.170000X0*%
%ADD29R,0.250000X0.800000*%
%ADD30R,0.800000X0.800000*%
%ADD31R,0.600000X1.550000*%
%ADD32R,1.500000X2.000000*%
G04 APERTURE END LIST*
D10*
%TO.C,R68*%
X92600000Y-92055000D03*
X92600000Y-92745000D03*
%TD*%
D11*
%TO.C,C36*%
X92045000Y-95950000D03*
X91355000Y-95950000D03*
%TD*%
%TO.C,R43*%
X87245000Y-97500000D03*
X86555000Y-97500000D03*
%TD*%
D12*
%TO.C,C42*%
X91520000Y-110700000D03*
X92480000Y-110700000D03*
%TD*%
D13*
%TO.C,Q3BH*%
X86020000Y-99030000D03*
X86020000Y-99680000D03*
X86020000Y-100320000D03*
X86020000Y-100970000D03*
X89380000Y-100970000D03*
X89380000Y-100320000D03*
X89380000Y-99680000D03*
X89380000Y-99030000D03*
D14*
X87700000Y-98580000D03*
D15*
X88020000Y-100020000D03*
D14*
X87700000Y-101420000D03*
%TD*%
D10*
%TO.C,R21*%
X107500000Y-112755000D03*
X107500000Y-113445000D03*
%TD*%
D11*
%TO.C,R48*%
X87245000Y-102500000D03*
X86555000Y-102500000D03*
%TD*%
D14*
%TO.C,Q4CH*%
X95970000Y-86020000D03*
X95320000Y-86020000D03*
X94680000Y-86020000D03*
X94030000Y-86020000D03*
X94030000Y-89380000D03*
X94680000Y-89380000D03*
X95320000Y-89380000D03*
X95970000Y-89380000D03*
D13*
X96420000Y-87700000D03*
D16*
X94980000Y-88020000D03*
D13*
X93580000Y-87700000D03*
%TD*%
D17*
%TO.C,R64*%
X97500000Y-87245000D03*
X97500000Y-86555000D03*
%TD*%
D18*
%TO.C,R10*%
X96500000Y-104595000D03*
X97190000Y-104595000D03*
%TD*%
D19*
%TO.C,R9*%
X98165000Y-104615000D03*
X99185000Y-104615000D03*
%TD*%
D20*
%TO.C,U_GVDD*%
X102245000Y-97025000D03*
X103445000Y-97025000D03*
D21*
X101870000Y-98475000D03*
X102520000Y-98475000D03*
X103170000Y-98475000D03*
X103820000Y-98475000D03*
X103820000Y-95575000D03*
X103170000Y-95575000D03*
X102520000Y-95575000D03*
X101870000Y-95575000D03*
%TD*%
D10*
%TO.C,C40*%
X91500000Y-98205000D03*
X91500000Y-98895000D03*
%TD*%
%TO.C,C12*%
X95950000Y-107955000D03*
X95950000Y-108645000D03*
%TD*%
D17*
%TO.C,R69*%
X92500000Y-87245000D03*
X92500000Y-86555000D03*
%TD*%
D22*
%TO.C,C6*%
X106525000Y-98395000D03*
X106525000Y-96495000D03*
%TD*%
D13*
%TO.C,Q2BH*%
X113980000Y-100970000D03*
X113980000Y-100320000D03*
X113980000Y-99680000D03*
X113980000Y-99030000D03*
X110620000Y-99030000D03*
X110620000Y-99680000D03*
X110620000Y-100320000D03*
X110620000Y-100970000D03*
D14*
X112300000Y-101420000D03*
D15*
X111980000Y-99980000D03*
D14*
X112300000Y-98580000D03*
%TD*%
D13*
%TO.C,Q2CH*%
X113980000Y-95970000D03*
X113980000Y-95320000D03*
X113980000Y-94680000D03*
X113980000Y-94030000D03*
X110620000Y-94030000D03*
X110620000Y-94680000D03*
X110620000Y-95320000D03*
X110620000Y-95970000D03*
D14*
X112300000Y-96420000D03*
D15*
X111980000Y-94980000D03*
D14*
X112300000Y-93580000D03*
%TD*%
D23*
%TO.C,C18*%
X110700000Y-108480000D03*
X110700000Y-107520000D03*
%TD*%
D24*
%TO.C,U_CS3*%
X91800000Y-108250000D03*
X91800000Y-108900000D03*
X91800000Y-109550000D03*
X94000000Y-109550000D03*
X94000000Y-108900000D03*
X94000000Y-108250000D03*
%TD*%
D25*
%TO.C,C55*%
X94400000Y-93420000D03*
X94400000Y-94380000D03*
%TD*%
D23*
%TO.C,C19*%
X105600000Y-106580000D03*
X105600000Y-105620000D03*
%TD*%
D26*
%TO.C,U_CS1*%
X108250000Y-108200000D03*
X108900000Y-108200000D03*
X109550000Y-108200000D03*
X109550000Y-106000000D03*
X108900000Y-106000000D03*
X108250000Y-106000000D03*
%TD*%
D13*
%TO.C,Q2AH*%
X113980000Y-105970000D03*
X113980000Y-105320000D03*
X113980000Y-104680000D03*
X113980000Y-104030000D03*
X110620000Y-104030000D03*
X110620000Y-104680000D03*
X110620000Y-105320000D03*
X110620000Y-105970000D03*
D14*
X112300000Y-106420000D03*
D15*
X111980000Y-104980000D03*
D14*
X112300000Y-103580000D03*
%TD*%
D24*
%TO.C,U_CS2*%
X108200000Y-91750000D03*
X108200000Y-91100000D03*
X108200000Y-90450000D03*
X106000000Y-90450000D03*
X106000000Y-91100000D03*
X106000000Y-91750000D03*
%TD*%
D10*
%TO.C,R16*%
X102500000Y-112755000D03*
X102500000Y-113445000D03*
%TD*%
D26*
%TO.C,U_CS4*%
X91750000Y-91800000D03*
X91100000Y-91800000D03*
X90450000Y-91800000D03*
X90450000Y-94000000D03*
X91100000Y-94000000D03*
X91750000Y-94000000D03*
%TD*%
D11*
%TO.C,R53*%
X87245000Y-107500000D03*
X86555000Y-107500000D03*
%TD*%
D17*
%TO.C,C48*%
X104050000Y-92045000D03*
X104050000Y-91355000D03*
%TD*%
D27*
%TO.C,C4*%
X95845000Y-95975000D03*
X97745000Y-95975000D03*
%TD*%
D14*
%TO.C,Q1BH*%
X99030000Y-113980000D03*
X99680000Y-113980000D03*
X100320000Y-113980000D03*
X100970000Y-113980000D03*
X100970000Y-110620000D03*
X100320000Y-110620000D03*
X99680000Y-110620000D03*
X99030000Y-110620000D03*
D13*
X98580000Y-112300000D03*
D16*
X100020000Y-111980000D03*
D13*
X101420000Y-112300000D03*
%TD*%
D18*
%TO.C,R27*%
X112755000Y-102500000D03*
X113445000Y-102500000D03*
%TD*%
D28*
%TO.C,C45*%
X98080000Y-91550000D03*
X97120000Y-91550000D03*
%TD*%
D13*
%TO.C,Q3AH*%
X86020000Y-94030000D03*
X86020000Y-94680000D03*
X86020000Y-95320000D03*
X86020000Y-95970000D03*
X89380000Y-95970000D03*
X89380000Y-95320000D03*
X89380000Y-94680000D03*
X89380000Y-94030000D03*
D14*
X87700000Y-93580000D03*
D15*
X88020000Y-95020000D03*
D14*
X87700000Y-96420000D03*
%TD*%
D18*
%TO.C,R37*%
X112755000Y-92500000D03*
X113445000Y-92500000D03*
%TD*%
D17*
%TO.C,C26*%
X108500000Y-103285000D03*
X108500000Y-102595000D03*
%TD*%
D11*
%TO.C,C52*%
X101795000Y-91500000D03*
X101105000Y-91500000D03*
%TD*%
D14*
%TO.C,Q4AH*%
X105970000Y-86020000D03*
X105320000Y-86020000D03*
X104680000Y-86020000D03*
X104030000Y-86020000D03*
X104030000Y-89380000D03*
X104680000Y-89380000D03*
X105320000Y-89380000D03*
X105970000Y-89380000D03*
D13*
X106420000Y-87700000D03*
D16*
X104980000Y-88020000D03*
D13*
X103580000Y-87700000D03*
%TD*%
D19*
%TO.C,R6*%
X100265000Y-104715000D03*
X101285000Y-104715000D03*
%TD*%
D28*
%TO.C,C31*%
X106580000Y-94400000D03*
X105620000Y-94400000D03*
%TD*%
D12*
%TO.C,C9*%
X101920000Y-108450000D03*
X102880000Y-108450000D03*
%TD*%
D18*
%TO.C,C14*%
X96715000Y-108500000D03*
X97405000Y-108500000D03*
%TD*%
D12*
%TO.C,C43*%
X93420000Y-105600000D03*
X94380000Y-105600000D03*
%TD*%
D25*
%TO.C,C54*%
X89300000Y-91520000D03*
X89300000Y-92480000D03*
%TD*%
D23*
%TO.C,C21*%
X108450000Y-98080000D03*
X108450000Y-97120000D03*
%TD*%
D29*
%TO.C,U_BUCK*%
X99045000Y-98655000D03*
X99545000Y-98655000D03*
X100045000Y-98655000D03*
X100545000Y-98655000D03*
X100545000Y-96895000D03*
X100045000Y-96895000D03*
X99545000Y-96895000D03*
X99045000Y-96895000D03*
%TD*%
D12*
%TO.C,C3*%
X99325000Y-95655000D03*
X100285000Y-95655000D03*
%TD*%
D30*
%TO.C,LED_PWR*%
X116795000Y-110395000D03*
X116795000Y-108895000D03*
%TD*%
D25*
%TO.C,C33*%
X91550000Y-101920000D03*
X91550000Y-102880000D03*
%TD*%
D18*
%TO.C,C16*%
X98205000Y-108500000D03*
X98895000Y-108500000D03*
%TD*%
D13*
%TO.C,Q3CH*%
X86020000Y-104030000D03*
X86020000Y-104680000D03*
X86020000Y-105320000D03*
X86020000Y-105970000D03*
X89380000Y-105970000D03*
X89380000Y-105320000D03*
X89380000Y-104680000D03*
X89380000Y-104030000D03*
D14*
X87700000Y-103580000D03*
D15*
X88020000Y-105020000D03*
D14*
X87700000Y-106420000D03*
%TD*%
D27*
%TO.C,C5*%
X101695000Y-106575000D03*
X103595000Y-106575000D03*
%TD*%
D14*
%TO.C,Q1AH*%
X94030000Y-113980000D03*
X94680000Y-113980000D03*
X95320000Y-113980000D03*
X95970000Y-113980000D03*
X95970000Y-110620000D03*
X95320000Y-110620000D03*
X94680000Y-110620000D03*
X94030000Y-110620000D03*
D13*
X93580000Y-112300000D03*
D16*
X95020000Y-111980000D03*
D13*
X96420000Y-112300000D03*
%TD*%
D11*
%TO.C,C50*%
X103285000Y-91500000D03*
X102595000Y-91500000D03*
%TD*%
%TO.C,R36*%
X107945000Y-92600000D03*
X107255000Y-92600000D03*
%TD*%
D10*
%TO.C,C38*%
X91500000Y-96715000D03*
X91500000Y-97405000D03*
%TD*%
D17*
%TO.C,C28*%
X108500000Y-101795000D03*
X108500000Y-101105000D03*
%TD*%
D14*
%TO.C,Q1CH*%
X104030000Y-113980000D03*
X104680000Y-113980000D03*
X105320000Y-113980000D03*
X105970000Y-113980000D03*
X105970000Y-110620000D03*
X105320000Y-110620000D03*
X104680000Y-110620000D03*
X104030000Y-110620000D03*
D13*
X103580000Y-112300000D03*
D16*
X105020000Y-111980000D03*
D13*
X106420000Y-112300000D03*
%TD*%
D27*
%TO.C,C2*%
X95645000Y-98125000D03*
X97545000Y-98125000D03*
%TD*%
D11*
%TO.C,R2*%
X105945000Y-93100000D03*
X105255000Y-93100000D03*
%TD*%
D10*
%TO.C,R4*%
X93100000Y-94055000D03*
X93100000Y-94745000D03*
%TD*%
D31*
%TO.C,J_FC*%
X96500000Y-103060000D03*
X97500000Y-103060000D03*
X98500000Y-103060000D03*
X99500000Y-103060000D03*
X100500000Y-103060000D03*
X101500000Y-103060000D03*
X102500000Y-103060000D03*
X103500000Y-103060000D03*
D32*
X104800000Y-100540000D03*
X95200000Y-100540000D03*
%TD*%
D17*
%TO.C,R59*%
X102500000Y-87245000D03*
X102500000Y-86555000D03*
%TD*%
D10*
%TO.C,R11*%
X97500000Y-112755000D03*
X97500000Y-113445000D03*
%TD*%
D17*
%TO.C,R20*%
X107400000Y-107945000D03*
X107400000Y-107255000D03*
%TD*%
D18*
%TO.C,R52*%
X92055000Y-107400000D03*
X92745000Y-107400000D03*
%TD*%
D14*
%TO.C,Q4BH*%
X100970000Y-86020000D03*
X100320000Y-86020000D03*
X99680000Y-86020000D03*
X99030000Y-86020000D03*
X99030000Y-89380000D03*
X99680000Y-89380000D03*
X100320000Y-89380000D03*
X100970000Y-89380000D03*
D13*
X101420000Y-87700000D03*
D16*
X99980000Y-88020000D03*
D13*
X98580000Y-87700000D03*
%TD*%
D18*
%TO.C,R3*%
X94055000Y-106900000D03*
X94745000Y-106900000D03*
%TD*%
%TO.C,R32*%
X112755000Y-97500000D03*
X113445000Y-97500000D03*
%TD*%
%TO.C,C24*%
X107955000Y-104050000D03*
X108645000Y-104050000D03*
%TD*%
D17*
%TO.C,R1*%
X106900000Y-105945000D03*
X106900000Y-105255000D03*
%TD*%
D28*
%TO.C,C30*%
X108480000Y-89300000D03*
X107520000Y-89300000D03*
%TD*%
M02*
