%TF.GenerationSoftware,KiCad,Pcbnew,10.0.6-10.0.6~ubuntu24.04.1*%
%TF.CreationDate,2026-10-03T14:19:27+00:00*%
%TF.ProjectId,ridge3-esc,72696467-6533-42d6-9573-632e6b696361,2.0*%
%TF.SameCoordinates,Original*%
%TF.FileFunction,Copper,L6,Inr*%
%TF.FilePolarity,Positive*%
%FSLAX46Y46*%
G04 Gerber Fmt 4.6, Leading zero omitted, Abs format (unit mm)*
G04 Created by KiCad (PCBNEW 10.0.6-10.0.6~ubuntu24.04.1) date 2026-10-03 14:19:27*
%MOMM*%
%LPD*%
G01*
G04 APERTURE LIST*
%TA.AperFunction,ComponentPad*%
%ADD10C,3.000000*%
%TD*%
%TA.AperFunction,ViaPad*%
%ADD11C,0.450000*%
%TD*%
%TA.AperFunction,ViaPad*%
%ADD12C,0.500000*%
%TD*%
%TA.AperFunction,ViaPad*%
%ADD13C,0.350000*%
%TD*%
%TA.AperFunction,ViaPad*%
%ADD14C,0.250000*%
%TD*%
%TA.AperFunction,Conductor*%
%ADD15C,0.200000*%
%TD*%
%TA.AperFunction,Conductor*%
%ADD16C,0.100000*%
%TD*%
G04 APERTURE END LIST*
D10*
%TO.N,VBAT*%
%TO.C,P_BAT+*%
X90600000Y-116050000D03*
%TD*%
%TO.N,GND*%
%TO.C,P_BAT-*%
X109400000Y-116050000D03*
%TD*%
D11*
%TO.N,VBAT*%
X94050000Y-102625000D03*
D12*
X94650000Y-89850000D03*
D11*
X98520000Y-101345000D03*
D12*
X93800000Y-89850000D03*
X89850000Y-94650000D03*
X89850000Y-96200000D03*
X106200000Y-110150000D03*
X110150000Y-100350000D03*
X95350000Y-89850000D03*
X96200000Y-110150000D03*
X89800000Y-98800000D03*
X98800000Y-89850000D03*
X101200000Y-110150000D03*
X105350000Y-89850000D03*
X105350000Y-110150000D03*
X110150000Y-105350000D03*
D11*
X103165000Y-101635000D03*
D12*
X110150000Y-103800000D03*
X98800000Y-110200000D03*
X110150000Y-99650000D03*
X110150000Y-95350000D03*
X101200000Y-89800000D03*
X96200000Y-89800000D03*
X110150000Y-104650000D03*
D11*
X105950000Y-97375000D03*
D12*
X100350000Y-89850000D03*
X110150000Y-93800000D03*
D11*
X98945000Y-102570000D03*
D12*
X89850000Y-95350000D03*
X110150000Y-94650000D03*
X89800000Y-103800000D03*
D11*
X97445000Y-102570000D03*
X97375000Y-94050000D03*
D12*
X89850000Y-100350000D03*
X95350000Y-110150000D03*
X104650000Y-110150000D03*
X100350000Y-110150000D03*
X103800000Y-89850000D03*
X99650000Y-110150000D03*
X89850000Y-99650000D03*
X110200000Y-101200000D03*
X110200000Y-96200000D03*
D11*
X98445000Y-101995000D03*
D12*
X89850000Y-104650000D03*
X89850000Y-106200000D03*
D11*
X102625000Y-105950000D03*
D12*
X94650000Y-110150000D03*
D11*
X102545000Y-102570000D03*
D12*
X99650000Y-89850000D03*
X103800000Y-110200000D03*
X89850000Y-101200000D03*
X104650000Y-89850000D03*
D11*
X98730000Y-98120000D03*
D12*
X89850000Y-105350000D03*
D11*
X96737800Y-98782900D03*
D12*
X110150000Y-98800000D03*
D13*
%TO.N,ESC_3V3*%
X103875000Y-104125000D03*
X96775000Y-100725000D03*
X106900000Y-109150000D03*
X84450000Y-107250000D03*
X104250000Y-108425000D03*
D11*
X100000000Y-98120000D03*
D13*
X102950000Y-96525000D03*
X84150000Y-106950000D03*
X97725000Y-98700000D03*
X93075000Y-90825000D03*
D12*
%TO.N,M4_A*%
X94200000Y-83750000D03*
X95800000Y-83750000D03*
D14*
X97005000Y-92650000D03*
D12*
X95000000Y-83750000D03*
X95800000Y-85250000D03*
X95800000Y-84500000D03*
D13*
X96725000Y-91050000D03*
D12*
X95000000Y-84500000D03*
X94200000Y-84500000D03*
X95000000Y-85250000D03*
D13*
%TO.N,CUR*%
X100150000Y-101175000D03*
X102450000Y-96350000D03*
X114400000Y-107375000D03*
X85600000Y-92625000D03*
X97650000Y-97650000D03*
X100575000Y-100500000D03*
X102075000Y-100500000D03*
X107375000Y-85600000D03*
X92625000Y-114400000D03*
D11*
%TO.N,GND*%
X108000000Y-95230000D03*
X92730000Y-101470000D03*
D12*
X86050000Y-92100000D03*
D11*
X109700000Y-105830000D03*
X93150000Y-93735000D03*
X97845000Y-99545000D03*
D12*
X90900000Y-113350000D03*
D11*
X100200000Y-93900000D03*
X101045000Y-99620000D03*
D12*
X86650000Y-92100000D03*
D11*
X100300000Y-106600000D03*
X90215000Y-109720000D03*
X94600000Y-94920000D03*
D12*
X113350000Y-109100000D03*
D11*
X97300000Y-109470000D03*
D12*
X86650000Y-90900000D03*
X112750000Y-109100000D03*
D11*
X92650000Y-98620000D03*
D12*
X92100000Y-113950000D03*
X86050000Y-90900000D03*
X113350000Y-107900000D03*
D11*
X90550000Y-96110000D03*
D12*
X92100000Y-113350000D03*
D11*
X104770000Y-108000000D03*
D12*
X86650000Y-91500000D03*
X113950000Y-108500000D03*
D11*
X99700000Y-93400000D03*
D12*
X91500000Y-113950000D03*
D11*
X108150000Y-92130000D03*
X99762700Y-104870000D03*
X102700000Y-90530000D03*
D12*
X107900000Y-86050000D03*
D11*
X91850000Y-107870000D03*
X106600000Y-99700000D03*
X103643000Y-102337000D03*
X106265000Y-93150000D03*
D12*
X113350000Y-108500000D03*
X87250000Y-90900000D03*
D11*
X109720000Y-109785000D03*
X109785000Y-90280000D03*
D12*
X107900000Y-86650000D03*
X109100000Y-86050000D03*
X108500000Y-87250000D03*
D11*
X102885000Y-99505000D03*
X101470000Y-101345000D03*
X109450000Y-103890000D03*
X103890000Y-90550000D03*
X92130000Y-91850000D03*
D12*
X90900000Y-112750000D03*
D11*
X93900000Y-99800000D03*
X100237000Y-95130500D03*
X98620000Y-107350000D03*
X103205000Y-97125000D03*
D12*
X91500000Y-112750000D03*
X90900000Y-113950000D03*
X113950000Y-107900000D03*
X112750000Y-108500000D03*
X113950000Y-109100000D03*
D11*
X107870000Y-108150000D03*
X105400000Y-105080000D03*
D12*
X108500000Y-86650000D03*
D11*
X93735000Y-106850000D03*
X99800000Y-106100000D03*
D12*
X109100000Y-87250000D03*
D11*
X90530000Y-97300000D03*
D12*
X109100000Y-86650000D03*
D11*
X96855000Y-97125000D03*
X95230000Y-92000000D03*
D12*
X87250000Y-91500000D03*
D11*
X90300000Y-94170000D03*
X101470000Y-107270000D03*
X93400000Y-100300000D03*
X94920000Y-105400000D03*
X106850000Y-106265000D03*
X109470000Y-102700000D03*
X98530000Y-92730000D03*
D12*
X86050000Y-91500000D03*
D11*
X94170000Y-109700000D03*
X92000000Y-104770000D03*
X107270000Y-98530000D03*
X106100000Y-100200000D03*
D12*
X91500000Y-113350000D03*
X108500000Y-86050000D03*
D11*
X107350000Y-101380000D03*
X101380000Y-92650000D03*
X95130500Y-99762700D03*
X96110000Y-109450000D03*
X90280000Y-90215000D03*
X104870000Y-100237000D03*
X105830000Y-90300000D03*
X105080000Y-94600000D03*
D12*
%TO.N,M4_B*%
X100000000Y-83750000D03*
X100000000Y-85250000D03*
X100800000Y-83750000D03*
X100800000Y-85250000D03*
D14*
X98950000Y-90705000D03*
D12*
X100800000Y-84500000D03*
X99200000Y-84500000D03*
X99200000Y-83750000D03*
X100000000Y-84500000D03*
D14*
%TO.N,M4_GHB*%
X99450000Y-91095000D03*
D13*
X98050000Y-86250000D03*
%TO.N,M1_3V3*%
X90150000Y-110400000D03*
D14*
X96590000Y-106200000D03*
X92590000Y-106200000D03*
D12*
%TO.N,M1_A*%
X105800000Y-115500000D03*
X104200000Y-116250000D03*
X105000000Y-116250000D03*
X105800000Y-116250000D03*
X105000000Y-115500000D03*
X104200000Y-115500000D03*
X105000000Y-114750000D03*
X104200000Y-114750000D03*
D13*
X103275000Y-108950000D03*
D14*
X102994999Y-107350000D03*
D13*
%TO.N,M1_CMP_A*%
X93100000Y-109350000D03*
X91260000Y-105800000D03*
X103875000Y-108000000D03*
D14*
%TO.N,M2_SWDIO*%
X107800000Y-103410000D03*
%TO.N,M1_SWDIO*%
X96590000Y-107800000D03*
%TO.N,M4_CMP_C*%
X105630000Y-95180000D03*
D13*
X103750000Y-91200000D03*
D12*
%TO.N,M2_C*%
X116250000Y-105000000D03*
X115500000Y-105800000D03*
X115500000Y-104200000D03*
D14*
X109294999Y-100450000D03*
D12*
X115500000Y-105000000D03*
X116250000Y-104200000D03*
X114750000Y-105800000D03*
X114750000Y-105000000D03*
X116250000Y-105800000D03*
D14*
%TO.N,M2_CMP_C*%
X104820000Y-105630000D03*
D13*
X108800000Y-103750000D03*
D14*
%TO.N,M3_CMP_B*%
X95620000Y-93970000D03*
%TO.N,M3_NTC*%
X95180000Y-93570000D03*
D13*
X90675000Y-95025000D03*
D12*
%TO.N,M2_A*%
X116250000Y-94200000D03*
X114750000Y-95800000D03*
X115500000Y-95000000D03*
D14*
X107350000Y-97005000D03*
D12*
X114750000Y-95000000D03*
X116250000Y-95000000D03*
X116250000Y-95800000D03*
D13*
X108950000Y-96725000D03*
D12*
X115500000Y-95800000D03*
X115500000Y-94200000D03*
D13*
%TO.N,M2_CMP_A*%
X107400000Y-108650000D03*
X109350000Y-106875000D03*
X105800000Y-108740000D03*
X114581800Y-97675000D03*
D14*
%TO.N,M3_SWDIO*%
X92200000Y-96590000D03*
D13*
%TO.N,M4_ISENSE*%
X108375000Y-91550000D03*
D14*
X105230000Y-95620000D03*
D12*
%TO.N,M1_C*%
X95800000Y-115500000D03*
X94200000Y-116250000D03*
X94200000Y-115500000D03*
D14*
X99550000Y-109294999D03*
D12*
X94200000Y-114750000D03*
X95000000Y-115500000D03*
X95800000Y-116250000D03*
X95000000Y-116250000D03*
X95000000Y-114750000D03*
D14*
%TO.N,M4_NTC*%
X106430000Y-95180000D03*
D13*
X104975000Y-90675000D03*
D14*
%TO.N,M2_NRST*%
X106600000Y-107850000D03*
D13*
%TO.N,M4_3V3*%
X109850000Y-89600000D03*
D14*
X103410000Y-93800000D03*
X107410000Y-93800000D03*
D12*
%TO.N,M3_A*%
X84500000Y-104200000D03*
X84500000Y-105800000D03*
D14*
X92650000Y-102994999D03*
D12*
X83750000Y-104200000D03*
X85250000Y-104200000D03*
X85250000Y-105000000D03*
X83750000Y-105000000D03*
X84500000Y-105000000D03*
X83750000Y-105800000D03*
D13*
X91050000Y-103275000D03*
%TO.N,M3_CMP_A*%
X90575000Y-93275000D03*
X94200000Y-91260000D03*
X90875000Y-107475000D03*
X85418600Y-102324900D03*
X93325000Y-103500000D03*
%TO.N,M2_3V3*%
X110400000Y-109850000D03*
D14*
X106200000Y-103410000D03*
X106200000Y-107410000D03*
%TO.N,M4_CMP_B*%
X106030000Y-95620000D03*
%TO.N,M4_NRST*%
X107850000Y-93400000D03*
D12*
%TO.N,M3_C*%
X84500000Y-94200000D03*
X83750000Y-95000000D03*
X85250000Y-94200000D03*
X84500000Y-95000000D03*
X83750000Y-95800000D03*
X83750000Y-94200000D03*
X84500000Y-95800000D03*
D14*
X90705000Y-99550000D03*
D12*
X85250000Y-95000000D03*
D14*
%TO.N,M3_GHC*%
X90705000Y-100050000D03*
D13*
X86250000Y-96950000D03*
D14*
%TO.N,M3_SWCLK*%
X91180000Y-95570000D03*
D13*
%TO.N,M4_CMP_A*%
X106700000Y-90575000D03*
X91775000Y-91175000D03*
X97646400Y-85422800D03*
X108740000Y-94200000D03*
X96450000Y-93275000D03*
X91800000Y-89250000D03*
D14*
%TO.N,M4_NEUTRAL*%
X107410000Y-94600000D03*
D13*
X108375000Y-93625000D03*
D12*
%TO.N,M4_C*%
X105800000Y-84500000D03*
D14*
X100450000Y-90705000D03*
D12*
X104200000Y-84500000D03*
X105800000Y-83750000D03*
X105000000Y-85250000D03*
X105800000Y-85250000D03*
X104200000Y-83750000D03*
X105000000Y-83750000D03*
X105000000Y-84500000D03*
D14*
%TO.N,M3_NEUTRAL*%
X94600000Y-92590000D03*
D13*
X93625000Y-91625000D03*
D14*
%TO.N,M4_GHC*%
X99950000Y-90705000D03*
D13*
X103050000Y-86250000D03*
D14*
%TO.N,M1_CMP_B*%
X93970000Y-104380000D03*
D13*
%TO.N,M1_CMP_C*%
X96250000Y-108800000D03*
D14*
X94370000Y-104820000D03*
D13*
%TO.N,M1_NEUTRAL*%
X91625000Y-106375000D03*
D14*
X92590000Y-105400000D03*
D12*
%TO.N,M2_B*%
X116250000Y-100800000D03*
X116250000Y-99200000D03*
D14*
X109294999Y-98950000D03*
D12*
X116250000Y-100000000D03*
X115500000Y-99200000D03*
X115500000Y-100000000D03*
X114750000Y-100000000D03*
X114750000Y-100800000D03*
X115500000Y-100800000D03*
D13*
%TO.N,M1_GHA*%
X106950000Y-113750000D03*
D14*
X102994999Y-106850000D03*
D12*
%TO.N,M1_B*%
X100000000Y-115500000D03*
X99200000Y-116250000D03*
X99200000Y-115500000D03*
X100000000Y-116250000D03*
D14*
X101050000Y-109294999D03*
D12*
X100800000Y-116250000D03*
X100800000Y-115500000D03*
X100000000Y-114750000D03*
X99200000Y-114750000D03*
D14*
%TO.N,M4_SIG*%
X105630000Y-91620000D03*
D13*
X101850000Y-98525000D03*
D14*
%TO.N,M2_SIG*%
X108380000Y-105630000D03*
D13*
X100250000Y-97450000D03*
%TO.N,M2_NEUTRAL*%
X106375000Y-108375000D03*
D14*
X105400000Y-107410000D03*
%TO.N,M1_CPH*%
X102994999Y-104850000D03*
%TO.N,M1_CPL*%
X102050000Y-103905000D03*
%TO.N,M3_CMP_C*%
X95180000Y-94370000D03*
D13*
X91200000Y-96250000D03*
D12*
%TO.N,M3_B*%
X84500000Y-99200000D03*
X83750000Y-100800000D03*
X84500000Y-100800000D03*
X84500000Y-100000000D03*
X85250000Y-100000000D03*
X83750000Y-100000000D03*
X85250000Y-99200000D03*
D14*
X90705000Y-101050000D03*
D12*
X83750000Y-99200000D03*
D14*
%TO.N,M3_GHB*%
X91095000Y-100550000D03*
D13*
X86250000Y-101950000D03*
D14*
%TO.N,M3_3V3*%
X93800000Y-96590000D03*
X93800000Y-92590000D03*
D13*
X89600000Y-90150000D03*
%TO.N,M3_SNSP*%
X89025000Y-93085000D03*
%TO.N,M3_SNSN*%
X88475000Y-92225000D03*
%TO.N,M3_IOUT*%
X91160000Y-91250000D03*
X84680000Y-92600000D03*
D14*
%TO.N,M1_NRST*%
X92150000Y-106600000D03*
D13*
%TO.N,ESC_VSENSE*%
X96475000Y-102875000D03*
X102650000Y-98450000D03*
X103775000Y-96750000D03*
X103250000Y-103775000D03*
X102900000Y-103475000D03*
X104750000Y-107075000D03*
X96225000Y-103250000D03*
X95250000Y-92925000D03*
X92925000Y-104750000D03*
X97175000Y-96525000D03*
D14*
X104380000Y-106830000D03*
D13*
X107075000Y-95250000D03*
X96750000Y-96225000D03*
D14*
X95620000Y-93170000D03*
%TO.N,M2_CPH*%
X104850000Y-97005000D03*
%TO.N,M2_CPL*%
X103905000Y-97950000D03*
D13*
%TO.N,M4_SNSP*%
X106915000Y-89025000D03*
%TO.N,M4_SNSN*%
X107775000Y-88475000D03*
D14*
%TO.N,M2_SWCLK*%
X108820000Y-104430000D03*
%TO.N,M2_CMP_B*%
X104380000Y-106030000D03*
D13*
%TO.N,M2_SNSP*%
X110975000Y-106915000D03*
%TO.N,M2_SNSN*%
X111525000Y-107775000D03*
D14*
%TO.N,M3_CPH*%
X95150000Y-102994999D03*
%TO.N,M3_CPL*%
X96095000Y-102050000D03*
D13*
%TO.N,M2_ISENSE*%
X108450000Y-108375000D03*
D14*
X104380000Y-105230000D03*
D13*
%TO.N,M2_VCP*%
X105350000Y-96565000D03*
%TO.N,M1_ISENSE*%
X91625000Y-108450000D03*
D14*
X94770000Y-104380000D03*
D13*
%TO.N,M2_GHA*%
X113750000Y-93050000D03*
D14*
X106850000Y-97005000D03*
D13*
%TO.N,M1_SNSP*%
X93085000Y-110975000D03*
%TO.N,M1_SNSN*%
X92225000Y-111525000D03*
%TO.N,M2_NTC*%
X109325000Y-104975000D03*
D14*
X104820000Y-106430000D03*
%TO.N,M4_SWCLK*%
X104430000Y-91180000D03*
%TO.N,M1_IDRIVE*%
X97605000Y-107350000D03*
%TO.N,M2_GHC*%
X109294999Y-99950000D03*
D13*
X113750000Y-103050000D03*
D14*
%TO.N,M3_IDRIVE*%
X92650000Y-97605000D03*
%TO.N,M1_GHC*%
X100050000Y-109294999D03*
D13*
X96950000Y-113750000D03*
%TO.N,M1_VCP*%
X103435000Y-105350000D03*
%TO.N,M1_GHB*%
X101950000Y-113750000D03*
D14*
X100550000Y-108905000D03*
%TO.N,M2_DVDD*%
X104850000Y-102395000D03*
D13*
%TO.N,DRV_EN*%
X96525000Y-98225000D03*
X99375000Y-98725000D03*
D14*
%TO.N,M4_IDRIVE*%
X102395000Y-92650000D03*
D13*
%TO.N,M3_VCP*%
X94650000Y-103435000D03*
%TO.N,M3_SIG*%
X99350000Y-100500000D03*
D14*
X91620000Y-94370000D03*
%TO.N,M1_DVDD*%
X97605000Y-104850000D03*
%TO.N,M1_NTC*%
X93570000Y-104820000D03*
D13*
X95025000Y-109325000D03*
D14*
%TO.N,M3_NRST*%
X93400000Y-92150000D03*
%TO.N,M4_DVDD*%
X102395000Y-95150000D03*
%TO.N,M2_IDRIVE*%
X107350000Y-102395000D03*
D13*
%TO.N,M4_VCP*%
X96565000Y-94650000D03*
D14*
%TO.N,M2_GHB*%
X108905000Y-99450000D03*
D13*
X113750000Y-98050000D03*
D14*
%TO.N,M4_GHA*%
X97005000Y-93150000D03*
D13*
X93050000Y-86250000D03*
D14*
%TO.N,M3_DVDD*%
X95150000Y-97605000D03*
D13*
%TO.N,M3_GHA*%
X86250000Y-106950000D03*
D14*
X93150000Y-102994999D03*
D13*
%TO.N,M3_ISENSE*%
X91550000Y-91625000D03*
D14*
X95620000Y-94770000D03*
%TO.N,M4_SWDIO*%
X103410000Y-92200000D03*
%TO.N,M1_SIG*%
X94370000Y-108380000D03*
D11*
X98095000Y-96850000D03*
D14*
%TO.N,M4_CPH*%
X97005000Y-95150000D03*
%TO.N,M4_CPL*%
X97950000Y-96095000D03*
%TO.N,M1_SWCLK*%
X95570000Y-108820000D03*
D12*
%TO.N,M1_SRC*%
X98100000Y-111800000D03*
D13*
X101800000Y-109735000D03*
D12*
X93100000Y-111800000D03*
X101600000Y-111300000D03*
X106600000Y-111300000D03*
X101600000Y-112200000D03*
X103100000Y-111800000D03*
X106600000Y-112200000D03*
X102500000Y-111850000D03*
X97500000Y-111850000D03*
X107500000Y-111850000D03*
D14*
X98550000Y-109294999D03*
D13*
%TO.N,M1_GLA*%
X107050000Y-109850000D03*
X106950000Y-113250000D03*
%TO.N,M3_GLA*%
X86750000Y-106950000D03*
X90150000Y-107050000D03*
D14*
%TO.N,M3_SRC*%
X90705000Y-98550000D03*
D12*
X88150000Y-107500000D03*
X88200000Y-103100000D03*
X88700000Y-106600000D03*
X88150000Y-97500000D03*
X88200000Y-93100000D03*
X88150000Y-102500000D03*
X88700000Y-101600000D03*
X88200000Y-98100000D03*
X87800000Y-101600000D03*
X87800000Y-106600000D03*
D13*
X90265000Y-101800000D03*
%TO.N,M3_GLB*%
X86750000Y-101950000D03*
D14*
X91095000Y-101550000D03*
D13*
%TO.N,M3_GLC*%
X86750000Y-96950000D03*
D14*
X90705000Y-99050000D03*
%TO.N,M3_HA*%
X96095000Y-98550000D03*
X92600000Y-96150000D03*
%TO.N,M3_LA*%
X96095000Y-99050000D03*
X94600000Y-96590000D03*
%TO.N,M3_HB*%
X96095000Y-99550000D03*
X93000000Y-96590000D03*
%TO.N,M3_LB*%
X96095000Y-100050000D03*
X95620000Y-95570000D03*
%TO.N,M3_HC*%
X93400000Y-96150000D03*
X96095000Y-100550000D03*
%TO.N,M3_LC*%
X95180000Y-95170000D03*
X96095000Y-101050000D03*
D12*
%TO.N,M4_SRC*%
X93400000Y-88700000D03*
X101900000Y-88200000D03*
X92500000Y-88150000D03*
X96900000Y-88200000D03*
X106900000Y-88200000D03*
X93400000Y-87800000D03*
D14*
X101450000Y-90705000D03*
D12*
X98400000Y-88700000D03*
X102500000Y-88150000D03*
X97500000Y-88150000D03*
X98400000Y-87800000D03*
D13*
X98200000Y-90265000D03*
D12*
%TO.N,M2_SRC*%
X111800000Y-96900000D03*
X111800000Y-106900000D03*
D14*
X109294999Y-101450000D03*
D12*
X112200000Y-98400000D03*
D13*
X109735000Y-98200000D03*
D12*
X111300000Y-98400000D03*
X111850000Y-102500000D03*
X111850000Y-92500000D03*
X111800000Y-101900000D03*
X112200000Y-93400000D03*
X111850000Y-97500000D03*
X111300000Y-93400000D03*
D13*
%TO.N,M2_GLA*%
X109850000Y-92950000D03*
X113250000Y-93050000D03*
%TO.N,M4_GLA*%
X92950000Y-90150000D03*
X93050000Y-86750000D03*
D14*
%TO.N,M2_GLB*%
X108905000Y-98450000D03*
D13*
X113250000Y-98050000D03*
%TO.N,M2_GLC*%
X113250000Y-103050000D03*
D14*
X109294999Y-100950000D03*
%TO.N,M2_HA*%
X107400000Y-103850000D03*
X103905000Y-101450000D03*
%TO.N,M2_LA*%
X105400000Y-103410000D03*
X103905000Y-100950000D03*
%TO.N,M2_HB*%
X107000000Y-103410000D03*
X103905000Y-100450000D03*
%TO.N,M2_LB*%
X104380000Y-104430000D03*
X103905000Y-99950000D03*
%TO.N,M2_HC*%
X103905000Y-99450000D03*
X106600000Y-103850000D03*
%TO.N,M2_LC*%
X103905000Y-98950000D03*
X104820000Y-104830000D03*
%TO.N,M4_LC*%
X98950000Y-96095000D03*
X104830000Y-95180000D03*
%TO.N,M4_LB*%
X104430000Y-95620000D03*
X99950000Y-96095000D03*
%TO.N,M4_LA*%
X103410000Y-94600000D03*
X100950000Y-96095000D03*
%TO.N,M4_HC*%
X99450000Y-96095000D03*
X103850000Y-93400000D03*
%TO.N,M4_HB*%
X100450000Y-96095000D03*
X103410000Y-93000000D03*
%TO.N,M4_HA*%
X101450000Y-96095000D03*
X103850000Y-92600000D03*
D13*
%TO.N,M4_GLC*%
X103050000Y-86750000D03*
D14*
X100950000Y-90705000D03*
%TO.N,M1_LC*%
X95170000Y-104820000D03*
X101050000Y-103905000D03*
%TO.N,M1_LB*%
X95570000Y-104380000D03*
X100050000Y-103905000D03*
%TO.N,M1_LA*%
X99050000Y-103905000D03*
X96590000Y-105400000D03*
%TO.N,M1_HC*%
X100550000Y-103905000D03*
X96150000Y-106600000D03*
%TO.N,M1_HB*%
X99550000Y-103905000D03*
X96590000Y-107000000D03*
%TO.N,M1_HA*%
X98550000Y-103905000D03*
X96150000Y-107400000D03*
D13*
%TO.N,M4_GLB*%
X98050000Y-86750000D03*
D14*
X98450000Y-91095000D03*
%TO.N,M1_GLB*%
X101550000Y-108905000D03*
D13*
X101950000Y-113250000D03*
D14*
%TO.N,M1_GLC*%
X99050000Y-109294999D03*
D13*
X96950000Y-113250000D03*
%TD*%
%TO.N,ESC_3V3*%
D15*
X100120000Y-98120000D02*
X100200000Y-98200000D01*
X100775000Y-97625000D02*
X100200000Y-98200000D01*
X100000000Y-98120000D02*
X100120000Y-98120000D01*
X102800000Y-96625000D02*
X101800000Y-97625000D01*
X101800000Y-97625000D02*
X100775000Y-97625000D01*
X102775200Y-96699800D02*
X102950000Y-96525000D01*
%TO.N,CUR*%
D16*
X98325000Y-98350000D02*
X100475000Y-100500000D01*
X97650000Y-97650000D02*
X98325000Y-98325000D01*
X100475000Y-100500000D02*
X100575000Y-100500000D01*
X98325000Y-98325000D02*
X98325000Y-98350000D01*
%TO.N,M1_CMP_A*%
X92912500Y-108262000D02*
X92550000Y-108625000D01*
X93100000Y-109175000D02*
X93100000Y-109350000D01*
X103725000Y-107850000D02*
X103875000Y-108000000D01*
X92937600Y-108262000D02*
X92912500Y-108262000D01*
X96425000Y-108175000D02*
X99950000Y-108175000D01*
X93225000Y-108000000D02*
X96250000Y-108000000D01*
X92937600Y-108262000D02*
X92950300Y-108274700D01*
X92575000Y-108650000D02*
X93100000Y-109175000D01*
X103725000Y-107000000D02*
X103725000Y-107850000D01*
X96250000Y-108000000D02*
X96425000Y-108175000D01*
X101700000Y-106425000D02*
X103150000Y-106425000D01*
X103150000Y-106425000D02*
X103725000Y-107000000D01*
X99950000Y-108175000D02*
X101700000Y-106425000D01*
X92700000Y-108525000D02*
X93225000Y-108000000D01*
%TO.N,M2_CMP_A*%
X107375000Y-108675000D02*
X107400000Y-108650000D01*
X116743400Y-106891600D02*
X116743400Y-99029000D01*
X115389400Y-97675000D02*
X114581800Y-97675000D01*
X108808400Y-110190300D02*
X113444700Y-110190300D01*
X116743400Y-99029000D02*
X115389400Y-97675000D01*
X107358100Y-108740000D02*
X108808400Y-110190300D01*
X105800000Y-108740000D02*
X107358100Y-108740000D01*
X113444700Y-110190300D02*
X116743400Y-106891600D01*
%TO.N,M4_ISENSE*%
X107475000Y-95175000D02*
X107475000Y-95525000D01*
X107475000Y-95525000D02*
X107000000Y-96000000D01*
X108200000Y-91725000D02*
X107975000Y-91725000D01*
X105540000Y-95740000D02*
X105350000Y-95740000D01*
X107800000Y-94850000D02*
X107475000Y-95175000D01*
X105800000Y-96000000D02*
X105350000Y-95550000D01*
X107050000Y-93975000D02*
X107300000Y-94225000D01*
X105350000Y-95740000D02*
X105230000Y-95620000D01*
X107050000Y-92650000D02*
X107050000Y-93975000D01*
X108375000Y-91550000D02*
X108200000Y-91725000D01*
X107575000Y-94225000D02*
X107800000Y-94450000D01*
X107800000Y-94450000D02*
X107800000Y-94850000D01*
X107000000Y-96000000D02*
X105800000Y-96000000D01*
X107975000Y-91725000D02*
X107050000Y-92650000D01*
X107300000Y-94225000D02*
X107575000Y-94225000D01*
%TO.N,M3_CMP_A*%
X90700000Y-89550000D02*
X86425000Y-89550000D01*
X93550000Y-103150000D02*
X93550000Y-101050000D01*
X84613100Y-102324900D02*
X85418600Y-102324900D01*
X90747400Y-89605400D02*
X86473000Y-89605400D01*
X94200000Y-91260000D02*
X92402000Y-91260000D01*
X91125000Y-92725000D02*
X91512500Y-92687500D01*
X91800000Y-94700000D02*
X91975000Y-94525000D01*
X92350000Y-91200000D02*
X90700000Y-89550000D01*
X93550000Y-101050000D02*
X91800000Y-99300000D01*
X90575000Y-93275000D02*
X91125000Y-92725000D01*
X83256600Y-92821800D02*
X83256600Y-100968400D01*
X93325000Y-103375000D02*
X93550000Y-103150000D01*
X83250000Y-92725000D02*
X83250000Y-105975000D01*
X83825000Y-106550000D02*
X84275000Y-106550000D01*
X91975000Y-93225000D02*
X91700000Y-92950000D01*
X90250000Y-108100000D02*
X90875000Y-107475000D01*
X92402000Y-91260000D02*
X90747400Y-89605400D01*
X85475000Y-107900000D02*
X85675000Y-108100000D01*
X91800000Y-99300000D02*
X91800000Y-94700000D01*
X93325000Y-103500000D02*
X93325000Y-103375000D01*
X86473000Y-89605400D02*
X83256600Y-92821800D01*
X84275000Y-106550000D02*
X85475000Y-107750000D01*
X83256600Y-100968400D02*
X84613100Y-102324900D01*
X83250000Y-105975000D02*
X83825000Y-106550000D01*
X85675000Y-108100000D02*
X90250000Y-108100000D01*
X85475000Y-107750000D02*
X85475000Y-107900000D01*
X91737500Y-92962500D02*
X91737500Y-92912500D01*
X91975000Y-94525000D02*
X91975000Y-93225000D01*
X91737500Y-92912500D02*
X91512500Y-92687500D01*
X86425000Y-89550000D02*
X83250000Y-92725000D01*
%TO.N,M4_CMP_A*%
X96825000Y-93550000D02*
X98925000Y-93550000D01*
X98925000Y-93550000D02*
X100675000Y-91800000D01*
X108740000Y-94200000D02*
X108740000Y-91890000D01*
X107038000Y-91737500D02*
X107088000Y-91737500D01*
X106950000Y-83250000D02*
X94000000Y-83250000D01*
X106700000Y-90575000D02*
X107250000Y-91125000D01*
X94000000Y-83250000D02*
X91800000Y-85450000D01*
X108740000Y-91890000D02*
X110195900Y-90434100D01*
X110225000Y-86525000D02*
X106950000Y-83250000D01*
X110195900Y-86545400D02*
X106903700Y-83253200D01*
X106903700Y-83253200D02*
X99039200Y-83253200D01*
X105450000Y-91975000D02*
X106750000Y-91975000D01*
X106750000Y-91975000D02*
X107025000Y-91700000D01*
X107250000Y-91125000D02*
X107300138Y-91525068D01*
X96550000Y-93275000D02*
X96825000Y-93550000D01*
X99039200Y-83253200D02*
X97646400Y-84646000D01*
X107088000Y-91737500D02*
X107300138Y-91525068D01*
X100675000Y-91800000D02*
X105275000Y-91800000D01*
X110195900Y-90434100D02*
X110195900Y-86545400D01*
X110225000Y-90375000D02*
X110225000Y-86525000D01*
X105275000Y-91800000D02*
X105450000Y-91975000D01*
X91800000Y-85450000D02*
X91800000Y-89250000D01*
X97646400Y-84646000D02*
X97646400Y-85422800D01*
X96450000Y-93275000D02*
X96550000Y-93275000D01*
%TO.N,M3_IOUT*%
X91160000Y-90552400D02*
X90414700Y-89807100D01*
X86556500Y-89807100D02*
X84680000Y-91683600D01*
X90414700Y-89807100D02*
X86556500Y-89807100D01*
X84680000Y-91683600D02*
X84680000Y-92600000D01*
X91160000Y-91250000D02*
X91160000Y-90552400D01*
%TO.N,ESC_VSENSE*%
X105825000Y-103500000D02*
X105800000Y-103475000D01*
X97175000Y-97550000D02*
X97175000Y-102175000D01*
X97175000Y-102175000D02*
X96975000Y-102375000D01*
X95250000Y-92975000D02*
X94175000Y-94050000D01*
X94175000Y-94050000D02*
X94175000Y-96500000D01*
X105525000Y-100250000D02*
X105525000Y-98500000D01*
X105525000Y-98500000D02*
X103775000Y-96750000D01*
X103475000Y-94200000D02*
X102975000Y-94200000D01*
X98300000Y-97650000D02*
X98925000Y-97650000D01*
X98925000Y-97650000D02*
X100175000Y-98900000D01*
X94200000Y-97025000D02*
X93775000Y-97450000D01*
X100250000Y-94475000D02*
X98500000Y-94475000D01*
X102725000Y-98275000D02*
X103650000Y-97350000D01*
X105800000Y-102975000D02*
X106225000Y-102550000D01*
X107025000Y-95250000D02*
X105950000Y-94175000D01*
X94200000Y-96525000D02*
X94200000Y-97025000D01*
X103650000Y-97350000D02*
X103650000Y-96875000D01*
X92975000Y-104750000D02*
X94050000Y-105825000D01*
X99750000Y-105525000D02*
X101500000Y-105525000D01*
X97175000Y-96525000D02*
X98300000Y-97650000D01*
X105825000Y-105950000D02*
X105825000Y-103500000D01*
X94475000Y-101500000D02*
X96225000Y-103250000D01*
X97700000Y-103475000D02*
X102900000Y-103475000D01*
X106225000Y-102550000D02*
X106225000Y-100950000D01*
X105950000Y-94175000D02*
X103500000Y-94175000D01*
X102200000Y-98900000D02*
X102650000Y-98450000D01*
X96975000Y-102375000D02*
X96975000Y-102825000D01*
X93775000Y-99050000D02*
X94475000Y-99750000D01*
X97100000Y-102875000D02*
X97700000Y-103475000D01*
X104555000Y-106830000D02*
X104750000Y-107025000D01*
X97650000Y-97075000D02*
X97687500Y-97037500D01*
X103650000Y-97112500D02*
X103775000Y-96987500D01*
X99050000Y-106225000D02*
X99750000Y-105525000D01*
X98500000Y-94475000D02*
X96750000Y-96225000D01*
X106225000Y-100950000D02*
X105525000Y-100250000D01*
X94475000Y-99750000D02*
X94475000Y-101500000D01*
X95620000Y-93170000D02*
X95445000Y-93170000D01*
X102975000Y-94200000D02*
X102550000Y-93775000D01*
X104380000Y-106830000D02*
X104555000Y-106830000D01*
X101500000Y-105525000D02*
X103250000Y-103775000D01*
X103775000Y-96987500D02*
X103775000Y-96750000D01*
X95250000Y-92925000D02*
X95250000Y-92975000D01*
X102550000Y-93775000D02*
X100950000Y-93775000D01*
X96525000Y-105800000D02*
X97025000Y-105800000D01*
X96500000Y-105825000D02*
X96525000Y-105800000D01*
X97650000Y-97075000D02*
X97175000Y-97550000D01*
X100175000Y-98900000D02*
X102200000Y-98900000D01*
X104750000Y-107025000D02*
X105825000Y-105950000D01*
X95445000Y-93170000D02*
X95250000Y-92975000D01*
X93775000Y-97450000D02*
X93775000Y-99050000D01*
X102725000Y-98275000D02*
X102650000Y-98350000D01*
X97025000Y-105800000D02*
X97450000Y-106225000D01*
X102650000Y-98350000D02*
X102650000Y-98450000D01*
X107075000Y-95250000D02*
X107025000Y-95250000D01*
X97450000Y-106225000D02*
X99050000Y-106225000D01*
X94050000Y-105825000D02*
X96500000Y-105825000D01*
X104750000Y-107075000D02*
X104750000Y-107025000D01*
X96475000Y-102875000D02*
X97100000Y-102875000D01*
X103500000Y-94175000D02*
X103475000Y-94200000D01*
X96975000Y-102750000D02*
X97100000Y-102875000D01*
X94175000Y-96500000D02*
X94200000Y-96525000D01*
X100950000Y-93775000D02*
X100250000Y-94475000D01*
X92925000Y-104750000D02*
X92975000Y-104750000D01*
X105800000Y-103475000D02*
X105800000Y-102975000D01*
%TO.N,M2_ISENSE*%
X104825000Y-107475000D02*
X104475000Y-107475000D01*
X107350000Y-107050000D02*
X106025000Y-107050000D01*
X104000000Y-105800000D02*
X104450000Y-105350000D01*
X105550000Y-107800000D02*
X105150000Y-107800000D01*
X105775000Y-107575000D02*
X105550000Y-107800000D01*
X104475000Y-107475000D02*
X104000000Y-107000000D01*
X106025000Y-107050000D02*
X105775000Y-107300000D01*
X105775000Y-107300000D02*
X105775000Y-107575000D01*
X108275000Y-107975000D02*
X107350000Y-107050000D01*
X104260000Y-105350000D02*
X104380000Y-105230000D01*
X104000000Y-107000000D02*
X104000000Y-105800000D01*
X108450000Y-108375000D02*
X108275000Y-108200000D01*
X105150000Y-107800000D02*
X104825000Y-107475000D01*
X104260000Y-105540000D02*
X104260000Y-105350000D01*
X108275000Y-108200000D02*
X108275000Y-107975000D01*
%TO.N,M1_ISENSE*%
X92525000Y-104475000D02*
X93000000Y-104000000D01*
X94200000Y-104000000D02*
X94650000Y-104450000D01*
X94650000Y-104260000D02*
X94770000Y-104380000D01*
X92525000Y-104825000D02*
X92525000Y-104475000D01*
X92200000Y-105150000D02*
X92525000Y-104825000D01*
X93000000Y-104000000D02*
X94200000Y-104000000D01*
X92950000Y-107350000D02*
X92950000Y-106025000D01*
X92425000Y-105775000D02*
X92200000Y-105550000D01*
X92950000Y-106025000D02*
X92700000Y-105775000D01*
X92700000Y-105775000D02*
X92425000Y-105775000D01*
X92200000Y-105550000D02*
X92200000Y-105150000D01*
X91800000Y-108275000D02*
X92025000Y-108275000D01*
X91625000Y-108450000D02*
X91800000Y-108275000D01*
X92025000Y-108275000D02*
X92950000Y-107350000D01*
X94460000Y-104260000D02*
X94650000Y-104260000D01*
%TO.N,M3_ISENSE*%
X93975000Y-92950000D02*
X94225000Y-92700000D01*
X94225000Y-92700000D02*
X94225000Y-92425000D01*
X94850000Y-92200000D02*
X95175000Y-92525000D01*
X91725000Y-91800000D02*
X91725000Y-92025000D01*
X91725000Y-92025000D02*
X92650000Y-92950000D01*
X95740000Y-94650000D02*
X95620000Y-94770000D01*
X94225000Y-92425000D02*
X94450000Y-92200000D01*
X95740000Y-94460000D02*
X95740000Y-94650000D01*
X95525000Y-92525000D02*
X96000000Y-93000000D01*
X94450000Y-92200000D02*
X94850000Y-92200000D01*
X95175000Y-92525000D02*
X95525000Y-92525000D01*
X91550000Y-91625000D02*
X91725000Y-91800000D01*
X96000000Y-94200000D02*
X95550000Y-94650000D01*
X96000000Y-93000000D02*
X96000000Y-94200000D01*
X92650000Y-92950000D02*
X93975000Y-92950000D01*
%TO.N,M3_LB*%
X95575000Y-95615000D02*
X95620000Y-95570000D01*
X95575000Y-95675000D02*
X95575000Y-95615000D01*
X96095000Y-100050000D02*
X96000000Y-99950000D01*
X95575000Y-99525000D02*
X95575000Y-95675000D01*
X96000000Y-99950000D02*
X95575000Y-99525000D01*
%TO.N,M3_LC*%
X94950000Y-100175000D02*
X94725000Y-99950000D01*
X95250000Y-96475000D02*
X95250000Y-95275000D01*
X96095000Y-101050000D02*
X96000000Y-100950000D01*
X94725000Y-99950000D02*
X94725000Y-97000000D01*
X94725000Y-97000000D02*
X95250000Y-96475000D01*
X95250000Y-95240000D02*
X95180000Y-95170000D01*
X96000000Y-100950000D02*
X95225000Y-100175000D01*
X95250000Y-95275000D02*
X95250000Y-95240000D01*
X95225000Y-100175000D02*
X94950000Y-100175000D01*
%TO.N,M2_LB*%
X104425000Y-100475000D02*
X104425000Y-104325000D01*
X104425000Y-104325000D02*
X104425000Y-104385000D01*
X103905000Y-99950000D02*
X104000000Y-100050000D01*
X104425000Y-104385000D02*
X104380000Y-104430000D01*
X104000000Y-100050000D02*
X104425000Y-100475000D01*
%TO.N,M2_LC*%
X105275000Y-103000000D02*
X104750000Y-103525000D01*
X105050000Y-99825000D02*
X105275000Y-100050000D01*
X105275000Y-100050000D02*
X105275000Y-103000000D01*
X104750000Y-104760000D02*
X104820000Y-104830000D01*
X103905000Y-98950000D02*
X104000000Y-99050000D01*
X104750000Y-104725000D02*
X104750000Y-104760000D01*
X104775000Y-99825000D02*
X105050000Y-99825000D01*
X104750000Y-103525000D02*
X104750000Y-104725000D01*
X104000000Y-99050000D02*
X104775000Y-99825000D01*
%TO.N,M4_LC*%
X104725000Y-95250000D02*
X104760000Y-95250000D01*
X103000000Y-94725000D02*
X103525000Y-95250000D01*
X99825000Y-95225000D02*
X99825000Y-94950000D01*
X99825000Y-94950000D02*
X100050000Y-94725000D01*
X98950000Y-96095000D02*
X99825000Y-95225000D01*
X100050000Y-94725000D02*
X103000000Y-94725000D01*
X104760000Y-95250000D02*
X104830000Y-95180000D01*
X99050000Y-96000000D02*
X99825000Y-95225000D01*
X103525000Y-95250000D02*
X104725000Y-95250000D01*
%TO.N,M4_LB*%
X99950000Y-96095000D02*
X100475000Y-95575000D01*
X104325000Y-95575000D02*
X104385000Y-95575000D01*
X100475000Y-95575000D02*
X104325000Y-95575000D01*
X100050000Y-96000000D02*
X100475000Y-95575000D01*
X104385000Y-95575000D02*
X104430000Y-95620000D01*
%TO.N,M1_LC*%
X100175000Y-104775000D02*
X100175000Y-105050000D01*
X100175000Y-105050000D02*
X99950000Y-105275000D01*
X95240000Y-104750000D02*
X95170000Y-104820000D01*
X97000000Y-105275000D02*
X96475000Y-104750000D01*
X101050000Y-103905000D02*
X100950000Y-104000000D01*
X95275000Y-104750000D02*
X95240000Y-104750000D01*
X99950000Y-105275000D02*
X97000000Y-105275000D01*
X96475000Y-104750000D02*
X95275000Y-104750000D01*
X100950000Y-104000000D02*
X100175000Y-104775000D01*
%TO.N,M1_LB*%
X100050000Y-103905000D02*
X99950000Y-104000000D01*
X99525000Y-104425000D02*
X95675000Y-104425000D01*
X99950000Y-104000000D02*
X99525000Y-104425000D01*
%TD*%
%TA.AperFunction,Conductor*%
%TO.N,M2_SRC*%
G36*
X114259191Y-92118907D02*
G01*
X114295155Y-92168407D01*
X114300000Y-92199000D01*
X114300000Y-92899829D01*
X114281093Y-92958020D01*
X114231593Y-92993984D01*
X114170407Y-92993984D01*
X114120907Y-92958020D01*
X114105373Y-92925452D01*
X114099910Y-92905062D01*
X114099908Y-92905059D01*
X114099908Y-92905057D01*
X114050476Y-92819440D01*
X114050475Y-92819438D01*
X113980562Y-92749525D01*
X113972534Y-92744890D01*
X113894941Y-92700091D01*
X113894943Y-92700091D01*
X113857885Y-92690161D01*
X113799435Y-92674500D01*
X113700565Y-92674500D01*
X113642114Y-92690161D01*
X113605057Y-92700091D01*
X113549500Y-92732168D01*
X113489652Y-92744890D01*
X113450500Y-92732168D01*
X113394941Y-92700091D01*
X113394943Y-92700091D01*
X113357885Y-92690161D01*
X113299435Y-92674500D01*
X113200565Y-92674500D01*
X113142114Y-92690161D01*
X113105057Y-92700091D01*
X113019440Y-92749523D01*
X112949523Y-92819440D01*
X112900091Y-92905057D01*
X112885900Y-92958020D01*
X112874500Y-93000565D01*
X112874500Y-93099435D01*
X112880877Y-93123233D01*
X112900091Y-93194942D01*
X112949523Y-93280559D01*
X112949525Y-93280562D01*
X113019438Y-93350475D01*
X113047979Y-93366953D01*
X113105058Y-93399908D01*
X113105056Y-93399908D01*
X113105060Y-93399909D01*
X113105062Y-93399910D01*
X113200565Y-93425500D01*
X113200567Y-93425500D01*
X113299433Y-93425500D01*
X113299435Y-93425500D01*
X113394938Y-93399910D01*
X113450501Y-93367830D01*
X113510347Y-93355109D01*
X113549497Y-93367829D01*
X113605062Y-93399910D01*
X113700565Y-93425500D01*
X113700567Y-93425500D01*
X113799433Y-93425500D01*
X113799435Y-93425500D01*
X113894938Y-93399910D01*
X113894940Y-93399908D01*
X113894942Y-93399908D01*
X113929075Y-93380201D01*
X113980562Y-93350475D01*
X114050475Y-93280562D01*
X114099910Y-93194938D01*
X114105373Y-93174546D01*
X114138697Y-93123233D01*
X114195818Y-93101306D01*
X114254919Y-93117141D01*
X114293424Y-93164691D01*
X114300000Y-93200170D01*
X114300000Y-94930404D01*
X114299500Y-94938035D01*
X114299500Y-95061965D01*
X114300000Y-95069595D01*
X114300000Y-95730404D01*
X114299500Y-95738035D01*
X114299500Y-95861965D01*
X114300000Y-95869595D01*
X114300000Y-97386494D01*
X114283246Y-97438055D01*
X114284569Y-97438819D01*
X114231891Y-97530057D01*
X114231890Y-97530062D01*
X114206406Y-97625172D01*
X114206300Y-97625566D01*
X114206300Y-97730924D01*
X114205006Y-97730924D01*
X114195108Y-97784308D01*
X114150724Y-97826422D01*
X114090061Y-97834405D01*
X114038106Y-97807069D01*
X113980562Y-97749525D01*
X113972534Y-97744890D01*
X113894941Y-97700091D01*
X113894943Y-97700091D01*
X113857885Y-97690161D01*
X113799435Y-97674500D01*
X113700565Y-97674500D01*
X113642114Y-97690161D01*
X113605057Y-97700091D01*
X113549500Y-97732168D01*
X113489652Y-97744890D01*
X113450500Y-97732168D01*
X113394941Y-97700091D01*
X113394943Y-97700091D01*
X113357885Y-97690161D01*
X113299435Y-97674500D01*
X113200565Y-97674500D01*
X113142114Y-97690161D01*
X113105057Y-97700091D01*
X113019440Y-97749523D01*
X112949523Y-97819440D01*
X112900091Y-97905057D01*
X112885783Y-97958453D01*
X112874500Y-98000565D01*
X112874500Y-98099435D01*
X112887160Y-98146682D01*
X112900091Y-98194942D01*
X112949523Y-98280559D01*
X112949525Y-98280562D01*
X113019438Y-98350475D01*
X113047979Y-98366953D01*
X113105058Y-98399908D01*
X113105056Y-98399908D01*
X113105060Y-98399909D01*
X113105062Y-98399910D01*
X113200565Y-98425500D01*
X113200567Y-98425500D01*
X113299433Y-98425500D01*
X113299435Y-98425500D01*
X113394938Y-98399910D01*
X113450501Y-98367830D01*
X113510347Y-98355109D01*
X113549497Y-98367829D01*
X113605062Y-98399910D01*
X113700565Y-98425500D01*
X113700567Y-98425500D01*
X113799433Y-98425500D01*
X113799435Y-98425500D01*
X113894938Y-98399910D01*
X113894940Y-98399908D01*
X113894942Y-98399908D01*
X113929075Y-98380201D01*
X113980562Y-98350475D01*
X114050475Y-98280562D01*
X114099910Y-98194938D01*
X114105373Y-98174546D01*
X114138697Y-98123233D01*
X114195818Y-98101306D01*
X114254919Y-98117141D01*
X114293424Y-98164691D01*
X114300000Y-98200170D01*
X114300000Y-99930404D01*
X114299500Y-99938035D01*
X114299500Y-100061965D01*
X114300000Y-100069595D01*
X114300000Y-100730404D01*
X114299500Y-100738035D01*
X114299500Y-100861965D01*
X114300000Y-100869595D01*
X114300000Y-102899829D01*
X114281093Y-102958020D01*
X114231593Y-102993984D01*
X114170407Y-102993984D01*
X114120907Y-102958020D01*
X114105373Y-102925452D01*
X114099910Y-102905062D01*
X114099908Y-102905059D01*
X114099908Y-102905057D01*
X114050476Y-102819440D01*
X114050475Y-102819438D01*
X113980562Y-102749525D01*
X113972534Y-102744890D01*
X113894941Y-102700091D01*
X113894943Y-102700091D01*
X113857885Y-102690161D01*
X113799435Y-102674500D01*
X113700565Y-102674500D01*
X113642114Y-102690161D01*
X113605057Y-102700091D01*
X113549500Y-102732168D01*
X113489652Y-102744890D01*
X113450500Y-102732168D01*
X113394941Y-102700091D01*
X113394943Y-102700091D01*
X113357885Y-102690161D01*
X113299435Y-102674500D01*
X113200565Y-102674500D01*
X113142114Y-102690161D01*
X113105057Y-102700091D01*
X113019440Y-102749523D01*
X112949523Y-102819440D01*
X112900091Y-102905057D01*
X112885900Y-102958020D01*
X112874500Y-103000565D01*
X112874500Y-103099435D01*
X112880877Y-103123233D01*
X112900091Y-103194942D01*
X112949523Y-103280559D01*
X112949525Y-103280562D01*
X113019438Y-103350475D01*
X113035692Y-103359859D01*
X113105058Y-103399908D01*
X113105056Y-103399908D01*
X113105060Y-103399909D01*
X113105062Y-103399910D01*
X113200565Y-103425500D01*
X113200567Y-103425500D01*
X113299433Y-103425500D01*
X113299435Y-103425500D01*
X113394938Y-103399910D01*
X113450501Y-103367830D01*
X113510347Y-103355109D01*
X113549497Y-103367829D01*
X113605062Y-103399910D01*
X113700565Y-103425500D01*
X113700567Y-103425500D01*
X113799433Y-103425500D01*
X113799435Y-103425500D01*
X113894938Y-103399910D01*
X113894940Y-103399908D01*
X113894942Y-103399908D01*
X113938949Y-103374500D01*
X113980562Y-103350475D01*
X114050475Y-103280562D01*
X114099910Y-103194938D01*
X114105373Y-103174546D01*
X114138697Y-103123233D01*
X114195818Y-103101306D01*
X114254919Y-103117141D01*
X114293424Y-103164691D01*
X114300000Y-103200170D01*
X114300000Y-104930404D01*
X114299500Y-104938035D01*
X114299500Y-105061965D01*
X114300000Y-105069595D01*
X114300000Y-105730404D01*
X114299500Y-105738035D01*
X114299500Y-105861965D01*
X114300000Y-105869595D01*
X114300000Y-106851000D01*
X114281093Y-106909191D01*
X114231593Y-106945155D01*
X114201000Y-106950000D01*
X111448437Y-106950000D01*
X111390246Y-106931093D01*
X111354282Y-106881593D01*
X111351499Y-106869297D01*
X111350500Y-106865568D01*
X111350500Y-106865565D01*
X111324910Y-106770062D01*
X111324908Y-106770059D01*
X111324908Y-106770057D01*
X111275476Y-106684440D01*
X111275475Y-106684438D01*
X111205562Y-106614525D01*
X111205559Y-106614523D01*
X111119941Y-106565091D01*
X111119943Y-106565091D01*
X111082885Y-106555161D01*
X111024435Y-106539500D01*
X110925565Y-106539500D01*
X110867114Y-106555161D01*
X110830057Y-106565091D01*
X110744440Y-106614523D01*
X110674523Y-106684440D01*
X110625091Y-106770057D01*
X110625090Y-106770062D01*
X110599500Y-106865565D01*
X110599500Y-106964435D01*
X110618005Y-107033497D01*
X110625091Y-107059942D01*
X110673876Y-107144438D01*
X110674525Y-107145562D01*
X110744438Y-107215475D01*
X110760780Y-107224910D01*
X110830058Y-107264908D01*
X110830056Y-107264908D01*
X110830060Y-107264909D01*
X110830062Y-107264910D01*
X110925565Y-107290500D01*
X110925567Y-107290500D01*
X111024433Y-107290500D01*
X111024435Y-107290500D01*
X111119938Y-107264910D01*
X111119939Y-107264908D01*
X111125377Y-107263452D01*
X111186478Y-107266654D01*
X111234028Y-107305160D01*
X111250000Y-107359079D01*
X111250000Y-107477955D01*
X111231093Y-107536146D01*
X111228436Y-107539257D01*
X111228476Y-107539288D01*
X111224525Y-107544436D01*
X111175091Y-107630057D01*
X111175090Y-107630062D01*
X111149500Y-107725565D01*
X111149500Y-107824435D01*
X111151823Y-107833103D01*
X111175091Y-107919942D01*
X111224525Y-108005563D01*
X111228476Y-108010712D01*
X111226280Y-108012396D01*
X111248781Y-108056557D01*
X111250000Y-108072044D01*
X111250000Y-109401000D01*
X111231093Y-109459191D01*
X111181593Y-109495155D01*
X111151000Y-109500000D01*
X110557637Y-109500000D01*
X110532014Y-109496627D01*
X110526520Y-109495155D01*
X110449435Y-109474500D01*
X110350565Y-109474500D01*
X110273480Y-109495155D01*
X110267986Y-109496627D01*
X110242363Y-109500000D01*
X110077756Y-109500000D01*
X110019565Y-109481093D01*
X110007754Y-109471005D01*
X109981262Y-109444514D01*
X109884240Y-109388498D01*
X109884242Y-109388498D01*
X109839885Y-109376613D01*
X109776018Y-109359500D01*
X109663982Y-109359500D01*
X109600115Y-109376613D01*
X109555758Y-109388498D01*
X109453118Y-109447759D01*
X109452412Y-109446537D01*
X109401585Y-109464532D01*
X109342920Y-109447151D01*
X109305676Y-109398606D01*
X109300000Y-109365566D01*
X109300000Y-107349500D01*
X109318907Y-107291309D01*
X109368407Y-107255345D01*
X109393014Y-107251447D01*
X109393001Y-107251347D01*
X109396860Y-107250838D01*
X109399000Y-107250500D01*
X109399433Y-107250500D01*
X109399435Y-107250500D01*
X109494938Y-107224910D01*
X109494940Y-107224908D01*
X109494942Y-107224908D01*
X109552118Y-107191897D01*
X109580562Y-107175475D01*
X109650475Y-107105562D01*
X109692082Y-107033497D01*
X109699908Y-107019942D01*
X109699908Y-107019940D01*
X109699910Y-107019938D01*
X109725500Y-106924435D01*
X109725500Y-106825565D01*
X109718936Y-106801067D01*
X109722137Y-106739966D01*
X109744559Y-106705439D01*
X109749998Y-106700000D01*
X109750000Y-106700000D01*
X109750000Y-106333077D01*
X109768907Y-106274886D01*
X109818407Y-106238922D01*
X109823350Y-106237458D01*
X109864237Y-106226503D01*
X109961263Y-106170485D01*
X110040485Y-106091263D01*
X110096503Y-105994237D01*
X110125500Y-105886018D01*
X110125500Y-105886011D01*
X110125562Y-105885542D01*
X110125710Y-105885230D01*
X110127179Y-105879750D01*
X110128194Y-105880022D01*
X110151899Y-105830315D01*
X110203126Y-105802496D01*
X110203041Y-105802179D01*
X110204362Y-105801824D01*
X110205668Y-105801116D01*
X110208944Y-105800597D01*
X110209306Y-105800500D01*
X110209309Y-105800500D01*
X110323886Y-105769799D01*
X110323888Y-105769797D01*
X110323890Y-105769797D01*
X110426608Y-105710492D01*
X110426608Y-105710491D01*
X110426613Y-105710489D01*
X110510489Y-105626613D01*
X110543904Y-105568737D01*
X110569797Y-105523890D01*
X110569797Y-105523888D01*
X110569799Y-105523886D01*
X110600500Y-105409309D01*
X110600500Y-105290691D01*
X110569799Y-105176114D01*
X110569797Y-105176111D01*
X110569797Y-105176109D01*
X110510492Y-105073391D01*
X110510490Y-105073389D01*
X110510489Y-105073387D01*
X110507103Y-105070001D01*
X110479328Y-105015487D01*
X110488899Y-104955055D01*
X110507102Y-104929999D01*
X110510489Y-104926613D01*
X110511094Y-104925565D01*
X110569797Y-104823890D01*
X110569797Y-104823888D01*
X110569799Y-104823886D01*
X110600500Y-104709309D01*
X110600500Y-104590691D01*
X110569799Y-104476114D01*
X110569797Y-104476111D01*
X110569797Y-104476109D01*
X110510492Y-104373391D01*
X110510490Y-104373389D01*
X110510489Y-104373387D01*
X110432103Y-104295001D01*
X110404328Y-104240487D01*
X110413899Y-104180055D01*
X110432102Y-104154999D01*
X110510489Y-104076613D01*
X110569799Y-103973886D01*
X110600500Y-103859309D01*
X110600500Y-103740691D01*
X110569799Y-103626114D01*
X110569797Y-103626111D01*
X110569797Y-103626109D01*
X110510492Y-103523391D01*
X110510490Y-103523389D01*
X110510489Y-103523387D01*
X110426613Y-103439511D01*
X110426610Y-103439509D01*
X110426608Y-103439507D01*
X110323889Y-103380202D01*
X110323890Y-103380202D01*
X110302610Y-103374500D01*
X110209309Y-103349500D01*
X110090691Y-103349500D01*
X110022279Y-103367831D01*
X109976109Y-103380202D01*
X109898500Y-103425011D01*
X109838652Y-103437733D01*
X109782756Y-103412847D01*
X109752163Y-103359859D01*
X109750000Y-103339275D01*
X109750000Y-103062755D01*
X109768907Y-103004564D01*
X109778990Y-102992757D01*
X109810485Y-102961263D01*
X109866503Y-102864237D01*
X109895500Y-102756018D01*
X109895500Y-102643982D01*
X109866503Y-102535763D01*
X109866501Y-102535760D01*
X109866501Y-102535758D01*
X109810486Y-102438739D01*
X109810485Y-102438737D01*
X109731263Y-102359515D01*
X109731260Y-102359513D01*
X109634240Y-102303498D01*
X109634242Y-102303498D01*
X109592251Y-102292247D01*
X109526018Y-102274500D01*
X109413982Y-102274500D01*
X109324621Y-102298443D01*
X109263521Y-102295241D01*
X109215972Y-102256736D01*
X109200000Y-102202817D01*
X109200000Y-101374500D01*
X109218907Y-101316309D01*
X109268407Y-101280345D01*
X109299000Y-101275500D01*
X109337850Y-101275500D01*
X109337852Y-101275500D01*
X109420637Y-101253318D01*
X109494861Y-101210465D01*
X109555464Y-101149862D01*
X109564764Y-101133752D01*
X109610233Y-101092813D01*
X109671083Y-101086417D01*
X109724071Y-101117010D01*
X109748958Y-101172905D01*
X109749500Y-101183254D01*
X109749500Y-101259309D01*
X109755137Y-101280345D01*
X109780202Y-101373890D01*
X109839507Y-101476608D01*
X109839509Y-101476610D01*
X109839511Y-101476613D01*
X109923387Y-101560489D01*
X109923389Y-101560490D01*
X109923391Y-101560492D01*
X110026110Y-101619797D01*
X110026111Y-101619797D01*
X110026114Y-101619799D01*
X110140691Y-101650500D01*
X110140693Y-101650500D01*
X110259307Y-101650500D01*
X110259309Y-101650500D01*
X110373886Y-101619799D01*
X110373888Y-101619797D01*
X110373890Y-101619797D01*
X110476608Y-101560492D01*
X110476608Y-101560491D01*
X110476613Y-101560489D01*
X110560489Y-101476613D01*
X110619799Y-101373886D01*
X110650500Y-101259309D01*
X110650500Y-101140691D01*
X110619799Y-101026114D01*
X110619797Y-101026111D01*
X110619797Y-101026109D01*
X110560492Y-100923391D01*
X110560490Y-100923389D01*
X110560489Y-100923387D01*
X110476613Y-100839511D01*
X110474850Y-100838493D01*
X110473875Y-100837410D01*
X110471464Y-100835560D01*
X110471806Y-100835113D01*
X110433910Y-100793024D01*
X110427514Y-100732174D01*
X110454346Y-100682755D01*
X110510489Y-100626613D01*
X110544733Y-100567302D01*
X110569797Y-100523890D01*
X110569797Y-100523888D01*
X110569799Y-100523886D01*
X110600500Y-100409309D01*
X110600500Y-100290691D01*
X110569799Y-100176114D01*
X110569797Y-100176111D01*
X110569797Y-100176109D01*
X110510492Y-100073391D01*
X110510490Y-100073389D01*
X110510489Y-100073387D01*
X110507103Y-100070001D01*
X110479328Y-100015487D01*
X110488899Y-99955055D01*
X110507102Y-99929999D01*
X110510489Y-99926613D01*
X110569799Y-99823886D01*
X110600500Y-99709309D01*
X110600500Y-99590691D01*
X110569799Y-99476114D01*
X110569797Y-99476111D01*
X110569797Y-99476109D01*
X110510492Y-99373391D01*
X110510490Y-99373389D01*
X110510489Y-99373387D01*
X110432103Y-99295001D01*
X110404328Y-99240487D01*
X110413899Y-99180055D01*
X110432102Y-99154999D01*
X110510489Y-99076613D01*
X110550251Y-99007744D01*
X110569797Y-98973890D01*
X110569797Y-98973888D01*
X110569799Y-98973886D01*
X110600500Y-98859309D01*
X110600500Y-98740691D01*
X110569799Y-98626114D01*
X110569797Y-98626111D01*
X110569797Y-98626109D01*
X110510492Y-98523391D01*
X110510490Y-98523389D01*
X110510489Y-98523387D01*
X110426613Y-98439511D01*
X110426610Y-98439509D01*
X110426608Y-98439507D01*
X110323889Y-98380202D01*
X110323890Y-98380202D01*
X110310351Y-98376574D01*
X110209309Y-98349500D01*
X110090691Y-98349500D01*
X110022279Y-98367831D01*
X109976109Y-98380202D01*
X109873391Y-98439507D01*
X109789507Y-98523391D01*
X109730203Y-98626108D01*
X109730201Y-98626112D01*
X109730201Y-98626114D01*
X109713208Y-98689535D01*
X109711446Y-98696110D01*
X109678121Y-98747424D01*
X109621000Y-98769350D01*
X109561899Y-98753514D01*
X109545820Y-98740494D01*
X109494861Y-98689535D01*
X109420637Y-98646682D01*
X109337852Y-98624500D01*
X109324244Y-98624500D01*
X109266053Y-98605593D01*
X109230089Y-98556093D01*
X109228618Y-98499876D01*
X109230500Y-98492853D01*
X109230500Y-98407147D01*
X109208318Y-98324362D01*
X109208316Y-98324358D01*
X109208314Y-98324351D01*
X109207532Y-98322462D01*
X109206737Y-98318464D01*
X109206638Y-98318095D01*
X109206662Y-98318088D01*
X109200000Y-98284587D01*
X109200000Y-97047044D01*
X109218907Y-96988853D01*
X109228990Y-96977046D01*
X109250475Y-96955562D01*
X109299910Y-96869938D01*
X109325500Y-96774435D01*
X109325500Y-96675565D01*
X109299910Y-96580062D01*
X109299908Y-96580059D01*
X109299908Y-96580057D01*
X109250475Y-96494437D01*
X109228995Y-96472957D01*
X109201219Y-96418440D01*
X109200000Y-96402955D01*
X109200000Y-93499000D01*
X109218907Y-93440809D01*
X109268407Y-93404845D01*
X109299000Y-93400000D01*
X109689275Y-93400000D01*
X109747466Y-93418907D01*
X109783430Y-93468407D01*
X109783430Y-93529593D01*
X109775011Y-93548500D01*
X109730202Y-93626109D01*
X109730201Y-93626114D01*
X109699500Y-93740691D01*
X109699500Y-93859309D01*
X109716670Y-93923387D01*
X109730202Y-93973890D01*
X109789507Y-94076608D01*
X109789509Y-94076610D01*
X109789511Y-94076613D01*
X109867896Y-94154998D01*
X109895672Y-94209513D01*
X109886101Y-94269945D01*
X109867897Y-94295000D01*
X109817960Y-94344938D01*
X109789508Y-94373390D01*
X109789507Y-94373391D01*
X109730202Y-94476109D01*
X109730201Y-94476114D01*
X109699500Y-94590691D01*
X109699500Y-94709309D01*
X109710007Y-94748520D01*
X109730202Y-94823890D01*
X109789507Y-94926608D01*
X109789513Y-94926616D01*
X109792898Y-94930001D01*
X109820672Y-94984519D01*
X109811097Y-95044951D01*
X109792898Y-95069999D01*
X109789513Y-95073383D01*
X109789507Y-95073391D01*
X109730202Y-95176109D01*
X109730201Y-95176114D01*
X109699500Y-95290691D01*
X109699500Y-95409309D01*
X109707593Y-95439511D01*
X109730202Y-95523890D01*
X109789507Y-95626608D01*
X109789509Y-95626610D01*
X109789511Y-95626613D01*
X109873387Y-95710489D01*
X109873389Y-95710490D01*
X109875148Y-95711506D01*
X109876121Y-95712587D01*
X109878536Y-95714440D01*
X109878192Y-95714887D01*
X109916089Y-95756976D01*
X109922483Y-95817827D01*
X109895652Y-95867244D01*
X109839512Y-95923385D01*
X109839507Y-95923391D01*
X109780202Y-96026109D01*
X109780201Y-96026114D01*
X109749500Y-96140691D01*
X109749500Y-96259309D01*
X109773667Y-96349500D01*
X109780202Y-96373890D01*
X109839507Y-96476608D01*
X109839509Y-96476610D01*
X109839511Y-96476613D01*
X109923387Y-96560489D01*
X109923389Y-96560490D01*
X109923391Y-96560492D01*
X110026110Y-96619797D01*
X110026111Y-96619797D01*
X110026114Y-96619799D01*
X110140691Y-96650500D01*
X110140693Y-96650500D01*
X110259307Y-96650500D01*
X110259309Y-96650500D01*
X110373886Y-96619799D01*
X110373888Y-96619797D01*
X110373890Y-96619797D01*
X110476608Y-96560492D01*
X110476608Y-96560491D01*
X110476613Y-96560489D01*
X110560489Y-96476613D01*
X110562600Y-96472957D01*
X110619797Y-96373890D01*
X110619797Y-96373888D01*
X110619799Y-96373886D01*
X110650500Y-96259309D01*
X110650500Y-96140691D01*
X110619799Y-96026114D01*
X110619797Y-96026111D01*
X110619797Y-96026109D01*
X110560492Y-95923391D01*
X110560490Y-95923389D01*
X110560489Y-95923387D01*
X110476613Y-95839511D01*
X110474850Y-95838493D01*
X110473875Y-95837410D01*
X110471464Y-95835560D01*
X110471806Y-95835113D01*
X110433910Y-95793024D01*
X110427514Y-95732174D01*
X110454346Y-95682755D01*
X110510489Y-95626613D01*
X110542895Y-95570485D01*
X110569797Y-95523890D01*
X110569797Y-95523888D01*
X110569799Y-95523886D01*
X110600500Y-95409309D01*
X110600500Y-95290691D01*
X110569799Y-95176114D01*
X110569797Y-95176111D01*
X110569797Y-95176109D01*
X110510492Y-95073391D01*
X110510490Y-95073389D01*
X110510489Y-95073387D01*
X110507103Y-95070001D01*
X110479328Y-95015487D01*
X110488899Y-94955055D01*
X110507102Y-94929999D01*
X110510489Y-94926613D01*
X110569799Y-94823886D01*
X110600500Y-94709309D01*
X110600500Y-94590691D01*
X110569799Y-94476114D01*
X110569797Y-94476111D01*
X110569797Y-94476109D01*
X110510492Y-94373391D01*
X110510490Y-94373389D01*
X110510489Y-94373387D01*
X110432103Y-94295001D01*
X110404328Y-94240487D01*
X110413899Y-94180055D01*
X110432102Y-94154999D01*
X110510489Y-94076613D01*
X110539645Y-94026114D01*
X110569797Y-93973890D01*
X110569797Y-93973888D01*
X110569799Y-93973886D01*
X110600500Y-93859309D01*
X110600500Y-93740691D01*
X110569799Y-93626114D01*
X110569797Y-93626111D01*
X110569797Y-93626109D01*
X110524989Y-93548500D01*
X110512267Y-93488652D01*
X110537153Y-93432756D01*
X110590141Y-93402163D01*
X110610725Y-93400000D01*
X110749999Y-93400000D01*
X110750000Y-93400000D01*
X110750000Y-92199000D01*
X110768907Y-92140809D01*
X110818407Y-92104845D01*
X110849000Y-92100000D01*
X114201000Y-92100000D01*
X114259191Y-92118907D01*
G37*
%TD.AperFunction*%
%TD*%
%TA.AperFunction,Conductor*%
%TO.N,M4_SRC*%
G36*
X92958020Y-85718907D02*
G01*
X92993984Y-85768407D01*
X92993984Y-85829593D01*
X92958020Y-85879093D01*
X92925454Y-85894625D01*
X92913364Y-85897865D01*
X92905057Y-85900091D01*
X92819440Y-85949523D01*
X92749523Y-86019440D01*
X92700091Y-86105057D01*
X92700090Y-86105062D01*
X92674500Y-86200565D01*
X92674500Y-86299435D01*
X92688049Y-86350000D01*
X92700091Y-86394942D01*
X92732168Y-86450500D01*
X92744890Y-86510348D01*
X92732168Y-86549500D01*
X92700091Y-86605057D01*
X92700090Y-86605062D01*
X92674500Y-86700565D01*
X92674500Y-86799435D01*
X92681052Y-86823886D01*
X92700091Y-86894942D01*
X92749523Y-86980559D01*
X92749525Y-86980562D01*
X92819438Y-87050475D01*
X92819440Y-87050476D01*
X92905058Y-87099908D01*
X92905056Y-87099908D01*
X92905060Y-87099909D01*
X92905062Y-87099910D01*
X93000565Y-87125500D01*
X93000567Y-87125500D01*
X93099433Y-87125500D01*
X93099435Y-87125500D01*
X93194938Y-87099910D01*
X93194940Y-87099908D01*
X93194942Y-87099908D01*
X93236154Y-87076114D01*
X93280562Y-87050475D01*
X93350475Y-86980562D01*
X93399910Y-86894938D01*
X93425500Y-86799435D01*
X93425500Y-86700565D01*
X93399910Y-86605062D01*
X93367830Y-86549498D01*
X93355109Y-86489653D01*
X93367831Y-86450500D01*
X93399910Y-86394938D01*
X93425500Y-86299435D01*
X93425500Y-86200565D01*
X93399910Y-86105062D01*
X93399908Y-86105059D01*
X93399908Y-86105057D01*
X93350476Y-86019440D01*
X93350475Y-86019438D01*
X93280562Y-85949525D01*
X93280559Y-85949523D01*
X93194941Y-85900091D01*
X93194943Y-85900091D01*
X93186635Y-85897865D01*
X93174546Y-85894626D01*
X93123234Y-85861303D01*
X93101307Y-85804181D01*
X93117143Y-85745081D01*
X93164693Y-85706576D01*
X93200171Y-85700000D01*
X94930404Y-85700000D01*
X94938032Y-85700500D01*
X94940691Y-85700500D01*
X95061968Y-85700500D01*
X95069596Y-85700000D01*
X95730404Y-85700000D01*
X95738032Y-85700500D01*
X95740691Y-85700500D01*
X95861968Y-85700500D01*
X95869596Y-85700000D01*
X97351900Y-85700000D01*
X97410091Y-85718907D01*
X97412167Y-85720458D01*
X97415839Y-85723276D01*
X97501458Y-85772708D01*
X97501456Y-85772708D01*
X97501460Y-85772709D01*
X97501462Y-85772710D01*
X97596965Y-85798300D01*
X97596967Y-85798300D01*
X97695832Y-85798300D01*
X97695835Y-85798300D01*
X97714374Y-85793332D01*
X97775472Y-85796532D01*
X97823023Y-85835036D01*
X97838862Y-85894136D01*
X97816937Y-85951258D01*
X97810001Y-85958961D01*
X97749524Y-86019438D01*
X97700091Y-86105057D01*
X97700090Y-86105062D01*
X97674500Y-86200565D01*
X97674500Y-86299435D01*
X97688049Y-86350000D01*
X97700091Y-86394942D01*
X97732168Y-86450500D01*
X97744890Y-86510348D01*
X97732168Y-86549500D01*
X97700091Y-86605057D01*
X97700090Y-86605062D01*
X97674500Y-86700565D01*
X97674500Y-86799435D01*
X97681052Y-86823886D01*
X97700091Y-86894942D01*
X97749523Y-86980559D01*
X97749525Y-86980562D01*
X97819438Y-87050475D01*
X97819440Y-87050476D01*
X97905058Y-87099908D01*
X97905056Y-87099908D01*
X97905060Y-87099909D01*
X97905062Y-87099910D01*
X98000565Y-87125500D01*
X98000567Y-87125500D01*
X98099433Y-87125500D01*
X98099435Y-87125500D01*
X98194938Y-87099910D01*
X98194940Y-87099908D01*
X98194942Y-87099908D01*
X98236154Y-87076114D01*
X98280562Y-87050475D01*
X98350475Y-86980562D01*
X98399910Y-86894938D01*
X98425500Y-86799435D01*
X98425500Y-86700565D01*
X98399910Y-86605062D01*
X98367830Y-86549498D01*
X98355109Y-86489653D01*
X98367831Y-86450500D01*
X98399910Y-86394938D01*
X98425500Y-86299435D01*
X98425500Y-86200565D01*
X98399910Y-86105062D01*
X98399908Y-86105059D01*
X98399908Y-86105057D01*
X98350476Y-86019440D01*
X98350475Y-86019438D01*
X98280562Y-85949525D01*
X98280559Y-85949523D01*
X98194941Y-85900091D01*
X98194943Y-85900091D01*
X98186635Y-85897865D01*
X98174546Y-85894626D01*
X98123234Y-85861303D01*
X98101307Y-85804181D01*
X98117143Y-85745081D01*
X98164693Y-85706576D01*
X98200171Y-85700000D01*
X99930404Y-85700000D01*
X99938032Y-85700500D01*
X99940691Y-85700500D01*
X100061968Y-85700500D01*
X100069596Y-85700000D01*
X100730404Y-85700000D01*
X100738032Y-85700500D01*
X100740691Y-85700500D01*
X100861968Y-85700500D01*
X100869596Y-85700000D01*
X102899829Y-85700000D01*
X102958020Y-85718907D01*
X102993984Y-85768407D01*
X102993984Y-85829593D01*
X102958020Y-85879093D01*
X102925454Y-85894625D01*
X102913364Y-85897865D01*
X102905057Y-85900091D01*
X102819440Y-85949523D01*
X102749523Y-86019440D01*
X102700091Y-86105057D01*
X102700090Y-86105062D01*
X102674500Y-86200565D01*
X102674500Y-86299435D01*
X102688049Y-86350000D01*
X102700091Y-86394942D01*
X102732168Y-86450500D01*
X102744890Y-86510348D01*
X102732168Y-86549500D01*
X102700091Y-86605057D01*
X102700090Y-86605062D01*
X102674500Y-86700565D01*
X102674500Y-86799435D01*
X102681052Y-86823886D01*
X102700091Y-86894942D01*
X102749523Y-86980559D01*
X102749525Y-86980562D01*
X102819438Y-87050475D01*
X102819440Y-87050476D01*
X102905058Y-87099908D01*
X102905056Y-87099908D01*
X102905060Y-87099909D01*
X102905062Y-87099910D01*
X103000565Y-87125500D01*
X103000567Y-87125500D01*
X103099433Y-87125500D01*
X103099435Y-87125500D01*
X103194938Y-87099910D01*
X103194940Y-87099908D01*
X103194942Y-87099908D01*
X103236154Y-87076114D01*
X103280562Y-87050475D01*
X103350475Y-86980562D01*
X103399910Y-86894938D01*
X103425500Y-86799435D01*
X103425500Y-86700565D01*
X103399910Y-86605062D01*
X103367830Y-86549498D01*
X103355109Y-86489653D01*
X103367831Y-86450500D01*
X103399910Y-86394938D01*
X103425500Y-86299435D01*
X103425500Y-86200565D01*
X103399910Y-86105062D01*
X103399908Y-86105059D01*
X103399908Y-86105057D01*
X103350476Y-86019440D01*
X103350475Y-86019438D01*
X103280562Y-85949525D01*
X103280559Y-85949523D01*
X103194941Y-85900091D01*
X103194943Y-85900091D01*
X103186635Y-85897865D01*
X103174546Y-85894626D01*
X103123234Y-85861303D01*
X103101307Y-85804181D01*
X103117143Y-85745081D01*
X103164693Y-85706576D01*
X103200171Y-85700000D01*
X104930404Y-85700000D01*
X104938032Y-85700500D01*
X104940691Y-85700500D01*
X105061968Y-85700500D01*
X105069596Y-85700000D01*
X105730404Y-85700000D01*
X105738032Y-85700500D01*
X105740691Y-85700500D01*
X105861968Y-85700500D01*
X105869596Y-85700000D01*
X106851000Y-85700000D01*
X106909191Y-85718907D01*
X106945155Y-85768407D01*
X106950000Y-85799000D01*
X106950000Y-88551563D01*
X106931093Y-88609754D01*
X106881593Y-88645718D01*
X106869297Y-88648500D01*
X106770057Y-88675091D01*
X106684440Y-88724523D01*
X106614523Y-88794440D01*
X106565091Y-88880057D01*
X106565090Y-88880062D01*
X106539500Y-88975565D01*
X106539500Y-89074435D01*
X106562067Y-89158657D01*
X106565091Y-89169942D01*
X106614523Y-89255559D01*
X106614525Y-89255562D01*
X106684438Y-89325475D01*
X106712979Y-89341953D01*
X106770058Y-89374908D01*
X106770056Y-89374908D01*
X106770060Y-89374909D01*
X106770062Y-89374910D01*
X106865565Y-89400500D01*
X106865567Y-89400500D01*
X106964433Y-89400500D01*
X106964435Y-89400500D01*
X107059938Y-89374910D01*
X107059940Y-89374908D01*
X107059942Y-89374908D01*
X107103949Y-89349500D01*
X107145562Y-89325475D01*
X107215475Y-89255562D01*
X107258181Y-89181593D01*
X107264908Y-89169942D01*
X107264908Y-89169940D01*
X107264910Y-89169938D01*
X107290500Y-89074435D01*
X107290500Y-88975565D01*
X107264910Y-88880062D01*
X107264908Y-88880060D01*
X107263452Y-88874623D01*
X107266654Y-88813522D01*
X107305160Y-88765972D01*
X107359079Y-88750000D01*
X107477956Y-88750000D01*
X107536147Y-88768907D01*
X107539257Y-88771563D01*
X107539288Y-88771524D01*
X107544436Y-88775474D01*
X107630058Y-88824908D01*
X107630056Y-88824908D01*
X107630060Y-88824909D01*
X107630062Y-88824910D01*
X107725565Y-88850500D01*
X107725567Y-88850500D01*
X107824433Y-88850500D01*
X107824435Y-88850500D01*
X107919938Y-88824910D01*
X107919940Y-88824908D01*
X107919942Y-88824908D01*
X107956129Y-88804014D01*
X108005562Y-88775475D01*
X108005563Y-88775474D01*
X108010712Y-88771524D01*
X108012396Y-88773719D01*
X108056557Y-88751219D01*
X108072044Y-88750000D01*
X109401000Y-88750000D01*
X109459191Y-88768907D01*
X109495155Y-88818407D01*
X109500000Y-88849000D01*
X109500000Y-89442362D01*
X109496627Y-89467984D01*
X109480403Y-89528536D01*
X109474500Y-89550565D01*
X109474500Y-89649435D01*
X109481649Y-89676114D01*
X109496627Y-89732013D01*
X109500000Y-89757636D01*
X109500000Y-89922244D01*
X109481093Y-89980435D01*
X109471005Y-89992246D01*
X109444514Y-90018737D01*
X109388498Y-90115758D01*
X109384118Y-90132105D01*
X109359500Y-90223982D01*
X109359500Y-90336018D01*
X109378396Y-90406538D01*
X109388498Y-90444241D01*
X109447759Y-90546882D01*
X109446537Y-90547587D01*
X109464532Y-90598415D01*
X109447151Y-90657080D01*
X109398606Y-90694324D01*
X109365566Y-90700000D01*
X107220269Y-90700000D01*
X107162078Y-90681093D01*
X107150265Y-90671004D01*
X107104496Y-90625235D01*
X107076719Y-90570718D01*
X107075500Y-90555231D01*
X107075500Y-90525566D01*
X107072647Y-90514918D01*
X107049910Y-90430062D01*
X107049908Y-90430059D01*
X107049908Y-90430057D01*
X107000476Y-90344440D01*
X107000475Y-90344438D01*
X106930562Y-90274525D01*
X106930559Y-90274523D01*
X106844941Y-90225091D01*
X106844943Y-90225091D01*
X106807885Y-90215161D01*
X106749435Y-90199500D01*
X106650565Y-90199500D01*
X106555062Y-90225090D01*
X106555061Y-90225090D01*
X106555059Y-90225091D01*
X106534891Y-90236736D01*
X106485390Y-90250000D01*
X106333078Y-90250000D01*
X106274887Y-90231093D01*
X106238923Y-90181593D01*
X106237451Y-90176623D01*
X106233128Y-90160489D01*
X106226503Y-90135763D01*
X106226501Y-90135760D01*
X106226501Y-90135758D01*
X106170486Y-90038739D01*
X106170485Y-90038737D01*
X106091263Y-89959515D01*
X106091260Y-89959513D01*
X105994240Y-89903498D01*
X105994242Y-89903498D01*
X105886011Y-89874498D01*
X105885528Y-89874435D01*
X105885213Y-89874284D01*
X105879750Y-89872821D01*
X105880021Y-89871808D01*
X105830305Y-89848090D01*
X105802500Y-89796872D01*
X105802179Y-89796959D01*
X105801819Y-89795617D01*
X105801114Y-89794318D01*
X105800596Y-89791054D01*
X105800500Y-89790695D01*
X105800500Y-89790691D01*
X105769799Y-89676114D01*
X105769797Y-89676111D01*
X105769797Y-89676109D01*
X105710492Y-89573391D01*
X105710490Y-89573389D01*
X105710489Y-89573387D01*
X105626613Y-89489511D01*
X105626610Y-89489509D01*
X105626608Y-89489507D01*
X105523889Y-89430202D01*
X105523890Y-89430202D01*
X105510351Y-89426574D01*
X105409309Y-89399500D01*
X105290691Y-89399500D01*
X105220567Y-89418289D01*
X105176109Y-89430202D01*
X105073391Y-89489507D01*
X105073383Y-89489513D01*
X105069999Y-89492898D01*
X105015481Y-89520672D01*
X104955049Y-89511097D01*
X104930001Y-89492898D01*
X104926616Y-89489513D01*
X104926608Y-89489507D01*
X104823889Y-89430202D01*
X104823890Y-89430202D01*
X104810351Y-89426574D01*
X104709309Y-89399500D01*
X104590691Y-89399500D01*
X104520567Y-89418289D01*
X104476109Y-89430202D01*
X104373391Y-89489507D01*
X104373390Y-89489508D01*
X104373387Y-89489510D01*
X104373387Y-89489511D01*
X104295001Y-89567896D01*
X104240487Y-89595672D01*
X104180055Y-89586101D01*
X104154999Y-89567897D01*
X104076613Y-89489511D01*
X104076610Y-89489509D01*
X104076608Y-89489507D01*
X103973889Y-89430202D01*
X103973890Y-89430202D01*
X103960351Y-89426574D01*
X103859309Y-89399500D01*
X103740691Y-89399500D01*
X103670567Y-89418289D01*
X103626109Y-89430202D01*
X103523391Y-89489507D01*
X103439507Y-89573391D01*
X103380202Y-89676109D01*
X103380201Y-89676114D01*
X103349500Y-89790691D01*
X103349500Y-89909309D01*
X103366805Y-89973890D01*
X103380202Y-90023890D01*
X103425011Y-90101500D01*
X103437733Y-90161348D01*
X103412847Y-90217244D01*
X103359859Y-90247837D01*
X103339275Y-90250000D01*
X103062756Y-90250000D01*
X103004565Y-90231093D01*
X102992753Y-90221005D01*
X102978853Y-90207105D01*
X102961263Y-90189515D01*
X102961260Y-90189513D01*
X102864240Y-90133498D01*
X102864242Y-90133498D01*
X102798052Y-90115763D01*
X102756018Y-90104500D01*
X102643982Y-90104500D01*
X102601948Y-90115763D01*
X102535758Y-90133498D01*
X102438739Y-90189513D01*
X102359513Y-90268739D01*
X102303498Y-90365758D01*
X102292571Y-90406538D01*
X102274500Y-90473982D01*
X102274500Y-90586018D01*
X102294899Y-90662147D01*
X102298444Y-90675377D01*
X102295241Y-90736479D01*
X102256736Y-90784028D01*
X102202817Y-90800000D01*
X101374500Y-90800000D01*
X101316309Y-90781093D01*
X101280345Y-90731593D01*
X101275500Y-90701000D01*
X101275500Y-90662148D01*
X101275500Y-90662147D01*
X101253318Y-90579362D01*
X101210465Y-90505138D01*
X101149862Y-90444535D01*
X101138714Y-90438099D01*
X101133756Y-90435236D01*
X101092815Y-90389767D01*
X101086419Y-90328917D01*
X101117012Y-90275929D01*
X101172908Y-90251042D01*
X101183256Y-90250500D01*
X101259307Y-90250500D01*
X101259309Y-90250500D01*
X101373886Y-90219799D01*
X101373888Y-90219797D01*
X101373890Y-90219797D01*
X101476608Y-90160492D01*
X101476608Y-90160491D01*
X101476613Y-90160489D01*
X101560489Y-90076613D01*
X101593904Y-90018737D01*
X101619797Y-89973890D01*
X101619797Y-89973888D01*
X101619799Y-89973886D01*
X101650500Y-89859309D01*
X101650500Y-89740691D01*
X101619799Y-89626114D01*
X101619797Y-89626111D01*
X101619797Y-89626109D01*
X101560492Y-89523391D01*
X101560490Y-89523389D01*
X101560489Y-89523387D01*
X101476613Y-89439511D01*
X101476610Y-89439509D01*
X101476608Y-89439507D01*
X101373889Y-89380202D01*
X101373890Y-89380202D01*
X101333718Y-89369438D01*
X101259309Y-89349500D01*
X101140691Y-89349500D01*
X101070567Y-89368289D01*
X101026109Y-89380202D01*
X100923391Y-89439507D01*
X100839509Y-89523389D01*
X100838491Y-89525153D01*
X100837407Y-89526128D01*
X100835560Y-89528536D01*
X100835113Y-89528193D01*
X100793019Y-89566091D01*
X100732168Y-89572483D01*
X100682755Y-89545653D01*
X100626613Y-89489511D01*
X100626610Y-89489509D01*
X100626608Y-89489507D01*
X100523889Y-89430202D01*
X100523890Y-89430202D01*
X100510351Y-89426574D01*
X100409309Y-89399500D01*
X100290691Y-89399500D01*
X100220567Y-89418289D01*
X100176109Y-89430202D01*
X100073391Y-89489507D01*
X100073383Y-89489513D01*
X100069999Y-89492898D01*
X100015481Y-89520672D01*
X99955049Y-89511097D01*
X99930001Y-89492898D01*
X99926616Y-89489513D01*
X99926608Y-89489507D01*
X99823889Y-89430202D01*
X99823890Y-89430202D01*
X99810351Y-89426574D01*
X99709309Y-89399500D01*
X99590691Y-89399500D01*
X99520567Y-89418289D01*
X99476109Y-89430202D01*
X99373391Y-89489507D01*
X99373390Y-89489508D01*
X99373387Y-89489510D01*
X99373387Y-89489511D01*
X99295001Y-89567896D01*
X99240487Y-89595672D01*
X99180055Y-89586101D01*
X99154999Y-89567897D01*
X99076613Y-89489511D01*
X99076610Y-89489509D01*
X99076608Y-89489507D01*
X98973889Y-89430202D01*
X98973890Y-89430202D01*
X98960351Y-89426574D01*
X98859309Y-89399500D01*
X98740691Y-89399500D01*
X98670567Y-89418289D01*
X98626109Y-89430202D01*
X98523391Y-89489507D01*
X98439507Y-89573391D01*
X98380202Y-89676109D01*
X98380201Y-89676114D01*
X98349500Y-89790691D01*
X98349500Y-89909309D01*
X98366805Y-89973890D01*
X98380202Y-90023890D01*
X98439507Y-90126608D01*
X98439509Y-90126610D01*
X98439511Y-90126613D01*
X98523387Y-90210489D01*
X98523389Y-90210490D01*
X98523391Y-90210492D01*
X98626110Y-90269797D01*
X98626108Y-90269797D01*
X98626112Y-90269798D01*
X98626114Y-90269799D01*
X98696110Y-90288554D01*
X98747422Y-90321877D01*
X98769349Y-90378998D01*
X98753514Y-90438099D01*
X98740489Y-90454183D01*
X98689537Y-90505135D01*
X98689535Y-90505137D01*
X98689535Y-90505138D01*
X98646682Y-90579362D01*
X98625106Y-90659888D01*
X98624500Y-90662148D01*
X98624500Y-90675755D01*
X98605593Y-90733946D01*
X98556093Y-90769910D01*
X98499881Y-90771383D01*
X98492853Y-90769500D01*
X98407147Y-90769500D01*
X98363881Y-90781093D01*
X98324357Y-90791683D01*
X98322471Y-90792465D01*
X98318476Y-90793259D01*
X98318094Y-90793362D01*
X98318087Y-90793336D01*
X98284588Y-90800000D01*
X97047044Y-90800000D01*
X96988853Y-90781093D01*
X96977046Y-90771009D01*
X96955562Y-90749525D01*
X96955559Y-90749523D01*
X96869941Y-90700091D01*
X96869943Y-90700091D01*
X96832885Y-90690161D01*
X96774435Y-90674500D01*
X96675565Y-90674500D01*
X96617114Y-90690161D01*
X96580057Y-90700091D01*
X96494440Y-90749523D01*
X96494438Y-90749524D01*
X96494438Y-90749525D01*
X96472957Y-90771005D01*
X96418443Y-90798781D01*
X96402956Y-90800000D01*
X93533013Y-90800000D01*
X93474822Y-90781093D01*
X93438858Y-90731593D01*
X93437387Y-90726624D01*
X93424911Y-90680065D01*
X93424909Y-90680060D01*
X93413263Y-90659888D01*
X93400000Y-90610389D01*
X93400000Y-90310724D01*
X93418907Y-90252533D01*
X93468407Y-90216569D01*
X93529593Y-90216569D01*
X93548495Y-90224985D01*
X93626114Y-90269799D01*
X93740691Y-90300500D01*
X93740693Y-90300500D01*
X93859307Y-90300500D01*
X93859309Y-90300500D01*
X93973886Y-90269799D01*
X93973888Y-90269797D01*
X93973890Y-90269797D01*
X94076608Y-90210492D01*
X94076608Y-90210491D01*
X94076613Y-90210489D01*
X94154998Y-90132103D01*
X94209513Y-90104328D01*
X94269945Y-90113899D01*
X94295000Y-90132102D01*
X94373387Y-90210489D01*
X94373389Y-90210490D01*
X94373391Y-90210492D01*
X94476110Y-90269797D01*
X94476111Y-90269797D01*
X94476114Y-90269799D01*
X94590691Y-90300500D01*
X94590693Y-90300500D01*
X94709307Y-90300500D01*
X94709309Y-90300500D01*
X94823886Y-90269799D01*
X94823888Y-90269797D01*
X94823890Y-90269797D01*
X94926608Y-90210492D01*
X94926608Y-90210491D01*
X94926613Y-90210489D01*
X94929998Y-90207103D01*
X94984513Y-90179328D01*
X95044945Y-90188899D01*
X95070000Y-90207102D01*
X95073387Y-90210489D01*
X95073389Y-90210490D01*
X95073391Y-90210492D01*
X95176110Y-90269797D01*
X95176111Y-90269797D01*
X95176114Y-90269799D01*
X95290691Y-90300500D01*
X95290693Y-90300500D01*
X95409307Y-90300500D01*
X95409309Y-90300500D01*
X95523886Y-90269799D01*
X95523888Y-90269797D01*
X95523890Y-90269797D01*
X95626608Y-90210492D01*
X95626608Y-90210491D01*
X95626613Y-90210489D01*
X95710489Y-90126613D01*
X95711502Y-90124857D01*
X95712581Y-90123886D01*
X95714440Y-90121464D01*
X95714888Y-90121808D01*
X95756966Y-90083914D01*
X95817815Y-90077512D01*
X95867243Y-90104345D01*
X95923387Y-90160489D01*
X95923389Y-90160490D01*
X95923391Y-90160492D01*
X96026110Y-90219797D01*
X96026111Y-90219797D01*
X96026114Y-90219799D01*
X96140691Y-90250500D01*
X96140693Y-90250500D01*
X96259307Y-90250500D01*
X96259309Y-90250500D01*
X96373886Y-90219799D01*
X96373888Y-90219797D01*
X96373890Y-90219797D01*
X96476608Y-90160492D01*
X96476608Y-90160491D01*
X96476613Y-90160489D01*
X96560489Y-90076613D01*
X96593904Y-90018737D01*
X96619797Y-89973890D01*
X96619797Y-89973888D01*
X96619799Y-89973886D01*
X96650500Y-89859309D01*
X96650500Y-89740691D01*
X96619799Y-89626114D01*
X96619797Y-89626111D01*
X96619797Y-89626109D01*
X96560492Y-89523391D01*
X96560490Y-89523389D01*
X96560489Y-89523387D01*
X96476613Y-89439511D01*
X96476610Y-89439509D01*
X96476608Y-89439507D01*
X96373889Y-89380202D01*
X96373890Y-89380202D01*
X96333718Y-89369438D01*
X96259309Y-89349500D01*
X96140691Y-89349500D01*
X96070567Y-89368289D01*
X96026109Y-89380202D01*
X95923391Y-89439507D01*
X95839509Y-89523389D01*
X95838491Y-89525153D01*
X95837407Y-89526128D01*
X95835560Y-89528536D01*
X95835113Y-89528193D01*
X95793019Y-89566091D01*
X95732168Y-89572483D01*
X95682755Y-89545653D01*
X95626613Y-89489511D01*
X95626610Y-89489509D01*
X95626608Y-89489507D01*
X95523889Y-89430202D01*
X95523890Y-89430202D01*
X95510351Y-89426574D01*
X95409309Y-89399500D01*
X95290691Y-89399500D01*
X95220567Y-89418289D01*
X95176109Y-89430202D01*
X95073391Y-89489507D01*
X95073383Y-89489513D01*
X95069999Y-89492898D01*
X95015481Y-89520672D01*
X94955049Y-89511097D01*
X94930001Y-89492898D01*
X94926616Y-89489513D01*
X94926608Y-89489507D01*
X94823889Y-89430202D01*
X94823890Y-89430202D01*
X94810351Y-89426574D01*
X94709309Y-89399500D01*
X94590691Y-89399500D01*
X94520567Y-89418289D01*
X94476109Y-89430202D01*
X94373391Y-89489507D01*
X94373390Y-89489508D01*
X94373387Y-89489510D01*
X94373387Y-89489511D01*
X94295001Y-89567896D01*
X94240487Y-89595672D01*
X94180055Y-89586101D01*
X94154999Y-89567897D01*
X94076613Y-89489511D01*
X94076610Y-89489509D01*
X94076608Y-89489507D01*
X93973889Y-89430202D01*
X93973890Y-89430202D01*
X93960351Y-89426574D01*
X93859309Y-89399500D01*
X93740691Y-89399500D01*
X93670567Y-89418289D01*
X93626109Y-89430202D01*
X93548500Y-89475011D01*
X93488652Y-89487733D01*
X93432756Y-89462847D01*
X93402163Y-89409859D01*
X93400000Y-89389275D01*
X93400000Y-89250001D01*
X93400000Y-89250000D01*
X93399999Y-89250000D01*
X92264711Y-89250000D01*
X92206520Y-89231093D01*
X92170556Y-89181593D01*
X92169091Y-89176649D01*
X92149910Y-89105062D01*
X92149908Y-89105059D01*
X92149908Y-89105057D01*
X92113264Y-89041588D01*
X92100000Y-88992088D01*
X92100000Y-85799000D01*
X92118907Y-85740809D01*
X92168407Y-85704845D01*
X92199000Y-85700000D01*
X92899829Y-85700000D01*
X92958020Y-85718907D01*
G37*
%TD.AperFunction*%
%TD*%
%TA.AperFunction,Conductor*%
%TO.N,M3_SRC*%
G36*
X89467986Y-90503373D02*
G01*
X89550565Y-90525500D01*
X89550567Y-90525500D01*
X89649433Y-90525500D01*
X89649435Y-90525500D01*
X89732014Y-90503373D01*
X89757637Y-90500000D01*
X89922244Y-90500000D01*
X89980435Y-90518907D01*
X89992246Y-90528995D01*
X90018737Y-90555485D01*
X90115759Y-90611501D01*
X90115757Y-90611501D01*
X90115761Y-90611502D01*
X90115763Y-90611503D01*
X90223982Y-90640500D01*
X90223984Y-90640500D01*
X90336016Y-90640500D01*
X90336018Y-90640500D01*
X90444237Y-90611503D01*
X90444239Y-90611501D01*
X90444241Y-90611501D01*
X90546882Y-90552241D01*
X90547588Y-90553464D01*
X90598402Y-90535467D01*
X90657069Y-90552841D01*
X90694319Y-90601380D01*
X90700000Y-90634433D01*
X90700000Y-92754731D01*
X90681093Y-92812922D01*
X90671004Y-92824734D01*
X90625236Y-92870503D01*
X90570720Y-92898281D01*
X90555232Y-92899500D01*
X90525565Y-92899500D01*
X90467114Y-92915161D01*
X90430057Y-92925091D01*
X90344440Y-92974523D01*
X90274523Y-93044440D01*
X90225091Y-93130057D01*
X90216435Y-93162364D01*
X90199500Y-93225565D01*
X90199500Y-93324435D01*
X90210878Y-93366897D01*
X90225090Y-93419939D01*
X90229328Y-93427278D01*
X90236735Y-93440109D01*
X90250000Y-93489609D01*
X90250000Y-93666922D01*
X90231093Y-93725113D01*
X90181593Y-93761077D01*
X90176634Y-93762545D01*
X90156460Y-93767951D01*
X90135758Y-93773498D01*
X90038739Y-93829513D01*
X89959513Y-93908739D01*
X89903498Y-94005758D01*
X89874498Y-94113987D01*
X89874435Y-94114473D01*
X89874284Y-94114788D01*
X89872821Y-94120250D01*
X89871808Y-94119978D01*
X89848089Y-94169695D01*
X89796872Y-94197498D01*
X89796959Y-94197821D01*
X89795613Y-94198181D01*
X89794316Y-94198886D01*
X89791061Y-94199401D01*
X89790692Y-94199500D01*
X89790691Y-94199500D01*
X89757211Y-94208470D01*
X89676109Y-94230202D01*
X89573391Y-94289507D01*
X89489507Y-94373391D01*
X89430202Y-94476109D01*
X89420991Y-94510485D01*
X89399500Y-94590691D01*
X89399500Y-94709309D01*
X89426574Y-94810351D01*
X89430202Y-94823890D01*
X89489507Y-94926608D01*
X89489513Y-94926616D01*
X89492898Y-94930001D01*
X89520672Y-94984519D01*
X89511097Y-95044951D01*
X89492898Y-95069999D01*
X89489513Y-95073383D01*
X89489507Y-95073391D01*
X89430202Y-95176109D01*
X89430201Y-95176114D01*
X89399500Y-95290691D01*
X89399500Y-95409309D01*
X89410537Y-95450500D01*
X89430202Y-95523890D01*
X89489507Y-95626608D01*
X89489509Y-95626610D01*
X89489511Y-95626613D01*
X89567896Y-95704998D01*
X89595672Y-95759513D01*
X89586101Y-95819945D01*
X89567897Y-95845000D01*
X89526101Y-95886797D01*
X89489508Y-95923390D01*
X89489507Y-95923391D01*
X89430202Y-96026109D01*
X89430201Y-96026114D01*
X89399500Y-96140691D01*
X89399500Y-96259309D01*
X89426574Y-96360351D01*
X89430202Y-96373890D01*
X89489507Y-96476608D01*
X89489509Y-96476610D01*
X89489511Y-96476613D01*
X89573387Y-96560489D01*
X89573389Y-96560490D01*
X89573391Y-96560492D01*
X89676110Y-96619797D01*
X89676111Y-96619797D01*
X89676114Y-96619799D01*
X89790691Y-96650500D01*
X89790693Y-96650500D01*
X89909307Y-96650500D01*
X89909309Y-96650500D01*
X90023886Y-96619799D01*
X90101500Y-96574987D01*
X90161347Y-96562266D01*
X90217243Y-96587152D01*
X90247836Y-96640140D01*
X90250000Y-96660724D01*
X90250000Y-96937244D01*
X90231093Y-96995435D01*
X90221005Y-97007247D01*
X90189513Y-97038739D01*
X90133498Y-97135758D01*
X90133497Y-97135763D01*
X90104500Y-97243982D01*
X90104500Y-97356018D01*
X90130072Y-97451455D01*
X90133498Y-97464241D01*
X90189513Y-97561260D01*
X90189515Y-97561263D01*
X90268737Y-97640485D01*
X90268739Y-97640486D01*
X90365759Y-97696501D01*
X90365757Y-97696501D01*
X90365761Y-97696502D01*
X90365763Y-97696503D01*
X90473982Y-97725500D01*
X90473984Y-97725500D01*
X90586017Y-97725500D01*
X90586018Y-97725500D01*
X90675378Y-97701556D01*
X90736478Y-97704757D01*
X90784028Y-97743262D01*
X90800000Y-97797182D01*
X90800000Y-98625500D01*
X90781093Y-98683691D01*
X90731593Y-98719655D01*
X90701000Y-98724500D01*
X90662147Y-98724500D01*
X90579362Y-98746682D01*
X90505138Y-98789535D01*
X90444533Y-98850140D01*
X90435236Y-98866244D01*
X90389767Y-98907185D01*
X90328917Y-98913581D01*
X90275929Y-98882988D01*
X90251042Y-98827092D01*
X90250500Y-98816744D01*
X90250500Y-98740692D01*
X90250500Y-98740691D01*
X90219799Y-98626114D01*
X90219797Y-98626111D01*
X90219797Y-98626109D01*
X90160492Y-98523391D01*
X90160490Y-98523389D01*
X90160489Y-98523387D01*
X90076613Y-98439511D01*
X90076610Y-98439509D01*
X90076608Y-98439507D01*
X89973889Y-98380202D01*
X89973890Y-98380202D01*
X89960351Y-98376574D01*
X89859309Y-98349500D01*
X89740691Y-98349500D01*
X89670567Y-98368289D01*
X89626109Y-98380202D01*
X89523391Y-98439507D01*
X89439507Y-98523391D01*
X89380202Y-98626109D01*
X89380201Y-98626114D01*
X89349500Y-98740691D01*
X89349500Y-98859309D01*
X89364042Y-98913581D01*
X89380202Y-98973890D01*
X89439507Y-99076608D01*
X89439509Y-99076610D01*
X89439511Y-99076613D01*
X89523387Y-99160489D01*
X89523389Y-99160490D01*
X89525148Y-99161506D01*
X89526121Y-99162587D01*
X89528536Y-99164440D01*
X89528192Y-99164887D01*
X89566089Y-99206976D01*
X89572483Y-99267827D01*
X89545652Y-99317244D01*
X89489512Y-99373385D01*
X89489507Y-99373391D01*
X89430202Y-99476109D01*
X89430201Y-99476114D01*
X89399500Y-99590691D01*
X89399500Y-99709309D01*
X89423801Y-99800000D01*
X89430202Y-99823890D01*
X89489507Y-99926608D01*
X89489513Y-99926616D01*
X89492898Y-99930001D01*
X89520672Y-99984519D01*
X89511097Y-100044951D01*
X89492898Y-100069999D01*
X89489513Y-100073383D01*
X89489507Y-100073391D01*
X89430202Y-100176109D01*
X89430201Y-100176114D01*
X89399500Y-100290691D01*
X89399500Y-100409309D01*
X89425716Y-100507147D01*
X89430202Y-100523890D01*
X89489507Y-100626608D01*
X89489509Y-100626610D01*
X89489511Y-100626613D01*
X89567896Y-100704998D01*
X89595672Y-100759513D01*
X89586101Y-100819945D01*
X89567897Y-100845000D01*
X89504794Y-100908104D01*
X89489508Y-100923390D01*
X89489507Y-100923391D01*
X89430202Y-101026109D01*
X89430201Y-101026114D01*
X89399500Y-101140691D01*
X89399500Y-101259309D01*
X89424690Y-101353317D01*
X89430202Y-101373890D01*
X89489507Y-101476608D01*
X89489509Y-101476610D01*
X89489511Y-101476613D01*
X89573387Y-101560489D01*
X89573389Y-101560490D01*
X89573391Y-101560492D01*
X89676110Y-101619797D01*
X89676111Y-101619797D01*
X89676114Y-101619799D01*
X89790691Y-101650500D01*
X89790693Y-101650500D01*
X89909307Y-101650500D01*
X89909309Y-101650500D01*
X90023886Y-101619799D01*
X90023888Y-101619797D01*
X90023890Y-101619797D01*
X90126608Y-101560492D01*
X90126608Y-101560491D01*
X90126613Y-101560489D01*
X90210489Y-101476613D01*
X90269799Y-101373886D01*
X90288554Y-101303889D01*
X90321877Y-101252577D01*
X90378998Y-101230650D01*
X90438099Y-101246485D01*
X90454178Y-101259505D01*
X90505138Y-101310465D01*
X90579362Y-101353318D01*
X90662147Y-101375500D01*
X90662149Y-101375500D01*
X90675756Y-101375500D01*
X90733947Y-101394407D01*
X90769911Y-101443907D01*
X90771381Y-101500123D01*
X90769500Y-101507147D01*
X90769500Y-101592853D01*
X90783443Y-101644890D01*
X90791683Y-101675642D01*
X90792465Y-101677529D01*
X90793259Y-101681523D01*
X90793362Y-101681906D01*
X90793336Y-101681912D01*
X90800000Y-101715412D01*
X90800000Y-102952955D01*
X90781093Y-103011146D01*
X90771005Y-103022957D01*
X90749524Y-103044437D01*
X90700091Y-103130057D01*
X90700090Y-103130062D01*
X90674500Y-103225565D01*
X90674500Y-103324435D01*
X90689443Y-103380202D01*
X90700091Y-103419942D01*
X90749523Y-103505559D01*
X90749525Y-103505562D01*
X90771005Y-103527042D01*
X90798781Y-103581557D01*
X90800000Y-103597044D01*
X90800000Y-106501000D01*
X90781093Y-106559191D01*
X90731593Y-106595155D01*
X90701000Y-106600000D01*
X90310725Y-106600000D01*
X90252534Y-106581093D01*
X90216570Y-106531593D01*
X90216570Y-106470407D01*
X90224989Y-106451500D01*
X90269797Y-106373890D01*
X90269797Y-106373888D01*
X90269799Y-106373886D01*
X90300500Y-106259309D01*
X90300500Y-106140691D01*
X90269799Y-106026114D01*
X90269797Y-106026111D01*
X90269797Y-106026109D01*
X90210492Y-105923391D01*
X90210490Y-105923389D01*
X90210489Y-105923387D01*
X90132103Y-105845001D01*
X90104328Y-105790487D01*
X90113899Y-105730055D01*
X90132102Y-105704999D01*
X90210489Y-105626613D01*
X90210777Y-105626114D01*
X90269797Y-105523890D01*
X90269797Y-105523888D01*
X90269799Y-105523886D01*
X90300500Y-105409309D01*
X90300500Y-105290691D01*
X90269799Y-105176114D01*
X90269797Y-105176111D01*
X90269797Y-105176109D01*
X90210492Y-105073391D01*
X90210490Y-105073389D01*
X90210489Y-105073387D01*
X90207103Y-105070001D01*
X90179328Y-105015487D01*
X90188899Y-104955055D01*
X90207102Y-104929999D01*
X90210489Y-104926613D01*
X90269799Y-104823886D01*
X90300500Y-104709309D01*
X90300500Y-104590691D01*
X90269799Y-104476114D01*
X90269797Y-104476111D01*
X90269797Y-104476109D01*
X90210492Y-104373391D01*
X90210490Y-104373389D01*
X90210489Y-104373387D01*
X90126613Y-104289511D01*
X90124850Y-104288493D01*
X90123875Y-104287410D01*
X90121464Y-104285560D01*
X90121806Y-104285113D01*
X90083910Y-104243024D01*
X90077514Y-104182174D01*
X90104346Y-104132755D01*
X90160489Y-104076613D01*
X90219799Y-103973886D01*
X90250500Y-103859309D01*
X90250500Y-103740691D01*
X90219799Y-103626114D01*
X90219797Y-103626111D01*
X90219797Y-103626109D01*
X90160492Y-103523391D01*
X90160490Y-103523389D01*
X90160489Y-103523387D01*
X90076613Y-103439511D01*
X90076610Y-103439509D01*
X90076608Y-103439507D01*
X89973889Y-103380202D01*
X89973890Y-103380202D01*
X89960351Y-103376574D01*
X89859309Y-103349500D01*
X89740691Y-103349500D01*
X89670567Y-103368289D01*
X89626109Y-103380202D01*
X89523391Y-103439507D01*
X89439507Y-103523391D01*
X89380202Y-103626109D01*
X89380201Y-103626114D01*
X89349500Y-103740691D01*
X89349500Y-103859309D01*
X89366670Y-103923387D01*
X89380202Y-103973890D01*
X89439507Y-104076608D01*
X89439509Y-104076610D01*
X89439511Y-104076613D01*
X89523387Y-104160489D01*
X89523389Y-104160490D01*
X89525148Y-104161506D01*
X89526121Y-104162587D01*
X89528536Y-104164440D01*
X89528192Y-104164887D01*
X89566089Y-104206976D01*
X89572483Y-104267827D01*
X89545652Y-104317244D01*
X89489512Y-104373385D01*
X89489507Y-104373391D01*
X89430202Y-104476109D01*
X89413037Y-104540169D01*
X89399500Y-104590691D01*
X89399500Y-104709309D01*
X89410007Y-104748520D01*
X89430202Y-104823890D01*
X89489507Y-104926608D01*
X89489513Y-104926616D01*
X89492898Y-104930001D01*
X89520672Y-104984519D01*
X89511097Y-105044951D01*
X89492898Y-105069999D01*
X89489513Y-105073383D01*
X89489507Y-105073391D01*
X89430202Y-105176109D01*
X89413037Y-105240169D01*
X89399500Y-105290691D01*
X89399500Y-105409309D01*
X89426574Y-105510351D01*
X89430202Y-105523890D01*
X89489507Y-105626608D01*
X89489509Y-105626610D01*
X89489511Y-105626613D01*
X89567896Y-105704998D01*
X89595672Y-105759513D01*
X89586101Y-105819945D01*
X89567897Y-105845000D01*
X89489511Y-105923387D01*
X89489508Y-105923390D01*
X89489507Y-105923391D01*
X89430202Y-106026109D01*
X89430201Y-106026114D01*
X89399500Y-106140691D01*
X89399500Y-106259309D01*
X89420488Y-106337636D01*
X89430202Y-106373890D01*
X89475011Y-106451500D01*
X89487733Y-106511348D01*
X89462847Y-106567244D01*
X89409859Y-106597837D01*
X89389275Y-106600000D01*
X89250000Y-106600000D01*
X89250000Y-106600001D01*
X89250000Y-107750500D01*
X89231093Y-107808691D01*
X89181593Y-107844655D01*
X89151000Y-107849500D01*
X85824500Y-107849500D01*
X85766309Y-107830593D01*
X85730345Y-107781093D01*
X85725500Y-107750500D01*
X85725500Y-107700171D01*
X85707536Y-107656803D01*
X85700000Y-107618917D01*
X85700000Y-107100170D01*
X85718907Y-107041979D01*
X85768407Y-107006015D01*
X85829593Y-107006015D01*
X85879093Y-107041979D01*
X85894627Y-107074548D01*
X85900091Y-107094941D01*
X85949523Y-107180559D01*
X85949525Y-107180562D01*
X86019438Y-107250475D01*
X86047979Y-107266953D01*
X86105058Y-107299908D01*
X86105056Y-107299908D01*
X86105060Y-107299909D01*
X86105062Y-107299910D01*
X86200565Y-107325500D01*
X86200567Y-107325500D01*
X86299433Y-107325500D01*
X86299435Y-107325500D01*
X86394938Y-107299910D01*
X86450501Y-107267830D01*
X86510347Y-107255109D01*
X86549497Y-107267829D01*
X86605062Y-107299910D01*
X86700565Y-107325500D01*
X86700567Y-107325500D01*
X86799433Y-107325500D01*
X86799435Y-107325500D01*
X86894938Y-107299910D01*
X86894940Y-107299908D01*
X86894942Y-107299908D01*
X86928450Y-107280562D01*
X86980562Y-107250475D01*
X87050475Y-107180562D01*
X87085222Y-107120377D01*
X87099908Y-107094942D01*
X87099908Y-107094940D01*
X87099910Y-107094938D01*
X87125500Y-106999435D01*
X87125500Y-106900565D01*
X87099910Y-106805062D01*
X87099908Y-106805059D01*
X87099908Y-106805057D01*
X87050476Y-106719440D01*
X87050475Y-106719438D01*
X86980562Y-106649525D01*
X86972534Y-106644890D01*
X86894941Y-106600091D01*
X86894943Y-106600091D01*
X86857885Y-106590161D01*
X86799435Y-106574500D01*
X86700565Y-106574500D01*
X86642114Y-106590161D01*
X86605057Y-106600091D01*
X86549500Y-106632168D01*
X86489652Y-106644890D01*
X86450500Y-106632168D01*
X86394941Y-106600091D01*
X86394943Y-106600091D01*
X86357885Y-106590161D01*
X86299435Y-106574500D01*
X86200565Y-106574500D01*
X86142114Y-106590161D01*
X86105057Y-106600091D01*
X86019440Y-106649523D01*
X85949523Y-106719440D01*
X85900091Y-106805057D01*
X85894627Y-106825452D01*
X85861303Y-106876766D01*
X85804181Y-106898693D01*
X85745081Y-106882857D01*
X85706576Y-106835307D01*
X85700000Y-106799829D01*
X85700000Y-105069595D01*
X85700500Y-105061965D01*
X85700500Y-104938035D01*
X85700000Y-104930404D01*
X85700000Y-104269595D01*
X85700500Y-104261965D01*
X85700500Y-104138035D01*
X85700000Y-104130404D01*
X85700000Y-102613926D01*
X85716958Y-102561731D01*
X85715831Y-102561081D01*
X85718893Y-102555776D01*
X85718907Y-102555735D01*
X85718953Y-102555672D01*
X85719073Y-102555463D01*
X85719075Y-102555462D01*
X85768510Y-102469838D01*
X85794100Y-102374335D01*
X85794100Y-102275465D01*
X85794100Y-102268976D01*
X85795579Y-102268976D01*
X85805361Y-102216178D01*
X85849741Y-102174058D01*
X85910402Y-102166068D01*
X85962368Y-102193405D01*
X86019438Y-102250475D01*
X86047979Y-102266953D01*
X86105058Y-102299908D01*
X86105056Y-102299908D01*
X86105060Y-102299909D01*
X86105062Y-102299910D01*
X86200565Y-102325500D01*
X86200567Y-102325500D01*
X86299433Y-102325500D01*
X86299435Y-102325500D01*
X86394938Y-102299910D01*
X86450501Y-102267830D01*
X86510347Y-102255109D01*
X86549497Y-102267829D01*
X86605062Y-102299910D01*
X86700565Y-102325500D01*
X86700567Y-102325500D01*
X86799433Y-102325500D01*
X86799435Y-102325500D01*
X86894938Y-102299910D01*
X86894940Y-102299908D01*
X86894942Y-102299908D01*
X86937278Y-102275465D01*
X86980562Y-102250475D01*
X87050475Y-102180562D01*
X87099910Y-102094938D01*
X87125500Y-101999435D01*
X87125500Y-101900565D01*
X87099910Y-101805062D01*
X87099908Y-101805059D01*
X87099908Y-101805057D01*
X87050476Y-101719440D01*
X87050475Y-101719438D01*
X86980562Y-101649525D01*
X86972534Y-101644890D01*
X86894941Y-101600091D01*
X86894943Y-101600091D01*
X86857885Y-101590161D01*
X86799435Y-101574500D01*
X86700565Y-101574500D01*
X86642114Y-101590161D01*
X86605057Y-101600091D01*
X86549500Y-101632168D01*
X86489652Y-101644890D01*
X86450500Y-101632168D01*
X86394941Y-101600091D01*
X86394943Y-101600091D01*
X86357885Y-101590161D01*
X86299435Y-101574500D01*
X86200565Y-101574500D01*
X86142114Y-101590161D01*
X86105057Y-101600091D01*
X86019440Y-101649523D01*
X85949523Y-101719440D01*
X85900091Y-101805057D01*
X85894627Y-101825452D01*
X85861303Y-101876766D01*
X85804181Y-101898693D01*
X85745081Y-101882857D01*
X85706576Y-101835307D01*
X85700000Y-101799829D01*
X85700000Y-100069595D01*
X85700500Y-100061965D01*
X85700500Y-99938035D01*
X85700000Y-99930404D01*
X85700000Y-99269595D01*
X85700500Y-99261965D01*
X85700500Y-99138035D01*
X85700000Y-99130404D01*
X85700000Y-97100170D01*
X85718907Y-97041979D01*
X85768407Y-97006015D01*
X85829593Y-97006015D01*
X85879093Y-97041979D01*
X85894627Y-97074548D01*
X85900091Y-97094941D01*
X85923657Y-97135758D01*
X85949525Y-97180562D01*
X86019438Y-97250475D01*
X86047979Y-97266953D01*
X86105058Y-97299908D01*
X86105056Y-97299908D01*
X86105060Y-97299909D01*
X86105062Y-97299910D01*
X86200565Y-97325500D01*
X86200567Y-97325500D01*
X86299433Y-97325500D01*
X86299435Y-97325500D01*
X86394938Y-97299910D01*
X86450501Y-97267830D01*
X86510347Y-97255109D01*
X86549497Y-97267829D01*
X86605062Y-97299910D01*
X86700565Y-97325500D01*
X86700567Y-97325500D01*
X86799433Y-97325500D01*
X86799435Y-97325500D01*
X86894938Y-97299910D01*
X86894940Y-97299908D01*
X86894942Y-97299908D01*
X86920377Y-97285222D01*
X86980562Y-97250475D01*
X87050475Y-97180562D01*
X87085222Y-97120377D01*
X87099908Y-97094942D01*
X87099908Y-97094940D01*
X87099910Y-97094938D01*
X87125500Y-96999435D01*
X87125500Y-96900565D01*
X87099910Y-96805062D01*
X87099908Y-96805059D01*
X87099908Y-96805057D01*
X87050476Y-96719440D01*
X87050475Y-96719438D01*
X86980562Y-96649525D01*
X86964307Y-96640140D01*
X86894941Y-96600091D01*
X86894943Y-96600091D01*
X86857885Y-96590161D01*
X86799435Y-96574500D01*
X86700565Y-96574500D01*
X86642114Y-96590161D01*
X86605057Y-96600091D01*
X86549500Y-96632168D01*
X86489652Y-96644890D01*
X86450500Y-96632168D01*
X86394941Y-96600091D01*
X86394943Y-96600091D01*
X86357885Y-96590161D01*
X86299435Y-96574500D01*
X86200565Y-96574500D01*
X86142114Y-96590161D01*
X86105057Y-96600091D01*
X86019440Y-96649523D01*
X85949523Y-96719440D01*
X85900091Y-96805057D01*
X85894627Y-96825452D01*
X85861303Y-96876766D01*
X85804181Y-96898693D01*
X85745081Y-96882857D01*
X85706576Y-96835307D01*
X85700000Y-96799829D01*
X85700000Y-95069595D01*
X85700500Y-95061965D01*
X85700500Y-94938035D01*
X85700000Y-94930404D01*
X85700000Y-94269595D01*
X85700500Y-94261965D01*
X85700500Y-94138035D01*
X85700000Y-94130404D01*
X85700000Y-93149000D01*
X85718907Y-93090809D01*
X85768407Y-93054845D01*
X85799000Y-93050000D01*
X88551563Y-93050000D01*
X88609754Y-93068907D01*
X88645718Y-93118407D01*
X88648500Y-93130702D01*
X88649500Y-93134433D01*
X88649500Y-93134435D01*
X88667202Y-93200501D01*
X88675091Y-93229942D01*
X88724523Y-93315559D01*
X88724525Y-93315562D01*
X88794438Y-93385475D01*
X88794440Y-93385476D01*
X88880058Y-93434908D01*
X88880056Y-93434908D01*
X88880060Y-93434909D01*
X88880062Y-93434910D01*
X88975565Y-93460500D01*
X88975567Y-93460500D01*
X89074433Y-93460500D01*
X89074435Y-93460500D01*
X89169938Y-93434910D01*
X89169940Y-93434908D01*
X89169942Y-93434908D01*
X89195870Y-93419938D01*
X89255562Y-93385475D01*
X89325475Y-93315562D01*
X89374910Y-93229938D01*
X89400500Y-93134435D01*
X89400500Y-93035565D01*
X89374910Y-92940062D01*
X89374908Y-92940059D01*
X89374908Y-92940057D01*
X89325476Y-92854440D01*
X89325475Y-92854438D01*
X89255562Y-92784525D01*
X89255559Y-92784523D01*
X89169941Y-92735091D01*
X89169943Y-92735091D01*
X89132885Y-92725161D01*
X89074435Y-92709500D01*
X88975565Y-92709500D01*
X88945983Y-92717426D01*
X88874622Y-92736547D01*
X88813521Y-92733344D01*
X88765971Y-92694839D01*
X88750000Y-92640920D01*
X88750000Y-92522044D01*
X88768907Y-92463853D01*
X88771563Y-92460742D01*
X88771524Y-92460712D01*
X88775474Y-92455563D01*
X88775764Y-92455062D01*
X88824910Y-92369938D01*
X88850500Y-92274435D01*
X88850500Y-92175565D01*
X88824910Y-92080062D01*
X88824908Y-92080059D01*
X88824908Y-92080057D01*
X88775474Y-91994436D01*
X88771524Y-91989288D01*
X88773713Y-91987608D01*
X88751212Y-91943396D01*
X88750000Y-91927955D01*
X88750000Y-90599000D01*
X88768907Y-90540809D01*
X88818407Y-90504845D01*
X88849000Y-90500000D01*
X89442363Y-90500000D01*
X89467986Y-90503373D01*
G37*
%TD.AperFunction*%
%TD*%
%TA.AperFunction,Conductor*%
%TO.N,M1_SRC*%
G36*
X98683691Y-109218907D02*
G01*
X98719655Y-109268407D01*
X98724500Y-109299000D01*
X98724500Y-109337852D01*
X98746682Y-109420637D01*
X98789535Y-109494861D01*
X98850138Y-109555464D01*
X98866247Y-109564764D01*
X98907187Y-109610233D01*
X98913583Y-109671083D01*
X98882990Y-109724071D01*
X98827095Y-109748958D01*
X98816746Y-109749500D01*
X98740691Y-109749500D01*
X98683091Y-109764934D01*
X98626109Y-109780202D01*
X98523391Y-109839507D01*
X98439507Y-109923391D01*
X98380202Y-110026109D01*
X98370991Y-110060485D01*
X98349500Y-110140691D01*
X98349500Y-110259309D01*
X98373952Y-110350565D01*
X98380202Y-110373890D01*
X98439507Y-110476608D01*
X98439509Y-110476610D01*
X98439511Y-110476613D01*
X98523387Y-110560489D01*
X98523389Y-110560490D01*
X98523391Y-110560492D01*
X98626110Y-110619797D01*
X98626111Y-110619797D01*
X98626114Y-110619799D01*
X98740691Y-110650500D01*
X98740693Y-110650500D01*
X98859307Y-110650500D01*
X98859309Y-110650500D01*
X98973886Y-110619799D01*
X98973888Y-110619797D01*
X98973890Y-110619797D01*
X99076608Y-110560492D01*
X99076608Y-110560491D01*
X99076613Y-110560489D01*
X99160489Y-110476613D01*
X99161502Y-110474857D01*
X99162581Y-110473886D01*
X99164440Y-110471464D01*
X99164888Y-110471808D01*
X99206966Y-110433914D01*
X99267815Y-110427512D01*
X99317243Y-110454345D01*
X99373387Y-110510489D01*
X99373389Y-110510490D01*
X99373391Y-110510492D01*
X99476110Y-110569797D01*
X99476111Y-110569797D01*
X99476114Y-110569799D01*
X99590691Y-110600500D01*
X99590693Y-110600500D01*
X99709307Y-110600500D01*
X99709309Y-110600500D01*
X99823886Y-110569799D01*
X99823888Y-110569797D01*
X99823890Y-110569797D01*
X99926608Y-110510492D01*
X99926608Y-110510491D01*
X99926613Y-110510489D01*
X99929998Y-110507103D01*
X99984513Y-110479328D01*
X100044945Y-110488899D01*
X100070000Y-110507102D01*
X100073387Y-110510489D01*
X100073389Y-110510490D01*
X100073391Y-110510492D01*
X100176110Y-110569797D01*
X100176111Y-110569797D01*
X100176114Y-110569799D01*
X100290691Y-110600500D01*
X100290693Y-110600500D01*
X100409307Y-110600500D01*
X100409309Y-110600500D01*
X100523886Y-110569799D01*
X100523888Y-110569797D01*
X100523890Y-110569797D01*
X100626608Y-110510492D01*
X100626608Y-110510491D01*
X100626613Y-110510489D01*
X100704998Y-110432103D01*
X100759513Y-110404328D01*
X100819945Y-110413899D01*
X100845000Y-110432102D01*
X100923387Y-110510489D01*
X100923389Y-110510490D01*
X100923391Y-110510492D01*
X101026110Y-110569797D01*
X101026111Y-110569797D01*
X101026114Y-110569799D01*
X101140691Y-110600500D01*
X101140693Y-110600500D01*
X101259307Y-110600500D01*
X101259309Y-110600500D01*
X101373886Y-110569799D01*
X101373888Y-110569797D01*
X101373890Y-110569797D01*
X101476608Y-110510492D01*
X101476608Y-110510491D01*
X101476613Y-110510489D01*
X101560489Y-110426613D01*
X101560492Y-110426608D01*
X101619797Y-110323890D01*
X101619797Y-110323888D01*
X101619799Y-110323886D01*
X101650500Y-110209309D01*
X101650500Y-110090691D01*
X101619799Y-109976114D01*
X101619797Y-109976111D01*
X101619797Y-109976109D01*
X101560492Y-109873391D01*
X101560490Y-109873389D01*
X101560489Y-109873387D01*
X101476613Y-109789511D01*
X101476610Y-109789509D01*
X101476608Y-109789507D01*
X101373889Y-109730202D01*
X101373890Y-109730202D01*
X101364861Y-109727782D01*
X101303888Y-109711445D01*
X101252575Y-109678122D01*
X101230649Y-109621000D01*
X101246485Y-109561900D01*
X101259505Y-109545820D01*
X101310465Y-109494861D01*
X101353318Y-109420637D01*
X101375500Y-109337852D01*
X101375500Y-109324244D01*
X101394407Y-109266053D01*
X101443907Y-109230089D01*
X101500123Y-109228618D01*
X101507147Y-109230500D01*
X101507149Y-109230500D01*
X101592851Y-109230500D01*
X101592853Y-109230500D01*
X101675638Y-109208318D01*
X101675641Y-109208316D01*
X101675642Y-109208316D01*
X101677529Y-109207535D01*
X101681523Y-109206740D01*
X101681906Y-109206638D01*
X101681912Y-109206663D01*
X101715412Y-109200000D01*
X102952956Y-109200000D01*
X103011147Y-109218907D01*
X103022953Y-109228990D01*
X103044438Y-109250475D01*
X103044440Y-109250476D01*
X103130058Y-109299908D01*
X103130056Y-109299908D01*
X103130060Y-109299909D01*
X103130062Y-109299910D01*
X103225565Y-109325500D01*
X103225567Y-109325500D01*
X103324433Y-109325500D01*
X103324435Y-109325500D01*
X103419938Y-109299910D01*
X103419940Y-109299908D01*
X103419942Y-109299908D01*
X103445377Y-109285222D01*
X103505562Y-109250475D01*
X103527042Y-109228994D01*
X103581557Y-109201219D01*
X103597044Y-109200000D01*
X106448686Y-109200000D01*
X106506877Y-109218907D01*
X106542841Y-109268407D01*
X106544312Y-109273376D01*
X106550089Y-109294937D01*
X106556340Y-109305763D01*
X106577792Y-109342920D01*
X106586736Y-109358410D01*
X106600000Y-109407911D01*
X106600000Y-109689275D01*
X106581093Y-109747466D01*
X106531593Y-109783430D01*
X106470407Y-109783430D01*
X106451500Y-109775011D01*
X106373889Y-109730202D01*
X106373890Y-109730202D01*
X106356338Y-109725499D01*
X106259309Y-109699500D01*
X106140691Y-109699500D01*
X106070567Y-109718289D01*
X106026109Y-109730202D01*
X105923391Y-109789507D01*
X105923390Y-109789508D01*
X105923387Y-109789510D01*
X105923387Y-109789511D01*
X105845001Y-109867896D01*
X105790487Y-109895672D01*
X105730055Y-109886101D01*
X105704999Y-109867897D01*
X105626613Y-109789511D01*
X105626610Y-109789509D01*
X105626608Y-109789507D01*
X105523889Y-109730202D01*
X105523890Y-109730202D01*
X105506338Y-109725499D01*
X105409309Y-109699500D01*
X105290691Y-109699500D01*
X105220567Y-109718289D01*
X105176109Y-109730202D01*
X105073391Y-109789507D01*
X105073383Y-109789513D01*
X105069999Y-109792898D01*
X105015481Y-109820672D01*
X104955049Y-109811097D01*
X104930001Y-109792898D01*
X104926616Y-109789513D01*
X104926608Y-109789507D01*
X104823889Y-109730202D01*
X104823890Y-109730202D01*
X104806338Y-109725499D01*
X104709309Y-109699500D01*
X104590691Y-109699500D01*
X104520567Y-109718289D01*
X104476109Y-109730202D01*
X104373391Y-109789507D01*
X104289509Y-109873389D01*
X104288491Y-109875153D01*
X104287407Y-109876128D01*
X104285560Y-109878536D01*
X104285113Y-109878193D01*
X104243019Y-109916091D01*
X104182168Y-109922483D01*
X104132755Y-109895653D01*
X104076613Y-109839511D01*
X104076610Y-109839509D01*
X104076608Y-109839507D01*
X103973889Y-109780202D01*
X103973890Y-109780202D01*
X103931736Y-109768907D01*
X103859309Y-109749500D01*
X103740691Y-109749500D01*
X103683091Y-109764934D01*
X103626109Y-109780202D01*
X103523391Y-109839507D01*
X103439507Y-109923391D01*
X103380202Y-110026109D01*
X103370991Y-110060485D01*
X103349500Y-110140691D01*
X103349500Y-110259309D01*
X103373952Y-110350565D01*
X103380202Y-110373890D01*
X103439507Y-110476608D01*
X103439509Y-110476610D01*
X103439511Y-110476613D01*
X103523387Y-110560489D01*
X103523389Y-110560490D01*
X103523391Y-110560492D01*
X103626110Y-110619797D01*
X103626111Y-110619797D01*
X103626114Y-110619799D01*
X103740691Y-110650500D01*
X103740693Y-110650500D01*
X103859307Y-110650500D01*
X103859309Y-110650500D01*
X103973886Y-110619799D01*
X103973888Y-110619797D01*
X103973890Y-110619797D01*
X104076608Y-110560492D01*
X104076608Y-110560491D01*
X104076613Y-110560489D01*
X104160489Y-110476613D01*
X104161502Y-110474857D01*
X104162581Y-110473886D01*
X104164440Y-110471464D01*
X104164888Y-110471808D01*
X104206966Y-110433914D01*
X104267815Y-110427512D01*
X104317243Y-110454345D01*
X104373387Y-110510489D01*
X104373389Y-110510490D01*
X104373391Y-110510492D01*
X104476110Y-110569797D01*
X104476111Y-110569797D01*
X104476114Y-110569799D01*
X104590691Y-110600500D01*
X104590693Y-110600500D01*
X104709307Y-110600500D01*
X104709309Y-110600500D01*
X104823886Y-110569799D01*
X104823888Y-110569797D01*
X104823890Y-110569797D01*
X104926608Y-110510492D01*
X104926608Y-110510491D01*
X104926613Y-110510489D01*
X104929998Y-110507103D01*
X104984513Y-110479328D01*
X105044945Y-110488899D01*
X105070000Y-110507102D01*
X105073387Y-110510489D01*
X105073389Y-110510490D01*
X105073391Y-110510492D01*
X105176110Y-110569797D01*
X105176111Y-110569797D01*
X105176114Y-110569799D01*
X105290691Y-110600500D01*
X105290693Y-110600500D01*
X105409307Y-110600500D01*
X105409309Y-110600500D01*
X105523886Y-110569799D01*
X105523888Y-110569797D01*
X105523890Y-110569797D01*
X105626608Y-110510492D01*
X105626608Y-110510491D01*
X105626613Y-110510489D01*
X105704998Y-110432103D01*
X105759513Y-110404328D01*
X105819945Y-110413899D01*
X105845000Y-110432102D01*
X105923387Y-110510489D01*
X105923389Y-110510490D01*
X105923391Y-110510492D01*
X106026110Y-110569797D01*
X106026111Y-110569797D01*
X106026114Y-110569799D01*
X106140691Y-110600500D01*
X106140693Y-110600500D01*
X106259307Y-110600500D01*
X106259309Y-110600500D01*
X106373886Y-110569799D01*
X106451500Y-110524987D01*
X106511347Y-110512266D01*
X106567243Y-110537152D01*
X106597836Y-110590140D01*
X106600000Y-110610724D01*
X106600000Y-110750000D01*
X107801000Y-110750000D01*
X107859191Y-110768907D01*
X107895155Y-110818407D01*
X107900000Y-110849000D01*
X107900000Y-114201000D01*
X107881093Y-114259191D01*
X107831593Y-114295155D01*
X107801000Y-114300000D01*
X107100171Y-114300000D01*
X107041980Y-114281093D01*
X107006016Y-114231593D01*
X107006016Y-114170407D01*
X107041980Y-114120907D01*
X107074545Y-114105374D01*
X107094938Y-114099910D01*
X107094940Y-114099908D01*
X107094942Y-114099908D01*
X107120377Y-114085222D01*
X107180562Y-114050475D01*
X107250475Y-113980562D01*
X107299910Y-113894938D01*
X107325500Y-113799435D01*
X107325500Y-113700565D01*
X107299910Y-113605062D01*
X107267830Y-113549498D01*
X107255109Y-113489653D01*
X107267831Y-113450500D01*
X107299910Y-113394938D01*
X107325500Y-113299435D01*
X107325500Y-113200565D01*
X107299910Y-113105062D01*
X107299908Y-113105059D01*
X107299908Y-113105057D01*
X107250476Y-113019440D01*
X107250475Y-113019438D01*
X107180562Y-112949525D01*
X107162033Y-112938827D01*
X107094941Y-112900091D01*
X107094943Y-112900091D01*
X107057885Y-112890161D01*
X106999435Y-112874500D01*
X106900565Y-112874500D01*
X106842114Y-112890161D01*
X106805057Y-112900091D01*
X106719440Y-112949523D01*
X106649523Y-113019440D01*
X106600091Y-113105057D01*
X106600090Y-113105062D01*
X106574500Y-113200565D01*
X106574500Y-113299435D01*
X106597067Y-113383657D01*
X106600091Y-113394942D01*
X106632168Y-113450500D01*
X106644890Y-113510348D01*
X106632168Y-113549500D01*
X106600091Y-113605057D01*
X106600090Y-113605062D01*
X106574500Y-113700565D01*
X106574500Y-113799435D01*
X106597067Y-113883657D01*
X106600091Y-113894942D01*
X106649523Y-113980559D01*
X106649525Y-113980562D01*
X106719438Y-114050475D01*
X106719440Y-114050476D01*
X106805058Y-114099908D01*
X106805056Y-114099908D01*
X106805060Y-114099909D01*
X106805062Y-114099910D01*
X106825453Y-114105373D01*
X106876766Y-114138697D01*
X106898693Y-114195819D01*
X106882857Y-114254919D01*
X106835307Y-114293424D01*
X106799829Y-114300000D01*
X105069596Y-114300000D01*
X105061968Y-114299500D01*
X105059309Y-114299500D01*
X104940691Y-114299500D01*
X104938032Y-114299500D01*
X104930404Y-114300000D01*
X104269596Y-114300000D01*
X104261968Y-114299500D01*
X104259309Y-114299500D01*
X104140691Y-114299500D01*
X104138032Y-114299500D01*
X104130404Y-114300000D01*
X102100171Y-114300000D01*
X102041980Y-114281093D01*
X102006016Y-114231593D01*
X102006016Y-114170407D01*
X102041980Y-114120907D01*
X102074545Y-114105374D01*
X102094938Y-114099910D01*
X102094940Y-114099908D01*
X102094942Y-114099908D01*
X102120377Y-114085222D01*
X102180562Y-114050475D01*
X102250475Y-113980562D01*
X102299910Y-113894938D01*
X102325500Y-113799435D01*
X102325500Y-113700565D01*
X102299910Y-113605062D01*
X102267830Y-113549498D01*
X102255109Y-113489653D01*
X102267831Y-113450500D01*
X102299910Y-113394938D01*
X102325500Y-113299435D01*
X102325500Y-113200565D01*
X102299910Y-113105062D01*
X102299908Y-113105059D01*
X102299908Y-113105057D01*
X102250476Y-113019440D01*
X102250475Y-113019438D01*
X102180562Y-112949525D01*
X102162033Y-112938827D01*
X102094941Y-112900091D01*
X102094943Y-112900091D01*
X102057885Y-112890161D01*
X101999435Y-112874500D01*
X101900565Y-112874500D01*
X101842114Y-112890161D01*
X101805057Y-112900091D01*
X101719440Y-112949523D01*
X101649523Y-113019440D01*
X101600091Y-113105057D01*
X101600090Y-113105062D01*
X101574500Y-113200565D01*
X101574500Y-113299435D01*
X101597067Y-113383657D01*
X101600091Y-113394942D01*
X101632168Y-113450500D01*
X101644890Y-113510348D01*
X101632168Y-113549500D01*
X101600091Y-113605057D01*
X101600090Y-113605062D01*
X101574500Y-113700565D01*
X101574500Y-113799435D01*
X101597067Y-113883657D01*
X101600091Y-113894942D01*
X101649523Y-113980559D01*
X101649525Y-113980562D01*
X101719438Y-114050475D01*
X101719440Y-114050476D01*
X101805058Y-114099908D01*
X101805056Y-114099908D01*
X101805060Y-114099909D01*
X101805062Y-114099910D01*
X101825453Y-114105373D01*
X101876766Y-114138697D01*
X101898693Y-114195819D01*
X101882857Y-114254919D01*
X101835307Y-114293424D01*
X101799829Y-114300000D01*
X100069596Y-114300000D01*
X100061968Y-114299500D01*
X100059309Y-114299500D01*
X99940691Y-114299500D01*
X99938032Y-114299500D01*
X99930404Y-114300000D01*
X99269596Y-114300000D01*
X99261968Y-114299500D01*
X99259309Y-114299500D01*
X99140691Y-114299500D01*
X99138032Y-114299500D01*
X99130404Y-114300000D01*
X97100171Y-114300000D01*
X97041980Y-114281093D01*
X97006016Y-114231593D01*
X97006016Y-114170407D01*
X97041980Y-114120907D01*
X97074545Y-114105374D01*
X97094938Y-114099910D01*
X97094940Y-114099908D01*
X97094942Y-114099908D01*
X97120377Y-114085222D01*
X97180562Y-114050475D01*
X97250475Y-113980562D01*
X97299910Y-113894938D01*
X97325500Y-113799435D01*
X97325500Y-113700565D01*
X97299910Y-113605062D01*
X97267830Y-113549498D01*
X97255109Y-113489653D01*
X97267831Y-113450500D01*
X97299910Y-113394938D01*
X97325500Y-113299435D01*
X97325500Y-113200565D01*
X97299910Y-113105062D01*
X97299908Y-113105059D01*
X97299908Y-113105057D01*
X97250476Y-113019440D01*
X97250475Y-113019438D01*
X97180562Y-112949525D01*
X97162033Y-112938827D01*
X97094941Y-112900091D01*
X97094943Y-112900091D01*
X97057885Y-112890161D01*
X96999435Y-112874500D01*
X96900565Y-112874500D01*
X96842114Y-112890161D01*
X96805057Y-112900091D01*
X96719440Y-112949523D01*
X96649523Y-113019440D01*
X96600091Y-113105057D01*
X96600090Y-113105062D01*
X96574500Y-113200565D01*
X96574500Y-113299435D01*
X96597067Y-113383657D01*
X96600091Y-113394942D01*
X96632168Y-113450500D01*
X96644890Y-113510348D01*
X96632168Y-113549500D01*
X96600091Y-113605057D01*
X96600090Y-113605062D01*
X96574500Y-113700565D01*
X96574500Y-113799435D01*
X96597067Y-113883657D01*
X96600091Y-113894942D01*
X96649523Y-113980559D01*
X96649525Y-113980562D01*
X96719438Y-114050475D01*
X96719440Y-114050476D01*
X96805058Y-114099908D01*
X96805056Y-114099908D01*
X96805060Y-114099909D01*
X96805062Y-114099910D01*
X96825453Y-114105373D01*
X96876766Y-114138697D01*
X96898693Y-114195819D01*
X96882857Y-114254919D01*
X96835307Y-114293424D01*
X96799829Y-114300000D01*
X95069596Y-114300000D01*
X95061968Y-114299500D01*
X95059309Y-114299500D01*
X94940691Y-114299500D01*
X94938032Y-114299500D01*
X94930404Y-114300000D01*
X94269596Y-114300000D01*
X94261968Y-114299500D01*
X94259309Y-114299500D01*
X94140691Y-114299500D01*
X94138032Y-114299500D01*
X94130404Y-114300000D01*
X93149000Y-114300000D01*
X93090809Y-114281093D01*
X93054845Y-114231593D01*
X93050000Y-114201000D01*
X93050000Y-111448436D01*
X93068907Y-111390245D01*
X93118407Y-111354281D01*
X93130700Y-111351500D01*
X93134432Y-111350500D01*
X93134435Y-111350500D01*
X93229938Y-111324910D01*
X93229940Y-111324908D01*
X93229942Y-111324908D01*
X93282717Y-111294438D01*
X93315562Y-111275475D01*
X93385475Y-111205562D01*
X93434910Y-111119938D01*
X93460500Y-111024435D01*
X93460500Y-110925565D01*
X93434910Y-110830062D01*
X93434908Y-110830059D01*
X93434908Y-110830057D01*
X93385476Y-110744440D01*
X93385475Y-110744438D01*
X93315562Y-110674525D01*
X93315559Y-110674523D01*
X93229941Y-110625091D01*
X93229943Y-110625091D01*
X93176323Y-110610724D01*
X93134435Y-110599500D01*
X93035565Y-110599500D01*
X92993677Y-110610724D01*
X92940057Y-110625091D01*
X92854440Y-110674523D01*
X92784523Y-110744440D01*
X92735091Y-110830057D01*
X92720783Y-110883453D01*
X92709500Y-110925565D01*
X92709500Y-111024435D01*
X92735090Y-111119938D01*
X92735091Y-111119939D01*
X92736548Y-111125377D01*
X92733346Y-111186478D01*
X92694840Y-111234028D01*
X92640921Y-111250000D01*
X92522044Y-111250000D01*
X92463853Y-111231093D01*
X92460742Y-111228436D01*
X92460712Y-111228476D01*
X92455563Y-111224525D01*
X92369941Y-111175091D01*
X92369943Y-111175091D01*
X92332885Y-111165161D01*
X92274435Y-111149500D01*
X92175565Y-111149500D01*
X92117114Y-111165161D01*
X92080057Y-111175091D01*
X91994436Y-111224525D01*
X91989288Y-111228476D01*
X91987603Y-111226280D01*
X91943443Y-111248781D01*
X91927956Y-111250000D01*
X90599000Y-111250000D01*
X90540809Y-111231093D01*
X90504845Y-111181593D01*
X90500000Y-111151000D01*
X90500000Y-110557636D01*
X90503373Y-110532013D01*
X90525500Y-110449435D01*
X90525500Y-110350565D01*
X90511260Y-110297424D01*
X90503373Y-110267984D01*
X90500000Y-110242362D01*
X90500000Y-110077755D01*
X90518907Y-110019564D01*
X90528990Y-110007757D01*
X90555485Y-109981263D01*
X90594859Y-109913064D01*
X90611501Y-109884241D01*
X90611501Y-109884239D01*
X90611503Y-109884237D01*
X90640500Y-109776018D01*
X90640500Y-109663982D01*
X90611503Y-109555763D01*
X90611501Y-109555760D01*
X90611501Y-109555758D01*
X90552241Y-109453118D01*
X90553462Y-109452412D01*
X90535468Y-109401585D01*
X90552849Y-109342920D01*
X90601394Y-109305676D01*
X90634434Y-109300000D01*
X92625500Y-109300000D01*
X92683691Y-109318907D01*
X92719655Y-109368407D01*
X92723552Y-109393014D01*
X92723653Y-109393001D01*
X92724161Y-109396860D01*
X92724500Y-109399000D01*
X92724500Y-109399435D01*
X92740390Y-109458737D01*
X92750091Y-109494942D01*
X92785091Y-109555562D01*
X92799525Y-109580562D01*
X92869438Y-109650475D01*
X92869440Y-109650476D01*
X92955058Y-109699908D01*
X92955056Y-109699908D01*
X92955060Y-109699909D01*
X92955062Y-109699910D01*
X93050565Y-109725500D01*
X93050567Y-109725500D01*
X93149434Y-109725500D01*
X93149435Y-109725500D01*
X93193648Y-109713653D01*
X93254750Y-109716854D01*
X93289276Y-109739275D01*
X93300000Y-109749999D01*
X93300000Y-109750000D01*
X93300001Y-109750000D01*
X93666922Y-109750000D01*
X93725113Y-109768907D01*
X93761077Y-109818407D01*
X93762549Y-109823377D01*
X93773498Y-109864241D01*
X93817123Y-109939800D01*
X93829515Y-109961263D01*
X93908737Y-110040485D01*
X93941079Y-110059157D01*
X94005759Y-110096501D01*
X94005757Y-110096501D01*
X94005761Y-110096502D01*
X94005763Y-110096503D01*
X94113982Y-110125500D01*
X94113994Y-110125500D01*
X94114459Y-110125562D01*
X94114771Y-110125711D01*
X94120250Y-110127179D01*
X94119978Y-110128194D01*
X94169685Y-110151900D01*
X94197502Y-110203126D01*
X94197821Y-110203041D01*
X94198176Y-110204368D01*
X94198883Y-110205669D01*
X94199401Y-110208940D01*
X94230202Y-110323890D01*
X94289507Y-110426608D01*
X94289509Y-110426610D01*
X94289511Y-110426613D01*
X94373387Y-110510489D01*
X94373389Y-110510490D01*
X94373391Y-110510492D01*
X94476110Y-110569797D01*
X94476111Y-110569797D01*
X94476114Y-110569799D01*
X94590691Y-110600500D01*
X94590693Y-110600500D01*
X94709307Y-110600500D01*
X94709309Y-110600500D01*
X94823886Y-110569799D01*
X94823888Y-110569797D01*
X94823890Y-110569797D01*
X94926608Y-110510492D01*
X94926608Y-110510491D01*
X94926613Y-110510489D01*
X94929998Y-110507103D01*
X94984513Y-110479328D01*
X95044945Y-110488899D01*
X95070000Y-110507102D01*
X95073387Y-110510489D01*
X95073389Y-110510490D01*
X95073391Y-110510492D01*
X95176110Y-110569797D01*
X95176111Y-110569797D01*
X95176114Y-110569799D01*
X95290691Y-110600500D01*
X95290693Y-110600500D01*
X95409307Y-110600500D01*
X95409309Y-110600500D01*
X95523886Y-110569799D01*
X95523888Y-110569797D01*
X95523890Y-110569797D01*
X95626608Y-110510492D01*
X95626608Y-110510491D01*
X95626613Y-110510489D01*
X95704998Y-110432103D01*
X95759513Y-110404328D01*
X95819945Y-110413899D01*
X95845000Y-110432102D01*
X95923387Y-110510489D01*
X95923389Y-110510490D01*
X95923391Y-110510492D01*
X96026110Y-110569797D01*
X96026111Y-110569797D01*
X96026114Y-110569799D01*
X96140691Y-110600500D01*
X96140693Y-110600500D01*
X96259307Y-110600500D01*
X96259309Y-110600500D01*
X96373886Y-110569799D01*
X96373888Y-110569797D01*
X96373890Y-110569797D01*
X96476608Y-110510492D01*
X96476608Y-110510491D01*
X96476613Y-110510489D01*
X96560489Y-110426613D01*
X96560492Y-110426608D01*
X96619797Y-110323890D01*
X96619797Y-110323888D01*
X96619799Y-110323886D01*
X96650500Y-110209309D01*
X96650500Y-110090691D01*
X96619799Y-109976114D01*
X96619797Y-109976111D01*
X96619797Y-109976109D01*
X96574989Y-109898500D01*
X96562267Y-109838652D01*
X96587153Y-109782756D01*
X96640141Y-109752163D01*
X96660725Y-109750000D01*
X96937244Y-109750000D01*
X96995435Y-109768907D01*
X97007247Y-109778995D01*
X97038737Y-109810485D01*
X97061067Y-109823377D01*
X97135759Y-109866501D01*
X97135757Y-109866501D01*
X97135761Y-109866502D01*
X97135763Y-109866503D01*
X97243982Y-109895500D01*
X97243984Y-109895500D01*
X97356016Y-109895500D01*
X97356018Y-109895500D01*
X97464237Y-109866503D01*
X97464239Y-109866501D01*
X97464241Y-109866501D01*
X97493064Y-109849859D01*
X97561263Y-109810485D01*
X97640485Y-109731263D01*
X97679859Y-109663064D01*
X97696501Y-109634241D01*
X97696501Y-109634239D01*
X97696503Y-109634237D01*
X97725500Y-109526018D01*
X97725500Y-109413982D01*
X97701556Y-109324621D01*
X97704759Y-109263521D01*
X97743264Y-109215972D01*
X97797183Y-109200000D01*
X98625500Y-109200000D01*
X98683691Y-109218907D01*
G37*
%TD.AperFunction*%
%TD*%
M02*
