%TF.GenerationSoftware,KiCad,Pcbnew,10.0.6-10.0.6~ubuntu24.04.1*%
%TF.CreationDate,2026-09-29T02:57:08+00:00*%
%TF.ProjectId,ridge3-esc,72696467-6533-42d6-9573-632e6b696361,1.0*%
%TF.SameCoordinates,Original*%
%TF.FileFunction,Copper,L3,Inr*%
%TF.FilePolarity,Positive*%
%FSLAX46Y46*%
G04 Gerber Fmt 4.6, Leading zero omitted, Abs format (unit mm)*
G04 Created by KiCad (PCBNEW 10.0.6-10.0.6~ubuntu24.04.1) date 2026-09-29 02:57:08*
%MOMM*%
%LPD*%
G01*
G04 APERTURE LIST*
%TA.AperFunction,ComponentPad*%
%ADD10C,3.000000*%
%TD*%
%TA.AperFunction,ViaPad*%
%ADD11C,0.250000*%
%TD*%
%TA.AperFunction,ViaPad*%
%ADD12C,0.350000*%
%TD*%
%TA.AperFunction,ViaPad*%
%ADD13C,0.500000*%
%TD*%
%TA.AperFunction,ViaPad*%
%ADD14C,0.450000*%
%TD*%
%TA.AperFunction,Conductor*%
%ADD15C,0.100000*%
%TD*%
%TA.AperFunction,Conductor*%
%ADD16C,0.120000*%
%TD*%
%TA.AperFunction,Conductor*%
%ADD17C,0.150000*%
%TD*%
%TA.AperFunction,Conductor*%
%ADD18C,0.200000*%
%TD*%
G04 APERTURE END LIST*
D10*
%TO.N,VBAT*%
%TO.C,P_BAT+*%
X90500000Y-116100000D03*
%TD*%
%TO.N,GND*%
%TO.C,P_BAT-*%
X109500000Y-116100000D03*
%TD*%
D11*
%TO.N,M2_SWCLK*%
X109212489Y-99120000D03*
%TO.N,M4_CMP_B*%
X99695000Y-91800000D03*
D12*
X96979800Y-82698200D03*
D11*
X97500000Y-85175000D03*
D12*
X90990000Y-93225000D03*
%TO.N,M4_NEUTRAL*%
X95090000Y-94795000D03*
D11*
X95545000Y-93800000D03*
D13*
%TO.N,M1_B*%
X100800000Y-115100000D03*
X100000000Y-114300000D03*
X99200000Y-115900000D03*
D11*
X97560000Y-109195000D03*
D13*
X99200000Y-115100000D03*
X100000000Y-115100000D03*
X99200000Y-114300000D03*
D12*
X97075000Y-116525000D03*
D13*
X100800000Y-115900000D03*
X100000000Y-115900000D03*
D11*
%TO.N,M3_BSTA*%
X92050000Y-95315000D03*
D13*
%TO.N,M3_A*%
X84100000Y-94200000D03*
X84900000Y-95000000D03*
X84100000Y-95800000D03*
X85700000Y-94200000D03*
D11*
X90805000Y-96060000D03*
D13*
X84900000Y-94200000D03*
X84100000Y-95000000D03*
X84900000Y-95800000D03*
X85700000Y-95000000D03*
D11*
%TO.N,M3_GHA_D*%
X91550000Y-95315000D03*
%TO.N,M1_SWDIO*%
X101380000Y-109274999D03*
D13*
%TO.N,M2_C*%
X115100000Y-94200000D03*
D12*
X117015000Y-101907000D03*
D13*
X115900000Y-94200000D03*
D11*
X108450000Y-100695000D03*
D13*
X115100000Y-95800000D03*
X114300000Y-95000000D03*
X114300000Y-95800000D03*
X115100000Y-95000000D03*
X115900000Y-95000000D03*
X115900000Y-95800000D03*
D11*
%TO.N,+3V3*%
X101880000Y-105125000D03*
D12*
X94476900Y-90819200D03*
X115220000Y-110079700D03*
X105523000Y-109181000D03*
D11*
X98120000Y-94875000D03*
D12*
X109181000Y-94476900D03*
D11*
X105125000Y-98120000D03*
X94875000Y-101880000D03*
D12*
X98988200Y-105482700D03*
X99833400Y-100592200D03*
X90819200Y-105523000D03*
D13*
%TO.N,GND*%
X107600000Y-93950000D03*
D14*
X91635000Y-102880000D03*
X103220000Y-101250000D03*
X100285000Y-95655000D03*
D13*
X108400000Y-93950000D03*
D14*
X92050000Y-98060000D03*
X107950000Y-101940000D03*
X102145000Y-97450000D03*
X96780000Y-98750000D03*
D13*
X93149999Y-91600000D03*
D14*
X96560000Y-107950000D03*
X105292000Y-93832800D03*
X94707500Y-106167000D03*
X92050000Y-96560000D03*
X96780000Y-101850000D03*
X102880000Y-108365000D03*
X90491500Y-94828500D03*
D13*
X108400000Y-93149999D03*
X106050000Y-108400000D03*
D14*
X104599000Y-97440100D03*
X110785000Y-107520000D03*
X106450000Y-103440000D03*
X116150000Y-110022000D03*
X107520000Y-89215000D03*
X108365000Y-97120000D03*
X98060000Y-107950000D03*
X97165000Y-102740000D03*
X97550000Y-103220000D03*
X98150000Y-96780000D03*
D13*
X92400000Y-106050000D03*
D14*
X102450000Y-96780000D03*
X102829000Y-104199000D03*
D13*
X91600000Y-106850000D03*
D14*
X96342500Y-99845300D03*
X95401300Y-102560000D03*
D13*
X93950000Y-92400000D03*
D14*
X97120000Y-91635000D03*
X102892000Y-101883000D03*
X91750000Y-91800000D03*
D13*
X91600000Y-106050000D03*
D14*
X91800000Y-108250000D03*
X93550000Y-98060000D03*
X101940000Y-92050000D03*
X93550000Y-96560000D03*
X96780000Y-97550000D03*
X92480000Y-110785000D03*
X107950000Y-103440000D03*
X93832800Y-94707500D03*
X106525000Y-96495000D03*
X96560000Y-106450000D03*
X103440000Y-92050000D03*
X103595000Y-106575000D03*
X106167000Y-105292000D03*
X103440000Y-93550000D03*
X97440100Y-95401300D03*
X89215000Y-92480000D03*
X97745000Y-96475000D03*
D13*
X93950000Y-91600000D03*
D14*
X102757000Y-97686800D03*
X109509000Y-105171000D03*
X106450000Y-101940000D03*
X107909000Y-116500000D03*
X99558100Y-97769900D03*
D13*
X106850000Y-108400000D03*
D14*
X101940000Y-93550000D03*
X97545000Y-97625000D03*
X108200000Y-91750000D03*
X101250000Y-96780000D03*
X100297000Y-101837000D03*
X103595000Y-97025000D03*
X105171000Y-90491500D03*
X98060000Y-106450000D03*
X108250000Y-108200000D03*
X102560000Y-105941000D03*
X94828500Y-109509000D03*
D13*
X106050000Y-107600000D03*
%TO.N,M3_B*%
X84100000Y-99200000D03*
X84100000Y-100800000D03*
X84900000Y-100800000D03*
D11*
X90805000Y-97560000D03*
D13*
X84900000Y-100000000D03*
X85700000Y-100000000D03*
X84900000Y-99200000D03*
X85700000Y-99200000D03*
X84100000Y-100000000D03*
D12*
X83475000Y-97075000D03*
D13*
%TO.N,VBAT*%
X100950000Y-110300000D03*
X100950000Y-112000000D03*
X110300000Y-94050000D03*
X105100000Y-112000000D03*
X88000000Y-100950000D03*
X88900000Y-100950000D03*
X88000000Y-105100000D03*
X112000000Y-94050000D03*
X110300000Y-104050000D03*
X88900000Y-105950000D03*
X112000000Y-104900000D03*
D14*
X98165000Y-104615000D03*
D13*
X112000000Y-94900000D03*
X88000000Y-95100000D03*
X100950000Y-111100000D03*
X105950000Y-112000000D03*
D14*
X100265000Y-104810000D03*
D13*
X94900000Y-88000000D03*
D14*
X96500000Y-103060000D03*
D13*
X95100000Y-112000000D03*
X88000000Y-95950000D03*
X112000000Y-104050000D03*
X99050000Y-88900000D03*
X95950000Y-112000000D03*
X94050000Y-88000000D03*
X95950000Y-110300000D03*
X111100000Y-99050000D03*
X104050000Y-88900000D03*
X94050000Y-89700000D03*
X111100000Y-104050000D03*
X88900000Y-95950000D03*
X89700000Y-95950000D03*
X99050000Y-89700000D03*
X99050000Y-88000000D03*
X88000000Y-100100000D03*
X104900000Y-88000000D03*
X104050000Y-89700000D03*
X105950000Y-111100000D03*
X104050000Y-88000000D03*
D14*
X95110000Y-99051600D03*
D13*
X89700000Y-100950000D03*
X94050000Y-88900000D03*
X88000000Y-105950000D03*
X112000000Y-99900000D03*
X111100000Y-94050000D03*
X99900000Y-88000000D03*
X89700000Y-105950000D03*
X112000000Y-99050000D03*
X110300000Y-99050000D03*
X100100000Y-112000000D03*
X95950000Y-111100000D03*
X105950000Y-110300000D03*
D14*
X98752100Y-97830500D03*
D13*
%TO.N,M4_C*%
X95000000Y-84900000D03*
X95000000Y-84100000D03*
X95800000Y-84900000D03*
X94200000Y-84900000D03*
X95800000Y-85700000D03*
X95800000Y-84100000D03*
D11*
X100695000Y-91550000D03*
D13*
X95000000Y-85700000D03*
D12*
X101907000Y-82984700D03*
D13*
X94200000Y-84100000D03*
D11*
%TO.N,M1_GHC_D*%
X98560000Y-109195000D03*
D12*
X98066500Y-114034000D03*
X108253000Y-113743000D03*
D11*
%TO.N,M3_SWCLK*%
X90787510Y-100880000D03*
%TO.N,M3_GHB_D*%
X90805000Y-97060000D03*
%TO.N,M4_GHB_D*%
X102940000Y-90805000D03*
D12*
%TO.N,ESC_VSENSE*%
X92325000Y-103925000D03*
X107550000Y-97775000D03*
X96625000Y-104350000D03*
X102225000Y-107550000D03*
X99600000Y-104350000D03*
X99450000Y-104775000D03*
X97775000Y-92450000D03*
X96750000Y-100325000D03*
D11*
%TO.N,M3_SWDIO*%
X90725000Y-101380000D03*
%TO.N,GVDD*%
X102440000Y-94795000D03*
D12*
X100123100Y-100221900D03*
X96503800Y-93343900D03*
D11*
X94795000Y-97560000D03*
X97560000Y-105205000D03*
D12*
X106452900Y-97919600D03*
D11*
X105205000Y-102440000D03*
D12*
%TO.N,GVDD_FB*%
X102875000Y-99150000D03*
%TO.N,GVDD_IN*%
X103675000Y-95475000D03*
X101225000Y-104450000D03*
X101850000Y-95475000D03*
D11*
%TO.N,M3_BSTC*%
X90805000Y-98060000D03*
D13*
%TO.N,M3_C*%
X84100000Y-105000000D03*
D11*
X91550000Y-99305000D03*
D13*
X84900000Y-104200000D03*
X84900000Y-105000000D03*
D12*
X82984700Y-98092900D03*
D13*
X84100000Y-105800000D03*
X85700000Y-104200000D03*
X84100000Y-104200000D03*
X85700000Y-105000000D03*
X84900000Y-105800000D03*
D11*
%TO.N,M1_BSTA*%
X95315000Y-107950000D03*
D13*
%TO.N,M1_A*%
X94200000Y-115100000D03*
X94200000Y-114300000D03*
X95000000Y-114300000D03*
X95000000Y-115900000D03*
X95000000Y-115100000D03*
X95800000Y-115100000D03*
X94200000Y-115900000D03*
X95800000Y-115900000D03*
D11*
X96060000Y-109195000D03*
D13*
%TO.N,M1_C*%
X105800000Y-115900000D03*
X104200000Y-114300000D03*
X105000000Y-114300000D03*
X104200000Y-115100000D03*
D11*
X99305000Y-108450000D03*
D13*
X105800000Y-115100000D03*
D12*
X98092900Y-117015000D03*
D13*
X104200000Y-115900000D03*
X105000000Y-115900000D03*
X105000000Y-115100000D03*
D12*
%TO.N,M4_GHC_D*%
X91746800Y-86256700D03*
X101934000Y-85966000D03*
D11*
X101440000Y-90805000D03*
D13*
%TO.N,M2_B*%
X115100000Y-100000000D03*
X115100000Y-100800000D03*
X115900000Y-99200000D03*
X114300000Y-100800000D03*
X115100000Y-99200000D03*
X115900000Y-100800000D03*
X114300000Y-100000000D03*
D11*
X109195000Y-102440000D03*
D13*
X115900000Y-100000000D03*
D12*
X116525000Y-102925000D03*
%TO.N,M3_SNSP*%
X90415000Y-108825000D03*
D11*
X94220000Y-109550000D03*
D12*
%TO.N,M3_SNSN*%
X90415000Y-107175000D03*
D11*
%TO.N,M3_IOUT*%
X94220000Y-108250000D03*
D12*
%TO.N,M4_ISENSE*%
X91890000Y-93225000D03*
X93682700Y-90554800D03*
%TO.N,M1_ISENSE*%
X106317000Y-109445000D03*
X108110000Y-106775000D03*
D11*
%TO.N,M1_SNSP*%
X109550000Y-105780000D03*
D12*
X108825000Y-109585000D03*
%TO.N,M1_SNSN*%
X107175000Y-109585000D03*
D11*
%TO.N,M1_IOUT*%
X108250000Y-105780000D03*
D13*
%TO.N,M2_A*%
X114300000Y-105000000D03*
D11*
X109195000Y-103940000D03*
D13*
X114300000Y-105800000D03*
X115900000Y-105800000D03*
X115100000Y-105000000D03*
X115900000Y-105000000D03*
X115100000Y-105800000D03*
X115900000Y-104200000D03*
X115100000Y-104200000D03*
D11*
%TO.N,M2_SNSP*%
X105780000Y-90450000D03*
D12*
X109585000Y-91175000D03*
%TO.N,M2_SNSN*%
X109585000Y-92825000D03*
D11*
%TO.N,M2_IOUT*%
X105780000Y-91750000D03*
%TO.N,M1_GHB_D*%
X97060000Y-109195000D03*
%TO.N,M4_SNSP*%
X90450000Y-94220000D03*
D12*
X91175000Y-90415000D03*
%TO.N,M4_SNSN*%
X92825000Y-90415000D03*
D11*
%TO.N,M4_IOUT*%
X91750000Y-94220000D03*
D12*
%TO.N,M3_GHC_D*%
X86256700Y-108253000D03*
X85966000Y-98066500D03*
D11*
X90805000Y-98560000D03*
%TO.N,M2_SWDIO*%
X109274999Y-98620000D03*
%TO.N,M4_BSTA*%
X104685000Y-92050000D03*
D13*
%TO.N,M4_A*%
X105000000Y-85700000D03*
X104200000Y-84100000D03*
X105800000Y-85700000D03*
D11*
X103940000Y-90805000D03*
D13*
X105800000Y-84100000D03*
X105000000Y-84900000D03*
X105800000Y-84900000D03*
X105000000Y-84100000D03*
X104200000Y-84900000D03*
D11*
%TO.N,M2_GHA_D*%
X108450000Y-104685000D03*
D12*
%TO.N,M4_NRST*%
X98080000Y-91550000D03*
D11*
%TO.N,M2_GHC_D*%
X109195000Y-101440000D03*
D12*
X113743000Y-91746800D03*
X114034000Y-101934000D03*
D11*
%TO.N,M2_BSTB*%
X109195000Y-103440000D03*
%TO.N,M4_BSTC*%
X101940000Y-90805000D03*
%TO.N,M4_SWCLK*%
X99120000Y-90787510D03*
%TO.N,M4_SWDIO*%
X98620000Y-90725000D03*
%TO.N,M1_SWCLK*%
X100880000Y-109212489D03*
D12*
%TO.N,M2_ISENSE*%
X106775000Y-91890000D03*
X109445000Y-93682700D03*
%TO.N,M1_NRST*%
X101920000Y-108450000D03*
D11*
%TO.N,M1_BSTB*%
X96560000Y-109195000D03*
D12*
%TO.N,M3_ISENSE*%
X93225000Y-108110000D03*
X90554800Y-106317000D03*
%TO.N,M2_NRST*%
X108450000Y-98080000D03*
%TO.N,BUCK_VCC*%
X100025000Y-98250000D03*
X99425000Y-96025000D03*
%TO.N,BUCK_LX*%
X99750000Y-99400000D03*
X98950000Y-96925000D03*
%TO.N,LED_PWR_A*%
X116600000Y-109275000D03*
%TO.N,M3_NRST*%
X91550000Y-101920000D03*
D11*
%TO.N,M1_BSTC*%
X98060000Y-109195000D03*
%TO.N,M4_BSTB*%
X103440000Y-90805000D03*
D13*
%TO.N,M4_B*%
X100800000Y-84100000D03*
X99200000Y-84900000D03*
X100000000Y-84100000D03*
X99200000Y-84100000D03*
X100000000Y-85700000D03*
D11*
X102440000Y-90805000D03*
D13*
X100800000Y-84900000D03*
X100000000Y-84900000D03*
X100800000Y-85700000D03*
D12*
X102925000Y-83475000D03*
D11*
%TO.N,M2_CMP_B*%
X108200000Y-99695000D03*
X114825000Y-97500000D03*
D12*
X106775000Y-90990000D03*
X117302000Y-96979800D03*
D11*
%TO.N,M2_NEUTRAL*%
X106200000Y-95545000D03*
D12*
X105205000Y-95090000D03*
D11*
%TO.N,M3_BSTB*%
X90805000Y-96560000D03*
%TO.N,M2_BSTC*%
X109195000Y-101940000D03*
D12*
%TO.N,CUR*%
X98200000Y-102675000D03*
X101050000Y-95200000D03*
X94525000Y-99125000D03*
X100450000Y-100975000D03*
X104100000Y-103900000D03*
D11*
%TO.N,M1_SIG*%
X100305000Y-107700000D03*
%TO.N,M2_SIG*%
X107700000Y-99695000D03*
D12*
%TO.N,M3_SIG*%
X94025000Y-101375000D03*
X102200000Y-102650000D03*
D11*
X92300000Y-100305000D03*
D12*
%TO.N,M4_SIG*%
X99600000Y-95025000D03*
D11*
X99695000Y-92300000D03*
D12*
X103450000Y-103050000D03*
D11*
%TO.N,M4_GHA_D*%
X104685000Y-91550000D03*
%TO.N,M1_GHA_D*%
X95315000Y-108450000D03*
D12*
%TO.N,M1_CMP_B*%
X109010000Y-106775000D03*
D11*
X100305000Y-108200000D03*
X102500000Y-114825000D03*
D12*
X103020000Y-117302000D03*
%TO.N,M1_NEUTRAL*%
X104910000Y-105205000D03*
D11*
X104455000Y-106200000D03*
%TO.N,M3_CMP_B*%
X85175000Y-102500000D03*
D12*
X82698200Y-103020000D03*
X93225000Y-109010000D03*
D11*
X91800000Y-100305000D03*
D12*
%TO.N,M3_NEUTRAL*%
X94795000Y-104910000D03*
D11*
X93800000Y-104455000D03*
%TO.N,M2_GHB_D*%
X109195000Y-102940000D03*
%TO.N,M2_BSTA*%
X107950000Y-104685000D03*
%TO.N,M2_CMP_A*%
X114825000Y-102500000D03*
D12*
X104575000Y-96750000D03*
X106775000Y-92790000D03*
D11*
X106200000Y-99695000D03*
%TO.N,M4_CMP_A*%
X99695000Y-93800000D03*
D12*
X96750000Y-95425000D03*
X92790000Y-93225000D03*
D11*
X102500000Y-85175000D03*
D12*
%TO.N,M1_CMP_A*%
X107210000Y-106775000D03*
D11*
X97500000Y-114825000D03*
D12*
X103250000Y-104575000D03*
D11*
X100305000Y-106200000D03*
%TO.N,M4_CMP_C*%
X93690000Y-93664999D03*
X92640000Y-85175000D03*
%TO.N,M2_CMP_C*%
X106335000Y-93690000D03*
X114825000Y-92640000D03*
D12*
%TO.N,M2_LC*%
X108007000Y-98548300D03*
D11*
X105205000Y-102940000D03*
D12*
%TO.N,M2_LB*%
X109200000Y-95167510D03*
D11*
X105205000Y-103440000D03*
%TO.N,M2_LA*%
X105205000Y-103940000D03*
X109212527Y-96120000D03*
%TO.N,M2_HC*%
X109274999Y-96620000D03*
X105950000Y-104685000D03*
%TO.N,M2_HB*%
X109274999Y-97620000D03*
X106450000Y-104685000D03*
%TO.N,M2_HA*%
X106950000Y-104685000D03*
X109274999Y-98120000D03*
%TO.N,M3_CMP_C*%
X93664999Y-106310000D03*
X85175000Y-107360000D03*
D12*
%TO.N,M3_LC*%
X91992700Y-101452000D03*
D11*
X94795000Y-97060000D03*
D12*
%TO.N,M3_LB*%
X90800000Y-104832489D03*
D11*
X94795000Y-96560000D03*
%TO.N,M3_LA*%
X94795000Y-96060000D03*
X90787472Y-103880000D03*
%TO.N,M3_HC*%
X90725000Y-103380000D03*
X94050000Y-95315000D03*
%TO.N,M3_HB*%
X93550000Y-95315000D03*
X90725000Y-102380000D03*
%TO.N,M3_HA*%
X93050000Y-95315000D03*
X90725000Y-101880000D03*
%TO.N,M3_CMP_A*%
X93800000Y-100305000D03*
D12*
X95425000Y-103250000D03*
D11*
X85175000Y-97500000D03*
D12*
X93225000Y-107210000D03*
D13*
%TO.N,M4_SRC*%
X102500000Y-88150000D03*
X92500000Y-88150000D03*
X91700000Y-89750000D03*
X97500000Y-88150000D03*
X91700000Y-88950000D03*
X90900000Y-88950000D03*
X90900000Y-89750000D03*
X90100000Y-89750000D03*
X107500000Y-88150000D03*
D11*
%TO.N,M1_GLA_D*%
X97500000Y-114070000D03*
X99305000Y-107950000D03*
D13*
%TO.N,M2_SRC*%
X111850000Y-102500000D03*
X111850000Y-92500000D03*
X110250000Y-91700000D03*
X111850000Y-107500000D03*
X111850000Y-97500000D03*
X111050000Y-90900000D03*
X111050000Y-91700000D03*
X110250000Y-90100000D03*
X110250000Y-90900000D03*
%TO.N,M1_SRC*%
X92500000Y-111850000D03*
X97500000Y-111850000D03*
X109900000Y-110250000D03*
X108300000Y-111050000D03*
X109100000Y-111050000D03*
X107500000Y-111850000D03*
X108300000Y-110250000D03*
X102500000Y-111850000D03*
X109100000Y-110250000D03*
D11*
%TO.N,M1_GLC_D*%
X107500000Y-114070000D03*
X99305000Y-106950000D03*
D12*
X102093000Y-116722000D03*
D13*
%TO.N,M3_SRC*%
X88150000Y-97500000D03*
X89750000Y-109100000D03*
X89750000Y-109900000D03*
X88150000Y-102500000D03*
X88950000Y-109100000D03*
X89750000Y-108300000D03*
X88150000Y-107500000D03*
X88950000Y-108300000D03*
X88150000Y-92500000D03*
D11*
%TO.N,M1_GLB_D*%
X99305000Y-107450000D03*
X102500000Y-114070000D03*
%TO.N,M1_LA*%
X103880000Y-109212527D03*
X96060000Y-105205000D03*
D12*
%TO.N,M1_LB*%
X104832489Y-109200000D03*
D11*
X96560000Y-105205000D03*
%TO.N,M1_LC*%
X97060000Y-105205000D03*
D12*
X101452000Y-108007000D03*
D11*
%TO.N,M1_HA*%
X101880000Y-109274999D03*
X95315000Y-106950000D03*
%TO.N,M1_HB*%
X95315000Y-106450000D03*
X102380000Y-109274999D03*
%TO.N,M1_HC*%
X103380000Y-109274999D03*
X95315000Y-105950000D03*
%TO.N,M3_GLA_D*%
X85930000Y-97500000D03*
X92050000Y-99305000D03*
%TO.N,M2_GLB_D*%
X114070000Y-97500000D03*
X107450000Y-100695000D03*
%TO.N,M2_GLC_D*%
X106950000Y-100695000D03*
D12*
X116722000Y-97906600D03*
D11*
X114070000Y-92500000D03*
%TO.N,M2_GLA_D*%
X114070000Y-102500000D03*
X107950000Y-100695000D03*
%TO.N,M4_GLB_D*%
X100695000Y-92550000D03*
X97500000Y-85930000D03*
%TO.N,M4_GLA_D*%
X100695000Y-92050000D03*
X102500000Y-85930000D03*
%TO.N,M1_CMP_C*%
X106310000Y-106335000D03*
X107360000Y-114825000D03*
%TO.N,M3_GLC_D*%
X93050000Y-99305000D03*
D12*
X83278300Y-102093000D03*
D11*
X85930000Y-107500000D03*
%TO.N,M3_GLB_D*%
X85930000Y-102500000D03*
X92550000Y-99305000D03*
D12*
%TO.N,M4_LC*%
X98548300Y-91992700D03*
D11*
X102940000Y-94795000D03*
%TO.N,M4_LB*%
X103440000Y-94795000D03*
D12*
X95167510Y-90800000D03*
D11*
%TO.N,M4_LA*%
X96120000Y-90787472D03*
X103940000Y-94795000D03*
%TO.N,M4_HC*%
X96620000Y-90725000D03*
X104685000Y-94050000D03*
%TO.N,M4_HB*%
X97620000Y-90725000D03*
X104685000Y-93550000D03*
%TO.N,M4_HA*%
X98120000Y-90725000D03*
X104685000Y-93050000D03*
D12*
%TO.N,M4_GLC_D*%
X97906600Y-83278300D03*
D11*
X92500000Y-85930000D03*
X100695000Y-93050000D03*
%TD*%
%TO.N,M4_CMP_B*%
D15*
X90990000Y-93225000D02*
X90990000Y-91315300D01*
X94653300Y-82698200D02*
X96979800Y-82698200D01*
X98986300Y-90169300D02*
X99695000Y-90878000D01*
X91377100Y-85974400D02*
X94653300Y-82698200D01*
X97929800Y-85604800D02*
X97929800Y-89204400D01*
X91377100Y-87831800D02*
X91377100Y-85974400D01*
X98894700Y-90169300D02*
X98986300Y-90169300D01*
X97929800Y-89204400D02*
X98894700Y-90169300D01*
X90990000Y-91315300D02*
X92120900Y-90184400D01*
X92120900Y-90184400D02*
X92120900Y-88575600D01*
X99695000Y-90878000D02*
X99695000Y-91800000D01*
X92120900Y-88575600D02*
X91377100Y-87831800D01*
X97500000Y-85175000D02*
X97929800Y-85604800D01*
%TO.N,M1_B*%
D16*
X97075000Y-116525000D02*
X97075000Y-114600000D01*
X97075000Y-114600000D02*
X96825000Y-114350000D01*
X97525000Y-109300000D02*
X97560000Y-109265000D01*
X96825000Y-114350000D02*
X96825000Y-110000000D01*
X97560000Y-109265000D02*
X97560000Y-109195000D01*
X96825000Y-110000000D02*
X97525000Y-109300000D01*
%TO.N,M3_A*%
X88945000Y-94200000D02*
X90805000Y-96060000D01*
X85700000Y-94200000D02*
X88945000Y-94200000D01*
%TO.N,M2_C*%
X116675000Y-101567000D02*
X117015000Y-101907000D01*
X108450000Y-100695000D02*
X113209000Y-100695000D01*
X114081000Y-101567000D02*
X116675000Y-101567000D01*
X113209000Y-100695000D02*
X114081000Y-101567000D01*
%TO.N,+3V3*%
D17*
X95304400Y-101880000D02*
X94875000Y-101880000D01*
X98988200Y-105482700D02*
X98596700Y-105091200D01*
X95904300Y-102479900D02*
X95304400Y-101880000D01*
X97971200Y-105091200D02*
X97625000Y-104745000D01*
X97625000Y-104745000D02*
X96454700Y-104745000D01*
X98596700Y-105091200D02*
X97971200Y-105091200D01*
X95904300Y-104194600D02*
X95904300Y-102479900D01*
X96454700Y-104745000D02*
X95904300Y-104194600D01*
%TO.N,M3_B*%
D16*
X85400000Y-97075000D02*
X85650000Y-96825000D01*
X83475000Y-97075000D02*
X85400000Y-97075000D01*
X90000000Y-96825000D02*
X90700000Y-97525000D01*
X85650000Y-96825000D02*
X90000000Y-96825000D01*
%TO.N,M4_C*%
X101567000Y-85919300D02*
X101567000Y-83325100D01*
X100695000Y-86791000D02*
X101567000Y-85919300D01*
X100695000Y-91550000D02*
X100695000Y-86791000D01*
X101567000Y-83325100D02*
X101907000Y-82984700D01*
%TO.N,M1_GHC_D*%
D15*
X97703800Y-114397000D02*
X98066500Y-114034000D01*
X97135900Y-114256000D02*
X97276700Y-114397000D01*
X98560000Y-109195000D02*
X98560000Y-112419000D01*
X98560000Y-112419000D02*
X97135900Y-113843000D01*
X97276700Y-114397000D02*
X97703800Y-114397000D01*
X97135900Y-113843000D02*
X97135900Y-114256000D01*
%TO.N,ESC_VSENSE*%
X97975000Y-95625000D02*
X96350000Y-97250000D01*
X103275000Y-102025000D02*
X103275000Y-102675000D01*
X97950000Y-104150000D02*
X99575000Y-104150000D01*
X100275000Y-95025000D02*
X99675000Y-95625000D01*
X103275000Y-102675000D02*
X101600000Y-104350000D01*
X96825000Y-100475000D02*
X99600000Y-103250000D01*
X101600000Y-104350000D02*
X101600000Y-104575000D01*
X96350000Y-97250000D02*
X96350000Y-99250000D01*
X96750000Y-99650000D02*
X96750000Y-100325000D01*
X99600000Y-104150000D02*
X99600000Y-104100000D01*
X107550000Y-97775000D02*
X105000000Y-100325000D01*
X101600000Y-104575000D02*
X101350000Y-104825000D01*
X96825000Y-100475000D02*
X96750000Y-100400000D01*
X96750000Y-100400000D02*
X96750000Y-100325000D01*
X99450000Y-104775000D02*
X99600000Y-104625000D01*
X97750000Y-104350000D02*
X97950000Y-104150000D01*
X102225000Y-107550000D02*
X99450000Y-104775000D01*
X97775000Y-92450000D02*
X100325000Y-95000000D01*
X99575000Y-104150000D02*
X99600000Y-104150000D01*
X99675000Y-95625000D02*
X97975000Y-95625000D01*
X96350000Y-99250000D02*
X96750000Y-99650000D01*
X96625000Y-104350000D02*
X97750000Y-104350000D01*
X100925000Y-104825000D02*
X100450000Y-104350000D01*
X104950000Y-100350000D02*
X103275000Y-102025000D01*
X99600000Y-103250000D02*
X99600000Y-104100000D01*
X101350000Y-104825000D02*
X100925000Y-104825000D01*
X99600000Y-104625000D02*
X99600000Y-104350000D01*
X100450000Y-104350000D02*
X99600000Y-104350000D01*
X99600000Y-104350000D02*
X99600000Y-104150000D01*
%TO.N,GVDD*%
D18*
X96250000Y-96188300D02*
X96250000Y-93597700D01*
X94795000Y-97560000D02*
X94878300Y-97560000D01*
X96250000Y-93597700D02*
X96503800Y-93343900D01*
X94878300Y-97560000D02*
X96250000Y-96188300D01*
%TO.N,GVDD_IN*%
X101225000Y-104450000D02*
X101225000Y-97450000D01*
X102387500Y-95987500D02*
X102387500Y-95475000D01*
X101225000Y-97450000D02*
X101950000Y-96725000D01*
X103675000Y-95475000D02*
X101850000Y-95475000D01*
X101950000Y-96725000D02*
X101950000Y-96425000D01*
X101950000Y-96425000D02*
X102825000Y-95550000D01*
%TO.N,M3_C*%
D16*
X86791000Y-99305000D02*
X85919300Y-98433300D01*
X91550000Y-99305000D02*
X86791000Y-99305000D01*
X85919300Y-98433300D02*
X83325100Y-98433300D01*
X83325100Y-98433300D02*
X82984700Y-98092900D01*
%TO.N,M1_A*%
X94200000Y-111055000D02*
X96060000Y-109195000D01*
X94200000Y-114300000D02*
X94200000Y-111055000D01*
%TO.N,M1_C*%
X99305000Y-108450000D02*
X99305000Y-113209000D01*
X98433300Y-116675000D02*
X98092900Y-117015000D01*
X98433300Y-114081000D02*
X98433300Y-116675000D01*
X99305000Y-113209000D02*
X98433300Y-114081000D01*
%TO.N,M4_GHC_D*%
D15*
X102864000Y-85744100D02*
X102723000Y-85603300D01*
X101440000Y-87581400D02*
X102864000Y-86157300D01*
X102723000Y-85603300D02*
X102296000Y-85603300D01*
X102864000Y-86157300D02*
X102864000Y-85744100D01*
X101440000Y-90805000D02*
X101440000Y-87581400D01*
X102296000Y-85603300D02*
X101934000Y-85966000D01*
%TO.N,M2_B*%
D16*
X109356200Y-102531200D02*
X109286200Y-102531200D01*
X116525000Y-102925000D02*
X114600000Y-102925000D01*
X109286200Y-102531200D02*
X109195000Y-102440000D01*
X110000000Y-103175000D02*
X109356200Y-102531200D01*
X114600000Y-102925000D02*
X114350000Y-103175000D01*
X109356200Y-102531200D02*
X109300000Y-102475000D01*
X114350000Y-103175000D02*
X110000000Y-103175000D01*
%TO.N,M3_SNSP*%
D15*
X90415000Y-108825000D02*
X91140000Y-109550000D01*
X91140000Y-109550000D02*
X94220000Y-109550000D01*
%TO.N,M4_ISENSE*%
X92517000Y-94083500D02*
X91890000Y-93456500D01*
X94054700Y-93510000D02*
X94054700Y-93770000D01*
X93371600Y-93286700D02*
X93831400Y-93286700D01*
X93741200Y-94083500D02*
X92517000Y-94083500D01*
X92684700Y-93581600D02*
X93076700Y-93581600D01*
X92435800Y-91679500D02*
X92435800Y-93332700D01*
X92435800Y-93332700D02*
X92684700Y-93581600D01*
X93682700Y-90554800D02*
X93560500Y-90554800D01*
X94054700Y-93770000D02*
X93741200Y-94083500D01*
X93560500Y-90554800D02*
X92435800Y-91679500D01*
X91890000Y-93456500D02*
X91890000Y-93225000D01*
X93076700Y-93581600D02*
X93371600Y-93286700D01*
X93831400Y-93286700D02*
X94054700Y-93510000D01*
%TO.N,M1_ISENSE*%
X106628000Y-106713000D02*
X106169000Y-106713000D01*
X107315000Y-106418000D02*
X106923000Y-106418000D01*
X107564000Y-108320000D02*
X107564000Y-106667000D01*
X106259000Y-105916000D02*
X107483000Y-105916000D01*
X107564000Y-106667000D02*
X107315000Y-106418000D01*
X106440000Y-109445000D02*
X107564000Y-108320000D01*
X105945000Y-106230000D02*
X106259000Y-105916000D01*
X106169000Y-106713000D02*
X105945000Y-106490000D01*
X106317000Y-109445000D02*
X106440000Y-109445000D01*
X105945000Y-106490000D02*
X105945000Y-106230000D01*
X106923000Y-106418000D02*
X106628000Y-106713000D01*
X108110000Y-106544000D02*
X108110000Y-106775000D01*
X107483000Y-105916000D02*
X108110000Y-106544000D01*
%TO.N,M1_SNSP*%
X109550000Y-108860000D02*
X109550000Y-105780000D01*
X108825000Y-109585000D02*
X109550000Y-108860000D01*
%TO.N,M2_A*%
D16*
X114300000Y-105800000D02*
X111055000Y-105800000D01*
X111055000Y-105800000D02*
X109195000Y-103940000D01*
%TO.N,M2_SNSP*%
D15*
X109585000Y-91175000D02*
X108860000Y-90450000D01*
X108860000Y-90450000D02*
X105780000Y-90450000D01*
%TO.N,M4_SNSP*%
X90450000Y-91140000D02*
X90450000Y-94220000D01*
X91175000Y-90415000D02*
X90450000Y-91140000D01*
%TO.N,M3_GHC_D*%
X90805000Y-98560000D02*
X87581400Y-98560000D01*
X86157300Y-97135900D02*
X85744100Y-97135900D01*
X85603300Y-97276700D02*
X85603300Y-97703800D01*
X85603300Y-97703800D02*
X85966000Y-98066500D01*
X85744100Y-97135900D02*
X85603300Y-97276700D01*
X87581400Y-98560000D02*
X86157300Y-97135900D01*
%TO.N,M4_A*%
D16*
X105800000Y-85700000D02*
X105800000Y-88945000D01*
X105800000Y-88945000D02*
X103940000Y-90805000D01*
%TO.N,M2_GHC_D*%
D15*
X112419000Y-101440000D02*
X113843000Y-102864000D01*
X114397000Y-102296000D02*
X114034000Y-101934000D01*
X114256000Y-102864000D02*
X114397000Y-102723000D01*
X109195000Y-101440000D02*
X112419000Y-101440000D01*
X113843000Y-102864000D02*
X114256000Y-102864000D01*
X114397000Y-102723000D02*
X114397000Y-102296000D01*
%TO.N,M2_ISENSE*%
X106418000Y-92684700D02*
X106418000Y-93076700D01*
X105916000Y-92517000D02*
X106544000Y-91890000D01*
X106713000Y-93831400D02*
X106490000Y-94054700D01*
X106713000Y-93371600D02*
X106713000Y-93831400D01*
X106544000Y-91890000D02*
X106775000Y-91890000D01*
X106490000Y-94054700D02*
X106230000Y-94054700D01*
X109445000Y-93560500D02*
X108320000Y-92435800D01*
X109445000Y-93682700D02*
X109445000Y-93560500D01*
X106667000Y-92435800D02*
X106418000Y-92684700D01*
X106230000Y-94054700D02*
X105916000Y-93741200D01*
X108320000Y-92435800D02*
X106667000Y-92435800D01*
X105916000Y-93741200D02*
X105916000Y-92517000D01*
X106418000Y-93076700D02*
X106713000Y-93371600D01*
%TO.N,M3_ISENSE*%
X93286700Y-106169000D02*
X93510000Y-105945000D01*
X93581600Y-106923000D02*
X93286700Y-106628000D01*
X93286700Y-106628000D02*
X93286700Y-106169000D01*
X93456500Y-108110000D02*
X93225000Y-108110000D01*
X94083500Y-106259000D02*
X94083500Y-107483000D01*
X90554800Y-106317000D02*
X90554800Y-106440000D01*
X93332700Y-107564000D02*
X93581600Y-107315000D01*
X91679500Y-107564000D02*
X93332700Y-107564000D01*
X93581600Y-107315000D02*
X93581600Y-106923000D01*
X93510000Y-105945000D02*
X93770000Y-105945000D01*
X93770000Y-105945000D02*
X94083500Y-106259000D01*
X94083500Y-107483000D02*
X93456500Y-108110000D01*
X90554800Y-106440000D02*
X91679500Y-107564000D01*
%TO.N,BUCK_VCC*%
D17*
X99425000Y-96025000D02*
X99425000Y-97000000D01*
X100025000Y-97600000D02*
X100025000Y-98250000D01*
X99425000Y-97000000D02*
X100025000Y-97600000D01*
%TO.N,M4_B*%
D16*
X103175000Y-85650000D02*
X103175000Y-90000000D01*
X102925000Y-85400000D02*
X103175000Y-85650000D01*
X102475000Y-90700000D02*
X102440000Y-90735000D01*
X102440000Y-90735000D02*
X102440000Y-90805000D01*
X102925000Y-83475000D02*
X102925000Y-85400000D01*
X103175000Y-90000000D02*
X102475000Y-90700000D01*
%TO.N,M2_CMP_B*%
D15*
X109816000Y-92120900D02*
X111424000Y-92120900D01*
X111424000Y-92120900D02*
X112168000Y-91377100D01*
X117302000Y-94653300D02*
X117302000Y-96979800D01*
X114395000Y-97929800D02*
X110796000Y-97929800D01*
X106775000Y-90990000D02*
X108685000Y-90990000D01*
X109831000Y-98986300D02*
X109122000Y-99695000D01*
X112168000Y-91377100D02*
X114026000Y-91377100D01*
X109831000Y-98894700D02*
X109831000Y-98986300D01*
X110796000Y-97929800D02*
X109831000Y-98894700D01*
X114026000Y-91377100D02*
X117302000Y-94653300D01*
X108685000Y-90990000D02*
X109816000Y-92120900D01*
X114825000Y-97500000D02*
X114395000Y-97929800D01*
X109122000Y-99695000D02*
X108200000Y-99695000D01*
%TO.N,CUR*%
X100450000Y-96950000D02*
X100450000Y-100975000D01*
X101050000Y-95200000D02*
X101050000Y-96350000D01*
X94525000Y-99125000D02*
X96800000Y-101400000D01*
X96925000Y-101400000D02*
X98200000Y-102675000D01*
X96800000Y-101400000D02*
X96925000Y-101400000D01*
X101050000Y-96350000D02*
X100450000Y-96950000D01*
%TO.N,M1_CMP_B*%
X105347000Y-117302000D02*
X103020000Y-117302000D01*
X109010000Y-106775000D02*
X109010000Y-108685000D01*
X101105000Y-109831000D02*
X101014000Y-109831000D01*
X100305000Y-109122000D02*
X100305000Y-108200000D01*
X101014000Y-109831000D02*
X100305000Y-109122000D01*
X108623000Y-112168000D02*
X108623000Y-114026000D01*
X102500000Y-114825000D02*
X102070000Y-114395000D01*
X102070000Y-110796000D02*
X101105000Y-109831000D01*
X107879000Y-111424000D02*
X108623000Y-112168000D01*
X109010000Y-108685000D02*
X107879000Y-109816000D01*
X108623000Y-114026000D02*
X105347000Y-117302000D01*
X102070000Y-114395000D02*
X102070000Y-110796000D01*
X107879000Y-109816000D02*
X107879000Y-111424000D01*
%TO.N,M3_CMP_B*%
X90169300Y-101014000D02*
X90878000Y-100305000D01*
X89204400Y-102070000D02*
X90169300Y-101105000D01*
X90169300Y-101105000D02*
X90169300Y-101014000D01*
X90184400Y-107879000D02*
X88575600Y-107879000D01*
X85974400Y-108623000D02*
X82698200Y-105347000D01*
X90878000Y-100305000D02*
X91800000Y-100305000D01*
X88575600Y-107879000D02*
X87831800Y-108623000D01*
X91315300Y-109010000D02*
X90184400Y-107879000D01*
X85604800Y-102070000D02*
X89204400Y-102070000D01*
X85175000Y-102500000D02*
X85604800Y-102070000D01*
X93225000Y-109010000D02*
X91315300Y-109010000D01*
X87831800Y-108623000D02*
X85974400Y-108623000D01*
X82698200Y-105347000D02*
X82698200Y-103020000D01*
%TO.N,M2_CMP_A*%
X106325000Y-96975000D02*
X107550000Y-96975000D01*
X117023000Y-102500000D02*
X114825000Y-102500000D01*
X107891000Y-97230600D02*
X107891000Y-98004000D01*
X117400000Y-97820000D02*
X117400000Y-102123000D01*
X107550000Y-96975000D02*
X107580500Y-96975000D01*
X111109000Y-96506000D02*
X116086000Y-96506000D01*
X107132000Y-94812800D02*
X109416000Y-94812800D01*
X116086000Y-96506000D02*
X117400000Y-97820000D01*
X106775000Y-92790000D02*
X107132000Y-93146700D01*
X107580500Y-96975000D02*
X107608000Y-96947500D01*
X117400000Y-102123000D02*
X117023000Y-102500000D01*
X107891000Y-98004000D02*
X106200000Y-99695000D01*
X104575000Y-96750000D02*
X106100000Y-96750000D01*
X106100000Y-96750000D02*
X106325000Y-96975000D01*
X107132000Y-94812800D02*
X107132000Y-96471300D01*
X109416000Y-94812800D02*
X111109000Y-96506000D01*
X107132000Y-93146700D02*
X107132000Y-94812800D01*
X107608000Y-96947500D02*
X107891000Y-97230600D01*
X107132000Y-96471300D02*
X107608000Y-96947500D01*
%TO.N,M4_CMP_A*%
X97062800Y-92276800D02*
X97062800Y-92362200D01*
X96506000Y-88890900D02*
X96506000Y-83913600D01*
X94812800Y-90584100D02*
X96506000Y-88890900D01*
X102500000Y-82976800D02*
X102500000Y-85175000D01*
X97062800Y-92276800D02*
X97230600Y-92109000D01*
X102123000Y-82599600D02*
X102500000Y-82976800D01*
X92790000Y-93225000D02*
X93146700Y-92868300D01*
X96975000Y-93675000D02*
X96975000Y-92450000D01*
X96506000Y-83913600D02*
X97820000Y-82599600D01*
X97230600Y-92109000D02*
X98004000Y-92109000D01*
X93146700Y-92868300D02*
X94812800Y-92868300D01*
X94812800Y-92868300D02*
X96471300Y-92868300D01*
X96750000Y-93900000D02*
X96975000Y-93675000D01*
X94812800Y-92868300D02*
X94812800Y-90584100D01*
X96471300Y-92868300D02*
X97062800Y-92276800D01*
X97820000Y-82599600D02*
X102123000Y-82599600D01*
X96750000Y-95425000D02*
X96750000Y-93900000D01*
X98004000Y-92109000D02*
X99695000Y-93800000D01*
X97062800Y-92362200D02*
X96975000Y-92450000D01*
%TO.N,M1_CMP_A*%
X101996000Y-107891000D02*
X100305000Y-106200000D01*
X103025000Y-106325000D02*
X103025000Y-107550000D01*
X103250000Y-104575000D02*
X103250000Y-106100000D01*
X106853000Y-107132000D02*
X105187000Y-107132000D01*
X102769000Y-107891000D02*
X101996000Y-107891000D01*
X105187000Y-107132000D02*
X103529000Y-107132000D01*
X103250000Y-106100000D02*
X103025000Y-106325000D01*
X97500000Y-117023000D02*
X97500000Y-114825000D01*
X103529000Y-107132000D02*
X103052400Y-107608000D01*
X105187000Y-107132000D02*
X105187000Y-109416000D01*
X103025000Y-107580600D02*
X103025000Y-107550000D01*
X103052400Y-107608000D02*
X103025000Y-107580600D01*
X103052400Y-107608000D02*
X102769000Y-107891000D01*
X107210000Y-106775000D02*
X106853000Y-107132000D01*
X105187000Y-109416000D02*
X103494000Y-111109000D01*
X103494000Y-116086000D02*
X102180000Y-117400000D01*
X102180000Y-117400000D02*
X97877200Y-117400000D01*
X97877200Y-117400000D02*
X97500000Y-117023000D01*
X103494000Y-111109000D02*
X103494000Y-116086000D01*
%TO.N,M4_CMP_C*%
X92232600Y-93414700D02*
X92232600Y-90357900D01*
X92076700Y-87354900D02*
X92076700Y-85738300D01*
X92272800Y-87551000D02*
X92076700Y-87354900D01*
X93690000Y-93664999D02*
X93547400Y-93807600D01*
X92901700Y-89688800D02*
X92901700Y-87983700D01*
X92469000Y-87551000D02*
X92272800Y-87551000D01*
X93547400Y-93807600D02*
X92625500Y-93807600D01*
X92625500Y-93807600D02*
X92232600Y-93414700D01*
X92901700Y-87983700D02*
X92469000Y-87551000D01*
X92076700Y-85738300D02*
X92640000Y-85175000D01*
X92232600Y-90357900D02*
X92901700Y-89688800D01*
%TO.N,M2_CMP_C*%
X112449000Y-92469000D02*
X112449000Y-92272800D01*
X109642000Y-92232600D02*
X110311000Y-92901700D01*
X106192000Y-92625500D02*
X106585000Y-92232600D01*
X110311000Y-92901700D02*
X112016000Y-92901700D01*
X106585000Y-92232600D02*
X109642000Y-92232600D01*
X106335000Y-93690000D02*
X106192000Y-93547400D01*
X112645000Y-92076700D02*
X114262000Y-92076700D01*
X112449000Y-92272800D02*
X112645000Y-92076700D01*
X114262000Y-92076700D02*
X114825000Y-92640000D01*
X106192000Y-93547400D02*
X106192000Y-92625500D01*
X112016000Y-92901700D02*
X112449000Y-92469000D01*
%TO.N,M2_LC*%
X106075000Y-100481000D02*
X108007000Y-98548300D01*
X105613000Y-101416000D02*
X106075000Y-100954000D01*
X106075000Y-100954000D02*
X106075000Y-100481000D01*
X105205000Y-102940000D02*
X105613000Y-102532000D01*
X105613000Y-102532000D02*
X105613000Y-101416000D01*
%TO.N,M2_LB*%
X109604000Y-95571600D02*
X109604000Y-96831400D01*
X106354000Y-100559000D02*
X106354000Y-101296000D01*
X105932000Y-102713000D02*
X105205000Y-103440000D01*
X108872000Y-98148400D02*
X108144000Y-98876600D01*
X109241000Y-97193600D02*
X109149000Y-97193600D01*
X109200000Y-95167510D02*
X109604000Y-95571600D01*
X108872000Y-97470300D02*
X108872000Y-98148400D01*
X106354000Y-101296000D02*
X105932000Y-101719000D01*
X108037000Y-98876600D02*
X106354000Y-100559000D01*
X108144000Y-98876600D02*
X108037000Y-98876600D01*
X109149000Y-97193600D02*
X108872000Y-97470300D01*
X109604000Y-96831400D02*
X109241000Y-97193600D01*
X105932000Y-101719000D02*
X105932000Y-102713000D01*
%TO.N,M3_CMP_C*%
X93807600Y-106453000D02*
X93807600Y-107374000D01*
X93414700Y-107767000D02*
X90357900Y-107767000D01*
X89688800Y-107098000D02*
X87983700Y-107098000D01*
X87551000Y-107727000D02*
X87354900Y-107923000D01*
X93664999Y-106310000D02*
X93807600Y-106453000D01*
X87354900Y-107923000D02*
X85738300Y-107923000D01*
X93807600Y-107374000D02*
X93414700Y-107767000D01*
X87983700Y-107098000D02*
X87551000Y-107531000D01*
X85738300Y-107923000D02*
X85175000Y-107360000D01*
X90357900Y-107767000D02*
X89688800Y-107098000D01*
X87551000Y-107531000D02*
X87551000Y-107727000D01*
%TO.N,M3_LC*%
X93925200Y-99519200D02*
X91992700Y-101452000D01*
X93925200Y-99045500D02*
X93925200Y-99519200D01*
X94386700Y-97468300D02*
X94386700Y-98584000D01*
X94386700Y-98584000D02*
X93925200Y-99045500D01*
X94795000Y-97060000D02*
X94386700Y-97468300D01*
%TO.N,M3_LB*%
X90800000Y-104832489D02*
X90396400Y-104428000D01*
X94068100Y-97286900D02*
X94795000Y-96560000D01*
X91127700Y-101852000D02*
X91855900Y-101123000D01*
X90851000Y-102806000D02*
X91127700Y-102530000D01*
X93645800Y-99441000D02*
X93645800Y-98703700D01*
X91855900Y-101123000D02*
X91963400Y-101123000D01*
X90396400Y-103169000D02*
X90758600Y-102806000D01*
X91963400Y-101123000D02*
X93645800Y-99441000D01*
X93645800Y-98703700D02*
X94068100Y-98281400D01*
X94068100Y-98281400D02*
X94068100Y-97286900D01*
X90396400Y-104428000D02*
X90396400Y-103169000D01*
X90758600Y-102806000D02*
X90851000Y-102806000D01*
X91127700Y-102530000D02*
X91127700Y-101852000D01*
%TO.N,M3_CMP_A*%
X92276800Y-102937000D02*
X92362000Y-102937000D01*
X93900000Y-103250000D02*
X93675000Y-103025000D01*
X92276800Y-102937000D02*
X92109000Y-102769000D01*
X92362000Y-102937000D02*
X92450000Y-103025000D01*
X90584100Y-105187000D02*
X88890900Y-103494000D01*
X83913600Y-103494000D02*
X82599600Y-102180000D01*
X92868300Y-106853000D02*
X92868300Y-105187000D01*
X92109000Y-102769000D02*
X92109000Y-101996000D01*
X92868300Y-105187000D02*
X90584100Y-105187000D01*
X92868300Y-105187000D02*
X92868300Y-103529000D01*
X82599600Y-97877200D02*
X82976800Y-97500000D01*
X93675000Y-103025000D02*
X92450000Y-103025000D01*
X82599600Y-102180000D02*
X82599600Y-97877200D01*
X82976800Y-97500000D02*
X85175000Y-97500000D01*
X92109000Y-101996000D02*
X93800000Y-100305000D01*
X92868300Y-103529000D02*
X92276800Y-102937000D01*
X95425000Y-103250000D02*
X93900000Y-103250000D01*
X93225000Y-107210000D02*
X92868300Y-106853000D01*
X88890900Y-103494000D02*
X83913600Y-103494000D01*
%TO.N,M1_GLA_D*%
X98941800Y-112628000D02*
X97500000Y-114070000D01*
X99305000Y-107950000D02*
X99215300Y-107950000D01*
X98941800Y-108224000D02*
X98941800Y-112628000D01*
X99215300Y-107950000D02*
X98941800Y-108224000D01*
%TO.N,M1_GLC_D*%
X102093000Y-116722000D02*
X101702000Y-116331000D01*
X101156000Y-111550000D02*
X100749000Y-111550000D01*
X99910000Y-110711000D02*
X99910000Y-107555000D01*
X99910000Y-107555000D02*
X99305000Y-106950000D01*
X101702000Y-116331000D02*
X101702000Y-112097000D01*
X100749000Y-111550000D02*
X99910000Y-110711000D01*
X101702000Y-112097000D02*
X101156000Y-111550000D01*
%TO.N,M1_GLB_D*%
X101972000Y-117065000D02*
X101232000Y-116325000D01*
X99669800Y-107815000D02*
X99305000Y-107450000D01*
X101232000Y-114921000D02*
X99608100Y-113298000D01*
X102876000Y-114446000D02*
X102876000Y-116408000D01*
X99608100Y-111746000D02*
X99669800Y-111684000D01*
X102219000Y-117065000D02*
X101972000Y-117065000D01*
X99669800Y-111684000D02*
X99669800Y-107815000D01*
X101232000Y-116325000D02*
X101232000Y-114921000D01*
X102500000Y-114070000D02*
X102876000Y-114446000D01*
X102876000Y-116408000D02*
X102219000Y-117065000D01*
X99608100Y-113298000D02*
X99608100Y-111746000D01*
%TO.N,M1_LB*%
X97286900Y-105932000D02*
X96560000Y-105205000D01*
X99441000Y-106354000D02*
X98703700Y-106354000D01*
X103169000Y-109604000D02*
X102806000Y-109241000D01*
X104428000Y-109604000D02*
X103169000Y-109604000D01*
X104832489Y-109200000D02*
X104428000Y-109604000D01*
X101123000Y-108144000D02*
X101123000Y-108037000D01*
X101123000Y-108037000D02*
X99441000Y-106354000D01*
X102806000Y-109241000D02*
X102806000Y-109149000D01*
X102530000Y-108872000D02*
X101852000Y-108872000D01*
X98281400Y-105932000D02*
X97286900Y-105932000D01*
X102806000Y-109149000D02*
X102530000Y-108872000D01*
X98703700Y-106354000D02*
X98281400Y-105932000D01*
X101852000Y-108872000D02*
X101123000Y-108144000D01*
%TO.N,M1_LC*%
X98584000Y-105613000D02*
X99045500Y-106075000D01*
X97468300Y-105613000D02*
X98584000Y-105613000D01*
X97060000Y-105205000D02*
X97468300Y-105613000D01*
X99519200Y-106075000D02*
X101452000Y-108007000D01*
X99045500Y-106075000D02*
X99519200Y-106075000D01*
%TO.N,M3_GLA_D*%
X92050000Y-99305000D02*
X92050000Y-99215300D01*
X92050000Y-99215300D02*
X91776500Y-98941800D01*
X91776500Y-98941800D02*
X87371800Y-98941800D01*
X87371800Y-98941800D02*
X85930000Y-97500000D01*
%TO.N,M2_GLB_D*%
X114070000Y-97500000D02*
X114446000Y-97123900D01*
X114446000Y-97123900D02*
X116408000Y-97123900D01*
X107815000Y-100330000D02*
X107450000Y-100695000D01*
X116408000Y-97123900D02*
X117065000Y-97781100D01*
X114921000Y-98768300D02*
X113298000Y-100392000D01*
X117065000Y-97781100D02*
X117065000Y-98028200D01*
X117065000Y-98028200D02*
X116325000Y-98768300D01*
X113298000Y-100392000D02*
X111746000Y-100392000D01*
X111684000Y-100330000D02*
X107815000Y-100330000D01*
X111746000Y-100392000D02*
X111684000Y-100330000D01*
X116325000Y-98768300D02*
X114921000Y-98768300D01*
%TO.N,M2_GLC_D*%
X107555000Y-100090000D02*
X106950000Y-100695000D01*
X111550000Y-98844200D02*
X111550000Y-99250900D01*
X110711000Y-100090000D02*
X107555000Y-100090000D01*
X111550000Y-99250900D02*
X110711000Y-100090000D01*
X112097000Y-98297500D02*
X111550000Y-98844200D01*
X116722000Y-97906600D02*
X116331000Y-98297500D01*
X116331000Y-98297500D02*
X112097000Y-98297500D01*
%TO.N,M2_GLA_D*%
X108224000Y-101058000D02*
X112628000Y-101058000D01*
X107950000Y-100785000D02*
X108224000Y-101058000D01*
X107950000Y-100695000D02*
X107950000Y-100785000D01*
X112628000Y-101058000D02*
X114070000Y-102500000D01*
%TO.N,M4_GLB_D*%
X97123900Y-83592000D02*
X97781100Y-82934800D01*
X100392000Y-88254100D02*
X100330000Y-88315800D01*
X97781100Y-82934800D02*
X98028200Y-82934800D01*
X100330000Y-92185200D02*
X100695000Y-92550000D01*
X98768300Y-83674900D02*
X98768300Y-85078900D01*
X100392000Y-86702500D02*
X100392000Y-88254100D01*
X97123900Y-85553900D02*
X97123900Y-83592000D01*
X100330000Y-88315800D02*
X100330000Y-92185200D01*
X98028200Y-82934800D02*
X98768300Y-83674900D01*
X98768300Y-85078900D02*
X100392000Y-86702500D01*
X97500000Y-85930000D02*
X97123900Y-85553900D01*
%TO.N,M4_GLA_D*%
X101058000Y-91776500D02*
X101058000Y-87371800D01*
X100695000Y-92050000D02*
X100785000Y-92050000D01*
X100785000Y-92050000D02*
X101058000Y-91776500D01*
X101058000Y-87371800D02*
X102500000Y-85930000D01*
%TO.N,M1_CMP_C*%
X107767000Y-106585000D02*
X107767000Y-109642000D01*
X106453000Y-106192000D02*
X107374000Y-106192000D01*
X106310000Y-106335000D02*
X106453000Y-106192000D01*
X107767000Y-109642000D02*
X107098000Y-110311000D01*
X107374000Y-106192000D02*
X107767000Y-106585000D01*
X107727000Y-112449000D02*
X107923000Y-112645000D01*
X107923000Y-112645000D02*
X107923000Y-114262000D01*
X107923000Y-114262000D02*
X107360000Y-114825000D01*
X107098000Y-112016000D02*
X107531000Y-112449000D01*
X107531000Y-112449000D02*
X107727000Y-112449000D01*
X107098000Y-110311000D02*
X107098000Y-112016000D01*
%TO.N,M3_GLC_D*%
X89289100Y-99910000D02*
X92445000Y-99910000D01*
X92445000Y-99910000D02*
X93050000Y-99305000D01*
X88450000Y-100749000D02*
X89289100Y-99910000D01*
X88450000Y-101156000D02*
X88450000Y-100749000D01*
X83669200Y-101702000D02*
X87903300Y-101702000D01*
X83278300Y-102093000D02*
X83669200Y-101702000D01*
X87903300Y-101702000D02*
X88450000Y-101156000D01*
%TO.N,M3_GLB_D*%
X88254100Y-99608100D02*
X88315800Y-99669800D01*
X86702500Y-99608100D02*
X88254100Y-99608100D01*
X83592000Y-102876000D02*
X82934800Y-102219000D01*
X85553900Y-102876000D02*
X83592000Y-102876000D01*
X82934800Y-101972000D02*
X83674900Y-101232000D01*
X82934800Y-102219000D02*
X82934800Y-101972000D01*
X92185200Y-99669800D02*
X92550000Y-99305000D01*
X85930000Y-102500000D02*
X85553900Y-102876000D01*
X83674900Y-101232000D02*
X85078900Y-101232000D01*
X88315800Y-99669800D02*
X92185200Y-99669800D01*
X85078900Y-101232000D02*
X86702500Y-99608100D01*
%TO.N,M4_LC*%
X102940000Y-94795000D02*
X102532000Y-94386700D01*
X102532000Y-94386700D02*
X101416000Y-94386700D01*
X101416000Y-94386700D02*
X100954000Y-93925200D01*
X100954000Y-93925200D02*
X100481000Y-93925200D01*
X100481000Y-93925200D02*
X98548300Y-91992700D01*
%TO.N,M4_LB*%
X101296000Y-93645800D02*
X101719000Y-94068100D01*
X96831400Y-90396400D02*
X97193600Y-90758600D01*
X95571600Y-90396400D02*
X96831400Y-90396400D01*
X98876600Y-91855900D02*
X98876600Y-91963400D01*
X97193600Y-90851000D02*
X97470300Y-91127700D01*
X98148400Y-91127700D02*
X98876600Y-91855900D01*
X97470300Y-91127700D02*
X98148400Y-91127700D01*
X101719000Y-94068100D02*
X102713000Y-94068100D01*
X100559000Y-93645800D02*
X101296000Y-93645800D01*
X102713000Y-94068100D02*
X103440000Y-94795000D01*
X95167510Y-90800000D02*
X95571600Y-90396400D01*
X97193600Y-90758600D02*
X97193600Y-90851000D01*
X98876600Y-91963400D02*
X100559000Y-93645800D01*
%TO.N,M4_GLC_D*%
X98844200Y-88450000D02*
X99250900Y-88450000D01*
X99250900Y-88450000D02*
X100090000Y-89289100D01*
X100090000Y-89289100D02*
X100090000Y-92445000D01*
X100090000Y-92445000D02*
X100695000Y-93050000D01*
X97906600Y-83278300D02*
X98297500Y-83669200D01*
X98297500Y-83669200D02*
X98297500Y-87903300D01*
X98297500Y-87903300D02*
X98844200Y-88450000D01*
%TD*%
M02*
