M48
; DRILL file KiCad 10.0.6-10.0.6~ubuntu24.04.1 date 2026-10-02T08:50:25
; FORMAT={-:-/ absolute / metric / decimal}
; #@! TF.CreationDate,2026-10-02T08:50:25+00:00
; #@! TF.GenerationSoftware,Kicad,Pcbnew,10.0.6-10.0.6~ubuntu24.04.1
; #@! TF.FileFunction,Plated,1,8,PTH
FMAT,2
METRIC
; #@! TA.AperFunction,Plated,PTH,ViaDrill
T1C0.150
; #@! TA.AperFunction,Plated,PTH,ViaDrill
T2C0.250
; #@! TA.AperFunction,Plated,PTH,ViaDrill
T3C0.300
; #@! TA.AperFunction,Plated,PTH,ComponentDrill
T4C1.800
%
G90
G05
T1
X85.419Y-102.325
X85.6Y-92.625
X86.25Y-96.95
X86.25Y-101.95
X86.25Y-106.95
X86.75Y-96.95
X86.75Y-101.95
X86.75Y-106.95
X88.475Y-92.225
X89.025Y-93.085
X89.6Y-90.15
X90.15Y-107.05
X90.15Y-110.4
X90.265Y-101.8
X90.625Y-93.1
X90.675Y-95.025
X90.705Y-98.55
X90.705Y-99.05
X90.705Y-99.55
X90.705Y-100.05
X90.705Y-101.05
X91.05Y-103.275
X91.095Y-100.55
X91.095Y-101.55
X91.18Y-95.57
X91.26Y-105.8
X91.45Y-96.0
X91.525Y-91.875
X91.62Y-94.37
X91.625Y-106.375
X91.875Y-108.475
X92.15Y-106.6
X92.2Y-96.59
X92.225Y-111.525
X92.59Y-105.4
X92.59Y-106.2
X92.6Y-96.15
X92.625Y-114.4
X92.65Y-97.605
X92.65Y-102.995
X92.725Y-109.025
X92.925Y-104.75
X92.95Y-90.15
X93.0Y-96.59
X93.05Y-86.25
X93.05Y-86.75
X93.075Y-91.1
X93.085Y-110.975
X93.15Y-102.995
X93.4Y-92.15
X93.4Y-96.15
X93.57Y-104.82
X93.625Y-91.625
X93.8Y-92.59
X93.8Y-96.59
X93.97Y-104.38
X94.2Y-91.26
X94.37Y-104.82
X94.37Y-108.38
X94.6Y-92.59
X94.6Y-96.59
X94.65Y-103.435
X94.77Y-104.38
X95.025Y-109.325
X95.15Y-97.605
X95.15Y-102.995
X95.17Y-104.82
X95.18Y-93.57
X95.18Y-94.37
X95.18Y-95.17
X95.2Y-96.0
X95.2Y-96.725
X95.25Y-92.925
X95.57Y-104.38
X95.57Y-108.82
X95.62Y-93.97
X95.62Y-94.77
X95.62Y-95.57
X96.0Y-104.8
X96.0Y-108.55
X96.095Y-98.55
X96.095Y-99.05
X96.095Y-99.55
X96.095Y-100.05
X96.095Y-100.55
X96.095Y-101.05
X96.095Y-102.05
X96.15Y-106.6
X96.15Y-107.4
X96.565Y-94.65
X96.59Y-105.4
X96.59Y-106.2
X96.59Y-107.0
X96.59Y-107.8
X96.725Y-91.05
X96.725Y-104.8
X96.95Y-113.25
X96.95Y-113.75
X97.005Y-92.65
X97.005Y-93.15
X97.005Y-95.15
X97.008Y-85.418
X97.25Y-103.9
X97.575Y-101.4
X97.6Y-98.7
X97.605Y-104.85
X97.605Y-107.35
X97.65Y-97.55
X97.85Y-98.275
X97.95Y-96.095
X98.05Y-86.25
X98.05Y-86.75
X98.2Y-90.265
X98.45Y-91.095
X98.55Y-103.905
X98.55Y-109.295
X98.95Y-90.705
X98.95Y-96.095
X99.05Y-103.905
X99.05Y-109.295
X99.45Y-91.095
X99.45Y-96.095
X99.55Y-103.905
X99.55Y-109.295
X99.6Y-97.3
X99.8Y-98.05
X99.95Y-90.705
X99.95Y-96.095
X100.05Y-103.905
X100.05Y-109.295
X100.125Y-103.125
X100.3Y-100.35
X100.45Y-90.705
X100.45Y-96.095
X100.55Y-103.905
X100.55Y-108.905
X100.875Y-97.5
X100.95Y-90.705
X100.95Y-96.095
X101.05Y-103.905
X101.05Y-109.295
X101.45Y-90.705
X101.45Y-96.095
X101.55Y-108.905
X101.8Y-109.735
X101.95Y-113.25
X101.95Y-113.75
X102.05Y-103.905
X102.075Y-100.5
X102.35Y-96.625
X102.395Y-92.65
X102.395Y-95.15
X102.875Y-97.925
X102.9Y-98.7
X102.995Y-104.85
X102.995Y-106.85
X102.995Y-107.35
X103.05Y-86.25
X103.05Y-86.75
X103.125Y-101.0
X103.25Y-103.775
X103.275Y-95.2
X103.275Y-108.95
X103.41Y-92.2
X103.41Y-93.0
X103.41Y-93.8
X103.41Y-94.6
X103.435Y-105.35
X103.55Y-104.825
X103.85Y-92.6
X103.85Y-93.4
X103.905Y-97.95
X103.905Y-98.95
X103.905Y-99.45
X103.905Y-99.95
X103.905Y-100.45
X103.905Y-100.95
X103.905Y-101.45
X104.0Y-91.45
X104.0Y-95.2
X104.38Y-104.43
X104.38Y-105.23
X104.38Y-106.03
X104.38Y-106.83
X104.43Y-91.18
X104.43Y-95.62
X104.75Y-107.075
X104.8Y-103.275
X104.8Y-104.0
X104.82Y-104.83
X104.82Y-105.63
X104.82Y-106.43
X104.83Y-95.18
X104.85Y-97.005
X104.85Y-102.395
X104.975Y-90.675
X105.23Y-95.62
X105.35Y-96.565
X105.4Y-103.41
X105.4Y-107.41
X105.63Y-91.62
X105.63Y-95.18
X105.8Y-108.74
X106.03Y-95.62
X106.2Y-103.41
X106.2Y-107.41
X106.375Y-108.375
X106.43Y-95.18
X106.6Y-103.85
X106.6Y-107.85
X106.85Y-97.005
X106.875Y-90.625
X106.9Y-108.875
X106.915Y-89.025
X106.95Y-113.25
X106.95Y-113.75
X107.0Y-103.41
X107.05Y-109.85
X107.075Y-95.25
X107.35Y-97.005
X107.35Y-102.395
X107.375Y-85.6
X107.4Y-103.85
X107.41Y-93.8
X107.41Y-94.6
X107.775Y-88.475
X107.8Y-103.41
X107.85Y-93.4
X107.883Y-109.677
X108.125Y-91.525
X108.375Y-93.625
X108.38Y-105.63
X108.475Y-108.125
X108.55Y-104.0
X108.74Y-94.2
X108.82Y-104.43
X108.905Y-98.45
X108.905Y-99.45
X108.95Y-96.725
X109.175Y-91.95
X109.295Y-98.95
X109.295Y-99.95
X109.295Y-100.45
X109.295Y-100.95
X109.295Y-101.45
X109.325Y-104.975
X109.35Y-106.875
X109.735Y-98.2
X109.85Y-89.6
X109.85Y-92.95
X110.4Y-109.85
X110.975Y-106.915
X111.525Y-107.775
X113.25Y-93.05
X113.25Y-98.05
X113.25Y-103.05
X113.75Y-93.05
X113.75Y-98.05
X113.75Y-103.05
X114.4Y-107.375
X114.582Y-97.675
X115.268Y-92.098
X117.039Y-107.092
T2
X90.215Y-109.72
X90.28Y-90.215
X90.3Y-94.17
X90.53Y-97.3
X90.55Y-96.11
X91.85Y-107.87
X92.0Y-104.77
X92.13Y-91.85
X92.65Y-98.62
X92.73Y-101.47
X93.15Y-93.735
X93.4Y-100.3
X93.735Y-106.85
X93.9Y-99.8
X94.05Y-102.625
X94.17Y-109.7
X94.6Y-94.92
X94.92Y-105.4
X95.05Y-99.075
X95.23Y-92.0
X96.11Y-109.45
X96.738Y-98.783
X96.855Y-97.125
X97.3Y-109.47
X97.375Y-94.05
X97.445Y-102.57
X97.845Y-99.545
X98.095Y-96.85
X98.445Y-101.995
X98.52Y-101.345
X98.53Y-92.73
X98.62Y-107.35
X98.73Y-98.12
X98.945Y-102.57
X99.075Y-104.95
X99.365Y-96.85
X99.7Y-93.4
X99.8Y-106.1
X100.2Y-93.9
X100.3Y-106.6
X100.925Y-95.05
X101.045Y-99.62
X101.27Y-98.12
X101.38Y-92.65
X101.47Y-101.345
X101.47Y-107.27
X102.545Y-102.57
X102.625Y-105.95
X102.7Y-90.53
X102.885Y-99.505
X103.165Y-101.635
X103.205Y-97.125
X103.643Y-102.337
X103.89Y-90.55
X104.77Y-108.0
X104.95Y-100.925
X105.08Y-94.6
X105.4Y-105.08
X105.83Y-90.3
X105.95Y-97.375
X106.1Y-100.2
X106.265Y-93.15
X106.6Y-99.7
X106.85Y-106.265
X107.27Y-98.53
X107.35Y-101.38
X107.87Y-108.15
X108.0Y-95.23
X108.15Y-92.13
X109.45Y-103.89
X109.47Y-102.7
X109.7Y-105.83
X109.72Y-109.785
X109.785Y-90.28
T3
X83.75Y-94.2
X83.75Y-95.0
X83.75Y-95.8
X83.75Y-99.2
X83.75Y-100.0
X83.75Y-100.8
X83.75Y-104.2
X83.75Y-105.0
X83.75Y-105.8
X84.5Y-94.2
X84.5Y-95.0
X84.5Y-95.8
X84.5Y-99.2
X84.5Y-100.0
X84.5Y-100.8
X84.5Y-104.2
X84.5Y-105.0
X84.5Y-105.8
X85.25Y-94.2
X85.25Y-95.0
X85.25Y-99.2
X85.25Y-100.0
X85.25Y-104.2
X85.25Y-105.0
X86.05Y-90.9
X86.05Y-91.5
X86.05Y-92.1
X86.65Y-90.9
X86.65Y-91.5
X86.65Y-92.1
X87.25Y-90.9
X87.25Y-91.5
X87.8Y-101.6
X87.8Y-106.6
X88.15Y-97.5
X88.15Y-102.5
X88.15Y-107.5
X88.2Y-93.1
X88.2Y-98.1
X88.2Y-103.1
X88.7Y-101.6
X88.7Y-106.6
X89.8Y-98.8
X89.8Y-103.8
X89.85Y-94.65
X89.85Y-95.35
X89.85Y-96.2
X89.85Y-99.65
X89.85Y-100.35
X89.85Y-101.2
X89.85Y-104.65
X89.85Y-105.35
X89.85Y-106.2
X90.9Y-112.75
X90.9Y-113.35
X90.9Y-113.95
X91.5Y-112.75
X91.5Y-113.35
X91.5Y-113.95
X92.1Y-113.35
X92.1Y-113.95
X92.5Y-88.15
X93.1Y-111.8
X93.4Y-87.8
X93.4Y-88.7
X93.8Y-89.85
X94.2Y-83.75
X94.2Y-84.5
X94.2Y-114.75
X94.2Y-115.5
X94.2Y-116.25
X94.65Y-89.85
X94.65Y-110.15
X95.0Y-83.75
X95.0Y-84.5
X95.0Y-85.25
X95.0Y-114.75
X95.0Y-115.5
X95.0Y-116.25
X95.35Y-89.85
X95.35Y-110.15
X95.8Y-83.75
X95.8Y-84.5
X95.8Y-85.25
X95.8Y-115.5
X95.8Y-116.25
X96.2Y-89.8
X96.2Y-110.15
X96.9Y-88.2
X97.5Y-88.15
X97.5Y-111.85
X98.1Y-111.8
X98.4Y-87.8
X98.4Y-88.7
X98.8Y-89.85
X98.8Y-110.2
X99.2Y-83.75
X99.2Y-84.5
X99.2Y-114.75
X99.2Y-115.5
X99.2Y-116.25
X99.65Y-89.85
X99.65Y-110.15
X100.0Y-83.75
X100.0Y-84.5
X100.0Y-85.25
X100.0Y-114.75
X100.0Y-115.5
X100.0Y-116.25
X100.35Y-89.85
X100.35Y-110.15
X100.8Y-83.75
X100.8Y-84.5
X100.8Y-85.25
X100.8Y-115.5
X100.8Y-116.25
X101.2Y-89.8
X101.2Y-110.15
X101.6Y-111.3
X101.6Y-112.2
X101.9Y-88.2
X102.5Y-88.15
X102.5Y-111.85
X103.1Y-111.8
X103.8Y-89.85
X103.8Y-110.2
X104.2Y-83.75
X104.2Y-84.5
X104.2Y-114.75
X104.2Y-115.5
X104.2Y-116.25
X104.65Y-89.85
X104.65Y-110.15
X105.0Y-83.75
X105.0Y-84.5
X105.0Y-85.25
X105.0Y-114.75
X105.0Y-115.5
X105.0Y-116.25
X105.35Y-89.85
X105.35Y-110.15
X105.8Y-83.75
X105.8Y-84.5
X105.8Y-85.25
X105.8Y-115.5
X105.8Y-116.25
X106.2Y-110.15
X106.6Y-111.3
X106.6Y-112.2
X106.9Y-88.2
X107.5Y-111.85
X107.9Y-86.05
X107.9Y-86.65
X108.5Y-86.05
X108.5Y-86.65
X108.5Y-87.25
X109.1Y-86.05
X109.1Y-86.65
X109.1Y-87.25
X110.15Y-93.8
X110.15Y-94.65
X110.15Y-95.35
X110.15Y-98.8
X110.15Y-99.65
X110.15Y-100.35
X110.15Y-103.8
X110.15Y-104.65
X110.15Y-105.35
X110.2Y-96.2
X110.2Y-101.2
X111.3Y-93.4
X111.3Y-98.4
X111.8Y-96.9
X111.8Y-101.9
X111.8Y-106.9
X111.85Y-92.5
X111.85Y-97.5
X111.85Y-102.5
X112.2Y-93.4
X112.2Y-98.4
X112.75Y-108.5
X112.75Y-109.1
X113.35Y-107.9
X113.35Y-108.5
X113.35Y-109.1
X113.95Y-107.9
X113.95Y-108.5
X113.95Y-109.1
X114.75Y-95.0
X114.75Y-95.8
X114.75Y-100.0
X114.75Y-100.8
X114.75Y-105.0
X114.75Y-105.8
X115.5Y-94.2
X115.5Y-95.0
X115.5Y-95.8
X115.5Y-99.2
X115.5Y-100.0
X115.5Y-100.8
X115.5Y-104.2
X115.5Y-105.0
X115.5Y-105.8
X116.25Y-94.2
X116.25Y-95.0
X116.25Y-95.8
X116.25Y-99.2
X116.25Y-100.0
X116.25Y-100.8
X116.25Y-104.2
X116.25Y-105.0
X116.25Y-105.8
T4
X90.6Y-116.05
X109.4Y-116.05
M30
