%TF.GenerationSoftware,KiCad,Pcbnew,10.0.6-10.0.6~ubuntu24.04.1*%
%TF.CreationDate,2026-10-02T19:51:23+00:00*%
%TF.ProjectId,ridge3-esc,72696467-6533-42d6-9573-632e6b696361,2.0*%
%TF.SameCoordinates,Original*%
%TF.FileFunction,Drillmap*%
%TF.FilePolarity,Positive*%
%FSLAX45Y45*%
G04 Gerber Fmt 4.5, Leading zero omitted, Abs format (unit mm)*
G04 Created by KiCad (PCBNEW 10.0.6-10.0.6~ubuntu24.04.1) date 2026-10-02 19:51:23*
%MOMM*%
%LPD*%
G01*
G04 APERTURE LIST*
%ADD10C,0.100000*%
%ADD11C,0.200000*%
%ADD12C,0.180000*%
G04 APERTURE END LIST*
D10*
X8200000Y-8471777D02*
G75*
G02*
X8240246Y-8443584I30000J-3D01*
G01*
X8200000Y-11528223D02*
X8200000Y-8471777D01*
X8240247Y-8443581D02*
G75*
G02*
X8313353Y-8490132I-68317J-187969D01*
G01*
X8240247Y-11556419D02*
G75*
G02*
X8199997Y-11528223I-10247J28199D01*
G01*
X8313354Y-8490131D02*
X8558910Y-8735687D01*
X8313354Y-11509869D02*
G75*
G02*
X8240248Y-11556420I-141424J141419D01*
G01*
X8443581Y-8240247D02*
G75*
G02*
X8471777Y-8199997I28199J10247D01*
G01*
X8443581Y-11759753D02*
G75*
G02*
X8490132Y-11686647I187969J-68317D01*
G01*
X8471777Y-8200000D02*
X11528223Y-8200000D01*
X8471777Y-11800000D02*
G75*
G02*
X8443584Y-11759754I3J30000D01*
G01*
X8490131Y-8313354D02*
G75*
G02*
X8443580Y-8240248I141419J141424D01*
G01*
X8490131Y-11686646D02*
X8735687Y-11441090D01*
X8558910Y-8735687D02*
G75*
G02*
X8567272Y-8751863I-21210J-21213D01*
G01*
X8558910Y-11264313D02*
X8313354Y-11509869D01*
X8567271Y-11248137D02*
G75*
G02*
X8558910Y-11264312I-29571J5037D01*
G01*
X8567271Y-11248137D02*
G75*
G02*
X8751863Y-11432729I157729J-26863D01*
G01*
X8735687Y-8558910D02*
X8490131Y-8313354D01*
X8735687Y-11441090D02*
G75*
G02*
X8751863Y-11432728I21213J-21210D01*
G01*
X8751863Y-8567271D02*
G75*
G02*
X8567271Y-8751863I-26863J-157729D01*
G01*
X8751863Y-8567271D02*
G75*
G02*
X8735688Y-8558910I5037J29571D01*
G01*
X11248137Y-11432729D02*
G75*
G02*
X11264312Y-11441090I-5037J-29571D01*
G01*
X11248137Y-11432729D02*
G75*
G02*
X11432729Y-11248137I26863J157729D01*
G01*
X11264313Y-8558910D02*
G75*
G02*
X11248137Y-8567272I-21213J21210D01*
G01*
X11264313Y-11441090D02*
X11509869Y-11686646D01*
X11432729Y-8751863D02*
G75*
G02*
X11248137Y-8567271I-157729J26863D01*
G01*
X11432729Y-8751863D02*
G75*
G02*
X11441090Y-8735687I29571J-5037D01*
G01*
X11441090Y-8735687D02*
X11686646Y-8490131D01*
X11441090Y-11264313D02*
G75*
G02*
X11432728Y-11248137I21210J21213D01*
G01*
X11509869Y-8313354D02*
X11264313Y-8558910D01*
X11509869Y-11686646D02*
G75*
G02*
X11556420Y-11759752I-141419J-141424D01*
G01*
X11528223Y-8200000D02*
G75*
G02*
X11556416Y-8240246I-3J-30000D01*
G01*
X11528223Y-11800000D02*
X8471777Y-11800000D01*
X11556419Y-8240247D02*
G75*
G02*
X11509868Y-8313353I-187969J68317D01*
G01*
X11556419Y-11759753D02*
G75*
G02*
X11528223Y-11800003I-28199J-10247D01*
G01*
X11686646Y-8490131D02*
G75*
G02*
X11759752Y-8443580I141424J-141419D01*
G01*
X11686646Y-11509869D02*
X11441090Y-11264313D01*
X11759753Y-8443581D02*
G75*
G02*
X11800003Y-8471777I10247J-28199D01*
G01*
X11759753Y-11556419D02*
G75*
G02*
X11686647Y-11509868I68317J187969D01*
G01*
X11800000Y-8471777D02*
X11800000Y-11528223D01*
X11800000Y-11528223D02*
G75*
G02*
X11759754Y-11556416I-30000J3D01*
G01*
D11*
D10*
X8415000Y-10187500D02*
X8430000Y-10202500D01*
X8430000Y-10187500D02*
X8415000Y-10202500D01*
X8460500Y-9252500D02*
X8475500Y-9267500D01*
X8475500Y-9252500D02*
X8460500Y-9267500D01*
X8534810Y-10227860D02*
X8549810Y-10242860D01*
X8549810Y-10227860D02*
X8534810Y-10242860D01*
X8552500Y-9255000D02*
X8567500Y-9270000D01*
X8567500Y-9255000D02*
X8552500Y-9270000D01*
X8617500Y-9687500D02*
X8632500Y-9702500D01*
X8632500Y-9687500D02*
X8617500Y-9702500D01*
X8617500Y-10187500D02*
X8632500Y-10202500D01*
X8632500Y-10187500D02*
X8617500Y-10202500D01*
X8617500Y-10687500D02*
X8632500Y-10702500D01*
X8632500Y-10687500D02*
X8617500Y-10702500D01*
X8667500Y-9687500D02*
X8682500Y-9702500D01*
X8682500Y-9687500D02*
X8667500Y-9702500D01*
X8667500Y-10187500D02*
X8682500Y-10202500D01*
X8682500Y-10187500D02*
X8667500Y-10202500D01*
X8667500Y-10687500D02*
X8682500Y-10702500D01*
X8682500Y-10687500D02*
X8667500Y-10702500D01*
X8840000Y-9215000D02*
X8855000Y-9230000D01*
X8855000Y-9215000D02*
X8840000Y-9230000D01*
X8895000Y-9301000D02*
X8910000Y-9316000D01*
X8910000Y-9301000D02*
X8895000Y-9316000D01*
X8952500Y-9007500D02*
X8967500Y-9022500D01*
X8967500Y-9007500D02*
X8952500Y-9022500D01*
X9007500Y-10697500D02*
X9022500Y-10712500D01*
X9022500Y-10697500D02*
X9007500Y-10712500D01*
X9007500Y-11032500D02*
X9022500Y-11047500D01*
X9022500Y-11032500D02*
X9007500Y-11047500D01*
X9019000Y-10172500D02*
X9034000Y-10187500D01*
X9034000Y-10172500D02*
X9019000Y-10187500D01*
X9050000Y-9320000D02*
X9065000Y-9335000D01*
X9065000Y-9320000D02*
X9050000Y-9335000D01*
X9060000Y-9495000D02*
X9075000Y-9510000D01*
X9075000Y-9495000D02*
X9060000Y-9510000D01*
X9063000Y-9847500D02*
X9078000Y-9862500D01*
X9078000Y-9847500D02*
X9063000Y-9862500D01*
X9063000Y-9897500D02*
X9078000Y-9912500D01*
X9078000Y-9897500D02*
X9063000Y-9912500D01*
X9063000Y-9947500D02*
X9078000Y-9962500D01*
X9078000Y-9947500D02*
X9063000Y-9962500D01*
X9063000Y-9997500D02*
X9078000Y-10012500D01*
X9078000Y-9997500D02*
X9063000Y-10012500D01*
X9063000Y-10097500D02*
X9078000Y-10112500D01*
X9078000Y-10097500D02*
X9063000Y-10112500D01*
X9097500Y-10320000D02*
X9112500Y-10335000D01*
X9112500Y-10320000D02*
X9097500Y-10335000D01*
X9102000Y-10047500D02*
X9117000Y-10062500D01*
X9117000Y-10047500D02*
X9102000Y-10062500D01*
X9102000Y-10147500D02*
X9117000Y-10162500D01*
X9117000Y-10147500D02*
X9102000Y-10162500D01*
X9108500Y-9117500D02*
X9123500Y-9132500D01*
X9123500Y-9117500D02*
X9108500Y-9132500D01*
X9110500Y-9549500D02*
X9125500Y-9564500D01*
X9125500Y-9549500D02*
X9110500Y-9564500D01*
X9112500Y-9617500D02*
X9127500Y-9632500D01*
X9127500Y-9617500D02*
X9112500Y-9632500D01*
X9118500Y-10572500D02*
X9133500Y-10587500D01*
X9133500Y-10572500D02*
X9118500Y-10587500D01*
X9147500Y-9155000D02*
X9162500Y-9170000D01*
X9162500Y-9155000D02*
X9147500Y-9170000D01*
X9154500Y-9429500D02*
X9169500Y-9444500D01*
X9169500Y-9429500D02*
X9154500Y-9444500D01*
X9155000Y-10630000D02*
X9170000Y-10645000D01*
X9170000Y-10630000D02*
X9155000Y-10645000D01*
X9155000Y-10837500D02*
X9170000Y-10852500D01*
X9170000Y-10837500D02*
X9155000Y-10852500D01*
X9190000Y-10380000D02*
X9205000Y-10395000D01*
X9205000Y-10380000D02*
X9190000Y-10395000D01*
X9207500Y-10652500D02*
X9222500Y-10667500D01*
X9222500Y-10652500D02*
X9207500Y-10667500D01*
X9212500Y-9651500D02*
X9227500Y-9666500D01*
X9227500Y-9651500D02*
X9212500Y-9666500D01*
X9215000Y-11145000D02*
X9230000Y-11160000D01*
X9230000Y-11145000D02*
X9215000Y-11160000D01*
X9251500Y-10532500D02*
X9266500Y-10547500D01*
X9266500Y-10532500D02*
X9251500Y-10547500D01*
X9251500Y-10612500D02*
X9266500Y-10627500D01*
X9266500Y-10612500D02*
X9251500Y-10627500D01*
X9252500Y-9607500D02*
X9267500Y-9622500D01*
X9267500Y-9607500D02*
X9252500Y-9622500D01*
X9255000Y-11432500D02*
X9270000Y-11447500D01*
X9270000Y-11432500D02*
X9255000Y-11447500D01*
X9257500Y-9753000D02*
X9272500Y-9768000D01*
X9272500Y-9753000D02*
X9257500Y-9768000D01*
X9257500Y-10292000D02*
X9272500Y-10307000D01*
X9272500Y-10292000D02*
X9257500Y-10307000D01*
X9285000Y-10467500D02*
X9300000Y-10482500D01*
X9300000Y-10467500D02*
X9285000Y-10482500D01*
X9287500Y-9007500D02*
X9302500Y-9022500D01*
X9302500Y-9007500D02*
X9287500Y-9022500D01*
X9292500Y-9651500D02*
X9307500Y-9666500D01*
X9307500Y-9651500D02*
X9292500Y-9666500D01*
X9297500Y-8617500D02*
X9312500Y-8632500D01*
X9312500Y-8617500D02*
X9297500Y-8632500D01*
X9297500Y-8667500D02*
X9312500Y-8682500D01*
X9312500Y-8667500D02*
X9297500Y-8682500D01*
X9301000Y-11090000D02*
X9316000Y-11105000D01*
X9316000Y-11090000D02*
X9301000Y-11105000D01*
X9302500Y-10927500D02*
X9317500Y-10942500D01*
X9317500Y-10927500D02*
X9302500Y-10942500D01*
X9307500Y-10292000D02*
X9322500Y-10307000D01*
X9322500Y-10292000D02*
X9307500Y-10307000D01*
X9332500Y-9207500D02*
X9347500Y-9222500D01*
X9347500Y-9207500D02*
X9332500Y-9222500D01*
X9332500Y-9607500D02*
X9347500Y-9622500D01*
X9347500Y-9607500D02*
X9332500Y-9622500D01*
X9349500Y-10474500D02*
X9364500Y-10489500D01*
X9364500Y-10474500D02*
X9349500Y-10489500D01*
X9355000Y-9155000D02*
X9370000Y-9170000D01*
X9370000Y-9155000D02*
X9355000Y-9170000D01*
X9372500Y-9251500D02*
X9387500Y-9266500D01*
X9387500Y-9251500D02*
X9372500Y-9266500D01*
X9372500Y-9651500D02*
X9387500Y-9666500D01*
X9387500Y-9651500D02*
X9372500Y-9666500D01*
X9389500Y-10430500D02*
X9404500Y-10445500D01*
X9404500Y-10430500D02*
X9389500Y-10445500D01*
X9412500Y-9118500D02*
X9427500Y-9133500D01*
X9427500Y-9118500D02*
X9412500Y-9133500D01*
X9429500Y-10474500D02*
X9444500Y-10489500D01*
X9444500Y-10474500D02*
X9429500Y-10489500D01*
X9429500Y-10830500D02*
X9444500Y-10845500D01*
X9444500Y-10830500D02*
X9429500Y-10845500D01*
X9452500Y-9251500D02*
X9467500Y-9266500D01*
X9467500Y-9251500D02*
X9452500Y-9266500D01*
X9452500Y-9651500D02*
X9467500Y-9666500D01*
X9467500Y-9651500D02*
X9452500Y-9666500D01*
X9457500Y-10336000D02*
X9472500Y-10351000D01*
X9472500Y-10336000D02*
X9457500Y-10351000D01*
X9469500Y-10430500D02*
X9484500Y-10445500D01*
X9484500Y-10430500D02*
X9469500Y-10445500D01*
X9495000Y-10925000D02*
X9510000Y-10940000D01*
X9510000Y-10925000D02*
X9495000Y-10940000D01*
X9507500Y-9753000D02*
X9522500Y-9768000D01*
X9522500Y-9753000D02*
X9507500Y-9768000D01*
X9507500Y-10292000D02*
X9522500Y-10307000D01*
X9522500Y-10292000D02*
X9507500Y-10307000D01*
X9509500Y-10474500D02*
X9524500Y-10489500D01*
X9524500Y-10474500D02*
X9509500Y-10489500D01*
X9510500Y-9349500D02*
X9525500Y-9364500D01*
X9525500Y-9349500D02*
X9510500Y-9364500D01*
X9510500Y-9429500D02*
X9525500Y-9444500D01*
X9525500Y-9429500D02*
X9510500Y-9444500D01*
X9510500Y-9509500D02*
X9525500Y-9524500D01*
X9525500Y-9509500D02*
X9510500Y-9524500D01*
X9517500Y-9285000D02*
X9532500Y-9300000D01*
X9532500Y-9285000D02*
X9517500Y-9300000D01*
X9549500Y-10430500D02*
X9564500Y-10445500D01*
X9564500Y-10430500D02*
X9549500Y-10445500D01*
X9549500Y-10874500D02*
X9564500Y-10889500D01*
X9564500Y-10874500D02*
X9549500Y-10889500D01*
X9554500Y-9309500D02*
X9569500Y-9324500D01*
X9569500Y-9309500D02*
X9554500Y-9324500D01*
X9554500Y-9389500D02*
X9569500Y-9404500D01*
X9569500Y-9389500D02*
X9554500Y-9404500D01*
X9554500Y-9469500D02*
X9569500Y-9484500D01*
X9569500Y-9469500D02*
X9554500Y-9484500D01*
X9554500Y-9549500D02*
X9569500Y-9564500D01*
X9569500Y-9549500D02*
X9554500Y-9564500D01*
X9602000Y-9847500D02*
X9617000Y-9862500D01*
X9617000Y-9847500D02*
X9602000Y-9862500D01*
X9602000Y-9897500D02*
X9617000Y-9912500D01*
X9617000Y-9897500D02*
X9602000Y-9912500D01*
X9602000Y-9947500D02*
X9617000Y-9962500D01*
X9617000Y-9947500D02*
X9602000Y-9962500D01*
X9602000Y-9997500D02*
X9617000Y-10012500D01*
X9617000Y-9997500D02*
X9602000Y-10012500D01*
X9602000Y-10047500D02*
X9617000Y-10062500D01*
X9617000Y-10047500D02*
X9602000Y-10062500D01*
X9602000Y-10097500D02*
X9617000Y-10112500D01*
X9617000Y-10097500D02*
X9602000Y-10112500D01*
X9602000Y-10197500D02*
X9617000Y-10212500D01*
X9617000Y-10197500D02*
X9602000Y-10212500D01*
X9607500Y-10652500D02*
X9622500Y-10667500D01*
X9622500Y-10652500D02*
X9607500Y-10667500D01*
X9607500Y-10732500D02*
X9622500Y-10747500D01*
X9622500Y-10732500D02*
X9607500Y-10747500D01*
X9610000Y-9255000D02*
X9625000Y-9270000D01*
X9625000Y-9255000D02*
X9610000Y-9270000D01*
X9615000Y-10317500D02*
X9630000Y-10332500D01*
X9630000Y-10317500D02*
X9615000Y-10332500D01*
X9617500Y-9667500D02*
X9632500Y-9682500D01*
X9632500Y-9667500D02*
X9617500Y-9682500D01*
X9617500Y-10872500D02*
X9632500Y-10887500D01*
X9632500Y-10872500D02*
X9617500Y-10887500D01*
X9635000Y-9312500D02*
X9650000Y-9327500D01*
X9650000Y-9312500D02*
X9635000Y-9327500D01*
X9640000Y-10280000D02*
X9655000Y-10295000D01*
X9655000Y-10280000D02*
X9640000Y-10295000D01*
X9645000Y-9815000D02*
X9660000Y-9830000D01*
X9660000Y-9815000D02*
X9645000Y-9830000D01*
X9649000Y-9457500D02*
X9664000Y-9472500D01*
X9664000Y-9457500D02*
X9649000Y-9472500D01*
X9651500Y-10532500D02*
X9666500Y-10547500D01*
X9666500Y-10532500D02*
X9651500Y-10547500D01*
X9651500Y-10612500D02*
X9666500Y-10627500D01*
X9666500Y-10612500D02*
X9651500Y-10627500D01*
X9651500Y-10692500D02*
X9666500Y-10707500D01*
X9666500Y-10692500D02*
X9651500Y-10707500D01*
X9651500Y-10772500D02*
X9666500Y-10787500D01*
X9666500Y-10772500D02*
X9651500Y-10787500D01*
X9665000Y-9097500D02*
X9680000Y-9112500D01*
X9680000Y-9097500D02*
X9665000Y-9112500D01*
X9667500Y-9615000D02*
X9682500Y-9630000D01*
X9682500Y-9615000D02*
X9667500Y-9630000D01*
X9687500Y-11317500D02*
X9702500Y-11332500D01*
X9702500Y-11317500D02*
X9687500Y-11332500D01*
X9687500Y-11367500D02*
X9702500Y-11382500D01*
X9702500Y-11367500D02*
X9687500Y-11382500D01*
X9693000Y-9257500D02*
X9708000Y-9272500D01*
X9708000Y-9257500D02*
X9693000Y-9272500D01*
X9693000Y-9307500D02*
X9708000Y-9322500D01*
X9708000Y-9307500D02*
X9693000Y-9322500D01*
X9693000Y-9507500D02*
X9708000Y-9522500D01*
X9708000Y-9507500D02*
X9693000Y-9522500D01*
X9702500Y-9645000D02*
X9717500Y-9660000D01*
X9717500Y-9645000D02*
X9702500Y-9660000D01*
X9722500Y-10042500D02*
X9737500Y-10057500D01*
X9737500Y-10042500D02*
X9722500Y-10057500D01*
X9752500Y-10080000D02*
X9767500Y-10095000D01*
X9767500Y-10080000D02*
X9752500Y-10095000D01*
X9753000Y-10477500D02*
X9768000Y-10492500D01*
X9768000Y-10477500D02*
X9753000Y-10492500D01*
X9753000Y-10727500D02*
X9768000Y-10742500D01*
X9768000Y-10727500D02*
X9753000Y-10742500D01*
X9757500Y-9757500D02*
X9772500Y-9772500D01*
X9772500Y-9757500D02*
X9757500Y-9772500D01*
X9777500Y-10042500D02*
X9792500Y-10057500D01*
X9792500Y-10042500D02*
X9777500Y-10057500D01*
X9787500Y-9602000D02*
X9802500Y-9617000D01*
X9802500Y-9602000D02*
X9787500Y-9617000D01*
X9795000Y-8545000D02*
X9810000Y-8560000D01*
X9810000Y-8545000D02*
X9795000Y-8560000D01*
X9797500Y-8617500D02*
X9812500Y-8632500D01*
X9812500Y-8617500D02*
X9797500Y-8632500D01*
X9797500Y-8667500D02*
X9812500Y-8682500D01*
X9812500Y-8667500D02*
X9797500Y-8682500D01*
X9812500Y-9019000D02*
X9827500Y-9034000D01*
X9827500Y-9019000D02*
X9812500Y-9034000D01*
X9837500Y-9102000D02*
X9852500Y-9117000D01*
X9852500Y-9102000D02*
X9837500Y-9117000D01*
X9847500Y-10383000D02*
X9862500Y-10398000D01*
X9862500Y-10383000D02*
X9847500Y-10398000D01*
X9847500Y-10922000D02*
X9862500Y-10937000D01*
X9862500Y-10922000D02*
X9847500Y-10937000D01*
X9852500Y-9727500D02*
X9867500Y-9742500D01*
X9867500Y-9727500D02*
X9852500Y-9742500D01*
X9887500Y-9063000D02*
X9902500Y-9078000D01*
X9902500Y-9063000D02*
X9887500Y-9078000D01*
X9887500Y-9602000D02*
X9902500Y-9617000D01*
X9902500Y-9602000D02*
X9887500Y-9617000D01*
X9897500Y-10383000D02*
X9912500Y-10398000D01*
X9912500Y-10383000D02*
X9897500Y-10398000D01*
X9897500Y-10922000D02*
X9912500Y-10937000D01*
X9912500Y-10922000D02*
X9897500Y-10937000D01*
X9920000Y-9747500D02*
X9935000Y-9762500D01*
X9935000Y-9747500D02*
X9920000Y-9762500D01*
X9930000Y-10065000D02*
X9945000Y-10080000D01*
X9945000Y-10065000D02*
X9930000Y-10080000D01*
X9937500Y-9102000D02*
X9952500Y-9117000D01*
X9952500Y-9102000D02*
X9937500Y-9117000D01*
X9937500Y-9602000D02*
X9952500Y-9617000D01*
X9952500Y-9602000D02*
X9937500Y-9617000D01*
X9947500Y-10383000D02*
X9962500Y-10398000D01*
X9962500Y-10383000D02*
X9947500Y-10398000D01*
X9947500Y-10922000D02*
X9962500Y-10937000D01*
X9962500Y-10922000D02*
X9947500Y-10937000D01*
X9962500Y-9882500D02*
X9977500Y-9897500D01*
X9977500Y-9882500D02*
X9962500Y-9897500D01*
X9965000Y-9710000D02*
X9980000Y-9725000D01*
X9980000Y-9710000D02*
X9965000Y-9725000D01*
X9987500Y-9063000D02*
X10002500Y-9078000D01*
X10002500Y-9063000D02*
X9987500Y-9078000D01*
X9987500Y-9602000D02*
X10002500Y-9617000D01*
X10002500Y-9602000D02*
X9987500Y-9617000D01*
X9997500Y-10383000D02*
X10012500Y-10398000D01*
X10012500Y-10383000D02*
X9997500Y-10398000D01*
X9997500Y-10922000D02*
X10012500Y-10937000D01*
X10012500Y-10922000D02*
X9997500Y-10937000D01*
X10007500Y-10110000D02*
X10022500Y-10125000D01*
X10022500Y-10110000D02*
X10007500Y-10125000D01*
X10017500Y-9707500D02*
X10032500Y-9722500D01*
X10032500Y-9707500D02*
X10017500Y-9722500D01*
X10037500Y-9063000D02*
X10052500Y-9078000D01*
X10052500Y-9063000D02*
X10037500Y-9078000D01*
X10037500Y-9602000D02*
X10052500Y-9617000D01*
X10052500Y-9602000D02*
X10037500Y-9617000D01*
X10047500Y-10383000D02*
X10062500Y-10398000D01*
X10062500Y-10383000D02*
X10047500Y-10398000D01*
X10047500Y-10883000D02*
X10062500Y-10898000D01*
X10062500Y-10883000D02*
X10047500Y-10898000D01*
X10050000Y-9850000D02*
X10065000Y-9865000D01*
X10065000Y-9850000D02*
X10050000Y-9865000D01*
X10087500Y-9063000D02*
X10102500Y-9078000D01*
X10102500Y-9063000D02*
X10087500Y-9078000D01*
X10087500Y-9602000D02*
X10102500Y-9617000D01*
X10102500Y-9602000D02*
X10087500Y-9617000D01*
X10097500Y-10383000D02*
X10112500Y-10398000D01*
X10112500Y-10383000D02*
X10097500Y-10398000D01*
X10097500Y-10922000D02*
X10112500Y-10937000D01*
X10112500Y-10922000D02*
X10097500Y-10937000D01*
X10135000Y-9695000D02*
X10150000Y-9710000D01*
X10150000Y-9695000D02*
X10135000Y-9710000D01*
X10137500Y-9063000D02*
X10152500Y-9078000D01*
X10152500Y-9063000D02*
X10137500Y-9078000D01*
X10137500Y-9602000D02*
X10152500Y-9617000D01*
X10152500Y-9602000D02*
X10137500Y-9617000D01*
X10147500Y-10883000D02*
X10162500Y-10898000D01*
X10162500Y-10883000D02*
X10147500Y-10898000D01*
X10165000Y-9785000D02*
X10180000Y-9800000D01*
X10180000Y-9785000D02*
X10165000Y-9800000D01*
X10172500Y-10966000D02*
X10187500Y-10981000D01*
X10187500Y-10966000D02*
X10172500Y-10981000D01*
X10187500Y-11317500D02*
X10202500Y-11332500D01*
X10202500Y-11317500D02*
X10187500Y-11332500D01*
X10187500Y-11367500D02*
X10202500Y-11382500D01*
X10202500Y-11367500D02*
X10187500Y-11382500D01*
X10197500Y-10383000D02*
X10212500Y-10398000D01*
X10212500Y-10383000D02*
X10197500Y-10398000D01*
X10200000Y-10042500D02*
X10215000Y-10057500D01*
X10215000Y-10042500D02*
X10200000Y-10057500D01*
X10232000Y-9257500D02*
X10247000Y-9272500D01*
X10247000Y-9257500D02*
X10232000Y-9272500D01*
X10232000Y-9507500D02*
X10247000Y-9522500D01*
X10247000Y-9507500D02*
X10232000Y-9522500D01*
X10282500Y-10340000D02*
X10297500Y-10355000D01*
X10297500Y-10340000D02*
X10282500Y-10355000D01*
X10292000Y-10477500D02*
X10307000Y-10492500D01*
X10307000Y-10477500D02*
X10292000Y-10492500D01*
X10292000Y-10677500D02*
X10307000Y-10692500D01*
X10307000Y-10677500D02*
X10292000Y-10692500D01*
X10292000Y-10727500D02*
X10307000Y-10742500D01*
X10307000Y-10727500D02*
X10292000Y-10742500D01*
X10295000Y-10042500D02*
X10310000Y-10057500D01*
X10310000Y-10042500D02*
X10295000Y-10057500D01*
X10297500Y-8617500D02*
X10312500Y-8632500D01*
X10312500Y-8617500D02*
X10297500Y-8632500D01*
X10297500Y-8667500D02*
X10312500Y-8682500D01*
X10312500Y-8667500D02*
X10297500Y-8682500D01*
X10317500Y-9807500D02*
X10332500Y-9822500D01*
X10332500Y-9807500D02*
X10317500Y-9822500D01*
X10317500Y-10370000D02*
X10332500Y-10385000D01*
X10332500Y-10370000D02*
X10317500Y-10385000D01*
X10320000Y-10887500D02*
X10335000Y-10902500D01*
X10335000Y-10887500D02*
X10320000Y-10902500D01*
X10322500Y-9642500D02*
X10337500Y-9657500D01*
X10337500Y-9642500D02*
X10322500Y-9657500D01*
X10327500Y-9887500D02*
X10342500Y-9902500D01*
X10342500Y-9887500D02*
X10327500Y-9902500D01*
X10333500Y-9212500D02*
X10348500Y-9227500D01*
X10348500Y-9212500D02*
X10333500Y-9227500D01*
X10333500Y-9292500D02*
X10348500Y-9307500D01*
X10348500Y-9292500D02*
X10333500Y-9307500D01*
X10333500Y-9372500D02*
X10348500Y-9387500D01*
X10348500Y-9372500D02*
X10333500Y-9387500D01*
X10333500Y-9452500D02*
X10348500Y-9467500D01*
X10348500Y-9452500D02*
X10333500Y-9467500D01*
X10336000Y-10527500D02*
X10351000Y-10542500D01*
X10351000Y-10527500D02*
X10336000Y-10542500D01*
X10367500Y-9112500D02*
X10382500Y-9127500D01*
X10382500Y-9112500D02*
X10367500Y-9127500D01*
X10370000Y-9667500D02*
X10385000Y-9682500D01*
X10385000Y-9667500D02*
X10370000Y-9682500D01*
X10377500Y-9252500D02*
X10392500Y-9267500D01*
X10392500Y-9252500D02*
X10377500Y-9267500D01*
X10377500Y-9332500D02*
X10392500Y-9347500D01*
X10392500Y-9332500D02*
X10377500Y-9347500D01*
X10380000Y-10792500D02*
X10395000Y-10807500D01*
X10395000Y-10792500D02*
X10380000Y-10807500D01*
X10383000Y-9787500D02*
X10398000Y-9802500D01*
X10398000Y-9787500D02*
X10383000Y-9802500D01*
X10383000Y-9887500D02*
X10398000Y-9902500D01*
X10398000Y-9887500D02*
X10383000Y-9902500D01*
X10383000Y-9937500D02*
X10398000Y-9952500D01*
X10398000Y-9937500D02*
X10383000Y-9952500D01*
X10383000Y-9987500D02*
X10398000Y-10002500D01*
X10398000Y-9987500D02*
X10383000Y-10002500D01*
X10383000Y-10037500D02*
X10398000Y-10052500D01*
X10398000Y-10037500D02*
X10383000Y-10052500D01*
X10383000Y-10087500D02*
X10398000Y-10102500D01*
X10398000Y-10087500D02*
X10383000Y-10102500D01*
X10383000Y-10137500D02*
X10398000Y-10152500D01*
X10398000Y-10137500D02*
X10383000Y-10152500D01*
X10387500Y-10400000D02*
X10402500Y-10415000D01*
X10402500Y-10400000D02*
X10387500Y-10415000D01*
X10430500Y-10435500D02*
X10445500Y-10450500D01*
X10445500Y-10435500D02*
X10430500Y-10450500D01*
X10430500Y-10515500D02*
X10445500Y-10530500D01*
X10445500Y-10515500D02*
X10430500Y-10530500D01*
X10430500Y-10595500D02*
X10445500Y-10610500D01*
X10445500Y-10595500D02*
X10430500Y-10610500D01*
X10430500Y-10675500D02*
X10445500Y-10690500D01*
X10445500Y-10675500D02*
X10430500Y-10690500D01*
X10435500Y-9110500D02*
X10450500Y-9125500D01*
X10450500Y-9110500D02*
X10435500Y-9125500D01*
X10435500Y-9554500D02*
X10450500Y-9569500D01*
X10450500Y-9554500D02*
X10435500Y-9569500D01*
X10467500Y-10700000D02*
X10482500Y-10715000D01*
X10482500Y-10700000D02*
X10467500Y-10715000D01*
X10474500Y-10475500D02*
X10489500Y-10490500D01*
X10489500Y-10475500D02*
X10474500Y-10490500D01*
X10474500Y-10555500D02*
X10489500Y-10570500D01*
X10489500Y-10555500D02*
X10474500Y-10570500D01*
X10474500Y-10635500D02*
X10489500Y-10650500D01*
X10489500Y-10635500D02*
X10474500Y-10650500D01*
X10475500Y-9510500D02*
X10490500Y-9525500D01*
X10490500Y-9510500D02*
X10475500Y-9525500D01*
X10477500Y-9693000D02*
X10492500Y-9708000D01*
X10492500Y-9693000D02*
X10477500Y-9708000D01*
X10477500Y-10232000D02*
X10492500Y-10247000D01*
X10492500Y-10232000D02*
X10477500Y-10247000D01*
X10490000Y-9060000D02*
X10505000Y-9075000D01*
X10505000Y-9060000D02*
X10490000Y-9075000D01*
X10510000Y-10865000D02*
X10525000Y-10880000D01*
X10525000Y-10865000D02*
X10510000Y-10880000D01*
X10515500Y-9554500D02*
X10530500Y-9569500D01*
X10530500Y-9554500D02*
X10515500Y-9569500D01*
X10527500Y-9649000D02*
X10542500Y-9664000D01*
X10542500Y-9649000D02*
X10527500Y-9664000D01*
X10532500Y-10333500D02*
X10547500Y-10348500D01*
X10547500Y-10333500D02*
X10532500Y-10348500D01*
X10532500Y-10733500D02*
X10547500Y-10748500D01*
X10547500Y-10733500D02*
X10532500Y-10748500D01*
X10555500Y-9154500D02*
X10570500Y-9169500D01*
X10570500Y-9154500D02*
X10555500Y-9169500D01*
X10555500Y-9510500D02*
X10570500Y-9525500D01*
X10570500Y-9510500D02*
X10555500Y-9525500D01*
X10595500Y-9554500D02*
X10610500Y-9569500D01*
X10610500Y-9554500D02*
X10595500Y-9569500D01*
X10612500Y-10333500D02*
X10627500Y-10348500D01*
X10627500Y-10333500D02*
X10612500Y-10348500D01*
X10612500Y-10733500D02*
X10627500Y-10748500D01*
X10627500Y-10733500D02*
X10612500Y-10748500D01*
X10630000Y-10830000D02*
X10645000Y-10845000D01*
X10645000Y-10830000D02*
X10630000Y-10845000D01*
X10635500Y-9510500D02*
X10650500Y-9525500D01*
X10650500Y-9510500D02*
X10635500Y-9525500D01*
X10652500Y-10377500D02*
X10667500Y-10392500D01*
X10667500Y-10377500D02*
X10652500Y-10392500D01*
X10652500Y-10777500D02*
X10667500Y-10792500D01*
X10667500Y-10777500D02*
X10652500Y-10792500D01*
X10660000Y-10867500D02*
X10675000Y-10882500D01*
X10675000Y-10867500D02*
X10660000Y-10882500D01*
X10662500Y-9050000D02*
X10677500Y-9065000D01*
X10677500Y-9050000D02*
X10662500Y-9065000D01*
X10677500Y-9693000D02*
X10692500Y-9708000D01*
X10692500Y-9693000D02*
X10677500Y-9708000D01*
X10684000Y-8895000D02*
X10699000Y-8910000D01*
X10699000Y-8895000D02*
X10684000Y-8910000D01*
X10687500Y-11317500D02*
X10702500Y-11332500D01*
X10702500Y-11317500D02*
X10687500Y-11332500D01*
X10687500Y-11367500D02*
X10702500Y-11382500D01*
X10702500Y-11367500D02*
X10687500Y-11382500D01*
X10692500Y-10333500D02*
X10707500Y-10348500D01*
X10707500Y-10333500D02*
X10692500Y-10348500D01*
X10697500Y-10977500D02*
X10712500Y-10992500D01*
X10712500Y-10977500D02*
X10697500Y-10992500D01*
X10700000Y-9517500D02*
X10715000Y-9532500D01*
X10715000Y-9517500D02*
X10700000Y-9532500D01*
X10727500Y-9693000D02*
X10742500Y-9708000D01*
X10742500Y-9693000D02*
X10727500Y-9708000D01*
X10727500Y-10232000D02*
X10742500Y-10247000D01*
X10742500Y-10232000D02*
X10727500Y-10247000D01*
X10730000Y-8552500D02*
X10745000Y-8567500D01*
X10745000Y-8552500D02*
X10730000Y-8567500D01*
X10732500Y-10377500D02*
X10747500Y-10392500D01*
X10747500Y-10377500D02*
X10732500Y-10392500D01*
X10733500Y-9372500D02*
X10748500Y-9387500D01*
X10748500Y-9372500D02*
X10733500Y-9387500D01*
X10733500Y-9452500D02*
X10748500Y-9467500D01*
X10748500Y-9452500D02*
X10733500Y-9467500D01*
X10770000Y-8840000D02*
X10785000Y-8855000D01*
X10785000Y-8840000D02*
X10770000Y-8855000D01*
X10772500Y-10333500D02*
X10787500Y-10348500D01*
X10787500Y-10333500D02*
X10772500Y-10348500D01*
X10777500Y-9332500D02*
X10792500Y-9347500D01*
X10792500Y-9332500D02*
X10777500Y-9347500D01*
X10830000Y-9147500D02*
X10845000Y-9162500D01*
X10845000Y-9147500D02*
X10830000Y-9162500D01*
X10830000Y-9355000D02*
X10845000Y-9370000D01*
X10845000Y-9355000D02*
X10830000Y-9370000D01*
X10830500Y-10555500D02*
X10845500Y-10570500D01*
X10845500Y-10555500D02*
X10830500Y-10570500D01*
X10837500Y-10830000D02*
X10852500Y-10845000D01*
X10852500Y-10830000D02*
X10837500Y-10845000D01*
X10860000Y-10935000D02*
X10875000Y-10950000D01*
X10875000Y-10935000D02*
X10860000Y-10950000D01*
X10867500Y-9182500D02*
X10882500Y-9197500D01*
X10882500Y-9182500D02*
X10867500Y-9197500D01*
X10872500Y-10367500D02*
X10887500Y-10382500D01*
X10887500Y-10367500D02*
X10872500Y-10382500D01*
X10874500Y-10435500D02*
X10889500Y-10450500D01*
X10889500Y-10435500D02*
X10874500Y-10450500D01*
X10883000Y-9837500D02*
X10898000Y-9852500D01*
X10898000Y-9837500D02*
X10883000Y-9852500D01*
X10883000Y-9937500D02*
X10898000Y-9952500D01*
X10898000Y-9937500D02*
X10883000Y-9952500D01*
X10887500Y-9665000D02*
X10902500Y-9680000D01*
X10902500Y-9665000D02*
X10887500Y-9680000D01*
X10907500Y-9300000D02*
X10922500Y-9315000D01*
X10922500Y-9300000D02*
X10907500Y-9315000D01*
X10922000Y-9887500D02*
X10937000Y-9902500D01*
X10937000Y-9887500D02*
X10922000Y-9902500D01*
X10922000Y-9987500D02*
X10937000Y-10002500D01*
X10937000Y-9987500D02*
X10922000Y-10002500D01*
X10922000Y-10037500D02*
X10937000Y-10052500D01*
X10937000Y-10037500D02*
X10922000Y-10052500D01*
X10922000Y-10087500D02*
X10937000Y-10102500D01*
X10937000Y-10087500D02*
X10922000Y-10102500D01*
X10922000Y-10137500D02*
X10937000Y-10152500D01*
X10937000Y-10137500D02*
X10922000Y-10152500D01*
X10925000Y-10490000D02*
X10940000Y-10505000D01*
X10940000Y-10490000D02*
X10925000Y-10505000D01*
X10927500Y-10680000D02*
X10942500Y-10695000D01*
X10942500Y-10680000D02*
X10927500Y-10695000D01*
X10966000Y-9812500D02*
X10981000Y-9827500D01*
X10981000Y-9812500D02*
X10966000Y-9827500D01*
X10977500Y-8952500D02*
X10992500Y-8967500D01*
X10992500Y-8952500D02*
X10977500Y-8967500D01*
X10977500Y-9287500D02*
X10992500Y-9302500D01*
X10992500Y-9287500D02*
X10977500Y-9302500D01*
X11032500Y-10977500D02*
X11047500Y-10992500D01*
X11047500Y-10977500D02*
X11032500Y-10992500D01*
X11090000Y-10684000D02*
X11105000Y-10699000D01*
X11105000Y-10684000D02*
X11090000Y-10699000D01*
X11145000Y-10770000D02*
X11160000Y-10785000D01*
X11160000Y-10770000D02*
X11145000Y-10785000D01*
X11317500Y-9297500D02*
X11332500Y-9312500D01*
X11332500Y-9297500D02*
X11317500Y-9312500D01*
X11317500Y-9797500D02*
X11332500Y-9812500D01*
X11332500Y-9797500D02*
X11317500Y-9812500D01*
X11317500Y-10297500D02*
X11332500Y-10312500D01*
X11332500Y-10297500D02*
X11317500Y-10312500D01*
X11367500Y-9297500D02*
X11382500Y-9312500D01*
X11382500Y-9297500D02*
X11367500Y-9312500D01*
X11367500Y-9797500D02*
X11382500Y-9812500D01*
X11382500Y-9797500D02*
X11367500Y-9812500D01*
X11367500Y-10297500D02*
X11382500Y-10312500D01*
X11382500Y-10297500D02*
X11367500Y-10312500D01*
X11432500Y-10730000D02*
X11447500Y-10745000D01*
X11447500Y-10730000D02*
X11432500Y-10745000D01*
X11567500Y-9795000D02*
X11582500Y-9810000D01*
X11582500Y-9795000D02*
X11567500Y-9810000D01*
X9034000Y-10972000D02*
G75*
G02*
X9009000Y-10972000I-12500J0D01*
G01*
X9009000Y-10972000D02*
G75*
G02*
X9034000Y-10972000I12500J0D01*
G01*
X9040500Y-9021500D02*
G75*
G02*
X9015500Y-9021500I-12500J0D01*
G01*
X9015500Y-9021500D02*
G75*
G02*
X9040500Y-9021500I12500J0D01*
G01*
X9042500Y-9417000D02*
G75*
G02*
X9017500Y-9417000I-12500J0D01*
G01*
X9017500Y-9417000D02*
G75*
G02*
X9042500Y-9417000I12500J0D01*
G01*
X9065500Y-9730000D02*
G75*
G02*
X9040500Y-9730000I-12500J0D01*
G01*
X9040500Y-9730000D02*
G75*
G02*
X9065500Y-9730000I12500J0D01*
G01*
X9067500Y-9611000D02*
G75*
G02*
X9042500Y-9611000I-12500J0D01*
G01*
X9042500Y-9611000D02*
G75*
G02*
X9067500Y-9611000I12500J0D01*
G01*
X9197500Y-10787000D02*
G75*
G02*
X9172500Y-10787000I-12500J0D01*
G01*
X9172500Y-10787000D02*
G75*
G02*
X9197500Y-10787000I12500J0D01*
G01*
X9212500Y-10477000D02*
G75*
G02*
X9187500Y-10477000I-12500J0D01*
G01*
X9187500Y-10477000D02*
G75*
G02*
X9212500Y-10477000I12500J0D01*
G01*
X9225500Y-9185000D02*
G75*
G02*
X9200500Y-9185000I-12500J0D01*
G01*
X9200500Y-9185000D02*
G75*
G02*
X9225500Y-9185000I12500J0D01*
G01*
X9277500Y-9862000D02*
G75*
G02*
X9252500Y-9862000I-12500J0D01*
G01*
X9252500Y-9862000D02*
G75*
G02*
X9277500Y-9862000I12500J0D01*
G01*
X9285500Y-10147000D02*
G75*
G02*
X9260500Y-10147000I-12500J0D01*
G01*
X9260500Y-10147000D02*
G75*
G02*
X9285500Y-10147000I12500J0D01*
G01*
X9327500Y-9373500D02*
G75*
G02*
X9302500Y-9373500I-12500J0D01*
G01*
X9302500Y-9373500D02*
G75*
G02*
X9327500Y-9373500I12500J0D01*
G01*
X9352500Y-10030000D02*
G75*
G02*
X9327500Y-10030000I-12500J0D01*
G01*
X9327500Y-10030000D02*
G75*
G02*
X9352500Y-10030000I12500J0D01*
G01*
X9386000Y-10685000D02*
G75*
G02*
X9361000Y-10685000I-12500J0D01*
G01*
X9361000Y-10685000D02*
G75*
G02*
X9386000Y-10685000I12500J0D01*
G01*
X9402500Y-9980000D02*
G75*
G02*
X9377500Y-9980000I-12500J0D01*
G01*
X9377500Y-9980000D02*
G75*
G02*
X9402500Y-9980000I12500J0D01*
G01*
X9417500Y-10262500D02*
G75*
G02*
X9392500Y-10262500I-12500J0D01*
G01*
X9392500Y-10262500D02*
G75*
G02*
X9417500Y-10262500I12500J0D01*
G01*
X9429500Y-10970000D02*
G75*
G02*
X9404500Y-10970000I-12500J0D01*
G01*
X9404500Y-10970000D02*
G75*
G02*
X9429500Y-10970000I12500J0D01*
G01*
X9472500Y-9492000D02*
G75*
G02*
X9447500Y-9492000I-12500J0D01*
G01*
X9447500Y-9492000D02*
G75*
G02*
X9472500Y-9492000I12500J0D01*
G01*
X9504500Y-10540000D02*
G75*
G02*
X9479500Y-10540000I-12500J0D01*
G01*
X9479500Y-10540000D02*
G75*
G02*
X9504500Y-10540000I12500J0D01*
G01*
X9525550Y-9976270D02*
G75*
G02*
X9500550Y-9976270I-12500J0D01*
G01*
X9500550Y-9976270D02*
G75*
G02*
X9525550Y-9976270I12500J0D01*
G01*
X9535500Y-9200000D02*
G75*
G02*
X9510500Y-9200000I-12500J0D01*
G01*
X9510500Y-9200000D02*
G75*
G02*
X9535500Y-9200000I12500J0D01*
G01*
X9623500Y-10945000D02*
G75*
G02*
X9598500Y-10945000I-12500J0D01*
G01*
X9598500Y-10945000D02*
G75*
G02*
X9623500Y-10945000I12500J0D01*
G01*
X9686280Y-9878290D02*
G75*
G02*
X9661280Y-9878290I-12500J0D01*
G01*
X9661280Y-9878290D02*
G75*
G02*
X9686280Y-9878290I12500J0D01*
G01*
X9698000Y-9712500D02*
G75*
G02*
X9673000Y-9712500I-12500J0D01*
G01*
X9673000Y-9712500D02*
G75*
G02*
X9698000Y-9712500I12500J0D01*
G01*
X9742500Y-10947000D02*
G75*
G02*
X9717500Y-10947000I-12500J0D01*
G01*
X9717500Y-10947000D02*
G75*
G02*
X9742500Y-10947000I12500J0D01*
G01*
X9750000Y-9405000D02*
G75*
G02*
X9725000Y-9405000I-12500J0D01*
G01*
X9725000Y-9405000D02*
G75*
G02*
X9750000Y-9405000I12500J0D01*
G01*
X9757000Y-10257000D02*
G75*
G02*
X9732000Y-10257000I-12500J0D01*
G01*
X9732000Y-10257000D02*
G75*
G02*
X9757000Y-10257000I12500J0D01*
G01*
X9797000Y-9954500D02*
G75*
G02*
X9772000Y-9954500I-12500J0D01*
G01*
X9772000Y-9954500D02*
G75*
G02*
X9797000Y-9954500I12500J0D01*
G01*
X9822000Y-9685000D02*
G75*
G02*
X9797000Y-9685000I-12500J0D01*
G01*
X9797000Y-9685000D02*
G75*
G02*
X9822000Y-9685000I12500J0D01*
G01*
X9857000Y-10199500D02*
G75*
G02*
X9832000Y-10199500I-12500J0D01*
G01*
X9832000Y-10199500D02*
G75*
G02*
X9857000Y-10199500I12500J0D01*
G01*
X9864500Y-10134500D02*
G75*
G02*
X9839500Y-10134500I-12500J0D01*
G01*
X9839500Y-10134500D02*
G75*
G02*
X9864500Y-10134500I12500J0D01*
G01*
X9865500Y-9273000D02*
G75*
G02*
X9840500Y-9273000I-12500J0D01*
G01*
X9840500Y-9273000D02*
G75*
G02*
X9865500Y-9273000I12500J0D01*
G01*
X9874500Y-10735000D02*
G75*
G02*
X9849500Y-10735000I-12500J0D01*
G01*
X9849500Y-10735000D02*
G75*
G02*
X9874500Y-10735000I12500J0D01*
G01*
X9885500Y-9812000D02*
G75*
G02*
X9860500Y-9812000I-12500J0D01*
G01*
X9860500Y-9812000D02*
G75*
G02*
X9885500Y-9812000I12500J0D01*
G01*
X9907000Y-10257000D02*
G75*
G02*
X9882000Y-10257000I-12500J0D01*
G01*
X9882000Y-10257000D02*
G75*
G02*
X9907000Y-10257000I12500J0D01*
G01*
X9982500Y-9340000D02*
G75*
G02*
X9957500Y-9340000I-12500J0D01*
G01*
X9957500Y-9340000D02*
G75*
G02*
X9982500Y-9340000I12500J0D01*
G01*
X9988770Y-10487000D02*
G75*
G02*
X9963770Y-10487000I-12500J0D01*
G01*
X9963770Y-10487000D02*
G75*
G02*
X9988770Y-10487000I12500J0D01*
G01*
X9992500Y-10610000D02*
G75*
G02*
X9967500Y-10610000I-12500J0D01*
G01*
X9967500Y-10610000D02*
G75*
G02*
X9992500Y-10610000I12500J0D01*
G01*
X10012500Y-9812000D02*
G75*
G02*
X9987500Y-9812000I-12500J0D01*
G01*
X9987500Y-9812000D02*
G75*
G02*
X10012500Y-9812000I12500J0D01*
G01*
X10032500Y-9390000D02*
G75*
G02*
X10007500Y-9390000I-12500J0D01*
G01*
X10007500Y-9390000D02*
G75*
G02*
X10032500Y-9390000I12500J0D01*
G01*
X10036200Y-9513050D02*
G75*
G02*
X10011200Y-9513050I-12500J0D01*
G01*
X10011200Y-9513050D02*
G75*
G02*
X10036200Y-9513050I12500J0D01*
G01*
X10042500Y-10660000D02*
G75*
G02*
X10017500Y-10660000I-12500J0D01*
G01*
X10017500Y-10660000D02*
G75*
G02*
X10042500Y-10660000I12500J0D01*
G01*
X10096000Y-9955500D02*
G75*
G02*
X10071000Y-9955500I-12500J0D01*
G01*
X10071000Y-9955500D02*
G75*
G02*
X10096000Y-9955500I12500J0D01*
G01*
X10150500Y-9265000D02*
G75*
G02*
X10125500Y-9265000I-12500J0D01*
G01*
X10125500Y-9265000D02*
G75*
G02*
X10150500Y-9265000I12500J0D01*
G01*
X10159500Y-10134500D02*
G75*
G02*
X10134500Y-10134500I-12500J0D01*
G01*
X10134500Y-10134500D02*
G75*
G02*
X10159500Y-10134500I12500J0D01*
G01*
X10159500Y-10727000D02*
G75*
G02*
X10134500Y-10727000I-12500J0D01*
G01*
X10134500Y-10727000D02*
G75*
G02*
X10159500Y-10727000I12500J0D01*
G01*
X10267000Y-10257000D02*
G75*
G02*
X10242000Y-10257000I-12500J0D01*
G01*
X10242000Y-10257000D02*
G75*
G02*
X10267000Y-10257000I12500J0D01*
G01*
X10275000Y-10595000D02*
G75*
G02*
X10250000Y-10595000I-12500J0D01*
G01*
X10250000Y-10595000D02*
G75*
G02*
X10275000Y-10595000I12500J0D01*
G01*
X10282500Y-9053000D02*
G75*
G02*
X10257500Y-9053000I-12500J0D01*
G01*
X10257500Y-9053000D02*
G75*
G02*
X10282500Y-9053000I12500J0D01*
G01*
X10301000Y-9950500D02*
G75*
G02*
X10276000Y-9950500I-12500J0D01*
G01*
X10276000Y-9950500D02*
G75*
G02*
X10301000Y-9950500I12500J0D01*
G01*
X10329000Y-10163500D02*
G75*
G02*
X10304000Y-10163500I-12500J0D01*
G01*
X10304000Y-10163500D02*
G75*
G02*
X10329000Y-10163500I12500J0D01*
G01*
X10333000Y-9712500D02*
G75*
G02*
X10308000Y-9712500I-12500J0D01*
G01*
X10308000Y-9712500D02*
G75*
G02*
X10333000Y-9712500I12500J0D01*
G01*
X10376800Y-10233700D02*
G75*
G02*
X10351800Y-10233700I-12500J0D01*
G01*
X10351800Y-10233700D02*
G75*
G02*
X10376800Y-10233700I12500J0D01*
G01*
X10401500Y-9055000D02*
G75*
G02*
X10376500Y-9055000I-12500J0D01*
G01*
X10376500Y-9055000D02*
G75*
G02*
X10401500Y-9055000I12500J0D01*
G01*
X10489500Y-10800000D02*
G75*
G02*
X10464500Y-10800000I-12500J0D01*
G01*
X10464500Y-10800000D02*
G75*
G02*
X10489500Y-10800000I12500J0D01*
G01*
X10499500Y-10023700D02*
G75*
G02*
X10474500Y-10023700I-12500J0D01*
G01*
X10474500Y-10023700D02*
G75*
G02*
X10499500Y-10023700I12500J0D01*
G01*
X10520500Y-9460000D02*
G75*
G02*
X10495500Y-9460000I-12500J0D01*
G01*
X10495500Y-9460000D02*
G75*
G02*
X10520500Y-9460000I12500J0D01*
G01*
X10552500Y-10508000D02*
G75*
G02*
X10527500Y-10508000I-12500J0D01*
G01*
X10527500Y-10508000D02*
G75*
G02*
X10552500Y-10508000I12500J0D01*
G01*
X10595500Y-9030000D02*
G75*
G02*
X10570500Y-9030000I-12500J0D01*
G01*
X10570500Y-9030000D02*
G75*
G02*
X10595500Y-9030000I12500J0D01*
G01*
X10607500Y-9737500D02*
G75*
G02*
X10582500Y-9737500I-12500J0D01*
G01*
X10582500Y-9737500D02*
G75*
G02*
X10607500Y-9737500I12500J0D01*
G01*
X10622500Y-10020000D02*
G75*
G02*
X10597500Y-10020000I-12500J0D01*
G01*
X10597500Y-10020000D02*
G75*
G02*
X10622500Y-10020000I12500J0D01*
G01*
X10639000Y-9315000D02*
G75*
G02*
X10614000Y-9315000I-12500J0D01*
G01*
X10614000Y-9315000D02*
G75*
G02*
X10639000Y-9315000I12500J0D01*
G01*
X10672500Y-9970000D02*
G75*
G02*
X10647500Y-9970000I-12500J0D01*
G01*
X10647500Y-9970000D02*
G75*
G02*
X10672500Y-9970000I12500J0D01*
G01*
X10697500Y-10626500D02*
G75*
G02*
X10672500Y-10626500I-12500J0D01*
G01*
X10672500Y-10626500D02*
G75*
G02*
X10697500Y-10626500I12500J0D01*
G01*
X10739500Y-9853000D02*
G75*
G02*
X10714500Y-9853000I-12500J0D01*
G01*
X10714500Y-9853000D02*
G75*
G02*
X10739500Y-9853000I12500J0D01*
G01*
X10747500Y-10138000D02*
G75*
G02*
X10722500Y-10138000I-12500J0D01*
G01*
X10722500Y-10138000D02*
G75*
G02*
X10747500Y-10138000I12500J0D01*
G01*
X10799500Y-10815000D02*
G75*
G02*
X10774500Y-10815000I-12500J0D01*
G01*
X10774500Y-10815000D02*
G75*
G02*
X10799500Y-10815000I12500J0D01*
G01*
X10812500Y-9523000D02*
G75*
G02*
X10787500Y-9523000I-12500J0D01*
G01*
X10787500Y-9523000D02*
G75*
G02*
X10812500Y-9523000I12500J0D01*
G01*
X10827500Y-9213000D02*
G75*
G02*
X10802500Y-9213000I-12500J0D01*
G01*
X10802500Y-9213000D02*
G75*
G02*
X10827500Y-9213000I12500J0D01*
G01*
X10957500Y-10389000D02*
G75*
G02*
X10932500Y-10389000I-12500J0D01*
G01*
X10932500Y-10389000D02*
G75*
G02*
X10957500Y-10389000I12500J0D01*
G01*
X10959500Y-10270000D02*
G75*
G02*
X10934500Y-10270000I-12500J0D01*
G01*
X10934500Y-10270000D02*
G75*
G02*
X10959500Y-10270000I12500J0D01*
G01*
X10982500Y-10583000D02*
G75*
G02*
X10957500Y-10583000I-12500J0D01*
G01*
X10957500Y-10583000D02*
G75*
G02*
X10982500Y-10583000I12500J0D01*
G01*
X10984500Y-10978500D02*
G75*
G02*
X10959500Y-10978500I-12500J0D01*
G01*
X10959500Y-10978500D02*
G75*
G02*
X10984500Y-10978500I12500J0D01*
G01*
X10991000Y-9028000D02*
G75*
G02*
X10966000Y-9028000I-12500J0D01*
G01*
X10966000Y-9028000D02*
G75*
G02*
X10991000Y-9028000I12500J0D01*
G01*
X8375000Y-9405000D02*
X8375000Y-9435000D01*
X8360000Y-9420000D02*
X8390000Y-9420000D01*
X8375000Y-9485000D02*
X8375000Y-9515000D01*
X8360000Y-9500000D02*
X8390000Y-9500000D01*
X8375000Y-9565000D02*
X8375000Y-9595000D01*
X8360000Y-9580000D02*
X8390000Y-9580000D01*
X8375000Y-9905000D02*
X8375000Y-9935000D01*
X8360000Y-9920000D02*
X8390000Y-9920000D01*
X8375000Y-9985000D02*
X8375000Y-10015000D01*
X8360000Y-10000000D02*
X8390000Y-10000000D01*
X8375000Y-10065000D02*
X8375000Y-10095000D01*
X8360000Y-10080000D02*
X8390000Y-10080000D01*
X8375000Y-10405000D02*
X8375000Y-10435000D01*
X8360000Y-10420000D02*
X8390000Y-10420000D01*
X8375000Y-10485000D02*
X8375000Y-10515000D01*
X8360000Y-10500000D02*
X8390000Y-10500000D01*
X8375000Y-10565000D02*
X8375000Y-10595000D01*
X8360000Y-10580000D02*
X8390000Y-10580000D01*
X8450000Y-9405000D02*
X8450000Y-9435000D01*
X8435000Y-9420000D02*
X8465000Y-9420000D01*
X8450000Y-9485000D02*
X8450000Y-9515000D01*
X8435000Y-9500000D02*
X8465000Y-9500000D01*
X8450000Y-9565000D02*
X8450000Y-9595000D01*
X8435000Y-9580000D02*
X8465000Y-9580000D01*
X8450000Y-9905000D02*
X8450000Y-9935000D01*
X8435000Y-9920000D02*
X8465000Y-9920000D01*
X8450000Y-9985000D02*
X8450000Y-10015000D01*
X8435000Y-10000000D02*
X8465000Y-10000000D01*
X8450000Y-10065000D02*
X8450000Y-10095000D01*
X8435000Y-10080000D02*
X8465000Y-10080000D01*
X8450000Y-10405000D02*
X8450000Y-10435000D01*
X8435000Y-10420000D02*
X8465000Y-10420000D01*
X8450000Y-10485000D02*
X8450000Y-10515000D01*
X8435000Y-10500000D02*
X8465000Y-10500000D01*
X8450000Y-10565000D02*
X8450000Y-10595000D01*
X8435000Y-10580000D02*
X8465000Y-10580000D01*
X8525000Y-9405000D02*
X8525000Y-9435000D01*
X8510000Y-9420000D02*
X8540000Y-9420000D01*
X8525000Y-9485000D02*
X8525000Y-9515000D01*
X8510000Y-9500000D02*
X8540000Y-9500000D01*
X8525000Y-9905000D02*
X8525000Y-9935000D01*
X8510000Y-9920000D02*
X8540000Y-9920000D01*
X8525000Y-9985000D02*
X8525000Y-10015000D01*
X8510000Y-10000000D02*
X8540000Y-10000000D01*
X8525000Y-10405000D02*
X8525000Y-10435000D01*
X8510000Y-10420000D02*
X8540000Y-10420000D01*
X8525000Y-10485000D02*
X8525000Y-10515000D01*
X8510000Y-10500000D02*
X8540000Y-10500000D01*
X8605000Y-9075000D02*
X8605000Y-9105000D01*
X8590000Y-9090000D02*
X8620000Y-9090000D01*
X8605000Y-9135000D02*
X8605000Y-9165000D01*
X8590000Y-9150000D02*
X8620000Y-9150000D01*
X8605000Y-9195000D02*
X8605000Y-9225000D01*
X8590000Y-9210000D02*
X8620000Y-9210000D01*
X8665000Y-9075000D02*
X8665000Y-9105000D01*
X8650000Y-9090000D02*
X8680000Y-9090000D01*
X8665000Y-9135000D02*
X8665000Y-9165000D01*
X8650000Y-9150000D02*
X8680000Y-9150000D01*
X8665000Y-9195000D02*
X8665000Y-9225000D01*
X8650000Y-9210000D02*
X8680000Y-9210000D01*
X8725000Y-9075000D02*
X8725000Y-9105000D01*
X8710000Y-9090000D02*
X8740000Y-9090000D01*
X8725000Y-9135000D02*
X8725000Y-9165000D01*
X8710000Y-9150000D02*
X8740000Y-9150000D01*
X8780000Y-10145000D02*
X8780000Y-10175000D01*
X8765000Y-10160000D02*
X8795000Y-10160000D01*
X8780000Y-10645000D02*
X8780000Y-10675000D01*
X8765000Y-10660000D02*
X8795000Y-10660000D01*
X8815000Y-9735000D02*
X8815000Y-9765000D01*
X8800000Y-9750000D02*
X8830000Y-9750000D01*
X8815000Y-10235000D02*
X8815000Y-10265000D01*
X8800000Y-10250000D02*
X8830000Y-10250000D01*
X8815000Y-10735000D02*
X8815000Y-10765000D01*
X8800000Y-10750000D02*
X8830000Y-10750000D01*
X8820000Y-9295000D02*
X8820000Y-9325000D01*
X8805000Y-9310000D02*
X8835000Y-9310000D01*
X8820000Y-9795000D02*
X8820000Y-9825000D01*
X8805000Y-9810000D02*
X8835000Y-9810000D01*
X8820000Y-10295000D02*
X8820000Y-10325000D01*
X8805000Y-10310000D02*
X8835000Y-10310000D01*
X8870000Y-10145000D02*
X8870000Y-10175000D01*
X8855000Y-10160000D02*
X8885000Y-10160000D01*
X8870000Y-10645000D02*
X8870000Y-10675000D01*
X8855000Y-10660000D02*
X8885000Y-10660000D01*
X8980000Y-9865000D02*
X8980000Y-9895000D01*
X8965000Y-9880000D02*
X8995000Y-9880000D01*
X8980000Y-10365000D02*
X8980000Y-10395000D01*
X8965000Y-10380000D02*
X8995000Y-10380000D01*
X8985000Y-9450000D02*
X8985000Y-9480000D01*
X8970000Y-9465000D02*
X9000000Y-9465000D01*
X8985000Y-9520000D02*
X8985000Y-9550000D01*
X8970000Y-9535000D02*
X9000000Y-9535000D01*
X8985000Y-9605000D02*
X8985000Y-9635000D01*
X8970000Y-9620000D02*
X9000000Y-9620000D01*
X8985000Y-9950000D02*
X8985000Y-9980000D01*
X8970000Y-9965000D02*
X9000000Y-9965000D01*
X8985000Y-10020000D02*
X8985000Y-10050000D01*
X8970000Y-10035000D02*
X9000000Y-10035000D01*
X8985000Y-10105000D02*
X8985000Y-10135000D01*
X8970000Y-10120000D02*
X9000000Y-10120000D01*
X8985000Y-10450000D02*
X8985000Y-10480000D01*
X8970000Y-10465000D02*
X9000000Y-10465000D01*
X8985000Y-10520000D02*
X8985000Y-10550000D01*
X8970000Y-10535000D02*
X9000000Y-10535000D01*
X8985000Y-10605000D02*
X8985000Y-10635000D01*
X8970000Y-10620000D02*
X9000000Y-10620000D01*
X9090000Y-11260000D02*
X9090000Y-11290000D01*
X9075000Y-11275000D02*
X9105000Y-11275000D01*
X9090000Y-11320000D02*
X9090000Y-11350000D01*
X9075000Y-11335000D02*
X9105000Y-11335000D01*
X9090000Y-11380000D02*
X9090000Y-11410000D01*
X9075000Y-11395000D02*
X9105000Y-11395000D01*
X9150000Y-11260000D02*
X9150000Y-11290000D01*
X9135000Y-11275000D02*
X9165000Y-11275000D01*
X9150000Y-11320000D02*
X9150000Y-11350000D01*
X9135000Y-11335000D02*
X9165000Y-11335000D01*
X9150000Y-11380000D02*
X9150000Y-11410000D01*
X9135000Y-11395000D02*
X9165000Y-11395000D01*
X9210000Y-11320000D02*
X9210000Y-11350000D01*
X9195000Y-11335000D02*
X9225000Y-11335000D01*
X9210000Y-11380000D02*
X9210000Y-11410000D01*
X9195000Y-11395000D02*
X9225000Y-11395000D01*
X9250000Y-8800000D02*
X9250000Y-8830000D01*
X9235000Y-8815000D02*
X9265000Y-8815000D01*
X9310000Y-11165000D02*
X9310000Y-11195000D01*
X9295000Y-11180000D02*
X9325000Y-11180000D01*
X9340000Y-8765000D02*
X9340000Y-8795000D01*
X9325000Y-8780000D02*
X9355000Y-8780000D01*
X9340000Y-8855000D02*
X9340000Y-8885000D01*
X9325000Y-8870000D02*
X9355000Y-8870000D01*
X9380000Y-8970000D02*
X9380000Y-9000000D01*
X9365000Y-8985000D02*
X9395000Y-8985000D01*
X9420000Y-8360000D02*
X9420000Y-8390000D01*
X9405000Y-8375000D02*
X9435000Y-8375000D01*
X9420000Y-8435000D02*
X9420000Y-8465000D01*
X9405000Y-8450000D02*
X9435000Y-8450000D01*
X9420000Y-11460000D02*
X9420000Y-11490000D01*
X9405000Y-11475000D02*
X9435000Y-11475000D01*
X9420000Y-11535000D02*
X9420000Y-11565000D01*
X9405000Y-11550000D02*
X9435000Y-11550000D01*
X9420000Y-11610000D02*
X9420000Y-11640000D01*
X9405000Y-11625000D02*
X9435000Y-11625000D01*
X9465000Y-8970000D02*
X9465000Y-9000000D01*
X9450000Y-8985000D02*
X9480000Y-8985000D01*
X9465000Y-11000000D02*
X9465000Y-11030000D01*
X9450000Y-11015000D02*
X9480000Y-11015000D01*
X9500000Y-8360000D02*
X9500000Y-8390000D01*
X9485000Y-8375000D02*
X9515000Y-8375000D01*
X9500000Y-8435000D02*
X9500000Y-8465000D01*
X9485000Y-8450000D02*
X9515000Y-8450000D01*
X9500000Y-8510000D02*
X9500000Y-8540000D01*
X9485000Y-8525000D02*
X9515000Y-8525000D01*
X9500000Y-11460000D02*
X9500000Y-11490000D01*
X9485000Y-11475000D02*
X9515000Y-11475000D01*
X9500000Y-11535000D02*
X9500000Y-11565000D01*
X9485000Y-11550000D02*
X9515000Y-11550000D01*
X9500000Y-11610000D02*
X9500000Y-11640000D01*
X9485000Y-11625000D02*
X9515000Y-11625000D01*
X9535000Y-8970000D02*
X9535000Y-9000000D01*
X9520000Y-8985000D02*
X9550000Y-8985000D01*
X9535000Y-11000000D02*
X9535000Y-11030000D01*
X9520000Y-11015000D02*
X9550000Y-11015000D01*
X9580000Y-8360000D02*
X9580000Y-8390000D01*
X9565000Y-8375000D02*
X9595000Y-8375000D01*
X9580000Y-8435000D02*
X9580000Y-8465000D01*
X9565000Y-8450000D02*
X9595000Y-8450000D01*
X9580000Y-8510000D02*
X9580000Y-8540000D01*
X9565000Y-8525000D02*
X9595000Y-8525000D01*
X9580000Y-11535000D02*
X9580000Y-11565000D01*
X9565000Y-11550000D02*
X9595000Y-11550000D01*
X9580000Y-11610000D02*
X9580000Y-11640000D01*
X9565000Y-11625000D02*
X9595000Y-11625000D01*
X9620000Y-8965000D02*
X9620000Y-8995000D01*
X9605000Y-8980000D02*
X9635000Y-8980000D01*
X9620000Y-11000000D02*
X9620000Y-11030000D01*
X9605000Y-11015000D02*
X9635000Y-11015000D01*
X9690000Y-8805000D02*
X9690000Y-8835000D01*
X9675000Y-8820000D02*
X9705000Y-8820000D01*
X9750000Y-8800000D02*
X9750000Y-8830000D01*
X9735000Y-8815000D02*
X9765000Y-8815000D01*
X9750000Y-11170000D02*
X9750000Y-11200000D01*
X9735000Y-11185000D02*
X9765000Y-11185000D01*
X9810000Y-11165000D02*
X9810000Y-11195000D01*
X9795000Y-11180000D02*
X9825000Y-11180000D01*
X9840000Y-8765000D02*
X9840000Y-8795000D01*
X9825000Y-8780000D02*
X9855000Y-8780000D01*
X9840000Y-8855000D02*
X9840000Y-8885000D01*
X9825000Y-8870000D02*
X9855000Y-8870000D01*
X9880000Y-8970000D02*
X9880000Y-9000000D01*
X9865000Y-8985000D02*
X9895000Y-8985000D01*
X9880000Y-11005000D02*
X9880000Y-11035000D01*
X9865000Y-11020000D02*
X9895000Y-11020000D01*
X9920000Y-8360000D02*
X9920000Y-8390000D01*
X9905000Y-8375000D02*
X9935000Y-8375000D01*
X9920000Y-8435000D02*
X9920000Y-8465000D01*
X9905000Y-8450000D02*
X9935000Y-8450000D01*
X9920000Y-11460000D02*
X9920000Y-11490000D01*
X9905000Y-11475000D02*
X9935000Y-11475000D01*
X9920000Y-11535000D02*
X9920000Y-11565000D01*
X9905000Y-11550000D02*
X9935000Y-11550000D01*
X9920000Y-11610000D02*
X9920000Y-11640000D01*
X9905000Y-11625000D02*
X9935000Y-11625000D01*
X9965000Y-8970000D02*
X9965000Y-9000000D01*
X9950000Y-8985000D02*
X9980000Y-8985000D01*
X9965000Y-11000000D02*
X9965000Y-11030000D01*
X9950000Y-11015000D02*
X9980000Y-11015000D01*
X10000000Y-8360000D02*
X10000000Y-8390000D01*
X9985000Y-8375000D02*
X10015000Y-8375000D01*
X10000000Y-8435000D02*
X10000000Y-8465000D01*
X9985000Y-8450000D02*
X10015000Y-8450000D01*
X10000000Y-8510000D02*
X10000000Y-8540000D01*
X9985000Y-8525000D02*
X10015000Y-8525000D01*
X10000000Y-11460000D02*
X10000000Y-11490000D01*
X9985000Y-11475000D02*
X10015000Y-11475000D01*
X10000000Y-11535000D02*
X10000000Y-11565000D01*
X9985000Y-11550000D02*
X10015000Y-11550000D01*
X10000000Y-11610000D02*
X10000000Y-11640000D01*
X9985000Y-11625000D02*
X10015000Y-11625000D01*
X10035000Y-8970000D02*
X10035000Y-9000000D01*
X10020000Y-8985000D02*
X10050000Y-8985000D01*
X10035000Y-11000000D02*
X10035000Y-11030000D01*
X10020000Y-11015000D02*
X10050000Y-11015000D01*
X10080000Y-8360000D02*
X10080000Y-8390000D01*
X10065000Y-8375000D02*
X10095000Y-8375000D01*
X10080000Y-8435000D02*
X10080000Y-8465000D01*
X10065000Y-8450000D02*
X10095000Y-8450000D01*
X10080000Y-8510000D02*
X10080000Y-8540000D01*
X10065000Y-8525000D02*
X10095000Y-8525000D01*
X10080000Y-11535000D02*
X10080000Y-11565000D01*
X10065000Y-11550000D02*
X10095000Y-11550000D01*
X10080000Y-11610000D02*
X10080000Y-11640000D01*
X10065000Y-11625000D02*
X10095000Y-11625000D01*
X10120000Y-8965000D02*
X10120000Y-8995000D01*
X10105000Y-8980000D02*
X10135000Y-8980000D01*
X10120000Y-11000000D02*
X10120000Y-11030000D01*
X10105000Y-11015000D02*
X10135000Y-11015000D01*
X10160000Y-11115000D02*
X10160000Y-11145000D01*
X10145000Y-11130000D02*
X10175000Y-11130000D01*
X10160000Y-11205000D02*
X10160000Y-11235000D01*
X10145000Y-11220000D02*
X10175000Y-11220000D01*
X10190000Y-8805000D02*
X10190000Y-8835000D01*
X10175000Y-8820000D02*
X10205000Y-8820000D01*
X10250000Y-8800000D02*
X10250000Y-8830000D01*
X10235000Y-8815000D02*
X10265000Y-8815000D01*
X10250000Y-11170000D02*
X10250000Y-11200000D01*
X10235000Y-11185000D02*
X10265000Y-11185000D01*
X10310000Y-11165000D02*
X10310000Y-11195000D01*
X10295000Y-11180000D02*
X10325000Y-11180000D01*
X10380000Y-8970000D02*
X10380000Y-9000000D01*
X10365000Y-8985000D02*
X10395000Y-8985000D01*
X10380000Y-11005000D02*
X10380000Y-11035000D01*
X10365000Y-11020000D02*
X10395000Y-11020000D01*
X10420000Y-8360000D02*
X10420000Y-8390000D01*
X10405000Y-8375000D02*
X10435000Y-8375000D01*
X10420000Y-8435000D02*
X10420000Y-8465000D01*
X10405000Y-8450000D02*
X10435000Y-8450000D01*
X10420000Y-11460000D02*
X10420000Y-11490000D01*
X10405000Y-11475000D02*
X10435000Y-11475000D01*
X10420000Y-11535000D02*
X10420000Y-11565000D01*
X10405000Y-11550000D02*
X10435000Y-11550000D01*
X10420000Y-11610000D02*
X10420000Y-11640000D01*
X10405000Y-11625000D02*
X10435000Y-11625000D01*
X10465000Y-8970000D02*
X10465000Y-9000000D01*
X10450000Y-8985000D02*
X10480000Y-8985000D01*
X10465000Y-11000000D02*
X10465000Y-11030000D01*
X10450000Y-11015000D02*
X10480000Y-11015000D01*
X10500000Y-8360000D02*
X10500000Y-8390000D01*
X10485000Y-8375000D02*
X10515000Y-8375000D01*
X10500000Y-8435000D02*
X10500000Y-8465000D01*
X10485000Y-8450000D02*
X10515000Y-8450000D01*
X10500000Y-8510000D02*
X10500000Y-8540000D01*
X10485000Y-8525000D02*
X10515000Y-8525000D01*
X10500000Y-11460000D02*
X10500000Y-11490000D01*
X10485000Y-11475000D02*
X10515000Y-11475000D01*
X10500000Y-11535000D02*
X10500000Y-11565000D01*
X10485000Y-11550000D02*
X10515000Y-11550000D01*
X10500000Y-11610000D02*
X10500000Y-11640000D01*
X10485000Y-11625000D02*
X10515000Y-11625000D01*
X10535000Y-8970000D02*
X10535000Y-9000000D01*
X10520000Y-8985000D02*
X10550000Y-8985000D01*
X10535000Y-11000000D02*
X10535000Y-11030000D01*
X10520000Y-11015000D02*
X10550000Y-11015000D01*
X10580000Y-8360000D02*
X10580000Y-8390000D01*
X10565000Y-8375000D02*
X10595000Y-8375000D01*
X10580000Y-8435000D02*
X10580000Y-8465000D01*
X10565000Y-8450000D02*
X10595000Y-8450000D01*
X10580000Y-8510000D02*
X10580000Y-8540000D01*
X10565000Y-8525000D02*
X10595000Y-8525000D01*
X10580000Y-11535000D02*
X10580000Y-11565000D01*
X10565000Y-11550000D02*
X10595000Y-11550000D01*
X10580000Y-11610000D02*
X10580000Y-11640000D01*
X10565000Y-11625000D02*
X10595000Y-11625000D01*
X10620000Y-11000000D02*
X10620000Y-11030000D01*
X10605000Y-11015000D02*
X10635000Y-11015000D01*
X10660000Y-11115000D02*
X10660000Y-11145000D01*
X10645000Y-11130000D02*
X10675000Y-11130000D01*
X10660000Y-11205000D02*
X10660000Y-11235000D01*
X10645000Y-11220000D02*
X10675000Y-11220000D01*
X10690000Y-8805000D02*
X10690000Y-8835000D01*
X10675000Y-8820000D02*
X10705000Y-8820000D01*
X10750000Y-11170000D02*
X10750000Y-11200000D01*
X10735000Y-11185000D02*
X10765000Y-11185000D01*
X10790000Y-8590000D02*
X10790000Y-8620000D01*
X10775000Y-8605000D02*
X10805000Y-8605000D01*
X10790000Y-8650000D02*
X10790000Y-8680000D01*
X10775000Y-8665000D02*
X10805000Y-8665000D01*
X10850000Y-8590000D02*
X10850000Y-8620000D01*
X10835000Y-8605000D02*
X10865000Y-8605000D01*
X10850000Y-8650000D02*
X10850000Y-8680000D01*
X10835000Y-8665000D02*
X10865000Y-8665000D01*
X10850000Y-8710000D02*
X10850000Y-8740000D01*
X10835000Y-8725000D02*
X10865000Y-8725000D01*
X10910000Y-8590000D02*
X10910000Y-8620000D01*
X10895000Y-8605000D02*
X10925000Y-8605000D01*
X10910000Y-8650000D02*
X10910000Y-8680000D01*
X10895000Y-8665000D02*
X10925000Y-8665000D01*
X10910000Y-8710000D02*
X10910000Y-8740000D01*
X10895000Y-8725000D02*
X10925000Y-8725000D01*
X11015000Y-9365000D02*
X11015000Y-9395000D01*
X11000000Y-9380000D02*
X11030000Y-9380000D01*
X11015000Y-9450000D02*
X11015000Y-9480000D01*
X11000000Y-9465000D02*
X11030000Y-9465000D01*
X11015000Y-9520000D02*
X11015000Y-9550000D01*
X11000000Y-9535000D02*
X11030000Y-9535000D01*
X11015000Y-9865000D02*
X11015000Y-9895000D01*
X11000000Y-9880000D02*
X11030000Y-9880000D01*
X11015000Y-9950000D02*
X11015000Y-9980000D01*
X11000000Y-9965000D02*
X11030000Y-9965000D01*
X11015000Y-10020000D02*
X11015000Y-10050000D01*
X11000000Y-10035000D02*
X11030000Y-10035000D01*
X11015000Y-10365000D02*
X11015000Y-10395000D01*
X11000000Y-10380000D02*
X11030000Y-10380000D01*
X11015000Y-10450000D02*
X11015000Y-10480000D01*
X11000000Y-10465000D02*
X11030000Y-10465000D01*
X11015000Y-10520000D02*
X11015000Y-10550000D01*
X11000000Y-10535000D02*
X11030000Y-10535000D01*
X11020000Y-9605000D02*
X11020000Y-9635000D01*
X11005000Y-9620000D02*
X11035000Y-9620000D01*
X11020000Y-10105000D02*
X11020000Y-10135000D01*
X11005000Y-10120000D02*
X11035000Y-10120000D01*
X11130000Y-9325000D02*
X11130000Y-9355000D01*
X11115000Y-9340000D02*
X11145000Y-9340000D01*
X11130000Y-9825000D02*
X11130000Y-9855000D01*
X11115000Y-9840000D02*
X11145000Y-9840000D01*
X11180000Y-9675000D02*
X11180000Y-9705000D01*
X11165000Y-9690000D02*
X11195000Y-9690000D01*
X11180000Y-10175000D02*
X11180000Y-10205000D01*
X11165000Y-10190000D02*
X11195000Y-10190000D01*
X11180000Y-10675000D02*
X11180000Y-10705000D01*
X11165000Y-10690000D02*
X11195000Y-10690000D01*
X11185000Y-9235000D02*
X11185000Y-9265000D01*
X11170000Y-9250000D02*
X11200000Y-9250000D01*
X11185000Y-9735000D02*
X11185000Y-9765000D01*
X11170000Y-9750000D02*
X11200000Y-9750000D01*
X11185000Y-10235000D02*
X11185000Y-10265000D01*
X11170000Y-10250000D02*
X11200000Y-10250000D01*
X11220000Y-9325000D02*
X11220000Y-9355000D01*
X11205000Y-9340000D02*
X11235000Y-9340000D01*
X11220000Y-9825000D02*
X11220000Y-9855000D01*
X11205000Y-9840000D02*
X11235000Y-9840000D01*
X11275000Y-10835000D02*
X11275000Y-10865000D01*
X11260000Y-10850000D02*
X11290000Y-10850000D01*
X11275000Y-10895000D02*
X11275000Y-10925000D01*
X11260000Y-10910000D02*
X11290000Y-10910000D01*
X11335000Y-10775000D02*
X11335000Y-10805000D01*
X11320000Y-10790000D02*
X11350000Y-10790000D01*
X11335000Y-10835000D02*
X11335000Y-10865000D01*
X11320000Y-10850000D02*
X11350000Y-10850000D01*
X11335000Y-10895000D02*
X11335000Y-10925000D01*
X11320000Y-10910000D02*
X11350000Y-10910000D01*
X11395000Y-10775000D02*
X11395000Y-10805000D01*
X11380000Y-10790000D02*
X11410000Y-10790000D01*
X11395000Y-10835000D02*
X11395000Y-10865000D01*
X11380000Y-10850000D02*
X11410000Y-10850000D01*
X11395000Y-10895000D02*
X11395000Y-10925000D01*
X11380000Y-10910000D02*
X11410000Y-10910000D01*
X11475000Y-9485000D02*
X11475000Y-9515000D01*
X11460000Y-9500000D02*
X11490000Y-9500000D01*
X11475000Y-9565000D02*
X11475000Y-9595000D01*
X11460000Y-9580000D02*
X11490000Y-9580000D01*
X11475000Y-9985000D02*
X11475000Y-10015000D01*
X11460000Y-10000000D02*
X11490000Y-10000000D01*
X11475000Y-10065000D02*
X11475000Y-10095000D01*
X11460000Y-10080000D02*
X11490000Y-10080000D01*
X11475000Y-10485000D02*
X11475000Y-10515000D01*
X11460000Y-10500000D02*
X11490000Y-10500000D01*
X11475000Y-10565000D02*
X11475000Y-10595000D01*
X11460000Y-10580000D02*
X11490000Y-10580000D01*
X11550000Y-9405000D02*
X11550000Y-9435000D01*
X11535000Y-9420000D02*
X11565000Y-9420000D01*
X11550000Y-9485000D02*
X11550000Y-9515000D01*
X11535000Y-9500000D02*
X11565000Y-9500000D01*
X11550000Y-9565000D02*
X11550000Y-9595000D01*
X11535000Y-9580000D02*
X11565000Y-9580000D01*
X11550000Y-9905000D02*
X11550000Y-9935000D01*
X11535000Y-9920000D02*
X11565000Y-9920000D01*
X11550000Y-9985000D02*
X11550000Y-10015000D01*
X11535000Y-10000000D02*
X11565000Y-10000000D01*
X11550000Y-10065000D02*
X11550000Y-10095000D01*
X11535000Y-10080000D02*
X11565000Y-10080000D01*
X11550000Y-10405000D02*
X11550000Y-10435000D01*
X11535000Y-10420000D02*
X11565000Y-10420000D01*
X11550000Y-10485000D02*
X11550000Y-10515000D01*
X11535000Y-10500000D02*
X11565000Y-10500000D01*
X11550000Y-10565000D02*
X11550000Y-10595000D01*
X11535000Y-10580000D02*
X11565000Y-10580000D01*
X11625000Y-9405000D02*
X11625000Y-9435000D01*
X11610000Y-9420000D02*
X11640000Y-9420000D01*
X11625000Y-9485000D02*
X11625000Y-9515000D01*
X11610000Y-9500000D02*
X11640000Y-9500000D01*
X11625000Y-9565000D02*
X11625000Y-9595000D01*
X11610000Y-9580000D02*
X11640000Y-9580000D01*
X11625000Y-9905000D02*
X11625000Y-9935000D01*
X11610000Y-9920000D02*
X11640000Y-9920000D01*
X11625000Y-9985000D02*
X11625000Y-10015000D01*
X11610000Y-10000000D02*
X11640000Y-10000000D01*
X11625000Y-10065000D02*
X11625000Y-10095000D01*
X11610000Y-10080000D02*
X11640000Y-10080000D01*
X11625000Y-10405000D02*
X11625000Y-10435000D01*
X11610000Y-10420000D02*
X11640000Y-10420000D01*
X11625000Y-10485000D02*
X11625000Y-10515000D01*
X11610000Y-10500000D02*
X11640000Y-10500000D01*
X11625000Y-10565000D02*
X11625000Y-10595000D01*
X11610000Y-10580000D02*
X11640000Y-10580000D01*
D12*
X9123640Y-11668640D02*
X9123640Y-11541360D01*
X8996360Y-11541360D01*
X8996360Y-11668640D01*
X9123640Y-11668640D01*
X11003640Y-11668640D02*
X11003640Y-11541360D01*
X10876360Y-11541360D01*
X10876360Y-11668640D01*
X11003640Y-11668640D01*
D11*
X8455777Y-12116484D02*
X8455777Y-11916484D01*
X8455777Y-11916484D02*
X8503396Y-11916484D01*
X8503396Y-11916484D02*
X8531967Y-11926008D01*
X8531967Y-11926008D02*
X8551015Y-11945055D01*
X8551015Y-11945055D02*
X8560539Y-11964103D01*
X8560539Y-11964103D02*
X8570063Y-12002198D01*
X8570063Y-12002198D02*
X8570063Y-12030769D01*
X8570063Y-12030769D02*
X8560539Y-12068865D01*
X8560539Y-12068865D02*
X8551015Y-12087912D01*
X8551015Y-12087912D02*
X8531967Y-12106960D01*
X8531967Y-12106960D02*
X8503396Y-12116484D01*
X8503396Y-12116484D02*
X8455777Y-12116484D01*
X8655777Y-12116484D02*
X8655777Y-11983150D01*
X8655777Y-12021246D02*
X8665301Y-12002198D01*
X8665301Y-12002198D02*
X8674824Y-11992674D01*
X8674824Y-11992674D02*
X8693872Y-11983150D01*
X8693872Y-11983150D02*
X8712920Y-11983150D01*
X8779586Y-12116484D02*
X8779586Y-11983150D01*
X8779586Y-11916484D02*
X8770063Y-11926008D01*
X8770063Y-11926008D02*
X8779586Y-11935531D01*
X8779586Y-11935531D02*
X8789110Y-11926008D01*
X8789110Y-11926008D02*
X8779586Y-11916484D01*
X8779586Y-11916484D02*
X8779586Y-11935531D01*
X8903396Y-12116484D02*
X8884348Y-12106960D01*
X8884348Y-12106960D02*
X8874824Y-12087912D01*
X8874824Y-12087912D02*
X8874824Y-11916484D01*
X9008158Y-12116484D02*
X8989110Y-12106960D01*
X8989110Y-12106960D02*
X8979586Y-12087912D01*
X8979586Y-12087912D02*
X8979586Y-11916484D01*
X9236729Y-12116484D02*
X9236729Y-11916484D01*
X9236729Y-11916484D02*
X9303396Y-12059341D01*
X9303396Y-12059341D02*
X9370063Y-11916484D01*
X9370063Y-11916484D02*
X9370063Y-12116484D01*
X9551015Y-12116484D02*
X9551015Y-12011722D01*
X9551015Y-12011722D02*
X9541491Y-11992674D01*
X9541491Y-11992674D02*
X9522444Y-11983150D01*
X9522444Y-11983150D02*
X9484348Y-11983150D01*
X9484348Y-11983150D02*
X9465301Y-11992674D01*
X9551015Y-12106960D02*
X9531967Y-12116484D01*
X9531967Y-12116484D02*
X9484348Y-12116484D01*
X9484348Y-12116484D02*
X9465301Y-12106960D01*
X9465301Y-12106960D02*
X9455777Y-12087912D01*
X9455777Y-12087912D02*
X9455777Y-12068865D01*
X9455777Y-12068865D02*
X9465301Y-12049817D01*
X9465301Y-12049817D02*
X9484348Y-12040293D01*
X9484348Y-12040293D02*
X9531967Y-12040293D01*
X9531967Y-12040293D02*
X9551015Y-12030769D01*
X9646253Y-11983150D02*
X9646253Y-12183150D01*
X9646253Y-11992674D02*
X9665301Y-11983150D01*
X9665301Y-11983150D02*
X9703396Y-11983150D01*
X9703396Y-11983150D02*
X9722444Y-11992674D01*
X9722444Y-11992674D02*
X9731967Y-12002198D01*
X9731967Y-12002198D02*
X9741491Y-12021246D01*
X9741491Y-12021246D02*
X9741491Y-12078388D01*
X9741491Y-12078388D02*
X9731967Y-12097436D01*
X9731967Y-12097436D02*
X9722444Y-12106960D01*
X9722444Y-12106960D02*
X9703396Y-12116484D01*
X9703396Y-12116484D02*
X9665301Y-12116484D01*
X9665301Y-12116484D02*
X9646253Y-12106960D01*
X9827205Y-12097436D02*
X9836729Y-12106960D01*
X9836729Y-12106960D02*
X9827205Y-12116484D01*
X9827205Y-12116484D02*
X9817682Y-12106960D01*
X9817682Y-12106960D02*
X9827205Y-12097436D01*
X9827205Y-12097436D02*
X9827205Y-12116484D01*
X9827205Y-11992674D02*
X9836729Y-12002198D01*
X9836729Y-12002198D02*
X9827205Y-12011722D01*
X9827205Y-12011722D02*
X9817682Y-12002198D01*
X9817682Y-12002198D02*
X9827205Y-11992674D01*
X9827205Y-11992674D02*
X9827205Y-12011722D01*
D10*
X8180000Y-12437500D02*
X8195000Y-12452500D01*
X8195000Y-12437500D02*
X8180000Y-12452500D01*
D11*
X8493872Y-12336484D02*
X8512920Y-12336484D01*
X8512920Y-12336484D02*
X8531967Y-12346008D01*
X8531967Y-12346008D02*
X8541491Y-12355531D01*
X8541491Y-12355531D02*
X8551015Y-12374579D01*
X8551015Y-12374579D02*
X8560539Y-12412674D01*
X8560539Y-12412674D02*
X8560539Y-12460293D01*
X8560539Y-12460293D02*
X8551015Y-12498388D01*
X8551015Y-12498388D02*
X8541491Y-12517436D01*
X8541491Y-12517436D02*
X8531967Y-12526960D01*
X8531967Y-12526960D02*
X8512920Y-12536484D01*
X8512920Y-12536484D02*
X8493872Y-12536484D01*
X8493872Y-12536484D02*
X8474824Y-12526960D01*
X8474824Y-12526960D02*
X8465301Y-12517436D01*
X8465301Y-12517436D02*
X8455777Y-12498388D01*
X8455777Y-12498388D02*
X8446253Y-12460293D01*
X8446253Y-12460293D02*
X8446253Y-12412674D01*
X8446253Y-12412674D02*
X8455777Y-12374579D01*
X8455777Y-12374579D02*
X8465301Y-12355531D01*
X8465301Y-12355531D02*
X8474824Y-12346008D01*
X8474824Y-12346008D02*
X8493872Y-12336484D01*
X8646253Y-12517436D02*
X8655777Y-12526960D01*
X8655777Y-12526960D02*
X8646253Y-12536484D01*
X8646253Y-12536484D02*
X8636729Y-12526960D01*
X8636729Y-12526960D02*
X8646253Y-12517436D01*
X8646253Y-12517436D02*
X8646253Y-12536484D01*
X8846253Y-12536484D02*
X8731967Y-12536484D01*
X8789110Y-12536484D02*
X8789110Y-12336484D01*
X8789110Y-12336484D02*
X8770063Y-12365055D01*
X8770063Y-12365055D02*
X8751015Y-12384103D01*
X8751015Y-12384103D02*
X8731967Y-12393627D01*
X9027205Y-12336484D02*
X8931967Y-12336484D01*
X8931967Y-12336484D02*
X8922444Y-12431722D01*
X8922444Y-12431722D02*
X8931967Y-12422198D01*
X8931967Y-12422198D02*
X8951015Y-12412674D01*
X8951015Y-12412674D02*
X8998634Y-12412674D01*
X8998634Y-12412674D02*
X9017682Y-12422198D01*
X9017682Y-12422198D02*
X9027205Y-12431722D01*
X9027205Y-12431722D02*
X9036729Y-12450769D01*
X9036729Y-12450769D02*
X9036729Y-12498388D01*
X9036729Y-12498388D02*
X9027205Y-12517436D01*
X9027205Y-12517436D02*
X9017682Y-12526960D01*
X9017682Y-12526960D02*
X8998634Y-12536484D01*
X8998634Y-12536484D02*
X8951015Y-12536484D01*
X8951015Y-12536484D02*
X8931967Y-12526960D01*
X8931967Y-12526960D02*
X8922444Y-12517436D01*
X9160539Y-12336484D02*
X9179586Y-12336484D01*
X9179586Y-12336484D02*
X9198634Y-12346008D01*
X9198634Y-12346008D02*
X9208158Y-12355531D01*
X9208158Y-12355531D02*
X9217682Y-12374579D01*
X9217682Y-12374579D02*
X9227205Y-12412674D01*
X9227205Y-12412674D02*
X9227205Y-12460293D01*
X9227205Y-12460293D02*
X9217682Y-12498388D01*
X9217682Y-12498388D02*
X9208158Y-12517436D01*
X9208158Y-12517436D02*
X9198634Y-12526960D01*
X9198634Y-12526960D02*
X9179586Y-12536484D01*
X9179586Y-12536484D02*
X9160539Y-12536484D01*
X9160539Y-12536484D02*
X9141491Y-12526960D01*
X9141491Y-12526960D02*
X9131967Y-12517436D01*
X9131967Y-12517436D02*
X9122444Y-12498388D01*
X9122444Y-12498388D02*
X9112920Y-12460293D01*
X9112920Y-12460293D02*
X9112920Y-12412674D01*
X9112920Y-12412674D02*
X9122444Y-12374579D01*
X9122444Y-12374579D02*
X9131967Y-12355531D01*
X9131967Y-12355531D02*
X9141491Y-12346008D01*
X9141491Y-12346008D02*
X9160539Y-12336484D01*
X9312920Y-12536484D02*
X9312920Y-12403150D01*
X9312920Y-12422198D02*
X9322444Y-12412674D01*
X9322444Y-12412674D02*
X9341491Y-12403150D01*
X9341491Y-12403150D02*
X9370063Y-12403150D01*
X9370063Y-12403150D02*
X9389110Y-12412674D01*
X9389110Y-12412674D02*
X9398634Y-12431722D01*
X9398634Y-12431722D02*
X9398634Y-12536484D01*
X9398634Y-12431722D02*
X9408158Y-12412674D01*
X9408158Y-12412674D02*
X9427205Y-12403150D01*
X9427205Y-12403150D02*
X9455777Y-12403150D01*
X9455777Y-12403150D02*
X9474825Y-12412674D01*
X9474825Y-12412674D02*
X9484348Y-12431722D01*
X9484348Y-12431722D02*
X9484348Y-12536484D01*
X9579586Y-12536484D02*
X9579586Y-12403150D01*
X9579586Y-12422198D02*
X9589110Y-12412674D01*
X9589110Y-12412674D02*
X9608158Y-12403150D01*
X9608158Y-12403150D02*
X9636729Y-12403150D01*
X9636729Y-12403150D02*
X9655777Y-12412674D01*
X9655777Y-12412674D02*
X9665301Y-12431722D01*
X9665301Y-12431722D02*
X9665301Y-12536484D01*
X9665301Y-12431722D02*
X9674825Y-12412674D01*
X9674825Y-12412674D02*
X9693872Y-12403150D01*
X9693872Y-12403150D02*
X9722444Y-12403150D01*
X9722444Y-12403150D02*
X9741491Y-12412674D01*
X9741491Y-12412674D02*
X9751015Y-12431722D01*
X9751015Y-12431722D02*
X9751015Y-12536484D01*
X10141491Y-12326960D02*
X9970063Y-12584103D01*
X10398634Y-12336484D02*
X10417682Y-12336484D01*
X10417682Y-12336484D02*
X10436729Y-12346008D01*
X10436729Y-12346008D02*
X10446253Y-12355531D01*
X10446253Y-12355531D02*
X10455777Y-12374579D01*
X10455777Y-12374579D02*
X10465301Y-12412674D01*
X10465301Y-12412674D02*
X10465301Y-12460293D01*
X10465301Y-12460293D02*
X10455777Y-12498388D01*
X10455777Y-12498388D02*
X10446253Y-12517436D01*
X10446253Y-12517436D02*
X10436729Y-12526960D01*
X10436729Y-12526960D02*
X10417682Y-12536484D01*
X10417682Y-12536484D02*
X10398634Y-12536484D01*
X10398634Y-12536484D02*
X10379587Y-12526960D01*
X10379587Y-12526960D02*
X10370063Y-12517436D01*
X10370063Y-12517436D02*
X10360539Y-12498388D01*
X10360539Y-12498388D02*
X10351015Y-12460293D01*
X10351015Y-12460293D02*
X10351015Y-12412674D01*
X10351015Y-12412674D02*
X10360539Y-12374579D01*
X10360539Y-12374579D02*
X10370063Y-12355531D01*
X10370063Y-12355531D02*
X10379587Y-12346008D01*
X10379587Y-12346008D02*
X10398634Y-12336484D01*
X10551015Y-12517436D02*
X10560539Y-12526960D01*
X10560539Y-12526960D02*
X10551015Y-12536484D01*
X10551015Y-12536484D02*
X10541491Y-12526960D01*
X10541491Y-12526960D02*
X10551015Y-12517436D01*
X10551015Y-12517436D02*
X10551015Y-12536484D01*
X10684348Y-12336484D02*
X10703396Y-12336484D01*
X10703396Y-12336484D02*
X10722444Y-12346008D01*
X10722444Y-12346008D02*
X10731968Y-12355531D01*
X10731968Y-12355531D02*
X10741491Y-12374579D01*
X10741491Y-12374579D02*
X10751015Y-12412674D01*
X10751015Y-12412674D02*
X10751015Y-12460293D01*
X10751015Y-12460293D02*
X10741491Y-12498388D01*
X10741491Y-12498388D02*
X10731968Y-12517436D01*
X10731968Y-12517436D02*
X10722444Y-12526960D01*
X10722444Y-12526960D02*
X10703396Y-12536484D01*
X10703396Y-12536484D02*
X10684348Y-12536484D01*
X10684348Y-12536484D02*
X10665301Y-12526960D01*
X10665301Y-12526960D02*
X10655777Y-12517436D01*
X10655777Y-12517436D02*
X10646253Y-12498388D01*
X10646253Y-12498388D02*
X10636729Y-12460293D01*
X10636729Y-12460293D02*
X10636729Y-12412674D01*
X10636729Y-12412674D02*
X10646253Y-12374579D01*
X10646253Y-12374579D02*
X10655777Y-12355531D01*
X10655777Y-12355531D02*
X10665301Y-12346008D01*
X10665301Y-12346008D02*
X10684348Y-12336484D01*
X10874825Y-12336484D02*
X10893872Y-12336484D01*
X10893872Y-12336484D02*
X10912920Y-12346008D01*
X10912920Y-12346008D02*
X10922444Y-12355531D01*
X10922444Y-12355531D02*
X10931968Y-12374579D01*
X10931968Y-12374579D02*
X10941491Y-12412674D01*
X10941491Y-12412674D02*
X10941491Y-12460293D01*
X10941491Y-12460293D02*
X10931968Y-12498388D01*
X10931968Y-12498388D02*
X10922444Y-12517436D01*
X10922444Y-12517436D02*
X10912920Y-12526960D01*
X10912920Y-12526960D02*
X10893872Y-12536484D01*
X10893872Y-12536484D02*
X10874825Y-12536484D01*
X10874825Y-12536484D02*
X10855777Y-12526960D01*
X10855777Y-12526960D02*
X10846253Y-12517436D01*
X10846253Y-12517436D02*
X10836729Y-12498388D01*
X10836729Y-12498388D02*
X10827206Y-12460293D01*
X10827206Y-12460293D02*
X10827206Y-12412674D01*
X10827206Y-12412674D02*
X10836729Y-12374579D01*
X10836729Y-12374579D02*
X10846253Y-12355531D01*
X10846253Y-12355531D02*
X10855777Y-12346008D01*
X10855777Y-12346008D02*
X10874825Y-12336484D01*
X11122444Y-12336484D02*
X11027206Y-12336484D01*
X11027206Y-12336484D02*
X11017682Y-12431722D01*
X11017682Y-12431722D02*
X11027206Y-12422198D01*
X11027206Y-12422198D02*
X11046253Y-12412674D01*
X11046253Y-12412674D02*
X11093872Y-12412674D01*
X11093872Y-12412674D02*
X11112920Y-12422198D01*
X11112920Y-12422198D02*
X11122444Y-12431722D01*
X11122444Y-12431722D02*
X11131968Y-12450769D01*
X11131968Y-12450769D02*
X11131968Y-12498388D01*
X11131968Y-12498388D02*
X11122444Y-12517436D01*
X11122444Y-12517436D02*
X11112920Y-12526960D01*
X11112920Y-12526960D02*
X11093872Y-12536484D01*
X11093872Y-12536484D02*
X11046253Y-12536484D01*
X11046253Y-12536484D02*
X11027206Y-12526960D01*
X11027206Y-12526960D02*
X11017682Y-12517436D01*
X11227206Y-12536484D02*
X11265301Y-12536484D01*
X11265301Y-12536484D02*
X11284348Y-12526960D01*
X11284348Y-12526960D02*
X11293872Y-12517436D01*
X11293872Y-12517436D02*
X11312920Y-12488865D01*
X11312920Y-12488865D02*
X11322444Y-12450769D01*
X11322444Y-12450769D02*
X11322444Y-12374579D01*
X11322444Y-12374579D02*
X11312920Y-12355531D01*
X11312920Y-12355531D02*
X11303396Y-12346008D01*
X11303396Y-12346008D02*
X11284348Y-12336484D01*
X11284348Y-12336484D02*
X11246253Y-12336484D01*
X11246253Y-12336484D02*
X11227206Y-12346008D01*
X11227206Y-12346008D02*
X11217682Y-12355531D01*
X11217682Y-12355531D02*
X11208158Y-12374579D01*
X11208158Y-12374579D02*
X11208158Y-12422198D01*
X11208158Y-12422198D02*
X11217682Y-12441246D01*
X11217682Y-12441246D02*
X11227206Y-12450769D01*
X11227206Y-12450769D02*
X11246253Y-12460293D01*
X11246253Y-12460293D02*
X11284348Y-12460293D01*
X11284348Y-12460293D02*
X11303396Y-12450769D01*
X11303396Y-12450769D02*
X11312920Y-12441246D01*
X11312920Y-12441246D02*
X11322444Y-12422198D01*
X11398634Y-12336484D02*
X11398634Y-12374579D01*
X11474825Y-12336484D02*
X11474825Y-12374579D01*
X11770063Y-12612674D02*
X11760539Y-12603150D01*
X11760539Y-12603150D02*
X11741491Y-12574579D01*
X11741491Y-12574579D02*
X11731968Y-12555531D01*
X11731968Y-12555531D02*
X11722444Y-12526960D01*
X11722444Y-12526960D02*
X11712920Y-12479341D01*
X11712920Y-12479341D02*
X11712920Y-12441246D01*
X11712920Y-12441246D02*
X11722444Y-12393627D01*
X11722444Y-12393627D02*
X11731968Y-12365055D01*
X11731968Y-12365055D02*
X11741491Y-12346008D01*
X11741491Y-12346008D02*
X11760539Y-12317436D01*
X11760539Y-12317436D02*
X11770063Y-12307912D01*
X11836729Y-12355531D02*
X11846253Y-12346008D01*
X11846253Y-12346008D02*
X11865301Y-12336484D01*
X11865301Y-12336484D02*
X11912920Y-12336484D01*
X11912920Y-12336484D02*
X11931968Y-12346008D01*
X11931968Y-12346008D02*
X11941491Y-12355531D01*
X11941491Y-12355531D02*
X11951015Y-12374579D01*
X11951015Y-12374579D02*
X11951015Y-12393627D01*
X11951015Y-12393627D02*
X11941491Y-12422198D01*
X11941491Y-12422198D02*
X11827206Y-12536484D01*
X11827206Y-12536484D02*
X11951015Y-12536484D01*
X12017682Y-12336484D02*
X12151015Y-12336484D01*
X12151015Y-12336484D02*
X12065301Y-12536484D01*
X12217682Y-12355531D02*
X12227206Y-12346008D01*
X12227206Y-12346008D02*
X12246253Y-12336484D01*
X12246253Y-12336484D02*
X12293872Y-12336484D01*
X12293872Y-12336484D02*
X12312920Y-12346008D01*
X12312920Y-12346008D02*
X12322444Y-12355531D01*
X12322444Y-12355531D02*
X12331968Y-12374579D01*
X12331968Y-12374579D02*
X12331968Y-12393627D01*
X12331968Y-12393627D02*
X12322444Y-12422198D01*
X12322444Y-12422198D02*
X12208158Y-12536484D01*
X12208158Y-12536484D02*
X12331968Y-12536484D01*
X12570063Y-12536484D02*
X12570063Y-12336484D01*
X12655777Y-12536484D02*
X12655777Y-12431722D01*
X12655777Y-12431722D02*
X12646253Y-12412674D01*
X12646253Y-12412674D02*
X12627206Y-12403150D01*
X12627206Y-12403150D02*
X12598634Y-12403150D01*
X12598634Y-12403150D02*
X12579587Y-12412674D01*
X12579587Y-12412674D02*
X12570063Y-12422198D01*
X12779587Y-12536484D02*
X12760539Y-12526960D01*
X12760539Y-12526960D02*
X12751015Y-12517436D01*
X12751015Y-12517436D02*
X12741491Y-12498388D01*
X12741491Y-12498388D02*
X12741491Y-12441246D01*
X12741491Y-12441246D02*
X12751015Y-12422198D01*
X12751015Y-12422198D02*
X12760539Y-12412674D01*
X12760539Y-12412674D02*
X12779587Y-12403150D01*
X12779587Y-12403150D02*
X12808158Y-12403150D01*
X12808158Y-12403150D02*
X12827206Y-12412674D01*
X12827206Y-12412674D02*
X12836730Y-12422198D01*
X12836730Y-12422198D02*
X12846253Y-12441246D01*
X12846253Y-12441246D02*
X12846253Y-12498388D01*
X12846253Y-12498388D02*
X12836730Y-12517436D01*
X12836730Y-12517436D02*
X12827206Y-12526960D01*
X12827206Y-12526960D02*
X12808158Y-12536484D01*
X12808158Y-12536484D02*
X12779587Y-12536484D01*
X12960539Y-12536484D02*
X12941491Y-12526960D01*
X12941491Y-12526960D02*
X12931968Y-12507912D01*
X12931968Y-12507912D02*
X12931968Y-12336484D01*
X13112920Y-12526960D02*
X13093872Y-12536484D01*
X13093872Y-12536484D02*
X13055777Y-12536484D01*
X13055777Y-12536484D02*
X13036730Y-12526960D01*
X13036730Y-12526960D02*
X13027206Y-12507912D01*
X13027206Y-12507912D02*
X13027206Y-12431722D01*
X13027206Y-12431722D02*
X13036730Y-12412674D01*
X13036730Y-12412674D02*
X13055777Y-12403150D01*
X13055777Y-12403150D02*
X13093872Y-12403150D01*
X13093872Y-12403150D02*
X13112920Y-12412674D01*
X13112920Y-12412674D02*
X13122444Y-12431722D01*
X13122444Y-12431722D02*
X13122444Y-12450769D01*
X13122444Y-12450769D02*
X13027206Y-12469817D01*
X13198634Y-12526960D02*
X13217682Y-12536484D01*
X13217682Y-12536484D02*
X13255777Y-12536484D01*
X13255777Y-12536484D02*
X13274825Y-12526960D01*
X13274825Y-12526960D02*
X13284349Y-12507912D01*
X13284349Y-12507912D02*
X13284349Y-12498388D01*
X13284349Y-12498388D02*
X13274825Y-12479341D01*
X13274825Y-12479341D02*
X13255777Y-12469817D01*
X13255777Y-12469817D02*
X13227206Y-12469817D01*
X13227206Y-12469817D02*
X13208158Y-12460293D01*
X13208158Y-12460293D02*
X13198634Y-12441246D01*
X13198634Y-12441246D02*
X13198634Y-12431722D01*
X13198634Y-12431722D02*
X13208158Y-12412674D01*
X13208158Y-12412674D02*
X13227206Y-12403150D01*
X13227206Y-12403150D02*
X13255777Y-12403150D01*
X13255777Y-12403150D02*
X13274825Y-12412674D01*
X13351015Y-12612674D02*
X13360539Y-12603150D01*
X13360539Y-12603150D02*
X13379587Y-12574579D01*
X13379587Y-12574579D02*
X13389111Y-12555531D01*
X13389111Y-12555531D02*
X13398634Y-12526960D01*
X13398634Y-12526960D02*
X13408158Y-12479341D01*
X13408158Y-12479341D02*
X13408158Y-12441246D01*
X13408158Y-12441246D02*
X13398634Y-12393627D01*
X13398634Y-12393627D02*
X13389111Y-12365055D01*
X13389111Y-12365055D02*
X13379587Y-12346008D01*
X13379587Y-12346008D02*
X13360539Y-12317436D01*
X13360539Y-12317436D02*
X13351015Y-12307912D01*
D10*
X8195000Y-12709000D02*
G75*
G02*
X8170000Y-12709000I-12500J0D01*
G01*
X8170000Y-12709000D02*
G75*
G02*
X8195000Y-12709000I12500J0D01*
G01*
D11*
X8493872Y-12600484D02*
X8512920Y-12600484D01*
X8512920Y-12600484D02*
X8531967Y-12610008D01*
X8531967Y-12610008D02*
X8541491Y-12619531D01*
X8541491Y-12619531D02*
X8551015Y-12638579D01*
X8551015Y-12638579D02*
X8560539Y-12676674D01*
X8560539Y-12676674D02*
X8560539Y-12724293D01*
X8560539Y-12724293D02*
X8551015Y-12762388D01*
X8551015Y-12762388D02*
X8541491Y-12781436D01*
X8541491Y-12781436D02*
X8531967Y-12790960D01*
X8531967Y-12790960D02*
X8512920Y-12800484D01*
X8512920Y-12800484D02*
X8493872Y-12800484D01*
X8493872Y-12800484D02*
X8474824Y-12790960D01*
X8474824Y-12790960D02*
X8465301Y-12781436D01*
X8465301Y-12781436D02*
X8455777Y-12762388D01*
X8455777Y-12762388D02*
X8446253Y-12724293D01*
X8446253Y-12724293D02*
X8446253Y-12676674D01*
X8446253Y-12676674D02*
X8455777Y-12638579D01*
X8455777Y-12638579D02*
X8465301Y-12619531D01*
X8465301Y-12619531D02*
X8474824Y-12610008D01*
X8474824Y-12610008D02*
X8493872Y-12600484D01*
X8646253Y-12781436D02*
X8655777Y-12790960D01*
X8655777Y-12790960D02*
X8646253Y-12800484D01*
X8646253Y-12800484D02*
X8636729Y-12790960D01*
X8636729Y-12790960D02*
X8646253Y-12781436D01*
X8646253Y-12781436D02*
X8646253Y-12800484D01*
X8731967Y-12619531D02*
X8741491Y-12610008D01*
X8741491Y-12610008D02*
X8760539Y-12600484D01*
X8760539Y-12600484D02*
X8808158Y-12600484D01*
X8808158Y-12600484D02*
X8827205Y-12610008D01*
X8827205Y-12610008D02*
X8836729Y-12619531D01*
X8836729Y-12619531D02*
X8846253Y-12638579D01*
X8846253Y-12638579D02*
X8846253Y-12657627D01*
X8846253Y-12657627D02*
X8836729Y-12686198D01*
X8836729Y-12686198D02*
X8722444Y-12800484D01*
X8722444Y-12800484D02*
X8846253Y-12800484D01*
X9027205Y-12600484D02*
X8931967Y-12600484D01*
X8931967Y-12600484D02*
X8922444Y-12695722D01*
X8922444Y-12695722D02*
X8931967Y-12686198D01*
X8931967Y-12686198D02*
X8951015Y-12676674D01*
X8951015Y-12676674D02*
X8998634Y-12676674D01*
X8998634Y-12676674D02*
X9017682Y-12686198D01*
X9017682Y-12686198D02*
X9027205Y-12695722D01*
X9027205Y-12695722D02*
X9036729Y-12714769D01*
X9036729Y-12714769D02*
X9036729Y-12762388D01*
X9036729Y-12762388D02*
X9027205Y-12781436D01*
X9027205Y-12781436D02*
X9017682Y-12790960D01*
X9017682Y-12790960D02*
X8998634Y-12800484D01*
X8998634Y-12800484D02*
X8951015Y-12800484D01*
X8951015Y-12800484D02*
X8931967Y-12790960D01*
X8931967Y-12790960D02*
X8922444Y-12781436D01*
X9160539Y-12600484D02*
X9179586Y-12600484D01*
X9179586Y-12600484D02*
X9198634Y-12610008D01*
X9198634Y-12610008D02*
X9208158Y-12619531D01*
X9208158Y-12619531D02*
X9217682Y-12638579D01*
X9217682Y-12638579D02*
X9227205Y-12676674D01*
X9227205Y-12676674D02*
X9227205Y-12724293D01*
X9227205Y-12724293D02*
X9217682Y-12762388D01*
X9217682Y-12762388D02*
X9208158Y-12781436D01*
X9208158Y-12781436D02*
X9198634Y-12790960D01*
X9198634Y-12790960D02*
X9179586Y-12800484D01*
X9179586Y-12800484D02*
X9160539Y-12800484D01*
X9160539Y-12800484D02*
X9141491Y-12790960D01*
X9141491Y-12790960D02*
X9131967Y-12781436D01*
X9131967Y-12781436D02*
X9122444Y-12762388D01*
X9122444Y-12762388D02*
X9112920Y-12724293D01*
X9112920Y-12724293D02*
X9112920Y-12676674D01*
X9112920Y-12676674D02*
X9122444Y-12638579D01*
X9122444Y-12638579D02*
X9131967Y-12619531D01*
X9131967Y-12619531D02*
X9141491Y-12610008D01*
X9141491Y-12610008D02*
X9160539Y-12600484D01*
X9312920Y-12800484D02*
X9312920Y-12667150D01*
X9312920Y-12686198D02*
X9322444Y-12676674D01*
X9322444Y-12676674D02*
X9341491Y-12667150D01*
X9341491Y-12667150D02*
X9370063Y-12667150D01*
X9370063Y-12667150D02*
X9389110Y-12676674D01*
X9389110Y-12676674D02*
X9398634Y-12695722D01*
X9398634Y-12695722D02*
X9398634Y-12800484D01*
X9398634Y-12695722D02*
X9408158Y-12676674D01*
X9408158Y-12676674D02*
X9427205Y-12667150D01*
X9427205Y-12667150D02*
X9455777Y-12667150D01*
X9455777Y-12667150D02*
X9474825Y-12676674D01*
X9474825Y-12676674D02*
X9484348Y-12695722D01*
X9484348Y-12695722D02*
X9484348Y-12800484D01*
X9579586Y-12800484D02*
X9579586Y-12667150D01*
X9579586Y-12686198D02*
X9589110Y-12676674D01*
X9589110Y-12676674D02*
X9608158Y-12667150D01*
X9608158Y-12667150D02*
X9636729Y-12667150D01*
X9636729Y-12667150D02*
X9655777Y-12676674D01*
X9655777Y-12676674D02*
X9665301Y-12695722D01*
X9665301Y-12695722D02*
X9665301Y-12800484D01*
X9665301Y-12695722D02*
X9674825Y-12676674D01*
X9674825Y-12676674D02*
X9693872Y-12667150D01*
X9693872Y-12667150D02*
X9722444Y-12667150D01*
X9722444Y-12667150D02*
X9741491Y-12676674D01*
X9741491Y-12676674D02*
X9751015Y-12695722D01*
X9751015Y-12695722D02*
X9751015Y-12800484D01*
X10141491Y-12590960D02*
X9970063Y-12848103D01*
X10398634Y-12600484D02*
X10417682Y-12600484D01*
X10417682Y-12600484D02*
X10436729Y-12610008D01*
X10436729Y-12610008D02*
X10446253Y-12619531D01*
X10446253Y-12619531D02*
X10455777Y-12638579D01*
X10455777Y-12638579D02*
X10465301Y-12676674D01*
X10465301Y-12676674D02*
X10465301Y-12724293D01*
X10465301Y-12724293D02*
X10455777Y-12762388D01*
X10455777Y-12762388D02*
X10446253Y-12781436D01*
X10446253Y-12781436D02*
X10436729Y-12790960D01*
X10436729Y-12790960D02*
X10417682Y-12800484D01*
X10417682Y-12800484D02*
X10398634Y-12800484D01*
X10398634Y-12800484D02*
X10379587Y-12790960D01*
X10379587Y-12790960D02*
X10370063Y-12781436D01*
X10370063Y-12781436D02*
X10360539Y-12762388D01*
X10360539Y-12762388D02*
X10351015Y-12724293D01*
X10351015Y-12724293D02*
X10351015Y-12676674D01*
X10351015Y-12676674D02*
X10360539Y-12638579D01*
X10360539Y-12638579D02*
X10370063Y-12619531D01*
X10370063Y-12619531D02*
X10379587Y-12610008D01*
X10379587Y-12610008D02*
X10398634Y-12600484D01*
X10551015Y-12781436D02*
X10560539Y-12790960D01*
X10560539Y-12790960D02*
X10551015Y-12800484D01*
X10551015Y-12800484D02*
X10541491Y-12790960D01*
X10541491Y-12790960D02*
X10551015Y-12781436D01*
X10551015Y-12781436D02*
X10551015Y-12800484D01*
X10684348Y-12600484D02*
X10703396Y-12600484D01*
X10703396Y-12600484D02*
X10722444Y-12610008D01*
X10722444Y-12610008D02*
X10731968Y-12619531D01*
X10731968Y-12619531D02*
X10741491Y-12638579D01*
X10741491Y-12638579D02*
X10751015Y-12676674D01*
X10751015Y-12676674D02*
X10751015Y-12724293D01*
X10751015Y-12724293D02*
X10741491Y-12762388D01*
X10741491Y-12762388D02*
X10731968Y-12781436D01*
X10731968Y-12781436D02*
X10722444Y-12790960D01*
X10722444Y-12790960D02*
X10703396Y-12800484D01*
X10703396Y-12800484D02*
X10684348Y-12800484D01*
X10684348Y-12800484D02*
X10665301Y-12790960D01*
X10665301Y-12790960D02*
X10655777Y-12781436D01*
X10655777Y-12781436D02*
X10646253Y-12762388D01*
X10646253Y-12762388D02*
X10636729Y-12724293D01*
X10636729Y-12724293D02*
X10636729Y-12676674D01*
X10636729Y-12676674D02*
X10646253Y-12638579D01*
X10646253Y-12638579D02*
X10655777Y-12619531D01*
X10655777Y-12619531D02*
X10665301Y-12610008D01*
X10665301Y-12610008D02*
X10684348Y-12600484D01*
X10874825Y-12600484D02*
X10893872Y-12600484D01*
X10893872Y-12600484D02*
X10912920Y-12610008D01*
X10912920Y-12610008D02*
X10922444Y-12619531D01*
X10922444Y-12619531D02*
X10931968Y-12638579D01*
X10931968Y-12638579D02*
X10941491Y-12676674D01*
X10941491Y-12676674D02*
X10941491Y-12724293D01*
X10941491Y-12724293D02*
X10931968Y-12762388D01*
X10931968Y-12762388D02*
X10922444Y-12781436D01*
X10922444Y-12781436D02*
X10912920Y-12790960D01*
X10912920Y-12790960D02*
X10893872Y-12800484D01*
X10893872Y-12800484D02*
X10874825Y-12800484D01*
X10874825Y-12800484D02*
X10855777Y-12790960D01*
X10855777Y-12790960D02*
X10846253Y-12781436D01*
X10846253Y-12781436D02*
X10836729Y-12762388D01*
X10836729Y-12762388D02*
X10827206Y-12724293D01*
X10827206Y-12724293D02*
X10827206Y-12676674D01*
X10827206Y-12676674D02*
X10836729Y-12638579D01*
X10836729Y-12638579D02*
X10846253Y-12619531D01*
X10846253Y-12619531D02*
X10855777Y-12610008D01*
X10855777Y-12610008D02*
X10874825Y-12600484D01*
X11036729Y-12800484D02*
X11074825Y-12800484D01*
X11074825Y-12800484D02*
X11093872Y-12790960D01*
X11093872Y-12790960D02*
X11103396Y-12781436D01*
X11103396Y-12781436D02*
X11122444Y-12752865D01*
X11122444Y-12752865D02*
X11131968Y-12714769D01*
X11131968Y-12714769D02*
X11131968Y-12638579D01*
X11131968Y-12638579D02*
X11122444Y-12619531D01*
X11122444Y-12619531D02*
X11112920Y-12610008D01*
X11112920Y-12610008D02*
X11093872Y-12600484D01*
X11093872Y-12600484D02*
X11055777Y-12600484D01*
X11055777Y-12600484D02*
X11036729Y-12610008D01*
X11036729Y-12610008D02*
X11027206Y-12619531D01*
X11027206Y-12619531D02*
X11017682Y-12638579D01*
X11017682Y-12638579D02*
X11017682Y-12686198D01*
X11017682Y-12686198D02*
X11027206Y-12705246D01*
X11027206Y-12705246D02*
X11036729Y-12714769D01*
X11036729Y-12714769D02*
X11055777Y-12724293D01*
X11055777Y-12724293D02*
X11093872Y-12724293D01*
X11093872Y-12724293D02*
X11112920Y-12714769D01*
X11112920Y-12714769D02*
X11122444Y-12705246D01*
X11122444Y-12705246D02*
X11131968Y-12686198D01*
X11246253Y-12686198D02*
X11227206Y-12676674D01*
X11227206Y-12676674D02*
X11217682Y-12667150D01*
X11217682Y-12667150D02*
X11208158Y-12648103D01*
X11208158Y-12648103D02*
X11208158Y-12638579D01*
X11208158Y-12638579D02*
X11217682Y-12619531D01*
X11217682Y-12619531D02*
X11227206Y-12610008D01*
X11227206Y-12610008D02*
X11246253Y-12600484D01*
X11246253Y-12600484D02*
X11284348Y-12600484D01*
X11284348Y-12600484D02*
X11303396Y-12610008D01*
X11303396Y-12610008D02*
X11312920Y-12619531D01*
X11312920Y-12619531D02*
X11322444Y-12638579D01*
X11322444Y-12638579D02*
X11322444Y-12648103D01*
X11322444Y-12648103D02*
X11312920Y-12667150D01*
X11312920Y-12667150D02*
X11303396Y-12676674D01*
X11303396Y-12676674D02*
X11284348Y-12686198D01*
X11284348Y-12686198D02*
X11246253Y-12686198D01*
X11246253Y-12686198D02*
X11227206Y-12695722D01*
X11227206Y-12695722D02*
X11217682Y-12705246D01*
X11217682Y-12705246D02*
X11208158Y-12724293D01*
X11208158Y-12724293D02*
X11208158Y-12762388D01*
X11208158Y-12762388D02*
X11217682Y-12781436D01*
X11217682Y-12781436D02*
X11227206Y-12790960D01*
X11227206Y-12790960D02*
X11246253Y-12800484D01*
X11246253Y-12800484D02*
X11284348Y-12800484D01*
X11284348Y-12800484D02*
X11303396Y-12790960D01*
X11303396Y-12790960D02*
X11312920Y-12781436D01*
X11312920Y-12781436D02*
X11322444Y-12762388D01*
X11322444Y-12762388D02*
X11322444Y-12724293D01*
X11322444Y-12724293D02*
X11312920Y-12705246D01*
X11312920Y-12705246D02*
X11303396Y-12695722D01*
X11303396Y-12695722D02*
X11284348Y-12686198D01*
X11398634Y-12600484D02*
X11398634Y-12638579D01*
X11474825Y-12600484D02*
X11474825Y-12638579D01*
X11770063Y-12876674D02*
X11760539Y-12867150D01*
X11760539Y-12867150D02*
X11741491Y-12838579D01*
X11741491Y-12838579D02*
X11731968Y-12819531D01*
X11731968Y-12819531D02*
X11722444Y-12790960D01*
X11722444Y-12790960D02*
X11712920Y-12743341D01*
X11712920Y-12743341D02*
X11712920Y-12705246D01*
X11712920Y-12705246D02*
X11722444Y-12657627D01*
X11722444Y-12657627D02*
X11731968Y-12629055D01*
X11731968Y-12629055D02*
X11741491Y-12610008D01*
X11741491Y-12610008D02*
X11760539Y-12581436D01*
X11760539Y-12581436D02*
X11770063Y-12571912D01*
X11827206Y-12600484D02*
X11960539Y-12600484D01*
X11960539Y-12600484D02*
X11874825Y-12800484D01*
X12017682Y-12600484D02*
X12141491Y-12600484D01*
X12141491Y-12600484D02*
X12074825Y-12676674D01*
X12074825Y-12676674D02*
X12103396Y-12676674D01*
X12103396Y-12676674D02*
X12122444Y-12686198D01*
X12122444Y-12686198D02*
X12131968Y-12695722D01*
X12131968Y-12695722D02*
X12141491Y-12714769D01*
X12141491Y-12714769D02*
X12141491Y-12762388D01*
X12141491Y-12762388D02*
X12131968Y-12781436D01*
X12131968Y-12781436D02*
X12122444Y-12790960D01*
X12122444Y-12790960D02*
X12103396Y-12800484D01*
X12103396Y-12800484D02*
X12046253Y-12800484D01*
X12046253Y-12800484D02*
X12027206Y-12790960D01*
X12027206Y-12790960D02*
X12017682Y-12781436D01*
X12379587Y-12800484D02*
X12379587Y-12600484D01*
X12465301Y-12800484D02*
X12465301Y-12695722D01*
X12465301Y-12695722D02*
X12455777Y-12676674D01*
X12455777Y-12676674D02*
X12436730Y-12667150D01*
X12436730Y-12667150D02*
X12408158Y-12667150D01*
X12408158Y-12667150D02*
X12389110Y-12676674D01*
X12389110Y-12676674D02*
X12379587Y-12686198D01*
X12589110Y-12800484D02*
X12570063Y-12790960D01*
X12570063Y-12790960D02*
X12560539Y-12781436D01*
X12560539Y-12781436D02*
X12551015Y-12762388D01*
X12551015Y-12762388D02*
X12551015Y-12705246D01*
X12551015Y-12705246D02*
X12560539Y-12686198D01*
X12560539Y-12686198D02*
X12570063Y-12676674D01*
X12570063Y-12676674D02*
X12589110Y-12667150D01*
X12589110Y-12667150D02*
X12617682Y-12667150D01*
X12617682Y-12667150D02*
X12636730Y-12676674D01*
X12636730Y-12676674D02*
X12646253Y-12686198D01*
X12646253Y-12686198D02*
X12655777Y-12705246D01*
X12655777Y-12705246D02*
X12655777Y-12762388D01*
X12655777Y-12762388D02*
X12646253Y-12781436D01*
X12646253Y-12781436D02*
X12636730Y-12790960D01*
X12636730Y-12790960D02*
X12617682Y-12800484D01*
X12617682Y-12800484D02*
X12589110Y-12800484D01*
X12770063Y-12800484D02*
X12751015Y-12790960D01*
X12751015Y-12790960D02*
X12741491Y-12771912D01*
X12741491Y-12771912D02*
X12741491Y-12600484D01*
X12922444Y-12790960D02*
X12903396Y-12800484D01*
X12903396Y-12800484D02*
X12865301Y-12800484D01*
X12865301Y-12800484D02*
X12846253Y-12790960D01*
X12846253Y-12790960D02*
X12836730Y-12771912D01*
X12836730Y-12771912D02*
X12836730Y-12695722D01*
X12836730Y-12695722D02*
X12846253Y-12676674D01*
X12846253Y-12676674D02*
X12865301Y-12667150D01*
X12865301Y-12667150D02*
X12903396Y-12667150D01*
X12903396Y-12667150D02*
X12922444Y-12676674D01*
X12922444Y-12676674D02*
X12931968Y-12695722D01*
X12931968Y-12695722D02*
X12931968Y-12714769D01*
X12931968Y-12714769D02*
X12836730Y-12733817D01*
X13008158Y-12790960D02*
X13027206Y-12800484D01*
X13027206Y-12800484D02*
X13065301Y-12800484D01*
X13065301Y-12800484D02*
X13084349Y-12790960D01*
X13084349Y-12790960D02*
X13093872Y-12771912D01*
X13093872Y-12771912D02*
X13093872Y-12762388D01*
X13093872Y-12762388D02*
X13084349Y-12743341D01*
X13084349Y-12743341D02*
X13065301Y-12733817D01*
X13065301Y-12733817D02*
X13036730Y-12733817D01*
X13036730Y-12733817D02*
X13017682Y-12724293D01*
X13017682Y-12724293D02*
X13008158Y-12705246D01*
X13008158Y-12705246D02*
X13008158Y-12695722D01*
X13008158Y-12695722D02*
X13017682Y-12676674D01*
X13017682Y-12676674D02*
X13036730Y-12667150D01*
X13036730Y-12667150D02*
X13065301Y-12667150D01*
X13065301Y-12667150D02*
X13084349Y-12676674D01*
X13160539Y-12876674D02*
X13170063Y-12867150D01*
X13170063Y-12867150D02*
X13189111Y-12838579D01*
X13189111Y-12838579D02*
X13198634Y-12819531D01*
X13198634Y-12819531D02*
X13208158Y-12790960D01*
X13208158Y-12790960D02*
X13217682Y-12743341D01*
X13217682Y-12743341D02*
X13217682Y-12705246D01*
X13217682Y-12705246D02*
X13208158Y-12657627D01*
X13208158Y-12657627D02*
X13198634Y-12629055D01*
X13198634Y-12629055D02*
X13189111Y-12610008D01*
X13189111Y-12610008D02*
X13170063Y-12581436D01*
X13170063Y-12581436D02*
X13160539Y-12571912D01*
D10*
X8180000Y-12958000D02*
X8180000Y-12988000D01*
X8165000Y-12973000D02*
X8195000Y-12973000D01*
D11*
X8493872Y-12864484D02*
X8512920Y-12864484D01*
X8512920Y-12864484D02*
X8531967Y-12874008D01*
X8531967Y-12874008D02*
X8541491Y-12883531D01*
X8541491Y-12883531D02*
X8551015Y-12902579D01*
X8551015Y-12902579D02*
X8560539Y-12940674D01*
X8560539Y-12940674D02*
X8560539Y-12988293D01*
X8560539Y-12988293D02*
X8551015Y-13026388D01*
X8551015Y-13026388D02*
X8541491Y-13045436D01*
X8541491Y-13045436D02*
X8531967Y-13054960D01*
X8531967Y-13054960D02*
X8512920Y-13064484D01*
X8512920Y-13064484D02*
X8493872Y-13064484D01*
X8493872Y-13064484D02*
X8474824Y-13054960D01*
X8474824Y-13054960D02*
X8465301Y-13045436D01*
X8465301Y-13045436D02*
X8455777Y-13026388D01*
X8455777Y-13026388D02*
X8446253Y-12988293D01*
X8446253Y-12988293D02*
X8446253Y-12940674D01*
X8446253Y-12940674D02*
X8455777Y-12902579D01*
X8455777Y-12902579D02*
X8465301Y-12883531D01*
X8465301Y-12883531D02*
X8474824Y-12874008D01*
X8474824Y-12874008D02*
X8493872Y-12864484D01*
X8646253Y-13045436D02*
X8655777Y-13054960D01*
X8655777Y-13054960D02*
X8646253Y-13064484D01*
X8646253Y-13064484D02*
X8636729Y-13054960D01*
X8636729Y-13054960D02*
X8646253Y-13045436D01*
X8646253Y-13045436D02*
X8646253Y-13064484D01*
X8722444Y-12864484D02*
X8846253Y-12864484D01*
X8846253Y-12864484D02*
X8779586Y-12940674D01*
X8779586Y-12940674D02*
X8808158Y-12940674D01*
X8808158Y-12940674D02*
X8827205Y-12950198D01*
X8827205Y-12950198D02*
X8836729Y-12959722D01*
X8836729Y-12959722D02*
X8846253Y-12978769D01*
X8846253Y-12978769D02*
X8846253Y-13026388D01*
X8846253Y-13026388D02*
X8836729Y-13045436D01*
X8836729Y-13045436D02*
X8827205Y-13054960D01*
X8827205Y-13054960D02*
X8808158Y-13064484D01*
X8808158Y-13064484D02*
X8751015Y-13064484D01*
X8751015Y-13064484D02*
X8731967Y-13054960D01*
X8731967Y-13054960D02*
X8722444Y-13045436D01*
X8970063Y-12864484D02*
X8989110Y-12864484D01*
X8989110Y-12864484D02*
X9008158Y-12874008D01*
X9008158Y-12874008D02*
X9017682Y-12883531D01*
X9017682Y-12883531D02*
X9027205Y-12902579D01*
X9027205Y-12902579D02*
X9036729Y-12940674D01*
X9036729Y-12940674D02*
X9036729Y-12988293D01*
X9036729Y-12988293D02*
X9027205Y-13026388D01*
X9027205Y-13026388D02*
X9017682Y-13045436D01*
X9017682Y-13045436D02*
X9008158Y-13054960D01*
X9008158Y-13054960D02*
X8989110Y-13064484D01*
X8989110Y-13064484D02*
X8970063Y-13064484D01*
X8970063Y-13064484D02*
X8951015Y-13054960D01*
X8951015Y-13054960D02*
X8941491Y-13045436D01*
X8941491Y-13045436D02*
X8931967Y-13026388D01*
X8931967Y-13026388D02*
X8922444Y-12988293D01*
X8922444Y-12988293D02*
X8922444Y-12940674D01*
X8922444Y-12940674D02*
X8931967Y-12902579D01*
X8931967Y-12902579D02*
X8941491Y-12883531D01*
X8941491Y-12883531D02*
X8951015Y-12874008D01*
X8951015Y-12874008D02*
X8970063Y-12864484D01*
X9160539Y-12864484D02*
X9179586Y-12864484D01*
X9179586Y-12864484D02*
X9198634Y-12874008D01*
X9198634Y-12874008D02*
X9208158Y-12883531D01*
X9208158Y-12883531D02*
X9217682Y-12902579D01*
X9217682Y-12902579D02*
X9227205Y-12940674D01*
X9227205Y-12940674D02*
X9227205Y-12988293D01*
X9227205Y-12988293D02*
X9217682Y-13026388D01*
X9217682Y-13026388D02*
X9208158Y-13045436D01*
X9208158Y-13045436D02*
X9198634Y-13054960D01*
X9198634Y-13054960D02*
X9179586Y-13064484D01*
X9179586Y-13064484D02*
X9160539Y-13064484D01*
X9160539Y-13064484D02*
X9141491Y-13054960D01*
X9141491Y-13054960D02*
X9131967Y-13045436D01*
X9131967Y-13045436D02*
X9122444Y-13026388D01*
X9122444Y-13026388D02*
X9112920Y-12988293D01*
X9112920Y-12988293D02*
X9112920Y-12940674D01*
X9112920Y-12940674D02*
X9122444Y-12902579D01*
X9122444Y-12902579D02*
X9131967Y-12883531D01*
X9131967Y-12883531D02*
X9141491Y-12874008D01*
X9141491Y-12874008D02*
X9160539Y-12864484D01*
X9312920Y-13064484D02*
X9312920Y-12931150D01*
X9312920Y-12950198D02*
X9322444Y-12940674D01*
X9322444Y-12940674D02*
X9341491Y-12931150D01*
X9341491Y-12931150D02*
X9370063Y-12931150D01*
X9370063Y-12931150D02*
X9389110Y-12940674D01*
X9389110Y-12940674D02*
X9398634Y-12959722D01*
X9398634Y-12959722D02*
X9398634Y-13064484D01*
X9398634Y-12959722D02*
X9408158Y-12940674D01*
X9408158Y-12940674D02*
X9427205Y-12931150D01*
X9427205Y-12931150D02*
X9455777Y-12931150D01*
X9455777Y-12931150D02*
X9474825Y-12940674D01*
X9474825Y-12940674D02*
X9484348Y-12959722D01*
X9484348Y-12959722D02*
X9484348Y-13064484D01*
X9579586Y-13064484D02*
X9579586Y-12931150D01*
X9579586Y-12950198D02*
X9589110Y-12940674D01*
X9589110Y-12940674D02*
X9608158Y-12931150D01*
X9608158Y-12931150D02*
X9636729Y-12931150D01*
X9636729Y-12931150D02*
X9655777Y-12940674D01*
X9655777Y-12940674D02*
X9665301Y-12959722D01*
X9665301Y-12959722D02*
X9665301Y-13064484D01*
X9665301Y-12959722D02*
X9674825Y-12940674D01*
X9674825Y-12940674D02*
X9693872Y-12931150D01*
X9693872Y-12931150D02*
X9722444Y-12931150D01*
X9722444Y-12931150D02*
X9741491Y-12940674D01*
X9741491Y-12940674D02*
X9751015Y-12959722D01*
X9751015Y-12959722D02*
X9751015Y-13064484D01*
X10141491Y-12854960D02*
X9970063Y-13112103D01*
X10398634Y-12864484D02*
X10417682Y-12864484D01*
X10417682Y-12864484D02*
X10436729Y-12874008D01*
X10436729Y-12874008D02*
X10446253Y-12883531D01*
X10446253Y-12883531D02*
X10455777Y-12902579D01*
X10455777Y-12902579D02*
X10465301Y-12940674D01*
X10465301Y-12940674D02*
X10465301Y-12988293D01*
X10465301Y-12988293D02*
X10455777Y-13026388D01*
X10455777Y-13026388D02*
X10446253Y-13045436D01*
X10446253Y-13045436D02*
X10436729Y-13054960D01*
X10436729Y-13054960D02*
X10417682Y-13064484D01*
X10417682Y-13064484D02*
X10398634Y-13064484D01*
X10398634Y-13064484D02*
X10379587Y-13054960D01*
X10379587Y-13054960D02*
X10370063Y-13045436D01*
X10370063Y-13045436D02*
X10360539Y-13026388D01*
X10360539Y-13026388D02*
X10351015Y-12988293D01*
X10351015Y-12988293D02*
X10351015Y-12940674D01*
X10351015Y-12940674D02*
X10360539Y-12902579D01*
X10360539Y-12902579D02*
X10370063Y-12883531D01*
X10370063Y-12883531D02*
X10379587Y-12874008D01*
X10379587Y-12874008D02*
X10398634Y-12864484D01*
X10551015Y-13045436D02*
X10560539Y-13054960D01*
X10560539Y-13054960D02*
X10551015Y-13064484D01*
X10551015Y-13064484D02*
X10541491Y-13054960D01*
X10541491Y-13054960D02*
X10551015Y-13045436D01*
X10551015Y-13045436D02*
X10551015Y-13064484D01*
X10684348Y-12864484D02*
X10703396Y-12864484D01*
X10703396Y-12864484D02*
X10722444Y-12874008D01*
X10722444Y-12874008D02*
X10731968Y-12883531D01*
X10731968Y-12883531D02*
X10741491Y-12902579D01*
X10741491Y-12902579D02*
X10751015Y-12940674D01*
X10751015Y-12940674D02*
X10751015Y-12988293D01*
X10751015Y-12988293D02*
X10741491Y-13026388D01*
X10741491Y-13026388D02*
X10731968Y-13045436D01*
X10731968Y-13045436D02*
X10722444Y-13054960D01*
X10722444Y-13054960D02*
X10703396Y-13064484D01*
X10703396Y-13064484D02*
X10684348Y-13064484D01*
X10684348Y-13064484D02*
X10665301Y-13054960D01*
X10665301Y-13054960D02*
X10655777Y-13045436D01*
X10655777Y-13045436D02*
X10646253Y-13026388D01*
X10646253Y-13026388D02*
X10636729Y-12988293D01*
X10636729Y-12988293D02*
X10636729Y-12940674D01*
X10636729Y-12940674D02*
X10646253Y-12902579D01*
X10646253Y-12902579D02*
X10655777Y-12883531D01*
X10655777Y-12883531D02*
X10665301Y-12874008D01*
X10665301Y-12874008D02*
X10684348Y-12864484D01*
X10941491Y-13064484D02*
X10827206Y-13064484D01*
X10884348Y-13064484D02*
X10884348Y-12864484D01*
X10884348Y-12864484D02*
X10865301Y-12893055D01*
X10865301Y-12893055D02*
X10846253Y-12912103D01*
X10846253Y-12912103D02*
X10827206Y-12921627D01*
X11131968Y-13064484D02*
X11017682Y-13064484D01*
X11074825Y-13064484D02*
X11074825Y-12864484D01*
X11074825Y-12864484D02*
X11055777Y-12893055D01*
X11055777Y-12893055D02*
X11036729Y-12912103D01*
X11036729Y-12912103D02*
X11017682Y-12921627D01*
X11246253Y-12950198D02*
X11227206Y-12940674D01*
X11227206Y-12940674D02*
X11217682Y-12931150D01*
X11217682Y-12931150D02*
X11208158Y-12912103D01*
X11208158Y-12912103D02*
X11208158Y-12902579D01*
X11208158Y-12902579D02*
X11217682Y-12883531D01*
X11217682Y-12883531D02*
X11227206Y-12874008D01*
X11227206Y-12874008D02*
X11246253Y-12864484D01*
X11246253Y-12864484D02*
X11284348Y-12864484D01*
X11284348Y-12864484D02*
X11303396Y-12874008D01*
X11303396Y-12874008D02*
X11312920Y-12883531D01*
X11312920Y-12883531D02*
X11322444Y-12902579D01*
X11322444Y-12902579D02*
X11322444Y-12912103D01*
X11322444Y-12912103D02*
X11312920Y-12931150D01*
X11312920Y-12931150D02*
X11303396Y-12940674D01*
X11303396Y-12940674D02*
X11284348Y-12950198D01*
X11284348Y-12950198D02*
X11246253Y-12950198D01*
X11246253Y-12950198D02*
X11227206Y-12959722D01*
X11227206Y-12959722D02*
X11217682Y-12969246D01*
X11217682Y-12969246D02*
X11208158Y-12988293D01*
X11208158Y-12988293D02*
X11208158Y-13026388D01*
X11208158Y-13026388D02*
X11217682Y-13045436D01*
X11217682Y-13045436D02*
X11227206Y-13054960D01*
X11227206Y-13054960D02*
X11246253Y-13064484D01*
X11246253Y-13064484D02*
X11284348Y-13064484D01*
X11284348Y-13064484D02*
X11303396Y-13054960D01*
X11303396Y-13054960D02*
X11312920Y-13045436D01*
X11312920Y-13045436D02*
X11322444Y-13026388D01*
X11322444Y-13026388D02*
X11322444Y-12988293D01*
X11322444Y-12988293D02*
X11312920Y-12969246D01*
X11312920Y-12969246D02*
X11303396Y-12959722D01*
X11303396Y-12959722D02*
X11284348Y-12950198D01*
X11398634Y-12864484D02*
X11398634Y-12902579D01*
X11474825Y-12864484D02*
X11474825Y-12902579D01*
X11770063Y-13140674D02*
X11760539Y-13131150D01*
X11760539Y-13131150D02*
X11741491Y-13102579D01*
X11741491Y-13102579D02*
X11731968Y-13083531D01*
X11731968Y-13083531D02*
X11722444Y-13054960D01*
X11722444Y-13054960D02*
X11712920Y-13007341D01*
X11712920Y-13007341D02*
X11712920Y-12969246D01*
X11712920Y-12969246D02*
X11722444Y-12921627D01*
X11722444Y-12921627D02*
X11731968Y-12893055D01*
X11731968Y-12893055D02*
X11741491Y-12874008D01*
X11741491Y-12874008D02*
X11760539Y-12845436D01*
X11760539Y-12845436D02*
X11770063Y-12835912D01*
X11836729Y-12883531D02*
X11846253Y-12874008D01*
X11846253Y-12874008D02*
X11865301Y-12864484D01*
X11865301Y-12864484D02*
X11912920Y-12864484D01*
X11912920Y-12864484D02*
X11931968Y-12874008D01*
X11931968Y-12874008D02*
X11941491Y-12883531D01*
X11941491Y-12883531D02*
X11951015Y-12902579D01*
X11951015Y-12902579D02*
X11951015Y-12921627D01*
X11951015Y-12921627D02*
X11941491Y-12950198D01*
X11941491Y-12950198D02*
X11827206Y-13064484D01*
X11827206Y-13064484D02*
X11951015Y-13064484D01*
X12141491Y-13064484D02*
X12027206Y-13064484D01*
X12084348Y-13064484D02*
X12084348Y-12864484D01*
X12084348Y-12864484D02*
X12065301Y-12893055D01*
X12065301Y-12893055D02*
X12046253Y-12912103D01*
X12046253Y-12912103D02*
X12027206Y-12921627D01*
X12217682Y-12883531D02*
X12227206Y-12874008D01*
X12227206Y-12874008D02*
X12246253Y-12864484D01*
X12246253Y-12864484D02*
X12293872Y-12864484D01*
X12293872Y-12864484D02*
X12312920Y-12874008D01*
X12312920Y-12874008D02*
X12322444Y-12883531D01*
X12322444Y-12883531D02*
X12331968Y-12902579D01*
X12331968Y-12902579D02*
X12331968Y-12921627D01*
X12331968Y-12921627D02*
X12322444Y-12950198D01*
X12322444Y-12950198D02*
X12208158Y-13064484D01*
X12208158Y-13064484D02*
X12331968Y-13064484D01*
X12570063Y-13064484D02*
X12570063Y-12864484D01*
X12655777Y-13064484D02*
X12655777Y-12959722D01*
X12655777Y-12959722D02*
X12646253Y-12940674D01*
X12646253Y-12940674D02*
X12627206Y-12931150D01*
X12627206Y-12931150D02*
X12598634Y-12931150D01*
X12598634Y-12931150D02*
X12579587Y-12940674D01*
X12579587Y-12940674D02*
X12570063Y-12950198D01*
X12779587Y-13064484D02*
X12760539Y-13054960D01*
X12760539Y-13054960D02*
X12751015Y-13045436D01*
X12751015Y-13045436D02*
X12741491Y-13026388D01*
X12741491Y-13026388D02*
X12741491Y-12969246D01*
X12741491Y-12969246D02*
X12751015Y-12950198D01*
X12751015Y-12950198D02*
X12760539Y-12940674D01*
X12760539Y-12940674D02*
X12779587Y-12931150D01*
X12779587Y-12931150D02*
X12808158Y-12931150D01*
X12808158Y-12931150D02*
X12827206Y-12940674D01*
X12827206Y-12940674D02*
X12836730Y-12950198D01*
X12836730Y-12950198D02*
X12846253Y-12969246D01*
X12846253Y-12969246D02*
X12846253Y-13026388D01*
X12846253Y-13026388D02*
X12836730Y-13045436D01*
X12836730Y-13045436D02*
X12827206Y-13054960D01*
X12827206Y-13054960D02*
X12808158Y-13064484D01*
X12808158Y-13064484D02*
X12779587Y-13064484D01*
X12960539Y-13064484D02*
X12941491Y-13054960D01*
X12941491Y-13054960D02*
X12931968Y-13035912D01*
X12931968Y-13035912D02*
X12931968Y-12864484D01*
X13112920Y-13054960D02*
X13093872Y-13064484D01*
X13093872Y-13064484D02*
X13055777Y-13064484D01*
X13055777Y-13064484D02*
X13036730Y-13054960D01*
X13036730Y-13054960D02*
X13027206Y-13035912D01*
X13027206Y-13035912D02*
X13027206Y-12959722D01*
X13027206Y-12959722D02*
X13036730Y-12940674D01*
X13036730Y-12940674D02*
X13055777Y-12931150D01*
X13055777Y-12931150D02*
X13093872Y-12931150D01*
X13093872Y-12931150D02*
X13112920Y-12940674D01*
X13112920Y-12940674D02*
X13122444Y-12959722D01*
X13122444Y-12959722D02*
X13122444Y-12978769D01*
X13122444Y-12978769D02*
X13027206Y-12997817D01*
X13198634Y-13054960D02*
X13217682Y-13064484D01*
X13217682Y-13064484D02*
X13255777Y-13064484D01*
X13255777Y-13064484D02*
X13274825Y-13054960D01*
X13274825Y-13054960D02*
X13284349Y-13035912D01*
X13284349Y-13035912D02*
X13284349Y-13026388D01*
X13284349Y-13026388D02*
X13274825Y-13007341D01*
X13274825Y-13007341D02*
X13255777Y-12997817D01*
X13255777Y-12997817D02*
X13227206Y-12997817D01*
X13227206Y-12997817D02*
X13208158Y-12988293D01*
X13208158Y-12988293D02*
X13198634Y-12969246D01*
X13198634Y-12969246D02*
X13198634Y-12959722D01*
X13198634Y-12959722D02*
X13208158Y-12940674D01*
X13208158Y-12940674D02*
X13227206Y-12931150D01*
X13227206Y-12931150D02*
X13255777Y-12931150D01*
X13255777Y-12931150D02*
X13274825Y-12940674D01*
X13351015Y-13140674D02*
X13360539Y-13131150D01*
X13360539Y-13131150D02*
X13379587Y-13102579D01*
X13379587Y-13102579D02*
X13389111Y-13083531D01*
X13389111Y-13083531D02*
X13398634Y-13054960D01*
X13398634Y-13054960D02*
X13408158Y-13007341D01*
X13408158Y-13007341D02*
X13408158Y-12969246D01*
X13408158Y-12969246D02*
X13398634Y-12921627D01*
X13398634Y-12921627D02*
X13389111Y-12893055D01*
X13389111Y-12893055D02*
X13379587Y-12874008D01*
X13379587Y-12874008D02*
X13360539Y-12845436D01*
X13360539Y-12845436D02*
X13351015Y-12835912D01*
D12*
X8168640Y-13300640D02*
X8168640Y-13173360D01*
X8041360Y-13173360D01*
X8041360Y-13300640D01*
X8168640Y-13300640D01*
D11*
X8560539Y-13328484D02*
X8446253Y-13328484D01*
X8503396Y-13328484D02*
X8503396Y-13128484D01*
X8503396Y-13128484D02*
X8484348Y-13157055D01*
X8484348Y-13157055D02*
X8465301Y-13176103D01*
X8465301Y-13176103D02*
X8446253Y-13185627D01*
X8646253Y-13309436D02*
X8655777Y-13318960D01*
X8655777Y-13318960D02*
X8646253Y-13328484D01*
X8646253Y-13328484D02*
X8636729Y-13318960D01*
X8636729Y-13318960D02*
X8646253Y-13309436D01*
X8646253Y-13309436D02*
X8646253Y-13328484D01*
X8770063Y-13214198D02*
X8751015Y-13204674D01*
X8751015Y-13204674D02*
X8741491Y-13195150D01*
X8741491Y-13195150D02*
X8731967Y-13176103D01*
X8731967Y-13176103D02*
X8731967Y-13166579D01*
X8731967Y-13166579D02*
X8741491Y-13147531D01*
X8741491Y-13147531D02*
X8751015Y-13138008D01*
X8751015Y-13138008D02*
X8770063Y-13128484D01*
X8770063Y-13128484D02*
X8808158Y-13128484D01*
X8808158Y-13128484D02*
X8827205Y-13138008D01*
X8827205Y-13138008D02*
X8836729Y-13147531D01*
X8836729Y-13147531D02*
X8846253Y-13166579D01*
X8846253Y-13166579D02*
X8846253Y-13176103D01*
X8846253Y-13176103D02*
X8836729Y-13195150D01*
X8836729Y-13195150D02*
X8827205Y-13204674D01*
X8827205Y-13204674D02*
X8808158Y-13214198D01*
X8808158Y-13214198D02*
X8770063Y-13214198D01*
X8770063Y-13214198D02*
X8751015Y-13223722D01*
X8751015Y-13223722D02*
X8741491Y-13233246D01*
X8741491Y-13233246D02*
X8731967Y-13252293D01*
X8731967Y-13252293D02*
X8731967Y-13290388D01*
X8731967Y-13290388D02*
X8741491Y-13309436D01*
X8741491Y-13309436D02*
X8751015Y-13318960D01*
X8751015Y-13318960D02*
X8770063Y-13328484D01*
X8770063Y-13328484D02*
X8808158Y-13328484D01*
X8808158Y-13328484D02*
X8827205Y-13318960D01*
X8827205Y-13318960D02*
X8836729Y-13309436D01*
X8836729Y-13309436D02*
X8846253Y-13290388D01*
X8846253Y-13290388D02*
X8846253Y-13252293D01*
X8846253Y-13252293D02*
X8836729Y-13233246D01*
X8836729Y-13233246D02*
X8827205Y-13223722D01*
X8827205Y-13223722D02*
X8808158Y-13214198D01*
X8970063Y-13128484D02*
X8989110Y-13128484D01*
X8989110Y-13128484D02*
X9008158Y-13138008D01*
X9008158Y-13138008D02*
X9017682Y-13147531D01*
X9017682Y-13147531D02*
X9027205Y-13166579D01*
X9027205Y-13166579D02*
X9036729Y-13204674D01*
X9036729Y-13204674D02*
X9036729Y-13252293D01*
X9036729Y-13252293D02*
X9027205Y-13290388D01*
X9027205Y-13290388D02*
X9017682Y-13309436D01*
X9017682Y-13309436D02*
X9008158Y-13318960D01*
X9008158Y-13318960D02*
X8989110Y-13328484D01*
X8989110Y-13328484D02*
X8970063Y-13328484D01*
X8970063Y-13328484D02*
X8951015Y-13318960D01*
X8951015Y-13318960D02*
X8941491Y-13309436D01*
X8941491Y-13309436D02*
X8931967Y-13290388D01*
X8931967Y-13290388D02*
X8922444Y-13252293D01*
X8922444Y-13252293D02*
X8922444Y-13204674D01*
X8922444Y-13204674D02*
X8931967Y-13166579D01*
X8931967Y-13166579D02*
X8941491Y-13147531D01*
X8941491Y-13147531D02*
X8951015Y-13138008D01*
X8951015Y-13138008D02*
X8970063Y-13128484D01*
X9160539Y-13128484D02*
X9179586Y-13128484D01*
X9179586Y-13128484D02*
X9198634Y-13138008D01*
X9198634Y-13138008D02*
X9208158Y-13147531D01*
X9208158Y-13147531D02*
X9217682Y-13166579D01*
X9217682Y-13166579D02*
X9227205Y-13204674D01*
X9227205Y-13204674D02*
X9227205Y-13252293D01*
X9227205Y-13252293D02*
X9217682Y-13290388D01*
X9217682Y-13290388D02*
X9208158Y-13309436D01*
X9208158Y-13309436D02*
X9198634Y-13318960D01*
X9198634Y-13318960D02*
X9179586Y-13328484D01*
X9179586Y-13328484D02*
X9160539Y-13328484D01*
X9160539Y-13328484D02*
X9141491Y-13318960D01*
X9141491Y-13318960D02*
X9131967Y-13309436D01*
X9131967Y-13309436D02*
X9122444Y-13290388D01*
X9122444Y-13290388D02*
X9112920Y-13252293D01*
X9112920Y-13252293D02*
X9112920Y-13204674D01*
X9112920Y-13204674D02*
X9122444Y-13166579D01*
X9122444Y-13166579D02*
X9131967Y-13147531D01*
X9131967Y-13147531D02*
X9141491Y-13138008D01*
X9141491Y-13138008D02*
X9160539Y-13128484D01*
X9312920Y-13328484D02*
X9312920Y-13195150D01*
X9312920Y-13214198D02*
X9322444Y-13204674D01*
X9322444Y-13204674D02*
X9341491Y-13195150D01*
X9341491Y-13195150D02*
X9370063Y-13195150D01*
X9370063Y-13195150D02*
X9389110Y-13204674D01*
X9389110Y-13204674D02*
X9398634Y-13223722D01*
X9398634Y-13223722D02*
X9398634Y-13328484D01*
X9398634Y-13223722D02*
X9408158Y-13204674D01*
X9408158Y-13204674D02*
X9427205Y-13195150D01*
X9427205Y-13195150D02*
X9455777Y-13195150D01*
X9455777Y-13195150D02*
X9474825Y-13204674D01*
X9474825Y-13204674D02*
X9484348Y-13223722D01*
X9484348Y-13223722D02*
X9484348Y-13328484D01*
X9579586Y-13328484D02*
X9579586Y-13195150D01*
X9579586Y-13214198D02*
X9589110Y-13204674D01*
X9589110Y-13204674D02*
X9608158Y-13195150D01*
X9608158Y-13195150D02*
X9636729Y-13195150D01*
X9636729Y-13195150D02*
X9655777Y-13204674D01*
X9655777Y-13204674D02*
X9665301Y-13223722D01*
X9665301Y-13223722D02*
X9665301Y-13328484D01*
X9665301Y-13223722D02*
X9674825Y-13204674D01*
X9674825Y-13204674D02*
X9693872Y-13195150D01*
X9693872Y-13195150D02*
X9722444Y-13195150D01*
X9722444Y-13195150D02*
X9741491Y-13204674D01*
X9741491Y-13204674D02*
X9751015Y-13223722D01*
X9751015Y-13223722D02*
X9751015Y-13328484D01*
X10141491Y-13118960D02*
X9970063Y-13376103D01*
X10398634Y-13128484D02*
X10417682Y-13128484D01*
X10417682Y-13128484D02*
X10436729Y-13138008D01*
X10436729Y-13138008D02*
X10446253Y-13147531D01*
X10446253Y-13147531D02*
X10455777Y-13166579D01*
X10455777Y-13166579D02*
X10465301Y-13204674D01*
X10465301Y-13204674D02*
X10465301Y-13252293D01*
X10465301Y-13252293D02*
X10455777Y-13290388D01*
X10455777Y-13290388D02*
X10446253Y-13309436D01*
X10446253Y-13309436D02*
X10436729Y-13318960D01*
X10436729Y-13318960D02*
X10417682Y-13328484D01*
X10417682Y-13328484D02*
X10398634Y-13328484D01*
X10398634Y-13328484D02*
X10379587Y-13318960D01*
X10379587Y-13318960D02*
X10370063Y-13309436D01*
X10370063Y-13309436D02*
X10360539Y-13290388D01*
X10360539Y-13290388D02*
X10351015Y-13252293D01*
X10351015Y-13252293D02*
X10351015Y-13204674D01*
X10351015Y-13204674D02*
X10360539Y-13166579D01*
X10360539Y-13166579D02*
X10370063Y-13147531D01*
X10370063Y-13147531D02*
X10379587Y-13138008D01*
X10379587Y-13138008D02*
X10398634Y-13128484D01*
X10551015Y-13309436D02*
X10560539Y-13318960D01*
X10560539Y-13318960D02*
X10551015Y-13328484D01*
X10551015Y-13328484D02*
X10541491Y-13318960D01*
X10541491Y-13318960D02*
X10551015Y-13309436D01*
X10551015Y-13309436D02*
X10551015Y-13328484D01*
X10684348Y-13128484D02*
X10703396Y-13128484D01*
X10703396Y-13128484D02*
X10722444Y-13138008D01*
X10722444Y-13138008D02*
X10731968Y-13147531D01*
X10731968Y-13147531D02*
X10741491Y-13166579D01*
X10741491Y-13166579D02*
X10751015Y-13204674D01*
X10751015Y-13204674D02*
X10751015Y-13252293D01*
X10751015Y-13252293D02*
X10741491Y-13290388D01*
X10741491Y-13290388D02*
X10731968Y-13309436D01*
X10731968Y-13309436D02*
X10722444Y-13318960D01*
X10722444Y-13318960D02*
X10703396Y-13328484D01*
X10703396Y-13328484D02*
X10684348Y-13328484D01*
X10684348Y-13328484D02*
X10665301Y-13318960D01*
X10665301Y-13318960D02*
X10655777Y-13309436D01*
X10655777Y-13309436D02*
X10646253Y-13290388D01*
X10646253Y-13290388D02*
X10636729Y-13252293D01*
X10636729Y-13252293D02*
X10636729Y-13204674D01*
X10636729Y-13204674D02*
X10646253Y-13166579D01*
X10646253Y-13166579D02*
X10655777Y-13147531D01*
X10655777Y-13147531D02*
X10665301Y-13138008D01*
X10665301Y-13138008D02*
X10684348Y-13128484D01*
X10817682Y-13128484D02*
X10951015Y-13128484D01*
X10951015Y-13128484D02*
X10865301Y-13328484D01*
X11065301Y-13128484D02*
X11084349Y-13128484D01*
X11084349Y-13128484D02*
X11103396Y-13138008D01*
X11103396Y-13138008D02*
X11112920Y-13147531D01*
X11112920Y-13147531D02*
X11122444Y-13166579D01*
X11122444Y-13166579D02*
X11131968Y-13204674D01*
X11131968Y-13204674D02*
X11131968Y-13252293D01*
X11131968Y-13252293D02*
X11122444Y-13290388D01*
X11122444Y-13290388D02*
X11112920Y-13309436D01*
X11112920Y-13309436D02*
X11103396Y-13318960D01*
X11103396Y-13318960D02*
X11084349Y-13328484D01*
X11084349Y-13328484D02*
X11065301Y-13328484D01*
X11065301Y-13328484D02*
X11046253Y-13318960D01*
X11046253Y-13318960D02*
X11036729Y-13309436D01*
X11036729Y-13309436D02*
X11027206Y-13290388D01*
X11027206Y-13290388D02*
X11017682Y-13252293D01*
X11017682Y-13252293D02*
X11017682Y-13204674D01*
X11017682Y-13204674D02*
X11027206Y-13166579D01*
X11027206Y-13166579D02*
X11036729Y-13147531D01*
X11036729Y-13147531D02*
X11046253Y-13138008D01*
X11046253Y-13138008D02*
X11065301Y-13128484D01*
X11227206Y-13328484D02*
X11265301Y-13328484D01*
X11265301Y-13328484D02*
X11284348Y-13318960D01*
X11284348Y-13318960D02*
X11293872Y-13309436D01*
X11293872Y-13309436D02*
X11312920Y-13280865D01*
X11312920Y-13280865D02*
X11322444Y-13242769D01*
X11322444Y-13242769D02*
X11322444Y-13166579D01*
X11322444Y-13166579D02*
X11312920Y-13147531D01*
X11312920Y-13147531D02*
X11303396Y-13138008D01*
X11303396Y-13138008D02*
X11284348Y-13128484D01*
X11284348Y-13128484D02*
X11246253Y-13128484D01*
X11246253Y-13128484D02*
X11227206Y-13138008D01*
X11227206Y-13138008D02*
X11217682Y-13147531D01*
X11217682Y-13147531D02*
X11208158Y-13166579D01*
X11208158Y-13166579D02*
X11208158Y-13214198D01*
X11208158Y-13214198D02*
X11217682Y-13233246D01*
X11217682Y-13233246D02*
X11227206Y-13242769D01*
X11227206Y-13242769D02*
X11246253Y-13252293D01*
X11246253Y-13252293D02*
X11284348Y-13252293D01*
X11284348Y-13252293D02*
X11303396Y-13242769D01*
X11303396Y-13242769D02*
X11312920Y-13233246D01*
X11312920Y-13233246D02*
X11322444Y-13214198D01*
X11398634Y-13128484D02*
X11398634Y-13166579D01*
X11474825Y-13128484D02*
X11474825Y-13166579D01*
X11770063Y-13404674D02*
X11760539Y-13395150D01*
X11760539Y-13395150D02*
X11741491Y-13366579D01*
X11741491Y-13366579D02*
X11731968Y-13347531D01*
X11731968Y-13347531D02*
X11722444Y-13318960D01*
X11722444Y-13318960D02*
X11712920Y-13271341D01*
X11712920Y-13271341D02*
X11712920Y-13233246D01*
X11712920Y-13233246D02*
X11722444Y-13185627D01*
X11722444Y-13185627D02*
X11731968Y-13157055D01*
X11731968Y-13157055D02*
X11741491Y-13138008D01*
X11741491Y-13138008D02*
X11760539Y-13109436D01*
X11760539Y-13109436D02*
X11770063Y-13099912D01*
X11836729Y-13147531D02*
X11846253Y-13138008D01*
X11846253Y-13138008D02*
X11865301Y-13128484D01*
X11865301Y-13128484D02*
X11912920Y-13128484D01*
X11912920Y-13128484D02*
X11931968Y-13138008D01*
X11931968Y-13138008D02*
X11941491Y-13147531D01*
X11941491Y-13147531D02*
X11951015Y-13166579D01*
X11951015Y-13166579D02*
X11951015Y-13185627D01*
X11951015Y-13185627D02*
X11941491Y-13214198D01*
X11941491Y-13214198D02*
X11827206Y-13328484D01*
X11827206Y-13328484D02*
X11951015Y-13328484D01*
X12189110Y-13328484D02*
X12189110Y-13128484D01*
X12274825Y-13328484D02*
X12274825Y-13223722D01*
X12274825Y-13223722D02*
X12265301Y-13204674D01*
X12265301Y-13204674D02*
X12246253Y-13195150D01*
X12246253Y-13195150D02*
X12217682Y-13195150D01*
X12217682Y-13195150D02*
X12198634Y-13204674D01*
X12198634Y-13204674D02*
X12189110Y-13214198D01*
X12398634Y-13328484D02*
X12379587Y-13318960D01*
X12379587Y-13318960D02*
X12370063Y-13309436D01*
X12370063Y-13309436D02*
X12360539Y-13290388D01*
X12360539Y-13290388D02*
X12360539Y-13233246D01*
X12360539Y-13233246D02*
X12370063Y-13214198D01*
X12370063Y-13214198D02*
X12379587Y-13204674D01*
X12379587Y-13204674D02*
X12398634Y-13195150D01*
X12398634Y-13195150D02*
X12427206Y-13195150D01*
X12427206Y-13195150D02*
X12446253Y-13204674D01*
X12446253Y-13204674D02*
X12455777Y-13214198D01*
X12455777Y-13214198D02*
X12465301Y-13233246D01*
X12465301Y-13233246D02*
X12465301Y-13290388D01*
X12465301Y-13290388D02*
X12455777Y-13309436D01*
X12455777Y-13309436D02*
X12446253Y-13318960D01*
X12446253Y-13318960D02*
X12427206Y-13328484D01*
X12427206Y-13328484D02*
X12398634Y-13328484D01*
X12579587Y-13328484D02*
X12560539Y-13318960D01*
X12560539Y-13318960D02*
X12551015Y-13299912D01*
X12551015Y-13299912D02*
X12551015Y-13128484D01*
X12731968Y-13318960D02*
X12712920Y-13328484D01*
X12712920Y-13328484D02*
X12674825Y-13328484D01*
X12674825Y-13328484D02*
X12655777Y-13318960D01*
X12655777Y-13318960D02*
X12646253Y-13299912D01*
X12646253Y-13299912D02*
X12646253Y-13223722D01*
X12646253Y-13223722D02*
X12655777Y-13204674D01*
X12655777Y-13204674D02*
X12674825Y-13195150D01*
X12674825Y-13195150D02*
X12712920Y-13195150D01*
X12712920Y-13195150D02*
X12731968Y-13204674D01*
X12731968Y-13204674D02*
X12741491Y-13223722D01*
X12741491Y-13223722D02*
X12741491Y-13242769D01*
X12741491Y-13242769D02*
X12646253Y-13261817D01*
X12817682Y-13318960D02*
X12836730Y-13328484D01*
X12836730Y-13328484D02*
X12874825Y-13328484D01*
X12874825Y-13328484D02*
X12893872Y-13318960D01*
X12893872Y-13318960D02*
X12903396Y-13299912D01*
X12903396Y-13299912D02*
X12903396Y-13290388D01*
X12903396Y-13290388D02*
X12893872Y-13271341D01*
X12893872Y-13271341D02*
X12874825Y-13261817D01*
X12874825Y-13261817D02*
X12846253Y-13261817D01*
X12846253Y-13261817D02*
X12827206Y-13252293D01*
X12827206Y-13252293D02*
X12817682Y-13233246D01*
X12817682Y-13233246D02*
X12817682Y-13223722D01*
X12817682Y-13223722D02*
X12827206Y-13204674D01*
X12827206Y-13204674D02*
X12846253Y-13195150D01*
X12846253Y-13195150D02*
X12874825Y-13195150D01*
X12874825Y-13195150D02*
X12893872Y-13204674D01*
X12970063Y-13404674D02*
X12979587Y-13395150D01*
X12979587Y-13395150D02*
X12998634Y-13366579D01*
X12998634Y-13366579D02*
X13008158Y-13347531D01*
X13008158Y-13347531D02*
X13017682Y-13318960D01*
X13017682Y-13318960D02*
X13027206Y-13271341D01*
X13027206Y-13271341D02*
X13027206Y-13233246D01*
X13027206Y-13233246D02*
X13017682Y-13185627D01*
X13017682Y-13185627D02*
X13008158Y-13157055D01*
X13008158Y-13157055D02*
X12998634Y-13138008D01*
X12998634Y-13138008D02*
X12979587Y-13109436D01*
X12979587Y-13109436D02*
X12970063Y-13099912D01*
M02*
