%TF.GenerationSoftware,KiCad,Pcbnew,10.0.6-10.0.6~ubuntu24.04.1*%
%TF.CreationDate,2026-09-29T00:38:50+00:00*%
%TF.ProjectId,ridge3-esc,72696467-6533-42d6-9573-632e6b696361,rev?*%
%TF.SameCoordinates,Original*%
%TF.FileFunction,Copper,L4,Inr*%
%TF.FilePolarity,Positive*%
%FSLAX46Y46*%
G04 Gerber Fmt 4.6, Leading zero omitted, Abs format (unit mm)*
G04 Created by KiCad (PCBNEW 10.0.6-10.0.6~ubuntu24.04.1) date 2026-09-29 00:38:50*
%MOMM*%
%LPD*%
G01*
G04 APERTURE LIST*
%TA.AperFunction,ComponentPad*%
%ADD10C,3.000000*%
%TD*%
%TA.AperFunction,ViaPad*%
%ADD11C,0.250000*%
%TD*%
%TA.AperFunction,ViaPad*%
%ADD12C,0.350000*%
%TD*%
%TA.AperFunction,ViaPad*%
%ADD13C,0.500000*%
%TD*%
%TA.AperFunction,ViaPad*%
%ADD14C,0.450000*%
%TD*%
%TA.AperFunction,Conductor*%
%ADD15C,0.120000*%
%TD*%
%TA.AperFunction,Conductor*%
%ADD16C,0.150000*%
%TD*%
%TA.AperFunction,Conductor*%
%ADD17C,0.100000*%
%TD*%
%TA.AperFunction,Conductor*%
%ADD18C,0.200000*%
%TD*%
%TA.AperFunction,Conductor*%
%ADD19C,0.400000*%
%TD*%
G04 APERTURE END LIST*
D10*
%TO.N,VBAT*%
%TO.C,P_BAT+*%
X90500000Y-116100000D03*
%TD*%
%TO.N,GND*%
%TO.C,P_BAT-*%
X109500000Y-116100000D03*
%TD*%
D11*
%TO.N,M2_SWCLK*%
X109212489Y-99120000D03*
%TO.N,M4_CMP_B*%
X99695000Y-91800000D03*
D12*
X96979800Y-82698200D03*
D11*
X97500000Y-85175000D03*
D12*
X90990000Y-93225000D03*
%TO.N,M4_NEUTRAL*%
X95090000Y-94795000D03*
D11*
X95545000Y-93800000D03*
D13*
%TO.N,M1_B*%
X100800000Y-115100000D03*
X100000000Y-114300000D03*
X99200000Y-115900000D03*
D11*
X97560000Y-109195000D03*
D13*
X99200000Y-115100000D03*
X100000000Y-115100000D03*
X99200000Y-114300000D03*
D12*
X97075000Y-116525000D03*
D13*
X100800000Y-115900000D03*
X100000000Y-115900000D03*
D11*
%TO.N,M3_BSTA*%
X92050000Y-95315000D03*
D13*
%TO.N,M3_A*%
X84100000Y-94200000D03*
X84900000Y-95000000D03*
X84100000Y-95800000D03*
X85700000Y-94200000D03*
D11*
X90805000Y-96060000D03*
D13*
X84900000Y-94200000D03*
X84100000Y-95000000D03*
X84900000Y-95800000D03*
X85700000Y-95000000D03*
D11*
%TO.N,M3_GHA_D*%
X91550000Y-95315000D03*
%TO.N,M1_SWDIO*%
X101380000Y-109274999D03*
D13*
%TO.N,M2_C*%
X115100000Y-94200000D03*
D12*
X117015000Y-101907000D03*
D13*
X115900000Y-94200000D03*
D11*
X108450000Y-100695000D03*
D13*
X115100000Y-95800000D03*
X114300000Y-95000000D03*
X114300000Y-95800000D03*
X115100000Y-95000000D03*
X115900000Y-95000000D03*
X115900000Y-95800000D03*
D11*
%TO.N,+3V3*%
X101880000Y-105125000D03*
D12*
X94476900Y-90819200D03*
X115220000Y-110079700D03*
X105523000Y-109181000D03*
D11*
X98120000Y-94875000D03*
D12*
X109181000Y-94476900D03*
D11*
X105125000Y-98120000D03*
X94875000Y-101880000D03*
D12*
X98988200Y-105482700D03*
X99833400Y-100592200D03*
X90819200Y-105523000D03*
D13*
%TO.N,GND*%
X107600000Y-93950000D03*
D14*
X91635000Y-102880000D03*
X103220000Y-101250000D03*
X100285000Y-95655000D03*
D13*
X108400000Y-93950000D03*
D14*
X92050000Y-98060000D03*
X107950000Y-101940000D03*
X102145000Y-97450000D03*
X96780000Y-98750000D03*
D13*
X93149999Y-91600000D03*
D14*
X96560000Y-107950000D03*
X105292000Y-93832800D03*
X94707500Y-106167000D03*
X92050000Y-96560000D03*
X96780000Y-101850000D03*
X102880000Y-108365000D03*
X90491500Y-94828500D03*
D13*
X108400000Y-93149999D03*
X106050000Y-108400000D03*
D14*
X104599000Y-97440100D03*
X110785000Y-107520000D03*
X106450000Y-103440000D03*
X116150000Y-110022000D03*
X107520000Y-89215000D03*
X108365000Y-97120000D03*
X98060000Y-107950000D03*
X97165000Y-102740000D03*
X97550000Y-103220000D03*
X98150000Y-96780000D03*
D13*
X92400000Y-106050000D03*
D14*
X102450000Y-96780000D03*
X102829000Y-104199000D03*
D13*
X91600000Y-106850000D03*
D14*
X96342500Y-99845300D03*
X95401300Y-102560000D03*
D13*
X93950000Y-92400000D03*
D14*
X97120000Y-91635000D03*
X102892000Y-101883000D03*
X91750000Y-91800000D03*
D13*
X91600000Y-106050000D03*
D14*
X91800000Y-108250000D03*
X93550000Y-98060000D03*
X101940000Y-92050000D03*
X93550000Y-96560000D03*
X96780000Y-97550000D03*
X92480000Y-110785000D03*
X107950000Y-103440000D03*
X93832800Y-94707500D03*
X106525000Y-96495000D03*
X96560000Y-106450000D03*
X103440000Y-92050000D03*
X103595000Y-106575000D03*
X106167000Y-105292000D03*
X103440000Y-93550000D03*
X97440100Y-95401300D03*
X89215000Y-92480000D03*
X97745000Y-96475000D03*
D13*
X93950000Y-91600000D03*
D14*
X102757000Y-97686800D03*
X109509000Y-105171000D03*
X106450000Y-101940000D03*
X107909000Y-116500000D03*
X99558100Y-97769900D03*
D13*
X106850000Y-108400000D03*
D14*
X101940000Y-93550000D03*
X97545000Y-97625000D03*
X108200000Y-91750000D03*
X101250000Y-96780000D03*
X100297000Y-101837000D03*
X103595000Y-97025000D03*
X105171000Y-90491500D03*
X98060000Y-106450000D03*
X108250000Y-108200000D03*
X102560000Y-105941000D03*
X94828500Y-109509000D03*
D13*
X106050000Y-107600000D03*
%TO.N,M3_B*%
X84100000Y-99200000D03*
X84100000Y-100800000D03*
X84900000Y-100800000D03*
D11*
X90805000Y-97560000D03*
D13*
X84900000Y-100000000D03*
X85700000Y-100000000D03*
X84900000Y-99200000D03*
X85700000Y-99200000D03*
X84100000Y-100000000D03*
D12*
X83475000Y-97075000D03*
D13*
%TO.N,VBAT*%
X100950000Y-110300000D03*
X100950000Y-112000000D03*
X110300000Y-94050000D03*
X105100000Y-112000000D03*
X88000000Y-100950000D03*
X88900000Y-100950000D03*
X88000000Y-105100000D03*
X112000000Y-94050000D03*
X110300000Y-104050000D03*
X88900000Y-105950000D03*
X112000000Y-104900000D03*
D14*
X98165000Y-104615000D03*
D13*
X112000000Y-94900000D03*
X88000000Y-95100000D03*
X100950000Y-111100000D03*
X105950000Y-112000000D03*
D14*
X100265000Y-104810000D03*
D13*
X94900000Y-88000000D03*
D14*
X96500000Y-103060000D03*
D13*
X95100000Y-112000000D03*
X88000000Y-95950000D03*
X112000000Y-104050000D03*
X99050000Y-88900000D03*
X95950000Y-112000000D03*
X94050000Y-88000000D03*
X95950000Y-110300000D03*
X111100000Y-99050000D03*
X104050000Y-88900000D03*
X94050000Y-89700000D03*
X111100000Y-104050000D03*
X88900000Y-95950000D03*
X89700000Y-95950000D03*
X99050000Y-89700000D03*
X99050000Y-88000000D03*
X88000000Y-100100000D03*
X104900000Y-88000000D03*
X104050000Y-89700000D03*
X105950000Y-111100000D03*
X104050000Y-88000000D03*
D14*
X95110000Y-99051600D03*
D13*
X89700000Y-100950000D03*
X94050000Y-88900000D03*
X88000000Y-105950000D03*
X112000000Y-99900000D03*
X111100000Y-94050000D03*
X99900000Y-88000000D03*
X89700000Y-105950000D03*
X112000000Y-99050000D03*
X110300000Y-99050000D03*
X100100000Y-112000000D03*
X95950000Y-111100000D03*
X105950000Y-110300000D03*
D14*
X98752100Y-97830500D03*
D13*
%TO.N,M4_C*%
X95000000Y-84900000D03*
X95000000Y-84100000D03*
X95800000Y-84900000D03*
X94200000Y-84900000D03*
X95800000Y-85700000D03*
X95800000Y-84100000D03*
D11*
X100695000Y-91550000D03*
D13*
X95000000Y-85700000D03*
D12*
X101907000Y-82984700D03*
D13*
X94200000Y-84100000D03*
D11*
%TO.N,M1_GHC_D*%
X98560000Y-109195000D03*
D12*
X98066500Y-114034000D03*
X108253000Y-113743000D03*
D11*
%TO.N,M3_SWCLK*%
X90787510Y-100880000D03*
%TO.N,M3_GHB_D*%
X90805000Y-97060000D03*
%TO.N,M4_GHB_D*%
X102940000Y-90805000D03*
D12*
%TO.N,ESC_VSENSE*%
X92325000Y-103925000D03*
X107550000Y-97775000D03*
X96625000Y-104350000D03*
X102225000Y-107550000D03*
X99600000Y-104350000D03*
X99450000Y-104775000D03*
X97775000Y-92450000D03*
X96750000Y-100325000D03*
D11*
%TO.N,M3_SWDIO*%
X90725000Y-101380000D03*
%TO.N,GVDD*%
X102440000Y-94795000D03*
D12*
X100123100Y-100221900D03*
X96503800Y-93343900D03*
D11*
X94795000Y-97560000D03*
X97560000Y-105205000D03*
D12*
X106452900Y-97919600D03*
D11*
X105205000Y-102440000D03*
D12*
%TO.N,GVDD_FB*%
X102875000Y-99150000D03*
%TO.N,GVDD_IN*%
X103675000Y-95475000D03*
X101225000Y-104450000D03*
X101850000Y-95475000D03*
D11*
%TO.N,M3_BSTC*%
X90805000Y-98060000D03*
D13*
%TO.N,M3_C*%
X84100000Y-105000000D03*
D11*
X91550000Y-99305000D03*
D13*
X84900000Y-104200000D03*
X84900000Y-105000000D03*
D12*
X82984700Y-98092900D03*
D13*
X84100000Y-105800000D03*
X85700000Y-104200000D03*
X84100000Y-104200000D03*
X85700000Y-105000000D03*
X84900000Y-105800000D03*
D11*
%TO.N,M1_BSTA*%
X95315000Y-107950000D03*
D13*
%TO.N,M1_A*%
X94200000Y-115100000D03*
X94200000Y-114300000D03*
X95000000Y-114300000D03*
X95000000Y-115900000D03*
X95000000Y-115100000D03*
X95800000Y-115100000D03*
X94200000Y-115900000D03*
X95800000Y-115900000D03*
D11*
X96060000Y-109195000D03*
D13*
%TO.N,M1_C*%
X105800000Y-115900000D03*
X104200000Y-114300000D03*
X105000000Y-114300000D03*
X104200000Y-115100000D03*
D11*
X99305000Y-108450000D03*
D13*
X105800000Y-115100000D03*
D12*
X98092900Y-117015000D03*
D13*
X104200000Y-115900000D03*
X105000000Y-115900000D03*
X105000000Y-115100000D03*
D12*
%TO.N,M4_GHC_D*%
X91746800Y-86256700D03*
X101934000Y-85966000D03*
D11*
X101440000Y-90805000D03*
D13*
%TO.N,M2_B*%
X115100000Y-100000000D03*
X115100000Y-100800000D03*
X115900000Y-99200000D03*
X114300000Y-100800000D03*
X115100000Y-99200000D03*
X115900000Y-100800000D03*
X114300000Y-100000000D03*
D11*
X109195000Y-102440000D03*
D13*
X115900000Y-100000000D03*
D12*
X116525000Y-102925000D03*
%TO.N,M3_SNSP*%
X90415000Y-108825000D03*
D11*
X94220000Y-109550000D03*
D12*
%TO.N,M3_SNSN*%
X90415000Y-107175000D03*
D11*
%TO.N,M3_IOUT*%
X94220000Y-108250000D03*
D12*
%TO.N,M4_ISENSE*%
X91890000Y-93225000D03*
X93682700Y-90554800D03*
%TO.N,M1_ISENSE*%
X106317000Y-109445000D03*
X108110000Y-106775000D03*
D11*
%TO.N,M1_SNSP*%
X109550000Y-105780000D03*
D12*
X108825000Y-109585000D03*
%TO.N,M1_SNSN*%
X107175000Y-109585000D03*
D11*
%TO.N,M1_IOUT*%
X108250000Y-105780000D03*
D13*
%TO.N,M2_A*%
X114300000Y-105000000D03*
D11*
X109195000Y-103940000D03*
D13*
X114300000Y-105800000D03*
X115900000Y-105800000D03*
X115100000Y-105000000D03*
X115900000Y-105000000D03*
X115100000Y-105800000D03*
X115900000Y-104200000D03*
X115100000Y-104200000D03*
D11*
%TO.N,M2_SNSP*%
X105780000Y-90450000D03*
D12*
X109585000Y-91175000D03*
%TO.N,M2_SNSN*%
X109585000Y-92825000D03*
D11*
%TO.N,M2_IOUT*%
X105780000Y-91750000D03*
%TO.N,M1_GHB_D*%
X97060000Y-109195000D03*
%TO.N,M4_SNSP*%
X90450000Y-94220000D03*
D12*
X91175000Y-90415000D03*
%TO.N,M4_SNSN*%
X92825000Y-90415000D03*
D11*
%TO.N,M4_IOUT*%
X91750000Y-94220000D03*
D12*
%TO.N,M3_GHC_D*%
X86256700Y-108253000D03*
X85966000Y-98066500D03*
D11*
X90805000Y-98560000D03*
%TO.N,M2_SWDIO*%
X109274999Y-98620000D03*
%TO.N,M4_BSTA*%
X104685000Y-92050000D03*
D13*
%TO.N,M4_A*%
X105000000Y-85700000D03*
X104200000Y-84100000D03*
X105800000Y-85700000D03*
D11*
X103940000Y-90805000D03*
D13*
X105800000Y-84100000D03*
X105000000Y-84900000D03*
X105800000Y-84900000D03*
X105000000Y-84100000D03*
X104200000Y-84900000D03*
D11*
%TO.N,M2_GHA_D*%
X108450000Y-104685000D03*
D12*
%TO.N,M4_NRST*%
X98080000Y-91550000D03*
D11*
%TO.N,M2_GHC_D*%
X109195000Y-101440000D03*
D12*
X113743000Y-91746800D03*
X114034000Y-101934000D03*
D11*
%TO.N,M2_BSTB*%
X109195000Y-103440000D03*
%TO.N,M4_BSTC*%
X101940000Y-90805000D03*
%TO.N,M4_SWCLK*%
X99120000Y-90787510D03*
%TO.N,M4_SWDIO*%
X98620000Y-90725000D03*
%TO.N,M1_SWCLK*%
X100880000Y-109212489D03*
D12*
%TO.N,M2_ISENSE*%
X106775000Y-91890000D03*
X109445000Y-93682700D03*
%TO.N,M1_NRST*%
X101920000Y-108450000D03*
D11*
%TO.N,M1_BSTB*%
X96560000Y-109195000D03*
D12*
%TO.N,M3_ISENSE*%
X93225000Y-108110000D03*
X90554800Y-106317000D03*
%TO.N,M2_NRST*%
X108450000Y-98080000D03*
%TO.N,BUCK_VCC*%
X100025000Y-98250000D03*
X99425000Y-96025000D03*
%TO.N,BUCK_LX*%
X99750000Y-99400000D03*
X98950000Y-96925000D03*
%TO.N,LED_PWR_A*%
X116600000Y-109275000D03*
%TO.N,M3_NRST*%
X91550000Y-101920000D03*
D11*
%TO.N,M1_BSTC*%
X98060000Y-109195000D03*
%TO.N,M4_BSTB*%
X103440000Y-90805000D03*
D13*
%TO.N,M4_B*%
X100800000Y-84100000D03*
X99200000Y-84900000D03*
X100000000Y-84100000D03*
X99200000Y-84100000D03*
X100000000Y-85700000D03*
D11*
X102440000Y-90805000D03*
D13*
X100800000Y-84900000D03*
X100000000Y-84900000D03*
X100800000Y-85700000D03*
D12*
X102925000Y-83475000D03*
D11*
%TO.N,M2_CMP_B*%
X108200000Y-99695000D03*
X114825000Y-97500000D03*
D12*
X106775000Y-90990000D03*
X117302000Y-96979800D03*
D11*
%TO.N,M2_NEUTRAL*%
X106200000Y-95545000D03*
D12*
X105205000Y-95090000D03*
D11*
%TO.N,M3_BSTB*%
X90805000Y-96560000D03*
%TO.N,M2_BSTC*%
X109195000Y-101940000D03*
D12*
%TO.N,CUR*%
X98200000Y-102675000D03*
X101050000Y-95200000D03*
X94525000Y-99125000D03*
X100450000Y-100975000D03*
X104100000Y-103900000D03*
D11*
%TO.N,M1_SIG*%
X100305000Y-107700000D03*
%TO.N,M2_SIG*%
X107700000Y-99695000D03*
D12*
%TO.N,M3_SIG*%
X94025000Y-101375000D03*
X102200000Y-102650000D03*
D11*
X92300000Y-100305000D03*
D12*
%TO.N,M4_SIG*%
X99600000Y-95025000D03*
D11*
X99695000Y-92300000D03*
D12*
X103450000Y-103050000D03*
D11*
%TO.N,M4_GHA_D*%
X104685000Y-91550000D03*
%TO.N,M1_GHA_D*%
X95315000Y-108450000D03*
D12*
%TO.N,M1_CMP_B*%
X109010000Y-106775000D03*
D11*
X100305000Y-108200000D03*
X102500000Y-114825000D03*
D12*
X103020000Y-117302000D03*
%TO.N,M1_NEUTRAL*%
X104910000Y-105205000D03*
D11*
X104455000Y-106200000D03*
%TO.N,M3_CMP_B*%
X85175000Y-102500000D03*
D12*
X82698200Y-103020000D03*
X93225000Y-109010000D03*
D11*
X91800000Y-100305000D03*
D12*
%TO.N,M3_NEUTRAL*%
X94795000Y-104910000D03*
D11*
X93800000Y-104455000D03*
%TO.N,M2_GHB_D*%
X109195000Y-102940000D03*
%TO.N,M2_BSTA*%
X107950000Y-104685000D03*
%TO.N,M2_CMP_A*%
X114825000Y-102500000D03*
D12*
X104575000Y-96750000D03*
X106775000Y-92790000D03*
D11*
X106200000Y-99695000D03*
%TO.N,M4_CMP_A*%
X99695000Y-93800000D03*
D12*
X96750000Y-95425000D03*
X92790000Y-93225000D03*
D11*
X102500000Y-85175000D03*
D12*
%TO.N,M1_CMP_A*%
X107210000Y-106775000D03*
D11*
X97500000Y-114825000D03*
D12*
X103250000Y-104575000D03*
D11*
X100305000Y-106200000D03*
%TO.N,M4_CMP_C*%
X93690000Y-93664999D03*
X92640000Y-85175000D03*
%TO.N,M2_CMP_C*%
X106335000Y-93690000D03*
X114825000Y-92640000D03*
D12*
%TO.N,M2_LC*%
X108007000Y-98548300D03*
D11*
X105205000Y-102940000D03*
D12*
%TO.N,M2_LB*%
X109200000Y-95167510D03*
D11*
X105205000Y-103440000D03*
%TO.N,M2_LA*%
X105205000Y-103940000D03*
X109212527Y-96120000D03*
%TO.N,M2_HC*%
X109274999Y-96620000D03*
X105950000Y-104685000D03*
%TO.N,M2_HB*%
X109274999Y-97620000D03*
X106450000Y-104685000D03*
%TO.N,M2_HA*%
X106950000Y-104685000D03*
X109274999Y-98120000D03*
%TO.N,M3_CMP_C*%
X93664999Y-106310000D03*
X85175000Y-107360000D03*
D12*
%TO.N,M3_LC*%
X91992700Y-101452000D03*
D11*
X94795000Y-97060000D03*
D12*
%TO.N,M3_LB*%
X90800000Y-104832489D03*
D11*
X94795000Y-96560000D03*
%TO.N,M3_LA*%
X94795000Y-96060000D03*
X90787472Y-103880000D03*
%TO.N,M3_HC*%
X90725000Y-103380000D03*
X94050000Y-95315000D03*
%TO.N,M3_HB*%
X93550000Y-95315000D03*
X90725000Y-102380000D03*
%TO.N,M3_HA*%
X93050000Y-95315000D03*
X90725000Y-101880000D03*
%TO.N,M3_CMP_A*%
X93800000Y-100305000D03*
D12*
X95425000Y-103250000D03*
D11*
X85175000Y-97500000D03*
D12*
X93225000Y-107210000D03*
D13*
%TO.N,M4_SRC*%
X102500000Y-88150000D03*
X92500000Y-88150000D03*
X91700000Y-89750000D03*
X97500000Y-88150000D03*
X91700000Y-88950000D03*
X90900000Y-88950000D03*
X90900000Y-89750000D03*
X90100000Y-89750000D03*
X107500000Y-88150000D03*
D11*
%TO.N,M1_GLA_D*%
X97500000Y-114070000D03*
X99305000Y-107950000D03*
D13*
%TO.N,M2_SRC*%
X111850000Y-102500000D03*
X111850000Y-92500000D03*
X110250000Y-91700000D03*
X111850000Y-107500000D03*
X111850000Y-97500000D03*
X111050000Y-90900000D03*
X111050000Y-91700000D03*
X110250000Y-90100000D03*
X110250000Y-90900000D03*
%TO.N,M1_SRC*%
X92500000Y-111850000D03*
X97500000Y-111850000D03*
X109900000Y-110250000D03*
X108300000Y-111050000D03*
X109100000Y-111050000D03*
X107500000Y-111850000D03*
X108300000Y-110250000D03*
X102500000Y-111850000D03*
X109100000Y-110250000D03*
D11*
%TO.N,M1_GLC_D*%
X107500000Y-114070000D03*
X99305000Y-106950000D03*
D12*
X102093000Y-116722000D03*
D13*
%TO.N,M3_SRC*%
X88150000Y-97500000D03*
X89750000Y-109100000D03*
X89750000Y-109900000D03*
X88150000Y-102500000D03*
X88950000Y-109100000D03*
X89750000Y-108300000D03*
X88150000Y-107500000D03*
X88950000Y-108300000D03*
X88150000Y-92500000D03*
D11*
%TO.N,M1_GLB_D*%
X99305000Y-107450000D03*
X102500000Y-114070000D03*
%TO.N,M1_LA*%
X103880000Y-109212527D03*
X96060000Y-105205000D03*
D12*
%TO.N,M1_LB*%
X104832489Y-109200000D03*
D11*
X96560000Y-105205000D03*
%TO.N,M1_LC*%
X97060000Y-105205000D03*
D12*
X101452000Y-108007000D03*
D11*
%TO.N,M1_HA*%
X101880000Y-109274999D03*
X95315000Y-106950000D03*
%TO.N,M1_HB*%
X95315000Y-106450000D03*
X102380000Y-109274999D03*
%TO.N,M1_HC*%
X103380000Y-109274999D03*
X95315000Y-105950000D03*
%TO.N,M3_GLA_D*%
X85930000Y-97500000D03*
X92050000Y-99305000D03*
%TO.N,M2_GLB_D*%
X114070000Y-97500000D03*
X107450000Y-100695000D03*
%TO.N,M2_GLC_D*%
X106950000Y-100695000D03*
D12*
X116722000Y-97906600D03*
D11*
X114070000Y-92500000D03*
%TO.N,M2_GLA_D*%
X114070000Y-102500000D03*
X107950000Y-100695000D03*
%TO.N,M4_GLB_D*%
X100695000Y-92550000D03*
X97500000Y-85930000D03*
%TO.N,M4_GLA_D*%
X100695000Y-92050000D03*
X102500000Y-85930000D03*
%TO.N,M1_CMP_C*%
X106310000Y-106335000D03*
X107360000Y-114825000D03*
%TO.N,M3_GLC_D*%
X93050000Y-99305000D03*
D12*
X83278300Y-102093000D03*
D11*
X85930000Y-107500000D03*
%TO.N,M3_GLB_D*%
X85930000Y-102500000D03*
X92550000Y-99305000D03*
D12*
%TO.N,M4_LC*%
X98548300Y-91992700D03*
D11*
X102940000Y-94795000D03*
%TO.N,M4_LB*%
X103440000Y-94795000D03*
D12*
X95167510Y-90800000D03*
D11*
%TO.N,M4_LA*%
X96120000Y-90787472D03*
X103940000Y-94795000D03*
%TO.N,M4_HC*%
X96620000Y-90725000D03*
X104685000Y-94050000D03*
%TO.N,M4_HB*%
X97620000Y-90725000D03*
X104685000Y-93550000D03*
%TO.N,M4_HA*%
X98120000Y-90725000D03*
X104685000Y-93050000D03*
D12*
%TO.N,M4_GLC_D*%
X97906600Y-83278300D03*
D11*
X92500000Y-85930000D03*
X100695000Y-93050000D03*
%TD*%
%TO.N,M2_C*%
D15*
X115900000Y-95800000D02*
X115900000Y-98303300D01*
X115900000Y-98303300D02*
X117015000Y-99418600D01*
X117015000Y-99418600D02*
X117015000Y-101907000D01*
%TO.N,+3V3*%
D16*
X94460800Y-103269000D02*
X92206900Y-105523000D01*
X94477000Y-92206900D02*
X94476900Y-90819200D01*
X102294000Y-105539000D02*
X103269000Y-105539000D01*
X103269000Y-105539000D02*
X105523000Y-107793000D01*
X105523000Y-107793000D02*
X105523000Y-109181000D01*
X105539000Y-96730900D02*
X107793000Y-94477000D01*
X102166300Y-105482700D02*
X98988200Y-105482700D01*
X105539000Y-97705800D02*
X105539000Y-96730900D01*
X101880000Y-105125000D02*
X102202000Y-105447000D01*
X105125000Y-98120000D02*
X105539000Y-97705800D01*
X102202000Y-105447000D02*
X102166300Y-105482700D01*
X98120000Y-94875000D02*
X97705800Y-94460800D01*
X94460800Y-102294000D02*
X94460800Y-103269000D01*
X97705800Y-94460800D02*
X96730900Y-94460800D01*
X92206900Y-105523000D02*
X90819200Y-105523000D01*
X94875000Y-101880000D02*
X94460800Y-102294000D01*
X102202000Y-105447000D02*
X102294000Y-105539000D01*
X96730900Y-94460800D02*
X94477000Y-92206900D01*
X107793000Y-94477000D02*
X109181000Y-94476900D01*
%TO.N,M4_C*%
D15*
X98303300Y-84100000D02*
X99418600Y-82984700D01*
X95800000Y-84100000D02*
X98303300Y-84100000D01*
X99418600Y-82984700D02*
X101907000Y-82984700D01*
%TO.N,M1_GHC_D*%
D17*
X108253000Y-113743000D02*
X98357200Y-113743000D01*
X98357200Y-113743000D02*
X98066500Y-114034000D01*
%TO.N,GVDD*%
D18*
X102638800Y-96270200D02*
X103104000Y-96735400D01*
X98255300Y-105205000D02*
X97560000Y-105205000D01*
X94795000Y-97560000D02*
X97450500Y-100215500D01*
X97343900Y-94184000D02*
X96503800Y-93343900D01*
X105205000Y-99167500D02*
X106452900Y-97919600D01*
X105132300Y-99167500D02*
X105205000Y-99167500D01*
X103104000Y-97139200D02*
X105132300Y-99167500D01*
X105205000Y-102440000D02*
X104791600Y-102440000D01*
X103104000Y-96735400D02*
X103104000Y-97139200D01*
X97450500Y-100215500D02*
X100116700Y-100215500D01*
X105205000Y-102440000D02*
X105205000Y-99167500D01*
X98839800Y-104620500D02*
X98255300Y-105205000D01*
X100048400Y-94184000D02*
X97343900Y-94184000D01*
X100659400Y-94795000D02*
X100659400Y-95374000D01*
X100659400Y-95374000D02*
X101555600Y-96270200D01*
X103547700Y-103683900D02*
X99700900Y-103683900D01*
X102440000Y-94795000D02*
X100659400Y-94795000D01*
X98839800Y-104545000D02*
X98839800Y-104620500D01*
X100116700Y-100215500D02*
X100123100Y-100221900D01*
X99700900Y-103683900D02*
X98839800Y-104545000D01*
X101555600Y-96270200D02*
X102638800Y-96270200D01*
X100659400Y-94795000D02*
X100048400Y-94184000D01*
X104791600Y-102440000D02*
X103547700Y-103683900D01*
%TO.N,M3_C*%
D15*
X82984700Y-100581000D02*
X82984700Y-98092900D01*
X84100000Y-101697000D02*
X82984700Y-100581000D01*
X84100000Y-104200000D02*
X84100000Y-101697000D01*
%TO.N,M1_C*%
X100581000Y-117015000D02*
X98092900Y-117015000D01*
X101697000Y-115900000D02*
X100581000Y-117015000D01*
X104200000Y-115900000D02*
X101697000Y-115900000D01*
%TO.N,M4_GHC_D*%
D17*
X101643000Y-86256700D02*
X101934000Y-85966000D01*
X91746800Y-86256700D02*
X101643000Y-86256700D01*
%TO.N,M3_GHC_D*%
X86256700Y-98357200D02*
X85966000Y-98066500D01*
X86256700Y-108253000D02*
X86256700Y-98357200D01*
%TO.N,M2_GHC_D*%
X113743000Y-101643000D02*
X114034000Y-101934000D01*
X113743000Y-91746800D02*
X113743000Y-101643000D01*
%TO.N,BUCK_LX*%
D19*
X100600000Y-98550000D02*
X100600000Y-97925000D01*
X99750000Y-99400000D02*
X100600000Y-98550000D01*
X99600000Y-96925000D02*
X98950000Y-96925000D01*
X100600000Y-97925000D02*
X99600000Y-96925000D01*
%TO.N,M3_SIG*%
D17*
X100925000Y-101375000D02*
X102200000Y-102650000D01*
X94025000Y-101375000D02*
X100925000Y-101375000D01*
%TO.N,M4_SIG*%
X99600000Y-95675000D02*
X100825000Y-96900000D01*
X100825000Y-97500000D02*
X102450000Y-99125000D01*
X102450000Y-102050000D02*
X103450000Y-103050000D01*
X100825000Y-96900000D02*
X100825000Y-97500000D01*
X102450000Y-99125000D02*
X102450000Y-102050000D01*
X99600000Y-95025000D02*
X99600000Y-95675000D01*
%TO.N,M2_LA*%
X106384000Y-100087000D02*
X106536000Y-99934700D01*
X105748000Y-101345000D02*
X106384000Y-100710000D01*
X106536000Y-98326500D02*
X108742000Y-96120000D01*
X105748000Y-103397000D02*
X105748000Y-101345000D01*
X105205000Y-103940000D02*
X105748000Y-103397000D01*
X108742000Y-96120000D02*
X109212527Y-96120000D01*
X106536000Y-99934700D02*
X106536000Y-98326500D01*
X106384000Y-100710000D02*
X106384000Y-100087000D01*
%TO.N,M2_HC*%
X106973000Y-99923800D02*
X106586000Y-100312000D01*
X106973000Y-99071300D02*
X106973000Y-99923800D01*
X106073000Y-104562000D02*
X105950000Y-104685000D01*
X106586000Y-100810000D02*
X106073000Y-101322000D01*
X109274999Y-96620000D02*
X109275000Y-96769600D01*
X109275000Y-96769600D02*
X106973000Y-99071300D01*
X106586000Y-100312000D02*
X106586000Y-100810000D01*
X106073000Y-101322000D02*
X106073000Y-104562000D01*
%TO.N,M2_HB*%
X108598000Y-101052000D02*
X108807000Y-100843000D01*
X108777000Y-98118300D02*
X109274999Y-97620000D01*
X107823000Y-100338000D02*
X107327000Y-99842800D01*
X106450000Y-104685000D02*
X106843000Y-104292000D01*
X108807000Y-100843000D02*
X108807000Y-100547000D01*
X106843000Y-102148000D02*
X107940000Y-101052000D01*
X107940000Y-101052000D02*
X108598000Y-101052000D01*
X106843000Y-104292000D02*
X106843000Y-102148000D01*
X108807000Y-100547000D02*
X108598000Y-100338000D01*
X108598000Y-100338000D02*
X107823000Y-100338000D01*
X108777000Y-98244000D02*
X108777000Y-98118300D01*
X107327000Y-99842800D02*
X107327000Y-99567700D01*
X108018000Y-98876600D02*
X108144000Y-98876600D01*
X107327000Y-99567700D02*
X108018000Y-98876600D01*
X108144000Y-98876600D02*
X108777000Y-98244000D01*
%TO.N,M2_HA*%
X108865000Y-100320000D02*
X108865000Y-98530200D01*
X106950000Y-104685000D02*
X107092000Y-104542000D01*
X108681000Y-101253000D02*
X109008000Y-100926000D01*
X108865000Y-98530200D02*
X109274999Y-98120000D01*
X108064000Y-101253000D02*
X108681000Y-101253000D01*
X109008000Y-100926000D02*
X109008000Y-100464000D01*
X109008000Y-100464000D02*
X108865000Y-100320000D01*
X107092000Y-102224000D02*
X108064000Y-101253000D01*
X107092000Y-104542000D02*
X107092000Y-102224000D01*
%TO.N,M3_LA*%
X91257700Y-103880000D02*
X90787472Y-103880000D01*
X93464200Y-101674000D02*
X91257700Y-103880000D01*
X93616200Y-99913300D02*
X93464200Y-100065000D01*
X93616200Y-99290500D02*
X93616200Y-99913300D01*
X94795000Y-96060000D02*
X94251600Y-96603400D01*
X94251600Y-98655100D02*
X93616200Y-99290500D01*
X94251600Y-96603400D02*
X94251600Y-98655100D01*
X93464200Y-100065000D02*
X93464200Y-101674000D01*
%TO.N,M3_HC*%
X90725000Y-103380000D02*
X90725000Y-103230000D01*
X93926700Y-98678300D02*
X93926700Y-95438300D01*
X93026700Y-100929000D02*
X93026700Y-100076000D01*
X90725000Y-103230000D02*
X93026700Y-100929000D01*
X93026700Y-100076000D02*
X93414500Y-99688400D01*
X93926700Y-95438300D02*
X94050000Y-95315000D01*
X93414500Y-99688400D02*
X93414500Y-99190500D01*
X93414500Y-99190500D02*
X93926700Y-98678300D01*
%TO.N,M3_HB*%
X91402300Y-98948300D02*
X91193300Y-99157300D01*
X92672700Y-100157000D02*
X92672700Y-100432000D01*
X93157000Y-95708000D02*
X93157000Y-97851700D01*
X91223300Y-101882000D02*
X90725000Y-102380000D01*
X93157000Y-97851700D02*
X92060400Y-98948300D01*
X91855900Y-101123000D02*
X91223300Y-101756000D01*
X91223300Y-101756000D02*
X91223300Y-101882000D01*
X92177200Y-99661700D02*
X92672700Y-100157000D01*
X91193300Y-99157300D02*
X91193300Y-99452800D01*
X91402200Y-99661700D02*
X92177200Y-99661700D01*
X91193300Y-99452800D02*
X91402200Y-99661700D01*
X92672700Y-100432000D02*
X91981600Y-101123000D01*
X91981600Y-101123000D02*
X91855900Y-101123000D01*
X93550000Y-95315000D02*
X93157000Y-95708000D01*
X92060400Y-98948300D02*
X91402300Y-98948300D01*
%TO.N,M3_HA*%
X93050000Y-95315000D02*
X92907500Y-95457500D01*
X92907500Y-95457500D02*
X92907500Y-97775500D01*
X91135200Y-101470000D02*
X90725000Y-101880000D01*
X91135200Y-99679900D02*
X91135200Y-101470000D01*
X91936400Y-98746600D02*
X91318800Y-98746600D01*
X90991600Y-99536300D02*
X91135200Y-99679900D01*
X90991600Y-99073800D02*
X90991600Y-99536300D01*
X92907500Y-97775500D02*
X91936400Y-98746600D01*
X91318800Y-98746600D02*
X90991600Y-99073800D01*
%TO.N,M1_GLC_D*%
X106278000Y-115292000D02*
X107500000Y-114070000D01*
X106278000Y-116035000D02*
X106278000Y-115292000D01*
X102093000Y-116722000D02*
X105592000Y-116722000D01*
X105592000Y-116722000D02*
X106278000Y-116035000D01*
%TO.N,M1_LA*%
X99290500Y-106384000D02*
X99913300Y-106384000D01*
X99913300Y-106384000D02*
X100065000Y-106536000D01*
X103880000Y-108742000D02*
X103880000Y-109212527D01*
X96603400Y-105748000D02*
X98655100Y-105748000D01*
X98655100Y-105748000D02*
X99290500Y-106384000D01*
X96060000Y-105205000D02*
X96603400Y-105748000D01*
X101674000Y-106536000D02*
X103880000Y-108742000D01*
X100065000Y-106536000D02*
X101674000Y-106536000D01*
%TO.N,M1_HA*%
X101470000Y-108865000D02*
X101880000Y-109274999D01*
X95457500Y-107092000D02*
X97775500Y-107092000D01*
X99536300Y-109008000D02*
X99679900Y-108865000D01*
X99073800Y-109008000D02*
X99536300Y-109008000D01*
X99679900Y-108865000D02*
X101470000Y-108865000D01*
X95315000Y-106950000D02*
X95457500Y-107092000D01*
X98746600Y-108064000D02*
X98746600Y-108681000D01*
X97775500Y-107092000D02*
X98746600Y-108064000D01*
X98746600Y-108681000D02*
X99073800Y-109008000D01*
%TO.N,M1_HB*%
X99452800Y-108807000D02*
X99661700Y-108598000D01*
X101756000Y-108777000D02*
X101882000Y-108777000D01*
X98948300Y-108598000D02*
X99157300Y-108807000D01*
X101882000Y-108777000D02*
X102380000Y-109274999D01*
X99157300Y-108807000D02*
X99452800Y-108807000D01*
X100432000Y-107327000D02*
X101123000Y-108018000D01*
X95315000Y-106450000D02*
X95708000Y-106843000D01*
X101123000Y-108144000D02*
X101756000Y-108777000D01*
X99661700Y-107823000D02*
X100157000Y-107327000D01*
X101123000Y-108018000D02*
X101123000Y-108144000D01*
X99661700Y-108598000D02*
X99661700Y-107823000D01*
X97851700Y-106843000D02*
X98948300Y-107940000D01*
X95708000Y-106843000D02*
X97851700Y-106843000D01*
X100157000Y-107327000D02*
X100432000Y-107327000D01*
X98948300Y-107940000D02*
X98948300Y-108598000D01*
%TO.N,M1_HC*%
X95438300Y-106073000D02*
X95315000Y-105950000D01*
X98678300Y-106073000D02*
X95438300Y-106073000D01*
X99190500Y-106586000D02*
X98678300Y-106073000D01*
X103380000Y-109274999D02*
X103230000Y-109275000D01*
X100076000Y-106973000D02*
X99688400Y-106586000D01*
X99688400Y-106586000D02*
X99190500Y-106586000D01*
X103230000Y-109275000D02*
X100929000Y-106973000D01*
X100929000Y-106973000D02*
X100076000Y-106973000D01*
%TO.N,M2_GLC_D*%
X116722000Y-94408400D02*
X116035000Y-93721900D01*
X116722000Y-97906600D02*
X116722000Y-94408400D01*
X115292000Y-93721900D02*
X114070000Y-92500000D01*
X116035000Y-93721900D02*
X115292000Y-93721900D01*
%TO.N,M3_GLC_D*%
X83964800Y-106278000D02*
X84708100Y-106278000D01*
X83278300Y-105592000D02*
X83964800Y-106278000D01*
X83278300Y-102093000D02*
X83278300Y-105592000D01*
X84708100Y-106278000D02*
X85930000Y-107500000D01*
%TO.N,M4_LA*%
X96120000Y-91257700D02*
X96120000Y-90787472D01*
X99934700Y-93464200D02*
X98326500Y-93464200D01*
X98326500Y-93464200D02*
X96120000Y-91257700D01*
X100710000Y-93616200D02*
X100087000Y-93616200D01*
X101345000Y-94251600D02*
X100710000Y-93616200D01*
X100087000Y-93616200D02*
X99934700Y-93464200D01*
X103940000Y-94795000D02*
X103397000Y-94251600D01*
X103397000Y-94251600D02*
X101345000Y-94251600D01*
%TO.N,M4_HC*%
X101322000Y-93926700D02*
X104562000Y-93926700D01*
X100312000Y-93414500D02*
X100810000Y-93414500D01*
X96620000Y-90725000D02*
X96769600Y-90725000D01*
X99071300Y-93026700D02*
X99923800Y-93026700D01*
X96769600Y-90725000D02*
X99071300Y-93026700D01*
X104562000Y-93926700D02*
X104685000Y-94050000D01*
X99923800Y-93026700D02*
X100312000Y-93414500D01*
X100810000Y-93414500D02*
X101322000Y-93926700D01*
%TO.N,M4_HB*%
X100338000Y-91402200D02*
X100338000Y-92177200D01*
X104685000Y-93550000D02*
X104292000Y-93157000D01*
X100547000Y-91193300D02*
X100338000Y-91402200D01*
X101052000Y-92060400D02*
X101052000Y-91402300D01*
X98118300Y-91223300D02*
X97620000Y-90725000D01*
X98876600Y-91981600D02*
X98876600Y-91855900D01*
X99567700Y-92672700D02*
X98876600Y-91981600D01*
X104292000Y-93157000D02*
X102148000Y-93157000D01*
X101052000Y-91402300D02*
X100843000Y-91193300D01*
X99842800Y-92672700D02*
X99567700Y-92672700D01*
X98876600Y-91855900D02*
X98244000Y-91223300D01*
X102148000Y-93157000D02*
X101052000Y-92060400D01*
X100843000Y-91193300D02*
X100547000Y-91193300D01*
X98244000Y-91223300D02*
X98118300Y-91223300D01*
X100338000Y-92177200D02*
X99842800Y-92672700D01*
%TO.N,M4_HA*%
X104542000Y-92907500D02*
X102224000Y-92907500D01*
X100464000Y-90991600D02*
X100320000Y-91135200D01*
X104685000Y-93050000D02*
X104542000Y-92907500D01*
X98530200Y-91135200D02*
X98120000Y-90725000D01*
X101253000Y-91318800D02*
X100926000Y-90991600D01*
X100926000Y-90991600D02*
X100464000Y-90991600D01*
X101253000Y-91936400D02*
X101253000Y-91318800D01*
X100320000Y-91135200D02*
X98530200Y-91135200D01*
X102224000Y-92907500D02*
X101253000Y-91936400D01*
%TO.N,M4_GLC_D*%
X97906600Y-83278300D02*
X94408400Y-83278300D01*
X94408400Y-83278300D02*
X93721900Y-83964800D01*
X93721900Y-83964800D02*
X93721900Y-84708100D01*
X93721900Y-84708100D02*
X92500000Y-85930000D01*
%TD*%
%TA.AperFunction,Conductor*%
%TO.N,M3_SRC*%
G36*
X88786503Y-92104843D02*
G01*
X88797340Y-92108365D01*
X88846840Y-92144326D01*
X88865750Y-92202516D01*
X88865750Y-92207389D01*
X88852486Y-92256889D01*
X88818501Y-92315751D01*
X88818498Y-92315759D01*
X88802286Y-92376263D01*
X88789500Y-92423982D01*
X88789500Y-92536020D01*
X88799646Y-92573883D01*
X88799646Y-92573885D01*
X88799647Y-92573885D01*
X88818499Y-92644244D01*
X88874513Y-92741260D01*
X88874515Y-92741263D01*
X88953737Y-92820485D01*
X88953739Y-92820486D01*
X88954289Y-92820883D01*
X88956300Y-92821964D01*
X88993989Y-92843725D01*
X89015585Y-92867708D01*
X89049893Y-92876285D01*
X89051505Y-92876702D01*
X89069855Y-92881618D01*
X89121123Y-92895355D01*
X89172437Y-92928678D01*
X89194364Y-92985800D01*
X89194500Y-92990982D01*
X89194500Y-93092753D01*
X89204555Y-93156252D01*
X89204556Y-93156256D01*
X89223453Y-93214425D01*
X89239215Y-93245368D01*
X89250000Y-93290303D01*
X89250000Y-93300000D01*
X89250001Y-93300000D01*
X89254995Y-93304994D01*
X89297815Y-93318907D01*
X89298136Y-93319159D01*
X89301109Y-93321319D01*
X89301111Y-93321321D01*
X89350611Y-93357285D01*
X89407897Y-93386474D01*
X89420583Y-93390596D01*
X89451936Y-93398123D01*
X89482529Y-93402969D01*
X89514680Y-93405500D01*
X90151000Y-93405500D01*
X90209191Y-93424407D01*
X90245155Y-93473907D01*
X90250000Y-93504500D01*
X90250000Y-93902984D01*
X90245154Y-93933579D01*
X90237606Y-93956807D01*
X90213457Y-93996214D01*
X90189540Y-94020131D01*
X90189537Y-94020134D01*
X90189535Y-94020137D01*
X90168108Y-94057249D01*
X90146682Y-94094361D01*
X90146682Y-94094362D01*
X90124500Y-94177147D01*
X90124500Y-94262853D01*
X90146682Y-94345638D01*
X90146683Y-94345640D01*
X90183555Y-94409504D01*
X90194656Y-94438421D01*
X90197429Y-94451467D01*
X90191033Y-94512317D01*
X90191030Y-94512324D01*
X90186534Y-94522420D01*
X90166103Y-94552146D01*
X90151015Y-94567235D01*
X90094996Y-94664261D01*
X90094719Y-94664994D01*
X90094173Y-94667335D01*
X90066000Y-94772482D01*
X90066000Y-94884517D01*
X90088572Y-94968761D01*
X90094997Y-94992741D01*
X90133432Y-95059309D01*
X90133432Y-95059310D01*
X90151011Y-95089758D01*
X90151015Y-95089763D01*
X90209918Y-95148667D01*
X90228123Y-95173724D01*
X90239209Y-95195481D01*
X90250000Y-95240427D01*
X90250000Y-95616475D01*
X90245152Y-95647075D01*
X90242604Y-95654915D01*
X90206637Y-95704412D01*
X90148445Y-95723315D01*
X90090260Y-95704407D01*
X90087411Y-95702337D01*
X90067145Y-95678424D01*
X90065154Y-95679860D01*
X90060490Y-95673389D01*
X90060489Y-95673387D01*
X89976613Y-95589511D01*
X89976610Y-95589509D01*
X89976608Y-95589507D01*
X89976606Y-95589505D01*
X89931176Y-95563276D01*
X89910142Y-95539915D01*
X89816640Y-95514862D01*
X89759309Y-95499500D01*
X89759308Y-95499500D01*
X89640692Y-95499500D01*
X89640691Y-95499500D01*
X89583360Y-95514862D01*
X89526109Y-95530202D01*
X89526108Y-95530202D01*
X89526106Y-95530203D01*
X89421103Y-95590827D01*
X89420645Y-95591337D01*
X89418096Y-95593036D01*
X89413018Y-95599879D01*
X89381088Y-95631808D01*
X89356033Y-95650012D01*
X89344148Y-95656068D01*
X89283716Y-95665640D01*
X89283712Y-95665639D01*
X89278676Y-95664842D01*
X89224169Y-95637066D01*
X89176608Y-95589506D01*
X89131176Y-95563276D01*
X89122020Y-95553107D01*
X89109898Y-95546760D01*
X89105949Y-95538792D01*
X89016640Y-95514862D01*
X88959309Y-95499500D01*
X88959308Y-95499500D01*
X88840692Y-95499500D01*
X88840691Y-95499500D01*
X88783360Y-95514862D01*
X88726109Y-95530202D01*
X88726108Y-95530202D01*
X88726106Y-95530203D01*
X88623393Y-95589505D01*
X88539503Y-95673395D01*
X88537250Y-95676332D01*
X88524952Y-95689634D01*
X88515613Y-95698042D01*
X88459716Y-95722925D01*
X88399869Y-95710201D01*
X88396127Y-95708040D01*
X88367816Y-95677940D01*
X88365154Y-95679860D01*
X88360490Y-95673389D01*
X88360489Y-95673387D01*
X88327601Y-95640499D01*
X88293188Y-95606085D01*
X88274984Y-95581029D01*
X88268929Y-95569145D01*
X88259358Y-95508725D01*
X88260156Y-95503686D01*
X88287927Y-95449173D01*
X88360489Y-95376613D01*
X88371320Y-95357853D01*
X88419797Y-95273890D01*
X88419797Y-95273888D01*
X88419799Y-95273886D01*
X88450500Y-95159309D01*
X88450500Y-95040691D01*
X88419799Y-94926114D01*
X88419797Y-94926111D01*
X88419797Y-94926109D01*
X88419796Y-94926108D01*
X88419706Y-94925770D01*
X88418224Y-94923384D01*
X88361960Y-94825934D01*
X88360783Y-94823746D01*
X88360597Y-94823496D01*
X88360490Y-94823389D01*
X88360489Y-94823387D01*
X88276613Y-94739511D01*
X88276610Y-94739509D01*
X88276608Y-94739507D01*
X88231175Y-94713276D01*
X88210142Y-94689916D01*
X88160352Y-94676574D01*
X88160351Y-94676574D01*
X88059309Y-94649500D01*
X88059307Y-94649500D01*
X87940692Y-94649500D01*
X87940691Y-94649500D01*
X87885614Y-94664258D01*
X87826109Y-94680202D01*
X87826108Y-94680202D01*
X87826106Y-94680203D01*
X87723393Y-94739505D01*
X87639503Y-94823395D01*
X87580201Y-94926109D01*
X87579924Y-94926844D01*
X87579377Y-94929185D01*
X87549500Y-95040691D01*
X87549500Y-95159308D01*
X87567103Y-95225004D01*
X87567102Y-95225004D01*
X87580201Y-95273889D01*
X87580201Y-95273890D01*
X87639508Y-95376610D01*
X87706809Y-95443912D01*
X87725013Y-95468967D01*
X87731068Y-95480850D01*
X87740640Y-95541281D01*
X87740640Y-95541286D01*
X87739843Y-95546317D01*
X87712066Y-95600830D01*
X87672398Y-95640499D01*
X87672398Y-95640500D01*
X87639508Y-95673390D01*
X87639505Y-95673392D01*
X87580201Y-95776108D01*
X87580201Y-95776109D01*
X87563036Y-95840167D01*
X87563037Y-95840168D01*
X87563037Y-95840169D01*
X87549500Y-95890691D01*
X87549500Y-96009309D01*
X87562931Y-96059437D01*
X87574564Y-96102851D01*
X87580202Y-96123890D01*
X87580201Y-96123890D01*
X87637814Y-96223676D01*
X87639507Y-96226608D01*
X87639509Y-96226610D01*
X87639511Y-96226613D01*
X87723387Y-96310489D01*
X87723389Y-96310490D01*
X87723496Y-96310597D01*
X87723746Y-96310783D01*
X87725934Y-96311960D01*
X87823369Y-96368214D01*
X87825770Y-96369706D01*
X87826111Y-96369797D01*
X87826114Y-96369799D01*
X87940691Y-96400500D01*
X87940693Y-96400500D01*
X88059307Y-96400500D01*
X88059309Y-96400500D01*
X88173886Y-96369799D01*
X88173887Y-96369798D01*
X88173889Y-96369797D01*
X88173890Y-96369797D01*
X88270473Y-96314034D01*
X88273361Y-96312631D01*
X88274145Y-96312115D01*
X88279162Y-96309016D01*
X88280460Y-96308266D01*
X88285818Y-96301283D01*
X88360489Y-96226613D01*
X88360492Y-96226606D01*
X88362742Y-96223676D01*
X88375033Y-96210377D01*
X88384381Y-96201959D01*
X88440271Y-96177073D01*
X88500117Y-96189789D01*
X88504340Y-96192227D01*
X88534446Y-96222331D01*
X88535567Y-96221472D01*
X88539514Y-96226617D01*
X88623492Y-96310594D01*
X88623746Y-96310783D01*
X88625934Y-96311960D01*
X88723369Y-96368214D01*
X88725770Y-96369706D01*
X88726111Y-96369797D01*
X88726114Y-96369799D01*
X88840691Y-96400500D01*
X88840693Y-96400500D01*
X88959307Y-96400500D01*
X88959309Y-96400500D01*
X89073886Y-96369799D01*
X89073887Y-96369798D01*
X89073889Y-96369797D01*
X89073890Y-96369797D01*
X89170468Y-96314036D01*
X89171830Y-96313642D01*
X89174147Y-96312114D01*
X89179160Y-96309018D01*
X89180458Y-96308268D01*
X89185813Y-96301287D01*
X89218915Y-96268186D01*
X89243966Y-96249986D01*
X89255853Y-96243929D01*
X89316281Y-96234359D01*
X89321319Y-96235157D01*
X89375830Y-96262933D01*
X89423492Y-96310594D01*
X89423746Y-96310783D01*
X89425934Y-96311960D01*
X89523369Y-96368214D01*
X89525770Y-96369706D01*
X89526111Y-96369797D01*
X89526114Y-96369799D01*
X89640691Y-96400500D01*
X89640693Y-96400500D01*
X89759307Y-96400500D01*
X89759309Y-96400500D01*
X89873886Y-96369799D01*
X89873887Y-96369798D01*
X89873889Y-96369797D01*
X89873890Y-96369797D01*
X89970473Y-96314034D01*
X89973361Y-96312631D01*
X89974145Y-96312115D01*
X89979162Y-96309016D01*
X89980460Y-96308266D01*
X89985818Y-96301283D01*
X90060489Y-96226613D01*
X90060492Y-96226606D01*
X90064442Y-96221461D01*
X90065347Y-96222155D01*
X90076918Y-96207848D01*
X90083044Y-96202332D01*
X90138939Y-96177448D01*
X90198787Y-96190171D01*
X90239722Y-96235631D01*
X90241437Y-96239482D01*
X90250000Y-96279757D01*
X90250000Y-100616475D01*
X90245152Y-100647075D01*
X90242604Y-100654915D01*
X90206637Y-100704412D01*
X90148445Y-100723315D01*
X90090260Y-100704407D01*
X90087411Y-100702337D01*
X90067145Y-100678424D01*
X90065154Y-100679860D01*
X90060490Y-100673389D01*
X90060489Y-100673387D01*
X89976613Y-100589511D01*
X89976610Y-100589509D01*
X89976608Y-100589507D01*
X89976606Y-100589505D01*
X89931176Y-100563276D01*
X89910142Y-100539915D01*
X89835065Y-100519799D01*
X89829426Y-100518288D01*
X89759309Y-100499500D01*
X89759308Y-100499500D01*
X89640692Y-100499500D01*
X89640691Y-100499500D01*
X89625057Y-100503689D01*
X89570566Y-100518289D01*
X89570565Y-100518288D01*
X89526111Y-100530200D01*
X89526108Y-100530201D01*
X89421103Y-100590827D01*
X89420645Y-100591337D01*
X89418096Y-100593036D01*
X89413018Y-100599879D01*
X89381088Y-100631808D01*
X89356033Y-100650012D01*
X89344148Y-100656068D01*
X89283716Y-100665640D01*
X89283712Y-100665639D01*
X89278676Y-100664842D01*
X89224169Y-100637066D01*
X89176608Y-100589506D01*
X89131176Y-100563276D01*
X89122020Y-100553107D01*
X89109898Y-100546760D01*
X89105949Y-100538792D01*
X89035065Y-100519799D01*
X89029426Y-100518288D01*
X88959309Y-100499500D01*
X88959308Y-100499500D01*
X88840692Y-100499500D01*
X88840691Y-100499500D01*
X88825057Y-100503689D01*
X88770566Y-100518289D01*
X88770565Y-100518288D01*
X88726111Y-100530200D01*
X88726108Y-100530201D01*
X88623393Y-100589505D01*
X88539503Y-100673395D01*
X88537250Y-100676332D01*
X88524952Y-100689634D01*
X88515613Y-100698042D01*
X88459716Y-100722925D01*
X88399869Y-100710201D01*
X88396127Y-100708040D01*
X88367816Y-100677940D01*
X88365154Y-100679860D01*
X88360490Y-100673389D01*
X88360489Y-100673387D01*
X88329996Y-100642894D01*
X88293188Y-100606085D01*
X88274984Y-100581029D01*
X88268929Y-100569145D01*
X88259358Y-100508725D01*
X88260156Y-100503686D01*
X88287927Y-100449173D01*
X88360489Y-100376613D01*
X88377094Y-100347853D01*
X88419797Y-100273890D01*
X88419797Y-100273888D01*
X88419799Y-100273886D01*
X88450500Y-100159309D01*
X88450500Y-100040691D01*
X88419799Y-99926114D01*
X88419797Y-99926111D01*
X88419797Y-99926109D01*
X88419796Y-99926108D01*
X88419706Y-99925770D01*
X88418224Y-99923384D01*
X88361960Y-99825934D01*
X88360783Y-99823746D01*
X88360597Y-99823496D01*
X88360490Y-99823389D01*
X88360489Y-99823387D01*
X88276613Y-99739511D01*
X88276610Y-99739509D01*
X88276608Y-99739507D01*
X88276606Y-99739505D01*
X88231176Y-99713276D01*
X88210142Y-99689915D01*
X88132449Y-99669098D01*
X88129426Y-99668288D01*
X88059309Y-99649500D01*
X88059308Y-99649500D01*
X87940692Y-99649500D01*
X87940691Y-99649500D01*
X87905629Y-99658894D01*
X87870566Y-99668289D01*
X87870565Y-99668288D01*
X87826111Y-99680200D01*
X87826108Y-99680201D01*
X87723393Y-99739505D01*
X87639503Y-99823395D01*
X87580201Y-99926109D01*
X87579924Y-99926844D01*
X87579377Y-99929185D01*
X87549500Y-100040691D01*
X87549500Y-100159309D01*
X87576574Y-100260351D01*
X87576575Y-100260353D01*
X87580202Y-100273890D01*
X87639508Y-100376610D01*
X87706809Y-100443912D01*
X87725013Y-100468967D01*
X87731068Y-100480850D01*
X87740640Y-100541281D01*
X87740640Y-100541286D01*
X87739843Y-100546317D01*
X87712066Y-100600830D01*
X87670003Y-100642894D01*
X87670003Y-100642895D01*
X87639503Y-100673395D01*
X87580201Y-100776109D01*
X87579924Y-100776844D01*
X87579377Y-100779185D01*
X87549500Y-100890691D01*
X87549500Y-101009308D01*
X87553728Y-101025085D01*
X87553729Y-101025090D01*
X87580203Y-101123892D01*
X87637037Y-101222331D01*
X87639507Y-101226608D01*
X87639509Y-101226610D01*
X87639511Y-101226613D01*
X87723387Y-101310489D01*
X87723389Y-101310490D01*
X87723496Y-101310597D01*
X87723746Y-101310783D01*
X87725934Y-101311960D01*
X87823369Y-101368214D01*
X87825770Y-101369706D01*
X87826111Y-101369797D01*
X87826114Y-101369799D01*
X87940691Y-101400500D01*
X87940693Y-101400500D01*
X88059307Y-101400500D01*
X88059309Y-101400500D01*
X88173886Y-101369799D01*
X88173887Y-101369798D01*
X88173889Y-101369797D01*
X88173890Y-101369797D01*
X88270473Y-101314034D01*
X88273361Y-101312631D01*
X88274145Y-101312115D01*
X88279162Y-101309016D01*
X88280460Y-101308266D01*
X88285818Y-101301283D01*
X88360489Y-101226613D01*
X88360492Y-101226606D01*
X88362742Y-101223676D01*
X88375033Y-101210377D01*
X88384381Y-101201959D01*
X88440271Y-101177073D01*
X88500117Y-101189789D01*
X88504340Y-101192227D01*
X88534446Y-101222331D01*
X88535567Y-101221472D01*
X88539514Y-101226617D01*
X88623492Y-101310594D01*
X88623746Y-101310783D01*
X88625934Y-101311960D01*
X88723369Y-101368214D01*
X88725770Y-101369706D01*
X88726111Y-101369797D01*
X88726114Y-101369799D01*
X88840691Y-101400500D01*
X88840693Y-101400500D01*
X88959307Y-101400500D01*
X88959309Y-101400500D01*
X89073886Y-101369799D01*
X89073887Y-101369798D01*
X89073889Y-101369797D01*
X89073890Y-101369797D01*
X89170468Y-101314036D01*
X89171830Y-101313642D01*
X89174147Y-101312114D01*
X89179160Y-101309018D01*
X89180458Y-101308268D01*
X89185813Y-101301287D01*
X89218915Y-101268186D01*
X89243966Y-101249986D01*
X89255853Y-101243929D01*
X89316281Y-101234359D01*
X89321319Y-101235157D01*
X89375830Y-101262933D01*
X89423492Y-101310594D01*
X89423746Y-101310783D01*
X89425934Y-101311960D01*
X89523369Y-101368214D01*
X89525770Y-101369706D01*
X89526111Y-101369797D01*
X89526114Y-101369799D01*
X89640691Y-101400500D01*
X89640693Y-101400500D01*
X89759307Y-101400500D01*
X89759309Y-101400500D01*
X89873886Y-101369799D01*
X89873887Y-101369798D01*
X89873889Y-101369797D01*
X89873890Y-101369797D01*
X89970473Y-101314034D01*
X89973361Y-101312631D01*
X89974145Y-101312115D01*
X89979162Y-101309016D01*
X89980460Y-101308266D01*
X89985818Y-101301283D01*
X90060489Y-101226613D01*
X90060492Y-101226606D01*
X90064442Y-101221461D01*
X90065347Y-101222155D01*
X90076918Y-101207848D01*
X90083044Y-101202332D01*
X90138939Y-101177448D01*
X90198787Y-101190171D01*
X90239722Y-101235631D01*
X90241437Y-101239482D01*
X90250000Y-101279757D01*
X90250000Y-105616475D01*
X90245152Y-105647075D01*
X90242604Y-105654915D01*
X90206637Y-105704412D01*
X90148445Y-105723315D01*
X90090260Y-105704407D01*
X90087411Y-105702337D01*
X90067145Y-105678424D01*
X90065154Y-105679860D01*
X90060490Y-105673389D01*
X90060489Y-105673387D01*
X89976613Y-105589511D01*
X89976610Y-105589509D01*
X89976608Y-105589507D01*
X89976606Y-105589505D01*
X89931176Y-105563276D01*
X89910142Y-105539915D01*
X89835065Y-105519799D01*
X89829426Y-105518288D01*
X89759309Y-105499500D01*
X89759308Y-105499500D01*
X89640692Y-105499500D01*
X89640691Y-105499500D01*
X89625057Y-105503689D01*
X89570566Y-105518289D01*
X89570565Y-105518288D01*
X89526111Y-105530200D01*
X89526108Y-105530201D01*
X89421103Y-105590827D01*
X89420645Y-105591337D01*
X89418096Y-105593036D01*
X89413018Y-105599879D01*
X89381088Y-105631808D01*
X89356033Y-105650012D01*
X89344148Y-105656068D01*
X89283716Y-105665640D01*
X89283712Y-105665639D01*
X89278676Y-105664842D01*
X89224169Y-105637066D01*
X89176608Y-105589506D01*
X89131176Y-105563276D01*
X89122020Y-105553107D01*
X89109898Y-105546760D01*
X89105949Y-105538792D01*
X89035065Y-105519799D01*
X89029426Y-105518288D01*
X88959309Y-105499500D01*
X88959308Y-105499500D01*
X88840692Y-105499500D01*
X88840691Y-105499500D01*
X88825057Y-105503689D01*
X88770566Y-105518289D01*
X88770565Y-105518288D01*
X88726111Y-105530200D01*
X88726108Y-105530201D01*
X88623393Y-105589505D01*
X88539503Y-105673395D01*
X88537250Y-105676332D01*
X88524952Y-105689634D01*
X88515613Y-105698042D01*
X88459716Y-105722925D01*
X88399869Y-105710201D01*
X88396127Y-105708040D01*
X88367816Y-105677940D01*
X88365154Y-105679860D01*
X88360490Y-105673389D01*
X88360489Y-105673387D01*
X88329996Y-105642894D01*
X88293188Y-105606085D01*
X88274984Y-105581029D01*
X88268929Y-105569145D01*
X88259358Y-105508725D01*
X88260156Y-105503686D01*
X88287927Y-105449173D01*
X88360489Y-105376613D01*
X88369798Y-105360489D01*
X88419797Y-105273890D01*
X88419797Y-105273888D01*
X88419799Y-105273886D01*
X88450500Y-105159309D01*
X88450500Y-105040691D01*
X88419799Y-104926114D01*
X88419797Y-104926111D01*
X88419797Y-104926109D01*
X88419796Y-104926108D01*
X88419706Y-104925770D01*
X88418224Y-104923384D01*
X88361960Y-104825934D01*
X88360783Y-104823746D01*
X88360597Y-104823496D01*
X88360490Y-104823389D01*
X88360489Y-104823387D01*
X88276613Y-104739511D01*
X88276610Y-104739509D01*
X88276608Y-104739507D01*
X88276606Y-104739505D01*
X88231176Y-104713276D01*
X88210142Y-104689915D01*
X88132449Y-104669098D01*
X88129426Y-104668288D01*
X88059309Y-104649500D01*
X88059308Y-104649500D01*
X87940692Y-104649500D01*
X87940691Y-104649500D01*
X87905629Y-104658894D01*
X87870566Y-104668289D01*
X87870565Y-104668288D01*
X87826111Y-104680200D01*
X87826108Y-104680201D01*
X87723393Y-104739505D01*
X87639503Y-104823395D01*
X87580201Y-104926109D01*
X87579924Y-104926844D01*
X87579377Y-104929185D01*
X87549500Y-105040691D01*
X87549500Y-105159309D01*
X87553042Y-105172526D01*
X87580201Y-105273888D01*
X87580203Y-105273892D01*
X87639508Y-105376610D01*
X87706809Y-105443912D01*
X87725013Y-105468967D01*
X87731068Y-105480850D01*
X87740640Y-105541281D01*
X87740640Y-105541286D01*
X87739843Y-105546317D01*
X87712066Y-105600830D01*
X87670003Y-105642894D01*
X87670003Y-105642895D01*
X87639508Y-105673390D01*
X87639505Y-105673392D01*
X87580201Y-105776108D01*
X87580201Y-105776109D01*
X87563036Y-105840167D01*
X87563037Y-105840168D01*
X87549500Y-105890691D01*
X87549500Y-106009308D01*
X87570167Y-106086437D01*
X87580203Y-106123893D01*
X87637814Y-106223676D01*
X87639507Y-106226608D01*
X87639509Y-106226610D01*
X87639511Y-106226613D01*
X87723387Y-106310489D01*
X87723389Y-106310490D01*
X87723496Y-106310597D01*
X87723746Y-106310783D01*
X87725934Y-106311960D01*
X87823369Y-106368214D01*
X87825770Y-106369706D01*
X87826111Y-106369797D01*
X87826114Y-106369799D01*
X87940691Y-106400500D01*
X87940693Y-106400500D01*
X88059307Y-106400500D01*
X88059309Y-106400500D01*
X88173886Y-106369799D01*
X88173887Y-106369798D01*
X88173889Y-106369797D01*
X88173890Y-106369797D01*
X88270473Y-106314034D01*
X88273361Y-106312631D01*
X88274145Y-106312115D01*
X88279162Y-106309016D01*
X88280460Y-106308266D01*
X88285818Y-106301283D01*
X88360489Y-106226613D01*
X88360492Y-106226606D01*
X88362742Y-106223676D01*
X88375033Y-106210377D01*
X88384381Y-106201959D01*
X88440271Y-106177073D01*
X88500117Y-106189789D01*
X88504340Y-106192227D01*
X88534446Y-106222331D01*
X88535567Y-106221472D01*
X88539514Y-106226617D01*
X88623492Y-106310594D01*
X88623746Y-106310783D01*
X88625934Y-106311960D01*
X88723369Y-106368214D01*
X88725770Y-106369706D01*
X88726111Y-106369797D01*
X88726114Y-106369799D01*
X88840691Y-106400500D01*
X88840693Y-106400500D01*
X88959307Y-106400500D01*
X88959309Y-106400500D01*
X89073886Y-106369799D01*
X89073887Y-106369798D01*
X89073889Y-106369797D01*
X89073890Y-106369797D01*
X89170468Y-106314036D01*
X89171830Y-106313642D01*
X89174147Y-106312114D01*
X89179160Y-106309018D01*
X89180458Y-106308268D01*
X89185813Y-106301287D01*
X89218915Y-106268186D01*
X89243966Y-106249986D01*
X89255853Y-106243929D01*
X89316281Y-106234359D01*
X89321319Y-106235157D01*
X89375830Y-106262933D01*
X89423492Y-106310594D01*
X89423746Y-106310783D01*
X89425934Y-106311960D01*
X89523369Y-106368214D01*
X89525770Y-106369706D01*
X89526111Y-106369797D01*
X89526114Y-106369799D01*
X89640691Y-106400500D01*
X89640693Y-106400500D01*
X89759307Y-106400500D01*
X89759309Y-106400500D01*
X89873886Y-106369799D01*
X89873887Y-106369798D01*
X89873889Y-106369797D01*
X89873890Y-106369797D01*
X89970473Y-106314034D01*
X89973362Y-106312631D01*
X89974147Y-106312114D01*
X89979160Y-106309018D01*
X89980458Y-106308268D01*
X89985815Y-106301286D01*
X89999214Y-106287886D01*
X90024271Y-106269683D01*
X90034017Y-106264717D01*
X90094449Y-106255151D01*
X90148964Y-106282932D01*
X90175218Y-106329808D01*
X90176562Y-106335403D01*
X90179300Y-106358526D01*
X90179300Y-106366435D01*
X90204890Y-106461938D01*
X90250000Y-106540070D01*
X90250000Y-106600000D01*
X90306763Y-106600000D01*
X90324238Y-106617475D01*
X90332108Y-106622018D01*
X90356183Y-106641513D01*
X90362969Y-106649050D01*
X90363502Y-106649642D01*
X90388386Y-106705539D01*
X90375662Y-106765387D01*
X90337159Y-106802890D01*
X90332106Y-106805633D01*
X90310500Y-106814252D01*
X90270066Y-106825087D01*
X90270062Y-106825088D01*
X90270062Y-106825089D01*
X90270058Y-106825091D01*
X90240146Y-106842361D01*
X90184441Y-106874522D01*
X90114521Y-106944442D01*
X90065089Y-107030060D01*
X90064812Y-107030793D01*
X90064266Y-107033134D01*
X90039500Y-107125565D01*
X90039500Y-107224435D01*
X90051229Y-107268207D01*
X90059882Y-107300500D01*
X90059882Y-107300501D01*
X90065090Y-107319940D01*
X90065091Y-107319943D01*
X90114523Y-107405559D01*
X90114525Y-107405562D01*
X90184438Y-107475475D01*
X90184440Y-107475476D01*
X90184990Y-107475873D01*
X90187001Y-107476954D01*
X90213288Y-107492132D01*
X90234883Y-107516115D01*
X90269192Y-107524692D01*
X90270795Y-107525106D01*
X90365565Y-107550500D01*
X90365567Y-107550500D01*
X90464433Y-107550500D01*
X90464435Y-107550500D01*
X90559938Y-107524910D01*
X90559940Y-107524908D01*
X90559942Y-107524908D01*
X90585377Y-107510222D01*
X90645562Y-107475475D01*
X90715475Y-107405562D01*
X90764910Y-107319938D01*
X90790500Y-107224435D01*
X90790500Y-107125565D01*
X90764910Y-107030062D01*
X90764908Y-107030059D01*
X90764908Y-107030057D01*
X90764906Y-107030054D01*
X90764816Y-107029717D01*
X90763322Y-107027310D01*
X90716957Y-106947004D01*
X90716845Y-106946532D01*
X90716329Y-106945623D01*
X90715476Y-106944440D01*
X90715475Y-106944438D01*
X90645562Y-106874525D01*
X90637683Y-106869976D01*
X90613617Y-106850488D01*
X90606298Y-106842358D01*
X90581412Y-106786465D01*
X90594131Y-106726617D01*
X90632643Y-106689106D01*
X90637702Y-106686360D01*
X90659298Y-106677745D01*
X90699738Y-106666910D01*
X90763912Y-106629859D01*
X90770285Y-106626179D01*
X90786727Y-106618599D01*
X90792351Y-106616606D01*
X90792352Y-106616607D01*
X90819667Y-106606932D01*
X90823199Y-106605681D01*
X90856252Y-106600000D01*
X91055896Y-106600000D01*
X91086481Y-106604842D01*
X91098185Y-106608645D01*
X91147686Y-106644605D01*
X91166563Y-106700214D01*
X91166826Y-106710276D01*
X91163487Y-106738483D01*
X91149500Y-106790687D01*
X91149500Y-106790691D01*
X91149500Y-106909309D01*
X91154534Y-106928099D01*
X91168290Y-106979437D01*
X91180201Y-107023889D01*
X91180201Y-107023890D01*
X91238905Y-107125566D01*
X91239507Y-107126608D01*
X91239509Y-107126610D01*
X91239511Y-107126613D01*
X91323387Y-107210489D01*
X91323389Y-107210490D01*
X91323496Y-107210597D01*
X91323746Y-107210783D01*
X91325934Y-107211960D01*
X91423369Y-107268214D01*
X91425770Y-107269706D01*
X91426111Y-107269797D01*
X91426114Y-107269799D01*
X91540691Y-107300500D01*
X91540693Y-107300500D01*
X91659307Y-107300500D01*
X91659309Y-107300500D01*
X91773886Y-107269799D01*
X91773887Y-107269798D01*
X91773889Y-107269797D01*
X91773890Y-107269797D01*
X91870473Y-107214034D01*
X91873361Y-107212631D01*
X91874145Y-107212115D01*
X91879162Y-107209016D01*
X91880460Y-107208266D01*
X91885818Y-107201283D01*
X91960489Y-107126613D01*
X91960492Y-107126608D01*
X92019797Y-107023890D01*
X92019797Y-107023888D01*
X92019799Y-107023886D01*
X92050500Y-106909309D01*
X92050500Y-106790691D01*
X92036854Y-106739765D01*
X92033617Y-106708967D01*
X92034262Y-106696673D01*
X92056188Y-106639555D01*
X92105013Y-106606934D01*
X92114670Y-106604073D01*
X92142777Y-106600000D01*
X93085320Y-106600000D01*
X93115908Y-106604843D01*
X93128595Y-106608966D01*
X93178095Y-106644927D01*
X93178096Y-106644928D01*
X93181091Y-106649050D01*
X93200000Y-106707240D01*
X93200000Y-106736306D01*
X93195154Y-106766899D01*
X93191032Y-106779585D01*
X93155068Y-106829085D01*
X93146131Y-106835578D01*
X93113564Y-106851112D01*
X93080062Y-106860089D01*
X93080058Y-106860091D01*
X93076513Y-106862138D01*
X92994441Y-106909522D01*
X92924521Y-106979442D01*
X92875089Y-107065060D01*
X92874812Y-107065793D01*
X92874266Y-107068134D01*
X92858598Y-107126610D01*
X92849500Y-107160565D01*
X92849500Y-107259435D01*
X92852252Y-107269706D01*
X92865712Y-107319938D01*
X92865711Y-107319938D01*
X92875091Y-107354942D01*
X92924523Y-107440559D01*
X92924525Y-107440562D01*
X92994438Y-107510475D01*
X92994440Y-107510476D01*
X92994992Y-107510874D01*
X92997012Y-107511961D01*
X93080054Y-107559906D01*
X93080058Y-107559908D01*
X93080062Y-107559910D01*
X93081568Y-107560313D01*
X93084122Y-107561450D01*
X93084737Y-107561684D01*
X93084723Y-107561718D01*
X93109868Y-107572913D01*
X93116782Y-107577403D01*
X93155287Y-107624953D01*
X93158490Y-107686054D01*
X93125166Y-107737368D01*
X93125162Y-107737371D01*
X93121888Y-107740022D01*
X93085216Y-107758708D01*
X93080063Y-107760088D01*
X92994441Y-107809522D01*
X92924521Y-107879442D01*
X92875089Y-107965060D01*
X92874812Y-107965793D01*
X92874266Y-107968134D01*
X92860264Y-108020392D01*
X92849500Y-108060565D01*
X92849500Y-108159435D01*
X92872067Y-108243657D01*
X92872068Y-108243660D01*
X92875090Y-108254940D01*
X92924518Y-108340551D01*
X92924520Y-108340555D01*
X92924523Y-108340559D01*
X92924525Y-108340562D01*
X92994438Y-108410475D01*
X92994440Y-108410476D01*
X92994992Y-108410874D01*
X92997012Y-108411961D01*
X93080054Y-108459906D01*
X93080058Y-108459908D01*
X93080062Y-108459910D01*
X93081568Y-108460313D01*
X93084122Y-108461450D01*
X93084737Y-108461684D01*
X93084723Y-108461718D01*
X93109868Y-108472913D01*
X93116782Y-108477403D01*
X93155287Y-108524953D01*
X93158490Y-108586054D01*
X93125166Y-108637368D01*
X93125162Y-108637371D01*
X93121888Y-108640022D01*
X93085216Y-108658708D01*
X93080063Y-108660088D01*
X92994441Y-108709522D01*
X92924521Y-108779442D01*
X92875090Y-108865056D01*
X92875089Y-108865059D01*
X92860782Y-108918454D01*
X92849500Y-108960561D01*
X92849500Y-109059434D01*
X92867195Y-109125475D01*
X92871658Y-109142130D01*
X92875091Y-109154942D01*
X92924523Y-109240559D01*
X92924525Y-109240562D01*
X92994438Y-109310475D01*
X92994440Y-109310476D01*
X92994990Y-109310873D01*
X92996999Y-109311953D01*
X93072202Y-109355372D01*
X93077304Y-109358318D01*
X93079717Y-109359816D01*
X93080055Y-109359906D01*
X93080058Y-109359908D01*
X93080059Y-109359908D01*
X93080062Y-109359910D01*
X93111483Y-109368329D01*
X93139773Y-109380925D01*
X93149891Y-109387496D01*
X93150961Y-109388191D01*
X93189462Y-109435733D01*
X93193422Y-109446047D01*
X93200000Y-109481532D01*
X93200000Y-109589620D01*
X93181093Y-109647811D01*
X93180810Y-109648169D01*
X93142703Y-109700627D01*
X93113519Y-109757914D01*
X93113517Y-109757919D01*
X93109396Y-109770606D01*
X93101874Y-109801941D01*
X93101873Y-109801948D01*
X93097029Y-109832534D01*
X93094500Y-109864686D01*
X93094500Y-110447098D01*
X93075593Y-110505289D01*
X93026093Y-110541253D01*
X93007778Y-110545334D01*
X92963875Y-110550821D01*
X92924458Y-110560830D01*
X92863404Y-110556825D01*
X92827063Y-110528445D01*
X92826128Y-110529381D01*
X92820486Y-110523739D01*
X92820485Y-110523737D01*
X92741263Y-110444515D01*
X92741260Y-110444513D01*
X92701526Y-110421572D01*
X92680492Y-110398210D01*
X92602251Y-110377247D01*
X92602250Y-110377246D01*
X92553764Y-110364255D01*
X92536018Y-110359500D01*
X92536017Y-110359500D01*
X92423983Y-110359500D01*
X92423982Y-110359500D01*
X92409986Y-110363250D01*
X92357748Y-110377246D01*
X92357748Y-110377247D01*
X92324626Y-110386121D01*
X92315754Y-110388499D01*
X92218741Y-110444511D01*
X92139510Y-110523742D01*
X92131902Y-110536920D01*
X92112412Y-110560989D01*
X92098308Y-110573689D01*
X92052654Y-110596954D01*
X92048511Y-110597835D01*
X92027919Y-110600000D01*
X89539029Y-110600000D01*
X89508437Y-110595155D01*
X89497006Y-110591441D01*
X89487055Y-110588207D01*
X89446426Y-110560465D01*
X89445477Y-110561415D01*
X89442032Y-110557969D01*
X89421663Y-110541253D01*
X89303785Y-110444513D01*
X88972264Y-110172441D01*
X88972261Y-110172439D01*
X88972252Y-110172433D01*
X88436330Y-109885978D01*
X88436326Y-109885976D01*
X88436315Y-109885972D01*
X87854783Y-109709565D01*
X87854772Y-109709562D01*
X87854773Y-109709562D01*
X87854760Y-109709560D01*
X87250012Y-109650000D01*
X87250003Y-109650000D01*
X87249996Y-109650000D01*
X87249988Y-109650000D01*
X86674308Y-109706699D01*
X86643385Y-109704875D01*
X86630356Y-109702016D01*
X86577570Y-109671076D01*
X86575797Y-109669080D01*
X86552900Y-109623582D01*
X86552094Y-109619726D01*
X86550000Y-109599470D01*
X86550000Y-108775565D01*
X90039500Y-108775565D01*
X90039500Y-108874435D01*
X90062067Y-108958657D01*
X90062068Y-108958660D01*
X90065090Y-108969940D01*
X90114518Y-109055551D01*
X90114520Y-109055555D01*
X90114523Y-109055559D01*
X90114525Y-109055562D01*
X90184438Y-109125475D01*
X90184440Y-109125476D01*
X90184990Y-109125873D01*
X90187001Y-109126954D01*
X90213288Y-109142132D01*
X90234883Y-109166115D01*
X90269192Y-109174692D01*
X90270795Y-109175106D01*
X90365565Y-109200500D01*
X90365567Y-109200500D01*
X90464433Y-109200500D01*
X90464435Y-109200500D01*
X90559938Y-109174910D01*
X90559940Y-109174908D01*
X90559942Y-109174908D01*
X90585377Y-109160222D01*
X90645562Y-109125475D01*
X90715475Y-109055562D01*
X90764910Y-108969938D01*
X90790500Y-108874435D01*
X90790500Y-108775565D01*
X90764910Y-108680062D01*
X90764908Y-108680059D01*
X90764908Y-108680057D01*
X90764906Y-108680054D01*
X90764816Y-108679717D01*
X90763322Y-108677310D01*
X90716957Y-108597004D01*
X90715875Y-108594994D01*
X90715476Y-108594440D01*
X90715475Y-108594438D01*
X90645562Y-108524525D01*
X90645559Y-108524523D01*
X90645557Y-108524521D01*
X90622593Y-108511263D01*
X90622592Y-108511263D01*
X90617228Y-108508166D01*
X90596192Y-108484803D01*
X90519945Y-108464374D01*
X90519941Y-108464373D01*
X90464435Y-108449500D01*
X90464434Y-108449500D01*
X90365566Y-108449500D01*
X90365565Y-108449500D01*
X90310055Y-108464374D01*
X90310054Y-108464373D01*
X90270056Y-108475091D01*
X90184442Y-108524521D01*
X90114521Y-108594442D01*
X90065089Y-108680060D01*
X90064812Y-108680793D01*
X90064624Y-108681598D01*
X90064633Y-108681724D01*
X90064445Y-108682466D01*
X90039500Y-108775565D01*
X86550000Y-108775565D01*
X86550000Y-108535549D01*
X86553373Y-108509929D01*
X86559889Y-108485608D01*
X86569776Y-108461734D01*
X86606610Y-108397938D01*
X86632200Y-108302435D01*
X86632200Y-108203565D01*
X86629632Y-108193982D01*
X91374500Y-108193982D01*
X91374500Y-108306018D01*
X91383753Y-108340551D01*
X91399129Y-108397937D01*
X91399131Y-108397940D01*
X91403498Y-108414241D01*
X91403498Y-108414243D01*
X91451683Y-108497698D01*
X91451683Y-108497699D01*
X91459514Y-108511263D01*
X91503072Y-108554820D01*
X91538737Y-108590485D01*
X91538739Y-108590486D01*
X91539289Y-108590883D01*
X91541300Y-108591964D01*
X91578989Y-108613725D01*
X91600585Y-108637708D01*
X91634893Y-108646285D01*
X91636496Y-108646699D01*
X91743982Y-108675500D01*
X91743984Y-108675500D01*
X91856016Y-108675500D01*
X91856018Y-108675500D01*
X91964237Y-108646503D01*
X91964239Y-108646501D01*
X91964241Y-108646501D01*
X92020672Y-108613920D01*
X92061263Y-108590485D01*
X92140485Y-108511263D01*
X92196503Y-108414237D01*
X92225500Y-108306018D01*
X92225500Y-108193982D01*
X92196503Y-108085763D01*
X92196501Y-108085760D01*
X92196501Y-108085758D01*
X92196499Y-108085755D01*
X92196409Y-108085418D01*
X92194915Y-108083011D01*
X92141967Y-107991303D01*
X92140885Y-107989293D01*
X92140486Y-107988739D01*
X92140485Y-107988737D01*
X92061263Y-107909515D01*
X92061256Y-107909511D01*
X92049326Y-107902623D01*
X92021527Y-107886573D01*
X92000490Y-107863210D01*
X91922251Y-107842247D01*
X91922250Y-107842246D01*
X91873764Y-107829255D01*
X91856018Y-107824500D01*
X91856017Y-107824500D01*
X91743983Y-107824500D01*
X91743982Y-107824500D01*
X91729986Y-107828250D01*
X91677748Y-107842246D01*
X91677748Y-107842247D01*
X91644626Y-107851121D01*
X91635754Y-107853499D01*
X91538741Y-107909511D01*
X91459509Y-107988743D01*
X91403497Y-108085758D01*
X91403219Y-108086494D01*
X91402673Y-108088835D01*
X91374500Y-108193982D01*
X86629632Y-108193982D01*
X86606610Y-108108062D01*
X86606608Y-108108059D01*
X86606608Y-108108057D01*
X86569778Y-108044267D01*
X86559891Y-108020397D01*
X86553372Y-107996070D01*
X86550000Y-107970451D01*
X86550000Y-92214680D01*
X86554843Y-92184094D01*
X86558965Y-92171405D01*
X86594923Y-92121906D01*
X86595522Y-92121471D01*
X86599063Y-92118900D01*
X86657243Y-92100000D01*
X88755915Y-92100000D01*
X88786503Y-92104843D01*
G37*
%TD.AperFunction*%
%TD*%
%TA.AperFunction,Conductor*%
%TO.N,M1_SRC*%
G36*
X106766895Y-106804843D02*
G01*
X106779582Y-106808966D01*
X106829082Y-106844927D01*
X106829085Y-106844931D01*
X106835578Y-106853868D01*
X106851112Y-106886435D01*
X106860088Y-106919936D01*
X106861114Y-106921987D01*
X106862593Y-106924275D01*
X106909521Y-107005557D01*
X106909523Y-107005559D01*
X106909525Y-107005562D01*
X106979438Y-107075475D01*
X106984376Y-107078326D01*
X107008289Y-107092132D01*
X107029883Y-107116115D01*
X107064192Y-107124692D01*
X107065795Y-107125106D01*
X107160565Y-107150500D01*
X107160567Y-107150500D01*
X107259433Y-107150500D01*
X107259435Y-107150500D01*
X107354938Y-107124910D01*
X107354940Y-107124908D01*
X107354942Y-107124908D01*
X107380377Y-107110222D01*
X107440562Y-107075475D01*
X107510475Y-107005562D01*
X107559910Y-106919938D01*
X107560314Y-106918431D01*
X107572909Y-106890133D01*
X107577402Y-106883215D01*
X107624948Y-106844711D01*
X107686049Y-106841506D01*
X107737365Y-106874828D01*
X107737375Y-106874841D01*
X107740028Y-106878118D01*
X107758710Y-106914788D01*
X107760090Y-106919941D01*
X107760091Y-106919943D01*
X107794442Y-106979438D01*
X107794442Y-106979439D01*
X107809521Y-107005557D01*
X107809523Y-107005559D01*
X107809525Y-107005562D01*
X107879438Y-107075475D01*
X107884376Y-107078326D01*
X107908289Y-107092132D01*
X107929883Y-107116115D01*
X107964192Y-107124692D01*
X107965795Y-107125106D01*
X108060565Y-107150500D01*
X108060567Y-107150500D01*
X108159433Y-107150500D01*
X108159435Y-107150500D01*
X108254938Y-107124910D01*
X108254940Y-107124908D01*
X108254942Y-107124908D01*
X108280377Y-107110222D01*
X108340562Y-107075475D01*
X108410475Y-107005562D01*
X108459910Y-106919938D01*
X108460314Y-106918431D01*
X108472909Y-106890133D01*
X108477402Y-106883215D01*
X108524948Y-106844711D01*
X108586049Y-106841506D01*
X108637365Y-106874828D01*
X108637375Y-106874841D01*
X108640028Y-106878118D01*
X108658710Y-106914788D01*
X108660090Y-106919941D01*
X108660091Y-106919943D01*
X108694442Y-106979438D01*
X108694442Y-106979439D01*
X108709521Y-107005557D01*
X108709523Y-107005559D01*
X108709525Y-107005562D01*
X108779438Y-107075475D01*
X108784376Y-107078326D01*
X108808289Y-107092132D01*
X108829883Y-107116115D01*
X108864192Y-107124692D01*
X108865795Y-107125106D01*
X108960565Y-107150500D01*
X108960567Y-107150500D01*
X109059433Y-107150500D01*
X109059435Y-107150500D01*
X109154938Y-107124910D01*
X109154940Y-107124908D01*
X109154942Y-107124908D01*
X109180377Y-107110222D01*
X109240562Y-107075475D01*
X109310475Y-107005562D01*
X109359910Y-106919938D01*
X109364374Y-106903280D01*
X109368328Y-106888520D01*
X109380924Y-106860229D01*
X109388192Y-106849037D01*
X109435738Y-106810536D01*
X109441895Y-106808172D01*
X109446064Y-106806573D01*
X109481535Y-106800000D01*
X109577944Y-106800000D01*
X109636135Y-106818907D01*
X109642634Y-106824847D01*
X109642814Y-106824633D01*
X109648795Y-106829626D01*
X109648797Y-106829628D01*
X109727307Y-106876536D01*
X109785498Y-106895443D01*
X109798198Y-106897454D01*
X109848996Y-106905500D01*
X109849000Y-106905500D01*
X110445800Y-106905500D01*
X110503991Y-106924407D01*
X110539955Y-106973907D01*
X110544696Y-106999967D01*
X110545362Y-107014499D01*
X110547019Y-107032536D01*
X110558900Y-107071706D01*
X110557697Y-107132880D01*
X110527764Y-107174361D01*
X110528328Y-107174925D01*
X110524846Y-107178406D01*
X110524432Y-107178981D01*
X110523744Y-107179508D01*
X110444509Y-107258743D01*
X110388497Y-107355758D01*
X110388219Y-107356494D01*
X110387673Y-107358835D01*
X110359500Y-107463982D01*
X110359500Y-107576017D01*
X110372490Y-107624498D01*
X110372491Y-107624500D01*
X110388499Y-107684244D01*
X110440256Y-107773886D01*
X110440258Y-107773890D01*
X110444512Y-107781259D01*
X110444513Y-107781260D01*
X110444515Y-107781263D01*
X110523737Y-107860485D01*
X110523739Y-107860486D01*
X110523740Y-107860487D01*
X110536918Y-107868095D01*
X110560991Y-107887588D01*
X110573689Y-107901690D01*
X110596952Y-107947334D01*
X110597833Y-107951480D01*
X110600000Y-107972076D01*
X110600000Y-110460968D01*
X110595155Y-110491560D01*
X110588208Y-110512941D01*
X110559110Y-110555596D01*
X110559639Y-110556180D01*
X110559698Y-110556239D01*
X110559695Y-110556241D01*
X110559775Y-110556330D01*
X110557984Y-110557952D01*
X110557958Y-110557978D01*
X110172443Y-111027730D01*
X110172437Y-111027740D01*
X109885978Y-111563667D01*
X109885976Y-111563671D01*
X109885972Y-111563682D01*
X109709565Y-112145214D01*
X109709564Y-112145220D01*
X109709561Y-112145230D01*
X109650000Y-112749988D01*
X109650000Y-112750011D01*
X109706699Y-113325691D01*
X109704875Y-113356614D01*
X109702016Y-113369643D01*
X109671076Y-113422429D01*
X109671073Y-113422432D01*
X109669082Y-113424201D01*
X109623611Y-113447093D01*
X109621126Y-113447613D01*
X109619753Y-113447900D01*
X109599471Y-113450000D01*
X108536069Y-113450000D01*
X108510445Y-113446626D01*
X108486124Y-113440109D01*
X108462251Y-113430220D01*
X108455227Y-113426165D01*
X108434193Y-113402804D01*
X108360886Y-113383160D01*
X108360886Y-113383161D01*
X108302435Y-113367500D01*
X108203565Y-113367500D01*
X108203563Y-113367500D01*
X108145115Y-113383159D01*
X108145116Y-113383160D01*
X108108061Y-113393089D01*
X108108058Y-113393090D01*
X108043748Y-113430220D01*
X108019876Y-113440108D01*
X107995559Y-113446625D01*
X107969931Y-113450000D01*
X92214680Y-113450000D01*
X92184087Y-113445154D01*
X92171401Y-113441032D01*
X92121901Y-113405068D01*
X92121894Y-113405058D01*
X92118900Y-113400936D01*
X92100000Y-113342756D01*
X92100000Y-111244085D01*
X92104847Y-111213488D01*
X92108368Y-111202653D01*
X92144334Y-111153155D01*
X92202521Y-111134250D01*
X92207390Y-111134250D01*
X92256894Y-111147516D01*
X92258993Y-111148728D01*
X92280582Y-111172707D01*
X92314893Y-111181285D01*
X92316496Y-111181699D01*
X92423982Y-111210500D01*
X92423984Y-111210500D01*
X92536016Y-111210500D01*
X92536018Y-111210500D01*
X92644237Y-111181503D01*
X92644238Y-111181501D01*
X92644240Y-111181501D01*
X92644241Y-111181501D01*
X92682678Y-111159309D01*
X92741263Y-111125485D01*
X92820485Y-111046263D01*
X92876503Y-110949237D01*
X92905334Y-110841635D01*
X92911601Y-110824650D01*
X92912200Y-110823395D01*
X92918642Y-110809887D01*
X92960753Y-110765507D01*
X92967228Y-110761992D01*
X93014457Y-110750000D01*
X93299999Y-110750000D01*
X93300000Y-110750000D01*
X93300000Y-109864680D01*
X93304843Y-109834094D01*
X93305754Y-109831290D01*
X93308965Y-109821405D01*
X93344923Y-109771906D01*
X93345522Y-109771471D01*
X93349063Y-109768900D01*
X93407243Y-109750000D01*
X93902985Y-109750000D01*
X93933573Y-109754843D01*
X93956804Y-109762391D01*
X93996213Y-109786540D01*
X94020138Y-109810465D01*
X94094362Y-109853318D01*
X94177147Y-109875500D01*
X94177149Y-109875500D01*
X94262851Y-109875500D01*
X94262853Y-109875500D01*
X94345638Y-109853318D01*
X94409192Y-109816625D01*
X94438098Y-109805528D01*
X94451151Y-109802753D01*
X94457577Y-109803428D01*
X94463539Y-109800929D01*
X94511980Y-109809145D01*
X94511998Y-109809147D01*
X94514961Y-109810466D01*
X94522096Y-109813643D01*
X94530865Y-109819670D01*
X94547543Y-109829791D01*
X94567237Y-109849485D01*
X94573874Y-109853317D01*
X94664259Y-109905501D01*
X94664257Y-109905501D01*
X94664261Y-109905502D01*
X94664263Y-109905503D01*
X94772482Y-109934500D01*
X94772484Y-109934500D01*
X94884516Y-109934500D01*
X94884518Y-109934500D01*
X94992737Y-109905503D01*
X94992739Y-109905501D01*
X94992741Y-109905501D01*
X95027425Y-109885476D01*
X95089763Y-109849485D01*
X95149166Y-109790080D01*
X95174224Y-109771875D01*
X95195989Y-109760787D01*
X95240928Y-109750000D01*
X95616476Y-109750000D01*
X95647068Y-109754845D01*
X95654907Y-109757392D01*
X95704407Y-109793356D01*
X95723315Y-109851546D01*
X95704419Y-109909721D01*
X95701944Y-109913129D01*
X95677926Y-109934759D01*
X95678539Y-109935558D01*
X95673390Y-109939508D01*
X95589503Y-110023395D01*
X95530201Y-110126109D01*
X95529924Y-110126844D01*
X95529377Y-110129185D01*
X95499500Y-110240691D01*
X95499500Y-110359308D01*
X95507321Y-110388496D01*
X95530203Y-110473893D01*
X95589508Y-110576610D01*
X95631809Y-110618912D01*
X95650013Y-110643967D01*
X95656068Y-110655850D01*
X95665640Y-110716281D01*
X95665640Y-110716286D01*
X95664843Y-110721317D01*
X95637066Y-110775830D01*
X95589511Y-110823386D01*
X95589511Y-110823387D01*
X95589503Y-110823395D01*
X95530201Y-110926109D01*
X95529924Y-110926844D01*
X95529377Y-110929185D01*
X95499500Y-111040691D01*
X95499500Y-111159309D01*
X95499499Y-111159309D01*
X95505446Y-111181503D01*
X95530201Y-111273889D01*
X95530201Y-111273890D01*
X95589506Y-111376607D01*
X95589507Y-111376608D01*
X95589509Y-111376610D01*
X95589511Y-111376613D01*
X95673387Y-111460489D01*
X95673389Y-111460490D01*
X95673392Y-111460493D01*
X95673733Y-111460739D01*
X95689419Y-111474809D01*
X95698040Y-111484384D01*
X95722925Y-111540280D01*
X95710202Y-111600128D01*
X95710199Y-111600134D01*
X95708041Y-111603871D01*
X95676049Y-111633997D01*
X95665233Y-111647664D01*
X95606089Y-111706807D01*
X95581033Y-111725012D01*
X95569148Y-111731068D01*
X95508716Y-111740640D01*
X95508712Y-111740639D01*
X95503676Y-111739842D01*
X95449169Y-111712066D01*
X95376608Y-111639506D01*
X95331176Y-111613276D01*
X95310142Y-111589915D01*
X95237995Y-111570584D01*
X95229426Y-111568288D01*
X95159309Y-111549500D01*
X95159308Y-111549500D01*
X95040692Y-111549500D01*
X95040691Y-111549500D01*
X95005629Y-111558894D01*
X94970566Y-111568289D01*
X94970565Y-111568288D01*
X94926111Y-111580200D01*
X94926108Y-111580201D01*
X94823393Y-111639505D01*
X94739503Y-111723395D01*
X94680201Y-111826109D01*
X94679924Y-111826844D01*
X94679377Y-111829185D01*
X94649500Y-111940691D01*
X94649500Y-112059308D01*
X94672520Y-112145220D01*
X94680200Y-112173886D01*
X94680201Y-112173887D01*
X94680202Y-112173890D01*
X94739507Y-112276608D01*
X94739509Y-112276610D01*
X94739511Y-112276613D01*
X94823387Y-112360489D01*
X94823389Y-112360490D01*
X94823496Y-112360597D01*
X94823746Y-112360783D01*
X94825934Y-112361960D01*
X94923369Y-112418214D01*
X94925770Y-112419706D01*
X94926111Y-112419797D01*
X94926114Y-112419799D01*
X95040691Y-112450500D01*
X95040693Y-112450500D01*
X95159307Y-112450500D01*
X95159309Y-112450500D01*
X95273886Y-112419799D01*
X95273887Y-112419798D01*
X95273889Y-112419797D01*
X95273890Y-112419797D01*
X95370468Y-112364036D01*
X95371852Y-112363628D01*
X95374157Y-112362108D01*
X95379163Y-112359017D01*
X95380458Y-112358269D01*
X95385819Y-112351283D01*
X95391238Y-112345863D01*
X95443911Y-112293189D01*
X95468966Y-112274986D01*
X95480853Y-112268929D01*
X95541281Y-112259359D01*
X95546319Y-112260157D01*
X95600830Y-112287933D01*
X95673492Y-112360594D01*
X95673746Y-112360783D01*
X95675934Y-112361960D01*
X95773369Y-112418214D01*
X95775770Y-112419706D01*
X95776111Y-112419797D01*
X95776114Y-112419799D01*
X95890691Y-112450500D01*
X95890693Y-112450500D01*
X96009307Y-112450500D01*
X96009309Y-112450500D01*
X96123886Y-112419799D01*
X96123887Y-112419798D01*
X96123889Y-112419797D01*
X96123890Y-112419797D01*
X96220473Y-112364034D01*
X96223361Y-112362631D01*
X96224145Y-112362115D01*
X96229162Y-112359016D01*
X96230460Y-112358266D01*
X96235818Y-112351283D01*
X96310489Y-112276613D01*
X96310492Y-112276608D01*
X96369797Y-112173890D01*
X96369797Y-112173888D01*
X96369799Y-112173886D01*
X96400500Y-112059309D01*
X96400500Y-111940691D01*
X96369799Y-111826114D01*
X96369797Y-111826111D01*
X96369797Y-111826109D01*
X96369796Y-111826108D01*
X96369706Y-111825770D01*
X96368224Y-111823384D01*
X96311960Y-111725934D01*
X96310783Y-111723746D01*
X96310597Y-111723496D01*
X96310490Y-111723389D01*
X96310489Y-111723387D01*
X96226613Y-111639511D01*
X96226610Y-111639509D01*
X96226605Y-111639504D01*
X96223670Y-111637252D01*
X96210368Y-111624956D01*
X96201959Y-111615617D01*
X96177072Y-111559722D01*
X96189792Y-111499878D01*
X96192237Y-111495642D01*
X96222330Y-111465557D01*
X96221469Y-111464435D01*
X96226608Y-111460491D01*
X96226613Y-111460489D01*
X96310489Y-111376613D01*
X96310492Y-111376608D01*
X96369797Y-111273890D01*
X96369797Y-111273888D01*
X96369799Y-111273886D01*
X96400500Y-111159309D01*
X96400500Y-111040691D01*
X96369799Y-110926114D01*
X96369797Y-110926111D01*
X96369797Y-110926109D01*
X96310492Y-110823391D01*
X96310490Y-110823389D01*
X96310489Y-110823387D01*
X96262324Y-110775222D01*
X96257512Y-110768455D01*
X96256372Y-110764821D01*
X96249984Y-110756029D01*
X96243929Y-110744145D01*
X96234358Y-110683725D01*
X96235156Y-110678686D01*
X96262927Y-110624173D01*
X96310489Y-110576613D01*
X96334607Y-110534840D01*
X96369797Y-110473890D01*
X96369797Y-110473888D01*
X96369799Y-110473886D01*
X96400500Y-110359309D01*
X96400500Y-110240691D01*
X96369799Y-110126114D01*
X96369797Y-110126111D01*
X96369797Y-110126109D01*
X96369796Y-110126108D01*
X96369706Y-110125770D01*
X96368224Y-110123384D01*
X96311960Y-110025934D01*
X96310783Y-110023746D01*
X96310597Y-110023496D01*
X96310490Y-110023389D01*
X96310489Y-110023387D01*
X96226613Y-109939511D01*
X96226610Y-109939509D01*
X96226609Y-109939508D01*
X96222828Y-109936408D01*
X96222948Y-109936260D01*
X96208358Y-109923646D01*
X96202330Y-109916950D01*
X96177448Y-109861052D01*
X96190175Y-109801205D01*
X96235644Y-109760271D01*
X96239504Y-109758552D01*
X96279756Y-109750000D01*
X100616476Y-109750000D01*
X100647068Y-109754845D01*
X100654907Y-109757392D01*
X100704407Y-109793356D01*
X100723315Y-109851546D01*
X100704419Y-109909721D01*
X100701944Y-109913129D01*
X100677926Y-109934759D01*
X100678539Y-109935558D01*
X100673390Y-109939508D01*
X100589503Y-110023395D01*
X100530201Y-110126109D01*
X100529924Y-110126844D01*
X100529377Y-110129185D01*
X100499500Y-110240691D01*
X100499500Y-110359308D01*
X100507321Y-110388496D01*
X100530203Y-110473893D01*
X100589508Y-110576610D01*
X100631809Y-110618912D01*
X100650013Y-110643967D01*
X100656068Y-110655850D01*
X100665640Y-110716281D01*
X100665640Y-110716286D01*
X100664843Y-110721317D01*
X100637066Y-110775830D01*
X100589511Y-110823386D01*
X100589511Y-110823387D01*
X100589503Y-110823395D01*
X100530201Y-110926109D01*
X100529924Y-110926844D01*
X100529377Y-110929185D01*
X100499500Y-111040691D01*
X100499500Y-111159309D01*
X100499499Y-111159309D01*
X100505446Y-111181503D01*
X100530201Y-111273889D01*
X100530201Y-111273890D01*
X100589506Y-111376607D01*
X100589507Y-111376608D01*
X100589509Y-111376610D01*
X100589511Y-111376613D01*
X100673387Y-111460489D01*
X100673389Y-111460490D01*
X100673392Y-111460493D01*
X100673733Y-111460739D01*
X100689419Y-111474809D01*
X100698040Y-111484384D01*
X100722925Y-111540280D01*
X100710202Y-111600128D01*
X100710199Y-111600134D01*
X100708041Y-111603871D01*
X100676049Y-111633997D01*
X100665233Y-111647664D01*
X100606089Y-111706807D01*
X100581033Y-111725012D01*
X100569148Y-111731068D01*
X100508716Y-111740640D01*
X100508712Y-111740639D01*
X100503676Y-111739842D01*
X100449169Y-111712066D01*
X100376608Y-111639506D01*
X100331176Y-111613276D01*
X100310142Y-111589915D01*
X100237995Y-111570584D01*
X100229426Y-111568288D01*
X100159309Y-111549500D01*
X100159308Y-111549500D01*
X100040692Y-111549500D01*
X100040691Y-111549500D01*
X100005629Y-111558894D01*
X99970566Y-111568289D01*
X99970565Y-111568288D01*
X99926111Y-111580200D01*
X99926108Y-111580201D01*
X99823393Y-111639505D01*
X99739503Y-111723395D01*
X99680201Y-111826109D01*
X99679924Y-111826844D01*
X99679377Y-111829185D01*
X99649500Y-111940691D01*
X99649500Y-112059308D01*
X99672520Y-112145220D01*
X99680200Y-112173886D01*
X99680201Y-112173887D01*
X99680202Y-112173890D01*
X99739507Y-112276608D01*
X99739509Y-112276610D01*
X99739511Y-112276613D01*
X99823387Y-112360489D01*
X99823389Y-112360490D01*
X99823496Y-112360597D01*
X99823746Y-112360783D01*
X99825934Y-112361960D01*
X99923369Y-112418214D01*
X99925770Y-112419706D01*
X99926111Y-112419797D01*
X99926114Y-112419799D01*
X100040691Y-112450500D01*
X100040693Y-112450500D01*
X100159307Y-112450500D01*
X100159309Y-112450500D01*
X100273886Y-112419799D01*
X100273887Y-112419798D01*
X100273889Y-112419797D01*
X100273890Y-112419797D01*
X100370468Y-112364036D01*
X100371852Y-112363628D01*
X100374157Y-112362108D01*
X100379163Y-112359017D01*
X100380458Y-112358269D01*
X100385819Y-112351283D01*
X100391238Y-112345863D01*
X100443911Y-112293189D01*
X100468966Y-112274986D01*
X100480853Y-112268929D01*
X100541281Y-112259359D01*
X100546319Y-112260157D01*
X100600830Y-112287933D01*
X100673492Y-112360594D01*
X100673746Y-112360783D01*
X100675934Y-112361960D01*
X100773369Y-112418214D01*
X100775770Y-112419706D01*
X100776111Y-112419797D01*
X100776114Y-112419799D01*
X100890691Y-112450500D01*
X100890693Y-112450500D01*
X101009307Y-112450500D01*
X101009309Y-112450500D01*
X101123886Y-112419799D01*
X101123887Y-112419798D01*
X101123889Y-112419797D01*
X101123890Y-112419797D01*
X101220473Y-112364034D01*
X101223361Y-112362631D01*
X101224145Y-112362115D01*
X101229162Y-112359016D01*
X101230460Y-112358266D01*
X101235818Y-112351283D01*
X101310489Y-112276613D01*
X101310492Y-112276608D01*
X101369797Y-112173890D01*
X101369797Y-112173888D01*
X101369799Y-112173886D01*
X101400500Y-112059309D01*
X101400500Y-111940691D01*
X101369799Y-111826114D01*
X101369797Y-111826111D01*
X101369797Y-111826109D01*
X101369796Y-111826108D01*
X101369706Y-111825770D01*
X101368224Y-111823384D01*
X101311960Y-111725934D01*
X101310783Y-111723746D01*
X101310597Y-111723496D01*
X101310490Y-111723389D01*
X101310489Y-111723387D01*
X101226613Y-111639511D01*
X101226610Y-111639509D01*
X101226605Y-111639504D01*
X101223670Y-111637252D01*
X101210368Y-111624956D01*
X101201959Y-111615617D01*
X101177072Y-111559722D01*
X101189792Y-111499878D01*
X101192237Y-111495642D01*
X101222330Y-111465557D01*
X101221469Y-111464435D01*
X101226608Y-111460491D01*
X101226613Y-111460489D01*
X101310489Y-111376613D01*
X101310492Y-111376608D01*
X101369797Y-111273890D01*
X101369797Y-111273888D01*
X101369799Y-111273886D01*
X101400500Y-111159309D01*
X101400500Y-111040691D01*
X101369799Y-110926114D01*
X101369797Y-110926111D01*
X101369797Y-110926109D01*
X101310492Y-110823391D01*
X101310490Y-110823389D01*
X101310489Y-110823387D01*
X101262324Y-110775222D01*
X101257512Y-110768455D01*
X101256372Y-110764821D01*
X101249984Y-110756029D01*
X101243929Y-110744145D01*
X101234358Y-110683725D01*
X101235156Y-110678686D01*
X101262927Y-110624173D01*
X101310489Y-110576613D01*
X101334607Y-110534840D01*
X101369797Y-110473890D01*
X101369797Y-110473888D01*
X101369799Y-110473886D01*
X101400500Y-110359309D01*
X101400500Y-110240691D01*
X101369799Y-110126114D01*
X101369797Y-110126111D01*
X101369797Y-110126109D01*
X101369796Y-110126108D01*
X101369706Y-110125770D01*
X101368224Y-110123384D01*
X101311960Y-110025934D01*
X101310783Y-110023746D01*
X101310597Y-110023496D01*
X101310490Y-110023389D01*
X101310489Y-110023387D01*
X101226613Y-109939511D01*
X101226610Y-109939509D01*
X101226609Y-109939508D01*
X101222828Y-109936408D01*
X101222948Y-109936260D01*
X101208358Y-109923646D01*
X101202330Y-109916950D01*
X101177448Y-109861052D01*
X101190175Y-109801205D01*
X101235644Y-109760271D01*
X101239504Y-109758552D01*
X101279756Y-109750000D01*
X105616476Y-109750000D01*
X105647068Y-109754845D01*
X105654907Y-109757392D01*
X105704407Y-109793356D01*
X105723315Y-109851546D01*
X105704419Y-109909721D01*
X105701944Y-109913129D01*
X105677926Y-109934759D01*
X105678539Y-109935558D01*
X105673390Y-109939508D01*
X105589503Y-110023395D01*
X105530201Y-110126109D01*
X105529924Y-110126844D01*
X105529377Y-110129185D01*
X105499500Y-110240691D01*
X105499500Y-110359308D01*
X105507321Y-110388496D01*
X105530203Y-110473893D01*
X105589508Y-110576610D01*
X105631809Y-110618912D01*
X105650013Y-110643967D01*
X105656068Y-110655850D01*
X105665640Y-110716281D01*
X105665640Y-110716286D01*
X105664843Y-110721317D01*
X105637066Y-110775830D01*
X105589511Y-110823386D01*
X105589511Y-110823387D01*
X105589503Y-110823395D01*
X105530201Y-110926109D01*
X105529924Y-110926844D01*
X105529377Y-110929185D01*
X105499500Y-111040691D01*
X105499500Y-111159309D01*
X105499499Y-111159309D01*
X105505446Y-111181503D01*
X105530201Y-111273889D01*
X105530201Y-111273890D01*
X105589506Y-111376607D01*
X105589507Y-111376608D01*
X105589509Y-111376610D01*
X105589511Y-111376613D01*
X105673387Y-111460489D01*
X105673389Y-111460490D01*
X105673392Y-111460493D01*
X105673733Y-111460739D01*
X105689419Y-111474809D01*
X105698040Y-111484384D01*
X105722925Y-111540280D01*
X105710202Y-111600128D01*
X105710199Y-111600134D01*
X105708041Y-111603871D01*
X105676049Y-111633997D01*
X105665233Y-111647664D01*
X105606089Y-111706807D01*
X105581033Y-111725012D01*
X105569148Y-111731068D01*
X105508716Y-111740640D01*
X105508712Y-111740639D01*
X105503676Y-111739842D01*
X105449169Y-111712066D01*
X105376608Y-111639506D01*
X105331176Y-111613276D01*
X105310142Y-111589915D01*
X105237995Y-111570584D01*
X105229426Y-111568288D01*
X105159309Y-111549500D01*
X105159308Y-111549500D01*
X105040692Y-111549500D01*
X105040691Y-111549500D01*
X105005629Y-111558894D01*
X104970566Y-111568289D01*
X104970565Y-111568288D01*
X104926111Y-111580200D01*
X104926108Y-111580201D01*
X104823393Y-111639505D01*
X104739503Y-111723395D01*
X104680201Y-111826109D01*
X104679924Y-111826844D01*
X104679377Y-111829185D01*
X104649500Y-111940691D01*
X104649500Y-112059308D01*
X104672520Y-112145220D01*
X104680200Y-112173886D01*
X104680201Y-112173887D01*
X104680202Y-112173890D01*
X104739507Y-112276608D01*
X104739509Y-112276610D01*
X104739511Y-112276613D01*
X104823387Y-112360489D01*
X104823389Y-112360490D01*
X104823496Y-112360597D01*
X104823746Y-112360783D01*
X104825934Y-112361960D01*
X104923369Y-112418214D01*
X104925770Y-112419706D01*
X104926111Y-112419797D01*
X104926114Y-112419799D01*
X105040691Y-112450500D01*
X105040693Y-112450500D01*
X105159307Y-112450500D01*
X105159309Y-112450500D01*
X105273886Y-112419799D01*
X105273887Y-112419798D01*
X105273889Y-112419797D01*
X105273890Y-112419797D01*
X105370468Y-112364036D01*
X105371852Y-112363628D01*
X105374157Y-112362108D01*
X105379163Y-112359017D01*
X105380458Y-112358269D01*
X105385819Y-112351283D01*
X105391238Y-112345863D01*
X105443911Y-112293189D01*
X105468966Y-112274986D01*
X105480853Y-112268929D01*
X105541281Y-112259359D01*
X105546319Y-112260157D01*
X105600830Y-112287933D01*
X105673492Y-112360594D01*
X105673746Y-112360783D01*
X105675934Y-112361960D01*
X105773369Y-112418214D01*
X105775770Y-112419706D01*
X105776111Y-112419797D01*
X105776114Y-112419799D01*
X105890691Y-112450500D01*
X105890693Y-112450500D01*
X106009307Y-112450500D01*
X106009309Y-112450500D01*
X106123886Y-112419799D01*
X106123887Y-112419798D01*
X106123889Y-112419797D01*
X106123890Y-112419797D01*
X106220473Y-112364034D01*
X106223361Y-112362631D01*
X106224145Y-112362115D01*
X106229162Y-112359016D01*
X106230460Y-112358266D01*
X106235818Y-112351283D01*
X106310489Y-112276613D01*
X106310492Y-112276608D01*
X106369797Y-112173890D01*
X106369797Y-112173888D01*
X106369799Y-112173886D01*
X106400500Y-112059309D01*
X106400500Y-111940691D01*
X106369799Y-111826114D01*
X106369797Y-111826111D01*
X106369797Y-111826109D01*
X106369796Y-111826108D01*
X106369706Y-111825770D01*
X106368224Y-111823384D01*
X106311960Y-111725934D01*
X106310783Y-111723746D01*
X106310597Y-111723496D01*
X106310490Y-111723389D01*
X106310489Y-111723387D01*
X106226613Y-111639511D01*
X106226610Y-111639509D01*
X106226605Y-111639504D01*
X106223670Y-111637252D01*
X106210368Y-111624956D01*
X106201959Y-111615617D01*
X106177072Y-111559722D01*
X106189792Y-111499878D01*
X106192237Y-111495642D01*
X106222330Y-111465557D01*
X106221469Y-111464435D01*
X106226608Y-111460491D01*
X106226613Y-111460489D01*
X106310489Y-111376613D01*
X106310492Y-111376608D01*
X106369797Y-111273890D01*
X106369797Y-111273888D01*
X106369799Y-111273886D01*
X106400500Y-111159309D01*
X106400500Y-111040691D01*
X106369799Y-110926114D01*
X106369797Y-110926111D01*
X106369797Y-110926109D01*
X106310492Y-110823391D01*
X106310490Y-110823389D01*
X106310489Y-110823387D01*
X106262324Y-110775222D01*
X106257512Y-110768455D01*
X106256372Y-110764821D01*
X106249984Y-110756029D01*
X106243929Y-110744145D01*
X106234358Y-110683725D01*
X106235156Y-110678686D01*
X106262927Y-110624173D01*
X106310489Y-110576613D01*
X106334607Y-110534840D01*
X106369797Y-110473890D01*
X106369797Y-110473888D01*
X106369799Y-110473886D01*
X106400500Y-110359309D01*
X106400500Y-110240691D01*
X106369799Y-110126114D01*
X106369797Y-110126111D01*
X106369797Y-110126109D01*
X106369796Y-110126108D01*
X106369706Y-110125770D01*
X106368224Y-110123384D01*
X106311960Y-110025934D01*
X106310783Y-110023746D01*
X106310594Y-110023492D01*
X106287687Y-110000584D01*
X106269485Y-109975530D01*
X106264518Y-109965782D01*
X106254949Y-109905354D01*
X106282728Y-109850838D01*
X106329631Y-109824576D01*
X106335228Y-109823233D01*
X106358327Y-109820500D01*
X106366433Y-109820500D01*
X106366435Y-109820500D01*
X106461938Y-109794910D01*
X106539724Y-109750000D01*
X106600000Y-109750000D01*
X106600000Y-109693037D01*
X106617475Y-109675562D01*
X106621983Y-109667754D01*
X106641479Y-109643677D01*
X106649606Y-109636360D01*
X106705503Y-109611476D01*
X106765350Y-109624199D01*
X106802851Y-109662698D01*
X106805596Y-109667754D01*
X106814218Y-109689366D01*
X106825090Y-109729938D01*
X106825091Y-109729942D01*
X106871581Y-109810464D01*
X106871583Y-109810466D01*
X106871585Y-109810470D01*
X106874522Y-109815558D01*
X106874523Y-109815559D01*
X106874525Y-109815562D01*
X106944438Y-109885475D01*
X106944440Y-109885476D01*
X106944990Y-109885873D01*
X106947001Y-109886954D01*
X106973288Y-109902132D01*
X106994883Y-109926115D01*
X107029192Y-109934692D01*
X107030795Y-109935106D01*
X107125565Y-109960500D01*
X107125567Y-109960500D01*
X107224433Y-109960500D01*
X107224435Y-109960500D01*
X107319938Y-109934910D01*
X107319939Y-109934908D01*
X107319941Y-109934908D01*
X107319942Y-109934908D01*
X107370872Y-109905503D01*
X107405562Y-109885475D01*
X107475475Y-109815562D01*
X107524910Y-109729938D01*
X107550500Y-109634435D01*
X107550500Y-109535565D01*
X108449500Y-109535565D01*
X108449500Y-109634435D01*
X108461187Y-109678050D01*
X108463443Y-109686473D01*
X108463444Y-109686474D01*
X108475092Y-109729945D01*
X108499319Y-109771905D01*
X108521581Y-109810464D01*
X108521583Y-109810466D01*
X108521585Y-109810470D01*
X108524522Y-109815558D01*
X108524523Y-109815559D01*
X108524525Y-109815562D01*
X108594438Y-109885475D01*
X108594440Y-109885476D01*
X108594990Y-109885873D01*
X108597001Y-109886954D01*
X108623288Y-109902132D01*
X108644883Y-109926115D01*
X108679192Y-109934692D01*
X108680795Y-109935106D01*
X108775565Y-109960500D01*
X108775567Y-109960500D01*
X108874433Y-109960500D01*
X108874435Y-109960500D01*
X108969938Y-109934910D01*
X108969939Y-109934908D01*
X108969941Y-109934908D01*
X108969942Y-109934908D01*
X109020872Y-109905503D01*
X109055562Y-109885475D01*
X109125475Y-109815562D01*
X109174910Y-109729938D01*
X109200500Y-109634435D01*
X109200500Y-109535565D01*
X109174910Y-109440062D01*
X109174908Y-109440059D01*
X109174908Y-109440057D01*
X109174906Y-109440054D01*
X109174816Y-109439717D01*
X109173322Y-109437310D01*
X109126957Y-109357004D01*
X109125875Y-109354994D01*
X109125476Y-109354440D01*
X109125475Y-109354438D01*
X109055562Y-109284525D01*
X109055559Y-109284523D01*
X109027227Y-109268165D01*
X109006193Y-109244803D01*
X108916088Y-109220661D01*
X108874435Y-109209500D01*
X108874434Y-109209500D01*
X108775566Y-109209500D01*
X108775565Y-109209500D01*
X108733912Y-109220661D01*
X108680057Y-109235091D01*
X108680056Y-109235091D01*
X108680054Y-109235092D01*
X108594442Y-109284521D01*
X108524521Y-109354442D01*
X108475091Y-109440056D01*
X108462423Y-109487331D01*
X108462424Y-109487332D01*
X108450201Y-109532946D01*
X108450201Y-109532948D01*
X108449500Y-109535565D01*
X107550500Y-109535565D01*
X107524910Y-109440062D01*
X107524908Y-109440059D01*
X107524908Y-109440057D01*
X107501790Y-109400017D01*
X107476957Y-109357004D01*
X107475875Y-109354994D01*
X107475476Y-109354440D01*
X107475475Y-109354438D01*
X107405562Y-109284525D01*
X107405559Y-109284523D01*
X107377227Y-109268165D01*
X107356193Y-109244803D01*
X107266088Y-109220661D01*
X107224435Y-109209500D01*
X107224434Y-109209500D01*
X107125566Y-109209500D01*
X107125565Y-109209500D01*
X107083912Y-109220661D01*
X107030057Y-109235091D01*
X107030056Y-109235091D01*
X107030054Y-109235092D01*
X106944441Y-109284521D01*
X106944439Y-109284523D01*
X106874526Y-109354435D01*
X106874521Y-109354442D01*
X106870009Y-109362256D01*
X106860086Y-109371188D01*
X106853971Y-109383060D01*
X106850519Y-109386321D01*
X106842392Y-109393638D01*
X106828061Y-109400017D01*
X106824535Y-109403192D01*
X106819818Y-109403687D01*
X106786495Y-109418522D01*
X106726648Y-109405799D01*
X106689147Y-109367300D01*
X106686402Y-109362244D01*
X106677781Y-109340635D01*
X106666910Y-109300062D01*
X106660832Y-109289535D01*
X106657940Y-109284525D01*
X106626154Y-109229469D01*
X106618559Y-109212987D01*
X106605668Y-109176547D01*
X106600000Y-109143530D01*
X106600000Y-108944103D01*
X106604843Y-108913519D01*
X106606525Y-108908340D01*
X106608645Y-108901815D01*
X106644603Y-108852314D01*
X106700211Y-108833435D01*
X106710278Y-108833172D01*
X106738482Y-108836510D01*
X106790691Y-108850500D01*
X106790692Y-108850500D01*
X106909307Y-108850500D01*
X106909309Y-108850500D01*
X107023886Y-108819799D01*
X107023887Y-108819798D01*
X107023889Y-108819797D01*
X107023890Y-108819797D01*
X107120473Y-108764034D01*
X107123361Y-108762631D01*
X107124145Y-108762115D01*
X107129162Y-108759016D01*
X107130460Y-108758266D01*
X107135818Y-108751283D01*
X107210489Y-108676613D01*
X107210492Y-108676608D01*
X107239559Y-108626264D01*
X107261819Y-108587708D01*
X107269797Y-108573890D01*
X107269797Y-108573888D01*
X107269799Y-108573886D01*
X107300500Y-108459309D01*
X107300500Y-108340691D01*
X107269799Y-108226114D01*
X107251247Y-108193982D01*
X107247213Y-108186994D01*
X107247212Y-108186992D01*
X107222380Y-108143982D01*
X107824500Y-108143982D01*
X107824500Y-108256017D01*
X107847152Y-108340561D01*
X107853495Y-108364234D01*
X107853498Y-108364241D01*
X107908387Y-108459309D01*
X107908387Y-108459310D01*
X107909512Y-108461259D01*
X107909513Y-108461260D01*
X107909515Y-108461263D01*
X107988737Y-108540485D01*
X107988739Y-108540486D01*
X107989289Y-108540883D01*
X107991300Y-108541964D01*
X108028989Y-108563725D01*
X108050585Y-108587708D01*
X108084893Y-108596285D01*
X108086496Y-108596699D01*
X108193982Y-108625500D01*
X108193984Y-108625500D01*
X108306016Y-108625500D01*
X108306018Y-108625500D01*
X108414237Y-108596503D01*
X108414239Y-108596501D01*
X108414241Y-108596501D01*
X108453411Y-108573886D01*
X108511263Y-108540485D01*
X108590485Y-108461263D01*
X108646503Y-108364237D01*
X108675500Y-108256018D01*
X108675500Y-108143982D01*
X108646503Y-108035763D01*
X108646501Y-108035760D01*
X108646501Y-108035758D01*
X108646499Y-108035755D01*
X108646409Y-108035418D01*
X108644915Y-108033011D01*
X108591967Y-107941303D01*
X108590885Y-107939293D01*
X108590486Y-107938739D01*
X108590485Y-107938737D01*
X108511263Y-107859515D01*
X108511260Y-107859513D01*
X108511259Y-107859512D01*
X108500839Y-107853496D01*
X108500839Y-107853495D01*
X108471528Y-107836573D01*
X108450492Y-107813210D01*
X108348052Y-107785763D01*
X108348051Y-107785762D01*
X108317280Y-107777517D01*
X108306018Y-107774500D01*
X108306017Y-107774500D01*
X108193983Y-107774500D01*
X108193982Y-107774500D01*
X108186649Y-107776464D01*
X108151947Y-107785762D01*
X108151948Y-107785763D01*
X108085754Y-107803499D01*
X107988741Y-107859511D01*
X107909511Y-107938741D01*
X107853499Y-108035755D01*
X107853495Y-108035763D01*
X107840100Y-108085761D01*
X107840100Y-108085763D01*
X107824500Y-108143982D01*
X107222380Y-108143982D01*
X107211969Y-108125949D01*
X107210785Y-108123748D01*
X107210597Y-108123496D01*
X107210490Y-108123389D01*
X107210489Y-108123387D01*
X107126613Y-108039511D01*
X107126610Y-108039509D01*
X107126608Y-108039507D01*
X107126606Y-108039505D01*
X107081176Y-108013276D01*
X107060142Y-107989915D01*
X106980206Y-107968497D01*
X106954735Y-107961672D01*
X106909309Y-107949500D01*
X106909308Y-107949500D01*
X106790692Y-107949500D01*
X106790691Y-107949500D01*
X106757807Y-107958311D01*
X106739767Y-107963145D01*
X106708956Y-107966381D01*
X106704129Y-107966128D01*
X106696668Y-107965737D01*
X106639548Y-107943805D01*
X106606934Y-107894986D01*
X106604076Y-107885336D01*
X106600000Y-107857223D01*
X106600000Y-106914680D01*
X106604843Y-106884094D01*
X106605128Y-106883218D01*
X106608965Y-106871405D01*
X106644923Y-106821906D01*
X106645522Y-106821471D01*
X106649063Y-106818900D01*
X106707243Y-106800000D01*
X106736307Y-106800000D01*
X106766895Y-106804843D01*
G37*
%TD.AperFunction*%
%TD*%
%TA.AperFunction,Conductor*%
%TO.N,M4_SRC*%
G36*
X91489871Y-86553373D02*
G01*
X91494681Y-86554661D01*
X91514193Y-86559890D01*
X91538077Y-86569784D01*
X91545097Y-86573838D01*
X91566680Y-86597814D01*
X91600992Y-86606392D01*
X91602595Y-86606806D01*
X91697365Y-86632200D01*
X91697367Y-86632200D01*
X91796233Y-86632200D01*
X91796235Y-86632200D01*
X91891738Y-86606610D01*
X91891740Y-86606608D01*
X91891742Y-86606608D01*
X91955535Y-86569776D01*
X91979399Y-86559892D01*
X92003733Y-86553371D01*
X92029349Y-86550000D01*
X107785320Y-86550000D01*
X107815908Y-86554843D01*
X107828595Y-86558966D01*
X107878095Y-86594927D01*
X107878096Y-86594928D01*
X107881091Y-86599050D01*
X107900000Y-86657240D01*
X107900000Y-88755913D01*
X107895154Y-88786507D01*
X107891633Y-88797343D01*
X107855669Y-88846843D01*
X107797479Y-88865749D01*
X107792607Y-88865749D01*
X107743107Y-88852485D01*
X107718133Y-88838066D01*
X107684237Y-88818496D01*
X107648165Y-88808830D01*
X107648165Y-88808831D01*
X107605289Y-88797343D01*
X107576018Y-88789500D01*
X107576017Y-88789500D01*
X107463983Y-88789500D01*
X107463982Y-88789500D01*
X107449986Y-88793250D01*
X107397748Y-88807246D01*
X107397748Y-88807247D01*
X107364626Y-88816121D01*
X107355754Y-88818499D01*
X107258741Y-88874511D01*
X107179511Y-88953741D01*
X107123498Y-89050756D01*
X107115687Y-89079905D01*
X107104643Y-89121123D01*
X107071321Y-89172437D01*
X107014200Y-89194364D01*
X107009018Y-89194500D01*
X106899007Y-89194500D01*
X106899000Y-89194500D01*
X106866856Y-89197030D01*
X106836206Y-89201883D01*
X106831718Y-89202646D01*
X106831713Y-89202647D01*
X106742505Y-89240777D01*
X106741879Y-89239312D01*
X106701382Y-89250000D01*
X106700000Y-89250000D01*
X106689384Y-89260616D01*
X106681093Y-89286135D01*
X106675152Y-89292634D01*
X106675367Y-89292814D01*
X106670373Y-89298795D01*
X106623464Y-89377307D01*
X106623462Y-89377310D01*
X106604556Y-89435499D01*
X106594500Y-89498996D01*
X106594500Y-90151000D01*
X106575593Y-90209191D01*
X106526093Y-90245155D01*
X106495500Y-90250000D01*
X106097015Y-90250000D01*
X106066423Y-90245155D01*
X106054971Y-90241434D01*
X106043194Y-90237607D01*
X106003785Y-90213458D01*
X105979862Y-90189535D01*
X105979859Y-90189533D01*
X105956151Y-90175845D01*
X105956151Y-90175844D01*
X105905639Y-90146682D01*
X105876763Y-90138945D01*
X105822853Y-90124500D01*
X105822851Y-90124500D01*
X105737148Y-90124500D01*
X105737147Y-90124500D01*
X105734367Y-90125245D01*
X105654363Y-90146680D01*
X105654359Y-90146682D01*
X105590174Y-90183739D01*
X105561255Y-90194839D01*
X105548207Y-90197612D01*
X105487359Y-90191215D01*
X105477268Y-90186722D01*
X105447537Y-90166288D01*
X105432265Y-90151017D01*
X105432263Y-90151015D01*
X105431371Y-90150500D01*
X105392525Y-90128072D01*
X105371490Y-90104710D01*
X105293251Y-90083747D01*
X105293250Y-90083746D01*
X105244764Y-90070755D01*
X105227018Y-90066000D01*
X105227017Y-90066000D01*
X105114983Y-90066000D01*
X105114982Y-90066000D01*
X105100986Y-90069750D01*
X105048748Y-90083746D01*
X105048748Y-90083747D01*
X105015626Y-90092621D01*
X105006754Y-90094999D01*
X104912305Y-90149531D01*
X104907078Y-90152343D01*
X104906923Y-90152420D01*
X104901583Y-90159168D01*
X104850834Y-90209916D01*
X104825778Y-90228120D01*
X104804018Y-90239208D01*
X104759071Y-90250000D01*
X104383524Y-90250000D01*
X104352924Y-90245152D01*
X104345084Y-90242604D01*
X104295587Y-90206637D01*
X104276684Y-90148445D01*
X104295591Y-90090262D01*
X104298067Y-90086854D01*
X104322073Y-90065240D01*
X104321461Y-90064442D01*
X104326610Y-90060491D01*
X104326610Y-90060490D01*
X104326613Y-90060489D01*
X104410489Y-89976613D01*
X104410492Y-89976608D01*
X104469797Y-89873890D01*
X104469797Y-89873888D01*
X104469799Y-89873886D01*
X104500500Y-89759309D01*
X104500500Y-89640691D01*
X104469799Y-89526114D01*
X104469797Y-89526111D01*
X104469797Y-89526109D01*
X104410492Y-89423391D01*
X104410490Y-89423389D01*
X104410489Y-89423387D01*
X104362324Y-89375222D01*
X104357512Y-89368455D01*
X104356372Y-89364821D01*
X104349984Y-89356029D01*
X104343929Y-89344145D01*
X104334358Y-89283725D01*
X104335156Y-89278686D01*
X104362927Y-89224173D01*
X104410489Y-89176613D01*
X104410492Y-89176608D01*
X104469797Y-89073890D01*
X104469797Y-89073888D01*
X104469799Y-89073886D01*
X104500500Y-88959309D01*
X104500500Y-88840691D01*
X104469799Y-88726114D01*
X104469797Y-88726111D01*
X104469797Y-88726109D01*
X104469796Y-88726108D01*
X104469706Y-88725770D01*
X104468224Y-88723384D01*
X104411963Y-88625940D01*
X104411778Y-88625067D01*
X104411388Y-88624559D01*
X104410597Y-88623496D01*
X104410490Y-88623389D01*
X104410489Y-88623387D01*
X104326613Y-88539511D01*
X104326610Y-88539509D01*
X104326605Y-88539504D01*
X104323670Y-88537252D01*
X104322169Y-88535068D01*
X104322025Y-88534924D01*
X104322051Y-88534897D01*
X104321321Y-88533834D01*
X104310368Y-88524956D01*
X104301959Y-88515617D01*
X104289371Y-88487345D01*
X104289015Y-88486827D01*
X104289021Y-88486561D01*
X104277072Y-88459722D01*
X104289792Y-88399878D01*
X104292237Y-88395642D01*
X104322325Y-88365566D01*
X104321462Y-88364441D01*
X104326607Y-88360492D01*
X104326613Y-88360489D01*
X104393914Y-88293186D01*
X104418966Y-88274986D01*
X104430853Y-88268929D01*
X104491281Y-88259359D01*
X104496319Y-88260157D01*
X104550830Y-88287933D01*
X104623492Y-88360594D01*
X104623746Y-88360783D01*
X104625934Y-88361960D01*
X104723369Y-88418214D01*
X104725770Y-88419706D01*
X104726111Y-88419797D01*
X104726114Y-88419799D01*
X104840691Y-88450500D01*
X104840693Y-88450500D01*
X104959307Y-88450500D01*
X104959309Y-88450500D01*
X105073886Y-88419799D01*
X105073887Y-88419798D01*
X105073889Y-88419797D01*
X105073890Y-88419797D01*
X105170473Y-88364034D01*
X105173361Y-88362631D01*
X105174145Y-88362115D01*
X105179162Y-88359016D01*
X105180460Y-88358266D01*
X105185818Y-88351283D01*
X105260489Y-88276613D01*
X105260492Y-88276608D01*
X105319797Y-88173890D01*
X105319797Y-88173888D01*
X105319799Y-88173886D01*
X105350500Y-88059309D01*
X105350500Y-87940691D01*
X105319799Y-87826114D01*
X105319797Y-87826111D01*
X105319797Y-87826109D01*
X105319796Y-87826108D01*
X105319706Y-87825770D01*
X105318224Y-87823384D01*
X105261960Y-87725934D01*
X105260783Y-87723746D01*
X105260597Y-87723496D01*
X105260490Y-87723389D01*
X105260489Y-87723387D01*
X105176613Y-87639511D01*
X105176610Y-87639509D01*
X105176608Y-87639507D01*
X105131175Y-87613276D01*
X105110142Y-87589916D01*
X105060352Y-87576574D01*
X105060351Y-87576574D01*
X104959309Y-87549500D01*
X104959307Y-87549500D01*
X104840692Y-87549500D01*
X104840691Y-87549500D01*
X104805629Y-87558894D01*
X104770566Y-87568289D01*
X104770565Y-87568288D01*
X104726111Y-87580200D01*
X104726108Y-87580201D01*
X104622510Y-87640015D01*
X104620645Y-87641337D01*
X104618096Y-87643035D01*
X104613019Y-87649878D01*
X104556089Y-87706807D01*
X104531033Y-87725012D01*
X104519148Y-87731068D01*
X104458716Y-87740640D01*
X104458712Y-87740639D01*
X104453676Y-87739842D01*
X104399169Y-87712066D01*
X104326611Y-87639509D01*
X104326608Y-87639507D01*
X104281175Y-87613276D01*
X104260142Y-87589916D01*
X104210352Y-87576574D01*
X104210351Y-87576574D01*
X104109309Y-87549500D01*
X104109307Y-87549500D01*
X103990692Y-87549500D01*
X103990691Y-87549500D01*
X103955629Y-87558894D01*
X103920566Y-87568289D01*
X103920565Y-87568288D01*
X103876111Y-87580200D01*
X103876108Y-87580201D01*
X103773393Y-87639505D01*
X103689505Y-87723393D01*
X103630201Y-87826108D01*
X103630201Y-87826109D01*
X103622519Y-87854778D01*
X103622520Y-87854779D01*
X103599500Y-87940692D01*
X103599500Y-88059308D01*
X103624999Y-88154473D01*
X103630202Y-88173891D01*
X103676643Y-88254328D01*
X103689507Y-88276608D01*
X103689509Y-88276610D01*
X103689511Y-88276613D01*
X103773387Y-88360489D01*
X103773389Y-88360490D01*
X103773392Y-88360493D01*
X103773733Y-88360739D01*
X103789419Y-88374809D01*
X103798040Y-88384384D01*
X103822925Y-88440280D01*
X103810202Y-88500128D01*
X103810201Y-88500131D01*
X103807766Y-88504348D01*
X103777681Y-88534435D01*
X103778541Y-88535556D01*
X103773392Y-88539507D01*
X103773389Y-88539509D01*
X103689511Y-88623387D01*
X103689505Y-88623393D01*
X103630203Y-88726106D01*
X103630202Y-88726108D01*
X103630202Y-88726109D01*
X103622217Y-88755913D01*
X103613218Y-88789498D01*
X103613217Y-88789500D01*
X103599500Y-88840688D01*
X103599500Y-88840691D01*
X103599500Y-88959309D01*
X103602972Y-88972266D01*
X103624003Y-89050756D01*
X103630202Y-89073891D01*
X103689508Y-89176610D01*
X103731809Y-89218912D01*
X103750013Y-89243967D01*
X103756068Y-89255850D01*
X103765640Y-89316281D01*
X103765640Y-89316286D01*
X103764843Y-89321317D01*
X103737066Y-89375830D01*
X103689511Y-89423386D01*
X103689511Y-89423387D01*
X103689503Y-89423395D01*
X103630201Y-89526109D01*
X103629924Y-89526844D01*
X103629377Y-89529185D01*
X103599500Y-89640691D01*
X103599500Y-89759311D01*
X103617786Y-89827552D01*
X103617786Y-89827554D01*
X103617787Y-89827554D01*
X103630203Y-89873893D01*
X103689506Y-89976607D01*
X103689507Y-89976608D01*
X103689509Y-89976610D01*
X103689511Y-89976613D01*
X103773387Y-90060489D01*
X103773389Y-90060490D01*
X103773392Y-90060493D01*
X103776099Y-90062444D01*
X103791791Y-90076519D01*
X103797668Y-90083047D01*
X103822550Y-90138945D01*
X103809825Y-90198792D01*
X103764374Y-90239720D01*
X103760526Y-90241434D01*
X103720244Y-90250000D01*
X99383524Y-90250000D01*
X99352924Y-90245152D01*
X99345084Y-90242604D01*
X99295587Y-90206637D01*
X99276684Y-90148445D01*
X99295591Y-90090262D01*
X99298067Y-90086854D01*
X99322073Y-90065240D01*
X99321461Y-90064442D01*
X99326610Y-90060491D01*
X99326610Y-90060490D01*
X99326613Y-90060489D01*
X99410489Y-89976613D01*
X99410492Y-89976608D01*
X99469797Y-89873890D01*
X99469797Y-89873888D01*
X99469799Y-89873886D01*
X99500500Y-89759309D01*
X99500500Y-89640691D01*
X99469799Y-89526114D01*
X99469797Y-89526111D01*
X99469797Y-89526109D01*
X99410492Y-89423391D01*
X99410490Y-89423389D01*
X99410489Y-89423387D01*
X99362324Y-89375222D01*
X99357512Y-89368455D01*
X99356372Y-89364821D01*
X99349984Y-89356029D01*
X99343929Y-89344145D01*
X99334358Y-89283725D01*
X99335156Y-89278686D01*
X99362927Y-89224173D01*
X99410489Y-89176613D01*
X99410492Y-89176608D01*
X99469797Y-89073890D01*
X99469797Y-89073888D01*
X99469799Y-89073886D01*
X99500500Y-88959309D01*
X99500500Y-88840691D01*
X99469799Y-88726114D01*
X99469797Y-88726111D01*
X99469797Y-88726109D01*
X99469796Y-88726108D01*
X99469706Y-88725770D01*
X99468224Y-88723384D01*
X99411963Y-88625940D01*
X99411778Y-88625067D01*
X99411388Y-88624559D01*
X99410597Y-88623496D01*
X99410490Y-88623389D01*
X99410489Y-88623387D01*
X99326613Y-88539511D01*
X99326610Y-88539509D01*
X99326605Y-88539504D01*
X99323670Y-88537252D01*
X99322169Y-88535068D01*
X99322025Y-88534924D01*
X99322051Y-88534897D01*
X99321321Y-88533834D01*
X99310368Y-88524956D01*
X99301959Y-88515617D01*
X99289371Y-88487345D01*
X99289015Y-88486827D01*
X99289021Y-88486561D01*
X99277072Y-88459722D01*
X99289792Y-88399878D01*
X99292237Y-88395642D01*
X99322325Y-88365566D01*
X99321462Y-88364441D01*
X99326607Y-88360492D01*
X99326613Y-88360489D01*
X99393914Y-88293186D01*
X99418966Y-88274986D01*
X99430853Y-88268929D01*
X99491281Y-88259359D01*
X99496319Y-88260157D01*
X99550830Y-88287933D01*
X99623492Y-88360594D01*
X99623746Y-88360783D01*
X99625934Y-88361960D01*
X99723369Y-88418214D01*
X99725770Y-88419706D01*
X99726111Y-88419797D01*
X99726114Y-88419799D01*
X99840691Y-88450500D01*
X99840693Y-88450500D01*
X99959307Y-88450500D01*
X99959309Y-88450500D01*
X100073886Y-88419799D01*
X100073887Y-88419798D01*
X100073889Y-88419797D01*
X100073890Y-88419797D01*
X100170473Y-88364034D01*
X100173361Y-88362631D01*
X100174145Y-88362115D01*
X100179162Y-88359016D01*
X100180460Y-88358266D01*
X100185818Y-88351283D01*
X100260489Y-88276613D01*
X100260492Y-88276608D01*
X100319797Y-88173890D01*
X100319797Y-88173888D01*
X100319799Y-88173886D01*
X100350500Y-88059309D01*
X100350500Y-87940691D01*
X100319799Y-87826114D01*
X100319797Y-87826111D01*
X100319797Y-87826109D01*
X100319796Y-87826108D01*
X100319706Y-87825770D01*
X100318224Y-87823384D01*
X100261960Y-87725934D01*
X100260783Y-87723746D01*
X100260597Y-87723496D01*
X100260490Y-87723389D01*
X100260489Y-87723387D01*
X100176613Y-87639511D01*
X100176610Y-87639509D01*
X100176608Y-87639507D01*
X100131175Y-87613276D01*
X100110142Y-87589916D01*
X100060352Y-87576574D01*
X100060351Y-87576574D01*
X99959309Y-87549500D01*
X99959307Y-87549500D01*
X99840692Y-87549500D01*
X99840691Y-87549500D01*
X99805629Y-87558894D01*
X99770566Y-87568289D01*
X99770565Y-87568288D01*
X99726111Y-87580200D01*
X99726108Y-87580201D01*
X99622510Y-87640015D01*
X99620645Y-87641337D01*
X99618096Y-87643035D01*
X99613019Y-87649878D01*
X99556089Y-87706807D01*
X99531033Y-87725012D01*
X99519148Y-87731068D01*
X99458716Y-87740640D01*
X99458712Y-87740639D01*
X99453676Y-87739842D01*
X99399169Y-87712066D01*
X99326611Y-87639509D01*
X99326608Y-87639507D01*
X99281175Y-87613276D01*
X99260142Y-87589916D01*
X99210352Y-87576574D01*
X99210351Y-87576574D01*
X99109309Y-87549500D01*
X99109307Y-87549500D01*
X98990692Y-87549500D01*
X98990691Y-87549500D01*
X98955629Y-87558894D01*
X98920566Y-87568289D01*
X98920565Y-87568288D01*
X98876111Y-87580200D01*
X98876108Y-87580201D01*
X98773393Y-87639505D01*
X98689505Y-87723393D01*
X98630201Y-87826108D01*
X98630201Y-87826109D01*
X98622519Y-87854778D01*
X98622520Y-87854779D01*
X98599500Y-87940692D01*
X98599500Y-88059308D01*
X98624999Y-88154473D01*
X98630202Y-88173891D01*
X98676643Y-88254328D01*
X98689507Y-88276608D01*
X98689509Y-88276610D01*
X98689511Y-88276613D01*
X98773387Y-88360489D01*
X98773389Y-88360490D01*
X98773392Y-88360493D01*
X98773733Y-88360739D01*
X98789419Y-88374809D01*
X98798040Y-88384384D01*
X98822925Y-88440280D01*
X98810202Y-88500128D01*
X98810201Y-88500131D01*
X98807766Y-88504348D01*
X98777681Y-88534435D01*
X98778541Y-88535556D01*
X98773392Y-88539507D01*
X98773389Y-88539509D01*
X98689511Y-88623387D01*
X98689505Y-88623393D01*
X98630203Y-88726106D01*
X98630202Y-88726108D01*
X98630202Y-88726109D01*
X98622217Y-88755913D01*
X98613218Y-88789498D01*
X98613217Y-88789500D01*
X98599500Y-88840688D01*
X98599500Y-88840691D01*
X98599500Y-88959309D01*
X98602972Y-88972266D01*
X98624003Y-89050756D01*
X98630202Y-89073891D01*
X98689508Y-89176610D01*
X98731809Y-89218912D01*
X98750013Y-89243967D01*
X98756068Y-89255850D01*
X98765640Y-89316281D01*
X98765640Y-89316286D01*
X98764843Y-89321317D01*
X98737066Y-89375830D01*
X98689511Y-89423386D01*
X98689511Y-89423387D01*
X98689503Y-89423395D01*
X98630201Y-89526109D01*
X98629924Y-89526844D01*
X98629377Y-89529185D01*
X98599500Y-89640691D01*
X98599500Y-89759311D01*
X98617786Y-89827552D01*
X98617786Y-89827554D01*
X98617787Y-89827554D01*
X98630203Y-89873893D01*
X98689506Y-89976607D01*
X98689507Y-89976608D01*
X98689509Y-89976610D01*
X98689511Y-89976613D01*
X98773387Y-90060489D01*
X98773389Y-90060490D01*
X98773392Y-90060493D01*
X98776099Y-90062444D01*
X98791791Y-90076519D01*
X98797668Y-90083047D01*
X98822550Y-90138945D01*
X98809825Y-90198792D01*
X98764374Y-90239720D01*
X98760526Y-90241434D01*
X98720244Y-90250000D01*
X94383524Y-90250000D01*
X94352924Y-90245152D01*
X94345084Y-90242604D01*
X94295587Y-90206637D01*
X94276684Y-90148445D01*
X94295591Y-90090262D01*
X94298067Y-90086854D01*
X94322073Y-90065240D01*
X94321461Y-90064442D01*
X94326610Y-90060491D01*
X94326610Y-90060490D01*
X94326613Y-90060489D01*
X94410489Y-89976613D01*
X94410492Y-89976608D01*
X94469797Y-89873890D01*
X94469797Y-89873888D01*
X94469799Y-89873886D01*
X94500500Y-89759309D01*
X94500500Y-89640691D01*
X94469799Y-89526114D01*
X94469797Y-89526111D01*
X94469797Y-89526109D01*
X94410492Y-89423391D01*
X94410490Y-89423389D01*
X94410489Y-89423387D01*
X94362324Y-89375222D01*
X94357512Y-89368455D01*
X94356372Y-89364821D01*
X94349984Y-89356029D01*
X94343929Y-89344145D01*
X94334358Y-89283725D01*
X94335156Y-89278686D01*
X94362927Y-89224173D01*
X94410489Y-89176613D01*
X94410492Y-89176608D01*
X94469797Y-89073890D01*
X94469797Y-89073888D01*
X94469799Y-89073886D01*
X94500500Y-88959309D01*
X94500500Y-88840691D01*
X94469799Y-88726114D01*
X94469797Y-88726111D01*
X94469797Y-88726109D01*
X94469796Y-88726108D01*
X94469706Y-88725770D01*
X94468224Y-88723384D01*
X94411963Y-88625940D01*
X94411778Y-88625067D01*
X94411388Y-88624559D01*
X94410597Y-88623496D01*
X94410490Y-88623389D01*
X94410489Y-88623387D01*
X94326613Y-88539511D01*
X94326610Y-88539509D01*
X94326605Y-88539504D01*
X94323670Y-88537252D01*
X94322169Y-88535068D01*
X94322025Y-88534924D01*
X94322051Y-88534897D01*
X94321321Y-88533834D01*
X94310368Y-88524956D01*
X94301959Y-88515617D01*
X94289371Y-88487345D01*
X94289015Y-88486827D01*
X94289021Y-88486561D01*
X94277072Y-88459722D01*
X94289792Y-88399878D01*
X94292237Y-88395642D01*
X94322325Y-88365566D01*
X94321462Y-88364441D01*
X94326607Y-88360492D01*
X94326613Y-88360489D01*
X94393914Y-88293186D01*
X94418966Y-88274986D01*
X94430853Y-88268929D01*
X94491281Y-88259359D01*
X94496319Y-88260157D01*
X94550830Y-88287933D01*
X94623492Y-88360594D01*
X94623746Y-88360783D01*
X94625934Y-88361960D01*
X94723369Y-88418214D01*
X94725770Y-88419706D01*
X94726111Y-88419797D01*
X94726114Y-88419799D01*
X94840691Y-88450500D01*
X94840693Y-88450500D01*
X94959307Y-88450500D01*
X94959309Y-88450500D01*
X95073886Y-88419799D01*
X95073887Y-88419798D01*
X95073889Y-88419797D01*
X95073890Y-88419797D01*
X95170473Y-88364034D01*
X95173361Y-88362631D01*
X95174145Y-88362115D01*
X95179162Y-88359016D01*
X95180460Y-88358266D01*
X95185818Y-88351283D01*
X95260489Y-88276613D01*
X95260492Y-88276608D01*
X95319797Y-88173890D01*
X95319797Y-88173888D01*
X95319799Y-88173886D01*
X95350500Y-88059309D01*
X95350500Y-87940691D01*
X95319799Y-87826114D01*
X95319797Y-87826111D01*
X95319797Y-87826109D01*
X95319796Y-87826108D01*
X95319706Y-87825770D01*
X95318224Y-87823384D01*
X95261960Y-87725934D01*
X95260783Y-87723746D01*
X95260597Y-87723496D01*
X95260490Y-87723389D01*
X95260489Y-87723387D01*
X95176613Y-87639511D01*
X95176610Y-87639509D01*
X95176608Y-87639507D01*
X95131175Y-87613276D01*
X95110142Y-87589916D01*
X95060352Y-87576574D01*
X95060351Y-87576574D01*
X94959309Y-87549500D01*
X94959307Y-87549500D01*
X94840692Y-87549500D01*
X94840691Y-87549500D01*
X94805629Y-87558894D01*
X94770566Y-87568289D01*
X94770565Y-87568288D01*
X94726111Y-87580200D01*
X94726108Y-87580201D01*
X94622510Y-87640015D01*
X94620645Y-87641337D01*
X94618096Y-87643035D01*
X94613019Y-87649878D01*
X94556089Y-87706807D01*
X94531033Y-87725012D01*
X94519148Y-87731068D01*
X94458716Y-87740640D01*
X94458712Y-87740639D01*
X94453676Y-87739842D01*
X94399169Y-87712066D01*
X94326611Y-87639509D01*
X94326608Y-87639507D01*
X94281175Y-87613276D01*
X94260142Y-87589916D01*
X94210352Y-87576574D01*
X94210351Y-87576574D01*
X94109309Y-87549500D01*
X94109307Y-87549500D01*
X93990692Y-87549500D01*
X93990691Y-87549500D01*
X93955629Y-87558894D01*
X93920566Y-87568289D01*
X93920565Y-87568288D01*
X93876111Y-87580200D01*
X93876108Y-87580201D01*
X93773393Y-87639505D01*
X93689505Y-87723393D01*
X93630201Y-87826108D01*
X93630201Y-87826109D01*
X93622519Y-87854778D01*
X93622520Y-87854779D01*
X93599500Y-87940692D01*
X93599500Y-88059308D01*
X93624999Y-88154473D01*
X93630202Y-88173891D01*
X93676643Y-88254328D01*
X93689507Y-88276608D01*
X93689509Y-88276610D01*
X93689511Y-88276613D01*
X93773387Y-88360489D01*
X93773389Y-88360490D01*
X93773392Y-88360493D01*
X93773733Y-88360739D01*
X93789419Y-88374809D01*
X93798040Y-88384384D01*
X93822925Y-88440280D01*
X93810202Y-88500128D01*
X93810201Y-88500131D01*
X93807766Y-88504348D01*
X93777681Y-88534435D01*
X93778541Y-88535556D01*
X93773392Y-88539507D01*
X93773389Y-88539509D01*
X93689511Y-88623387D01*
X93689505Y-88623393D01*
X93630203Y-88726106D01*
X93630202Y-88726108D01*
X93630202Y-88726109D01*
X93622217Y-88755913D01*
X93613218Y-88789498D01*
X93613217Y-88789500D01*
X93599500Y-88840688D01*
X93599500Y-88840691D01*
X93599500Y-88959309D01*
X93602972Y-88972266D01*
X93624003Y-89050756D01*
X93630202Y-89073891D01*
X93689508Y-89176610D01*
X93731809Y-89218912D01*
X93750013Y-89243967D01*
X93756068Y-89255850D01*
X93765640Y-89316281D01*
X93765640Y-89316286D01*
X93764843Y-89321317D01*
X93737066Y-89375830D01*
X93689511Y-89423386D01*
X93689511Y-89423387D01*
X93689503Y-89423395D01*
X93630201Y-89526109D01*
X93629924Y-89526844D01*
X93629377Y-89529185D01*
X93599500Y-89640691D01*
X93599500Y-89759311D01*
X93617786Y-89827552D01*
X93617786Y-89827554D01*
X93617787Y-89827554D01*
X93630203Y-89873893D01*
X93689508Y-89976610D01*
X93712110Y-89999213D01*
X93730316Y-90024272D01*
X93735279Y-90034013D01*
X93744849Y-90094445D01*
X93717070Y-90148961D01*
X93670191Y-90175218D01*
X93664596Y-90176562D01*
X93641473Y-90179300D01*
X93633265Y-90179300D01*
X93539964Y-90204300D01*
X93539961Y-90204300D01*
X93537767Y-90204887D01*
X93491159Y-90231795D01*
X93491158Y-90231796D01*
X93491155Y-90231798D01*
X93459629Y-90250000D01*
X93400000Y-90250000D01*
X93400000Y-90306463D01*
X93382225Y-90324238D01*
X93377992Y-90331566D01*
X93377988Y-90331571D01*
X93377874Y-90331770D01*
X93358390Y-90355827D01*
X93350265Y-90363143D01*
X93294370Y-90388031D01*
X93234521Y-90375310D01*
X93197017Y-90336811D01*
X93194269Y-90331750D01*
X93185651Y-90310149D01*
X93174910Y-90270062D01*
X93174908Y-90270059D01*
X93174908Y-90270057D01*
X93174906Y-90270054D01*
X93174816Y-90269716D01*
X93173322Y-90267310D01*
X93126957Y-90187004D01*
X93125875Y-90184994D01*
X93125476Y-90184440D01*
X93125475Y-90184438D01*
X93090568Y-90149531D01*
X93055564Y-90114526D01*
X93053804Y-90113510D01*
X93048997Y-90110734D01*
X93027231Y-90098168D01*
X93006193Y-90074804D01*
X92932886Y-90055160D01*
X92932886Y-90055161D01*
X92874435Y-90039500D01*
X92775565Y-90039500D01*
X92775563Y-90039500D01*
X92717115Y-90055159D01*
X92717116Y-90055160D01*
X92680058Y-90065090D01*
X92594444Y-90114519D01*
X92524521Y-90184442D01*
X92475090Y-90270057D01*
X92461317Y-90321455D01*
X92461318Y-90321456D01*
X92449500Y-90365562D01*
X92449500Y-90464434D01*
X92466265Y-90527006D01*
X92475090Y-90559941D01*
X92520185Y-90638045D01*
X92524523Y-90645559D01*
X92524525Y-90645562D01*
X92594438Y-90715475D01*
X92594440Y-90715476D01*
X92594990Y-90715873D01*
X92597001Y-90716954D01*
X92623288Y-90732132D01*
X92644883Y-90756115D01*
X92679192Y-90764692D01*
X92680795Y-90765106D01*
X92775565Y-90790500D01*
X92775567Y-90790500D01*
X92874433Y-90790500D01*
X92874435Y-90790500D01*
X92969938Y-90764910D01*
X92969939Y-90764909D01*
X92969941Y-90764908D01*
X92969942Y-90764908D01*
X93011206Y-90741084D01*
X93055562Y-90715475D01*
X93125475Y-90645562D01*
X93129812Y-90638048D01*
X93139701Y-90629143D01*
X93145784Y-90617304D01*
X93149302Y-90613976D01*
X93157429Y-90606657D01*
X93171751Y-90600279D01*
X93175277Y-90597105D01*
X93179995Y-90596608D01*
X93213321Y-90581768D01*
X93273170Y-90594484D01*
X93310681Y-90632989D01*
X93313426Y-90638045D01*
X93322048Y-90659655D01*
X93331988Y-90696748D01*
X93332789Y-90699737D01*
X93332791Y-90699741D01*
X93332792Y-90699742D01*
X93332792Y-90699744D01*
X93373935Y-90771004D01*
X93381518Y-90787450D01*
X93383227Y-90792274D01*
X93383227Y-90792275D01*
X93394319Y-90823593D01*
X93400000Y-90856644D01*
X93400000Y-91055895D01*
X93395153Y-91086493D01*
X93391350Y-91098195D01*
X93355383Y-91147693D01*
X93299794Y-91166563D01*
X93289732Y-91166827D01*
X93261513Y-91163488D01*
X93225874Y-91153939D01*
X93225874Y-91153938D01*
X93225870Y-91153938D01*
X93209308Y-91149500D01*
X93090690Y-91149500D01*
X93024622Y-91167203D01*
X92976108Y-91180202D01*
X92976107Y-91180202D01*
X92976105Y-91180203D01*
X92873392Y-91239505D01*
X92789502Y-91323395D01*
X92730200Y-91426109D01*
X92729923Y-91426844D01*
X92729376Y-91429185D01*
X92699499Y-91540691D01*
X92699499Y-91659308D01*
X92722477Y-91745063D01*
X92722477Y-91745064D01*
X92730198Y-91773884D01*
X92730202Y-91773892D01*
X92777617Y-91856017D01*
X92789506Y-91876608D01*
X92789508Y-91876610D01*
X92789510Y-91876613D01*
X92873386Y-91960489D01*
X92873388Y-91960490D01*
X92873495Y-91960597D01*
X92873745Y-91960783D01*
X92875933Y-91961960D01*
X92973368Y-92018214D01*
X92975769Y-92019706D01*
X92976110Y-92019797D01*
X92976113Y-92019799D01*
X93090690Y-92050500D01*
X93090692Y-92050500D01*
X93209308Y-92050500D01*
X93209309Y-92050500D01*
X93209309Y-92050499D01*
X93260235Y-92036854D01*
X93291037Y-92033616D01*
X93303325Y-92034260D01*
X93360445Y-92056188D01*
X93393061Y-92105001D01*
X93395921Y-92114654D01*
X93400000Y-92142777D01*
X93400000Y-93085319D01*
X93397074Y-93094323D01*
X93395154Y-93115912D01*
X93391032Y-93128598D01*
X93381816Y-93141284D01*
X93381093Y-93143510D01*
X93379200Y-93144884D01*
X93355080Y-93178089D01*
X93350959Y-93181084D01*
X93292771Y-93200000D01*
X93263693Y-93200000D01*
X93233100Y-93195154D01*
X93220414Y-93191032D01*
X93170915Y-93155070D01*
X93167930Y-93150961D01*
X93164420Y-93146131D01*
X93148888Y-93113568D01*
X93139910Y-93080062D01*
X93139908Y-93080058D01*
X93105558Y-93020562D01*
X93090475Y-92994438D01*
X93020562Y-92924525D01*
X93020559Y-92924523D01*
X93020558Y-92924522D01*
X93020303Y-92924375D01*
X92992231Y-92908168D01*
X92971193Y-92884803D01*
X92897886Y-92865160D01*
X92897886Y-92865161D01*
X92839435Y-92849500D01*
X92740565Y-92849500D01*
X92740563Y-92849500D01*
X92682115Y-92865159D01*
X92682116Y-92865160D01*
X92645058Y-92875090D01*
X92559444Y-92924519D01*
X92489522Y-92994441D01*
X92440088Y-93080063D01*
X92439683Y-93081577D01*
X92438539Y-93084146D01*
X92438316Y-93084734D01*
X92438282Y-93084721D01*
X92427084Y-93109873D01*
X92422595Y-93116785D01*
X92375044Y-93155289D01*
X92313942Y-93158489D01*
X92262630Y-93125165D01*
X92259978Y-93121890D01*
X92241290Y-93085212D01*
X92239910Y-93080062D01*
X92239908Y-93080058D01*
X92205558Y-93020562D01*
X92190475Y-92994438D01*
X92120562Y-92924525D01*
X92120559Y-92924523D01*
X92120558Y-92924522D01*
X92120303Y-92924375D01*
X92092231Y-92908168D01*
X92071193Y-92884803D01*
X91997886Y-92865160D01*
X91997886Y-92865161D01*
X91939435Y-92849500D01*
X91840565Y-92849500D01*
X91840563Y-92849500D01*
X91782115Y-92865159D01*
X91782116Y-92865160D01*
X91745058Y-92875090D01*
X91659444Y-92924519D01*
X91589522Y-92994441D01*
X91540088Y-93080063D01*
X91539683Y-93081577D01*
X91538539Y-93084146D01*
X91538316Y-93084734D01*
X91538282Y-93084721D01*
X91527084Y-93109873D01*
X91522595Y-93116785D01*
X91475044Y-93155289D01*
X91413942Y-93158489D01*
X91362630Y-93125165D01*
X91359978Y-93121890D01*
X91341290Y-93085212D01*
X91339910Y-93080062D01*
X91339908Y-93080058D01*
X91305558Y-93020562D01*
X91290475Y-92994438D01*
X91220562Y-92924525D01*
X91220559Y-92924523D01*
X91220558Y-92924522D01*
X91220303Y-92924375D01*
X91192231Y-92908168D01*
X91171193Y-92884803D01*
X91097886Y-92865160D01*
X91097886Y-92865161D01*
X91039435Y-92849500D01*
X90940565Y-92849500D01*
X90940563Y-92849500D01*
X90882115Y-92865159D01*
X90882116Y-92865160D01*
X90845058Y-92875090D01*
X90759444Y-92924519D01*
X90759440Y-92924523D01*
X90689523Y-92994440D01*
X90640094Y-93080054D01*
X90640089Y-93080062D01*
X90631671Y-93111479D01*
X90619071Y-93139776D01*
X90611807Y-93150961D01*
X90564262Y-93189463D01*
X90553947Y-93193423D01*
X90518465Y-93200000D01*
X89514680Y-93200000D01*
X89484087Y-93195154D01*
X89471401Y-93191032D01*
X89421901Y-93155068D01*
X89421894Y-93155058D01*
X89418900Y-93150936D01*
X89400000Y-93092756D01*
X89400000Y-92937352D01*
X89404845Y-92906760D01*
X89410709Y-92888712D01*
X89438612Y-92845740D01*
X89441761Y-92842904D01*
X89458508Y-92830735D01*
X89476263Y-92820485D01*
X89555485Y-92741263D01*
X89611503Y-92644237D01*
X89640500Y-92536018D01*
X89640500Y-92423982D01*
X89611503Y-92315763D01*
X89611501Y-92315760D01*
X89611501Y-92315758D01*
X89611499Y-92315755D01*
X89611409Y-92315418D01*
X89609915Y-92313011D01*
X89563759Y-92233068D01*
X89555486Y-92218739D01*
X89555485Y-92218737D01*
X89476263Y-92139515D01*
X89476260Y-92139513D01*
X89456453Y-92128077D01*
X89447317Y-92119138D01*
X89439011Y-92112412D01*
X89426310Y-92098307D01*
X89403039Y-92052627D01*
X89402160Y-92048488D01*
X89400000Y-92027922D01*
X89400000Y-91743981D01*
X91324500Y-91743981D01*
X91324500Y-91743982D01*
X91324500Y-91856018D01*
X91330018Y-91876613D01*
X91346850Y-91939434D01*
X91353496Y-91964238D01*
X91353497Y-91964241D01*
X91403011Y-92049999D01*
X91409512Y-92061259D01*
X91409513Y-92061260D01*
X91409515Y-92061263D01*
X91488737Y-92140485D01*
X91504395Y-92149525D01*
X91528992Y-92163726D01*
X91550584Y-92187708D01*
X91584893Y-92196285D01*
X91586496Y-92196699D01*
X91693982Y-92225500D01*
X91693984Y-92225500D01*
X91806016Y-92225500D01*
X91806018Y-92225500D01*
X91914237Y-92196503D01*
X91914238Y-92196501D01*
X91914240Y-92196501D01*
X91914241Y-92196501D01*
X91950615Y-92175500D01*
X92011263Y-92140485D01*
X92090485Y-92061263D01*
X92146503Y-91964237D01*
X92175500Y-91856018D01*
X92175500Y-91743982D01*
X92146503Y-91635763D01*
X92146501Y-91635760D01*
X92146501Y-91635758D01*
X92146499Y-91635754D01*
X92146409Y-91635418D01*
X92144915Y-91633011D01*
X92091967Y-91541303D01*
X92090885Y-91539293D01*
X92090486Y-91538739D01*
X92090485Y-91538737D01*
X92011263Y-91459515D01*
X92011260Y-91459513D01*
X92011258Y-91459511D01*
X92003029Y-91454760D01*
X92003021Y-91454756D01*
X91998240Y-91451996D01*
X91914240Y-91403498D01*
X91914242Y-91403498D01*
X91847817Y-91385700D01*
X91840621Y-91383771D01*
X91840617Y-91383770D01*
X91814972Y-91376899D01*
X91806018Y-91374500D01*
X91806017Y-91374500D01*
X91693983Y-91374500D01*
X91693982Y-91374500D01*
X91686690Y-91376453D01*
X91652182Y-91385699D01*
X91652183Y-91385700D01*
X91585754Y-91403499D01*
X91488741Y-91459511D01*
X91409511Y-91538741D01*
X91353499Y-91635754D01*
X91353498Y-91635758D01*
X91337897Y-91693982D01*
X91337897Y-91693983D01*
X91337896Y-91693982D01*
X91324500Y-91743981D01*
X89400000Y-91743981D01*
X89400000Y-90365562D01*
X90799500Y-90365562D01*
X90799500Y-90464434D01*
X90816265Y-90527006D01*
X90825090Y-90559941D01*
X90870185Y-90638045D01*
X90874523Y-90645559D01*
X90874525Y-90645562D01*
X90944438Y-90715475D01*
X90944440Y-90715476D01*
X90944990Y-90715873D01*
X90947001Y-90716954D01*
X90973288Y-90732132D01*
X90994883Y-90756115D01*
X91029192Y-90764692D01*
X91030795Y-90765106D01*
X91125565Y-90790500D01*
X91125567Y-90790500D01*
X91224433Y-90790500D01*
X91224435Y-90790500D01*
X91319938Y-90764910D01*
X91319939Y-90764909D01*
X91319941Y-90764908D01*
X91319942Y-90764908D01*
X91361206Y-90741084D01*
X91405562Y-90715475D01*
X91475475Y-90645562D01*
X91524910Y-90559938D01*
X91550500Y-90464435D01*
X91550500Y-90365565D01*
X91524910Y-90270062D01*
X91524908Y-90270059D01*
X91524908Y-90270057D01*
X91524906Y-90270054D01*
X91524816Y-90269717D01*
X91523322Y-90267310D01*
X91476957Y-90187004D01*
X91475875Y-90184994D01*
X91475476Y-90184440D01*
X91475475Y-90184438D01*
X91440568Y-90149531D01*
X91405564Y-90114526D01*
X91403804Y-90113510D01*
X91398997Y-90110734D01*
X91377231Y-90098168D01*
X91356193Y-90074804D01*
X91282886Y-90055160D01*
X91282886Y-90055161D01*
X91224435Y-90039500D01*
X91125565Y-90039500D01*
X91125563Y-90039500D01*
X91067115Y-90055159D01*
X91067116Y-90055160D01*
X91030058Y-90065090D01*
X90944444Y-90114519D01*
X90874521Y-90184442D01*
X90825090Y-90270057D01*
X90811317Y-90321455D01*
X90811318Y-90321456D01*
X90799500Y-90365562D01*
X89400000Y-90365562D01*
X89400000Y-89539028D01*
X89404845Y-89508437D01*
X89411792Y-89487055D01*
X89439539Y-89446408D01*
X89438596Y-89445465D01*
X89442025Y-89442035D01*
X89442031Y-89442031D01*
X89827555Y-88972267D01*
X89834482Y-88959309D01*
X90058868Y-88539511D01*
X90114026Y-88436318D01*
X90290434Y-87854779D01*
X90290435Y-87854774D01*
X90350000Y-87250003D01*
X90350000Y-87249997D01*
X90350000Y-87249989D01*
X90324308Y-86989146D01*
X90293299Y-86674302D01*
X90295121Y-86643396D01*
X90297982Y-86630353D01*
X90328919Y-86577573D01*
X90330919Y-86575796D01*
X90376413Y-86552901D01*
X90380274Y-86552093D01*
X90400528Y-86550000D01*
X91464251Y-86550000D01*
X91489871Y-86553373D01*
G37*
%TD.AperFunction*%
%TD*%
%TA.AperFunction,Conductor*%
%TO.N,M2_SRC*%
G36*
X107136518Y-89418907D02*
G01*
X107164063Y-89449500D01*
X107179515Y-89476263D01*
X107258737Y-89555485D01*
X107258739Y-89555486D01*
X107355759Y-89611501D01*
X107355757Y-89611501D01*
X107355761Y-89611502D01*
X107355763Y-89611503D01*
X107463982Y-89640500D01*
X107463984Y-89640500D01*
X107576016Y-89640500D01*
X107576018Y-89640500D01*
X107684237Y-89611503D01*
X107684239Y-89611501D01*
X107684241Y-89611501D01*
X107713064Y-89594859D01*
X107781263Y-89555485D01*
X107860485Y-89476263D01*
X107875937Y-89449500D01*
X107921407Y-89408559D01*
X107961673Y-89400000D01*
X110476650Y-89400000D01*
X110534841Y-89418907D01*
X110553179Y-89436196D01*
X110557968Y-89442031D01*
X110599680Y-89476263D01*
X111027734Y-89827557D01*
X111563675Y-90114023D01*
X111563681Y-90114026D01*
X111968811Y-90236920D01*
X112145219Y-90290434D01*
X112145224Y-90290435D01*
X112749997Y-90350000D01*
X112750000Y-90350000D01*
X112750003Y-90350000D01*
X113341296Y-90291762D01*
X113401060Y-90304874D01*
X113441703Y-90350611D01*
X113450000Y-90390285D01*
X113450000Y-91476764D01*
X113436736Y-91526264D01*
X113393091Y-91601857D01*
X113393090Y-91601862D01*
X113367500Y-91697365D01*
X113367500Y-91796235D01*
X113393090Y-91891738D01*
X113436736Y-91967336D01*
X113450000Y-92016835D01*
X113450000Y-107801000D01*
X113431093Y-107859191D01*
X113381593Y-107895155D01*
X113351000Y-107900000D01*
X111228405Y-107900000D01*
X111170214Y-107881093D01*
X111134250Y-107831593D01*
X111134250Y-107770407D01*
X111142669Y-107751500D01*
X111181501Y-107684241D01*
X111181501Y-107684239D01*
X111181503Y-107684237D01*
X111210500Y-107576018D01*
X111210500Y-107463982D01*
X111181503Y-107355763D01*
X111181501Y-107355760D01*
X111181501Y-107355758D01*
X111125486Y-107258739D01*
X111125485Y-107258737D01*
X111046263Y-107179515D01*
X110994276Y-107149500D01*
X110949240Y-107123498D01*
X110949242Y-107123498D01*
X110873162Y-107103113D01*
X110841018Y-107094500D01*
X110841017Y-107094500D01*
X110841010Y-107094498D01*
X110836072Y-107093848D01*
X110780848Y-107067504D01*
X110751657Y-107013731D01*
X110750000Y-106995696D01*
X110750000Y-106700001D01*
X110750000Y-106700000D01*
X110749999Y-106700000D01*
X109849000Y-106700000D01*
X109790809Y-106681093D01*
X109754845Y-106631593D01*
X109750000Y-106601000D01*
X109750000Y-106081334D01*
X109768907Y-106023143D01*
X109778990Y-106011336D01*
X109810465Y-105979862D01*
X109853318Y-105905638D01*
X109875500Y-105822853D01*
X109875500Y-105737147D01*
X109853318Y-105654362D01*
X109810465Y-105580138D01*
X109810463Y-105580136D01*
X109808603Y-105576914D01*
X109795882Y-105517065D01*
X109820769Y-105461170D01*
X109824319Y-105457428D01*
X109849485Y-105432263D01*
X109905503Y-105335237D01*
X109934500Y-105227018D01*
X109934500Y-105114982D01*
X109905503Y-105006763D01*
X109905501Y-105006760D01*
X109905501Y-105006758D01*
X109849486Y-104909739D01*
X109849485Y-104909737D01*
X109778994Y-104839246D01*
X109751219Y-104784732D01*
X109750000Y-104769245D01*
X109750000Y-104367843D01*
X109768907Y-104309652D01*
X109818407Y-104273688D01*
X109879593Y-104273688D01*
X109929093Y-104309652D01*
X109934732Y-104318337D01*
X109939511Y-104326613D01*
X110023387Y-104410489D01*
X110023389Y-104410490D01*
X110023391Y-104410492D01*
X110126110Y-104469797D01*
X110126111Y-104469797D01*
X110126114Y-104469799D01*
X110240691Y-104500500D01*
X110240693Y-104500500D01*
X110359307Y-104500500D01*
X110359309Y-104500500D01*
X110473886Y-104469799D01*
X110473888Y-104469797D01*
X110473890Y-104469797D01*
X110576608Y-104410492D01*
X110576608Y-104410491D01*
X110576613Y-104410489D01*
X110629998Y-104357103D01*
X110684513Y-104329328D01*
X110744945Y-104338899D01*
X110770000Y-104357102D01*
X110823387Y-104410489D01*
X110823389Y-104410490D01*
X110823391Y-104410492D01*
X110926110Y-104469797D01*
X110926111Y-104469797D01*
X110926114Y-104469799D01*
X111040691Y-104500500D01*
X111040693Y-104500500D01*
X111159307Y-104500500D01*
X111159309Y-104500500D01*
X111273886Y-104469799D01*
X111273888Y-104469797D01*
X111273890Y-104469797D01*
X111376608Y-104410492D01*
X111376608Y-104410491D01*
X111376613Y-104410489D01*
X111460489Y-104326613D01*
X111464263Y-104320075D01*
X111509731Y-104279135D01*
X111570581Y-104272738D01*
X111623570Y-104303329D01*
X111635735Y-104320073D01*
X111639511Y-104326613D01*
X111717896Y-104404998D01*
X111745672Y-104459513D01*
X111736101Y-104519945D01*
X111717897Y-104545000D01*
X111671950Y-104590948D01*
X111639508Y-104623390D01*
X111639507Y-104623391D01*
X111580202Y-104726109D01*
X111568644Y-104769245D01*
X111549500Y-104840691D01*
X111549500Y-104959309D01*
X111563217Y-105010500D01*
X111580202Y-105073890D01*
X111639507Y-105176608D01*
X111639509Y-105176610D01*
X111639511Y-105176613D01*
X111723387Y-105260489D01*
X111723389Y-105260490D01*
X111723391Y-105260492D01*
X111826110Y-105319797D01*
X111826111Y-105319797D01*
X111826114Y-105319799D01*
X111940691Y-105350500D01*
X111940693Y-105350500D01*
X112059307Y-105350500D01*
X112059309Y-105350500D01*
X112173886Y-105319799D01*
X112173888Y-105319797D01*
X112173890Y-105319797D01*
X112276608Y-105260492D01*
X112276608Y-105260491D01*
X112276613Y-105260489D01*
X112360489Y-105176613D01*
X112360492Y-105176608D01*
X112419797Y-105073890D01*
X112419797Y-105073888D01*
X112419799Y-105073886D01*
X112450500Y-104959309D01*
X112450500Y-104840691D01*
X112419799Y-104726114D01*
X112419797Y-104726111D01*
X112419797Y-104726109D01*
X112360492Y-104623391D01*
X112360490Y-104623389D01*
X112360489Y-104623387D01*
X112282103Y-104545001D01*
X112254328Y-104490487D01*
X112263899Y-104430055D01*
X112282102Y-104404999D01*
X112360489Y-104326613D01*
X112395773Y-104265500D01*
X112419797Y-104223890D01*
X112419797Y-104223888D01*
X112419799Y-104223886D01*
X112450500Y-104109309D01*
X112450500Y-103990691D01*
X112419799Y-103876114D01*
X112419797Y-103876111D01*
X112419797Y-103876109D01*
X112360492Y-103773391D01*
X112360490Y-103773389D01*
X112360489Y-103773387D01*
X112276613Y-103689511D01*
X112276610Y-103689509D01*
X112276608Y-103689507D01*
X112173889Y-103630202D01*
X112173890Y-103630202D01*
X112160351Y-103626574D01*
X112059309Y-103599500D01*
X111940691Y-103599500D01*
X111870567Y-103618289D01*
X111826109Y-103630202D01*
X111723391Y-103689507D01*
X111639509Y-103773389D01*
X111635736Y-103779925D01*
X111590266Y-103820865D01*
X111529416Y-103827260D01*
X111476428Y-103796667D01*
X111464264Y-103779925D01*
X111460490Y-103773389D01*
X111460489Y-103773387D01*
X111376613Y-103689511D01*
X111376610Y-103689509D01*
X111376608Y-103689507D01*
X111273889Y-103630202D01*
X111273890Y-103630202D01*
X111260351Y-103626574D01*
X111159309Y-103599500D01*
X111040691Y-103599500D01*
X110970567Y-103618289D01*
X110926109Y-103630202D01*
X110823391Y-103689507D01*
X110823390Y-103689508D01*
X110823387Y-103689510D01*
X110823387Y-103689511D01*
X110770001Y-103742896D01*
X110715487Y-103770672D01*
X110655055Y-103761101D01*
X110629999Y-103742897D01*
X110576613Y-103689511D01*
X110576610Y-103689509D01*
X110576608Y-103689507D01*
X110473889Y-103630202D01*
X110473890Y-103630202D01*
X110460351Y-103626574D01*
X110359309Y-103599500D01*
X110240691Y-103599500D01*
X110170567Y-103618289D01*
X110126109Y-103630202D01*
X110023391Y-103689507D01*
X109939509Y-103773389D01*
X109934736Y-103781657D01*
X109889266Y-103822597D01*
X109828416Y-103828992D01*
X109775428Y-103798399D01*
X109750542Y-103742503D01*
X109750000Y-103732156D01*
X109750000Y-99367843D01*
X109768907Y-99309652D01*
X109818407Y-99273688D01*
X109879593Y-99273688D01*
X109929093Y-99309652D01*
X109934732Y-99318337D01*
X109939511Y-99326613D01*
X110023387Y-99410489D01*
X110023389Y-99410490D01*
X110023391Y-99410492D01*
X110126110Y-99469797D01*
X110126111Y-99469797D01*
X110126114Y-99469799D01*
X110240691Y-99500500D01*
X110240693Y-99500500D01*
X110359307Y-99500500D01*
X110359309Y-99500500D01*
X110473886Y-99469799D01*
X110473888Y-99469797D01*
X110473890Y-99469797D01*
X110576608Y-99410492D01*
X110576608Y-99410491D01*
X110576613Y-99410489D01*
X110629998Y-99357103D01*
X110684513Y-99329328D01*
X110744945Y-99338899D01*
X110770000Y-99357102D01*
X110823387Y-99410489D01*
X110823389Y-99410490D01*
X110823391Y-99410492D01*
X110926110Y-99469797D01*
X110926111Y-99469797D01*
X110926114Y-99469799D01*
X111040691Y-99500500D01*
X111040693Y-99500500D01*
X111159307Y-99500500D01*
X111159309Y-99500500D01*
X111273886Y-99469799D01*
X111273888Y-99469797D01*
X111273890Y-99469797D01*
X111376608Y-99410492D01*
X111376608Y-99410491D01*
X111376613Y-99410489D01*
X111460489Y-99326613D01*
X111464263Y-99320075D01*
X111509731Y-99279135D01*
X111570581Y-99272738D01*
X111623570Y-99303329D01*
X111635735Y-99320073D01*
X111639511Y-99326613D01*
X111717896Y-99404998D01*
X111745672Y-99459513D01*
X111736101Y-99519945D01*
X111717897Y-99545000D01*
X111639511Y-99623387D01*
X111639508Y-99623390D01*
X111639507Y-99623391D01*
X111580202Y-99726109D01*
X111563037Y-99790169D01*
X111549500Y-99840691D01*
X111549500Y-99959309D01*
X111570398Y-100037300D01*
X111580202Y-100073890D01*
X111639507Y-100176608D01*
X111639509Y-100176610D01*
X111639511Y-100176613D01*
X111723387Y-100260489D01*
X111723389Y-100260490D01*
X111723391Y-100260492D01*
X111826110Y-100319797D01*
X111826111Y-100319797D01*
X111826114Y-100319799D01*
X111940691Y-100350500D01*
X111940693Y-100350500D01*
X112059307Y-100350500D01*
X112059309Y-100350500D01*
X112173886Y-100319799D01*
X112173888Y-100319797D01*
X112173890Y-100319797D01*
X112276608Y-100260492D01*
X112276608Y-100260491D01*
X112276613Y-100260489D01*
X112360489Y-100176613D01*
X112360492Y-100176608D01*
X112419797Y-100073890D01*
X112419797Y-100073888D01*
X112419799Y-100073886D01*
X112450500Y-99959309D01*
X112450500Y-99840691D01*
X112419799Y-99726114D01*
X112419797Y-99726111D01*
X112419797Y-99726109D01*
X112360492Y-99623391D01*
X112360490Y-99623389D01*
X112360489Y-99623387D01*
X112282103Y-99545001D01*
X112254328Y-99490487D01*
X112263899Y-99430055D01*
X112282102Y-99404999D01*
X112360489Y-99326613D01*
X112373932Y-99303329D01*
X112419797Y-99223890D01*
X112419797Y-99223888D01*
X112419799Y-99223886D01*
X112450500Y-99109309D01*
X112450500Y-98990691D01*
X112419799Y-98876114D01*
X112419797Y-98876111D01*
X112419797Y-98876109D01*
X112360492Y-98773391D01*
X112360490Y-98773389D01*
X112360489Y-98773387D01*
X112276613Y-98689511D01*
X112276610Y-98689509D01*
X112276608Y-98689507D01*
X112173889Y-98630202D01*
X112173890Y-98630202D01*
X112160351Y-98626574D01*
X112059309Y-98599500D01*
X111940691Y-98599500D01*
X111870567Y-98618289D01*
X111826109Y-98630202D01*
X111723391Y-98689507D01*
X111639509Y-98773389D01*
X111635736Y-98779925D01*
X111590266Y-98820865D01*
X111529416Y-98827260D01*
X111476428Y-98796667D01*
X111464264Y-98779925D01*
X111460490Y-98773389D01*
X111460489Y-98773387D01*
X111376613Y-98689511D01*
X111376610Y-98689509D01*
X111376608Y-98689507D01*
X111273889Y-98630202D01*
X111273890Y-98630202D01*
X111260351Y-98626574D01*
X111159309Y-98599500D01*
X111040691Y-98599500D01*
X110970567Y-98618289D01*
X110926109Y-98630202D01*
X110823391Y-98689507D01*
X110823390Y-98689508D01*
X110823387Y-98689510D01*
X110823387Y-98689511D01*
X110770001Y-98742896D01*
X110715487Y-98770672D01*
X110655055Y-98761101D01*
X110629999Y-98742897D01*
X110576613Y-98689511D01*
X110576610Y-98689509D01*
X110576608Y-98689507D01*
X110473889Y-98630202D01*
X110473890Y-98630202D01*
X110460351Y-98626574D01*
X110359309Y-98599500D01*
X110240691Y-98599500D01*
X110170567Y-98618289D01*
X110126109Y-98630202D01*
X110023391Y-98689507D01*
X109939509Y-98773389D01*
X109934736Y-98781657D01*
X109889266Y-98822597D01*
X109828416Y-98828992D01*
X109775428Y-98798399D01*
X109750542Y-98742503D01*
X109750000Y-98732156D01*
X109750000Y-94367843D01*
X109768907Y-94309652D01*
X109818407Y-94273688D01*
X109879593Y-94273688D01*
X109929093Y-94309652D01*
X109934732Y-94318337D01*
X109939511Y-94326613D01*
X110023387Y-94410489D01*
X110023389Y-94410490D01*
X110023391Y-94410492D01*
X110126110Y-94469797D01*
X110126111Y-94469797D01*
X110126114Y-94469799D01*
X110240691Y-94500500D01*
X110240693Y-94500500D01*
X110359307Y-94500500D01*
X110359309Y-94500500D01*
X110473886Y-94469799D01*
X110473888Y-94469797D01*
X110473890Y-94469797D01*
X110576608Y-94410492D01*
X110576608Y-94410491D01*
X110576613Y-94410489D01*
X110629998Y-94357103D01*
X110684513Y-94329328D01*
X110744945Y-94338899D01*
X110770000Y-94357102D01*
X110823387Y-94410489D01*
X110823389Y-94410490D01*
X110823391Y-94410492D01*
X110926110Y-94469797D01*
X110926111Y-94469797D01*
X110926114Y-94469799D01*
X111040691Y-94500500D01*
X111040693Y-94500500D01*
X111159307Y-94500500D01*
X111159309Y-94500500D01*
X111273886Y-94469799D01*
X111273888Y-94469797D01*
X111273890Y-94469797D01*
X111376608Y-94410492D01*
X111376608Y-94410491D01*
X111376613Y-94410489D01*
X111460489Y-94326613D01*
X111464263Y-94320075D01*
X111509731Y-94279135D01*
X111570581Y-94272738D01*
X111623570Y-94303329D01*
X111635735Y-94320073D01*
X111639511Y-94326613D01*
X111717896Y-94404998D01*
X111745672Y-94459513D01*
X111736101Y-94519945D01*
X111717897Y-94545000D01*
X111641060Y-94621838D01*
X111639508Y-94623390D01*
X111639507Y-94623391D01*
X111580202Y-94726109D01*
X111580201Y-94726114D01*
X111549500Y-94840691D01*
X111549500Y-94959309D01*
X111576295Y-95059309D01*
X111580202Y-95073890D01*
X111639507Y-95176608D01*
X111639509Y-95176610D01*
X111639511Y-95176613D01*
X111723387Y-95260489D01*
X111723389Y-95260490D01*
X111723391Y-95260492D01*
X111826110Y-95319797D01*
X111826111Y-95319797D01*
X111826114Y-95319799D01*
X111940691Y-95350500D01*
X111940693Y-95350500D01*
X112059307Y-95350500D01*
X112059309Y-95350500D01*
X112173886Y-95319799D01*
X112173888Y-95319797D01*
X112173890Y-95319797D01*
X112276608Y-95260492D01*
X112276608Y-95260491D01*
X112276613Y-95260489D01*
X112360489Y-95176613D01*
X112360492Y-95176608D01*
X112419797Y-95073890D01*
X112419797Y-95073888D01*
X112419799Y-95073886D01*
X112450500Y-94959309D01*
X112450500Y-94840691D01*
X112419799Y-94726114D01*
X112419797Y-94726111D01*
X112419797Y-94726109D01*
X112360492Y-94623391D01*
X112360490Y-94623389D01*
X112360489Y-94623387D01*
X112282103Y-94545001D01*
X112254328Y-94490487D01*
X112263899Y-94430055D01*
X112282102Y-94404999D01*
X112360489Y-94326613D01*
X112391594Y-94272738D01*
X112419797Y-94223890D01*
X112419797Y-94223888D01*
X112419799Y-94223886D01*
X112450500Y-94109309D01*
X112450500Y-93990691D01*
X112419799Y-93876114D01*
X112419797Y-93876111D01*
X112419797Y-93876109D01*
X112360492Y-93773391D01*
X112360490Y-93773389D01*
X112360489Y-93773387D01*
X112276613Y-93689511D01*
X112276610Y-93689509D01*
X112276608Y-93689507D01*
X112173889Y-93630202D01*
X112173890Y-93630202D01*
X112160351Y-93626574D01*
X112059309Y-93599500D01*
X111940691Y-93599500D01*
X111870567Y-93618289D01*
X111826109Y-93630202D01*
X111723391Y-93689507D01*
X111639509Y-93773389D01*
X111635736Y-93779925D01*
X111590266Y-93820865D01*
X111529416Y-93827260D01*
X111476428Y-93796667D01*
X111464264Y-93779925D01*
X111460490Y-93773389D01*
X111460489Y-93773387D01*
X111376613Y-93689511D01*
X111376610Y-93689509D01*
X111376608Y-93689507D01*
X111273889Y-93630202D01*
X111273890Y-93630202D01*
X111260351Y-93626574D01*
X111159309Y-93599500D01*
X111040691Y-93599500D01*
X110970567Y-93618289D01*
X110926109Y-93630202D01*
X110823391Y-93689507D01*
X110823390Y-93689508D01*
X110823387Y-93689510D01*
X110823387Y-93689511D01*
X110770001Y-93742896D01*
X110715487Y-93770672D01*
X110655055Y-93761101D01*
X110629999Y-93742897D01*
X110576613Y-93689511D01*
X110576610Y-93689509D01*
X110576608Y-93689507D01*
X110473889Y-93630202D01*
X110473890Y-93630202D01*
X110460351Y-93626574D01*
X110359309Y-93599500D01*
X110240691Y-93599500D01*
X110170567Y-93618289D01*
X110126109Y-93630202D01*
X110023391Y-93689507D01*
X110023390Y-93689508D01*
X110023387Y-93689510D01*
X110023387Y-93689511D01*
X109989501Y-93723396D01*
X109934987Y-93751172D01*
X109874555Y-93741601D01*
X109831290Y-93698336D01*
X109820500Y-93653391D01*
X109820500Y-93633266D01*
X109819679Y-93630201D01*
X109794910Y-93537762D01*
X109794909Y-93537760D01*
X109768193Y-93491485D01*
X109768190Y-93491481D01*
X109750000Y-93459975D01*
X109750000Y-93400000D01*
X109693337Y-93400000D01*
X109675562Y-93382225D01*
X109668210Y-93377980D01*
X109668209Y-93377979D01*
X109654526Y-93370079D01*
X109613586Y-93324609D01*
X109607192Y-93263758D01*
X109637786Y-93210771D01*
X109678402Y-93188718D01*
X109729938Y-93174910D01*
X109815562Y-93125475D01*
X109885475Y-93055562D01*
X109934910Y-92969938D01*
X109960500Y-92874435D01*
X109960500Y-92775565D01*
X109934910Y-92680062D01*
X109934908Y-92680059D01*
X109934908Y-92680057D01*
X109885476Y-92594440D01*
X109885475Y-92594438D01*
X109815562Y-92524525D01*
X109815559Y-92524523D01*
X109729941Y-92475091D01*
X109729943Y-92475091D01*
X109692885Y-92465161D01*
X109634435Y-92449500D01*
X109535565Y-92449500D01*
X109477114Y-92465161D01*
X109440057Y-92475091D01*
X109354440Y-92524523D01*
X109284523Y-92594440D01*
X109235091Y-92680057D01*
X109235090Y-92680062D01*
X109209500Y-92775565D01*
X109209500Y-92874435D01*
X109225712Y-92934938D01*
X109235091Y-92969942D01*
X109284523Y-93055559D01*
X109284525Y-93055562D01*
X109354438Y-93125475D01*
X109374628Y-93137131D01*
X109375472Y-93137619D01*
X109416413Y-93183089D01*
X109422807Y-93243940D01*
X109392214Y-93296927D01*
X109351595Y-93318981D01*
X109300062Y-93332789D01*
X109300058Y-93332791D01*
X109208819Y-93385469D01*
X109207524Y-93383227D01*
X109160265Y-93399966D01*
X109157668Y-93400000D01*
X108928423Y-93400000D01*
X108870232Y-93381093D01*
X108834268Y-93331593D01*
X108832796Y-93275379D01*
X108850500Y-93209308D01*
X108850500Y-93090690D01*
X108819799Y-92976113D01*
X108819797Y-92976110D01*
X108819797Y-92976108D01*
X108760492Y-92873390D01*
X108760490Y-92873388D01*
X108760489Y-92873386D01*
X108676613Y-92789510D01*
X108676610Y-92789508D01*
X108676608Y-92789506D01*
X108573889Y-92730201D01*
X108573890Y-92730201D01*
X108560351Y-92726573D01*
X108459309Y-92699499D01*
X108340691Y-92699499D01*
X108270567Y-92718288D01*
X108226109Y-92730201D01*
X108123391Y-92789506D01*
X108039507Y-92873390D01*
X107980202Y-92976108D01*
X107980201Y-92976113D01*
X107949500Y-93090690D01*
X107949500Y-93209308D01*
X107967203Y-93275379D01*
X107964002Y-93336478D01*
X107925497Y-93384028D01*
X107871577Y-93400000D01*
X106899000Y-93400000D01*
X106840809Y-93381093D01*
X106804845Y-93331593D01*
X106800000Y-93301000D01*
X106800000Y-93248012D01*
X106818907Y-93189821D01*
X106868407Y-93153857D01*
X106873351Y-93152392D01*
X106919938Y-93139910D01*
X107005562Y-93090475D01*
X107075475Y-93020562D01*
X107124910Y-92934938D01*
X107150500Y-92839435D01*
X107150500Y-92740565D01*
X107124910Y-92645062D01*
X107124908Y-92645059D01*
X107124908Y-92645057D01*
X107075476Y-92559440D01*
X107075475Y-92559438D01*
X107005562Y-92489525D01*
X106980562Y-92475091D01*
X106919941Y-92440091D01*
X106919943Y-92440091D01*
X106913249Y-92438297D01*
X106903278Y-92435626D01*
X106851966Y-92402303D01*
X106830039Y-92345181D01*
X106845875Y-92286081D01*
X106893425Y-92247576D01*
X106903271Y-92244375D01*
X106919938Y-92239910D01*
X106919940Y-92239908D01*
X106919942Y-92239908D01*
X106945377Y-92225222D01*
X107005562Y-92190475D01*
X107075475Y-92120562D01*
X107124910Y-92034938D01*
X107150500Y-91939435D01*
X107150500Y-91840565D01*
X107124910Y-91745062D01*
X107095419Y-91693982D01*
X107774500Y-91693982D01*
X107774500Y-91806018D01*
X107797469Y-91891740D01*
X107803498Y-91914241D01*
X107839942Y-91977362D01*
X107859515Y-92011263D01*
X107938737Y-92090485D01*
X107938739Y-92090486D01*
X108035759Y-92146501D01*
X108035757Y-92146501D01*
X108035761Y-92146502D01*
X108035763Y-92146503D01*
X108143982Y-92175500D01*
X108143984Y-92175500D01*
X108256016Y-92175500D01*
X108256018Y-92175500D01*
X108364237Y-92146503D01*
X108364239Y-92146501D01*
X108364241Y-92146501D01*
X108409173Y-92120559D01*
X108461263Y-92090485D01*
X108540485Y-92011263D01*
X108596503Y-91914237D01*
X108625500Y-91806018D01*
X108625500Y-91693982D01*
X108596503Y-91585763D01*
X108596501Y-91585760D01*
X108596501Y-91585758D01*
X108540486Y-91488739D01*
X108540485Y-91488737D01*
X108461263Y-91409515D01*
X108461260Y-91409513D01*
X108364240Y-91353498D01*
X108364242Y-91353498D01*
X108313522Y-91339908D01*
X108256018Y-91324500D01*
X108143982Y-91324500D01*
X108086478Y-91339908D01*
X108035758Y-91353498D01*
X107938739Y-91409513D01*
X107859513Y-91488739D01*
X107803498Y-91585758D01*
X107799183Y-91601862D01*
X107774500Y-91693982D01*
X107095419Y-91693982D01*
X107075475Y-91659438D01*
X107005562Y-91589525D01*
X107005559Y-91589523D01*
X106919941Y-91540091D01*
X106919943Y-91540091D01*
X106913249Y-91538297D01*
X106903278Y-91535626D01*
X106851966Y-91502303D01*
X106830039Y-91445181D01*
X106845875Y-91386081D01*
X106893425Y-91347576D01*
X106903271Y-91344375D01*
X106919938Y-91339910D01*
X106919940Y-91339908D01*
X106919942Y-91339908D01*
X106946629Y-91324500D01*
X107005562Y-91290475D01*
X107075475Y-91220562D01*
X107124910Y-91134938D01*
X107127421Y-91125565D01*
X109209500Y-91125565D01*
X109209500Y-91224435D01*
X109227196Y-91290476D01*
X109235091Y-91319942D01*
X109279518Y-91396890D01*
X109284525Y-91405562D01*
X109354438Y-91475475D01*
X109377412Y-91488739D01*
X109440058Y-91524908D01*
X109440056Y-91524908D01*
X109440060Y-91524909D01*
X109440062Y-91524910D01*
X109535565Y-91550500D01*
X109535567Y-91550500D01*
X109634433Y-91550500D01*
X109634435Y-91550500D01*
X109729938Y-91524910D01*
X109729940Y-91524908D01*
X109729942Y-91524908D01*
X109755377Y-91510222D01*
X109815562Y-91475475D01*
X109885475Y-91405562D01*
X109934910Y-91319938D01*
X109960500Y-91224435D01*
X109960500Y-91125565D01*
X109934910Y-91030062D01*
X109934908Y-91030059D01*
X109934908Y-91030057D01*
X109885476Y-90944440D01*
X109885475Y-90944438D01*
X109815562Y-90874525D01*
X109764531Y-90845062D01*
X109729941Y-90825091D01*
X109729943Y-90825091D01*
X109692885Y-90815161D01*
X109634435Y-90799500D01*
X109535565Y-90799500D01*
X109477114Y-90815161D01*
X109440057Y-90825091D01*
X109354440Y-90874523D01*
X109284523Y-90944440D01*
X109235091Y-91030057D01*
X109232578Y-91039437D01*
X109209500Y-91125565D01*
X107127421Y-91125565D01*
X107150500Y-91039435D01*
X107150500Y-90940565D01*
X107124910Y-90845062D01*
X107124908Y-90845059D01*
X107124908Y-90845057D01*
X107075476Y-90759440D01*
X107075475Y-90759438D01*
X107005562Y-90689525D01*
X107005559Y-90689523D01*
X106919941Y-90640091D01*
X106919937Y-90640089D01*
X106873376Y-90627613D01*
X106822062Y-90594289D01*
X106800136Y-90537167D01*
X106800000Y-90531987D01*
X106800000Y-89499000D01*
X106818907Y-89440809D01*
X106868407Y-89404845D01*
X106899000Y-89400000D01*
X107078327Y-89400000D01*
X107136518Y-89418907D01*
G37*
%TD.AperFunction*%
%TD*%
M02*
