%TF.GenerationSoftware,KiCad,Pcbnew,10.0.6-10.0.6~ubuntu24.04.1*%
%TF.CreationDate,2026-09-29T00:38:51+00:00*%
%TF.ProjectId,ridge3-esc,72696467-6533-42d6-9573-632e6b696361,rev?*%
%TF.SameCoordinates,Original*%
%TF.FileFunction,Drillmap*%
%TF.FilePolarity,Positive*%
%FSLAX45Y45*%
G04 Gerber Fmt 4.5, Leading zero omitted, Abs format (unit mm)*
G04 Created by KiCad (PCBNEW 10.0.6-10.0.6~ubuntu24.04.1) date 2026-09-29 00:38:51*
%MOMM*%
%LPD*%
G01*
G04 APERTURE LIST*
%ADD10C,0.100000*%
%ADD11C,0.200000*%
%ADD12C,0.160000*%
G04 APERTURE END LIST*
D10*
X8200000Y-8376777D02*
X8565989Y-8742766D01*
X8200000Y-11623223D02*
X8200000Y-8376777D01*
X8376777Y-8200000D02*
X11623223Y-8200000D01*
X8376777Y-11800000D02*
X8742766Y-11434010D01*
X8565989Y-11257234D02*
X8200000Y-11623223D01*
X8565989Y-11257234D02*
G75*
G02*
X8742766Y-11434011I159011J-17766D01*
G01*
X8742766Y-8565989D02*
X8376777Y-8200000D01*
X8742766Y-8565989D02*
G75*
G02*
X8565989Y-8742766I-17766J-159011D01*
G01*
X11257234Y-11434010D02*
G75*
G02*
X11434010Y-11257234I17766J159011D01*
G01*
X11257234Y-11434010D02*
X11623223Y-11800000D01*
X11434010Y-8742766D02*
G75*
G02*
X11257234Y-8565990I-159011J17766D01*
G01*
X11434010Y-8742766D02*
X11800000Y-8376777D01*
X11623223Y-8200000D02*
X11257234Y-8565989D01*
X11623223Y-11800000D02*
X8376777Y-11800000D01*
X11800000Y-8376777D02*
X11800000Y-11623223D01*
X11800000Y-11623223D02*
X11434010Y-11257234D01*
D11*
D10*
X8262320Y-10294500D02*
X8277320Y-10309500D01*
X8277320Y-10294500D02*
X8262320Y-10309500D01*
X8290970Y-9801790D02*
X8305970Y-9816790D01*
X8305970Y-9801790D02*
X8290970Y-9816790D01*
X8320330Y-10201800D02*
X8335330Y-10216800D01*
X8335330Y-10201800D02*
X8320330Y-10216800D01*
X8340000Y-9700000D02*
X8355000Y-9715000D01*
X8355000Y-9700000D02*
X8340000Y-9715000D01*
X8510000Y-9742500D02*
X8525000Y-9757500D01*
X8525000Y-9742500D02*
X8510000Y-9757500D01*
X8510000Y-10242500D02*
X8525000Y-10257500D01*
X8525000Y-10242500D02*
X8510000Y-10257500D01*
X8510000Y-10728500D02*
X8525000Y-10743500D01*
X8525000Y-10728500D02*
X8510000Y-10743500D01*
X8585500Y-9742500D02*
X8600500Y-9757500D01*
X8600500Y-9742500D02*
X8585500Y-9757500D01*
X8585500Y-10242500D02*
X8600500Y-10257500D01*
X8600500Y-10242500D02*
X8585500Y-10257500D01*
X8585500Y-10742500D02*
X8600500Y-10757500D01*
X8600500Y-10742500D02*
X8585500Y-10757500D01*
X8589100Y-9799150D02*
X8604100Y-9814150D01*
X8604100Y-9799150D02*
X8589100Y-9814150D01*
X8618170Y-10817800D02*
X8633170Y-10832800D01*
X8633170Y-10817800D02*
X8618170Y-10832800D01*
X9034000Y-10710000D02*
X9049000Y-10725000D01*
X9049000Y-10710000D02*
X9034000Y-10725000D01*
X9034000Y-10875000D02*
X9049000Y-10890000D01*
X9049000Y-10875000D02*
X9034000Y-10890000D01*
X9037500Y-9414500D02*
X9052500Y-9429500D01*
X9052500Y-9414500D02*
X9037500Y-9429500D01*
X9047980Y-10624200D02*
X9062980Y-10639200D01*
X9062980Y-10624200D02*
X9047980Y-10639200D01*
X9065000Y-10130500D02*
X9080000Y-10145500D01*
X9080000Y-10130500D02*
X9065000Y-10145500D01*
X9065000Y-10180500D02*
X9080000Y-10195500D01*
X9080000Y-10180500D02*
X9065000Y-10195500D01*
X9065000Y-10230500D02*
X9080000Y-10245500D01*
X9080000Y-10230500D02*
X9065000Y-10245500D01*
X9065000Y-10330500D02*
X9080000Y-10345500D01*
X9080000Y-10330500D02*
X9065000Y-10345500D01*
X9071247Y-10380500D02*
X9086247Y-10395500D01*
X9086247Y-10380500D02*
X9071247Y-10395500D01*
X9071251Y-10080500D02*
X9086251Y-10095500D01*
X9086251Y-10080500D02*
X9071251Y-10095500D01*
X9072500Y-10475749D02*
X9087500Y-10490749D01*
X9087500Y-10475749D02*
X9072500Y-10490749D01*
X9073000Y-9598500D02*
X9088000Y-9613500D01*
X9088000Y-9598500D02*
X9073000Y-9613500D01*
X9073000Y-9648500D02*
X9088000Y-9663500D01*
X9088000Y-9648500D02*
X9073000Y-9663500D01*
X9073000Y-9698500D02*
X9088000Y-9713500D01*
X9088000Y-9698500D02*
X9073000Y-9713500D01*
X9073000Y-9748500D02*
X9088000Y-9763500D01*
X9088000Y-9748500D02*
X9073000Y-9763500D01*
X9073000Y-9798500D02*
X9088000Y-9813500D01*
X9088000Y-9798500D02*
X9073000Y-9813500D01*
X9073000Y-9848500D02*
X9088000Y-9863500D01*
X9088000Y-9848500D02*
X9073000Y-9863500D01*
X9074420Y-10544800D02*
X9089420Y-10559800D01*
X9089420Y-10544800D02*
X9074420Y-10559800D01*
X9091500Y-9315000D02*
X9106500Y-9330000D01*
X9106500Y-9315000D02*
X9091500Y-9330000D01*
X9110000Y-9034000D02*
X9125000Y-9049000D01*
X9125000Y-9034000D02*
X9110000Y-9049000D01*
X9147500Y-9524000D02*
X9162500Y-9539000D01*
X9162500Y-9524000D02*
X9147500Y-9539000D01*
X9147500Y-9923000D02*
X9162500Y-9938000D01*
X9162500Y-9923000D02*
X9147500Y-9938000D01*
X9147500Y-10184500D02*
X9162500Y-10199500D01*
X9162500Y-10184500D02*
X9147500Y-10199500D01*
X9167180Y-8618170D02*
X9182180Y-8633170D01*
X9182180Y-8618170D02*
X9167180Y-8633170D01*
X9167500Y-9414500D02*
X9182500Y-9429500D01*
X9182500Y-9414500D02*
X9167500Y-9429500D01*
X9172500Y-10023000D02*
X9187500Y-10038000D01*
X9187500Y-10023000D02*
X9172500Y-10038000D01*
X9181500Y-9315000D02*
X9196500Y-9330000D01*
X9196500Y-9315000D02*
X9181500Y-9330000D01*
X9191770Y-10137700D02*
X9206770Y-10152700D01*
X9206770Y-10137700D02*
X9191770Y-10152700D01*
X9197500Y-9524000D02*
X9212500Y-9539000D01*
X9212500Y-9524000D02*
X9197500Y-9539000D01*
X9197500Y-9923000D02*
X9212500Y-9938000D01*
X9212500Y-9923000D02*
X9197500Y-9938000D01*
X9222500Y-10023000D02*
X9237500Y-10038000D01*
X9237500Y-10023000D02*
X9222500Y-10038000D01*
X9225000Y-10385000D02*
X9240000Y-10400000D01*
X9240000Y-10385000D02*
X9225000Y-10400000D01*
X9242500Y-8585500D02*
X9257500Y-8600500D01*
X9257500Y-8585500D02*
X9242500Y-8600500D01*
X9247500Y-9923000D02*
X9262500Y-9938000D01*
X9262500Y-9923000D02*
X9247500Y-9938000D01*
X9256500Y-8510000D02*
X9271500Y-8525000D01*
X9271500Y-8510000D02*
X9256500Y-8525000D01*
X9271500Y-9315000D02*
X9286500Y-9330000D01*
X9286500Y-9315000D02*
X9271500Y-9330000D01*
X9275000Y-9034000D02*
X9290000Y-9049000D01*
X9290000Y-9034000D02*
X9275000Y-9049000D01*
X9297500Y-9524000D02*
X9312500Y-9539000D01*
X9312500Y-9524000D02*
X9297500Y-9539000D01*
X9297500Y-9923000D02*
X9312500Y-9938000D01*
X9312500Y-9923000D02*
X9297500Y-9938000D01*
X9315000Y-10713500D02*
X9330000Y-10728500D01*
X9330000Y-10713500D02*
X9315000Y-10728500D01*
X9315000Y-10803500D02*
X9330000Y-10818500D01*
X9330000Y-10803500D02*
X9315000Y-10818500D01*
X9315000Y-10893500D02*
X9330000Y-10908500D01*
X9330000Y-10893500D02*
X9315000Y-10908500D01*
X9347500Y-9524000D02*
X9362500Y-9539000D01*
X9362500Y-9524000D02*
X9347500Y-9539000D01*
X9359000Y-10623500D02*
X9374000Y-10638500D01*
X9374000Y-10623500D02*
X9359000Y-10638500D01*
X9360770Y-9047980D02*
X9375770Y-9062980D01*
X9375770Y-9047980D02*
X9360770Y-9062980D01*
X9361500Y-9359000D02*
X9376500Y-9374000D01*
X9376500Y-9359000D02*
X9361500Y-9374000D01*
X9372500Y-10023000D02*
X9387500Y-10038000D01*
X9387500Y-10023000D02*
X9372500Y-10038000D01*
X9372500Y-10438000D02*
X9387500Y-10453000D01*
X9387500Y-10438000D02*
X9372500Y-10453000D01*
X9395000Y-10130000D02*
X9410000Y-10145000D01*
X9410000Y-10130000D02*
X9395000Y-10145000D01*
X9397500Y-9524000D02*
X9412500Y-9539000D01*
X9412500Y-9524000D02*
X9397500Y-9539000D01*
X9414500Y-10817500D02*
X9429500Y-10832500D01*
X9429500Y-10817500D02*
X9414500Y-10832500D01*
X9414500Y-10947500D02*
X9429500Y-10962500D01*
X9429500Y-10947500D02*
X9414500Y-10962500D01*
X9440190Y-9074420D02*
X9455190Y-9089420D01*
X9455190Y-9074420D02*
X9440190Y-9089420D01*
X9445000Y-9905000D02*
X9460000Y-9920000D01*
X9460000Y-9905000D02*
X9445000Y-9920000D01*
X9472000Y-9598500D02*
X9487000Y-9613500D01*
X9487000Y-9598500D02*
X9472000Y-9613500D01*
X9472000Y-9648500D02*
X9487000Y-9663500D01*
X9487000Y-9648500D02*
X9472000Y-9663500D01*
X9472000Y-9698500D02*
X9487000Y-9713500D01*
X9487000Y-9698500D02*
X9472000Y-9713500D01*
X9472000Y-9748500D02*
X9487000Y-9763500D01*
X9487000Y-9748500D02*
X9472000Y-9763500D01*
X9472000Y-10483500D02*
X9487000Y-10498500D01*
X9487000Y-10483500D02*
X9472000Y-10498500D01*
X9480000Y-10180500D02*
X9495000Y-10195500D01*
X9495000Y-10180500D02*
X9480000Y-10195500D01*
X9501500Y-9472000D02*
X9516500Y-9487000D01*
X9516500Y-9472000D02*
X9501500Y-9487000D01*
X9509251Y-9072500D02*
X9524251Y-9087500D01*
X9524251Y-9072500D02*
X9509251Y-9087500D01*
X9524000Y-10587500D02*
X9539000Y-10602500D01*
X9539000Y-10587500D02*
X9524000Y-10602500D01*
X9524000Y-10637500D02*
X9539000Y-10652500D01*
X9539000Y-10637500D02*
X9524000Y-10652500D01*
X9524000Y-10687500D02*
X9539000Y-10702500D01*
X9539000Y-10687500D02*
X9524000Y-10702500D01*
X9524000Y-10787500D02*
X9539000Y-10802500D01*
X9539000Y-10787500D02*
X9524000Y-10802500D01*
X9524000Y-10837500D02*
X9539000Y-10852500D01*
X9539000Y-10837500D02*
X9524000Y-10852500D01*
X9535000Y-10317500D02*
X9550000Y-10332500D01*
X9550000Y-10317500D02*
X9535000Y-10332500D01*
X9547000Y-9372500D02*
X9562000Y-9387500D01*
X9562000Y-9372500D02*
X9547000Y-9387500D01*
X9598500Y-10513000D02*
X9613500Y-10528000D01*
X9613500Y-10513000D02*
X9598500Y-10528000D01*
X9598500Y-10912000D02*
X9613500Y-10927000D01*
X9613500Y-10912000D02*
X9598500Y-10927000D01*
X9604500Y-9071247D02*
X9619500Y-9086247D01*
X9619500Y-9071247D02*
X9604500Y-9086247D01*
X9642880Y-9326890D02*
X9657880Y-9341890D01*
X9657880Y-9326890D02*
X9642880Y-9341890D01*
X9648500Y-10513000D02*
X9663500Y-10528000D01*
X9663500Y-10513000D02*
X9648500Y-10528000D01*
X9648500Y-10912000D02*
X9663500Y-10927000D01*
X9663500Y-10912000D02*
X9648500Y-10927000D01*
X9654500Y-9065000D02*
X9669500Y-9080000D01*
X9669500Y-9065000D02*
X9654500Y-9080000D01*
X9655000Y-10427500D02*
X9670000Y-10442500D01*
X9670000Y-10427500D02*
X9655000Y-10442500D01*
X9667500Y-9535000D02*
X9682500Y-9550000D01*
X9682500Y-9535000D02*
X9667500Y-9550000D01*
X9667500Y-10025000D02*
X9682500Y-10040000D01*
X9682500Y-10025000D02*
X9667500Y-10040000D01*
X9690480Y-8262320D02*
X9705480Y-8277320D01*
X9705480Y-8262320D02*
X9690480Y-8277320D01*
X9698500Y-10513000D02*
X9713500Y-10528000D01*
X9713500Y-10513000D02*
X9698500Y-10528000D01*
X9698500Y-10912000D02*
X9713500Y-10927000D01*
X9713500Y-10912000D02*
X9698500Y-10927000D01*
X9700000Y-11645000D02*
X9715000Y-11660000D01*
X9715000Y-11645000D02*
X9700000Y-11660000D01*
X9742500Y-8510000D02*
X9757500Y-8525000D01*
X9757500Y-8510000D02*
X9742500Y-8525000D01*
X9742500Y-8585500D02*
X9757500Y-8600500D01*
X9757500Y-8585500D02*
X9742500Y-8600500D01*
X9742500Y-11399500D02*
X9757500Y-11414500D01*
X9757500Y-11399500D02*
X9742500Y-11414500D01*
X9742500Y-11475000D02*
X9757500Y-11490000D01*
X9757500Y-11475000D02*
X9742500Y-11490000D01*
X9748500Y-10513000D02*
X9763500Y-10528000D01*
X9763500Y-10513000D02*
X9748500Y-10528000D01*
X9748500Y-10912000D02*
X9763500Y-10927000D01*
X9763500Y-10912000D02*
X9748500Y-10927000D01*
X9754500Y-9065000D02*
X9769500Y-9080000D01*
X9769500Y-9065000D02*
X9754500Y-9080000D01*
X9770000Y-9237500D02*
X9785000Y-9252500D01*
X9785000Y-9237500D02*
X9770000Y-9252500D01*
X9783160Y-8320330D02*
X9798160Y-8335330D01*
X9798160Y-8320330D02*
X9783160Y-8335330D01*
X9798500Y-10912000D02*
X9813500Y-10927000D01*
X9813500Y-10912000D02*
X9798500Y-10927000D01*
X9799150Y-11395900D02*
X9814150Y-11410900D01*
X9814150Y-11395900D02*
X9799150Y-11410900D01*
X9800500Y-9147500D02*
X9815500Y-9162500D01*
X9815500Y-9147500D02*
X9800500Y-9162500D01*
X9801790Y-11694000D02*
X9816790Y-11709000D01*
X9816790Y-11694000D02*
X9801790Y-11709000D01*
X9804500Y-9065000D02*
X9819500Y-9080000D01*
X9819500Y-9065000D02*
X9804500Y-9080000D01*
X9804500Y-9480000D02*
X9819500Y-9495000D01*
X9819500Y-9480000D02*
X9804500Y-9495000D01*
X9812500Y-10260000D02*
X9827500Y-10275000D01*
X9827500Y-10260000D02*
X9812500Y-10275000D01*
X9847330Y-9191770D02*
X9862330Y-9206770D01*
X9862330Y-9191770D02*
X9847330Y-9206770D01*
X9848500Y-10912000D02*
X9863500Y-10927000D01*
X9863500Y-10912000D02*
X9848500Y-10927000D01*
X9854500Y-9065000D02*
X9869500Y-9080000D01*
X9869500Y-9065000D02*
X9854500Y-9080000D01*
X9887500Y-9685000D02*
X9902500Y-9700000D01*
X9902500Y-9685000D02*
X9887500Y-9700000D01*
X9891320Y-10540770D02*
X9906320Y-10555770D01*
X9906320Y-10540770D02*
X9891320Y-10555770D01*
X9904500Y-9071251D02*
X9919500Y-9086251D01*
X9919500Y-9071251D02*
X9904500Y-9086251D01*
X9923000Y-10687500D02*
X9938000Y-10702500D01*
X9938000Y-10687500D02*
X9923000Y-10702500D01*
X9923000Y-10737500D02*
X9938000Y-10752500D01*
X9938000Y-10737500D02*
X9923000Y-10752500D01*
X9923000Y-10787500D02*
X9938000Y-10802500D01*
X9938000Y-10787500D02*
X9923000Y-10802500D01*
X9923000Y-10837500D02*
X9938000Y-10852500D01*
X9938000Y-10837500D02*
X9923000Y-10852500D01*
X9935000Y-9595000D02*
X9950000Y-9610000D01*
X9950000Y-9595000D02*
X9935000Y-9610000D01*
X9937500Y-10470000D02*
X9952500Y-10485000D01*
X9952500Y-10470000D02*
X9937500Y-10485000D01*
X9952500Y-9495000D02*
X9967500Y-9510000D01*
X9967500Y-9495000D02*
X9952500Y-9510000D01*
X9952500Y-10427500D02*
X9967500Y-10442500D01*
X9967500Y-10427500D02*
X9952500Y-10442500D01*
X9962000Y-9172500D02*
X9977000Y-9187500D01*
X9977000Y-9172500D02*
X9962000Y-9187500D01*
X9962000Y-9222500D02*
X9977000Y-9237500D01*
X9977000Y-9222500D02*
X9962000Y-9237500D01*
X9962000Y-9372500D02*
X9977000Y-9387500D01*
X9977000Y-9372500D02*
X9962000Y-9387500D01*
X9967500Y-9932500D02*
X9982500Y-9947500D01*
X9982500Y-9932500D02*
X9967500Y-9947500D01*
X9975840Y-10051720D02*
X9990840Y-10066720D01*
X9990840Y-10051720D02*
X9975840Y-10066720D01*
X9995000Y-9817500D02*
X10010000Y-9832500D01*
X10010000Y-9817500D02*
X9995000Y-9832500D01*
X10004810Y-10014690D02*
X10019810Y-10029690D01*
X10019810Y-10014690D02*
X10004810Y-10029690D01*
X10023000Y-10612500D02*
X10038000Y-10627500D01*
X10038000Y-10612500D02*
X10023000Y-10627500D01*
X10023000Y-10762500D02*
X10038000Y-10777500D01*
X10038000Y-10762500D02*
X10023000Y-10777500D01*
X10023000Y-10812500D02*
X10038000Y-10827500D01*
X10038000Y-10812500D02*
X10023000Y-10827500D01*
X10037500Y-10090000D02*
X10052500Y-10105000D01*
X10052500Y-10090000D02*
X10037500Y-10105000D01*
X10062000Y-9147500D02*
X10077000Y-9162500D01*
X10077000Y-9147500D02*
X10062000Y-9162500D01*
X10062000Y-9197500D02*
X10077000Y-9212500D01*
X10077000Y-9197500D02*
X10062000Y-9212500D01*
X10062000Y-9247500D02*
X10077000Y-9262500D01*
X10077000Y-9247500D02*
X10062000Y-9262500D01*
X10062000Y-9297500D02*
X10077000Y-9312500D01*
X10077000Y-9297500D02*
X10062000Y-9312500D01*
X10080500Y-10913749D02*
X10095500Y-10928749D01*
X10095500Y-10913749D02*
X10080500Y-10928749D01*
X10097500Y-9512500D02*
X10112500Y-9527500D01*
X10112500Y-9512500D02*
X10097500Y-9527500D01*
X10115000Y-10437500D02*
X10130000Y-10452500D01*
X10130000Y-10437500D02*
X10115000Y-10452500D01*
X10130500Y-10920000D02*
X10145500Y-10935000D01*
X10145500Y-10920000D02*
X10130500Y-10935000D01*
X10136500Y-9073000D02*
X10151500Y-9088000D01*
X10151500Y-9073000D02*
X10136500Y-9088000D01*
X10137700Y-10793200D02*
X10152700Y-10808200D01*
X10152700Y-10793200D02*
X10137700Y-10808200D01*
X10177500Y-9540000D02*
X10192500Y-9555000D01*
X10192500Y-9540000D02*
X10177500Y-9555000D01*
X10180500Y-10505000D02*
X10195500Y-10520000D01*
X10195500Y-10505000D02*
X10180500Y-10520000D01*
X10180500Y-10920000D02*
X10195500Y-10935000D01*
X10195500Y-10920000D02*
X10180500Y-10935000D01*
X10183200Y-8290970D02*
X10198200Y-8305970D01*
X10198200Y-8290970D02*
X10183200Y-8305970D01*
X10184500Y-10837500D02*
X10199500Y-10852500D01*
X10199500Y-10837500D02*
X10184500Y-10852500D01*
X10185900Y-8589100D02*
X10200900Y-8604100D01*
X10200900Y-8589100D02*
X10185900Y-8604100D01*
X10186500Y-9073000D02*
X10201500Y-9088000D01*
X10201500Y-9073000D02*
X10186500Y-9088000D01*
X10201800Y-11664700D02*
X10216800Y-11679700D01*
X10216800Y-11664700D02*
X10201800Y-11679700D01*
X10212500Y-10257500D02*
X10227500Y-10272500D01*
X10227500Y-10257500D02*
X10212500Y-10272500D01*
X10215000Y-10747500D02*
X10230000Y-10762500D01*
X10230000Y-10747500D02*
X10215000Y-10762500D01*
X10230500Y-10920000D02*
X10245500Y-10935000D01*
X10245500Y-10920000D02*
X10230500Y-10935000D01*
X10236500Y-9073000D02*
X10251500Y-9088000D01*
X10251500Y-9073000D02*
X10236500Y-9088000D01*
X10236500Y-9472000D02*
X10251500Y-9487000D01*
X10251500Y-9472000D02*
X10236500Y-9487000D01*
X10242500Y-8510000D02*
X10257500Y-8525000D01*
X10257500Y-8510000D02*
X10242500Y-8525000D01*
X10242500Y-8585500D02*
X10257500Y-8600500D01*
X10257500Y-8585500D02*
X10242500Y-8600500D01*
X10242500Y-11399500D02*
X10257500Y-11414500D01*
X10257500Y-11399500D02*
X10242500Y-11414500D01*
X10242500Y-11475000D02*
X10257500Y-11490000D01*
X10257500Y-11475000D02*
X10242500Y-11490000D01*
X10280000Y-9907500D02*
X10295000Y-9922500D01*
X10295000Y-9907500D02*
X10280000Y-9922500D01*
X10285000Y-8340000D02*
X10300000Y-8355000D01*
X10300000Y-8340000D02*
X10285000Y-8355000D01*
X10286500Y-9073000D02*
X10301500Y-9088000D01*
X10301500Y-9073000D02*
X10286500Y-9088000D01*
X10286500Y-9472000D02*
X10301500Y-9487000D01*
X10301500Y-9472000D02*
X10286500Y-9487000D01*
X10294500Y-11722700D02*
X10309500Y-11737700D01*
X10309500Y-11722700D02*
X10294500Y-11737700D01*
X10317500Y-10450000D02*
X10332500Y-10465000D01*
X10332500Y-10450000D02*
X10317500Y-10465000D01*
X10330500Y-10920000D02*
X10345500Y-10935000D01*
X10345500Y-10920000D02*
X10330500Y-10935000D01*
X10336500Y-9073000D02*
X10351500Y-9088000D01*
X10351500Y-9073000D02*
X10336500Y-9088000D01*
X10336500Y-9472000D02*
X10351500Y-9487000D01*
X10351500Y-9472000D02*
X10336500Y-9487000D01*
X10337500Y-10297500D02*
X10352500Y-10312500D01*
X10352500Y-10297500D02*
X10337500Y-10312500D01*
X10360000Y-9540000D02*
X10375000Y-9555000D01*
X10375000Y-9540000D02*
X10360000Y-9555000D01*
X10380500Y-10913753D02*
X10395500Y-10928753D01*
X10395500Y-10913753D02*
X10380500Y-10928753D01*
X10386500Y-9073000D02*
X10401500Y-9088000D01*
X10401500Y-9073000D02*
X10386500Y-9088000D01*
X10386500Y-9472000D02*
X10401500Y-9487000D01*
X10401500Y-9472000D02*
X10386500Y-9487000D01*
X10402500Y-10382500D02*
X10417500Y-10397500D01*
X10417500Y-10382500D02*
X10402500Y-10397500D01*
X10438000Y-10612500D02*
X10453000Y-10627500D01*
X10453000Y-10612500D02*
X10438000Y-10627500D01*
X10450000Y-9667500D02*
X10465000Y-9682500D01*
X10465000Y-9667500D02*
X10450000Y-9682500D01*
X10461000Y-9147500D02*
X10476000Y-9162500D01*
X10476000Y-9147500D02*
X10461000Y-9162500D01*
X10461000Y-9197500D02*
X10476000Y-9212500D01*
X10476000Y-9197500D02*
X10461000Y-9212500D01*
X10461000Y-9297500D02*
X10476000Y-9312500D01*
X10476000Y-9297500D02*
X10461000Y-9312500D01*
X10461000Y-9347500D02*
X10476000Y-9362500D01*
X10476000Y-9347500D02*
X10461000Y-9362500D01*
X10461000Y-9397500D02*
X10476000Y-9412500D01*
X10476000Y-9397500D02*
X10461000Y-9412500D01*
X10475749Y-10912500D02*
X10490749Y-10927500D01*
X10490749Y-10912500D02*
X10475749Y-10927500D01*
X10483500Y-10513000D02*
X10498500Y-10528000D01*
X10498500Y-10513000D02*
X10483500Y-10528000D01*
X10505000Y-9804500D02*
X10520000Y-9819500D01*
X10520000Y-9804500D02*
X10505000Y-9819500D01*
X10513000Y-9501500D02*
X10528000Y-9516500D01*
X10528000Y-9501500D02*
X10513000Y-9516500D01*
X10513000Y-10236500D02*
X10528000Y-10251500D01*
X10528000Y-10236500D02*
X10513000Y-10251500D01*
X10513000Y-10286500D02*
X10528000Y-10301500D01*
X10528000Y-10286500D02*
X10513000Y-10301500D01*
X10513000Y-10336500D02*
X10528000Y-10351500D01*
X10528000Y-10336500D02*
X10513000Y-10351500D01*
X10513000Y-10386500D02*
X10528000Y-10401500D01*
X10528000Y-10386500D02*
X10513000Y-10401500D01*
X10544800Y-10910600D02*
X10559800Y-10925600D01*
X10559800Y-10910600D02*
X10544800Y-10925600D01*
X10570500Y-9037500D02*
X10585500Y-9052500D01*
X10585500Y-9037500D02*
X10570500Y-9052500D01*
X10570500Y-9167500D02*
X10585500Y-9182500D01*
X10585500Y-9167500D02*
X10570500Y-9182500D01*
X10587500Y-10461000D02*
X10602500Y-10476000D01*
X10602500Y-10461000D02*
X10587500Y-10476000D01*
X10612500Y-9547000D02*
X10627500Y-9562000D01*
X10627500Y-9547000D02*
X10612500Y-9562000D01*
X10612500Y-9962000D02*
X10627500Y-9977000D01*
X10627500Y-9962000D02*
X10612500Y-9977000D01*
X10623500Y-10626000D02*
X10638500Y-10641000D01*
X10638500Y-10626000D02*
X10623500Y-10641000D01*
X10624200Y-10937000D02*
X10639200Y-10952000D01*
X10639200Y-10937000D02*
X10624200Y-10952000D01*
X10626000Y-9361500D02*
X10641000Y-9376500D01*
X10641000Y-9361500D02*
X10626000Y-9376500D01*
X10637500Y-10461000D02*
X10652500Y-10476000D01*
X10652500Y-10461000D02*
X10637500Y-10476000D01*
X10637790Y-9784460D02*
X10652790Y-9799460D01*
X10652790Y-9784460D02*
X10637790Y-9799460D01*
X10670000Y-9091500D02*
X10685000Y-9106500D01*
X10685000Y-9091500D02*
X10670000Y-9106500D01*
X10670000Y-9181500D02*
X10685000Y-9196500D01*
X10685000Y-9181500D02*
X10670000Y-9196500D01*
X10670000Y-9271500D02*
X10685000Y-9286500D01*
X10685000Y-9271500D02*
X10670000Y-9286500D01*
X10687500Y-10062000D02*
X10702500Y-10077000D01*
X10702500Y-10062000D02*
X10687500Y-10077000D01*
X10687500Y-10461000D02*
X10702500Y-10476000D01*
X10702500Y-10461000D02*
X10687500Y-10476000D01*
X10710000Y-10951000D02*
X10725000Y-10966000D01*
X10725000Y-10951000D02*
X10710000Y-10966000D01*
X10713500Y-10670000D02*
X10728500Y-10685000D01*
X10728500Y-10670000D02*
X10713500Y-10685000D01*
X10728500Y-11475000D02*
X10743500Y-11490000D01*
X10743500Y-11475000D02*
X10728500Y-11490000D01*
X10737500Y-10062000D02*
X10752500Y-10077000D01*
X10752500Y-10062000D02*
X10737500Y-10077000D01*
X10742500Y-11399500D02*
X10757500Y-11414500D01*
X10757500Y-11399500D02*
X10742500Y-11414500D01*
X10747500Y-9770000D02*
X10762500Y-9785000D01*
X10762500Y-9770000D02*
X10747500Y-9785000D01*
X10762500Y-9962000D02*
X10777500Y-9977000D01*
X10777500Y-9962000D02*
X10762500Y-9977000D01*
X10787500Y-10062000D02*
X10802500Y-10077000D01*
X10802500Y-10062000D02*
X10787500Y-10077000D01*
X10787500Y-10461000D02*
X10802500Y-10476000D01*
X10802500Y-10461000D02*
X10787500Y-10476000D01*
X10793200Y-9847330D02*
X10808200Y-9862330D01*
X10808200Y-9847330D02*
X10793200Y-9862330D01*
X10803500Y-10670000D02*
X10818500Y-10685000D01*
X10818500Y-10670000D02*
X10803500Y-10685000D01*
X10812500Y-9962000D02*
X10827500Y-9977000D01*
X10827500Y-9962000D02*
X10812500Y-9977000D01*
X10817500Y-10570500D02*
X10832500Y-10585500D01*
X10832500Y-10570500D02*
X10817500Y-10585500D01*
X10817800Y-11366800D02*
X10832800Y-11381800D01*
X10832800Y-11366800D02*
X10817800Y-11381800D01*
X10837500Y-9800500D02*
X10852500Y-9815500D01*
X10852500Y-9800500D02*
X10837500Y-9815500D01*
X10837500Y-10062000D02*
X10852500Y-10077000D01*
X10852500Y-10062000D02*
X10837500Y-10077000D01*
X10837500Y-10461000D02*
X10852500Y-10476000D01*
X10852500Y-10461000D02*
X10837500Y-10476000D01*
X10875000Y-10951000D02*
X10890000Y-10966000D01*
X10890000Y-10951000D02*
X10875000Y-10966000D01*
X10893500Y-10670000D02*
X10908500Y-10685000D01*
X10908500Y-10670000D02*
X10893500Y-10685000D01*
X10910600Y-9440190D02*
X10925600Y-9455190D01*
X10925600Y-9440190D02*
X10910600Y-9455190D01*
X10912000Y-10136500D02*
X10927000Y-10151500D01*
X10927000Y-10136500D02*
X10912000Y-10151500D01*
X10912000Y-10186500D02*
X10927000Y-10201500D01*
X10927000Y-10186500D02*
X10912000Y-10201500D01*
X10912000Y-10236500D02*
X10927000Y-10251500D01*
X10927000Y-10236500D02*
X10912000Y-10251500D01*
X10912000Y-10286500D02*
X10927000Y-10301500D01*
X10927000Y-10286500D02*
X10912000Y-10301500D01*
X10912000Y-10336500D02*
X10927000Y-10351500D01*
X10927000Y-10336500D02*
X10912000Y-10351500D01*
X10912000Y-10386500D02*
X10927000Y-10401500D01*
X10927000Y-10386500D02*
X10912000Y-10401500D01*
X10912500Y-9509251D02*
X10927500Y-9524251D01*
X10927500Y-9509251D02*
X10912500Y-9524251D01*
X10913749Y-9904500D02*
X10928749Y-9919500D01*
X10928749Y-9904500D02*
X10913749Y-9919500D01*
X10913753Y-9604500D02*
X10928753Y-9619500D01*
X10928753Y-9604500D02*
X10913753Y-9619500D01*
X10920000Y-9654500D02*
X10935000Y-9669500D01*
X10935000Y-9654500D02*
X10920000Y-9669500D01*
X10920000Y-9754500D02*
X10935000Y-9769500D01*
X10935000Y-9754500D02*
X10920000Y-9769500D01*
X10920000Y-9804500D02*
X10935000Y-9819500D01*
X10935000Y-9804500D02*
X10920000Y-9819500D01*
X10920000Y-9854500D02*
X10935000Y-9869500D01*
X10935000Y-9854500D02*
X10920000Y-9869500D01*
X10937000Y-9360770D02*
X10952000Y-9375770D01*
X10952000Y-9360770D02*
X10937000Y-9375770D01*
X10947500Y-10570500D02*
X10962500Y-10585500D01*
X10962500Y-10570500D02*
X10947500Y-10585500D01*
X10951000Y-9110000D02*
X10966000Y-9125000D01*
X10966000Y-9110000D02*
X10951000Y-9125000D01*
X10951000Y-9275000D02*
X10966000Y-9290000D01*
X10966000Y-9275000D02*
X10951000Y-9290000D01*
X11366800Y-9167180D02*
X11381800Y-9182180D01*
X11381800Y-9167180D02*
X11366800Y-9182180D01*
X11395900Y-10185900D02*
X11410900Y-10200900D01*
X11410900Y-10185900D02*
X11395900Y-10200900D01*
X11399500Y-9242500D02*
X11414500Y-9257500D01*
X11414500Y-9242500D02*
X11399500Y-9257500D01*
X11399500Y-9742500D02*
X11414500Y-9757500D01*
X11414500Y-9742500D02*
X11399500Y-9757500D01*
X11399500Y-10242500D02*
X11414500Y-10257500D01*
X11414500Y-10242500D02*
X11399500Y-10257500D01*
X11475000Y-9256500D02*
X11490000Y-9271500D01*
X11490000Y-9256500D02*
X11475000Y-9271500D01*
X11475000Y-9742500D02*
X11490000Y-9757500D01*
X11490000Y-9742500D02*
X11475000Y-9757500D01*
X11475000Y-10242500D02*
X11490000Y-10257500D01*
X11490000Y-10242500D02*
X11475000Y-10257500D01*
X11514500Y-11000470D02*
X11529500Y-11015470D01*
X11529500Y-11000470D02*
X11514500Y-11015470D01*
X11645000Y-10285000D02*
X11660000Y-10300000D01*
X11660000Y-10285000D02*
X11645000Y-10300000D01*
X11652500Y-10920000D02*
X11667500Y-10935000D01*
X11667500Y-10920000D02*
X11652500Y-10935000D01*
X11664700Y-9783160D02*
X11679700Y-9798160D01*
X11679700Y-9783160D02*
X11664700Y-9798160D01*
X11694000Y-10183200D02*
X11709000Y-10198200D01*
X11709000Y-10183200D02*
X11694000Y-10198200D01*
X11722700Y-9690480D02*
X11737700Y-9705480D01*
X11737700Y-9690480D02*
X11722700Y-9705480D01*
X8934000Y-9248000D02*
G75*
G02*
X8909000Y-9248000I-12500J0D01*
G01*
X8909000Y-9248000D02*
G75*
G02*
X8934000Y-9248000I12500J0D01*
G01*
X9061650Y-9482850D02*
G75*
G02*
X9036650Y-9482850I-12500J0D01*
G01*
X9036650Y-9482850D02*
G75*
G02*
X9061650Y-9482850I12500J0D01*
G01*
X9176000Y-10288000D02*
G75*
G02*
X9151000Y-10288000I-12500J0D01*
G01*
X9151000Y-10288000D02*
G75*
G02*
X9176000Y-10288000I12500J0D01*
G01*
X9187500Y-9180000D02*
G75*
G02*
X9162500Y-9180000I-12500J0D01*
G01*
X9162500Y-9180000D02*
G75*
G02*
X9187500Y-9180000I12500J0D01*
G01*
X9192500Y-10825000D02*
G75*
G02*
X9167500Y-10825000I-12500J0D01*
G01*
X9167500Y-10825000D02*
G75*
G02*
X9192500Y-10825000I12500J0D01*
G01*
X9217500Y-9656000D02*
G75*
G02*
X9192500Y-9656000I-12500J0D01*
G01*
X9192500Y-9656000D02*
G75*
G02*
X9217500Y-9656000I12500J0D01*
G01*
X9217500Y-9806000D02*
G75*
G02*
X9192500Y-9806000I-12500J0D01*
G01*
X9192500Y-9806000D02*
G75*
G02*
X9217500Y-9806000I12500J0D01*
G01*
X9260500Y-11078500D02*
G75*
G02*
X9235500Y-11078500I-12500J0D01*
G01*
X9235500Y-11078500D02*
G75*
G02*
X9260500Y-11078500I12500J0D01*
G01*
X9367500Y-9656000D02*
G75*
G02*
X9342500Y-9656000I-12500J0D01*
G01*
X9342500Y-9656000D02*
G75*
G02*
X9367500Y-9656000I12500J0D01*
G01*
X9367500Y-9806000D02*
G75*
G02*
X9342500Y-9806000I-12500J0D01*
G01*
X9342500Y-9806000D02*
G75*
G02*
X9367500Y-9806000I12500J0D01*
G01*
X9395780Y-9470750D02*
G75*
G02*
X9370780Y-9470750I-12500J0D01*
G01*
X9370780Y-9470750D02*
G75*
G02*
X9395780Y-9470750I12500J0D01*
G01*
X9483250Y-10616700D02*
G75*
G02*
X9458250Y-10616700I-12500J0D01*
G01*
X9458250Y-10616700D02*
G75*
G02*
X9483250Y-10616700I12500J0D01*
G01*
X9495350Y-10950900D02*
G75*
G02*
X9470350Y-10950900I-12500J0D01*
G01*
X9470350Y-10950900D02*
G75*
G02*
X9495350Y-10950900I12500J0D01*
G01*
X9523500Y-9905160D02*
G75*
G02*
X9498500Y-9905160I-12500J0D01*
G01*
X9498500Y-9905160D02*
G75*
G02*
X9523500Y-9905160I12500J0D01*
G01*
X9552630Y-10256000D02*
G75*
G02*
X9527630Y-10256000I-12500J0D01*
G01*
X9527630Y-10256000D02*
G75*
G02*
X9552630Y-10256000I12500J0D01*
G01*
X9646750Y-9984530D02*
G75*
G02*
X9621750Y-9984530I-12500J0D01*
G01*
X9621750Y-9984530D02*
G75*
G02*
X9646750Y-9984530I12500J0D01*
G01*
X9662500Y-10306000D02*
G75*
G02*
X9637500Y-10306000I-12500J0D01*
G01*
X9637500Y-10306000D02*
G75*
G02*
X9662500Y-10306000I12500J0D01*
G01*
X9668500Y-10645000D02*
G75*
G02*
X9643500Y-10645000I-12500J0D01*
G01*
X9643500Y-10645000D02*
G75*
G02*
X9668500Y-10645000I12500J0D01*
G01*
X9668500Y-10795000D02*
G75*
G02*
X9643500Y-10795000I-12500J0D01*
G01*
X9643500Y-10795000D02*
G75*
G02*
X9668500Y-10795000I12500J0D01*
G01*
X9690500Y-9755000D02*
G75*
G02*
X9665500Y-9755000I-12500J0D01*
G01*
X9665500Y-9755000D02*
G75*
G02*
X9690500Y-9755000I12500J0D01*
G01*
X9690500Y-9875000D02*
G75*
G02*
X9665500Y-9875000I-12500J0D01*
G01*
X9665500Y-9875000D02*
G75*
G02*
X9690500Y-9875000I12500J0D01*
G01*
X9690500Y-10185000D02*
G75*
G02*
X9665500Y-10185000I-12500J0D01*
G01*
X9665500Y-10185000D02*
G75*
G02*
X9690500Y-10185000I12500J0D01*
G01*
X9724500Y-9163500D02*
G75*
G02*
X9699500Y-9163500I-12500J0D01*
G01*
X9699500Y-9163500D02*
G75*
G02*
X9724500Y-9163500I12500J0D01*
G01*
X9729000Y-10274000D02*
G75*
G02*
X9704000Y-10274000I-12500J0D01*
G01*
X9704000Y-10274000D02*
G75*
G02*
X9729000Y-10274000I12500J0D01*
G01*
X9756510Y-9540130D02*
G75*
G02*
X9731510Y-9540130I-12500J0D01*
G01*
X9731510Y-9540130D02*
G75*
G02*
X9756510Y-9540130I12500J0D01*
G01*
X9767000Y-9762500D02*
G75*
G02*
X9742000Y-9762500I-12500J0D01*
G01*
X9742000Y-9762500D02*
G75*
G02*
X9767000Y-9762500I12500J0D01*
G01*
X9767500Y-10322000D02*
G75*
G02*
X9742500Y-10322000I-12500J0D01*
G01*
X9742500Y-10322000D02*
G75*
G02*
X9767500Y-10322000I12500J0D01*
G01*
X9787000Y-9647500D02*
G75*
G02*
X9762000Y-9647500I-12500J0D01*
G01*
X9762000Y-9647500D02*
G75*
G02*
X9787000Y-9647500I12500J0D01*
G01*
X9818500Y-10645000D02*
G75*
G02*
X9793500Y-10645000I-12500J0D01*
G01*
X9793500Y-10645000D02*
G75*
G02*
X9818500Y-10645000I12500J0D01*
G01*
X9818500Y-10795000D02*
G75*
G02*
X9793500Y-10795000I-12500J0D01*
G01*
X9793500Y-10795000D02*
G75*
G02*
X9818500Y-10795000I12500J0D01*
G01*
X9827500Y-9678000D02*
G75*
G02*
X9802500Y-9678000I-12500J0D01*
G01*
X9802500Y-9678000D02*
G75*
G02*
X9827500Y-9678000I12500J0D01*
G01*
X9829000Y-10461500D02*
G75*
G02*
X9804000Y-10461500I-12500J0D01*
G01*
X9804000Y-10461500D02*
G75*
G02*
X9829000Y-10461500I12500J0D01*
G01*
X9887710Y-9783050D02*
G75*
G02*
X9862710Y-9783050I-12500J0D01*
G01*
X9862710Y-9783050D02*
G75*
G02*
X9887710Y-9783050I12500J0D01*
G01*
X9968310Y-9776990D02*
G75*
G02*
X9943310Y-9776990I-12500J0D01*
G01*
X9943310Y-9776990D02*
G75*
G02*
X9968310Y-9776990I12500J0D01*
G01*
X10039000Y-10481000D02*
G75*
G02*
X10014000Y-10481000I-12500J0D01*
G01*
X10014000Y-10481000D02*
G75*
G02*
X10039000Y-10481000I12500J0D01*
G01*
X10041000Y-9565500D02*
G75*
G02*
X10016000Y-9565500I-12500J0D01*
G01*
X10016000Y-9565500D02*
G75*
G02*
X10041000Y-9565500I12500J0D01*
G01*
X10042200Y-10183700D02*
G75*
G02*
X10017200Y-10183700I-12500J0D01*
G01*
X10017200Y-10183700D02*
G75*
G02*
X10042200Y-10183700I12500J0D01*
G01*
X10137500Y-9678000D02*
G75*
G02*
X10112500Y-9678000I-12500J0D01*
G01*
X10112500Y-9678000D02*
G75*
G02*
X10137500Y-9678000I12500J0D01*
G01*
X10206500Y-9205000D02*
G75*
G02*
X10181500Y-9205000I-12500J0D01*
G01*
X10181500Y-9205000D02*
G75*
G02*
X10206500Y-9205000I12500J0D01*
G01*
X10206500Y-9355000D02*
G75*
G02*
X10181500Y-9355000I-12500J0D01*
G01*
X10181500Y-9355000D02*
G75*
G02*
X10206500Y-9355000I12500J0D01*
G01*
X10227000Y-9745000D02*
G75*
G02*
X10202000Y-9745000I-12500J0D01*
G01*
X10202000Y-9745000D02*
G75*
G02*
X10227000Y-9745000I12500J0D01*
G01*
X10257500Y-9678000D02*
G75*
G02*
X10232500Y-9678000I-12500J0D01*
G01*
X10232500Y-9678000D02*
G75*
G02*
X10257500Y-9678000I12500J0D01*
G01*
X10268500Y-10594100D02*
G75*
G02*
X10243500Y-10594100I-12500J0D01*
G01*
X10243500Y-10594100D02*
G75*
G02*
X10268500Y-10594100I12500J0D01*
G01*
X10288200Y-9768680D02*
G75*
G02*
X10263200Y-9768680I-12500J0D01*
G01*
X10263200Y-9768680D02*
G75*
G02*
X10288200Y-9768680I12500J0D01*
G01*
X10295400Y-10419900D02*
G75*
G02*
X10270400Y-10419900I-12500J0D01*
G01*
X10270400Y-10419900D02*
G75*
G02*
X10295400Y-10419900I12500J0D01*
G01*
X10300500Y-10836500D02*
G75*
G02*
X10275500Y-10836500I-12500J0D01*
G01*
X10275500Y-10836500D02*
G75*
G02*
X10300500Y-10836500I12500J0D01*
G01*
X10301700Y-10188300D02*
G75*
G02*
X10276700Y-10188300I-12500J0D01*
G01*
X10276700Y-10188300D02*
G75*
G02*
X10301700Y-10188300I12500J0D01*
G01*
X10334500Y-10125000D02*
G75*
G02*
X10309500Y-10125000I-12500J0D01*
G01*
X10309500Y-10125000D02*
G75*
G02*
X10334500Y-10125000I12500J0D01*
G01*
X10356500Y-9205000D02*
G75*
G02*
X10331500Y-9205000I-12500J0D01*
G01*
X10331500Y-9205000D02*
G75*
G02*
X10356500Y-9205000I12500J0D01*
G01*
X10356500Y-9355000D02*
G75*
G02*
X10331500Y-9355000I-12500J0D01*
G01*
X10331500Y-9355000D02*
G75*
G02*
X10356500Y-9355000I12500J0D01*
G01*
X10372000Y-9702500D02*
G75*
G02*
X10347000Y-9702500I-12500J0D01*
G01*
X10347000Y-9702500D02*
G75*
G02*
X10372000Y-9702500I12500J0D01*
G01*
X10372000Y-10657500D02*
G75*
G02*
X10347000Y-10657500I-12500J0D01*
G01*
X10347000Y-10657500D02*
G75*
G02*
X10372000Y-10657500I12500J0D01*
G01*
X10472400Y-9744010D02*
G75*
G02*
X10447400Y-9744010I-12500J0D01*
G01*
X10447400Y-9744010D02*
G75*
G02*
X10472400Y-9744010I12500J0D01*
G01*
X10529600Y-9049150D02*
G75*
G02*
X10504600Y-9049150I-12500J0D01*
G01*
X10504600Y-9049150D02*
G75*
G02*
X10529600Y-9049150I12500J0D01*
G01*
X10541700Y-9383280D02*
G75*
G02*
X10516700Y-9383280I-12500J0D01*
G01*
X10516700Y-9383280D02*
G75*
G02*
X10541700Y-9383280I12500J0D01*
G01*
X10629200Y-10529200D02*
G75*
G02*
X10604200Y-10529200I-12500J0D01*
G01*
X10604200Y-10529200D02*
G75*
G02*
X10629200Y-10529200I12500J0D01*
G01*
X10657500Y-10194000D02*
G75*
G02*
X10632500Y-10194000I-12500J0D01*
G01*
X10632500Y-10194000D02*
G75*
G02*
X10657500Y-10194000I12500J0D01*
G01*
X10657500Y-10344000D02*
G75*
G02*
X10632500Y-10344000I-12500J0D01*
G01*
X10632500Y-10344000D02*
G75*
G02*
X10657500Y-10344000I12500J0D01*
G01*
X10665000Y-9649500D02*
G75*
G02*
X10640000Y-9649500I-12500J0D01*
G01*
X10640000Y-9649500D02*
G75*
G02*
X10665000Y-9649500I12500J0D01*
G01*
X10764500Y-8921500D02*
G75*
G02*
X10739500Y-8921500I-12500J0D01*
G01*
X10739500Y-8921500D02*
G75*
G02*
X10764500Y-8921500I12500J0D01*
G01*
X10803400Y-11650000D02*
G75*
G02*
X10778400Y-11650000I-12500J0D01*
G01*
X10778400Y-11650000D02*
G75*
G02*
X10803400Y-11650000I12500J0D01*
G01*
X10807500Y-10194000D02*
G75*
G02*
X10782500Y-10194000I-12500J0D01*
G01*
X10782500Y-10194000D02*
G75*
G02*
X10807500Y-10194000I12500J0D01*
G01*
X10807500Y-10344000D02*
G75*
G02*
X10782500Y-10344000I-12500J0D01*
G01*
X10782500Y-10344000D02*
G75*
G02*
X10807500Y-10344000I12500J0D01*
G01*
X10832500Y-9175000D02*
G75*
G02*
X10807500Y-9175000I-12500J0D01*
G01*
X10807500Y-9175000D02*
G75*
G02*
X10832500Y-9175000I12500J0D01*
G01*
X10837500Y-10820000D02*
G75*
G02*
X10812500Y-10820000I-12500J0D01*
G01*
X10812500Y-10820000D02*
G75*
G02*
X10837500Y-10820000I12500J0D01*
G01*
X10849000Y-9712000D02*
G75*
G02*
X10824000Y-9712000I-12500J0D01*
G01*
X10824000Y-9712000D02*
G75*
G02*
X10849000Y-9712000I12500J0D01*
G01*
X10963400Y-10517100D02*
G75*
G02*
X10938400Y-10517100I-12500J0D01*
G01*
X10938400Y-10517100D02*
G75*
G02*
X10963400Y-10517100I12500J0D01*
G01*
X11091000Y-10752000D02*
G75*
G02*
X11066000Y-10752000I-12500J0D01*
G01*
X11066000Y-10752000D02*
G75*
G02*
X11091000Y-10752000I12500J0D01*
G01*
X11627500Y-11002200D02*
G75*
G02*
X11602500Y-11002200I-12500J0D01*
G01*
X11602500Y-11002200D02*
G75*
G02*
X11627500Y-11002200I12500J0D01*
G01*
X8410000Y-9405000D02*
X8410000Y-9435000D01*
X8395000Y-9420000D02*
X8425000Y-9420000D01*
X8410000Y-9485000D02*
X8410000Y-9515000D01*
X8395000Y-9500000D02*
X8425000Y-9500000D01*
X8410000Y-9565000D02*
X8410000Y-9595000D01*
X8395000Y-9580000D02*
X8425000Y-9580000D01*
X8410000Y-9905000D02*
X8410000Y-9935000D01*
X8395000Y-9920000D02*
X8425000Y-9920000D01*
X8410000Y-9985000D02*
X8410000Y-10015000D01*
X8395000Y-10000000D02*
X8425000Y-10000000D01*
X8410000Y-10065000D02*
X8410000Y-10095000D01*
X8395000Y-10080000D02*
X8425000Y-10080000D01*
X8410000Y-10405000D02*
X8410000Y-10435000D01*
X8395000Y-10420000D02*
X8425000Y-10420000D01*
X8410000Y-10485000D02*
X8410000Y-10515000D01*
X8395000Y-10500000D02*
X8425000Y-10500000D01*
X8410000Y-10565000D02*
X8410000Y-10595000D01*
X8395000Y-10580000D02*
X8425000Y-10580000D01*
X8490000Y-9405000D02*
X8490000Y-9435000D01*
X8475000Y-9420000D02*
X8505000Y-9420000D01*
X8490000Y-9485000D02*
X8490000Y-9515000D01*
X8475000Y-9500000D02*
X8505000Y-9500000D01*
X8490000Y-9565000D02*
X8490000Y-9595000D01*
X8475000Y-9580000D02*
X8505000Y-9580000D01*
X8490000Y-9905000D02*
X8490000Y-9935000D01*
X8475000Y-9920000D02*
X8505000Y-9920000D01*
X8490000Y-9985000D02*
X8490000Y-10015000D01*
X8475000Y-10000000D02*
X8505000Y-10000000D01*
X8490000Y-10065000D02*
X8490000Y-10095000D01*
X8475000Y-10080000D02*
X8505000Y-10080000D01*
X8490000Y-10405000D02*
X8490000Y-10435000D01*
X8475000Y-10420000D02*
X8505000Y-10420000D01*
X8490000Y-10485000D02*
X8490000Y-10515000D01*
X8475000Y-10500000D02*
X8505000Y-10500000D01*
X8490000Y-10565000D02*
X8490000Y-10595000D01*
X8475000Y-10580000D02*
X8505000Y-10580000D01*
X8570000Y-9405000D02*
X8570000Y-9435000D01*
X8555000Y-9420000D02*
X8585000Y-9420000D01*
X8570000Y-9485000D02*
X8570000Y-9515000D01*
X8555000Y-9500000D02*
X8585000Y-9500000D01*
X8570000Y-9905000D02*
X8570000Y-9935000D01*
X8555000Y-9920000D02*
X8585000Y-9920000D01*
X8570000Y-9985000D02*
X8570000Y-10015000D01*
X8555000Y-10000000D02*
X8585000Y-10000000D01*
X8570000Y-10405000D02*
X8570000Y-10435000D01*
X8555000Y-10420000D02*
X8585000Y-10420000D01*
X8570000Y-10485000D02*
X8570000Y-10515000D01*
X8555000Y-10500000D02*
X8585000Y-10500000D01*
X8800000Y-9495000D02*
X8800000Y-9525000D01*
X8785000Y-9510000D02*
X8815000Y-9510000D01*
X8800000Y-9580000D02*
X8800000Y-9610000D01*
X8785000Y-9595000D02*
X8815000Y-9595000D01*
X8800000Y-9995000D02*
X8800000Y-10025000D01*
X8785000Y-10010000D02*
X8815000Y-10010000D01*
X8800000Y-10080000D02*
X8800000Y-10110000D01*
X8785000Y-10095000D02*
X8815000Y-10095000D01*
X8800000Y-10495000D02*
X8800000Y-10525000D01*
X8785000Y-10510000D02*
X8815000Y-10510000D01*
X8800000Y-10580000D02*
X8800000Y-10610000D01*
X8785000Y-10595000D02*
X8815000Y-10595000D01*
X8815000Y-9235000D02*
X8815000Y-9265000D01*
X8800000Y-9250000D02*
X8830000Y-9250000D01*
X8815000Y-9735000D02*
X8815000Y-9765000D01*
X8800000Y-9750000D02*
X8830000Y-9750000D01*
X8815000Y-10235000D02*
X8815000Y-10265000D01*
X8800000Y-10250000D02*
X8830000Y-10250000D01*
X8815000Y-10735000D02*
X8815000Y-10765000D01*
X8800000Y-10750000D02*
X8830000Y-10750000D01*
X8890000Y-9580000D02*
X8890000Y-9610000D01*
X8875000Y-9595000D02*
X8905000Y-9595000D01*
X8890000Y-10080000D02*
X8890000Y-10110000D01*
X8875000Y-10095000D02*
X8905000Y-10095000D01*
X8890000Y-10580000D02*
X8890000Y-10610000D01*
X8875000Y-10595000D02*
X8905000Y-10595000D01*
X8895000Y-10815000D02*
X8895000Y-10845000D01*
X8880000Y-10830000D02*
X8910000Y-10830000D01*
X8895000Y-10895000D02*
X8895000Y-10925000D01*
X8880000Y-10910000D02*
X8910000Y-10910000D01*
X8970000Y-9580000D02*
X8970000Y-9610000D01*
X8955000Y-9595000D02*
X8985000Y-9595000D01*
X8970000Y-10080000D02*
X8970000Y-10110000D01*
X8955000Y-10095000D02*
X8985000Y-10095000D01*
X8970000Y-10580000D02*
X8970000Y-10610000D01*
X8955000Y-10595000D02*
X8985000Y-10595000D01*
X8975000Y-10815000D02*
X8975000Y-10845000D01*
X8960000Y-10830000D02*
X8990000Y-10830000D01*
X8975000Y-10895000D02*
X8975000Y-10925000D01*
X8960000Y-10910000D02*
X8990000Y-10910000D01*
X8975000Y-10975000D02*
X8975000Y-11005000D01*
X8960000Y-10990000D02*
X8990000Y-10990000D01*
X9010000Y-8960000D02*
X9010000Y-8990000D01*
X8995000Y-8975000D02*
X9025000Y-8975000D01*
X9090000Y-8880000D02*
X9090000Y-8910000D01*
X9075000Y-8895000D02*
X9105000Y-8895000D01*
X9090000Y-8960000D02*
X9090000Y-8990000D01*
X9075000Y-8975000D02*
X9105000Y-8975000D01*
X9160000Y-10590000D02*
X9160000Y-10620000D01*
X9145000Y-10605000D02*
X9175000Y-10605000D01*
X9160000Y-10670000D02*
X9160000Y-10700000D01*
X9145000Y-10685000D02*
X9175000Y-10685000D01*
X9170000Y-8880000D02*
X9170000Y-8910000D01*
X9155000Y-8895000D02*
X9185000Y-8895000D01*
X9170000Y-8960000D02*
X9170000Y-8990000D01*
X9155000Y-8975000D02*
X9185000Y-8975000D01*
X9240000Y-10590000D02*
X9240000Y-10620000D01*
X9225000Y-10605000D02*
X9255000Y-10605000D01*
X9250000Y-8800000D02*
X9250000Y-8830000D01*
X9235000Y-8815000D02*
X9265000Y-8815000D01*
X9250000Y-11170000D02*
X9250000Y-11200000D01*
X9235000Y-11185000D02*
X9265000Y-11185000D01*
X9315000Y-9145000D02*
X9315000Y-9175000D01*
X9300000Y-9160000D02*
X9330000Y-9160000D01*
X9395000Y-9145000D02*
X9395000Y-9175000D01*
X9380000Y-9160000D02*
X9410000Y-9160000D01*
X9395000Y-9225000D02*
X9395000Y-9255000D01*
X9380000Y-9240000D02*
X9410000Y-9240000D01*
X9405000Y-8785000D02*
X9405000Y-8815000D01*
X9390000Y-8800000D02*
X9420000Y-8800000D01*
X9405000Y-8875000D02*
X9405000Y-8905000D01*
X9390000Y-8890000D02*
X9420000Y-8890000D01*
X9405000Y-8955000D02*
X9405000Y-8985000D01*
X9390000Y-8970000D02*
X9420000Y-8970000D01*
X9420000Y-8395000D02*
X9420000Y-8425000D01*
X9405000Y-8410000D02*
X9435000Y-8410000D01*
X9420000Y-8475000D02*
X9420000Y-8505000D01*
X9405000Y-8490000D02*
X9435000Y-8490000D01*
X9420000Y-11415000D02*
X9420000Y-11445000D01*
X9405000Y-11430000D02*
X9435000Y-11430000D01*
X9420000Y-11495000D02*
X9420000Y-11525000D01*
X9405000Y-11510000D02*
X9435000Y-11510000D01*
X9420000Y-11575000D02*
X9420000Y-11605000D01*
X9405000Y-11590000D02*
X9435000Y-11590000D01*
X9490000Y-8785000D02*
X9490000Y-8815000D01*
X9475000Y-8800000D02*
X9505000Y-8800000D01*
X9500000Y-8395000D02*
X9500000Y-8425000D01*
X9485000Y-8410000D02*
X9515000Y-8410000D01*
X9500000Y-8475000D02*
X9500000Y-8505000D01*
X9485000Y-8490000D02*
X9515000Y-8490000D01*
X9500000Y-8555000D02*
X9500000Y-8585000D01*
X9485000Y-8570000D02*
X9515000Y-8570000D01*
X9500000Y-11415000D02*
X9500000Y-11445000D01*
X9485000Y-11430000D02*
X9515000Y-11430000D01*
X9500000Y-11495000D02*
X9500000Y-11525000D01*
X9485000Y-11510000D02*
X9515000Y-11510000D01*
X9500000Y-11575000D02*
X9500000Y-11605000D01*
X9485000Y-11590000D02*
X9515000Y-11590000D01*
X9510000Y-11185000D02*
X9510000Y-11215000D01*
X9495000Y-11200000D02*
X9525000Y-11200000D01*
X9580000Y-8395000D02*
X9580000Y-8425000D01*
X9565000Y-8410000D02*
X9595000Y-8410000D01*
X9580000Y-8475000D02*
X9580000Y-8505000D01*
X9565000Y-8490000D02*
X9595000Y-8490000D01*
X9580000Y-8555000D02*
X9580000Y-8585000D01*
X9565000Y-8570000D02*
X9595000Y-8570000D01*
X9580000Y-11495000D02*
X9580000Y-11525000D01*
X9565000Y-11510000D02*
X9595000Y-11510000D01*
X9580000Y-11575000D02*
X9580000Y-11605000D01*
X9565000Y-11590000D02*
X9595000Y-11590000D01*
X9595000Y-11015000D02*
X9595000Y-11045000D01*
X9580000Y-11030000D02*
X9610000Y-11030000D01*
X9595000Y-11095000D02*
X9595000Y-11125000D01*
X9580000Y-11110000D02*
X9610000Y-11110000D01*
X9595000Y-11185000D02*
X9595000Y-11215000D01*
X9580000Y-11200000D02*
X9610000Y-11200000D01*
X9750000Y-8800000D02*
X9750000Y-8830000D01*
X9735000Y-8815000D02*
X9765000Y-8815000D01*
X9750000Y-11170000D02*
X9750000Y-11200000D01*
X9735000Y-11185000D02*
X9765000Y-11185000D01*
X9905000Y-8785000D02*
X9905000Y-8815000D01*
X9890000Y-8800000D02*
X9920000Y-8800000D01*
X9905000Y-8875000D02*
X9905000Y-8905000D01*
X9890000Y-8890000D02*
X9920000Y-8890000D01*
X9905000Y-8955000D02*
X9905000Y-8985000D01*
X9890000Y-8970000D02*
X9920000Y-8970000D01*
X9920000Y-8395000D02*
X9920000Y-8425000D01*
X9905000Y-8410000D02*
X9935000Y-8410000D01*
X9920000Y-8475000D02*
X9920000Y-8505000D01*
X9905000Y-8490000D02*
X9935000Y-8490000D01*
X9920000Y-11415000D02*
X9920000Y-11445000D01*
X9905000Y-11430000D02*
X9935000Y-11430000D01*
X9920000Y-11495000D02*
X9920000Y-11525000D01*
X9905000Y-11510000D02*
X9935000Y-11510000D01*
X9920000Y-11575000D02*
X9920000Y-11605000D01*
X9905000Y-11590000D02*
X9935000Y-11590000D01*
X9990000Y-8785000D02*
X9990000Y-8815000D01*
X9975000Y-8800000D02*
X10005000Y-8800000D01*
X10000000Y-8395000D02*
X10000000Y-8425000D01*
X9985000Y-8410000D02*
X10015000Y-8410000D01*
X10000000Y-8475000D02*
X10000000Y-8505000D01*
X9985000Y-8490000D02*
X10015000Y-8490000D01*
X10000000Y-8555000D02*
X10000000Y-8585000D01*
X9985000Y-8570000D02*
X10015000Y-8570000D01*
X10000000Y-11415000D02*
X10000000Y-11445000D01*
X9985000Y-11430000D02*
X10015000Y-11430000D01*
X10000000Y-11495000D02*
X10000000Y-11525000D01*
X9985000Y-11510000D02*
X10015000Y-11510000D01*
X10000000Y-11575000D02*
X10000000Y-11605000D01*
X9985000Y-11590000D02*
X10015000Y-11590000D01*
X10010000Y-11185000D02*
X10010000Y-11215000D01*
X9995000Y-11200000D02*
X10025000Y-11200000D01*
X10080000Y-8395000D02*
X10080000Y-8425000D01*
X10065000Y-8410000D02*
X10095000Y-8410000D01*
X10080000Y-8475000D02*
X10080000Y-8505000D01*
X10065000Y-8490000D02*
X10095000Y-8490000D01*
X10080000Y-8555000D02*
X10080000Y-8585000D01*
X10065000Y-8570000D02*
X10095000Y-8570000D01*
X10080000Y-11495000D02*
X10080000Y-11525000D01*
X10065000Y-11510000D02*
X10095000Y-11510000D01*
X10080000Y-11575000D02*
X10080000Y-11605000D01*
X10065000Y-11590000D02*
X10095000Y-11590000D01*
X10095000Y-11015000D02*
X10095000Y-11045000D01*
X10080000Y-11030000D02*
X10110000Y-11030000D01*
X10095000Y-11095000D02*
X10095000Y-11125000D01*
X10080000Y-11110000D02*
X10110000Y-11110000D01*
X10095000Y-11185000D02*
X10095000Y-11215000D01*
X10080000Y-11200000D02*
X10110000Y-11200000D01*
X10250000Y-8800000D02*
X10250000Y-8830000D01*
X10235000Y-8815000D02*
X10265000Y-8815000D01*
X10250000Y-11170000D02*
X10250000Y-11200000D01*
X10235000Y-11185000D02*
X10265000Y-11185000D01*
X10405000Y-8785000D02*
X10405000Y-8815000D01*
X10390000Y-8800000D02*
X10420000Y-8800000D01*
X10405000Y-8875000D02*
X10405000Y-8905000D01*
X10390000Y-8890000D02*
X10420000Y-8890000D01*
X10405000Y-8955000D02*
X10405000Y-8985000D01*
X10390000Y-8970000D02*
X10420000Y-8970000D01*
X10420000Y-8395000D02*
X10420000Y-8425000D01*
X10405000Y-8410000D02*
X10435000Y-8410000D01*
X10420000Y-8475000D02*
X10420000Y-8505000D01*
X10405000Y-8490000D02*
X10435000Y-8490000D01*
X10420000Y-11415000D02*
X10420000Y-11445000D01*
X10405000Y-11430000D02*
X10435000Y-11430000D01*
X10420000Y-11495000D02*
X10420000Y-11525000D01*
X10405000Y-11510000D02*
X10435000Y-11510000D01*
X10420000Y-11575000D02*
X10420000Y-11605000D01*
X10405000Y-11590000D02*
X10435000Y-11590000D01*
X10490000Y-8785000D02*
X10490000Y-8815000D01*
X10475000Y-8800000D02*
X10505000Y-8800000D01*
X10500000Y-8395000D02*
X10500000Y-8425000D01*
X10485000Y-8410000D02*
X10515000Y-8410000D01*
X10500000Y-8475000D02*
X10500000Y-8505000D01*
X10485000Y-8490000D02*
X10515000Y-8490000D01*
X10500000Y-8555000D02*
X10500000Y-8585000D01*
X10485000Y-8570000D02*
X10515000Y-8570000D01*
X10500000Y-11415000D02*
X10500000Y-11445000D01*
X10485000Y-11430000D02*
X10515000Y-11430000D01*
X10500000Y-11495000D02*
X10500000Y-11525000D01*
X10485000Y-11510000D02*
X10515000Y-11510000D01*
X10500000Y-11575000D02*
X10500000Y-11605000D01*
X10485000Y-11590000D02*
X10515000Y-11590000D01*
X10510000Y-11185000D02*
X10510000Y-11215000D01*
X10495000Y-11200000D02*
X10525000Y-11200000D01*
X10580000Y-8395000D02*
X10580000Y-8425000D01*
X10565000Y-8410000D02*
X10595000Y-8410000D01*
X10580000Y-8475000D02*
X10580000Y-8505000D01*
X10565000Y-8490000D02*
X10595000Y-8490000D01*
X10580000Y-8555000D02*
X10580000Y-8585000D01*
X10565000Y-8570000D02*
X10595000Y-8570000D01*
X10580000Y-11495000D02*
X10580000Y-11525000D01*
X10565000Y-11510000D02*
X10595000Y-11510000D01*
X10580000Y-11575000D02*
X10580000Y-11605000D01*
X10565000Y-11590000D02*
X10595000Y-11590000D01*
X10595000Y-11015000D02*
X10595000Y-11045000D01*
X10580000Y-11030000D02*
X10610000Y-11030000D01*
X10595000Y-11095000D02*
X10595000Y-11125000D01*
X10580000Y-11110000D02*
X10610000Y-11110000D01*
X10595000Y-11185000D02*
X10595000Y-11215000D01*
X10580000Y-11200000D02*
X10610000Y-11200000D01*
X10605000Y-10745000D02*
X10605000Y-10775000D01*
X10590000Y-10760000D02*
X10620000Y-10760000D01*
X10605000Y-10825000D02*
X10605000Y-10855000D01*
X10590000Y-10840000D02*
X10620000Y-10840000D01*
X10685000Y-10825000D02*
X10685000Y-10855000D01*
X10670000Y-10840000D02*
X10700000Y-10840000D01*
X10750000Y-8800000D02*
X10750000Y-8830000D01*
X10735000Y-8815000D02*
X10765000Y-8815000D01*
X10750000Y-11170000D02*
X10750000Y-11200000D01*
X10735000Y-11185000D02*
X10765000Y-11185000D01*
X10760000Y-9380000D02*
X10760000Y-9410000D01*
X10745000Y-9395000D02*
X10775000Y-9395000D01*
X10830000Y-11010000D02*
X10830000Y-11040000D01*
X10815000Y-11025000D02*
X10845000Y-11025000D01*
X10830000Y-11090000D02*
X10830000Y-11120000D01*
X10815000Y-11105000D02*
X10845000Y-11105000D01*
X10840000Y-9300000D02*
X10840000Y-9330000D01*
X10825000Y-9315000D02*
X10855000Y-9315000D01*
X10840000Y-9380000D02*
X10840000Y-9410000D01*
X10825000Y-9395000D02*
X10855000Y-9395000D01*
X10910000Y-11010000D02*
X10910000Y-11040000D01*
X10895000Y-11025000D02*
X10925000Y-11025000D01*
X10910000Y-11090000D02*
X10910000Y-11120000D01*
X10895000Y-11105000D02*
X10925000Y-11105000D01*
X10990000Y-11010000D02*
X10990000Y-11040000D01*
X10975000Y-11025000D02*
X11005000Y-11025000D01*
X11025000Y-8995000D02*
X11025000Y-9025000D01*
X11010000Y-9010000D02*
X11040000Y-9010000D01*
X11025000Y-9075000D02*
X11025000Y-9105000D01*
X11010000Y-9090000D02*
X11040000Y-9090000D01*
X11025000Y-9155000D02*
X11025000Y-9185000D01*
X11010000Y-9170000D02*
X11040000Y-9170000D01*
X11030000Y-9390000D02*
X11030000Y-9420000D01*
X11015000Y-9405000D02*
X11045000Y-9405000D01*
X11030000Y-9890000D02*
X11030000Y-9920000D01*
X11015000Y-9905000D02*
X11045000Y-9905000D01*
X11030000Y-10390000D02*
X11030000Y-10420000D01*
X11015000Y-10405000D02*
X11045000Y-10405000D01*
X11105000Y-9075000D02*
X11105000Y-9105000D01*
X11090000Y-9090000D02*
X11120000Y-9090000D01*
X11105000Y-9155000D02*
X11105000Y-9185000D01*
X11090000Y-9170000D02*
X11120000Y-9170000D01*
X11110000Y-9390000D02*
X11110000Y-9420000D01*
X11095000Y-9405000D02*
X11125000Y-9405000D01*
X11110000Y-9890000D02*
X11110000Y-9920000D01*
X11095000Y-9905000D02*
X11125000Y-9905000D01*
X11110000Y-10390000D02*
X11110000Y-10420000D01*
X11095000Y-10405000D02*
X11125000Y-10405000D01*
X11185000Y-9235000D02*
X11185000Y-9265000D01*
X11170000Y-9250000D02*
X11200000Y-9250000D01*
X11185000Y-9735000D02*
X11185000Y-9765000D01*
X11170000Y-9750000D02*
X11200000Y-9750000D01*
X11185000Y-10235000D02*
X11185000Y-10265000D01*
X11170000Y-10250000D02*
X11200000Y-10250000D01*
X11185000Y-10735000D02*
X11185000Y-10765000D01*
X11170000Y-10750000D02*
X11200000Y-10750000D01*
X11200000Y-9390000D02*
X11200000Y-9420000D01*
X11185000Y-9405000D02*
X11215000Y-9405000D01*
X11200000Y-9475000D02*
X11200000Y-9505000D01*
X11185000Y-9490000D02*
X11215000Y-9490000D01*
X11200000Y-9890000D02*
X11200000Y-9920000D01*
X11185000Y-9905000D02*
X11215000Y-9905000D01*
X11200000Y-9975000D02*
X11200000Y-10005000D01*
X11185000Y-9990000D02*
X11215000Y-9990000D01*
X11200000Y-10390000D02*
X11200000Y-10420000D01*
X11185000Y-10405000D02*
X11215000Y-10405000D01*
X11200000Y-10475000D02*
X11200000Y-10505000D01*
X11185000Y-10490000D02*
X11215000Y-10490000D01*
X11430000Y-9485000D02*
X11430000Y-9515000D01*
X11415000Y-9500000D02*
X11445000Y-9500000D01*
X11430000Y-9565000D02*
X11430000Y-9595000D01*
X11415000Y-9580000D02*
X11445000Y-9580000D01*
X11430000Y-9985000D02*
X11430000Y-10015000D01*
X11415000Y-10000000D02*
X11445000Y-10000000D01*
X11430000Y-10065000D02*
X11430000Y-10095000D01*
X11415000Y-10080000D02*
X11445000Y-10080000D01*
X11430000Y-10485000D02*
X11430000Y-10515000D01*
X11415000Y-10500000D02*
X11445000Y-10500000D01*
X11430000Y-10565000D02*
X11430000Y-10595000D01*
X11415000Y-10580000D02*
X11445000Y-10580000D01*
X11510000Y-9405000D02*
X11510000Y-9435000D01*
X11495000Y-9420000D02*
X11525000Y-9420000D01*
X11510000Y-9485000D02*
X11510000Y-9515000D01*
X11495000Y-9500000D02*
X11525000Y-9500000D01*
X11510000Y-9565000D02*
X11510000Y-9595000D01*
X11495000Y-9580000D02*
X11525000Y-9580000D01*
X11510000Y-9905000D02*
X11510000Y-9935000D01*
X11495000Y-9920000D02*
X11525000Y-9920000D01*
X11510000Y-9985000D02*
X11510000Y-10015000D01*
X11495000Y-10000000D02*
X11525000Y-10000000D01*
X11510000Y-10065000D02*
X11510000Y-10095000D01*
X11495000Y-10080000D02*
X11525000Y-10080000D01*
X11510000Y-10405000D02*
X11510000Y-10435000D01*
X11495000Y-10420000D02*
X11525000Y-10420000D01*
X11510000Y-10485000D02*
X11510000Y-10515000D01*
X11495000Y-10500000D02*
X11525000Y-10500000D01*
X11510000Y-10565000D02*
X11510000Y-10595000D01*
X11495000Y-10580000D02*
X11525000Y-10580000D01*
X11590000Y-9405000D02*
X11590000Y-9435000D01*
X11575000Y-9420000D02*
X11605000Y-9420000D01*
X11590000Y-9485000D02*
X11590000Y-9515000D01*
X11575000Y-9500000D02*
X11605000Y-9500000D01*
X11590000Y-9565000D02*
X11590000Y-9595000D01*
X11575000Y-9580000D02*
X11605000Y-9580000D01*
X11590000Y-9905000D02*
X11590000Y-9935000D01*
X11575000Y-9920000D02*
X11605000Y-9920000D01*
X11590000Y-9985000D02*
X11590000Y-10015000D01*
X11575000Y-10000000D02*
X11605000Y-10000000D01*
X11590000Y-10065000D02*
X11590000Y-10095000D01*
X11575000Y-10080000D02*
X11605000Y-10080000D01*
X11590000Y-10405000D02*
X11590000Y-10435000D01*
X11575000Y-10420000D02*
X11605000Y-10420000D01*
X11590000Y-10485000D02*
X11590000Y-10515000D01*
X11575000Y-10500000D02*
X11605000Y-10500000D01*
X11590000Y-10565000D02*
X11590000Y-10595000D01*
X11575000Y-10580000D02*
X11605000Y-10580000D01*
D12*
X9106569Y-11666569D02*
X9106569Y-11553431D01*
X8993431Y-11553431D01*
X8993431Y-11666569D01*
X9106569Y-11666569D01*
X11006569Y-11666569D02*
X11006569Y-11553431D01*
X10893431Y-11553431D01*
X10893431Y-11666569D01*
X11006569Y-11666569D01*
D11*
X8455777Y-12116484D02*
X8455777Y-11916484D01*
X8455777Y-11916484D02*
X8503396Y-11916484D01*
X8503396Y-11916484D02*
X8531967Y-11926008D01*
X8531967Y-11926008D02*
X8551015Y-11945055D01*
X8551015Y-11945055D02*
X8560539Y-11964103D01*
X8560539Y-11964103D02*
X8570063Y-12002198D01*
X8570063Y-12002198D02*
X8570063Y-12030769D01*
X8570063Y-12030769D02*
X8560539Y-12068865D01*
X8560539Y-12068865D02*
X8551015Y-12087912D01*
X8551015Y-12087912D02*
X8531967Y-12106960D01*
X8531967Y-12106960D02*
X8503396Y-12116484D01*
X8503396Y-12116484D02*
X8455777Y-12116484D01*
X8655777Y-12116484D02*
X8655777Y-11983150D01*
X8655777Y-12021246D02*
X8665301Y-12002198D01*
X8665301Y-12002198D02*
X8674824Y-11992674D01*
X8674824Y-11992674D02*
X8693872Y-11983150D01*
X8693872Y-11983150D02*
X8712920Y-11983150D01*
X8779586Y-12116484D02*
X8779586Y-11983150D01*
X8779586Y-11916484D02*
X8770063Y-11926008D01*
X8770063Y-11926008D02*
X8779586Y-11935531D01*
X8779586Y-11935531D02*
X8789110Y-11926008D01*
X8789110Y-11926008D02*
X8779586Y-11916484D01*
X8779586Y-11916484D02*
X8779586Y-11935531D01*
X8903396Y-12116484D02*
X8884348Y-12106960D01*
X8884348Y-12106960D02*
X8874824Y-12087912D01*
X8874824Y-12087912D02*
X8874824Y-11916484D01*
X9008158Y-12116484D02*
X8989110Y-12106960D01*
X8989110Y-12106960D02*
X8979586Y-12087912D01*
X8979586Y-12087912D02*
X8979586Y-11916484D01*
X9236729Y-12116484D02*
X9236729Y-11916484D01*
X9236729Y-11916484D02*
X9303396Y-12059341D01*
X9303396Y-12059341D02*
X9370063Y-11916484D01*
X9370063Y-11916484D02*
X9370063Y-12116484D01*
X9551015Y-12116484D02*
X9551015Y-12011722D01*
X9551015Y-12011722D02*
X9541491Y-11992674D01*
X9541491Y-11992674D02*
X9522444Y-11983150D01*
X9522444Y-11983150D02*
X9484348Y-11983150D01*
X9484348Y-11983150D02*
X9465301Y-11992674D01*
X9551015Y-12106960D02*
X9531967Y-12116484D01*
X9531967Y-12116484D02*
X9484348Y-12116484D01*
X9484348Y-12116484D02*
X9465301Y-12106960D01*
X9465301Y-12106960D02*
X9455777Y-12087912D01*
X9455777Y-12087912D02*
X9455777Y-12068865D01*
X9455777Y-12068865D02*
X9465301Y-12049817D01*
X9465301Y-12049817D02*
X9484348Y-12040293D01*
X9484348Y-12040293D02*
X9531967Y-12040293D01*
X9531967Y-12040293D02*
X9551015Y-12030769D01*
X9646253Y-11983150D02*
X9646253Y-12183150D01*
X9646253Y-11992674D02*
X9665301Y-11983150D01*
X9665301Y-11983150D02*
X9703396Y-11983150D01*
X9703396Y-11983150D02*
X9722444Y-11992674D01*
X9722444Y-11992674D02*
X9731967Y-12002198D01*
X9731967Y-12002198D02*
X9741491Y-12021246D01*
X9741491Y-12021246D02*
X9741491Y-12078388D01*
X9741491Y-12078388D02*
X9731967Y-12097436D01*
X9731967Y-12097436D02*
X9722444Y-12106960D01*
X9722444Y-12106960D02*
X9703396Y-12116484D01*
X9703396Y-12116484D02*
X9665301Y-12116484D01*
X9665301Y-12116484D02*
X9646253Y-12106960D01*
X9827205Y-12097436D02*
X9836729Y-12106960D01*
X9836729Y-12106960D02*
X9827205Y-12116484D01*
X9827205Y-12116484D02*
X9817682Y-12106960D01*
X9817682Y-12106960D02*
X9827205Y-12097436D01*
X9827205Y-12097436D02*
X9827205Y-12116484D01*
X9827205Y-11992674D02*
X9836729Y-12002198D01*
X9836729Y-12002198D02*
X9827205Y-12011722D01*
X9827205Y-12011722D02*
X9817682Y-12002198D01*
X9817682Y-12002198D02*
X9827205Y-11992674D01*
X9827205Y-11992674D02*
X9827205Y-12011722D01*
D10*
X8180000Y-12437500D02*
X8195000Y-12452500D01*
X8195000Y-12437500D02*
X8180000Y-12452500D01*
D11*
X8493872Y-12336484D02*
X8512920Y-12336484D01*
X8512920Y-12336484D02*
X8531967Y-12346008D01*
X8531967Y-12346008D02*
X8541491Y-12355531D01*
X8541491Y-12355531D02*
X8551015Y-12374579D01*
X8551015Y-12374579D02*
X8560539Y-12412674D01*
X8560539Y-12412674D02*
X8560539Y-12460293D01*
X8560539Y-12460293D02*
X8551015Y-12498388D01*
X8551015Y-12498388D02*
X8541491Y-12517436D01*
X8541491Y-12517436D02*
X8531967Y-12526960D01*
X8531967Y-12526960D02*
X8512920Y-12536484D01*
X8512920Y-12536484D02*
X8493872Y-12536484D01*
X8493872Y-12536484D02*
X8474824Y-12526960D01*
X8474824Y-12526960D02*
X8465301Y-12517436D01*
X8465301Y-12517436D02*
X8455777Y-12498388D01*
X8455777Y-12498388D02*
X8446253Y-12460293D01*
X8446253Y-12460293D02*
X8446253Y-12412674D01*
X8446253Y-12412674D02*
X8455777Y-12374579D01*
X8455777Y-12374579D02*
X8465301Y-12355531D01*
X8465301Y-12355531D02*
X8474824Y-12346008D01*
X8474824Y-12346008D02*
X8493872Y-12336484D01*
X8646253Y-12517436D02*
X8655777Y-12526960D01*
X8655777Y-12526960D02*
X8646253Y-12536484D01*
X8646253Y-12536484D02*
X8636729Y-12526960D01*
X8636729Y-12526960D02*
X8646253Y-12517436D01*
X8646253Y-12517436D02*
X8646253Y-12536484D01*
X8846253Y-12536484D02*
X8731967Y-12536484D01*
X8789110Y-12536484D02*
X8789110Y-12336484D01*
X8789110Y-12336484D02*
X8770063Y-12365055D01*
X8770063Y-12365055D02*
X8751015Y-12384103D01*
X8751015Y-12384103D02*
X8731967Y-12393627D01*
X9027205Y-12336484D02*
X8931967Y-12336484D01*
X8931967Y-12336484D02*
X8922444Y-12431722D01*
X8922444Y-12431722D02*
X8931967Y-12422198D01*
X8931967Y-12422198D02*
X8951015Y-12412674D01*
X8951015Y-12412674D02*
X8998634Y-12412674D01*
X8998634Y-12412674D02*
X9017682Y-12422198D01*
X9017682Y-12422198D02*
X9027205Y-12431722D01*
X9027205Y-12431722D02*
X9036729Y-12450769D01*
X9036729Y-12450769D02*
X9036729Y-12498388D01*
X9036729Y-12498388D02*
X9027205Y-12517436D01*
X9027205Y-12517436D02*
X9017682Y-12526960D01*
X9017682Y-12526960D02*
X8998634Y-12536484D01*
X8998634Y-12536484D02*
X8951015Y-12536484D01*
X8951015Y-12536484D02*
X8931967Y-12526960D01*
X8931967Y-12526960D02*
X8922444Y-12517436D01*
X9160539Y-12336484D02*
X9179586Y-12336484D01*
X9179586Y-12336484D02*
X9198634Y-12346008D01*
X9198634Y-12346008D02*
X9208158Y-12355531D01*
X9208158Y-12355531D02*
X9217682Y-12374579D01*
X9217682Y-12374579D02*
X9227205Y-12412674D01*
X9227205Y-12412674D02*
X9227205Y-12460293D01*
X9227205Y-12460293D02*
X9217682Y-12498388D01*
X9217682Y-12498388D02*
X9208158Y-12517436D01*
X9208158Y-12517436D02*
X9198634Y-12526960D01*
X9198634Y-12526960D02*
X9179586Y-12536484D01*
X9179586Y-12536484D02*
X9160539Y-12536484D01*
X9160539Y-12536484D02*
X9141491Y-12526960D01*
X9141491Y-12526960D02*
X9131967Y-12517436D01*
X9131967Y-12517436D02*
X9122444Y-12498388D01*
X9122444Y-12498388D02*
X9112920Y-12460293D01*
X9112920Y-12460293D02*
X9112920Y-12412674D01*
X9112920Y-12412674D02*
X9122444Y-12374579D01*
X9122444Y-12374579D02*
X9131967Y-12355531D01*
X9131967Y-12355531D02*
X9141491Y-12346008D01*
X9141491Y-12346008D02*
X9160539Y-12336484D01*
X9312920Y-12536484D02*
X9312920Y-12403150D01*
X9312920Y-12422198D02*
X9322444Y-12412674D01*
X9322444Y-12412674D02*
X9341491Y-12403150D01*
X9341491Y-12403150D02*
X9370063Y-12403150D01*
X9370063Y-12403150D02*
X9389110Y-12412674D01*
X9389110Y-12412674D02*
X9398634Y-12431722D01*
X9398634Y-12431722D02*
X9398634Y-12536484D01*
X9398634Y-12431722D02*
X9408158Y-12412674D01*
X9408158Y-12412674D02*
X9427205Y-12403150D01*
X9427205Y-12403150D02*
X9455777Y-12403150D01*
X9455777Y-12403150D02*
X9474825Y-12412674D01*
X9474825Y-12412674D02*
X9484348Y-12431722D01*
X9484348Y-12431722D02*
X9484348Y-12536484D01*
X9579586Y-12536484D02*
X9579586Y-12403150D01*
X9579586Y-12422198D02*
X9589110Y-12412674D01*
X9589110Y-12412674D02*
X9608158Y-12403150D01*
X9608158Y-12403150D02*
X9636729Y-12403150D01*
X9636729Y-12403150D02*
X9655777Y-12412674D01*
X9655777Y-12412674D02*
X9665301Y-12431722D01*
X9665301Y-12431722D02*
X9665301Y-12536484D01*
X9665301Y-12431722D02*
X9674825Y-12412674D01*
X9674825Y-12412674D02*
X9693872Y-12403150D01*
X9693872Y-12403150D02*
X9722444Y-12403150D01*
X9722444Y-12403150D02*
X9741491Y-12412674D01*
X9741491Y-12412674D02*
X9751015Y-12431722D01*
X9751015Y-12431722D02*
X9751015Y-12536484D01*
X10141491Y-12326960D02*
X9970063Y-12584103D01*
X10398634Y-12336484D02*
X10417682Y-12336484D01*
X10417682Y-12336484D02*
X10436729Y-12346008D01*
X10436729Y-12346008D02*
X10446253Y-12355531D01*
X10446253Y-12355531D02*
X10455777Y-12374579D01*
X10455777Y-12374579D02*
X10465301Y-12412674D01*
X10465301Y-12412674D02*
X10465301Y-12460293D01*
X10465301Y-12460293D02*
X10455777Y-12498388D01*
X10455777Y-12498388D02*
X10446253Y-12517436D01*
X10446253Y-12517436D02*
X10436729Y-12526960D01*
X10436729Y-12526960D02*
X10417682Y-12536484D01*
X10417682Y-12536484D02*
X10398634Y-12536484D01*
X10398634Y-12536484D02*
X10379587Y-12526960D01*
X10379587Y-12526960D02*
X10370063Y-12517436D01*
X10370063Y-12517436D02*
X10360539Y-12498388D01*
X10360539Y-12498388D02*
X10351015Y-12460293D01*
X10351015Y-12460293D02*
X10351015Y-12412674D01*
X10351015Y-12412674D02*
X10360539Y-12374579D01*
X10360539Y-12374579D02*
X10370063Y-12355531D01*
X10370063Y-12355531D02*
X10379587Y-12346008D01*
X10379587Y-12346008D02*
X10398634Y-12336484D01*
X10551015Y-12517436D02*
X10560539Y-12526960D01*
X10560539Y-12526960D02*
X10551015Y-12536484D01*
X10551015Y-12536484D02*
X10541491Y-12526960D01*
X10541491Y-12526960D02*
X10551015Y-12517436D01*
X10551015Y-12517436D02*
X10551015Y-12536484D01*
X10684348Y-12336484D02*
X10703396Y-12336484D01*
X10703396Y-12336484D02*
X10722444Y-12346008D01*
X10722444Y-12346008D02*
X10731968Y-12355531D01*
X10731968Y-12355531D02*
X10741491Y-12374579D01*
X10741491Y-12374579D02*
X10751015Y-12412674D01*
X10751015Y-12412674D02*
X10751015Y-12460293D01*
X10751015Y-12460293D02*
X10741491Y-12498388D01*
X10741491Y-12498388D02*
X10731968Y-12517436D01*
X10731968Y-12517436D02*
X10722444Y-12526960D01*
X10722444Y-12526960D02*
X10703396Y-12536484D01*
X10703396Y-12536484D02*
X10684348Y-12536484D01*
X10684348Y-12536484D02*
X10665301Y-12526960D01*
X10665301Y-12526960D02*
X10655777Y-12517436D01*
X10655777Y-12517436D02*
X10646253Y-12498388D01*
X10646253Y-12498388D02*
X10636729Y-12460293D01*
X10636729Y-12460293D02*
X10636729Y-12412674D01*
X10636729Y-12412674D02*
X10646253Y-12374579D01*
X10646253Y-12374579D02*
X10655777Y-12355531D01*
X10655777Y-12355531D02*
X10665301Y-12346008D01*
X10665301Y-12346008D02*
X10684348Y-12336484D01*
X10874825Y-12336484D02*
X10893872Y-12336484D01*
X10893872Y-12336484D02*
X10912920Y-12346008D01*
X10912920Y-12346008D02*
X10922444Y-12355531D01*
X10922444Y-12355531D02*
X10931968Y-12374579D01*
X10931968Y-12374579D02*
X10941491Y-12412674D01*
X10941491Y-12412674D02*
X10941491Y-12460293D01*
X10941491Y-12460293D02*
X10931968Y-12498388D01*
X10931968Y-12498388D02*
X10922444Y-12517436D01*
X10922444Y-12517436D02*
X10912920Y-12526960D01*
X10912920Y-12526960D02*
X10893872Y-12536484D01*
X10893872Y-12536484D02*
X10874825Y-12536484D01*
X10874825Y-12536484D02*
X10855777Y-12526960D01*
X10855777Y-12526960D02*
X10846253Y-12517436D01*
X10846253Y-12517436D02*
X10836729Y-12498388D01*
X10836729Y-12498388D02*
X10827206Y-12460293D01*
X10827206Y-12460293D02*
X10827206Y-12412674D01*
X10827206Y-12412674D02*
X10836729Y-12374579D01*
X10836729Y-12374579D02*
X10846253Y-12355531D01*
X10846253Y-12355531D02*
X10855777Y-12346008D01*
X10855777Y-12346008D02*
X10874825Y-12336484D01*
X11122444Y-12336484D02*
X11027206Y-12336484D01*
X11027206Y-12336484D02*
X11017682Y-12431722D01*
X11017682Y-12431722D02*
X11027206Y-12422198D01*
X11027206Y-12422198D02*
X11046253Y-12412674D01*
X11046253Y-12412674D02*
X11093872Y-12412674D01*
X11093872Y-12412674D02*
X11112920Y-12422198D01*
X11112920Y-12422198D02*
X11122444Y-12431722D01*
X11122444Y-12431722D02*
X11131968Y-12450769D01*
X11131968Y-12450769D02*
X11131968Y-12498388D01*
X11131968Y-12498388D02*
X11122444Y-12517436D01*
X11122444Y-12517436D02*
X11112920Y-12526960D01*
X11112920Y-12526960D02*
X11093872Y-12536484D01*
X11093872Y-12536484D02*
X11046253Y-12536484D01*
X11046253Y-12536484D02*
X11027206Y-12526960D01*
X11027206Y-12526960D02*
X11017682Y-12517436D01*
X11227206Y-12536484D02*
X11265301Y-12536484D01*
X11265301Y-12536484D02*
X11284348Y-12526960D01*
X11284348Y-12526960D02*
X11293872Y-12517436D01*
X11293872Y-12517436D02*
X11312920Y-12488865D01*
X11312920Y-12488865D02*
X11322444Y-12450769D01*
X11322444Y-12450769D02*
X11322444Y-12374579D01*
X11322444Y-12374579D02*
X11312920Y-12355531D01*
X11312920Y-12355531D02*
X11303396Y-12346008D01*
X11303396Y-12346008D02*
X11284348Y-12336484D01*
X11284348Y-12336484D02*
X11246253Y-12336484D01*
X11246253Y-12336484D02*
X11227206Y-12346008D01*
X11227206Y-12346008D02*
X11217682Y-12355531D01*
X11217682Y-12355531D02*
X11208158Y-12374579D01*
X11208158Y-12374579D02*
X11208158Y-12422198D01*
X11208158Y-12422198D02*
X11217682Y-12441246D01*
X11217682Y-12441246D02*
X11227206Y-12450769D01*
X11227206Y-12450769D02*
X11246253Y-12460293D01*
X11246253Y-12460293D02*
X11284348Y-12460293D01*
X11284348Y-12460293D02*
X11303396Y-12450769D01*
X11303396Y-12450769D02*
X11312920Y-12441246D01*
X11312920Y-12441246D02*
X11322444Y-12422198D01*
X11398634Y-12336484D02*
X11398634Y-12374579D01*
X11474825Y-12336484D02*
X11474825Y-12374579D01*
X11770063Y-12612674D02*
X11760539Y-12603150D01*
X11760539Y-12603150D02*
X11741491Y-12574579D01*
X11741491Y-12574579D02*
X11731968Y-12555531D01*
X11731968Y-12555531D02*
X11722444Y-12526960D01*
X11722444Y-12526960D02*
X11712920Y-12479341D01*
X11712920Y-12479341D02*
X11712920Y-12441246D01*
X11712920Y-12441246D02*
X11722444Y-12393627D01*
X11722444Y-12393627D02*
X11731968Y-12365055D01*
X11731968Y-12365055D02*
X11741491Y-12346008D01*
X11741491Y-12346008D02*
X11760539Y-12317436D01*
X11760539Y-12317436D02*
X11770063Y-12307912D01*
X11836729Y-12355531D02*
X11846253Y-12346008D01*
X11846253Y-12346008D02*
X11865301Y-12336484D01*
X11865301Y-12336484D02*
X11912920Y-12336484D01*
X11912920Y-12336484D02*
X11931968Y-12346008D01*
X11931968Y-12346008D02*
X11941491Y-12355531D01*
X11941491Y-12355531D02*
X11951015Y-12374579D01*
X11951015Y-12374579D02*
X11951015Y-12393627D01*
X11951015Y-12393627D02*
X11941491Y-12422198D01*
X11941491Y-12422198D02*
X11827206Y-12536484D01*
X11827206Y-12536484D02*
X11951015Y-12536484D01*
X12122444Y-12336484D02*
X12084348Y-12336484D01*
X12084348Y-12336484D02*
X12065301Y-12346008D01*
X12065301Y-12346008D02*
X12055777Y-12355531D01*
X12055777Y-12355531D02*
X12036729Y-12384103D01*
X12036729Y-12384103D02*
X12027206Y-12422198D01*
X12027206Y-12422198D02*
X12027206Y-12498388D01*
X12027206Y-12498388D02*
X12036729Y-12517436D01*
X12036729Y-12517436D02*
X12046253Y-12526960D01*
X12046253Y-12526960D02*
X12065301Y-12536484D01*
X12065301Y-12536484D02*
X12103396Y-12536484D01*
X12103396Y-12536484D02*
X12122444Y-12526960D01*
X12122444Y-12526960D02*
X12131968Y-12517436D01*
X12131968Y-12517436D02*
X12141491Y-12498388D01*
X12141491Y-12498388D02*
X12141491Y-12450769D01*
X12141491Y-12450769D02*
X12131968Y-12431722D01*
X12131968Y-12431722D02*
X12122444Y-12422198D01*
X12122444Y-12422198D02*
X12103396Y-12412674D01*
X12103396Y-12412674D02*
X12065301Y-12412674D01*
X12065301Y-12412674D02*
X12046253Y-12422198D01*
X12046253Y-12422198D02*
X12036729Y-12431722D01*
X12036729Y-12431722D02*
X12027206Y-12450769D01*
X12265301Y-12336484D02*
X12284349Y-12336484D01*
X12284349Y-12336484D02*
X12303396Y-12346008D01*
X12303396Y-12346008D02*
X12312920Y-12355531D01*
X12312920Y-12355531D02*
X12322444Y-12374579D01*
X12322444Y-12374579D02*
X12331968Y-12412674D01*
X12331968Y-12412674D02*
X12331968Y-12460293D01*
X12331968Y-12460293D02*
X12322444Y-12498388D01*
X12322444Y-12498388D02*
X12312920Y-12517436D01*
X12312920Y-12517436D02*
X12303396Y-12526960D01*
X12303396Y-12526960D02*
X12284349Y-12536484D01*
X12284349Y-12536484D02*
X12265301Y-12536484D01*
X12265301Y-12536484D02*
X12246253Y-12526960D01*
X12246253Y-12526960D02*
X12236729Y-12517436D01*
X12236729Y-12517436D02*
X12227206Y-12498388D01*
X12227206Y-12498388D02*
X12217682Y-12460293D01*
X12217682Y-12460293D02*
X12217682Y-12412674D01*
X12217682Y-12412674D02*
X12227206Y-12374579D01*
X12227206Y-12374579D02*
X12236729Y-12355531D01*
X12236729Y-12355531D02*
X12246253Y-12346008D01*
X12246253Y-12346008D02*
X12265301Y-12336484D01*
X12570063Y-12536484D02*
X12570063Y-12336484D01*
X12655777Y-12536484D02*
X12655777Y-12431722D01*
X12655777Y-12431722D02*
X12646253Y-12412674D01*
X12646253Y-12412674D02*
X12627206Y-12403150D01*
X12627206Y-12403150D02*
X12598634Y-12403150D01*
X12598634Y-12403150D02*
X12579587Y-12412674D01*
X12579587Y-12412674D02*
X12570063Y-12422198D01*
X12779587Y-12536484D02*
X12760539Y-12526960D01*
X12760539Y-12526960D02*
X12751015Y-12517436D01*
X12751015Y-12517436D02*
X12741491Y-12498388D01*
X12741491Y-12498388D02*
X12741491Y-12441246D01*
X12741491Y-12441246D02*
X12751015Y-12422198D01*
X12751015Y-12422198D02*
X12760539Y-12412674D01*
X12760539Y-12412674D02*
X12779587Y-12403150D01*
X12779587Y-12403150D02*
X12808158Y-12403150D01*
X12808158Y-12403150D02*
X12827206Y-12412674D01*
X12827206Y-12412674D02*
X12836730Y-12422198D01*
X12836730Y-12422198D02*
X12846253Y-12441246D01*
X12846253Y-12441246D02*
X12846253Y-12498388D01*
X12846253Y-12498388D02*
X12836730Y-12517436D01*
X12836730Y-12517436D02*
X12827206Y-12526960D01*
X12827206Y-12526960D02*
X12808158Y-12536484D01*
X12808158Y-12536484D02*
X12779587Y-12536484D01*
X12960539Y-12536484D02*
X12941491Y-12526960D01*
X12941491Y-12526960D02*
X12931968Y-12507912D01*
X12931968Y-12507912D02*
X12931968Y-12336484D01*
X13112920Y-12526960D02*
X13093872Y-12536484D01*
X13093872Y-12536484D02*
X13055777Y-12536484D01*
X13055777Y-12536484D02*
X13036730Y-12526960D01*
X13036730Y-12526960D02*
X13027206Y-12507912D01*
X13027206Y-12507912D02*
X13027206Y-12431722D01*
X13027206Y-12431722D02*
X13036730Y-12412674D01*
X13036730Y-12412674D02*
X13055777Y-12403150D01*
X13055777Y-12403150D02*
X13093872Y-12403150D01*
X13093872Y-12403150D02*
X13112920Y-12412674D01*
X13112920Y-12412674D02*
X13122444Y-12431722D01*
X13122444Y-12431722D02*
X13122444Y-12450769D01*
X13122444Y-12450769D02*
X13027206Y-12469817D01*
X13198634Y-12526960D02*
X13217682Y-12536484D01*
X13217682Y-12536484D02*
X13255777Y-12536484D01*
X13255777Y-12536484D02*
X13274825Y-12526960D01*
X13274825Y-12526960D02*
X13284349Y-12507912D01*
X13284349Y-12507912D02*
X13284349Y-12498388D01*
X13284349Y-12498388D02*
X13274825Y-12479341D01*
X13274825Y-12479341D02*
X13255777Y-12469817D01*
X13255777Y-12469817D02*
X13227206Y-12469817D01*
X13227206Y-12469817D02*
X13208158Y-12460293D01*
X13208158Y-12460293D02*
X13198634Y-12441246D01*
X13198634Y-12441246D02*
X13198634Y-12431722D01*
X13198634Y-12431722D02*
X13208158Y-12412674D01*
X13208158Y-12412674D02*
X13227206Y-12403150D01*
X13227206Y-12403150D02*
X13255777Y-12403150D01*
X13255777Y-12403150D02*
X13274825Y-12412674D01*
X13351015Y-12612674D02*
X13360539Y-12603150D01*
X13360539Y-12603150D02*
X13379587Y-12574579D01*
X13379587Y-12574579D02*
X13389111Y-12555531D01*
X13389111Y-12555531D02*
X13398634Y-12526960D01*
X13398634Y-12526960D02*
X13408158Y-12479341D01*
X13408158Y-12479341D02*
X13408158Y-12441246D01*
X13408158Y-12441246D02*
X13398634Y-12393627D01*
X13398634Y-12393627D02*
X13389111Y-12365055D01*
X13389111Y-12365055D02*
X13379587Y-12346008D01*
X13379587Y-12346008D02*
X13360539Y-12317436D01*
X13360539Y-12317436D02*
X13351015Y-12307912D01*
D10*
X8195000Y-12709000D02*
G75*
G02*
X8170000Y-12709000I-12500J0D01*
G01*
X8170000Y-12709000D02*
G75*
G02*
X8195000Y-12709000I12500J0D01*
G01*
D11*
X8493872Y-12600484D02*
X8512920Y-12600484D01*
X8512920Y-12600484D02*
X8531967Y-12610008D01*
X8531967Y-12610008D02*
X8541491Y-12619531D01*
X8541491Y-12619531D02*
X8551015Y-12638579D01*
X8551015Y-12638579D02*
X8560539Y-12676674D01*
X8560539Y-12676674D02*
X8560539Y-12724293D01*
X8560539Y-12724293D02*
X8551015Y-12762388D01*
X8551015Y-12762388D02*
X8541491Y-12781436D01*
X8541491Y-12781436D02*
X8531967Y-12790960D01*
X8531967Y-12790960D02*
X8512920Y-12800484D01*
X8512920Y-12800484D02*
X8493872Y-12800484D01*
X8493872Y-12800484D02*
X8474824Y-12790960D01*
X8474824Y-12790960D02*
X8465301Y-12781436D01*
X8465301Y-12781436D02*
X8455777Y-12762388D01*
X8455777Y-12762388D02*
X8446253Y-12724293D01*
X8446253Y-12724293D02*
X8446253Y-12676674D01*
X8446253Y-12676674D02*
X8455777Y-12638579D01*
X8455777Y-12638579D02*
X8465301Y-12619531D01*
X8465301Y-12619531D02*
X8474824Y-12610008D01*
X8474824Y-12610008D02*
X8493872Y-12600484D01*
X8646253Y-12781436D02*
X8655777Y-12790960D01*
X8655777Y-12790960D02*
X8646253Y-12800484D01*
X8646253Y-12800484D02*
X8636729Y-12790960D01*
X8636729Y-12790960D02*
X8646253Y-12781436D01*
X8646253Y-12781436D02*
X8646253Y-12800484D01*
X8731967Y-12619531D02*
X8741491Y-12610008D01*
X8741491Y-12610008D02*
X8760539Y-12600484D01*
X8760539Y-12600484D02*
X8808158Y-12600484D01*
X8808158Y-12600484D02*
X8827205Y-12610008D01*
X8827205Y-12610008D02*
X8836729Y-12619531D01*
X8836729Y-12619531D02*
X8846253Y-12638579D01*
X8846253Y-12638579D02*
X8846253Y-12657627D01*
X8846253Y-12657627D02*
X8836729Y-12686198D01*
X8836729Y-12686198D02*
X8722444Y-12800484D01*
X8722444Y-12800484D02*
X8846253Y-12800484D01*
X9027205Y-12600484D02*
X8931967Y-12600484D01*
X8931967Y-12600484D02*
X8922444Y-12695722D01*
X8922444Y-12695722D02*
X8931967Y-12686198D01*
X8931967Y-12686198D02*
X8951015Y-12676674D01*
X8951015Y-12676674D02*
X8998634Y-12676674D01*
X8998634Y-12676674D02*
X9017682Y-12686198D01*
X9017682Y-12686198D02*
X9027205Y-12695722D01*
X9027205Y-12695722D02*
X9036729Y-12714769D01*
X9036729Y-12714769D02*
X9036729Y-12762388D01*
X9036729Y-12762388D02*
X9027205Y-12781436D01*
X9027205Y-12781436D02*
X9017682Y-12790960D01*
X9017682Y-12790960D02*
X8998634Y-12800484D01*
X8998634Y-12800484D02*
X8951015Y-12800484D01*
X8951015Y-12800484D02*
X8931967Y-12790960D01*
X8931967Y-12790960D02*
X8922444Y-12781436D01*
X9160539Y-12600484D02*
X9179586Y-12600484D01*
X9179586Y-12600484D02*
X9198634Y-12610008D01*
X9198634Y-12610008D02*
X9208158Y-12619531D01*
X9208158Y-12619531D02*
X9217682Y-12638579D01*
X9217682Y-12638579D02*
X9227205Y-12676674D01*
X9227205Y-12676674D02*
X9227205Y-12724293D01*
X9227205Y-12724293D02*
X9217682Y-12762388D01*
X9217682Y-12762388D02*
X9208158Y-12781436D01*
X9208158Y-12781436D02*
X9198634Y-12790960D01*
X9198634Y-12790960D02*
X9179586Y-12800484D01*
X9179586Y-12800484D02*
X9160539Y-12800484D01*
X9160539Y-12800484D02*
X9141491Y-12790960D01*
X9141491Y-12790960D02*
X9131967Y-12781436D01*
X9131967Y-12781436D02*
X9122444Y-12762388D01*
X9122444Y-12762388D02*
X9112920Y-12724293D01*
X9112920Y-12724293D02*
X9112920Y-12676674D01*
X9112920Y-12676674D02*
X9122444Y-12638579D01*
X9122444Y-12638579D02*
X9131967Y-12619531D01*
X9131967Y-12619531D02*
X9141491Y-12610008D01*
X9141491Y-12610008D02*
X9160539Y-12600484D01*
X9312920Y-12800484D02*
X9312920Y-12667150D01*
X9312920Y-12686198D02*
X9322444Y-12676674D01*
X9322444Y-12676674D02*
X9341491Y-12667150D01*
X9341491Y-12667150D02*
X9370063Y-12667150D01*
X9370063Y-12667150D02*
X9389110Y-12676674D01*
X9389110Y-12676674D02*
X9398634Y-12695722D01*
X9398634Y-12695722D02*
X9398634Y-12800484D01*
X9398634Y-12695722D02*
X9408158Y-12676674D01*
X9408158Y-12676674D02*
X9427205Y-12667150D01*
X9427205Y-12667150D02*
X9455777Y-12667150D01*
X9455777Y-12667150D02*
X9474825Y-12676674D01*
X9474825Y-12676674D02*
X9484348Y-12695722D01*
X9484348Y-12695722D02*
X9484348Y-12800484D01*
X9579586Y-12800484D02*
X9579586Y-12667150D01*
X9579586Y-12686198D02*
X9589110Y-12676674D01*
X9589110Y-12676674D02*
X9608158Y-12667150D01*
X9608158Y-12667150D02*
X9636729Y-12667150D01*
X9636729Y-12667150D02*
X9655777Y-12676674D01*
X9655777Y-12676674D02*
X9665301Y-12695722D01*
X9665301Y-12695722D02*
X9665301Y-12800484D01*
X9665301Y-12695722D02*
X9674825Y-12676674D01*
X9674825Y-12676674D02*
X9693872Y-12667150D01*
X9693872Y-12667150D02*
X9722444Y-12667150D01*
X9722444Y-12667150D02*
X9741491Y-12676674D01*
X9741491Y-12676674D02*
X9751015Y-12695722D01*
X9751015Y-12695722D02*
X9751015Y-12800484D01*
X10141491Y-12590960D02*
X9970063Y-12848103D01*
X10398634Y-12600484D02*
X10417682Y-12600484D01*
X10417682Y-12600484D02*
X10436729Y-12610008D01*
X10436729Y-12610008D02*
X10446253Y-12619531D01*
X10446253Y-12619531D02*
X10455777Y-12638579D01*
X10455777Y-12638579D02*
X10465301Y-12676674D01*
X10465301Y-12676674D02*
X10465301Y-12724293D01*
X10465301Y-12724293D02*
X10455777Y-12762388D01*
X10455777Y-12762388D02*
X10446253Y-12781436D01*
X10446253Y-12781436D02*
X10436729Y-12790960D01*
X10436729Y-12790960D02*
X10417682Y-12800484D01*
X10417682Y-12800484D02*
X10398634Y-12800484D01*
X10398634Y-12800484D02*
X10379587Y-12790960D01*
X10379587Y-12790960D02*
X10370063Y-12781436D01*
X10370063Y-12781436D02*
X10360539Y-12762388D01*
X10360539Y-12762388D02*
X10351015Y-12724293D01*
X10351015Y-12724293D02*
X10351015Y-12676674D01*
X10351015Y-12676674D02*
X10360539Y-12638579D01*
X10360539Y-12638579D02*
X10370063Y-12619531D01*
X10370063Y-12619531D02*
X10379587Y-12610008D01*
X10379587Y-12610008D02*
X10398634Y-12600484D01*
X10551015Y-12781436D02*
X10560539Y-12790960D01*
X10560539Y-12790960D02*
X10551015Y-12800484D01*
X10551015Y-12800484D02*
X10541491Y-12790960D01*
X10541491Y-12790960D02*
X10551015Y-12781436D01*
X10551015Y-12781436D02*
X10551015Y-12800484D01*
X10684348Y-12600484D02*
X10703396Y-12600484D01*
X10703396Y-12600484D02*
X10722444Y-12610008D01*
X10722444Y-12610008D02*
X10731968Y-12619531D01*
X10731968Y-12619531D02*
X10741491Y-12638579D01*
X10741491Y-12638579D02*
X10751015Y-12676674D01*
X10751015Y-12676674D02*
X10751015Y-12724293D01*
X10751015Y-12724293D02*
X10741491Y-12762388D01*
X10741491Y-12762388D02*
X10731968Y-12781436D01*
X10731968Y-12781436D02*
X10722444Y-12790960D01*
X10722444Y-12790960D02*
X10703396Y-12800484D01*
X10703396Y-12800484D02*
X10684348Y-12800484D01*
X10684348Y-12800484D02*
X10665301Y-12790960D01*
X10665301Y-12790960D02*
X10655777Y-12781436D01*
X10655777Y-12781436D02*
X10646253Y-12762388D01*
X10646253Y-12762388D02*
X10636729Y-12724293D01*
X10636729Y-12724293D02*
X10636729Y-12676674D01*
X10636729Y-12676674D02*
X10646253Y-12638579D01*
X10646253Y-12638579D02*
X10655777Y-12619531D01*
X10655777Y-12619531D02*
X10665301Y-12610008D01*
X10665301Y-12610008D02*
X10684348Y-12600484D01*
X10874825Y-12600484D02*
X10893872Y-12600484D01*
X10893872Y-12600484D02*
X10912920Y-12610008D01*
X10912920Y-12610008D02*
X10922444Y-12619531D01*
X10922444Y-12619531D02*
X10931968Y-12638579D01*
X10931968Y-12638579D02*
X10941491Y-12676674D01*
X10941491Y-12676674D02*
X10941491Y-12724293D01*
X10941491Y-12724293D02*
X10931968Y-12762388D01*
X10931968Y-12762388D02*
X10922444Y-12781436D01*
X10922444Y-12781436D02*
X10912920Y-12790960D01*
X10912920Y-12790960D02*
X10893872Y-12800484D01*
X10893872Y-12800484D02*
X10874825Y-12800484D01*
X10874825Y-12800484D02*
X10855777Y-12790960D01*
X10855777Y-12790960D02*
X10846253Y-12781436D01*
X10846253Y-12781436D02*
X10836729Y-12762388D01*
X10836729Y-12762388D02*
X10827206Y-12724293D01*
X10827206Y-12724293D02*
X10827206Y-12676674D01*
X10827206Y-12676674D02*
X10836729Y-12638579D01*
X10836729Y-12638579D02*
X10846253Y-12619531D01*
X10846253Y-12619531D02*
X10855777Y-12610008D01*
X10855777Y-12610008D02*
X10874825Y-12600484D01*
X11036729Y-12800484D02*
X11074825Y-12800484D01*
X11074825Y-12800484D02*
X11093872Y-12790960D01*
X11093872Y-12790960D02*
X11103396Y-12781436D01*
X11103396Y-12781436D02*
X11122444Y-12752865D01*
X11122444Y-12752865D02*
X11131968Y-12714769D01*
X11131968Y-12714769D02*
X11131968Y-12638579D01*
X11131968Y-12638579D02*
X11122444Y-12619531D01*
X11122444Y-12619531D02*
X11112920Y-12610008D01*
X11112920Y-12610008D02*
X11093872Y-12600484D01*
X11093872Y-12600484D02*
X11055777Y-12600484D01*
X11055777Y-12600484D02*
X11036729Y-12610008D01*
X11036729Y-12610008D02*
X11027206Y-12619531D01*
X11027206Y-12619531D02*
X11017682Y-12638579D01*
X11017682Y-12638579D02*
X11017682Y-12686198D01*
X11017682Y-12686198D02*
X11027206Y-12705246D01*
X11027206Y-12705246D02*
X11036729Y-12714769D01*
X11036729Y-12714769D02*
X11055777Y-12724293D01*
X11055777Y-12724293D02*
X11093872Y-12724293D01*
X11093872Y-12724293D02*
X11112920Y-12714769D01*
X11112920Y-12714769D02*
X11122444Y-12705246D01*
X11122444Y-12705246D02*
X11131968Y-12686198D01*
X11246253Y-12686198D02*
X11227206Y-12676674D01*
X11227206Y-12676674D02*
X11217682Y-12667150D01*
X11217682Y-12667150D02*
X11208158Y-12648103D01*
X11208158Y-12648103D02*
X11208158Y-12638579D01*
X11208158Y-12638579D02*
X11217682Y-12619531D01*
X11217682Y-12619531D02*
X11227206Y-12610008D01*
X11227206Y-12610008D02*
X11246253Y-12600484D01*
X11246253Y-12600484D02*
X11284348Y-12600484D01*
X11284348Y-12600484D02*
X11303396Y-12610008D01*
X11303396Y-12610008D02*
X11312920Y-12619531D01*
X11312920Y-12619531D02*
X11322444Y-12638579D01*
X11322444Y-12638579D02*
X11322444Y-12648103D01*
X11322444Y-12648103D02*
X11312920Y-12667150D01*
X11312920Y-12667150D02*
X11303396Y-12676674D01*
X11303396Y-12676674D02*
X11284348Y-12686198D01*
X11284348Y-12686198D02*
X11246253Y-12686198D01*
X11246253Y-12686198D02*
X11227206Y-12695722D01*
X11227206Y-12695722D02*
X11217682Y-12705246D01*
X11217682Y-12705246D02*
X11208158Y-12724293D01*
X11208158Y-12724293D02*
X11208158Y-12762388D01*
X11208158Y-12762388D02*
X11217682Y-12781436D01*
X11217682Y-12781436D02*
X11227206Y-12790960D01*
X11227206Y-12790960D02*
X11246253Y-12800484D01*
X11246253Y-12800484D02*
X11284348Y-12800484D01*
X11284348Y-12800484D02*
X11303396Y-12790960D01*
X11303396Y-12790960D02*
X11312920Y-12781436D01*
X11312920Y-12781436D02*
X11322444Y-12762388D01*
X11322444Y-12762388D02*
X11322444Y-12724293D01*
X11322444Y-12724293D02*
X11312920Y-12705246D01*
X11312920Y-12705246D02*
X11303396Y-12695722D01*
X11303396Y-12695722D02*
X11284348Y-12686198D01*
X11398634Y-12600484D02*
X11398634Y-12638579D01*
X11474825Y-12600484D02*
X11474825Y-12638579D01*
X11770063Y-12876674D02*
X11760539Y-12867150D01*
X11760539Y-12867150D02*
X11741491Y-12838579D01*
X11741491Y-12838579D02*
X11731968Y-12819531D01*
X11731968Y-12819531D02*
X11722444Y-12790960D01*
X11722444Y-12790960D02*
X11712920Y-12743341D01*
X11712920Y-12743341D02*
X11712920Y-12705246D01*
X11712920Y-12705246D02*
X11722444Y-12657627D01*
X11722444Y-12657627D02*
X11731968Y-12629055D01*
X11731968Y-12629055D02*
X11741491Y-12610008D01*
X11741491Y-12610008D02*
X11760539Y-12581436D01*
X11760539Y-12581436D02*
X11770063Y-12571912D01*
X11931968Y-12600484D02*
X11893872Y-12600484D01*
X11893872Y-12600484D02*
X11874825Y-12610008D01*
X11874825Y-12610008D02*
X11865301Y-12619531D01*
X11865301Y-12619531D02*
X11846253Y-12648103D01*
X11846253Y-12648103D02*
X11836729Y-12686198D01*
X11836729Y-12686198D02*
X11836729Y-12762388D01*
X11836729Y-12762388D02*
X11846253Y-12781436D01*
X11846253Y-12781436D02*
X11855777Y-12790960D01*
X11855777Y-12790960D02*
X11874825Y-12800484D01*
X11874825Y-12800484D02*
X11912920Y-12800484D01*
X11912920Y-12800484D02*
X11931968Y-12790960D01*
X11931968Y-12790960D02*
X11941491Y-12781436D01*
X11941491Y-12781436D02*
X11951015Y-12762388D01*
X11951015Y-12762388D02*
X11951015Y-12714769D01*
X11951015Y-12714769D02*
X11941491Y-12695722D01*
X11941491Y-12695722D02*
X11931968Y-12686198D01*
X11931968Y-12686198D02*
X11912920Y-12676674D01*
X11912920Y-12676674D02*
X11874825Y-12676674D01*
X11874825Y-12676674D02*
X11855777Y-12686198D01*
X11855777Y-12686198D02*
X11846253Y-12695722D01*
X11846253Y-12695722D02*
X11836729Y-12714769D01*
X12046253Y-12800484D02*
X12084348Y-12800484D01*
X12084348Y-12800484D02*
X12103396Y-12790960D01*
X12103396Y-12790960D02*
X12112920Y-12781436D01*
X12112920Y-12781436D02*
X12131968Y-12752865D01*
X12131968Y-12752865D02*
X12141491Y-12714769D01*
X12141491Y-12714769D02*
X12141491Y-12638579D01*
X12141491Y-12638579D02*
X12131968Y-12619531D01*
X12131968Y-12619531D02*
X12122444Y-12610008D01*
X12122444Y-12610008D02*
X12103396Y-12600484D01*
X12103396Y-12600484D02*
X12065301Y-12600484D01*
X12065301Y-12600484D02*
X12046253Y-12610008D01*
X12046253Y-12610008D02*
X12036729Y-12619531D01*
X12036729Y-12619531D02*
X12027206Y-12638579D01*
X12027206Y-12638579D02*
X12027206Y-12686198D01*
X12027206Y-12686198D02*
X12036729Y-12705246D01*
X12036729Y-12705246D02*
X12046253Y-12714769D01*
X12046253Y-12714769D02*
X12065301Y-12724293D01*
X12065301Y-12724293D02*
X12103396Y-12724293D01*
X12103396Y-12724293D02*
X12122444Y-12714769D01*
X12122444Y-12714769D02*
X12131968Y-12705246D01*
X12131968Y-12705246D02*
X12141491Y-12686198D01*
X12379587Y-12800484D02*
X12379587Y-12600484D01*
X12465301Y-12800484D02*
X12465301Y-12695722D01*
X12465301Y-12695722D02*
X12455777Y-12676674D01*
X12455777Y-12676674D02*
X12436730Y-12667150D01*
X12436730Y-12667150D02*
X12408158Y-12667150D01*
X12408158Y-12667150D02*
X12389110Y-12676674D01*
X12389110Y-12676674D02*
X12379587Y-12686198D01*
X12589110Y-12800484D02*
X12570063Y-12790960D01*
X12570063Y-12790960D02*
X12560539Y-12781436D01*
X12560539Y-12781436D02*
X12551015Y-12762388D01*
X12551015Y-12762388D02*
X12551015Y-12705246D01*
X12551015Y-12705246D02*
X12560539Y-12686198D01*
X12560539Y-12686198D02*
X12570063Y-12676674D01*
X12570063Y-12676674D02*
X12589110Y-12667150D01*
X12589110Y-12667150D02*
X12617682Y-12667150D01*
X12617682Y-12667150D02*
X12636730Y-12676674D01*
X12636730Y-12676674D02*
X12646253Y-12686198D01*
X12646253Y-12686198D02*
X12655777Y-12705246D01*
X12655777Y-12705246D02*
X12655777Y-12762388D01*
X12655777Y-12762388D02*
X12646253Y-12781436D01*
X12646253Y-12781436D02*
X12636730Y-12790960D01*
X12636730Y-12790960D02*
X12617682Y-12800484D01*
X12617682Y-12800484D02*
X12589110Y-12800484D01*
X12770063Y-12800484D02*
X12751015Y-12790960D01*
X12751015Y-12790960D02*
X12741491Y-12771912D01*
X12741491Y-12771912D02*
X12741491Y-12600484D01*
X12922444Y-12790960D02*
X12903396Y-12800484D01*
X12903396Y-12800484D02*
X12865301Y-12800484D01*
X12865301Y-12800484D02*
X12846253Y-12790960D01*
X12846253Y-12790960D02*
X12836730Y-12771912D01*
X12836730Y-12771912D02*
X12836730Y-12695722D01*
X12836730Y-12695722D02*
X12846253Y-12676674D01*
X12846253Y-12676674D02*
X12865301Y-12667150D01*
X12865301Y-12667150D02*
X12903396Y-12667150D01*
X12903396Y-12667150D02*
X12922444Y-12676674D01*
X12922444Y-12676674D02*
X12931968Y-12695722D01*
X12931968Y-12695722D02*
X12931968Y-12714769D01*
X12931968Y-12714769D02*
X12836730Y-12733817D01*
X13008158Y-12790960D02*
X13027206Y-12800484D01*
X13027206Y-12800484D02*
X13065301Y-12800484D01*
X13065301Y-12800484D02*
X13084349Y-12790960D01*
X13084349Y-12790960D02*
X13093872Y-12771912D01*
X13093872Y-12771912D02*
X13093872Y-12762388D01*
X13093872Y-12762388D02*
X13084349Y-12743341D01*
X13084349Y-12743341D02*
X13065301Y-12733817D01*
X13065301Y-12733817D02*
X13036730Y-12733817D01*
X13036730Y-12733817D02*
X13017682Y-12724293D01*
X13017682Y-12724293D02*
X13008158Y-12705246D01*
X13008158Y-12705246D02*
X13008158Y-12695722D01*
X13008158Y-12695722D02*
X13017682Y-12676674D01*
X13017682Y-12676674D02*
X13036730Y-12667150D01*
X13036730Y-12667150D02*
X13065301Y-12667150D01*
X13065301Y-12667150D02*
X13084349Y-12676674D01*
X13160539Y-12876674D02*
X13170063Y-12867150D01*
X13170063Y-12867150D02*
X13189111Y-12838579D01*
X13189111Y-12838579D02*
X13198634Y-12819531D01*
X13198634Y-12819531D02*
X13208158Y-12790960D01*
X13208158Y-12790960D02*
X13217682Y-12743341D01*
X13217682Y-12743341D02*
X13217682Y-12705246D01*
X13217682Y-12705246D02*
X13208158Y-12657627D01*
X13208158Y-12657627D02*
X13198634Y-12629055D01*
X13198634Y-12629055D02*
X13189111Y-12610008D01*
X13189111Y-12610008D02*
X13170063Y-12581436D01*
X13170063Y-12581436D02*
X13160539Y-12571912D01*
D10*
X8180000Y-12958000D02*
X8180000Y-12988000D01*
X8165000Y-12973000D02*
X8195000Y-12973000D01*
D11*
X8493872Y-12864484D02*
X8512920Y-12864484D01*
X8512920Y-12864484D02*
X8531967Y-12874008D01*
X8531967Y-12874008D02*
X8541491Y-12883531D01*
X8541491Y-12883531D02*
X8551015Y-12902579D01*
X8551015Y-12902579D02*
X8560539Y-12940674D01*
X8560539Y-12940674D02*
X8560539Y-12988293D01*
X8560539Y-12988293D02*
X8551015Y-13026388D01*
X8551015Y-13026388D02*
X8541491Y-13045436D01*
X8541491Y-13045436D02*
X8531967Y-13054960D01*
X8531967Y-13054960D02*
X8512920Y-13064484D01*
X8512920Y-13064484D02*
X8493872Y-13064484D01*
X8493872Y-13064484D02*
X8474824Y-13054960D01*
X8474824Y-13054960D02*
X8465301Y-13045436D01*
X8465301Y-13045436D02*
X8455777Y-13026388D01*
X8455777Y-13026388D02*
X8446253Y-12988293D01*
X8446253Y-12988293D02*
X8446253Y-12940674D01*
X8446253Y-12940674D02*
X8455777Y-12902579D01*
X8455777Y-12902579D02*
X8465301Y-12883531D01*
X8465301Y-12883531D02*
X8474824Y-12874008D01*
X8474824Y-12874008D02*
X8493872Y-12864484D01*
X8646253Y-13045436D02*
X8655777Y-13054960D01*
X8655777Y-13054960D02*
X8646253Y-13064484D01*
X8646253Y-13064484D02*
X8636729Y-13054960D01*
X8636729Y-13054960D02*
X8646253Y-13045436D01*
X8646253Y-13045436D02*
X8646253Y-13064484D01*
X8722444Y-12864484D02*
X8846253Y-12864484D01*
X8846253Y-12864484D02*
X8779586Y-12940674D01*
X8779586Y-12940674D02*
X8808158Y-12940674D01*
X8808158Y-12940674D02*
X8827205Y-12950198D01*
X8827205Y-12950198D02*
X8836729Y-12959722D01*
X8836729Y-12959722D02*
X8846253Y-12978769D01*
X8846253Y-12978769D02*
X8846253Y-13026388D01*
X8846253Y-13026388D02*
X8836729Y-13045436D01*
X8836729Y-13045436D02*
X8827205Y-13054960D01*
X8827205Y-13054960D02*
X8808158Y-13064484D01*
X8808158Y-13064484D02*
X8751015Y-13064484D01*
X8751015Y-13064484D02*
X8731967Y-13054960D01*
X8731967Y-13054960D02*
X8722444Y-13045436D01*
X8970063Y-12864484D02*
X8989110Y-12864484D01*
X8989110Y-12864484D02*
X9008158Y-12874008D01*
X9008158Y-12874008D02*
X9017682Y-12883531D01*
X9017682Y-12883531D02*
X9027205Y-12902579D01*
X9027205Y-12902579D02*
X9036729Y-12940674D01*
X9036729Y-12940674D02*
X9036729Y-12988293D01*
X9036729Y-12988293D02*
X9027205Y-13026388D01*
X9027205Y-13026388D02*
X9017682Y-13045436D01*
X9017682Y-13045436D02*
X9008158Y-13054960D01*
X9008158Y-13054960D02*
X8989110Y-13064484D01*
X8989110Y-13064484D02*
X8970063Y-13064484D01*
X8970063Y-13064484D02*
X8951015Y-13054960D01*
X8951015Y-13054960D02*
X8941491Y-13045436D01*
X8941491Y-13045436D02*
X8931967Y-13026388D01*
X8931967Y-13026388D02*
X8922444Y-12988293D01*
X8922444Y-12988293D02*
X8922444Y-12940674D01*
X8922444Y-12940674D02*
X8931967Y-12902579D01*
X8931967Y-12902579D02*
X8941491Y-12883531D01*
X8941491Y-12883531D02*
X8951015Y-12874008D01*
X8951015Y-12874008D02*
X8970063Y-12864484D01*
X9160539Y-12864484D02*
X9179586Y-12864484D01*
X9179586Y-12864484D02*
X9198634Y-12874008D01*
X9198634Y-12874008D02*
X9208158Y-12883531D01*
X9208158Y-12883531D02*
X9217682Y-12902579D01*
X9217682Y-12902579D02*
X9227205Y-12940674D01*
X9227205Y-12940674D02*
X9227205Y-12988293D01*
X9227205Y-12988293D02*
X9217682Y-13026388D01*
X9217682Y-13026388D02*
X9208158Y-13045436D01*
X9208158Y-13045436D02*
X9198634Y-13054960D01*
X9198634Y-13054960D02*
X9179586Y-13064484D01*
X9179586Y-13064484D02*
X9160539Y-13064484D01*
X9160539Y-13064484D02*
X9141491Y-13054960D01*
X9141491Y-13054960D02*
X9131967Y-13045436D01*
X9131967Y-13045436D02*
X9122444Y-13026388D01*
X9122444Y-13026388D02*
X9112920Y-12988293D01*
X9112920Y-12988293D02*
X9112920Y-12940674D01*
X9112920Y-12940674D02*
X9122444Y-12902579D01*
X9122444Y-12902579D02*
X9131967Y-12883531D01*
X9131967Y-12883531D02*
X9141491Y-12874008D01*
X9141491Y-12874008D02*
X9160539Y-12864484D01*
X9312920Y-13064484D02*
X9312920Y-12931150D01*
X9312920Y-12950198D02*
X9322444Y-12940674D01*
X9322444Y-12940674D02*
X9341491Y-12931150D01*
X9341491Y-12931150D02*
X9370063Y-12931150D01*
X9370063Y-12931150D02*
X9389110Y-12940674D01*
X9389110Y-12940674D02*
X9398634Y-12959722D01*
X9398634Y-12959722D02*
X9398634Y-13064484D01*
X9398634Y-12959722D02*
X9408158Y-12940674D01*
X9408158Y-12940674D02*
X9427205Y-12931150D01*
X9427205Y-12931150D02*
X9455777Y-12931150D01*
X9455777Y-12931150D02*
X9474825Y-12940674D01*
X9474825Y-12940674D02*
X9484348Y-12959722D01*
X9484348Y-12959722D02*
X9484348Y-13064484D01*
X9579586Y-13064484D02*
X9579586Y-12931150D01*
X9579586Y-12950198D02*
X9589110Y-12940674D01*
X9589110Y-12940674D02*
X9608158Y-12931150D01*
X9608158Y-12931150D02*
X9636729Y-12931150D01*
X9636729Y-12931150D02*
X9655777Y-12940674D01*
X9655777Y-12940674D02*
X9665301Y-12959722D01*
X9665301Y-12959722D02*
X9665301Y-13064484D01*
X9665301Y-12959722D02*
X9674825Y-12940674D01*
X9674825Y-12940674D02*
X9693872Y-12931150D01*
X9693872Y-12931150D02*
X9722444Y-12931150D01*
X9722444Y-12931150D02*
X9741491Y-12940674D01*
X9741491Y-12940674D02*
X9751015Y-12959722D01*
X9751015Y-12959722D02*
X9751015Y-13064484D01*
X10141491Y-12854960D02*
X9970063Y-13112103D01*
X10398634Y-12864484D02*
X10417682Y-12864484D01*
X10417682Y-12864484D02*
X10436729Y-12874008D01*
X10436729Y-12874008D02*
X10446253Y-12883531D01*
X10446253Y-12883531D02*
X10455777Y-12902579D01*
X10455777Y-12902579D02*
X10465301Y-12940674D01*
X10465301Y-12940674D02*
X10465301Y-12988293D01*
X10465301Y-12988293D02*
X10455777Y-13026388D01*
X10455777Y-13026388D02*
X10446253Y-13045436D01*
X10446253Y-13045436D02*
X10436729Y-13054960D01*
X10436729Y-13054960D02*
X10417682Y-13064484D01*
X10417682Y-13064484D02*
X10398634Y-13064484D01*
X10398634Y-13064484D02*
X10379587Y-13054960D01*
X10379587Y-13054960D02*
X10370063Y-13045436D01*
X10370063Y-13045436D02*
X10360539Y-13026388D01*
X10360539Y-13026388D02*
X10351015Y-12988293D01*
X10351015Y-12988293D02*
X10351015Y-12940674D01*
X10351015Y-12940674D02*
X10360539Y-12902579D01*
X10360539Y-12902579D02*
X10370063Y-12883531D01*
X10370063Y-12883531D02*
X10379587Y-12874008D01*
X10379587Y-12874008D02*
X10398634Y-12864484D01*
X10551015Y-13045436D02*
X10560539Y-13054960D01*
X10560539Y-13054960D02*
X10551015Y-13064484D01*
X10551015Y-13064484D02*
X10541491Y-13054960D01*
X10541491Y-13054960D02*
X10551015Y-13045436D01*
X10551015Y-13045436D02*
X10551015Y-13064484D01*
X10684348Y-12864484D02*
X10703396Y-12864484D01*
X10703396Y-12864484D02*
X10722444Y-12874008D01*
X10722444Y-12874008D02*
X10731968Y-12883531D01*
X10731968Y-12883531D02*
X10741491Y-12902579D01*
X10741491Y-12902579D02*
X10751015Y-12940674D01*
X10751015Y-12940674D02*
X10751015Y-12988293D01*
X10751015Y-12988293D02*
X10741491Y-13026388D01*
X10741491Y-13026388D02*
X10731968Y-13045436D01*
X10731968Y-13045436D02*
X10722444Y-13054960D01*
X10722444Y-13054960D02*
X10703396Y-13064484D01*
X10703396Y-13064484D02*
X10684348Y-13064484D01*
X10684348Y-13064484D02*
X10665301Y-13054960D01*
X10665301Y-13054960D02*
X10655777Y-13045436D01*
X10655777Y-13045436D02*
X10646253Y-13026388D01*
X10646253Y-13026388D02*
X10636729Y-12988293D01*
X10636729Y-12988293D02*
X10636729Y-12940674D01*
X10636729Y-12940674D02*
X10646253Y-12902579D01*
X10646253Y-12902579D02*
X10655777Y-12883531D01*
X10655777Y-12883531D02*
X10665301Y-12874008D01*
X10665301Y-12874008D02*
X10684348Y-12864484D01*
X10941491Y-13064484D02*
X10827206Y-13064484D01*
X10884348Y-13064484D02*
X10884348Y-12864484D01*
X10884348Y-12864484D02*
X10865301Y-12893055D01*
X10865301Y-12893055D02*
X10846253Y-12912103D01*
X10846253Y-12912103D02*
X10827206Y-12921627D01*
X11131968Y-13064484D02*
X11017682Y-13064484D01*
X11074825Y-13064484D02*
X11074825Y-12864484D01*
X11074825Y-12864484D02*
X11055777Y-12893055D01*
X11055777Y-12893055D02*
X11036729Y-12912103D01*
X11036729Y-12912103D02*
X11017682Y-12921627D01*
X11246253Y-12950198D02*
X11227206Y-12940674D01*
X11227206Y-12940674D02*
X11217682Y-12931150D01*
X11217682Y-12931150D02*
X11208158Y-12912103D01*
X11208158Y-12912103D02*
X11208158Y-12902579D01*
X11208158Y-12902579D02*
X11217682Y-12883531D01*
X11217682Y-12883531D02*
X11227206Y-12874008D01*
X11227206Y-12874008D02*
X11246253Y-12864484D01*
X11246253Y-12864484D02*
X11284348Y-12864484D01*
X11284348Y-12864484D02*
X11303396Y-12874008D01*
X11303396Y-12874008D02*
X11312920Y-12883531D01*
X11312920Y-12883531D02*
X11322444Y-12902579D01*
X11322444Y-12902579D02*
X11322444Y-12912103D01*
X11322444Y-12912103D02*
X11312920Y-12931150D01*
X11312920Y-12931150D02*
X11303396Y-12940674D01*
X11303396Y-12940674D02*
X11284348Y-12950198D01*
X11284348Y-12950198D02*
X11246253Y-12950198D01*
X11246253Y-12950198D02*
X11227206Y-12959722D01*
X11227206Y-12959722D02*
X11217682Y-12969246D01*
X11217682Y-12969246D02*
X11208158Y-12988293D01*
X11208158Y-12988293D02*
X11208158Y-13026388D01*
X11208158Y-13026388D02*
X11217682Y-13045436D01*
X11217682Y-13045436D02*
X11227206Y-13054960D01*
X11227206Y-13054960D02*
X11246253Y-13064484D01*
X11246253Y-13064484D02*
X11284348Y-13064484D01*
X11284348Y-13064484D02*
X11303396Y-13054960D01*
X11303396Y-13054960D02*
X11312920Y-13045436D01*
X11312920Y-13045436D02*
X11322444Y-13026388D01*
X11322444Y-13026388D02*
X11322444Y-12988293D01*
X11322444Y-12988293D02*
X11312920Y-12969246D01*
X11312920Y-12969246D02*
X11303396Y-12959722D01*
X11303396Y-12959722D02*
X11284348Y-12950198D01*
X11398634Y-12864484D02*
X11398634Y-12902579D01*
X11474825Y-12864484D02*
X11474825Y-12902579D01*
X11770063Y-13140674D02*
X11760539Y-13131150D01*
X11760539Y-13131150D02*
X11741491Y-13102579D01*
X11741491Y-13102579D02*
X11731968Y-13083531D01*
X11731968Y-13083531D02*
X11722444Y-13054960D01*
X11722444Y-13054960D02*
X11712920Y-13007341D01*
X11712920Y-13007341D02*
X11712920Y-12969246D01*
X11712920Y-12969246D02*
X11722444Y-12921627D01*
X11722444Y-12921627D02*
X11731968Y-12893055D01*
X11731968Y-12893055D02*
X11741491Y-12874008D01*
X11741491Y-12874008D02*
X11760539Y-12845436D01*
X11760539Y-12845436D02*
X11770063Y-12835912D01*
X11951015Y-13064484D02*
X11836729Y-13064484D01*
X11893872Y-13064484D02*
X11893872Y-12864484D01*
X11893872Y-12864484D02*
X11874825Y-12893055D01*
X11874825Y-12893055D02*
X11855777Y-12912103D01*
X11855777Y-12912103D02*
X11836729Y-12921627D01*
X12046253Y-13064484D02*
X12084348Y-13064484D01*
X12084348Y-13064484D02*
X12103396Y-13054960D01*
X12103396Y-13054960D02*
X12112920Y-13045436D01*
X12112920Y-13045436D02*
X12131968Y-13016865D01*
X12131968Y-13016865D02*
X12141491Y-12978769D01*
X12141491Y-12978769D02*
X12141491Y-12902579D01*
X12141491Y-12902579D02*
X12131968Y-12883531D01*
X12131968Y-12883531D02*
X12122444Y-12874008D01*
X12122444Y-12874008D02*
X12103396Y-12864484D01*
X12103396Y-12864484D02*
X12065301Y-12864484D01*
X12065301Y-12864484D02*
X12046253Y-12874008D01*
X12046253Y-12874008D02*
X12036729Y-12883531D01*
X12036729Y-12883531D02*
X12027206Y-12902579D01*
X12027206Y-12902579D02*
X12027206Y-12950198D01*
X12027206Y-12950198D02*
X12036729Y-12969246D01*
X12036729Y-12969246D02*
X12046253Y-12978769D01*
X12046253Y-12978769D02*
X12065301Y-12988293D01*
X12065301Y-12988293D02*
X12103396Y-12988293D01*
X12103396Y-12988293D02*
X12122444Y-12978769D01*
X12122444Y-12978769D02*
X12131968Y-12969246D01*
X12131968Y-12969246D02*
X12141491Y-12950198D01*
X12217682Y-12883531D02*
X12227206Y-12874008D01*
X12227206Y-12874008D02*
X12246253Y-12864484D01*
X12246253Y-12864484D02*
X12293872Y-12864484D01*
X12293872Y-12864484D02*
X12312920Y-12874008D01*
X12312920Y-12874008D02*
X12322444Y-12883531D01*
X12322444Y-12883531D02*
X12331968Y-12902579D01*
X12331968Y-12902579D02*
X12331968Y-12921627D01*
X12331968Y-12921627D02*
X12322444Y-12950198D01*
X12322444Y-12950198D02*
X12208158Y-13064484D01*
X12208158Y-13064484D02*
X12331968Y-13064484D01*
X12570063Y-13064484D02*
X12570063Y-12864484D01*
X12655777Y-13064484D02*
X12655777Y-12959722D01*
X12655777Y-12959722D02*
X12646253Y-12940674D01*
X12646253Y-12940674D02*
X12627206Y-12931150D01*
X12627206Y-12931150D02*
X12598634Y-12931150D01*
X12598634Y-12931150D02*
X12579587Y-12940674D01*
X12579587Y-12940674D02*
X12570063Y-12950198D01*
X12779587Y-13064484D02*
X12760539Y-13054960D01*
X12760539Y-13054960D02*
X12751015Y-13045436D01*
X12751015Y-13045436D02*
X12741491Y-13026388D01*
X12741491Y-13026388D02*
X12741491Y-12969246D01*
X12741491Y-12969246D02*
X12751015Y-12950198D01*
X12751015Y-12950198D02*
X12760539Y-12940674D01*
X12760539Y-12940674D02*
X12779587Y-12931150D01*
X12779587Y-12931150D02*
X12808158Y-12931150D01*
X12808158Y-12931150D02*
X12827206Y-12940674D01*
X12827206Y-12940674D02*
X12836730Y-12950198D01*
X12836730Y-12950198D02*
X12846253Y-12969246D01*
X12846253Y-12969246D02*
X12846253Y-13026388D01*
X12846253Y-13026388D02*
X12836730Y-13045436D01*
X12836730Y-13045436D02*
X12827206Y-13054960D01*
X12827206Y-13054960D02*
X12808158Y-13064484D01*
X12808158Y-13064484D02*
X12779587Y-13064484D01*
X12960539Y-13064484D02*
X12941491Y-13054960D01*
X12941491Y-13054960D02*
X12931968Y-13035912D01*
X12931968Y-13035912D02*
X12931968Y-12864484D01*
X13112920Y-13054960D02*
X13093872Y-13064484D01*
X13093872Y-13064484D02*
X13055777Y-13064484D01*
X13055777Y-13064484D02*
X13036730Y-13054960D01*
X13036730Y-13054960D02*
X13027206Y-13035912D01*
X13027206Y-13035912D02*
X13027206Y-12959722D01*
X13027206Y-12959722D02*
X13036730Y-12940674D01*
X13036730Y-12940674D02*
X13055777Y-12931150D01*
X13055777Y-12931150D02*
X13093872Y-12931150D01*
X13093872Y-12931150D02*
X13112920Y-12940674D01*
X13112920Y-12940674D02*
X13122444Y-12959722D01*
X13122444Y-12959722D02*
X13122444Y-12978769D01*
X13122444Y-12978769D02*
X13027206Y-12997817D01*
X13198634Y-13054960D02*
X13217682Y-13064484D01*
X13217682Y-13064484D02*
X13255777Y-13064484D01*
X13255777Y-13064484D02*
X13274825Y-13054960D01*
X13274825Y-13054960D02*
X13284349Y-13035912D01*
X13284349Y-13035912D02*
X13284349Y-13026388D01*
X13284349Y-13026388D02*
X13274825Y-13007341D01*
X13274825Y-13007341D02*
X13255777Y-12997817D01*
X13255777Y-12997817D02*
X13227206Y-12997817D01*
X13227206Y-12997817D02*
X13208158Y-12988293D01*
X13208158Y-12988293D02*
X13198634Y-12969246D01*
X13198634Y-12969246D02*
X13198634Y-12959722D01*
X13198634Y-12959722D02*
X13208158Y-12940674D01*
X13208158Y-12940674D02*
X13227206Y-12931150D01*
X13227206Y-12931150D02*
X13255777Y-12931150D01*
X13255777Y-12931150D02*
X13274825Y-12940674D01*
X13351015Y-13140674D02*
X13360539Y-13131150D01*
X13360539Y-13131150D02*
X13379587Y-13102579D01*
X13379587Y-13102579D02*
X13389111Y-13083531D01*
X13389111Y-13083531D02*
X13398634Y-13054960D01*
X13398634Y-13054960D02*
X13408158Y-13007341D01*
X13408158Y-13007341D02*
X13408158Y-12969246D01*
X13408158Y-12969246D02*
X13398634Y-12921627D01*
X13398634Y-12921627D02*
X13389111Y-12893055D01*
X13389111Y-12893055D02*
X13379587Y-12874008D01*
X13379587Y-12874008D02*
X13360539Y-12845436D01*
X13360539Y-12845436D02*
X13351015Y-12835912D01*
D12*
X8171569Y-13293569D02*
X8171569Y-13180431D01*
X8058431Y-13180431D01*
X8058431Y-13293569D01*
X8171569Y-13293569D01*
D11*
X8560539Y-13328484D02*
X8446253Y-13328484D01*
X8503396Y-13328484D02*
X8503396Y-13128484D01*
X8503396Y-13128484D02*
X8484348Y-13157055D01*
X8484348Y-13157055D02*
X8465301Y-13176103D01*
X8465301Y-13176103D02*
X8446253Y-13185627D01*
X8646253Y-13309436D02*
X8655777Y-13318960D01*
X8655777Y-13318960D02*
X8646253Y-13328484D01*
X8646253Y-13328484D02*
X8636729Y-13318960D01*
X8636729Y-13318960D02*
X8646253Y-13309436D01*
X8646253Y-13309436D02*
X8646253Y-13328484D01*
X8827205Y-13128484D02*
X8789110Y-13128484D01*
X8789110Y-13128484D02*
X8770063Y-13138008D01*
X8770063Y-13138008D02*
X8760539Y-13147531D01*
X8760539Y-13147531D02*
X8741491Y-13176103D01*
X8741491Y-13176103D02*
X8731967Y-13214198D01*
X8731967Y-13214198D02*
X8731967Y-13290388D01*
X8731967Y-13290388D02*
X8741491Y-13309436D01*
X8741491Y-13309436D02*
X8751015Y-13318960D01*
X8751015Y-13318960D02*
X8770063Y-13328484D01*
X8770063Y-13328484D02*
X8808158Y-13328484D01*
X8808158Y-13328484D02*
X8827205Y-13318960D01*
X8827205Y-13318960D02*
X8836729Y-13309436D01*
X8836729Y-13309436D02*
X8846253Y-13290388D01*
X8846253Y-13290388D02*
X8846253Y-13242769D01*
X8846253Y-13242769D02*
X8836729Y-13223722D01*
X8836729Y-13223722D02*
X8827205Y-13214198D01*
X8827205Y-13214198D02*
X8808158Y-13204674D01*
X8808158Y-13204674D02*
X8770063Y-13204674D01*
X8770063Y-13204674D02*
X8751015Y-13214198D01*
X8751015Y-13214198D02*
X8741491Y-13223722D01*
X8741491Y-13223722D02*
X8731967Y-13242769D01*
X8970063Y-13128484D02*
X8989110Y-13128484D01*
X8989110Y-13128484D02*
X9008158Y-13138008D01*
X9008158Y-13138008D02*
X9017682Y-13147531D01*
X9017682Y-13147531D02*
X9027205Y-13166579D01*
X9027205Y-13166579D02*
X9036729Y-13204674D01*
X9036729Y-13204674D02*
X9036729Y-13252293D01*
X9036729Y-13252293D02*
X9027205Y-13290388D01*
X9027205Y-13290388D02*
X9017682Y-13309436D01*
X9017682Y-13309436D02*
X9008158Y-13318960D01*
X9008158Y-13318960D02*
X8989110Y-13328484D01*
X8989110Y-13328484D02*
X8970063Y-13328484D01*
X8970063Y-13328484D02*
X8951015Y-13318960D01*
X8951015Y-13318960D02*
X8941491Y-13309436D01*
X8941491Y-13309436D02*
X8931967Y-13290388D01*
X8931967Y-13290388D02*
X8922444Y-13252293D01*
X8922444Y-13252293D02*
X8922444Y-13204674D01*
X8922444Y-13204674D02*
X8931967Y-13166579D01*
X8931967Y-13166579D02*
X8941491Y-13147531D01*
X8941491Y-13147531D02*
X8951015Y-13138008D01*
X8951015Y-13138008D02*
X8970063Y-13128484D01*
X9160539Y-13128484D02*
X9179586Y-13128484D01*
X9179586Y-13128484D02*
X9198634Y-13138008D01*
X9198634Y-13138008D02*
X9208158Y-13147531D01*
X9208158Y-13147531D02*
X9217682Y-13166579D01*
X9217682Y-13166579D02*
X9227205Y-13204674D01*
X9227205Y-13204674D02*
X9227205Y-13252293D01*
X9227205Y-13252293D02*
X9217682Y-13290388D01*
X9217682Y-13290388D02*
X9208158Y-13309436D01*
X9208158Y-13309436D02*
X9198634Y-13318960D01*
X9198634Y-13318960D02*
X9179586Y-13328484D01*
X9179586Y-13328484D02*
X9160539Y-13328484D01*
X9160539Y-13328484D02*
X9141491Y-13318960D01*
X9141491Y-13318960D02*
X9131967Y-13309436D01*
X9131967Y-13309436D02*
X9122444Y-13290388D01*
X9122444Y-13290388D02*
X9112920Y-13252293D01*
X9112920Y-13252293D02*
X9112920Y-13204674D01*
X9112920Y-13204674D02*
X9122444Y-13166579D01*
X9122444Y-13166579D02*
X9131967Y-13147531D01*
X9131967Y-13147531D02*
X9141491Y-13138008D01*
X9141491Y-13138008D02*
X9160539Y-13128484D01*
X9312920Y-13328484D02*
X9312920Y-13195150D01*
X9312920Y-13214198D02*
X9322444Y-13204674D01*
X9322444Y-13204674D02*
X9341491Y-13195150D01*
X9341491Y-13195150D02*
X9370063Y-13195150D01*
X9370063Y-13195150D02*
X9389110Y-13204674D01*
X9389110Y-13204674D02*
X9398634Y-13223722D01*
X9398634Y-13223722D02*
X9398634Y-13328484D01*
X9398634Y-13223722D02*
X9408158Y-13204674D01*
X9408158Y-13204674D02*
X9427205Y-13195150D01*
X9427205Y-13195150D02*
X9455777Y-13195150D01*
X9455777Y-13195150D02*
X9474825Y-13204674D01*
X9474825Y-13204674D02*
X9484348Y-13223722D01*
X9484348Y-13223722D02*
X9484348Y-13328484D01*
X9579586Y-13328484D02*
X9579586Y-13195150D01*
X9579586Y-13214198D02*
X9589110Y-13204674D01*
X9589110Y-13204674D02*
X9608158Y-13195150D01*
X9608158Y-13195150D02*
X9636729Y-13195150D01*
X9636729Y-13195150D02*
X9655777Y-13204674D01*
X9655777Y-13204674D02*
X9665301Y-13223722D01*
X9665301Y-13223722D02*
X9665301Y-13328484D01*
X9665301Y-13223722D02*
X9674825Y-13204674D01*
X9674825Y-13204674D02*
X9693872Y-13195150D01*
X9693872Y-13195150D02*
X9722444Y-13195150D01*
X9722444Y-13195150D02*
X9741491Y-13204674D01*
X9741491Y-13204674D02*
X9751015Y-13223722D01*
X9751015Y-13223722D02*
X9751015Y-13328484D01*
X10141491Y-13118960D02*
X9970063Y-13376103D01*
X10398634Y-13128484D02*
X10417682Y-13128484D01*
X10417682Y-13128484D02*
X10436729Y-13138008D01*
X10436729Y-13138008D02*
X10446253Y-13147531D01*
X10446253Y-13147531D02*
X10455777Y-13166579D01*
X10455777Y-13166579D02*
X10465301Y-13204674D01*
X10465301Y-13204674D02*
X10465301Y-13252293D01*
X10465301Y-13252293D02*
X10455777Y-13290388D01*
X10455777Y-13290388D02*
X10446253Y-13309436D01*
X10446253Y-13309436D02*
X10436729Y-13318960D01*
X10436729Y-13318960D02*
X10417682Y-13328484D01*
X10417682Y-13328484D02*
X10398634Y-13328484D01*
X10398634Y-13328484D02*
X10379587Y-13318960D01*
X10379587Y-13318960D02*
X10370063Y-13309436D01*
X10370063Y-13309436D02*
X10360539Y-13290388D01*
X10360539Y-13290388D02*
X10351015Y-13252293D01*
X10351015Y-13252293D02*
X10351015Y-13204674D01*
X10351015Y-13204674D02*
X10360539Y-13166579D01*
X10360539Y-13166579D02*
X10370063Y-13147531D01*
X10370063Y-13147531D02*
X10379587Y-13138008D01*
X10379587Y-13138008D02*
X10398634Y-13128484D01*
X10551015Y-13309436D02*
X10560539Y-13318960D01*
X10560539Y-13318960D02*
X10551015Y-13328484D01*
X10551015Y-13328484D02*
X10541491Y-13318960D01*
X10541491Y-13318960D02*
X10551015Y-13309436D01*
X10551015Y-13309436D02*
X10551015Y-13328484D01*
X10684348Y-13128484D02*
X10703396Y-13128484D01*
X10703396Y-13128484D02*
X10722444Y-13138008D01*
X10722444Y-13138008D02*
X10731968Y-13147531D01*
X10731968Y-13147531D02*
X10741491Y-13166579D01*
X10741491Y-13166579D02*
X10751015Y-13204674D01*
X10751015Y-13204674D02*
X10751015Y-13252293D01*
X10751015Y-13252293D02*
X10741491Y-13290388D01*
X10741491Y-13290388D02*
X10731968Y-13309436D01*
X10731968Y-13309436D02*
X10722444Y-13318960D01*
X10722444Y-13318960D02*
X10703396Y-13328484D01*
X10703396Y-13328484D02*
X10684348Y-13328484D01*
X10684348Y-13328484D02*
X10665301Y-13318960D01*
X10665301Y-13318960D02*
X10655777Y-13309436D01*
X10655777Y-13309436D02*
X10646253Y-13290388D01*
X10646253Y-13290388D02*
X10636729Y-13252293D01*
X10636729Y-13252293D02*
X10636729Y-13204674D01*
X10636729Y-13204674D02*
X10646253Y-13166579D01*
X10646253Y-13166579D02*
X10655777Y-13147531D01*
X10655777Y-13147531D02*
X10665301Y-13138008D01*
X10665301Y-13138008D02*
X10684348Y-13128484D01*
X10922444Y-13128484D02*
X10884348Y-13128484D01*
X10884348Y-13128484D02*
X10865301Y-13138008D01*
X10865301Y-13138008D02*
X10855777Y-13147531D01*
X10855777Y-13147531D02*
X10836729Y-13176103D01*
X10836729Y-13176103D02*
X10827206Y-13214198D01*
X10827206Y-13214198D02*
X10827206Y-13290388D01*
X10827206Y-13290388D02*
X10836729Y-13309436D01*
X10836729Y-13309436D02*
X10846253Y-13318960D01*
X10846253Y-13318960D02*
X10865301Y-13328484D01*
X10865301Y-13328484D02*
X10903396Y-13328484D01*
X10903396Y-13328484D02*
X10922444Y-13318960D01*
X10922444Y-13318960D02*
X10931968Y-13309436D01*
X10931968Y-13309436D02*
X10941491Y-13290388D01*
X10941491Y-13290388D02*
X10941491Y-13242769D01*
X10941491Y-13242769D02*
X10931968Y-13223722D01*
X10931968Y-13223722D02*
X10922444Y-13214198D01*
X10922444Y-13214198D02*
X10903396Y-13204674D01*
X10903396Y-13204674D02*
X10865301Y-13204674D01*
X10865301Y-13204674D02*
X10846253Y-13214198D01*
X10846253Y-13214198D02*
X10836729Y-13223722D01*
X10836729Y-13223722D02*
X10827206Y-13242769D01*
X11008158Y-13128484D02*
X11131968Y-13128484D01*
X11131968Y-13128484D02*
X11065301Y-13204674D01*
X11065301Y-13204674D02*
X11093872Y-13204674D01*
X11093872Y-13204674D02*
X11112920Y-13214198D01*
X11112920Y-13214198D02*
X11122444Y-13223722D01*
X11122444Y-13223722D02*
X11131968Y-13242769D01*
X11131968Y-13242769D02*
X11131968Y-13290388D01*
X11131968Y-13290388D02*
X11122444Y-13309436D01*
X11122444Y-13309436D02*
X11112920Y-13318960D01*
X11112920Y-13318960D02*
X11093872Y-13328484D01*
X11093872Y-13328484D02*
X11036729Y-13328484D01*
X11036729Y-13328484D02*
X11017682Y-13318960D01*
X11017682Y-13318960D02*
X11008158Y-13309436D01*
X11255777Y-13128484D02*
X11274825Y-13128484D01*
X11274825Y-13128484D02*
X11293872Y-13138008D01*
X11293872Y-13138008D02*
X11303396Y-13147531D01*
X11303396Y-13147531D02*
X11312920Y-13166579D01*
X11312920Y-13166579D02*
X11322444Y-13204674D01*
X11322444Y-13204674D02*
X11322444Y-13252293D01*
X11322444Y-13252293D02*
X11312920Y-13290388D01*
X11312920Y-13290388D02*
X11303396Y-13309436D01*
X11303396Y-13309436D02*
X11293872Y-13318960D01*
X11293872Y-13318960D02*
X11274825Y-13328484D01*
X11274825Y-13328484D02*
X11255777Y-13328484D01*
X11255777Y-13328484D02*
X11236729Y-13318960D01*
X11236729Y-13318960D02*
X11227206Y-13309436D01*
X11227206Y-13309436D02*
X11217682Y-13290388D01*
X11217682Y-13290388D02*
X11208158Y-13252293D01*
X11208158Y-13252293D02*
X11208158Y-13204674D01*
X11208158Y-13204674D02*
X11217682Y-13166579D01*
X11217682Y-13166579D02*
X11227206Y-13147531D01*
X11227206Y-13147531D02*
X11236729Y-13138008D01*
X11236729Y-13138008D02*
X11255777Y-13128484D01*
X11398634Y-13128484D02*
X11398634Y-13166579D01*
X11474825Y-13128484D02*
X11474825Y-13166579D01*
X11770063Y-13404674D02*
X11760539Y-13395150D01*
X11760539Y-13395150D02*
X11741491Y-13366579D01*
X11741491Y-13366579D02*
X11731968Y-13347531D01*
X11731968Y-13347531D02*
X11722444Y-13318960D01*
X11722444Y-13318960D02*
X11712920Y-13271341D01*
X11712920Y-13271341D02*
X11712920Y-13233246D01*
X11712920Y-13233246D02*
X11722444Y-13185627D01*
X11722444Y-13185627D02*
X11731968Y-13157055D01*
X11731968Y-13157055D02*
X11741491Y-13138008D01*
X11741491Y-13138008D02*
X11760539Y-13109436D01*
X11760539Y-13109436D02*
X11770063Y-13099912D01*
X11836729Y-13147531D02*
X11846253Y-13138008D01*
X11846253Y-13138008D02*
X11865301Y-13128484D01*
X11865301Y-13128484D02*
X11912920Y-13128484D01*
X11912920Y-13128484D02*
X11931968Y-13138008D01*
X11931968Y-13138008D02*
X11941491Y-13147531D01*
X11941491Y-13147531D02*
X11951015Y-13166579D01*
X11951015Y-13166579D02*
X11951015Y-13185627D01*
X11951015Y-13185627D02*
X11941491Y-13214198D01*
X11941491Y-13214198D02*
X11827206Y-13328484D01*
X11827206Y-13328484D02*
X11951015Y-13328484D01*
X12189110Y-13328484D02*
X12189110Y-13128484D01*
X12274825Y-13328484D02*
X12274825Y-13223722D01*
X12274825Y-13223722D02*
X12265301Y-13204674D01*
X12265301Y-13204674D02*
X12246253Y-13195150D01*
X12246253Y-13195150D02*
X12217682Y-13195150D01*
X12217682Y-13195150D02*
X12198634Y-13204674D01*
X12198634Y-13204674D02*
X12189110Y-13214198D01*
X12398634Y-13328484D02*
X12379587Y-13318960D01*
X12379587Y-13318960D02*
X12370063Y-13309436D01*
X12370063Y-13309436D02*
X12360539Y-13290388D01*
X12360539Y-13290388D02*
X12360539Y-13233246D01*
X12360539Y-13233246D02*
X12370063Y-13214198D01*
X12370063Y-13214198D02*
X12379587Y-13204674D01*
X12379587Y-13204674D02*
X12398634Y-13195150D01*
X12398634Y-13195150D02*
X12427206Y-13195150D01*
X12427206Y-13195150D02*
X12446253Y-13204674D01*
X12446253Y-13204674D02*
X12455777Y-13214198D01*
X12455777Y-13214198D02*
X12465301Y-13233246D01*
X12465301Y-13233246D02*
X12465301Y-13290388D01*
X12465301Y-13290388D02*
X12455777Y-13309436D01*
X12455777Y-13309436D02*
X12446253Y-13318960D01*
X12446253Y-13318960D02*
X12427206Y-13328484D01*
X12427206Y-13328484D02*
X12398634Y-13328484D01*
X12579587Y-13328484D02*
X12560539Y-13318960D01*
X12560539Y-13318960D02*
X12551015Y-13299912D01*
X12551015Y-13299912D02*
X12551015Y-13128484D01*
X12731968Y-13318960D02*
X12712920Y-13328484D01*
X12712920Y-13328484D02*
X12674825Y-13328484D01*
X12674825Y-13328484D02*
X12655777Y-13318960D01*
X12655777Y-13318960D02*
X12646253Y-13299912D01*
X12646253Y-13299912D02*
X12646253Y-13223722D01*
X12646253Y-13223722D02*
X12655777Y-13204674D01*
X12655777Y-13204674D02*
X12674825Y-13195150D01*
X12674825Y-13195150D02*
X12712920Y-13195150D01*
X12712920Y-13195150D02*
X12731968Y-13204674D01*
X12731968Y-13204674D02*
X12741491Y-13223722D01*
X12741491Y-13223722D02*
X12741491Y-13242769D01*
X12741491Y-13242769D02*
X12646253Y-13261817D01*
X12817682Y-13318960D02*
X12836730Y-13328484D01*
X12836730Y-13328484D02*
X12874825Y-13328484D01*
X12874825Y-13328484D02*
X12893872Y-13318960D01*
X12893872Y-13318960D02*
X12903396Y-13299912D01*
X12903396Y-13299912D02*
X12903396Y-13290388D01*
X12903396Y-13290388D02*
X12893872Y-13271341D01*
X12893872Y-13271341D02*
X12874825Y-13261817D01*
X12874825Y-13261817D02*
X12846253Y-13261817D01*
X12846253Y-13261817D02*
X12827206Y-13252293D01*
X12827206Y-13252293D02*
X12817682Y-13233246D01*
X12817682Y-13233246D02*
X12817682Y-13223722D01*
X12817682Y-13223722D02*
X12827206Y-13204674D01*
X12827206Y-13204674D02*
X12846253Y-13195150D01*
X12846253Y-13195150D02*
X12874825Y-13195150D01*
X12874825Y-13195150D02*
X12893872Y-13204674D01*
X12970063Y-13404674D02*
X12979587Y-13395150D01*
X12979587Y-13395150D02*
X12998634Y-13366579D01*
X12998634Y-13366579D02*
X13008158Y-13347531D01*
X13008158Y-13347531D02*
X13017682Y-13318960D01*
X13017682Y-13318960D02*
X13027206Y-13271341D01*
X13027206Y-13271341D02*
X13027206Y-13233246D01*
X13027206Y-13233246D02*
X13017682Y-13185627D01*
X13017682Y-13185627D02*
X13008158Y-13157055D01*
X13008158Y-13157055D02*
X12998634Y-13138008D01*
X12998634Y-13138008D02*
X12979587Y-13109436D01*
X12979587Y-13109436D02*
X12970063Y-13099912D01*
M02*
