%TF.GenerationSoftware,KiCad,Pcbnew,10.0.6-10.0.6~ubuntu24.04.1*%
%TF.CreationDate,2026-09-26T05:50:46+00:00*%
%TF.ProjectId,cheapdrone-fc,63686561-7064-4726-9f6e-652d66632e6b,rev?*%
%TF.SameCoordinates,Original*%
%TF.FileFunction,Copper,L2,Inr*%
%TF.FilePolarity,Positive*%
%FSLAX46Y46*%
G04 Gerber Fmt 4.6, Leading zero omitted, Abs format (unit mm)*
G04 Created by KiCad (PCBNEW 10.0.6-10.0.6~ubuntu24.04.1) date 2026-09-26 05:50:46*
%MOMM*%
%LPD*%
G01*
G04 APERTURE LIST*
%TA.AperFunction,ComponentPad*%
%ADD10O,2.000000X1.200000*%
%TD*%
%TA.AperFunction,ComponentPad*%
%ADD11O,1.800000X1.200000*%
%TD*%
%TA.AperFunction,ViaPad*%
%ADD12C,0.500000*%
%TD*%
%TA.AperFunction,ViaPad*%
%ADD13C,0.450000*%
%TD*%
G04 APERTURE END LIST*
D10*
%TO.N,GND*%
%TO.C,J_USB*%
X89500000Y-104330000D03*
D11*
X85320000Y-104330000D03*
X85320000Y-95670000D03*
D10*
X89500000Y-95670000D03*
%TD*%
D12*
%TO.N,GND*%
X100500000Y-101000000D03*
X98500000Y-86700000D03*
X101500000Y-88700000D03*
X97500000Y-96000000D03*
X101500000Y-86700000D03*
X104200000Y-87150000D03*
X107197000Y-103803000D03*
X106340000Y-96220000D03*
X91400000Y-110590000D03*
X101500000Y-97000000D03*
X98500000Y-97000000D03*
X97500000Y-100000000D03*
X101500000Y-99000000D03*
X101500000Y-101000000D03*
X102500000Y-99000000D03*
X106400000Y-110750000D03*
X95090000Y-93700000D03*
X98500000Y-87700000D03*
X108010000Y-104700000D03*
X97500000Y-101000000D03*
X94764400Y-105350000D03*
X107610000Y-110000000D03*
X90913800Y-95953000D03*
X98500000Y-99000000D03*
X99500000Y-96000000D03*
X105663000Y-99889100D03*
X99500000Y-101000000D03*
X102500000Y-96000000D03*
X100500000Y-96000000D03*
X101500000Y-98000000D03*
X93650000Y-100200000D03*
X100500000Y-100000000D03*
X101500000Y-87700000D03*
X85420000Y-91400000D03*
X111200000Y-106170000D03*
X99500000Y-86700000D03*
X97500000Y-97000000D03*
X98500000Y-96000000D03*
X99500000Y-99000000D03*
X99232600Y-107735000D03*
X97048700Y-110453000D03*
X99500000Y-98000000D03*
X95260100Y-104666000D03*
X114743000Y-100610000D03*
X98500000Y-88700000D03*
X108038000Y-93845800D03*
X98500000Y-100000000D03*
X113805000Y-94905000D03*
X92308500Y-110575000D03*
X109300000Y-88590000D03*
X99500000Y-88700000D03*
X93070000Y-108249000D03*
X102500000Y-100000000D03*
X97500000Y-98000000D03*
X100500000Y-99000000D03*
X90913800Y-104047000D03*
X99500000Y-100000000D03*
X93600000Y-87590000D03*
X110116000Y-100504000D03*
X108274000Y-97260000D03*
X108568000Y-101800000D03*
X93862700Y-114937000D03*
X98500000Y-101000000D03*
X93660000Y-101250000D03*
X109200000Y-106190000D03*
X102500000Y-97000000D03*
X110116000Y-102604000D03*
X104300000Y-103390000D03*
X101500000Y-96000000D03*
X99500000Y-97000000D03*
X99500000Y-87700000D03*
X100500000Y-87700000D03*
X97910000Y-108321000D03*
X105969000Y-96637800D03*
X110915000Y-95250400D03*
X85378400Y-109684000D03*
X102500000Y-98000000D03*
X96700000Y-84790000D03*
X93714400Y-104390000D03*
X102500000Y-101000000D03*
X92690000Y-99106000D03*
X100500000Y-88700000D03*
X100500000Y-97000000D03*
X108489000Y-100964000D03*
X97500000Y-99000000D03*
X87398800Y-105633000D03*
X100500000Y-86700000D03*
X100500000Y-98000000D03*
X101500000Y-100000000D03*
X98500000Y-98000000D03*
X108600000Y-110790000D03*
X102463000Y-91602600D03*
X106403000Y-99797000D03*
X97061100Y-104806000D03*
X106403000Y-103803000D03*
X107197000Y-99797000D03*
X106658000Y-109714000D03*
D13*
%TO.N,VBAT*%
X98937500Y-113306400D03*
X109014200Y-91050000D03*
%TO.N,UART1_TX*%
X102600000Y-90700000D03*
X99800000Y-94250000D03*
D12*
%TO.N,+3V3*%
X97061100Y-102435000D03*
X104415000Y-97183500D03*
X104808000Y-105673000D03*
X97536600Y-83797400D03*
X98666200Y-83903400D03*
X109077000Y-100433000D03*
X96055100Y-101439000D03*
X106219000Y-97892200D03*
X96700000Y-91350000D03*
X96700000Y-87210000D03*
X104417000Y-96214200D03*
X114422000Y-108922000D03*
X115422000Y-108922000D03*
X100846000Y-91743100D03*
X109200000Y-108610000D03*
X97714200Y-94083400D03*
X90850000Y-107500000D03*
X112300000Y-105850000D03*
X104461000Y-95514900D03*
X104300000Y-105810000D03*
X116116000Y-97421600D03*
X103939000Y-97458900D03*
D13*
%TO.N,SPI1_MISO*%
X104750000Y-102100000D03*
X104400000Y-101150000D03*
%TO.N,GYRO_INT*%
X107600000Y-102900000D03*
X102850000Y-102100000D03*
%TO.N,SPI1_MOSI*%
X106350000Y-102250000D03*
X104300000Y-100350000D03*
%TO.N,UART2_TX*%
X87191100Y-94265000D03*
X94167900Y-97163800D03*
%TO.N,BOOT0*%
X113800000Y-105300000D03*
X94900000Y-106800000D03*
X95850000Y-100250000D03*
%TO.N,HSE_IN*%
X97900000Y-103700000D03*
X96750000Y-106450000D03*
%TO.N,NRST*%
X99523200Y-105350000D03*
X97567600Y-89719700D03*
%TO.N,ADC_CURR*%
X107800000Y-111300000D03*
X109900000Y-108150000D03*
%TO.N,ADC_VBAT*%
X98869700Y-109734800D03*
X104333000Y-98287500D03*
%TO.N,TLM*%
X103550000Y-95272400D03*
X100103200Y-110373600D03*
%TO.N,SPI2_SCK*%
X101250000Y-89800000D03*
X101100000Y-85550000D03*
%TO.N,SPI2_MOSI*%
X101100000Y-94200000D03*
X102500000Y-85800000D03*
%TO.N,UART1_RX*%
X99300000Y-93750000D03*
X102550000Y-87149999D03*
%TO.N,USB_DM*%
X93550000Y-92300000D03*
X95150000Y-94350000D03*
X88450000Y-97850000D03*
X95150000Y-92600000D03*
%TO.N,USB_DP*%
X89300000Y-99700000D03*
X91300000Y-96900000D03*
%TO.N,SWDIO*%
X97050000Y-94400000D03*
X95150000Y-91899999D03*
%TO.N,SWCLK*%
X95400000Y-90350000D03*
X96750000Y-95600000D03*
%TO.N,BEEPER*%
X93950000Y-109550000D03*
X95550000Y-96750000D03*
%TO.N,UART4_TX*%
X94673400Y-86413400D03*
X95224700Y-96290400D03*
%TO.N,UART4_RX*%
X94045600Y-86886600D03*
X94237500Y-96590900D03*
%TO.N,UART2_RX*%
X86056500Y-92800000D03*
X94553800Y-98250000D03*
%TO.N,LED_STRIP*%
X93682500Y-99318000D03*
X86655800Y-104380100D03*
%TO.N,LED0*%
X94750000Y-100550000D03*
X91800000Y-105300000D03*
%TO.N,+5V*%
X90843200Y-105299000D03*
X96083600Y-113888200D03*
%TO.N,USB_VBUS*%
X92691600Y-96768100D03*
X92398400Y-93437500D03*
X90899999Y-97600000D03*
X91915800Y-102400000D03*
%TO.N,CUR*%
X105111700Y-112372500D03*
X102761600Y-113101800D03*
%TD*%
%TA.AperFunction,Conductor*%
%TO.N,GND*%
G36*
X97103697Y-83468907D02*
G01*
X97139661Y-83518407D01*
X97139661Y-83579593D01*
X97131242Y-83598500D01*
X97116802Y-83623509D01*
X97116801Y-83623514D01*
X97086100Y-83738091D01*
X97086100Y-83856709D01*
X97113174Y-83957751D01*
X97116802Y-83971290D01*
X97176107Y-84074008D01*
X97176109Y-84074010D01*
X97176111Y-84074013D01*
X97259987Y-84157889D01*
X97259989Y-84157890D01*
X97259991Y-84157892D01*
X97362710Y-84217197D01*
X97362711Y-84217197D01*
X97362714Y-84217199D01*
X97477291Y-84247900D01*
X97477293Y-84247900D01*
X97595907Y-84247900D01*
X97595909Y-84247900D01*
X97710486Y-84217199D01*
X97710488Y-84217197D01*
X97710490Y-84217197D01*
X97813208Y-84157892D01*
X97813208Y-84157891D01*
X97813213Y-84157889D01*
X97897089Y-84074013D01*
X97956399Y-83971286D01*
X97987100Y-83856709D01*
X97987100Y-83738091D01*
X97956399Y-83623514D01*
X97956397Y-83623511D01*
X97956397Y-83623509D01*
X97941958Y-83598500D01*
X97929236Y-83538652D01*
X97954123Y-83482756D01*
X98007111Y-83452163D01*
X98027694Y-83450000D01*
X98243491Y-83450000D01*
X98301682Y-83468907D01*
X98337646Y-83518407D01*
X98337646Y-83579593D01*
X98313496Y-83619001D01*
X98308989Y-83623509D01*
X98305708Y-83626790D01*
X98305707Y-83626791D01*
X98246402Y-83729509D01*
X98229237Y-83793569D01*
X98215700Y-83844091D01*
X98215700Y-83962709D01*
X98242774Y-84063751D01*
X98246402Y-84077290D01*
X98305707Y-84180008D01*
X98305709Y-84180010D01*
X98305711Y-84180013D01*
X98389587Y-84263889D01*
X98389589Y-84263890D01*
X98389591Y-84263892D01*
X98492310Y-84323197D01*
X98492311Y-84323197D01*
X98492314Y-84323199D01*
X98606891Y-84353900D01*
X98606893Y-84353900D01*
X98725507Y-84353900D01*
X98725509Y-84353900D01*
X98840086Y-84323199D01*
X98840088Y-84323197D01*
X98840090Y-84323197D01*
X98942808Y-84263892D01*
X98942808Y-84263891D01*
X98942813Y-84263889D01*
X99026689Y-84180013D01*
X99039461Y-84157892D01*
X99085997Y-84077290D01*
X99085997Y-84077288D01*
X99085999Y-84077286D01*
X99116700Y-83962709D01*
X99116700Y-83844091D01*
X99085999Y-83729514D01*
X99085997Y-83729511D01*
X99085997Y-83729509D01*
X99026692Y-83626791D01*
X99026690Y-83626789D01*
X99026689Y-83626787D01*
X99018903Y-83619001D01*
X98991128Y-83564487D01*
X99000699Y-83504055D01*
X99043964Y-83460790D01*
X99088909Y-83450000D01*
X116451000Y-83450000D01*
X116509191Y-83468907D01*
X116545155Y-83518407D01*
X116550000Y-83549000D01*
X116550000Y-96981125D01*
X116531093Y-97039316D01*
X116481593Y-97075280D01*
X116420407Y-97075280D01*
X116398560Y-97063787D01*
X116398233Y-97064355D01*
X116289889Y-97001802D01*
X116289890Y-97001802D01*
X116276351Y-96998174D01*
X116175309Y-96971100D01*
X116056691Y-96971100D01*
X115986567Y-96989889D01*
X115942109Y-97001802D01*
X115839391Y-97061107D01*
X115755507Y-97144991D01*
X115696202Y-97247709D01*
X115696201Y-97247714D01*
X115665500Y-97362291D01*
X115665500Y-97480909D01*
X115682403Y-97543992D01*
X115696202Y-97595490D01*
X115755507Y-97698208D01*
X115755509Y-97698210D01*
X115755511Y-97698213D01*
X115839387Y-97782089D01*
X115839389Y-97782090D01*
X115839391Y-97782092D01*
X115942110Y-97841397D01*
X115942111Y-97841397D01*
X115942114Y-97841399D01*
X116056691Y-97872100D01*
X116056693Y-97872100D01*
X116175307Y-97872100D01*
X116175309Y-97872100D01*
X116289886Y-97841399D01*
X116289888Y-97841397D01*
X116289890Y-97841397D01*
X116398233Y-97778845D01*
X116399206Y-97780531D01*
X116448406Y-97763108D01*
X116507072Y-97780484D01*
X116544321Y-97829025D01*
X116550000Y-97862074D01*
X116550000Y-116451000D01*
X116531093Y-116509191D01*
X116481593Y-116545155D01*
X116451000Y-116550000D01*
X83549000Y-116550000D01*
X83490809Y-116531093D01*
X83454845Y-116481593D01*
X83450000Y-116451000D01*
X83450000Y-112749997D01*
X84150000Y-112749997D01*
X84150000Y-112750003D01*
X84209563Y-113354774D01*
X84209564Y-113354779D01*
X84385973Y-113936318D01*
X84385975Y-113936323D01*
X84672441Y-114472264D01*
X85057963Y-114942025D01*
X85057968Y-114942031D01*
X85057973Y-114942035D01*
X85527734Y-115327557D01*
X86063675Y-115614023D01*
X86063681Y-115614026D01*
X86468811Y-115736920D01*
X86645219Y-115790434D01*
X86645224Y-115790435D01*
X87249997Y-115850000D01*
X87250000Y-115850000D01*
X87250003Y-115850000D01*
X87854774Y-115790435D01*
X87854779Y-115790434D01*
X88436318Y-115614026D01*
X88678742Y-115484447D01*
X88972264Y-115327557D01*
X88972265Y-115327555D01*
X88972267Y-115327555D01*
X89442031Y-114942031D01*
X89827555Y-114472267D01*
X90114026Y-113936318D01*
X90145615Y-113832182D01*
X95658100Y-113832182D01*
X95658100Y-113944218D01*
X95683672Y-114039655D01*
X95687098Y-114052441D01*
X95743113Y-114149460D01*
X95743115Y-114149463D01*
X95822337Y-114228685D01*
X95822339Y-114228686D01*
X95919359Y-114284701D01*
X95919357Y-114284701D01*
X95919361Y-114284702D01*
X95919363Y-114284703D01*
X96027582Y-114313700D01*
X96027584Y-114313700D01*
X96139616Y-114313700D01*
X96139618Y-114313700D01*
X96247837Y-114284703D01*
X96247839Y-114284701D01*
X96247841Y-114284701D01*
X96276664Y-114268059D01*
X96344863Y-114228685D01*
X96424085Y-114149463D01*
X96480103Y-114052437D01*
X96509100Y-113944218D01*
X96509100Y-113832182D01*
X96480103Y-113723963D01*
X96480101Y-113723960D01*
X96480101Y-113723958D01*
X96424086Y-113626939D01*
X96424085Y-113626937D01*
X96344863Y-113547715D01*
X96344860Y-113547713D01*
X96247840Y-113491698D01*
X96247842Y-113491698D01*
X96205851Y-113480447D01*
X96139618Y-113462700D01*
X96027582Y-113462700D01*
X95961348Y-113480447D01*
X95919358Y-113491698D01*
X95822339Y-113547713D01*
X95743113Y-113626939D01*
X95687098Y-113723958D01*
X95687097Y-113723963D01*
X95658100Y-113832182D01*
X90145615Y-113832182D01*
X90290434Y-113354779D01*
X90290435Y-113354773D01*
X90300717Y-113250382D01*
X98512000Y-113250382D01*
X98512000Y-113362418D01*
X98537572Y-113457855D01*
X98540998Y-113470641D01*
X98585498Y-113547715D01*
X98597015Y-113567663D01*
X98676237Y-113646885D01*
X98676239Y-113646886D01*
X98773259Y-113702901D01*
X98773257Y-113702901D01*
X98773261Y-113702902D01*
X98773263Y-113702903D01*
X98881482Y-113731900D01*
X98881484Y-113731900D01*
X98993516Y-113731900D01*
X98993518Y-113731900D01*
X99101737Y-113702903D01*
X99101739Y-113702901D01*
X99101741Y-113702901D01*
X99130564Y-113686259D01*
X99198763Y-113646885D01*
X99277985Y-113567663D01*
X99318031Y-113498301D01*
X99334001Y-113470641D01*
X99334001Y-113470639D01*
X99334003Y-113470637D01*
X99363000Y-113362418D01*
X99363000Y-113250382D01*
X99334003Y-113142163D01*
X99278357Y-113045782D01*
X102336100Y-113045782D01*
X102336100Y-113157818D01*
X102360902Y-113250382D01*
X102365098Y-113266041D01*
X102421113Y-113363060D01*
X102421115Y-113363063D01*
X102500337Y-113442285D01*
X102500339Y-113442286D01*
X102597359Y-113498301D01*
X102597357Y-113498301D01*
X102597361Y-113498302D01*
X102597363Y-113498303D01*
X102705582Y-113527300D01*
X102705584Y-113527300D01*
X102817616Y-113527300D01*
X102817618Y-113527300D01*
X102925837Y-113498303D01*
X102925839Y-113498301D01*
X102925841Y-113498301D01*
X102987503Y-113462700D01*
X103022863Y-113442285D01*
X103102085Y-113363063D01*
X103158103Y-113266037D01*
X103187100Y-113157818D01*
X103187100Y-113045782D01*
X103158103Y-112937563D01*
X103158101Y-112937560D01*
X103158101Y-112937558D01*
X103102086Y-112840539D01*
X103102085Y-112840537D01*
X103022863Y-112761315D01*
X103022860Y-112761313D01*
X102925840Y-112705298D01*
X102925842Y-112705298D01*
X102883851Y-112694047D01*
X102817618Y-112676300D01*
X102705582Y-112676300D01*
X102639348Y-112694047D01*
X102597358Y-112705298D01*
X102500339Y-112761313D01*
X102421113Y-112840539D01*
X102365098Y-112937558D01*
X102365097Y-112937563D01*
X102336100Y-113045782D01*
X99278357Y-113045782D01*
X99277985Y-113045137D01*
X99198763Y-112965915D01*
X99198760Y-112965913D01*
X99101740Y-112909898D01*
X99101742Y-112909898D01*
X99059751Y-112898647D01*
X98993518Y-112880900D01*
X98881482Y-112880900D01*
X98815248Y-112898647D01*
X98773258Y-112909898D01*
X98676239Y-112965913D01*
X98597013Y-113045139D01*
X98540998Y-113142158D01*
X98540997Y-113142163D01*
X98512000Y-113250382D01*
X90300717Y-113250382D01*
X90302312Y-113234189D01*
X90350000Y-112750003D01*
X90350000Y-112749997D01*
X90307619Y-112319697D01*
X90307302Y-112316482D01*
X104686200Y-112316482D01*
X104686200Y-112428518D01*
X104711772Y-112523955D01*
X104715198Y-112536741D01*
X104771213Y-112633760D01*
X104771215Y-112633763D01*
X104850437Y-112712985D01*
X104850439Y-112712986D01*
X104947459Y-112769001D01*
X104947457Y-112769001D01*
X104947461Y-112769002D01*
X104947463Y-112769003D01*
X105055682Y-112798000D01*
X105055684Y-112798000D01*
X105167716Y-112798000D01*
X105167718Y-112798000D01*
X105275937Y-112769003D01*
X105275939Y-112769001D01*
X105275941Y-112769001D01*
X105308856Y-112749997D01*
X109650000Y-112749997D01*
X109650000Y-112750003D01*
X109709563Y-113354774D01*
X109709564Y-113354779D01*
X109885973Y-113936318D01*
X109885975Y-113936323D01*
X110172441Y-114472264D01*
X110557963Y-114942025D01*
X110557968Y-114942031D01*
X110557973Y-114942035D01*
X111027734Y-115327557D01*
X111563675Y-115614023D01*
X111563681Y-115614026D01*
X111968811Y-115736920D01*
X112145219Y-115790434D01*
X112145224Y-115790435D01*
X112749997Y-115850000D01*
X112750000Y-115850000D01*
X112750003Y-115850000D01*
X113354774Y-115790435D01*
X113354779Y-115790434D01*
X113936318Y-115614026D01*
X114178742Y-115484447D01*
X114472264Y-115327557D01*
X114472265Y-115327555D01*
X114472267Y-115327555D01*
X114942031Y-114942031D01*
X115327555Y-114472267D01*
X115614026Y-113936318D01*
X115790434Y-113354779D01*
X115790435Y-113354774D01*
X115850000Y-112750003D01*
X115850000Y-112749996D01*
X115790435Y-112145224D01*
X115790434Y-112145219D01*
X115654317Y-111696503D01*
X115614026Y-111563681D01*
X115503027Y-111356016D01*
X115327557Y-111027734D01*
X114942035Y-110557973D01*
X114942031Y-110557968D01*
X114649119Y-110317582D01*
X114472264Y-110172441D01*
X113936323Y-109885975D01*
X113936318Y-109885973D01*
X113354779Y-109709564D01*
X113354774Y-109709563D01*
X112750003Y-109650000D01*
X112749997Y-109650000D01*
X112145224Y-109709563D01*
X112145219Y-109709564D01*
X111563680Y-109885973D01*
X111563675Y-109885975D01*
X111027734Y-110172441D01*
X110557973Y-110557963D01*
X110557963Y-110557973D01*
X110172441Y-111027734D01*
X109885975Y-111563675D01*
X109885973Y-111563680D01*
X109709564Y-112145219D01*
X109709563Y-112145224D01*
X109650000Y-112749997D01*
X105308856Y-112749997D01*
X105308858Y-112749996D01*
X105372963Y-112712985D01*
X105452185Y-112633763D01*
X105508203Y-112536737D01*
X105537200Y-112428518D01*
X105537200Y-112316482D01*
X105508203Y-112208263D01*
X105508201Y-112208260D01*
X105508201Y-112208258D01*
X105452186Y-112111239D01*
X105452185Y-112111237D01*
X105372963Y-112032015D01*
X105372960Y-112032013D01*
X105275940Y-111975998D01*
X105275942Y-111975998D01*
X105233951Y-111964747D01*
X105167718Y-111947000D01*
X105055682Y-111947000D01*
X104989448Y-111964747D01*
X104947458Y-111975998D01*
X104850439Y-112032013D01*
X104771213Y-112111239D01*
X104715198Y-112208258D01*
X104715197Y-112208263D01*
X104686200Y-112316482D01*
X90307302Y-112316482D01*
X90290435Y-112145224D01*
X90290434Y-112145219D01*
X90154317Y-111696503D01*
X90114026Y-111563681D01*
X90112732Y-111561260D01*
X89964620Y-111284161D01*
X89943144Y-111243982D01*
X107374500Y-111243982D01*
X107374500Y-111356018D01*
X107400072Y-111451455D01*
X107403498Y-111464241D01*
X107459513Y-111561260D01*
X107459515Y-111561263D01*
X107538737Y-111640485D01*
X107538739Y-111640486D01*
X107635759Y-111696501D01*
X107635757Y-111696501D01*
X107635761Y-111696502D01*
X107635763Y-111696503D01*
X107743982Y-111725500D01*
X107743984Y-111725500D01*
X107856016Y-111725500D01*
X107856018Y-111725500D01*
X107964237Y-111696503D01*
X107964239Y-111696501D01*
X107964241Y-111696501D01*
X107993064Y-111679859D01*
X108061263Y-111640485D01*
X108140485Y-111561263D01*
X108196503Y-111464237D01*
X108225500Y-111356018D01*
X108225500Y-111243982D01*
X108196503Y-111135763D01*
X108196501Y-111135760D01*
X108196501Y-111135758D01*
X108140486Y-111038739D01*
X108140485Y-111038737D01*
X108061263Y-110959515D01*
X108061260Y-110959513D01*
X107964240Y-110903498D01*
X107964242Y-110903498D01*
X107922251Y-110892247D01*
X107856018Y-110874500D01*
X107743982Y-110874500D01*
X107677748Y-110892247D01*
X107635758Y-110903498D01*
X107538739Y-110959513D01*
X107459513Y-111038739D01*
X107403498Y-111135758D01*
X107403497Y-111135763D01*
X107374500Y-111243982D01*
X89943144Y-111243982D01*
X89827557Y-111027734D01*
X89442035Y-110557973D01*
X89442031Y-110557968D01*
X89149119Y-110317582D01*
X99677700Y-110317582D01*
X99677700Y-110429618D01*
X99703272Y-110525055D01*
X99706698Y-110537841D01*
X99762713Y-110634860D01*
X99762715Y-110634863D01*
X99841937Y-110714085D01*
X99841939Y-110714086D01*
X99938959Y-110770101D01*
X99938957Y-110770101D01*
X99938961Y-110770102D01*
X99938963Y-110770103D01*
X100047182Y-110799100D01*
X100047184Y-110799100D01*
X100159216Y-110799100D01*
X100159218Y-110799100D01*
X100267437Y-110770103D01*
X100267439Y-110770101D01*
X100267441Y-110770101D01*
X100296264Y-110753459D01*
X100364463Y-110714085D01*
X100443685Y-110634863D01*
X100483059Y-110566664D01*
X100499701Y-110537841D01*
X100499701Y-110537839D01*
X100499703Y-110537837D01*
X100528700Y-110429618D01*
X100528700Y-110317582D01*
X100499703Y-110209363D01*
X100499701Y-110209360D01*
X100499701Y-110209358D01*
X100443686Y-110112339D01*
X100443685Y-110112337D01*
X100364463Y-110033115D01*
X100364460Y-110033113D01*
X100267440Y-109977098D01*
X100267442Y-109977098D01*
X100225451Y-109965847D01*
X100159218Y-109948100D01*
X100047182Y-109948100D01*
X99980948Y-109965847D01*
X99938958Y-109977098D01*
X99841939Y-110033113D01*
X99762713Y-110112339D01*
X99706698Y-110209358D01*
X99706697Y-110209363D01*
X99677700Y-110317582D01*
X89149119Y-110317582D01*
X88972264Y-110172441D01*
X88436323Y-109885975D01*
X88436318Y-109885973D01*
X87854779Y-109709564D01*
X87854774Y-109709563D01*
X87250003Y-109650000D01*
X87249997Y-109650000D01*
X86645224Y-109709563D01*
X86645219Y-109709564D01*
X86063680Y-109885973D01*
X86063675Y-109885975D01*
X85527734Y-110172441D01*
X85057973Y-110557963D01*
X85057963Y-110557973D01*
X84672441Y-111027734D01*
X84385975Y-111563675D01*
X84385973Y-111563680D01*
X84209564Y-112145219D01*
X84209563Y-112145224D01*
X84150000Y-112749997D01*
X83450000Y-112749997D01*
X83450000Y-109493982D01*
X93524500Y-109493982D01*
X93524500Y-109606018D01*
X93535393Y-109646670D01*
X93553498Y-109714241D01*
X93597711Y-109790818D01*
X93609515Y-109811263D01*
X93688737Y-109890485D01*
X93721079Y-109909157D01*
X93785759Y-109946501D01*
X93785757Y-109946501D01*
X93785761Y-109946502D01*
X93785763Y-109946503D01*
X93893982Y-109975500D01*
X93893984Y-109975500D01*
X94006016Y-109975500D01*
X94006018Y-109975500D01*
X94114237Y-109946503D01*
X94114239Y-109946501D01*
X94114241Y-109946501D01*
X94143064Y-109929859D01*
X94211263Y-109890485D01*
X94290485Y-109811263D01*
X94346503Y-109714237D01*
X94356003Y-109678782D01*
X98444200Y-109678782D01*
X98444200Y-109790818D01*
X98469697Y-109885973D01*
X98473198Y-109899041D01*
X98529213Y-109996060D01*
X98529215Y-109996063D01*
X98608437Y-110075285D01*
X98608439Y-110075286D01*
X98705459Y-110131301D01*
X98705457Y-110131301D01*
X98705461Y-110131302D01*
X98705463Y-110131303D01*
X98813682Y-110160300D01*
X98813684Y-110160300D01*
X98925716Y-110160300D01*
X98925718Y-110160300D01*
X99033937Y-110131303D01*
X99033939Y-110131301D01*
X99033941Y-110131301D01*
X99066787Y-110112337D01*
X99130963Y-110075285D01*
X99210185Y-109996063D01*
X99266203Y-109899037D01*
X99295200Y-109790818D01*
X99295200Y-109678782D01*
X99266203Y-109570563D01*
X99266201Y-109570560D01*
X99266201Y-109570558D01*
X99210186Y-109473539D01*
X99210185Y-109473537D01*
X99130963Y-109394315D01*
X99116142Y-109385758D01*
X99033940Y-109338298D01*
X99033942Y-109338298D01*
X98991951Y-109327047D01*
X98925718Y-109309300D01*
X98813682Y-109309300D01*
X98747448Y-109327047D01*
X98705458Y-109338298D01*
X98608439Y-109394313D01*
X98529213Y-109473539D01*
X98473198Y-109570558D01*
X98473197Y-109570563D01*
X98444200Y-109678782D01*
X94356003Y-109678782D01*
X94375500Y-109606018D01*
X94375500Y-109493982D01*
X94346503Y-109385763D01*
X94346501Y-109385760D01*
X94346501Y-109385758D01*
X94290486Y-109288739D01*
X94290485Y-109288737D01*
X94211263Y-109209515D01*
X94211260Y-109209513D01*
X94114240Y-109153498D01*
X94114242Y-109153498D01*
X94072251Y-109142247D01*
X94006018Y-109124500D01*
X93893982Y-109124500D01*
X93827748Y-109142247D01*
X93785758Y-109153498D01*
X93688739Y-109209513D01*
X93609513Y-109288739D01*
X93553498Y-109385758D01*
X93537286Y-109446263D01*
X93524500Y-109493982D01*
X83450000Y-109493982D01*
X83450000Y-108550691D01*
X108749500Y-108550691D01*
X108749500Y-108669309D01*
X108768047Y-108738526D01*
X108780202Y-108783890D01*
X108839507Y-108886608D01*
X108839509Y-108886610D01*
X108839511Y-108886613D01*
X108923387Y-108970489D01*
X108923389Y-108970490D01*
X108923391Y-108970492D01*
X109026110Y-109029797D01*
X109026111Y-109029797D01*
X109026114Y-109029799D01*
X109140691Y-109060500D01*
X109140693Y-109060500D01*
X109259307Y-109060500D01*
X109259309Y-109060500D01*
X109373886Y-109029799D01*
X109373888Y-109029797D01*
X109373890Y-109029797D01*
X109476608Y-108970492D01*
X109476608Y-108970491D01*
X109476613Y-108970489D01*
X109560489Y-108886613D01*
X109574300Y-108862692D01*
X109574301Y-108862691D01*
X113971500Y-108862691D01*
X113971500Y-108981309D01*
X113984493Y-109029799D01*
X114002202Y-109095890D01*
X114061507Y-109198608D01*
X114061509Y-109198610D01*
X114061511Y-109198613D01*
X114145387Y-109282489D01*
X114145389Y-109282490D01*
X114145391Y-109282492D01*
X114248110Y-109341797D01*
X114248111Y-109341797D01*
X114248114Y-109341799D01*
X114362691Y-109372500D01*
X114362693Y-109372500D01*
X114481307Y-109372500D01*
X114481309Y-109372500D01*
X114595886Y-109341799D01*
X114595888Y-109341797D01*
X114595890Y-109341797D01*
X114698608Y-109282492D01*
X114698608Y-109282491D01*
X114698613Y-109282489D01*
X114782489Y-109198613D01*
X114782492Y-109198608D01*
X114836264Y-109105474D01*
X114881733Y-109064533D01*
X114942584Y-109058137D01*
X114995572Y-109088730D01*
X115007736Y-109105474D01*
X115061507Y-109198608D01*
X115061509Y-109198610D01*
X115061511Y-109198613D01*
X115145387Y-109282489D01*
X115145389Y-109282490D01*
X115145391Y-109282492D01*
X115248110Y-109341797D01*
X115248111Y-109341797D01*
X115248114Y-109341799D01*
X115362691Y-109372500D01*
X115362693Y-109372500D01*
X115481307Y-109372500D01*
X115481309Y-109372500D01*
X115595886Y-109341799D01*
X115595888Y-109341797D01*
X115595890Y-109341797D01*
X115698608Y-109282492D01*
X115698608Y-109282491D01*
X115698613Y-109282489D01*
X115782489Y-109198613D01*
X115782492Y-109198608D01*
X115841797Y-109095890D01*
X115841797Y-109095888D01*
X115841799Y-109095886D01*
X115872500Y-108981309D01*
X115872500Y-108862691D01*
X115841799Y-108748114D01*
X115841797Y-108748111D01*
X115841797Y-108748109D01*
X115782492Y-108645391D01*
X115782490Y-108645389D01*
X115782489Y-108645387D01*
X115698613Y-108561511D01*
X115698610Y-108561509D01*
X115698608Y-108561507D01*
X115595889Y-108502202D01*
X115595890Y-108502202D01*
X115552165Y-108490486D01*
X115481309Y-108471500D01*
X115362691Y-108471500D01*
X115292567Y-108490289D01*
X115248109Y-108502202D01*
X115145391Y-108561507D01*
X115061509Y-108645389D01*
X115007736Y-108738526D01*
X114962266Y-108779466D01*
X114901416Y-108785861D01*
X114848428Y-108755268D01*
X114836264Y-108738526D01*
X114782490Y-108645389D01*
X114782489Y-108645387D01*
X114698613Y-108561511D01*
X114698610Y-108561509D01*
X114698608Y-108561507D01*
X114595889Y-108502202D01*
X114595890Y-108502202D01*
X114552165Y-108490486D01*
X114481309Y-108471500D01*
X114362691Y-108471500D01*
X114292567Y-108490289D01*
X114248109Y-108502202D01*
X114145391Y-108561507D01*
X114061507Y-108645391D01*
X114002202Y-108748109D01*
X114002201Y-108748114D01*
X113971500Y-108862691D01*
X109574301Y-108862691D01*
X109606627Y-108806702D01*
X109619797Y-108783890D01*
X109619797Y-108783888D01*
X109619799Y-108783886D01*
X109650500Y-108669309D01*
X109650500Y-108652675D01*
X109669407Y-108594484D01*
X109718907Y-108558520D01*
X109775121Y-108557049D01*
X109843982Y-108575500D01*
X109843983Y-108575500D01*
X109956016Y-108575500D01*
X109956018Y-108575500D01*
X110064237Y-108546503D01*
X110064239Y-108546501D01*
X110064241Y-108546501D01*
X110093064Y-108529859D01*
X110161263Y-108490485D01*
X110240485Y-108411263D01*
X110279859Y-108343064D01*
X110296501Y-108314241D01*
X110296501Y-108314239D01*
X110296503Y-108314237D01*
X110325500Y-108206018D01*
X110325500Y-108093982D01*
X110296503Y-107985763D01*
X110296501Y-107985760D01*
X110296501Y-107985758D01*
X110240486Y-107888739D01*
X110240485Y-107888737D01*
X110161263Y-107809515D01*
X110161260Y-107809513D01*
X110064240Y-107753498D01*
X110064242Y-107753498D01*
X110022251Y-107742247D01*
X109956018Y-107724500D01*
X109843982Y-107724500D01*
X109777748Y-107742247D01*
X109735758Y-107753498D01*
X109638739Y-107809513D01*
X109559513Y-107888739D01*
X109503498Y-107985758D01*
X109474499Y-108093984D01*
X109473653Y-108100416D01*
X109470640Y-108100019D01*
X109455593Y-108146332D01*
X109406093Y-108182296D01*
X109349877Y-108183767D01*
X109259309Y-108159500D01*
X109140691Y-108159500D01*
X109070567Y-108178289D01*
X109026109Y-108190202D01*
X108923391Y-108249507D01*
X108839507Y-108333391D01*
X108780202Y-108436109D01*
X108780201Y-108436114D01*
X108749500Y-108550691D01*
X83450000Y-108550691D01*
X83450000Y-107440691D01*
X90399500Y-107440691D01*
X90399500Y-107559309D01*
X90426574Y-107660351D01*
X90430202Y-107673890D01*
X90489507Y-107776608D01*
X90489509Y-107776610D01*
X90489511Y-107776613D01*
X90573387Y-107860489D01*
X90573389Y-107860490D01*
X90573391Y-107860492D01*
X90676110Y-107919797D01*
X90676111Y-107919797D01*
X90676114Y-107919799D01*
X90790691Y-107950500D01*
X90790693Y-107950500D01*
X90909307Y-107950500D01*
X90909309Y-107950500D01*
X91023886Y-107919799D01*
X91023888Y-107919797D01*
X91023890Y-107919797D01*
X91126608Y-107860492D01*
X91126608Y-107860491D01*
X91126613Y-107860489D01*
X91210489Y-107776613D01*
X91269799Y-107673886D01*
X91300500Y-107559309D01*
X91300500Y-107440691D01*
X91269799Y-107326114D01*
X91269797Y-107326111D01*
X91269797Y-107326109D01*
X91210492Y-107223391D01*
X91210490Y-107223389D01*
X91210489Y-107223387D01*
X91126613Y-107139511D01*
X91126610Y-107139509D01*
X91126608Y-107139507D01*
X91023889Y-107080202D01*
X91023890Y-107080202D01*
X91010351Y-107076574D01*
X90909309Y-107049500D01*
X90790691Y-107049500D01*
X90720567Y-107068289D01*
X90676109Y-107080202D01*
X90573391Y-107139507D01*
X90489507Y-107223391D01*
X90430202Y-107326109D01*
X90430201Y-107326114D01*
X90399500Y-107440691D01*
X83450000Y-107440691D01*
X83450000Y-106743982D01*
X94474500Y-106743982D01*
X94474500Y-106856018D01*
X94500072Y-106951455D01*
X94503498Y-106964241D01*
X94559513Y-107061260D01*
X94559515Y-107061263D01*
X94638737Y-107140485D01*
X94638739Y-107140486D01*
X94735759Y-107196501D01*
X94735757Y-107196501D01*
X94735761Y-107196502D01*
X94735763Y-107196503D01*
X94843982Y-107225500D01*
X94843984Y-107225500D01*
X94956016Y-107225500D01*
X94956018Y-107225500D01*
X95064237Y-107196503D01*
X95064239Y-107196501D01*
X95064241Y-107196501D01*
X95093064Y-107179859D01*
X95161263Y-107140485D01*
X95240485Y-107061263D01*
X95296503Y-106964237D01*
X95325500Y-106856018D01*
X95325500Y-106743982D01*
X95296503Y-106635763D01*
X95296501Y-106635760D01*
X95296501Y-106635758D01*
X95240486Y-106538739D01*
X95240485Y-106538737D01*
X95161263Y-106459515D01*
X95161260Y-106459513D01*
X95064240Y-106403498D01*
X95064242Y-106403498D01*
X95028726Y-106393982D01*
X96324500Y-106393982D01*
X96324500Y-106506018D01*
X96333267Y-106538737D01*
X96353498Y-106614241D01*
X96409513Y-106711260D01*
X96409515Y-106711263D01*
X96488737Y-106790485D01*
X96488739Y-106790486D01*
X96585759Y-106846501D01*
X96585757Y-106846501D01*
X96585761Y-106846502D01*
X96585763Y-106846503D01*
X96693982Y-106875500D01*
X96693984Y-106875500D01*
X96806016Y-106875500D01*
X96806018Y-106875500D01*
X96914237Y-106846503D01*
X96914239Y-106846501D01*
X96914241Y-106846501D01*
X96943064Y-106829859D01*
X97011263Y-106790485D01*
X97090485Y-106711263D01*
X97146503Y-106614237D01*
X97175500Y-106506018D01*
X97175500Y-106393982D01*
X97146503Y-106285763D01*
X97146501Y-106285760D01*
X97146501Y-106285758D01*
X97090486Y-106188739D01*
X97090485Y-106188737D01*
X97011263Y-106109515D01*
X97011260Y-106109513D01*
X96914240Y-106053498D01*
X96914242Y-106053498D01*
X96872251Y-106042247D01*
X96806018Y-106024500D01*
X96693982Y-106024500D01*
X96627748Y-106042247D01*
X96585758Y-106053498D01*
X96488739Y-106109513D01*
X96409513Y-106188739D01*
X96353498Y-106285758D01*
X96353497Y-106285763D01*
X96324500Y-106393982D01*
X95028726Y-106393982D01*
X95022251Y-106392247D01*
X94956018Y-106374500D01*
X94843982Y-106374500D01*
X94777748Y-106392247D01*
X94735758Y-106403498D01*
X94638739Y-106459513D01*
X94559513Y-106538739D01*
X94503498Y-106635758D01*
X94503497Y-106635763D01*
X94474500Y-106743982D01*
X83450000Y-106743982D01*
X83450000Y-104180000D01*
X84183183Y-104180000D01*
X84746083Y-104180000D01*
X84720001Y-104277339D01*
X84720001Y-104382661D01*
X84746083Y-104480000D01*
X84183184Y-104480000D01*
X84202664Y-104577933D01*
X84202666Y-104577939D01*
X84266739Y-104732625D01*
X84359759Y-104871840D01*
X84478159Y-104990240D01*
X84617374Y-105083260D01*
X84772065Y-105147335D01*
X84936279Y-105179999D01*
X84936283Y-105180000D01*
X85169999Y-105180000D01*
X85170000Y-105179999D01*
X85170000Y-104729999D01*
X85470000Y-104729999D01*
X85470000Y-105179999D01*
X85470001Y-105180000D01*
X85703717Y-105180000D01*
X85703720Y-105179999D01*
X85867934Y-105147335D01*
X86022625Y-105083260D01*
X86161840Y-104990240D01*
X86280240Y-104871840D01*
X86333474Y-104792170D01*
X86381524Y-104754290D01*
X86442662Y-104751888D01*
X86465290Y-104761435D01*
X86491559Y-104776601D01*
X86491557Y-104776601D01*
X86491561Y-104776602D01*
X86491563Y-104776603D01*
X86599782Y-104805600D01*
X86599784Y-104805600D01*
X86711816Y-104805600D01*
X86711818Y-104805600D01*
X86820037Y-104776603D01*
X86820039Y-104776601D01*
X86820041Y-104776601D01*
X86858684Y-104754290D01*
X86917063Y-104720585D01*
X86996285Y-104641363D01*
X87052303Y-104544337D01*
X87081300Y-104436118D01*
X87081300Y-104324082D01*
X87056689Y-104232231D01*
X87056689Y-104232230D01*
X87052303Y-104215863D01*
X87052301Y-104215859D01*
X87031598Y-104180000D01*
X88263183Y-104180000D01*
X88776083Y-104180000D01*
X88750001Y-104277339D01*
X88750001Y-104382661D01*
X88776083Y-104480000D01*
X88263184Y-104480000D01*
X88282664Y-104577933D01*
X88282666Y-104577939D01*
X88346739Y-104732625D01*
X88439759Y-104871840D01*
X88558159Y-104990240D01*
X88697374Y-105083260D01*
X88852065Y-105147335D01*
X89016279Y-105179999D01*
X89016283Y-105180000D01*
X89349999Y-105180000D01*
X89350000Y-105179999D01*
X89350000Y-104729999D01*
X89650000Y-104729999D01*
X89650000Y-105179999D01*
X89650001Y-105180000D01*
X89983717Y-105180000D01*
X89983720Y-105179999D01*
X90147934Y-105147335D01*
X90294735Y-105086528D01*
X90355732Y-105081727D01*
X90407901Y-105113696D01*
X90431316Y-105170224D01*
X90428248Y-105203613D01*
X90417700Y-105242979D01*
X90417700Y-105242982D01*
X90417700Y-105355018D01*
X90435929Y-105423050D01*
X90446698Y-105463241D01*
X90487198Y-105533387D01*
X90502715Y-105560263D01*
X90581937Y-105639485D01*
X90581939Y-105639486D01*
X90678959Y-105695501D01*
X90678957Y-105695501D01*
X90678961Y-105695502D01*
X90678963Y-105695503D01*
X90787182Y-105724500D01*
X90787184Y-105724500D01*
X90899216Y-105724500D01*
X90899218Y-105724500D01*
X91007437Y-105695503D01*
X91007439Y-105695501D01*
X91007441Y-105695501D01*
X91044338Y-105674198D01*
X91104463Y-105639485D01*
X91183685Y-105560263D01*
X91235575Y-105470385D01*
X91281044Y-105429446D01*
X91341894Y-105423050D01*
X91394882Y-105453643D01*
X91407047Y-105470387D01*
X91459513Y-105561260D01*
X91459515Y-105561263D01*
X91538737Y-105640485D01*
X91538739Y-105640486D01*
X91635759Y-105696501D01*
X91635757Y-105696501D01*
X91635761Y-105696502D01*
X91635763Y-105696503D01*
X91743982Y-105725500D01*
X91743984Y-105725500D01*
X91856016Y-105725500D01*
X91856018Y-105725500D01*
X91964237Y-105696503D01*
X91964239Y-105696501D01*
X91964241Y-105696501D01*
X92002870Y-105674198D01*
X92061263Y-105640485D01*
X92140485Y-105561263D01*
X92181913Y-105489507D01*
X92196501Y-105464241D01*
X92196501Y-105464239D01*
X92196503Y-105464237D01*
X92225500Y-105356018D01*
X92225500Y-105293982D01*
X99097700Y-105293982D01*
X99097700Y-105406018D01*
X99122645Y-105499114D01*
X99126698Y-105514241D01*
X99182713Y-105611260D01*
X99182715Y-105611263D01*
X99261937Y-105690485D01*
X99294279Y-105709157D01*
X99358959Y-105746501D01*
X99358957Y-105746501D01*
X99358961Y-105746502D01*
X99358963Y-105746503D01*
X99467182Y-105775500D01*
X99467184Y-105775500D01*
X99579216Y-105775500D01*
X99579218Y-105775500D01*
X99671807Y-105750691D01*
X103849500Y-105750691D01*
X103849500Y-105869309D01*
X103860218Y-105909309D01*
X103880202Y-105983890D01*
X103939507Y-106086608D01*
X103939509Y-106086610D01*
X103939511Y-106086613D01*
X104023387Y-106170489D01*
X104023389Y-106170490D01*
X104023391Y-106170492D01*
X104126110Y-106229797D01*
X104126111Y-106229797D01*
X104126114Y-106229799D01*
X104240691Y-106260500D01*
X104240693Y-106260500D01*
X104359307Y-106260500D01*
X104359309Y-106260500D01*
X104473886Y-106229799D01*
X104473888Y-106229797D01*
X104473890Y-106229797D01*
X104576608Y-106170492D01*
X104576608Y-106170491D01*
X104576613Y-106170489D01*
X104609620Y-106137481D01*
X104664132Y-106109704D01*
X104705246Y-106111859D01*
X104730036Y-106118501D01*
X104748688Y-106123499D01*
X104748690Y-106123500D01*
X104748691Y-106123500D01*
X104867307Y-106123500D01*
X104867309Y-106123500D01*
X104981886Y-106092799D01*
X104981888Y-106092797D01*
X104981890Y-106092797D01*
X105084608Y-106033492D01*
X105084608Y-106033491D01*
X105084613Y-106033489D01*
X105168489Y-105949613D01*
X105227799Y-105846886D01*
X105242856Y-105790691D01*
X111849500Y-105790691D01*
X111849500Y-105909309D01*
X111869483Y-105983886D01*
X111880202Y-106023890D01*
X111939507Y-106126608D01*
X111939509Y-106126610D01*
X111939511Y-106126613D01*
X112023387Y-106210489D01*
X112023389Y-106210490D01*
X112023391Y-106210492D01*
X112126110Y-106269797D01*
X112126111Y-106269797D01*
X112126114Y-106269799D01*
X112240691Y-106300500D01*
X112240693Y-106300500D01*
X112359307Y-106300500D01*
X112359309Y-106300500D01*
X112473886Y-106269799D01*
X112473888Y-106269797D01*
X112473890Y-106269797D01*
X112576608Y-106210492D01*
X112576608Y-106210491D01*
X112576613Y-106210489D01*
X112660489Y-106126613D01*
X112683586Y-106086608D01*
X112719797Y-106023890D01*
X112719797Y-106023888D01*
X112719799Y-106023886D01*
X112750500Y-105909309D01*
X112750500Y-105790691D01*
X112719799Y-105676114D01*
X112719797Y-105676111D01*
X112719797Y-105676109D01*
X112660492Y-105573391D01*
X112660490Y-105573389D01*
X112660489Y-105573387D01*
X112576613Y-105489511D01*
X112576610Y-105489509D01*
X112576608Y-105489507D01*
X112473889Y-105430202D01*
X112473890Y-105430202D01*
X112447198Y-105423050D01*
X112359309Y-105399500D01*
X112240691Y-105399500D01*
X112170567Y-105418289D01*
X112126109Y-105430202D01*
X112023391Y-105489507D01*
X111939507Y-105573391D01*
X111880202Y-105676109D01*
X111865143Y-105732310D01*
X111849500Y-105790691D01*
X105242856Y-105790691D01*
X105258500Y-105732309D01*
X105258500Y-105613691D01*
X105227799Y-105499114D01*
X105227797Y-105499111D01*
X105227797Y-105499109D01*
X105168492Y-105396391D01*
X105168490Y-105396389D01*
X105168489Y-105396387D01*
X105084613Y-105312511D01*
X105084610Y-105312509D01*
X105084608Y-105312507D01*
X104981889Y-105253202D01*
X104981890Y-105253202D01*
X104947480Y-105243982D01*
X113374500Y-105243982D01*
X113374500Y-105356018D01*
X113399550Y-105449507D01*
X113403498Y-105464241D01*
X113459513Y-105561260D01*
X113459515Y-105561263D01*
X113538737Y-105640485D01*
X113538739Y-105640486D01*
X113635759Y-105696501D01*
X113635757Y-105696501D01*
X113635761Y-105696502D01*
X113635763Y-105696503D01*
X113743982Y-105725500D01*
X113743984Y-105725500D01*
X113856016Y-105725500D01*
X113856018Y-105725500D01*
X113964237Y-105696503D01*
X113964239Y-105696501D01*
X113964241Y-105696501D01*
X114002870Y-105674198D01*
X114061263Y-105640485D01*
X114140485Y-105561263D01*
X114181913Y-105489507D01*
X114196501Y-105464241D01*
X114196501Y-105464239D01*
X114196503Y-105464237D01*
X114225500Y-105356018D01*
X114225500Y-105243982D01*
X114196503Y-105135763D01*
X114196501Y-105135760D01*
X114196501Y-105135758D01*
X114140486Y-105038739D01*
X114140485Y-105038737D01*
X114061263Y-104959515D01*
X114059531Y-104958515D01*
X113964240Y-104903498D01*
X113964242Y-104903498D01*
X113922251Y-104892247D01*
X113856018Y-104874500D01*
X113743982Y-104874500D01*
X113677748Y-104892247D01*
X113635758Y-104903498D01*
X113538739Y-104959513D01*
X113459513Y-105038739D01*
X113403498Y-105135758D01*
X113391644Y-105179999D01*
X113374500Y-105243982D01*
X104947480Y-105243982D01*
X104943737Y-105242979D01*
X104867309Y-105222500D01*
X104748691Y-105222500D01*
X104678567Y-105241289D01*
X104634109Y-105253202D01*
X104531391Y-105312507D01*
X104498379Y-105345519D01*
X104443862Y-105373295D01*
X104402754Y-105371141D01*
X104359309Y-105359500D01*
X104240691Y-105359500D01*
X104189208Y-105373295D01*
X104126109Y-105390202D01*
X104023391Y-105449507D01*
X103939507Y-105533391D01*
X103880202Y-105636109D01*
X103869996Y-105674198D01*
X103849500Y-105750691D01*
X99671807Y-105750691D01*
X99687437Y-105746503D01*
X99687439Y-105746501D01*
X99687441Y-105746501D01*
X99725547Y-105724500D01*
X99784463Y-105690485D01*
X99863685Y-105611263D01*
X99903059Y-105543064D01*
X99919701Y-105514241D01*
X99919701Y-105514239D01*
X99919703Y-105514237D01*
X99948700Y-105406018D01*
X99948700Y-105293982D01*
X99919703Y-105185763D01*
X99919701Y-105185760D01*
X99919701Y-105185758D01*
X99863686Y-105088739D01*
X99863685Y-105088737D01*
X99784463Y-105009515D01*
X99751078Y-104990240D01*
X99687440Y-104953498D01*
X99687442Y-104953498D01*
X99645451Y-104942247D01*
X99579218Y-104924500D01*
X99467182Y-104924500D01*
X99400948Y-104942247D01*
X99358958Y-104953498D01*
X99261939Y-105009513D01*
X99182713Y-105088739D01*
X99126698Y-105185758D01*
X99126697Y-105185763D01*
X99097700Y-105293982D01*
X92225500Y-105293982D01*
X92225500Y-105243982D01*
X92196503Y-105135763D01*
X92196501Y-105135760D01*
X92196501Y-105135758D01*
X92140486Y-105038739D01*
X92140485Y-105038737D01*
X92061263Y-104959515D01*
X92059531Y-104958515D01*
X91964240Y-104903498D01*
X91964242Y-104903498D01*
X91922251Y-104892247D01*
X91856018Y-104874500D01*
X91743982Y-104874500D01*
X91677748Y-104892247D01*
X91635758Y-104903498D01*
X91538739Y-104959513D01*
X91459514Y-105038738D01*
X91407624Y-105128613D01*
X91362154Y-105169553D01*
X91301304Y-105175948D01*
X91248316Y-105145355D01*
X91236152Y-105128612D01*
X91202258Y-105069907D01*
X91183685Y-105037737D01*
X91104463Y-104958515D01*
X91104460Y-104958513D01*
X91007440Y-104902498D01*
X91007442Y-104902498D01*
X90965451Y-104891247D01*
X90899218Y-104873500D01*
X90787182Y-104873500D01*
X90775430Y-104876649D01*
X90763467Y-104879854D01*
X90702365Y-104876649D01*
X90654817Y-104838142D01*
X90638983Y-104779041D01*
X90652702Y-104737841D01*
X90650968Y-104736915D01*
X90653258Y-104732629D01*
X90717333Y-104577939D01*
X90717335Y-104577933D01*
X90736816Y-104480000D01*
X90223917Y-104480000D01*
X90249999Y-104382661D01*
X90249999Y-104277339D01*
X90223917Y-104180000D01*
X90736816Y-104180000D01*
X90717335Y-104082066D01*
X90717333Y-104082060D01*
X90653260Y-103927374D01*
X90560240Y-103788159D01*
X90441840Y-103669759D01*
X90403262Y-103643982D01*
X97474500Y-103643982D01*
X97474500Y-103756018D01*
X97483112Y-103788159D01*
X97503498Y-103864241D01*
X97542405Y-103931628D01*
X97559515Y-103961263D01*
X97638737Y-104040485D01*
X97638739Y-104040486D01*
X97735759Y-104096501D01*
X97735757Y-104096501D01*
X97735761Y-104096502D01*
X97735763Y-104096503D01*
X97843982Y-104125500D01*
X97843984Y-104125500D01*
X97956016Y-104125500D01*
X97956018Y-104125500D01*
X98064237Y-104096503D01*
X98064239Y-104096501D01*
X98064241Y-104096501D01*
X98093064Y-104079859D01*
X98161263Y-104040485D01*
X98240485Y-103961263D01*
X98296503Y-103864237D01*
X98325500Y-103756018D01*
X98325500Y-103643982D01*
X98296503Y-103535763D01*
X98296501Y-103535760D01*
X98296501Y-103535758D01*
X98240486Y-103438739D01*
X98240485Y-103438737D01*
X98161263Y-103359515D01*
X98161260Y-103359513D01*
X98064240Y-103303498D01*
X98064242Y-103303498D01*
X98022251Y-103292247D01*
X97956018Y-103274500D01*
X97843982Y-103274500D01*
X97777748Y-103292247D01*
X97735758Y-103303498D01*
X97638739Y-103359513D01*
X97559513Y-103438739D01*
X97503498Y-103535758D01*
X97487286Y-103596263D01*
X97474500Y-103643982D01*
X90403262Y-103643982D01*
X90302625Y-103576739D01*
X90147934Y-103512664D01*
X89983720Y-103480000D01*
X89650001Y-103480000D01*
X89650000Y-103480001D01*
X89650000Y-103930001D01*
X89350000Y-103930001D01*
X89350000Y-103480001D01*
X89342764Y-103472765D01*
X89306839Y-103461093D01*
X89270875Y-103411593D01*
X89270875Y-103350407D01*
X89302829Y-103305192D01*
X89302725Y-103305088D01*
X89303331Y-103304481D01*
X89304760Y-103302460D01*
X89307309Y-103300503D01*
X89307309Y-103300502D01*
X89307314Y-103300500D01*
X89400500Y-103207314D01*
X89427088Y-103161263D01*
X89466390Y-103093190D01*
X89466390Y-103093188D01*
X89466392Y-103093186D01*
X89500500Y-102965892D01*
X89500500Y-102834108D01*
X89466392Y-102706814D01*
X89466390Y-102706811D01*
X89466390Y-102706809D01*
X89400503Y-102592690D01*
X89400501Y-102592688D01*
X89400500Y-102592686D01*
X89307314Y-102499500D01*
X89307311Y-102499498D01*
X89307309Y-102499496D01*
X89193189Y-102433609D01*
X89193190Y-102433609D01*
X89192946Y-102433543D01*
X89065892Y-102399500D01*
X88934108Y-102399500D01*
X88856200Y-102420375D01*
X88806809Y-102433609D01*
X88692690Y-102499496D01*
X88599496Y-102592690D01*
X88533609Y-102706809D01*
X88525851Y-102735763D01*
X88499500Y-102834108D01*
X88499500Y-102965892D01*
X88525851Y-103064237D01*
X88533609Y-103093190D01*
X88599496Y-103207309D01*
X88599498Y-103207311D01*
X88599500Y-103207314D01*
X88692686Y-103300500D01*
X88692688Y-103300501D01*
X88692690Y-103300503D01*
X88799377Y-103362099D01*
X88840318Y-103407568D01*
X88846714Y-103468418D01*
X88816121Y-103521406D01*
X88787763Y-103539299D01*
X88697374Y-103576739D01*
X88558159Y-103669759D01*
X88439759Y-103788159D01*
X88346739Y-103927374D01*
X88282666Y-104082060D01*
X88282664Y-104082066D01*
X88263183Y-104180000D01*
X87031598Y-104180000D01*
X86996286Y-104118839D01*
X86996285Y-104118837D01*
X86917063Y-104039615D01*
X86917060Y-104039613D01*
X86820040Y-103983598D01*
X86820042Y-103983598D01*
X86778051Y-103972347D01*
X86711818Y-103954600D01*
X86599782Y-103954600D01*
X86550426Y-103967824D01*
X86489901Y-103984042D01*
X86428800Y-103980839D01*
X86381250Y-103942334D01*
X86375618Y-103931628D01*
X86375553Y-103931663D01*
X86373262Y-103927378D01*
X86280240Y-103788159D01*
X86161840Y-103669759D01*
X86022625Y-103576739D01*
X85867934Y-103512664D01*
X85703720Y-103480000D01*
X85470001Y-103480000D01*
X85470000Y-103480001D01*
X85470000Y-103930001D01*
X85170000Y-103930001D01*
X85170000Y-103480001D01*
X85169999Y-103480000D01*
X84936279Y-103480000D01*
X84772065Y-103512664D01*
X84617374Y-103576739D01*
X84478159Y-103669759D01*
X84359759Y-103788159D01*
X84266739Y-103927374D01*
X84202666Y-104082060D01*
X84202664Y-104082066D01*
X84183183Y-104180000D01*
X83450000Y-104180000D01*
X83450000Y-102343982D01*
X91490300Y-102343982D01*
X91490300Y-102456018D01*
X91501148Y-102496503D01*
X91519298Y-102564241D01*
X91566792Y-102646501D01*
X91575315Y-102661263D01*
X91654537Y-102740485D01*
X91654539Y-102740486D01*
X91751559Y-102796501D01*
X91751557Y-102796501D01*
X91751561Y-102796502D01*
X91751563Y-102796503D01*
X91859782Y-102825500D01*
X91859784Y-102825500D01*
X91971816Y-102825500D01*
X91971818Y-102825500D01*
X92080037Y-102796503D01*
X92080039Y-102796501D01*
X92080041Y-102796501D01*
X92108864Y-102779859D01*
X92177063Y-102740485D01*
X92256285Y-102661263D01*
X92312303Y-102564237D01*
X92341300Y-102456018D01*
X92341300Y-102375691D01*
X96610600Y-102375691D01*
X96610600Y-102494309D01*
X96636370Y-102590485D01*
X96641302Y-102608890D01*
X96700607Y-102711608D01*
X96700609Y-102711610D01*
X96700611Y-102711613D01*
X96784487Y-102795489D01*
X96784489Y-102795490D01*
X96784491Y-102795492D01*
X96887210Y-102854797D01*
X96887211Y-102854797D01*
X96887214Y-102854799D01*
X97001791Y-102885500D01*
X97001793Y-102885500D01*
X97120407Y-102885500D01*
X97120409Y-102885500D01*
X97234986Y-102854799D01*
X97234988Y-102854797D01*
X97234990Y-102854797D01*
X97253722Y-102843982D01*
X107174500Y-102843982D01*
X107174500Y-102956018D01*
X107177146Y-102965892D01*
X107203498Y-103064241D01*
X107259513Y-103161260D01*
X107259515Y-103161263D01*
X107338737Y-103240485D01*
X107338739Y-103240486D01*
X107435759Y-103296501D01*
X107435757Y-103296501D01*
X107435761Y-103296502D01*
X107435763Y-103296503D01*
X107543982Y-103325500D01*
X107543984Y-103325500D01*
X107656016Y-103325500D01*
X107656018Y-103325500D01*
X107764237Y-103296503D01*
X107764239Y-103296501D01*
X107764241Y-103296501D01*
X107802347Y-103274500D01*
X107861263Y-103240485D01*
X107940485Y-103161263D01*
X107996503Y-103064237D01*
X108025500Y-102956018D01*
X108025500Y-102843982D01*
X107996503Y-102735763D01*
X107996501Y-102735760D01*
X107996501Y-102735758D01*
X107944969Y-102646503D01*
X107940485Y-102638737D01*
X107861263Y-102559515D01*
X107861260Y-102559513D01*
X107764240Y-102503498D01*
X107764242Y-102503498D01*
X107722251Y-102492247D01*
X107656018Y-102474500D01*
X107543982Y-102474500D01*
X107477748Y-102492247D01*
X107435758Y-102503498D01*
X107338739Y-102559513D01*
X107259513Y-102638739D01*
X107203498Y-102735758D01*
X107202231Y-102740486D01*
X107174500Y-102843982D01*
X97253722Y-102843982D01*
X97337708Y-102795492D01*
X97337708Y-102795491D01*
X97337713Y-102795489D01*
X97421589Y-102711613D01*
X97463663Y-102638739D01*
X97480897Y-102608890D01*
X97480897Y-102608888D01*
X97480899Y-102608886D01*
X97511600Y-102494309D01*
X97511600Y-102375691D01*
X97480899Y-102261114D01*
X97480897Y-102261111D01*
X97480897Y-102261109D01*
X97421592Y-102158391D01*
X97421590Y-102158389D01*
X97421589Y-102158387D01*
X97337713Y-102074511D01*
X97337710Y-102074509D01*
X97337708Y-102074507D01*
X97284837Y-102043982D01*
X102424500Y-102043982D01*
X102424500Y-102156018D01*
X102450072Y-102251455D01*
X102453498Y-102264241D01*
X102499538Y-102343983D01*
X102509515Y-102361263D01*
X102588737Y-102440485D01*
X102615641Y-102456018D01*
X102685759Y-102496501D01*
X102685757Y-102496501D01*
X102685761Y-102496502D01*
X102685763Y-102496503D01*
X102793982Y-102525500D01*
X102793984Y-102525500D01*
X102906016Y-102525500D01*
X102906018Y-102525500D01*
X103014237Y-102496503D01*
X103014239Y-102496501D01*
X103014241Y-102496501D01*
X103052347Y-102474500D01*
X103111263Y-102440485D01*
X103190485Y-102361263D01*
X103246503Y-102264237D01*
X103275500Y-102156018D01*
X103275500Y-102043982D01*
X103246503Y-101935763D01*
X103246501Y-101935760D01*
X103246501Y-101935758D01*
X103190486Y-101838739D01*
X103190485Y-101838737D01*
X103111263Y-101759515D01*
X103102738Y-101754593D01*
X103014240Y-101703498D01*
X103014242Y-101703498D01*
X102972251Y-101692247D01*
X102906018Y-101674500D01*
X102793982Y-101674500D01*
X102727748Y-101692247D01*
X102685758Y-101703498D01*
X102588739Y-101759513D01*
X102509513Y-101838739D01*
X102453498Y-101935758D01*
X102440438Y-101984500D01*
X102424500Y-102043982D01*
X97284837Y-102043982D01*
X97234989Y-102015202D01*
X97234990Y-102015202D01*
X97221451Y-102011574D01*
X97120409Y-101984500D01*
X97001791Y-101984500D01*
X96931667Y-102003289D01*
X96887209Y-102015202D01*
X96784491Y-102074507D01*
X96700607Y-102158391D01*
X96641302Y-102261109D01*
X96641301Y-102261114D01*
X96610600Y-102375691D01*
X92341300Y-102375691D01*
X92341300Y-102343982D01*
X92312303Y-102235763D01*
X92312301Y-102235760D01*
X92312301Y-102235758D01*
X92256286Y-102138739D01*
X92256285Y-102138737D01*
X92177063Y-102059515D01*
X92150161Y-102043983D01*
X92080040Y-102003498D01*
X92080042Y-102003498D01*
X92024959Y-101988739D01*
X91971818Y-101974500D01*
X91859782Y-101974500D01*
X91806641Y-101988739D01*
X91751558Y-102003498D01*
X91654539Y-102059513D01*
X91575313Y-102138739D01*
X91519298Y-102235758D01*
X91512504Y-102261114D01*
X91490300Y-102343982D01*
X83450000Y-102343982D01*
X83450000Y-101379691D01*
X95604600Y-101379691D01*
X95604600Y-101498309D01*
X95630350Y-101594407D01*
X95635302Y-101612890D01*
X95694607Y-101715608D01*
X95694609Y-101715610D01*
X95694611Y-101715613D01*
X95778487Y-101799489D01*
X95778489Y-101799490D01*
X95778491Y-101799492D01*
X95881210Y-101858797D01*
X95881211Y-101858797D01*
X95881214Y-101858799D01*
X95995791Y-101889500D01*
X95995793Y-101889500D01*
X96114407Y-101889500D01*
X96114409Y-101889500D01*
X96228986Y-101858799D01*
X96228988Y-101858797D01*
X96228990Y-101858797D01*
X96331708Y-101799492D01*
X96331708Y-101799491D01*
X96331713Y-101799489D01*
X96415589Y-101715613D01*
X96474899Y-101612886D01*
X96505600Y-101498309D01*
X96505600Y-101379691D01*
X96474899Y-101265114D01*
X96474897Y-101265111D01*
X96474897Y-101265109D01*
X96415592Y-101162391D01*
X96415590Y-101162389D01*
X96415589Y-101162387D01*
X96331713Y-101078511D01*
X96331710Y-101078509D01*
X96331708Y-101078507D01*
X96228989Y-101019202D01*
X96228990Y-101019202D01*
X96215451Y-101015574D01*
X96114409Y-100988500D01*
X95995791Y-100988500D01*
X95925667Y-101007289D01*
X95881209Y-101019202D01*
X95778491Y-101078507D01*
X95694607Y-101162391D01*
X95635302Y-101265109D01*
X95635301Y-101265114D01*
X95604600Y-101379691D01*
X83450000Y-101379691D01*
X83450000Y-100493982D01*
X94324500Y-100493982D01*
X94324500Y-100606018D01*
X94347133Y-100690485D01*
X94353498Y-100714241D01*
X94399463Y-100793853D01*
X94409515Y-100811263D01*
X94488737Y-100890485D01*
X94488739Y-100890486D01*
X94585759Y-100946501D01*
X94585757Y-100946501D01*
X94585761Y-100946502D01*
X94585763Y-100946503D01*
X94693982Y-100975500D01*
X94693984Y-100975500D01*
X94806016Y-100975500D01*
X94806018Y-100975500D01*
X94914237Y-100946503D01*
X94914239Y-100946501D01*
X94914241Y-100946501D01*
X94943064Y-100929859D01*
X95011263Y-100890485D01*
X95090485Y-100811263D01*
X95146503Y-100714237D01*
X95175500Y-100606018D01*
X95175500Y-100493982D01*
X95146503Y-100385763D01*
X95146501Y-100385760D01*
X95146501Y-100385758D01*
X95090486Y-100288739D01*
X95090485Y-100288737D01*
X95011263Y-100209515D01*
X94984361Y-100193983D01*
X94984359Y-100193982D01*
X95424500Y-100193982D01*
X95424500Y-100306018D01*
X95450072Y-100401455D01*
X95453498Y-100414241D01*
X95499538Y-100493983D01*
X95509515Y-100511263D01*
X95588737Y-100590485D01*
X95615641Y-100606018D01*
X95685759Y-100646501D01*
X95685757Y-100646501D01*
X95685761Y-100646502D01*
X95685763Y-100646503D01*
X95793982Y-100675500D01*
X95793984Y-100675500D01*
X95906016Y-100675500D01*
X95906018Y-100675500D01*
X96014237Y-100646503D01*
X96014239Y-100646501D01*
X96014241Y-100646501D01*
X96075276Y-100611262D01*
X96111263Y-100590485D01*
X96190485Y-100511263D01*
X96246503Y-100414237D01*
X96275500Y-100306018D01*
X96275500Y-100293982D01*
X103874500Y-100293982D01*
X103874500Y-100406018D01*
X103898070Y-100493982D01*
X103903498Y-100514241D01*
X103956988Y-100606886D01*
X103959515Y-100611263D01*
X104038737Y-100690485D01*
X104038739Y-100690486D01*
X104065862Y-100706146D01*
X104106803Y-100751616D01*
X104113198Y-100812466D01*
X104086367Y-100861884D01*
X104059514Y-100888737D01*
X104003498Y-100985758D01*
X103994537Y-101019201D01*
X103974500Y-101093982D01*
X103974500Y-101206018D01*
X103990333Y-101265109D01*
X104003498Y-101314241D01*
X104041287Y-101379692D01*
X104059515Y-101411263D01*
X104138737Y-101490485D01*
X104147262Y-101495407D01*
X104235759Y-101546501D01*
X104235757Y-101546501D01*
X104235761Y-101546502D01*
X104235763Y-101546503D01*
X104343982Y-101575500D01*
X104343984Y-101575500D01*
X104437988Y-101575500D01*
X104496179Y-101594407D01*
X104532143Y-101643907D01*
X104532143Y-101705093D01*
X104496179Y-101754593D01*
X104489488Y-101758937D01*
X104488743Y-101759509D01*
X104409513Y-101838739D01*
X104353498Y-101935758D01*
X104340438Y-101984500D01*
X104324500Y-102043982D01*
X104324500Y-102156018D01*
X104350072Y-102251455D01*
X104353498Y-102264241D01*
X104399538Y-102343983D01*
X104409515Y-102361263D01*
X104488737Y-102440485D01*
X104515641Y-102456018D01*
X104585759Y-102496501D01*
X104585757Y-102496501D01*
X104585761Y-102496502D01*
X104585763Y-102496503D01*
X104693982Y-102525500D01*
X104693984Y-102525500D01*
X104806016Y-102525500D01*
X104806018Y-102525500D01*
X104914237Y-102496503D01*
X104914239Y-102496501D01*
X104914241Y-102496501D01*
X104952347Y-102474500D01*
X105011263Y-102440485D01*
X105090485Y-102361263D01*
X105146503Y-102264237D01*
X105165328Y-102193982D01*
X105924500Y-102193982D01*
X105924500Y-102306018D01*
X105934673Y-102343983D01*
X105953498Y-102414241D01*
X106005031Y-102503497D01*
X106009515Y-102511263D01*
X106088737Y-102590485D01*
X106088739Y-102590486D01*
X106185759Y-102646501D01*
X106185757Y-102646501D01*
X106185761Y-102646502D01*
X106185763Y-102646503D01*
X106293982Y-102675500D01*
X106293984Y-102675500D01*
X106406016Y-102675500D01*
X106406018Y-102675500D01*
X106514237Y-102646503D01*
X106514239Y-102646501D01*
X106514241Y-102646501D01*
X106543064Y-102629859D01*
X106611263Y-102590485D01*
X106690485Y-102511263D01*
X106746503Y-102414237D01*
X106775500Y-102306018D01*
X106775500Y-102193982D01*
X106746503Y-102085763D01*
X106746501Y-102085760D01*
X106746501Y-102085758D01*
X106690486Y-101988739D01*
X106690485Y-101988737D01*
X106611263Y-101909515D01*
X106611260Y-101909513D01*
X106514240Y-101853498D01*
X106514242Y-101853498D01*
X106459159Y-101838739D01*
X106406018Y-101824500D01*
X106293982Y-101824500D01*
X106240841Y-101838739D01*
X106185758Y-101853498D01*
X106088739Y-101909513D01*
X106009513Y-101988739D01*
X105953498Y-102085758D01*
X105953497Y-102085763D01*
X105924500Y-102193982D01*
X105165328Y-102193982D01*
X105175500Y-102156018D01*
X105175500Y-102043982D01*
X105146503Y-101935763D01*
X105146501Y-101935760D01*
X105146501Y-101935758D01*
X105090486Y-101838739D01*
X105090485Y-101838737D01*
X105011263Y-101759515D01*
X105002738Y-101754593D01*
X104914240Y-101703498D01*
X104914242Y-101703498D01*
X104872251Y-101692247D01*
X104806018Y-101674500D01*
X104712012Y-101674500D01*
X104653821Y-101655593D01*
X104617857Y-101606093D01*
X104617857Y-101544907D01*
X104653821Y-101495407D01*
X104660511Y-101491062D01*
X104661256Y-101490490D01*
X104661258Y-101490487D01*
X104661263Y-101490485D01*
X104740485Y-101411263D01*
X104796503Y-101314237D01*
X104825500Y-101206018D01*
X104825500Y-101093982D01*
X104796503Y-100985763D01*
X104796501Y-100985760D01*
X104796501Y-100985758D01*
X104740486Y-100888739D01*
X104740485Y-100888737D01*
X104661263Y-100809515D01*
X104634136Y-100793853D01*
X104593195Y-100748383D01*
X104586801Y-100687532D01*
X104613633Y-100638114D01*
X104640485Y-100611263D01*
X104696503Y-100514237D01*
X104725500Y-100406018D01*
X104725500Y-100373691D01*
X108626500Y-100373691D01*
X108626500Y-100492309D01*
X108626949Y-100493983D01*
X108657202Y-100606890D01*
X108716507Y-100709608D01*
X108716509Y-100709610D01*
X108716511Y-100709613D01*
X108800387Y-100793489D01*
X108800389Y-100793490D01*
X108800391Y-100793492D01*
X108903110Y-100852797D01*
X108903111Y-100852797D01*
X108903114Y-100852799D01*
X109017691Y-100883500D01*
X109017693Y-100883500D01*
X109136307Y-100883500D01*
X109136309Y-100883500D01*
X109250886Y-100852799D01*
X109250888Y-100852797D01*
X109250890Y-100852797D01*
X109353608Y-100793492D01*
X109353608Y-100793491D01*
X109353613Y-100793489D01*
X109437489Y-100709613D01*
X109450238Y-100687532D01*
X109496797Y-100606890D01*
X109496797Y-100606888D01*
X109496799Y-100606886D01*
X109527500Y-100492309D01*
X109527500Y-100373691D01*
X109496799Y-100259114D01*
X109496797Y-100259111D01*
X109496797Y-100259109D01*
X109437492Y-100156391D01*
X109437490Y-100156389D01*
X109437489Y-100156387D01*
X109353613Y-100072511D01*
X109353610Y-100072509D01*
X109353608Y-100072507D01*
X109250889Y-100013202D01*
X109250890Y-100013202D01*
X109237122Y-100009513D01*
X109136309Y-99982500D01*
X109017691Y-99982500D01*
X108947567Y-100001289D01*
X108903109Y-100013202D01*
X108800391Y-100072507D01*
X108716507Y-100156391D01*
X108657202Y-100259109D01*
X108644633Y-100306018D01*
X108626500Y-100373691D01*
X104725500Y-100373691D01*
X104725500Y-100293982D01*
X104696503Y-100185763D01*
X104696501Y-100185760D01*
X104696501Y-100185758D01*
X104644969Y-100096503D01*
X104640485Y-100088737D01*
X104561263Y-100009515D01*
X104561260Y-100009513D01*
X104464240Y-99953498D01*
X104464242Y-99953498D01*
X104422251Y-99942247D01*
X104356018Y-99924500D01*
X104243982Y-99924500D01*
X104177748Y-99942247D01*
X104135758Y-99953498D01*
X104038739Y-100009513D01*
X103959513Y-100088739D01*
X103903498Y-100185758D01*
X103901294Y-100193983D01*
X103874500Y-100293982D01*
X96275500Y-100293982D01*
X96275500Y-100193982D01*
X96246503Y-100085763D01*
X96246501Y-100085760D01*
X96246501Y-100085758D01*
X96190486Y-99988739D01*
X96190485Y-99988737D01*
X96111263Y-99909515D01*
X96111260Y-99909513D01*
X96014240Y-99853498D01*
X96014242Y-99853498D01*
X95972251Y-99842247D01*
X95906018Y-99824500D01*
X95793982Y-99824500D01*
X95727748Y-99842247D01*
X95685758Y-99853498D01*
X95588739Y-99909513D01*
X95509513Y-99988739D01*
X95453498Y-100085758D01*
X95437286Y-100146263D01*
X95424500Y-100193982D01*
X94984359Y-100193982D01*
X94914240Y-100153498D01*
X94914242Y-100153498D01*
X94872251Y-100142247D01*
X94806018Y-100124500D01*
X94693982Y-100124500D01*
X94627748Y-100142247D01*
X94585758Y-100153498D01*
X94488739Y-100209513D01*
X94409513Y-100288739D01*
X94353498Y-100385758D01*
X94345867Y-100414237D01*
X94324500Y-100493982D01*
X83450000Y-100493982D01*
X83450000Y-99643982D01*
X88874500Y-99643982D01*
X88874500Y-99756018D01*
X88892850Y-99824500D01*
X88903498Y-99864241D01*
X88955031Y-99953497D01*
X88959515Y-99961263D01*
X89038737Y-100040485D01*
X89038739Y-100040486D01*
X89135759Y-100096501D01*
X89135757Y-100096501D01*
X89135761Y-100096502D01*
X89135763Y-100096503D01*
X89243982Y-100125500D01*
X89243984Y-100125500D01*
X89356016Y-100125500D01*
X89356018Y-100125500D01*
X89464237Y-100096503D01*
X89464239Y-100096501D01*
X89464241Y-100096501D01*
X89505799Y-100072507D01*
X89561263Y-100040485D01*
X89640485Y-99961263D01*
X89696503Y-99864237D01*
X89725500Y-99756018D01*
X89725500Y-99643982D01*
X89696503Y-99535763D01*
X89696501Y-99535760D01*
X89696501Y-99535758D01*
X89640486Y-99438739D01*
X89640485Y-99438737D01*
X89561263Y-99359515D01*
X89464237Y-99303497D01*
X89356018Y-99274500D01*
X89243982Y-99274500D01*
X89177748Y-99292247D01*
X89135758Y-99303498D01*
X89038739Y-99359513D01*
X88959513Y-99438739D01*
X88903498Y-99535758D01*
X88903497Y-99535763D01*
X88874500Y-99643982D01*
X83450000Y-99643982D01*
X83450000Y-99261982D01*
X93257000Y-99261982D01*
X93257000Y-99374018D01*
X93274341Y-99438737D01*
X93285998Y-99482241D01*
X93316897Y-99535758D01*
X93342015Y-99579263D01*
X93421237Y-99658485D01*
X93421239Y-99658486D01*
X93518259Y-99714501D01*
X93518257Y-99714501D01*
X93518261Y-99714502D01*
X93518263Y-99714503D01*
X93626482Y-99743500D01*
X93626484Y-99743500D01*
X93738516Y-99743500D01*
X93738518Y-99743500D01*
X93846737Y-99714503D01*
X93846739Y-99714501D01*
X93846741Y-99714501D01*
X93875564Y-99697859D01*
X93943763Y-99658485D01*
X94022985Y-99579263D01*
X94079003Y-99482237D01*
X94108000Y-99374018D01*
X94108000Y-99261982D01*
X94079003Y-99153763D01*
X94079001Y-99153760D01*
X94079001Y-99153758D01*
X94022986Y-99056739D01*
X94022985Y-99056737D01*
X93943763Y-98977515D01*
X93943760Y-98977513D01*
X93846740Y-98921498D01*
X93846742Y-98921498D01*
X93804751Y-98910247D01*
X93738518Y-98892500D01*
X93626482Y-98892500D01*
X93560248Y-98910247D01*
X93518258Y-98921498D01*
X93421239Y-98977513D01*
X93342013Y-99056739D01*
X93285998Y-99153758D01*
X93285997Y-99153763D01*
X93257000Y-99261982D01*
X83450000Y-99261982D01*
X83450000Y-97793982D01*
X88024500Y-97793982D01*
X88024500Y-97906018D01*
X88033736Y-97940486D01*
X88053498Y-98014241D01*
X88109513Y-98111260D01*
X88109515Y-98111263D01*
X88188737Y-98190485D01*
X88188739Y-98190486D01*
X88285759Y-98246501D01*
X88285757Y-98246501D01*
X88285761Y-98246502D01*
X88285763Y-98246503D01*
X88393982Y-98275500D01*
X88393984Y-98275500D01*
X88506016Y-98275500D01*
X88506018Y-98275500D01*
X88614237Y-98246503D01*
X88614239Y-98246501D01*
X88614241Y-98246501D01*
X88643064Y-98229859D01*
X88705206Y-98193982D01*
X94128300Y-98193982D01*
X94128300Y-98306018D01*
X94138348Y-98343518D01*
X94157298Y-98414241D01*
X94213313Y-98511260D01*
X94213315Y-98511263D01*
X94292537Y-98590485D01*
X94292539Y-98590486D01*
X94389559Y-98646501D01*
X94389557Y-98646501D01*
X94389561Y-98646502D01*
X94389563Y-98646503D01*
X94497782Y-98675500D01*
X94497784Y-98675500D01*
X94609816Y-98675500D01*
X94609818Y-98675500D01*
X94718037Y-98646503D01*
X94718039Y-98646501D01*
X94718041Y-98646501D01*
X94750111Y-98627985D01*
X94815063Y-98590485D01*
X94894285Y-98511263D01*
X94950303Y-98414237D01*
X94979300Y-98306018D01*
X94979300Y-98193982D01*
X94950303Y-98085763D01*
X94950301Y-98085760D01*
X94950301Y-98085758D01*
X94898769Y-97996503D01*
X94894285Y-97988737D01*
X94815063Y-97909515D01*
X94814864Y-97909400D01*
X94718040Y-97853498D01*
X94718042Y-97853498D01*
X94672879Y-97841397D01*
X94609818Y-97824500D01*
X94497782Y-97824500D01*
X94434721Y-97841397D01*
X94389558Y-97853498D01*
X94292539Y-97909513D01*
X94213313Y-97988739D01*
X94157298Y-98085758D01*
X94157297Y-98085763D01*
X94128300Y-98193982D01*
X88705206Y-98193982D01*
X88711263Y-98190485D01*
X88790485Y-98111263D01*
X88846503Y-98014237D01*
X88875500Y-97906018D01*
X88875500Y-97793982D01*
X88857049Y-97725121D01*
X88860252Y-97664021D01*
X88898757Y-97616471D01*
X88952676Y-97600500D01*
X89065890Y-97600500D01*
X89065892Y-97600500D01*
X89193186Y-97566392D01*
X89193188Y-97566390D01*
X89193190Y-97566390D01*
X89232002Y-97543982D01*
X90474499Y-97543982D01*
X90474499Y-97656018D01*
X90500071Y-97751455D01*
X90503497Y-97764241D01*
X90555030Y-97853497D01*
X90559514Y-97861263D01*
X90638736Y-97940485D01*
X90638738Y-97940486D01*
X90735758Y-97996501D01*
X90735756Y-97996501D01*
X90735760Y-97996502D01*
X90735762Y-97996503D01*
X90843981Y-98025500D01*
X90843983Y-98025500D01*
X90956015Y-98025500D01*
X90956017Y-98025500D01*
X91064236Y-97996503D01*
X91064238Y-97996501D01*
X91064240Y-97996501D01*
X91096618Y-97977807D01*
X91161262Y-97940485D01*
X91240484Y-97861263D01*
X91279858Y-97793064D01*
X91296500Y-97764241D01*
X91296500Y-97764239D01*
X91296502Y-97764237D01*
X91325499Y-97656018D01*
X91325499Y-97543982D01*
X91298545Y-97443388D01*
X91301747Y-97382290D01*
X91340253Y-97334740D01*
X91368543Y-97322143D01*
X91464237Y-97296503D01*
X91561263Y-97240485D01*
X91640485Y-97161263D01*
X91681349Y-97090485D01*
X91696501Y-97064241D01*
X91696501Y-97064239D01*
X91696503Y-97064237D01*
X91725500Y-96956018D01*
X91725500Y-96843982D01*
X91696503Y-96735763D01*
X91696501Y-96735760D01*
X91696501Y-96735758D01*
X91682831Y-96712082D01*
X92266100Y-96712082D01*
X92266100Y-96824118D01*
X92284741Y-96893687D01*
X92295098Y-96932341D01*
X92351113Y-97029360D01*
X92351115Y-97029363D01*
X92430337Y-97108585D01*
X92430339Y-97108586D01*
X92527359Y-97164601D01*
X92527357Y-97164601D01*
X92527361Y-97164602D01*
X92527363Y-97164603D01*
X92635582Y-97193600D01*
X92635584Y-97193600D01*
X92747616Y-97193600D01*
X92747618Y-97193600D01*
X92855837Y-97164603D01*
X92855839Y-97164601D01*
X92855841Y-97164601D01*
X92889813Y-97144987D01*
X92952863Y-97108585D01*
X92953666Y-97107782D01*
X93742400Y-97107782D01*
X93742400Y-97219818D01*
X93749875Y-97247714D01*
X93771398Y-97328041D01*
X93827090Y-97424500D01*
X93827415Y-97425063D01*
X93906637Y-97504285D01*
X93906639Y-97504286D01*
X94003659Y-97560301D01*
X94003657Y-97560301D01*
X94003661Y-97560302D01*
X94003663Y-97560303D01*
X94111882Y-97589300D01*
X94111884Y-97589300D01*
X94223916Y-97589300D01*
X94223918Y-97589300D01*
X94332137Y-97560303D01*
X94332139Y-97560301D01*
X94332141Y-97560301D01*
X94360964Y-97543659D01*
X94429163Y-97504285D01*
X94508385Y-97425063D01*
X94558224Y-97338739D01*
X94564401Y-97328041D01*
X94564401Y-97328039D01*
X94564403Y-97328037D01*
X94593400Y-97219818D01*
X94593400Y-97107782D01*
X94564403Y-96999563D01*
X94553404Y-96980512D01*
X94540683Y-96920664D01*
X94565570Y-96864769D01*
X94569124Y-96861023D01*
X94577985Y-96852163D01*
X94577986Y-96852159D01*
X94577988Y-96852159D01*
X94634001Y-96755141D01*
X94634001Y-96755139D01*
X94634003Y-96755137D01*
X94663000Y-96646918D01*
X94663000Y-96537980D01*
X94681907Y-96479789D01*
X94731407Y-96443825D01*
X94792593Y-96443825D01*
X94842093Y-96479789D01*
X94847736Y-96488480D01*
X94858336Y-96506839D01*
X94884215Y-96551663D01*
X94963437Y-96630885D01*
X95060463Y-96686903D01*
X95060469Y-96686904D01*
X95063381Y-96688111D01*
X95065105Y-96689583D01*
X95066083Y-96690148D01*
X95065978Y-96690329D01*
X95109909Y-96727845D01*
X95124500Y-96779577D01*
X95124500Y-96806018D01*
X95139234Y-96861007D01*
X95153498Y-96914241D01*
X95207862Y-97008400D01*
X95209515Y-97011263D01*
X95288737Y-97090485D01*
X95288739Y-97090486D01*
X95385759Y-97146501D01*
X95385757Y-97146501D01*
X95385761Y-97146502D01*
X95385763Y-97146503D01*
X95493982Y-97175500D01*
X95493984Y-97175500D01*
X95606016Y-97175500D01*
X95606018Y-97175500D01*
X95714237Y-97146503D01*
X95714239Y-97146501D01*
X95714241Y-97146501D01*
X95752881Y-97124192D01*
X95811263Y-97090485D01*
X95890485Y-97011263D01*
X95936053Y-96932337D01*
X95946501Y-96914241D01*
X95946501Y-96914239D01*
X95946503Y-96914237D01*
X95975500Y-96806018D01*
X95975500Y-96693982D01*
X95946503Y-96585763D01*
X95946501Y-96585760D01*
X95946501Y-96585758D01*
X95897239Y-96500436D01*
X95890485Y-96488737D01*
X95811263Y-96409515D01*
X95811260Y-96409513D01*
X95714240Y-96353498D01*
X95711314Y-96352286D01*
X95709588Y-96350812D01*
X95708618Y-96350252D01*
X95708721Y-96350072D01*
X95664788Y-96312549D01*
X95650200Y-96260822D01*
X95650200Y-96234383D01*
X95631716Y-96165400D01*
X95621203Y-96126163D01*
X95621201Y-96126160D01*
X95621201Y-96126158D01*
X95565186Y-96029139D01*
X95565185Y-96029137D01*
X95485963Y-95949915D01*
X95485960Y-95949913D01*
X95388940Y-95893898D01*
X95388942Y-95893898D01*
X95332646Y-95878814D01*
X95280718Y-95864900D01*
X95168682Y-95864900D01*
X95116754Y-95878814D01*
X95060458Y-95893898D01*
X94963439Y-95949913D01*
X94884213Y-96029139D01*
X94828198Y-96126158D01*
X94799200Y-96234383D01*
X94799200Y-96343319D01*
X94780293Y-96401510D01*
X94730793Y-96437474D01*
X94669607Y-96437474D01*
X94620107Y-96401510D01*
X94614464Y-96392820D01*
X94591761Y-96353498D01*
X94577985Y-96329637D01*
X94498763Y-96250415D01*
X94470995Y-96234383D01*
X94401740Y-96194398D01*
X94401742Y-96194398D01*
X94359751Y-96183147D01*
X94293518Y-96165400D01*
X94181482Y-96165400D01*
X94115248Y-96183147D01*
X94073258Y-96194398D01*
X93976239Y-96250413D01*
X93897013Y-96329639D01*
X93840998Y-96426658D01*
X93840997Y-96426663D01*
X93812000Y-96534882D01*
X93812000Y-96646918D01*
X93840997Y-96755137D01*
X93840998Y-96755139D01*
X93840999Y-96755141D01*
X93851995Y-96774188D01*
X93864715Y-96834036D01*
X93839828Y-96889931D01*
X93836264Y-96893687D01*
X93827415Y-96902536D01*
X93771398Y-96999558D01*
X93770797Y-97001801D01*
X93742400Y-97107782D01*
X92953666Y-97107782D01*
X93032085Y-97029363D01*
X93088103Y-96932337D01*
X93117100Y-96824118D01*
X93117100Y-96712082D01*
X93088103Y-96603863D01*
X93088101Y-96603860D01*
X93088101Y-96603858D01*
X93032086Y-96506839D01*
X93032085Y-96506837D01*
X92952863Y-96427615D01*
X92952860Y-96427613D01*
X92855840Y-96371598D01*
X92855842Y-96371598D01*
X92813851Y-96360347D01*
X92747618Y-96342600D01*
X92635582Y-96342600D01*
X92569348Y-96360347D01*
X92527358Y-96371598D01*
X92430339Y-96427613D01*
X92351113Y-96506839D01*
X92295098Y-96603858D01*
X92283508Y-96647115D01*
X92266100Y-96712082D01*
X91682831Y-96712082D01*
X91640486Y-96638739D01*
X91640485Y-96638737D01*
X91561263Y-96559515D01*
X91561260Y-96559513D01*
X91464240Y-96503498D01*
X91464242Y-96503498D01*
X91409159Y-96488739D01*
X91356018Y-96474500D01*
X91243982Y-96474500D01*
X91190841Y-96488739D01*
X91135758Y-96503498D01*
X91038739Y-96559513D01*
X90959513Y-96638739D01*
X90903498Y-96735758D01*
X90896011Y-96763701D01*
X90874500Y-96843982D01*
X90874500Y-96956018D01*
X90901453Y-97056608D01*
X90898250Y-97117710D01*
X90859745Y-97165260D01*
X90831449Y-97177858D01*
X90735757Y-97203498D01*
X90638738Y-97259513D01*
X90559512Y-97338739D01*
X90503497Y-97435758D01*
X90503496Y-97435763D01*
X90474499Y-97543982D01*
X89232002Y-97543982D01*
X89307309Y-97500503D01*
X89307309Y-97500502D01*
X89307314Y-97500500D01*
X89400500Y-97407314D01*
X89442401Y-97334740D01*
X89466390Y-97293190D01*
X89466390Y-97293188D01*
X89466392Y-97293186D01*
X89500500Y-97165892D01*
X89500500Y-97034108D01*
X89466392Y-96906814D01*
X89466390Y-96906811D01*
X89466390Y-96906809D01*
X89400503Y-96792690D01*
X89400501Y-96792688D01*
X89400500Y-96792686D01*
X89307314Y-96699500D01*
X89307311Y-96699498D01*
X89307309Y-96699496D01*
X89304760Y-96697540D01*
X89303456Y-96695643D01*
X89302725Y-96694912D01*
X89302860Y-96694776D01*
X89270106Y-96647115D01*
X89271709Y-96585950D01*
X89308958Y-96537410D01*
X89343230Y-96526768D01*
X89350000Y-96519999D01*
X89350000Y-96069999D01*
X89650000Y-96069999D01*
X89650000Y-96519999D01*
X89650001Y-96520000D01*
X89983717Y-96520000D01*
X89983720Y-96519999D01*
X90147934Y-96487335D01*
X90302625Y-96423260D01*
X90441840Y-96330240D01*
X90560240Y-96211840D01*
X90653260Y-96072625D01*
X90717333Y-95917939D01*
X90717335Y-95917933D01*
X90736816Y-95820000D01*
X90223917Y-95820000D01*
X90249999Y-95722661D01*
X90249999Y-95617339D01*
X90230343Y-95543982D01*
X96324500Y-95543982D01*
X96324500Y-95656018D01*
X96335722Y-95697900D01*
X96353498Y-95764241D01*
X96405155Y-95853711D01*
X96409515Y-95861263D01*
X96488737Y-95940485D01*
X96488739Y-95940486D01*
X96585759Y-95996501D01*
X96585757Y-95996501D01*
X96585761Y-95996502D01*
X96585763Y-95996503D01*
X96693982Y-96025500D01*
X96693984Y-96025500D01*
X96806016Y-96025500D01*
X96806018Y-96025500D01*
X96914237Y-95996503D01*
X96914239Y-95996501D01*
X96914241Y-95996501D01*
X96943064Y-95979859D01*
X97011263Y-95940485D01*
X97090485Y-95861263D01*
X97146503Y-95764237D01*
X97175500Y-95656018D01*
X97175500Y-95543982D01*
X97146503Y-95435763D01*
X97146501Y-95435760D01*
X97146501Y-95435758D01*
X97096942Y-95349921D01*
X97090485Y-95338737D01*
X97011263Y-95259515D01*
X97011260Y-95259513D01*
X96936556Y-95216382D01*
X103124500Y-95216382D01*
X103124500Y-95328418D01*
X103130262Y-95349921D01*
X103153498Y-95436641D01*
X103209513Y-95533660D01*
X103209515Y-95533663D01*
X103288737Y-95612885D01*
X103288739Y-95612886D01*
X103385759Y-95668901D01*
X103385757Y-95668901D01*
X103385761Y-95668902D01*
X103385763Y-95668903D01*
X103493982Y-95697900D01*
X103493984Y-95697900D01*
X103606016Y-95697900D01*
X103606018Y-95697900D01*
X103714237Y-95668903D01*
X103714239Y-95668901D01*
X103714241Y-95668901D01*
X103803548Y-95617339D01*
X103811263Y-95612885D01*
X103855321Y-95568826D01*
X103909835Y-95541050D01*
X103970267Y-95550621D01*
X104013532Y-95593885D01*
X104020948Y-95613203D01*
X104041201Y-95688786D01*
X104041202Y-95688788D01*
X104041203Y-95688791D01*
X104099889Y-95790437D01*
X104112611Y-95850285D01*
X104087725Y-95906181D01*
X104084158Y-95909939D01*
X104056512Y-95937585D01*
X104056507Y-95937591D01*
X103997202Y-96040309D01*
X103997201Y-96040314D01*
X103966500Y-96154891D01*
X103966500Y-96273509D01*
X103987608Y-96352286D01*
X103997202Y-96388090D01*
X104056507Y-96490808D01*
X104056509Y-96490810D01*
X104056511Y-96490813D01*
X104140387Y-96574689D01*
X104205940Y-96612536D01*
X104246880Y-96658005D01*
X104253276Y-96718855D01*
X104222683Y-96771843D01*
X104205940Y-96784008D01*
X104138389Y-96823009D01*
X104054510Y-96906888D01*
X104046557Y-96920664D01*
X104024480Y-96958901D01*
X103979012Y-96999841D01*
X103938745Y-97008400D01*
X103879691Y-97008400D01*
X103809567Y-97027189D01*
X103765109Y-97039102D01*
X103662391Y-97098407D01*
X103578507Y-97182291D01*
X103519202Y-97285009D01*
X103509994Y-97319374D01*
X103488500Y-97399591D01*
X103488500Y-97518209D01*
X103509208Y-97595490D01*
X103519202Y-97632790D01*
X103578507Y-97735508D01*
X103578509Y-97735510D01*
X103578511Y-97735513D01*
X103662387Y-97819389D01*
X103662389Y-97819390D01*
X103662391Y-97819392D01*
X103765110Y-97878697D01*
X103765111Y-97878697D01*
X103765114Y-97878699D01*
X103879691Y-97909400D01*
X103879693Y-97909400D01*
X103888498Y-97909400D01*
X103946689Y-97928307D01*
X103982653Y-97977807D01*
X103982653Y-98038993D01*
X103974234Y-98057900D01*
X103936498Y-98123258D01*
X103936497Y-98123263D01*
X103907500Y-98231482D01*
X103907500Y-98343518D01*
X103926449Y-98414237D01*
X103936498Y-98451741D01*
X103970864Y-98511263D01*
X103992515Y-98548763D01*
X104071737Y-98627985D01*
X104071739Y-98627986D01*
X104168759Y-98684001D01*
X104168757Y-98684001D01*
X104168761Y-98684002D01*
X104168763Y-98684003D01*
X104276982Y-98713000D01*
X104276984Y-98713000D01*
X104389016Y-98713000D01*
X104389018Y-98713000D01*
X104497237Y-98684003D01*
X104497239Y-98684001D01*
X104497241Y-98684001D01*
X104526064Y-98667359D01*
X104594263Y-98627985D01*
X104673485Y-98548763D01*
X104729503Y-98451737D01*
X104758500Y-98343518D01*
X104758500Y-98231482D01*
X104729503Y-98123263D01*
X104729501Y-98123260D01*
X104729501Y-98123258D01*
X104673486Y-98026239D01*
X104673485Y-98026237D01*
X104594263Y-97947015D01*
X104582954Y-97940486D01*
X104534601Y-97912569D01*
X104534595Y-97912565D01*
X104497237Y-97890997D01*
X104451340Y-97878699D01*
X104389016Y-97861999D01*
X104384839Y-97861450D01*
X104329615Y-97835108D01*
X104328411Y-97832891D01*
X105768500Y-97832891D01*
X105768500Y-97951509D01*
X105788524Y-98026239D01*
X105799202Y-98066090D01*
X105858507Y-98168808D01*
X105858509Y-98168810D01*
X105858511Y-98168813D01*
X105942387Y-98252689D01*
X105942389Y-98252690D01*
X105942391Y-98252692D01*
X106045110Y-98311997D01*
X106045111Y-98311997D01*
X106045114Y-98311999D01*
X106159691Y-98342700D01*
X106159693Y-98342700D01*
X106278307Y-98342700D01*
X106278309Y-98342700D01*
X106392886Y-98311999D01*
X106392888Y-98311997D01*
X106392890Y-98311997D01*
X106495608Y-98252692D01*
X106495608Y-98252691D01*
X106495613Y-98252689D01*
X106579489Y-98168813D01*
X106605788Y-98123263D01*
X106638797Y-98066090D01*
X106638797Y-98066088D01*
X106638799Y-98066086D01*
X106669500Y-97951509D01*
X106669500Y-97832891D01*
X106638799Y-97718314D01*
X106638797Y-97718311D01*
X106638797Y-97718309D01*
X106579492Y-97615591D01*
X106579490Y-97615589D01*
X106579489Y-97615587D01*
X106495613Y-97531711D01*
X106495610Y-97531709D01*
X106495608Y-97531707D01*
X106392889Y-97472402D01*
X106392890Y-97472402D01*
X106374554Y-97467489D01*
X106278309Y-97441700D01*
X106159691Y-97441700D01*
X106115661Y-97453498D01*
X106045109Y-97472402D01*
X105942391Y-97531707D01*
X105858507Y-97615591D01*
X105799202Y-97718309D01*
X105787198Y-97763108D01*
X105768500Y-97832891D01*
X104328411Y-97832891D01*
X104300420Y-97781337D01*
X104308408Y-97720675D01*
X104312027Y-97713797D01*
X104329519Y-97683500D01*
X104340581Y-97673539D01*
X104347811Y-97660528D01*
X104362745Y-97653582D01*
X104374988Y-97642559D01*
X104396092Y-97638073D01*
X104403289Y-97634726D01*
X104407743Y-97635596D01*
X104415255Y-97634000D01*
X104474307Y-97634000D01*
X104474309Y-97634000D01*
X104588886Y-97603299D01*
X104588888Y-97603297D01*
X104588890Y-97603297D01*
X104691608Y-97543992D01*
X104691608Y-97543991D01*
X104691613Y-97543989D01*
X104775489Y-97460113D01*
X104789548Y-97435763D01*
X104834797Y-97357390D01*
X104834797Y-97357388D01*
X104834799Y-97357386D01*
X104865500Y-97242809D01*
X104865500Y-97124191D01*
X104834799Y-97009614D01*
X104834797Y-97009611D01*
X104834797Y-97009609D01*
X104775492Y-96906891D01*
X104775490Y-96906889D01*
X104775489Y-96906887D01*
X104691613Y-96823011D01*
X104691610Y-96823009D01*
X104691608Y-96823007D01*
X104626060Y-96785163D01*
X104585119Y-96739694D01*
X104578723Y-96678843D01*
X104609316Y-96625855D01*
X104626052Y-96613695D01*
X104693613Y-96574689D01*
X104777489Y-96490813D01*
X104777492Y-96490808D01*
X104836797Y-96388090D01*
X104836797Y-96388088D01*
X104836799Y-96388086D01*
X104867500Y-96273509D01*
X104867500Y-96154891D01*
X104836799Y-96040314D01*
X104778109Y-95938662D01*
X104765388Y-95878814D01*
X104790274Y-95822919D01*
X104793825Y-95819176D01*
X104821489Y-95791513D01*
X104880799Y-95688786D01*
X104911500Y-95574209D01*
X104911500Y-95455591D01*
X104880799Y-95341014D01*
X104880797Y-95341011D01*
X104880797Y-95341009D01*
X104821492Y-95238291D01*
X104821490Y-95238289D01*
X104821489Y-95238287D01*
X104737613Y-95154411D01*
X104737610Y-95154409D01*
X104737608Y-95154407D01*
X104634889Y-95095102D01*
X104634890Y-95095102D01*
X104621351Y-95091474D01*
X104520309Y-95064400D01*
X104401691Y-95064400D01*
X104331567Y-95083189D01*
X104287109Y-95095102D01*
X104184391Y-95154407D01*
X104184386Y-95154411D01*
X104127796Y-95211001D01*
X104073279Y-95238778D01*
X104012847Y-95229206D01*
X103969583Y-95185941D01*
X103962166Y-95166620D01*
X103958894Y-95154407D01*
X103946503Y-95108163D01*
X103946501Y-95108160D01*
X103946501Y-95108158D01*
X103890486Y-95011139D01*
X103890485Y-95011137D01*
X103811263Y-94931915D01*
X103811260Y-94931913D01*
X103714240Y-94875898D01*
X103714242Y-94875898D01*
X103672251Y-94864647D01*
X103606018Y-94846900D01*
X103493982Y-94846900D01*
X103427748Y-94864647D01*
X103385758Y-94875898D01*
X103288739Y-94931913D01*
X103209513Y-95011139D01*
X103153498Y-95108158D01*
X103153497Y-95108163D01*
X103124500Y-95216382D01*
X96936556Y-95216382D01*
X96914240Y-95203498D01*
X96914242Y-95203498D01*
X96872251Y-95192247D01*
X96806018Y-95174500D01*
X96693982Y-95174500D01*
X96627748Y-95192247D01*
X96585758Y-95203498D01*
X96488739Y-95259513D01*
X96409513Y-95338739D01*
X96353498Y-95435758D01*
X96348184Y-95455591D01*
X96324500Y-95543982D01*
X90230343Y-95543982D01*
X90223917Y-95520000D01*
X90736815Y-95520000D01*
X90717335Y-95422066D01*
X90717333Y-95422060D01*
X90653260Y-95267374D01*
X90560240Y-95128159D01*
X90441840Y-95009759D01*
X90302625Y-94916739D01*
X90147934Y-94852664D01*
X89983720Y-94820000D01*
X89650001Y-94820000D01*
X89650000Y-94820001D01*
X89650000Y-95270001D01*
X89350000Y-95270001D01*
X89350000Y-94820001D01*
X89349999Y-94820000D01*
X89016279Y-94820000D01*
X88852065Y-94852664D01*
X88697374Y-94916739D01*
X88558159Y-95009759D01*
X88439759Y-95128159D01*
X88346739Y-95267374D01*
X88282666Y-95422060D01*
X88282664Y-95422066D01*
X88263183Y-95520000D01*
X88776083Y-95520000D01*
X88750001Y-95617339D01*
X88750001Y-95722661D01*
X88776083Y-95820000D01*
X88263184Y-95820000D01*
X88282664Y-95917933D01*
X88282666Y-95917939D01*
X88346739Y-96072625D01*
X88439759Y-96211840D01*
X88558159Y-96330240D01*
X88697376Y-96423261D01*
X88787762Y-96460700D01*
X88834288Y-96500436D01*
X88848572Y-96559931D01*
X88825157Y-96616459D01*
X88799378Y-96637900D01*
X88692688Y-96699498D01*
X88599496Y-96792690D01*
X88533609Y-96906809D01*
X88533608Y-96906814D01*
X88499500Y-97034108D01*
X88499500Y-97165892D01*
X88533608Y-97293186D01*
X88533608Y-97293187D01*
X88535288Y-97299454D01*
X88532302Y-97300253D01*
X88536091Y-97348652D01*
X88504099Y-97400808D01*
X88447561Y-97424198D01*
X88439836Y-97424500D01*
X88393982Y-97424500D01*
X88351948Y-97435763D01*
X88285758Y-97453498D01*
X88188739Y-97509513D01*
X88109513Y-97588739D01*
X88053498Y-97685758D01*
X88040168Y-97735508D01*
X88024500Y-97793982D01*
X83450000Y-97793982D01*
X83450000Y-95520000D01*
X84183183Y-95520000D01*
X84746083Y-95520000D01*
X84720001Y-95617339D01*
X84720001Y-95722661D01*
X84746083Y-95820000D01*
X84183184Y-95820000D01*
X84202664Y-95917933D01*
X84202666Y-95917939D01*
X84266739Y-96072625D01*
X84359759Y-96211840D01*
X84478159Y-96330240D01*
X84617374Y-96423260D01*
X84772065Y-96487335D01*
X84936279Y-96519999D01*
X84936283Y-96520000D01*
X85169999Y-96520000D01*
X85170000Y-96519999D01*
X85170000Y-96069999D01*
X85470000Y-96069999D01*
X85470000Y-96519999D01*
X85470001Y-96520000D01*
X85703717Y-96520000D01*
X85703720Y-96519999D01*
X85867934Y-96487335D01*
X86022625Y-96423260D01*
X86161840Y-96330240D01*
X86280240Y-96211840D01*
X86373260Y-96072625D01*
X86437333Y-95917939D01*
X86437335Y-95917933D01*
X86456816Y-95820000D01*
X85893917Y-95820000D01*
X85919999Y-95722661D01*
X85919999Y-95617339D01*
X85893917Y-95520000D01*
X86456816Y-95520000D01*
X86437335Y-95422066D01*
X86437333Y-95422060D01*
X86373260Y-95267374D01*
X86280240Y-95128159D01*
X86161840Y-95009759D01*
X86022625Y-94916739D01*
X85867934Y-94852664D01*
X85703720Y-94820000D01*
X85470001Y-94820000D01*
X85470000Y-94820001D01*
X85470000Y-95270001D01*
X85170000Y-95270001D01*
X85170000Y-94820001D01*
X85169999Y-94820000D01*
X84936279Y-94820000D01*
X84772065Y-94852664D01*
X84617374Y-94916739D01*
X84478159Y-95009759D01*
X84359759Y-95128159D01*
X84266739Y-95267374D01*
X84202666Y-95422060D01*
X84202664Y-95422066D01*
X84183183Y-95520000D01*
X83450000Y-95520000D01*
X83450000Y-94208982D01*
X86765600Y-94208982D01*
X86765600Y-94321018D01*
X86788375Y-94406016D01*
X86794598Y-94429241D01*
X86850613Y-94526260D01*
X86850615Y-94526263D01*
X86929837Y-94605485D01*
X86929839Y-94605486D01*
X87026859Y-94661501D01*
X87026857Y-94661501D01*
X87026861Y-94661502D01*
X87026863Y-94661503D01*
X87135082Y-94690500D01*
X87135084Y-94690500D01*
X87247116Y-94690500D01*
X87247118Y-94690500D01*
X87355337Y-94661503D01*
X87355339Y-94661501D01*
X87355341Y-94661501D01*
X87384164Y-94644859D01*
X87452363Y-94605485D01*
X87531585Y-94526263D01*
X87587603Y-94429237D01*
X87616600Y-94321018D01*
X87616600Y-94293982D01*
X94724500Y-94293982D01*
X94724500Y-94406018D01*
X94739302Y-94461260D01*
X94753498Y-94514241D01*
X94809513Y-94611260D01*
X94809515Y-94611263D01*
X94888737Y-94690485D01*
X94888739Y-94690486D01*
X94985759Y-94746501D01*
X94985757Y-94746501D01*
X94985761Y-94746502D01*
X94985763Y-94746503D01*
X95093982Y-94775500D01*
X95093984Y-94775500D01*
X95206016Y-94775500D01*
X95206018Y-94775500D01*
X95314237Y-94746503D01*
X95314239Y-94746501D01*
X95314241Y-94746501D01*
X95343064Y-94729859D01*
X95411263Y-94690485D01*
X95490485Y-94611263D01*
X95546503Y-94514237D01*
X95575500Y-94406018D01*
X95575500Y-94343982D01*
X96624500Y-94343982D01*
X96624500Y-94456018D01*
X96643321Y-94526260D01*
X96653498Y-94564241D01*
X96680647Y-94611263D01*
X96709515Y-94661263D01*
X96788737Y-94740485D01*
X96821079Y-94759157D01*
X96885759Y-94796501D01*
X96885757Y-94796501D01*
X96885761Y-94796502D01*
X96885763Y-94796503D01*
X96993982Y-94825500D01*
X96993984Y-94825500D01*
X97106016Y-94825500D01*
X97106018Y-94825500D01*
X97214237Y-94796503D01*
X97214239Y-94796501D01*
X97214241Y-94796501D01*
X97250615Y-94775500D01*
X97311263Y-94740485D01*
X97390485Y-94661263D01*
X97446503Y-94564237D01*
X97446502Y-94564237D01*
X97449748Y-94558617D01*
X97451573Y-94559670D01*
X97485117Y-94520372D01*
X97544607Y-94506071D01*
X97562482Y-94509138D01*
X97654891Y-94533900D01*
X97654894Y-94533900D01*
X97773507Y-94533900D01*
X97773509Y-94533900D01*
X97888086Y-94503199D01*
X97888088Y-94503197D01*
X97888090Y-94503197D01*
X97990808Y-94443892D01*
X97990808Y-94443891D01*
X97990813Y-94443889D01*
X98074689Y-94360013D01*
X98097204Y-94321016D01*
X98133997Y-94257290D01*
X98133997Y-94257288D01*
X98133999Y-94257286D01*
X98164700Y-94142709D01*
X98164700Y-94024091D01*
X98133999Y-93909514D01*
X98133997Y-93909510D01*
X98133997Y-93909509D01*
X98074692Y-93806791D01*
X98074690Y-93806789D01*
X98074689Y-93806787D01*
X97990813Y-93722911D01*
X97990810Y-93722909D01*
X97990808Y-93722907D01*
X97940709Y-93693982D01*
X98874500Y-93693982D01*
X98874500Y-93806018D01*
X98900072Y-93901455D01*
X98903498Y-93914241D01*
X98958506Y-94009515D01*
X98959515Y-94011263D01*
X99038737Y-94090485D01*
X99038739Y-94090486D01*
X99135759Y-94146501D01*
X99135757Y-94146501D01*
X99135761Y-94146502D01*
X99135763Y-94146503D01*
X99243982Y-94175500D01*
X99243984Y-94175500D01*
X99275500Y-94175500D01*
X99333691Y-94194407D01*
X99369655Y-94243907D01*
X99374500Y-94274500D01*
X99374500Y-94306018D01*
X99388968Y-94360013D01*
X99403498Y-94414241D01*
X99454858Y-94503197D01*
X99459515Y-94511263D01*
X99538737Y-94590485D01*
X99571079Y-94609157D01*
X99635759Y-94646501D01*
X99635757Y-94646501D01*
X99635761Y-94646502D01*
X99635763Y-94646503D01*
X99743982Y-94675500D01*
X99743984Y-94675500D01*
X99856016Y-94675500D01*
X99856018Y-94675500D01*
X99964237Y-94646503D01*
X99964239Y-94646501D01*
X99964241Y-94646501D01*
X100025274Y-94611263D01*
X100061263Y-94590485D01*
X100140485Y-94511263D01*
X100179859Y-94443064D01*
X100196501Y-94414241D01*
X100196501Y-94414239D01*
X100196503Y-94414237D01*
X100225500Y-94306018D01*
X100225500Y-94193982D01*
X100212103Y-94143982D01*
X100674500Y-94143982D01*
X100674500Y-94256018D01*
X100691916Y-94321016D01*
X100703498Y-94364241D01*
X100759513Y-94461260D01*
X100759515Y-94461263D01*
X100838737Y-94540485D01*
X100838739Y-94540486D01*
X100935759Y-94596501D01*
X100935757Y-94596501D01*
X100935761Y-94596502D01*
X100935763Y-94596503D01*
X101043982Y-94625500D01*
X101043984Y-94625500D01*
X101156016Y-94625500D01*
X101156018Y-94625500D01*
X101264237Y-94596503D01*
X101264239Y-94596501D01*
X101264241Y-94596501D01*
X101320123Y-94564237D01*
X101361263Y-94540485D01*
X101440485Y-94461263D01*
X101496503Y-94364237D01*
X101525500Y-94256018D01*
X101525500Y-94143982D01*
X101496503Y-94035763D01*
X101496501Y-94035760D01*
X101496501Y-94035758D01*
X101440486Y-93938739D01*
X101440485Y-93938737D01*
X101361263Y-93859515D01*
X101361260Y-93859513D01*
X101264240Y-93803498D01*
X101264242Y-93803498D01*
X101222251Y-93792247D01*
X101156018Y-93774500D01*
X101043982Y-93774500D01*
X100977748Y-93792247D01*
X100935758Y-93803498D01*
X100838739Y-93859513D01*
X100759513Y-93938739D01*
X100703498Y-94035758D01*
X100703497Y-94035763D01*
X100674500Y-94143982D01*
X100212103Y-94143982D01*
X100196503Y-94085763D01*
X100196501Y-94085760D01*
X100196501Y-94085758D01*
X100144019Y-93994858D01*
X100140485Y-93988737D01*
X100061263Y-93909515D01*
X100061260Y-93909513D01*
X99964240Y-93853498D01*
X99964242Y-93853498D01*
X99911999Y-93839500D01*
X99856018Y-93824500D01*
X99824500Y-93824500D01*
X99766309Y-93805593D01*
X99730345Y-93756093D01*
X99725500Y-93725500D01*
X99725500Y-93693983D01*
X99725500Y-93693982D01*
X99696503Y-93585763D01*
X99696501Y-93585760D01*
X99696501Y-93585758D01*
X99640486Y-93488739D01*
X99640485Y-93488737D01*
X99561263Y-93409515D01*
X99561260Y-93409513D01*
X99464240Y-93353498D01*
X99464242Y-93353498D01*
X99422251Y-93342247D01*
X99356018Y-93324500D01*
X99243982Y-93324500D01*
X99177748Y-93342247D01*
X99135758Y-93353498D01*
X99038739Y-93409513D01*
X98959513Y-93488739D01*
X98903498Y-93585758D01*
X98890867Y-93632900D01*
X98874500Y-93693982D01*
X97940709Y-93693982D01*
X97888089Y-93663602D01*
X97888090Y-93663602D01*
X97874551Y-93659974D01*
X97773509Y-93632900D01*
X97654891Y-93632900D01*
X97584767Y-93651689D01*
X97540309Y-93663602D01*
X97437591Y-93722907D01*
X97353707Y-93806791D01*
X97294402Y-93909510D01*
X97291157Y-93921620D01*
X97257831Y-93972933D01*
X97200708Y-93994858D01*
X97169913Y-93991620D01*
X97106018Y-93974500D01*
X96993982Y-93974500D01*
X96940841Y-93988739D01*
X96885758Y-94003498D01*
X96788739Y-94059513D01*
X96709513Y-94138739D01*
X96653498Y-94235758D01*
X96637897Y-94293982D01*
X96624500Y-94343982D01*
X95575500Y-94343982D01*
X95575500Y-94293982D01*
X95546503Y-94185763D01*
X95546501Y-94185760D01*
X95546501Y-94185758D01*
X95490486Y-94088739D01*
X95490485Y-94088737D01*
X95411263Y-94009515D01*
X95401259Y-94003739D01*
X95314240Y-93953498D01*
X95314242Y-93953498D01*
X95259159Y-93938739D01*
X95206018Y-93924500D01*
X95093982Y-93924500D01*
X95040841Y-93938739D01*
X94985758Y-93953498D01*
X94888739Y-94009513D01*
X94809513Y-94088739D01*
X94753498Y-94185758D01*
X94747275Y-94208983D01*
X94724500Y-94293982D01*
X87616600Y-94293982D01*
X87616600Y-94208982D01*
X87587603Y-94100763D01*
X87587601Y-94100760D01*
X87587601Y-94100758D01*
X87531586Y-94003739D01*
X87531585Y-94003737D01*
X87452363Y-93924515D01*
X87447349Y-93921620D01*
X87355340Y-93868498D01*
X87355342Y-93868498D01*
X87313351Y-93857247D01*
X87247118Y-93839500D01*
X87135082Y-93839500D01*
X87068848Y-93857247D01*
X87026858Y-93868498D01*
X86929839Y-93924513D01*
X86850613Y-94003739D01*
X86794598Y-94100758D01*
X86783016Y-94143983D01*
X86765600Y-94208982D01*
X83450000Y-94208982D01*
X83450000Y-93381482D01*
X91972900Y-93381482D01*
X91972900Y-93493518D01*
X91997615Y-93585758D01*
X92001898Y-93601741D01*
X92055155Y-93693983D01*
X92057915Y-93698763D01*
X92137137Y-93777985D01*
X92137139Y-93777986D01*
X92234159Y-93834001D01*
X92234157Y-93834001D01*
X92234161Y-93834002D01*
X92234163Y-93834003D01*
X92342382Y-93863000D01*
X92342384Y-93863000D01*
X92454416Y-93863000D01*
X92454418Y-93863000D01*
X92562637Y-93834003D01*
X92562639Y-93834001D01*
X92562641Y-93834001D01*
X92591464Y-93817359D01*
X92659663Y-93777985D01*
X92738885Y-93698763D01*
X92794903Y-93601737D01*
X92823900Y-93493518D01*
X92823900Y-93381482D01*
X92794903Y-93273263D01*
X92794901Y-93273260D01*
X92794901Y-93273258D01*
X92738886Y-93176239D01*
X92738885Y-93176237D01*
X92659663Y-93097015D01*
X92659660Y-93097013D01*
X92562640Y-93040998D01*
X92562642Y-93040998D01*
X92504801Y-93025500D01*
X92454418Y-93012000D01*
X92342382Y-93012000D01*
X92291999Y-93025500D01*
X92234158Y-93040998D01*
X92137139Y-93097013D01*
X92057913Y-93176239D01*
X92001898Y-93273258D01*
X92001897Y-93273263D01*
X91972900Y-93381482D01*
X83450000Y-93381482D01*
X83450000Y-92743982D01*
X85631000Y-92743982D01*
X85631000Y-92856018D01*
X85653633Y-92940485D01*
X85659998Y-92964241D01*
X85695367Y-93025500D01*
X85716015Y-93061263D01*
X85795237Y-93140485D01*
X85795239Y-93140486D01*
X85892259Y-93196501D01*
X85892257Y-93196501D01*
X85892261Y-93196502D01*
X85892263Y-93196503D01*
X86000482Y-93225500D01*
X86000484Y-93225500D01*
X86112516Y-93225500D01*
X86112518Y-93225500D01*
X86220737Y-93196503D01*
X86220739Y-93196501D01*
X86220741Y-93196501D01*
X86255839Y-93176237D01*
X86317763Y-93140485D01*
X86396985Y-93061263D01*
X86453003Y-92964237D01*
X86482000Y-92856018D01*
X86482000Y-92743982D01*
X86453003Y-92635763D01*
X86453001Y-92635760D01*
X86453001Y-92635758D01*
X86396986Y-92538739D01*
X86396985Y-92538737D01*
X86317763Y-92459515D01*
X86317760Y-92459513D01*
X86220740Y-92403498D01*
X86220742Y-92403498D01*
X86178751Y-92392247D01*
X86112518Y-92374500D01*
X86000482Y-92374500D01*
X85934248Y-92392247D01*
X85892258Y-92403498D01*
X85795239Y-92459513D01*
X85716013Y-92538739D01*
X85659998Y-92635758D01*
X85643786Y-92696263D01*
X85631000Y-92743982D01*
X83450000Y-92743982D01*
X83450000Y-92243982D01*
X93124500Y-92243982D01*
X93124500Y-92356018D01*
X93150072Y-92451455D01*
X93153498Y-92464241D01*
X93199538Y-92543983D01*
X93209515Y-92561263D01*
X93288737Y-92640485D01*
X93315641Y-92656018D01*
X93385759Y-92696501D01*
X93385757Y-92696501D01*
X93385761Y-92696502D01*
X93385763Y-92696503D01*
X93493982Y-92725500D01*
X93493984Y-92725500D01*
X93606016Y-92725500D01*
X93606018Y-92725500D01*
X93714237Y-92696503D01*
X93714239Y-92696501D01*
X93714241Y-92696501D01*
X93743064Y-92679859D01*
X93811263Y-92640485D01*
X93890485Y-92561263D01*
X93946503Y-92464237D01*
X93975500Y-92356018D01*
X93975500Y-92243982D01*
X93946503Y-92135763D01*
X93946501Y-92135760D01*
X93946501Y-92135758D01*
X93890486Y-92038739D01*
X93890485Y-92038737D01*
X93811263Y-91959515D01*
X93811260Y-91959513D01*
X93748413Y-91923228D01*
X93748412Y-91923228D01*
X93714239Y-91903498D01*
X93714238Y-91903497D01*
X93714237Y-91903497D01*
X93606018Y-91874500D01*
X93493982Y-91874500D01*
X93427748Y-91892247D01*
X93385758Y-91903498D01*
X93288739Y-91959513D01*
X93209513Y-92038739D01*
X93153498Y-92135758D01*
X93146226Y-92162899D01*
X93124500Y-92243982D01*
X83450000Y-92243982D01*
X83450000Y-91843981D01*
X94724500Y-91843981D01*
X94724500Y-91956017D01*
X94741566Y-92019708D01*
X94753498Y-92064240D01*
X94794790Y-92135758D01*
X94809515Y-92161262D01*
X94828250Y-92179997D01*
X94856026Y-92234512D01*
X94846455Y-92294944D01*
X94828250Y-92320001D01*
X94809514Y-92338736D01*
X94753498Y-92435758D01*
X94753497Y-92435763D01*
X94724500Y-92543982D01*
X94724500Y-92656018D01*
X94735348Y-92696503D01*
X94753498Y-92764241D01*
X94809513Y-92861260D01*
X94809515Y-92861263D01*
X94888737Y-92940485D01*
X94888739Y-92940486D01*
X94985759Y-92996501D01*
X94985757Y-92996501D01*
X94985761Y-92996502D01*
X94985763Y-92996503D01*
X95093982Y-93025500D01*
X95093984Y-93025500D01*
X95206016Y-93025500D01*
X95206018Y-93025500D01*
X95314237Y-92996503D01*
X95314239Y-92996501D01*
X95314241Y-92996501D01*
X95370123Y-92964237D01*
X95411263Y-92940485D01*
X95490485Y-92861263D01*
X95546503Y-92764237D01*
X95575500Y-92656018D01*
X95575500Y-92543982D01*
X95546503Y-92435763D01*
X95546501Y-92435760D01*
X95546501Y-92435758D01*
X95490486Y-92338739D01*
X95490485Y-92338737D01*
X95471748Y-92320000D01*
X95443973Y-92265486D01*
X95453544Y-92205054D01*
X95471749Y-92179997D01*
X95490485Y-92161262D01*
X95546503Y-92064236D01*
X95575500Y-91956017D01*
X95575500Y-91843981D01*
X95546503Y-91735762D01*
X95546501Y-91735759D01*
X95546501Y-91735757D01*
X95490486Y-91638738D01*
X95490485Y-91638736D01*
X95411263Y-91559514D01*
X95411260Y-91559512D01*
X95314240Y-91503497D01*
X95314242Y-91503497D01*
X95272251Y-91492246D01*
X95206018Y-91474499D01*
X95093982Y-91474499D01*
X95027748Y-91492246D01*
X94985758Y-91503497D01*
X94888739Y-91559512D01*
X94809513Y-91638738D01*
X94753498Y-91735757D01*
X94753497Y-91735762D01*
X94724500Y-91843981D01*
X83450000Y-91843981D01*
X83450000Y-91290691D01*
X96249500Y-91290691D01*
X96249500Y-91409309D01*
X96274738Y-91503497D01*
X96280202Y-91523890D01*
X96339507Y-91626608D01*
X96339509Y-91626610D01*
X96339511Y-91626613D01*
X96423387Y-91710489D01*
X96423389Y-91710490D01*
X96423391Y-91710492D01*
X96526110Y-91769797D01*
X96526111Y-91769797D01*
X96526114Y-91769799D01*
X96640691Y-91800500D01*
X96640693Y-91800500D01*
X96759307Y-91800500D01*
X96759309Y-91800500D01*
X96873886Y-91769799D01*
X96873888Y-91769797D01*
X96873890Y-91769797D01*
X96976608Y-91710492D01*
X96976608Y-91710491D01*
X96976613Y-91710489D01*
X97003311Y-91683791D01*
X100395500Y-91683791D01*
X100395500Y-91802409D01*
X100406640Y-91843982D01*
X100426202Y-91916990D01*
X100485507Y-92019708D01*
X100485509Y-92019710D01*
X100485511Y-92019713D01*
X100569387Y-92103589D01*
X100569389Y-92103590D01*
X100569391Y-92103592D01*
X100672110Y-92162897D01*
X100672111Y-92162897D01*
X100672114Y-92162899D01*
X100786691Y-92193600D01*
X100786693Y-92193600D01*
X100905307Y-92193600D01*
X100905309Y-92193600D01*
X101019886Y-92162899D01*
X101019888Y-92162897D01*
X101019890Y-92162897D01*
X101122608Y-92103592D01*
X101122608Y-92103591D01*
X101122613Y-92103589D01*
X101206489Y-92019713D01*
X101243264Y-91956017D01*
X101265797Y-91916990D01*
X101265797Y-91916988D01*
X101265799Y-91916986D01*
X101296500Y-91802409D01*
X101296500Y-91683791D01*
X101265799Y-91569214D01*
X101265797Y-91569211D01*
X101265797Y-91569209D01*
X101206492Y-91466491D01*
X101206490Y-91466489D01*
X101206489Y-91466487D01*
X101122613Y-91382611D01*
X101122610Y-91382609D01*
X101122608Y-91382607D01*
X101019889Y-91323302D01*
X101019890Y-91323302D01*
X101006351Y-91319674D01*
X100905309Y-91292600D01*
X100786691Y-91292600D01*
X100717051Y-91311260D01*
X100672109Y-91323302D01*
X100569391Y-91382607D01*
X100485507Y-91466491D01*
X100426202Y-91569209D01*
X100426201Y-91569214D01*
X100395500Y-91683791D01*
X97003311Y-91683791D01*
X97060489Y-91626613D01*
X97119799Y-91523886D01*
X97150500Y-91409309D01*
X97150500Y-91290691D01*
X97119799Y-91176114D01*
X97119797Y-91176111D01*
X97119797Y-91176109D01*
X97060492Y-91073391D01*
X97060490Y-91073389D01*
X97060489Y-91073387D01*
X96976613Y-90989511D01*
X96976610Y-90989509D01*
X96976608Y-90989507D01*
X96873889Y-90930202D01*
X96873890Y-90930202D01*
X96860351Y-90926574D01*
X96759309Y-90899500D01*
X96640691Y-90899500D01*
X96570567Y-90918289D01*
X96526109Y-90930202D01*
X96423391Y-90989507D01*
X96339507Y-91073391D01*
X96280202Y-91176109D01*
X96280201Y-91176114D01*
X96249500Y-91290691D01*
X83450000Y-91290691D01*
X83450000Y-87249997D01*
X84150000Y-87249997D01*
X84150000Y-87250003D01*
X84209563Y-87854774D01*
X84209564Y-87854779D01*
X84385973Y-88436318D01*
X84385975Y-88436323D01*
X84672441Y-88972264D01*
X85002547Y-89374500D01*
X85057968Y-89442031D01*
X85057973Y-89442035D01*
X85527734Y-89827557D01*
X86016372Y-90088739D01*
X86063681Y-90114026D01*
X86468811Y-90236920D01*
X86645219Y-90290434D01*
X86645224Y-90290435D01*
X87249997Y-90350000D01*
X87250000Y-90350000D01*
X87250003Y-90350000D01*
X87818761Y-90293982D01*
X94974500Y-90293982D01*
X94974500Y-90406018D01*
X94983267Y-90438737D01*
X95003498Y-90514241D01*
X95046079Y-90587992D01*
X95059515Y-90611263D01*
X95138737Y-90690485D01*
X95138739Y-90690486D01*
X95235759Y-90746501D01*
X95235757Y-90746501D01*
X95235761Y-90746502D01*
X95235763Y-90746503D01*
X95343982Y-90775500D01*
X95343984Y-90775500D01*
X95456016Y-90775500D01*
X95456018Y-90775500D01*
X95564237Y-90746503D01*
X95564239Y-90746501D01*
X95564241Y-90746501D01*
X95593064Y-90729859D01*
X95661263Y-90690485D01*
X95707766Y-90643982D01*
X102174500Y-90643982D01*
X102174500Y-90756018D01*
X102183267Y-90788737D01*
X102203498Y-90864241D01*
X102246079Y-90937992D01*
X102259515Y-90961263D01*
X102338737Y-91040485D01*
X102338739Y-91040486D01*
X102435759Y-91096501D01*
X102435757Y-91096501D01*
X102435761Y-91096502D01*
X102435763Y-91096503D01*
X102543982Y-91125500D01*
X102543984Y-91125500D01*
X102656016Y-91125500D01*
X102656018Y-91125500D01*
X102764237Y-91096503D01*
X102764239Y-91096501D01*
X102764241Y-91096501D01*
X102804275Y-91073387D01*
X102861263Y-91040485D01*
X102907766Y-90993982D01*
X108588700Y-90993982D01*
X108588700Y-91106018D01*
X108607481Y-91176109D01*
X108617698Y-91214241D01*
X108673713Y-91311260D01*
X108673715Y-91311263D01*
X108752937Y-91390485D01*
X108752939Y-91390486D01*
X108849959Y-91446501D01*
X108849957Y-91446501D01*
X108849961Y-91446502D01*
X108849963Y-91446503D01*
X108958182Y-91475500D01*
X108958184Y-91475500D01*
X109070216Y-91475500D01*
X109070218Y-91475500D01*
X109178437Y-91446503D01*
X109178439Y-91446501D01*
X109178441Y-91446501D01*
X109207264Y-91429859D01*
X109275463Y-91390485D01*
X109354685Y-91311263D01*
X109410703Y-91214237D01*
X109439700Y-91106018D01*
X109439700Y-90993982D01*
X109410703Y-90885763D01*
X109410701Y-90885760D01*
X109410701Y-90885758D01*
X109354686Y-90788739D01*
X109354685Y-90788737D01*
X109275463Y-90709515D01*
X109275460Y-90709513D01*
X109178440Y-90653498D01*
X109178442Y-90653498D01*
X109136451Y-90642247D01*
X109070218Y-90624500D01*
X108958182Y-90624500D01*
X108891948Y-90642247D01*
X108849958Y-90653498D01*
X108752939Y-90709513D01*
X108673713Y-90788739D01*
X108617698Y-90885758D01*
X108617697Y-90885763D01*
X108588700Y-90993982D01*
X102907766Y-90993982D01*
X102940485Y-90961263D01*
X102996503Y-90864237D01*
X103025500Y-90756018D01*
X103025500Y-90643982D01*
X102996503Y-90535763D01*
X102996501Y-90535760D01*
X102996501Y-90535758D01*
X102940486Y-90438739D01*
X102940485Y-90438737D01*
X102861263Y-90359515D01*
X102844783Y-90350000D01*
X102764240Y-90303498D01*
X102764242Y-90303498D01*
X102722251Y-90292247D01*
X102656018Y-90274500D01*
X102543982Y-90274500D01*
X102477748Y-90292247D01*
X102435758Y-90303498D01*
X102338739Y-90359513D01*
X102259513Y-90438739D01*
X102203498Y-90535758D01*
X102203497Y-90535763D01*
X102174500Y-90643982D01*
X95707766Y-90643982D01*
X95740485Y-90611263D01*
X95796503Y-90514237D01*
X95825500Y-90406018D01*
X95825500Y-90293982D01*
X95796503Y-90185763D01*
X95796501Y-90185760D01*
X95796501Y-90185758D01*
X95740486Y-90088739D01*
X95740485Y-90088737D01*
X95661263Y-90009515D01*
X95661260Y-90009513D01*
X95564240Y-89953498D01*
X95564242Y-89953498D01*
X95522251Y-89942247D01*
X95456018Y-89924500D01*
X95343982Y-89924500D01*
X95277748Y-89942247D01*
X95235758Y-89953498D01*
X95138739Y-90009513D01*
X95059513Y-90088739D01*
X95003498Y-90185758D01*
X94987286Y-90246263D01*
X94974500Y-90293982D01*
X87818761Y-90293982D01*
X87854774Y-90290435D01*
X87854779Y-90290434D01*
X88176780Y-90192756D01*
X88199849Y-90185758D01*
X88436318Y-90114026D01*
X88716553Y-89964237D01*
X88972264Y-89827557D01*
X88972265Y-89827555D01*
X88972267Y-89827555D01*
X89171948Y-89663682D01*
X97142100Y-89663682D01*
X97142100Y-89775718D01*
X97155990Y-89827555D01*
X97171098Y-89883941D01*
X97227113Y-89980960D01*
X97227115Y-89980963D01*
X97306337Y-90060185D01*
X97306339Y-90060186D01*
X97403359Y-90116201D01*
X97403357Y-90116201D01*
X97403361Y-90116202D01*
X97403363Y-90116203D01*
X97511582Y-90145200D01*
X97511584Y-90145200D01*
X97623616Y-90145200D01*
X97623618Y-90145200D01*
X97731837Y-90116203D01*
X97731839Y-90116201D01*
X97731841Y-90116201D01*
X97779409Y-90088737D01*
X97828863Y-90060185D01*
X97908085Y-89980963D01*
X97964103Y-89883937D01*
X97993100Y-89775718D01*
X97993100Y-89743982D01*
X100824500Y-89743982D01*
X100824500Y-89856018D01*
X100831981Y-89883937D01*
X100853498Y-89964241D01*
X100908893Y-90060186D01*
X100909515Y-90061263D01*
X100988737Y-90140485D01*
X100988739Y-90140486D01*
X101085759Y-90196501D01*
X101085757Y-90196501D01*
X101085761Y-90196502D01*
X101085763Y-90196503D01*
X101193982Y-90225500D01*
X101193984Y-90225500D01*
X101306016Y-90225500D01*
X101306018Y-90225500D01*
X101414237Y-90196503D01*
X101414239Y-90196501D01*
X101414241Y-90196501D01*
X101443064Y-90179859D01*
X101511263Y-90140485D01*
X101590485Y-90061263D01*
X101646503Y-89964237D01*
X101675500Y-89856018D01*
X101675500Y-89743982D01*
X101646503Y-89635763D01*
X101646501Y-89635760D01*
X101646501Y-89635758D01*
X101590486Y-89538739D01*
X101590485Y-89538737D01*
X101511263Y-89459515D01*
X101511260Y-89459513D01*
X101414240Y-89403498D01*
X101414242Y-89403498D01*
X101372251Y-89392247D01*
X101306018Y-89374500D01*
X101193982Y-89374500D01*
X101127748Y-89392247D01*
X101085758Y-89403498D01*
X100988739Y-89459513D01*
X100909513Y-89538739D01*
X100853498Y-89635758D01*
X100853497Y-89635763D01*
X100824500Y-89743982D01*
X97993100Y-89743982D01*
X97993100Y-89663682D01*
X97964103Y-89555463D01*
X97964101Y-89555460D01*
X97964101Y-89555458D01*
X97908086Y-89458439D01*
X97908085Y-89458437D01*
X97828863Y-89379215D01*
X97828860Y-89379213D01*
X97731840Y-89323198D01*
X97731842Y-89323198D01*
X97689851Y-89311947D01*
X97623618Y-89294200D01*
X97511582Y-89294200D01*
X97445348Y-89311947D01*
X97403358Y-89323198D01*
X97306339Y-89379213D01*
X97227113Y-89458439D01*
X97171098Y-89555458D01*
X97171097Y-89555463D01*
X97142100Y-89663682D01*
X89171948Y-89663682D01*
X89442031Y-89442031D01*
X89827555Y-88972267D01*
X90114026Y-88436318D01*
X90290434Y-87854779D01*
X90290435Y-87854774D01*
X90350000Y-87250003D01*
X90350000Y-87249997D01*
X90309008Y-86833797D01*
X90308691Y-86830582D01*
X93620100Y-86830582D01*
X93620100Y-86942618D01*
X93645151Y-87036109D01*
X93649098Y-87050841D01*
X93674422Y-87094702D01*
X93705115Y-87147863D01*
X93784337Y-87227085D01*
X93784339Y-87227086D01*
X93881359Y-87283101D01*
X93881357Y-87283101D01*
X93881361Y-87283102D01*
X93881363Y-87283103D01*
X93989582Y-87312100D01*
X93989584Y-87312100D01*
X94101616Y-87312100D01*
X94101618Y-87312100D01*
X94209837Y-87283103D01*
X94209839Y-87283101D01*
X94209841Y-87283101D01*
X94238664Y-87266459D01*
X94306863Y-87227085D01*
X94383257Y-87150691D01*
X96249500Y-87150691D01*
X96249500Y-87269309D01*
X96276574Y-87370351D01*
X96280202Y-87383890D01*
X96339507Y-87486608D01*
X96339509Y-87486610D01*
X96339511Y-87486613D01*
X96423387Y-87570489D01*
X96423389Y-87570490D01*
X96423391Y-87570492D01*
X96526110Y-87629797D01*
X96526111Y-87629797D01*
X96526114Y-87629799D01*
X96640691Y-87660500D01*
X96640693Y-87660500D01*
X96759307Y-87660500D01*
X96759309Y-87660500D01*
X96873886Y-87629799D01*
X96873888Y-87629797D01*
X96873890Y-87629797D01*
X96976608Y-87570492D01*
X96976608Y-87570491D01*
X96976613Y-87570489D01*
X97060489Y-87486613D01*
X97060492Y-87486608D01*
X97119797Y-87383890D01*
X97119797Y-87383888D01*
X97119799Y-87383886D01*
X97150500Y-87269309D01*
X97150500Y-87150691D01*
X97135305Y-87093981D01*
X102124500Y-87093981D01*
X102124500Y-87206017D01*
X102145155Y-87283103D01*
X102153498Y-87314240D01*
X102209513Y-87411259D01*
X102209515Y-87411262D01*
X102288737Y-87490484D01*
X102288739Y-87490485D01*
X102385759Y-87546500D01*
X102385757Y-87546500D01*
X102385761Y-87546501D01*
X102385763Y-87546502D01*
X102493982Y-87575499D01*
X102493984Y-87575499D01*
X102606016Y-87575499D01*
X102606018Y-87575499D01*
X102714237Y-87546502D01*
X102714239Y-87546500D01*
X102714241Y-87546500D01*
X102743064Y-87529858D01*
X102811263Y-87490484D01*
X102890485Y-87411262D01*
X102946503Y-87314236D01*
X102963716Y-87249997D01*
X109650000Y-87249997D01*
X109650000Y-87250003D01*
X109709563Y-87854774D01*
X109709564Y-87854779D01*
X109885973Y-88436318D01*
X109885975Y-88436323D01*
X110172441Y-88972264D01*
X110502547Y-89374500D01*
X110557968Y-89442031D01*
X110557973Y-89442035D01*
X111027734Y-89827557D01*
X111516372Y-90088739D01*
X111563681Y-90114026D01*
X111968811Y-90236920D01*
X112145219Y-90290434D01*
X112145224Y-90290435D01*
X112749997Y-90350000D01*
X112750000Y-90350000D01*
X112750003Y-90350000D01*
X113354774Y-90290435D01*
X113354779Y-90290434D01*
X113407306Y-90274500D01*
X113936318Y-90114026D01*
X114216553Y-89964237D01*
X114472264Y-89827557D01*
X114472265Y-89827555D01*
X114472267Y-89827555D01*
X114942031Y-89442031D01*
X115327555Y-88972267D01*
X115614026Y-88436318D01*
X115790434Y-87854779D01*
X115790435Y-87854774D01*
X115850000Y-87250003D01*
X115850000Y-87249996D01*
X115790435Y-86645224D01*
X115790434Y-86645219D01*
X115707334Y-86371276D01*
X115614026Y-86063681D01*
X115589020Y-86016898D01*
X115327557Y-85527734D01*
X114942035Y-85057973D01*
X114942031Y-85057968D01*
X114942025Y-85057963D01*
X114472264Y-84672441D01*
X113936323Y-84385975D01*
X113936318Y-84385973D01*
X113354779Y-84209564D01*
X113354774Y-84209563D01*
X112750003Y-84150000D01*
X112749997Y-84150000D01*
X112145224Y-84209563D01*
X112145219Y-84209564D01*
X111563680Y-84385973D01*
X111563675Y-84385975D01*
X111027734Y-84672441D01*
X110557973Y-85057963D01*
X110557963Y-85057973D01*
X110172441Y-85527734D01*
X109885975Y-86063675D01*
X109885973Y-86063680D01*
X109709564Y-86645219D01*
X109709563Y-86645224D01*
X109650000Y-87249997D01*
X102963716Y-87249997D01*
X102975500Y-87206017D01*
X102975500Y-87093981D01*
X102946503Y-86985762D01*
X102946501Y-86985759D01*
X102946501Y-86985757D01*
X102890486Y-86888738D01*
X102890485Y-86888736D01*
X102811263Y-86809514D01*
X102777814Y-86790202D01*
X102714240Y-86753497D01*
X102714242Y-86753497D01*
X102672251Y-86742246D01*
X102606018Y-86724499D01*
X102493982Y-86724499D01*
X102427748Y-86742246D01*
X102385758Y-86753497D01*
X102288739Y-86809512D01*
X102209513Y-86888738D01*
X102153498Y-86985757D01*
X102153497Y-86985762D01*
X102124500Y-87093981D01*
X97135305Y-87093981D01*
X97119799Y-87036114D01*
X97119797Y-87036111D01*
X97119797Y-87036109D01*
X97060492Y-86933391D01*
X97060490Y-86933389D01*
X97060489Y-86933387D01*
X96976613Y-86849511D01*
X96976610Y-86849509D01*
X96976608Y-86849507D01*
X96873889Y-86790202D01*
X96873890Y-86790202D01*
X96836267Y-86780121D01*
X96759309Y-86759500D01*
X96640691Y-86759500D01*
X96570567Y-86778289D01*
X96526109Y-86790202D01*
X96423391Y-86849507D01*
X96339507Y-86933391D01*
X96280202Y-87036109D01*
X96280201Y-87036114D01*
X96249500Y-87150691D01*
X94383257Y-87150691D01*
X94386085Y-87147863D01*
X94442103Y-87050837D01*
X94471100Y-86942618D01*
X94471100Y-86928723D01*
X94490007Y-86870532D01*
X94539507Y-86834568D01*
X94595721Y-86833096D01*
X94617382Y-86838900D01*
X94617384Y-86838900D01*
X94729416Y-86838900D01*
X94729418Y-86838900D01*
X94837637Y-86809903D01*
X94837639Y-86809901D01*
X94837641Y-86809901D01*
X94889221Y-86780121D01*
X94934663Y-86753885D01*
X95013885Y-86674663D01*
X95069903Y-86577637D01*
X95098900Y-86469418D01*
X95098900Y-86357382D01*
X95069903Y-86249163D01*
X95069901Y-86249160D01*
X95069901Y-86249158D01*
X95013886Y-86152139D01*
X95013885Y-86152137D01*
X94934663Y-86072915D01*
X94934660Y-86072913D01*
X94837640Y-86016898D01*
X94837642Y-86016898D01*
X94795651Y-86005647D01*
X94729418Y-85987900D01*
X94617382Y-85987900D01*
X94551148Y-86005647D01*
X94509158Y-86016898D01*
X94412139Y-86072913D01*
X94332913Y-86152139D01*
X94276898Y-86249158D01*
X94247900Y-86357383D01*
X94247900Y-86371276D01*
X94228993Y-86429467D01*
X94179493Y-86465431D01*
X94123280Y-86466904D01*
X94115904Y-86464927D01*
X94101618Y-86461100D01*
X93989582Y-86461100D01*
X93923348Y-86478847D01*
X93881358Y-86490098D01*
X93784339Y-86546113D01*
X93705113Y-86625339D01*
X93649098Y-86722358D01*
X93640755Y-86753496D01*
X93620100Y-86830582D01*
X90308691Y-86830582D01*
X90290435Y-86645224D01*
X90290434Y-86645219D01*
X90207334Y-86371276D01*
X90114026Y-86063681D01*
X90089020Y-86016898D01*
X89830992Y-85534161D01*
X89830990Y-85534159D01*
X89827554Y-85527730D01*
X89799858Y-85493982D01*
X100674500Y-85493982D01*
X100674500Y-85606018D01*
X100682469Y-85635758D01*
X100703498Y-85714241D01*
X100759513Y-85811260D01*
X100759515Y-85811263D01*
X100838737Y-85890485D01*
X100838739Y-85890486D01*
X100935759Y-85946501D01*
X100935757Y-85946501D01*
X100935761Y-85946502D01*
X100935763Y-85946503D01*
X101043982Y-85975500D01*
X101043984Y-85975500D01*
X101156016Y-85975500D01*
X101156018Y-85975500D01*
X101264237Y-85946503D01*
X101264239Y-85946501D01*
X101264241Y-85946501D01*
X101293064Y-85929859D01*
X101361263Y-85890485D01*
X101440485Y-85811263D01*
X101479330Y-85743982D01*
X102074500Y-85743982D01*
X102074500Y-85856018D01*
X102083736Y-85890486D01*
X102103498Y-85964241D01*
X102159513Y-86061260D01*
X102159515Y-86061263D01*
X102238737Y-86140485D01*
X102238739Y-86140486D01*
X102335759Y-86196501D01*
X102335757Y-86196501D01*
X102335761Y-86196502D01*
X102335763Y-86196503D01*
X102443982Y-86225500D01*
X102443984Y-86225500D01*
X102556016Y-86225500D01*
X102556018Y-86225500D01*
X102664237Y-86196503D01*
X102664239Y-86196501D01*
X102664241Y-86196501D01*
X102693064Y-86179859D01*
X102761263Y-86140485D01*
X102840485Y-86061263D01*
X102896503Y-85964237D01*
X102925500Y-85856018D01*
X102925500Y-85743982D01*
X102896503Y-85635763D01*
X102896501Y-85635760D01*
X102896501Y-85635758D01*
X102840486Y-85538739D01*
X102840485Y-85538737D01*
X102761263Y-85459515D01*
X102761260Y-85459513D01*
X102664240Y-85403498D01*
X102664242Y-85403498D01*
X102598052Y-85385763D01*
X102556018Y-85374500D01*
X102443982Y-85374500D01*
X102401948Y-85385763D01*
X102335758Y-85403498D01*
X102238739Y-85459513D01*
X102159513Y-85538739D01*
X102103498Y-85635758D01*
X102103497Y-85635763D01*
X102074500Y-85743982D01*
X101479330Y-85743982D01*
X101496503Y-85714237D01*
X101525500Y-85606018D01*
X101525500Y-85493982D01*
X101496503Y-85385763D01*
X101496501Y-85385760D01*
X101496501Y-85385758D01*
X101440486Y-85288739D01*
X101440485Y-85288737D01*
X101361263Y-85209515D01*
X101361260Y-85209513D01*
X101264240Y-85153498D01*
X101264242Y-85153498D01*
X101222251Y-85142247D01*
X101156018Y-85124500D01*
X101043982Y-85124500D01*
X100977748Y-85142247D01*
X100935758Y-85153498D01*
X100838739Y-85209513D01*
X100759513Y-85288739D01*
X100703498Y-85385758D01*
X100703497Y-85385763D01*
X100674500Y-85493982D01*
X89799858Y-85493982D01*
X89442035Y-85057973D01*
X89442031Y-85057968D01*
X89442025Y-85057963D01*
X88972264Y-84672441D01*
X88436323Y-84385975D01*
X88436318Y-84385973D01*
X87854779Y-84209564D01*
X87854774Y-84209563D01*
X87250003Y-84150000D01*
X87249997Y-84150000D01*
X86645224Y-84209563D01*
X86645219Y-84209564D01*
X86063680Y-84385973D01*
X86063675Y-84385975D01*
X85527734Y-84672441D01*
X85057973Y-85057963D01*
X85057963Y-85057973D01*
X84672441Y-85527734D01*
X84385975Y-86063675D01*
X84385973Y-86063680D01*
X84209564Y-86645219D01*
X84209563Y-86645224D01*
X84150000Y-87249997D01*
X83450000Y-87249997D01*
X83450000Y-83549000D01*
X83468907Y-83490809D01*
X83518407Y-83454845D01*
X83549000Y-83450000D01*
X97045506Y-83450000D01*
X97103697Y-83468907D01*
G37*
%TD.AperFunction*%
%TD*%
M02*
