%TF.GenerationSoftware,KiCad,Pcbnew,10.0.6-10.0.6~ubuntu24.04.1*%
%TF.CreationDate,2026-09-26T08:25:38+00:00*%
%TF.ProjectId,cheapdrone-fc,63686561-7064-4726-9f6e-652d66632e6b,rev?*%
%TF.SameCoordinates,Original*%
%TF.FileFunction,Soldermask,Bot*%
%TF.FilePolarity,Negative*%
%FSLAX46Y46*%
G04 Gerber Fmt 4.6, Leading zero omitted, Abs format (unit mm)*
G04 Created by KiCad (PCBNEW 10.0.6-10.0.6~ubuntu24.04.1) date 2026-09-26 08:25:38*
%MOMM*%
%LPD*%
G01*
G04 APERTURE LIST*
G04 APERTURE END LIST*
G36*
X87368894Y-111105086D02*
G01*
X87379458Y-111105086D01*
X87431477Y-111113325D01*
X87571877Y-111131809D01*
X87606138Y-111140989D01*
X87635185Y-111145590D01*
X87691045Y-111163740D01*
X87780338Y-111187666D01*
X87837309Y-111211264D01*
X87881428Y-111225599D01*
X87922755Y-111246656D01*
X87979733Y-111270257D01*
X88059803Y-111316485D01*
X88112123Y-111343144D01*
X88135909Y-111360425D01*
X88166624Y-111378159D01*
X88278975Y-111464369D01*
X88321589Y-111495330D01*
X88329058Y-111502799D01*
X88337848Y-111509544D01*
X88490455Y-111662151D01*
X88497199Y-111670940D01*
X88504670Y-111678411D01*
X88535634Y-111721030D01*
X88621840Y-111833375D01*
X88639572Y-111864087D01*
X88656856Y-111887877D01*
X88683517Y-111940203D01*
X88729742Y-112020266D01*
X88753340Y-112077237D01*
X88774401Y-112118572D01*
X88788738Y-112162696D01*
X88812333Y-112219661D01*
X88836255Y-112308941D01*
X88854410Y-112364815D01*
X88859011Y-112393867D01*
X88868190Y-112428122D01*
X88886673Y-112568514D01*
X88894914Y-112620542D01*
X88894914Y-112631105D01*
X88896360Y-112642089D01*
X88896360Y-112857910D01*
X88894914Y-112868893D01*
X88894914Y-112879458D01*
X88886672Y-112931490D01*
X88868190Y-113071877D01*
X88859011Y-113106129D01*
X88854410Y-113135185D01*
X88836254Y-113191063D01*
X88812333Y-113280338D01*
X88788739Y-113337298D01*
X88774401Y-113381428D01*
X88753337Y-113422766D01*
X88729742Y-113479733D01*
X88683521Y-113559788D01*
X88656856Y-113612123D01*
X88639569Y-113635916D01*
X88621840Y-113666624D01*
X88535648Y-113778950D01*
X88504670Y-113821589D01*
X88497195Y-113829063D01*
X88490455Y-113837848D01*
X88337848Y-113990455D01*
X88329063Y-113997195D01*
X88321589Y-114004670D01*
X88278950Y-114035648D01*
X88166624Y-114121840D01*
X88135916Y-114139569D01*
X88112123Y-114156856D01*
X88059788Y-114183521D01*
X87979733Y-114229742D01*
X87922766Y-114253337D01*
X87881428Y-114274401D01*
X87837298Y-114288739D01*
X87780338Y-114312333D01*
X87691063Y-114336254D01*
X87635185Y-114354410D01*
X87606129Y-114359011D01*
X87571877Y-114368190D01*
X87431490Y-114386672D01*
X87379458Y-114394914D01*
X87368893Y-114394914D01*
X87357910Y-114396360D01*
X87142090Y-114396360D01*
X87131107Y-114394914D01*
X87120542Y-114394914D01*
X87068511Y-114386672D01*
X86928122Y-114368190D01*
X86893867Y-114359011D01*
X86864815Y-114354410D01*
X86808941Y-114336255D01*
X86719661Y-114312333D01*
X86662696Y-114288738D01*
X86618572Y-114274401D01*
X86577237Y-114253340D01*
X86520266Y-114229742D01*
X86440203Y-114183517D01*
X86387877Y-114156856D01*
X86364087Y-114139572D01*
X86333375Y-114121840D01*
X86221030Y-114035634D01*
X86178411Y-114004670D01*
X86170940Y-113997199D01*
X86162151Y-113990455D01*
X86009544Y-113837848D01*
X86002799Y-113829058D01*
X85995330Y-113821589D01*
X85964369Y-113778975D01*
X85878159Y-113666624D01*
X85860425Y-113635909D01*
X85843144Y-113612123D01*
X85816485Y-113559803D01*
X85770257Y-113479733D01*
X85746656Y-113422755D01*
X85725599Y-113381428D01*
X85711264Y-113337309D01*
X85687666Y-113280338D01*
X85663740Y-113191045D01*
X85645590Y-113135185D01*
X85640989Y-113106138D01*
X85631809Y-113071877D01*
X85613325Y-112931477D01*
X85605086Y-112879458D01*
X85605086Y-112868893D01*
X85603640Y-112857910D01*
X85603640Y-112642089D01*
X85605086Y-112631105D01*
X85605086Y-112620542D01*
X85613324Y-112568527D01*
X85631809Y-112428122D01*
X85640989Y-112393858D01*
X85645590Y-112364815D01*
X85663738Y-112308959D01*
X85687666Y-112219661D01*
X85711265Y-112162685D01*
X85725599Y-112118572D01*
X85746654Y-112077248D01*
X85770257Y-112020266D01*
X85816489Y-111940188D01*
X85843144Y-111887877D01*
X85860423Y-111864094D01*
X85878159Y-111833375D01*
X85964383Y-111721005D01*
X85995330Y-111678411D01*
X86002796Y-111670944D01*
X86009544Y-111662151D01*
X86162151Y-111509544D01*
X86170944Y-111502796D01*
X86178411Y-111495330D01*
X86221005Y-111464383D01*
X86333375Y-111378159D01*
X86364094Y-111360423D01*
X86387877Y-111343144D01*
X86440188Y-111316489D01*
X86520266Y-111270257D01*
X86577248Y-111246654D01*
X86618572Y-111225599D01*
X86662685Y-111211265D01*
X86719661Y-111187666D01*
X86808959Y-111163738D01*
X86864815Y-111145590D01*
X86893858Y-111140989D01*
X86928122Y-111131809D01*
X87068524Y-111113324D01*
X87120542Y-111105086D01*
X87131106Y-111105086D01*
X87142090Y-111103640D01*
X87357910Y-111103640D01*
X87368894Y-111105086D01*
G37*
G36*
X112868894Y-111105086D02*
G01*
X112879458Y-111105086D01*
X112931477Y-111113325D01*
X113071877Y-111131809D01*
X113106138Y-111140989D01*
X113135185Y-111145590D01*
X113191045Y-111163740D01*
X113280338Y-111187666D01*
X113337309Y-111211264D01*
X113381428Y-111225599D01*
X113422755Y-111246656D01*
X113479733Y-111270257D01*
X113559803Y-111316485D01*
X113612123Y-111343144D01*
X113635909Y-111360425D01*
X113666624Y-111378159D01*
X113778975Y-111464369D01*
X113821589Y-111495330D01*
X113829058Y-111502799D01*
X113837848Y-111509544D01*
X113990455Y-111662151D01*
X113997199Y-111670940D01*
X114004670Y-111678411D01*
X114035634Y-111721030D01*
X114121840Y-111833375D01*
X114139572Y-111864087D01*
X114156856Y-111887877D01*
X114183517Y-111940203D01*
X114229742Y-112020266D01*
X114253340Y-112077237D01*
X114274401Y-112118572D01*
X114288738Y-112162696D01*
X114312333Y-112219661D01*
X114336255Y-112308941D01*
X114354410Y-112364815D01*
X114359011Y-112393867D01*
X114368190Y-112428122D01*
X114386673Y-112568514D01*
X114394914Y-112620542D01*
X114394914Y-112631105D01*
X114396360Y-112642089D01*
X114396360Y-112857910D01*
X114394914Y-112868893D01*
X114394914Y-112879458D01*
X114386672Y-112931490D01*
X114368190Y-113071877D01*
X114359011Y-113106129D01*
X114354410Y-113135185D01*
X114336254Y-113191063D01*
X114312333Y-113280338D01*
X114288739Y-113337298D01*
X114274401Y-113381428D01*
X114253337Y-113422766D01*
X114229742Y-113479733D01*
X114183521Y-113559788D01*
X114156856Y-113612123D01*
X114139569Y-113635916D01*
X114121840Y-113666624D01*
X114035648Y-113778950D01*
X114004670Y-113821589D01*
X113997195Y-113829063D01*
X113990455Y-113837848D01*
X113837848Y-113990455D01*
X113829063Y-113997195D01*
X113821589Y-114004670D01*
X113778950Y-114035648D01*
X113666624Y-114121840D01*
X113635916Y-114139569D01*
X113612123Y-114156856D01*
X113559788Y-114183521D01*
X113479733Y-114229742D01*
X113422766Y-114253337D01*
X113381428Y-114274401D01*
X113337298Y-114288739D01*
X113280338Y-114312333D01*
X113191063Y-114336254D01*
X113135185Y-114354410D01*
X113106129Y-114359011D01*
X113071877Y-114368190D01*
X112931490Y-114386672D01*
X112879458Y-114394914D01*
X112868893Y-114394914D01*
X112857910Y-114396360D01*
X112642090Y-114396360D01*
X112631107Y-114394914D01*
X112620542Y-114394914D01*
X112568511Y-114386672D01*
X112428122Y-114368190D01*
X112393867Y-114359011D01*
X112364815Y-114354410D01*
X112308941Y-114336255D01*
X112219661Y-114312333D01*
X112162696Y-114288738D01*
X112118572Y-114274401D01*
X112077237Y-114253340D01*
X112020266Y-114229742D01*
X111940203Y-114183517D01*
X111887877Y-114156856D01*
X111864087Y-114139572D01*
X111833375Y-114121840D01*
X111721030Y-114035634D01*
X111678411Y-114004670D01*
X111670940Y-113997199D01*
X111662151Y-113990455D01*
X111509544Y-113837848D01*
X111502799Y-113829058D01*
X111495330Y-113821589D01*
X111464369Y-113778975D01*
X111378159Y-113666624D01*
X111360425Y-113635909D01*
X111343144Y-113612123D01*
X111316485Y-113559803D01*
X111270257Y-113479733D01*
X111246656Y-113422755D01*
X111225599Y-113381428D01*
X111211264Y-113337309D01*
X111187666Y-113280338D01*
X111163740Y-113191045D01*
X111145590Y-113135185D01*
X111140989Y-113106138D01*
X111131809Y-113071877D01*
X111113325Y-112931477D01*
X111105086Y-112879458D01*
X111105086Y-112868893D01*
X111103640Y-112857910D01*
X111103640Y-112642089D01*
X111105086Y-112631105D01*
X111105086Y-112620542D01*
X111113324Y-112568527D01*
X111131809Y-112428122D01*
X111140989Y-112393858D01*
X111145590Y-112364815D01*
X111163738Y-112308959D01*
X111187666Y-112219661D01*
X111211265Y-112162685D01*
X111225599Y-112118572D01*
X111246654Y-112077248D01*
X111270257Y-112020266D01*
X111316489Y-111940188D01*
X111343144Y-111887877D01*
X111360423Y-111864094D01*
X111378159Y-111833375D01*
X111464383Y-111721005D01*
X111495330Y-111678411D01*
X111502796Y-111670944D01*
X111509544Y-111662151D01*
X111662151Y-111509544D01*
X111670944Y-111502796D01*
X111678411Y-111495330D01*
X111721005Y-111464383D01*
X111833375Y-111378159D01*
X111864094Y-111360423D01*
X111887877Y-111343144D01*
X111940188Y-111316489D01*
X112020266Y-111270257D01*
X112077248Y-111246654D01*
X112118572Y-111225599D01*
X112162685Y-111211265D01*
X112219661Y-111187666D01*
X112308959Y-111163738D01*
X112364815Y-111145590D01*
X112393858Y-111140989D01*
X112428122Y-111131809D01*
X112568524Y-111113324D01*
X112620542Y-111105086D01*
X112631106Y-111105086D01*
X112642090Y-111103640D01*
X112857910Y-111103640D01*
X112868894Y-111105086D01*
G37*
G36*
X85683711Y-103683130D02*
G01*
X85808685Y-103707989D01*
X85926408Y-103756751D01*
X86032356Y-103827543D01*
X86122457Y-103917644D01*
X86193249Y-104023592D01*
X86242011Y-104141315D01*
X86266870Y-104266289D01*
X86266870Y-104393711D01*
X86242011Y-104518685D01*
X86193249Y-104636408D01*
X86122457Y-104742356D01*
X86032356Y-104832457D01*
X85926408Y-104903249D01*
X85808685Y-104952011D01*
X85683711Y-104976870D01*
X85620000Y-104980000D01*
X85618767Y-104980000D01*
X85021233Y-104980000D01*
X85020000Y-104980000D01*
X84956289Y-104976870D01*
X84831315Y-104952011D01*
X84713592Y-104903249D01*
X84607644Y-104832457D01*
X84517543Y-104742356D01*
X84446751Y-104636408D01*
X84397989Y-104518685D01*
X84373130Y-104393711D01*
X84373130Y-104266289D01*
X84397989Y-104141315D01*
X84446751Y-104023592D01*
X84517543Y-103917644D01*
X84607644Y-103827543D01*
X84713592Y-103756751D01*
X84831315Y-103707989D01*
X84956289Y-103683130D01*
X85020000Y-103680000D01*
X85620000Y-103680000D01*
X85683711Y-103683130D01*
G37*
G36*
X89963711Y-103683130D02*
G01*
X90088685Y-103707989D01*
X90206408Y-103756751D01*
X90312356Y-103827543D01*
X90402457Y-103917644D01*
X90473249Y-104023592D01*
X90522011Y-104141315D01*
X90546870Y-104266289D01*
X90546870Y-104393711D01*
X90522011Y-104518685D01*
X90473249Y-104636408D01*
X90402457Y-104742356D01*
X90312356Y-104832457D01*
X90206408Y-104903249D01*
X90088685Y-104952011D01*
X89963711Y-104976870D01*
X89900000Y-104980000D01*
X89898767Y-104980000D01*
X89101233Y-104980000D01*
X89100000Y-104980000D01*
X89036289Y-104976870D01*
X88911315Y-104952011D01*
X88793592Y-104903249D01*
X88687644Y-104832457D01*
X88597543Y-104742356D01*
X88526751Y-104636408D01*
X88477989Y-104518685D01*
X88453130Y-104393711D01*
X88453130Y-104266289D01*
X88477989Y-104141315D01*
X88526751Y-104023592D01*
X88597543Y-103917644D01*
X88687644Y-103827543D01*
X88793592Y-103756751D01*
X88911315Y-103707989D01*
X89036289Y-103683130D01*
X89100000Y-103680000D01*
X89900000Y-103680000D01*
X89963711Y-103683130D01*
G37*
G36*
X89133939Y-102576642D02*
G01*
X89213067Y-102622326D01*
X89277674Y-102686933D01*
X89323358Y-102766061D01*
X89347006Y-102854316D01*
X89347006Y-102945684D01*
X89323358Y-103033939D01*
X89277674Y-103113067D01*
X89213067Y-103177674D01*
X89133939Y-103223358D01*
X89045684Y-103247006D01*
X88954316Y-103247006D01*
X88866061Y-103223358D01*
X88786933Y-103177674D01*
X88722326Y-103113067D01*
X88676642Y-103033939D01*
X88652994Y-102945684D01*
X88652994Y-102854316D01*
X88676642Y-102766061D01*
X88722326Y-102686933D01*
X88786933Y-102622326D01*
X88866061Y-102576642D01*
X88954316Y-102552994D01*
X89045684Y-102552994D01*
X89133939Y-102576642D01*
G37*
G36*
X89133939Y-96776642D02*
G01*
X89213067Y-96822326D01*
X89277674Y-96886933D01*
X89323358Y-96966061D01*
X89347006Y-97054316D01*
X89347006Y-97145684D01*
X89323358Y-97233939D01*
X89277674Y-97313067D01*
X89213067Y-97377674D01*
X89133939Y-97423358D01*
X89045684Y-97447006D01*
X88954316Y-97447006D01*
X88866061Y-97423358D01*
X88786933Y-97377674D01*
X88722326Y-97313067D01*
X88676642Y-97233939D01*
X88652994Y-97145684D01*
X88652994Y-97054316D01*
X88676642Y-96966061D01*
X88722326Y-96886933D01*
X88786933Y-96822326D01*
X88866061Y-96776642D01*
X88954316Y-96752994D01*
X89045684Y-96752994D01*
X89133939Y-96776642D01*
G37*
G36*
X85683711Y-95023130D02*
G01*
X85808685Y-95047989D01*
X85926408Y-95096751D01*
X86032356Y-95167543D01*
X86122457Y-95257644D01*
X86193249Y-95363592D01*
X86242011Y-95481315D01*
X86266870Y-95606289D01*
X86266870Y-95733711D01*
X86242011Y-95858685D01*
X86193249Y-95976408D01*
X86122457Y-96082356D01*
X86032356Y-96172457D01*
X85926408Y-96243249D01*
X85808685Y-96292011D01*
X85683711Y-96316870D01*
X85620000Y-96320000D01*
X85618767Y-96320000D01*
X85021233Y-96320000D01*
X85020000Y-96320000D01*
X84956289Y-96316870D01*
X84831315Y-96292011D01*
X84713592Y-96243249D01*
X84607644Y-96172457D01*
X84517543Y-96082356D01*
X84446751Y-95976408D01*
X84397989Y-95858685D01*
X84373130Y-95733711D01*
X84373130Y-95606289D01*
X84397989Y-95481315D01*
X84446751Y-95363592D01*
X84517543Y-95257644D01*
X84607644Y-95167543D01*
X84713592Y-95096751D01*
X84831315Y-95047989D01*
X84956289Y-95023130D01*
X85020000Y-95020000D01*
X85620000Y-95020000D01*
X85683711Y-95023130D01*
G37*
G36*
X89963711Y-95023130D02*
G01*
X90088685Y-95047989D01*
X90206408Y-95096751D01*
X90312356Y-95167543D01*
X90402457Y-95257644D01*
X90473249Y-95363592D01*
X90522011Y-95481315D01*
X90546870Y-95606289D01*
X90546870Y-95733711D01*
X90522011Y-95858685D01*
X90473249Y-95976408D01*
X90402457Y-96082356D01*
X90312356Y-96172457D01*
X90206408Y-96243249D01*
X90088685Y-96292011D01*
X89963711Y-96316870D01*
X89900000Y-96320000D01*
X89898767Y-96320000D01*
X89101233Y-96320000D01*
X89100000Y-96320000D01*
X89036289Y-96316870D01*
X88911315Y-96292011D01*
X88793592Y-96243249D01*
X88687644Y-96172457D01*
X88597543Y-96082356D01*
X88526751Y-95976408D01*
X88477989Y-95858685D01*
X88453130Y-95733711D01*
X88453130Y-95606289D01*
X88477989Y-95481315D01*
X88526751Y-95363592D01*
X88597543Y-95257644D01*
X88687644Y-95167543D01*
X88793592Y-95096751D01*
X88911315Y-95047989D01*
X89036289Y-95023130D01*
X89100000Y-95020000D01*
X89900000Y-95020000D01*
X89963711Y-95023130D01*
G37*
G36*
X87368894Y-85605086D02*
G01*
X87379458Y-85605086D01*
X87431477Y-85613325D01*
X87571877Y-85631809D01*
X87606138Y-85640989D01*
X87635185Y-85645590D01*
X87691045Y-85663740D01*
X87780338Y-85687666D01*
X87837309Y-85711264D01*
X87881428Y-85725599D01*
X87922755Y-85746656D01*
X87979733Y-85770257D01*
X88059803Y-85816485D01*
X88112123Y-85843144D01*
X88135909Y-85860425D01*
X88166624Y-85878159D01*
X88278975Y-85964369D01*
X88321589Y-85995330D01*
X88329058Y-86002799D01*
X88337848Y-86009544D01*
X88490455Y-86162151D01*
X88497199Y-86170940D01*
X88504670Y-86178411D01*
X88535634Y-86221030D01*
X88621840Y-86333375D01*
X88639572Y-86364087D01*
X88656856Y-86387877D01*
X88683517Y-86440203D01*
X88729742Y-86520266D01*
X88753340Y-86577237D01*
X88774401Y-86618572D01*
X88788738Y-86662696D01*
X88812333Y-86719661D01*
X88836255Y-86808941D01*
X88854410Y-86864815D01*
X88859011Y-86893867D01*
X88868190Y-86928122D01*
X88886673Y-87068514D01*
X88894914Y-87120542D01*
X88894914Y-87131105D01*
X88896360Y-87142089D01*
X88896360Y-87357910D01*
X88894914Y-87368893D01*
X88894914Y-87379458D01*
X88886672Y-87431490D01*
X88868190Y-87571877D01*
X88859011Y-87606129D01*
X88854410Y-87635185D01*
X88836254Y-87691063D01*
X88812333Y-87780338D01*
X88788739Y-87837298D01*
X88774401Y-87881428D01*
X88753337Y-87922766D01*
X88729742Y-87979733D01*
X88683521Y-88059788D01*
X88656856Y-88112123D01*
X88639569Y-88135916D01*
X88621840Y-88166624D01*
X88535648Y-88278950D01*
X88504670Y-88321589D01*
X88497195Y-88329063D01*
X88490455Y-88337848D01*
X88337848Y-88490455D01*
X88329063Y-88497195D01*
X88321589Y-88504670D01*
X88278950Y-88535648D01*
X88166624Y-88621840D01*
X88135916Y-88639569D01*
X88112123Y-88656856D01*
X88059788Y-88683521D01*
X87979733Y-88729742D01*
X87922766Y-88753337D01*
X87881428Y-88774401D01*
X87837298Y-88788739D01*
X87780338Y-88812333D01*
X87691063Y-88836254D01*
X87635185Y-88854410D01*
X87606129Y-88859011D01*
X87571877Y-88868190D01*
X87431490Y-88886672D01*
X87379458Y-88894914D01*
X87368893Y-88894914D01*
X87357910Y-88896360D01*
X87142090Y-88896360D01*
X87131107Y-88894914D01*
X87120542Y-88894914D01*
X87068511Y-88886672D01*
X86928122Y-88868190D01*
X86893867Y-88859011D01*
X86864815Y-88854410D01*
X86808941Y-88836255D01*
X86719661Y-88812333D01*
X86662696Y-88788738D01*
X86618572Y-88774401D01*
X86577237Y-88753340D01*
X86520266Y-88729742D01*
X86440203Y-88683517D01*
X86387877Y-88656856D01*
X86364087Y-88639572D01*
X86333375Y-88621840D01*
X86221030Y-88535634D01*
X86178411Y-88504670D01*
X86170940Y-88497199D01*
X86162151Y-88490455D01*
X86009544Y-88337848D01*
X86002799Y-88329058D01*
X85995330Y-88321589D01*
X85964369Y-88278975D01*
X85878159Y-88166624D01*
X85860425Y-88135909D01*
X85843144Y-88112123D01*
X85816485Y-88059803D01*
X85770257Y-87979733D01*
X85746656Y-87922755D01*
X85725599Y-87881428D01*
X85711264Y-87837309D01*
X85687666Y-87780338D01*
X85663740Y-87691045D01*
X85645590Y-87635185D01*
X85640989Y-87606138D01*
X85631809Y-87571877D01*
X85613325Y-87431477D01*
X85605086Y-87379458D01*
X85605086Y-87368893D01*
X85603640Y-87357910D01*
X85603640Y-87142089D01*
X85605086Y-87131105D01*
X85605086Y-87120542D01*
X85613324Y-87068527D01*
X85631809Y-86928122D01*
X85640989Y-86893858D01*
X85645590Y-86864815D01*
X85663738Y-86808959D01*
X85687666Y-86719661D01*
X85711265Y-86662685D01*
X85725599Y-86618572D01*
X85746654Y-86577248D01*
X85770257Y-86520266D01*
X85816489Y-86440188D01*
X85843144Y-86387877D01*
X85860423Y-86364094D01*
X85878159Y-86333375D01*
X85964383Y-86221005D01*
X85995330Y-86178411D01*
X86002796Y-86170944D01*
X86009544Y-86162151D01*
X86162151Y-86009544D01*
X86170944Y-86002796D01*
X86178411Y-85995330D01*
X86221005Y-85964383D01*
X86333375Y-85878159D01*
X86364094Y-85860423D01*
X86387877Y-85843144D01*
X86440188Y-85816489D01*
X86520266Y-85770257D01*
X86577248Y-85746654D01*
X86618572Y-85725599D01*
X86662685Y-85711265D01*
X86719661Y-85687666D01*
X86808959Y-85663738D01*
X86864815Y-85645590D01*
X86893858Y-85640989D01*
X86928122Y-85631809D01*
X87068524Y-85613324D01*
X87120542Y-85605086D01*
X87131106Y-85605086D01*
X87142090Y-85603640D01*
X87357910Y-85603640D01*
X87368894Y-85605086D01*
G37*
G36*
X112868894Y-85605086D02*
G01*
X112879458Y-85605086D01*
X112931477Y-85613325D01*
X113071877Y-85631809D01*
X113106138Y-85640989D01*
X113135185Y-85645590D01*
X113191045Y-85663740D01*
X113280338Y-85687666D01*
X113337309Y-85711264D01*
X113381428Y-85725599D01*
X113422755Y-85746656D01*
X113479733Y-85770257D01*
X113559803Y-85816485D01*
X113612123Y-85843144D01*
X113635909Y-85860425D01*
X113666624Y-85878159D01*
X113778975Y-85964369D01*
X113821589Y-85995330D01*
X113829058Y-86002799D01*
X113837848Y-86009544D01*
X113990455Y-86162151D01*
X113997199Y-86170940D01*
X114004670Y-86178411D01*
X114035634Y-86221030D01*
X114121840Y-86333375D01*
X114139572Y-86364087D01*
X114156856Y-86387877D01*
X114183517Y-86440203D01*
X114229742Y-86520266D01*
X114253340Y-86577237D01*
X114274401Y-86618572D01*
X114288738Y-86662696D01*
X114312333Y-86719661D01*
X114336255Y-86808941D01*
X114354410Y-86864815D01*
X114359011Y-86893867D01*
X114368190Y-86928122D01*
X114386673Y-87068514D01*
X114394914Y-87120542D01*
X114394914Y-87131105D01*
X114396360Y-87142089D01*
X114396360Y-87357910D01*
X114394914Y-87368893D01*
X114394914Y-87379458D01*
X114386672Y-87431490D01*
X114368190Y-87571877D01*
X114359011Y-87606129D01*
X114354410Y-87635185D01*
X114336254Y-87691063D01*
X114312333Y-87780338D01*
X114288739Y-87837298D01*
X114274401Y-87881428D01*
X114253337Y-87922766D01*
X114229742Y-87979733D01*
X114183521Y-88059788D01*
X114156856Y-88112123D01*
X114139569Y-88135916D01*
X114121840Y-88166624D01*
X114035648Y-88278950D01*
X114004670Y-88321589D01*
X113997195Y-88329063D01*
X113990455Y-88337848D01*
X113837848Y-88490455D01*
X113829063Y-88497195D01*
X113821589Y-88504670D01*
X113778950Y-88535648D01*
X113666624Y-88621840D01*
X113635916Y-88639569D01*
X113612123Y-88656856D01*
X113559788Y-88683521D01*
X113479733Y-88729742D01*
X113422766Y-88753337D01*
X113381428Y-88774401D01*
X113337298Y-88788739D01*
X113280338Y-88812333D01*
X113191063Y-88836254D01*
X113135185Y-88854410D01*
X113106129Y-88859011D01*
X113071877Y-88868190D01*
X112931490Y-88886672D01*
X112879458Y-88894914D01*
X112868893Y-88894914D01*
X112857910Y-88896360D01*
X112642090Y-88896360D01*
X112631107Y-88894914D01*
X112620542Y-88894914D01*
X112568511Y-88886672D01*
X112428122Y-88868190D01*
X112393867Y-88859011D01*
X112364815Y-88854410D01*
X112308941Y-88836255D01*
X112219661Y-88812333D01*
X112162696Y-88788738D01*
X112118572Y-88774401D01*
X112077237Y-88753340D01*
X112020266Y-88729742D01*
X111940203Y-88683517D01*
X111887877Y-88656856D01*
X111864087Y-88639572D01*
X111833375Y-88621840D01*
X111721030Y-88535634D01*
X111678411Y-88504670D01*
X111670940Y-88497199D01*
X111662151Y-88490455D01*
X111509544Y-88337848D01*
X111502799Y-88329058D01*
X111495330Y-88321589D01*
X111464369Y-88278975D01*
X111378159Y-88166624D01*
X111360425Y-88135909D01*
X111343144Y-88112123D01*
X111316485Y-88059803D01*
X111270257Y-87979733D01*
X111246656Y-87922755D01*
X111225599Y-87881428D01*
X111211264Y-87837309D01*
X111187666Y-87780338D01*
X111163740Y-87691045D01*
X111145590Y-87635185D01*
X111140989Y-87606138D01*
X111131809Y-87571877D01*
X111113325Y-87431477D01*
X111105086Y-87379458D01*
X111105086Y-87368893D01*
X111103640Y-87357910D01*
X111103640Y-87142089D01*
X111105086Y-87131105D01*
X111105086Y-87120542D01*
X111113324Y-87068527D01*
X111131809Y-86928122D01*
X111140989Y-86893858D01*
X111145590Y-86864815D01*
X111163738Y-86808959D01*
X111187666Y-86719661D01*
X111211265Y-86662685D01*
X111225599Y-86618572D01*
X111246654Y-86577248D01*
X111270257Y-86520266D01*
X111316489Y-86440188D01*
X111343144Y-86387877D01*
X111360423Y-86364094D01*
X111378159Y-86333375D01*
X111464383Y-86221005D01*
X111495330Y-86178411D01*
X111502796Y-86170944D01*
X111509544Y-86162151D01*
X111662151Y-86009544D01*
X111670944Y-86002796D01*
X111678411Y-85995330D01*
X111721005Y-85964383D01*
X111833375Y-85878159D01*
X111864094Y-85860423D01*
X111887877Y-85843144D01*
X111940188Y-85816489D01*
X112020266Y-85770257D01*
X112077248Y-85746654D01*
X112118572Y-85725599D01*
X112162685Y-85711265D01*
X112219661Y-85687666D01*
X112308959Y-85663738D01*
X112364815Y-85645590D01*
X112393858Y-85640989D01*
X112428122Y-85631809D01*
X112568524Y-85613324D01*
X112620542Y-85605086D01*
X112631106Y-85605086D01*
X112642090Y-85603640D01*
X112857910Y-85603640D01*
X112868894Y-85605086D01*
G37*
M02*
