M48
; DRILL file KiCad 10.0.6-10.0.6~ubuntu24.04.1 date 2026-09-26T08:25:38
; FORMAT={-:-/ absolute / metric / decimal}
; #@! TF.CreationDate,2026-09-26T08:25:38+00:00
; #@! TF.GenerationSoftware,Kicad,Pcbnew,10.0.6-10.0.6~ubuntu24.04.1
; #@! TF.FileFunction,Plated,1,4,PTH
FMAT,2
METRIC
; #@! TA.AperFunction,Plated,PTH,ViaDrill
T1C0.250
; #@! TA.AperFunction,Plated,PTH,ComponentDrill
T2C0.800
%
G90
G05
T1
X84.516Y-104.622
X85.0Y-109.65
X85.369Y-92.075
X85.378Y-105.484
X85.42Y-91.4
X86.056Y-92.8
X87.113Y-106.276
X87.191Y-94.265
X87.399Y-105.633
X88.45Y-97.85
X89.3Y-99.7
X90.44Y-95.462
X90.768Y-110.955
X90.843Y-105.299
X90.85Y-107.5
X90.9Y-97.6
X90.914Y-95.953
X90.914Y-104.047
X91.3Y-96.9
X91.321Y-103.337
X91.4Y-110.59
X91.76Y-111.29
X91.8Y-105.3
X91.916Y-102.4
X92.308Y-110.575
X92.398Y-93.438
X92.69Y-99.106
X92.69Y-99.836
X92.692Y-96.768
X92.968Y-87.955
X93.0Y-114.58
X93.07Y-108.249
X93.082Y-104.755
X93.28Y-99.559
X93.28Y-101.941
X93.435Y-107.617
X93.55Y-92.3
X93.6Y-87.59
X93.65Y-100.2
X93.66Y-101.25
X93.714Y-104.39
X93.863Y-114.937
X93.95Y-109.55
X94.046Y-86.887
X94.168Y-97.164
X94.237Y-96.591
X94.554Y-98.25
X94.65Y-99.85
X94.673Y-86.413
X94.75Y-100.55
X94.755Y-101.882
X94.764Y-105.35
X94.9Y-106.8
X95.09Y-93.7
X95.15Y-91.9
X95.15Y-92.6
X95.15Y-94.35
X95.225Y-96.29
X95.26Y-104.666
X95.4Y-90.35
X95.486Y-105.369
X95.55Y-96.75
X95.82Y-94.43
X95.85Y-100.25
X96.004Y-104.24
X96.055Y-101.439
X96.084Y-113.888
X96.7Y-84.79
X96.7Y-87.21
X96.7Y-91.35
X96.75Y-95.6
X96.75Y-106.45
X96.872Y-105.511
X97.049Y-110.453
X97.05Y-94.4
X97.061Y-102.435
X97.061Y-104.806
X97.332Y-85.155
X97.455Y-107.729
X97.5Y-96.0
X97.5Y-97.0
X97.5Y-98.0
X97.5Y-99.0
X97.5Y-100.0
X97.5Y-101.0
X97.537Y-83.797
X97.568Y-89.72
X97.714Y-94.083
X97.9Y-103.7
X97.91Y-108.321
X97.963Y-110.458
X98.228Y-107.716
X98.5Y-86.7
X98.5Y-87.7
X98.5Y-88.7
X98.5Y-96.0
X98.5Y-97.0
X98.5Y-98.0
X98.5Y-99.0
X98.5Y-100.0
X98.5Y-101.0
X98.666Y-83.903
X98.87Y-109.735
X98.938Y-113.306
X99.233Y-107.735
X99.3Y-93.75
X99.5Y-86.7
X99.5Y-87.7
X99.5Y-88.7
X99.5Y-96.0
X99.5Y-97.0
X99.5Y-98.0
X99.5Y-99.0
X99.5Y-100.0
X99.5Y-101.0
X99.523Y-105.35
X99.8Y-94.25
X100.103Y-110.374
X100.5Y-86.7
X100.5Y-87.7
X100.5Y-88.7
X100.5Y-96.0
X100.5Y-97.0
X100.5Y-98.0
X100.5Y-99.0
X100.5Y-100.0
X100.5Y-101.0
X100.846Y-91.743
X101.1Y-85.55
X101.1Y-94.2
X101.25Y-89.8
X101.5Y-86.7
X101.5Y-87.7
X101.5Y-88.7
X101.5Y-96.0
X101.5Y-97.0
X101.5Y-98.0
X101.5Y-99.0
X101.5Y-100.0
X101.5Y-101.0
X102.463Y-91.603
X102.5Y-85.8
X102.5Y-96.0
X102.5Y-97.0
X102.5Y-98.0
X102.5Y-99.0
X102.5Y-100.0
X102.5Y-101.0
X102.55Y-87.15
X102.6Y-90.7
X102.762Y-113.102
X102.85Y-102.1
X103.55Y-95.272
X103.939Y-97.459
X104.2Y-87.15
X104.3Y-100.35
X104.3Y-103.39
X104.3Y-105.81
X104.333Y-98.287
X104.4Y-101.15
X104.415Y-97.183
X104.417Y-96.214
X104.461Y-95.515
X104.75Y-102.1
X104.808Y-105.673
X104.841Y-87.52
X104.932Y-103.755
X104.984Y-99.502
X105.112Y-112.372
X105.415Y-97.975
X105.6Y-94.7
X105.663Y-99.889
X105.759Y-111.86
X105.893Y-99.206
X105.969Y-96.638
X105.975Y-95.588
X106.219Y-97.892
X106.294Y-100.59
X106.34Y-96.22
X106.35Y-102.25
X106.4Y-110.75
X106.403Y-99.797
X106.658Y-109.714
X107.154Y-101.421
X107.197Y-99.797
X107.245Y-110.632
X107.6Y-102.9
X107.61Y-110.0
X107.8Y-111.3
X107.95Y-94.7
X108.01Y-104.7
X108.25Y-91.25
X108.274Y-97.26
X108.441Y-93.559
X108.489Y-100.964
X108.568Y-106.555
X108.568Y-101.8
X108.6Y-110.79
X109.077Y-100.433
X109.095Y-88.8
X109.2Y-106.19
X109.2Y-108.61
X109.232Y-111.155
X109.25Y-88.04
X109.514Y-100.958
X109.9Y-108.15
X110.116Y-100.504
X110.116Y-102.604
X110.632Y-102.088
X111.2Y-106.17
X111.2Y-106.9
X111.72Y-95.405
X112.3Y-105.85
X113.8Y-105.3
X113.81Y-95.405
X114.422Y-108.922
X114.743Y-99.39
X115.422Y-108.922
X116.116Y-97.422
T2
X85.52Y-95.67G85X85.12Y-95.67
G05
X85.52Y-104.33G85X85.12Y-104.33
G05
X89.85Y-95.67G85X89.15Y-95.67
G05
X89.85Y-104.33G85X89.15Y-104.33
G05
M30
