%TF.GenerationSoftware,KiCad,Pcbnew,10.0.6-10.0.6~ubuntu24.04.1*%
%TF.CreationDate,2026-09-26T07:27:00+00:00*%
%TF.ProjectId,cheapdrone-fc,63686561-7064-4726-9f6e-652d66632e6b,rev?*%
%TF.SameCoordinates,Original*%
%TF.FileFunction,Drillmap*%
%TF.FilePolarity,Positive*%
%FSLAX45Y45*%
G04 Gerber Fmt 4.5, Leading zero omitted, Abs format (unit mm)*
G04 Created by KiCad (PCBNEW 10.0.6-10.0.6~ubuntu24.04.1) date 2026-09-26 07:27:00*
%MOMM*%
%LPD*%
G01*
G04 APERTURE LIST*
%ADD10C,0.100000*%
%ADD11C,0.200000*%
G04 APERTURE END LIST*
D10*
X8310000Y-8310000D02*
X11690000Y-8310000D01*
X8310000Y-11690000D02*
X8310000Y-8310000D01*
X11690000Y-8310000D02*
X11690000Y-11690000D01*
X11690000Y-11690000D02*
X8310000Y-11690000D01*
D11*
D10*
X8487500Y-10952500D02*
X8512500Y-10977500D01*
X8512500Y-10952500D02*
X8487500Y-10977500D01*
X8525343Y-10535924D02*
X8550343Y-10560924D01*
X8550343Y-10535924D02*
X8525343Y-10560924D01*
X8529500Y-9127500D02*
X8554500Y-9152500D01*
X8554500Y-9127500D02*
X8529500Y-9152500D01*
X8593150Y-9267500D02*
X8618150Y-9292500D01*
X8618150Y-9267500D02*
X8593150Y-9292500D01*
X8706610Y-9414000D02*
X8731610Y-9439000D01*
X8731610Y-9414000D02*
X8706610Y-9439000D01*
X8727380Y-10550800D02*
X8752380Y-10575800D01*
X8752380Y-10550800D02*
X8727380Y-10575800D01*
X8832500Y-9772500D02*
X8857500Y-9797500D01*
X8857500Y-9772500D02*
X8832500Y-9797500D01*
X8917500Y-9957500D02*
X8942500Y-9982500D01*
X8942500Y-9957500D02*
X8917500Y-9982500D01*
X9071820Y-10517400D02*
X9096820Y-10542400D01*
X9096820Y-10517400D02*
X9071820Y-10542400D01*
X9072500Y-10737500D02*
X9097500Y-10762500D01*
X9097500Y-10737500D02*
X9072500Y-10762500D01*
X9077500Y-9747500D02*
X9102500Y-9772500D01*
X9102500Y-9747500D02*
X9077500Y-9772500D01*
X9078880Y-9582800D02*
X9103880Y-9607800D01*
X9103880Y-9582800D02*
X9078880Y-9607800D01*
X9078880Y-10392200D02*
X9103880Y-10417200D01*
X9103880Y-10392200D02*
X9078880Y-10417200D01*
X9117500Y-9677500D02*
X9142500Y-9702500D01*
X9142500Y-9677500D02*
X9117500Y-9702500D01*
X9127500Y-11046500D02*
X9152500Y-11071500D01*
X9152500Y-11046500D02*
X9127500Y-11071500D01*
X9167500Y-10517500D02*
X9192500Y-10542500D01*
X9192500Y-10517500D02*
X9167500Y-10542500D01*
X9179080Y-10227500D02*
X9204080Y-10252500D01*
X9204080Y-10227500D02*
X9179080Y-10252500D01*
X9218350Y-11045000D02*
X9243350Y-11070000D01*
X9243350Y-11045000D02*
X9218350Y-11070000D01*
X9227340Y-9331250D02*
X9252340Y-9356250D01*
X9252340Y-9331250D02*
X9227340Y-9356250D01*
X9256500Y-9898100D02*
X9281500Y-9923100D01*
X9281500Y-9898100D02*
X9256500Y-9923100D01*
X9256660Y-9664310D02*
X9281660Y-9689310D01*
X9281660Y-9664310D02*
X9256660Y-9689310D01*
X9294500Y-10812400D02*
X9319500Y-10837400D01*
X9319500Y-10812400D02*
X9294500Y-10837400D01*
X9342500Y-9217500D02*
X9367500Y-9242500D01*
X9367500Y-9217500D02*
X9342500Y-9242500D01*
X9347500Y-8746500D02*
X9372500Y-8771500D01*
X9372500Y-8746500D02*
X9347500Y-8771500D01*
X9352500Y-10007500D02*
X9377500Y-10032500D01*
X9377500Y-10007500D02*
X9352500Y-10032500D01*
X9353500Y-10112500D02*
X9378500Y-10137500D01*
X9378500Y-10112500D02*
X9353500Y-10137500D01*
X9358940Y-10426500D02*
X9383940Y-10451500D01*
X9383940Y-10426500D02*
X9358940Y-10451500D01*
X9373770Y-11481200D02*
X9398770Y-11506200D01*
X9398770Y-11481200D02*
X9373770Y-11506200D01*
X9382500Y-10942500D02*
X9407500Y-10967500D01*
X9407500Y-10942500D02*
X9382500Y-10967500D01*
X9392060Y-8676160D02*
X9417060Y-8701160D01*
X9417060Y-8676160D02*
X9392060Y-8701160D01*
X9404290Y-9703880D02*
X9429290Y-9728880D01*
X9429290Y-9703880D02*
X9404290Y-9728880D01*
X9411250Y-9646590D02*
X9436250Y-9671590D01*
X9436250Y-9646590D02*
X9411250Y-9671590D01*
X9442880Y-9812500D02*
X9467880Y-9837500D01*
X9467880Y-9812500D02*
X9442880Y-9837500D01*
X9452500Y-9972500D02*
X9477500Y-9997500D01*
X9477500Y-9972500D02*
X9452500Y-9997500D01*
X9454840Y-8628840D02*
X9479840Y-8653840D01*
X9479840Y-8628840D02*
X9454840Y-8653840D01*
X9462500Y-10042500D02*
X9487500Y-10067500D01*
X9487500Y-10042500D02*
X9462500Y-10067500D01*
X9463940Y-10522500D02*
X9488940Y-10547500D01*
X9488940Y-10522500D02*
X9463940Y-10547500D01*
X9477500Y-10667500D02*
X9502500Y-10692500D01*
X9502500Y-10667500D02*
X9477500Y-10692500D01*
X9496500Y-9357500D02*
X9521500Y-9382500D01*
X9521500Y-9357500D02*
X9496500Y-9382500D01*
X9502500Y-9177500D02*
X9527500Y-9202500D01*
X9527500Y-9177500D02*
X9502500Y-9202500D01*
X9502500Y-9247500D02*
X9527500Y-9272500D01*
X9527500Y-9247500D02*
X9502500Y-9272500D01*
X9502500Y-9422500D02*
X9527500Y-9447500D01*
X9527500Y-9422500D02*
X9502500Y-9447500D01*
X9509970Y-9616540D02*
X9534970Y-9641540D01*
X9534970Y-9616540D02*
X9509970Y-9641540D01*
X9513510Y-10454100D02*
X9538510Y-10479100D01*
X9538510Y-10454100D02*
X9513510Y-10479100D01*
X9527500Y-9022500D02*
X9552500Y-9047500D01*
X9552500Y-9022500D02*
X9527500Y-9047500D01*
X9542500Y-9662500D02*
X9567500Y-9687500D01*
X9567500Y-9662500D02*
X9542500Y-9687500D01*
X9572500Y-10012500D02*
X9597500Y-10037500D01*
X9597500Y-10012500D02*
X9572500Y-10037500D01*
X9593010Y-10131400D02*
X9618010Y-10156400D01*
X9618010Y-10131400D02*
X9593010Y-10156400D01*
X9595860Y-11376320D02*
X9620860Y-11401320D01*
X9620860Y-11376320D02*
X9595860Y-11401320D01*
X9657500Y-8466500D02*
X9682500Y-8491500D01*
X9682500Y-8466500D02*
X9657500Y-8491500D01*
X9657500Y-8708500D02*
X9682500Y-8733500D01*
X9682500Y-8708500D02*
X9657500Y-8733500D01*
X9657500Y-9122500D02*
X9682500Y-9147500D01*
X9682500Y-9122500D02*
X9657500Y-9147500D01*
X9662500Y-9547500D02*
X9687500Y-9572500D01*
X9687500Y-9547500D02*
X9662500Y-9572500D01*
X9662500Y-10632500D02*
X9687500Y-10657500D01*
X9687500Y-10632500D02*
X9662500Y-10657500D01*
X9692370Y-11032800D02*
X9717370Y-11057800D01*
X9717370Y-11032800D02*
X9692370Y-11057800D01*
X9692500Y-9427500D02*
X9717500Y-9452500D01*
X9717500Y-9427500D02*
X9692500Y-9452500D01*
X9693610Y-10231000D02*
X9718610Y-10256000D01*
X9718610Y-10231000D02*
X9693610Y-10256000D01*
X9693610Y-10468100D02*
X9718610Y-10493100D01*
X9718610Y-10468100D02*
X9693610Y-10493100D01*
X9737500Y-9587500D02*
X9762500Y-9612500D01*
X9762500Y-9587500D02*
X9737500Y-9612500D01*
X9737500Y-9687500D02*
X9762500Y-9712500D01*
X9762500Y-9687500D02*
X9737500Y-9712500D01*
X9737500Y-9787500D02*
X9762500Y-9812500D01*
X9762500Y-9787500D02*
X9737500Y-9812500D01*
X9737500Y-9887500D02*
X9762500Y-9912500D01*
X9762500Y-9887500D02*
X9737500Y-9912500D01*
X9737500Y-9987500D02*
X9762500Y-10012500D01*
X9762500Y-9987500D02*
X9737500Y-10012500D01*
X9737500Y-10087500D02*
X9762500Y-10112500D01*
X9762500Y-10087500D02*
X9737500Y-10112500D01*
X9741160Y-8367240D02*
X9766160Y-8392240D01*
X9766160Y-8367240D02*
X9741160Y-8392240D01*
X9744260Y-8959470D02*
X9769260Y-8984470D01*
X9769260Y-8959470D02*
X9744260Y-8984470D01*
X9758920Y-9395840D02*
X9783920Y-9420840D01*
X9783920Y-9395840D02*
X9758920Y-9420840D01*
X9777500Y-10357500D02*
X9802500Y-10382500D01*
X9802500Y-10357500D02*
X9777500Y-10382500D01*
X9778500Y-10819600D02*
X9803500Y-10844600D01*
X9803500Y-10819600D02*
X9778500Y-10844600D01*
X9837500Y-8657500D02*
X9862500Y-8682500D01*
X9862500Y-8657500D02*
X9837500Y-8682500D01*
X9837500Y-8757500D02*
X9862500Y-8782500D01*
X9862500Y-8757500D02*
X9837500Y-8782500D01*
X9837500Y-8857500D02*
X9862500Y-8882500D01*
X9862500Y-8857500D02*
X9837500Y-8882500D01*
X9837500Y-9587500D02*
X9862500Y-9612500D01*
X9862500Y-9587500D02*
X9837500Y-9612500D01*
X9837500Y-9687500D02*
X9862500Y-9712500D01*
X9862500Y-9687500D02*
X9837500Y-9712500D01*
X9837500Y-9787500D02*
X9862500Y-9812500D01*
X9862500Y-9787500D02*
X9837500Y-9812500D01*
X9837500Y-9887500D02*
X9862500Y-9912500D01*
X9862500Y-9887500D02*
X9837500Y-9912500D01*
X9837500Y-9987500D02*
X9862500Y-10012500D01*
X9862500Y-9987500D02*
X9837500Y-10012500D01*
X9837500Y-10087500D02*
X9862500Y-10112500D01*
X9862500Y-10087500D02*
X9837500Y-10112500D01*
X9854120Y-8377840D02*
X9879120Y-8402840D01*
X9879120Y-8377840D02*
X9854120Y-8402840D01*
X9874470Y-10960980D02*
X9899470Y-10985980D01*
X9899470Y-10960980D02*
X9874470Y-10985980D01*
X9881250Y-11318140D02*
X9906250Y-11343140D01*
X9906250Y-11318140D02*
X9881250Y-11343140D01*
X9910760Y-10761000D02*
X9935760Y-10786000D01*
X9935760Y-10761000D02*
X9910760Y-10786000D01*
X9917500Y-9362500D02*
X9942500Y-9387500D01*
X9942500Y-9362500D02*
X9917500Y-9387500D01*
X9937500Y-8657500D02*
X9962500Y-8682500D01*
X9962500Y-8657500D02*
X9937500Y-8682500D01*
X9937500Y-8757500D02*
X9962500Y-8782500D01*
X9962500Y-8757500D02*
X9937500Y-8782500D01*
X9937500Y-8857500D02*
X9962500Y-8882500D01*
X9962500Y-8857500D02*
X9937500Y-8882500D01*
X9937500Y-9587500D02*
X9962500Y-9612500D01*
X9962500Y-9587500D02*
X9937500Y-9612500D01*
X9937500Y-9687500D02*
X9962500Y-9712500D01*
X9962500Y-9687500D02*
X9937500Y-9712500D01*
X9937500Y-9787500D02*
X9962500Y-9812500D01*
X9962500Y-9787500D02*
X9937500Y-9812500D01*
X9937500Y-9887500D02*
X9962500Y-9912500D01*
X9962500Y-9887500D02*
X9937500Y-9912500D01*
X9937500Y-9987500D02*
X9962500Y-10012500D01*
X9962500Y-9987500D02*
X9937500Y-10012500D01*
X9937500Y-10087500D02*
X9962500Y-10112500D01*
X9962500Y-10087500D02*
X9937500Y-10112500D01*
X9939820Y-10522500D02*
X9964820Y-10547500D01*
X9964820Y-10522500D02*
X9939820Y-10547500D01*
X9967500Y-9412500D02*
X9992500Y-9437500D01*
X9992500Y-9412500D02*
X9967500Y-9437500D01*
X9997820Y-11024860D02*
X10022820Y-11049860D01*
X10022820Y-11024860D02*
X9997820Y-11049860D01*
X10037500Y-8657500D02*
X10062500Y-8682500D01*
X10062500Y-8657500D02*
X10037500Y-8682500D01*
X10037500Y-8757500D02*
X10062500Y-8782500D01*
X10062500Y-8757500D02*
X10037500Y-8782500D01*
X10037500Y-8857500D02*
X10062500Y-8882500D01*
X10062500Y-8857500D02*
X10037500Y-8882500D01*
X10037500Y-9587500D02*
X10062500Y-9612500D01*
X10062500Y-9587500D02*
X10037500Y-9612500D01*
X10037500Y-9687500D02*
X10062500Y-9712500D01*
X10062500Y-9687500D02*
X10037500Y-9712500D01*
X10037500Y-9787500D02*
X10062500Y-9812500D01*
X10062500Y-9787500D02*
X10037500Y-9812500D01*
X10037500Y-9887500D02*
X10062500Y-9912500D01*
X10062500Y-9887500D02*
X10037500Y-9912500D01*
X10037500Y-9987500D02*
X10062500Y-10012500D01*
X10062500Y-9987500D02*
X10037500Y-10012500D01*
X10037500Y-10087500D02*
X10062500Y-10112500D01*
X10062500Y-10087500D02*
X10037500Y-10112500D01*
X10072100Y-9161810D02*
X10097100Y-9186810D01*
X10097100Y-9161810D02*
X10072100Y-9186810D01*
X10097500Y-8542500D02*
X10122500Y-8567500D01*
X10122500Y-8542500D02*
X10097500Y-8567500D01*
X10097500Y-9407500D02*
X10122500Y-9432500D01*
X10122500Y-9407500D02*
X10097500Y-9432500D01*
X10112500Y-8967500D02*
X10137500Y-8992500D01*
X10137500Y-8967500D02*
X10112500Y-8992500D01*
X10137500Y-8657500D02*
X10162500Y-8682500D01*
X10162500Y-8657500D02*
X10137500Y-8682500D01*
X10137500Y-8757500D02*
X10162500Y-8782500D01*
X10162500Y-8757500D02*
X10137500Y-8782500D01*
X10137500Y-8857500D02*
X10162500Y-8882500D01*
X10162500Y-8857500D02*
X10137500Y-8882500D01*
X10137500Y-9587500D02*
X10162500Y-9612500D01*
X10162500Y-9587500D02*
X10137500Y-9612500D01*
X10137500Y-9687500D02*
X10162500Y-9712500D01*
X10162500Y-9687500D02*
X10137500Y-9712500D01*
X10137500Y-9787500D02*
X10162500Y-9812500D01*
X10162500Y-9787500D02*
X10137500Y-9812500D01*
X10137500Y-9887500D02*
X10162500Y-9912500D01*
X10162500Y-9887500D02*
X10137500Y-9912500D01*
X10137500Y-9987500D02*
X10162500Y-10012500D01*
X10162500Y-9987500D02*
X10137500Y-10012500D01*
X10137500Y-10087500D02*
X10162500Y-10112500D01*
X10162500Y-10087500D02*
X10137500Y-10112500D01*
X10233800Y-9147760D02*
X10258800Y-9172760D01*
X10258800Y-9147760D02*
X10233800Y-9172760D01*
X10237500Y-8567500D02*
X10262500Y-8592500D01*
X10262500Y-8567500D02*
X10237500Y-8592500D01*
X10237500Y-9587500D02*
X10262500Y-9612500D01*
X10262500Y-9587500D02*
X10237500Y-9612500D01*
X10237500Y-9687500D02*
X10262500Y-9712500D01*
X10262500Y-9687500D02*
X10237500Y-9712500D01*
X10237500Y-9787500D02*
X10262500Y-9812500D01*
X10262500Y-9787500D02*
X10237500Y-9812500D01*
X10237500Y-9887500D02*
X10262500Y-9912500D01*
X10262500Y-9887500D02*
X10237500Y-9912500D01*
X10237500Y-9987500D02*
X10262500Y-10012500D01*
X10262500Y-9987500D02*
X10237500Y-10012500D01*
X10237500Y-10087500D02*
X10262500Y-10112500D01*
X10262500Y-10087500D02*
X10237500Y-10112500D01*
X10242500Y-8702500D02*
X10267500Y-8727500D01*
X10267500Y-8702500D02*
X10242500Y-8727500D01*
X10247500Y-9057500D02*
X10272500Y-9082500D01*
X10272500Y-9057500D02*
X10247500Y-9082500D01*
X10263660Y-11297680D02*
X10288660Y-11322680D01*
X10288660Y-11297680D02*
X10263660Y-11322680D01*
X10272500Y-10197500D02*
X10297500Y-10222500D01*
X10297500Y-10197500D02*
X10272500Y-10222500D01*
X10342500Y-9514740D02*
X10367500Y-9539740D01*
X10367500Y-9514740D02*
X10342500Y-9539740D01*
X10381400Y-9733390D02*
X10406400Y-9758390D01*
X10406400Y-9733390D02*
X10381400Y-9758390D01*
X10407500Y-8702500D02*
X10432500Y-8727500D01*
X10432500Y-8702500D02*
X10407500Y-8727500D01*
X10417500Y-10022500D02*
X10442500Y-10047500D01*
X10442500Y-10022500D02*
X10417500Y-10047500D01*
X10417500Y-10326500D02*
X10442500Y-10351500D01*
X10442500Y-10326500D02*
X10417500Y-10351500D01*
X10417500Y-10568500D02*
X10442500Y-10593500D01*
X10442500Y-10568500D02*
X10417500Y-10593500D01*
X10420800Y-9816250D02*
X10445800Y-9841250D01*
X10445800Y-9816250D02*
X10420800Y-9841250D01*
X10427500Y-10102500D02*
X10452500Y-10127500D01*
X10452500Y-10102500D02*
X10427500Y-10127500D01*
X10429000Y-9705850D02*
X10454000Y-9730850D01*
X10454000Y-9705850D02*
X10429000Y-9730850D01*
X10429200Y-9608920D02*
X10454200Y-9633920D01*
X10454200Y-9608920D02*
X10429200Y-9633920D01*
X10433600Y-9538990D02*
X10458600Y-9563990D01*
X10458600Y-9538990D02*
X10433600Y-9563990D01*
X10462500Y-10197500D02*
X10487500Y-10222500D01*
X10487500Y-10197500D02*
X10462500Y-10222500D01*
X10468300Y-10554800D02*
X10493300Y-10579800D01*
X10493300Y-10554800D02*
X10468300Y-10579800D01*
X10498670Y-11224750D02*
X10523670Y-11249750D01*
X10523670Y-11224750D02*
X10498670Y-11249750D01*
X10553800Y-9976410D02*
X10578800Y-10001410D01*
X10578800Y-9976410D02*
X10553800Y-10001410D01*
X10584400Y-9651280D02*
X10609400Y-9676280D01*
X10609400Y-9651280D02*
X10584400Y-9676280D01*
X10609400Y-9776720D02*
X10634400Y-9801720D01*
X10634400Y-9776720D02*
X10609400Y-9801720D01*
X10621500Y-9609500D02*
X10646500Y-9634500D01*
X10646500Y-9609500D02*
X10621500Y-9634500D01*
X10622500Y-10212500D02*
X10647500Y-10237500D01*
X10647500Y-10212500D02*
X10622500Y-10237500D01*
X10627500Y-11062500D02*
X10652500Y-11087500D01*
X10652500Y-11062500D02*
X10627500Y-11087500D01*
X10627800Y-9967200D02*
X10652800Y-9992200D01*
X10652800Y-9967200D02*
X10627800Y-9992200D01*
X10627800Y-10367800D02*
X10652800Y-10392800D01*
X10652800Y-10367800D02*
X10627800Y-10392800D01*
X10653300Y-10958900D02*
X10678300Y-10983900D01*
X10678300Y-10958900D02*
X10653300Y-10983900D01*
X10707200Y-9967200D02*
X10732200Y-9992200D01*
X10732200Y-9967200D02*
X10707200Y-9992200D01*
X10707200Y-10367800D02*
X10732200Y-10392800D01*
X10732200Y-10367800D02*
X10707200Y-10392800D01*
X10747500Y-10277500D02*
X10772500Y-10302500D01*
X10772500Y-10277500D02*
X10747500Y-10302500D01*
X10748500Y-10987500D02*
X10773500Y-11012500D01*
X10773500Y-10987500D02*
X10748500Y-11012500D01*
X10767500Y-11117500D02*
X10792500Y-11142500D01*
X10792500Y-11117500D02*
X10767500Y-11142500D01*
X10788500Y-10457500D02*
X10813500Y-10482500D01*
X10813500Y-10457500D02*
X10788500Y-10482500D01*
X10791300Y-9372080D02*
X10816300Y-9397080D01*
X10816300Y-9372080D02*
X10791300Y-9397080D01*
X10814900Y-9713500D02*
X10839900Y-9738500D01*
X10839900Y-9713500D02*
X10814900Y-9738500D01*
X10836400Y-10083900D02*
X10861400Y-10108900D01*
X10861400Y-10083900D02*
X10836400Y-10108900D01*
X10844300Y-10167500D02*
X10869300Y-10192500D01*
X10869300Y-10167500D02*
X10844300Y-10192500D01*
X10847500Y-11066500D02*
X10872500Y-11091500D01*
X10872500Y-11066500D02*
X10847500Y-11091500D01*
X10888920Y-9092500D02*
X10913920Y-9117500D01*
X10913920Y-9092500D02*
X10888920Y-9117500D01*
X10895200Y-10030800D02*
X10920200Y-10055800D01*
X10920200Y-10030800D02*
X10895200Y-10055800D01*
X10907500Y-10606500D02*
X10932500Y-10631500D01*
X10932500Y-10606500D02*
X10907500Y-10631500D01*
X10907500Y-10848500D02*
X10932500Y-10873500D01*
X10932500Y-10848500D02*
X10907500Y-10873500D01*
X10917500Y-8846500D02*
X10942500Y-8871500D01*
X10942500Y-8846500D02*
X10917500Y-8871500D01*
X10977500Y-10802500D02*
X11002500Y-10827500D01*
X11002500Y-10802500D02*
X10977500Y-10827500D01*
X10999100Y-10037900D02*
X11024100Y-10062900D01*
X11024100Y-10037900D02*
X10999100Y-10062900D01*
X10999100Y-10247900D02*
X11024100Y-10272900D01*
X11024100Y-10247900D02*
X10999100Y-10272900D01*
X11079000Y-9512540D02*
X11104000Y-9537540D01*
X11104000Y-9512540D02*
X11079000Y-9537540D01*
X11107500Y-10604500D02*
X11132500Y-10629500D01*
X11132500Y-10604500D02*
X11107500Y-10629500D01*
X11217500Y-10572500D02*
X11242500Y-10597500D01*
X11242500Y-10572500D02*
X11217500Y-10597500D01*
X11367500Y-10517500D02*
X11392500Y-10542500D01*
X11392500Y-10517500D02*
X11367500Y-10542500D01*
X11368000Y-9478000D02*
X11393000Y-9503000D01*
X11393000Y-9478000D02*
X11368000Y-9503000D01*
X11429700Y-10879700D02*
X11454700Y-10904700D01*
X11454700Y-10879700D02*
X11429700Y-10904700D01*
X11461800Y-10048500D02*
X11486800Y-10073500D01*
X11486800Y-10048500D02*
X11461800Y-10073500D01*
X11529700Y-10879700D02*
X11554700Y-10904700D01*
X11554700Y-10879700D02*
X11529700Y-10904700D01*
X11599100Y-9729660D02*
X11624100Y-9754660D01*
X11624100Y-9729660D02*
X11599100Y-9754660D01*
X8572000Y-9567000D02*
G75*
G02*
X8492000Y-9567000I-40000J0D01*
G01*
X8492000Y-9567000D02*
G75*
G02*
X8572000Y-9567000I40000J0D01*
G01*
X8552000Y-9527000D02*
X8512000Y-9527000D01*
X8512000Y-9607000D02*
G75*
G02*
X8512000Y-9527000I0J40000D01*
G01*
X8512000Y-9607000D02*
X8552000Y-9607000D01*
X8552000Y-9607000D02*
G75*
G03*
X8552000Y-9527000I0J40000D01*
G01*
X8572000Y-10433000D02*
G75*
G02*
X8492000Y-10433000I-40000J0D01*
G01*
X8492000Y-10433000D02*
G75*
G02*
X8572000Y-10433000I40000J0D01*
G01*
X8552000Y-10393000D02*
X8512000Y-10393000D01*
X8512000Y-10473000D02*
G75*
G02*
X8512000Y-10393000I0J40000D01*
G01*
X8512000Y-10473000D02*
X8552000Y-10473000D01*
X8552000Y-10473000D02*
G75*
G03*
X8552000Y-10393000I0J40000D01*
G01*
X8990000Y-9567000D02*
G75*
G02*
X8910000Y-9567000I-40000J0D01*
G01*
X8910000Y-9567000D02*
G75*
G02*
X8990000Y-9567000I40000J0D01*
G01*
X8985000Y-9527000D02*
X8915000Y-9527000D01*
X8915000Y-9607000D02*
G75*
G02*
X8915000Y-9527000I0J40000D01*
G01*
X8915000Y-9607000D02*
X8985000Y-9607000D01*
X8985000Y-9607000D02*
G75*
G03*
X8985000Y-9527000I0J40000D01*
G01*
X8990000Y-10433000D02*
G75*
G02*
X8910000Y-10433000I-40000J0D01*
G01*
X8910000Y-10433000D02*
G75*
G02*
X8990000Y-10433000I40000J0D01*
G01*
X8985000Y-10393000D02*
X8915000Y-10393000D01*
X8915000Y-10473000D02*
G75*
G02*
X8915000Y-10393000I0J40000D01*
G01*
X8915000Y-10473000D02*
X8985000Y-10473000D01*
X8985000Y-10473000D02*
G75*
G03*
X8985000Y-10393000I0J40000D01*
G01*
D11*
X8565777Y-12006484D02*
X8565777Y-11806484D01*
X8565777Y-11806484D02*
X8613396Y-11806484D01*
X8613396Y-11806484D02*
X8641967Y-11816008D01*
X8641967Y-11816008D02*
X8661015Y-11835055D01*
X8661015Y-11835055D02*
X8670539Y-11854103D01*
X8670539Y-11854103D02*
X8680063Y-11892198D01*
X8680063Y-11892198D02*
X8680063Y-11920769D01*
X8680063Y-11920769D02*
X8670539Y-11958865D01*
X8670539Y-11958865D02*
X8661015Y-11977912D01*
X8661015Y-11977912D02*
X8641967Y-11996960D01*
X8641967Y-11996960D02*
X8613396Y-12006484D01*
X8613396Y-12006484D02*
X8565777Y-12006484D01*
X8765777Y-12006484D02*
X8765777Y-11873150D01*
X8765777Y-11911246D02*
X8775301Y-11892198D01*
X8775301Y-11892198D02*
X8784824Y-11882674D01*
X8784824Y-11882674D02*
X8803872Y-11873150D01*
X8803872Y-11873150D02*
X8822920Y-11873150D01*
X8889586Y-12006484D02*
X8889586Y-11873150D01*
X8889586Y-11806484D02*
X8880063Y-11816008D01*
X8880063Y-11816008D02*
X8889586Y-11825531D01*
X8889586Y-11825531D02*
X8899110Y-11816008D01*
X8899110Y-11816008D02*
X8889586Y-11806484D01*
X8889586Y-11806484D02*
X8889586Y-11825531D01*
X9013396Y-12006484D02*
X8994348Y-11996960D01*
X8994348Y-11996960D02*
X8984824Y-11977912D01*
X8984824Y-11977912D02*
X8984824Y-11806484D01*
X9118158Y-12006484D02*
X9099110Y-11996960D01*
X9099110Y-11996960D02*
X9089586Y-11977912D01*
X9089586Y-11977912D02*
X9089586Y-11806484D01*
X9346729Y-12006484D02*
X9346729Y-11806484D01*
X9346729Y-11806484D02*
X9413396Y-11949341D01*
X9413396Y-11949341D02*
X9480063Y-11806484D01*
X9480063Y-11806484D02*
X9480063Y-12006484D01*
X9661015Y-12006484D02*
X9661015Y-11901722D01*
X9661015Y-11901722D02*
X9651491Y-11882674D01*
X9651491Y-11882674D02*
X9632444Y-11873150D01*
X9632444Y-11873150D02*
X9594348Y-11873150D01*
X9594348Y-11873150D02*
X9575301Y-11882674D01*
X9661015Y-11996960D02*
X9641967Y-12006484D01*
X9641967Y-12006484D02*
X9594348Y-12006484D01*
X9594348Y-12006484D02*
X9575301Y-11996960D01*
X9575301Y-11996960D02*
X9565777Y-11977912D01*
X9565777Y-11977912D02*
X9565777Y-11958865D01*
X9565777Y-11958865D02*
X9575301Y-11939817D01*
X9575301Y-11939817D02*
X9594348Y-11930293D01*
X9594348Y-11930293D02*
X9641967Y-11930293D01*
X9641967Y-11930293D02*
X9661015Y-11920769D01*
X9756253Y-11873150D02*
X9756253Y-12073150D01*
X9756253Y-11882674D02*
X9775301Y-11873150D01*
X9775301Y-11873150D02*
X9813396Y-11873150D01*
X9813396Y-11873150D02*
X9832444Y-11882674D01*
X9832444Y-11882674D02*
X9841967Y-11892198D01*
X9841967Y-11892198D02*
X9851491Y-11911246D01*
X9851491Y-11911246D02*
X9851491Y-11968388D01*
X9851491Y-11968388D02*
X9841967Y-11987436D01*
X9841967Y-11987436D02*
X9832444Y-11996960D01*
X9832444Y-11996960D02*
X9813396Y-12006484D01*
X9813396Y-12006484D02*
X9775301Y-12006484D01*
X9775301Y-12006484D02*
X9756253Y-11996960D01*
X9937205Y-11987436D02*
X9946729Y-11996960D01*
X9946729Y-11996960D02*
X9937205Y-12006484D01*
X9937205Y-12006484D02*
X9927682Y-11996960D01*
X9927682Y-11996960D02*
X9937205Y-11987436D01*
X9937205Y-11987436D02*
X9937205Y-12006484D01*
X9937205Y-11882674D02*
X9946729Y-11892198D01*
X9946729Y-11892198D02*
X9937205Y-11901722D01*
X9937205Y-11901722D02*
X9927682Y-11892198D01*
X9927682Y-11892198D02*
X9937205Y-11882674D01*
X9937205Y-11882674D02*
X9937205Y-11901722D01*
D10*
X8280000Y-12322500D02*
X8305000Y-12347500D01*
X8305000Y-12322500D02*
X8280000Y-12347500D01*
D11*
X8603872Y-12226484D02*
X8622920Y-12226484D01*
X8622920Y-12226484D02*
X8641967Y-12236008D01*
X8641967Y-12236008D02*
X8651491Y-12245531D01*
X8651491Y-12245531D02*
X8661015Y-12264579D01*
X8661015Y-12264579D02*
X8670539Y-12302674D01*
X8670539Y-12302674D02*
X8670539Y-12350293D01*
X8670539Y-12350293D02*
X8661015Y-12388388D01*
X8661015Y-12388388D02*
X8651491Y-12407436D01*
X8651491Y-12407436D02*
X8641967Y-12416960D01*
X8641967Y-12416960D02*
X8622920Y-12426484D01*
X8622920Y-12426484D02*
X8603872Y-12426484D01*
X8603872Y-12426484D02*
X8584824Y-12416960D01*
X8584824Y-12416960D02*
X8575301Y-12407436D01*
X8575301Y-12407436D02*
X8565777Y-12388388D01*
X8565777Y-12388388D02*
X8556253Y-12350293D01*
X8556253Y-12350293D02*
X8556253Y-12302674D01*
X8556253Y-12302674D02*
X8565777Y-12264579D01*
X8565777Y-12264579D02*
X8575301Y-12245531D01*
X8575301Y-12245531D02*
X8584824Y-12236008D01*
X8584824Y-12236008D02*
X8603872Y-12226484D01*
X8756253Y-12407436D02*
X8765777Y-12416960D01*
X8765777Y-12416960D02*
X8756253Y-12426484D01*
X8756253Y-12426484D02*
X8746729Y-12416960D01*
X8746729Y-12416960D02*
X8756253Y-12407436D01*
X8756253Y-12407436D02*
X8756253Y-12426484D01*
X8841967Y-12245531D02*
X8851491Y-12236008D01*
X8851491Y-12236008D02*
X8870539Y-12226484D01*
X8870539Y-12226484D02*
X8918158Y-12226484D01*
X8918158Y-12226484D02*
X8937205Y-12236008D01*
X8937205Y-12236008D02*
X8946729Y-12245531D01*
X8946729Y-12245531D02*
X8956253Y-12264579D01*
X8956253Y-12264579D02*
X8956253Y-12283627D01*
X8956253Y-12283627D02*
X8946729Y-12312198D01*
X8946729Y-12312198D02*
X8832444Y-12426484D01*
X8832444Y-12426484D02*
X8956253Y-12426484D01*
X9137205Y-12226484D02*
X9041967Y-12226484D01*
X9041967Y-12226484D02*
X9032444Y-12321722D01*
X9032444Y-12321722D02*
X9041967Y-12312198D01*
X9041967Y-12312198D02*
X9061015Y-12302674D01*
X9061015Y-12302674D02*
X9108634Y-12302674D01*
X9108634Y-12302674D02*
X9127682Y-12312198D01*
X9127682Y-12312198D02*
X9137205Y-12321722D01*
X9137205Y-12321722D02*
X9146729Y-12340769D01*
X9146729Y-12340769D02*
X9146729Y-12388388D01*
X9146729Y-12388388D02*
X9137205Y-12407436D01*
X9137205Y-12407436D02*
X9127682Y-12416960D01*
X9127682Y-12416960D02*
X9108634Y-12426484D01*
X9108634Y-12426484D02*
X9061015Y-12426484D01*
X9061015Y-12426484D02*
X9041967Y-12416960D01*
X9041967Y-12416960D02*
X9032444Y-12407436D01*
X9270539Y-12226484D02*
X9289586Y-12226484D01*
X9289586Y-12226484D02*
X9308634Y-12236008D01*
X9308634Y-12236008D02*
X9318158Y-12245531D01*
X9318158Y-12245531D02*
X9327682Y-12264579D01*
X9327682Y-12264579D02*
X9337205Y-12302674D01*
X9337205Y-12302674D02*
X9337205Y-12350293D01*
X9337205Y-12350293D02*
X9327682Y-12388388D01*
X9327682Y-12388388D02*
X9318158Y-12407436D01*
X9318158Y-12407436D02*
X9308634Y-12416960D01*
X9308634Y-12416960D02*
X9289586Y-12426484D01*
X9289586Y-12426484D02*
X9270539Y-12426484D01*
X9270539Y-12426484D02*
X9251491Y-12416960D01*
X9251491Y-12416960D02*
X9241967Y-12407436D01*
X9241967Y-12407436D02*
X9232444Y-12388388D01*
X9232444Y-12388388D02*
X9222920Y-12350293D01*
X9222920Y-12350293D02*
X9222920Y-12302674D01*
X9222920Y-12302674D02*
X9232444Y-12264579D01*
X9232444Y-12264579D02*
X9241967Y-12245531D01*
X9241967Y-12245531D02*
X9251491Y-12236008D01*
X9251491Y-12236008D02*
X9270539Y-12226484D01*
X9422920Y-12426484D02*
X9422920Y-12293150D01*
X9422920Y-12312198D02*
X9432444Y-12302674D01*
X9432444Y-12302674D02*
X9451491Y-12293150D01*
X9451491Y-12293150D02*
X9480063Y-12293150D01*
X9480063Y-12293150D02*
X9499110Y-12302674D01*
X9499110Y-12302674D02*
X9508634Y-12321722D01*
X9508634Y-12321722D02*
X9508634Y-12426484D01*
X9508634Y-12321722D02*
X9518158Y-12302674D01*
X9518158Y-12302674D02*
X9537205Y-12293150D01*
X9537205Y-12293150D02*
X9565777Y-12293150D01*
X9565777Y-12293150D02*
X9584825Y-12302674D01*
X9584825Y-12302674D02*
X9594348Y-12321722D01*
X9594348Y-12321722D02*
X9594348Y-12426484D01*
X9689586Y-12426484D02*
X9689586Y-12293150D01*
X9689586Y-12312198D02*
X9699110Y-12302674D01*
X9699110Y-12302674D02*
X9718158Y-12293150D01*
X9718158Y-12293150D02*
X9746729Y-12293150D01*
X9746729Y-12293150D02*
X9765777Y-12302674D01*
X9765777Y-12302674D02*
X9775301Y-12321722D01*
X9775301Y-12321722D02*
X9775301Y-12426484D01*
X9775301Y-12321722D02*
X9784825Y-12302674D01*
X9784825Y-12302674D02*
X9803872Y-12293150D01*
X9803872Y-12293150D02*
X9832444Y-12293150D01*
X9832444Y-12293150D02*
X9851491Y-12302674D01*
X9851491Y-12302674D02*
X9861015Y-12321722D01*
X9861015Y-12321722D02*
X9861015Y-12426484D01*
X10251491Y-12216960D02*
X10080063Y-12474103D01*
X10508634Y-12226484D02*
X10527682Y-12226484D01*
X10527682Y-12226484D02*
X10546729Y-12236008D01*
X10546729Y-12236008D02*
X10556253Y-12245531D01*
X10556253Y-12245531D02*
X10565777Y-12264579D01*
X10565777Y-12264579D02*
X10575301Y-12302674D01*
X10575301Y-12302674D02*
X10575301Y-12350293D01*
X10575301Y-12350293D02*
X10565777Y-12388388D01*
X10565777Y-12388388D02*
X10556253Y-12407436D01*
X10556253Y-12407436D02*
X10546729Y-12416960D01*
X10546729Y-12416960D02*
X10527682Y-12426484D01*
X10527682Y-12426484D02*
X10508634Y-12426484D01*
X10508634Y-12426484D02*
X10489587Y-12416960D01*
X10489587Y-12416960D02*
X10480063Y-12407436D01*
X10480063Y-12407436D02*
X10470539Y-12388388D01*
X10470539Y-12388388D02*
X10461015Y-12350293D01*
X10461015Y-12350293D02*
X10461015Y-12302674D01*
X10461015Y-12302674D02*
X10470539Y-12264579D01*
X10470539Y-12264579D02*
X10480063Y-12245531D01*
X10480063Y-12245531D02*
X10489587Y-12236008D01*
X10489587Y-12236008D02*
X10508634Y-12226484D01*
X10661015Y-12407436D02*
X10670539Y-12416960D01*
X10670539Y-12416960D02*
X10661015Y-12426484D01*
X10661015Y-12426484D02*
X10651491Y-12416960D01*
X10651491Y-12416960D02*
X10661015Y-12407436D01*
X10661015Y-12407436D02*
X10661015Y-12426484D01*
X10794348Y-12226484D02*
X10813396Y-12226484D01*
X10813396Y-12226484D02*
X10832444Y-12236008D01*
X10832444Y-12236008D02*
X10841968Y-12245531D01*
X10841968Y-12245531D02*
X10851491Y-12264579D01*
X10851491Y-12264579D02*
X10861015Y-12302674D01*
X10861015Y-12302674D02*
X10861015Y-12350293D01*
X10861015Y-12350293D02*
X10851491Y-12388388D01*
X10851491Y-12388388D02*
X10841968Y-12407436D01*
X10841968Y-12407436D02*
X10832444Y-12416960D01*
X10832444Y-12416960D02*
X10813396Y-12426484D01*
X10813396Y-12426484D02*
X10794348Y-12426484D01*
X10794348Y-12426484D02*
X10775301Y-12416960D01*
X10775301Y-12416960D02*
X10765777Y-12407436D01*
X10765777Y-12407436D02*
X10756253Y-12388388D01*
X10756253Y-12388388D02*
X10746729Y-12350293D01*
X10746729Y-12350293D02*
X10746729Y-12302674D01*
X10746729Y-12302674D02*
X10756253Y-12264579D01*
X10756253Y-12264579D02*
X10765777Y-12245531D01*
X10765777Y-12245531D02*
X10775301Y-12236008D01*
X10775301Y-12236008D02*
X10794348Y-12226484D01*
X10984825Y-12226484D02*
X11003872Y-12226484D01*
X11003872Y-12226484D02*
X11022920Y-12236008D01*
X11022920Y-12236008D02*
X11032444Y-12245531D01*
X11032444Y-12245531D02*
X11041968Y-12264579D01*
X11041968Y-12264579D02*
X11051491Y-12302674D01*
X11051491Y-12302674D02*
X11051491Y-12350293D01*
X11051491Y-12350293D02*
X11041968Y-12388388D01*
X11041968Y-12388388D02*
X11032444Y-12407436D01*
X11032444Y-12407436D02*
X11022920Y-12416960D01*
X11022920Y-12416960D02*
X11003872Y-12426484D01*
X11003872Y-12426484D02*
X10984825Y-12426484D01*
X10984825Y-12426484D02*
X10965777Y-12416960D01*
X10965777Y-12416960D02*
X10956253Y-12407436D01*
X10956253Y-12407436D02*
X10946729Y-12388388D01*
X10946729Y-12388388D02*
X10937206Y-12350293D01*
X10937206Y-12350293D02*
X10937206Y-12302674D01*
X10937206Y-12302674D02*
X10946729Y-12264579D01*
X10946729Y-12264579D02*
X10956253Y-12245531D01*
X10956253Y-12245531D02*
X10965777Y-12236008D01*
X10965777Y-12236008D02*
X10984825Y-12226484D01*
X11146729Y-12426484D02*
X11184825Y-12426484D01*
X11184825Y-12426484D02*
X11203872Y-12416960D01*
X11203872Y-12416960D02*
X11213396Y-12407436D01*
X11213396Y-12407436D02*
X11232444Y-12378865D01*
X11232444Y-12378865D02*
X11241967Y-12340769D01*
X11241967Y-12340769D02*
X11241967Y-12264579D01*
X11241967Y-12264579D02*
X11232444Y-12245531D01*
X11232444Y-12245531D02*
X11222920Y-12236008D01*
X11222920Y-12236008D02*
X11203872Y-12226484D01*
X11203872Y-12226484D02*
X11165777Y-12226484D01*
X11165777Y-12226484D02*
X11146729Y-12236008D01*
X11146729Y-12236008D02*
X11137206Y-12245531D01*
X11137206Y-12245531D02*
X11127682Y-12264579D01*
X11127682Y-12264579D02*
X11127682Y-12312198D01*
X11127682Y-12312198D02*
X11137206Y-12331246D01*
X11137206Y-12331246D02*
X11146729Y-12340769D01*
X11146729Y-12340769D02*
X11165777Y-12350293D01*
X11165777Y-12350293D02*
X11203872Y-12350293D01*
X11203872Y-12350293D02*
X11222920Y-12340769D01*
X11222920Y-12340769D02*
X11232444Y-12331246D01*
X11232444Y-12331246D02*
X11241967Y-12312198D01*
X11356253Y-12312198D02*
X11337206Y-12302674D01*
X11337206Y-12302674D02*
X11327682Y-12293150D01*
X11327682Y-12293150D02*
X11318158Y-12274103D01*
X11318158Y-12274103D02*
X11318158Y-12264579D01*
X11318158Y-12264579D02*
X11327682Y-12245531D01*
X11327682Y-12245531D02*
X11337206Y-12236008D01*
X11337206Y-12236008D02*
X11356253Y-12226484D01*
X11356253Y-12226484D02*
X11394348Y-12226484D01*
X11394348Y-12226484D02*
X11413396Y-12236008D01*
X11413396Y-12236008D02*
X11422920Y-12245531D01*
X11422920Y-12245531D02*
X11432444Y-12264579D01*
X11432444Y-12264579D02*
X11432444Y-12274103D01*
X11432444Y-12274103D02*
X11422920Y-12293150D01*
X11422920Y-12293150D02*
X11413396Y-12302674D01*
X11413396Y-12302674D02*
X11394348Y-12312198D01*
X11394348Y-12312198D02*
X11356253Y-12312198D01*
X11356253Y-12312198D02*
X11337206Y-12321722D01*
X11337206Y-12321722D02*
X11327682Y-12331246D01*
X11327682Y-12331246D02*
X11318158Y-12350293D01*
X11318158Y-12350293D02*
X11318158Y-12388388D01*
X11318158Y-12388388D02*
X11327682Y-12407436D01*
X11327682Y-12407436D02*
X11337206Y-12416960D01*
X11337206Y-12416960D02*
X11356253Y-12426484D01*
X11356253Y-12426484D02*
X11394348Y-12426484D01*
X11394348Y-12426484D02*
X11413396Y-12416960D01*
X11413396Y-12416960D02*
X11422920Y-12407436D01*
X11422920Y-12407436D02*
X11432444Y-12388388D01*
X11432444Y-12388388D02*
X11432444Y-12350293D01*
X11432444Y-12350293D02*
X11422920Y-12331246D01*
X11422920Y-12331246D02*
X11413396Y-12321722D01*
X11413396Y-12321722D02*
X11394348Y-12312198D01*
X11508634Y-12226484D02*
X11508634Y-12264579D01*
X11584825Y-12226484D02*
X11584825Y-12264579D01*
X11880063Y-12502674D02*
X11870539Y-12493150D01*
X11870539Y-12493150D02*
X11851491Y-12464579D01*
X11851491Y-12464579D02*
X11841968Y-12445531D01*
X11841968Y-12445531D02*
X11832444Y-12416960D01*
X11832444Y-12416960D02*
X11822920Y-12369341D01*
X11822920Y-12369341D02*
X11822920Y-12331246D01*
X11822920Y-12331246D02*
X11832444Y-12283627D01*
X11832444Y-12283627D02*
X11841968Y-12255055D01*
X11841968Y-12255055D02*
X11851491Y-12236008D01*
X11851491Y-12236008D02*
X11870539Y-12207436D01*
X11870539Y-12207436D02*
X11880063Y-12197912D01*
X12061015Y-12426484D02*
X11946729Y-12426484D01*
X12003872Y-12426484D02*
X12003872Y-12226484D01*
X12003872Y-12226484D02*
X11984825Y-12255055D01*
X11984825Y-12255055D02*
X11965777Y-12274103D01*
X11965777Y-12274103D02*
X11946729Y-12283627D01*
X12175301Y-12312198D02*
X12156253Y-12302674D01*
X12156253Y-12302674D02*
X12146729Y-12293150D01*
X12146729Y-12293150D02*
X12137206Y-12274103D01*
X12137206Y-12274103D02*
X12137206Y-12264579D01*
X12137206Y-12264579D02*
X12146729Y-12245531D01*
X12146729Y-12245531D02*
X12156253Y-12236008D01*
X12156253Y-12236008D02*
X12175301Y-12226484D01*
X12175301Y-12226484D02*
X12213396Y-12226484D01*
X12213396Y-12226484D02*
X12232444Y-12236008D01*
X12232444Y-12236008D02*
X12241968Y-12245531D01*
X12241968Y-12245531D02*
X12251491Y-12264579D01*
X12251491Y-12264579D02*
X12251491Y-12274103D01*
X12251491Y-12274103D02*
X12241968Y-12293150D01*
X12241968Y-12293150D02*
X12232444Y-12302674D01*
X12232444Y-12302674D02*
X12213396Y-12312198D01*
X12213396Y-12312198D02*
X12175301Y-12312198D01*
X12175301Y-12312198D02*
X12156253Y-12321722D01*
X12156253Y-12321722D02*
X12146729Y-12331246D01*
X12146729Y-12331246D02*
X12137206Y-12350293D01*
X12137206Y-12350293D02*
X12137206Y-12388388D01*
X12137206Y-12388388D02*
X12146729Y-12407436D01*
X12146729Y-12407436D02*
X12156253Y-12416960D01*
X12156253Y-12416960D02*
X12175301Y-12426484D01*
X12175301Y-12426484D02*
X12213396Y-12426484D01*
X12213396Y-12426484D02*
X12232444Y-12416960D01*
X12232444Y-12416960D02*
X12241968Y-12407436D01*
X12241968Y-12407436D02*
X12251491Y-12388388D01*
X12251491Y-12388388D02*
X12251491Y-12350293D01*
X12251491Y-12350293D02*
X12241968Y-12331246D01*
X12241968Y-12331246D02*
X12232444Y-12321722D01*
X12232444Y-12321722D02*
X12213396Y-12312198D01*
X12375301Y-12226484D02*
X12394349Y-12226484D01*
X12394349Y-12226484D02*
X12413396Y-12236008D01*
X12413396Y-12236008D02*
X12422920Y-12245531D01*
X12422920Y-12245531D02*
X12432444Y-12264579D01*
X12432444Y-12264579D02*
X12441968Y-12302674D01*
X12441968Y-12302674D02*
X12441968Y-12350293D01*
X12441968Y-12350293D02*
X12432444Y-12388388D01*
X12432444Y-12388388D02*
X12422920Y-12407436D01*
X12422920Y-12407436D02*
X12413396Y-12416960D01*
X12413396Y-12416960D02*
X12394349Y-12426484D01*
X12394349Y-12426484D02*
X12375301Y-12426484D01*
X12375301Y-12426484D02*
X12356253Y-12416960D01*
X12356253Y-12416960D02*
X12346729Y-12407436D01*
X12346729Y-12407436D02*
X12337206Y-12388388D01*
X12337206Y-12388388D02*
X12327682Y-12350293D01*
X12327682Y-12350293D02*
X12327682Y-12302674D01*
X12327682Y-12302674D02*
X12337206Y-12264579D01*
X12337206Y-12264579D02*
X12346729Y-12245531D01*
X12346729Y-12245531D02*
X12356253Y-12236008D01*
X12356253Y-12236008D02*
X12375301Y-12226484D01*
X12680063Y-12426484D02*
X12680063Y-12226484D01*
X12765777Y-12426484D02*
X12765777Y-12321722D01*
X12765777Y-12321722D02*
X12756253Y-12302674D01*
X12756253Y-12302674D02*
X12737206Y-12293150D01*
X12737206Y-12293150D02*
X12708634Y-12293150D01*
X12708634Y-12293150D02*
X12689587Y-12302674D01*
X12689587Y-12302674D02*
X12680063Y-12312198D01*
X12889587Y-12426484D02*
X12870539Y-12416960D01*
X12870539Y-12416960D02*
X12861015Y-12407436D01*
X12861015Y-12407436D02*
X12851491Y-12388388D01*
X12851491Y-12388388D02*
X12851491Y-12331246D01*
X12851491Y-12331246D02*
X12861015Y-12312198D01*
X12861015Y-12312198D02*
X12870539Y-12302674D01*
X12870539Y-12302674D02*
X12889587Y-12293150D01*
X12889587Y-12293150D02*
X12918158Y-12293150D01*
X12918158Y-12293150D02*
X12937206Y-12302674D01*
X12937206Y-12302674D02*
X12946730Y-12312198D01*
X12946730Y-12312198D02*
X12956253Y-12331246D01*
X12956253Y-12331246D02*
X12956253Y-12388388D01*
X12956253Y-12388388D02*
X12946730Y-12407436D01*
X12946730Y-12407436D02*
X12937206Y-12416960D01*
X12937206Y-12416960D02*
X12918158Y-12426484D01*
X12918158Y-12426484D02*
X12889587Y-12426484D01*
X13070539Y-12426484D02*
X13051491Y-12416960D01*
X13051491Y-12416960D02*
X13041968Y-12397912D01*
X13041968Y-12397912D02*
X13041968Y-12226484D01*
X13222920Y-12416960D02*
X13203872Y-12426484D01*
X13203872Y-12426484D02*
X13165777Y-12426484D01*
X13165777Y-12426484D02*
X13146730Y-12416960D01*
X13146730Y-12416960D02*
X13137206Y-12397912D01*
X13137206Y-12397912D02*
X13137206Y-12321722D01*
X13137206Y-12321722D02*
X13146730Y-12302674D01*
X13146730Y-12302674D02*
X13165777Y-12293150D01*
X13165777Y-12293150D02*
X13203872Y-12293150D01*
X13203872Y-12293150D02*
X13222920Y-12302674D01*
X13222920Y-12302674D02*
X13232444Y-12321722D01*
X13232444Y-12321722D02*
X13232444Y-12340769D01*
X13232444Y-12340769D02*
X13137206Y-12359817D01*
X13308634Y-12416960D02*
X13327682Y-12426484D01*
X13327682Y-12426484D02*
X13365777Y-12426484D01*
X13365777Y-12426484D02*
X13384825Y-12416960D01*
X13384825Y-12416960D02*
X13394349Y-12397912D01*
X13394349Y-12397912D02*
X13394349Y-12388388D01*
X13394349Y-12388388D02*
X13384825Y-12369341D01*
X13384825Y-12369341D02*
X13365777Y-12359817D01*
X13365777Y-12359817D02*
X13337206Y-12359817D01*
X13337206Y-12359817D02*
X13318158Y-12350293D01*
X13318158Y-12350293D02*
X13308634Y-12331246D01*
X13308634Y-12331246D02*
X13308634Y-12321722D01*
X13308634Y-12321722D02*
X13318158Y-12302674D01*
X13318158Y-12302674D02*
X13337206Y-12293150D01*
X13337206Y-12293150D02*
X13365777Y-12293150D01*
X13365777Y-12293150D02*
X13384825Y-12302674D01*
X13461015Y-12502674D02*
X13470539Y-12493150D01*
X13470539Y-12493150D02*
X13489587Y-12464579D01*
X13489587Y-12464579D02*
X13499111Y-12445531D01*
X13499111Y-12445531D02*
X13508634Y-12416960D01*
X13508634Y-12416960D02*
X13518158Y-12369341D01*
X13518158Y-12369341D02*
X13518158Y-12331246D01*
X13518158Y-12331246D02*
X13508634Y-12283627D01*
X13508634Y-12283627D02*
X13499111Y-12255055D01*
X13499111Y-12255055D02*
X13489587Y-12236008D01*
X13489587Y-12236008D02*
X13470539Y-12207436D01*
X13470539Y-12207436D02*
X13461015Y-12197912D01*
D10*
X8305000Y-12599000D02*
G75*
G02*
X8225000Y-12599000I-40000J0D01*
G01*
X8225000Y-12599000D02*
G75*
G02*
X8305000Y-12599000I40000J0D01*
G01*
D11*
X8603872Y-12490484D02*
X8622920Y-12490484D01*
X8622920Y-12490484D02*
X8641967Y-12500008D01*
X8641967Y-12500008D02*
X8651491Y-12509531D01*
X8651491Y-12509531D02*
X8661015Y-12528579D01*
X8661015Y-12528579D02*
X8670539Y-12566674D01*
X8670539Y-12566674D02*
X8670539Y-12614293D01*
X8670539Y-12614293D02*
X8661015Y-12652388D01*
X8661015Y-12652388D02*
X8651491Y-12671436D01*
X8651491Y-12671436D02*
X8641967Y-12680960D01*
X8641967Y-12680960D02*
X8622920Y-12690484D01*
X8622920Y-12690484D02*
X8603872Y-12690484D01*
X8603872Y-12690484D02*
X8584824Y-12680960D01*
X8584824Y-12680960D02*
X8575301Y-12671436D01*
X8575301Y-12671436D02*
X8565777Y-12652388D01*
X8565777Y-12652388D02*
X8556253Y-12614293D01*
X8556253Y-12614293D02*
X8556253Y-12566674D01*
X8556253Y-12566674D02*
X8565777Y-12528579D01*
X8565777Y-12528579D02*
X8575301Y-12509531D01*
X8575301Y-12509531D02*
X8584824Y-12500008D01*
X8584824Y-12500008D02*
X8603872Y-12490484D01*
X8756253Y-12671436D02*
X8765777Y-12680960D01*
X8765777Y-12680960D02*
X8756253Y-12690484D01*
X8756253Y-12690484D02*
X8746729Y-12680960D01*
X8746729Y-12680960D02*
X8756253Y-12671436D01*
X8756253Y-12671436D02*
X8756253Y-12690484D01*
X8880063Y-12576198D02*
X8861015Y-12566674D01*
X8861015Y-12566674D02*
X8851491Y-12557150D01*
X8851491Y-12557150D02*
X8841967Y-12538103D01*
X8841967Y-12538103D02*
X8841967Y-12528579D01*
X8841967Y-12528579D02*
X8851491Y-12509531D01*
X8851491Y-12509531D02*
X8861015Y-12500008D01*
X8861015Y-12500008D02*
X8880063Y-12490484D01*
X8880063Y-12490484D02*
X8918158Y-12490484D01*
X8918158Y-12490484D02*
X8937205Y-12500008D01*
X8937205Y-12500008D02*
X8946729Y-12509531D01*
X8946729Y-12509531D02*
X8956253Y-12528579D01*
X8956253Y-12528579D02*
X8956253Y-12538103D01*
X8956253Y-12538103D02*
X8946729Y-12557150D01*
X8946729Y-12557150D02*
X8937205Y-12566674D01*
X8937205Y-12566674D02*
X8918158Y-12576198D01*
X8918158Y-12576198D02*
X8880063Y-12576198D01*
X8880063Y-12576198D02*
X8861015Y-12585722D01*
X8861015Y-12585722D02*
X8851491Y-12595246D01*
X8851491Y-12595246D02*
X8841967Y-12614293D01*
X8841967Y-12614293D02*
X8841967Y-12652388D01*
X8841967Y-12652388D02*
X8851491Y-12671436D01*
X8851491Y-12671436D02*
X8861015Y-12680960D01*
X8861015Y-12680960D02*
X8880063Y-12690484D01*
X8880063Y-12690484D02*
X8918158Y-12690484D01*
X8918158Y-12690484D02*
X8937205Y-12680960D01*
X8937205Y-12680960D02*
X8946729Y-12671436D01*
X8946729Y-12671436D02*
X8956253Y-12652388D01*
X8956253Y-12652388D02*
X8956253Y-12614293D01*
X8956253Y-12614293D02*
X8946729Y-12595246D01*
X8946729Y-12595246D02*
X8937205Y-12585722D01*
X8937205Y-12585722D02*
X8918158Y-12576198D01*
X9080063Y-12490484D02*
X9099110Y-12490484D01*
X9099110Y-12490484D02*
X9118158Y-12500008D01*
X9118158Y-12500008D02*
X9127682Y-12509531D01*
X9127682Y-12509531D02*
X9137205Y-12528579D01*
X9137205Y-12528579D02*
X9146729Y-12566674D01*
X9146729Y-12566674D02*
X9146729Y-12614293D01*
X9146729Y-12614293D02*
X9137205Y-12652388D01*
X9137205Y-12652388D02*
X9127682Y-12671436D01*
X9127682Y-12671436D02*
X9118158Y-12680960D01*
X9118158Y-12680960D02*
X9099110Y-12690484D01*
X9099110Y-12690484D02*
X9080063Y-12690484D01*
X9080063Y-12690484D02*
X9061015Y-12680960D01*
X9061015Y-12680960D02*
X9051491Y-12671436D01*
X9051491Y-12671436D02*
X9041967Y-12652388D01*
X9041967Y-12652388D02*
X9032444Y-12614293D01*
X9032444Y-12614293D02*
X9032444Y-12566674D01*
X9032444Y-12566674D02*
X9041967Y-12528579D01*
X9041967Y-12528579D02*
X9051491Y-12509531D01*
X9051491Y-12509531D02*
X9061015Y-12500008D01*
X9061015Y-12500008D02*
X9080063Y-12490484D01*
X9270539Y-12490484D02*
X9289586Y-12490484D01*
X9289586Y-12490484D02*
X9308634Y-12500008D01*
X9308634Y-12500008D02*
X9318158Y-12509531D01*
X9318158Y-12509531D02*
X9327682Y-12528579D01*
X9327682Y-12528579D02*
X9337205Y-12566674D01*
X9337205Y-12566674D02*
X9337205Y-12614293D01*
X9337205Y-12614293D02*
X9327682Y-12652388D01*
X9327682Y-12652388D02*
X9318158Y-12671436D01*
X9318158Y-12671436D02*
X9308634Y-12680960D01*
X9308634Y-12680960D02*
X9289586Y-12690484D01*
X9289586Y-12690484D02*
X9270539Y-12690484D01*
X9270539Y-12690484D02*
X9251491Y-12680960D01*
X9251491Y-12680960D02*
X9241967Y-12671436D01*
X9241967Y-12671436D02*
X9232444Y-12652388D01*
X9232444Y-12652388D02*
X9222920Y-12614293D01*
X9222920Y-12614293D02*
X9222920Y-12566674D01*
X9222920Y-12566674D02*
X9232444Y-12528579D01*
X9232444Y-12528579D02*
X9241967Y-12509531D01*
X9241967Y-12509531D02*
X9251491Y-12500008D01*
X9251491Y-12500008D02*
X9270539Y-12490484D01*
X9422920Y-12690484D02*
X9422920Y-12557150D01*
X9422920Y-12576198D02*
X9432444Y-12566674D01*
X9432444Y-12566674D02*
X9451491Y-12557150D01*
X9451491Y-12557150D02*
X9480063Y-12557150D01*
X9480063Y-12557150D02*
X9499110Y-12566674D01*
X9499110Y-12566674D02*
X9508634Y-12585722D01*
X9508634Y-12585722D02*
X9508634Y-12690484D01*
X9508634Y-12585722D02*
X9518158Y-12566674D01*
X9518158Y-12566674D02*
X9537205Y-12557150D01*
X9537205Y-12557150D02*
X9565777Y-12557150D01*
X9565777Y-12557150D02*
X9584825Y-12566674D01*
X9584825Y-12566674D02*
X9594348Y-12585722D01*
X9594348Y-12585722D02*
X9594348Y-12690484D01*
X9689586Y-12690484D02*
X9689586Y-12557150D01*
X9689586Y-12576198D02*
X9699110Y-12566674D01*
X9699110Y-12566674D02*
X9718158Y-12557150D01*
X9718158Y-12557150D02*
X9746729Y-12557150D01*
X9746729Y-12557150D02*
X9765777Y-12566674D01*
X9765777Y-12566674D02*
X9775301Y-12585722D01*
X9775301Y-12585722D02*
X9775301Y-12690484D01*
X9775301Y-12585722D02*
X9784825Y-12566674D01*
X9784825Y-12566674D02*
X9803872Y-12557150D01*
X9803872Y-12557150D02*
X9832444Y-12557150D01*
X9832444Y-12557150D02*
X9851491Y-12566674D01*
X9851491Y-12566674D02*
X9861015Y-12585722D01*
X9861015Y-12585722D02*
X9861015Y-12690484D01*
X10251491Y-12480960D02*
X10080063Y-12738103D01*
X10508634Y-12490484D02*
X10527682Y-12490484D01*
X10527682Y-12490484D02*
X10546729Y-12500008D01*
X10546729Y-12500008D02*
X10556253Y-12509531D01*
X10556253Y-12509531D02*
X10565777Y-12528579D01*
X10565777Y-12528579D02*
X10575301Y-12566674D01*
X10575301Y-12566674D02*
X10575301Y-12614293D01*
X10575301Y-12614293D02*
X10565777Y-12652388D01*
X10565777Y-12652388D02*
X10556253Y-12671436D01*
X10556253Y-12671436D02*
X10546729Y-12680960D01*
X10546729Y-12680960D02*
X10527682Y-12690484D01*
X10527682Y-12690484D02*
X10508634Y-12690484D01*
X10508634Y-12690484D02*
X10489587Y-12680960D01*
X10489587Y-12680960D02*
X10480063Y-12671436D01*
X10480063Y-12671436D02*
X10470539Y-12652388D01*
X10470539Y-12652388D02*
X10461015Y-12614293D01*
X10461015Y-12614293D02*
X10461015Y-12566674D01*
X10461015Y-12566674D02*
X10470539Y-12528579D01*
X10470539Y-12528579D02*
X10480063Y-12509531D01*
X10480063Y-12509531D02*
X10489587Y-12500008D01*
X10489587Y-12500008D02*
X10508634Y-12490484D01*
X10661015Y-12671436D02*
X10670539Y-12680960D01*
X10670539Y-12680960D02*
X10661015Y-12690484D01*
X10661015Y-12690484D02*
X10651491Y-12680960D01*
X10651491Y-12680960D02*
X10661015Y-12671436D01*
X10661015Y-12671436D02*
X10661015Y-12690484D01*
X10794348Y-12490484D02*
X10813396Y-12490484D01*
X10813396Y-12490484D02*
X10832444Y-12500008D01*
X10832444Y-12500008D02*
X10841968Y-12509531D01*
X10841968Y-12509531D02*
X10851491Y-12528579D01*
X10851491Y-12528579D02*
X10861015Y-12566674D01*
X10861015Y-12566674D02*
X10861015Y-12614293D01*
X10861015Y-12614293D02*
X10851491Y-12652388D01*
X10851491Y-12652388D02*
X10841968Y-12671436D01*
X10841968Y-12671436D02*
X10832444Y-12680960D01*
X10832444Y-12680960D02*
X10813396Y-12690484D01*
X10813396Y-12690484D02*
X10794348Y-12690484D01*
X10794348Y-12690484D02*
X10775301Y-12680960D01*
X10775301Y-12680960D02*
X10765777Y-12671436D01*
X10765777Y-12671436D02*
X10756253Y-12652388D01*
X10756253Y-12652388D02*
X10746729Y-12614293D01*
X10746729Y-12614293D02*
X10746729Y-12566674D01*
X10746729Y-12566674D02*
X10756253Y-12528579D01*
X10756253Y-12528579D02*
X10765777Y-12509531D01*
X10765777Y-12509531D02*
X10775301Y-12500008D01*
X10775301Y-12500008D02*
X10794348Y-12490484D01*
X10927682Y-12490484D02*
X11051491Y-12490484D01*
X11051491Y-12490484D02*
X10984825Y-12566674D01*
X10984825Y-12566674D02*
X11013396Y-12566674D01*
X11013396Y-12566674D02*
X11032444Y-12576198D01*
X11032444Y-12576198D02*
X11041968Y-12585722D01*
X11041968Y-12585722D02*
X11051491Y-12604769D01*
X11051491Y-12604769D02*
X11051491Y-12652388D01*
X11051491Y-12652388D02*
X11041968Y-12671436D01*
X11041968Y-12671436D02*
X11032444Y-12680960D01*
X11032444Y-12680960D02*
X11013396Y-12690484D01*
X11013396Y-12690484D02*
X10956253Y-12690484D01*
X10956253Y-12690484D02*
X10937206Y-12680960D01*
X10937206Y-12680960D02*
X10927682Y-12671436D01*
X11241967Y-12690484D02*
X11127682Y-12690484D01*
X11184825Y-12690484D02*
X11184825Y-12490484D01*
X11184825Y-12490484D02*
X11165777Y-12519055D01*
X11165777Y-12519055D02*
X11146729Y-12538103D01*
X11146729Y-12538103D02*
X11127682Y-12547627D01*
X11422920Y-12490484D02*
X11327682Y-12490484D01*
X11327682Y-12490484D02*
X11318158Y-12585722D01*
X11318158Y-12585722D02*
X11327682Y-12576198D01*
X11327682Y-12576198D02*
X11346729Y-12566674D01*
X11346729Y-12566674D02*
X11394348Y-12566674D01*
X11394348Y-12566674D02*
X11413396Y-12576198D01*
X11413396Y-12576198D02*
X11422920Y-12585722D01*
X11422920Y-12585722D02*
X11432444Y-12604769D01*
X11432444Y-12604769D02*
X11432444Y-12652388D01*
X11432444Y-12652388D02*
X11422920Y-12671436D01*
X11422920Y-12671436D02*
X11413396Y-12680960D01*
X11413396Y-12680960D02*
X11394348Y-12690484D01*
X11394348Y-12690484D02*
X11346729Y-12690484D01*
X11346729Y-12690484D02*
X11327682Y-12680960D01*
X11327682Y-12680960D02*
X11318158Y-12671436D01*
X11508634Y-12490484D02*
X11508634Y-12528579D01*
X11584825Y-12490484D02*
X11584825Y-12528579D01*
X11880063Y-12766674D02*
X11870539Y-12757150D01*
X11870539Y-12757150D02*
X11851491Y-12728579D01*
X11851491Y-12728579D02*
X11841968Y-12709531D01*
X11841968Y-12709531D02*
X11832444Y-12680960D01*
X11832444Y-12680960D02*
X11822920Y-12633341D01*
X11822920Y-12633341D02*
X11822920Y-12595246D01*
X11822920Y-12595246D02*
X11832444Y-12547627D01*
X11832444Y-12547627D02*
X11841968Y-12519055D01*
X11841968Y-12519055D02*
X11851491Y-12500008D01*
X11851491Y-12500008D02*
X11870539Y-12471436D01*
X11870539Y-12471436D02*
X11880063Y-12461912D01*
X11994348Y-12490484D02*
X12013396Y-12490484D01*
X12013396Y-12490484D02*
X12032444Y-12500008D01*
X12032444Y-12500008D02*
X12041968Y-12509531D01*
X12041968Y-12509531D02*
X12051491Y-12528579D01*
X12051491Y-12528579D02*
X12061015Y-12566674D01*
X12061015Y-12566674D02*
X12061015Y-12614293D01*
X12061015Y-12614293D02*
X12051491Y-12652388D01*
X12051491Y-12652388D02*
X12041968Y-12671436D01*
X12041968Y-12671436D02*
X12032444Y-12680960D01*
X12032444Y-12680960D02*
X12013396Y-12690484D01*
X12013396Y-12690484D02*
X11994348Y-12690484D01*
X11994348Y-12690484D02*
X11975301Y-12680960D01*
X11975301Y-12680960D02*
X11965777Y-12671436D01*
X11965777Y-12671436D02*
X11956253Y-12652388D01*
X11956253Y-12652388D02*
X11946729Y-12614293D01*
X11946729Y-12614293D02*
X11946729Y-12566674D01*
X11946729Y-12566674D02*
X11956253Y-12528579D01*
X11956253Y-12528579D02*
X11965777Y-12509531D01*
X11965777Y-12509531D02*
X11975301Y-12500008D01*
X11975301Y-12500008D02*
X11994348Y-12490484D01*
X12299110Y-12690484D02*
X12299110Y-12490484D01*
X12384825Y-12690484D02*
X12384825Y-12585722D01*
X12384825Y-12585722D02*
X12375301Y-12566674D01*
X12375301Y-12566674D02*
X12356253Y-12557150D01*
X12356253Y-12557150D02*
X12327682Y-12557150D01*
X12327682Y-12557150D02*
X12308634Y-12566674D01*
X12308634Y-12566674D02*
X12299110Y-12576198D01*
X12508634Y-12690484D02*
X12489587Y-12680960D01*
X12489587Y-12680960D02*
X12480063Y-12671436D01*
X12480063Y-12671436D02*
X12470539Y-12652388D01*
X12470539Y-12652388D02*
X12470539Y-12595246D01*
X12470539Y-12595246D02*
X12480063Y-12576198D01*
X12480063Y-12576198D02*
X12489587Y-12566674D01*
X12489587Y-12566674D02*
X12508634Y-12557150D01*
X12508634Y-12557150D02*
X12537206Y-12557150D01*
X12537206Y-12557150D02*
X12556253Y-12566674D01*
X12556253Y-12566674D02*
X12565777Y-12576198D01*
X12565777Y-12576198D02*
X12575301Y-12595246D01*
X12575301Y-12595246D02*
X12575301Y-12652388D01*
X12575301Y-12652388D02*
X12565777Y-12671436D01*
X12565777Y-12671436D02*
X12556253Y-12680960D01*
X12556253Y-12680960D02*
X12537206Y-12690484D01*
X12537206Y-12690484D02*
X12508634Y-12690484D01*
X12689587Y-12690484D02*
X12670539Y-12680960D01*
X12670539Y-12680960D02*
X12661015Y-12661912D01*
X12661015Y-12661912D02*
X12661015Y-12490484D01*
X12841968Y-12680960D02*
X12822920Y-12690484D01*
X12822920Y-12690484D02*
X12784825Y-12690484D01*
X12784825Y-12690484D02*
X12765777Y-12680960D01*
X12765777Y-12680960D02*
X12756253Y-12661912D01*
X12756253Y-12661912D02*
X12756253Y-12585722D01*
X12756253Y-12585722D02*
X12765777Y-12566674D01*
X12765777Y-12566674D02*
X12784825Y-12557150D01*
X12784825Y-12557150D02*
X12822920Y-12557150D01*
X12822920Y-12557150D02*
X12841968Y-12566674D01*
X12841968Y-12566674D02*
X12851491Y-12585722D01*
X12851491Y-12585722D02*
X12851491Y-12604769D01*
X12851491Y-12604769D02*
X12756253Y-12623817D01*
X12927682Y-12680960D02*
X12946730Y-12690484D01*
X12946730Y-12690484D02*
X12984825Y-12690484D01*
X12984825Y-12690484D02*
X13003872Y-12680960D01*
X13003872Y-12680960D02*
X13013396Y-12661912D01*
X13013396Y-12661912D02*
X13013396Y-12652388D01*
X13013396Y-12652388D02*
X13003872Y-12633341D01*
X13003872Y-12633341D02*
X12984825Y-12623817D01*
X12984825Y-12623817D02*
X12956253Y-12623817D01*
X12956253Y-12623817D02*
X12937206Y-12614293D01*
X12937206Y-12614293D02*
X12927682Y-12595246D01*
X12927682Y-12595246D02*
X12927682Y-12585722D01*
X12927682Y-12585722D02*
X12937206Y-12566674D01*
X12937206Y-12566674D02*
X12956253Y-12557150D01*
X12956253Y-12557150D02*
X12984825Y-12557150D01*
X12984825Y-12557150D02*
X13003872Y-12566674D01*
X13251492Y-12614293D02*
X13403873Y-12614293D01*
X13327682Y-12690484D02*
X13327682Y-12538103D01*
X13737206Y-12557150D02*
X13737206Y-12690484D01*
X13689587Y-12480960D02*
X13641968Y-12623817D01*
X13641968Y-12623817D02*
X13765777Y-12623817D01*
X13984825Y-12680960D02*
X14003873Y-12690484D01*
X14003873Y-12690484D02*
X14041968Y-12690484D01*
X14041968Y-12690484D02*
X14061015Y-12680960D01*
X14061015Y-12680960D02*
X14070539Y-12661912D01*
X14070539Y-12661912D02*
X14070539Y-12652388D01*
X14070539Y-12652388D02*
X14061015Y-12633341D01*
X14061015Y-12633341D02*
X14041968Y-12623817D01*
X14041968Y-12623817D02*
X14013396Y-12623817D01*
X14013396Y-12623817D02*
X13994349Y-12614293D01*
X13994349Y-12614293D02*
X13984825Y-12595246D01*
X13984825Y-12595246D02*
X13984825Y-12585722D01*
X13984825Y-12585722D02*
X13994349Y-12566674D01*
X13994349Y-12566674D02*
X14013396Y-12557150D01*
X14013396Y-12557150D02*
X14041968Y-12557150D01*
X14041968Y-12557150D02*
X14061015Y-12566674D01*
X14184825Y-12690484D02*
X14165777Y-12680960D01*
X14165777Y-12680960D02*
X14156254Y-12661912D01*
X14156254Y-12661912D02*
X14156254Y-12490484D01*
X14289587Y-12690484D02*
X14270539Y-12680960D01*
X14270539Y-12680960D02*
X14261015Y-12671436D01*
X14261015Y-12671436D02*
X14251492Y-12652388D01*
X14251492Y-12652388D02*
X14251492Y-12595246D01*
X14251492Y-12595246D02*
X14261015Y-12576198D01*
X14261015Y-12576198D02*
X14270539Y-12566674D01*
X14270539Y-12566674D02*
X14289587Y-12557150D01*
X14289587Y-12557150D02*
X14318158Y-12557150D01*
X14318158Y-12557150D02*
X14337206Y-12566674D01*
X14337206Y-12566674D02*
X14346730Y-12576198D01*
X14346730Y-12576198D02*
X14356254Y-12595246D01*
X14356254Y-12595246D02*
X14356254Y-12652388D01*
X14356254Y-12652388D02*
X14346730Y-12671436D01*
X14346730Y-12671436D02*
X14337206Y-12680960D01*
X14337206Y-12680960D02*
X14318158Y-12690484D01*
X14318158Y-12690484D02*
X14289587Y-12690484D01*
X14413396Y-12557150D02*
X14489587Y-12557150D01*
X14441968Y-12490484D02*
X14441968Y-12661912D01*
X14441968Y-12661912D02*
X14451492Y-12680960D01*
X14451492Y-12680960D02*
X14470539Y-12690484D01*
X14470539Y-12690484D02*
X14489587Y-12690484D01*
X14546730Y-12680960D02*
X14565777Y-12690484D01*
X14565777Y-12690484D02*
X14603873Y-12690484D01*
X14603873Y-12690484D02*
X14622920Y-12680960D01*
X14622920Y-12680960D02*
X14632444Y-12661912D01*
X14632444Y-12661912D02*
X14632444Y-12652388D01*
X14632444Y-12652388D02*
X14622920Y-12633341D01*
X14622920Y-12633341D02*
X14603873Y-12623817D01*
X14603873Y-12623817D02*
X14575301Y-12623817D01*
X14575301Y-12623817D02*
X14556254Y-12614293D01*
X14556254Y-12614293D02*
X14546730Y-12595246D01*
X14546730Y-12595246D02*
X14546730Y-12585722D01*
X14546730Y-12585722D02*
X14556254Y-12566674D01*
X14556254Y-12566674D02*
X14575301Y-12557150D01*
X14575301Y-12557150D02*
X14603873Y-12557150D01*
X14603873Y-12557150D02*
X14622920Y-12566674D01*
X14699111Y-12766674D02*
X14708635Y-12757150D01*
X14708635Y-12757150D02*
X14727682Y-12728579D01*
X14727682Y-12728579D02*
X14737206Y-12709531D01*
X14737206Y-12709531D02*
X14746730Y-12680960D01*
X14746730Y-12680960D02*
X14756254Y-12633341D01*
X14756254Y-12633341D02*
X14756254Y-12595246D01*
X14756254Y-12595246D02*
X14746730Y-12547627D01*
X14746730Y-12547627D02*
X14737206Y-12519055D01*
X14737206Y-12519055D02*
X14727682Y-12500008D01*
X14727682Y-12500008D02*
X14708635Y-12471436D01*
X14708635Y-12471436D02*
X14699111Y-12461912D01*
M02*
