%TF.GenerationSoftware,KiCad,Pcbnew,10.0.6-10.0.6~ubuntu24.04.1*%
%TF.CreationDate,2026-10-02T10:11:01+00:00*%
%TF.ProjectId,ridge3-fc,72696467-6533-42d6-9663-2e6b69636164,2.0*%
%TF.SameCoordinates,Original*%
%TF.FileFunction,Soldermask,Bot*%
%TF.FilePolarity,Negative*%
%FSLAX46Y46*%
G04 Gerber Fmt 4.6, Leading zero omitted, Abs format (unit mm)*
G04 Created by KiCad (PCBNEW 10.0.6-10.0.6~ubuntu24.04.1) date 2026-10-02 10:11:01*
%MOMM*%
%LPD*%
G01*
G04 APERTURE LIST*
G04 APERTURE END LIST*
G36*
X90829134Y-115953806D02*
G01*
X90845355Y-115964645D01*
X90856194Y-115980866D01*
X90860000Y-116000000D01*
X90860000Y-117200000D01*
X90856194Y-117219134D01*
X90845355Y-117235355D01*
X90829134Y-117246194D01*
X90810000Y-117250000D01*
X89610000Y-117250000D01*
X89590866Y-117246194D01*
X89574645Y-117235355D01*
X89563806Y-117219134D01*
X89560000Y-117200000D01*
X89560000Y-116000000D01*
X89563806Y-115980866D01*
X89574645Y-115964645D01*
X89590866Y-115953806D01*
X89610000Y-115950000D01*
X90810000Y-115950000D01*
X90829134Y-115953806D01*
G37*
G36*
X94209134Y-115953806D02*
G01*
X94225355Y-115964645D01*
X94236194Y-115980866D01*
X94240000Y-116000000D01*
X94240000Y-117200000D01*
X94236194Y-117219134D01*
X94225355Y-117235355D01*
X94209134Y-117246194D01*
X94190000Y-117250000D01*
X92990000Y-117250000D01*
X92970866Y-117246194D01*
X92954645Y-117235355D01*
X92943806Y-117219134D01*
X92940000Y-117200000D01*
X92940000Y-116000000D01*
X92943806Y-115980866D01*
X92954645Y-115964645D01*
X92970866Y-115953806D01*
X92990000Y-115950000D01*
X94190000Y-115950000D01*
X94209134Y-115953806D01*
G37*
G36*
X109268685Y-115907969D02*
G01*
X109277358Y-115911798D01*
X109284925Y-115912901D01*
X109332223Y-115936023D01*
X109369541Y-115952501D01*
X109372996Y-115955956D01*
X109373920Y-115956408D01*
X109443591Y-116026079D01*
X109444042Y-116027002D01*
X109447499Y-116030459D01*
X109463978Y-116067782D01*
X109487098Y-116115073D01*
X109488200Y-116122639D01*
X109492031Y-116131315D01*
X109500000Y-116200000D01*
X109500000Y-116850000D01*
X109492031Y-116918685D01*
X109488199Y-116927361D01*
X109487098Y-116934925D01*
X109463985Y-116982202D01*
X109447499Y-117019541D01*
X109444041Y-117022998D01*
X109443591Y-117023920D01*
X109373920Y-117093591D01*
X109372998Y-117094041D01*
X109369541Y-117097499D01*
X109332207Y-117113983D01*
X109284926Y-117137098D01*
X109277361Y-117138200D01*
X109268685Y-117142031D01*
X109200000Y-117150000D01*
X107000000Y-117150000D01*
X106931315Y-117142031D01*
X106922638Y-117138200D01*
X106915074Y-117137098D01*
X106867787Y-117113981D01*
X106830459Y-117097499D01*
X106827002Y-117094042D01*
X106826079Y-117093591D01*
X106756408Y-117023920D01*
X106755956Y-117022996D01*
X106752501Y-117019541D01*
X106736025Y-116982228D01*
X106712901Y-116934926D01*
X106711798Y-116927357D01*
X106707969Y-116918685D01*
X106700000Y-116850000D01*
X106700000Y-116200000D01*
X106707969Y-116131315D01*
X106711798Y-116122642D01*
X106712901Y-116115074D01*
X106736028Y-116067766D01*
X106752501Y-116030459D01*
X106755955Y-116027004D01*
X106756408Y-116026079D01*
X106826079Y-115956408D01*
X106827004Y-115955955D01*
X106830459Y-115952501D01*
X106867761Y-115936030D01*
X106915073Y-115912901D01*
X106922642Y-115911798D01*
X106931315Y-115907969D01*
X107000000Y-115900000D01*
X109200000Y-115900000D01*
X109268685Y-115907969D01*
G37*
G36*
X97086409Y-115926275D02*
G01*
X97149958Y-115934641D01*
X97165943Y-115942095D01*
X97185238Y-115945933D01*
X97210792Y-115963008D01*
X97237290Y-115975364D01*
X97253412Y-115991486D01*
X97274454Y-116005546D01*
X97288513Y-116026587D01*
X97304635Y-116042709D01*
X97316990Y-116069204D01*
X97334067Y-116094762D01*
X97337905Y-116114058D01*
X97345358Y-116130041D01*
X97353722Y-116193577D01*
X97355000Y-116200000D01*
X97355000Y-116700000D01*
X97353722Y-116706424D01*
X97345358Y-116769958D01*
X97337905Y-116785939D01*
X97334067Y-116805238D01*
X97316988Y-116830797D01*
X97304635Y-116857290D01*
X97288516Y-116873408D01*
X97274454Y-116894454D01*
X97253408Y-116908516D01*
X97237290Y-116924635D01*
X97210797Y-116936988D01*
X97185238Y-116954067D01*
X97165939Y-116957905D01*
X97149958Y-116965358D01*
X97086424Y-116973722D01*
X97080000Y-116975000D01*
X96630000Y-116975000D01*
X96623577Y-116973722D01*
X96560041Y-116965358D01*
X96544058Y-116957905D01*
X96524762Y-116954067D01*
X96499204Y-116936990D01*
X96472709Y-116924635D01*
X96456587Y-116908513D01*
X96435546Y-116894454D01*
X96421486Y-116873412D01*
X96405364Y-116857290D01*
X96393008Y-116830792D01*
X96375933Y-116805238D01*
X96372095Y-116785943D01*
X96364641Y-116769958D01*
X96356275Y-116706409D01*
X96355000Y-116700000D01*
X96355000Y-116200000D01*
X96356274Y-116193592D01*
X96364641Y-116130041D01*
X96372095Y-116114054D01*
X96375933Y-116094762D01*
X96393006Y-116069209D01*
X96405364Y-116042709D01*
X96421488Y-116026584D01*
X96435546Y-116005546D01*
X96456584Y-115991488D01*
X96472709Y-115975364D01*
X96499209Y-115963006D01*
X96524762Y-115945933D01*
X96544054Y-115942095D01*
X96560041Y-115934641D01*
X96623592Y-115926274D01*
X96630000Y-115925000D01*
X97080000Y-115925000D01*
X97086409Y-115926275D01*
G37*
G36*
X98636409Y-115926275D02*
G01*
X98699958Y-115934641D01*
X98715943Y-115942095D01*
X98735238Y-115945933D01*
X98760792Y-115963008D01*
X98787290Y-115975364D01*
X98803412Y-115991486D01*
X98824454Y-116005546D01*
X98838513Y-116026587D01*
X98854635Y-116042709D01*
X98866990Y-116069204D01*
X98884067Y-116094762D01*
X98887905Y-116114058D01*
X98895358Y-116130041D01*
X98903722Y-116193577D01*
X98905000Y-116200000D01*
X98905000Y-116700000D01*
X98903722Y-116706424D01*
X98895358Y-116769958D01*
X98887905Y-116785939D01*
X98884067Y-116805238D01*
X98866988Y-116830797D01*
X98854635Y-116857290D01*
X98838516Y-116873408D01*
X98824454Y-116894454D01*
X98803408Y-116908516D01*
X98787290Y-116924635D01*
X98760797Y-116936988D01*
X98735238Y-116954067D01*
X98715939Y-116957905D01*
X98699958Y-116965358D01*
X98636424Y-116973722D01*
X98630000Y-116975000D01*
X98180000Y-116975000D01*
X98173577Y-116973722D01*
X98110041Y-116965358D01*
X98094058Y-116957905D01*
X98074762Y-116954067D01*
X98049204Y-116936990D01*
X98022709Y-116924635D01*
X98006587Y-116908513D01*
X97985546Y-116894454D01*
X97971486Y-116873412D01*
X97955364Y-116857290D01*
X97943008Y-116830792D01*
X97925933Y-116805238D01*
X97922095Y-116785943D01*
X97914641Y-116769958D01*
X97906275Y-116706409D01*
X97905000Y-116700000D01*
X97905000Y-116200000D01*
X97906274Y-116193592D01*
X97914641Y-116130041D01*
X97922095Y-116114054D01*
X97925933Y-116094762D01*
X97943006Y-116069209D01*
X97955364Y-116042709D01*
X97971488Y-116026584D01*
X97985546Y-116005546D01*
X98006584Y-115991488D01*
X98022709Y-115975364D01*
X98049209Y-115963006D01*
X98074762Y-115945933D01*
X98094054Y-115942095D01*
X98110041Y-115934641D01*
X98173592Y-115926274D01*
X98180000Y-115925000D01*
X98630000Y-115925000D01*
X98636409Y-115926275D01*
G37*
G36*
X95239679Y-113625284D02*
G01*
X95322198Y-113672926D01*
X95389574Y-113740302D01*
X95437216Y-113822821D01*
X95461877Y-113914858D01*
X95465000Y-113962500D01*
X95465000Y-115197500D01*
X95461877Y-115245142D01*
X95437216Y-115337179D01*
X95389574Y-115419698D01*
X95322198Y-115487074D01*
X95239679Y-115534716D01*
X95147642Y-115559377D01*
X95052358Y-115559377D01*
X94960321Y-115534716D01*
X94877802Y-115487074D01*
X94810426Y-115419698D01*
X94762784Y-115337179D01*
X94738123Y-115245142D01*
X94735000Y-115197500D01*
X94735000Y-113962500D01*
X94738123Y-113914858D01*
X94762784Y-113822821D01*
X94810426Y-113740302D01*
X94877802Y-113672926D01*
X94960321Y-113625284D01*
X95052358Y-113600623D01*
X95147642Y-113600623D01*
X95239679Y-113625284D01*
G37*
G36*
X96509679Y-113625284D02*
G01*
X96592198Y-113672926D01*
X96659574Y-113740302D01*
X96707216Y-113822821D01*
X96731877Y-113914858D01*
X96735000Y-113962500D01*
X96735000Y-115197500D01*
X96731877Y-115245142D01*
X96707216Y-115337179D01*
X96659574Y-115419698D01*
X96592198Y-115487074D01*
X96509679Y-115534716D01*
X96417642Y-115559377D01*
X96322358Y-115559377D01*
X96230321Y-115534716D01*
X96147802Y-115487074D01*
X96080426Y-115419698D01*
X96032784Y-115337179D01*
X96008123Y-115245142D01*
X96005000Y-115197500D01*
X96005000Y-113962500D01*
X96008123Y-113914858D01*
X96032784Y-113822821D01*
X96080426Y-113740302D01*
X96147802Y-113672926D01*
X96230321Y-113625284D01*
X96322358Y-113600623D01*
X96417642Y-113600623D01*
X96509679Y-113625284D01*
G37*
G36*
X97769679Y-113625284D02*
G01*
X97852198Y-113672926D01*
X97919574Y-113740302D01*
X97967216Y-113822821D01*
X97991877Y-113914858D01*
X97995000Y-113962500D01*
X97995000Y-115197500D01*
X97991877Y-115245142D01*
X97967216Y-115337179D01*
X97919574Y-115419698D01*
X97852198Y-115487074D01*
X97769679Y-115534716D01*
X97677642Y-115559377D01*
X97582358Y-115559377D01*
X97490321Y-115534716D01*
X97407802Y-115487074D01*
X97340426Y-115419698D01*
X97292784Y-115337179D01*
X97268123Y-115245142D01*
X97265000Y-115197500D01*
X97265000Y-113962500D01*
X97268123Y-113914858D01*
X97292784Y-113822821D01*
X97340426Y-113740302D01*
X97407802Y-113672926D01*
X97490321Y-113625284D01*
X97582358Y-113600623D01*
X97677642Y-113600623D01*
X97769679Y-113625284D01*
G37*
G36*
X99039679Y-113625284D02*
G01*
X99122198Y-113672926D01*
X99189574Y-113740302D01*
X99237216Y-113822821D01*
X99261877Y-113914858D01*
X99265000Y-113962500D01*
X99265000Y-115197500D01*
X99261877Y-115245142D01*
X99237216Y-115337179D01*
X99189574Y-115419698D01*
X99122198Y-115487074D01*
X99039679Y-115534716D01*
X98947642Y-115559377D01*
X98852358Y-115559377D01*
X98760321Y-115534716D01*
X98677802Y-115487074D01*
X98610426Y-115419698D01*
X98562784Y-115337179D01*
X98538123Y-115245142D01*
X98535000Y-115197500D01*
X98535000Y-113962500D01*
X98538123Y-113914858D01*
X98562784Y-113822821D01*
X98610426Y-113740302D01*
X98677802Y-113672926D01*
X98760321Y-113625284D01*
X98852358Y-113600623D01*
X98947642Y-113600623D01*
X99039679Y-113625284D01*
G37*
G36*
X104869134Y-113353806D02*
G01*
X104885355Y-113364645D01*
X104896194Y-113380866D01*
X104900000Y-113400000D01*
X104900000Y-115400000D01*
X104896194Y-115419134D01*
X104885355Y-115435355D01*
X104869134Y-115446194D01*
X104850000Y-115450000D01*
X101450000Y-115450000D01*
X101430866Y-115446194D01*
X101414645Y-115435355D01*
X101403806Y-115419134D01*
X101400000Y-115400000D01*
X101400000Y-113400000D01*
X101403806Y-113380866D01*
X101414645Y-113364645D01*
X101430866Y-113353806D01*
X101450000Y-113350000D01*
X104850000Y-113350000D01*
X104869134Y-113353806D01*
G37*
G36*
X93755796Y-114604082D02*
G01*
X93815815Y-114644185D01*
X93855918Y-114704204D01*
X93870000Y-114775000D01*
X93870000Y-115045000D01*
X93855918Y-115115796D01*
X93815815Y-115175815D01*
X93755796Y-115215918D01*
X93685000Y-115230000D01*
X93315000Y-115230000D01*
X93244204Y-115215918D01*
X93184185Y-115175815D01*
X93144082Y-115115796D01*
X93130000Y-115045000D01*
X93130000Y-114775000D01*
X93144082Y-114704204D01*
X93184185Y-114644185D01*
X93244204Y-114604082D01*
X93315000Y-114590000D01*
X93685000Y-114590000D01*
X93755796Y-114604082D01*
G37*
G36*
X93755796Y-113584082D02*
G01*
X93815815Y-113624185D01*
X93855918Y-113684204D01*
X93870000Y-113755000D01*
X93870000Y-114025000D01*
X93855918Y-114095796D01*
X93815815Y-114155815D01*
X93755796Y-114195918D01*
X93685000Y-114210000D01*
X93315000Y-114210000D01*
X93244204Y-114195918D01*
X93184185Y-114155815D01*
X93144082Y-114095796D01*
X93130000Y-114025000D01*
X93130000Y-113755000D01*
X93144082Y-113684204D01*
X93184185Y-113624185D01*
X93244204Y-113584082D01*
X93315000Y-113570000D01*
X93685000Y-113570000D01*
X93755796Y-113584082D01*
G37*
G36*
X109268685Y-112957969D02*
G01*
X109277358Y-112961798D01*
X109284925Y-112962901D01*
X109332223Y-112986023D01*
X109369541Y-113002501D01*
X109372996Y-113005956D01*
X109373920Y-113006408D01*
X109443591Y-113076079D01*
X109444042Y-113077002D01*
X109447499Y-113080459D01*
X109463978Y-113117782D01*
X109487098Y-113165073D01*
X109488200Y-113172639D01*
X109492031Y-113181315D01*
X109500000Y-113250000D01*
X109500000Y-113900000D01*
X109492031Y-113968685D01*
X109488199Y-113977361D01*
X109487098Y-113984925D01*
X109463985Y-114032202D01*
X109447499Y-114069541D01*
X109444041Y-114072998D01*
X109443591Y-114073920D01*
X109373920Y-114143591D01*
X109372998Y-114144041D01*
X109369541Y-114147499D01*
X109332207Y-114163983D01*
X109284926Y-114187098D01*
X109277361Y-114188200D01*
X109268685Y-114192031D01*
X109200000Y-114200000D01*
X107000000Y-114200000D01*
X106931315Y-114192031D01*
X106922638Y-114188200D01*
X106915074Y-114187098D01*
X106867787Y-114163981D01*
X106830459Y-114147499D01*
X106827002Y-114144042D01*
X106826079Y-114143591D01*
X106756408Y-114073920D01*
X106755956Y-114072996D01*
X106752501Y-114069541D01*
X106736025Y-114032228D01*
X106712901Y-113984926D01*
X106711798Y-113977357D01*
X106707969Y-113968685D01*
X106700000Y-113900000D01*
X106700000Y-113250000D01*
X106707969Y-113181315D01*
X106711798Y-113172642D01*
X106712901Y-113165074D01*
X106736028Y-113117766D01*
X106752501Y-113080459D01*
X106755955Y-113077004D01*
X106756408Y-113076079D01*
X106826079Y-113006408D01*
X106827004Y-113005955D01*
X106830459Y-113002501D01*
X106867761Y-112986030D01*
X106915073Y-112962901D01*
X106922642Y-112961798D01*
X106931315Y-112957969D01*
X107000000Y-112950000D01*
X109200000Y-112950000D01*
X109268685Y-112957969D01*
G37*
G36*
X98719134Y-110498806D02*
G01*
X98735355Y-110509645D01*
X98746194Y-110525866D01*
X98750000Y-110545000D01*
X98750000Y-113255000D01*
X98746194Y-113274134D01*
X98735355Y-113290355D01*
X98719134Y-113301194D01*
X98700000Y-113305000D01*
X95300000Y-113305000D01*
X95280866Y-113301194D01*
X95264645Y-113290355D01*
X95253806Y-113274134D01*
X95250000Y-113255000D01*
X95250000Y-110545000D01*
X95253806Y-110525866D01*
X95264645Y-110509645D01*
X95280866Y-110498806D01*
X95300000Y-110495000D01*
X98700000Y-110495000D01*
X98719134Y-110498806D01*
G37*
G36*
X93768685Y-111857969D02*
G01*
X93777358Y-111861798D01*
X93784925Y-111862901D01*
X93832223Y-111886023D01*
X93869541Y-111902501D01*
X93872996Y-111905956D01*
X93873920Y-111906408D01*
X93943591Y-111976079D01*
X93944042Y-111977002D01*
X93947499Y-111980459D01*
X93963978Y-112017782D01*
X93987098Y-112065073D01*
X93988200Y-112072639D01*
X93992031Y-112081315D01*
X94000000Y-112150000D01*
X94000000Y-112800000D01*
X93992031Y-112868685D01*
X93988199Y-112877361D01*
X93987098Y-112884925D01*
X93963985Y-112932202D01*
X93947499Y-112969541D01*
X93944041Y-112972998D01*
X93943591Y-112973920D01*
X93873920Y-113043591D01*
X93872998Y-113044041D01*
X93869541Y-113047499D01*
X93832207Y-113063983D01*
X93784926Y-113087098D01*
X93777361Y-113088200D01*
X93768685Y-113092031D01*
X93700000Y-113100000D01*
X91500000Y-113100000D01*
X91431315Y-113092031D01*
X91422638Y-113088200D01*
X91415074Y-113087098D01*
X91367787Y-113063981D01*
X91330459Y-113047499D01*
X91327002Y-113044042D01*
X91326079Y-113043591D01*
X91256408Y-112973920D01*
X91255956Y-112972996D01*
X91252501Y-112969541D01*
X91236025Y-112932228D01*
X91212901Y-112884926D01*
X91211798Y-112877357D01*
X91207969Y-112868685D01*
X91200000Y-112800000D01*
X91200000Y-112150000D01*
X91207969Y-112081315D01*
X91211798Y-112072642D01*
X91212901Y-112065074D01*
X91236028Y-112017766D01*
X91252501Y-111980459D01*
X91255955Y-111977004D01*
X91256408Y-111976079D01*
X91326079Y-111906408D01*
X91327004Y-111905955D01*
X91330459Y-111902501D01*
X91367761Y-111886030D01*
X91415073Y-111862901D01*
X91422642Y-111861798D01*
X91431315Y-111857969D01*
X91500000Y-111850000D01*
X93700000Y-111850000D01*
X93768685Y-111857969D01*
G37*
G36*
X109268685Y-111157969D02*
G01*
X109277358Y-111161798D01*
X109284925Y-111162901D01*
X109332223Y-111186023D01*
X109369541Y-111202501D01*
X109372996Y-111205956D01*
X109373920Y-111206408D01*
X109443591Y-111276079D01*
X109444042Y-111277002D01*
X109447499Y-111280459D01*
X109463978Y-111317782D01*
X109487098Y-111365073D01*
X109488200Y-111372639D01*
X109492031Y-111381315D01*
X109500000Y-111450000D01*
X109500000Y-112100000D01*
X109492031Y-112168685D01*
X109488199Y-112177361D01*
X109487098Y-112184925D01*
X109463985Y-112232202D01*
X109447499Y-112269541D01*
X109444041Y-112272998D01*
X109443591Y-112273920D01*
X109373920Y-112343591D01*
X109372998Y-112344041D01*
X109369541Y-112347499D01*
X109332207Y-112363983D01*
X109284926Y-112387098D01*
X109277361Y-112388200D01*
X109268685Y-112392031D01*
X109200000Y-112400000D01*
X107000000Y-112400000D01*
X106931315Y-112392031D01*
X106922638Y-112388200D01*
X106915074Y-112387098D01*
X106867787Y-112363981D01*
X106830459Y-112347499D01*
X106827002Y-112344042D01*
X106826079Y-112343591D01*
X106756408Y-112273920D01*
X106755956Y-112272996D01*
X106752501Y-112269541D01*
X106736025Y-112232228D01*
X106712901Y-112184926D01*
X106711798Y-112177357D01*
X106707969Y-112168685D01*
X106700000Y-112100000D01*
X106700000Y-111450000D01*
X106707969Y-111381315D01*
X106711798Y-111372642D01*
X106712901Y-111365074D01*
X106736028Y-111317766D01*
X106752501Y-111280459D01*
X106755955Y-111277004D01*
X106756408Y-111276079D01*
X106826079Y-111206408D01*
X106827004Y-111205955D01*
X106830459Y-111202501D01*
X106867761Y-111186030D01*
X106915073Y-111162901D01*
X106922642Y-111161798D01*
X106931315Y-111157969D01*
X107000000Y-111150000D01*
X109200000Y-111150000D01*
X109268685Y-111157969D01*
G37*
G36*
X95239679Y-108265284D02*
G01*
X95322198Y-108312926D01*
X95389574Y-108380302D01*
X95437216Y-108462821D01*
X95461877Y-108554858D01*
X95465000Y-108602500D01*
X95465000Y-109837500D01*
X95461877Y-109885142D01*
X95437216Y-109977179D01*
X95389574Y-110059698D01*
X95322198Y-110127074D01*
X95239679Y-110174716D01*
X95147642Y-110199377D01*
X95052358Y-110199377D01*
X94960321Y-110174716D01*
X94877802Y-110127074D01*
X94810426Y-110059698D01*
X94762784Y-109977179D01*
X94738123Y-109885142D01*
X94735000Y-109837500D01*
X94735000Y-108602500D01*
X94738123Y-108554858D01*
X94762784Y-108462821D01*
X94810426Y-108380302D01*
X94877802Y-108312926D01*
X94960321Y-108265284D01*
X95052358Y-108240623D01*
X95147642Y-108240623D01*
X95239679Y-108265284D01*
G37*
G36*
X96509679Y-108265284D02*
G01*
X96592198Y-108312926D01*
X96659574Y-108380302D01*
X96707216Y-108462821D01*
X96731877Y-108554858D01*
X96735000Y-108602500D01*
X96735000Y-109837500D01*
X96731877Y-109885142D01*
X96707216Y-109977179D01*
X96659574Y-110059698D01*
X96592198Y-110127074D01*
X96509679Y-110174716D01*
X96417642Y-110199377D01*
X96322358Y-110199377D01*
X96230321Y-110174716D01*
X96147802Y-110127074D01*
X96080426Y-110059698D01*
X96032784Y-109977179D01*
X96008123Y-109885142D01*
X96005000Y-109837500D01*
X96005000Y-108602500D01*
X96008123Y-108554858D01*
X96032784Y-108462821D01*
X96080426Y-108380302D01*
X96147802Y-108312926D01*
X96230321Y-108265284D01*
X96322358Y-108240623D01*
X96417642Y-108240623D01*
X96509679Y-108265284D01*
G37*
G36*
X97769679Y-108265284D02*
G01*
X97852198Y-108312926D01*
X97919574Y-108380302D01*
X97967216Y-108462821D01*
X97991877Y-108554858D01*
X97995000Y-108602500D01*
X97995000Y-109837500D01*
X97991877Y-109885142D01*
X97967216Y-109977179D01*
X97919574Y-110059698D01*
X97852198Y-110127074D01*
X97769679Y-110174716D01*
X97677642Y-110199377D01*
X97582358Y-110199377D01*
X97490321Y-110174716D01*
X97407802Y-110127074D01*
X97340426Y-110059698D01*
X97292784Y-109977179D01*
X97268123Y-109885142D01*
X97265000Y-109837500D01*
X97265000Y-108602500D01*
X97268123Y-108554858D01*
X97292784Y-108462821D01*
X97340426Y-108380302D01*
X97407802Y-108312926D01*
X97490321Y-108265284D01*
X97582358Y-108240623D01*
X97677642Y-108240623D01*
X97769679Y-108265284D01*
G37*
G36*
X99039679Y-108265284D02*
G01*
X99122198Y-108312926D01*
X99189574Y-108380302D01*
X99237216Y-108462821D01*
X99261877Y-108554858D01*
X99265000Y-108602500D01*
X99265000Y-109837500D01*
X99261877Y-109885142D01*
X99237216Y-109977179D01*
X99189574Y-110059698D01*
X99122198Y-110127074D01*
X99039679Y-110174716D01*
X98947642Y-110199377D01*
X98852358Y-110199377D01*
X98760321Y-110174716D01*
X98677802Y-110127074D01*
X98610426Y-110059698D01*
X98562784Y-109977179D01*
X98538123Y-109885142D01*
X98535000Y-109837500D01*
X98535000Y-108602500D01*
X98538123Y-108554858D01*
X98562784Y-108462821D01*
X98610426Y-108380302D01*
X98677802Y-108312926D01*
X98760321Y-108265284D01*
X98852358Y-108240623D01*
X98947642Y-108240623D01*
X99039679Y-108265284D01*
G37*
G36*
X93768685Y-108907969D02*
G01*
X93777358Y-108911798D01*
X93784925Y-108912901D01*
X93832223Y-108936023D01*
X93869541Y-108952501D01*
X93872996Y-108955956D01*
X93873920Y-108956408D01*
X93943591Y-109026079D01*
X93944042Y-109027002D01*
X93947499Y-109030459D01*
X93963978Y-109067782D01*
X93987098Y-109115073D01*
X93988200Y-109122639D01*
X93992031Y-109131315D01*
X94000000Y-109200000D01*
X94000000Y-109850000D01*
X93992031Y-109918685D01*
X93988199Y-109927361D01*
X93987098Y-109934925D01*
X93963985Y-109982202D01*
X93947499Y-110019541D01*
X93944041Y-110022998D01*
X93943591Y-110023920D01*
X93873920Y-110093591D01*
X93872998Y-110094041D01*
X93869541Y-110097499D01*
X93832207Y-110113983D01*
X93784926Y-110137098D01*
X93777361Y-110138200D01*
X93768685Y-110142031D01*
X93700000Y-110150000D01*
X91500000Y-110150000D01*
X91431315Y-110142031D01*
X91422638Y-110138200D01*
X91415074Y-110137098D01*
X91367787Y-110113981D01*
X91330459Y-110097499D01*
X91327002Y-110094042D01*
X91326079Y-110093591D01*
X91256408Y-110023920D01*
X91255956Y-110022996D01*
X91252501Y-110019541D01*
X91236025Y-109982228D01*
X91212901Y-109934926D01*
X91211798Y-109927357D01*
X91207969Y-109918685D01*
X91200000Y-109850000D01*
X91200000Y-109200000D01*
X91207969Y-109131315D01*
X91211798Y-109122642D01*
X91212901Y-109115074D01*
X91236028Y-109067766D01*
X91252501Y-109030459D01*
X91255955Y-109027004D01*
X91256408Y-109026079D01*
X91326079Y-108956408D01*
X91327004Y-108955955D01*
X91330459Y-108952501D01*
X91367761Y-108936030D01*
X91415073Y-108912901D01*
X91422642Y-108911798D01*
X91431315Y-108907969D01*
X91500000Y-108900000D01*
X93700000Y-108900000D01*
X93768685Y-108907969D01*
G37*
G36*
X104869134Y-107753806D02*
G01*
X104885355Y-107764645D01*
X104896194Y-107780866D01*
X104900000Y-107800000D01*
X104900000Y-109800000D01*
X104896194Y-109819134D01*
X104885355Y-109835355D01*
X104869134Y-109846194D01*
X104850000Y-109850000D01*
X101450000Y-109850000D01*
X101430866Y-109846194D01*
X101414645Y-109835355D01*
X101403806Y-109819134D01*
X101400000Y-109800000D01*
X101400000Y-107800000D01*
X101403806Y-107780866D01*
X101414645Y-107764645D01*
X101430866Y-107753806D01*
X101450000Y-107750000D01*
X104850000Y-107750000D01*
X104869134Y-107753806D01*
G37*
G36*
X110605796Y-109104082D02*
G01*
X110665815Y-109144185D01*
X110705918Y-109204204D01*
X110720000Y-109275000D01*
X110720000Y-109545000D01*
X110705918Y-109615796D01*
X110665815Y-109675815D01*
X110605796Y-109715918D01*
X110535000Y-109730000D01*
X110165000Y-109730000D01*
X110094204Y-109715918D01*
X110034185Y-109675815D01*
X109994082Y-109615796D01*
X109980000Y-109545000D01*
X109980000Y-109275000D01*
X109994082Y-109204204D01*
X110034185Y-109144185D01*
X110094204Y-109104082D01*
X110165000Y-109090000D01*
X110535000Y-109090000D01*
X110605796Y-109104082D01*
G37*
G36*
X109268685Y-108207969D02*
G01*
X109277358Y-108211798D01*
X109284925Y-108212901D01*
X109332223Y-108236023D01*
X109369541Y-108252501D01*
X109372996Y-108255956D01*
X109373920Y-108256408D01*
X109443591Y-108326079D01*
X109444042Y-108327002D01*
X109447499Y-108330459D01*
X109463978Y-108367782D01*
X109487098Y-108415073D01*
X109488200Y-108422639D01*
X109492031Y-108431315D01*
X109500000Y-108500000D01*
X109500000Y-109150000D01*
X109492031Y-109218685D01*
X109488199Y-109227361D01*
X109487098Y-109234925D01*
X109463985Y-109282202D01*
X109447499Y-109319541D01*
X109444041Y-109322998D01*
X109443591Y-109323920D01*
X109373920Y-109393591D01*
X109372998Y-109394041D01*
X109369541Y-109397499D01*
X109332207Y-109413983D01*
X109284926Y-109437098D01*
X109277361Y-109438200D01*
X109268685Y-109442031D01*
X109200000Y-109450000D01*
X107000000Y-109450000D01*
X106931315Y-109442031D01*
X106922638Y-109438200D01*
X106915074Y-109437098D01*
X106867787Y-109413981D01*
X106830459Y-109397499D01*
X106827002Y-109394042D01*
X106826079Y-109393591D01*
X106756408Y-109323920D01*
X106755956Y-109322996D01*
X106752501Y-109319541D01*
X106736025Y-109282228D01*
X106712901Y-109234926D01*
X106711798Y-109227357D01*
X106707969Y-109218685D01*
X106700000Y-109150000D01*
X106700000Y-108500000D01*
X106707969Y-108431315D01*
X106711798Y-108422642D01*
X106712901Y-108415074D01*
X106736028Y-108367766D01*
X106752501Y-108330459D01*
X106755955Y-108327004D01*
X106756408Y-108326079D01*
X106826079Y-108256408D01*
X106827004Y-108255955D01*
X106830459Y-108252501D01*
X106867761Y-108236030D01*
X106915073Y-108212901D01*
X106922642Y-108211798D01*
X106931315Y-108207969D01*
X107000000Y-108200000D01*
X109200000Y-108200000D01*
X109268685Y-108207969D01*
G37*
G36*
X113086409Y-107926275D02*
G01*
X113149958Y-107934641D01*
X113165943Y-107942095D01*
X113185238Y-107945933D01*
X113210792Y-107963008D01*
X113237290Y-107975364D01*
X113253412Y-107991486D01*
X113274454Y-108005546D01*
X113288513Y-108026587D01*
X113304635Y-108042709D01*
X113316990Y-108069204D01*
X113334067Y-108094762D01*
X113337905Y-108114058D01*
X113345358Y-108130041D01*
X113353722Y-108193577D01*
X113355000Y-108200000D01*
X113355000Y-108700000D01*
X113353722Y-108706424D01*
X113345358Y-108769958D01*
X113337905Y-108785939D01*
X113334067Y-108805238D01*
X113316988Y-108830797D01*
X113304635Y-108857290D01*
X113288516Y-108873408D01*
X113274454Y-108894454D01*
X113253408Y-108908516D01*
X113237290Y-108924635D01*
X113210797Y-108936988D01*
X113185238Y-108954067D01*
X113165939Y-108957905D01*
X113149958Y-108965358D01*
X113086424Y-108973722D01*
X113080000Y-108975000D01*
X112630000Y-108975000D01*
X112623577Y-108973722D01*
X112560041Y-108965358D01*
X112544058Y-108957905D01*
X112524762Y-108954067D01*
X112499204Y-108936990D01*
X112472709Y-108924635D01*
X112456587Y-108908513D01*
X112435546Y-108894454D01*
X112421486Y-108873412D01*
X112405364Y-108857290D01*
X112393008Y-108830792D01*
X112375933Y-108805238D01*
X112372095Y-108785943D01*
X112364641Y-108769958D01*
X112356275Y-108706409D01*
X112355000Y-108700000D01*
X112355000Y-108200000D01*
X112356274Y-108193592D01*
X112364641Y-108130041D01*
X112372095Y-108114054D01*
X112375933Y-108094762D01*
X112393006Y-108069209D01*
X112405364Y-108042709D01*
X112421488Y-108026584D01*
X112435546Y-108005546D01*
X112456584Y-107991488D01*
X112472709Y-107975364D01*
X112499209Y-107963006D01*
X112524762Y-107945933D01*
X112544054Y-107942095D01*
X112560041Y-107934641D01*
X112623592Y-107926274D01*
X112630000Y-107925000D01*
X113080000Y-107925000D01*
X113086409Y-107926275D01*
G37*
G36*
X114636409Y-107926275D02*
G01*
X114699958Y-107934641D01*
X114715943Y-107942095D01*
X114735238Y-107945933D01*
X114760792Y-107963008D01*
X114787290Y-107975364D01*
X114803412Y-107991486D01*
X114824454Y-108005546D01*
X114838513Y-108026587D01*
X114854635Y-108042709D01*
X114866990Y-108069204D01*
X114884067Y-108094762D01*
X114887905Y-108114058D01*
X114895358Y-108130041D01*
X114903722Y-108193577D01*
X114905000Y-108200000D01*
X114905000Y-108700000D01*
X114903722Y-108706424D01*
X114895358Y-108769958D01*
X114887905Y-108785939D01*
X114884067Y-108805238D01*
X114866988Y-108830797D01*
X114854635Y-108857290D01*
X114838516Y-108873408D01*
X114824454Y-108894454D01*
X114803408Y-108908516D01*
X114787290Y-108924635D01*
X114760797Y-108936988D01*
X114735238Y-108954067D01*
X114715939Y-108957905D01*
X114699958Y-108965358D01*
X114636424Y-108973722D01*
X114630000Y-108975000D01*
X114180000Y-108975000D01*
X114173577Y-108973722D01*
X114110041Y-108965358D01*
X114094058Y-108957905D01*
X114074762Y-108954067D01*
X114049204Y-108936990D01*
X114022709Y-108924635D01*
X114006587Y-108908513D01*
X113985546Y-108894454D01*
X113971486Y-108873412D01*
X113955364Y-108857290D01*
X113943008Y-108830792D01*
X113925933Y-108805238D01*
X113922095Y-108785943D01*
X113914641Y-108769958D01*
X113906275Y-108706409D01*
X113905000Y-108700000D01*
X113905000Y-108200000D01*
X113906274Y-108193592D01*
X113914641Y-108130041D01*
X113922095Y-108114054D01*
X113925933Y-108094762D01*
X113943006Y-108069209D01*
X113955364Y-108042709D01*
X113971488Y-108026584D01*
X113985546Y-108005546D01*
X114006584Y-107991488D01*
X114022709Y-107975364D01*
X114049209Y-107963006D01*
X114074762Y-107945933D01*
X114094054Y-107942095D01*
X114110041Y-107934641D01*
X114173592Y-107926274D01*
X114180000Y-107925000D01*
X114630000Y-107925000D01*
X114636409Y-107926275D01*
G37*
G36*
X110605796Y-108084082D02*
G01*
X110665815Y-108124185D01*
X110705918Y-108184204D01*
X110720000Y-108255000D01*
X110720000Y-108525000D01*
X110705918Y-108595796D01*
X110665815Y-108655815D01*
X110605796Y-108695918D01*
X110535000Y-108710000D01*
X110165000Y-108710000D01*
X110094204Y-108695918D01*
X110034185Y-108655815D01*
X109994082Y-108595796D01*
X109980000Y-108525000D01*
X109980000Y-108255000D01*
X109994082Y-108184204D01*
X110034185Y-108124185D01*
X110094204Y-108084082D01*
X110165000Y-108070000D01*
X110535000Y-108070000D01*
X110605796Y-108084082D01*
G37*
G36*
X94270796Y-107059082D02*
G01*
X94330815Y-107099185D01*
X94370918Y-107159204D01*
X94385000Y-107230000D01*
X94385000Y-107600000D01*
X94370918Y-107670796D01*
X94330815Y-107730815D01*
X94270796Y-107770918D01*
X94200000Y-107785000D01*
X93930000Y-107785000D01*
X93859204Y-107770918D01*
X93799185Y-107730815D01*
X93759082Y-107670796D01*
X93745000Y-107600000D01*
X93745000Y-107230000D01*
X93759082Y-107159204D01*
X93799185Y-107099185D01*
X93859204Y-107059082D01*
X93930000Y-107045000D01*
X94200000Y-107045000D01*
X94270796Y-107059082D01*
G37*
G36*
X95290796Y-107059082D02*
G01*
X95350815Y-107099185D01*
X95390918Y-107159204D01*
X95405000Y-107230000D01*
X95405000Y-107600000D01*
X95390918Y-107670796D01*
X95350815Y-107730815D01*
X95290796Y-107770918D01*
X95220000Y-107785000D01*
X94950000Y-107785000D01*
X94879204Y-107770918D01*
X94819185Y-107730815D01*
X94779082Y-107670796D01*
X94765000Y-107600000D01*
X94765000Y-107230000D01*
X94779082Y-107159204D01*
X94819185Y-107099185D01*
X94879204Y-107059082D01*
X94950000Y-107045000D01*
X95220000Y-107045000D01*
X95290796Y-107059082D01*
G37*
G36*
X98002710Y-107054463D02*
G01*
X98064350Y-107095650D01*
X98105537Y-107157290D01*
X98120000Y-107230000D01*
X98120000Y-107570000D01*
X98105537Y-107642710D01*
X98064350Y-107704350D01*
X98002710Y-107745537D01*
X97930000Y-107760000D01*
X97650000Y-107760000D01*
X97577290Y-107745537D01*
X97515650Y-107704350D01*
X97474463Y-107642710D01*
X97460000Y-107570000D01*
X97460000Y-107230000D01*
X97474463Y-107157290D01*
X97515650Y-107095650D01*
X97577290Y-107054463D01*
X97650000Y-107040000D01*
X97930000Y-107040000D01*
X98002710Y-107054463D01*
G37*
G36*
X98962710Y-107054463D02*
G01*
X99024350Y-107095650D01*
X99065537Y-107157290D01*
X99080000Y-107230000D01*
X99080000Y-107570000D01*
X99065537Y-107642710D01*
X99024350Y-107704350D01*
X98962710Y-107745537D01*
X98890000Y-107760000D01*
X98610000Y-107760000D01*
X98537290Y-107745537D01*
X98475650Y-107704350D01*
X98434463Y-107642710D01*
X98420000Y-107570000D01*
X98420000Y-107230000D01*
X98434463Y-107157290D01*
X98475650Y-107095650D01*
X98537290Y-107054463D01*
X98610000Y-107040000D01*
X98890000Y-107040000D01*
X98962710Y-107054463D01*
G37*
G36*
X111239679Y-105725284D02*
G01*
X111322198Y-105772926D01*
X111389574Y-105840302D01*
X111437216Y-105922821D01*
X111461877Y-106014858D01*
X111465000Y-106062500D01*
X111465000Y-107297500D01*
X111461877Y-107345142D01*
X111437216Y-107437179D01*
X111389574Y-107519698D01*
X111322198Y-107587074D01*
X111239679Y-107634716D01*
X111147642Y-107659377D01*
X111052358Y-107659377D01*
X110960321Y-107634716D01*
X110877802Y-107587074D01*
X110810426Y-107519698D01*
X110762784Y-107437179D01*
X110738123Y-107345142D01*
X110735000Y-107297500D01*
X110735000Y-106062500D01*
X110738123Y-106014858D01*
X110762784Y-105922821D01*
X110810426Y-105840302D01*
X110877802Y-105772926D01*
X110960321Y-105725284D01*
X111052358Y-105700623D01*
X111147642Y-105700623D01*
X111239679Y-105725284D01*
G37*
G36*
X112509679Y-105725284D02*
G01*
X112592198Y-105772926D01*
X112659574Y-105840302D01*
X112707216Y-105922821D01*
X112731877Y-106014858D01*
X112735000Y-106062500D01*
X112735000Y-107297500D01*
X112731877Y-107345142D01*
X112707216Y-107437179D01*
X112659574Y-107519698D01*
X112592198Y-107587074D01*
X112509679Y-107634716D01*
X112417642Y-107659377D01*
X112322358Y-107659377D01*
X112230321Y-107634716D01*
X112147802Y-107587074D01*
X112080426Y-107519698D01*
X112032784Y-107437179D01*
X112008123Y-107345142D01*
X112005000Y-107297500D01*
X112005000Y-106062500D01*
X112008123Y-106014858D01*
X112032784Y-105922821D01*
X112080426Y-105840302D01*
X112147802Y-105772926D01*
X112230321Y-105725284D01*
X112322358Y-105700623D01*
X112417642Y-105700623D01*
X112509679Y-105725284D01*
G37*
G36*
X113769679Y-105725284D02*
G01*
X113852198Y-105772926D01*
X113919574Y-105840302D01*
X113967216Y-105922821D01*
X113991877Y-106014858D01*
X113995000Y-106062500D01*
X113995000Y-107297500D01*
X113991877Y-107345142D01*
X113967216Y-107437179D01*
X113919574Y-107519698D01*
X113852198Y-107587074D01*
X113769679Y-107634716D01*
X113677642Y-107659377D01*
X113582358Y-107659377D01*
X113490321Y-107634716D01*
X113407802Y-107587074D01*
X113340426Y-107519698D01*
X113292784Y-107437179D01*
X113268123Y-107345142D01*
X113265000Y-107297500D01*
X113265000Y-106062500D01*
X113268123Y-106014858D01*
X113292784Y-105922821D01*
X113340426Y-105840302D01*
X113407802Y-105772926D01*
X113490321Y-105725284D01*
X113582358Y-105700623D01*
X113677642Y-105700623D01*
X113769679Y-105725284D01*
G37*
G36*
X115039679Y-105725284D02*
G01*
X115122198Y-105772926D01*
X115189574Y-105840302D01*
X115237216Y-105922821D01*
X115261877Y-106014858D01*
X115265000Y-106062500D01*
X115265000Y-107297500D01*
X115261877Y-107345142D01*
X115237216Y-107437179D01*
X115189574Y-107519698D01*
X115122198Y-107587074D01*
X115039679Y-107634716D01*
X114947642Y-107659377D01*
X114852358Y-107659377D01*
X114760321Y-107634716D01*
X114677802Y-107587074D01*
X114610426Y-107519698D01*
X114562784Y-107437179D01*
X114538123Y-107345142D01*
X114535000Y-107297500D01*
X114535000Y-106062500D01*
X114538123Y-106014858D01*
X114562784Y-105922821D01*
X114610426Y-105840302D01*
X114677802Y-105772926D01*
X114760321Y-105725284D01*
X114852358Y-105700623D01*
X114947642Y-105700623D01*
X115039679Y-105725284D01*
G37*
G36*
X102820796Y-106479082D02*
G01*
X102880815Y-106519185D01*
X102920918Y-106579204D01*
X102935000Y-106650000D01*
X102935000Y-106920000D01*
X102920918Y-106990796D01*
X102880815Y-107050815D01*
X102820796Y-107090918D01*
X102750000Y-107105000D01*
X102380000Y-107105000D01*
X102309204Y-107090918D01*
X102249185Y-107050815D01*
X102209082Y-106990796D01*
X102195000Y-106920000D01*
X102195000Y-106650000D01*
X102209082Y-106579204D01*
X102249185Y-106519185D01*
X102309204Y-106479082D01*
X102380000Y-106465000D01*
X102750000Y-106465000D01*
X102820796Y-106479082D01*
G37*
G36*
X103970796Y-106479082D02*
G01*
X104030815Y-106519185D01*
X104070918Y-106579204D01*
X104085000Y-106650000D01*
X104085000Y-106920000D01*
X104070918Y-106990796D01*
X104030815Y-107050815D01*
X103970796Y-107090918D01*
X103900000Y-107105000D01*
X103530000Y-107105000D01*
X103459204Y-107090918D01*
X103399185Y-107050815D01*
X103359082Y-106990796D01*
X103345000Y-106920000D01*
X103345000Y-106650000D01*
X103359082Y-106579204D01*
X103399185Y-106519185D01*
X103459204Y-106479082D01*
X103530000Y-106465000D01*
X103900000Y-106465000D01*
X103970796Y-106479082D01*
G37*
G36*
X109045796Y-106324082D02*
G01*
X109105815Y-106364185D01*
X109145918Y-106424204D01*
X109160000Y-106495000D01*
X109160000Y-106865000D01*
X109145918Y-106935796D01*
X109105815Y-106995815D01*
X109045796Y-107035918D01*
X108975000Y-107050000D01*
X108705000Y-107050000D01*
X108634204Y-107035918D01*
X108574185Y-106995815D01*
X108534082Y-106935796D01*
X108520000Y-106865000D01*
X108520000Y-106495000D01*
X108534082Y-106424204D01*
X108574185Y-106364185D01*
X108634204Y-106324082D01*
X108705000Y-106310000D01*
X108975000Y-106310000D01*
X109045796Y-106324082D01*
G37*
G36*
X110065796Y-106324082D02*
G01*
X110125815Y-106364185D01*
X110165918Y-106424204D01*
X110180000Y-106495000D01*
X110180000Y-106865000D01*
X110165918Y-106935796D01*
X110125815Y-106995815D01*
X110065796Y-107035918D01*
X109995000Y-107050000D01*
X109725000Y-107050000D01*
X109654204Y-107035918D01*
X109594185Y-106995815D01*
X109554082Y-106935796D01*
X109540000Y-106865000D01*
X109540000Y-106495000D01*
X109554082Y-106424204D01*
X109594185Y-106364185D01*
X109654204Y-106324082D01*
X109725000Y-106310000D01*
X109995000Y-106310000D01*
X110065796Y-106324082D01*
G37*
G36*
X105914134Y-106373806D02*
G01*
X105930355Y-106384645D01*
X105941194Y-106400866D01*
X105945000Y-106420000D01*
X105945000Y-106770000D01*
X105941194Y-106789134D01*
X105930355Y-106805355D01*
X105914134Y-106816194D01*
X105895000Y-106820000D01*
X105045000Y-106820000D01*
X105025866Y-106816194D01*
X105009645Y-106805355D01*
X104998806Y-106789134D01*
X104995000Y-106770000D01*
X104995000Y-106420000D01*
X104998806Y-106400866D01*
X105009645Y-106384645D01*
X105025866Y-106373806D01*
X105045000Y-106370000D01*
X105895000Y-106370000D01*
X105914134Y-106373806D01*
G37*
G36*
X108114134Y-106373806D02*
G01*
X108130355Y-106384645D01*
X108141194Y-106400866D01*
X108145000Y-106420000D01*
X108145000Y-106770000D01*
X108141194Y-106789134D01*
X108130355Y-106805355D01*
X108114134Y-106816194D01*
X108095000Y-106820000D01*
X107245000Y-106820000D01*
X107225866Y-106816194D01*
X107209645Y-106805355D01*
X107198806Y-106789134D01*
X107195000Y-106770000D01*
X107195000Y-106420000D01*
X107198806Y-106400866D01*
X107209645Y-106384645D01*
X107225866Y-106373806D01*
X107245000Y-106370000D01*
X108095000Y-106370000D01*
X108114134Y-106373806D01*
G37*
G36*
X94270796Y-105909082D02*
G01*
X94330815Y-105949185D01*
X94370918Y-106009204D01*
X94385000Y-106080000D01*
X94385000Y-106450000D01*
X94370918Y-106520796D01*
X94330815Y-106580815D01*
X94270796Y-106620918D01*
X94200000Y-106635000D01*
X93930000Y-106635000D01*
X93859204Y-106620918D01*
X93799185Y-106580815D01*
X93759082Y-106520796D01*
X93745000Y-106450000D01*
X93745000Y-106080000D01*
X93759082Y-106009204D01*
X93799185Y-105949185D01*
X93859204Y-105909082D01*
X93930000Y-105895000D01*
X94200000Y-105895000D01*
X94270796Y-105909082D01*
G37*
G36*
X95290796Y-105909082D02*
G01*
X95350815Y-105949185D01*
X95390918Y-106009204D01*
X95405000Y-106080000D01*
X95405000Y-106450000D01*
X95390918Y-106520796D01*
X95350815Y-106580815D01*
X95290796Y-106620918D01*
X95220000Y-106635000D01*
X94950000Y-106635000D01*
X94879204Y-106620918D01*
X94819185Y-106580815D01*
X94779082Y-106520796D01*
X94765000Y-106450000D01*
X94765000Y-106080000D01*
X94779082Y-106009204D01*
X94819185Y-105949185D01*
X94879204Y-105909082D01*
X94950000Y-105895000D01*
X95220000Y-105895000D01*
X95290796Y-105909082D01*
G37*
G36*
X105914134Y-105723806D02*
G01*
X105930355Y-105734645D01*
X105941194Y-105750866D01*
X105945000Y-105770000D01*
X105945000Y-106120000D01*
X105941194Y-106139134D01*
X105930355Y-106155355D01*
X105914134Y-106166194D01*
X105895000Y-106170000D01*
X105045000Y-106170000D01*
X105025866Y-106166194D01*
X105009645Y-106155355D01*
X104998806Y-106139134D01*
X104995000Y-106120000D01*
X104995000Y-105770000D01*
X104998806Y-105750866D01*
X105009645Y-105734645D01*
X105025866Y-105723806D01*
X105045000Y-105720000D01*
X105895000Y-105720000D01*
X105914134Y-105723806D01*
G37*
G36*
X108114134Y-105723806D02*
G01*
X108130355Y-105734645D01*
X108141194Y-105750866D01*
X108145000Y-105770000D01*
X108145000Y-106120000D01*
X108141194Y-106139134D01*
X108130355Y-106155355D01*
X108114134Y-106166194D01*
X108095000Y-106170000D01*
X107245000Y-106170000D01*
X107225866Y-106166194D01*
X107209645Y-106155355D01*
X107198806Y-106139134D01*
X107195000Y-106120000D01*
X107195000Y-105770000D01*
X107198806Y-105750866D01*
X107209645Y-105734645D01*
X107225866Y-105723806D01*
X107245000Y-105720000D01*
X108095000Y-105720000D01*
X108114134Y-105723806D01*
G37*
G36*
X102820796Y-105459082D02*
G01*
X102880815Y-105499185D01*
X102920918Y-105559204D01*
X102935000Y-105630000D01*
X102935000Y-105900000D01*
X102920918Y-105970796D01*
X102880815Y-106030815D01*
X102820796Y-106070918D01*
X102750000Y-106085000D01*
X102380000Y-106085000D01*
X102309204Y-106070918D01*
X102249185Y-106030815D01*
X102209082Y-105970796D01*
X102195000Y-105900000D01*
X102195000Y-105630000D01*
X102209082Y-105559204D01*
X102249185Y-105499185D01*
X102309204Y-105459082D01*
X102380000Y-105445000D01*
X102750000Y-105445000D01*
X102820796Y-105459082D01*
G37*
G36*
X103970796Y-105459082D02*
G01*
X104030815Y-105499185D01*
X104070918Y-105559204D01*
X104085000Y-105630000D01*
X104085000Y-105900000D01*
X104070918Y-105970796D01*
X104030815Y-106030815D01*
X103970796Y-106070918D01*
X103900000Y-106085000D01*
X103530000Y-106085000D01*
X103459204Y-106070918D01*
X103399185Y-106030815D01*
X103359082Y-105970796D01*
X103345000Y-105900000D01*
X103345000Y-105630000D01*
X103359082Y-105559204D01*
X103399185Y-105499185D01*
X103459204Y-105459082D01*
X103530000Y-105445000D01*
X103900000Y-105445000D01*
X103970796Y-105459082D01*
G37*
G36*
X109870796Y-105279082D02*
G01*
X109930815Y-105319185D01*
X109970918Y-105379204D01*
X109985000Y-105450000D01*
X109985000Y-105720000D01*
X109970918Y-105790796D01*
X109930815Y-105850815D01*
X109870796Y-105890918D01*
X109800000Y-105905000D01*
X109430000Y-105905000D01*
X109359204Y-105890918D01*
X109299185Y-105850815D01*
X109259082Y-105790796D01*
X109245000Y-105720000D01*
X109245000Y-105450000D01*
X109259082Y-105379204D01*
X109299185Y-105319185D01*
X109359204Y-105279082D01*
X109430000Y-105265000D01*
X109800000Y-105265000D01*
X109870796Y-105279082D01*
G37*
G36*
X105914134Y-105073806D02*
G01*
X105930355Y-105084645D01*
X105941194Y-105100866D01*
X105945000Y-105120000D01*
X105945000Y-105470000D01*
X105941194Y-105489134D01*
X105930355Y-105505355D01*
X105914134Y-105516194D01*
X105895000Y-105520000D01*
X105045000Y-105520000D01*
X105025866Y-105516194D01*
X105009645Y-105505355D01*
X104998806Y-105489134D01*
X104995000Y-105470000D01*
X104995000Y-105120000D01*
X104998806Y-105100866D01*
X105009645Y-105084645D01*
X105025866Y-105073806D01*
X105045000Y-105070000D01*
X105895000Y-105070000D01*
X105914134Y-105073806D01*
G37*
G36*
X108114134Y-105073806D02*
G01*
X108130355Y-105084645D01*
X108141194Y-105100866D01*
X108145000Y-105120000D01*
X108145000Y-105470000D01*
X108141194Y-105489134D01*
X108130355Y-105505355D01*
X108114134Y-105516194D01*
X108095000Y-105520000D01*
X107245000Y-105520000D01*
X107225866Y-105516194D01*
X107209645Y-105505355D01*
X107198806Y-105489134D01*
X107195000Y-105470000D01*
X107195000Y-105120000D01*
X107198806Y-105100866D01*
X107209645Y-105084645D01*
X107225866Y-105073806D01*
X107245000Y-105070000D01*
X108095000Y-105070000D01*
X108114134Y-105073806D01*
G37*
G36*
X114719134Y-102598806D02*
G01*
X114735355Y-102609645D01*
X114746194Y-102625866D01*
X114750000Y-102645000D01*
X114750000Y-105355000D01*
X114746194Y-105374134D01*
X114735355Y-105390355D01*
X114719134Y-105401194D01*
X114700000Y-105405000D01*
X111300000Y-105405000D01*
X111280866Y-105401194D01*
X111264645Y-105390355D01*
X111253806Y-105374134D01*
X111250000Y-105355000D01*
X111250000Y-102645000D01*
X111253806Y-102625866D01*
X111264645Y-102609645D01*
X111280866Y-102598806D01*
X111300000Y-102595000D01*
X114700000Y-102595000D01*
X114719134Y-102598806D01*
G37*
G36*
X109870796Y-104259082D02*
G01*
X109930815Y-104299185D01*
X109970918Y-104359204D01*
X109985000Y-104430000D01*
X109985000Y-104700000D01*
X109970918Y-104770796D01*
X109930815Y-104830815D01*
X109870796Y-104870918D01*
X109800000Y-104885000D01*
X109430000Y-104885000D01*
X109359204Y-104870918D01*
X109299185Y-104830815D01*
X109259082Y-104770796D01*
X109245000Y-104700000D01*
X109245000Y-104430000D01*
X109259082Y-104359204D01*
X109299185Y-104299185D01*
X109359204Y-104259082D01*
X109430000Y-104245000D01*
X109800000Y-104245000D01*
X109870796Y-104259082D01*
G37*
G36*
X85071789Y-103774705D02*
G01*
X85210476Y-103811866D01*
X85334819Y-103883656D01*
X85436344Y-103985181D01*
X85508134Y-104109524D01*
X85545295Y-104248211D01*
X85545295Y-104391789D01*
X85508134Y-104530476D01*
X85436344Y-104654819D01*
X85334819Y-104756344D01*
X85210476Y-104828134D01*
X85071789Y-104865295D01*
X85000000Y-104870000D01*
X84998363Y-104870000D01*
X84201637Y-104870000D01*
X84200000Y-104870000D01*
X84128211Y-104865295D01*
X83989524Y-104828134D01*
X83865181Y-104756344D01*
X83763656Y-104654819D01*
X83691866Y-104530476D01*
X83654705Y-104391789D01*
X83654705Y-104248211D01*
X83691866Y-104109524D01*
X83763656Y-103985181D01*
X83865181Y-103883656D01*
X83989524Y-103811866D01*
X84128211Y-103774705D01*
X84200000Y-103770000D01*
X85000000Y-103770000D01*
X85071789Y-103774705D01*
G37*
G36*
X89401789Y-103774705D02*
G01*
X89540476Y-103811866D01*
X89664819Y-103883656D01*
X89766344Y-103985181D01*
X89838134Y-104109524D01*
X89875295Y-104248211D01*
X89875295Y-104391789D01*
X89838134Y-104530476D01*
X89766344Y-104654819D01*
X89664819Y-104756344D01*
X89540476Y-104828134D01*
X89401789Y-104865295D01*
X89330000Y-104870000D01*
X89328363Y-104870000D01*
X88231637Y-104870000D01*
X88230000Y-104870000D01*
X88158211Y-104865295D01*
X88019524Y-104828134D01*
X87895181Y-104756344D01*
X87793656Y-104654819D01*
X87721866Y-104530476D01*
X87684705Y-104391789D01*
X87684705Y-104248211D01*
X87721866Y-104109524D01*
X87793656Y-103985181D01*
X87895181Y-103883656D01*
X88019524Y-103811866D01*
X88158211Y-103774705D01*
X88230000Y-103770000D01*
X89330000Y-103770000D01*
X89401789Y-103774705D01*
G37*
G36*
X107737710Y-103409463D02*
G01*
X107799350Y-103450650D01*
X107840537Y-103512290D01*
X107855000Y-103585000D01*
X107855000Y-103925000D01*
X107840537Y-103997710D01*
X107799350Y-104059350D01*
X107737710Y-104100537D01*
X107665000Y-104115000D01*
X107385000Y-104115000D01*
X107312290Y-104100537D01*
X107250650Y-104059350D01*
X107209463Y-103997710D01*
X107195000Y-103925000D01*
X107195000Y-103585000D01*
X107209463Y-103512290D01*
X107250650Y-103450650D01*
X107312290Y-103409463D01*
X107385000Y-103395000D01*
X107665000Y-103395000D01*
X107737710Y-103409463D01*
G37*
G36*
X108697710Y-103409463D02*
G01*
X108759350Y-103450650D01*
X108800537Y-103512290D01*
X108815000Y-103585000D01*
X108815000Y-103925000D01*
X108800537Y-103997710D01*
X108759350Y-104059350D01*
X108697710Y-104100537D01*
X108625000Y-104115000D01*
X108345000Y-104115000D01*
X108272290Y-104100537D01*
X108210650Y-104059350D01*
X108169463Y-103997710D01*
X108155000Y-103925000D01*
X108155000Y-103585000D01*
X108169463Y-103512290D01*
X108210650Y-103450650D01*
X108272290Y-103409463D01*
X108345000Y-103395000D01*
X108625000Y-103395000D01*
X108697710Y-103409463D01*
G37*
G36*
X88423506Y-102543545D02*
G01*
X88508286Y-102592492D01*
X88577508Y-102661714D01*
X88626455Y-102746494D01*
X88651792Y-102841053D01*
X88651792Y-102938947D01*
X88626455Y-103033506D01*
X88577508Y-103118286D01*
X88508286Y-103187508D01*
X88423506Y-103236455D01*
X88328947Y-103261792D01*
X88231053Y-103261792D01*
X88136494Y-103236455D01*
X88051714Y-103187508D01*
X87982492Y-103118286D01*
X87933545Y-103033506D01*
X87908208Y-102938947D01*
X87908208Y-102841053D01*
X87933545Y-102746494D01*
X87982492Y-102661714D01*
X88051714Y-102592492D01*
X88136494Y-102543545D01*
X88231053Y-102518208D01*
X88328947Y-102518208D01*
X88423506Y-102543545D01*
G37*
G36*
X108964134Y-102198806D02*
G01*
X108980355Y-102209645D01*
X108991194Y-102225866D01*
X108995000Y-102245000D01*
X108995000Y-102845000D01*
X108991194Y-102864134D01*
X108980355Y-102880355D01*
X108964134Y-102891194D01*
X108945000Y-102895000D01*
X108645000Y-102895000D01*
X108625866Y-102891194D01*
X108609645Y-102880355D01*
X108598806Y-102864134D01*
X108595000Y-102845000D01*
X108595000Y-102245000D01*
X108598806Y-102225866D01*
X108609645Y-102209645D01*
X108625866Y-102198806D01*
X108645000Y-102195000D01*
X108945000Y-102195000D01*
X108964134Y-102198806D01*
G37*
G36*
X109464134Y-102198806D02*
G01*
X109480355Y-102209645D01*
X109491194Y-102225866D01*
X109495000Y-102245000D01*
X109495000Y-102845000D01*
X109491194Y-102864134D01*
X109480355Y-102880355D01*
X109464134Y-102891194D01*
X109445000Y-102895000D01*
X109145000Y-102895000D01*
X109125866Y-102891194D01*
X109109645Y-102880355D01*
X109098806Y-102864134D01*
X109095000Y-102845000D01*
X109095000Y-102245000D01*
X109098806Y-102225866D01*
X109109645Y-102209645D01*
X109125866Y-102198806D01*
X109145000Y-102195000D01*
X109445000Y-102195000D01*
X109464134Y-102198806D01*
G37*
G36*
X109964134Y-102198806D02*
G01*
X109980355Y-102209645D01*
X109991194Y-102225866D01*
X109995000Y-102245000D01*
X109995000Y-102845000D01*
X109991194Y-102864134D01*
X109980355Y-102880355D01*
X109964134Y-102891194D01*
X109945000Y-102895000D01*
X109645000Y-102895000D01*
X109625866Y-102891194D01*
X109609645Y-102880355D01*
X109598806Y-102864134D01*
X109595000Y-102845000D01*
X109595000Y-102245000D01*
X109598806Y-102225866D01*
X109609645Y-102209645D01*
X109625866Y-102198806D01*
X109645000Y-102195000D01*
X109945000Y-102195000D01*
X109964134Y-102198806D01*
G37*
G36*
X107970796Y-101979082D02*
G01*
X108030815Y-102019185D01*
X108070918Y-102079204D01*
X108085000Y-102150000D01*
X108085000Y-102420000D01*
X108070918Y-102490796D01*
X108030815Y-102550815D01*
X107970796Y-102590918D01*
X107900000Y-102605000D01*
X107530000Y-102605000D01*
X107459204Y-102590918D01*
X107399185Y-102550815D01*
X107359082Y-102490796D01*
X107345000Y-102420000D01*
X107345000Y-102150000D01*
X107359082Y-102079204D01*
X107399185Y-102019185D01*
X107459204Y-101979082D01*
X107530000Y-101965000D01*
X107900000Y-101965000D01*
X107970796Y-101979082D01*
G37*
G36*
X111239679Y-100365284D02*
G01*
X111322198Y-100412926D01*
X111389574Y-100480302D01*
X111437216Y-100562821D01*
X111461877Y-100654858D01*
X111465000Y-100702500D01*
X111465000Y-101937500D01*
X111461877Y-101985142D01*
X111437216Y-102077179D01*
X111389574Y-102159698D01*
X111322198Y-102227074D01*
X111239679Y-102274716D01*
X111147642Y-102299377D01*
X111052358Y-102299377D01*
X110960321Y-102274716D01*
X110877802Y-102227074D01*
X110810426Y-102159698D01*
X110762784Y-102077179D01*
X110738123Y-101985142D01*
X110735000Y-101937500D01*
X110735000Y-100702500D01*
X110738123Y-100654858D01*
X110762784Y-100562821D01*
X110810426Y-100480302D01*
X110877802Y-100412926D01*
X110960321Y-100365284D01*
X111052358Y-100340623D01*
X111147642Y-100340623D01*
X111239679Y-100365284D01*
G37*
G36*
X112509679Y-100365284D02*
G01*
X112592198Y-100412926D01*
X112659574Y-100480302D01*
X112707216Y-100562821D01*
X112731877Y-100654858D01*
X112735000Y-100702500D01*
X112735000Y-101937500D01*
X112731877Y-101985142D01*
X112707216Y-102077179D01*
X112659574Y-102159698D01*
X112592198Y-102227074D01*
X112509679Y-102274716D01*
X112417642Y-102299377D01*
X112322358Y-102299377D01*
X112230321Y-102274716D01*
X112147802Y-102227074D01*
X112080426Y-102159698D01*
X112032784Y-102077179D01*
X112008123Y-101985142D01*
X112005000Y-101937500D01*
X112005000Y-100702500D01*
X112008123Y-100654858D01*
X112032784Y-100562821D01*
X112080426Y-100480302D01*
X112147802Y-100412926D01*
X112230321Y-100365284D01*
X112322358Y-100340623D01*
X112417642Y-100340623D01*
X112509679Y-100365284D01*
G37*
G36*
X113769679Y-100365284D02*
G01*
X113852198Y-100412926D01*
X113919574Y-100480302D01*
X113967216Y-100562821D01*
X113991877Y-100654858D01*
X113995000Y-100702500D01*
X113995000Y-101937500D01*
X113991877Y-101985142D01*
X113967216Y-102077179D01*
X113919574Y-102159698D01*
X113852198Y-102227074D01*
X113769679Y-102274716D01*
X113677642Y-102299377D01*
X113582358Y-102299377D01*
X113490321Y-102274716D01*
X113407802Y-102227074D01*
X113340426Y-102159698D01*
X113292784Y-102077179D01*
X113268123Y-101985142D01*
X113265000Y-101937500D01*
X113265000Y-100702500D01*
X113268123Y-100654858D01*
X113292784Y-100562821D01*
X113340426Y-100480302D01*
X113407802Y-100412926D01*
X113490321Y-100365284D01*
X113582358Y-100340623D01*
X113677642Y-100340623D01*
X113769679Y-100365284D01*
G37*
G36*
X115039679Y-100365284D02*
G01*
X115122198Y-100412926D01*
X115189574Y-100480302D01*
X115237216Y-100562821D01*
X115261877Y-100654858D01*
X115265000Y-100702500D01*
X115265000Y-101937500D01*
X115261877Y-101985142D01*
X115237216Y-102077179D01*
X115189574Y-102159698D01*
X115122198Y-102227074D01*
X115039679Y-102274716D01*
X114947642Y-102299377D01*
X114852358Y-102299377D01*
X114760321Y-102274716D01*
X114677802Y-102227074D01*
X114610426Y-102159698D01*
X114562784Y-102077179D01*
X114538123Y-101985142D01*
X114535000Y-101937500D01*
X114535000Y-100702500D01*
X114538123Y-100654858D01*
X114562784Y-100562821D01*
X114610426Y-100480302D01*
X114677802Y-100412926D01*
X114760321Y-100365284D01*
X114852358Y-100340623D01*
X114947642Y-100340623D01*
X115039679Y-100365284D01*
G37*
G36*
X86299134Y-100703806D02*
G01*
X86315355Y-100714645D01*
X86326194Y-100730866D01*
X86330000Y-100750000D01*
X86330000Y-101850000D01*
X86326194Y-101869134D01*
X86315355Y-101885355D01*
X86299134Y-101896194D01*
X86280000Y-101900000D01*
X85380000Y-101900000D01*
X85360866Y-101896194D01*
X85344645Y-101885355D01*
X85333806Y-101869134D01*
X85330000Y-101850000D01*
X85330000Y-100750000D01*
X85333806Y-100730866D01*
X85344645Y-100714645D01*
X85360866Y-100703806D01*
X85380000Y-100700000D01*
X86280000Y-100700000D01*
X86299134Y-100703806D01*
G37*
G36*
X88789134Y-100703806D02*
G01*
X88805355Y-100714645D01*
X88816194Y-100730866D01*
X88820000Y-100750000D01*
X88820000Y-101850000D01*
X88816194Y-101869134D01*
X88805355Y-101885355D01*
X88789134Y-101896194D01*
X88770000Y-101900000D01*
X86770000Y-101900000D01*
X86750866Y-101896194D01*
X86734645Y-101885355D01*
X86723806Y-101869134D01*
X86720000Y-101850000D01*
X86720000Y-100750000D01*
X86723806Y-100730866D01*
X86734645Y-100714645D01*
X86750866Y-100703806D01*
X86770000Y-100700000D01*
X88770000Y-100700000D01*
X88789134Y-100703806D01*
G37*
G36*
X107970796Y-100959082D02*
G01*
X108030815Y-100999185D01*
X108070918Y-101059204D01*
X108085000Y-101130000D01*
X108085000Y-101400000D01*
X108070918Y-101470796D01*
X108030815Y-101530815D01*
X107970796Y-101570918D01*
X107900000Y-101585000D01*
X107530000Y-101585000D01*
X107459204Y-101570918D01*
X107399185Y-101530815D01*
X107359082Y-101470796D01*
X107345000Y-101400000D01*
X107345000Y-101130000D01*
X107359082Y-101059204D01*
X107399185Y-100999185D01*
X107459204Y-100959082D01*
X107530000Y-100945000D01*
X107900000Y-100945000D01*
X107970796Y-100959082D01*
G37*
G36*
X108964134Y-100698806D02*
G01*
X108980355Y-100709645D01*
X108991194Y-100725866D01*
X108995000Y-100745000D01*
X108995000Y-101345000D01*
X108991194Y-101364134D01*
X108980355Y-101380355D01*
X108964134Y-101391194D01*
X108945000Y-101395000D01*
X108645000Y-101395000D01*
X108625866Y-101391194D01*
X108609645Y-101380355D01*
X108598806Y-101364134D01*
X108595000Y-101345000D01*
X108595000Y-100745000D01*
X108598806Y-100725866D01*
X108609645Y-100709645D01*
X108625866Y-100698806D01*
X108645000Y-100695000D01*
X108945000Y-100695000D01*
X108964134Y-100698806D01*
G37*
G36*
X109464134Y-100698806D02*
G01*
X109480355Y-100709645D01*
X109491194Y-100725866D01*
X109495000Y-100745000D01*
X109495000Y-101345000D01*
X109491194Y-101364134D01*
X109480355Y-101380355D01*
X109464134Y-101391194D01*
X109445000Y-101395000D01*
X109145000Y-101395000D01*
X109125866Y-101391194D01*
X109109645Y-101380355D01*
X109098806Y-101364134D01*
X109095000Y-101345000D01*
X109095000Y-100745000D01*
X109098806Y-100725866D01*
X109109645Y-100709645D01*
X109125866Y-100698806D01*
X109145000Y-100695000D01*
X109445000Y-100695000D01*
X109464134Y-100698806D01*
G37*
G36*
X109964134Y-100698806D02*
G01*
X109980355Y-100709645D01*
X109991194Y-100725866D01*
X109995000Y-100745000D01*
X109995000Y-101345000D01*
X109991194Y-101364134D01*
X109980355Y-101380355D01*
X109964134Y-101391194D01*
X109945000Y-101395000D01*
X109645000Y-101395000D01*
X109625866Y-101391194D01*
X109609645Y-101380355D01*
X109598806Y-101364134D01*
X109595000Y-101345000D01*
X109595000Y-100745000D01*
X109598806Y-100725866D01*
X109609645Y-100709645D01*
X109625866Y-100698806D01*
X109645000Y-100695000D01*
X109945000Y-100695000D01*
X109964134Y-100698806D01*
G37*
G36*
X91186342Y-99333060D02*
G01*
X91299381Y-99398323D01*
X91391677Y-99490619D01*
X91456940Y-99603658D01*
X91490722Y-99729737D01*
X91490722Y-99860263D01*
X91456940Y-99986342D01*
X91391677Y-100099381D01*
X91299381Y-100191677D01*
X91186342Y-100256940D01*
X91060263Y-100290722D01*
X90929737Y-100290722D01*
X90803658Y-100256940D01*
X90690619Y-100191677D01*
X90598323Y-100099381D01*
X90533060Y-99986342D01*
X90499278Y-99860263D01*
X90499278Y-99729737D01*
X90533060Y-99603658D01*
X90598323Y-99490619D01*
X90690619Y-99398323D01*
X90803658Y-99333060D01*
X90929737Y-99299278D01*
X91060263Y-99299278D01*
X91186342Y-99333060D01*
G37*
G36*
X86495796Y-99544082D02*
G01*
X86555815Y-99584185D01*
X86595918Y-99644204D01*
X86610000Y-99715000D01*
X86610000Y-100085000D01*
X86595918Y-100155796D01*
X86555815Y-100215815D01*
X86495796Y-100255918D01*
X86425000Y-100270000D01*
X86155000Y-100270000D01*
X86084204Y-100255918D01*
X86024185Y-100215815D01*
X85984082Y-100155796D01*
X85970000Y-100085000D01*
X85970000Y-99715000D01*
X85984082Y-99644204D01*
X86024185Y-99584185D01*
X86084204Y-99544082D01*
X86155000Y-99530000D01*
X86425000Y-99530000D01*
X86495796Y-99544082D01*
G37*
G36*
X87515796Y-99544082D02*
G01*
X87575815Y-99584185D01*
X87615918Y-99644204D01*
X87630000Y-99715000D01*
X87630000Y-100085000D01*
X87615918Y-100155796D01*
X87575815Y-100215815D01*
X87515796Y-100255918D01*
X87445000Y-100270000D01*
X87175000Y-100270000D01*
X87104204Y-100255918D01*
X87044185Y-100215815D01*
X87004082Y-100155796D01*
X86990000Y-100085000D01*
X86990000Y-99715000D01*
X87004082Y-99644204D01*
X87044185Y-99584185D01*
X87104204Y-99544082D01*
X87175000Y-99530000D01*
X87445000Y-99530000D01*
X87515796Y-99544082D01*
G37*
G36*
X108970796Y-99409082D02*
G01*
X109030815Y-99449185D01*
X109070918Y-99509204D01*
X109085000Y-99580000D01*
X109085000Y-99950000D01*
X109070918Y-100020796D01*
X109030815Y-100080815D01*
X108970796Y-100120918D01*
X108900000Y-100135000D01*
X108630000Y-100135000D01*
X108559204Y-100120918D01*
X108499185Y-100080815D01*
X108459082Y-100020796D01*
X108445000Y-99950000D01*
X108445000Y-99580000D01*
X108459082Y-99509204D01*
X108499185Y-99449185D01*
X108559204Y-99409082D01*
X108630000Y-99395000D01*
X108900000Y-99395000D01*
X108970796Y-99409082D01*
G37*
G36*
X109990796Y-99409082D02*
G01*
X110050815Y-99449185D01*
X110090918Y-99509204D01*
X110105000Y-99580000D01*
X110105000Y-99950000D01*
X110090918Y-100020796D01*
X110050815Y-100080815D01*
X109990796Y-100120918D01*
X109920000Y-100135000D01*
X109650000Y-100135000D01*
X109579204Y-100120918D01*
X109519185Y-100080815D01*
X109479082Y-100020796D01*
X109465000Y-99950000D01*
X109465000Y-99580000D01*
X109479082Y-99509204D01*
X109519185Y-99449185D01*
X109579204Y-99409082D01*
X109650000Y-99395000D01*
X109920000Y-99395000D01*
X109990796Y-99409082D01*
G37*
G36*
X114032710Y-99354463D02*
G01*
X114094350Y-99395650D01*
X114135537Y-99457290D01*
X114150000Y-99530000D01*
X114150000Y-99870000D01*
X114135537Y-99942710D01*
X114094350Y-100004350D01*
X114032710Y-100045537D01*
X113960000Y-100060000D01*
X113680000Y-100060000D01*
X113607290Y-100045537D01*
X113545650Y-100004350D01*
X113504463Y-99942710D01*
X113490000Y-99870000D01*
X113490000Y-99530000D01*
X113504463Y-99457290D01*
X113545650Y-99395650D01*
X113607290Y-99354463D01*
X113680000Y-99340000D01*
X113960000Y-99340000D01*
X114032710Y-99354463D01*
G37*
G36*
X114992710Y-99354463D02*
G01*
X115054350Y-99395650D01*
X115095537Y-99457290D01*
X115110000Y-99530000D01*
X115110000Y-99870000D01*
X115095537Y-99942710D01*
X115054350Y-100004350D01*
X114992710Y-100045537D01*
X114920000Y-100060000D01*
X114640000Y-100060000D01*
X114567290Y-100045537D01*
X114505650Y-100004350D01*
X114464463Y-99942710D01*
X114450000Y-99870000D01*
X114450000Y-99530000D01*
X114464463Y-99457290D01*
X114505650Y-99395650D01*
X114567290Y-99354463D01*
X114640000Y-99340000D01*
X114920000Y-99340000D01*
X114992710Y-99354463D01*
G37*
G36*
X86495796Y-98444082D02*
G01*
X86555815Y-98484185D01*
X86595918Y-98544204D01*
X86610000Y-98615000D01*
X86610000Y-98985000D01*
X86595918Y-99055796D01*
X86555815Y-99115815D01*
X86495796Y-99155918D01*
X86425000Y-99170000D01*
X86155000Y-99170000D01*
X86084204Y-99155918D01*
X86024185Y-99115815D01*
X85984082Y-99055796D01*
X85970000Y-98985000D01*
X85970000Y-98615000D01*
X85984082Y-98544204D01*
X86024185Y-98484185D01*
X86084204Y-98444082D01*
X86155000Y-98430000D01*
X86425000Y-98430000D01*
X86495796Y-98444082D01*
G37*
G36*
X87515796Y-98444082D02*
G01*
X87575815Y-98484185D01*
X87615918Y-98544204D01*
X87630000Y-98615000D01*
X87630000Y-98985000D01*
X87615918Y-99055796D01*
X87575815Y-99115815D01*
X87515796Y-99155918D01*
X87445000Y-99170000D01*
X87175000Y-99170000D01*
X87104204Y-99155918D01*
X87044185Y-99115815D01*
X87004082Y-99055796D01*
X86990000Y-98985000D01*
X86990000Y-98615000D01*
X87004082Y-98544204D01*
X87044185Y-98484185D01*
X87104204Y-98444082D01*
X87175000Y-98430000D01*
X87445000Y-98430000D01*
X87515796Y-98444082D01*
G37*
G36*
X115019134Y-96953806D02*
G01*
X115035355Y-96964645D01*
X115046194Y-96980866D01*
X115050000Y-97000000D01*
X115050000Y-99000000D01*
X115046194Y-99019134D01*
X115035355Y-99035355D01*
X115019134Y-99046194D01*
X115000000Y-99050000D01*
X111600000Y-99050000D01*
X111580866Y-99046194D01*
X111564645Y-99035355D01*
X111553806Y-99019134D01*
X111550000Y-99000000D01*
X111550000Y-97000000D01*
X111553806Y-96980866D01*
X111564645Y-96964645D01*
X111580866Y-96953806D01*
X111600000Y-96950000D01*
X115000000Y-96950000D01*
X115019134Y-96953806D01*
G37*
G36*
X109520796Y-98379082D02*
G01*
X109580815Y-98419185D01*
X109620918Y-98479204D01*
X109635000Y-98550000D01*
X109635000Y-98820000D01*
X109620918Y-98890796D01*
X109580815Y-98950815D01*
X109520796Y-98990918D01*
X109450000Y-99005000D01*
X109080000Y-99005000D01*
X109009204Y-98990918D01*
X108949185Y-98950815D01*
X108909082Y-98890796D01*
X108895000Y-98820000D01*
X108895000Y-98550000D01*
X108909082Y-98479204D01*
X108949185Y-98419185D01*
X109009204Y-98379082D01*
X109080000Y-98365000D01*
X109450000Y-98365000D01*
X109520796Y-98379082D01*
G37*
G36*
X91186342Y-97933060D02*
G01*
X91299381Y-97998323D01*
X91391677Y-98090619D01*
X91456940Y-98203658D01*
X91490722Y-98329737D01*
X91490722Y-98460263D01*
X91456940Y-98586342D01*
X91391677Y-98699381D01*
X91299381Y-98791677D01*
X91186342Y-98856940D01*
X91060263Y-98890722D01*
X90929737Y-98890722D01*
X90803658Y-98856940D01*
X90690619Y-98791677D01*
X90598323Y-98699381D01*
X90533060Y-98586342D01*
X90499278Y-98460263D01*
X90499278Y-98329737D01*
X90533060Y-98203658D01*
X90598323Y-98090619D01*
X90690619Y-97998323D01*
X90803658Y-97933060D01*
X90929737Y-97899278D01*
X91060263Y-97899278D01*
X91186342Y-97933060D01*
G37*
G36*
X109520796Y-97359082D02*
G01*
X109580815Y-97399185D01*
X109620918Y-97459204D01*
X109635000Y-97530000D01*
X109635000Y-97800000D01*
X109620918Y-97870796D01*
X109580815Y-97930815D01*
X109520796Y-97970918D01*
X109450000Y-97985000D01*
X109080000Y-97985000D01*
X109009204Y-97970918D01*
X108949185Y-97930815D01*
X108909082Y-97870796D01*
X108895000Y-97800000D01*
X108895000Y-97530000D01*
X108909082Y-97459204D01*
X108949185Y-97399185D01*
X109009204Y-97359082D01*
X109080000Y-97345000D01*
X109450000Y-97345000D01*
X109520796Y-97359082D01*
G37*
G36*
X88423506Y-96763545D02*
G01*
X88508286Y-96812492D01*
X88577508Y-96881714D01*
X88626455Y-96966494D01*
X88651792Y-97061053D01*
X88651792Y-97158947D01*
X88626455Y-97253506D01*
X88577508Y-97338286D01*
X88508286Y-97407508D01*
X88423506Y-97456455D01*
X88328947Y-97481792D01*
X88231053Y-97481792D01*
X88136494Y-97456455D01*
X88051714Y-97407508D01*
X87982492Y-97338286D01*
X87933545Y-97253506D01*
X87908208Y-97158947D01*
X87908208Y-97061053D01*
X87933545Y-96966494D01*
X87982492Y-96881714D01*
X88051714Y-96812492D01*
X88136494Y-96763545D01*
X88231053Y-96738208D01*
X88328947Y-96738208D01*
X88423506Y-96763545D01*
G37*
G36*
X109268685Y-95457969D02*
G01*
X109277358Y-95461798D01*
X109284925Y-95462901D01*
X109332223Y-95486023D01*
X109369541Y-95502501D01*
X109372996Y-95505956D01*
X109373920Y-95506408D01*
X109443591Y-95576079D01*
X109444042Y-95577002D01*
X109447499Y-95580459D01*
X109463978Y-95617782D01*
X109487098Y-95665073D01*
X109488200Y-95672639D01*
X109492031Y-95681315D01*
X109500000Y-95750000D01*
X109500000Y-96400000D01*
X109492031Y-96468685D01*
X109488199Y-96477361D01*
X109487098Y-96484925D01*
X109463985Y-96532202D01*
X109447499Y-96569541D01*
X109444041Y-96572998D01*
X109443591Y-96573920D01*
X109373920Y-96643591D01*
X109372998Y-96644041D01*
X109369541Y-96647499D01*
X109332207Y-96663983D01*
X109284926Y-96687098D01*
X109277361Y-96688200D01*
X109268685Y-96692031D01*
X109200000Y-96700000D01*
X107000000Y-96700000D01*
X106931315Y-96692031D01*
X106922638Y-96688200D01*
X106915074Y-96687098D01*
X106867787Y-96663981D01*
X106830459Y-96647499D01*
X106827002Y-96644042D01*
X106826079Y-96643591D01*
X106756408Y-96573920D01*
X106755956Y-96572996D01*
X106752501Y-96569541D01*
X106736025Y-96532228D01*
X106712901Y-96484926D01*
X106711798Y-96477357D01*
X106707969Y-96468685D01*
X106700000Y-96400000D01*
X106700000Y-95750000D01*
X106707969Y-95681315D01*
X106711798Y-95672642D01*
X106712901Y-95665074D01*
X106736028Y-95617766D01*
X106752501Y-95580459D01*
X106755955Y-95577004D01*
X106756408Y-95576079D01*
X106826079Y-95506408D01*
X106827004Y-95505955D01*
X106830459Y-95502501D01*
X106867761Y-95486030D01*
X106915073Y-95462901D01*
X106922642Y-95461798D01*
X106931315Y-95457969D01*
X107000000Y-95450000D01*
X109200000Y-95450000D01*
X109268685Y-95457969D01*
G37*
G36*
X91018685Y-95082969D02*
G01*
X91027358Y-95086798D01*
X91034925Y-95087901D01*
X91082223Y-95111023D01*
X91119541Y-95127501D01*
X91122996Y-95130956D01*
X91123920Y-95131408D01*
X91193591Y-95201079D01*
X91194042Y-95202002D01*
X91197499Y-95205459D01*
X91213978Y-95242782D01*
X91237098Y-95290073D01*
X91238200Y-95297639D01*
X91242031Y-95306315D01*
X91250000Y-95375000D01*
X91250000Y-96325000D01*
X91242031Y-96393685D01*
X91238199Y-96402361D01*
X91237098Y-96409925D01*
X91213985Y-96457202D01*
X91197499Y-96494541D01*
X91194041Y-96497998D01*
X91193591Y-96498920D01*
X91123920Y-96568591D01*
X91122998Y-96569041D01*
X91119541Y-96572499D01*
X91082207Y-96588983D01*
X91034926Y-96612098D01*
X91027361Y-96613200D01*
X91018685Y-96617031D01*
X90950000Y-96625000D01*
X90450000Y-96625000D01*
X90381315Y-96617031D01*
X90372638Y-96613200D01*
X90365074Y-96612098D01*
X90317787Y-96588981D01*
X90280459Y-96572499D01*
X90277002Y-96569042D01*
X90276079Y-96568591D01*
X90206408Y-96498920D01*
X90205956Y-96497996D01*
X90202501Y-96494541D01*
X90186025Y-96457228D01*
X90162901Y-96409926D01*
X90161798Y-96402357D01*
X90157969Y-96393685D01*
X90150000Y-96325000D01*
X90150000Y-95375000D01*
X90157969Y-95306315D01*
X90161798Y-95297642D01*
X90162901Y-95290074D01*
X90186028Y-95242766D01*
X90202501Y-95205459D01*
X90205955Y-95202004D01*
X90206408Y-95201079D01*
X90276079Y-95131408D01*
X90277004Y-95130955D01*
X90280459Y-95127501D01*
X90317761Y-95111030D01*
X90365073Y-95087901D01*
X90372642Y-95086798D01*
X90381315Y-95082969D01*
X90450000Y-95075000D01*
X90950000Y-95075000D01*
X91018685Y-95082969D01*
G37*
G36*
X92918685Y-95082969D02*
G01*
X92927358Y-95086798D01*
X92934925Y-95087901D01*
X92982223Y-95111023D01*
X93019541Y-95127501D01*
X93022996Y-95130956D01*
X93023920Y-95131408D01*
X93093591Y-95201079D01*
X93094042Y-95202002D01*
X93097499Y-95205459D01*
X93113978Y-95242782D01*
X93137098Y-95290073D01*
X93138200Y-95297639D01*
X93142031Y-95306315D01*
X93150000Y-95375000D01*
X93150000Y-96325000D01*
X93142031Y-96393685D01*
X93138199Y-96402361D01*
X93137098Y-96409925D01*
X93113985Y-96457202D01*
X93097499Y-96494541D01*
X93094041Y-96497998D01*
X93093591Y-96498920D01*
X93023920Y-96568591D01*
X93022998Y-96569041D01*
X93019541Y-96572499D01*
X92982207Y-96588983D01*
X92934926Y-96612098D01*
X92927361Y-96613200D01*
X92918685Y-96617031D01*
X92850000Y-96625000D01*
X92350000Y-96625000D01*
X92281315Y-96617031D01*
X92272638Y-96613200D01*
X92265074Y-96612098D01*
X92217787Y-96588981D01*
X92180459Y-96572499D01*
X92177002Y-96569042D01*
X92176079Y-96568591D01*
X92106408Y-96498920D01*
X92105956Y-96497996D01*
X92102501Y-96494541D01*
X92086025Y-96457228D01*
X92062901Y-96409926D01*
X92061798Y-96402357D01*
X92057969Y-96393685D01*
X92050000Y-96325000D01*
X92050000Y-95375000D01*
X92057969Y-95306315D01*
X92061798Y-95297642D01*
X92062901Y-95290074D01*
X92086028Y-95242766D01*
X92102501Y-95205459D01*
X92105955Y-95202004D01*
X92106408Y-95201079D01*
X92176079Y-95131408D01*
X92177004Y-95130955D01*
X92180459Y-95127501D01*
X92217761Y-95111030D01*
X92265073Y-95087901D01*
X92272642Y-95086798D01*
X92281315Y-95082969D01*
X92350000Y-95075000D01*
X92850000Y-95075000D01*
X92918685Y-95082969D01*
G37*
G36*
X95337710Y-95759463D02*
G01*
X95399350Y-95800650D01*
X95440537Y-95862290D01*
X95455000Y-95935000D01*
X95455000Y-96275000D01*
X95440537Y-96347710D01*
X95399350Y-96409350D01*
X95337710Y-96450537D01*
X95265000Y-96465000D01*
X94985000Y-96465000D01*
X94912290Y-96450537D01*
X94850650Y-96409350D01*
X94809463Y-96347710D01*
X94795000Y-96275000D01*
X94795000Y-95935000D01*
X94809463Y-95862290D01*
X94850650Y-95800650D01*
X94912290Y-95759463D01*
X94985000Y-95745000D01*
X95265000Y-95745000D01*
X95337710Y-95759463D01*
G37*
G36*
X96297710Y-95759463D02*
G01*
X96359350Y-95800650D01*
X96400537Y-95862290D01*
X96415000Y-95935000D01*
X96415000Y-96275000D01*
X96400537Y-96347710D01*
X96359350Y-96409350D01*
X96297710Y-96450537D01*
X96225000Y-96465000D01*
X95945000Y-96465000D01*
X95872290Y-96450537D01*
X95810650Y-96409350D01*
X95769463Y-96347710D01*
X95755000Y-96275000D01*
X95755000Y-95935000D01*
X95769463Y-95862290D01*
X95810650Y-95800650D01*
X95872290Y-95759463D01*
X95945000Y-95745000D01*
X96225000Y-95745000D01*
X96297710Y-95759463D01*
G37*
G36*
X85071789Y-95134705D02*
G01*
X85210476Y-95171866D01*
X85334819Y-95243656D01*
X85436344Y-95345181D01*
X85508134Y-95469524D01*
X85545295Y-95608211D01*
X85545295Y-95751789D01*
X85508134Y-95890476D01*
X85436344Y-96014819D01*
X85334819Y-96116344D01*
X85210476Y-96188134D01*
X85071789Y-96225295D01*
X85000000Y-96230000D01*
X84998363Y-96230000D01*
X84201637Y-96230000D01*
X84200000Y-96230000D01*
X84128211Y-96225295D01*
X83989524Y-96188134D01*
X83865181Y-96116344D01*
X83763656Y-96014819D01*
X83691866Y-95890476D01*
X83654705Y-95751789D01*
X83654705Y-95608211D01*
X83691866Y-95469524D01*
X83763656Y-95345181D01*
X83865181Y-95243656D01*
X83989524Y-95171866D01*
X84128211Y-95134705D01*
X84200000Y-95130000D01*
X85000000Y-95130000D01*
X85071789Y-95134705D01*
G37*
G36*
X89401789Y-95134705D02*
G01*
X89540476Y-95171866D01*
X89664819Y-95243656D01*
X89766344Y-95345181D01*
X89838134Y-95469524D01*
X89875295Y-95608211D01*
X89875295Y-95751789D01*
X89838134Y-95890476D01*
X89766344Y-96014819D01*
X89664819Y-96116344D01*
X89540476Y-96188134D01*
X89401789Y-96225295D01*
X89330000Y-96230000D01*
X89328363Y-96230000D01*
X88231637Y-96230000D01*
X88230000Y-96230000D01*
X88158211Y-96225295D01*
X88019524Y-96188134D01*
X87895181Y-96116344D01*
X87793656Y-96014819D01*
X87721866Y-95890476D01*
X87684705Y-95751789D01*
X87684705Y-95608211D01*
X87721866Y-95469524D01*
X87793656Y-95345181D01*
X87895181Y-95243656D01*
X88019524Y-95171866D01*
X88158211Y-95134705D01*
X88230000Y-95130000D01*
X89330000Y-95130000D01*
X89401789Y-95134705D01*
G37*
G36*
X93619134Y-92453806D02*
G01*
X93635355Y-92464645D01*
X93646194Y-92480866D01*
X93650000Y-92500000D01*
X93650000Y-94700000D01*
X93646194Y-94719134D01*
X93635355Y-94735355D01*
X93619134Y-94746194D01*
X93600000Y-94750000D01*
X92600000Y-94750000D01*
X92580866Y-94746194D01*
X92564645Y-94735355D01*
X92553806Y-94719134D01*
X92550000Y-94700000D01*
X92550000Y-92500000D01*
X92553806Y-92480866D01*
X92564645Y-92464645D01*
X92580866Y-92453806D01*
X92600000Y-92450000D01*
X93600000Y-92450000D01*
X93619134Y-92453806D01*
G37*
G36*
X95679134Y-92453806D02*
G01*
X95695355Y-92464645D01*
X95706194Y-92480866D01*
X95710000Y-92500000D01*
X95710000Y-94700000D01*
X95706194Y-94719134D01*
X95695355Y-94735355D01*
X95679134Y-94746194D01*
X95660000Y-94750000D01*
X94660000Y-94750000D01*
X94640866Y-94746194D01*
X94624645Y-94735355D01*
X94613806Y-94719134D01*
X94610000Y-94700000D01*
X94610000Y-92500000D01*
X94613806Y-92480866D01*
X94624645Y-92464645D01*
X94640866Y-92453806D01*
X94660000Y-92450000D01*
X95660000Y-92450000D01*
X95679134Y-92453806D01*
G37*
G36*
X90819134Y-94163806D02*
G01*
X90835355Y-94174645D01*
X90846194Y-94190866D01*
X90850000Y-94210000D01*
X90850000Y-94490000D01*
X90846194Y-94509134D01*
X90835355Y-94525355D01*
X90819134Y-94536194D01*
X90800000Y-94540000D01*
X90120000Y-94540000D01*
X90100866Y-94536194D01*
X90084645Y-94525355D01*
X90073806Y-94509134D01*
X90070000Y-94490000D01*
X90070000Y-94210000D01*
X90073806Y-94190866D01*
X90084645Y-94174645D01*
X90100866Y-94163806D01*
X90120000Y-94160000D01*
X90800000Y-94160000D01*
X90819134Y-94163806D01*
G37*
G36*
X92099134Y-94163806D02*
G01*
X92115355Y-94174645D01*
X92126194Y-94190866D01*
X92130000Y-94210000D01*
X92130000Y-94490000D01*
X92126194Y-94509134D01*
X92115355Y-94525355D01*
X92099134Y-94536194D01*
X92080000Y-94540000D01*
X91400000Y-94540000D01*
X91380866Y-94536194D01*
X91364645Y-94525355D01*
X91353806Y-94509134D01*
X91350000Y-94490000D01*
X91350000Y-94210000D01*
X91353806Y-94190866D01*
X91364645Y-94174645D01*
X91380866Y-94163806D01*
X91400000Y-94160000D01*
X92080000Y-94160000D01*
X92099134Y-94163806D01*
G37*
G36*
X90819134Y-93663806D02*
G01*
X90835355Y-93674645D01*
X90846194Y-93690866D01*
X90850000Y-93710000D01*
X90850000Y-93990000D01*
X90846194Y-94009134D01*
X90835355Y-94025355D01*
X90819134Y-94036194D01*
X90800000Y-94040000D01*
X90120000Y-94040000D01*
X90100866Y-94036194D01*
X90084645Y-94025355D01*
X90073806Y-94009134D01*
X90070000Y-93990000D01*
X90070000Y-93710000D01*
X90073806Y-93690866D01*
X90084645Y-93674645D01*
X90100866Y-93663806D01*
X90120000Y-93660000D01*
X90800000Y-93660000D01*
X90819134Y-93663806D01*
G37*
G36*
X92099134Y-93663806D02*
G01*
X92115355Y-93674645D01*
X92126194Y-93690866D01*
X92130000Y-93710000D01*
X92130000Y-93990000D01*
X92126194Y-94009134D01*
X92115355Y-94025355D01*
X92099134Y-94036194D01*
X92080000Y-94040000D01*
X91400000Y-94040000D01*
X91380866Y-94036194D01*
X91364645Y-94025355D01*
X91353806Y-94009134D01*
X91350000Y-93990000D01*
X91350000Y-93710000D01*
X91353806Y-93690866D01*
X91364645Y-93674645D01*
X91380866Y-93663806D01*
X91400000Y-93660000D01*
X92080000Y-93660000D01*
X92099134Y-93663806D01*
G37*
G36*
X109268685Y-92507969D02*
G01*
X109277358Y-92511798D01*
X109284925Y-92512901D01*
X109332223Y-92536023D01*
X109369541Y-92552501D01*
X109372996Y-92555956D01*
X109373920Y-92556408D01*
X109443591Y-92626079D01*
X109444042Y-92627002D01*
X109447499Y-92630459D01*
X109463978Y-92667782D01*
X109487098Y-92715073D01*
X109488200Y-92722639D01*
X109492031Y-92731315D01*
X109500000Y-92800000D01*
X109500000Y-93450000D01*
X109492031Y-93518685D01*
X109488199Y-93527361D01*
X109487098Y-93534925D01*
X109463985Y-93582202D01*
X109447499Y-93619541D01*
X109444041Y-93622998D01*
X109443591Y-93623920D01*
X109373920Y-93693591D01*
X109372998Y-93694041D01*
X109369541Y-93697499D01*
X109332207Y-93713983D01*
X109284926Y-93737098D01*
X109277361Y-93738200D01*
X109268685Y-93742031D01*
X109200000Y-93750000D01*
X107000000Y-93750000D01*
X106931315Y-93742031D01*
X106922638Y-93738200D01*
X106915074Y-93737098D01*
X106867787Y-93713981D01*
X106830459Y-93697499D01*
X106827002Y-93694042D01*
X106826079Y-93693591D01*
X106756408Y-93623920D01*
X106755956Y-93622996D01*
X106752501Y-93619541D01*
X106736025Y-93582228D01*
X106712901Y-93534926D01*
X106711798Y-93527357D01*
X106707969Y-93518685D01*
X106700000Y-93450000D01*
X106700000Y-92800000D01*
X106707969Y-92731315D01*
X106711798Y-92722642D01*
X106712901Y-92715074D01*
X106736028Y-92667766D01*
X106752501Y-92630459D01*
X106755955Y-92627004D01*
X106756408Y-92626079D01*
X106826079Y-92556408D01*
X106827004Y-92555955D01*
X106830459Y-92552501D01*
X106867761Y-92536030D01*
X106915073Y-92512901D01*
X106922642Y-92511798D01*
X106931315Y-92507969D01*
X107000000Y-92500000D01*
X109200000Y-92500000D01*
X109268685Y-92507969D01*
G37*
G36*
X90819134Y-93163806D02*
G01*
X90835355Y-93174645D01*
X90846194Y-93190866D01*
X90850000Y-93210000D01*
X90850000Y-93490000D01*
X90846194Y-93509134D01*
X90835355Y-93525355D01*
X90819134Y-93536194D01*
X90800000Y-93540000D01*
X90120000Y-93540000D01*
X90100866Y-93536194D01*
X90084645Y-93525355D01*
X90073806Y-93509134D01*
X90070000Y-93490000D01*
X90070000Y-93210000D01*
X90073806Y-93190866D01*
X90084645Y-93174645D01*
X90100866Y-93163806D01*
X90120000Y-93160000D01*
X90800000Y-93160000D01*
X90819134Y-93163806D01*
G37*
G36*
X92099134Y-93163806D02*
G01*
X92115355Y-93174645D01*
X92126194Y-93190866D01*
X92130000Y-93210000D01*
X92130000Y-93490000D01*
X92126194Y-93509134D01*
X92115355Y-93525355D01*
X92099134Y-93536194D01*
X92080000Y-93540000D01*
X91400000Y-93540000D01*
X91380866Y-93536194D01*
X91364645Y-93525355D01*
X91353806Y-93509134D01*
X91350000Y-93490000D01*
X91350000Y-93210000D01*
X91353806Y-93190866D01*
X91364645Y-93174645D01*
X91380866Y-93163806D01*
X91400000Y-93160000D01*
X92080000Y-93160000D01*
X92099134Y-93163806D01*
G37*
G36*
X115019134Y-91353806D02*
G01*
X115035355Y-91364645D01*
X115046194Y-91380866D01*
X115050000Y-91400000D01*
X115050000Y-93400000D01*
X115046194Y-93419134D01*
X115035355Y-93435355D01*
X115019134Y-93446194D01*
X115000000Y-93450000D01*
X111600000Y-93450000D01*
X111580866Y-93446194D01*
X111564645Y-93435355D01*
X111553806Y-93419134D01*
X111550000Y-93400000D01*
X111550000Y-91400000D01*
X111553806Y-91380866D01*
X111564645Y-91364645D01*
X111580866Y-91353806D01*
X111600000Y-91350000D01*
X115000000Y-91350000D01*
X115019134Y-91353806D01*
G37*
G36*
X90819134Y-92663806D02*
G01*
X90835355Y-92674645D01*
X90846194Y-92690866D01*
X90850000Y-92710000D01*
X90850000Y-92990000D01*
X90846194Y-93009134D01*
X90835355Y-93025355D01*
X90819134Y-93036194D01*
X90800000Y-93040000D01*
X90120000Y-93040000D01*
X90100866Y-93036194D01*
X90084645Y-93025355D01*
X90073806Y-93009134D01*
X90070000Y-92990000D01*
X90070000Y-92710000D01*
X90073806Y-92690866D01*
X90084645Y-92674645D01*
X90100866Y-92663806D01*
X90120000Y-92660000D01*
X90800000Y-92660000D01*
X90819134Y-92663806D01*
G37*
G36*
X92099134Y-92663806D02*
G01*
X92115355Y-92674645D01*
X92126194Y-92690866D01*
X92130000Y-92710000D01*
X92130000Y-92990000D01*
X92126194Y-93009134D01*
X92115355Y-93025355D01*
X92099134Y-93036194D01*
X92080000Y-93040000D01*
X91400000Y-93040000D01*
X91380866Y-93036194D01*
X91364645Y-93025355D01*
X91353806Y-93009134D01*
X91350000Y-92990000D01*
X91350000Y-92710000D01*
X91353806Y-92690866D01*
X91364645Y-92674645D01*
X91380866Y-92663806D01*
X91400000Y-92660000D01*
X92080000Y-92660000D01*
X92099134Y-92663806D01*
G37*
G36*
X88297710Y-92169463D02*
G01*
X88359350Y-92210650D01*
X88400537Y-92272290D01*
X88415000Y-92345000D01*
X88415000Y-92625000D01*
X88400537Y-92697710D01*
X88359350Y-92759350D01*
X88297710Y-92800537D01*
X88225000Y-92815000D01*
X87885000Y-92815000D01*
X87812290Y-92800537D01*
X87750650Y-92759350D01*
X87709463Y-92697710D01*
X87695000Y-92625000D01*
X87695000Y-92345000D01*
X87709463Y-92272290D01*
X87750650Y-92210650D01*
X87812290Y-92169463D01*
X87885000Y-92155000D01*
X88225000Y-92155000D01*
X88297710Y-92169463D01*
G37*
G36*
X89470796Y-92179082D02*
G01*
X89530815Y-92219185D01*
X89570918Y-92279204D01*
X89585000Y-92350000D01*
X89585000Y-92620000D01*
X89570918Y-92690796D01*
X89530815Y-92750815D01*
X89470796Y-92790918D01*
X89400000Y-92805000D01*
X89030000Y-92805000D01*
X88959204Y-92790918D01*
X88899185Y-92750815D01*
X88859082Y-92690796D01*
X88845000Y-92620000D01*
X88845000Y-92350000D01*
X88859082Y-92279204D01*
X88899185Y-92219185D01*
X88959204Y-92179082D01*
X89030000Y-92165000D01*
X89400000Y-92165000D01*
X89470796Y-92179082D01*
G37*
G36*
X98137710Y-91459463D02*
G01*
X98199350Y-91500650D01*
X98240537Y-91562290D01*
X98255000Y-91635000D01*
X98255000Y-91975000D01*
X98240537Y-92047710D01*
X98199350Y-92109350D01*
X98137710Y-92150537D01*
X98065000Y-92165000D01*
X97785000Y-92165000D01*
X97712290Y-92150537D01*
X97650650Y-92109350D01*
X97609463Y-92047710D01*
X97595000Y-91975000D01*
X97595000Y-91635000D01*
X97609463Y-91562290D01*
X97650650Y-91500650D01*
X97712290Y-91459463D01*
X97785000Y-91445000D01*
X98065000Y-91445000D01*
X98137710Y-91459463D01*
G37*
G36*
X99097710Y-91459463D02*
G01*
X99159350Y-91500650D01*
X99200537Y-91562290D01*
X99215000Y-91635000D01*
X99215000Y-91975000D01*
X99200537Y-92047710D01*
X99159350Y-92109350D01*
X99097710Y-92150537D01*
X99025000Y-92165000D01*
X98745000Y-92165000D01*
X98672290Y-92150537D01*
X98610650Y-92109350D01*
X98569463Y-92047710D01*
X98555000Y-91975000D01*
X98555000Y-91635000D01*
X98569463Y-91562290D01*
X98610650Y-91500650D01*
X98672290Y-91459463D01*
X98745000Y-91445000D01*
X99025000Y-91445000D01*
X99097710Y-91459463D01*
G37*
G36*
X95256409Y-91076275D02*
G01*
X95319958Y-91084641D01*
X95335943Y-91092095D01*
X95355238Y-91095933D01*
X95380792Y-91113008D01*
X95407290Y-91125364D01*
X95423412Y-91141486D01*
X95444454Y-91155546D01*
X95458513Y-91176587D01*
X95474635Y-91192709D01*
X95486990Y-91219204D01*
X95504067Y-91244762D01*
X95507905Y-91264058D01*
X95515358Y-91280041D01*
X95523722Y-91343577D01*
X95525000Y-91350000D01*
X95525000Y-91800000D01*
X95523722Y-91806424D01*
X95515358Y-91869958D01*
X95507905Y-91885939D01*
X95504067Y-91905238D01*
X95486988Y-91930797D01*
X95474635Y-91957290D01*
X95458516Y-91973408D01*
X95444454Y-91994454D01*
X95423408Y-92008516D01*
X95407290Y-92024635D01*
X95380797Y-92036988D01*
X95355238Y-92054067D01*
X95335939Y-92057905D01*
X95319958Y-92065358D01*
X95256424Y-92073722D01*
X95250000Y-92075000D01*
X94750000Y-92075000D01*
X94743577Y-92073722D01*
X94680041Y-92065358D01*
X94664058Y-92057905D01*
X94644762Y-92054067D01*
X94619204Y-92036990D01*
X94592709Y-92024635D01*
X94576587Y-92008513D01*
X94555546Y-91994454D01*
X94541486Y-91973412D01*
X94525364Y-91957290D01*
X94513008Y-91930792D01*
X94495933Y-91905238D01*
X94492095Y-91885943D01*
X94484641Y-91869958D01*
X94476275Y-91806409D01*
X94475000Y-91800000D01*
X94475000Y-91350000D01*
X94476274Y-91343592D01*
X94484641Y-91280041D01*
X94492095Y-91264054D01*
X94495933Y-91244762D01*
X94513006Y-91219209D01*
X94525364Y-91192709D01*
X94541488Y-91176584D01*
X94555546Y-91155546D01*
X94576584Y-91141488D01*
X94592709Y-91125364D01*
X94619209Y-91113006D01*
X94644762Y-91095933D01*
X94664054Y-91092095D01*
X94680041Y-91084641D01*
X94743592Y-91076274D01*
X94750000Y-91075000D01*
X95250000Y-91075000D01*
X95256409Y-91076275D01*
G37*
G36*
X96806409Y-91076275D02*
G01*
X96869958Y-91084641D01*
X96885943Y-91092095D01*
X96905238Y-91095933D01*
X96930792Y-91113008D01*
X96957290Y-91125364D01*
X96973412Y-91141486D01*
X96994454Y-91155546D01*
X97008513Y-91176587D01*
X97024635Y-91192709D01*
X97036990Y-91219204D01*
X97054067Y-91244762D01*
X97057905Y-91264058D01*
X97065358Y-91280041D01*
X97073722Y-91343577D01*
X97075000Y-91350000D01*
X97075000Y-91800000D01*
X97073722Y-91806424D01*
X97065358Y-91869958D01*
X97057905Y-91885939D01*
X97054067Y-91905238D01*
X97036988Y-91930797D01*
X97024635Y-91957290D01*
X97008516Y-91973408D01*
X96994454Y-91994454D01*
X96973408Y-92008516D01*
X96957290Y-92024635D01*
X96930797Y-92036988D01*
X96905238Y-92054067D01*
X96885939Y-92057905D01*
X96869958Y-92065358D01*
X96806424Y-92073722D01*
X96800000Y-92075000D01*
X96300000Y-92075000D01*
X96293577Y-92073722D01*
X96230041Y-92065358D01*
X96214058Y-92057905D01*
X96194762Y-92054067D01*
X96169204Y-92036990D01*
X96142709Y-92024635D01*
X96126587Y-92008513D01*
X96105546Y-91994454D01*
X96091486Y-91973412D01*
X96075364Y-91957290D01*
X96063008Y-91930792D01*
X96045933Y-91905238D01*
X96042095Y-91885943D01*
X96034641Y-91869958D01*
X96026275Y-91806409D01*
X96025000Y-91800000D01*
X96025000Y-91350000D01*
X96026274Y-91343592D01*
X96034641Y-91280041D01*
X96042095Y-91264054D01*
X96045933Y-91244762D01*
X96063006Y-91219209D01*
X96075364Y-91192709D01*
X96091488Y-91176584D01*
X96105546Y-91155546D01*
X96126584Y-91141488D01*
X96142709Y-91125364D01*
X96169209Y-91113006D01*
X96194762Y-91095933D01*
X96214054Y-91092095D01*
X96230041Y-91084641D01*
X96293592Y-91076274D01*
X96300000Y-91075000D01*
X96800000Y-91075000D01*
X96806409Y-91076275D01*
G37*
G36*
X109268685Y-90757969D02*
G01*
X109277358Y-90761798D01*
X109284925Y-90762901D01*
X109332223Y-90786023D01*
X109369541Y-90802501D01*
X109372996Y-90805956D01*
X109373920Y-90806408D01*
X109443591Y-90876079D01*
X109444042Y-90877002D01*
X109447499Y-90880459D01*
X109463978Y-90917782D01*
X109487098Y-90965073D01*
X109488200Y-90972639D01*
X109492031Y-90981315D01*
X109500000Y-91050000D01*
X109500000Y-91700000D01*
X109492031Y-91768685D01*
X109488199Y-91777361D01*
X109487098Y-91784925D01*
X109463985Y-91832202D01*
X109447499Y-91869541D01*
X109444041Y-91872998D01*
X109443591Y-91873920D01*
X109373920Y-91943591D01*
X109372998Y-91944041D01*
X109369541Y-91947499D01*
X109332207Y-91963983D01*
X109284926Y-91987098D01*
X109277361Y-91988200D01*
X109268685Y-91992031D01*
X109200000Y-92000000D01*
X107000000Y-92000000D01*
X106931315Y-91992031D01*
X106922638Y-91988200D01*
X106915074Y-91987098D01*
X106867787Y-91963981D01*
X106830459Y-91947499D01*
X106827002Y-91944042D01*
X106826079Y-91943591D01*
X106756408Y-91873920D01*
X106755956Y-91872996D01*
X106752501Y-91869541D01*
X106736025Y-91832228D01*
X106712901Y-91784926D01*
X106711798Y-91777357D01*
X106707969Y-91768685D01*
X106700000Y-91700000D01*
X106700000Y-91050000D01*
X106707969Y-90981315D01*
X106711798Y-90972642D01*
X106712901Y-90965074D01*
X106736028Y-90917766D01*
X106752501Y-90880459D01*
X106755955Y-90877004D01*
X106756408Y-90876079D01*
X106826079Y-90806408D01*
X106827004Y-90805955D01*
X106830459Y-90802501D01*
X106867761Y-90786030D01*
X106915073Y-90762901D01*
X106922642Y-90761798D01*
X106931315Y-90757969D01*
X107000000Y-90750000D01*
X109200000Y-90750000D01*
X109268685Y-90757969D01*
G37*
G36*
X88297710Y-91209463D02*
G01*
X88359350Y-91250650D01*
X88400537Y-91312290D01*
X88415000Y-91385000D01*
X88415000Y-91665000D01*
X88400537Y-91737710D01*
X88359350Y-91799350D01*
X88297710Y-91840537D01*
X88225000Y-91855000D01*
X87885000Y-91855000D01*
X87812290Y-91840537D01*
X87750650Y-91799350D01*
X87709463Y-91737710D01*
X87695000Y-91665000D01*
X87695000Y-91385000D01*
X87709463Y-91312290D01*
X87750650Y-91250650D01*
X87812290Y-91209463D01*
X87885000Y-91195000D01*
X88225000Y-91195000D01*
X88297710Y-91209463D01*
G37*
G36*
X89470796Y-91159082D02*
G01*
X89530815Y-91199185D01*
X89570918Y-91259204D01*
X89585000Y-91330000D01*
X89585000Y-91600000D01*
X89570918Y-91670796D01*
X89530815Y-91730815D01*
X89470796Y-91770918D01*
X89400000Y-91785000D01*
X89030000Y-91785000D01*
X88959204Y-91770918D01*
X88899185Y-91730815D01*
X88859082Y-91670796D01*
X88845000Y-91600000D01*
X88845000Y-91330000D01*
X88859082Y-91259204D01*
X88899185Y-91199185D01*
X88959204Y-91159082D01*
X89030000Y-91145000D01*
X89400000Y-91145000D01*
X89470796Y-91159082D01*
G37*
G36*
X98137710Y-90309463D02*
G01*
X98199350Y-90350650D01*
X98240537Y-90412290D01*
X98255000Y-90485000D01*
X98255000Y-90825000D01*
X98240537Y-90897710D01*
X98199350Y-90959350D01*
X98137710Y-91000537D01*
X98065000Y-91015000D01*
X97785000Y-91015000D01*
X97712290Y-91000537D01*
X97650650Y-90959350D01*
X97609463Y-90897710D01*
X97595000Y-90825000D01*
X97595000Y-90485000D01*
X97609463Y-90412290D01*
X97650650Y-90350650D01*
X97712290Y-90309463D01*
X97785000Y-90295000D01*
X98065000Y-90295000D01*
X98137710Y-90309463D01*
G37*
G36*
X99097710Y-90309463D02*
G01*
X99159350Y-90350650D01*
X99200537Y-90412290D01*
X99215000Y-90485000D01*
X99215000Y-90825000D01*
X99200537Y-90897710D01*
X99159350Y-90959350D01*
X99097710Y-91000537D01*
X99025000Y-91015000D01*
X98745000Y-91015000D01*
X98672290Y-91000537D01*
X98610650Y-90959350D01*
X98569463Y-90897710D01*
X98555000Y-90825000D01*
X98555000Y-90485000D01*
X98569463Y-90412290D01*
X98610650Y-90350650D01*
X98672290Y-90309463D01*
X98745000Y-90295000D01*
X99025000Y-90295000D01*
X99097710Y-90309463D01*
G37*
G36*
X89870796Y-90009082D02*
G01*
X89930815Y-90049185D01*
X89970918Y-90109204D01*
X89985000Y-90180000D01*
X89985000Y-90550000D01*
X89970918Y-90620796D01*
X89930815Y-90680815D01*
X89870796Y-90720918D01*
X89800000Y-90735000D01*
X89530000Y-90735000D01*
X89459204Y-90720918D01*
X89399185Y-90680815D01*
X89359082Y-90620796D01*
X89345000Y-90550000D01*
X89345000Y-90180000D01*
X89359082Y-90109204D01*
X89399185Y-90049185D01*
X89459204Y-90009082D01*
X89530000Y-89995000D01*
X89800000Y-89995000D01*
X89870796Y-90009082D01*
G37*
G36*
X90890796Y-90009082D02*
G01*
X90950815Y-90049185D01*
X90990918Y-90109204D01*
X91005000Y-90180000D01*
X91005000Y-90550000D01*
X90990918Y-90620796D01*
X90950815Y-90680815D01*
X90890796Y-90720918D01*
X90820000Y-90735000D01*
X90550000Y-90735000D01*
X90479204Y-90720918D01*
X90419185Y-90680815D01*
X90379082Y-90620796D01*
X90365000Y-90550000D01*
X90365000Y-90180000D01*
X90379082Y-90109204D01*
X90419185Y-90049185D01*
X90479204Y-90009082D01*
X90550000Y-89995000D01*
X90820000Y-89995000D01*
X90890796Y-90009082D01*
G37*
G36*
X95256409Y-89526275D02*
G01*
X95319958Y-89534641D01*
X95335943Y-89542095D01*
X95355238Y-89545933D01*
X95380792Y-89563008D01*
X95407290Y-89575364D01*
X95423412Y-89591486D01*
X95444454Y-89605546D01*
X95458513Y-89626587D01*
X95474635Y-89642709D01*
X95486990Y-89669204D01*
X95504067Y-89694762D01*
X95507905Y-89714058D01*
X95515358Y-89730041D01*
X95523722Y-89793577D01*
X95525000Y-89800000D01*
X95525000Y-90250000D01*
X95523722Y-90256424D01*
X95515358Y-90319958D01*
X95507905Y-90335939D01*
X95504067Y-90355238D01*
X95486988Y-90380797D01*
X95474635Y-90407290D01*
X95458516Y-90423408D01*
X95444454Y-90444454D01*
X95423408Y-90458516D01*
X95407290Y-90474635D01*
X95380797Y-90486988D01*
X95355238Y-90504067D01*
X95335939Y-90507905D01*
X95319958Y-90515358D01*
X95256424Y-90523722D01*
X95250000Y-90525000D01*
X94750000Y-90525000D01*
X94743577Y-90523722D01*
X94680041Y-90515358D01*
X94664058Y-90507905D01*
X94644762Y-90504067D01*
X94619204Y-90486990D01*
X94592709Y-90474635D01*
X94576587Y-90458513D01*
X94555546Y-90444454D01*
X94541486Y-90423412D01*
X94525364Y-90407290D01*
X94513008Y-90380792D01*
X94495933Y-90355238D01*
X94492095Y-90335943D01*
X94484641Y-90319958D01*
X94476275Y-90256409D01*
X94475000Y-90250000D01*
X94475000Y-89800000D01*
X94476274Y-89793592D01*
X94484641Y-89730041D01*
X94492095Y-89714054D01*
X94495933Y-89694762D01*
X94513006Y-89669209D01*
X94525364Y-89642709D01*
X94541488Y-89626584D01*
X94555546Y-89605546D01*
X94576584Y-89591488D01*
X94592709Y-89575364D01*
X94619209Y-89563006D01*
X94644762Y-89545933D01*
X94664054Y-89542095D01*
X94680041Y-89534641D01*
X94743592Y-89526274D01*
X94750000Y-89525000D01*
X95250000Y-89525000D01*
X95256409Y-89526275D01*
G37*
G36*
X96806409Y-89526275D02*
G01*
X96869958Y-89534641D01*
X96885943Y-89542095D01*
X96905238Y-89545933D01*
X96930792Y-89563008D01*
X96957290Y-89575364D01*
X96973412Y-89591486D01*
X96994454Y-89605546D01*
X97008513Y-89626587D01*
X97024635Y-89642709D01*
X97036990Y-89669204D01*
X97054067Y-89694762D01*
X97057905Y-89714058D01*
X97065358Y-89730041D01*
X97073722Y-89793577D01*
X97075000Y-89800000D01*
X97075000Y-90250000D01*
X97073722Y-90256424D01*
X97065358Y-90319958D01*
X97057905Y-90335939D01*
X97054067Y-90355238D01*
X97036988Y-90380797D01*
X97024635Y-90407290D01*
X97008516Y-90423408D01*
X96994454Y-90444454D01*
X96973408Y-90458516D01*
X96957290Y-90474635D01*
X96930797Y-90486988D01*
X96905238Y-90504067D01*
X96885939Y-90507905D01*
X96869958Y-90515358D01*
X96806424Y-90523722D01*
X96800000Y-90525000D01*
X96300000Y-90525000D01*
X96293577Y-90523722D01*
X96230041Y-90515358D01*
X96214058Y-90507905D01*
X96194762Y-90504067D01*
X96169204Y-90486990D01*
X96142709Y-90474635D01*
X96126587Y-90458513D01*
X96105546Y-90444454D01*
X96091486Y-90423412D01*
X96075364Y-90407290D01*
X96063008Y-90380792D01*
X96045933Y-90355238D01*
X96042095Y-90335943D01*
X96034641Y-90319958D01*
X96026275Y-90256409D01*
X96025000Y-90250000D01*
X96025000Y-89800000D01*
X96026274Y-89793592D01*
X96034641Y-89730041D01*
X96042095Y-89714054D01*
X96045933Y-89694762D01*
X96063006Y-89669209D01*
X96075364Y-89642709D01*
X96091488Y-89626584D01*
X96105546Y-89605546D01*
X96126584Y-89591488D01*
X96142709Y-89575364D01*
X96169209Y-89563006D01*
X96194762Y-89545933D01*
X96214054Y-89542095D01*
X96230041Y-89534641D01*
X96293592Y-89526274D01*
X96300000Y-89525000D01*
X96800000Y-89525000D01*
X96806409Y-89526275D01*
G37*
G36*
X100247710Y-89269463D02*
G01*
X100309350Y-89310650D01*
X100350537Y-89372290D01*
X100365000Y-89445000D01*
X100365000Y-89725000D01*
X100350537Y-89797710D01*
X100309350Y-89859350D01*
X100247710Y-89900537D01*
X100175000Y-89915000D01*
X99835000Y-89915000D01*
X99762290Y-89900537D01*
X99700650Y-89859350D01*
X99659463Y-89797710D01*
X99645000Y-89725000D01*
X99645000Y-89445000D01*
X99659463Y-89372290D01*
X99700650Y-89310650D01*
X99762290Y-89269463D01*
X99835000Y-89255000D01*
X100175000Y-89255000D01*
X100247710Y-89269463D01*
G37*
G36*
X99120796Y-89279082D02*
G01*
X99180815Y-89319185D01*
X99220918Y-89379204D01*
X99235000Y-89450000D01*
X99235000Y-89720000D01*
X99220918Y-89790796D01*
X99180815Y-89850815D01*
X99120796Y-89890918D01*
X99050000Y-89905000D01*
X98680000Y-89905000D01*
X98609204Y-89890918D01*
X98549185Y-89850815D01*
X98509082Y-89790796D01*
X98495000Y-89720000D01*
X98495000Y-89450000D01*
X98509082Y-89379204D01*
X98549185Y-89319185D01*
X98609204Y-89279082D01*
X98680000Y-89265000D01*
X99050000Y-89265000D01*
X99120796Y-89279082D01*
G37*
G36*
X101420796Y-89279082D02*
G01*
X101480815Y-89319185D01*
X101520918Y-89379204D01*
X101535000Y-89450000D01*
X101535000Y-89720000D01*
X101520918Y-89790796D01*
X101480815Y-89850815D01*
X101420796Y-89890918D01*
X101350000Y-89905000D01*
X100980000Y-89905000D01*
X100909204Y-89890918D01*
X100849185Y-89850815D01*
X100809082Y-89790796D01*
X100795000Y-89720000D01*
X100795000Y-89450000D01*
X100809082Y-89379204D01*
X100849185Y-89319185D01*
X100909204Y-89279082D01*
X100980000Y-89265000D01*
X101350000Y-89265000D01*
X101420796Y-89279082D01*
G37*
G36*
X102570796Y-89279082D02*
G01*
X102630815Y-89319185D01*
X102670918Y-89379204D01*
X102685000Y-89450000D01*
X102685000Y-89720000D01*
X102670918Y-89790796D01*
X102630815Y-89850815D01*
X102570796Y-89890918D01*
X102500000Y-89905000D01*
X102130000Y-89905000D01*
X102059204Y-89890918D01*
X101999185Y-89850815D01*
X101959082Y-89790796D01*
X101945000Y-89720000D01*
X101945000Y-89450000D01*
X101959082Y-89379204D01*
X101999185Y-89319185D01*
X102059204Y-89279082D01*
X102130000Y-89265000D01*
X102500000Y-89265000D01*
X102570796Y-89279082D01*
G37*
G36*
X103720796Y-89279082D02*
G01*
X103780815Y-89319185D01*
X103820918Y-89379204D01*
X103835000Y-89450000D01*
X103835000Y-89720000D01*
X103820918Y-89790796D01*
X103780815Y-89850815D01*
X103720796Y-89890918D01*
X103650000Y-89905000D01*
X103280000Y-89905000D01*
X103209204Y-89890918D01*
X103149185Y-89850815D01*
X103109082Y-89790796D01*
X103095000Y-89720000D01*
X103095000Y-89450000D01*
X103109082Y-89379204D01*
X103149185Y-89319185D01*
X103209204Y-89279082D01*
X103280000Y-89265000D01*
X103650000Y-89265000D01*
X103720796Y-89279082D01*
G37*
G36*
X109268685Y-87807969D02*
G01*
X109277358Y-87811798D01*
X109284925Y-87812901D01*
X109332223Y-87836023D01*
X109369541Y-87852501D01*
X109372996Y-87855956D01*
X109373920Y-87856408D01*
X109443591Y-87926079D01*
X109444042Y-87927002D01*
X109447499Y-87930459D01*
X109463978Y-87967782D01*
X109487098Y-88015073D01*
X109488200Y-88022639D01*
X109492031Y-88031315D01*
X109500000Y-88100000D01*
X109500000Y-88750000D01*
X109492031Y-88818685D01*
X109488199Y-88827361D01*
X109487098Y-88834925D01*
X109463985Y-88882202D01*
X109447499Y-88919541D01*
X109444041Y-88922998D01*
X109443591Y-88923920D01*
X109373920Y-88993591D01*
X109372998Y-88994041D01*
X109369541Y-88997499D01*
X109332207Y-89013983D01*
X109284926Y-89037098D01*
X109277361Y-89038200D01*
X109268685Y-89042031D01*
X109200000Y-89050000D01*
X107000000Y-89050000D01*
X106931315Y-89042031D01*
X106922638Y-89038200D01*
X106915074Y-89037098D01*
X106867787Y-89013981D01*
X106830459Y-88997499D01*
X106827002Y-88994042D01*
X106826079Y-88993591D01*
X106756408Y-88923920D01*
X106755956Y-88922996D01*
X106752501Y-88919541D01*
X106736025Y-88882228D01*
X106712901Y-88834926D01*
X106711798Y-88827357D01*
X106707969Y-88818685D01*
X106700000Y-88750000D01*
X106700000Y-88100000D01*
X106707969Y-88031315D01*
X106711798Y-88022642D01*
X106712901Y-88015074D01*
X106736028Y-87967766D01*
X106752501Y-87930459D01*
X106755955Y-87927004D01*
X106756408Y-87926079D01*
X106826079Y-87856408D01*
X106827004Y-87855955D01*
X106830459Y-87852501D01*
X106867761Y-87836030D01*
X106915073Y-87812901D01*
X106922642Y-87811798D01*
X106931315Y-87807969D01*
X107000000Y-87800000D01*
X109200000Y-87800000D01*
X109268685Y-87807969D01*
G37*
G36*
X95120796Y-88259082D02*
G01*
X95180815Y-88299185D01*
X95220918Y-88359204D01*
X95235000Y-88430000D01*
X95235000Y-88800000D01*
X95220918Y-88870796D01*
X95180815Y-88930815D01*
X95120796Y-88970918D01*
X95050000Y-88985000D01*
X94780000Y-88985000D01*
X94709204Y-88970918D01*
X94649185Y-88930815D01*
X94609082Y-88870796D01*
X94595000Y-88800000D01*
X94595000Y-88430000D01*
X94609082Y-88359204D01*
X94649185Y-88299185D01*
X94709204Y-88259082D01*
X94780000Y-88245000D01*
X95050000Y-88245000D01*
X95120796Y-88259082D01*
G37*
G36*
X96140796Y-88259082D02*
G01*
X96200815Y-88299185D01*
X96240918Y-88359204D01*
X96255000Y-88430000D01*
X96255000Y-88800000D01*
X96240918Y-88870796D01*
X96200815Y-88930815D01*
X96140796Y-88970918D01*
X96070000Y-88985000D01*
X95800000Y-88985000D01*
X95729204Y-88970918D01*
X95669185Y-88930815D01*
X95629082Y-88870796D01*
X95615000Y-88800000D01*
X95615000Y-88430000D01*
X95629082Y-88359204D01*
X95669185Y-88299185D01*
X95729204Y-88259082D01*
X95800000Y-88245000D01*
X96070000Y-88245000D01*
X96140796Y-88259082D01*
G37*
G36*
X100247710Y-88309463D02*
G01*
X100309350Y-88350650D01*
X100350537Y-88412290D01*
X100365000Y-88485000D01*
X100365000Y-88765000D01*
X100350537Y-88837710D01*
X100309350Y-88899350D01*
X100247710Y-88940537D01*
X100175000Y-88955000D01*
X99835000Y-88955000D01*
X99762290Y-88940537D01*
X99700650Y-88899350D01*
X99659463Y-88837710D01*
X99645000Y-88765000D01*
X99645000Y-88485000D01*
X99659463Y-88412290D01*
X99700650Y-88350650D01*
X99762290Y-88309463D01*
X99835000Y-88295000D01*
X100175000Y-88295000D01*
X100247710Y-88309463D01*
G37*
G36*
X99120796Y-88259082D02*
G01*
X99180815Y-88299185D01*
X99220918Y-88359204D01*
X99235000Y-88430000D01*
X99235000Y-88700000D01*
X99220918Y-88770796D01*
X99180815Y-88830815D01*
X99120796Y-88870918D01*
X99050000Y-88885000D01*
X98680000Y-88885000D01*
X98609204Y-88870918D01*
X98549185Y-88830815D01*
X98509082Y-88770796D01*
X98495000Y-88700000D01*
X98495000Y-88430000D01*
X98509082Y-88359204D01*
X98549185Y-88299185D01*
X98609204Y-88259082D01*
X98680000Y-88245000D01*
X99050000Y-88245000D01*
X99120796Y-88259082D01*
G37*
G36*
X101420796Y-88259082D02*
G01*
X101480815Y-88299185D01*
X101520918Y-88359204D01*
X101535000Y-88430000D01*
X101535000Y-88700000D01*
X101520918Y-88770796D01*
X101480815Y-88830815D01*
X101420796Y-88870918D01*
X101350000Y-88885000D01*
X100980000Y-88885000D01*
X100909204Y-88870918D01*
X100849185Y-88830815D01*
X100809082Y-88770796D01*
X100795000Y-88700000D01*
X100795000Y-88430000D01*
X100809082Y-88359204D01*
X100849185Y-88299185D01*
X100909204Y-88259082D01*
X100980000Y-88245000D01*
X101350000Y-88245000D01*
X101420796Y-88259082D01*
G37*
G36*
X102570796Y-88259082D02*
G01*
X102630815Y-88299185D01*
X102670918Y-88359204D01*
X102685000Y-88430000D01*
X102685000Y-88700000D01*
X102670918Y-88770796D01*
X102630815Y-88830815D01*
X102570796Y-88870918D01*
X102500000Y-88885000D01*
X102130000Y-88885000D01*
X102059204Y-88870918D01*
X101999185Y-88830815D01*
X101959082Y-88770796D01*
X101945000Y-88700000D01*
X101945000Y-88430000D01*
X101959082Y-88359204D01*
X101999185Y-88299185D01*
X102059204Y-88259082D01*
X102130000Y-88245000D01*
X102500000Y-88245000D01*
X102570796Y-88259082D01*
G37*
G36*
X103720796Y-88259082D02*
G01*
X103780815Y-88299185D01*
X103820918Y-88359204D01*
X103835000Y-88430000D01*
X103835000Y-88700000D01*
X103820918Y-88770796D01*
X103780815Y-88830815D01*
X103720796Y-88870918D01*
X103650000Y-88885000D01*
X103280000Y-88885000D01*
X103209204Y-88870918D01*
X103149185Y-88830815D01*
X103109082Y-88770796D01*
X103095000Y-88700000D01*
X103095000Y-88430000D01*
X103109082Y-88359204D01*
X103149185Y-88299185D01*
X103209204Y-88259082D01*
X103280000Y-88245000D01*
X103650000Y-88245000D01*
X103720796Y-88259082D01*
G37*
M02*
