%TF.GenerationSoftware,KiCad,Pcbnew,10.0.6-10.0.6~ubuntu24.04.1*%
%TF.CreationDate,2026-10-02T16:28:41+00:00*%
%TF.ProjectId,ridge3-fc,72696467-6533-42d6-9663-2e6b69636164,2.0*%
%TF.SameCoordinates,Original*%
%TF.FileFunction,Soldermask,Top*%
%TF.FilePolarity,Negative*%
%FSLAX46Y46*%
G04 Gerber Fmt 4.6, Leading zero omitted, Abs format (unit mm)*
G04 Created by KiCad (PCBNEW 10.0.6-10.0.6~ubuntu24.04.1) date 2026-10-02 16:28:41*
%MOMM*%
%LPD*%
G01*
G04 APERTURE LIST*
G04 APERTURE END LIST*
G36*
X106683660Y-115007845D02*
G01*
X106689589Y-115009919D01*
X106694689Y-115010468D01*
X106748312Y-115030467D01*
X106810271Y-115052148D01*
X106814183Y-115055035D01*
X106815418Y-115055496D01*
X106858132Y-115087471D01*
X106918198Y-115131802D01*
X106962546Y-115191891D01*
X106994503Y-115234581D01*
X106994963Y-115235814D01*
X106997852Y-115239729D01*
X107019537Y-115301702D01*
X107039530Y-115355306D01*
X107040078Y-115360404D01*
X107042155Y-115366340D01*
X107050000Y-115450000D01*
X107050000Y-116950000D01*
X107042155Y-117033660D01*
X107040078Y-117039593D01*
X107039531Y-117044689D01*
X107019547Y-117098269D01*
X106997852Y-117160271D01*
X106994962Y-117164186D01*
X106994503Y-117165418D01*
X106962598Y-117208037D01*
X106918198Y-117268198D01*
X106858037Y-117312598D01*
X106815418Y-117344503D01*
X106814186Y-117344962D01*
X106810271Y-117347852D01*
X106748281Y-117369543D01*
X106694693Y-117389530D01*
X106689595Y-117390078D01*
X106683660Y-117392155D01*
X106600000Y-117400000D01*
X105400000Y-117400000D01*
X105316340Y-117392155D01*
X105310407Y-117390079D01*
X105305310Y-117389531D01*
X105251714Y-117369541D01*
X105189729Y-117347852D01*
X105185814Y-117344963D01*
X105184581Y-117344503D01*
X105141891Y-117312546D01*
X105081802Y-117268198D01*
X105037471Y-117208132D01*
X105005496Y-117165418D01*
X105005035Y-117164183D01*
X105002148Y-117160271D01*
X104980472Y-117098324D01*
X104960469Y-117044693D01*
X104959920Y-117039591D01*
X104957845Y-117033660D01*
X104950000Y-116950000D01*
X104950000Y-115450000D01*
X104957845Y-115366340D01*
X104959919Y-115360411D01*
X104960468Y-115355310D01*
X104980473Y-115301670D01*
X105002148Y-115239729D01*
X105005034Y-115235817D01*
X105005496Y-115234581D01*
X105037523Y-115191796D01*
X105081802Y-115131802D01*
X105141796Y-115087523D01*
X105184581Y-115055496D01*
X105185817Y-115055034D01*
X105189729Y-115052148D01*
X105251659Y-115030477D01*
X105305306Y-115010469D01*
X105310408Y-115009920D01*
X105316340Y-115007845D01*
X105400000Y-115000000D01*
X106600000Y-115000000D01*
X106683660Y-115007845D01*
G37*
G36*
X109183660Y-115007845D02*
G01*
X109189589Y-115009919D01*
X109194689Y-115010468D01*
X109248312Y-115030467D01*
X109310271Y-115052148D01*
X109314183Y-115055035D01*
X109315418Y-115055496D01*
X109358132Y-115087471D01*
X109418198Y-115131802D01*
X109462546Y-115191891D01*
X109494503Y-115234581D01*
X109494963Y-115235814D01*
X109497852Y-115239729D01*
X109519537Y-115301702D01*
X109539530Y-115355306D01*
X109540078Y-115360404D01*
X109542155Y-115366340D01*
X109550000Y-115450000D01*
X109550000Y-116950000D01*
X109542155Y-117033660D01*
X109540078Y-117039593D01*
X109539531Y-117044689D01*
X109519547Y-117098269D01*
X109497852Y-117160271D01*
X109494962Y-117164186D01*
X109494503Y-117165418D01*
X109462598Y-117208037D01*
X109418198Y-117268198D01*
X109358037Y-117312598D01*
X109315418Y-117344503D01*
X109314186Y-117344962D01*
X109310271Y-117347852D01*
X109248281Y-117369543D01*
X109194693Y-117389530D01*
X109189595Y-117390078D01*
X109183660Y-117392155D01*
X109100000Y-117400000D01*
X107900000Y-117400000D01*
X107816340Y-117392155D01*
X107810407Y-117390079D01*
X107805310Y-117389531D01*
X107751714Y-117369541D01*
X107689729Y-117347852D01*
X107685814Y-117344963D01*
X107684581Y-117344503D01*
X107641891Y-117312546D01*
X107581802Y-117268198D01*
X107537471Y-117208132D01*
X107505496Y-117165418D01*
X107505035Y-117164183D01*
X107502148Y-117160271D01*
X107480472Y-117098324D01*
X107460469Y-117044693D01*
X107459920Y-117039591D01*
X107457845Y-117033660D01*
X107450000Y-116950000D01*
X107450000Y-115450000D01*
X107457845Y-115366340D01*
X107459919Y-115360411D01*
X107460468Y-115355310D01*
X107480473Y-115301670D01*
X107502148Y-115239729D01*
X107505034Y-115235817D01*
X107505496Y-115234581D01*
X107537523Y-115191796D01*
X107581802Y-115131802D01*
X107641796Y-115087523D01*
X107684581Y-115055496D01*
X107685817Y-115055034D01*
X107689729Y-115052148D01*
X107751659Y-115030477D01*
X107805306Y-115010469D01*
X107810408Y-115009920D01*
X107816340Y-115007845D01*
X107900000Y-115000000D01*
X109100000Y-115000000D01*
X109183660Y-115007845D01*
G37*
G36*
X92089134Y-114628806D02*
G01*
X92105355Y-114639645D01*
X92116194Y-114655866D01*
X92120000Y-114675000D01*
X92120000Y-116825000D01*
X92116194Y-116844134D01*
X92105355Y-116860355D01*
X92089134Y-116871194D01*
X92070000Y-116875000D01*
X90770000Y-116875000D01*
X90750866Y-116871194D01*
X90734645Y-116860355D01*
X90723806Y-116844134D01*
X90720000Y-116825000D01*
X90720000Y-114675000D01*
X90723806Y-114655866D01*
X90734645Y-114639645D01*
X90750866Y-114628806D01*
X90770000Y-114625000D01*
X92070000Y-114625000D01*
X92089134Y-114628806D01*
G37*
G36*
X104649134Y-114628806D02*
G01*
X104665355Y-114639645D01*
X104676194Y-114655866D01*
X104680000Y-114675000D01*
X104680000Y-116825000D01*
X104676194Y-116844134D01*
X104665355Y-116860355D01*
X104649134Y-116871194D01*
X104630000Y-116875000D01*
X103330000Y-116875000D01*
X103310866Y-116871194D01*
X103294645Y-116860355D01*
X103283806Y-116844134D01*
X103280000Y-116825000D01*
X103280000Y-114675000D01*
X103283806Y-114655866D01*
X103294645Y-114639645D01*
X103310866Y-114628806D01*
X103330000Y-114625000D01*
X104630000Y-114625000D01*
X104649134Y-114628806D01*
G37*
G36*
X107619134Y-113493806D02*
G01*
X107635355Y-113504645D01*
X107646194Y-113520866D01*
X107650000Y-113540000D01*
X107650000Y-114740000D01*
X107646194Y-114759134D01*
X107635355Y-114775355D01*
X107619134Y-114786194D01*
X107600000Y-114790000D01*
X106400000Y-114790000D01*
X106380866Y-114786194D01*
X106364645Y-114775355D01*
X106353806Y-114759134D01*
X106350000Y-114740000D01*
X106350000Y-113540000D01*
X106353806Y-113520866D01*
X106364645Y-113504645D01*
X106380866Y-113493806D01*
X106400000Y-113490000D01*
X107600000Y-113490000D01*
X107619134Y-113493806D01*
G37*
G36*
X93739134Y-112803806D02*
G01*
X93755355Y-112814645D01*
X93766194Y-112830866D01*
X93770000Y-112850000D01*
X93770000Y-114050000D01*
X93766194Y-114069134D01*
X93755355Y-114085355D01*
X93739134Y-114096194D01*
X93720000Y-114100000D01*
X92920000Y-114100000D01*
X92900866Y-114096194D01*
X92884645Y-114085355D01*
X92873806Y-114069134D01*
X92870000Y-114050000D01*
X92870000Y-112850000D01*
X92873806Y-112830866D01*
X92884645Y-112814645D01*
X92900866Y-112803806D01*
X92920000Y-112800000D01*
X93720000Y-112800000D01*
X93739134Y-112803806D01*
G37*
G36*
X94989134Y-112803806D02*
G01*
X95005355Y-112814645D01*
X95016194Y-112830866D01*
X95020000Y-112850000D01*
X95020000Y-114050000D01*
X95016194Y-114069134D01*
X95005355Y-114085355D01*
X94989134Y-114096194D01*
X94970000Y-114100000D01*
X94170000Y-114100000D01*
X94150866Y-114096194D01*
X94134645Y-114085355D01*
X94123806Y-114069134D01*
X94120000Y-114050000D01*
X94120000Y-112850000D01*
X94123806Y-112830866D01*
X94134645Y-112814645D01*
X94150866Y-112803806D01*
X94170000Y-112800000D01*
X94970000Y-112800000D01*
X94989134Y-112803806D01*
G37*
G36*
X96239134Y-112803806D02*
G01*
X96255355Y-112814645D01*
X96266194Y-112830866D01*
X96270000Y-112850000D01*
X96270000Y-114050000D01*
X96266194Y-114069134D01*
X96255355Y-114085355D01*
X96239134Y-114096194D01*
X96220000Y-114100000D01*
X95420000Y-114100000D01*
X95400866Y-114096194D01*
X95384645Y-114085355D01*
X95373806Y-114069134D01*
X95370000Y-114050000D01*
X95370000Y-112850000D01*
X95373806Y-112830866D01*
X95384645Y-112814645D01*
X95400866Y-112803806D01*
X95420000Y-112800000D01*
X96220000Y-112800000D01*
X96239134Y-112803806D01*
G37*
G36*
X97489134Y-112803806D02*
G01*
X97505355Y-112814645D01*
X97516194Y-112830866D01*
X97520000Y-112850000D01*
X97520000Y-114050000D01*
X97516194Y-114069134D01*
X97505355Y-114085355D01*
X97489134Y-114096194D01*
X97470000Y-114100000D01*
X96670000Y-114100000D01*
X96650866Y-114096194D01*
X96634645Y-114085355D01*
X96623806Y-114069134D01*
X96620000Y-114050000D01*
X96620000Y-112850000D01*
X96623806Y-112830866D01*
X96634645Y-112814645D01*
X96650866Y-112803806D01*
X96670000Y-112800000D01*
X97470000Y-112800000D01*
X97489134Y-112803806D01*
G37*
G36*
X98739134Y-112803806D02*
G01*
X98755355Y-112814645D01*
X98766194Y-112830866D01*
X98770000Y-112850000D01*
X98770000Y-114050000D01*
X98766194Y-114069134D01*
X98755355Y-114085355D01*
X98739134Y-114096194D01*
X98720000Y-114100000D01*
X97920000Y-114100000D01*
X97900866Y-114096194D01*
X97884645Y-114085355D01*
X97873806Y-114069134D01*
X97870000Y-114050000D01*
X97870000Y-112850000D01*
X97873806Y-112830866D01*
X97884645Y-112814645D01*
X97900866Y-112803806D01*
X97920000Y-112800000D01*
X98720000Y-112800000D01*
X98739134Y-112803806D01*
G37*
G36*
X99989134Y-112803806D02*
G01*
X100005355Y-112814645D01*
X100016194Y-112830866D01*
X100020000Y-112850000D01*
X100020000Y-114050000D01*
X100016194Y-114069134D01*
X100005355Y-114085355D01*
X99989134Y-114096194D01*
X99970000Y-114100000D01*
X99170000Y-114100000D01*
X99150866Y-114096194D01*
X99134645Y-114085355D01*
X99123806Y-114069134D01*
X99120000Y-114050000D01*
X99120000Y-112850000D01*
X99123806Y-112830866D01*
X99134645Y-112814645D01*
X99150866Y-112803806D01*
X99170000Y-112800000D01*
X99970000Y-112800000D01*
X99989134Y-112803806D01*
G37*
G36*
X101239134Y-112803806D02*
G01*
X101255355Y-112814645D01*
X101266194Y-112830866D01*
X101270000Y-112850000D01*
X101270000Y-114050000D01*
X101266194Y-114069134D01*
X101255355Y-114085355D01*
X101239134Y-114096194D01*
X101220000Y-114100000D01*
X100420000Y-114100000D01*
X100400866Y-114096194D01*
X100384645Y-114085355D01*
X100373806Y-114069134D01*
X100370000Y-114050000D01*
X100370000Y-112850000D01*
X100373806Y-112830866D01*
X100384645Y-112814645D01*
X100400866Y-112803806D01*
X100420000Y-112800000D01*
X101220000Y-112800000D01*
X101239134Y-112803806D01*
G37*
G36*
X102489134Y-112803806D02*
G01*
X102505355Y-112814645D01*
X102516194Y-112830866D01*
X102520000Y-112850000D01*
X102520000Y-114050000D01*
X102516194Y-114069134D01*
X102505355Y-114085355D01*
X102489134Y-114096194D01*
X102470000Y-114100000D01*
X101670000Y-114100000D01*
X101650866Y-114096194D01*
X101634645Y-114085355D01*
X101623806Y-114069134D01*
X101620000Y-114050000D01*
X101620000Y-112850000D01*
X101623806Y-112830866D01*
X101634645Y-112814645D01*
X101650866Y-112803806D01*
X101670000Y-112800000D01*
X102470000Y-112800000D01*
X102489134Y-112803806D01*
G37*
G36*
X95786342Y-110833060D02*
G01*
X95899381Y-110898323D01*
X95991677Y-110990619D01*
X96056940Y-111103658D01*
X96090722Y-111229737D01*
X96090722Y-111360263D01*
X96056940Y-111486342D01*
X95991677Y-111599381D01*
X95899381Y-111691677D01*
X95786342Y-111756940D01*
X95660263Y-111790722D01*
X95529737Y-111790722D01*
X95403658Y-111756940D01*
X95290619Y-111691677D01*
X95198323Y-111599381D01*
X95133060Y-111486342D01*
X95099278Y-111360263D01*
X95099278Y-111229737D01*
X95133060Y-111103658D01*
X95198323Y-110990619D01*
X95290619Y-110898323D01*
X95403658Y-110833060D01*
X95529737Y-110799278D01*
X95660263Y-110799278D01*
X95786342Y-110833060D01*
G37*
G36*
X107619134Y-110113806D02*
G01*
X107635355Y-110124645D01*
X107646194Y-110140866D01*
X107650000Y-110160000D01*
X107650000Y-111360000D01*
X107646194Y-111379134D01*
X107635355Y-111395355D01*
X107619134Y-111406194D01*
X107600000Y-111410000D01*
X106400000Y-111410000D01*
X106380866Y-111406194D01*
X106364645Y-111395355D01*
X106353806Y-111379134D01*
X106350000Y-111360000D01*
X106350000Y-110160000D01*
X106353806Y-110140866D01*
X106364645Y-110124645D01*
X106380866Y-110113806D01*
X106400000Y-110110000D01*
X107600000Y-110110000D01*
X107619134Y-110113806D01*
G37*
G36*
X94597710Y-110669463D02*
G01*
X94659350Y-110710650D01*
X94700537Y-110772290D01*
X94715000Y-110845000D01*
X94715000Y-111125000D01*
X94700537Y-111197710D01*
X94659350Y-111259350D01*
X94597710Y-111300537D01*
X94525000Y-111315000D01*
X94185000Y-111315000D01*
X94112290Y-111300537D01*
X94050650Y-111259350D01*
X94009463Y-111197710D01*
X93995000Y-111125000D01*
X93995000Y-110845000D01*
X94009463Y-110772290D01*
X94050650Y-110710650D01*
X94112290Y-110669463D01*
X94185000Y-110655000D01*
X94525000Y-110655000D01*
X94597710Y-110669463D01*
G37*
G36*
X92797710Y-109919463D02*
G01*
X92859350Y-109960650D01*
X92900537Y-110022290D01*
X92915000Y-110095000D01*
X92915000Y-110375000D01*
X92900537Y-110447710D01*
X92859350Y-110509350D01*
X92797710Y-110550537D01*
X92725000Y-110565000D01*
X92385000Y-110565000D01*
X92312290Y-110550537D01*
X92250650Y-110509350D01*
X92209463Y-110447710D01*
X92195000Y-110375000D01*
X92195000Y-110095000D01*
X92209463Y-110022290D01*
X92250650Y-109960650D01*
X92312290Y-109919463D01*
X92385000Y-109905000D01*
X92725000Y-109905000D01*
X92797710Y-109919463D01*
G37*
G36*
X95687710Y-109709463D02*
G01*
X95749350Y-109750650D01*
X95790537Y-109812290D01*
X95805000Y-109885000D01*
X95805000Y-110225000D01*
X95790537Y-110297710D01*
X95749350Y-110359350D01*
X95687710Y-110400537D01*
X95615000Y-110415000D01*
X95335000Y-110415000D01*
X95262290Y-110400537D01*
X95200650Y-110359350D01*
X95159463Y-110297710D01*
X95145000Y-110225000D01*
X95145000Y-109885000D01*
X95159463Y-109812290D01*
X95200650Y-109750650D01*
X95262290Y-109709463D01*
X95335000Y-109695000D01*
X95615000Y-109695000D01*
X95687710Y-109709463D01*
G37*
G36*
X96647710Y-109709463D02*
G01*
X96709350Y-109750650D01*
X96750537Y-109812290D01*
X96765000Y-109885000D01*
X96765000Y-110225000D01*
X96750537Y-110297710D01*
X96709350Y-110359350D01*
X96647710Y-110400537D01*
X96575000Y-110415000D01*
X96295000Y-110415000D01*
X96222290Y-110400537D01*
X96160650Y-110359350D01*
X96119463Y-110297710D01*
X96105000Y-110225000D01*
X96105000Y-109885000D01*
X96119463Y-109812290D01*
X96160650Y-109750650D01*
X96222290Y-109709463D01*
X96295000Y-109695000D01*
X96575000Y-109695000D01*
X96647710Y-109709463D01*
G37*
G36*
X94597710Y-109709463D02*
G01*
X94659350Y-109750650D01*
X94700537Y-109812290D01*
X94715000Y-109885000D01*
X94715000Y-110165000D01*
X94700537Y-110237710D01*
X94659350Y-110299350D01*
X94597710Y-110340537D01*
X94525000Y-110355000D01*
X94185000Y-110355000D01*
X94112290Y-110340537D01*
X94050650Y-110299350D01*
X94009463Y-110237710D01*
X93995000Y-110165000D01*
X93995000Y-109885000D01*
X94009463Y-109812290D01*
X94050650Y-109750650D01*
X94112290Y-109709463D01*
X94185000Y-109695000D01*
X94525000Y-109695000D01*
X94597710Y-109709463D01*
G37*
G36*
X83786411Y-108801275D02*
G01*
X83848664Y-108809471D01*
X83864324Y-108816773D01*
X83883325Y-108820553D01*
X83908491Y-108837368D01*
X83934422Y-108849460D01*
X83950197Y-108865235D01*
X83970919Y-108879081D01*
X83984764Y-108899802D01*
X84000539Y-108915577D01*
X84012629Y-108941505D01*
X84029447Y-108966675D01*
X84033226Y-108985677D01*
X84040528Y-109001335D01*
X84048722Y-109063575D01*
X84050000Y-109070000D01*
X84050000Y-109730000D01*
X84048721Y-109736426D01*
X84040528Y-109798664D01*
X84033227Y-109814320D01*
X84029447Y-109833325D01*
X84012628Y-109858496D01*
X84000539Y-109884422D01*
X83984766Y-109900194D01*
X83970919Y-109920919D01*
X83950194Y-109934766D01*
X83934422Y-109950539D01*
X83908496Y-109962628D01*
X83883325Y-109979447D01*
X83864320Y-109983227D01*
X83848664Y-109990528D01*
X83786426Y-109998721D01*
X83780000Y-110000000D01*
X82620000Y-110000000D01*
X82613575Y-109998722D01*
X82551335Y-109990528D01*
X82535677Y-109983226D01*
X82516675Y-109979447D01*
X82491505Y-109962629D01*
X82465577Y-109950539D01*
X82449802Y-109934764D01*
X82429081Y-109920919D01*
X82415235Y-109900197D01*
X82399460Y-109884422D01*
X82387368Y-109858491D01*
X82370553Y-109833325D01*
X82366773Y-109814324D01*
X82359471Y-109798664D01*
X82351275Y-109736411D01*
X82350000Y-109730000D01*
X82350000Y-109070000D01*
X82351275Y-109063590D01*
X82359471Y-109001335D01*
X82366773Y-108985673D01*
X82370553Y-108966675D01*
X82387367Y-108941510D01*
X82399460Y-108915577D01*
X82415237Y-108899799D01*
X82429081Y-108879081D01*
X82449799Y-108865237D01*
X82465577Y-108849460D01*
X82491510Y-108837367D01*
X82516675Y-108820553D01*
X82535673Y-108816773D01*
X82551335Y-108809471D01*
X82613590Y-108801275D01*
X82620000Y-108800000D01*
X83780000Y-108800000D01*
X83786411Y-108801275D01*
G37*
G36*
X115120796Y-108909082D02*
G01*
X115180815Y-108949185D01*
X115220918Y-109009204D01*
X115235000Y-109080000D01*
X115235000Y-109450000D01*
X115220918Y-109520796D01*
X115180815Y-109580815D01*
X115120796Y-109620918D01*
X115050000Y-109635000D01*
X114780000Y-109635000D01*
X114709204Y-109620918D01*
X114649185Y-109580815D01*
X114609082Y-109520796D01*
X114595000Y-109450000D01*
X114595000Y-109080000D01*
X114609082Y-109009204D01*
X114649185Y-108949185D01*
X114709204Y-108909082D01*
X114780000Y-108895000D01*
X115050000Y-108895000D01*
X115120796Y-108909082D01*
G37*
G36*
X116140796Y-108909082D02*
G01*
X116200815Y-108949185D01*
X116240918Y-109009204D01*
X116255000Y-109080000D01*
X116255000Y-109450000D01*
X116240918Y-109520796D01*
X116200815Y-109580815D01*
X116140796Y-109620918D01*
X116070000Y-109635000D01*
X115800000Y-109635000D01*
X115729204Y-109620918D01*
X115669185Y-109580815D01*
X115629082Y-109520796D01*
X115615000Y-109450000D01*
X115615000Y-109080000D01*
X115629082Y-109009204D01*
X115669185Y-108949185D01*
X115729204Y-108909082D01*
X115800000Y-108895000D01*
X116070000Y-108895000D01*
X116140796Y-108909082D01*
G37*
G36*
X92797710Y-108959463D02*
G01*
X92859350Y-109000650D01*
X92900537Y-109062290D01*
X92915000Y-109135000D01*
X92915000Y-109415000D01*
X92900537Y-109487710D01*
X92859350Y-109549350D01*
X92797710Y-109590537D01*
X92725000Y-109605000D01*
X92385000Y-109605000D01*
X92312290Y-109590537D01*
X92250650Y-109549350D01*
X92209463Y-109487710D01*
X92195000Y-109415000D01*
X92195000Y-109135000D01*
X92209463Y-109062290D01*
X92250650Y-109000650D01*
X92312290Y-108959463D01*
X92385000Y-108945000D01*
X92725000Y-108945000D01*
X92797710Y-108959463D01*
G37*
G36*
X96064134Y-107748806D02*
G01*
X96080355Y-107759645D01*
X96091194Y-107775866D01*
X96095000Y-107795000D01*
X96095000Y-109295000D01*
X96091194Y-109314134D01*
X96080355Y-109330355D01*
X96064134Y-109341194D01*
X96045000Y-109345000D01*
X93345000Y-109345000D01*
X93325866Y-109341194D01*
X93309645Y-109330355D01*
X93298806Y-109314134D01*
X93295000Y-109295000D01*
X93295000Y-107795000D01*
X93298806Y-107775866D01*
X93309645Y-107759645D01*
X93325866Y-107748806D01*
X93345000Y-107745000D01*
X96045000Y-107745000D01*
X96064134Y-107748806D01*
G37*
G36*
X110918685Y-106507969D02*
G01*
X110927358Y-106511798D01*
X110934925Y-106512901D01*
X110982223Y-106536023D01*
X111019541Y-106552501D01*
X111022996Y-106555956D01*
X111023920Y-106556408D01*
X111093591Y-106626079D01*
X111094042Y-106627002D01*
X111097499Y-106630459D01*
X111113978Y-106667782D01*
X111137098Y-106715073D01*
X111138200Y-106722639D01*
X111142031Y-106731315D01*
X111150000Y-106800000D01*
X111150000Y-109000000D01*
X111142031Y-109068685D01*
X111138199Y-109077361D01*
X111137098Y-109084925D01*
X111113985Y-109132202D01*
X111097499Y-109169541D01*
X111094041Y-109172998D01*
X111093591Y-109173920D01*
X111023920Y-109243591D01*
X111022998Y-109244041D01*
X111019541Y-109247499D01*
X110982207Y-109263983D01*
X110934926Y-109287098D01*
X110927361Y-109288200D01*
X110918685Y-109292031D01*
X110850000Y-109300000D01*
X110200000Y-109300000D01*
X110131315Y-109292031D01*
X110122638Y-109288200D01*
X110115074Y-109287098D01*
X110067787Y-109263981D01*
X110030459Y-109247499D01*
X110027002Y-109244042D01*
X110026079Y-109243591D01*
X109956408Y-109173920D01*
X109955956Y-109172996D01*
X109952501Y-109169541D01*
X109936025Y-109132228D01*
X109912901Y-109084926D01*
X109911798Y-109077357D01*
X109907969Y-109068685D01*
X109900000Y-109000000D01*
X109900000Y-106800000D01*
X109907969Y-106731315D01*
X109911798Y-106722642D01*
X109912901Y-106715074D01*
X109936028Y-106667766D01*
X109952501Y-106630459D01*
X109955955Y-106627004D01*
X109956408Y-106626079D01*
X110026079Y-106556408D01*
X110027004Y-106555955D01*
X110030459Y-106552501D01*
X110067761Y-106536030D01*
X110115073Y-106512901D01*
X110122642Y-106511798D01*
X110131315Y-106507969D01*
X110200000Y-106500000D01*
X110850000Y-106500000D01*
X110918685Y-106507969D01*
G37*
G36*
X113868685Y-106507969D02*
G01*
X113877358Y-106511798D01*
X113884925Y-106512901D01*
X113932223Y-106536023D01*
X113969541Y-106552501D01*
X113972996Y-106555956D01*
X113973920Y-106556408D01*
X114043591Y-106626079D01*
X114044042Y-106627002D01*
X114047499Y-106630459D01*
X114063978Y-106667782D01*
X114087098Y-106715073D01*
X114088200Y-106722639D01*
X114092031Y-106731315D01*
X114100000Y-106800000D01*
X114100000Y-109000000D01*
X114092031Y-109068685D01*
X114088199Y-109077361D01*
X114087098Y-109084925D01*
X114063985Y-109132202D01*
X114047499Y-109169541D01*
X114044041Y-109172998D01*
X114043591Y-109173920D01*
X113973920Y-109243591D01*
X113972998Y-109244041D01*
X113969541Y-109247499D01*
X113932207Y-109263983D01*
X113884926Y-109287098D01*
X113877361Y-109288200D01*
X113868685Y-109292031D01*
X113800000Y-109300000D01*
X113150000Y-109300000D01*
X113081315Y-109292031D01*
X113072638Y-109288200D01*
X113065074Y-109287098D01*
X113017787Y-109263981D01*
X112980459Y-109247499D01*
X112977002Y-109244042D01*
X112976079Y-109243591D01*
X112906408Y-109173920D01*
X112905956Y-109172996D01*
X112902501Y-109169541D01*
X112886025Y-109132228D01*
X112862901Y-109084926D01*
X112861798Y-109077357D01*
X112857969Y-109068685D01*
X112850000Y-109000000D01*
X112850000Y-106800000D01*
X112857969Y-106731315D01*
X112861798Y-106722642D01*
X112862901Y-106715074D01*
X112886028Y-106667766D01*
X112902501Y-106630459D01*
X112905955Y-106627004D01*
X112906408Y-106626079D01*
X112976079Y-106556408D01*
X112977004Y-106555955D01*
X112980459Y-106552501D01*
X113017761Y-106536030D01*
X113065073Y-106512901D01*
X113072642Y-106511798D01*
X113081315Y-106507969D01*
X113150000Y-106500000D01*
X113800000Y-106500000D01*
X113868685Y-106507969D01*
G37*
G36*
X92820796Y-107929082D02*
G01*
X92880815Y-107969185D01*
X92920918Y-108029204D01*
X92935000Y-108100000D01*
X92935000Y-108370000D01*
X92920918Y-108440796D01*
X92880815Y-108500815D01*
X92820796Y-108540918D01*
X92750000Y-108555000D01*
X92380000Y-108555000D01*
X92309204Y-108540918D01*
X92249185Y-108500815D01*
X92209082Y-108440796D01*
X92195000Y-108370000D01*
X92195000Y-108100000D01*
X92209082Y-108029204D01*
X92249185Y-107969185D01*
X92309204Y-107929082D01*
X92380000Y-107915000D01*
X92750000Y-107915000D01*
X92820796Y-107929082D01*
G37*
G36*
X115929134Y-107553806D02*
G01*
X115945355Y-107564645D01*
X115956194Y-107580866D01*
X115960000Y-107600000D01*
X115960000Y-108500000D01*
X115956194Y-108519134D01*
X115945355Y-108535355D01*
X115929134Y-108546194D01*
X115910000Y-108550000D01*
X114910000Y-108550000D01*
X114890866Y-108546194D01*
X114874645Y-108535355D01*
X114863806Y-108519134D01*
X114860000Y-108500000D01*
X114860000Y-107600000D01*
X114863806Y-107580866D01*
X114874645Y-107564645D01*
X114890866Y-107553806D01*
X114910000Y-107550000D01*
X115910000Y-107550000D01*
X115929134Y-107553806D01*
G37*
G36*
X117529134Y-107553806D02*
G01*
X117545355Y-107564645D01*
X117556194Y-107580866D01*
X117560000Y-107600000D01*
X117560000Y-108500000D01*
X117556194Y-108519134D01*
X117545355Y-108535355D01*
X117529134Y-108546194D01*
X117510000Y-108550000D01*
X116510000Y-108550000D01*
X116490866Y-108546194D01*
X116474645Y-108535355D01*
X116463806Y-108519134D01*
X116460000Y-108500000D01*
X116460000Y-107600000D01*
X116463806Y-107580866D01*
X116474645Y-107564645D01*
X116490866Y-107553806D01*
X116510000Y-107550000D01*
X117510000Y-107550000D01*
X117529134Y-107553806D01*
G37*
G36*
X83786411Y-107301275D02*
G01*
X83848664Y-107309471D01*
X83864324Y-107316773D01*
X83883325Y-107320553D01*
X83908491Y-107337368D01*
X83934422Y-107349460D01*
X83950197Y-107365235D01*
X83970919Y-107379081D01*
X83984764Y-107399802D01*
X84000539Y-107415577D01*
X84012629Y-107441505D01*
X84029447Y-107466675D01*
X84033226Y-107485677D01*
X84040528Y-107501335D01*
X84048722Y-107563575D01*
X84050000Y-107570000D01*
X84050000Y-108230000D01*
X84048721Y-108236426D01*
X84040528Y-108298664D01*
X84033227Y-108314320D01*
X84029447Y-108333325D01*
X84012628Y-108358496D01*
X84000539Y-108384422D01*
X83984766Y-108400194D01*
X83970919Y-108420919D01*
X83950194Y-108434766D01*
X83934422Y-108450539D01*
X83908496Y-108462628D01*
X83883325Y-108479447D01*
X83864320Y-108483227D01*
X83848664Y-108490528D01*
X83786426Y-108498721D01*
X83780000Y-108500000D01*
X82620000Y-108500000D01*
X82613575Y-108498722D01*
X82551335Y-108490528D01*
X82535677Y-108483226D01*
X82516675Y-108479447D01*
X82491505Y-108462629D01*
X82465577Y-108450539D01*
X82449802Y-108434764D01*
X82429081Y-108420919D01*
X82415235Y-108400197D01*
X82399460Y-108384422D01*
X82387368Y-108358491D01*
X82370553Y-108333325D01*
X82366773Y-108314324D01*
X82359471Y-108298664D01*
X82351275Y-108236411D01*
X82350000Y-108230000D01*
X82350000Y-107570000D01*
X82351275Y-107563590D01*
X82359471Y-107501335D01*
X82366773Y-107485673D01*
X82370553Y-107466675D01*
X82387367Y-107441510D01*
X82399460Y-107415577D01*
X82415237Y-107399799D01*
X82429081Y-107379081D01*
X82449799Y-107365237D01*
X82465577Y-107349460D01*
X82491510Y-107337367D01*
X82516675Y-107320553D01*
X82535673Y-107316773D01*
X82551335Y-107309471D01*
X82613590Y-107301275D01*
X82620000Y-107300000D01*
X83780000Y-107300000D01*
X83786411Y-107301275D01*
G37*
G36*
X92820796Y-106909082D02*
G01*
X92880815Y-106949185D01*
X92920918Y-107009204D01*
X92935000Y-107080000D01*
X92935000Y-107350000D01*
X92920918Y-107420796D01*
X92880815Y-107480815D01*
X92820796Y-107520918D01*
X92750000Y-107535000D01*
X92380000Y-107535000D01*
X92309204Y-107520918D01*
X92249185Y-107480815D01*
X92209082Y-107420796D01*
X92195000Y-107350000D01*
X92195000Y-107080000D01*
X92209082Y-107009204D01*
X92249185Y-106949185D01*
X92309204Y-106909082D01*
X92380000Y-106895000D01*
X92750000Y-106895000D01*
X92820796Y-106909082D01*
G37*
G36*
X96064134Y-105848806D02*
G01*
X96080355Y-105859645D01*
X96091194Y-105875866D01*
X96095000Y-105895000D01*
X96095000Y-107395000D01*
X96091194Y-107414134D01*
X96080355Y-107430355D01*
X96064134Y-107441194D01*
X96045000Y-107445000D01*
X93345000Y-107445000D01*
X93325866Y-107441194D01*
X93309645Y-107430355D01*
X93298806Y-107414134D01*
X93295000Y-107395000D01*
X93295000Y-105895000D01*
X93298806Y-105875866D01*
X93309645Y-105859645D01*
X93325866Y-105848806D01*
X93345000Y-105845000D01*
X96045000Y-105845000D01*
X96064134Y-105848806D01*
G37*
G36*
X83786411Y-105801275D02*
G01*
X83848664Y-105809471D01*
X83864324Y-105816773D01*
X83883325Y-105820553D01*
X83908491Y-105837368D01*
X83934422Y-105849460D01*
X83950197Y-105865235D01*
X83970919Y-105879081D01*
X83984764Y-105899802D01*
X84000539Y-105915577D01*
X84012629Y-105941505D01*
X84029447Y-105966675D01*
X84033226Y-105985677D01*
X84040528Y-106001335D01*
X84048722Y-106063575D01*
X84050000Y-106070000D01*
X84050000Y-106730000D01*
X84048721Y-106736426D01*
X84040528Y-106798664D01*
X84033227Y-106814320D01*
X84029447Y-106833325D01*
X84012628Y-106858496D01*
X84000539Y-106884422D01*
X83984766Y-106900194D01*
X83970919Y-106920919D01*
X83950194Y-106934766D01*
X83934422Y-106950539D01*
X83908496Y-106962628D01*
X83883325Y-106979447D01*
X83864320Y-106983227D01*
X83848664Y-106990528D01*
X83786426Y-106998721D01*
X83780000Y-107000000D01*
X82620000Y-107000000D01*
X82613575Y-106998722D01*
X82551335Y-106990528D01*
X82535677Y-106983226D01*
X82516675Y-106979447D01*
X82491505Y-106962629D01*
X82465577Y-106950539D01*
X82449802Y-106934764D01*
X82429081Y-106920919D01*
X82415235Y-106900197D01*
X82399460Y-106884422D01*
X82387368Y-106858491D01*
X82370553Y-106833325D01*
X82366773Y-106814324D01*
X82359471Y-106798664D01*
X82351275Y-106736411D01*
X82350000Y-106730000D01*
X82350000Y-106070000D01*
X82351275Y-106063590D01*
X82359471Y-106001335D01*
X82366773Y-105985673D01*
X82370553Y-105966675D01*
X82387367Y-105941510D01*
X82399460Y-105915577D01*
X82415237Y-105899799D01*
X82429081Y-105879081D01*
X82449799Y-105865237D01*
X82465577Y-105849460D01*
X82491510Y-105837367D01*
X82516675Y-105820553D01*
X82535673Y-105816773D01*
X82551335Y-105809471D01*
X82613590Y-105801275D01*
X82620000Y-105800000D01*
X83780000Y-105800000D01*
X83786411Y-105801275D01*
G37*
G36*
X115084134Y-105103806D02*
G01*
X115100355Y-105114645D01*
X115111194Y-105130866D01*
X115115000Y-105150000D01*
X115115000Y-106850000D01*
X115111194Y-106869134D01*
X115100355Y-106885355D01*
X115084134Y-106896194D01*
X115065000Y-106900000D01*
X114515000Y-106900000D01*
X114495866Y-106896194D01*
X114479645Y-106885355D01*
X114468806Y-106869134D01*
X114465000Y-106850000D01*
X114465000Y-105150000D01*
X114468806Y-105130866D01*
X114479645Y-105114645D01*
X114495866Y-105103806D01*
X114515000Y-105100000D01*
X115065000Y-105100000D01*
X115084134Y-105103806D01*
G37*
G36*
X103997710Y-106069463D02*
G01*
X104059350Y-106110650D01*
X104100537Y-106172290D01*
X104115000Y-106245000D01*
X104115000Y-106525000D01*
X104100537Y-106597710D01*
X104059350Y-106659350D01*
X103997710Y-106700537D01*
X103925000Y-106715000D01*
X103585000Y-106715000D01*
X103512290Y-106700537D01*
X103450650Y-106659350D01*
X103409463Y-106597710D01*
X103395000Y-106525000D01*
X103395000Y-106245000D01*
X103409463Y-106172290D01*
X103450650Y-106110650D01*
X103512290Y-106069463D01*
X103585000Y-106055000D01*
X103925000Y-106055000D01*
X103997710Y-106069463D01*
G37*
G36*
X109270796Y-105929082D02*
G01*
X109330815Y-105969185D01*
X109370918Y-106029204D01*
X109385000Y-106100000D01*
X109385000Y-106370000D01*
X109370918Y-106440796D01*
X109330815Y-106500815D01*
X109270796Y-106540918D01*
X109200000Y-106555000D01*
X108830000Y-106555000D01*
X108759204Y-106540918D01*
X108699185Y-106500815D01*
X108659082Y-106440796D01*
X108645000Y-106370000D01*
X108645000Y-106100000D01*
X108659082Y-106029204D01*
X108699185Y-105969185D01*
X108759204Y-105929082D01*
X108830000Y-105915000D01*
X109200000Y-105915000D01*
X109270796Y-105929082D01*
G37*
G36*
X103997710Y-105109463D02*
G01*
X104059350Y-105150650D01*
X104100537Y-105212290D01*
X104115000Y-105285000D01*
X104115000Y-105565000D01*
X104100537Y-105637710D01*
X104059350Y-105699350D01*
X103997710Y-105740537D01*
X103925000Y-105755000D01*
X103585000Y-105755000D01*
X103512290Y-105740537D01*
X103450650Y-105699350D01*
X103409463Y-105637710D01*
X103395000Y-105565000D01*
X103395000Y-105285000D01*
X103409463Y-105212290D01*
X103450650Y-105150650D01*
X103512290Y-105109463D01*
X103585000Y-105095000D01*
X103925000Y-105095000D01*
X103997710Y-105109463D01*
G37*
G36*
X113064134Y-104873806D02*
G01*
X113080355Y-104884645D01*
X113091194Y-104900866D01*
X113095000Y-104920000D01*
X113095000Y-105570000D01*
X113091194Y-105589134D01*
X113080355Y-105605355D01*
X113064134Y-105616194D01*
X113045000Y-105620000D01*
X112045000Y-105620000D01*
X112025866Y-105616194D01*
X112009645Y-105605355D01*
X111998806Y-105589134D01*
X111995000Y-105570000D01*
X111995000Y-104920000D01*
X111998806Y-104900866D01*
X112009645Y-104884645D01*
X112025866Y-104873806D01*
X112045000Y-104870000D01*
X113045000Y-104870000D01*
X113064134Y-104873806D01*
G37*
G36*
X109270796Y-104909082D02*
G01*
X109330815Y-104949185D01*
X109370918Y-105009204D01*
X109385000Y-105080000D01*
X109385000Y-105350000D01*
X109370918Y-105420796D01*
X109330815Y-105480815D01*
X109270796Y-105520918D01*
X109200000Y-105535000D01*
X108830000Y-105535000D01*
X108759204Y-105520918D01*
X108699185Y-105480815D01*
X108659082Y-105420796D01*
X108645000Y-105350000D01*
X108645000Y-105080000D01*
X108659082Y-105009204D01*
X108699185Y-104949185D01*
X108759204Y-104909082D01*
X108830000Y-104895000D01*
X109200000Y-104895000D01*
X109270796Y-104909082D01*
G37*
G36*
X94181409Y-104401275D02*
G01*
X94244958Y-104409641D01*
X94260943Y-104417095D01*
X94280238Y-104420933D01*
X94305792Y-104438008D01*
X94332290Y-104450364D01*
X94348412Y-104466486D01*
X94369454Y-104480546D01*
X94383513Y-104501587D01*
X94399635Y-104517709D01*
X94411990Y-104544204D01*
X94429067Y-104569762D01*
X94432905Y-104589058D01*
X94440358Y-104605041D01*
X94448722Y-104668577D01*
X94450000Y-104675000D01*
X94450000Y-105125000D01*
X94448722Y-105131424D01*
X94440358Y-105194958D01*
X94432905Y-105210939D01*
X94429067Y-105230238D01*
X94411988Y-105255797D01*
X94399635Y-105282290D01*
X94383516Y-105298408D01*
X94369454Y-105319454D01*
X94348408Y-105333516D01*
X94332290Y-105349635D01*
X94305797Y-105361988D01*
X94280238Y-105379067D01*
X94260939Y-105382905D01*
X94244958Y-105390358D01*
X94181424Y-105398722D01*
X94175000Y-105400000D01*
X93675000Y-105400000D01*
X93668577Y-105398722D01*
X93605041Y-105390358D01*
X93589058Y-105382905D01*
X93569762Y-105379067D01*
X93544204Y-105361990D01*
X93517709Y-105349635D01*
X93501587Y-105333513D01*
X93480546Y-105319454D01*
X93466486Y-105298412D01*
X93450364Y-105282290D01*
X93438008Y-105255792D01*
X93420933Y-105230238D01*
X93417095Y-105210943D01*
X93409641Y-105194958D01*
X93401275Y-105131409D01*
X93400000Y-105125000D01*
X93400000Y-104675000D01*
X93401274Y-104668592D01*
X93409641Y-104605041D01*
X93417095Y-104589054D01*
X93420933Y-104569762D01*
X93438006Y-104544209D01*
X93450364Y-104517709D01*
X93466488Y-104501584D01*
X93480546Y-104480546D01*
X93501584Y-104466488D01*
X93517709Y-104450364D01*
X93544209Y-104438006D01*
X93569762Y-104420933D01*
X93589054Y-104417095D01*
X93605041Y-104409641D01*
X93668592Y-104401274D01*
X93675000Y-104400000D01*
X94175000Y-104400000D01*
X94181409Y-104401275D01*
G37*
G36*
X91214134Y-104298806D02*
G01*
X91230355Y-104309645D01*
X91241194Y-104325866D01*
X91245000Y-104345000D01*
X91245000Y-105145000D01*
X91241194Y-105164134D01*
X91230355Y-105180355D01*
X91214134Y-105191194D01*
X91195000Y-105195000D01*
X90395000Y-105195000D01*
X90375866Y-105191194D01*
X90359645Y-105180355D01*
X90348806Y-105164134D01*
X90345000Y-105145000D01*
X90345000Y-104345000D01*
X90348806Y-104325866D01*
X90359645Y-104309645D01*
X90375866Y-104298806D01*
X90395000Y-104295000D01*
X91195000Y-104295000D01*
X91214134Y-104298806D01*
G37*
G36*
X92914134Y-104298806D02*
G01*
X92930355Y-104309645D01*
X92941194Y-104325866D01*
X92945000Y-104345000D01*
X92945000Y-105145000D01*
X92941194Y-105164134D01*
X92930355Y-105180355D01*
X92914134Y-105191194D01*
X92895000Y-105195000D01*
X92095000Y-105195000D01*
X92075866Y-105191194D01*
X92059645Y-105180355D01*
X92048806Y-105164134D01*
X92045000Y-105145000D01*
X92045000Y-104345000D01*
X92048806Y-104325866D01*
X92059645Y-104309645D01*
X92075866Y-104298806D01*
X92095000Y-104295000D01*
X92895000Y-104295000D01*
X92914134Y-104298806D01*
G37*
G36*
X96355558Y-104182021D02*
G01*
X96407979Y-104234442D01*
X96436349Y-104302933D01*
X96440000Y-104340000D01*
X96440000Y-104960000D01*
X96436349Y-104997067D01*
X96407979Y-105065558D01*
X96355558Y-105117979D01*
X96287067Y-105146349D01*
X96212933Y-105146349D01*
X96144442Y-105117979D01*
X96092021Y-105065558D01*
X96063651Y-104997067D01*
X96060000Y-104960000D01*
X96060000Y-104340000D01*
X96063651Y-104302933D01*
X96092021Y-104234442D01*
X96144442Y-104182021D01*
X96212933Y-104153651D01*
X96287067Y-104153651D01*
X96355558Y-104182021D01*
G37*
G36*
X96855558Y-104182021D02*
G01*
X96907979Y-104234442D01*
X96936349Y-104302933D01*
X96940000Y-104340000D01*
X96940000Y-104960000D01*
X96936349Y-104997067D01*
X96907979Y-105065558D01*
X96855558Y-105117979D01*
X96787067Y-105146349D01*
X96712933Y-105146349D01*
X96644442Y-105117979D01*
X96592021Y-105065558D01*
X96563651Y-104997067D01*
X96560000Y-104960000D01*
X96560000Y-104340000D01*
X96563651Y-104302933D01*
X96592021Y-104234442D01*
X96644442Y-104182021D01*
X96712933Y-104153651D01*
X96787067Y-104153651D01*
X96855558Y-104182021D01*
G37*
G36*
X97355558Y-104182021D02*
G01*
X97407979Y-104234442D01*
X97436349Y-104302933D01*
X97440000Y-104340000D01*
X97440000Y-104960000D01*
X97436349Y-104997067D01*
X97407979Y-105065558D01*
X97355558Y-105117979D01*
X97287067Y-105146349D01*
X97212933Y-105146349D01*
X97144442Y-105117979D01*
X97092021Y-105065558D01*
X97063651Y-104997067D01*
X97060000Y-104960000D01*
X97060000Y-104340000D01*
X97063651Y-104302933D01*
X97092021Y-104234442D01*
X97144442Y-104182021D01*
X97212933Y-104153651D01*
X97287067Y-104153651D01*
X97355558Y-104182021D01*
G37*
G36*
X97855558Y-104182021D02*
G01*
X97907979Y-104234442D01*
X97936349Y-104302933D01*
X97940000Y-104340000D01*
X97940000Y-104960000D01*
X97936349Y-104997067D01*
X97907979Y-105065558D01*
X97855558Y-105117979D01*
X97787067Y-105146349D01*
X97712933Y-105146349D01*
X97644442Y-105117979D01*
X97592021Y-105065558D01*
X97563651Y-104997067D01*
X97560000Y-104960000D01*
X97560000Y-104340000D01*
X97563651Y-104302933D01*
X97592021Y-104234442D01*
X97644442Y-104182021D01*
X97712933Y-104153651D01*
X97787067Y-104153651D01*
X97855558Y-104182021D01*
G37*
G36*
X98355558Y-104182021D02*
G01*
X98407979Y-104234442D01*
X98436349Y-104302933D01*
X98440000Y-104340000D01*
X98440000Y-104960000D01*
X98436349Y-104997067D01*
X98407979Y-105065558D01*
X98355558Y-105117979D01*
X98287067Y-105146349D01*
X98212933Y-105146349D01*
X98144442Y-105117979D01*
X98092021Y-105065558D01*
X98063651Y-104997067D01*
X98060000Y-104960000D01*
X98060000Y-104340000D01*
X98063651Y-104302933D01*
X98092021Y-104234442D01*
X98144442Y-104182021D01*
X98212933Y-104153651D01*
X98287067Y-104153651D01*
X98355558Y-104182021D01*
G37*
G36*
X98855558Y-104182021D02*
G01*
X98907979Y-104234442D01*
X98936349Y-104302933D01*
X98940000Y-104340000D01*
X98940000Y-104960000D01*
X98936349Y-104997067D01*
X98907979Y-105065558D01*
X98855558Y-105117979D01*
X98787067Y-105146349D01*
X98712933Y-105146349D01*
X98644442Y-105117979D01*
X98592021Y-105065558D01*
X98563651Y-104997067D01*
X98560000Y-104960000D01*
X98560000Y-104340000D01*
X98563651Y-104302933D01*
X98592021Y-104234442D01*
X98644442Y-104182021D01*
X98712933Y-104153651D01*
X98787067Y-104153651D01*
X98855558Y-104182021D01*
G37*
G36*
X99355558Y-104182021D02*
G01*
X99407979Y-104234442D01*
X99436349Y-104302933D01*
X99440000Y-104340000D01*
X99440000Y-104960000D01*
X99436349Y-104997067D01*
X99407979Y-105065558D01*
X99355558Y-105117979D01*
X99287067Y-105146349D01*
X99212933Y-105146349D01*
X99144442Y-105117979D01*
X99092021Y-105065558D01*
X99063651Y-104997067D01*
X99060000Y-104960000D01*
X99060000Y-104340000D01*
X99063651Y-104302933D01*
X99092021Y-104234442D01*
X99144442Y-104182021D01*
X99212933Y-104153651D01*
X99287067Y-104153651D01*
X99355558Y-104182021D01*
G37*
G36*
X99855558Y-104182021D02*
G01*
X99907979Y-104234442D01*
X99936349Y-104302933D01*
X99940000Y-104340000D01*
X99940000Y-104960000D01*
X99936349Y-104997067D01*
X99907979Y-105065558D01*
X99855558Y-105117979D01*
X99787067Y-105146349D01*
X99712933Y-105146349D01*
X99644442Y-105117979D01*
X99592021Y-105065558D01*
X99563651Y-104997067D01*
X99560000Y-104960000D01*
X99560000Y-104340000D01*
X99563651Y-104302933D01*
X99592021Y-104234442D01*
X99644442Y-104182021D01*
X99712933Y-104153651D01*
X99787067Y-104153651D01*
X99855558Y-104182021D01*
G37*
G36*
X100355558Y-104182021D02*
G01*
X100407979Y-104234442D01*
X100436349Y-104302933D01*
X100440000Y-104340000D01*
X100440000Y-104960000D01*
X100436349Y-104997067D01*
X100407979Y-105065558D01*
X100355558Y-105117979D01*
X100287067Y-105146349D01*
X100212933Y-105146349D01*
X100144442Y-105117979D01*
X100092021Y-105065558D01*
X100063651Y-104997067D01*
X100060000Y-104960000D01*
X100060000Y-104340000D01*
X100063651Y-104302933D01*
X100092021Y-104234442D01*
X100144442Y-104182021D01*
X100212933Y-104153651D01*
X100287067Y-104153651D01*
X100355558Y-104182021D01*
G37*
G36*
X100855558Y-104182021D02*
G01*
X100907979Y-104234442D01*
X100936349Y-104302933D01*
X100940000Y-104340000D01*
X100940000Y-104960000D01*
X100936349Y-104997067D01*
X100907979Y-105065558D01*
X100855558Y-105117979D01*
X100787067Y-105146349D01*
X100712933Y-105146349D01*
X100644442Y-105117979D01*
X100592021Y-105065558D01*
X100563651Y-104997067D01*
X100560000Y-104960000D01*
X100560000Y-104340000D01*
X100563651Y-104302933D01*
X100592021Y-104234442D01*
X100644442Y-104182021D01*
X100712933Y-104153651D01*
X100787067Y-104153651D01*
X100855558Y-104182021D01*
G37*
G36*
X101355558Y-104182021D02*
G01*
X101407979Y-104234442D01*
X101436349Y-104302933D01*
X101440000Y-104340000D01*
X101440000Y-104960000D01*
X101436349Y-104997067D01*
X101407979Y-105065558D01*
X101355558Y-105117979D01*
X101287067Y-105146349D01*
X101212933Y-105146349D01*
X101144442Y-105117979D01*
X101092021Y-105065558D01*
X101063651Y-104997067D01*
X101060000Y-104960000D01*
X101060000Y-104340000D01*
X101063651Y-104302933D01*
X101092021Y-104234442D01*
X101144442Y-104182021D01*
X101212933Y-104153651D01*
X101287067Y-104153651D01*
X101355558Y-104182021D01*
G37*
G36*
X101855558Y-104182021D02*
G01*
X101907979Y-104234442D01*
X101936349Y-104302933D01*
X101940000Y-104340000D01*
X101940000Y-104960000D01*
X101936349Y-104997067D01*
X101907979Y-105065558D01*
X101855558Y-105117979D01*
X101787067Y-105146349D01*
X101712933Y-105146349D01*
X101644442Y-105117979D01*
X101592021Y-105065558D01*
X101563651Y-104997067D01*
X101560000Y-104960000D01*
X101560000Y-104340000D01*
X101563651Y-104302933D01*
X101592021Y-104234442D01*
X101644442Y-104182021D01*
X101712933Y-104153651D01*
X101787067Y-104153651D01*
X101855558Y-104182021D01*
G37*
G36*
X107647710Y-104419463D02*
G01*
X107709350Y-104460650D01*
X107750537Y-104522290D01*
X107765000Y-104595000D01*
X107765000Y-104875000D01*
X107750537Y-104947710D01*
X107709350Y-105009350D01*
X107647710Y-105050537D01*
X107575000Y-105065000D01*
X107235000Y-105065000D01*
X107162290Y-105050537D01*
X107100650Y-105009350D01*
X107059463Y-104947710D01*
X107045000Y-104875000D01*
X107045000Y-104595000D01*
X107059463Y-104522290D01*
X107100650Y-104460650D01*
X107162290Y-104419463D01*
X107235000Y-104405000D01*
X107575000Y-104405000D01*
X107647710Y-104419463D01*
G37*
G36*
X85071789Y-103774705D02*
G01*
X85210476Y-103811866D01*
X85334819Y-103883656D01*
X85436344Y-103985181D01*
X85508134Y-104109524D01*
X85545295Y-104248211D01*
X85545295Y-104391789D01*
X85508134Y-104530476D01*
X85436344Y-104654819D01*
X85334819Y-104756344D01*
X85210476Y-104828134D01*
X85071789Y-104865295D01*
X85000000Y-104870000D01*
X84998363Y-104870000D01*
X84201637Y-104870000D01*
X84200000Y-104870000D01*
X84128211Y-104865295D01*
X83989524Y-104828134D01*
X83865181Y-104756344D01*
X83763656Y-104654819D01*
X83691866Y-104530476D01*
X83654705Y-104391789D01*
X83654705Y-104248211D01*
X83691866Y-104109524D01*
X83763656Y-103985181D01*
X83865181Y-103883656D01*
X83989524Y-103811866D01*
X84128211Y-103774705D01*
X84200000Y-103770000D01*
X85000000Y-103770000D01*
X85071789Y-103774705D01*
G37*
G36*
X89401789Y-103774705D02*
G01*
X89540476Y-103811866D01*
X89664819Y-103883656D01*
X89766344Y-103985181D01*
X89838134Y-104109524D01*
X89875295Y-104248211D01*
X89875295Y-104391789D01*
X89838134Y-104530476D01*
X89766344Y-104654819D01*
X89664819Y-104756344D01*
X89540476Y-104828134D01*
X89401789Y-104865295D01*
X89330000Y-104870000D01*
X89328363Y-104870000D01*
X88231637Y-104870000D01*
X88230000Y-104870000D01*
X88158211Y-104865295D01*
X88019524Y-104828134D01*
X87895181Y-104756344D01*
X87793656Y-104654819D01*
X87721866Y-104530476D01*
X87684705Y-104391789D01*
X87684705Y-104248211D01*
X87721866Y-104109524D01*
X87793656Y-103985181D01*
X87895181Y-103883656D01*
X88019524Y-103811866D01*
X88158211Y-103774705D01*
X88230000Y-103770000D01*
X89330000Y-103770000D01*
X89401789Y-103774705D01*
G37*
G36*
X111064134Y-103923806D02*
G01*
X111080355Y-103934645D01*
X111091194Y-103950866D01*
X111095000Y-103970000D01*
X111095000Y-104620000D01*
X111091194Y-104639134D01*
X111080355Y-104655355D01*
X111064134Y-104666194D01*
X111045000Y-104670000D01*
X110045000Y-104670000D01*
X110025866Y-104666194D01*
X110009645Y-104655355D01*
X109998806Y-104639134D01*
X109995000Y-104620000D01*
X109995000Y-103970000D01*
X109998806Y-103950866D01*
X110009645Y-103934645D01*
X110025866Y-103923806D01*
X110045000Y-103920000D01*
X111045000Y-103920000D01*
X111064134Y-103923806D01*
G37*
G36*
X109520796Y-103879082D02*
G01*
X109580815Y-103919185D01*
X109620918Y-103979204D01*
X109635000Y-104050000D01*
X109635000Y-104320000D01*
X109620918Y-104390796D01*
X109580815Y-104450815D01*
X109520796Y-104490918D01*
X109450000Y-104505000D01*
X109080000Y-104505000D01*
X109009204Y-104490918D01*
X108949185Y-104450815D01*
X108909082Y-104390796D01*
X108895000Y-104320000D01*
X108895000Y-104050000D01*
X108909082Y-103979204D01*
X108949185Y-103919185D01*
X109009204Y-103879082D01*
X109080000Y-103865000D01*
X109450000Y-103865000D01*
X109520796Y-103879082D01*
G37*
G36*
X115929134Y-103453806D02*
G01*
X115945355Y-103464645D01*
X115956194Y-103480866D01*
X115960000Y-103500000D01*
X115960000Y-104400000D01*
X115956194Y-104419134D01*
X115945355Y-104435355D01*
X115929134Y-104446194D01*
X115910000Y-104450000D01*
X114910000Y-104450000D01*
X114890866Y-104446194D01*
X114874645Y-104435355D01*
X114863806Y-104419134D01*
X114860000Y-104400000D01*
X114860000Y-103500000D01*
X114863806Y-103480866D01*
X114874645Y-103464645D01*
X114890866Y-103453806D01*
X114910000Y-103450000D01*
X115910000Y-103450000D01*
X115929134Y-103453806D01*
G37*
G36*
X117529134Y-103453806D02*
G01*
X117545355Y-103464645D01*
X117556194Y-103480866D01*
X117560000Y-103500000D01*
X117560000Y-104400000D01*
X117556194Y-104419134D01*
X117545355Y-104435355D01*
X117529134Y-104446194D01*
X117510000Y-104450000D01*
X116510000Y-104450000D01*
X116490866Y-104446194D01*
X116474645Y-104435355D01*
X116463806Y-104419134D01*
X116460000Y-104400000D01*
X116460000Y-103500000D01*
X116463806Y-103480866D01*
X116474645Y-103464645D01*
X116490866Y-103453806D01*
X116510000Y-103450000D01*
X117510000Y-103450000D01*
X117529134Y-103453806D01*
G37*
G36*
X107647710Y-103459463D02*
G01*
X107709350Y-103500650D01*
X107750537Y-103562290D01*
X107765000Y-103635000D01*
X107765000Y-103915000D01*
X107750537Y-103987710D01*
X107709350Y-104049350D01*
X107647710Y-104090537D01*
X107575000Y-104105000D01*
X107235000Y-104105000D01*
X107162290Y-104090537D01*
X107100650Y-104049350D01*
X107059463Y-103987710D01*
X107045000Y-103915000D01*
X107045000Y-103635000D01*
X107059463Y-103562290D01*
X107100650Y-103500650D01*
X107162290Y-103459463D01*
X107235000Y-103445000D01*
X107575000Y-103445000D01*
X107647710Y-103459463D01*
G37*
G36*
X95797067Y-103663651D02*
G01*
X95865558Y-103692021D01*
X95917979Y-103744442D01*
X95946349Y-103812933D01*
X95946349Y-103887067D01*
X95917979Y-103955558D01*
X95865558Y-104007979D01*
X95797067Y-104036349D01*
X95760000Y-104040000D01*
X95757546Y-104040000D01*
X95142454Y-104040000D01*
X95140000Y-104040000D01*
X95102933Y-104036349D01*
X95034442Y-104007979D01*
X94982021Y-103955558D01*
X94953651Y-103887067D01*
X94953651Y-103812933D01*
X94982021Y-103744442D01*
X95034442Y-103692021D01*
X95102933Y-103663651D01*
X95140000Y-103660000D01*
X95760000Y-103660000D01*
X95797067Y-103663651D01*
G37*
G36*
X102897067Y-103663651D02*
G01*
X102965558Y-103692021D01*
X103017979Y-103744442D01*
X103046349Y-103812933D01*
X103046349Y-103887067D01*
X103017979Y-103955558D01*
X102965558Y-104007979D01*
X102897067Y-104036349D01*
X102860000Y-104040000D01*
X102857546Y-104040000D01*
X102242454Y-104040000D01*
X102240000Y-104040000D01*
X102202933Y-104036349D01*
X102134442Y-104007979D01*
X102082021Y-103955558D01*
X102053651Y-103887067D01*
X102053651Y-103812933D01*
X102082021Y-103744442D01*
X102134442Y-103692021D01*
X102202933Y-103663651D01*
X102240000Y-103660000D01*
X102860000Y-103660000D01*
X102897067Y-103663651D01*
G37*
G36*
X101819134Y-98253806D02*
G01*
X101835355Y-98264645D01*
X101846194Y-98280866D01*
X101850000Y-98300000D01*
X101850000Y-103900000D01*
X101846194Y-103919134D01*
X101835355Y-103935355D01*
X101819134Y-103946194D01*
X101800000Y-103950000D01*
X96200000Y-103950000D01*
X96180866Y-103946194D01*
X96164645Y-103935355D01*
X96153806Y-103919134D01*
X96150000Y-103900000D01*
X96150000Y-98300000D01*
X96153806Y-98280866D01*
X96164645Y-98264645D01*
X96180866Y-98253806D01*
X96200000Y-98250000D01*
X101800000Y-98250000D01*
X101819134Y-98253806D01*
G37*
G36*
X91787710Y-103209463D02*
G01*
X91849350Y-103250650D01*
X91890537Y-103312290D01*
X91905000Y-103385000D01*
X91905000Y-103725000D01*
X91890537Y-103797710D01*
X91849350Y-103859350D01*
X91787710Y-103900537D01*
X91715000Y-103915000D01*
X91435000Y-103915000D01*
X91362290Y-103900537D01*
X91300650Y-103859350D01*
X91259463Y-103797710D01*
X91245000Y-103725000D01*
X91245000Y-103385000D01*
X91259463Y-103312290D01*
X91300650Y-103250650D01*
X91362290Y-103209463D01*
X91435000Y-103195000D01*
X91715000Y-103195000D01*
X91787710Y-103209463D01*
G37*
G36*
X92747710Y-103209463D02*
G01*
X92809350Y-103250650D01*
X92850537Y-103312290D01*
X92865000Y-103385000D01*
X92865000Y-103725000D01*
X92850537Y-103797710D01*
X92809350Y-103859350D01*
X92747710Y-103900537D01*
X92675000Y-103915000D01*
X92395000Y-103915000D01*
X92322290Y-103900537D01*
X92260650Y-103859350D01*
X92219463Y-103797710D01*
X92205000Y-103725000D01*
X92205000Y-103385000D01*
X92219463Y-103312290D01*
X92260650Y-103250650D01*
X92322290Y-103209463D01*
X92395000Y-103195000D01*
X92675000Y-103195000D01*
X92747710Y-103209463D01*
G37*
G36*
X94181409Y-102851275D02*
G01*
X94244958Y-102859641D01*
X94260943Y-102867095D01*
X94280238Y-102870933D01*
X94305792Y-102888008D01*
X94332290Y-102900364D01*
X94348412Y-102916486D01*
X94369454Y-102930546D01*
X94383513Y-102951587D01*
X94399635Y-102967709D01*
X94411990Y-102994204D01*
X94429067Y-103019762D01*
X94432905Y-103039058D01*
X94440358Y-103055041D01*
X94448722Y-103118577D01*
X94450000Y-103125000D01*
X94450000Y-103575000D01*
X94448722Y-103581424D01*
X94440358Y-103644958D01*
X94432905Y-103660939D01*
X94429067Y-103680238D01*
X94411988Y-103705797D01*
X94399635Y-103732290D01*
X94383516Y-103748408D01*
X94369454Y-103769454D01*
X94348408Y-103783516D01*
X94332290Y-103799635D01*
X94305797Y-103811988D01*
X94280238Y-103829067D01*
X94260939Y-103832905D01*
X94244958Y-103840358D01*
X94181424Y-103848722D01*
X94175000Y-103850000D01*
X93675000Y-103850000D01*
X93668577Y-103848722D01*
X93605041Y-103840358D01*
X93589058Y-103832905D01*
X93569762Y-103829067D01*
X93544204Y-103811990D01*
X93517709Y-103799635D01*
X93501587Y-103783513D01*
X93480546Y-103769454D01*
X93466486Y-103748412D01*
X93450364Y-103732290D01*
X93438008Y-103705792D01*
X93420933Y-103680238D01*
X93417095Y-103660943D01*
X93409641Y-103644958D01*
X93401275Y-103581409D01*
X93400000Y-103575000D01*
X93400000Y-103125000D01*
X93401274Y-103118592D01*
X93409641Y-103055041D01*
X93417095Y-103039054D01*
X93420933Y-103019762D01*
X93438006Y-102994209D01*
X93450364Y-102967709D01*
X93466488Y-102951584D01*
X93480546Y-102930546D01*
X93501584Y-102916488D01*
X93517709Y-102900364D01*
X93544209Y-102888006D01*
X93569762Y-102870933D01*
X93589054Y-102867095D01*
X93605041Y-102859641D01*
X93668592Y-102851274D01*
X93675000Y-102850000D01*
X94175000Y-102850000D01*
X94181409Y-102851275D01*
G37*
G36*
X104609134Y-103076306D02*
G01*
X104625355Y-103087145D01*
X104636194Y-103103366D01*
X104640000Y-103122500D01*
X104640000Y-103797500D01*
X104636194Y-103816634D01*
X104625355Y-103832855D01*
X104609134Y-103843694D01*
X104590000Y-103847500D01*
X104310000Y-103847500D01*
X104290866Y-103843694D01*
X104274645Y-103832855D01*
X104263806Y-103816634D01*
X104260000Y-103797500D01*
X104260000Y-103122500D01*
X104263806Y-103103366D01*
X104274645Y-103087145D01*
X104290866Y-103076306D01*
X104310000Y-103072500D01*
X104590000Y-103072500D01*
X104609134Y-103076306D01*
G37*
G36*
X105109134Y-103076306D02*
G01*
X105125355Y-103087145D01*
X105136194Y-103103366D01*
X105140000Y-103122500D01*
X105140000Y-103797500D01*
X105136194Y-103816634D01*
X105125355Y-103832855D01*
X105109134Y-103843694D01*
X105090000Y-103847500D01*
X104810000Y-103847500D01*
X104790866Y-103843694D01*
X104774645Y-103832855D01*
X104763806Y-103816634D01*
X104760000Y-103797500D01*
X104760000Y-103122500D01*
X104763806Y-103103366D01*
X104774645Y-103087145D01*
X104790866Y-103076306D01*
X104810000Y-103072500D01*
X105090000Y-103072500D01*
X105109134Y-103076306D01*
G37*
G36*
X105609134Y-103076306D02*
G01*
X105625355Y-103087145D01*
X105636194Y-103103366D01*
X105640000Y-103122500D01*
X105640000Y-103797500D01*
X105636194Y-103816634D01*
X105625355Y-103832855D01*
X105609134Y-103843694D01*
X105590000Y-103847500D01*
X105310000Y-103847500D01*
X105290866Y-103843694D01*
X105274645Y-103832855D01*
X105263806Y-103816634D01*
X105260000Y-103797500D01*
X105260000Y-103122500D01*
X105263806Y-103103366D01*
X105274645Y-103087145D01*
X105290866Y-103076306D01*
X105310000Y-103072500D01*
X105590000Y-103072500D01*
X105609134Y-103076306D01*
G37*
G36*
X106109134Y-103076306D02*
G01*
X106125355Y-103087145D01*
X106136194Y-103103366D01*
X106140000Y-103122500D01*
X106140000Y-103797500D01*
X106136194Y-103816634D01*
X106125355Y-103832855D01*
X106109134Y-103843694D01*
X106090000Y-103847500D01*
X105810000Y-103847500D01*
X105790866Y-103843694D01*
X105774645Y-103832855D01*
X105763806Y-103816634D01*
X105760000Y-103797500D01*
X105760000Y-103122500D01*
X105763806Y-103103366D01*
X105774645Y-103087145D01*
X105790866Y-103076306D01*
X105810000Y-103072500D01*
X106090000Y-103072500D01*
X106109134Y-103076306D01*
G37*
G36*
X113064134Y-102973806D02*
G01*
X113080355Y-102984645D01*
X113091194Y-103000866D01*
X113095000Y-103020000D01*
X113095000Y-103670000D01*
X113091194Y-103689134D01*
X113080355Y-103705355D01*
X113064134Y-103716194D01*
X113045000Y-103720000D01*
X112045000Y-103720000D01*
X112025866Y-103716194D01*
X112009645Y-103705355D01*
X111998806Y-103689134D01*
X111995000Y-103670000D01*
X111995000Y-103020000D01*
X111998806Y-103000866D01*
X112009645Y-102984645D01*
X112025866Y-102973806D01*
X112045000Y-102970000D01*
X113045000Y-102970000D01*
X113064134Y-102973806D01*
G37*
G36*
X89954134Y-102853806D02*
G01*
X89970355Y-102864645D01*
X89981194Y-102880866D01*
X89985000Y-102900000D01*
X89985000Y-103500000D01*
X89981194Y-103519134D01*
X89970355Y-103535355D01*
X89954134Y-103546194D01*
X89935000Y-103550000D01*
X88825000Y-103550000D01*
X88805866Y-103546194D01*
X88789645Y-103535355D01*
X88778806Y-103519134D01*
X88775000Y-103500000D01*
X88775000Y-102900000D01*
X88778806Y-102880866D01*
X88789645Y-102864645D01*
X88805866Y-102853806D01*
X88825000Y-102850000D01*
X89935000Y-102850000D01*
X89954134Y-102853806D01*
G37*
G36*
X95797067Y-103163651D02*
G01*
X95865558Y-103192021D01*
X95917979Y-103244442D01*
X95946349Y-103312933D01*
X95946349Y-103387067D01*
X95917979Y-103455558D01*
X95865558Y-103507979D01*
X95797067Y-103536349D01*
X95760000Y-103540000D01*
X95757546Y-103540000D01*
X95142454Y-103540000D01*
X95140000Y-103540000D01*
X95102933Y-103536349D01*
X95034442Y-103507979D01*
X94982021Y-103455558D01*
X94953651Y-103387067D01*
X94953651Y-103312933D01*
X94982021Y-103244442D01*
X95034442Y-103192021D01*
X95102933Y-103163651D01*
X95140000Y-103160000D01*
X95760000Y-103160000D01*
X95797067Y-103163651D01*
G37*
G36*
X102897067Y-103163651D02*
G01*
X102965558Y-103192021D01*
X103017979Y-103244442D01*
X103046349Y-103312933D01*
X103046349Y-103387067D01*
X103017979Y-103455558D01*
X102965558Y-103507979D01*
X102897067Y-103536349D01*
X102860000Y-103540000D01*
X102857546Y-103540000D01*
X102242454Y-103540000D01*
X102240000Y-103540000D01*
X102202933Y-103536349D01*
X102134442Y-103507979D01*
X102082021Y-103455558D01*
X102053651Y-103387067D01*
X102053651Y-103312933D01*
X102082021Y-103244442D01*
X102134442Y-103192021D01*
X102202933Y-103163651D01*
X102240000Y-103160000D01*
X102860000Y-103160000D01*
X102897067Y-103163651D01*
G37*
G36*
X109520796Y-102859082D02*
G01*
X109580815Y-102899185D01*
X109620918Y-102959204D01*
X109635000Y-103030000D01*
X109635000Y-103300000D01*
X109620918Y-103370796D01*
X109580815Y-103430815D01*
X109520796Y-103470918D01*
X109450000Y-103485000D01*
X109080000Y-103485000D01*
X109009204Y-103470918D01*
X108949185Y-103430815D01*
X108909082Y-103370796D01*
X108895000Y-103300000D01*
X108895000Y-103030000D01*
X108909082Y-102959204D01*
X108949185Y-102899185D01*
X109009204Y-102859082D01*
X109080000Y-102845000D01*
X109450000Y-102845000D01*
X109520796Y-102859082D01*
G37*
G36*
X88423506Y-102543545D02*
G01*
X88508286Y-102592492D01*
X88577508Y-102661714D01*
X88626455Y-102746494D01*
X88651792Y-102841053D01*
X88651792Y-102938947D01*
X88626455Y-103033506D01*
X88577508Y-103118286D01*
X88508286Y-103187508D01*
X88423506Y-103236455D01*
X88328947Y-103261792D01*
X88231053Y-103261792D01*
X88136494Y-103236455D01*
X88051714Y-103187508D01*
X87982492Y-103118286D01*
X87933545Y-103033506D01*
X87908208Y-102938947D01*
X87908208Y-102841053D01*
X87933545Y-102746494D01*
X87982492Y-102661714D01*
X88051714Y-102592492D01*
X88136494Y-102543545D01*
X88231053Y-102518208D01*
X88328947Y-102518208D01*
X88423506Y-102543545D01*
G37*
G36*
X114464134Y-102248806D02*
G01*
X114480355Y-102259645D01*
X114491194Y-102275866D01*
X114495000Y-102295000D01*
X114495000Y-103095000D01*
X114491194Y-103114134D01*
X114480355Y-103130355D01*
X114464134Y-103141194D01*
X114445000Y-103145000D01*
X113445000Y-103145000D01*
X113425866Y-103141194D01*
X113409645Y-103130355D01*
X113398806Y-103114134D01*
X113395000Y-103095000D01*
X113395000Y-102295000D01*
X113398806Y-102275866D01*
X113409645Y-102259645D01*
X113425866Y-102248806D01*
X113445000Y-102245000D01*
X114445000Y-102245000D01*
X114464134Y-102248806D01*
G37*
G36*
X107670796Y-102429082D02*
G01*
X107730815Y-102469185D01*
X107770918Y-102529204D01*
X107785000Y-102600000D01*
X107785000Y-102870000D01*
X107770918Y-102940796D01*
X107730815Y-103000815D01*
X107670796Y-103040918D01*
X107600000Y-103055000D01*
X107230000Y-103055000D01*
X107159204Y-103040918D01*
X107099185Y-103000815D01*
X107059082Y-102940796D01*
X107045000Y-102870000D01*
X107045000Y-102600000D01*
X107059082Y-102529204D01*
X107099185Y-102469185D01*
X107159204Y-102429082D01*
X107230000Y-102415000D01*
X107600000Y-102415000D01*
X107670796Y-102429082D01*
G37*
G36*
X95797067Y-102663651D02*
G01*
X95865558Y-102692021D01*
X95917979Y-102744442D01*
X95946349Y-102812933D01*
X95946349Y-102887067D01*
X95917979Y-102955558D01*
X95865558Y-103007979D01*
X95797067Y-103036349D01*
X95760000Y-103040000D01*
X95757546Y-103040000D01*
X95142454Y-103040000D01*
X95140000Y-103040000D01*
X95102933Y-103036349D01*
X95034442Y-103007979D01*
X94982021Y-102955558D01*
X94953651Y-102887067D01*
X94953651Y-102812933D01*
X94982021Y-102744442D01*
X95034442Y-102692021D01*
X95102933Y-102663651D01*
X95140000Y-102660000D01*
X95760000Y-102660000D01*
X95797067Y-102663651D01*
G37*
G36*
X102897067Y-102663651D02*
G01*
X102965558Y-102692021D01*
X103017979Y-102744442D01*
X103046349Y-102812933D01*
X103046349Y-102887067D01*
X103017979Y-102955558D01*
X102965558Y-103007979D01*
X102897067Y-103036349D01*
X102860000Y-103040000D01*
X102857546Y-103040000D01*
X102242454Y-103040000D01*
X102240000Y-103040000D01*
X102202933Y-103036349D01*
X102134442Y-103007979D01*
X102082021Y-102955558D01*
X102053651Y-102887067D01*
X102053651Y-102812933D01*
X102082021Y-102744442D01*
X102134442Y-102692021D01*
X102202933Y-102663651D01*
X102240000Y-102660000D01*
X102860000Y-102660000D01*
X102897067Y-102663651D01*
G37*
G36*
X104546634Y-102513806D02*
G01*
X104562855Y-102524645D01*
X104573694Y-102540866D01*
X104577500Y-102560000D01*
X104577500Y-102840000D01*
X104573694Y-102859134D01*
X104562855Y-102875355D01*
X104546634Y-102886194D01*
X104527500Y-102890000D01*
X103852500Y-102890000D01*
X103833366Y-102886194D01*
X103817145Y-102875355D01*
X103806306Y-102859134D01*
X103802500Y-102840000D01*
X103802500Y-102560000D01*
X103806306Y-102540866D01*
X103817145Y-102524645D01*
X103833366Y-102513806D01*
X103852500Y-102510000D01*
X104527500Y-102510000D01*
X104546634Y-102513806D01*
G37*
G36*
X106566634Y-102513806D02*
G01*
X106582855Y-102524645D01*
X106593694Y-102540866D01*
X106597500Y-102560000D01*
X106597500Y-102840000D01*
X106593694Y-102859134D01*
X106582855Y-102875355D01*
X106566634Y-102886194D01*
X106547500Y-102890000D01*
X105872500Y-102890000D01*
X105853366Y-102886194D01*
X105837145Y-102875355D01*
X105826306Y-102859134D01*
X105822500Y-102840000D01*
X105822500Y-102560000D01*
X105826306Y-102540866D01*
X105837145Y-102524645D01*
X105853366Y-102513806D01*
X105872500Y-102510000D01*
X106547500Y-102510000D01*
X106566634Y-102513806D01*
G37*
G36*
X89954134Y-102053806D02*
G01*
X89970355Y-102064645D01*
X89981194Y-102080866D01*
X89985000Y-102100000D01*
X89985000Y-102700000D01*
X89981194Y-102719134D01*
X89970355Y-102735355D01*
X89954134Y-102746194D01*
X89935000Y-102750000D01*
X88785000Y-102750000D01*
X88765866Y-102746194D01*
X88749645Y-102735355D01*
X88738806Y-102719134D01*
X88735000Y-102700000D01*
X88735000Y-102100000D01*
X88738806Y-102080866D01*
X88749645Y-102064645D01*
X88765866Y-102053806D01*
X88785000Y-102050000D01*
X89935000Y-102050000D01*
X89954134Y-102053806D01*
G37*
G36*
X95797067Y-102163651D02*
G01*
X95865558Y-102192021D01*
X95917979Y-102244442D01*
X95946349Y-102312933D01*
X95946349Y-102387067D01*
X95917979Y-102455558D01*
X95865558Y-102507979D01*
X95797067Y-102536349D01*
X95760000Y-102540000D01*
X95757546Y-102540000D01*
X95142454Y-102540000D01*
X95140000Y-102540000D01*
X95102933Y-102536349D01*
X95034442Y-102507979D01*
X94982021Y-102455558D01*
X94953651Y-102387067D01*
X94953651Y-102312933D01*
X94982021Y-102244442D01*
X95034442Y-102192021D01*
X95102933Y-102163651D01*
X95140000Y-102160000D01*
X95760000Y-102160000D01*
X95797067Y-102163651D01*
G37*
G36*
X102897067Y-102163651D02*
G01*
X102965558Y-102192021D01*
X103017979Y-102244442D01*
X103046349Y-102312933D01*
X103046349Y-102387067D01*
X103017979Y-102455558D01*
X102965558Y-102507979D01*
X102897067Y-102536349D01*
X102860000Y-102540000D01*
X102857546Y-102540000D01*
X102242454Y-102540000D01*
X102240000Y-102540000D01*
X102202933Y-102536349D01*
X102134442Y-102507979D01*
X102082021Y-102455558D01*
X102053651Y-102387067D01*
X102053651Y-102312933D01*
X102082021Y-102244442D01*
X102134442Y-102192021D01*
X102202933Y-102163651D01*
X102240000Y-102160000D01*
X102860000Y-102160000D01*
X102897067Y-102163651D01*
G37*
G36*
X104546634Y-102013806D02*
G01*
X104562855Y-102024645D01*
X104573694Y-102040866D01*
X104577500Y-102060000D01*
X104577500Y-102340000D01*
X104573694Y-102359134D01*
X104562855Y-102375355D01*
X104546634Y-102386194D01*
X104527500Y-102390000D01*
X103852500Y-102390000D01*
X103833366Y-102386194D01*
X103817145Y-102375355D01*
X103806306Y-102359134D01*
X103802500Y-102340000D01*
X103802500Y-102060000D01*
X103806306Y-102040866D01*
X103817145Y-102024645D01*
X103833366Y-102013806D01*
X103852500Y-102010000D01*
X104527500Y-102010000D01*
X104546634Y-102013806D01*
G37*
G36*
X106566634Y-102013806D02*
G01*
X106582855Y-102024645D01*
X106593694Y-102040866D01*
X106597500Y-102060000D01*
X106597500Y-102340000D01*
X106593694Y-102359134D01*
X106582855Y-102375355D01*
X106566634Y-102386194D01*
X106547500Y-102390000D01*
X105872500Y-102390000D01*
X105853366Y-102386194D01*
X105837145Y-102375355D01*
X105826306Y-102359134D01*
X105822500Y-102340000D01*
X105822500Y-102060000D01*
X105826306Y-102040866D01*
X105837145Y-102024645D01*
X105853366Y-102013806D01*
X105872500Y-102010000D01*
X106547500Y-102010000D01*
X106566634Y-102013806D01*
G37*
G36*
X93470796Y-101609082D02*
G01*
X93530815Y-101649185D01*
X93570918Y-101709204D01*
X93585000Y-101780000D01*
X93585000Y-102150000D01*
X93570918Y-102220796D01*
X93530815Y-102280815D01*
X93470796Y-102320918D01*
X93400000Y-102335000D01*
X93130000Y-102335000D01*
X93059204Y-102320918D01*
X92999185Y-102280815D01*
X92959082Y-102220796D01*
X92945000Y-102150000D01*
X92945000Y-101780000D01*
X92959082Y-101709204D01*
X92999185Y-101649185D01*
X93059204Y-101609082D01*
X93130000Y-101595000D01*
X93400000Y-101595000D01*
X93470796Y-101609082D01*
G37*
G36*
X94490796Y-101609082D02*
G01*
X94550815Y-101649185D01*
X94590918Y-101709204D01*
X94605000Y-101780000D01*
X94605000Y-102150000D01*
X94590918Y-102220796D01*
X94550815Y-102280815D01*
X94490796Y-102320918D01*
X94420000Y-102335000D01*
X94150000Y-102335000D01*
X94079204Y-102320918D01*
X94019185Y-102280815D01*
X93979082Y-102220796D01*
X93965000Y-102150000D01*
X93965000Y-101780000D01*
X93979082Y-101709204D01*
X94019185Y-101649185D01*
X94079204Y-101609082D01*
X94150000Y-101595000D01*
X94420000Y-101595000D01*
X94490796Y-101609082D01*
G37*
G36*
X109031409Y-101251275D02*
G01*
X109094958Y-101259641D01*
X109110943Y-101267095D01*
X109130238Y-101270933D01*
X109155792Y-101288008D01*
X109182290Y-101300364D01*
X109198412Y-101316486D01*
X109219454Y-101330546D01*
X109233513Y-101351587D01*
X109249635Y-101367709D01*
X109261990Y-101394204D01*
X109279067Y-101419762D01*
X109282905Y-101439058D01*
X109290358Y-101455041D01*
X109298722Y-101518577D01*
X109300000Y-101525000D01*
X109300000Y-102025000D01*
X109298722Y-102031424D01*
X109290358Y-102094958D01*
X109282905Y-102110939D01*
X109279067Y-102130238D01*
X109261988Y-102155797D01*
X109249635Y-102182290D01*
X109233516Y-102198408D01*
X109219454Y-102219454D01*
X109198408Y-102233516D01*
X109182290Y-102249635D01*
X109155797Y-102261988D01*
X109130238Y-102279067D01*
X109110939Y-102282905D01*
X109094958Y-102290358D01*
X109031424Y-102298722D01*
X109025000Y-102300000D01*
X108575000Y-102300000D01*
X108568577Y-102298722D01*
X108505041Y-102290358D01*
X108489058Y-102282905D01*
X108469762Y-102279067D01*
X108444204Y-102261990D01*
X108417709Y-102249635D01*
X108401587Y-102233513D01*
X108380546Y-102219454D01*
X108366486Y-102198412D01*
X108350364Y-102182290D01*
X108338008Y-102155792D01*
X108320933Y-102130238D01*
X108317095Y-102110943D01*
X108309641Y-102094958D01*
X108301275Y-102031409D01*
X108300000Y-102025000D01*
X108300000Y-101525000D01*
X108301274Y-101518592D01*
X108309641Y-101455041D01*
X108317095Y-101439054D01*
X108320933Y-101419762D01*
X108338006Y-101394209D01*
X108350364Y-101367709D01*
X108366488Y-101351584D01*
X108380546Y-101330546D01*
X108401584Y-101316488D01*
X108417709Y-101300364D01*
X108444209Y-101288006D01*
X108469762Y-101270933D01*
X108489054Y-101267095D01*
X108505041Y-101259641D01*
X108568592Y-101251274D01*
X108575000Y-101250000D01*
X109025000Y-101250000D01*
X109031409Y-101251275D01*
G37*
G36*
X110581409Y-101251275D02*
G01*
X110644958Y-101259641D01*
X110660943Y-101267095D01*
X110680238Y-101270933D01*
X110705792Y-101288008D01*
X110732290Y-101300364D01*
X110748412Y-101316486D01*
X110769454Y-101330546D01*
X110783513Y-101351587D01*
X110799635Y-101367709D01*
X110811990Y-101394204D01*
X110829067Y-101419762D01*
X110832905Y-101439058D01*
X110840358Y-101455041D01*
X110848722Y-101518577D01*
X110850000Y-101525000D01*
X110850000Y-102025000D01*
X110848722Y-102031424D01*
X110840358Y-102094958D01*
X110832905Y-102110939D01*
X110829067Y-102130238D01*
X110811988Y-102155797D01*
X110799635Y-102182290D01*
X110783516Y-102198408D01*
X110769454Y-102219454D01*
X110748408Y-102233516D01*
X110732290Y-102249635D01*
X110705797Y-102261988D01*
X110680238Y-102279067D01*
X110660939Y-102282905D01*
X110644958Y-102290358D01*
X110581424Y-102298722D01*
X110575000Y-102300000D01*
X110125000Y-102300000D01*
X110118577Y-102298722D01*
X110055041Y-102290358D01*
X110039058Y-102282905D01*
X110019762Y-102279067D01*
X109994204Y-102261990D01*
X109967709Y-102249635D01*
X109951587Y-102233513D01*
X109930546Y-102219454D01*
X109916486Y-102198412D01*
X109900364Y-102182290D01*
X109888008Y-102155792D01*
X109870933Y-102130238D01*
X109867095Y-102110943D01*
X109859641Y-102094958D01*
X109851275Y-102031409D01*
X109850000Y-102025000D01*
X109850000Y-101525000D01*
X109851274Y-101518592D01*
X109859641Y-101455041D01*
X109867095Y-101439054D01*
X109870933Y-101419762D01*
X109888006Y-101394209D01*
X109900364Y-101367709D01*
X109916488Y-101351584D01*
X109930546Y-101330546D01*
X109951584Y-101316488D01*
X109967709Y-101300364D01*
X109994209Y-101288006D01*
X110019762Y-101270933D01*
X110039054Y-101267095D01*
X110055041Y-101259641D01*
X110118592Y-101251274D01*
X110125000Y-101250000D01*
X110575000Y-101250000D01*
X110581409Y-101251275D01*
G37*
G36*
X95797067Y-101663651D02*
G01*
X95865558Y-101692021D01*
X95917979Y-101744442D01*
X95946349Y-101812933D01*
X95946349Y-101887067D01*
X95917979Y-101955558D01*
X95865558Y-102007979D01*
X95797067Y-102036349D01*
X95760000Y-102040000D01*
X95757546Y-102040000D01*
X95142454Y-102040000D01*
X95140000Y-102040000D01*
X95102933Y-102036349D01*
X95034442Y-102007979D01*
X94982021Y-101955558D01*
X94953651Y-101887067D01*
X94953651Y-101812933D01*
X94982021Y-101744442D01*
X95034442Y-101692021D01*
X95102933Y-101663651D01*
X95140000Y-101660000D01*
X95760000Y-101660000D01*
X95797067Y-101663651D01*
G37*
G36*
X102897067Y-101663651D02*
G01*
X102965558Y-101692021D01*
X103017979Y-101744442D01*
X103046349Y-101812933D01*
X103046349Y-101887067D01*
X103017979Y-101955558D01*
X102965558Y-102007979D01*
X102897067Y-102036349D01*
X102860000Y-102040000D01*
X102857546Y-102040000D01*
X102242454Y-102040000D01*
X102240000Y-102040000D01*
X102202933Y-102036349D01*
X102134442Y-102007979D01*
X102082021Y-101955558D01*
X102053651Y-101887067D01*
X102053651Y-101812933D01*
X102082021Y-101744442D01*
X102134442Y-101692021D01*
X102202933Y-101663651D01*
X102240000Y-101660000D01*
X102860000Y-101660000D01*
X102897067Y-101663651D01*
G37*
G36*
X107670796Y-101409082D02*
G01*
X107730815Y-101449185D01*
X107770918Y-101509204D01*
X107785000Y-101580000D01*
X107785000Y-101850000D01*
X107770918Y-101920796D01*
X107730815Y-101980815D01*
X107670796Y-102020918D01*
X107600000Y-102035000D01*
X107230000Y-102035000D01*
X107159204Y-102020918D01*
X107099185Y-101980815D01*
X107059082Y-101920796D01*
X107045000Y-101850000D01*
X107045000Y-101580000D01*
X107059082Y-101509204D01*
X107099185Y-101449185D01*
X107159204Y-101409082D01*
X107230000Y-101395000D01*
X107600000Y-101395000D01*
X107670796Y-101409082D01*
G37*
G36*
X89954134Y-101553806D02*
G01*
X89970355Y-101564645D01*
X89981194Y-101580866D01*
X89985000Y-101600000D01*
X89985000Y-101900000D01*
X89981194Y-101919134D01*
X89970355Y-101935355D01*
X89954134Y-101946194D01*
X89935000Y-101950000D01*
X88785000Y-101950000D01*
X88765866Y-101946194D01*
X88749645Y-101935355D01*
X88738806Y-101919134D01*
X88735000Y-101900000D01*
X88735000Y-101600000D01*
X88738806Y-101580866D01*
X88749645Y-101564645D01*
X88765866Y-101553806D01*
X88785000Y-101550000D01*
X89935000Y-101550000D01*
X89954134Y-101553806D01*
G37*
G36*
X104546634Y-101513806D02*
G01*
X104562855Y-101524645D01*
X104573694Y-101540866D01*
X104577500Y-101560000D01*
X104577500Y-101840000D01*
X104573694Y-101859134D01*
X104562855Y-101875355D01*
X104546634Y-101886194D01*
X104527500Y-101890000D01*
X103852500Y-101890000D01*
X103833366Y-101886194D01*
X103817145Y-101875355D01*
X103806306Y-101859134D01*
X103802500Y-101840000D01*
X103802500Y-101560000D01*
X103806306Y-101540866D01*
X103817145Y-101524645D01*
X103833366Y-101513806D01*
X103852500Y-101510000D01*
X104527500Y-101510000D01*
X104546634Y-101513806D01*
G37*
G36*
X106566634Y-101513806D02*
G01*
X106582855Y-101524645D01*
X106593694Y-101540866D01*
X106597500Y-101560000D01*
X106597500Y-101840000D01*
X106593694Y-101859134D01*
X106582855Y-101875355D01*
X106566634Y-101886194D01*
X106547500Y-101890000D01*
X105872500Y-101890000D01*
X105853366Y-101886194D01*
X105837145Y-101875355D01*
X105826306Y-101859134D01*
X105822500Y-101840000D01*
X105822500Y-101560000D01*
X105826306Y-101540866D01*
X105837145Y-101524645D01*
X105853366Y-101513806D01*
X105872500Y-101510000D01*
X106547500Y-101510000D01*
X106566634Y-101513806D01*
G37*
G36*
X114464134Y-100648806D02*
G01*
X114480355Y-100659645D01*
X114491194Y-100675866D01*
X114495000Y-100695000D01*
X114495000Y-101495000D01*
X114491194Y-101514134D01*
X114480355Y-101530355D01*
X114464134Y-101541194D01*
X114445000Y-101545000D01*
X113445000Y-101545000D01*
X113425866Y-101541194D01*
X113409645Y-101530355D01*
X113398806Y-101514134D01*
X113395000Y-101495000D01*
X113395000Y-100695000D01*
X113398806Y-100675866D01*
X113409645Y-100659645D01*
X113425866Y-100648806D01*
X113445000Y-100645000D01*
X114445000Y-100645000D01*
X114464134Y-100648806D01*
G37*
G36*
X95797067Y-101163651D02*
G01*
X95865558Y-101192021D01*
X95917979Y-101244442D01*
X95946349Y-101312933D01*
X95946349Y-101387067D01*
X95917979Y-101455558D01*
X95865558Y-101507979D01*
X95797067Y-101536349D01*
X95760000Y-101540000D01*
X95757546Y-101540000D01*
X95142454Y-101540000D01*
X95140000Y-101540000D01*
X95102933Y-101536349D01*
X95034442Y-101507979D01*
X94982021Y-101455558D01*
X94953651Y-101387067D01*
X94953651Y-101312933D01*
X94982021Y-101244442D01*
X95034442Y-101192021D01*
X95102933Y-101163651D01*
X95140000Y-101160000D01*
X95760000Y-101160000D01*
X95797067Y-101163651D01*
G37*
G36*
X102897067Y-101163651D02*
G01*
X102965558Y-101192021D01*
X103017979Y-101244442D01*
X103046349Y-101312933D01*
X103046349Y-101387067D01*
X103017979Y-101455558D01*
X102965558Y-101507979D01*
X102897067Y-101536349D01*
X102860000Y-101540000D01*
X102857546Y-101540000D01*
X102242454Y-101540000D01*
X102240000Y-101540000D01*
X102202933Y-101536349D01*
X102134442Y-101507979D01*
X102082021Y-101455558D01*
X102053651Y-101387067D01*
X102053651Y-101312933D01*
X102082021Y-101244442D01*
X102134442Y-101192021D01*
X102202933Y-101163651D01*
X102240000Y-101160000D01*
X102860000Y-101160000D01*
X102897067Y-101163651D01*
G37*
G36*
X89954134Y-101053806D02*
G01*
X89970355Y-101064645D01*
X89981194Y-101080866D01*
X89985000Y-101100000D01*
X89985000Y-101400000D01*
X89981194Y-101419134D01*
X89970355Y-101435355D01*
X89954134Y-101446194D01*
X89935000Y-101450000D01*
X88785000Y-101450000D01*
X88765866Y-101446194D01*
X88749645Y-101435355D01*
X88738806Y-101419134D01*
X88735000Y-101400000D01*
X88735000Y-101100000D01*
X88738806Y-101080866D01*
X88749645Y-101064645D01*
X88765866Y-101053806D01*
X88785000Y-101050000D01*
X89935000Y-101050000D01*
X89954134Y-101053806D01*
G37*
G36*
X104609134Y-100556306D02*
G01*
X104625355Y-100567145D01*
X104636194Y-100583366D01*
X104640000Y-100602500D01*
X104640000Y-101277500D01*
X104636194Y-101296634D01*
X104625355Y-101312855D01*
X104609134Y-101323694D01*
X104590000Y-101327500D01*
X104310000Y-101327500D01*
X104290866Y-101323694D01*
X104274645Y-101312855D01*
X104263806Y-101296634D01*
X104260000Y-101277500D01*
X104260000Y-100602500D01*
X104263806Y-100583366D01*
X104274645Y-100567145D01*
X104290866Y-100556306D01*
X104310000Y-100552500D01*
X104590000Y-100552500D01*
X104609134Y-100556306D01*
G37*
G36*
X105109134Y-100556306D02*
G01*
X105125355Y-100567145D01*
X105136194Y-100583366D01*
X105140000Y-100602500D01*
X105140000Y-101277500D01*
X105136194Y-101296634D01*
X105125355Y-101312855D01*
X105109134Y-101323694D01*
X105090000Y-101327500D01*
X104810000Y-101327500D01*
X104790866Y-101323694D01*
X104774645Y-101312855D01*
X104763806Y-101296634D01*
X104760000Y-101277500D01*
X104760000Y-100602500D01*
X104763806Y-100583366D01*
X104774645Y-100567145D01*
X104790866Y-100556306D01*
X104810000Y-100552500D01*
X105090000Y-100552500D01*
X105109134Y-100556306D01*
G37*
G36*
X105609134Y-100556306D02*
G01*
X105625355Y-100567145D01*
X105636194Y-100583366D01*
X105640000Y-100602500D01*
X105640000Y-101277500D01*
X105636194Y-101296634D01*
X105625355Y-101312855D01*
X105609134Y-101323694D01*
X105590000Y-101327500D01*
X105310000Y-101327500D01*
X105290866Y-101323694D01*
X105274645Y-101312855D01*
X105263806Y-101296634D01*
X105260000Y-101277500D01*
X105260000Y-100602500D01*
X105263806Y-100583366D01*
X105274645Y-100567145D01*
X105290866Y-100556306D01*
X105310000Y-100552500D01*
X105590000Y-100552500D01*
X105609134Y-100556306D01*
G37*
G36*
X106109134Y-100556306D02*
G01*
X106125355Y-100567145D01*
X106136194Y-100583366D01*
X106140000Y-100602500D01*
X106140000Y-101277500D01*
X106136194Y-101296634D01*
X106125355Y-101312855D01*
X106109134Y-101323694D01*
X106090000Y-101327500D01*
X105810000Y-101327500D01*
X105790866Y-101323694D01*
X105774645Y-101312855D01*
X105763806Y-101296634D01*
X105760000Y-101277500D01*
X105760000Y-100602500D01*
X105763806Y-100583366D01*
X105774645Y-100567145D01*
X105790866Y-100556306D01*
X105810000Y-100552500D01*
X106090000Y-100552500D01*
X106109134Y-100556306D01*
G37*
G36*
X95797067Y-100663651D02*
G01*
X95865558Y-100692021D01*
X95917979Y-100744442D01*
X95946349Y-100812933D01*
X95946349Y-100887067D01*
X95917979Y-100955558D01*
X95865558Y-101007979D01*
X95797067Y-101036349D01*
X95760000Y-101040000D01*
X95757546Y-101040000D01*
X95142454Y-101040000D01*
X95140000Y-101040000D01*
X95102933Y-101036349D01*
X95034442Y-101007979D01*
X94982021Y-100955558D01*
X94953651Y-100887067D01*
X94953651Y-100812933D01*
X94982021Y-100744442D01*
X95034442Y-100692021D01*
X95102933Y-100663651D01*
X95140000Y-100660000D01*
X95760000Y-100660000D01*
X95797067Y-100663651D01*
G37*
G36*
X102897067Y-100663651D02*
G01*
X102965558Y-100692021D01*
X103017979Y-100744442D01*
X103046349Y-100812933D01*
X103046349Y-100887067D01*
X103017979Y-100955558D01*
X102965558Y-101007979D01*
X102897067Y-101036349D01*
X102860000Y-101040000D01*
X102857546Y-101040000D01*
X102242454Y-101040000D01*
X102240000Y-101040000D01*
X102202933Y-101036349D01*
X102134442Y-101007979D01*
X102082021Y-100955558D01*
X102053651Y-100887067D01*
X102053651Y-100812933D01*
X102082021Y-100744442D01*
X102134442Y-100692021D01*
X102202933Y-100663651D01*
X102240000Y-100660000D01*
X102860000Y-100660000D01*
X102897067Y-100663651D01*
G37*
G36*
X89954134Y-100553806D02*
G01*
X89970355Y-100564645D01*
X89981194Y-100580866D01*
X89985000Y-100600000D01*
X89985000Y-100900000D01*
X89981194Y-100919134D01*
X89970355Y-100935355D01*
X89954134Y-100946194D01*
X89935000Y-100950000D01*
X88785000Y-100950000D01*
X88765866Y-100946194D01*
X88749645Y-100935355D01*
X88738806Y-100919134D01*
X88735000Y-100900000D01*
X88735000Y-100600000D01*
X88738806Y-100580866D01*
X88749645Y-100564645D01*
X88765866Y-100553806D01*
X88785000Y-100550000D01*
X89935000Y-100550000D01*
X89954134Y-100553806D01*
G37*
G36*
X107947710Y-100069463D02*
G01*
X108009350Y-100110650D01*
X108050537Y-100172290D01*
X108065000Y-100245000D01*
X108065000Y-100525000D01*
X108050537Y-100597710D01*
X108009350Y-100659350D01*
X107947710Y-100700537D01*
X107875000Y-100715000D01*
X107535000Y-100715000D01*
X107462290Y-100700537D01*
X107400650Y-100659350D01*
X107359463Y-100597710D01*
X107345000Y-100525000D01*
X107345000Y-100245000D01*
X107359463Y-100172290D01*
X107400650Y-100110650D01*
X107462290Y-100069463D01*
X107535000Y-100055000D01*
X107875000Y-100055000D01*
X107947710Y-100069463D01*
G37*
G36*
X111837710Y-99859463D02*
G01*
X111899350Y-99900650D01*
X111940537Y-99962290D01*
X111955000Y-100035000D01*
X111955000Y-100375000D01*
X111940537Y-100447710D01*
X111899350Y-100509350D01*
X111837710Y-100550537D01*
X111765000Y-100565000D01*
X111485000Y-100565000D01*
X111412290Y-100550537D01*
X111350650Y-100509350D01*
X111309463Y-100447710D01*
X111295000Y-100375000D01*
X111295000Y-100035000D01*
X111309463Y-99962290D01*
X111350650Y-99900650D01*
X111412290Y-99859463D01*
X111485000Y-99845000D01*
X111765000Y-99845000D01*
X111837710Y-99859463D01*
G37*
G36*
X112797710Y-99859463D02*
G01*
X112859350Y-99900650D01*
X112900537Y-99962290D01*
X112915000Y-100035000D01*
X112915000Y-100375000D01*
X112900537Y-100447710D01*
X112859350Y-100509350D01*
X112797710Y-100550537D01*
X112725000Y-100565000D01*
X112445000Y-100565000D01*
X112372290Y-100550537D01*
X112310650Y-100509350D01*
X112269463Y-100447710D01*
X112255000Y-100375000D01*
X112255000Y-100035000D01*
X112269463Y-99962290D01*
X112310650Y-99900650D01*
X112372290Y-99859463D01*
X112445000Y-99845000D01*
X112725000Y-99845000D01*
X112797710Y-99859463D01*
G37*
G36*
X95797067Y-100163651D02*
G01*
X95865558Y-100192021D01*
X95917979Y-100244442D01*
X95946349Y-100312933D01*
X95946349Y-100387067D01*
X95917979Y-100455558D01*
X95865558Y-100507979D01*
X95797067Y-100536349D01*
X95760000Y-100540000D01*
X95757546Y-100540000D01*
X95142454Y-100540000D01*
X95140000Y-100540000D01*
X95102933Y-100536349D01*
X95034442Y-100507979D01*
X94982021Y-100455558D01*
X94953651Y-100387067D01*
X94953651Y-100312933D01*
X94982021Y-100244442D01*
X95034442Y-100192021D01*
X95102933Y-100163651D01*
X95140000Y-100160000D01*
X95760000Y-100160000D01*
X95797067Y-100163651D01*
G37*
G36*
X102897067Y-100163651D02*
G01*
X102965558Y-100192021D01*
X103017979Y-100244442D01*
X103046349Y-100312933D01*
X103046349Y-100387067D01*
X103017979Y-100455558D01*
X102965558Y-100507979D01*
X102897067Y-100536349D01*
X102860000Y-100540000D01*
X102857546Y-100540000D01*
X102242454Y-100540000D01*
X102240000Y-100540000D01*
X102202933Y-100536349D01*
X102134442Y-100507979D01*
X102082021Y-100455558D01*
X102053651Y-100387067D01*
X102053651Y-100312933D01*
X102082021Y-100244442D01*
X102134442Y-100192021D01*
X102202933Y-100163651D01*
X102240000Y-100160000D01*
X102860000Y-100160000D01*
X102897067Y-100163651D01*
G37*
G36*
X89954134Y-100053806D02*
G01*
X89970355Y-100064645D01*
X89981194Y-100080866D01*
X89985000Y-100100000D01*
X89985000Y-100400000D01*
X89981194Y-100419134D01*
X89970355Y-100435355D01*
X89954134Y-100446194D01*
X89935000Y-100450000D01*
X88785000Y-100450000D01*
X88765866Y-100446194D01*
X88749645Y-100435355D01*
X88738806Y-100419134D01*
X88735000Y-100400000D01*
X88735000Y-100100000D01*
X88738806Y-100080866D01*
X88749645Y-100064645D01*
X88765866Y-100053806D01*
X88785000Y-100050000D01*
X89935000Y-100050000D01*
X89954134Y-100053806D01*
G37*
G36*
X95797067Y-99663651D02*
G01*
X95865558Y-99692021D01*
X95917979Y-99744442D01*
X95946349Y-99812933D01*
X95946349Y-99887067D01*
X95917979Y-99955558D01*
X95865558Y-100007979D01*
X95797067Y-100036349D01*
X95760000Y-100040000D01*
X95757546Y-100040000D01*
X95142454Y-100040000D01*
X95140000Y-100040000D01*
X95102933Y-100036349D01*
X95034442Y-100007979D01*
X94982021Y-99955558D01*
X94953651Y-99887067D01*
X94953651Y-99812933D01*
X94982021Y-99744442D01*
X95034442Y-99692021D01*
X95102933Y-99663651D01*
X95140000Y-99660000D01*
X95760000Y-99660000D01*
X95797067Y-99663651D01*
G37*
G36*
X102897067Y-99663651D02*
G01*
X102965558Y-99692021D01*
X103017979Y-99744442D01*
X103046349Y-99812933D01*
X103046349Y-99887067D01*
X103017979Y-99955558D01*
X102965558Y-100007979D01*
X102897067Y-100036349D01*
X102860000Y-100040000D01*
X102857546Y-100040000D01*
X102242454Y-100040000D01*
X102240000Y-100040000D01*
X102202933Y-100036349D01*
X102134442Y-100007979D01*
X102082021Y-99955558D01*
X102053651Y-99887067D01*
X102053651Y-99812933D01*
X102082021Y-99744442D01*
X102134442Y-99692021D01*
X102202933Y-99663651D01*
X102240000Y-99660000D01*
X102860000Y-99660000D01*
X102897067Y-99663651D01*
G37*
G36*
X89954134Y-99553806D02*
G01*
X89970355Y-99564645D01*
X89981194Y-99580866D01*
X89985000Y-99600000D01*
X89985000Y-99900000D01*
X89981194Y-99919134D01*
X89970355Y-99935355D01*
X89954134Y-99946194D01*
X89935000Y-99950000D01*
X88785000Y-99950000D01*
X88765866Y-99946194D01*
X88749645Y-99935355D01*
X88738806Y-99919134D01*
X88735000Y-99900000D01*
X88735000Y-99600000D01*
X88738806Y-99580866D01*
X88749645Y-99564645D01*
X88765866Y-99553806D01*
X88785000Y-99550000D01*
X89935000Y-99550000D01*
X89954134Y-99553806D01*
G37*
G36*
X117579134Y-98653806D02*
G01*
X117595355Y-98664645D01*
X117606194Y-98680866D01*
X117610000Y-98700000D01*
X117610000Y-99900000D01*
X117606194Y-99919134D01*
X117595355Y-99935355D01*
X117579134Y-99946194D01*
X117560000Y-99950000D01*
X115760000Y-99950000D01*
X115740866Y-99946194D01*
X115724645Y-99935355D01*
X115713806Y-99919134D01*
X115710000Y-99900000D01*
X115710000Y-98700000D01*
X115713806Y-98680866D01*
X115724645Y-98664645D01*
X115740866Y-98653806D01*
X115760000Y-98650000D01*
X117560000Y-98650000D01*
X117579134Y-98653806D01*
G37*
G36*
X105031409Y-98851275D02*
G01*
X105094958Y-98859641D01*
X105110943Y-98867095D01*
X105130238Y-98870933D01*
X105155792Y-98888008D01*
X105182290Y-98900364D01*
X105198412Y-98916486D01*
X105219454Y-98930546D01*
X105233513Y-98951587D01*
X105249635Y-98967709D01*
X105261990Y-98994204D01*
X105279067Y-99019762D01*
X105282905Y-99039058D01*
X105290358Y-99055041D01*
X105298722Y-99118577D01*
X105300000Y-99125000D01*
X105300000Y-99625000D01*
X105298722Y-99631424D01*
X105290358Y-99694958D01*
X105282905Y-99710939D01*
X105279067Y-99730238D01*
X105261988Y-99755797D01*
X105249635Y-99782290D01*
X105233516Y-99798408D01*
X105219454Y-99819454D01*
X105198408Y-99833516D01*
X105182290Y-99849635D01*
X105155797Y-99861988D01*
X105130238Y-99879067D01*
X105110939Y-99882905D01*
X105094958Y-99890358D01*
X105031424Y-99898722D01*
X105025000Y-99900000D01*
X104575000Y-99900000D01*
X104568577Y-99898722D01*
X104505041Y-99890358D01*
X104489058Y-99882905D01*
X104469762Y-99879067D01*
X104444204Y-99861990D01*
X104417709Y-99849635D01*
X104401587Y-99833513D01*
X104380546Y-99819454D01*
X104366486Y-99798412D01*
X104350364Y-99782290D01*
X104338008Y-99755792D01*
X104320933Y-99730238D01*
X104317095Y-99710943D01*
X104309641Y-99694958D01*
X104301275Y-99631409D01*
X104300000Y-99625000D01*
X104300000Y-99125000D01*
X104301274Y-99118592D01*
X104309641Y-99055041D01*
X104317095Y-99039054D01*
X104320933Y-99019762D01*
X104338006Y-98994209D01*
X104350364Y-98967709D01*
X104366488Y-98951584D01*
X104380546Y-98930546D01*
X104401584Y-98916488D01*
X104417709Y-98900364D01*
X104444209Y-98888006D01*
X104469762Y-98870933D01*
X104489054Y-98867095D01*
X104505041Y-98859641D01*
X104568592Y-98851274D01*
X104575000Y-98850000D01*
X105025000Y-98850000D01*
X105031409Y-98851275D01*
G37*
G36*
X106581409Y-98851275D02*
G01*
X106644958Y-98859641D01*
X106660943Y-98867095D01*
X106680238Y-98870933D01*
X106705792Y-98888008D01*
X106732290Y-98900364D01*
X106748412Y-98916486D01*
X106769454Y-98930546D01*
X106783513Y-98951587D01*
X106799635Y-98967709D01*
X106811990Y-98994204D01*
X106829067Y-99019762D01*
X106832905Y-99039058D01*
X106840358Y-99055041D01*
X106848722Y-99118577D01*
X106850000Y-99125000D01*
X106850000Y-99625000D01*
X106848722Y-99631424D01*
X106840358Y-99694958D01*
X106832905Y-99710939D01*
X106829067Y-99730238D01*
X106811988Y-99755797D01*
X106799635Y-99782290D01*
X106783516Y-99798408D01*
X106769454Y-99819454D01*
X106748408Y-99833516D01*
X106732290Y-99849635D01*
X106705797Y-99861988D01*
X106680238Y-99879067D01*
X106660939Y-99882905D01*
X106644958Y-99890358D01*
X106581424Y-99898722D01*
X106575000Y-99900000D01*
X106125000Y-99900000D01*
X106118577Y-99898722D01*
X106055041Y-99890358D01*
X106039058Y-99882905D01*
X106019762Y-99879067D01*
X105994204Y-99861990D01*
X105967709Y-99849635D01*
X105951587Y-99833513D01*
X105930546Y-99819454D01*
X105916486Y-99798412D01*
X105900364Y-99782290D01*
X105888008Y-99755792D01*
X105870933Y-99730238D01*
X105867095Y-99710943D01*
X105859641Y-99694958D01*
X105851275Y-99631409D01*
X105850000Y-99625000D01*
X105850000Y-99125000D01*
X105851274Y-99118592D01*
X105859641Y-99055041D01*
X105867095Y-99039054D01*
X105870933Y-99019762D01*
X105888006Y-98994209D01*
X105900364Y-98967709D01*
X105916488Y-98951584D01*
X105930546Y-98930546D01*
X105951584Y-98916488D01*
X105967709Y-98900364D01*
X105994209Y-98888006D01*
X106019762Y-98870933D01*
X106039054Y-98867095D01*
X106055041Y-98859641D01*
X106118592Y-98851274D01*
X106125000Y-98850000D01*
X106575000Y-98850000D01*
X106581409Y-98851275D01*
G37*
G36*
X107947710Y-99109463D02*
G01*
X108009350Y-99150650D01*
X108050537Y-99212290D01*
X108065000Y-99285000D01*
X108065000Y-99565000D01*
X108050537Y-99637710D01*
X108009350Y-99699350D01*
X107947710Y-99740537D01*
X107875000Y-99755000D01*
X107535000Y-99755000D01*
X107462290Y-99740537D01*
X107400650Y-99699350D01*
X107359463Y-99637710D01*
X107345000Y-99565000D01*
X107345000Y-99285000D01*
X107359463Y-99212290D01*
X107400650Y-99150650D01*
X107462290Y-99109463D01*
X107535000Y-99095000D01*
X107875000Y-99095000D01*
X107947710Y-99109463D01*
G37*
G36*
X95797067Y-99163651D02*
G01*
X95865558Y-99192021D01*
X95917979Y-99244442D01*
X95946349Y-99312933D01*
X95946349Y-99387067D01*
X95917979Y-99455558D01*
X95865558Y-99507979D01*
X95797067Y-99536349D01*
X95760000Y-99540000D01*
X95757546Y-99540000D01*
X95142454Y-99540000D01*
X95140000Y-99540000D01*
X95102933Y-99536349D01*
X95034442Y-99507979D01*
X94982021Y-99455558D01*
X94953651Y-99387067D01*
X94953651Y-99312933D01*
X94982021Y-99244442D01*
X95034442Y-99192021D01*
X95102933Y-99163651D01*
X95140000Y-99160000D01*
X95760000Y-99160000D01*
X95797067Y-99163651D01*
G37*
G36*
X102897067Y-99163651D02*
G01*
X102965558Y-99192021D01*
X103017979Y-99244442D01*
X103046349Y-99312933D01*
X103046349Y-99387067D01*
X103017979Y-99455558D01*
X102965558Y-99507979D01*
X102897067Y-99536349D01*
X102860000Y-99540000D01*
X102857546Y-99540000D01*
X102242454Y-99540000D01*
X102240000Y-99540000D01*
X102202933Y-99536349D01*
X102134442Y-99507979D01*
X102082021Y-99455558D01*
X102053651Y-99387067D01*
X102053651Y-99312933D01*
X102082021Y-99244442D01*
X102134442Y-99192021D01*
X102202933Y-99163651D01*
X102240000Y-99160000D01*
X102860000Y-99160000D01*
X102897067Y-99163651D01*
G37*
G36*
X112670796Y-98829082D02*
G01*
X112730815Y-98869185D01*
X112770918Y-98929204D01*
X112785000Y-99000000D01*
X112785000Y-99270000D01*
X112770918Y-99340796D01*
X112730815Y-99400815D01*
X112670796Y-99440918D01*
X112600000Y-99455000D01*
X112230000Y-99455000D01*
X112159204Y-99440918D01*
X112099185Y-99400815D01*
X112059082Y-99340796D01*
X112045000Y-99270000D01*
X112045000Y-99000000D01*
X112059082Y-98929204D01*
X112099185Y-98869185D01*
X112159204Y-98829082D01*
X112230000Y-98815000D01*
X112600000Y-98815000D01*
X112670796Y-98829082D01*
G37*
G36*
X89954134Y-99053806D02*
G01*
X89970355Y-99064645D01*
X89981194Y-99080866D01*
X89985000Y-99100000D01*
X89985000Y-99400000D01*
X89981194Y-99419134D01*
X89970355Y-99435355D01*
X89954134Y-99446194D01*
X89935000Y-99450000D01*
X88785000Y-99450000D01*
X88765866Y-99446194D01*
X88749645Y-99435355D01*
X88738806Y-99419134D01*
X88735000Y-99400000D01*
X88735000Y-99100000D01*
X88738806Y-99080866D01*
X88749645Y-99064645D01*
X88765866Y-99053806D01*
X88785000Y-99050000D01*
X89935000Y-99050000D01*
X89954134Y-99053806D01*
G37*
G36*
X110337710Y-98559463D02*
G01*
X110399350Y-98600650D01*
X110440537Y-98662290D01*
X110455000Y-98735000D01*
X110455000Y-99075000D01*
X110440537Y-99147710D01*
X110399350Y-99209350D01*
X110337710Y-99250537D01*
X110265000Y-99265000D01*
X109985000Y-99265000D01*
X109912290Y-99250537D01*
X109850650Y-99209350D01*
X109809463Y-99147710D01*
X109795000Y-99075000D01*
X109795000Y-98735000D01*
X109809463Y-98662290D01*
X109850650Y-98600650D01*
X109912290Y-98559463D01*
X109985000Y-98545000D01*
X110265000Y-98545000D01*
X110337710Y-98559463D01*
G37*
G36*
X111297710Y-98559463D02*
G01*
X111359350Y-98600650D01*
X111400537Y-98662290D01*
X111415000Y-98735000D01*
X111415000Y-99075000D01*
X111400537Y-99147710D01*
X111359350Y-99209350D01*
X111297710Y-99250537D01*
X111225000Y-99265000D01*
X110945000Y-99265000D01*
X110872290Y-99250537D01*
X110810650Y-99209350D01*
X110769463Y-99147710D01*
X110755000Y-99075000D01*
X110755000Y-98735000D01*
X110769463Y-98662290D01*
X110810650Y-98600650D01*
X110872290Y-98559463D01*
X110945000Y-98545000D01*
X111225000Y-98545000D01*
X111297710Y-98559463D01*
G37*
G36*
X95797067Y-98663651D02*
G01*
X95865558Y-98692021D01*
X95917979Y-98744442D01*
X95946349Y-98812933D01*
X95946349Y-98887067D01*
X95917979Y-98955558D01*
X95865558Y-99007979D01*
X95797067Y-99036349D01*
X95760000Y-99040000D01*
X95757546Y-99040000D01*
X95142454Y-99040000D01*
X95140000Y-99040000D01*
X95102933Y-99036349D01*
X95034442Y-99007979D01*
X94982021Y-98955558D01*
X94953651Y-98887067D01*
X94953651Y-98812933D01*
X94982021Y-98744442D01*
X95034442Y-98692021D01*
X95102933Y-98663651D01*
X95140000Y-98660000D01*
X95760000Y-98660000D01*
X95797067Y-98663651D01*
G37*
G36*
X102897067Y-98663651D02*
G01*
X102965558Y-98692021D01*
X103017979Y-98744442D01*
X103046349Y-98812933D01*
X103046349Y-98887067D01*
X103017979Y-98955558D01*
X102965558Y-99007979D01*
X102897067Y-99036349D01*
X102860000Y-99040000D01*
X102857546Y-99040000D01*
X102242454Y-99040000D01*
X102240000Y-99040000D01*
X102202933Y-99036349D01*
X102134442Y-99007979D01*
X102082021Y-98955558D01*
X102053651Y-98887067D01*
X102053651Y-98812933D01*
X102082021Y-98744442D01*
X102134442Y-98692021D01*
X102202933Y-98663651D01*
X102240000Y-98660000D01*
X102860000Y-98660000D01*
X102897067Y-98663651D01*
G37*
G36*
X92190134Y-97848806D02*
G01*
X92206355Y-97859645D01*
X92217194Y-97875866D01*
X92221000Y-97895000D01*
X92221000Y-98967000D01*
X92217194Y-98986134D01*
X92206355Y-99002355D01*
X92190134Y-99013194D01*
X92171000Y-99017000D01*
X91639000Y-99017000D01*
X91619866Y-99013194D01*
X91603645Y-99002355D01*
X91592806Y-98986134D01*
X91589000Y-98967000D01*
X91589000Y-97895000D01*
X91592806Y-97875866D01*
X91603645Y-97859645D01*
X91619866Y-97848806D01*
X91639000Y-97845000D01*
X92171000Y-97845000D01*
X92190134Y-97848806D01*
G37*
G36*
X93140134Y-97848806D02*
G01*
X93156355Y-97859645D01*
X93167194Y-97875866D01*
X93171000Y-97895000D01*
X93171000Y-98967000D01*
X93167194Y-98986134D01*
X93156355Y-99002355D01*
X93140134Y-99013194D01*
X93121000Y-99017000D01*
X92589000Y-99017000D01*
X92569866Y-99013194D01*
X92553645Y-99002355D01*
X92542806Y-98986134D01*
X92539000Y-98967000D01*
X92539000Y-97895000D01*
X92542806Y-97875866D01*
X92553645Y-97859645D01*
X92569866Y-97848806D01*
X92589000Y-97845000D01*
X93121000Y-97845000D01*
X93140134Y-97848806D01*
G37*
G36*
X94090134Y-97848806D02*
G01*
X94106355Y-97859645D01*
X94117194Y-97875866D01*
X94121000Y-97895000D01*
X94121000Y-98967000D01*
X94117194Y-98986134D01*
X94106355Y-99002355D01*
X94090134Y-99013194D01*
X94071000Y-99017000D01*
X93539000Y-99017000D01*
X93519866Y-99013194D01*
X93503645Y-99002355D01*
X93492806Y-98986134D01*
X93489000Y-98967000D01*
X93489000Y-97895000D01*
X93492806Y-97875866D01*
X93503645Y-97859645D01*
X93519866Y-97848806D01*
X93539000Y-97845000D01*
X94071000Y-97845000D01*
X94090134Y-97848806D01*
G37*
G36*
X89954134Y-98553806D02*
G01*
X89970355Y-98564645D01*
X89981194Y-98580866D01*
X89985000Y-98600000D01*
X89985000Y-98900000D01*
X89981194Y-98919134D01*
X89970355Y-98935355D01*
X89954134Y-98946194D01*
X89935000Y-98950000D01*
X88785000Y-98950000D01*
X88765866Y-98946194D01*
X88749645Y-98935355D01*
X88738806Y-98919134D01*
X88735000Y-98900000D01*
X88735000Y-98600000D01*
X88738806Y-98580866D01*
X88749645Y-98564645D01*
X88765866Y-98553806D01*
X88785000Y-98550000D01*
X89935000Y-98550000D01*
X89954134Y-98553806D01*
G37*
G36*
X95797067Y-98163651D02*
G01*
X95865558Y-98192021D01*
X95917979Y-98244442D01*
X95946349Y-98312933D01*
X95946349Y-98387067D01*
X95917979Y-98455558D01*
X95865558Y-98507979D01*
X95797067Y-98536349D01*
X95760000Y-98540000D01*
X95757546Y-98540000D01*
X95142454Y-98540000D01*
X95140000Y-98540000D01*
X95102933Y-98536349D01*
X95034442Y-98507979D01*
X94982021Y-98455558D01*
X94953651Y-98387067D01*
X94953651Y-98312933D01*
X94982021Y-98244442D01*
X95034442Y-98192021D01*
X95102933Y-98163651D01*
X95140000Y-98160000D01*
X95760000Y-98160000D01*
X95797067Y-98163651D01*
G37*
G36*
X102897067Y-98163651D02*
G01*
X102965558Y-98192021D01*
X103017979Y-98244442D01*
X103046349Y-98312933D01*
X103046349Y-98387067D01*
X103017979Y-98455558D01*
X102965558Y-98507979D01*
X102897067Y-98536349D01*
X102860000Y-98540000D01*
X102857546Y-98540000D01*
X102242454Y-98540000D01*
X102240000Y-98540000D01*
X102202933Y-98536349D01*
X102134442Y-98507979D01*
X102082021Y-98455558D01*
X102053651Y-98387067D01*
X102053651Y-98312933D01*
X102082021Y-98244442D01*
X102134442Y-98192021D01*
X102202933Y-98163651D01*
X102240000Y-98160000D01*
X102860000Y-98160000D01*
X102897067Y-98163651D01*
G37*
G36*
X89954134Y-98053806D02*
G01*
X89970355Y-98064645D01*
X89981194Y-98080866D01*
X89985000Y-98100000D01*
X89985000Y-98400000D01*
X89981194Y-98419134D01*
X89970355Y-98435355D01*
X89954134Y-98446194D01*
X89935000Y-98450000D01*
X88785000Y-98450000D01*
X88765866Y-98446194D01*
X88749645Y-98435355D01*
X88738806Y-98419134D01*
X88735000Y-98400000D01*
X88735000Y-98100000D01*
X88738806Y-98080866D01*
X88749645Y-98064645D01*
X88765866Y-98053806D01*
X88785000Y-98050000D01*
X89935000Y-98050000D01*
X89954134Y-98053806D01*
G37*
G36*
X112670796Y-97809082D02*
G01*
X112730815Y-97849185D01*
X112770918Y-97909204D01*
X112785000Y-97980000D01*
X112785000Y-98250000D01*
X112770918Y-98320796D01*
X112730815Y-98380815D01*
X112670796Y-98420918D01*
X112600000Y-98435000D01*
X112230000Y-98435000D01*
X112159204Y-98420918D01*
X112099185Y-98380815D01*
X112059082Y-98320796D01*
X112045000Y-98250000D01*
X112045000Y-97980000D01*
X112059082Y-97909204D01*
X112099185Y-97849185D01*
X112159204Y-97809082D01*
X112230000Y-97795000D01*
X112600000Y-97795000D01*
X112670796Y-97809082D01*
G37*
G36*
X114934134Y-97653806D02*
G01*
X114950355Y-97664645D01*
X114961194Y-97680866D01*
X114965000Y-97700000D01*
X114965000Y-98300000D01*
X114961194Y-98319134D01*
X114950355Y-98335355D01*
X114934134Y-98346194D01*
X114915000Y-98350000D01*
X113365000Y-98350000D01*
X113345866Y-98346194D01*
X113329645Y-98335355D01*
X113318806Y-98319134D01*
X113315000Y-98300000D01*
X113315000Y-97700000D01*
X113318806Y-97680866D01*
X113329645Y-97664645D01*
X113345866Y-97653806D01*
X113365000Y-97650000D01*
X114915000Y-97650000D01*
X114934134Y-97653806D01*
G37*
G36*
X103937710Y-97609463D02*
G01*
X103999350Y-97650650D01*
X104040537Y-97712290D01*
X104055000Y-97785000D01*
X104055000Y-98125000D01*
X104040537Y-98197710D01*
X103999350Y-98259350D01*
X103937710Y-98300537D01*
X103865000Y-98315000D01*
X103585000Y-98315000D01*
X103512290Y-98300537D01*
X103450650Y-98259350D01*
X103409463Y-98197710D01*
X103395000Y-98125000D01*
X103395000Y-97785000D01*
X103409463Y-97712290D01*
X103450650Y-97650650D01*
X103512290Y-97609463D01*
X103585000Y-97595000D01*
X103865000Y-97595000D01*
X103937710Y-97609463D01*
G37*
G36*
X104897710Y-97609463D02*
G01*
X104959350Y-97650650D01*
X105000537Y-97712290D01*
X105015000Y-97785000D01*
X105015000Y-98125000D01*
X105000537Y-98197710D01*
X104959350Y-98259350D01*
X104897710Y-98300537D01*
X104825000Y-98315000D01*
X104545000Y-98315000D01*
X104472290Y-98300537D01*
X104410650Y-98259350D01*
X104369463Y-98197710D01*
X104355000Y-98125000D01*
X104355000Y-97785000D01*
X104369463Y-97712290D01*
X104410650Y-97650650D01*
X104472290Y-97609463D01*
X104545000Y-97595000D01*
X104825000Y-97595000D01*
X104897710Y-97609463D01*
G37*
G36*
X105987710Y-97609463D02*
G01*
X106049350Y-97650650D01*
X106090537Y-97712290D01*
X106105000Y-97785000D01*
X106105000Y-98125000D01*
X106090537Y-98197710D01*
X106049350Y-98259350D01*
X105987710Y-98300537D01*
X105915000Y-98315000D01*
X105635000Y-98315000D01*
X105562290Y-98300537D01*
X105500650Y-98259350D01*
X105459463Y-98197710D01*
X105445000Y-98125000D01*
X105445000Y-97785000D01*
X105459463Y-97712290D01*
X105500650Y-97650650D01*
X105562290Y-97609463D01*
X105635000Y-97595000D01*
X105915000Y-97595000D01*
X105987710Y-97609463D01*
G37*
G36*
X106947710Y-97609463D02*
G01*
X107009350Y-97650650D01*
X107050537Y-97712290D01*
X107065000Y-97785000D01*
X107065000Y-98125000D01*
X107050537Y-98197710D01*
X107009350Y-98259350D01*
X106947710Y-98300537D01*
X106875000Y-98315000D01*
X106595000Y-98315000D01*
X106522290Y-98300537D01*
X106460650Y-98259350D01*
X106419463Y-98197710D01*
X106405000Y-98125000D01*
X106405000Y-97785000D01*
X106419463Y-97712290D01*
X106460650Y-97650650D01*
X106522290Y-97609463D01*
X106595000Y-97595000D01*
X106875000Y-97595000D01*
X106947710Y-97609463D01*
G37*
G36*
X110320796Y-97409082D02*
G01*
X110380815Y-97449185D01*
X110420918Y-97509204D01*
X110435000Y-97580000D01*
X110435000Y-97950000D01*
X110420918Y-98020796D01*
X110380815Y-98080815D01*
X110320796Y-98120918D01*
X110250000Y-98135000D01*
X109980000Y-98135000D01*
X109909204Y-98120918D01*
X109849185Y-98080815D01*
X109809082Y-98020796D01*
X109795000Y-97950000D01*
X109795000Y-97580000D01*
X109809082Y-97509204D01*
X109849185Y-97449185D01*
X109909204Y-97409082D01*
X109980000Y-97395000D01*
X110250000Y-97395000D01*
X110320796Y-97409082D01*
G37*
G36*
X111340796Y-97409082D02*
G01*
X111400815Y-97449185D01*
X111440918Y-97509204D01*
X111455000Y-97580000D01*
X111455000Y-97950000D01*
X111440918Y-98020796D01*
X111400815Y-98080815D01*
X111340796Y-98120918D01*
X111270000Y-98135000D01*
X111000000Y-98135000D01*
X110929204Y-98120918D01*
X110869185Y-98080815D01*
X110829082Y-98020796D01*
X110815000Y-97950000D01*
X110815000Y-97580000D01*
X110829082Y-97509204D01*
X110869185Y-97449185D01*
X110929204Y-97409082D01*
X111000000Y-97395000D01*
X111270000Y-97395000D01*
X111340796Y-97409082D01*
G37*
G36*
X96355558Y-97082021D02*
G01*
X96407979Y-97134442D01*
X96436349Y-97202933D01*
X96440000Y-97240000D01*
X96440000Y-97860000D01*
X96436349Y-97897067D01*
X96407979Y-97965558D01*
X96355558Y-98017979D01*
X96287067Y-98046349D01*
X96212933Y-98046349D01*
X96144442Y-98017979D01*
X96092021Y-97965558D01*
X96063651Y-97897067D01*
X96060000Y-97860000D01*
X96060000Y-97240000D01*
X96063651Y-97202933D01*
X96092021Y-97134442D01*
X96144442Y-97082021D01*
X96212933Y-97053651D01*
X96287067Y-97053651D01*
X96355558Y-97082021D01*
G37*
G36*
X96855558Y-97082021D02*
G01*
X96907979Y-97134442D01*
X96936349Y-97202933D01*
X96940000Y-97240000D01*
X96940000Y-97860000D01*
X96936349Y-97897067D01*
X96907979Y-97965558D01*
X96855558Y-98017979D01*
X96787067Y-98046349D01*
X96712933Y-98046349D01*
X96644442Y-98017979D01*
X96592021Y-97965558D01*
X96563651Y-97897067D01*
X96560000Y-97860000D01*
X96560000Y-97240000D01*
X96563651Y-97202933D01*
X96592021Y-97134442D01*
X96644442Y-97082021D01*
X96712933Y-97053651D01*
X96787067Y-97053651D01*
X96855558Y-97082021D01*
G37*
G36*
X97355558Y-97082021D02*
G01*
X97407979Y-97134442D01*
X97436349Y-97202933D01*
X97440000Y-97240000D01*
X97440000Y-97860000D01*
X97436349Y-97897067D01*
X97407979Y-97965558D01*
X97355558Y-98017979D01*
X97287067Y-98046349D01*
X97212933Y-98046349D01*
X97144442Y-98017979D01*
X97092021Y-97965558D01*
X97063651Y-97897067D01*
X97060000Y-97860000D01*
X97060000Y-97240000D01*
X97063651Y-97202933D01*
X97092021Y-97134442D01*
X97144442Y-97082021D01*
X97212933Y-97053651D01*
X97287067Y-97053651D01*
X97355558Y-97082021D01*
G37*
G36*
X97855558Y-97082021D02*
G01*
X97907979Y-97134442D01*
X97936349Y-97202933D01*
X97940000Y-97240000D01*
X97940000Y-97860000D01*
X97936349Y-97897067D01*
X97907979Y-97965558D01*
X97855558Y-98017979D01*
X97787067Y-98046349D01*
X97712933Y-98046349D01*
X97644442Y-98017979D01*
X97592021Y-97965558D01*
X97563651Y-97897067D01*
X97560000Y-97860000D01*
X97560000Y-97240000D01*
X97563651Y-97202933D01*
X97592021Y-97134442D01*
X97644442Y-97082021D01*
X97712933Y-97053651D01*
X97787067Y-97053651D01*
X97855558Y-97082021D01*
G37*
G36*
X98355558Y-97082021D02*
G01*
X98407979Y-97134442D01*
X98436349Y-97202933D01*
X98440000Y-97240000D01*
X98440000Y-97860000D01*
X98436349Y-97897067D01*
X98407979Y-97965558D01*
X98355558Y-98017979D01*
X98287067Y-98046349D01*
X98212933Y-98046349D01*
X98144442Y-98017979D01*
X98092021Y-97965558D01*
X98063651Y-97897067D01*
X98060000Y-97860000D01*
X98060000Y-97240000D01*
X98063651Y-97202933D01*
X98092021Y-97134442D01*
X98144442Y-97082021D01*
X98212933Y-97053651D01*
X98287067Y-97053651D01*
X98355558Y-97082021D01*
G37*
G36*
X98855558Y-97082021D02*
G01*
X98907979Y-97134442D01*
X98936349Y-97202933D01*
X98940000Y-97240000D01*
X98940000Y-97860000D01*
X98936349Y-97897067D01*
X98907979Y-97965558D01*
X98855558Y-98017979D01*
X98787067Y-98046349D01*
X98712933Y-98046349D01*
X98644442Y-98017979D01*
X98592021Y-97965558D01*
X98563651Y-97897067D01*
X98560000Y-97860000D01*
X98560000Y-97240000D01*
X98563651Y-97202933D01*
X98592021Y-97134442D01*
X98644442Y-97082021D01*
X98712933Y-97053651D01*
X98787067Y-97053651D01*
X98855558Y-97082021D01*
G37*
G36*
X99355558Y-97082021D02*
G01*
X99407979Y-97134442D01*
X99436349Y-97202933D01*
X99440000Y-97240000D01*
X99440000Y-97860000D01*
X99436349Y-97897067D01*
X99407979Y-97965558D01*
X99355558Y-98017979D01*
X99287067Y-98046349D01*
X99212933Y-98046349D01*
X99144442Y-98017979D01*
X99092021Y-97965558D01*
X99063651Y-97897067D01*
X99060000Y-97860000D01*
X99060000Y-97240000D01*
X99063651Y-97202933D01*
X99092021Y-97134442D01*
X99144442Y-97082021D01*
X99212933Y-97053651D01*
X99287067Y-97053651D01*
X99355558Y-97082021D01*
G37*
G36*
X99855558Y-97082021D02*
G01*
X99907979Y-97134442D01*
X99936349Y-97202933D01*
X99940000Y-97240000D01*
X99940000Y-97860000D01*
X99936349Y-97897067D01*
X99907979Y-97965558D01*
X99855558Y-98017979D01*
X99787067Y-98046349D01*
X99712933Y-98046349D01*
X99644442Y-98017979D01*
X99592021Y-97965558D01*
X99563651Y-97897067D01*
X99560000Y-97860000D01*
X99560000Y-97240000D01*
X99563651Y-97202933D01*
X99592021Y-97134442D01*
X99644442Y-97082021D01*
X99712933Y-97053651D01*
X99787067Y-97053651D01*
X99855558Y-97082021D01*
G37*
G36*
X100355558Y-97082021D02*
G01*
X100407979Y-97134442D01*
X100436349Y-97202933D01*
X100440000Y-97240000D01*
X100440000Y-97860000D01*
X100436349Y-97897067D01*
X100407979Y-97965558D01*
X100355558Y-98017979D01*
X100287067Y-98046349D01*
X100212933Y-98046349D01*
X100144442Y-98017979D01*
X100092021Y-97965558D01*
X100063651Y-97897067D01*
X100060000Y-97860000D01*
X100060000Y-97240000D01*
X100063651Y-97202933D01*
X100092021Y-97134442D01*
X100144442Y-97082021D01*
X100212933Y-97053651D01*
X100287067Y-97053651D01*
X100355558Y-97082021D01*
G37*
G36*
X100855558Y-97082021D02*
G01*
X100907979Y-97134442D01*
X100936349Y-97202933D01*
X100940000Y-97240000D01*
X100940000Y-97860000D01*
X100936349Y-97897067D01*
X100907979Y-97965558D01*
X100855558Y-98017979D01*
X100787067Y-98046349D01*
X100712933Y-98046349D01*
X100644442Y-98017979D01*
X100592021Y-97965558D01*
X100563651Y-97897067D01*
X100560000Y-97860000D01*
X100560000Y-97240000D01*
X100563651Y-97202933D01*
X100592021Y-97134442D01*
X100644442Y-97082021D01*
X100712933Y-97053651D01*
X100787067Y-97053651D01*
X100855558Y-97082021D01*
G37*
G36*
X101355558Y-97082021D02*
G01*
X101407979Y-97134442D01*
X101436349Y-97202933D01*
X101440000Y-97240000D01*
X101440000Y-97860000D01*
X101436349Y-97897067D01*
X101407979Y-97965558D01*
X101355558Y-98017979D01*
X101287067Y-98046349D01*
X101212933Y-98046349D01*
X101144442Y-98017979D01*
X101092021Y-97965558D01*
X101063651Y-97897067D01*
X101060000Y-97860000D01*
X101060000Y-97240000D01*
X101063651Y-97202933D01*
X101092021Y-97134442D01*
X101144442Y-97082021D01*
X101212933Y-97053651D01*
X101287067Y-97053651D01*
X101355558Y-97082021D01*
G37*
G36*
X101855558Y-97082021D02*
G01*
X101907979Y-97134442D01*
X101936349Y-97202933D01*
X101940000Y-97240000D01*
X101940000Y-97860000D01*
X101936349Y-97897067D01*
X101907979Y-97965558D01*
X101855558Y-98017979D01*
X101787067Y-98046349D01*
X101712933Y-98046349D01*
X101644442Y-98017979D01*
X101592021Y-97965558D01*
X101563651Y-97897067D01*
X101560000Y-97860000D01*
X101560000Y-97240000D01*
X101563651Y-97202933D01*
X101592021Y-97134442D01*
X101644442Y-97082021D01*
X101712933Y-97053651D01*
X101787067Y-97053651D01*
X101855558Y-97082021D01*
G37*
G36*
X89954134Y-97253806D02*
G01*
X89970355Y-97264645D01*
X89981194Y-97280866D01*
X89985000Y-97300000D01*
X89985000Y-97900000D01*
X89981194Y-97919134D01*
X89970355Y-97935355D01*
X89954134Y-97946194D01*
X89935000Y-97950000D01*
X88785000Y-97950000D01*
X88765866Y-97946194D01*
X88749645Y-97935355D01*
X88738806Y-97919134D01*
X88735000Y-97900000D01*
X88735000Y-97300000D01*
X88738806Y-97280866D01*
X88749645Y-97264645D01*
X88765866Y-97253806D01*
X88785000Y-97250000D01*
X89935000Y-97250000D01*
X89954134Y-97253806D01*
G37*
G36*
X88423506Y-96763545D02*
G01*
X88508286Y-96812492D01*
X88577508Y-96881714D01*
X88626455Y-96966494D01*
X88651792Y-97061053D01*
X88651792Y-97158947D01*
X88626455Y-97253506D01*
X88577508Y-97338286D01*
X88508286Y-97407508D01*
X88423506Y-97456455D01*
X88328947Y-97481792D01*
X88231053Y-97481792D01*
X88136494Y-97456455D01*
X88051714Y-97407508D01*
X87982492Y-97338286D01*
X87933545Y-97253506D01*
X87908208Y-97158947D01*
X87908208Y-97061053D01*
X87933545Y-96966494D01*
X87982492Y-96881714D01*
X88051714Y-96812492D01*
X88136494Y-96763545D01*
X88231053Y-96738208D01*
X88328947Y-96738208D01*
X88423506Y-96763545D01*
G37*
G36*
X112670796Y-96779082D02*
G01*
X112730815Y-96819185D01*
X112770918Y-96879204D01*
X112785000Y-96950000D01*
X112785000Y-97220000D01*
X112770918Y-97290796D01*
X112730815Y-97350815D01*
X112670796Y-97390918D01*
X112600000Y-97405000D01*
X112230000Y-97405000D01*
X112159204Y-97390918D01*
X112099185Y-97350815D01*
X112059082Y-97290796D01*
X112045000Y-97220000D01*
X112045000Y-96950000D01*
X112059082Y-96879204D01*
X112099185Y-96819185D01*
X112159204Y-96779082D01*
X112230000Y-96765000D01*
X112600000Y-96765000D01*
X112670796Y-96779082D01*
G37*
G36*
X114934134Y-96653806D02*
G01*
X114950355Y-96664645D01*
X114961194Y-96680866D01*
X114965000Y-96700000D01*
X114965000Y-97300000D01*
X114961194Y-97319134D01*
X114950355Y-97335355D01*
X114934134Y-97346194D01*
X114915000Y-97350000D01*
X113365000Y-97350000D01*
X113345866Y-97346194D01*
X113329645Y-97335355D01*
X113318806Y-97319134D01*
X113315000Y-97300000D01*
X113315000Y-96700000D01*
X113318806Y-96680866D01*
X113329645Y-96664645D01*
X113345866Y-96653806D01*
X113365000Y-96650000D01*
X114915000Y-96650000D01*
X114934134Y-96653806D01*
G37*
G36*
X89954134Y-96453806D02*
G01*
X89970355Y-96464645D01*
X89981194Y-96480866D01*
X89985000Y-96500000D01*
X89985000Y-97100000D01*
X89981194Y-97119134D01*
X89970355Y-97135355D01*
X89954134Y-97146194D01*
X89935000Y-97150000D01*
X88825000Y-97150000D01*
X88805866Y-97146194D01*
X88789645Y-97135355D01*
X88778806Y-97119134D01*
X88775000Y-97100000D01*
X88775000Y-96500000D01*
X88778806Y-96480866D01*
X88789645Y-96464645D01*
X88805866Y-96453806D01*
X88825000Y-96450000D01*
X89935000Y-96450000D01*
X89954134Y-96453806D01*
G37*
G36*
X110320796Y-96259082D02*
G01*
X110380815Y-96299185D01*
X110420918Y-96359204D01*
X110435000Y-96430000D01*
X110435000Y-96800000D01*
X110420918Y-96870796D01*
X110380815Y-96930815D01*
X110320796Y-96970918D01*
X110250000Y-96985000D01*
X109980000Y-96985000D01*
X109909204Y-96970918D01*
X109849185Y-96930815D01*
X109809082Y-96870796D01*
X109795000Y-96800000D01*
X109795000Y-96430000D01*
X109809082Y-96359204D01*
X109849185Y-96299185D01*
X109909204Y-96259082D01*
X109980000Y-96245000D01*
X110250000Y-96245000D01*
X110320796Y-96259082D01*
G37*
G36*
X111340796Y-96259082D02*
G01*
X111400815Y-96299185D01*
X111440918Y-96359204D01*
X111455000Y-96430000D01*
X111455000Y-96800000D01*
X111440918Y-96870796D01*
X111400815Y-96930815D01*
X111340796Y-96970918D01*
X111270000Y-96985000D01*
X111000000Y-96985000D01*
X110929204Y-96970918D01*
X110869185Y-96930815D01*
X110829082Y-96870796D01*
X110815000Y-96800000D01*
X110815000Y-96430000D01*
X110829082Y-96359204D01*
X110869185Y-96299185D01*
X110929204Y-96259082D01*
X111000000Y-96245000D01*
X111270000Y-96245000D01*
X111340796Y-96259082D01*
G37*
G36*
X92190134Y-95548806D02*
G01*
X92206355Y-95559645D01*
X92217194Y-95575866D01*
X92221000Y-95595000D01*
X92221000Y-96667000D01*
X92217194Y-96686134D01*
X92206355Y-96702355D01*
X92190134Y-96713194D01*
X92171000Y-96717000D01*
X91639000Y-96717000D01*
X91619866Y-96713194D01*
X91603645Y-96702355D01*
X91592806Y-96686134D01*
X91589000Y-96667000D01*
X91589000Y-95595000D01*
X91592806Y-95575866D01*
X91603645Y-95559645D01*
X91619866Y-95548806D01*
X91639000Y-95545000D01*
X92171000Y-95545000D01*
X92190134Y-95548806D01*
G37*
G36*
X93140134Y-95548806D02*
G01*
X93156355Y-95559645D01*
X93167194Y-95575866D01*
X93171000Y-95595000D01*
X93171000Y-96667000D01*
X93167194Y-96686134D01*
X93156355Y-96702355D01*
X93140134Y-96713194D01*
X93121000Y-96717000D01*
X92589000Y-96717000D01*
X92569866Y-96713194D01*
X92553645Y-96702355D01*
X92542806Y-96686134D01*
X92539000Y-96667000D01*
X92539000Y-95595000D01*
X92542806Y-95575866D01*
X92553645Y-95559645D01*
X92569866Y-95548806D01*
X92589000Y-95545000D01*
X93121000Y-95545000D01*
X93140134Y-95548806D01*
G37*
G36*
X94090134Y-95548806D02*
G01*
X94106355Y-95559645D01*
X94117194Y-95575866D01*
X94121000Y-95595000D01*
X94121000Y-96667000D01*
X94117194Y-96686134D01*
X94106355Y-96702355D01*
X94090134Y-96713194D01*
X94071000Y-96717000D01*
X93539000Y-96717000D01*
X93519866Y-96713194D01*
X93503645Y-96702355D01*
X93492806Y-96686134D01*
X93489000Y-96667000D01*
X93489000Y-95595000D01*
X93492806Y-95575866D01*
X93503645Y-95559645D01*
X93519866Y-95548806D01*
X93539000Y-95545000D01*
X94071000Y-95545000D01*
X94090134Y-95548806D01*
G37*
G36*
X112670796Y-95759082D02*
G01*
X112730815Y-95799185D01*
X112770918Y-95859204D01*
X112785000Y-95930000D01*
X112785000Y-96200000D01*
X112770918Y-96270796D01*
X112730815Y-96330815D01*
X112670796Y-96370918D01*
X112600000Y-96385000D01*
X112230000Y-96385000D01*
X112159204Y-96370918D01*
X112099185Y-96330815D01*
X112059082Y-96270796D01*
X112045000Y-96200000D01*
X112045000Y-95930000D01*
X112059082Y-95859204D01*
X112099185Y-95799185D01*
X112159204Y-95759082D01*
X112230000Y-95745000D01*
X112600000Y-95745000D01*
X112670796Y-95759082D01*
G37*
G36*
X114934134Y-95653806D02*
G01*
X114950355Y-95664645D01*
X114961194Y-95680866D01*
X114965000Y-95700000D01*
X114965000Y-96300000D01*
X114961194Y-96319134D01*
X114950355Y-96335355D01*
X114934134Y-96346194D01*
X114915000Y-96350000D01*
X113365000Y-96350000D01*
X113345866Y-96346194D01*
X113329645Y-96335355D01*
X113318806Y-96319134D01*
X113315000Y-96300000D01*
X113315000Y-95700000D01*
X113318806Y-95680866D01*
X113329645Y-95664645D01*
X113345866Y-95653806D01*
X113365000Y-95650000D01*
X114915000Y-95650000D01*
X114934134Y-95653806D01*
G37*
G36*
X85071789Y-95134705D02*
G01*
X85210476Y-95171866D01*
X85334819Y-95243656D01*
X85436344Y-95345181D01*
X85508134Y-95469524D01*
X85545295Y-95608211D01*
X85545295Y-95751789D01*
X85508134Y-95890476D01*
X85436344Y-96014819D01*
X85334819Y-96116344D01*
X85210476Y-96188134D01*
X85071789Y-96225295D01*
X85000000Y-96230000D01*
X84998363Y-96230000D01*
X84201637Y-96230000D01*
X84200000Y-96230000D01*
X84128211Y-96225295D01*
X83989524Y-96188134D01*
X83865181Y-96116344D01*
X83763656Y-96014819D01*
X83691866Y-95890476D01*
X83654705Y-95751789D01*
X83654705Y-95608211D01*
X83691866Y-95469524D01*
X83763656Y-95345181D01*
X83865181Y-95243656D01*
X83989524Y-95171866D01*
X84128211Y-95134705D01*
X84200000Y-95130000D01*
X85000000Y-95130000D01*
X85071789Y-95134705D01*
G37*
G36*
X89401789Y-95134705D02*
G01*
X89540476Y-95171866D01*
X89664819Y-95243656D01*
X89766344Y-95345181D01*
X89838134Y-95469524D01*
X89875295Y-95608211D01*
X89875295Y-95751789D01*
X89838134Y-95890476D01*
X89766344Y-96014819D01*
X89664819Y-96116344D01*
X89540476Y-96188134D01*
X89401789Y-96225295D01*
X89330000Y-96230000D01*
X89328363Y-96230000D01*
X88231637Y-96230000D01*
X88230000Y-96230000D01*
X88158211Y-96225295D01*
X88019524Y-96188134D01*
X87895181Y-96116344D01*
X87793656Y-96014819D01*
X87721866Y-95890476D01*
X87684705Y-95751789D01*
X87684705Y-95608211D01*
X87721866Y-95469524D01*
X87793656Y-95345181D01*
X87895181Y-95243656D01*
X88019524Y-95171866D01*
X88158211Y-95134705D01*
X88230000Y-95130000D01*
X89330000Y-95130000D01*
X89401789Y-95134705D01*
G37*
G36*
X114934134Y-94653806D02*
G01*
X114950355Y-94664645D01*
X114961194Y-94680866D01*
X114965000Y-94700000D01*
X114965000Y-95300000D01*
X114961194Y-95319134D01*
X114950355Y-95335355D01*
X114934134Y-95346194D01*
X114915000Y-95350000D01*
X113365000Y-95350000D01*
X113345866Y-95346194D01*
X113329645Y-95335355D01*
X113318806Y-95319134D01*
X113315000Y-95300000D01*
X113315000Y-94700000D01*
X113318806Y-94680866D01*
X113329645Y-94664645D01*
X113345866Y-94653806D01*
X113365000Y-94650000D01*
X114915000Y-94650000D01*
X114934134Y-94653806D01*
G37*
G36*
X91664134Y-93748806D02*
G01*
X91680355Y-93759645D01*
X91691194Y-93775866D01*
X91695000Y-93795000D01*
X91695000Y-95195000D01*
X91691194Y-95214134D01*
X91680355Y-95230355D01*
X91664134Y-95241194D01*
X91645000Y-95245000D01*
X90445000Y-95245000D01*
X90425866Y-95241194D01*
X90409645Y-95230355D01*
X90398806Y-95214134D01*
X90395000Y-95195000D01*
X90395000Y-93795000D01*
X90398806Y-93775866D01*
X90409645Y-93759645D01*
X90425866Y-93748806D01*
X90445000Y-93745000D01*
X91645000Y-93745000D01*
X91664134Y-93748806D01*
G37*
G36*
X93364134Y-93748806D02*
G01*
X93380355Y-93759645D01*
X93391194Y-93775866D01*
X93395000Y-93795000D01*
X93395000Y-95195000D01*
X93391194Y-95214134D01*
X93380355Y-95230355D01*
X93364134Y-95241194D01*
X93345000Y-95245000D01*
X92145000Y-95245000D01*
X92125866Y-95241194D01*
X92109645Y-95230355D01*
X92098806Y-95214134D01*
X92095000Y-95195000D01*
X92095000Y-93795000D01*
X92098806Y-93775866D01*
X92109645Y-93759645D01*
X92125866Y-93748806D01*
X92145000Y-93745000D01*
X93345000Y-93745000D01*
X93364134Y-93748806D01*
G37*
G36*
X104980304Y-93747919D02*
G01*
X105057283Y-93792363D01*
X105120137Y-93855217D01*
X105164581Y-93932196D01*
X105187587Y-94018056D01*
X105190500Y-94062500D01*
X105190500Y-94757500D01*
X105187587Y-94801944D01*
X105164581Y-94887804D01*
X105120137Y-94964783D01*
X105057283Y-95027637D01*
X104980304Y-95072081D01*
X104894444Y-95095087D01*
X104805556Y-95095087D01*
X104719696Y-95072081D01*
X104642717Y-95027637D01*
X104579863Y-94964783D01*
X104535419Y-94887804D01*
X104512413Y-94801944D01*
X104509500Y-94757500D01*
X104509500Y-94062500D01*
X104512413Y-94018056D01*
X104535419Y-93932196D01*
X104579863Y-93855217D01*
X104642717Y-93792363D01*
X104719696Y-93747919D01*
X104805556Y-93724913D01*
X104894444Y-93724913D01*
X104980304Y-93747919D01*
G37*
G36*
X106250304Y-93747919D02*
G01*
X106327283Y-93792363D01*
X106390137Y-93855217D01*
X106434581Y-93932196D01*
X106457587Y-94018056D01*
X106460500Y-94062500D01*
X106460500Y-94757500D01*
X106457587Y-94801944D01*
X106434581Y-94887804D01*
X106390137Y-94964783D01*
X106327283Y-95027637D01*
X106250304Y-95072081D01*
X106164444Y-95095087D01*
X106075556Y-95095087D01*
X105989696Y-95072081D01*
X105912717Y-95027637D01*
X105849863Y-94964783D01*
X105805419Y-94887804D01*
X105782413Y-94801944D01*
X105779500Y-94757500D01*
X105779500Y-94062500D01*
X105782413Y-94018056D01*
X105805419Y-93932196D01*
X105849863Y-93855217D01*
X105912717Y-93792363D01*
X105989696Y-93747919D01*
X106075556Y-93724913D01*
X106164444Y-93724913D01*
X106250304Y-93747919D01*
G37*
G36*
X107510304Y-93747919D02*
G01*
X107587283Y-93792363D01*
X107650137Y-93855217D01*
X107694581Y-93932196D01*
X107717587Y-94018056D01*
X107720500Y-94062500D01*
X107720500Y-94757500D01*
X107717587Y-94801944D01*
X107694581Y-94887804D01*
X107650137Y-94964783D01*
X107587283Y-95027637D01*
X107510304Y-95072081D01*
X107424444Y-95095087D01*
X107335556Y-95095087D01*
X107249696Y-95072081D01*
X107172717Y-95027637D01*
X107109863Y-94964783D01*
X107065419Y-94887804D01*
X107042413Y-94801944D01*
X107039500Y-94757500D01*
X107039500Y-94062500D01*
X107042413Y-94018056D01*
X107065419Y-93932196D01*
X107109863Y-93855217D01*
X107172717Y-93792363D01*
X107249696Y-93747919D01*
X107335556Y-93724913D01*
X107424444Y-93724913D01*
X107510304Y-93747919D01*
G37*
G36*
X108780304Y-93747919D02*
G01*
X108857283Y-93792363D01*
X108920137Y-93855217D01*
X108964581Y-93932196D01*
X108987587Y-94018056D01*
X108990500Y-94062500D01*
X108990500Y-94757500D01*
X108987587Y-94801944D01*
X108964581Y-94887804D01*
X108920137Y-94964783D01*
X108857283Y-95027637D01*
X108780304Y-95072081D01*
X108694444Y-95095087D01*
X108605556Y-95095087D01*
X108519696Y-95072081D01*
X108442717Y-95027637D01*
X108379863Y-94964783D01*
X108335419Y-94887804D01*
X108312413Y-94801944D01*
X108309500Y-94757500D01*
X108309500Y-94062500D01*
X108312413Y-94018056D01*
X108335419Y-93932196D01*
X108379863Y-93855217D01*
X108442717Y-93792363D01*
X108519696Y-93747919D01*
X108605556Y-93724913D01*
X108694444Y-93724913D01*
X108780304Y-93747919D01*
G37*
G36*
X94893059Y-93191829D02*
G01*
X94954171Y-93252941D01*
X94987244Y-93332787D01*
X94991500Y-93376000D01*
X94991500Y-94764000D01*
X94987244Y-94807213D01*
X94954171Y-94887059D01*
X94893059Y-94948171D01*
X94813213Y-94981244D01*
X94726787Y-94981244D01*
X94646941Y-94948171D01*
X94585829Y-94887059D01*
X94552756Y-94807213D01*
X94548500Y-94764000D01*
X94548500Y-93376000D01*
X94552756Y-93332787D01*
X94585829Y-93252941D01*
X94646941Y-93191829D01*
X94726787Y-93158756D01*
X94813213Y-93158756D01*
X94893059Y-93191829D01*
G37*
G36*
X95543059Y-93191829D02*
G01*
X95604171Y-93252941D01*
X95637244Y-93332787D01*
X95641500Y-93376000D01*
X95641500Y-94764000D01*
X95637244Y-94807213D01*
X95604171Y-94887059D01*
X95543059Y-94948171D01*
X95463213Y-94981244D01*
X95376787Y-94981244D01*
X95296941Y-94948171D01*
X95235829Y-94887059D01*
X95202756Y-94807213D01*
X95198500Y-94764000D01*
X95198500Y-93376000D01*
X95202756Y-93332787D01*
X95235829Y-93252941D01*
X95296941Y-93191829D01*
X95376787Y-93158756D01*
X95463213Y-93158756D01*
X95543059Y-93191829D01*
G37*
G36*
X96193059Y-93191829D02*
G01*
X96254171Y-93252941D01*
X96287244Y-93332787D01*
X96291500Y-93376000D01*
X96291500Y-94764000D01*
X96287244Y-94807213D01*
X96254171Y-94887059D01*
X96193059Y-94948171D01*
X96113213Y-94981244D01*
X96026787Y-94981244D01*
X95946941Y-94948171D01*
X95885829Y-94887059D01*
X95852756Y-94807213D01*
X95848500Y-94764000D01*
X95848500Y-93376000D01*
X95852756Y-93332787D01*
X95885829Y-93252941D01*
X95946941Y-93191829D01*
X96026787Y-93158756D01*
X96113213Y-93158756D01*
X96193059Y-93191829D01*
G37*
G36*
X96843059Y-93191829D02*
G01*
X96904171Y-93252941D01*
X96937244Y-93332787D01*
X96941500Y-93376000D01*
X96941500Y-94764000D01*
X96937244Y-94807213D01*
X96904171Y-94887059D01*
X96843059Y-94948171D01*
X96763213Y-94981244D01*
X96676787Y-94981244D01*
X96596941Y-94948171D01*
X96535829Y-94887059D01*
X96502756Y-94807213D01*
X96498500Y-94764000D01*
X96498500Y-93376000D01*
X96502756Y-93332787D01*
X96535829Y-93252941D01*
X96596941Y-93191829D01*
X96676787Y-93158756D01*
X96763213Y-93158756D01*
X96843059Y-93191829D01*
G37*
G36*
X97493059Y-93191829D02*
G01*
X97554171Y-93252941D01*
X97587244Y-93332787D01*
X97591500Y-93376000D01*
X97591500Y-94764000D01*
X97587244Y-94807213D01*
X97554171Y-94887059D01*
X97493059Y-94948171D01*
X97413213Y-94981244D01*
X97326787Y-94981244D01*
X97246941Y-94948171D01*
X97185829Y-94887059D01*
X97152756Y-94807213D01*
X97148500Y-94764000D01*
X97148500Y-93376000D01*
X97152756Y-93332787D01*
X97185829Y-93252941D01*
X97246941Y-93191829D01*
X97326787Y-93158756D01*
X97413213Y-93158756D01*
X97493059Y-93191829D01*
G37*
G36*
X98143059Y-93191829D02*
G01*
X98204171Y-93252941D01*
X98237244Y-93332787D01*
X98241500Y-93376000D01*
X98241500Y-94764000D01*
X98237244Y-94807213D01*
X98204171Y-94887059D01*
X98143059Y-94948171D01*
X98063213Y-94981244D01*
X97976787Y-94981244D01*
X97896941Y-94948171D01*
X97835829Y-94887059D01*
X97802756Y-94807213D01*
X97798500Y-94764000D01*
X97798500Y-93376000D01*
X97802756Y-93332787D01*
X97835829Y-93252941D01*
X97896941Y-93191829D01*
X97976787Y-93158756D01*
X98063213Y-93158756D01*
X98143059Y-93191829D01*
G37*
G36*
X98803059Y-93191829D02*
G01*
X98864171Y-93252941D01*
X98897244Y-93332787D01*
X98901500Y-93376000D01*
X98901500Y-94764000D01*
X98897244Y-94807213D01*
X98864171Y-94887059D01*
X98803059Y-94948171D01*
X98723213Y-94981244D01*
X98636787Y-94981244D01*
X98556941Y-94948171D01*
X98495829Y-94887059D01*
X98462756Y-94807213D01*
X98458500Y-94764000D01*
X98458500Y-93376000D01*
X98462756Y-93332787D01*
X98495829Y-93252941D01*
X98556941Y-93191829D01*
X98636787Y-93158756D01*
X98723213Y-93158756D01*
X98803059Y-93191829D01*
G37*
G36*
X99453059Y-93191829D02*
G01*
X99514171Y-93252941D01*
X99547244Y-93332787D01*
X99551500Y-93376000D01*
X99551500Y-94764000D01*
X99547244Y-94807213D01*
X99514171Y-94887059D01*
X99453059Y-94948171D01*
X99373213Y-94981244D01*
X99286787Y-94981244D01*
X99206941Y-94948171D01*
X99145829Y-94887059D01*
X99112756Y-94807213D01*
X99108500Y-94764000D01*
X99108500Y-93376000D01*
X99112756Y-93332787D01*
X99145829Y-93252941D01*
X99206941Y-93191829D01*
X99286787Y-93158756D01*
X99373213Y-93158756D01*
X99453059Y-93191829D01*
G37*
G36*
X100103059Y-93191829D02*
G01*
X100164171Y-93252941D01*
X100197244Y-93332787D01*
X100201500Y-93376000D01*
X100201500Y-94764000D01*
X100197244Y-94807213D01*
X100164171Y-94887059D01*
X100103059Y-94948171D01*
X100023213Y-94981244D01*
X99936787Y-94981244D01*
X99856941Y-94948171D01*
X99795829Y-94887059D01*
X99762756Y-94807213D01*
X99758500Y-94764000D01*
X99758500Y-93376000D01*
X99762756Y-93332787D01*
X99795829Y-93252941D01*
X99856941Y-93191829D01*
X99936787Y-93158756D01*
X100023213Y-93158756D01*
X100103059Y-93191829D01*
G37*
G36*
X100753059Y-93191829D02*
G01*
X100814171Y-93252941D01*
X100847244Y-93332787D01*
X100851500Y-93376000D01*
X100851500Y-94764000D01*
X100847244Y-94807213D01*
X100814171Y-94887059D01*
X100753059Y-94948171D01*
X100673213Y-94981244D01*
X100586787Y-94981244D01*
X100506941Y-94948171D01*
X100445829Y-94887059D01*
X100412756Y-94807213D01*
X100408500Y-94764000D01*
X100408500Y-93376000D01*
X100412756Y-93332787D01*
X100445829Y-93252941D01*
X100506941Y-93191829D01*
X100586787Y-93158756D01*
X100673213Y-93158756D01*
X100753059Y-93191829D01*
G37*
G36*
X101403059Y-93191829D02*
G01*
X101464171Y-93252941D01*
X101497244Y-93332787D01*
X101501500Y-93376000D01*
X101501500Y-94764000D01*
X101497244Y-94807213D01*
X101464171Y-94887059D01*
X101403059Y-94948171D01*
X101323213Y-94981244D01*
X101236787Y-94981244D01*
X101156941Y-94948171D01*
X101095829Y-94887059D01*
X101062756Y-94807213D01*
X101058500Y-94764000D01*
X101058500Y-93376000D01*
X101062756Y-93332787D01*
X101095829Y-93252941D01*
X101156941Y-93191829D01*
X101236787Y-93158756D01*
X101323213Y-93158756D01*
X101403059Y-93191829D01*
G37*
G36*
X102053059Y-93191829D02*
G01*
X102114171Y-93252941D01*
X102147244Y-93332787D01*
X102151500Y-93376000D01*
X102151500Y-94764000D01*
X102147244Y-94807213D01*
X102114171Y-94887059D01*
X102053059Y-94948171D01*
X101973213Y-94981244D01*
X101886787Y-94981244D01*
X101806941Y-94948171D01*
X101745829Y-94887059D01*
X101712756Y-94807213D01*
X101708500Y-94764000D01*
X101708500Y-93376000D01*
X101712756Y-93332787D01*
X101745829Y-93252941D01*
X101806941Y-93191829D01*
X101886787Y-93158756D01*
X101973213Y-93158756D01*
X102053059Y-93191829D01*
G37*
G36*
X102703059Y-93191829D02*
G01*
X102764171Y-93252941D01*
X102797244Y-93332787D01*
X102801500Y-93376000D01*
X102801500Y-94764000D01*
X102797244Y-94807213D01*
X102764171Y-94887059D01*
X102703059Y-94948171D01*
X102623213Y-94981244D01*
X102536787Y-94981244D01*
X102456941Y-94948171D01*
X102395829Y-94887059D01*
X102362756Y-94807213D01*
X102358500Y-94764000D01*
X102358500Y-93376000D01*
X102362756Y-93332787D01*
X102395829Y-93252941D01*
X102456941Y-93191829D01*
X102536787Y-93158756D01*
X102623213Y-93158756D01*
X102703059Y-93191829D01*
G37*
G36*
X103353059Y-93191829D02*
G01*
X103414171Y-93252941D01*
X103447244Y-93332787D01*
X103451500Y-93376000D01*
X103451500Y-94764000D01*
X103447244Y-94807213D01*
X103414171Y-94887059D01*
X103353059Y-94948171D01*
X103273213Y-94981244D01*
X103186787Y-94981244D01*
X103106941Y-94948171D01*
X103045829Y-94887059D01*
X103012756Y-94807213D01*
X103008500Y-94764000D01*
X103008500Y-93376000D01*
X103012756Y-93332787D01*
X103045829Y-93252941D01*
X103106941Y-93191829D01*
X103186787Y-93158756D01*
X103273213Y-93158756D01*
X103353059Y-93191829D01*
G37*
G36*
X83786411Y-93601275D02*
G01*
X83848664Y-93609471D01*
X83864324Y-93616773D01*
X83883325Y-93620553D01*
X83908491Y-93637368D01*
X83934422Y-93649460D01*
X83950197Y-93665235D01*
X83970919Y-93679081D01*
X83984764Y-93699802D01*
X84000539Y-93715577D01*
X84012629Y-93741505D01*
X84029447Y-93766675D01*
X84033226Y-93785677D01*
X84040528Y-93801335D01*
X84048722Y-93863575D01*
X84050000Y-93870000D01*
X84050000Y-94530000D01*
X84048721Y-94536426D01*
X84040528Y-94598664D01*
X84033227Y-94614320D01*
X84029447Y-94633325D01*
X84012628Y-94658496D01*
X84000539Y-94684422D01*
X83984766Y-94700194D01*
X83970919Y-94720919D01*
X83950194Y-94734766D01*
X83934422Y-94750539D01*
X83908496Y-94762628D01*
X83883325Y-94779447D01*
X83864320Y-94783227D01*
X83848664Y-94790528D01*
X83786426Y-94798721D01*
X83780000Y-94800000D01*
X82620000Y-94800000D01*
X82613575Y-94798722D01*
X82551335Y-94790528D01*
X82535677Y-94783226D01*
X82516675Y-94779447D01*
X82491505Y-94762629D01*
X82465577Y-94750539D01*
X82449802Y-94734764D01*
X82429081Y-94720919D01*
X82415235Y-94700197D01*
X82399460Y-94684422D01*
X82387368Y-94658491D01*
X82370553Y-94633325D01*
X82366773Y-94614324D01*
X82359471Y-94598664D01*
X82351275Y-94536411D01*
X82350000Y-94530000D01*
X82350000Y-93870000D01*
X82351275Y-93863590D01*
X82359471Y-93801335D01*
X82366773Y-93785673D01*
X82370553Y-93766675D01*
X82387367Y-93741510D01*
X82399460Y-93715577D01*
X82415237Y-93699799D01*
X82429081Y-93679081D01*
X82449799Y-93665237D01*
X82465577Y-93649460D01*
X82491510Y-93637367D01*
X82516675Y-93620553D01*
X82535673Y-93616773D01*
X82551335Y-93609471D01*
X82613590Y-93601275D01*
X82620000Y-93600000D01*
X83780000Y-93600000D01*
X83786411Y-93601275D01*
G37*
G36*
X89897710Y-94069463D02*
G01*
X89959350Y-94110650D01*
X90000537Y-94172290D01*
X90015000Y-94245000D01*
X90015000Y-94525000D01*
X90000537Y-94597710D01*
X89959350Y-94659350D01*
X89897710Y-94700537D01*
X89825000Y-94715000D01*
X89485000Y-94715000D01*
X89412290Y-94700537D01*
X89350650Y-94659350D01*
X89309463Y-94597710D01*
X89295000Y-94525000D01*
X89295000Y-94245000D01*
X89309463Y-94172290D01*
X89350650Y-94110650D01*
X89412290Y-94069463D01*
X89485000Y-94055000D01*
X89825000Y-94055000D01*
X89897710Y-94069463D01*
G37*
G36*
X114934134Y-93653806D02*
G01*
X114950355Y-93664645D01*
X114961194Y-93680866D01*
X114965000Y-93700000D01*
X114965000Y-94300000D01*
X114961194Y-94319134D01*
X114950355Y-94335355D01*
X114934134Y-94346194D01*
X114915000Y-94350000D01*
X113365000Y-94350000D01*
X113345866Y-94346194D01*
X113329645Y-94335355D01*
X113318806Y-94319134D01*
X113315000Y-94300000D01*
X113315000Y-93700000D01*
X113318806Y-93680866D01*
X113329645Y-93664645D01*
X113345866Y-93653806D01*
X113365000Y-93650000D01*
X114915000Y-93650000D01*
X114934134Y-93653806D01*
G37*
G36*
X89897710Y-93109463D02*
G01*
X89959350Y-93150650D01*
X90000537Y-93212290D01*
X90015000Y-93285000D01*
X90015000Y-93565000D01*
X90000537Y-93637710D01*
X89959350Y-93699350D01*
X89897710Y-93740537D01*
X89825000Y-93755000D01*
X89485000Y-93755000D01*
X89412290Y-93740537D01*
X89350650Y-93699350D01*
X89309463Y-93637710D01*
X89295000Y-93565000D01*
X89295000Y-93285000D01*
X89309463Y-93212290D01*
X89350650Y-93150650D01*
X89412290Y-93109463D01*
X89485000Y-93095000D01*
X89825000Y-93095000D01*
X89897710Y-93109463D01*
G37*
G36*
X114934134Y-92653806D02*
G01*
X114950355Y-92664645D01*
X114961194Y-92680866D01*
X114965000Y-92700000D01*
X114965000Y-93300000D01*
X114961194Y-93319134D01*
X114950355Y-93335355D01*
X114934134Y-93346194D01*
X114915000Y-93350000D01*
X113365000Y-93350000D01*
X113345866Y-93346194D01*
X113329645Y-93335355D01*
X113318806Y-93319134D01*
X113315000Y-93300000D01*
X113315000Y-92700000D01*
X113318806Y-92680866D01*
X113329645Y-92664645D01*
X113345866Y-92653806D01*
X113365000Y-92650000D01*
X114915000Y-92650000D01*
X114934134Y-92653806D01*
G37*
G36*
X83786411Y-92101275D02*
G01*
X83848664Y-92109471D01*
X83864324Y-92116773D01*
X83883325Y-92120553D01*
X83908491Y-92137368D01*
X83934422Y-92149460D01*
X83950197Y-92165235D01*
X83970919Y-92179081D01*
X83984764Y-92199802D01*
X84000539Y-92215577D01*
X84012629Y-92241505D01*
X84029447Y-92266675D01*
X84033226Y-92285677D01*
X84040528Y-92301335D01*
X84048722Y-92363575D01*
X84050000Y-92370000D01*
X84050000Y-93030000D01*
X84048721Y-93036426D01*
X84040528Y-93098664D01*
X84033227Y-93114320D01*
X84029447Y-93133325D01*
X84012628Y-93158496D01*
X84000539Y-93184422D01*
X83984766Y-93200194D01*
X83970919Y-93220919D01*
X83950194Y-93234766D01*
X83934422Y-93250539D01*
X83908496Y-93262628D01*
X83883325Y-93279447D01*
X83864320Y-93283227D01*
X83848664Y-93290528D01*
X83786426Y-93298721D01*
X83780000Y-93300000D01*
X82620000Y-93300000D01*
X82613575Y-93298722D01*
X82551335Y-93290528D01*
X82535677Y-93283226D01*
X82516675Y-93279447D01*
X82491505Y-93262629D01*
X82465577Y-93250539D01*
X82449802Y-93234764D01*
X82429081Y-93220919D01*
X82415235Y-93200197D01*
X82399460Y-93184422D01*
X82387368Y-93158491D01*
X82370553Y-93133325D01*
X82366773Y-93114324D01*
X82359471Y-93098664D01*
X82351275Y-93036411D01*
X82350000Y-93030000D01*
X82350000Y-92370000D01*
X82351275Y-92363590D01*
X82359471Y-92301335D01*
X82366773Y-92285673D01*
X82370553Y-92266675D01*
X82387367Y-92241510D01*
X82399460Y-92215577D01*
X82415237Y-92199799D01*
X82429081Y-92179081D01*
X82449799Y-92165237D01*
X82465577Y-92149460D01*
X82491510Y-92137367D01*
X82516675Y-92120553D01*
X82535673Y-92116773D01*
X82551335Y-92109471D01*
X82613590Y-92101275D01*
X82620000Y-92100000D01*
X83780000Y-92100000D01*
X83786411Y-92101275D01*
G37*
G36*
X108919134Y-89653806D02*
G01*
X108935355Y-89664645D01*
X108946194Y-89680866D01*
X108950000Y-89700000D01*
X108950000Y-93100000D01*
X108946194Y-93119134D01*
X108935355Y-93135355D01*
X108919134Y-93146194D01*
X108900000Y-93150000D01*
X104600000Y-93150000D01*
X104580866Y-93146194D01*
X104564645Y-93135355D01*
X104553806Y-93119134D01*
X104550000Y-93100000D01*
X104550000Y-89700000D01*
X104553806Y-89680866D01*
X104564645Y-89664645D01*
X104580866Y-89653806D01*
X104600000Y-89650000D01*
X108900000Y-89650000D01*
X108919134Y-89653806D01*
G37*
G36*
X91664134Y-91548806D02*
G01*
X91680355Y-91559645D01*
X91691194Y-91575866D01*
X91695000Y-91595000D01*
X91695000Y-92995000D01*
X91691194Y-93014134D01*
X91680355Y-93030355D01*
X91664134Y-93041194D01*
X91645000Y-93045000D01*
X90445000Y-93045000D01*
X90425866Y-93041194D01*
X90409645Y-93030355D01*
X90398806Y-93014134D01*
X90395000Y-92995000D01*
X90395000Y-91595000D01*
X90398806Y-91575866D01*
X90409645Y-91559645D01*
X90425866Y-91548806D01*
X90445000Y-91545000D01*
X91645000Y-91545000D01*
X91664134Y-91548806D01*
G37*
G36*
X93364134Y-91548806D02*
G01*
X93380355Y-91559645D01*
X93391194Y-91575866D01*
X93395000Y-91595000D01*
X93395000Y-92995000D01*
X93391194Y-93014134D01*
X93380355Y-93030355D01*
X93364134Y-93041194D01*
X93345000Y-93045000D01*
X92145000Y-93045000D01*
X92125866Y-93041194D01*
X92109645Y-93030355D01*
X92098806Y-93014134D01*
X92095000Y-92995000D01*
X92095000Y-91595000D01*
X92098806Y-91575866D01*
X92109645Y-91559645D01*
X92125866Y-91548806D01*
X92145000Y-91545000D01*
X93345000Y-91545000D01*
X93364134Y-91548806D01*
G37*
G36*
X112645000Y-92995000D02*
G01*
X112639617Y-92995000D01*
X112595000Y-92995000D01*
X111395000Y-92995000D01*
X111350383Y-92995000D01*
X111345000Y-92995000D01*
X111345000Y-90995000D01*
X112645000Y-90995000D01*
X112645000Y-92995000D01*
G37*
G36*
X102369134Y-89703806D02*
G01*
X102385355Y-89714645D01*
X102396194Y-89730866D01*
X102400000Y-89750000D01*
X102400000Y-92650000D01*
X102396194Y-92669134D01*
X102385355Y-92685355D01*
X102369134Y-92696194D01*
X102350000Y-92700000D01*
X95650000Y-92700000D01*
X95630866Y-92696194D01*
X95614645Y-92685355D01*
X95603806Y-92669134D01*
X95600000Y-92650000D01*
X95600000Y-89750000D01*
X95603806Y-89730866D01*
X95614645Y-89714645D01*
X95630866Y-89703806D01*
X95650000Y-89700000D01*
X102350000Y-89700000D01*
X102369134Y-89703806D01*
G37*
G36*
X117579134Y-91053806D02*
G01*
X117595355Y-91064645D01*
X117606194Y-91080866D01*
X117610000Y-91100000D01*
X117610000Y-92300000D01*
X117606194Y-92319134D01*
X117595355Y-92335355D01*
X117579134Y-92346194D01*
X117560000Y-92350000D01*
X115760000Y-92350000D01*
X115740866Y-92346194D01*
X115724645Y-92335355D01*
X115713806Y-92319134D01*
X115710000Y-92300000D01*
X115710000Y-91100000D01*
X115713806Y-91080866D01*
X115724645Y-91064645D01*
X115740866Y-91053806D01*
X115760000Y-91050000D01*
X117560000Y-91050000D01*
X117579134Y-91053806D01*
G37*
G36*
X83786411Y-90601275D02*
G01*
X83848664Y-90609471D01*
X83864324Y-90616773D01*
X83883325Y-90620553D01*
X83908491Y-90637368D01*
X83934422Y-90649460D01*
X83950197Y-90665235D01*
X83970919Y-90679081D01*
X83984764Y-90699802D01*
X84000539Y-90715577D01*
X84012629Y-90741505D01*
X84029447Y-90766675D01*
X84033226Y-90785677D01*
X84040528Y-90801335D01*
X84048722Y-90863575D01*
X84050000Y-90870000D01*
X84050000Y-91530000D01*
X84048721Y-91536426D01*
X84040528Y-91598664D01*
X84033227Y-91614320D01*
X84029447Y-91633325D01*
X84012628Y-91658496D01*
X84000539Y-91684422D01*
X83984766Y-91700194D01*
X83970919Y-91720919D01*
X83950194Y-91734766D01*
X83934422Y-91750539D01*
X83908496Y-91762628D01*
X83883325Y-91779447D01*
X83864320Y-91783227D01*
X83848664Y-91790528D01*
X83786426Y-91798721D01*
X83780000Y-91800000D01*
X82620000Y-91800000D01*
X82613575Y-91798722D01*
X82551335Y-91790528D01*
X82535677Y-91783226D01*
X82516675Y-91779447D01*
X82491505Y-91762629D01*
X82465577Y-91750539D01*
X82449802Y-91734764D01*
X82429081Y-91720919D01*
X82415235Y-91700197D01*
X82399460Y-91684422D01*
X82387368Y-91658491D01*
X82370553Y-91633325D01*
X82366773Y-91614324D01*
X82359471Y-91598664D01*
X82351275Y-91536411D01*
X82350000Y-91530000D01*
X82350000Y-90870000D01*
X82351275Y-90863590D01*
X82359471Y-90801335D01*
X82366773Y-90785673D01*
X82370553Y-90766675D01*
X82387367Y-90741510D01*
X82399460Y-90715577D01*
X82415237Y-90699799D01*
X82429081Y-90679081D01*
X82449799Y-90665237D01*
X82465577Y-90649460D01*
X82491510Y-90637367D01*
X82516675Y-90620553D01*
X82535673Y-90616773D01*
X82551335Y-90609471D01*
X82613590Y-90601275D01*
X82620000Y-90600000D01*
X83780000Y-90600000D01*
X83786411Y-90601275D01*
G37*
G36*
X93463080Y-90530034D02*
G01*
X93527154Y-90572846D01*
X93569966Y-90636920D01*
X93585000Y-90712500D01*
X93585000Y-91007500D01*
X93569966Y-91083080D01*
X93527154Y-91147154D01*
X93463080Y-91189966D01*
X93387500Y-91205000D01*
X93042500Y-91205000D01*
X92966920Y-91189966D01*
X92902846Y-91147154D01*
X92860034Y-91083080D01*
X92845000Y-91007500D01*
X92845000Y-90712500D01*
X92860034Y-90636920D01*
X92902846Y-90572846D01*
X92966920Y-90530034D01*
X93042500Y-90515000D01*
X93387500Y-90515000D01*
X93463080Y-90530034D01*
G37*
G36*
X83786411Y-89101275D02*
G01*
X83848664Y-89109471D01*
X83864324Y-89116773D01*
X83883325Y-89120553D01*
X83908491Y-89137368D01*
X83934422Y-89149460D01*
X83950197Y-89165235D01*
X83970919Y-89179081D01*
X83984764Y-89199802D01*
X84000539Y-89215577D01*
X84012629Y-89241505D01*
X84029447Y-89266675D01*
X84033226Y-89285677D01*
X84040528Y-89301335D01*
X84048722Y-89363575D01*
X84050000Y-89370000D01*
X84050000Y-90030000D01*
X84048721Y-90036426D01*
X84040528Y-90098664D01*
X84033227Y-90114320D01*
X84029447Y-90133325D01*
X84012628Y-90158496D01*
X84000539Y-90184422D01*
X83984766Y-90200194D01*
X83970919Y-90220919D01*
X83950194Y-90234766D01*
X83934422Y-90250539D01*
X83908496Y-90262628D01*
X83883325Y-90279447D01*
X83864320Y-90283227D01*
X83848664Y-90290528D01*
X83786426Y-90298721D01*
X83780000Y-90300000D01*
X82620000Y-90300000D01*
X82613575Y-90298722D01*
X82551335Y-90290528D01*
X82535677Y-90283226D01*
X82516675Y-90279447D01*
X82491505Y-90262629D01*
X82465577Y-90250539D01*
X82449802Y-90234764D01*
X82429081Y-90220919D01*
X82415235Y-90200197D01*
X82399460Y-90184422D01*
X82387368Y-90158491D01*
X82370553Y-90133325D01*
X82366773Y-90114324D01*
X82359471Y-90098664D01*
X82351275Y-90036411D01*
X82350000Y-90030000D01*
X82350000Y-89370000D01*
X82351275Y-89363590D01*
X82359471Y-89301335D01*
X82366773Y-89285673D01*
X82370553Y-89266675D01*
X82387367Y-89241510D01*
X82399460Y-89215577D01*
X82415237Y-89199799D01*
X82429081Y-89179081D01*
X82449799Y-89165237D01*
X82465577Y-89149460D01*
X82491510Y-89137367D01*
X82516675Y-89120553D01*
X82535673Y-89116773D01*
X82551335Y-89109471D01*
X82613590Y-89101275D01*
X82620000Y-89100000D01*
X83780000Y-89100000D01*
X83786411Y-89101275D01*
G37*
G36*
X92031409Y-89251275D02*
G01*
X92094958Y-89259641D01*
X92110943Y-89267095D01*
X92130238Y-89270933D01*
X92155792Y-89288008D01*
X92182290Y-89300364D01*
X92198412Y-89316486D01*
X92219454Y-89330546D01*
X92233513Y-89351587D01*
X92249635Y-89367709D01*
X92261990Y-89394204D01*
X92279067Y-89419762D01*
X92282905Y-89439058D01*
X92290358Y-89455041D01*
X92298722Y-89518577D01*
X92300000Y-89525000D01*
X92300000Y-89975000D01*
X92298722Y-89981424D01*
X92290358Y-90044958D01*
X92282905Y-90060939D01*
X92279067Y-90080238D01*
X92261988Y-90105797D01*
X92249635Y-90132290D01*
X92233516Y-90148408D01*
X92219454Y-90169454D01*
X92198408Y-90183516D01*
X92182290Y-90199635D01*
X92155797Y-90211988D01*
X92130238Y-90229067D01*
X92110939Y-90232905D01*
X92094958Y-90240358D01*
X92031424Y-90248722D01*
X92025000Y-90250000D01*
X91525000Y-90250000D01*
X91518577Y-90248722D01*
X91455041Y-90240358D01*
X91439058Y-90232905D01*
X91419762Y-90229067D01*
X91394204Y-90211990D01*
X91367709Y-90199635D01*
X91351587Y-90183513D01*
X91330546Y-90169454D01*
X91316486Y-90148412D01*
X91300364Y-90132290D01*
X91288008Y-90105792D01*
X91270933Y-90080238D01*
X91267095Y-90060943D01*
X91259641Y-90044958D01*
X91251275Y-89981409D01*
X91250000Y-89975000D01*
X91250000Y-89525000D01*
X91251274Y-89518592D01*
X91259641Y-89455041D01*
X91267095Y-89439054D01*
X91270933Y-89419762D01*
X91288006Y-89394209D01*
X91300364Y-89367709D01*
X91316488Y-89351584D01*
X91330546Y-89330546D01*
X91351584Y-89316488D01*
X91367709Y-89300364D01*
X91394209Y-89288006D01*
X91419762Y-89270933D01*
X91439054Y-89267095D01*
X91455041Y-89259641D01*
X91518592Y-89251274D01*
X91525000Y-89250000D01*
X92025000Y-89250000D01*
X92031409Y-89251275D01*
G37*
G36*
X93463080Y-89560034D02*
G01*
X93527154Y-89602846D01*
X93569966Y-89666920D01*
X93585000Y-89742500D01*
X93585000Y-90037500D01*
X93569966Y-90113080D01*
X93527154Y-90177154D01*
X93463080Y-90219966D01*
X93387500Y-90235000D01*
X93042500Y-90235000D01*
X92966920Y-90219966D01*
X92902846Y-90177154D01*
X92860034Y-90113080D01*
X92845000Y-90037500D01*
X92845000Y-89742500D01*
X92860034Y-89666920D01*
X92902846Y-89602846D01*
X92966920Y-89560034D01*
X93042500Y-89545000D01*
X93387500Y-89545000D01*
X93463080Y-89560034D01*
G37*
G36*
X94893059Y-87451829D02*
G01*
X94954171Y-87512941D01*
X94987244Y-87592787D01*
X94991500Y-87636000D01*
X94991500Y-89024000D01*
X94987244Y-89067213D01*
X94954171Y-89147059D01*
X94893059Y-89208171D01*
X94813213Y-89241244D01*
X94726787Y-89241244D01*
X94646941Y-89208171D01*
X94585829Y-89147059D01*
X94552756Y-89067213D01*
X94548500Y-89024000D01*
X94548500Y-87636000D01*
X94552756Y-87592787D01*
X94585829Y-87512941D01*
X94646941Y-87451829D01*
X94726787Y-87418756D01*
X94813213Y-87418756D01*
X94893059Y-87451829D01*
G37*
G36*
X95543059Y-87451829D02*
G01*
X95604171Y-87512941D01*
X95637244Y-87592787D01*
X95641500Y-87636000D01*
X95641500Y-89024000D01*
X95637244Y-89067213D01*
X95604171Y-89147059D01*
X95543059Y-89208171D01*
X95463213Y-89241244D01*
X95376787Y-89241244D01*
X95296941Y-89208171D01*
X95235829Y-89147059D01*
X95202756Y-89067213D01*
X95198500Y-89024000D01*
X95198500Y-87636000D01*
X95202756Y-87592787D01*
X95235829Y-87512941D01*
X95296941Y-87451829D01*
X95376787Y-87418756D01*
X95463213Y-87418756D01*
X95543059Y-87451829D01*
G37*
G36*
X96193059Y-87451829D02*
G01*
X96254171Y-87512941D01*
X96287244Y-87592787D01*
X96291500Y-87636000D01*
X96291500Y-89024000D01*
X96287244Y-89067213D01*
X96254171Y-89147059D01*
X96193059Y-89208171D01*
X96113213Y-89241244D01*
X96026787Y-89241244D01*
X95946941Y-89208171D01*
X95885829Y-89147059D01*
X95852756Y-89067213D01*
X95848500Y-89024000D01*
X95848500Y-87636000D01*
X95852756Y-87592787D01*
X95885829Y-87512941D01*
X95946941Y-87451829D01*
X96026787Y-87418756D01*
X96113213Y-87418756D01*
X96193059Y-87451829D01*
G37*
G36*
X96843059Y-87451829D02*
G01*
X96904171Y-87512941D01*
X96937244Y-87592787D01*
X96941500Y-87636000D01*
X96941500Y-89024000D01*
X96937244Y-89067213D01*
X96904171Y-89147059D01*
X96843059Y-89208171D01*
X96763213Y-89241244D01*
X96676787Y-89241244D01*
X96596941Y-89208171D01*
X96535829Y-89147059D01*
X96502756Y-89067213D01*
X96498500Y-89024000D01*
X96498500Y-87636000D01*
X96502756Y-87592787D01*
X96535829Y-87512941D01*
X96596941Y-87451829D01*
X96676787Y-87418756D01*
X96763213Y-87418756D01*
X96843059Y-87451829D01*
G37*
G36*
X97493059Y-87451829D02*
G01*
X97554171Y-87512941D01*
X97587244Y-87592787D01*
X97591500Y-87636000D01*
X97591500Y-89024000D01*
X97587244Y-89067213D01*
X97554171Y-89147059D01*
X97493059Y-89208171D01*
X97413213Y-89241244D01*
X97326787Y-89241244D01*
X97246941Y-89208171D01*
X97185829Y-89147059D01*
X97152756Y-89067213D01*
X97148500Y-89024000D01*
X97148500Y-87636000D01*
X97152756Y-87592787D01*
X97185829Y-87512941D01*
X97246941Y-87451829D01*
X97326787Y-87418756D01*
X97413213Y-87418756D01*
X97493059Y-87451829D01*
G37*
G36*
X98143059Y-87451829D02*
G01*
X98204171Y-87512941D01*
X98237244Y-87592787D01*
X98241500Y-87636000D01*
X98241500Y-89024000D01*
X98237244Y-89067213D01*
X98204171Y-89147059D01*
X98143059Y-89208171D01*
X98063213Y-89241244D01*
X97976787Y-89241244D01*
X97896941Y-89208171D01*
X97835829Y-89147059D01*
X97802756Y-89067213D01*
X97798500Y-89024000D01*
X97798500Y-87636000D01*
X97802756Y-87592787D01*
X97835829Y-87512941D01*
X97896941Y-87451829D01*
X97976787Y-87418756D01*
X98063213Y-87418756D01*
X98143059Y-87451829D01*
G37*
G36*
X98803059Y-87451829D02*
G01*
X98864171Y-87512941D01*
X98897244Y-87592787D01*
X98901500Y-87636000D01*
X98901500Y-89024000D01*
X98897244Y-89067213D01*
X98864171Y-89147059D01*
X98803059Y-89208171D01*
X98723213Y-89241244D01*
X98636787Y-89241244D01*
X98556941Y-89208171D01*
X98495829Y-89147059D01*
X98462756Y-89067213D01*
X98458500Y-89024000D01*
X98458500Y-87636000D01*
X98462756Y-87592787D01*
X98495829Y-87512941D01*
X98556941Y-87451829D01*
X98636787Y-87418756D01*
X98723213Y-87418756D01*
X98803059Y-87451829D01*
G37*
G36*
X99453059Y-87451829D02*
G01*
X99514171Y-87512941D01*
X99547244Y-87592787D01*
X99551500Y-87636000D01*
X99551500Y-89024000D01*
X99547244Y-89067213D01*
X99514171Y-89147059D01*
X99453059Y-89208171D01*
X99373213Y-89241244D01*
X99286787Y-89241244D01*
X99206941Y-89208171D01*
X99145829Y-89147059D01*
X99112756Y-89067213D01*
X99108500Y-89024000D01*
X99108500Y-87636000D01*
X99112756Y-87592787D01*
X99145829Y-87512941D01*
X99206941Y-87451829D01*
X99286787Y-87418756D01*
X99373213Y-87418756D01*
X99453059Y-87451829D01*
G37*
G36*
X100103059Y-87451829D02*
G01*
X100164171Y-87512941D01*
X100197244Y-87592787D01*
X100201500Y-87636000D01*
X100201500Y-89024000D01*
X100197244Y-89067213D01*
X100164171Y-89147059D01*
X100103059Y-89208171D01*
X100023213Y-89241244D01*
X99936787Y-89241244D01*
X99856941Y-89208171D01*
X99795829Y-89147059D01*
X99762756Y-89067213D01*
X99758500Y-89024000D01*
X99758500Y-87636000D01*
X99762756Y-87592787D01*
X99795829Y-87512941D01*
X99856941Y-87451829D01*
X99936787Y-87418756D01*
X100023213Y-87418756D01*
X100103059Y-87451829D01*
G37*
G36*
X100753059Y-87451829D02*
G01*
X100814171Y-87512941D01*
X100847244Y-87592787D01*
X100851500Y-87636000D01*
X100851500Y-89024000D01*
X100847244Y-89067213D01*
X100814171Y-89147059D01*
X100753059Y-89208171D01*
X100673213Y-89241244D01*
X100586787Y-89241244D01*
X100506941Y-89208171D01*
X100445829Y-89147059D01*
X100412756Y-89067213D01*
X100408500Y-89024000D01*
X100408500Y-87636000D01*
X100412756Y-87592787D01*
X100445829Y-87512941D01*
X100506941Y-87451829D01*
X100586787Y-87418756D01*
X100673213Y-87418756D01*
X100753059Y-87451829D01*
G37*
G36*
X101403059Y-87451829D02*
G01*
X101464171Y-87512941D01*
X101497244Y-87592787D01*
X101501500Y-87636000D01*
X101501500Y-89024000D01*
X101497244Y-89067213D01*
X101464171Y-89147059D01*
X101403059Y-89208171D01*
X101323213Y-89241244D01*
X101236787Y-89241244D01*
X101156941Y-89208171D01*
X101095829Y-89147059D01*
X101062756Y-89067213D01*
X101058500Y-89024000D01*
X101058500Y-87636000D01*
X101062756Y-87592787D01*
X101095829Y-87512941D01*
X101156941Y-87451829D01*
X101236787Y-87418756D01*
X101323213Y-87418756D01*
X101403059Y-87451829D01*
G37*
G36*
X102053059Y-87451829D02*
G01*
X102114171Y-87512941D01*
X102147244Y-87592787D01*
X102151500Y-87636000D01*
X102151500Y-89024000D01*
X102147244Y-89067213D01*
X102114171Y-89147059D01*
X102053059Y-89208171D01*
X101973213Y-89241244D01*
X101886787Y-89241244D01*
X101806941Y-89208171D01*
X101745829Y-89147059D01*
X101712756Y-89067213D01*
X101708500Y-89024000D01*
X101708500Y-87636000D01*
X101712756Y-87592787D01*
X101745829Y-87512941D01*
X101806941Y-87451829D01*
X101886787Y-87418756D01*
X101973213Y-87418756D01*
X102053059Y-87451829D01*
G37*
G36*
X102703059Y-87451829D02*
G01*
X102764171Y-87512941D01*
X102797244Y-87592787D01*
X102801500Y-87636000D01*
X102801500Y-89024000D01*
X102797244Y-89067213D01*
X102764171Y-89147059D01*
X102703059Y-89208171D01*
X102623213Y-89241244D01*
X102536787Y-89241244D01*
X102456941Y-89208171D01*
X102395829Y-89147059D01*
X102362756Y-89067213D01*
X102358500Y-89024000D01*
X102358500Y-87636000D01*
X102362756Y-87592787D01*
X102395829Y-87512941D01*
X102456941Y-87451829D01*
X102536787Y-87418756D01*
X102623213Y-87418756D01*
X102703059Y-87451829D01*
G37*
G36*
X103353059Y-87451829D02*
G01*
X103414171Y-87512941D01*
X103447244Y-87592787D01*
X103451500Y-87636000D01*
X103451500Y-89024000D01*
X103447244Y-89067213D01*
X103414171Y-89147059D01*
X103353059Y-89208171D01*
X103273213Y-89241244D01*
X103186787Y-89241244D01*
X103106941Y-89208171D01*
X103045829Y-89147059D01*
X103012756Y-89067213D01*
X103008500Y-89024000D01*
X103008500Y-87636000D01*
X103012756Y-87592787D01*
X103045829Y-87512941D01*
X103106941Y-87451829D01*
X103186787Y-87418756D01*
X103273213Y-87418756D01*
X103353059Y-87451829D01*
G37*
G36*
X104980304Y-87727919D02*
G01*
X105057283Y-87772363D01*
X105120137Y-87835217D01*
X105164581Y-87912196D01*
X105187587Y-87998056D01*
X105190500Y-88042500D01*
X105190500Y-88737500D01*
X105187587Y-88781944D01*
X105164581Y-88867804D01*
X105120137Y-88944783D01*
X105057283Y-89007637D01*
X104980304Y-89052081D01*
X104894444Y-89075087D01*
X104805556Y-89075087D01*
X104719696Y-89052081D01*
X104642717Y-89007637D01*
X104579863Y-88944783D01*
X104535419Y-88867804D01*
X104512413Y-88781944D01*
X104509500Y-88737500D01*
X104509500Y-88042500D01*
X104512413Y-87998056D01*
X104535419Y-87912196D01*
X104579863Y-87835217D01*
X104642717Y-87772363D01*
X104719696Y-87727919D01*
X104805556Y-87704913D01*
X104894444Y-87704913D01*
X104980304Y-87727919D01*
G37*
G36*
X106250304Y-87727919D02*
G01*
X106327283Y-87772363D01*
X106390137Y-87835217D01*
X106434581Y-87912196D01*
X106457587Y-87998056D01*
X106460500Y-88042500D01*
X106460500Y-88737500D01*
X106457587Y-88781944D01*
X106434581Y-88867804D01*
X106390137Y-88944783D01*
X106327283Y-89007637D01*
X106250304Y-89052081D01*
X106164444Y-89075087D01*
X106075556Y-89075087D01*
X105989696Y-89052081D01*
X105912717Y-89007637D01*
X105849863Y-88944783D01*
X105805419Y-88867804D01*
X105782413Y-88781944D01*
X105779500Y-88737500D01*
X105779500Y-88042500D01*
X105782413Y-87998056D01*
X105805419Y-87912196D01*
X105849863Y-87835217D01*
X105912717Y-87772363D01*
X105989696Y-87727919D01*
X106075556Y-87704913D01*
X106164444Y-87704913D01*
X106250304Y-87727919D01*
G37*
G36*
X107510304Y-87727919D02*
G01*
X107587283Y-87772363D01*
X107650137Y-87835217D01*
X107694581Y-87912196D01*
X107717587Y-87998056D01*
X107720500Y-88042500D01*
X107720500Y-88737500D01*
X107717587Y-88781944D01*
X107694581Y-88867804D01*
X107650137Y-88944783D01*
X107587283Y-89007637D01*
X107510304Y-89052081D01*
X107424444Y-89075087D01*
X107335556Y-89075087D01*
X107249696Y-89052081D01*
X107172717Y-89007637D01*
X107109863Y-88944783D01*
X107065419Y-88867804D01*
X107042413Y-88781944D01*
X107039500Y-88737500D01*
X107039500Y-88042500D01*
X107042413Y-87998056D01*
X107065419Y-87912196D01*
X107109863Y-87835217D01*
X107172717Y-87772363D01*
X107249696Y-87727919D01*
X107335556Y-87704913D01*
X107424444Y-87704913D01*
X107510304Y-87727919D01*
G37*
G36*
X108780304Y-87727919D02*
G01*
X108857283Y-87772363D01*
X108920137Y-87835217D01*
X108964581Y-87912196D01*
X108987587Y-87998056D01*
X108990500Y-88042500D01*
X108990500Y-88737500D01*
X108987587Y-88781944D01*
X108964581Y-88867804D01*
X108920137Y-88944783D01*
X108857283Y-89007637D01*
X108780304Y-89052081D01*
X108694444Y-89075087D01*
X108605556Y-89075087D01*
X108519696Y-89052081D01*
X108442717Y-89007637D01*
X108379863Y-88944783D01*
X108335419Y-88867804D01*
X108312413Y-88781944D01*
X108309500Y-88737500D01*
X108309500Y-88042500D01*
X108312413Y-87998056D01*
X108335419Y-87912196D01*
X108379863Y-87835217D01*
X108442717Y-87772363D01*
X108519696Y-87727919D01*
X108605556Y-87704913D01*
X108694444Y-87704913D01*
X108780304Y-87727919D01*
G37*
G36*
X92031409Y-87701275D02*
G01*
X92094958Y-87709641D01*
X92110943Y-87717095D01*
X92130238Y-87720933D01*
X92155792Y-87738008D01*
X92182290Y-87750364D01*
X92198412Y-87766486D01*
X92219454Y-87780546D01*
X92233513Y-87801587D01*
X92249635Y-87817709D01*
X92261990Y-87844204D01*
X92279067Y-87869762D01*
X92282905Y-87889058D01*
X92290358Y-87905041D01*
X92298722Y-87968577D01*
X92300000Y-87975000D01*
X92300000Y-88425000D01*
X92298722Y-88431424D01*
X92290358Y-88494958D01*
X92282905Y-88510939D01*
X92279067Y-88530238D01*
X92261988Y-88555797D01*
X92249635Y-88582290D01*
X92233516Y-88598408D01*
X92219454Y-88619454D01*
X92198408Y-88633516D01*
X92182290Y-88649635D01*
X92155797Y-88661988D01*
X92130238Y-88679067D01*
X92110939Y-88682905D01*
X92094958Y-88690358D01*
X92031424Y-88698722D01*
X92025000Y-88700000D01*
X91525000Y-88700000D01*
X91518577Y-88698722D01*
X91455041Y-88690358D01*
X91439058Y-88682905D01*
X91419762Y-88679067D01*
X91394204Y-88661990D01*
X91367709Y-88649635D01*
X91351587Y-88633513D01*
X91330546Y-88619454D01*
X91316486Y-88598412D01*
X91300364Y-88582290D01*
X91288008Y-88555792D01*
X91270933Y-88530238D01*
X91267095Y-88510943D01*
X91259641Y-88494958D01*
X91251275Y-88431409D01*
X91250000Y-88425000D01*
X91250000Y-87975000D01*
X91251274Y-87968592D01*
X91259641Y-87905041D01*
X91267095Y-87889054D01*
X91270933Y-87869762D01*
X91288006Y-87844209D01*
X91300364Y-87817709D01*
X91316488Y-87801584D01*
X91330546Y-87780546D01*
X91351584Y-87766488D01*
X91367709Y-87750364D01*
X91394209Y-87738006D01*
X91419762Y-87720933D01*
X91439054Y-87717095D01*
X91455041Y-87709641D01*
X91518592Y-87701274D01*
X91525000Y-87700000D01*
X92025000Y-87700000D01*
X92031409Y-87701275D01*
G37*
G36*
X103937710Y-86309463D02*
G01*
X103999350Y-86350650D01*
X104040537Y-86412290D01*
X104055000Y-86485000D01*
X104055000Y-86825000D01*
X104040537Y-86897710D01*
X103999350Y-86959350D01*
X103937710Y-87000537D01*
X103865000Y-87015000D01*
X103585000Y-87015000D01*
X103512290Y-87000537D01*
X103450650Y-86959350D01*
X103409463Y-86897710D01*
X103395000Y-86825000D01*
X103395000Y-86485000D01*
X103409463Y-86412290D01*
X103450650Y-86350650D01*
X103512290Y-86309463D01*
X103585000Y-86295000D01*
X103865000Y-86295000D01*
X103937710Y-86309463D01*
G37*
G36*
X104897710Y-86309463D02*
G01*
X104959350Y-86350650D01*
X105000537Y-86412290D01*
X105015000Y-86485000D01*
X105015000Y-86825000D01*
X105000537Y-86897710D01*
X104959350Y-86959350D01*
X104897710Y-87000537D01*
X104825000Y-87015000D01*
X104545000Y-87015000D01*
X104472290Y-87000537D01*
X104410650Y-86959350D01*
X104369463Y-86897710D01*
X104355000Y-86825000D01*
X104355000Y-86485000D01*
X104369463Y-86412290D01*
X104410650Y-86350650D01*
X104472290Y-86309463D01*
X104545000Y-86295000D01*
X104825000Y-86295000D01*
X104897710Y-86309463D01*
G37*
G36*
X90336411Y-82351275D02*
G01*
X90398664Y-82359471D01*
X90414324Y-82366773D01*
X90433325Y-82370553D01*
X90458491Y-82387368D01*
X90484422Y-82399460D01*
X90500197Y-82415235D01*
X90520919Y-82429081D01*
X90534764Y-82449802D01*
X90550539Y-82465577D01*
X90562629Y-82491505D01*
X90579447Y-82516675D01*
X90583226Y-82535677D01*
X90590528Y-82551335D01*
X90598722Y-82613575D01*
X90600000Y-82620000D01*
X90600000Y-83780000D01*
X90598721Y-83786426D01*
X90590528Y-83848664D01*
X90583227Y-83864320D01*
X90579447Y-83883325D01*
X90562628Y-83908496D01*
X90550539Y-83934422D01*
X90534766Y-83950194D01*
X90520919Y-83970919D01*
X90500194Y-83984766D01*
X90484422Y-84000539D01*
X90458496Y-84012628D01*
X90433325Y-84029447D01*
X90414320Y-84033227D01*
X90398664Y-84040528D01*
X90336426Y-84048721D01*
X90330000Y-84050000D01*
X89670000Y-84050000D01*
X89663575Y-84048722D01*
X89601335Y-84040528D01*
X89585677Y-84033226D01*
X89566675Y-84029447D01*
X89541505Y-84012629D01*
X89515577Y-84000539D01*
X89499802Y-83984764D01*
X89479081Y-83970919D01*
X89465235Y-83950197D01*
X89449460Y-83934422D01*
X89437368Y-83908491D01*
X89420553Y-83883325D01*
X89416773Y-83864324D01*
X89409471Y-83848664D01*
X89401275Y-83786411D01*
X89400000Y-83780000D01*
X89400000Y-82620000D01*
X89401275Y-82613590D01*
X89409471Y-82551335D01*
X89416773Y-82535673D01*
X89420553Y-82516675D01*
X89437367Y-82491510D01*
X89449460Y-82465577D01*
X89465237Y-82449799D01*
X89479081Y-82429081D01*
X89499799Y-82415237D01*
X89515577Y-82399460D01*
X89541510Y-82387367D01*
X89566675Y-82370553D01*
X89585673Y-82366773D01*
X89601335Y-82359471D01*
X89663590Y-82351275D01*
X89670000Y-82350000D01*
X90330000Y-82350000D01*
X90336411Y-82351275D01*
G37*
G36*
X91836411Y-82351275D02*
G01*
X91898664Y-82359471D01*
X91914324Y-82366773D01*
X91933325Y-82370553D01*
X91958491Y-82387368D01*
X91984422Y-82399460D01*
X92000197Y-82415235D01*
X92020919Y-82429081D01*
X92034764Y-82449802D01*
X92050539Y-82465577D01*
X92062629Y-82491505D01*
X92079447Y-82516675D01*
X92083226Y-82535677D01*
X92090528Y-82551335D01*
X92098722Y-82613575D01*
X92100000Y-82620000D01*
X92100000Y-83780000D01*
X92098721Y-83786426D01*
X92090528Y-83848664D01*
X92083227Y-83864320D01*
X92079447Y-83883325D01*
X92062628Y-83908496D01*
X92050539Y-83934422D01*
X92034766Y-83950194D01*
X92020919Y-83970919D01*
X92000194Y-83984766D01*
X91984422Y-84000539D01*
X91958496Y-84012628D01*
X91933325Y-84029447D01*
X91914320Y-84033227D01*
X91898664Y-84040528D01*
X91836426Y-84048721D01*
X91830000Y-84050000D01*
X91170000Y-84050000D01*
X91163575Y-84048722D01*
X91101335Y-84040528D01*
X91085677Y-84033226D01*
X91066675Y-84029447D01*
X91041505Y-84012629D01*
X91015577Y-84000539D01*
X90999802Y-83984764D01*
X90979081Y-83970919D01*
X90965235Y-83950197D01*
X90949460Y-83934422D01*
X90937368Y-83908491D01*
X90920553Y-83883325D01*
X90916773Y-83864324D01*
X90909471Y-83848664D01*
X90901275Y-83786411D01*
X90900000Y-83780000D01*
X90900000Y-82620000D01*
X90901275Y-82613590D01*
X90909471Y-82551335D01*
X90916773Y-82535673D01*
X90920553Y-82516675D01*
X90937367Y-82491510D01*
X90949460Y-82465577D01*
X90965237Y-82449799D01*
X90979081Y-82429081D01*
X90999799Y-82415237D01*
X91015577Y-82399460D01*
X91041510Y-82387367D01*
X91066675Y-82370553D01*
X91085673Y-82366773D01*
X91101335Y-82359471D01*
X91163590Y-82351275D01*
X91170000Y-82350000D01*
X91830000Y-82350000D01*
X91836411Y-82351275D01*
G37*
G36*
X93536411Y-82351275D02*
G01*
X93598664Y-82359471D01*
X93614324Y-82366773D01*
X93633325Y-82370553D01*
X93658491Y-82387368D01*
X93684422Y-82399460D01*
X93700197Y-82415235D01*
X93720919Y-82429081D01*
X93734764Y-82449802D01*
X93750539Y-82465577D01*
X93762629Y-82491505D01*
X93779447Y-82516675D01*
X93783226Y-82535677D01*
X93790528Y-82551335D01*
X93798722Y-82613575D01*
X93800000Y-82620000D01*
X93800000Y-83780000D01*
X93798721Y-83786426D01*
X93790528Y-83848664D01*
X93783227Y-83864320D01*
X93779447Y-83883325D01*
X93762628Y-83908496D01*
X93750539Y-83934422D01*
X93734766Y-83950194D01*
X93720919Y-83970919D01*
X93700194Y-83984766D01*
X93684422Y-84000539D01*
X93658496Y-84012628D01*
X93633325Y-84029447D01*
X93614320Y-84033227D01*
X93598664Y-84040528D01*
X93536426Y-84048721D01*
X93530000Y-84050000D01*
X92870000Y-84050000D01*
X92863575Y-84048722D01*
X92801335Y-84040528D01*
X92785677Y-84033226D01*
X92766675Y-84029447D01*
X92741505Y-84012629D01*
X92715577Y-84000539D01*
X92699802Y-83984764D01*
X92679081Y-83970919D01*
X92665235Y-83950197D01*
X92649460Y-83934422D01*
X92637368Y-83908491D01*
X92620553Y-83883325D01*
X92616773Y-83864324D01*
X92609471Y-83848664D01*
X92601275Y-83786411D01*
X92600000Y-83780000D01*
X92600000Y-82620000D01*
X92601275Y-82613590D01*
X92609471Y-82551335D01*
X92616773Y-82535673D01*
X92620553Y-82516675D01*
X92637367Y-82491510D01*
X92649460Y-82465577D01*
X92665237Y-82449799D01*
X92679081Y-82429081D01*
X92699799Y-82415237D01*
X92715577Y-82399460D01*
X92741510Y-82387367D01*
X92766675Y-82370553D01*
X92785673Y-82366773D01*
X92801335Y-82359471D01*
X92863590Y-82351275D01*
X92870000Y-82350000D01*
X93530000Y-82350000D01*
X93536411Y-82351275D01*
G37*
G36*
X95036411Y-82351275D02*
G01*
X95098664Y-82359471D01*
X95114324Y-82366773D01*
X95133325Y-82370553D01*
X95158491Y-82387368D01*
X95184422Y-82399460D01*
X95200197Y-82415235D01*
X95220919Y-82429081D01*
X95234764Y-82449802D01*
X95250539Y-82465577D01*
X95262629Y-82491505D01*
X95279447Y-82516675D01*
X95283226Y-82535677D01*
X95290528Y-82551335D01*
X95298722Y-82613575D01*
X95300000Y-82620000D01*
X95300000Y-83780000D01*
X95298721Y-83786426D01*
X95290528Y-83848664D01*
X95283227Y-83864320D01*
X95279447Y-83883325D01*
X95262628Y-83908496D01*
X95250539Y-83934422D01*
X95234766Y-83950194D01*
X95220919Y-83970919D01*
X95200194Y-83984766D01*
X95184422Y-84000539D01*
X95158496Y-84012628D01*
X95133325Y-84029447D01*
X95114320Y-84033227D01*
X95098664Y-84040528D01*
X95036426Y-84048721D01*
X95030000Y-84050000D01*
X94370000Y-84050000D01*
X94363575Y-84048722D01*
X94301335Y-84040528D01*
X94285677Y-84033226D01*
X94266675Y-84029447D01*
X94241505Y-84012629D01*
X94215577Y-84000539D01*
X94199802Y-83984764D01*
X94179081Y-83970919D01*
X94165235Y-83950197D01*
X94149460Y-83934422D01*
X94137368Y-83908491D01*
X94120553Y-83883325D01*
X94116773Y-83864324D01*
X94109471Y-83848664D01*
X94101275Y-83786411D01*
X94100000Y-83780000D01*
X94100000Y-82620000D01*
X94101275Y-82613590D01*
X94109471Y-82551335D01*
X94116773Y-82535673D01*
X94120553Y-82516675D01*
X94137367Y-82491510D01*
X94149460Y-82465577D01*
X94165237Y-82449799D01*
X94179081Y-82429081D01*
X94199799Y-82415237D01*
X94215577Y-82399460D01*
X94241510Y-82387367D01*
X94266675Y-82370553D01*
X94285673Y-82366773D01*
X94301335Y-82359471D01*
X94363590Y-82351275D01*
X94370000Y-82350000D01*
X95030000Y-82350000D01*
X95036411Y-82351275D01*
G37*
G36*
X96536411Y-82351275D02*
G01*
X96598664Y-82359471D01*
X96614324Y-82366773D01*
X96633325Y-82370553D01*
X96658491Y-82387368D01*
X96684422Y-82399460D01*
X96700197Y-82415235D01*
X96720919Y-82429081D01*
X96734764Y-82449802D01*
X96750539Y-82465577D01*
X96762629Y-82491505D01*
X96779447Y-82516675D01*
X96783226Y-82535677D01*
X96790528Y-82551335D01*
X96798722Y-82613575D01*
X96800000Y-82620000D01*
X96800000Y-83780000D01*
X96798721Y-83786426D01*
X96790528Y-83848664D01*
X96783227Y-83864320D01*
X96779447Y-83883325D01*
X96762628Y-83908496D01*
X96750539Y-83934422D01*
X96734766Y-83950194D01*
X96720919Y-83970919D01*
X96700194Y-83984766D01*
X96684422Y-84000539D01*
X96658496Y-84012628D01*
X96633325Y-84029447D01*
X96614320Y-84033227D01*
X96598664Y-84040528D01*
X96536426Y-84048721D01*
X96530000Y-84050000D01*
X95870000Y-84050000D01*
X95863575Y-84048722D01*
X95801335Y-84040528D01*
X95785677Y-84033226D01*
X95766675Y-84029447D01*
X95741505Y-84012629D01*
X95715577Y-84000539D01*
X95699802Y-83984764D01*
X95679081Y-83970919D01*
X95665235Y-83950197D01*
X95649460Y-83934422D01*
X95637368Y-83908491D01*
X95620553Y-83883325D01*
X95616773Y-83864324D01*
X95609471Y-83848664D01*
X95601275Y-83786411D01*
X95600000Y-83780000D01*
X95600000Y-82620000D01*
X95601275Y-82613590D01*
X95609471Y-82551335D01*
X95616773Y-82535673D01*
X95620553Y-82516675D01*
X95637367Y-82491510D01*
X95649460Y-82465577D01*
X95665237Y-82449799D01*
X95679081Y-82429081D01*
X95699799Y-82415237D01*
X95715577Y-82399460D01*
X95741510Y-82387367D01*
X95766675Y-82370553D01*
X95785673Y-82366773D01*
X95801335Y-82359471D01*
X95863590Y-82351275D01*
X95870000Y-82350000D01*
X96530000Y-82350000D01*
X96536411Y-82351275D01*
G37*
G36*
X98036411Y-82351275D02*
G01*
X98098664Y-82359471D01*
X98114324Y-82366773D01*
X98133325Y-82370553D01*
X98158491Y-82387368D01*
X98184422Y-82399460D01*
X98200197Y-82415235D01*
X98220919Y-82429081D01*
X98234764Y-82449802D01*
X98250539Y-82465577D01*
X98262629Y-82491505D01*
X98279447Y-82516675D01*
X98283226Y-82535677D01*
X98290528Y-82551335D01*
X98298722Y-82613575D01*
X98300000Y-82620000D01*
X98300000Y-83780000D01*
X98298721Y-83786426D01*
X98290528Y-83848664D01*
X98283227Y-83864320D01*
X98279447Y-83883325D01*
X98262628Y-83908496D01*
X98250539Y-83934422D01*
X98234766Y-83950194D01*
X98220919Y-83970919D01*
X98200194Y-83984766D01*
X98184422Y-84000539D01*
X98158496Y-84012628D01*
X98133325Y-84029447D01*
X98114320Y-84033227D01*
X98098664Y-84040528D01*
X98036426Y-84048721D01*
X98030000Y-84050000D01*
X97370000Y-84050000D01*
X97363575Y-84048722D01*
X97301335Y-84040528D01*
X97285677Y-84033226D01*
X97266675Y-84029447D01*
X97241505Y-84012629D01*
X97215577Y-84000539D01*
X97199802Y-83984764D01*
X97179081Y-83970919D01*
X97165235Y-83950197D01*
X97149460Y-83934422D01*
X97137368Y-83908491D01*
X97120553Y-83883325D01*
X97116773Y-83864324D01*
X97109471Y-83848664D01*
X97101275Y-83786411D01*
X97100000Y-83780000D01*
X97100000Y-82620000D01*
X97101275Y-82613590D01*
X97109471Y-82551335D01*
X97116773Y-82535673D01*
X97120553Y-82516675D01*
X97137367Y-82491510D01*
X97149460Y-82465577D01*
X97165237Y-82449799D01*
X97179081Y-82429081D01*
X97199799Y-82415237D01*
X97215577Y-82399460D01*
X97241510Y-82387367D01*
X97266675Y-82370553D01*
X97285673Y-82366773D01*
X97301335Y-82359471D01*
X97363590Y-82351275D01*
X97370000Y-82350000D01*
X98030000Y-82350000D01*
X98036411Y-82351275D01*
G37*
G36*
X99536411Y-82351275D02*
G01*
X99598664Y-82359471D01*
X99614324Y-82366773D01*
X99633325Y-82370553D01*
X99658491Y-82387368D01*
X99684422Y-82399460D01*
X99700197Y-82415235D01*
X99720919Y-82429081D01*
X99734764Y-82449802D01*
X99750539Y-82465577D01*
X99762629Y-82491505D01*
X99779447Y-82516675D01*
X99783226Y-82535677D01*
X99790528Y-82551335D01*
X99798722Y-82613575D01*
X99800000Y-82620000D01*
X99800000Y-83780000D01*
X99798721Y-83786426D01*
X99790528Y-83848664D01*
X99783227Y-83864320D01*
X99779447Y-83883325D01*
X99762628Y-83908496D01*
X99750539Y-83934422D01*
X99734766Y-83950194D01*
X99720919Y-83970919D01*
X99700194Y-83984766D01*
X99684422Y-84000539D01*
X99658496Y-84012628D01*
X99633325Y-84029447D01*
X99614320Y-84033227D01*
X99598664Y-84040528D01*
X99536426Y-84048721D01*
X99530000Y-84050000D01*
X98870000Y-84050000D01*
X98863575Y-84048722D01*
X98801335Y-84040528D01*
X98785677Y-84033226D01*
X98766675Y-84029447D01*
X98741505Y-84012629D01*
X98715577Y-84000539D01*
X98699802Y-83984764D01*
X98679081Y-83970919D01*
X98665235Y-83950197D01*
X98649460Y-83934422D01*
X98637368Y-83908491D01*
X98620553Y-83883325D01*
X98616773Y-83864324D01*
X98609471Y-83848664D01*
X98601275Y-83786411D01*
X98600000Y-83780000D01*
X98600000Y-82620000D01*
X98601275Y-82613590D01*
X98609471Y-82551335D01*
X98616773Y-82535673D01*
X98620553Y-82516675D01*
X98637367Y-82491510D01*
X98649460Y-82465577D01*
X98665237Y-82449799D01*
X98679081Y-82429081D01*
X98699799Y-82415237D01*
X98715577Y-82399460D01*
X98741510Y-82387367D01*
X98766675Y-82370553D01*
X98785673Y-82366773D01*
X98801335Y-82359471D01*
X98863590Y-82351275D01*
X98870000Y-82350000D01*
X99530000Y-82350000D01*
X99536411Y-82351275D01*
G37*
G36*
X101036411Y-82351275D02*
G01*
X101098664Y-82359471D01*
X101114324Y-82366773D01*
X101133325Y-82370553D01*
X101158491Y-82387368D01*
X101184422Y-82399460D01*
X101200197Y-82415235D01*
X101220919Y-82429081D01*
X101234764Y-82449802D01*
X101250539Y-82465577D01*
X101262629Y-82491505D01*
X101279447Y-82516675D01*
X101283226Y-82535677D01*
X101290528Y-82551335D01*
X101298722Y-82613575D01*
X101300000Y-82620000D01*
X101300000Y-83780000D01*
X101298721Y-83786426D01*
X101290528Y-83848664D01*
X101283227Y-83864320D01*
X101279447Y-83883325D01*
X101262628Y-83908496D01*
X101250539Y-83934422D01*
X101234766Y-83950194D01*
X101220919Y-83970919D01*
X101200194Y-83984766D01*
X101184422Y-84000539D01*
X101158496Y-84012628D01*
X101133325Y-84029447D01*
X101114320Y-84033227D01*
X101098664Y-84040528D01*
X101036426Y-84048721D01*
X101030000Y-84050000D01*
X100370000Y-84050000D01*
X100363575Y-84048722D01*
X100301335Y-84040528D01*
X100285677Y-84033226D01*
X100266675Y-84029447D01*
X100241505Y-84012629D01*
X100215577Y-84000539D01*
X100199802Y-83984764D01*
X100179081Y-83970919D01*
X100165235Y-83950197D01*
X100149460Y-83934422D01*
X100137368Y-83908491D01*
X100120553Y-83883325D01*
X100116773Y-83864324D01*
X100109471Y-83848664D01*
X100101275Y-83786411D01*
X100100000Y-83780000D01*
X100100000Y-82620000D01*
X100101275Y-82613590D01*
X100109471Y-82551335D01*
X100116773Y-82535673D01*
X100120553Y-82516675D01*
X100137367Y-82491510D01*
X100149460Y-82465577D01*
X100165237Y-82449799D01*
X100179081Y-82429081D01*
X100199799Y-82415237D01*
X100215577Y-82399460D01*
X100241510Y-82387367D01*
X100266675Y-82370553D01*
X100285673Y-82366773D01*
X100301335Y-82359471D01*
X100363590Y-82351275D01*
X100370000Y-82350000D01*
X101030000Y-82350000D01*
X101036411Y-82351275D01*
G37*
G36*
X106836411Y-82351275D02*
G01*
X106898664Y-82359471D01*
X106914324Y-82366773D01*
X106933325Y-82370553D01*
X106958491Y-82387368D01*
X106984422Y-82399460D01*
X107000197Y-82415235D01*
X107020919Y-82429081D01*
X107034764Y-82449802D01*
X107050539Y-82465577D01*
X107062629Y-82491505D01*
X107079447Y-82516675D01*
X107083226Y-82535677D01*
X107090528Y-82551335D01*
X107098722Y-82613575D01*
X107100000Y-82620000D01*
X107100000Y-83780000D01*
X107098721Y-83786426D01*
X107090528Y-83848664D01*
X107083227Y-83864320D01*
X107079447Y-83883325D01*
X107062628Y-83908496D01*
X107050539Y-83934422D01*
X107034766Y-83950194D01*
X107020919Y-83970919D01*
X107000194Y-83984766D01*
X106984422Y-84000539D01*
X106958496Y-84012628D01*
X106933325Y-84029447D01*
X106914320Y-84033227D01*
X106898664Y-84040528D01*
X106836426Y-84048721D01*
X106830000Y-84050000D01*
X106170000Y-84050000D01*
X106163575Y-84048722D01*
X106101335Y-84040528D01*
X106085677Y-84033226D01*
X106066675Y-84029447D01*
X106041505Y-84012629D01*
X106015577Y-84000539D01*
X105999802Y-83984764D01*
X105979081Y-83970919D01*
X105965235Y-83950197D01*
X105949460Y-83934422D01*
X105937368Y-83908491D01*
X105920553Y-83883325D01*
X105916773Y-83864324D01*
X105909471Y-83848664D01*
X105901275Y-83786411D01*
X105900000Y-83780000D01*
X105900000Y-82620000D01*
X105901275Y-82613590D01*
X105909471Y-82551335D01*
X105916773Y-82535673D01*
X105920553Y-82516675D01*
X105937367Y-82491510D01*
X105949460Y-82465577D01*
X105965237Y-82449799D01*
X105979081Y-82429081D01*
X105999799Y-82415237D01*
X106015577Y-82399460D01*
X106041510Y-82387367D01*
X106066675Y-82370553D01*
X106085673Y-82366773D01*
X106101335Y-82359471D01*
X106163590Y-82351275D01*
X106170000Y-82350000D01*
X106830000Y-82350000D01*
X106836411Y-82351275D01*
G37*
G36*
X108336411Y-82351275D02*
G01*
X108398664Y-82359471D01*
X108414324Y-82366773D01*
X108433325Y-82370553D01*
X108458491Y-82387368D01*
X108484422Y-82399460D01*
X108500197Y-82415235D01*
X108520919Y-82429081D01*
X108534764Y-82449802D01*
X108550539Y-82465577D01*
X108562629Y-82491505D01*
X108579447Y-82516675D01*
X108583226Y-82535677D01*
X108590528Y-82551335D01*
X108598722Y-82613575D01*
X108600000Y-82620000D01*
X108600000Y-83780000D01*
X108598721Y-83786426D01*
X108590528Y-83848664D01*
X108583227Y-83864320D01*
X108579447Y-83883325D01*
X108562628Y-83908496D01*
X108550539Y-83934422D01*
X108534766Y-83950194D01*
X108520919Y-83970919D01*
X108500194Y-83984766D01*
X108484422Y-84000539D01*
X108458496Y-84012628D01*
X108433325Y-84029447D01*
X108414320Y-84033227D01*
X108398664Y-84040528D01*
X108336426Y-84048721D01*
X108330000Y-84050000D01*
X107670000Y-84050000D01*
X107663575Y-84048722D01*
X107601335Y-84040528D01*
X107585677Y-84033226D01*
X107566675Y-84029447D01*
X107541505Y-84012629D01*
X107515577Y-84000539D01*
X107499802Y-83984764D01*
X107479081Y-83970919D01*
X107465235Y-83950197D01*
X107449460Y-83934422D01*
X107437368Y-83908491D01*
X107420553Y-83883325D01*
X107416773Y-83864324D01*
X107409471Y-83848664D01*
X107401275Y-83786411D01*
X107400000Y-83780000D01*
X107400000Y-82620000D01*
X107401275Y-82613590D01*
X107409471Y-82551335D01*
X107416773Y-82535673D01*
X107420553Y-82516675D01*
X107437367Y-82491510D01*
X107449460Y-82465577D01*
X107465237Y-82449799D01*
X107479081Y-82429081D01*
X107499799Y-82415237D01*
X107515577Y-82399460D01*
X107541510Y-82387367D01*
X107566675Y-82370553D01*
X107585673Y-82366773D01*
X107601335Y-82359471D01*
X107663590Y-82351275D01*
X107670000Y-82350000D01*
X108330000Y-82350000D01*
X108336411Y-82351275D01*
G37*
M02*
