%TF.GenerationSoftware,KiCad,Pcbnew,10.0.6-10.0.6~ubuntu24.04.1*%
%TF.CreationDate,2026-09-27T20:11:49+00:00*%
%TF.ProjectId,ridge3-fc,72696467-6533-42d6-9663-2e6b69636164,rev?*%
%TF.SameCoordinates,Original*%
%TF.FileFunction,Copper,L2,Inr*%
%TF.FilePolarity,Positive*%
%FSLAX46Y46*%
G04 Gerber Fmt 4.6, Leading zero omitted, Abs format (unit mm)*
G04 Created by KiCad (PCBNEW 10.0.6-10.0.6~ubuntu24.04.1) date 2026-09-27 20:11:49*
%MOMM*%
%LPD*%
G01*
G04 APERTURE LIST*
%TA.AperFunction,ComponentPad*%
%ADD10O,2.100000X1.000000*%
%TD*%
%TA.AperFunction,ComponentPad*%
%ADD11O,1.800000X1.000000*%
%TD*%
%TA.AperFunction,ViaPad*%
%ADD12C,0.350000*%
%TD*%
%TA.AperFunction,ViaPad*%
%ADD13C,0.500000*%
%TD*%
%TA.AperFunction,ViaPad*%
%ADD14C,0.450000*%
%TD*%
G04 APERTURE END LIST*
D10*
%TO.N,GND*%
%TO.C,J_USB*%
X89590000Y-95680000D03*
D11*
X85410000Y-95680000D03*
X85410000Y-104320000D03*
D10*
X89590000Y-104320000D03*
%TD*%
D12*
%TO.N,VTX_OFF_G*%
X110150100Y-99168700D03*
X109819400Y-103475000D03*
%TO.N,GND*%
X91800000Y-109525000D03*
X113267000Y-96747300D03*
X98200000Y-103500000D03*
X93970200Y-113420000D03*
X106375000Y-98242300D03*
X105150000Y-92200000D03*
X110815000Y-108910000D03*
X105150000Y-90600000D03*
X106750000Y-92200000D03*
X101400000Y-98700000D03*
X99800000Y-92000000D03*
X103961000Y-100464000D03*
X93717700Y-101925000D03*
X115450000Y-110015000D03*
X106750000Y-90600000D03*
X98200000Y-101900000D03*
D13*
X98000000Y-110900000D03*
D12*
X104500000Y-107825000D03*
X96542300Y-95264100D03*
D13*
X98900000Y-114080000D03*
D12*
X94215000Y-101650000D03*
X109715000Y-104250000D03*
X117367000Y-108412000D03*
X111313000Y-99632400D03*
X106200000Y-116320000D03*
X98200000Y-98700000D03*
X109455000Y-100320000D03*
X91577500Y-102308000D03*
X96600000Y-90400000D03*
X111777000Y-95492900D03*
X109277000Y-99583500D03*
X93055000Y-102220000D03*
X108400000Y-110480000D03*
X98055400Y-87755400D03*
X99225000Y-116450000D03*
X99772500Y-84191600D03*
X87975000Y-98800000D03*
X87975000Y-99900000D03*
X99800000Y-101900000D03*
X109586000Y-94119100D03*
X99800000Y-100300000D03*
X107078000Y-102758000D03*
X106100000Y-107825000D03*
X90730000Y-96080000D03*
X101400000Y-103500000D03*
X106822000Y-101397000D03*
X108515000Y-105350000D03*
X103755000Y-104720000D03*
X101400000Y-100300000D03*
X95750000Y-106265000D03*
X109490000Y-104755000D03*
X101400000Y-101900000D03*
D13*
X96000000Y-110900000D03*
D12*
X116603000Y-103553000D03*
X101400000Y-92000000D03*
X84345000Y-107900000D03*
X105583000Y-100271000D03*
D13*
X97000000Y-110900000D03*
D12*
X98200000Y-92000000D03*
X96600000Y-103500000D03*
X105340000Y-86655000D03*
X96184000Y-105668000D03*
X100061000Y-87125500D03*
X92918200Y-108812000D03*
X89655000Y-92770000D03*
X90406000Y-94871900D03*
X107340000Y-97755000D03*
X96600000Y-101900000D03*
X96740000Y-96105000D03*
X108350000Y-90600000D03*
X91800000Y-111165000D03*
X115590000Y-93323000D03*
X108142000Y-98661800D03*
X101400000Y-90400000D03*
X107455000Y-99470000D03*
D13*
X112000000Y-104500000D03*
D12*
X114400000Y-101615000D03*
X117227000Y-90066500D03*
X106892000Y-102200000D03*
X105055000Y-98220000D03*
X99800000Y-103500000D03*
X98200000Y-90400000D03*
X93206000Y-109522000D03*
X109122000Y-105422000D03*
X109277000Y-88616500D03*
X90730000Y-103920000D03*
X93295500Y-95118000D03*
X93384000Y-91018100D03*
X98200000Y-100300000D03*
X96600000Y-100300000D03*
X100005000Y-87970000D03*
X103905000Y-97720000D03*
X95147500Y-110722000D03*
D13*
X107828000Y-108195000D03*
D12*
X99800000Y-98700000D03*
X106200000Y-108680000D03*
X84345000Y-91200000D03*
X96600000Y-92000000D03*
X97938900Y-87125500D03*
X113087000Y-97382500D03*
X91805000Y-87870000D03*
X96555000Y-86990000D03*
X111335000Y-95180000D03*
X95272500Y-84191600D03*
X96077000Y-111623000D03*
X109927000Y-92515000D03*
X99800000Y-90400000D03*
X104500000Y-100427000D03*
D13*
X98900000Y-115080000D03*
D12*
X109005000Y-106538000D03*
X96600000Y-98700000D03*
D13*
X112000000Y-105500000D03*
D12*
X107835000Y-96442300D03*
%TO.N,+3V3_GYRO*%
X106177700Y-100940000D03*
X105725000Y-97755000D03*
%TO.N,+3V3*%
X92439100Y-90742500D03*
X103070000Y-86655000D03*
X103465000Y-90250000D03*
X91577500Y-104402000D03*
X94470000Y-96105000D03*
X103342000Y-98817300D03*
X104327000Y-87560900D03*
X117335000Y-107102000D03*
X103735000Y-99967700D03*
X105919000Y-87430300D03*
X104400000Y-99835000D03*
X96717300Y-96758400D03*
X95764800Y-105276000D03*
X94823600Y-104335000D03*
X106532000Y-100402000D03*
X107581000Y-95369700D03*
X107242000Y-104925000D03*
X102785000Y-90055200D03*
X92487800Y-104162000D03*
X91889100Y-108568000D03*
X103341000Y-100392000D03*
D13*
X107182000Y-108954000D03*
X105326000Y-106845000D03*
D12*
X109261000Y-102548000D03*
X91470000Y-101755000D03*
%TO.N,+3V3_OSD*%
X93553700Y-89655600D03*
X89655000Y-94385000D03*
X99274400Y-87637700D03*
X96070000Y-94070000D03*
%TO.N,BEEPER_G*%
X116001700Y-106161500D03*
X108234700Y-104205600D03*
%TO.N,UART4_TX*%
X94341900Y-99350000D03*
X90000000Y-83200000D03*
%TO.N,UART2_TX*%
X83200000Y-94200000D03*
X95450000Y-100350000D03*
%TO.N,VBAT*%
X109350000Y-108800000D03*
X109150000Y-109650000D03*
D13*
X113500000Y-109100000D03*
D12*
X111706500Y-97508500D03*
X97750000Y-114850000D03*
D13*
X95600000Y-116550000D03*
X114300000Y-109100000D03*
X95600000Y-117250000D03*
X112700000Y-109100000D03*
D12*
%TO.N,USB_VBUS*%
X91900000Y-99300000D03*
X92642800Y-98768500D03*
X90900000Y-102250000D03*
X90170000Y-97600000D03*
%TO.N,USB_CC1*%
X88472800Y-98729100D03*
D14*
%TO.N,USB_DP*%
X95650000Y-97150000D03*
X97250000Y-96950000D03*
%TO.N,USB_DM*%
X91089900Y-99346600D03*
X97900000Y-96800000D03*
X91089900Y-100347000D03*
D12*
%TO.N,USB_CC2*%
X86290000Y-99900000D03*
%TO.N,ADC_CURR*%
X102888400Y-101350000D03*
X108605000Y-100085000D03*
%TO.N,UART1_TX*%
X106500000Y-83200000D03*
X107087300Y-96462700D03*
X98947500Y-96951200D03*
X115624900Y-95437600D03*
%TO.N,ADC_VBAT*%
X107165200Y-98393300D03*
X103848800Y-100922000D03*
%TO.N,+5V*%
X109900000Y-110250000D03*
X83200000Y-89700000D03*
X101884400Y-96731600D03*
X83200000Y-106400000D03*
X110683200Y-99013600D03*
X116800000Y-100900000D03*
X92848900Y-106315600D03*
X100700000Y-83200000D03*
X107850000Y-106450000D03*
X110683200Y-100317000D03*
D14*
%TO.N,SPI1_SCK*%
X103200000Y-103750000D03*
X103450000Y-102300000D03*
%TO.N,CAM_VIDEO*%
X97250000Y-87000000D03*
D12*
%TO.N,UART1_RX*%
X114140000Y-96000000D03*
X98453600Y-96930600D03*
X108000000Y-83200000D03*
%TO.N,CUR*%
X111423500Y-97946900D03*
X99380100Y-110712800D03*
%TO.N,TLM*%
X98988500Y-111671700D03*
X102550000Y-98350000D03*
D13*
%TO.N,+9V*%
X113900000Y-91700000D03*
D12*
X114300000Y-102250000D03*
X93700000Y-83850000D03*
D13*
X114700000Y-91700000D03*
D12*
X112550000Y-97700000D03*
%TO.N,UART4_RX*%
X91500000Y-83200000D03*
X95343600Y-99810500D03*
D14*
%TO.N,HSE_OUT*%
X93300000Y-107400000D03*
X96750000Y-107950000D03*
D12*
%TO.N,NRST*%
X94295000Y-110395000D03*
X99250000Y-104650000D03*
X103755000Y-106335000D03*
%TO.N,SPI2_MOSI*%
X108237200Y-88802800D03*
X99980000Y-94070000D03*
%TO.N,FLASH_CS*%
X104850000Y-94410000D03*
X99750000Y-97550000D03*
%TO.N,OSD_CS*%
X99330000Y-94070000D03*
%TO.N,SWDIO*%
X94205400Y-96690000D03*
%TO.N,SWCLK*%
X91080800Y-96781100D03*
X95450000Y-98350000D03*
%TO.N,BEEPER*%
X109249700Y-104141000D03*
X95450000Y-98850000D03*
%TO.N,UART2_RX*%
X111995000Y-91445000D03*
X94621200Y-98018300D03*
X83200000Y-92700000D03*
%TO.N,VTX_OFF*%
X108119300Y-102671500D03*
X95450000Y-101350000D03*
%TO.N,BOOT0*%
X116680900Y-104680900D03*
X94215000Y-103335000D03*
%TO.N,BUCK9_EN*%
X109788400Y-114616000D03*
X110445000Y-97895000D03*
X114597700Y-106490000D03*
%TO.N,OSD_RST*%
X100630000Y-88330000D03*
%TO.N,OSD_VIN*%
X98721900Y-87564200D03*
D14*
%TO.N,OSD_VOUT*%
X95250000Y-89550000D03*
%TO.N,VTX_VIDEO*%
X95750000Y-87100000D03*
D12*
%TO.N,BUCK9_VCC*%
X114900000Y-107500000D03*
X114000000Y-103700000D03*
%TO.N,BUCK9_RT*%
X115069900Y-102793900D03*
X117165000Y-105135000D03*
%TO.N,BUCK9_FB*%
X115978700Y-103607800D03*
X115877800Y-98420300D03*
%TO.N,BUCK5_FB*%
X94700000Y-111050000D03*
X94750000Y-107500000D03*
%TD*%
%TA.AperFunction,Conductor*%
%TO.N,GND*%
G36*
X115276445Y-82368907D02*
G01*
X115312409Y-82418407D01*
X115312409Y-82479593D01*
X115288258Y-82519004D01*
X113583116Y-84224143D01*
X113528599Y-84251920D01*
X113484374Y-84248876D01*
X113354779Y-84209564D01*
X113354774Y-84209563D01*
X112750003Y-84150000D01*
X112749997Y-84150000D01*
X112145224Y-84209563D01*
X112145219Y-84209564D01*
X111563680Y-84385973D01*
X111563675Y-84385975D01*
X111027734Y-84672441D01*
X110557973Y-85057963D01*
X110557963Y-85057973D01*
X110172441Y-85527734D01*
X109885975Y-86063675D01*
X109885973Y-86063680D01*
X109709564Y-86645219D01*
X109709563Y-86645224D01*
X109650000Y-87249997D01*
X109650000Y-87250003D01*
X109709563Y-87854774D01*
X109709564Y-87854779D01*
X109885973Y-88436318D01*
X109885975Y-88436323D01*
X110172441Y-88972264D01*
X110425075Y-89280100D01*
X110557968Y-89442031D01*
X110557973Y-89442035D01*
X111027734Y-89827557D01*
X111563675Y-90114023D01*
X111563681Y-90114026D01*
X111968811Y-90236920D01*
X112145219Y-90290434D01*
X112145224Y-90290435D01*
X112749997Y-90350000D01*
X112750000Y-90350000D01*
X112750003Y-90350000D01*
X113354774Y-90290435D01*
X113354779Y-90290434D01*
X113936318Y-90114026D01*
X114231823Y-89956075D01*
X114472264Y-89827557D01*
X114472265Y-89827555D01*
X114472267Y-89827555D01*
X114942031Y-89442031D01*
X115327555Y-88972267D01*
X115614026Y-88436318D01*
X115790434Y-87854779D01*
X115790435Y-87854774D01*
X115850000Y-87250003D01*
X115850000Y-87249996D01*
X115790435Y-86645224D01*
X115790434Y-86645219D01*
X115751121Y-86515623D01*
X115752322Y-86454450D01*
X115775852Y-86416883D01*
X117480997Y-84711739D01*
X117535513Y-84683963D01*
X117595945Y-84693534D01*
X117639210Y-84736799D01*
X117650000Y-84781744D01*
X117650000Y-104854572D01*
X117631093Y-104912763D01*
X117581593Y-104948727D01*
X117520407Y-104948727D01*
X117470907Y-104912763D01*
X117465643Y-104904656D01*
X117465480Y-104904444D01*
X117465476Y-104904440D01*
X117465475Y-104904438D01*
X117395562Y-104834525D01*
X117380516Y-104825838D01*
X117309941Y-104785091D01*
X117309943Y-104785091D01*
X117272885Y-104775161D01*
X117214435Y-104759500D01*
X117155400Y-104759500D01*
X117097209Y-104740593D01*
X117061245Y-104691093D01*
X117056400Y-104660500D01*
X117056400Y-104631466D01*
X117054540Y-104624523D01*
X117030810Y-104535962D01*
X117030808Y-104535959D01*
X117030808Y-104535957D01*
X116981376Y-104450340D01*
X116981375Y-104450338D01*
X116911462Y-104380425D01*
X116896106Y-104371559D01*
X116825841Y-104330991D01*
X116825843Y-104330991D01*
X116778288Y-104318249D01*
X116730335Y-104305400D01*
X116631465Y-104305400D01*
X116583512Y-104318249D01*
X116535957Y-104330991D01*
X116450340Y-104380423D01*
X116380423Y-104450340D01*
X116330991Y-104535957D01*
X116325752Y-104555510D01*
X116305400Y-104631465D01*
X116305400Y-104730335D01*
X116323556Y-104798093D01*
X116330991Y-104825842D01*
X116380423Y-104911459D01*
X116380425Y-104911462D01*
X116450338Y-104981375D01*
X116450340Y-104981376D01*
X116535958Y-105030808D01*
X116535956Y-105030808D01*
X116535960Y-105030809D01*
X116535962Y-105030810D01*
X116631465Y-105056400D01*
X116631467Y-105056400D01*
X116690500Y-105056400D01*
X116748691Y-105075307D01*
X116784655Y-105124807D01*
X116789500Y-105155400D01*
X116789500Y-105184435D01*
X116800497Y-105225475D01*
X116815091Y-105279942D01*
X116864521Y-105365555D01*
X116864525Y-105365562D01*
X116934438Y-105435475D01*
X116934440Y-105435476D01*
X117020058Y-105484908D01*
X117020056Y-105484908D01*
X117020060Y-105484909D01*
X117020062Y-105484910D01*
X117115565Y-105510500D01*
X117115567Y-105510500D01*
X117214433Y-105510500D01*
X117214435Y-105510500D01*
X117309938Y-105484910D01*
X117309940Y-105484908D01*
X117309942Y-105484908D01*
X117335377Y-105470222D01*
X117395562Y-105435475D01*
X117465475Y-105365562D01*
X117465477Y-105365557D01*
X117465480Y-105365555D01*
X117469424Y-105360416D01*
X117470483Y-105361228D01*
X117510728Y-105324988D01*
X117571578Y-105318589D01*
X117624568Y-105349179D01*
X117649457Y-105405073D01*
X117650000Y-105415427D01*
X117650000Y-106678802D01*
X117631093Y-106736993D01*
X117581593Y-106772957D01*
X117520407Y-106772957D01*
X117501500Y-106764538D01*
X117479941Y-106752091D01*
X117479943Y-106752091D01*
X117423595Y-106736993D01*
X117384435Y-106726500D01*
X117285565Y-106726500D01*
X117246405Y-106736993D01*
X117190057Y-106752091D01*
X117104440Y-106801523D01*
X117034523Y-106871440D01*
X116985091Y-106957057D01*
X116985090Y-106957062D01*
X116959500Y-107052565D01*
X116959500Y-107151435D01*
X116970500Y-107192487D01*
X116985091Y-107246942D01*
X117013127Y-107295500D01*
X117034525Y-107332562D01*
X117104438Y-107402475D01*
X117104440Y-107402476D01*
X117190058Y-107451908D01*
X117190056Y-107451908D01*
X117190060Y-107451909D01*
X117190062Y-107451910D01*
X117285565Y-107477500D01*
X117285567Y-107477500D01*
X117384433Y-107477500D01*
X117384435Y-107477500D01*
X117479938Y-107451910D01*
X117501498Y-107439461D01*
X117561345Y-107426739D01*
X117617242Y-107451624D01*
X117647836Y-107504611D01*
X117650000Y-107525197D01*
X117650000Y-115218254D01*
X117631093Y-115276445D01*
X117581593Y-115312409D01*
X117520407Y-115312409D01*
X117480996Y-115288258D01*
X115775854Y-113583116D01*
X115748077Y-113528599D01*
X115751120Y-113484376D01*
X115790434Y-113354779D01*
X115790434Y-113354774D01*
X115790435Y-113354774D01*
X115850000Y-112750003D01*
X115850000Y-112749996D01*
X115790435Y-112145224D01*
X115790434Y-112145219D01*
X115716733Y-111902262D01*
X115614026Y-111563681D01*
X115614023Y-111563675D01*
X115327557Y-111027734D01*
X114942035Y-110557973D01*
X114942031Y-110557968D01*
X114849756Y-110482240D01*
X114472264Y-110172441D01*
X113936323Y-109885975D01*
X113936318Y-109885973D01*
X113469078Y-109744237D01*
X113418881Y-109709252D01*
X113398835Y-109651444D01*
X113416596Y-109592893D01*
X113465381Y-109555964D01*
X113497816Y-109550500D01*
X113559307Y-109550500D01*
X113559309Y-109550500D01*
X113673886Y-109519799D01*
X113673888Y-109519797D01*
X113673890Y-109519797D01*
X113776608Y-109460492D01*
X113776608Y-109460491D01*
X113776613Y-109460489D01*
X113829998Y-109407103D01*
X113884513Y-109379328D01*
X113944945Y-109388899D01*
X113970000Y-109407102D01*
X114023387Y-109460489D01*
X114023389Y-109460490D01*
X114023391Y-109460492D01*
X114126110Y-109519797D01*
X114126111Y-109519797D01*
X114126114Y-109519799D01*
X114240691Y-109550500D01*
X114240693Y-109550500D01*
X114359307Y-109550500D01*
X114359309Y-109550500D01*
X114473886Y-109519799D01*
X114473888Y-109519797D01*
X114473890Y-109519797D01*
X114576608Y-109460492D01*
X114576608Y-109460491D01*
X114576613Y-109460489D01*
X114660489Y-109376613D01*
X114662115Y-109373797D01*
X114719797Y-109273890D01*
X114719797Y-109273888D01*
X114719799Y-109273886D01*
X114750500Y-109159309D01*
X114750500Y-109040691D01*
X114719799Y-108926114D01*
X114719797Y-108926111D01*
X114719797Y-108926109D01*
X114660492Y-108823391D01*
X114660490Y-108823389D01*
X114660489Y-108823387D01*
X114576613Y-108739511D01*
X114576610Y-108739509D01*
X114576608Y-108739507D01*
X114473889Y-108680202D01*
X114473890Y-108680202D01*
X114460351Y-108676574D01*
X114359309Y-108649500D01*
X114240691Y-108649500D01*
X114170567Y-108668289D01*
X114126109Y-108680202D01*
X114023391Y-108739507D01*
X114023390Y-108739508D01*
X114023387Y-108739510D01*
X114023387Y-108739511D01*
X113970001Y-108792896D01*
X113915487Y-108820672D01*
X113855055Y-108811101D01*
X113829999Y-108792897D01*
X113776613Y-108739511D01*
X113776610Y-108739509D01*
X113776608Y-108739507D01*
X113673889Y-108680202D01*
X113673890Y-108680202D01*
X113660351Y-108676574D01*
X113559309Y-108649500D01*
X113440691Y-108649500D01*
X113370567Y-108668289D01*
X113326109Y-108680202D01*
X113223391Y-108739507D01*
X113223390Y-108739508D01*
X113223387Y-108739510D01*
X113223387Y-108739511D01*
X113170001Y-108792896D01*
X113115487Y-108820672D01*
X113055055Y-108811101D01*
X113029999Y-108792897D01*
X112976613Y-108739511D01*
X112976610Y-108739509D01*
X112976608Y-108739507D01*
X112873889Y-108680202D01*
X112873890Y-108680202D01*
X112860351Y-108676574D01*
X112759309Y-108649500D01*
X112640691Y-108649500D01*
X112570567Y-108668289D01*
X112526109Y-108680202D01*
X112423391Y-108739507D01*
X112339507Y-108823391D01*
X112280202Y-108926109D01*
X112280201Y-108926114D01*
X112249500Y-109040691D01*
X112249500Y-109159309D01*
X112276574Y-109260351D01*
X112280202Y-109273890D01*
X112339507Y-109376608D01*
X112339509Y-109376610D01*
X112339511Y-109376613D01*
X112423387Y-109460489D01*
X112423392Y-109460492D01*
X112484553Y-109495804D01*
X112525493Y-109541274D01*
X112531888Y-109602124D01*
X112501295Y-109655112D01*
X112445400Y-109679998D01*
X112444756Y-109680063D01*
X112145224Y-109709563D01*
X112145219Y-109709564D01*
X111563680Y-109885973D01*
X111563675Y-109885975D01*
X111027734Y-110172441D01*
X110557973Y-110557963D01*
X110557963Y-110557973D01*
X110172441Y-111027734D01*
X109885975Y-111563675D01*
X109885973Y-111563680D01*
X109709564Y-112145219D01*
X109709563Y-112145224D01*
X109650000Y-112749997D01*
X109650000Y-112750003D01*
X109709563Y-113354774D01*
X109709564Y-113354779D01*
X109885973Y-113936318D01*
X109885975Y-113936323D01*
X109976136Y-114105002D01*
X109986892Y-114165234D01*
X109960191Y-114220286D01*
X109906230Y-114249128D01*
X109863205Y-114247297D01*
X109837837Y-114240500D01*
X109837835Y-114240500D01*
X109738965Y-114240500D01*
X109680514Y-114256161D01*
X109643457Y-114266091D01*
X109557840Y-114315523D01*
X109487923Y-114385440D01*
X109438491Y-114471057D01*
X109430712Y-114500090D01*
X109412900Y-114566565D01*
X109412900Y-114665435D01*
X109421662Y-114698134D01*
X109438491Y-114760942D01*
X109487923Y-114846559D01*
X109487925Y-114846562D01*
X109557838Y-114916475D01*
X109557840Y-114916476D01*
X109643458Y-114965908D01*
X109643456Y-114965908D01*
X109643460Y-114965909D01*
X109643462Y-114965910D01*
X109738965Y-114991500D01*
X109738967Y-114991500D01*
X109837833Y-114991500D01*
X109837835Y-114991500D01*
X109933338Y-114965910D01*
X109933340Y-114965908D01*
X109933342Y-114965908D01*
X109958777Y-114951222D01*
X110018962Y-114916475D01*
X110088875Y-114846562D01*
X110138310Y-114760938D01*
X110155139Y-114698130D01*
X110188460Y-114646819D01*
X110245581Y-114624892D01*
X110304682Y-114640727D01*
X110327292Y-114660951D01*
X110441870Y-114800565D01*
X110557968Y-114942031D01*
X110663082Y-115028296D01*
X111027734Y-115327557D01*
X111563675Y-115614023D01*
X111563681Y-115614026D01*
X111958839Y-115733896D01*
X112145219Y-115790434D01*
X112145224Y-115790435D01*
X112749997Y-115850000D01*
X112750000Y-115850000D01*
X112750003Y-115850000D01*
X113354774Y-115790435D01*
X113354774Y-115790434D01*
X113354779Y-115790434D01*
X113484375Y-115751121D01*
X113545547Y-115752322D01*
X113583116Y-115775854D01*
X115288258Y-117480996D01*
X115316035Y-117535513D01*
X115306464Y-117595945D01*
X115263199Y-117639210D01*
X115218254Y-117650000D01*
X96060725Y-117650000D01*
X96002534Y-117631093D01*
X95966570Y-117581593D01*
X95966570Y-117520407D01*
X95974989Y-117501500D01*
X96019797Y-117423890D01*
X96019797Y-117423888D01*
X96019799Y-117423886D01*
X96050500Y-117309309D01*
X96050500Y-117190691D01*
X96019799Y-117076114D01*
X96019797Y-117076111D01*
X96019797Y-117076109D01*
X95960492Y-116973391D01*
X95960490Y-116973389D01*
X95960489Y-116973387D01*
X95957103Y-116970001D01*
X95929328Y-116915487D01*
X95938899Y-116855055D01*
X95957102Y-116829999D01*
X95960489Y-116826613D01*
X96019799Y-116723886D01*
X96050500Y-116609309D01*
X96050500Y-116490691D01*
X96019799Y-116376114D01*
X96019797Y-116376111D01*
X96019797Y-116376109D01*
X95960492Y-116273391D01*
X95960490Y-116273389D01*
X95960489Y-116273387D01*
X95876613Y-116189511D01*
X95876610Y-116189509D01*
X95876608Y-116189507D01*
X95773889Y-116130202D01*
X95773890Y-116130202D01*
X95760351Y-116126574D01*
X95659309Y-116099500D01*
X95540691Y-116099500D01*
X95470567Y-116118289D01*
X95426109Y-116130202D01*
X95323391Y-116189507D01*
X95239507Y-116273391D01*
X95180202Y-116376109D01*
X95180201Y-116376114D01*
X95149500Y-116490691D01*
X95149500Y-116609309D01*
X95176574Y-116710351D01*
X95180202Y-116723890D01*
X95239507Y-116826608D01*
X95239513Y-116826616D01*
X95242898Y-116830001D01*
X95270672Y-116884519D01*
X95261097Y-116944951D01*
X95242898Y-116969999D01*
X95239513Y-116973383D01*
X95239507Y-116973391D01*
X95180202Y-117076109D01*
X95180201Y-117076114D01*
X95149500Y-117190691D01*
X95149500Y-117309309D01*
X95176574Y-117410351D01*
X95180202Y-117423890D01*
X95225011Y-117501500D01*
X95237733Y-117561348D01*
X95212847Y-117617244D01*
X95159859Y-117647837D01*
X95139275Y-117650000D01*
X84781745Y-117650000D01*
X84723554Y-117631093D01*
X84687590Y-117581593D01*
X84687590Y-117520407D01*
X84711741Y-117480996D01*
X85116628Y-117076109D01*
X86416883Y-115775852D01*
X86471398Y-115748077D01*
X86515623Y-115751121D01*
X86645219Y-115790434D01*
X86645224Y-115790435D01*
X87249997Y-115850000D01*
X87250000Y-115850000D01*
X87250003Y-115850000D01*
X87854774Y-115790435D01*
X87854779Y-115790434D01*
X87980417Y-115752322D01*
X88436318Y-115614026D01*
X88678742Y-115484447D01*
X88972264Y-115327557D01*
X88972265Y-115327555D01*
X88972267Y-115327555D01*
X89442031Y-114942031D01*
X89558128Y-114800565D01*
X97374500Y-114800565D01*
X97374500Y-114899435D01*
X97392312Y-114965910D01*
X97400091Y-114994942D01*
X97449523Y-115080559D01*
X97449525Y-115080562D01*
X97519438Y-115150475D01*
X97519440Y-115150476D01*
X97605058Y-115199908D01*
X97605056Y-115199908D01*
X97605060Y-115199909D01*
X97605062Y-115199910D01*
X97700565Y-115225500D01*
X97700567Y-115225500D01*
X97799433Y-115225500D01*
X97799435Y-115225500D01*
X97894938Y-115199910D01*
X97894940Y-115199908D01*
X97894942Y-115199908D01*
X97920377Y-115185222D01*
X97980562Y-115150475D01*
X98050475Y-115080562D01*
X98099910Y-114994938D01*
X98125500Y-114899435D01*
X98125500Y-114800565D01*
X98099910Y-114705062D01*
X98099908Y-114705059D01*
X98099908Y-114705057D01*
X98050476Y-114619440D01*
X98050475Y-114619438D01*
X97980562Y-114549525D01*
X97980559Y-114549523D01*
X97894941Y-114500091D01*
X97894943Y-114500091D01*
X97857885Y-114490161D01*
X97799435Y-114474500D01*
X97700565Y-114474500D01*
X97642114Y-114490161D01*
X97605057Y-114500091D01*
X97519440Y-114549523D01*
X97449523Y-114619440D01*
X97400091Y-114705057D01*
X97400090Y-114705062D01*
X97374500Y-114800565D01*
X89558128Y-114800565D01*
X89568036Y-114788492D01*
X89614997Y-114731271D01*
X89764153Y-114549523D01*
X89827555Y-114472267D01*
X89911336Y-114315525D01*
X90114023Y-113936323D01*
X90114026Y-113936318D01*
X90290434Y-113354779D01*
X90290435Y-113354774D01*
X90350000Y-112750003D01*
X90350000Y-112749997D01*
X90290435Y-112145224D01*
X90290434Y-112145219D01*
X90161789Y-111721135D01*
X90131797Y-111622265D01*
X98613000Y-111622265D01*
X98613000Y-111721135D01*
X98635567Y-111805357D01*
X98638591Y-111816642D01*
X98688023Y-111902259D01*
X98688025Y-111902262D01*
X98757938Y-111972175D01*
X98757940Y-111972176D01*
X98843558Y-112021608D01*
X98843556Y-112021608D01*
X98843560Y-112021609D01*
X98843562Y-112021610D01*
X98939065Y-112047200D01*
X98939067Y-112047200D01*
X99037933Y-112047200D01*
X99037935Y-112047200D01*
X99133438Y-112021610D01*
X99133440Y-112021608D01*
X99133442Y-112021608D01*
X99158877Y-112006922D01*
X99219062Y-111972175D01*
X99288975Y-111902262D01*
X99338410Y-111816638D01*
X99364000Y-111721135D01*
X99364000Y-111622265D01*
X99338410Y-111526762D01*
X99338408Y-111526759D01*
X99338408Y-111526757D01*
X99288976Y-111441140D01*
X99288975Y-111441138D01*
X99219062Y-111371225D01*
X99183124Y-111350476D01*
X99133441Y-111321791D01*
X99133443Y-111321791D01*
X99096385Y-111311861D01*
X99037935Y-111296200D01*
X98939065Y-111296200D01*
X98880614Y-111311861D01*
X98843557Y-111321791D01*
X98757940Y-111371223D01*
X98688023Y-111441140D01*
X98638591Y-111526757D01*
X98624283Y-111580153D01*
X98613000Y-111622265D01*
X90131797Y-111622265D01*
X90114026Y-111563681D01*
X90114023Y-111563675D01*
X89827557Y-111027734D01*
X89442035Y-110557973D01*
X89442031Y-110557968D01*
X89183216Y-110345565D01*
X93919500Y-110345565D01*
X93919500Y-110444435D01*
X93929630Y-110482240D01*
X93945091Y-110539942D01*
X93994489Y-110625500D01*
X93994525Y-110625562D01*
X94064438Y-110695475D01*
X94072433Y-110700091D01*
X94150058Y-110744908D01*
X94150056Y-110744908D01*
X94150060Y-110744909D01*
X94150062Y-110744910D01*
X94245565Y-110770500D01*
X94245567Y-110770500D01*
X94257663Y-110770500D01*
X94315854Y-110789407D01*
X94351818Y-110838907D01*
X94351818Y-110900093D01*
X94350371Y-110904014D01*
X94350090Y-110905061D01*
X94350090Y-110905062D01*
X94324500Y-111000565D01*
X94324500Y-111099435D01*
X94347067Y-111183657D01*
X94350091Y-111194942D01*
X94399523Y-111280559D01*
X94399525Y-111280562D01*
X94469438Y-111350475D01*
X94469440Y-111350476D01*
X94555058Y-111399908D01*
X94555056Y-111399908D01*
X94555060Y-111399909D01*
X94555062Y-111399910D01*
X94650565Y-111425500D01*
X94650567Y-111425500D01*
X94749433Y-111425500D01*
X94749435Y-111425500D01*
X94844938Y-111399910D01*
X94844940Y-111399908D01*
X94844942Y-111399908D01*
X94870377Y-111385222D01*
X94930562Y-111350475D01*
X95000475Y-111280562D01*
X95049910Y-111194938D01*
X95075500Y-111099435D01*
X95075500Y-111000565D01*
X95049910Y-110905062D01*
X95049908Y-110905059D01*
X95049908Y-110905057D01*
X95000476Y-110819440D01*
X95000475Y-110819438D01*
X94930562Y-110749525D01*
X94918587Y-110742611D01*
X94918586Y-110742610D01*
X94844941Y-110700091D01*
X94844943Y-110700091D01*
X94807885Y-110690161D01*
X94749435Y-110674500D01*
X94737337Y-110674500D01*
X94703066Y-110663365D01*
X99004600Y-110663365D01*
X99004600Y-110762235D01*
X99006815Y-110770500D01*
X99030191Y-110857742D01*
X99079623Y-110943359D01*
X99079625Y-110943362D01*
X99149538Y-111013275D01*
X99149540Y-111013276D01*
X99235158Y-111062708D01*
X99235156Y-111062708D01*
X99235160Y-111062709D01*
X99235162Y-111062710D01*
X99330665Y-111088300D01*
X99330667Y-111088300D01*
X99429533Y-111088300D01*
X99429535Y-111088300D01*
X99525038Y-111062710D01*
X99525040Y-111062708D01*
X99525042Y-111062708D01*
X99585618Y-111027734D01*
X99610662Y-111013275D01*
X99680575Y-110943362D01*
X99730010Y-110857738D01*
X99755600Y-110762235D01*
X99755600Y-110663365D01*
X99730010Y-110567862D01*
X99730008Y-110567859D01*
X99730008Y-110567857D01*
X99680576Y-110482240D01*
X99680575Y-110482238D01*
X99610662Y-110412325D01*
X99580554Y-110394942D01*
X99525041Y-110362891D01*
X99525043Y-110362891D01*
X99487985Y-110352961D01*
X99429535Y-110337300D01*
X99330665Y-110337300D01*
X99272214Y-110352961D01*
X99235157Y-110362891D01*
X99149540Y-110412323D01*
X99079623Y-110482240D01*
X99030191Y-110567857D01*
X99030190Y-110567862D01*
X99004600Y-110663365D01*
X94703066Y-110663365D01*
X94679146Y-110655593D01*
X94643182Y-110606093D01*
X94643182Y-110544907D01*
X94644628Y-110540985D01*
X94644907Y-110539942D01*
X94644910Y-110539938D01*
X94670500Y-110444435D01*
X94670500Y-110345565D01*
X94644910Y-110250062D01*
X94616333Y-110200566D01*
X94616332Y-110200565D01*
X109524500Y-110200565D01*
X109524500Y-110299435D01*
X109534646Y-110337300D01*
X109550091Y-110394942D01*
X109599523Y-110480559D01*
X109599525Y-110480562D01*
X109669438Y-110550475D01*
X109669440Y-110550476D01*
X109755058Y-110599908D01*
X109755056Y-110599908D01*
X109755060Y-110599909D01*
X109755062Y-110599910D01*
X109850565Y-110625500D01*
X109850567Y-110625500D01*
X109949433Y-110625500D01*
X109949435Y-110625500D01*
X110044938Y-110599910D01*
X110044940Y-110599908D01*
X110044942Y-110599908D01*
X110070377Y-110585222D01*
X110130562Y-110550475D01*
X110200475Y-110480562D01*
X110235222Y-110420377D01*
X110249908Y-110394942D01*
X110249908Y-110394940D01*
X110249910Y-110394938D01*
X110275500Y-110299435D01*
X110275500Y-110200565D01*
X110249910Y-110105062D01*
X110249908Y-110105059D01*
X110249908Y-110105057D01*
X110200476Y-110019440D01*
X110200475Y-110019438D01*
X110130562Y-109949525D01*
X110130559Y-109949523D01*
X110044941Y-109900091D01*
X110044943Y-109900091D01*
X109992260Y-109885975D01*
X109949435Y-109874500D01*
X109850565Y-109874500D01*
X109807740Y-109885975D01*
X109755057Y-109900091D01*
X109669440Y-109949523D01*
X109599523Y-110019440D01*
X109550091Y-110105057D01*
X109550090Y-110105062D01*
X109524500Y-110200565D01*
X94616332Y-110200565D01*
X94600097Y-110172444D01*
X94595475Y-110164438D01*
X94525562Y-110094525D01*
X94525559Y-110094523D01*
X94439941Y-110045091D01*
X94439943Y-110045091D01*
X94402885Y-110035161D01*
X94344435Y-110019500D01*
X94245565Y-110019500D01*
X94187114Y-110035161D01*
X94150057Y-110045091D01*
X94064440Y-110094523D01*
X93994523Y-110164440D01*
X93945091Y-110250057D01*
X93930783Y-110303453D01*
X93919500Y-110345565D01*
X89183216Y-110345565D01*
X89066845Y-110250062D01*
X88972264Y-110172441D01*
X88436323Y-109885975D01*
X88436318Y-109885973D01*
X87854779Y-109709564D01*
X87854774Y-109709563D01*
X87682525Y-109692599D01*
X87250003Y-109650000D01*
X87249997Y-109650000D01*
X86645224Y-109709563D01*
X86645219Y-109709564D01*
X86063680Y-109885973D01*
X86063675Y-109885975D01*
X85527734Y-110172441D01*
X85057973Y-110557963D01*
X85057963Y-110557973D01*
X84672441Y-111027734D01*
X84385975Y-111563675D01*
X84385973Y-111563680D01*
X84209564Y-112145219D01*
X84209563Y-112145224D01*
X84150000Y-112749997D01*
X84150000Y-112750003D01*
X84209563Y-113354774D01*
X84209564Y-113354779D01*
X84248876Y-113484373D01*
X84247675Y-113545547D01*
X84224143Y-113583115D01*
X82519004Y-115288255D01*
X82464487Y-115316032D01*
X82404055Y-115306461D01*
X82360790Y-115263196D01*
X82350000Y-115218251D01*
X82350000Y-109600565D01*
X108774500Y-109600565D01*
X108774500Y-109699435D01*
X108786505Y-109744237D01*
X108800091Y-109794942D01*
X108846025Y-109874500D01*
X108849525Y-109880562D01*
X108919438Y-109950475D01*
X108919440Y-109950476D01*
X109005058Y-109999908D01*
X109005056Y-109999908D01*
X109005060Y-109999909D01*
X109005062Y-109999910D01*
X109100565Y-110025500D01*
X109100567Y-110025500D01*
X109199433Y-110025500D01*
X109199435Y-110025500D01*
X109294938Y-109999910D01*
X109294940Y-109999908D01*
X109294942Y-109999908D01*
X109320377Y-109985222D01*
X109380562Y-109950475D01*
X109450475Y-109880562D01*
X109499910Y-109794938D01*
X109525500Y-109699435D01*
X109525500Y-109600565D01*
X109499910Y-109505062D01*
X109499908Y-109505059D01*
X109499908Y-109505057D01*
X109450476Y-109419440D01*
X109450475Y-109419438D01*
X109380562Y-109349525D01*
X109380559Y-109349523D01*
X109380556Y-109349520D01*
X109376621Y-109346501D01*
X109341963Y-109296078D01*
X109343562Y-109234914D01*
X109380808Y-109186371D01*
X109411257Y-109172332D01*
X109494938Y-109149910D01*
X109494941Y-109149908D01*
X109494942Y-109149908D01*
X109533078Y-109127890D01*
X109580562Y-109100475D01*
X109650475Y-109030562D01*
X109699910Y-108944938D01*
X109725500Y-108849435D01*
X109725500Y-108750565D01*
X109699910Y-108655062D01*
X109699908Y-108655059D01*
X109699908Y-108655057D01*
X109650476Y-108569440D01*
X109650475Y-108569438D01*
X109580562Y-108499525D01*
X109580559Y-108499523D01*
X109494941Y-108450091D01*
X109494943Y-108450091D01*
X109457885Y-108440161D01*
X109399435Y-108424500D01*
X109300565Y-108424500D01*
X109242114Y-108440161D01*
X109205057Y-108450091D01*
X109119440Y-108499523D01*
X109049523Y-108569440D01*
X109000091Y-108655057D01*
X109000090Y-108655062D01*
X108974500Y-108750565D01*
X108974500Y-108849435D01*
X108986627Y-108894692D01*
X109000091Y-108944942D01*
X109039564Y-109013309D01*
X109049525Y-109030562D01*
X109119438Y-109100475D01*
X109119440Y-109100476D01*
X109119441Y-109100477D01*
X109123377Y-109103497D01*
X109158036Y-109153919D01*
X109156437Y-109215084D01*
X109119193Y-109263628D01*
X109088738Y-109277668D01*
X109005062Y-109300089D01*
X109005058Y-109300091D01*
X108919440Y-109349523D01*
X108849523Y-109419440D01*
X108800091Y-109505057D01*
X108800090Y-109505062D01*
X108774500Y-109600565D01*
X82350000Y-109600565D01*
X82350000Y-108518565D01*
X91513600Y-108518565D01*
X91513600Y-108617435D01*
X91536167Y-108701657D01*
X91539191Y-108712942D01*
X91577971Y-108780109D01*
X91588625Y-108798562D01*
X91658538Y-108868475D01*
X91658540Y-108868476D01*
X91744158Y-108917908D01*
X91744156Y-108917908D01*
X91744160Y-108917909D01*
X91744162Y-108917910D01*
X91839665Y-108943500D01*
X91839667Y-108943500D01*
X91938533Y-108943500D01*
X91938535Y-108943500D01*
X92034038Y-108917910D01*
X92034040Y-108917908D01*
X92034042Y-108917908D01*
X92059477Y-108903222D01*
X92074253Y-108894691D01*
X106731500Y-108894691D01*
X106731500Y-109013309D01*
X106754857Y-109100477D01*
X106762202Y-109127890D01*
X106821507Y-109230608D01*
X106821509Y-109230610D01*
X106821511Y-109230613D01*
X106905387Y-109314489D01*
X106905389Y-109314490D01*
X106905391Y-109314492D01*
X107008110Y-109373797D01*
X107008111Y-109373797D01*
X107008114Y-109373799D01*
X107122691Y-109404500D01*
X107122693Y-109404500D01*
X107241307Y-109404500D01*
X107241309Y-109404500D01*
X107355886Y-109373799D01*
X107355888Y-109373797D01*
X107355890Y-109373797D01*
X107458608Y-109314492D01*
X107458608Y-109314491D01*
X107458613Y-109314489D01*
X107542489Y-109230613D01*
X107551455Y-109215084D01*
X107601797Y-109127890D01*
X107601797Y-109127888D01*
X107601799Y-109127886D01*
X107632500Y-109013309D01*
X107632500Y-108894691D01*
X107601799Y-108780114D01*
X107601797Y-108780111D01*
X107601797Y-108780109D01*
X107542492Y-108677391D01*
X107542490Y-108677389D01*
X107542489Y-108677387D01*
X107458613Y-108593511D01*
X107458610Y-108593509D01*
X107458608Y-108593507D01*
X107355889Y-108534202D01*
X107355890Y-108534202D01*
X107342351Y-108530574D01*
X107241309Y-108503500D01*
X107122691Y-108503500D01*
X107052567Y-108522289D01*
X107008109Y-108534202D01*
X106905391Y-108593507D01*
X106821507Y-108677391D01*
X106762202Y-108780109D01*
X106757258Y-108798562D01*
X106731500Y-108894691D01*
X92074253Y-108894691D01*
X92119662Y-108868475D01*
X92189575Y-108798562D01*
X92239010Y-108712938D01*
X92264600Y-108617435D01*
X92264600Y-108518565D01*
X92239010Y-108423062D01*
X92239008Y-108423059D01*
X92239008Y-108423057D01*
X92194809Y-108346503D01*
X92189575Y-108337438D01*
X92119662Y-108267525D01*
X92119659Y-108267523D01*
X92034041Y-108218091D01*
X92034043Y-108218091D01*
X91996985Y-108208161D01*
X91938535Y-108192500D01*
X91839665Y-108192500D01*
X91781214Y-108208161D01*
X91744157Y-108218091D01*
X91658540Y-108267523D01*
X91588623Y-108337440D01*
X91539191Y-108423057D01*
X91524883Y-108476453D01*
X91513600Y-108518565D01*
X82350000Y-108518565D01*
X82350000Y-107893982D01*
X96324500Y-107893982D01*
X96324500Y-108006018D01*
X96350072Y-108101455D01*
X96353498Y-108114241D01*
X96398682Y-108192500D01*
X96409515Y-108211263D01*
X96488737Y-108290485D01*
X96488739Y-108290486D01*
X96585759Y-108346501D01*
X96585757Y-108346501D01*
X96585761Y-108346502D01*
X96585763Y-108346503D01*
X96693982Y-108375500D01*
X96693984Y-108375500D01*
X96806016Y-108375500D01*
X96806018Y-108375500D01*
X96914237Y-108346503D01*
X96914239Y-108346501D01*
X96914241Y-108346501D01*
X96943064Y-108329859D01*
X97011263Y-108290485D01*
X97090485Y-108211263D01*
X97146503Y-108114237D01*
X97175500Y-108006018D01*
X97175500Y-107893982D01*
X97146503Y-107785763D01*
X97146501Y-107785760D01*
X97146501Y-107785758D01*
X97090486Y-107688739D01*
X97090485Y-107688737D01*
X97011263Y-107609515D01*
X97011260Y-107609513D01*
X96914240Y-107553498D01*
X96914242Y-107553498D01*
X96892591Y-107547697D01*
X96806018Y-107524500D01*
X96693982Y-107524500D01*
X96627748Y-107542247D01*
X96585758Y-107553498D01*
X96488739Y-107609513D01*
X96409513Y-107688739D01*
X96353498Y-107785758D01*
X96337286Y-107846263D01*
X96324500Y-107893982D01*
X82350000Y-107893982D01*
X82350000Y-107343982D01*
X92874500Y-107343982D01*
X92874500Y-107456018D01*
X92892850Y-107524500D01*
X92903498Y-107564241D01*
X92950092Y-107644942D01*
X92959515Y-107661263D01*
X93038737Y-107740485D01*
X93038739Y-107740486D01*
X93135759Y-107796501D01*
X93135757Y-107796501D01*
X93135761Y-107796502D01*
X93135763Y-107796503D01*
X93243982Y-107825500D01*
X93243984Y-107825500D01*
X93356016Y-107825500D01*
X93356018Y-107825500D01*
X93464237Y-107796503D01*
X93464239Y-107796501D01*
X93464241Y-107796501D01*
X93493064Y-107779859D01*
X93561263Y-107740485D01*
X93640485Y-107661263D01*
X93696503Y-107564237D01*
X93725500Y-107456018D01*
X93725500Y-107450565D01*
X94374500Y-107450565D01*
X94374500Y-107549435D01*
X94397067Y-107633657D01*
X94400091Y-107644942D01*
X94425377Y-107688737D01*
X94449525Y-107730562D01*
X94519438Y-107800475D01*
X94521667Y-107801762D01*
X94605058Y-107849908D01*
X94605056Y-107849908D01*
X94605060Y-107849909D01*
X94605062Y-107849910D01*
X94700565Y-107875500D01*
X94700567Y-107875500D01*
X94799433Y-107875500D01*
X94799435Y-107875500D01*
X94894938Y-107849910D01*
X94894940Y-107849908D01*
X94894942Y-107849908D01*
X94937217Y-107825500D01*
X94980562Y-107800475D01*
X95050475Y-107730562D01*
X95090485Y-107661263D01*
X95099908Y-107644942D01*
X95099908Y-107644940D01*
X95099910Y-107644938D01*
X95125500Y-107549435D01*
X95125500Y-107450565D01*
X114524500Y-107450565D01*
X114524500Y-107549435D01*
X114547067Y-107633657D01*
X114550091Y-107644942D01*
X114575377Y-107688737D01*
X114599525Y-107730562D01*
X114669438Y-107800475D01*
X114671667Y-107801762D01*
X114755058Y-107849908D01*
X114755056Y-107849908D01*
X114755060Y-107849909D01*
X114755062Y-107849910D01*
X114850565Y-107875500D01*
X114850567Y-107875500D01*
X114949433Y-107875500D01*
X114949435Y-107875500D01*
X115044938Y-107849910D01*
X115044940Y-107849908D01*
X115044942Y-107849908D01*
X115087217Y-107825500D01*
X115130562Y-107800475D01*
X115200475Y-107730562D01*
X115240485Y-107661263D01*
X115249908Y-107644942D01*
X115249908Y-107644940D01*
X115249910Y-107644938D01*
X115275500Y-107549435D01*
X115275500Y-107450565D01*
X115249910Y-107355062D01*
X115249908Y-107355059D01*
X115249908Y-107355057D01*
X115200476Y-107269440D01*
X115200475Y-107269438D01*
X115130562Y-107199525D01*
X115118372Y-107192487D01*
X115044941Y-107150091D01*
X115044943Y-107150091D01*
X115007885Y-107140161D01*
X114949435Y-107124500D01*
X114850565Y-107124500D01*
X114792114Y-107140161D01*
X114755057Y-107150091D01*
X114669440Y-107199523D01*
X114599523Y-107269440D01*
X114550091Y-107355057D01*
X114550090Y-107355062D01*
X114524500Y-107450565D01*
X95125500Y-107450565D01*
X95099910Y-107355062D01*
X95099908Y-107355059D01*
X95099908Y-107355057D01*
X95050476Y-107269440D01*
X95050475Y-107269438D01*
X94980562Y-107199525D01*
X94968372Y-107192487D01*
X94894941Y-107150091D01*
X94894943Y-107150091D01*
X94857885Y-107140161D01*
X94799435Y-107124500D01*
X94700565Y-107124500D01*
X94642114Y-107140161D01*
X94605057Y-107150091D01*
X94519440Y-107199523D01*
X94449523Y-107269440D01*
X94400091Y-107355057D01*
X94400090Y-107355062D01*
X94374500Y-107450565D01*
X93725500Y-107450565D01*
X93725500Y-107343982D01*
X93696503Y-107235763D01*
X93696501Y-107235760D01*
X93696501Y-107235758D01*
X93640486Y-107138739D01*
X93640485Y-107138737D01*
X93561263Y-107059515D01*
X93561260Y-107059513D01*
X93464240Y-107003498D01*
X93464242Y-107003498D01*
X93422251Y-106992247D01*
X93356018Y-106974500D01*
X93243982Y-106974500D01*
X93177748Y-106992247D01*
X93135758Y-107003498D01*
X93038739Y-107059513D01*
X92959513Y-107138739D01*
X92903498Y-107235758D01*
X92895717Y-107264797D01*
X92874500Y-107343982D01*
X82350000Y-107343982D01*
X82350000Y-106785691D01*
X104875500Y-106785691D01*
X104875500Y-106904309D01*
X104889634Y-106957057D01*
X104906202Y-107018890D01*
X104965507Y-107121608D01*
X104965509Y-107121610D01*
X104965511Y-107121613D01*
X105049387Y-107205489D01*
X105049389Y-107205490D01*
X105049391Y-107205492D01*
X105152110Y-107264797D01*
X105152111Y-107264797D01*
X105152114Y-107264799D01*
X105266691Y-107295500D01*
X105266693Y-107295500D01*
X105385307Y-107295500D01*
X105385309Y-107295500D01*
X105499886Y-107264799D01*
X105499888Y-107264797D01*
X105499890Y-107264797D01*
X105602608Y-107205492D01*
X105602608Y-107205491D01*
X105602613Y-107205489D01*
X105686489Y-107121613D01*
X105745799Y-107018886D01*
X105776500Y-106904309D01*
X105776500Y-106785691D01*
X105745799Y-106671114D01*
X105745797Y-106671111D01*
X105745797Y-106671109D01*
X105686492Y-106568391D01*
X105686490Y-106568389D01*
X105686489Y-106568387D01*
X105602613Y-106484511D01*
X105602606Y-106484507D01*
X105594476Y-106479813D01*
X105594475Y-106479812D01*
X105594474Y-106479812D01*
X105499888Y-106425202D01*
X105499887Y-106425201D01*
X105499886Y-106425201D01*
X105407944Y-106400565D01*
X107474500Y-106400565D01*
X107474500Y-106499435D01*
X107492218Y-106565559D01*
X107500091Y-106594942D01*
X107544067Y-106671109D01*
X107549525Y-106680562D01*
X107619438Y-106750475D01*
X107622237Y-106752091D01*
X107705058Y-106799908D01*
X107705056Y-106799908D01*
X107705060Y-106799909D01*
X107705062Y-106799910D01*
X107800565Y-106825500D01*
X107800567Y-106825500D01*
X107899433Y-106825500D01*
X107899435Y-106825500D01*
X107994938Y-106799910D01*
X107994940Y-106799908D01*
X107994942Y-106799908D01*
X108041622Y-106772957D01*
X108080562Y-106750475D01*
X108150475Y-106680562D01*
X108199910Y-106594938D01*
X108225500Y-106499435D01*
X108225500Y-106440565D01*
X114222200Y-106440565D01*
X114222200Y-106539435D01*
X114229200Y-106565559D01*
X114247791Y-106634942D01*
X114297223Y-106720559D01*
X114297225Y-106720562D01*
X114367138Y-106790475D01*
X114383480Y-106799910D01*
X114452758Y-106839908D01*
X114452756Y-106839908D01*
X114452760Y-106839909D01*
X114452762Y-106839910D01*
X114548265Y-106865500D01*
X114548267Y-106865500D01*
X114647133Y-106865500D01*
X114647135Y-106865500D01*
X114742638Y-106839910D01*
X114742640Y-106839908D01*
X114742642Y-106839908D01*
X114768077Y-106825222D01*
X114828262Y-106790475D01*
X114898175Y-106720562D01*
X114932922Y-106660377D01*
X114947608Y-106634942D01*
X114947608Y-106634940D01*
X114947610Y-106634938D01*
X114973200Y-106539435D01*
X114973200Y-106440565D01*
X114947610Y-106345062D01*
X114947608Y-106345059D01*
X114947608Y-106345057D01*
X114898176Y-106259440D01*
X114898175Y-106259438D01*
X114828262Y-106189525D01*
X114742638Y-106140090D01*
X114647135Y-106114500D01*
X114548265Y-106114500D01*
X114489814Y-106130161D01*
X114452757Y-106140091D01*
X114367140Y-106189523D01*
X114297223Y-106259440D01*
X114247791Y-106345057D01*
X114237240Y-106384435D01*
X114222200Y-106440565D01*
X108225500Y-106440565D01*
X108225500Y-106400565D01*
X108199910Y-106305062D01*
X108199908Y-106305059D01*
X108199908Y-106305057D01*
X108150476Y-106219440D01*
X108150475Y-106219438D01*
X108080562Y-106149525D01*
X108064222Y-106140091D01*
X108015680Y-106112065D01*
X115626200Y-106112065D01*
X115626200Y-106210935D01*
X115639197Y-106259440D01*
X115651791Y-106306442D01*
X115701223Y-106392059D01*
X115701225Y-106392062D01*
X115771138Y-106461975D01*
X115771140Y-106461976D01*
X115856758Y-106511408D01*
X115856756Y-106511408D01*
X115856760Y-106511409D01*
X115856762Y-106511410D01*
X115952265Y-106537000D01*
X115952267Y-106537000D01*
X116051133Y-106537000D01*
X116051135Y-106537000D01*
X116146638Y-106511410D01*
X116146640Y-106511408D01*
X116146642Y-106511408D01*
X116193228Y-106484511D01*
X116232262Y-106461975D01*
X116302175Y-106392062D01*
X116351610Y-106306438D01*
X116377200Y-106210935D01*
X116377200Y-106112065D01*
X116351610Y-106016562D01*
X116351608Y-106016559D01*
X116351608Y-106016557D01*
X116302176Y-105930940D01*
X116302175Y-105930938D01*
X116232262Y-105861025D01*
X116232259Y-105861023D01*
X116146641Y-105811591D01*
X116146643Y-105811591D01*
X116109585Y-105801661D01*
X116051135Y-105786000D01*
X115952265Y-105786000D01*
X115893814Y-105801661D01*
X115856757Y-105811591D01*
X115771140Y-105861023D01*
X115701223Y-105930940D01*
X115651791Y-106016557D01*
X115651790Y-106016562D01*
X115626200Y-106112065D01*
X108015680Y-106112065D01*
X107994941Y-106100091D01*
X107994943Y-106100091D01*
X107957885Y-106090161D01*
X107899435Y-106074500D01*
X107800565Y-106074500D01*
X107742114Y-106090161D01*
X107705057Y-106100091D01*
X107619440Y-106149523D01*
X107549523Y-106219440D01*
X107500091Y-106305057D01*
X107500090Y-106305062D01*
X107474500Y-106400565D01*
X105407944Y-106400565D01*
X105385309Y-106394500D01*
X105266691Y-106394500D01*
X105196567Y-106413289D01*
X105152109Y-106425202D01*
X105049391Y-106484507D01*
X104965507Y-106568391D01*
X104906202Y-106671109D01*
X104906201Y-106671114D01*
X104875500Y-106785691D01*
X82350000Y-106785691D01*
X82350000Y-106350565D01*
X82824500Y-106350565D01*
X82824500Y-106449435D01*
X82841106Y-106511408D01*
X82850091Y-106544942D01*
X82899523Y-106630559D01*
X82899525Y-106630562D01*
X82969438Y-106700475D01*
X82969440Y-106700476D01*
X83055058Y-106749908D01*
X83055056Y-106749908D01*
X83055060Y-106749909D01*
X83055062Y-106749910D01*
X83150565Y-106775500D01*
X83150567Y-106775500D01*
X83249433Y-106775500D01*
X83249435Y-106775500D01*
X83344938Y-106749910D01*
X83344940Y-106749908D01*
X83344942Y-106749908D01*
X83395775Y-106720559D01*
X83430562Y-106700475D01*
X83500475Y-106630562D01*
X83538003Y-106565562D01*
X83549908Y-106544942D01*
X83549908Y-106544940D01*
X83549910Y-106544938D01*
X83575500Y-106449435D01*
X83575500Y-106350565D01*
X83552885Y-106266165D01*
X92473400Y-106266165D01*
X92473400Y-106365035D01*
X92489522Y-106425202D01*
X92498991Y-106460542D01*
X92548423Y-106546159D01*
X92548425Y-106546162D01*
X92618338Y-106616075D01*
X92618340Y-106616076D01*
X92703958Y-106665508D01*
X92703956Y-106665508D01*
X92703960Y-106665509D01*
X92703962Y-106665510D01*
X92799465Y-106691100D01*
X92799467Y-106691100D01*
X92898333Y-106691100D01*
X92898335Y-106691100D01*
X92993838Y-106665510D01*
X92993840Y-106665508D01*
X92993842Y-106665508D01*
X93046790Y-106634938D01*
X93079462Y-106616075D01*
X93149375Y-106546162D01*
X93197980Y-106461976D01*
X93198808Y-106460542D01*
X93198808Y-106460540D01*
X93198810Y-106460538D01*
X93224400Y-106365035D01*
X93224400Y-106285565D01*
X103379500Y-106285565D01*
X103379500Y-106384435D01*
X103390424Y-106425202D01*
X103405091Y-106479942D01*
X103443324Y-106546162D01*
X103454525Y-106565562D01*
X103524438Y-106635475D01*
X103524440Y-106635476D01*
X103610058Y-106684908D01*
X103610056Y-106684908D01*
X103610060Y-106684909D01*
X103610062Y-106684910D01*
X103705565Y-106710500D01*
X103705567Y-106710500D01*
X103804433Y-106710500D01*
X103804435Y-106710500D01*
X103899938Y-106684910D01*
X103899940Y-106684908D01*
X103899942Y-106684908D01*
X103933543Y-106665508D01*
X103985562Y-106635475D01*
X104055475Y-106565562D01*
X104104910Y-106479938D01*
X104130500Y-106384435D01*
X104130500Y-106285565D01*
X104104910Y-106190062D01*
X104104908Y-106190059D01*
X104104908Y-106190057D01*
X104055476Y-106104440D01*
X104055475Y-106104438D01*
X103985562Y-106034525D01*
X103985559Y-106034523D01*
X103899941Y-105985091D01*
X103899943Y-105985091D01*
X103862885Y-105975161D01*
X103804435Y-105959500D01*
X103705565Y-105959500D01*
X103647114Y-105975161D01*
X103610057Y-105985091D01*
X103524440Y-106034523D01*
X103454523Y-106104440D01*
X103405091Y-106190057D01*
X103399497Y-106210935D01*
X103379500Y-106285565D01*
X93224400Y-106285565D01*
X93224400Y-106266165D01*
X93198810Y-106170662D01*
X93198808Y-106170659D01*
X93198808Y-106170657D01*
X93149376Y-106085040D01*
X93149375Y-106085038D01*
X93079462Y-106015125D01*
X93027442Y-105985091D01*
X92993841Y-105965691D01*
X92993843Y-105965691D01*
X92956785Y-105955761D01*
X92898335Y-105940100D01*
X92799465Y-105940100D01*
X92741014Y-105955761D01*
X92703957Y-105965691D01*
X92618340Y-106015123D01*
X92548423Y-106085040D01*
X92498991Y-106170657D01*
X92493793Y-106190057D01*
X92473400Y-106266165D01*
X83552885Y-106266165D01*
X83549910Y-106255062D01*
X83529342Y-106219438D01*
X83500476Y-106169440D01*
X83500475Y-106169438D01*
X83430562Y-106099525D01*
X83430559Y-106099523D01*
X83344941Y-106050091D01*
X83344943Y-106050091D01*
X83307885Y-106040161D01*
X83249435Y-106024500D01*
X83150565Y-106024500D01*
X83092114Y-106040161D01*
X83055057Y-106050091D01*
X82969440Y-106099523D01*
X82899523Y-106169440D01*
X82850091Y-106255057D01*
X82836324Y-106306438D01*
X82824500Y-106350565D01*
X82350000Y-106350565D01*
X82350000Y-105226565D01*
X95389300Y-105226565D01*
X95389300Y-105325435D01*
X95398673Y-105360416D01*
X95414891Y-105420942D01*
X95451823Y-105484908D01*
X95464325Y-105506562D01*
X95534238Y-105576475D01*
X95534240Y-105576476D01*
X95619858Y-105625908D01*
X95619856Y-105625908D01*
X95619860Y-105625909D01*
X95619862Y-105625910D01*
X95715365Y-105651500D01*
X95715367Y-105651500D01*
X95814233Y-105651500D01*
X95814235Y-105651500D01*
X95909738Y-105625910D01*
X95909740Y-105625908D01*
X95909742Y-105625908D01*
X95935177Y-105611222D01*
X95995362Y-105576475D01*
X96065275Y-105506562D01*
X96100022Y-105446377D01*
X96114708Y-105420942D01*
X96114708Y-105420940D01*
X96114710Y-105420938D01*
X96140300Y-105325435D01*
X96140300Y-105226565D01*
X96114710Y-105131062D01*
X96114708Y-105131059D01*
X96114708Y-105131057D01*
X96065276Y-105045440D01*
X96065275Y-105045438D01*
X95995362Y-104975525D01*
X95995359Y-104975523D01*
X95909741Y-104926091D01*
X95909743Y-104926091D01*
X95860001Y-104912763D01*
X95814235Y-104900500D01*
X95715365Y-104900500D01*
X95669599Y-104912763D01*
X95619857Y-104926091D01*
X95534240Y-104975523D01*
X95464323Y-105045440D01*
X95414891Y-105131057D01*
X95408326Y-105155559D01*
X95389300Y-105226565D01*
X82350000Y-105226565D01*
X82350000Y-104170000D01*
X84275143Y-104170000D01*
X84750193Y-104170000D01*
X84730445Y-104204205D01*
X84710001Y-104280504D01*
X84710001Y-104359496D01*
X84730445Y-104435795D01*
X84750193Y-104470000D01*
X84275143Y-104470000D01*
X84288822Y-104538767D01*
X84345358Y-104675257D01*
X84427434Y-104798093D01*
X84531906Y-104902565D01*
X84654742Y-104984641D01*
X84791229Y-105041176D01*
X84791235Y-105041178D01*
X84936128Y-105069999D01*
X84936132Y-105070000D01*
X85259999Y-105070000D01*
X85260000Y-105069999D01*
X85260000Y-104619999D01*
X85560000Y-104619999D01*
X85560000Y-105069999D01*
X85560001Y-105070000D01*
X85883868Y-105070000D01*
X85883871Y-105069999D01*
X86028764Y-105041178D01*
X86028770Y-105041176D01*
X86165257Y-104984641D01*
X86288093Y-104902565D01*
X86392565Y-104798093D01*
X86474641Y-104675257D01*
X86531177Y-104538767D01*
X86544857Y-104470000D01*
X86069807Y-104470000D01*
X86089555Y-104435795D01*
X86109999Y-104359496D01*
X86109999Y-104280504D01*
X86089555Y-104204205D01*
X86069807Y-104170000D01*
X86544857Y-104170000D01*
X88305143Y-104170000D01*
X88780193Y-104170000D01*
X88760445Y-104204205D01*
X88740001Y-104280504D01*
X88740001Y-104359496D01*
X88760445Y-104435795D01*
X88780193Y-104470000D01*
X88305143Y-104470000D01*
X88318822Y-104538767D01*
X88375358Y-104675257D01*
X88457434Y-104798093D01*
X88561906Y-104902565D01*
X88684742Y-104984641D01*
X88821229Y-105041176D01*
X88821235Y-105041178D01*
X88966128Y-105069999D01*
X88966132Y-105070000D01*
X89439999Y-105070000D01*
X89440000Y-105069999D01*
X89440000Y-104619999D01*
X89740000Y-104619999D01*
X89740000Y-105069999D01*
X89740001Y-105070000D01*
X90213868Y-105070000D01*
X90213871Y-105069999D01*
X90358764Y-105041178D01*
X90358770Y-105041176D01*
X90495257Y-104984641D01*
X90618093Y-104902565D01*
X90722565Y-104798093D01*
X90804641Y-104675257D01*
X90861177Y-104538767D01*
X90874857Y-104470000D01*
X90399807Y-104470000D01*
X90419555Y-104435795D01*
X90439999Y-104359496D01*
X90439999Y-104352565D01*
X91202000Y-104352565D01*
X91202000Y-104451435D01*
X91216641Y-104506075D01*
X91227591Y-104546942D01*
X91276392Y-104631466D01*
X91277025Y-104632562D01*
X91346938Y-104702475D01*
X91346940Y-104702476D01*
X91432558Y-104751908D01*
X91432556Y-104751908D01*
X91432560Y-104751909D01*
X91432562Y-104751910D01*
X91528065Y-104777500D01*
X91528067Y-104777500D01*
X91626933Y-104777500D01*
X91626935Y-104777500D01*
X91722438Y-104751910D01*
X91722440Y-104751908D01*
X91722442Y-104751908D01*
X91759810Y-104730333D01*
X91808062Y-104702475D01*
X91877975Y-104632562D01*
X91912722Y-104572377D01*
X91927408Y-104546942D01*
X91927408Y-104546940D01*
X91927410Y-104546938D01*
X91953000Y-104451435D01*
X91953000Y-104352565D01*
X91927410Y-104257062D01*
X91877975Y-104171438D01*
X91819102Y-104112565D01*
X92112300Y-104112565D01*
X92112300Y-104211435D01*
X92137890Y-104306938D01*
X92144419Y-104318247D01*
X92144420Y-104318249D01*
X92182633Y-104384435D01*
X92187325Y-104392562D01*
X92257238Y-104462475D01*
X92285779Y-104478953D01*
X92342858Y-104511908D01*
X92342856Y-104511908D01*
X92342860Y-104511909D01*
X92342862Y-104511910D01*
X92438365Y-104537500D01*
X92438367Y-104537500D01*
X92537233Y-104537500D01*
X92537235Y-104537500D01*
X92632738Y-104511910D01*
X92632740Y-104511908D01*
X92632742Y-104511908D01*
X92669111Y-104490910D01*
X92718362Y-104462475D01*
X92788275Y-104392562D01*
X92837710Y-104306938D01*
X92843437Y-104285565D01*
X94448100Y-104285565D01*
X94448100Y-104384435D01*
X94461960Y-104436162D01*
X94473691Y-104479942D01*
X94517320Y-104555508D01*
X94523125Y-104565562D01*
X94593038Y-104635475D01*
X94593040Y-104635476D01*
X94678658Y-104684908D01*
X94678656Y-104684908D01*
X94678660Y-104684909D01*
X94678662Y-104684910D01*
X94774165Y-104710500D01*
X94774167Y-104710500D01*
X94873033Y-104710500D01*
X94873035Y-104710500D01*
X94968538Y-104684910D01*
X94968540Y-104684908D01*
X94968542Y-104684908D01*
X95010817Y-104660500D01*
X95054162Y-104635475D01*
X95089072Y-104600565D01*
X98874500Y-104600565D01*
X98874500Y-104699435D01*
X98895775Y-104778835D01*
X98900091Y-104794942D01*
X98949523Y-104880559D01*
X98949525Y-104880562D01*
X99019438Y-104950475D01*
X99019440Y-104950476D01*
X99105058Y-104999908D01*
X99105056Y-104999908D01*
X99105060Y-104999909D01*
X99105062Y-104999910D01*
X99200565Y-105025500D01*
X99200567Y-105025500D01*
X99299433Y-105025500D01*
X99299435Y-105025500D01*
X99394938Y-104999910D01*
X99394940Y-104999908D01*
X99394942Y-104999908D01*
X99427040Y-104981376D01*
X99480562Y-104950475D01*
X99550475Y-104880562D01*
X99553360Y-104875565D01*
X106866500Y-104875565D01*
X106866500Y-104974435D01*
X106889067Y-105058657D01*
X106892091Y-105069942D01*
X106941431Y-105155400D01*
X106941525Y-105155562D01*
X107011438Y-105225475D01*
X107011440Y-105225476D01*
X107097058Y-105274908D01*
X107097056Y-105274908D01*
X107097060Y-105274909D01*
X107097062Y-105274910D01*
X107192565Y-105300500D01*
X107192567Y-105300500D01*
X107291433Y-105300500D01*
X107291435Y-105300500D01*
X107386938Y-105274910D01*
X107386940Y-105274908D01*
X107386942Y-105274908D01*
X107412377Y-105260222D01*
X107472562Y-105225475D01*
X107542475Y-105155562D01*
X107588810Y-105075307D01*
X107591908Y-105069942D01*
X107591908Y-105069940D01*
X107591910Y-105069938D01*
X107617500Y-104974435D01*
X107617500Y-104875565D01*
X107591910Y-104780062D01*
X107591908Y-104780059D01*
X107591908Y-104780057D01*
X107542476Y-104694440D01*
X107542475Y-104694438D01*
X107472562Y-104624525D01*
X107464723Y-104619999D01*
X107386941Y-104575091D01*
X107386943Y-104575091D01*
X107349885Y-104565161D01*
X107291435Y-104549500D01*
X107192565Y-104549500D01*
X107134114Y-104565161D01*
X107097057Y-104575091D01*
X107011440Y-104624523D01*
X106941523Y-104694440D01*
X106892091Y-104780057D01*
X106879824Y-104825838D01*
X106866500Y-104875565D01*
X99553360Y-104875565D01*
X99585687Y-104819573D01*
X99599908Y-104794942D01*
X99599908Y-104794940D01*
X99599910Y-104794938D01*
X99625500Y-104699435D01*
X99625500Y-104600565D01*
X99599910Y-104505062D01*
X99599908Y-104505059D01*
X99599908Y-104505057D01*
X99550476Y-104419440D01*
X99550475Y-104419438D01*
X99480562Y-104349525D01*
X99480559Y-104349523D01*
X99394941Y-104300091D01*
X99394943Y-104300091D01*
X99342122Y-104285938D01*
X99299435Y-104274500D01*
X99200565Y-104274500D01*
X99157878Y-104285938D01*
X99105057Y-104300091D01*
X99019440Y-104349523D01*
X98949523Y-104419440D01*
X98900091Y-104505057D01*
X98888869Y-104546938D01*
X98874500Y-104600565D01*
X95089072Y-104600565D01*
X95124075Y-104565562D01*
X95159500Y-104504204D01*
X95173508Y-104479942D01*
X95173508Y-104479940D01*
X95173510Y-104479938D01*
X95199100Y-104384435D01*
X95199100Y-104285565D01*
X95173510Y-104190062D01*
X95173508Y-104190059D01*
X95173508Y-104190057D01*
X95124076Y-104104440D01*
X95124075Y-104104438D01*
X95054162Y-104034525D01*
X95054159Y-104034523D01*
X94968541Y-103985091D01*
X94968543Y-103985091D01*
X94931023Y-103975038D01*
X94873035Y-103959500D01*
X94774165Y-103959500D01*
X94716177Y-103975038D01*
X94678657Y-103985091D01*
X94593040Y-104034523D01*
X94523123Y-104104440D01*
X94473691Y-104190057D01*
X94467963Y-104211435D01*
X94448100Y-104285565D01*
X92843437Y-104285565D01*
X92863300Y-104211435D01*
X92863300Y-104112565D01*
X92837710Y-104017062D01*
X92837708Y-104017059D01*
X92837708Y-104017057D01*
X92788276Y-103931440D01*
X92788275Y-103931438D01*
X92718362Y-103861525D01*
X92717628Y-103861101D01*
X92632741Y-103812091D01*
X92632743Y-103812091D01*
X92595685Y-103802161D01*
X92537235Y-103786500D01*
X92438365Y-103786500D01*
X92379914Y-103802161D01*
X92342857Y-103812091D01*
X92257240Y-103861523D01*
X92187323Y-103931440D01*
X92137891Y-104017057D01*
X92129089Y-104049908D01*
X92112300Y-104112565D01*
X91819102Y-104112565D01*
X91808062Y-104101525D01*
X91807555Y-104101232D01*
X91722441Y-104052091D01*
X91722443Y-104052091D01*
X91678978Y-104040445D01*
X91626935Y-104026500D01*
X91528065Y-104026500D01*
X91476022Y-104040445D01*
X91432557Y-104052091D01*
X91346940Y-104101523D01*
X91277023Y-104171440D01*
X91227591Y-104257057D01*
X91216061Y-104300090D01*
X91202000Y-104352565D01*
X90439999Y-104352565D01*
X90439999Y-104280504D01*
X90419555Y-104204205D01*
X90399807Y-104170000D01*
X90874857Y-104170000D01*
X90861177Y-104101232D01*
X90804641Y-103964742D01*
X90722565Y-103841906D01*
X90618093Y-103737434D01*
X90495257Y-103655358D01*
X90358770Y-103598823D01*
X90358764Y-103598821D01*
X90213871Y-103570000D01*
X89740001Y-103570000D01*
X89740000Y-103570001D01*
X89740000Y-104020001D01*
X89440000Y-104020001D01*
X89440000Y-103570001D01*
X89439999Y-103570000D01*
X89331088Y-103570000D01*
X89272897Y-103551093D01*
X89236933Y-103501593D01*
X89236933Y-103440407D01*
X89272897Y-103390907D01*
X89289708Y-103381492D01*
X89292829Y-103379689D01*
X89292836Y-103379688D01*
X89412665Y-103310505D01*
X89437605Y-103285565D01*
X93839500Y-103285565D01*
X93839500Y-103384435D01*
X93862067Y-103468657D01*
X93865091Y-103479942D01*
X93910370Y-103558366D01*
X93914525Y-103565562D01*
X93984438Y-103635475D01*
X93984440Y-103635476D01*
X94070058Y-103684908D01*
X94070056Y-103684908D01*
X94070060Y-103684909D01*
X94070062Y-103684910D01*
X94165565Y-103710500D01*
X94165567Y-103710500D01*
X94264433Y-103710500D01*
X94264435Y-103710500D01*
X94326081Y-103693982D01*
X102774500Y-103693982D01*
X102774500Y-103806018D01*
X102789373Y-103861525D01*
X102803498Y-103914241D01*
X102853287Y-104000476D01*
X102859515Y-104011263D01*
X102938737Y-104090485D01*
X102957351Y-104101232D01*
X103035759Y-104146501D01*
X103035757Y-104146501D01*
X103035761Y-104146502D01*
X103035763Y-104146503D01*
X103143982Y-104175500D01*
X103143984Y-104175500D01*
X103256016Y-104175500D01*
X103256018Y-104175500D01*
X103328178Y-104156165D01*
X107859200Y-104156165D01*
X107859200Y-104255035D01*
X107876138Y-104318249D01*
X107884791Y-104350542D01*
X107934013Y-104435795D01*
X107934225Y-104436162D01*
X108004138Y-104506075D01*
X108004140Y-104506076D01*
X108089758Y-104555508D01*
X108089756Y-104555508D01*
X108089760Y-104555509D01*
X108089762Y-104555510D01*
X108185265Y-104581100D01*
X108185267Y-104581100D01*
X108284133Y-104581100D01*
X108284135Y-104581100D01*
X108379638Y-104555510D01*
X108379640Y-104555508D01*
X108379642Y-104555508D01*
X108413505Y-104535957D01*
X108465262Y-104506075D01*
X108535175Y-104436162D01*
X108584610Y-104350538D01*
X108610200Y-104255035D01*
X108610200Y-104156165D01*
X108592890Y-104091565D01*
X108874200Y-104091565D01*
X108874200Y-104190435D01*
X108879827Y-104211435D01*
X108899791Y-104285942D01*
X108949223Y-104371559D01*
X108949225Y-104371562D01*
X109019138Y-104441475D01*
X109019140Y-104441476D01*
X109104758Y-104490908D01*
X109104756Y-104490908D01*
X109104760Y-104490909D01*
X109104762Y-104490910D01*
X109200265Y-104516500D01*
X109200267Y-104516500D01*
X109299133Y-104516500D01*
X109299135Y-104516500D01*
X109394638Y-104490910D01*
X109394640Y-104490908D01*
X109394642Y-104490908D01*
X109443887Y-104462476D01*
X109480262Y-104441475D01*
X109550175Y-104371562D01*
X109599610Y-104285938D01*
X109625200Y-104190435D01*
X109625200Y-104091565D01*
X109599610Y-103996062D01*
X109588514Y-103976844D01*
X109575794Y-103916996D01*
X109600681Y-103861101D01*
X109653669Y-103830508D01*
X109699873Y-103831718D01*
X109769965Y-103850500D01*
X109769966Y-103850500D01*
X109868833Y-103850500D01*
X109868835Y-103850500D01*
X109964338Y-103824910D01*
X109964340Y-103824908D01*
X109964342Y-103824908D01*
X110022914Y-103791091D01*
X110049962Y-103775475D01*
X110119875Y-103705562D01*
X110151628Y-103650565D01*
X113624500Y-103650565D01*
X113624500Y-103749435D01*
X113646548Y-103831719D01*
X113650091Y-103844942D01*
X113699523Y-103930559D01*
X113699525Y-103930562D01*
X113769438Y-104000475D01*
X113769440Y-104000476D01*
X113855058Y-104049908D01*
X113855056Y-104049908D01*
X113855060Y-104049909D01*
X113855062Y-104049910D01*
X113950565Y-104075500D01*
X113950567Y-104075500D01*
X114049433Y-104075500D01*
X114049435Y-104075500D01*
X114144938Y-104049910D01*
X114144940Y-104049908D01*
X114144942Y-104049908D01*
X114185485Y-104026500D01*
X114230562Y-104000475D01*
X114300475Y-103930562D01*
X114335222Y-103870377D01*
X114349908Y-103844942D01*
X114349908Y-103844940D01*
X114349910Y-103844938D01*
X114375500Y-103749435D01*
X114375500Y-103650565D01*
X114350795Y-103558365D01*
X115603200Y-103558365D01*
X115603200Y-103657235D01*
X115624689Y-103737434D01*
X115628791Y-103752742D01*
X115678223Y-103838359D01*
X115678225Y-103838362D01*
X115748138Y-103908275D01*
X115763243Y-103916996D01*
X115833758Y-103957708D01*
X115833756Y-103957708D01*
X115833760Y-103957709D01*
X115833762Y-103957710D01*
X115929265Y-103983300D01*
X115929267Y-103983300D01*
X116028133Y-103983300D01*
X116028135Y-103983300D01*
X116123638Y-103957710D01*
X116123640Y-103957708D01*
X116123642Y-103957708D01*
X116169142Y-103931438D01*
X116209262Y-103908275D01*
X116279175Y-103838362D01*
X116321242Y-103765500D01*
X116328608Y-103752742D01*
X116328608Y-103752740D01*
X116328610Y-103752738D01*
X116354200Y-103657235D01*
X116354200Y-103558365D01*
X116328610Y-103462862D01*
X116328608Y-103462859D01*
X116328608Y-103462857D01*
X116281631Y-103381492D01*
X116279175Y-103377238D01*
X116209262Y-103307325D01*
X116209259Y-103307323D01*
X116123641Y-103257891D01*
X116123643Y-103257891D01*
X116073442Y-103244440D01*
X116028135Y-103232300D01*
X115929265Y-103232300D01*
X115883958Y-103244440D01*
X115833757Y-103257891D01*
X115748140Y-103307323D01*
X115678223Y-103377240D01*
X115628791Y-103462857D01*
X115628790Y-103462862D01*
X115603200Y-103558365D01*
X114350795Y-103558365D01*
X114349910Y-103555062D01*
X114347618Y-103551093D01*
X114300476Y-103469440D01*
X114300475Y-103469438D01*
X114230562Y-103399525D01*
X114230559Y-103399523D01*
X114144941Y-103350091D01*
X114144943Y-103350091D01*
X114107885Y-103340161D01*
X114049435Y-103324500D01*
X113950565Y-103324500D01*
X113892114Y-103340161D01*
X113855057Y-103350091D01*
X113769440Y-103399523D01*
X113699523Y-103469440D01*
X113650091Y-103555057D01*
X113646087Y-103570000D01*
X113624500Y-103650565D01*
X110151628Y-103650565D01*
X110169310Y-103619938D01*
X110194900Y-103524435D01*
X110194900Y-103425565D01*
X110169310Y-103330062D01*
X110169308Y-103330059D01*
X110169308Y-103330057D01*
X110119876Y-103244440D01*
X110119875Y-103244438D01*
X110049962Y-103174525D01*
X110049959Y-103174523D01*
X109964341Y-103125091D01*
X109964343Y-103125091D01*
X109927285Y-103115161D01*
X109868835Y-103099500D01*
X109769965Y-103099500D01*
X109711514Y-103115161D01*
X109674457Y-103125091D01*
X109588840Y-103174523D01*
X109518923Y-103244440D01*
X109469491Y-103330057D01*
X109463210Y-103353498D01*
X109443900Y-103425565D01*
X109443900Y-103524435D01*
X109469490Y-103619938D01*
X109469491Y-103619941D01*
X109480584Y-103639155D01*
X109493305Y-103699004D01*
X109468417Y-103754899D01*
X109415429Y-103785491D01*
X109369226Y-103784281D01*
X109299135Y-103765500D01*
X109200265Y-103765500D01*
X109141814Y-103781161D01*
X109104757Y-103791091D01*
X109019140Y-103840523D01*
X108949223Y-103910440D01*
X108899791Y-103996057D01*
X108891634Y-104026500D01*
X108874200Y-104091565D01*
X108592890Y-104091565D01*
X108584610Y-104060662D01*
X108584608Y-104060659D01*
X108584608Y-104060657D01*
X108540979Y-103985091D01*
X108535175Y-103975038D01*
X108465262Y-103905125D01*
X108465259Y-103905123D01*
X108379641Y-103855691D01*
X108379643Y-103855691D01*
X108339511Y-103844938D01*
X108284135Y-103830100D01*
X108185265Y-103830100D01*
X108129889Y-103844938D01*
X108089757Y-103855691D01*
X108004140Y-103905123D01*
X107934223Y-103975040D01*
X107884791Y-104060657D01*
X107876509Y-104091566D01*
X107859200Y-104156165D01*
X103328178Y-104156165D01*
X103364237Y-104146503D01*
X103364239Y-104146501D01*
X103364241Y-104146501D01*
X103393064Y-104129859D01*
X103461263Y-104090485D01*
X103540485Y-104011263D01*
X103587078Y-103930562D01*
X103596501Y-103914241D01*
X103596501Y-103914239D01*
X103596503Y-103914237D01*
X103625500Y-103806018D01*
X103625500Y-103693982D01*
X103596503Y-103585763D01*
X103596501Y-103585760D01*
X103596501Y-103585758D01*
X103540486Y-103488739D01*
X103540485Y-103488737D01*
X103461263Y-103409515D01*
X103443960Y-103399525D01*
X103364240Y-103353498D01*
X103364242Y-103353498D01*
X103322251Y-103342247D01*
X103256018Y-103324500D01*
X103143982Y-103324500D01*
X103077748Y-103342247D01*
X103035758Y-103353498D01*
X102938739Y-103409513D01*
X102859513Y-103488739D01*
X102803498Y-103585758D01*
X102789191Y-103639155D01*
X102774500Y-103693982D01*
X94326081Y-103693982D01*
X94359938Y-103684910D01*
X94359940Y-103684908D01*
X94359942Y-103684908D01*
X94385377Y-103670222D01*
X94445562Y-103635475D01*
X94515475Y-103565562D01*
X94550222Y-103505377D01*
X94564908Y-103479942D01*
X94564908Y-103479940D01*
X94564910Y-103479938D01*
X94590500Y-103384435D01*
X94590500Y-103285565D01*
X94564910Y-103190062D01*
X94564908Y-103190059D01*
X94564908Y-103190057D01*
X94515476Y-103104440D01*
X94515475Y-103104438D01*
X94445562Y-103034525D01*
X94445559Y-103034523D01*
X94359941Y-102985091D01*
X94359943Y-102985091D01*
X94310992Y-102971975D01*
X94264435Y-102959500D01*
X94165565Y-102959500D01*
X94119008Y-102971975D01*
X94070057Y-102985091D01*
X93984440Y-103034523D01*
X93914523Y-103104440D01*
X93865091Y-103190057D01*
X93853772Y-103232300D01*
X93839500Y-103285565D01*
X89437605Y-103285565D01*
X89510505Y-103212665D01*
X89579688Y-103092836D01*
X89615500Y-102959183D01*
X89615500Y-102820817D01*
X89579688Y-102687164D01*
X89510505Y-102567335D01*
X89412665Y-102469495D01*
X89292836Y-102400312D01*
X89159183Y-102364500D01*
X89020817Y-102364500D01*
X88887164Y-102400312D01*
X88767335Y-102469495D01*
X88669495Y-102567335D01*
X88600312Y-102687164D01*
X88564500Y-102820817D01*
X88564500Y-102959183D01*
X88600312Y-103092836D01*
X88669495Y-103212665D01*
X88767335Y-103310505D01*
X88887164Y-103379688D01*
X88918330Y-103388038D01*
X88969643Y-103421362D01*
X88991570Y-103478483D01*
X88975735Y-103537584D01*
X88928185Y-103576089D01*
X88912020Y-103580763D01*
X88821235Y-103598821D01*
X88821229Y-103598823D01*
X88684742Y-103655358D01*
X88561906Y-103737434D01*
X88457434Y-103841906D01*
X88375358Y-103964742D01*
X88318822Y-104101232D01*
X88305143Y-104170000D01*
X86544857Y-104170000D01*
X86531177Y-104101232D01*
X86474641Y-103964742D01*
X86392565Y-103841906D01*
X86288093Y-103737434D01*
X86165257Y-103655358D01*
X86028770Y-103598823D01*
X86028764Y-103598821D01*
X85883871Y-103570000D01*
X85560001Y-103570000D01*
X85560000Y-103570001D01*
X85560000Y-104020001D01*
X85260000Y-104020001D01*
X85260000Y-103570001D01*
X85259999Y-103570000D01*
X84936128Y-103570000D01*
X84791235Y-103598821D01*
X84791229Y-103598823D01*
X84654742Y-103655358D01*
X84531906Y-103737434D01*
X84427434Y-103841906D01*
X84345358Y-103964742D01*
X84288822Y-104101232D01*
X84275143Y-104170000D01*
X82350000Y-104170000D01*
X82350000Y-102200565D01*
X90524500Y-102200565D01*
X90524500Y-102299435D01*
X90541934Y-102364500D01*
X90550091Y-102394942D01*
X90590102Y-102464241D01*
X90599525Y-102480562D01*
X90669438Y-102550475D01*
X90669440Y-102550476D01*
X90755058Y-102599908D01*
X90755056Y-102599908D01*
X90755060Y-102599909D01*
X90755062Y-102599910D01*
X90850565Y-102625500D01*
X90850567Y-102625500D01*
X90949433Y-102625500D01*
X90949435Y-102625500D01*
X91044938Y-102599910D01*
X91044940Y-102599908D01*
X91044942Y-102599908D01*
X91070377Y-102585222D01*
X91130562Y-102550475D01*
X91200475Y-102480562D01*
X91245220Y-102403062D01*
X91249908Y-102394942D01*
X91249908Y-102394940D01*
X91249910Y-102394938D01*
X91275500Y-102299435D01*
X91275500Y-102243982D01*
X103024500Y-102243982D01*
X103024500Y-102356018D01*
X103041215Y-102418400D01*
X103053498Y-102464241D01*
X103103287Y-102550476D01*
X103109515Y-102561263D01*
X103188737Y-102640485D01*
X103188739Y-102640486D01*
X103285759Y-102696501D01*
X103285757Y-102696501D01*
X103285761Y-102696502D01*
X103285763Y-102696503D01*
X103393982Y-102725500D01*
X103393984Y-102725500D01*
X103506016Y-102725500D01*
X103506018Y-102725500D01*
X103614237Y-102696503D01*
X103614239Y-102696501D01*
X103614241Y-102696501D01*
X103643064Y-102679859D01*
X103711263Y-102640485D01*
X103729683Y-102622065D01*
X107743800Y-102622065D01*
X107743800Y-102720935D01*
X107759241Y-102778562D01*
X107769391Y-102816442D01*
X107816428Y-102897910D01*
X107818825Y-102902062D01*
X107888738Y-102971975D01*
X107888740Y-102971976D01*
X107974358Y-103021408D01*
X107974356Y-103021408D01*
X107974360Y-103021409D01*
X107974362Y-103021410D01*
X108069865Y-103047000D01*
X108069867Y-103047000D01*
X108168733Y-103047000D01*
X108168735Y-103047000D01*
X108264238Y-103021410D01*
X108264240Y-103021408D01*
X108264242Y-103021408D01*
X108327144Y-102985091D01*
X108349862Y-102971975D01*
X108419775Y-102902062D01*
X108469210Y-102816438D01*
X108494800Y-102720935D01*
X108494800Y-102622065D01*
X108469210Y-102526562D01*
X108453046Y-102498565D01*
X108885500Y-102498565D01*
X108885500Y-102597435D01*
X108899306Y-102648958D01*
X108911091Y-102692942D01*
X108960523Y-102778559D01*
X108960525Y-102778562D01*
X109030438Y-102848475D01*
X109030440Y-102848476D01*
X109116058Y-102897908D01*
X109116056Y-102897908D01*
X109116060Y-102897909D01*
X109116062Y-102897910D01*
X109211565Y-102923500D01*
X109211567Y-102923500D01*
X109310433Y-102923500D01*
X109310435Y-102923500D01*
X109405938Y-102897910D01*
X109405940Y-102897908D01*
X109405942Y-102897908D01*
X109431377Y-102883222D01*
X109491562Y-102848475D01*
X109561475Y-102778562D01*
X109581161Y-102744465D01*
X114694400Y-102744465D01*
X114694400Y-102843335D01*
X114710135Y-102902059D01*
X114719991Y-102938842D01*
X114767663Y-103021410D01*
X114769425Y-103024462D01*
X114839338Y-103094375D01*
X114839340Y-103094376D01*
X114924958Y-103143808D01*
X114924956Y-103143808D01*
X114924960Y-103143809D01*
X114924962Y-103143810D01*
X115020465Y-103169400D01*
X115020467Y-103169400D01*
X115119333Y-103169400D01*
X115119335Y-103169400D01*
X115214838Y-103143810D01*
X115214840Y-103143808D01*
X115214842Y-103143808D01*
X115247262Y-103125090D01*
X115300462Y-103094375D01*
X115370375Y-103024462D01*
X115419810Y-102938838D01*
X115445400Y-102843335D01*
X115445400Y-102744465D01*
X115419810Y-102648962D01*
X115419808Y-102648958D01*
X115419808Y-102648957D01*
X115370376Y-102563340D01*
X115370375Y-102563338D01*
X115300462Y-102493425D01*
X115278183Y-102480562D01*
X115214841Y-102443991D01*
X115214843Y-102443991D01*
X115177785Y-102434061D01*
X115119335Y-102418400D01*
X115020465Y-102418400D01*
X114962014Y-102434061D01*
X114924957Y-102443991D01*
X114839338Y-102493424D01*
X114794411Y-102538350D01*
X114794406Y-102538356D01*
X114769425Y-102563338D01*
X114735110Y-102622772D01*
X114735101Y-102622786D01*
X114719991Y-102648958D01*
X114719990Y-102648962D01*
X114694400Y-102744465D01*
X109581161Y-102744465D01*
X109610910Y-102692938D01*
X109636500Y-102597435D01*
X109636500Y-102498565D01*
X109610910Y-102403062D01*
X109610908Y-102403059D01*
X109610908Y-102403057D01*
X109561476Y-102317440D01*
X109561475Y-102317438D01*
X109491562Y-102247525D01*
X109491559Y-102247523D01*
X109410226Y-102200565D01*
X113924500Y-102200565D01*
X113924500Y-102299435D01*
X113941934Y-102364500D01*
X113950091Y-102394942D01*
X113990102Y-102464241D01*
X113999525Y-102480562D01*
X114069438Y-102550475D01*
X114069440Y-102550476D01*
X114155058Y-102599908D01*
X114155056Y-102599908D01*
X114155060Y-102599909D01*
X114155062Y-102599910D01*
X114250565Y-102625500D01*
X114250567Y-102625500D01*
X114349433Y-102625500D01*
X114349435Y-102625500D01*
X114444938Y-102599910D01*
X114444940Y-102599908D01*
X114444942Y-102599908D01*
X114474815Y-102582660D01*
X114530562Y-102550475D01*
X114600475Y-102480562D01*
X114649910Y-102394938D01*
X114675500Y-102299435D01*
X114675500Y-102200565D01*
X114649910Y-102105062D01*
X114649908Y-102105059D01*
X114649908Y-102105057D01*
X114600476Y-102019440D01*
X114600475Y-102019438D01*
X114530562Y-101949525D01*
X114530559Y-101949523D01*
X114444941Y-101900091D01*
X114444943Y-101900091D01*
X114407885Y-101890161D01*
X114349435Y-101874500D01*
X114250565Y-101874500D01*
X114192114Y-101890161D01*
X114155057Y-101900091D01*
X114069440Y-101949523D01*
X113999523Y-102019440D01*
X113950091Y-102105057D01*
X113950090Y-102105062D01*
X113924500Y-102200565D01*
X109410226Y-102200565D01*
X109405941Y-102198091D01*
X109405943Y-102198091D01*
X109368885Y-102188161D01*
X109310435Y-102172500D01*
X109211565Y-102172500D01*
X109153114Y-102188161D01*
X109116057Y-102198091D01*
X109030440Y-102247523D01*
X108960523Y-102317440D01*
X108911091Y-102403057D01*
X108911090Y-102403062D01*
X108885500Y-102498565D01*
X108453046Y-102498565D01*
X108450078Y-102493425D01*
X108419776Y-102440940D01*
X108419775Y-102440938D01*
X108349862Y-102371025D01*
X108349859Y-102371023D01*
X108264241Y-102321591D01*
X108264243Y-102321591D01*
X108227185Y-102311661D01*
X108168735Y-102296000D01*
X108069865Y-102296000D01*
X108011414Y-102311661D01*
X107974357Y-102321591D01*
X107888740Y-102371023D01*
X107818823Y-102440940D01*
X107769391Y-102526557D01*
X107762982Y-102550476D01*
X107743800Y-102622065D01*
X103729683Y-102622065D01*
X103790485Y-102561263D01*
X103846503Y-102464237D01*
X103875500Y-102356018D01*
X103875500Y-102243982D01*
X103846503Y-102135763D01*
X103846501Y-102135760D01*
X103846501Y-102135758D01*
X103790486Y-102038739D01*
X103790485Y-102038737D01*
X103711263Y-101959515D01*
X103693960Y-101949525D01*
X103614240Y-101903498D01*
X103614242Y-101903498D01*
X103572251Y-101892247D01*
X103506018Y-101874500D01*
X103393982Y-101874500D01*
X103327748Y-101892247D01*
X103285758Y-101903498D01*
X103188739Y-101959513D01*
X103109513Y-102038739D01*
X103053498Y-102135758D01*
X103053497Y-102135763D01*
X103024500Y-102243982D01*
X91275500Y-102243982D01*
X91275500Y-102220649D01*
X91294407Y-102162458D01*
X91343907Y-102126494D01*
X91400121Y-102125022D01*
X91420565Y-102130500D01*
X91420567Y-102130500D01*
X91519433Y-102130500D01*
X91519435Y-102130500D01*
X91614938Y-102104910D01*
X91614940Y-102104908D01*
X91614942Y-102104908D01*
X91640377Y-102090222D01*
X91700562Y-102055475D01*
X91770475Y-101985562D01*
X91819822Y-101900091D01*
X91819908Y-101899942D01*
X91819908Y-101899940D01*
X91819910Y-101899938D01*
X91845500Y-101804435D01*
X91845500Y-101705565D01*
X91819910Y-101610062D01*
X91819908Y-101610059D01*
X91819908Y-101610057D01*
X91770476Y-101524440D01*
X91770475Y-101524438D01*
X91700562Y-101454525D01*
X91700559Y-101454523D01*
X91614941Y-101405091D01*
X91614943Y-101405091D01*
X91592946Y-101399197D01*
X91519435Y-101379500D01*
X91420565Y-101379500D01*
X91362114Y-101395161D01*
X91325057Y-101405091D01*
X91239440Y-101454523D01*
X91169523Y-101524440D01*
X91120091Y-101610057D01*
X91094500Y-101705566D01*
X91094500Y-101784350D01*
X91075593Y-101842541D01*
X91026093Y-101878505D01*
X90969880Y-101879977D01*
X90949439Y-101874500D01*
X90949435Y-101874500D01*
X90850565Y-101874500D01*
X90792114Y-101890161D01*
X90755057Y-101900091D01*
X90669440Y-101949523D01*
X90599523Y-102019440D01*
X90550091Y-102105057D01*
X90550090Y-102105062D01*
X90524500Y-102200565D01*
X82350000Y-102200565D01*
X82350000Y-101300565D01*
X95074500Y-101300565D01*
X95074500Y-101399435D01*
X95097067Y-101483657D01*
X95100091Y-101494942D01*
X95149523Y-101580559D01*
X95149525Y-101580562D01*
X95219438Y-101650475D01*
X95219440Y-101650476D01*
X95305058Y-101699908D01*
X95305056Y-101699908D01*
X95305060Y-101699909D01*
X95305062Y-101699910D01*
X95400565Y-101725500D01*
X95400567Y-101725500D01*
X95499433Y-101725500D01*
X95499435Y-101725500D01*
X95594938Y-101699910D01*
X95594940Y-101699908D01*
X95594942Y-101699908D01*
X95620377Y-101685222D01*
X95680562Y-101650475D01*
X95750475Y-101580562D01*
X95799910Y-101494938D01*
X95825500Y-101399435D01*
X95825500Y-101300565D01*
X102512900Y-101300565D01*
X102512900Y-101399435D01*
X102535467Y-101483657D01*
X102538491Y-101494942D01*
X102587923Y-101580559D01*
X102587925Y-101580562D01*
X102657838Y-101650475D01*
X102657840Y-101650476D01*
X102743458Y-101699908D01*
X102743456Y-101699908D01*
X102743460Y-101699909D01*
X102743462Y-101699910D01*
X102838965Y-101725500D01*
X102838967Y-101725500D01*
X102937833Y-101725500D01*
X102937835Y-101725500D01*
X103033338Y-101699910D01*
X103033340Y-101699908D01*
X103033342Y-101699908D01*
X103058777Y-101685222D01*
X103118962Y-101650475D01*
X103188875Y-101580562D01*
X103238310Y-101494938D01*
X103263900Y-101399435D01*
X103263900Y-101300565D01*
X103238310Y-101205062D01*
X103238308Y-101205059D01*
X103238308Y-101205057D01*
X103188876Y-101119440D01*
X103188875Y-101119438D01*
X103118962Y-101049525D01*
X103118959Y-101049523D01*
X103033341Y-101000091D01*
X103033343Y-101000091D01*
X102993566Y-100989433D01*
X102937835Y-100974500D01*
X102838965Y-100974500D01*
X102783234Y-100989433D01*
X102743457Y-101000091D01*
X102657840Y-101049523D01*
X102587923Y-101119440D01*
X102538491Y-101205057D01*
X102526473Y-101249910D01*
X102512900Y-101300565D01*
X95825500Y-101300565D01*
X95799910Y-101205062D01*
X95799908Y-101205059D01*
X95799908Y-101205057D01*
X95750476Y-101119440D01*
X95750475Y-101119438D01*
X95680562Y-101049525D01*
X95680559Y-101049523D01*
X95594941Y-101000091D01*
X95594943Y-101000091D01*
X95555166Y-100989433D01*
X95499435Y-100974500D01*
X95400565Y-100974500D01*
X95344834Y-100989433D01*
X95305057Y-101000091D01*
X95219440Y-101049523D01*
X95149523Y-101119440D01*
X95100091Y-101205057D01*
X95088073Y-101249910D01*
X95074500Y-101300565D01*
X82350000Y-101300565D01*
X82350000Y-99850565D01*
X85914500Y-99850565D01*
X85914500Y-99949435D01*
X85937067Y-100033657D01*
X85940091Y-100044942D01*
X85989523Y-100130559D01*
X85989525Y-100130562D01*
X86059438Y-100200475D01*
X86067383Y-100205062D01*
X86145058Y-100249908D01*
X86145056Y-100249908D01*
X86145060Y-100249909D01*
X86145062Y-100249910D01*
X86240565Y-100275500D01*
X86240567Y-100275500D01*
X86339433Y-100275500D01*
X86339435Y-100275500D01*
X86434938Y-100249910D01*
X86434940Y-100249908D01*
X86434942Y-100249908D01*
X86460377Y-100235222D01*
X86520562Y-100200475D01*
X86590475Y-100130562D01*
X86628003Y-100065562D01*
X86639908Y-100044942D01*
X86639908Y-100044940D01*
X86639910Y-100044938D01*
X86665500Y-99949435D01*
X86665500Y-99850565D01*
X86639910Y-99755062D01*
X86639908Y-99755059D01*
X86639908Y-99755057D01*
X86590476Y-99669440D01*
X86590475Y-99669438D01*
X86520562Y-99599525D01*
X86507875Y-99592200D01*
X86434941Y-99550091D01*
X86434943Y-99550091D01*
X86397885Y-99540161D01*
X86339435Y-99524500D01*
X86240565Y-99524500D01*
X86182114Y-99540161D01*
X86145057Y-99550091D01*
X86059440Y-99599523D01*
X85989523Y-99669440D01*
X85940091Y-99755057D01*
X85932196Y-99784523D01*
X85914500Y-99850565D01*
X82350000Y-99850565D01*
X82350000Y-99290582D01*
X90664400Y-99290582D01*
X90664400Y-99402618D01*
X90679934Y-99460591D01*
X90693398Y-99510841D01*
X90749413Y-99607860D01*
X90749415Y-99607863D01*
X90828637Y-99687085D01*
X90850847Y-99699908D01*
X90925659Y-99743101D01*
X90925660Y-99743101D01*
X90925663Y-99743103D01*
X90955782Y-99751173D01*
X91007097Y-99784498D01*
X91029023Y-99841619D01*
X91013187Y-99900720D01*
X90965637Y-99939225D01*
X90955787Y-99942425D01*
X90941462Y-99946263D01*
X90925658Y-99950498D01*
X90828639Y-100006513D01*
X90749413Y-100085739D01*
X90693398Y-100182758D01*
X90677186Y-100243263D01*
X90664400Y-100290982D01*
X90664400Y-100403018D01*
X90680189Y-100461942D01*
X90693398Y-100511241D01*
X90749413Y-100608260D01*
X90749415Y-100608263D01*
X90828637Y-100687485D01*
X90828639Y-100687486D01*
X90925659Y-100743501D01*
X90925657Y-100743501D01*
X90925661Y-100743502D01*
X90925663Y-100743503D01*
X91033882Y-100772500D01*
X91033884Y-100772500D01*
X91145916Y-100772500D01*
X91145918Y-100772500D01*
X91254137Y-100743503D01*
X91254139Y-100743501D01*
X91254141Y-100743501D01*
X91306767Y-100713117D01*
X91351163Y-100687485D01*
X91430385Y-100608263D01*
X91486403Y-100511237D01*
X91515400Y-100403018D01*
X91515400Y-100290982D01*
X91486403Y-100182763D01*
X91486401Y-100182760D01*
X91486401Y-100182758D01*
X91433727Y-100091525D01*
X91430385Y-100085737D01*
X91351163Y-100006515D01*
X91351160Y-100006513D01*
X91254140Y-99950498D01*
X91254142Y-99950498D01*
X91242962Y-99947502D01*
X91224015Y-99942426D01*
X91172703Y-99909103D01*
X91150776Y-99851982D01*
X91166611Y-99792881D01*
X91205901Y-99761065D01*
X94968100Y-99761065D01*
X94968100Y-99859935D01*
X94981275Y-99909103D01*
X94993691Y-99955442D01*
X95037667Y-100031609D01*
X95043125Y-100041062D01*
X95085553Y-100083490D01*
X95113329Y-100138005D01*
X95103758Y-100198437D01*
X95101288Y-100202985D01*
X95100093Y-100205055D01*
X95100090Y-100205060D01*
X95100090Y-100205062D01*
X95074500Y-100300565D01*
X95074500Y-100399435D01*
X95089185Y-100454241D01*
X95100091Y-100494942D01*
X95144634Y-100572091D01*
X95149525Y-100580562D01*
X95219438Y-100650475D01*
X95219440Y-100650476D01*
X95305058Y-100699908D01*
X95305056Y-100699908D01*
X95305060Y-100699909D01*
X95305062Y-100699910D01*
X95400565Y-100725500D01*
X95400567Y-100725500D01*
X95499433Y-100725500D01*
X95499435Y-100725500D01*
X95594938Y-100699910D01*
X95594940Y-100699908D01*
X95594942Y-100699908D01*
X95620377Y-100685222D01*
X95680562Y-100650475D01*
X95750475Y-100580562D01*
X95788130Y-100515342D01*
X95799908Y-100494942D01*
X95799908Y-100494940D01*
X95799910Y-100494938D01*
X95825500Y-100399435D01*
X95825500Y-100342565D01*
X102965500Y-100342565D01*
X102965500Y-100441435D01*
X102985303Y-100515342D01*
X102991091Y-100536942D01*
X103039925Y-100621523D01*
X103040525Y-100622562D01*
X103110438Y-100692475D01*
X103123312Y-100699908D01*
X103196058Y-100741908D01*
X103196056Y-100741908D01*
X103196060Y-100741909D01*
X103196062Y-100741910D01*
X103291565Y-100767500D01*
X103291567Y-100767500D01*
X103374300Y-100767500D01*
X103432491Y-100786407D01*
X103468455Y-100835907D01*
X103473300Y-100866500D01*
X103473300Y-100872565D01*
X103473300Y-100971435D01*
X103492995Y-101044938D01*
X103498891Y-101066942D01*
X103535623Y-101130562D01*
X103548325Y-101152562D01*
X103618238Y-101222475D01*
X103618240Y-101222476D01*
X103703858Y-101271908D01*
X103703856Y-101271908D01*
X103703860Y-101271909D01*
X103703862Y-101271910D01*
X103799365Y-101297500D01*
X103799367Y-101297500D01*
X103898233Y-101297500D01*
X103898235Y-101297500D01*
X103993738Y-101271910D01*
X103993740Y-101271908D01*
X103993742Y-101271908D01*
X104031843Y-101249910D01*
X104079362Y-101222475D01*
X104149275Y-101152562D01*
X104198710Y-101066938D01*
X104224300Y-100971435D01*
X104224300Y-100890565D01*
X105802200Y-100890565D01*
X105802200Y-100989435D01*
X105817072Y-101044938D01*
X105827791Y-101084942D01*
X105877223Y-101170559D01*
X105877225Y-101170562D01*
X105947138Y-101240475D01*
X105963480Y-101249910D01*
X106032758Y-101289908D01*
X106032756Y-101289908D01*
X106032760Y-101289909D01*
X106032762Y-101289910D01*
X106128265Y-101315500D01*
X106128267Y-101315500D01*
X106227133Y-101315500D01*
X106227135Y-101315500D01*
X106322638Y-101289910D01*
X106322640Y-101289908D01*
X106322642Y-101289908D01*
X106353818Y-101271908D01*
X106408262Y-101240475D01*
X106478175Y-101170562D01*
X106527610Y-101084938D01*
X106553200Y-100989435D01*
X106553200Y-100890565D01*
X106552449Y-100887762D01*
X106552557Y-100885687D01*
X106552353Y-100884133D01*
X106552641Y-100884095D01*
X106553246Y-100872537D01*
X106549167Y-100857844D01*
X106551886Y-100850565D01*
X116424500Y-100850565D01*
X116424500Y-100949435D01*
X116435218Y-100989435D01*
X116450091Y-101044942D01*
X116499523Y-101130559D01*
X116499525Y-101130562D01*
X116569438Y-101200475D01*
X116569440Y-101200476D01*
X116655058Y-101249908D01*
X116655056Y-101249908D01*
X116655060Y-101249909D01*
X116655062Y-101249910D01*
X116750565Y-101275500D01*
X116750567Y-101275500D01*
X116849433Y-101275500D01*
X116849435Y-101275500D01*
X116944938Y-101249910D01*
X116944940Y-101249908D01*
X116944942Y-101249908D01*
X116992455Y-101222476D01*
X117030562Y-101200475D01*
X117100475Y-101130562D01*
X117149910Y-101044938D01*
X117175500Y-100949435D01*
X117175500Y-100850565D01*
X117149910Y-100755062D01*
X117149908Y-100755059D01*
X117149908Y-100755057D01*
X117100476Y-100669440D01*
X117100475Y-100669438D01*
X117030562Y-100599525D01*
X117014222Y-100590091D01*
X116944941Y-100550091D01*
X116944943Y-100550091D01*
X116895854Y-100536938D01*
X116849435Y-100524500D01*
X116750565Y-100524500D01*
X116704146Y-100536938D01*
X116655057Y-100550091D01*
X116569440Y-100599523D01*
X116499523Y-100669440D01*
X116450091Y-100755057D01*
X116439373Y-100795057D01*
X116424500Y-100850565D01*
X106551886Y-100850565D01*
X106554804Y-100842752D01*
X106555647Y-100826664D01*
X106565242Y-100814812D01*
X106570579Y-100800528D01*
X106583861Y-100791817D01*
X106594149Y-100779111D01*
X106621592Y-100766744D01*
X106622011Y-100766627D01*
X106676938Y-100751910D01*
X106678708Y-100750887D01*
X106678711Y-100750887D01*
X106722681Y-100725500D01*
X106762562Y-100702475D01*
X106832475Y-100632562D01*
X106867388Y-100572091D01*
X106881908Y-100546942D01*
X106881908Y-100546940D01*
X106881910Y-100546938D01*
X106907500Y-100451435D01*
X106907500Y-100352565D01*
X106881910Y-100257062D01*
X106881908Y-100257059D01*
X106881908Y-100257057D01*
X106832476Y-100171440D01*
X106832475Y-100171438D01*
X106762562Y-100101525D01*
X106762559Y-100101523D01*
X106676941Y-100052091D01*
X106676943Y-100052091D01*
X106635770Y-100041059D01*
X106615266Y-100035565D01*
X108229500Y-100035565D01*
X108229500Y-100134435D01*
X108249882Y-100210500D01*
X108255091Y-100229942D01*
X108290334Y-100290983D01*
X108304525Y-100315562D01*
X108374438Y-100385475D01*
X108374440Y-100385476D01*
X108460058Y-100434908D01*
X108460056Y-100434908D01*
X108460060Y-100434909D01*
X108460062Y-100434910D01*
X108555565Y-100460500D01*
X108555567Y-100460500D01*
X108654433Y-100460500D01*
X108654435Y-100460500D01*
X108749938Y-100434910D01*
X108749940Y-100434908D01*
X108749942Y-100434908D01*
X108775377Y-100420222D01*
X108835562Y-100385475D01*
X108905475Y-100315562D01*
X108933186Y-100267565D01*
X110307700Y-100267565D01*
X110307700Y-100366435D01*
X110327796Y-100441433D01*
X110333291Y-100461942D01*
X110382367Y-100546942D01*
X110382725Y-100547562D01*
X110452638Y-100617475D01*
X110459653Y-100621525D01*
X110538258Y-100666908D01*
X110538256Y-100666908D01*
X110538260Y-100666909D01*
X110538262Y-100666910D01*
X110633765Y-100692500D01*
X110633767Y-100692500D01*
X110732633Y-100692500D01*
X110732635Y-100692500D01*
X110828138Y-100666910D01*
X110828140Y-100666908D01*
X110828142Y-100666908D01*
X110853577Y-100652222D01*
X110913762Y-100617475D01*
X110983675Y-100547562D01*
X111033110Y-100461938D01*
X111058700Y-100366435D01*
X111058700Y-100267565D01*
X111033110Y-100172062D01*
X111033108Y-100172059D01*
X111033108Y-100172057D01*
X110983676Y-100086440D01*
X110983675Y-100086438D01*
X110913762Y-100016525D01*
X110913719Y-100016500D01*
X110828141Y-99967091D01*
X110828143Y-99967091D01*
X110784652Y-99955438D01*
X110732635Y-99941500D01*
X110633765Y-99941500D01*
X110581748Y-99955438D01*
X110538257Y-99967091D01*
X110452640Y-100016523D01*
X110382723Y-100086440D01*
X110333291Y-100172057D01*
X110318983Y-100225453D01*
X110307700Y-100267565D01*
X108933186Y-100267565D01*
X108954910Y-100229938D01*
X108980500Y-100134435D01*
X108980500Y-100035565D01*
X108954910Y-99940062D01*
X108954908Y-99940059D01*
X108954908Y-99940057D01*
X108908649Y-99859935D01*
X108905475Y-99854438D01*
X108835562Y-99784525D01*
X108835559Y-99784523D01*
X108749941Y-99735091D01*
X108749943Y-99735091D01*
X108712885Y-99725161D01*
X108654435Y-99709500D01*
X108555565Y-99709500D01*
X108497114Y-99725161D01*
X108460057Y-99735091D01*
X108374440Y-99784523D01*
X108304523Y-99854440D01*
X108255091Y-99940057D01*
X108244405Y-99979938D01*
X108229500Y-100035565D01*
X106615266Y-100035565D01*
X106581435Y-100026500D01*
X106482565Y-100026500D01*
X106428230Y-100041059D01*
X106387057Y-100052091D01*
X106301440Y-100101523D01*
X106231523Y-100171440D01*
X106182091Y-100257057D01*
X106173001Y-100290982D01*
X106159010Y-100343200D01*
X106156500Y-100352566D01*
X106156500Y-100451434D01*
X106157252Y-100454241D01*
X106157143Y-100456318D01*
X106157347Y-100457867D01*
X106157059Y-100457904D01*
X106154049Y-100515342D01*
X106115543Y-100562892D01*
X106087250Y-100575489D01*
X106032760Y-100590090D01*
X106032758Y-100590091D01*
X105947140Y-100639523D01*
X105877223Y-100709440D01*
X105827791Y-100795057D01*
X105827790Y-100795062D01*
X105802200Y-100890565D01*
X104224300Y-100890565D01*
X104224300Y-100872565D01*
X104198710Y-100777062D01*
X104198708Y-100777059D01*
X104198708Y-100777057D01*
X104149276Y-100691440D01*
X104149275Y-100691438D01*
X104079362Y-100621525D01*
X104072349Y-100617476D01*
X103993741Y-100572091D01*
X103993743Y-100572091D01*
X103956685Y-100562161D01*
X103898235Y-100546500D01*
X103815500Y-100546500D01*
X103757309Y-100527593D01*
X103721345Y-100478093D01*
X103716500Y-100447500D01*
X103716500Y-100437368D01*
X103735407Y-100379177D01*
X103784907Y-100343213D01*
X103789848Y-100341749D01*
X103879938Y-100317610D01*
X103879940Y-100317608D01*
X103879942Y-100317608D01*
X103926059Y-100290982D01*
X103965562Y-100268175D01*
X104035475Y-100198262D01*
X104046654Y-100178899D01*
X104092120Y-100137960D01*
X104152970Y-100131563D01*
X104181889Y-100142664D01*
X104255058Y-100184908D01*
X104255056Y-100184908D01*
X104255060Y-100184909D01*
X104255062Y-100184910D01*
X104350565Y-100210500D01*
X104350567Y-100210500D01*
X104449433Y-100210500D01*
X104449435Y-100210500D01*
X104544938Y-100184910D01*
X104544940Y-100184908D01*
X104544942Y-100184908D01*
X104585589Y-100161440D01*
X104630562Y-100135475D01*
X104700475Y-100065562D01*
X104749910Y-99979938D01*
X104775500Y-99884435D01*
X104775500Y-99785565D01*
X104749910Y-99690062D01*
X104749908Y-99690059D01*
X104749908Y-99690057D01*
X104700476Y-99604440D01*
X104700475Y-99604438D01*
X104630562Y-99534525D01*
X104623693Y-99530559D01*
X104544941Y-99485091D01*
X104544943Y-99485091D01*
X104507885Y-99475161D01*
X104449435Y-99459500D01*
X104350565Y-99459500D01*
X104292114Y-99475161D01*
X104255057Y-99485091D01*
X104169440Y-99534523D01*
X104099523Y-99604440D01*
X104088345Y-99623801D01*
X104042875Y-99664741D01*
X103982024Y-99671135D01*
X103953110Y-99660036D01*
X103879939Y-99617790D01*
X103842890Y-99607863D01*
X103784435Y-99592200D01*
X103685565Y-99592200D01*
X103639885Y-99604440D01*
X103590057Y-99617791D01*
X103504440Y-99667223D01*
X103434523Y-99737140D01*
X103385091Y-99822757D01*
X103359500Y-99918266D01*
X103359500Y-99922331D01*
X103340593Y-99980522D01*
X103291093Y-100016486D01*
X103286124Y-100017957D01*
X103196062Y-100042089D01*
X103196058Y-100042091D01*
X103110440Y-100091523D01*
X103040523Y-100161440D01*
X102991091Y-100247057D01*
X102983470Y-100275500D01*
X102965500Y-100342565D01*
X95825500Y-100342565D01*
X95825500Y-100300565D01*
X95799910Y-100205062D01*
X95799908Y-100205059D01*
X95799908Y-100205057D01*
X95750476Y-100119440D01*
X95750475Y-100119438D01*
X95708045Y-100077008D01*
X95680270Y-100022494D01*
X95689841Y-99962062D01*
X95692308Y-99957519D01*
X95693510Y-99955438D01*
X95719100Y-99859935D01*
X95719100Y-99761065D01*
X95693510Y-99665562D01*
X95693508Y-99665559D01*
X95693508Y-99665557D01*
X95644435Y-99580562D01*
X95644075Y-99579938D01*
X95574162Y-99510025D01*
X95574159Y-99510023D01*
X95488541Y-99460591D01*
X95488543Y-99460591D01*
X95451485Y-99450661D01*
X95393035Y-99435000D01*
X95294165Y-99435000D01*
X95235714Y-99450661D01*
X95198657Y-99460591D01*
X95113040Y-99510023D01*
X95043123Y-99579940D01*
X94993691Y-99665557D01*
X94987125Y-99690062D01*
X94968100Y-99761065D01*
X91205901Y-99761065D01*
X91214161Y-99754376D01*
X91224006Y-99751176D01*
X91254137Y-99743103D01*
X91254139Y-99743101D01*
X91254141Y-99743101D01*
X91328949Y-99699910D01*
X91351163Y-99687085D01*
X91430385Y-99607863D01*
X91456079Y-99563358D01*
X91501547Y-99522418D01*
X91562397Y-99516022D01*
X91611816Y-99542853D01*
X91669438Y-99600475D01*
X91697979Y-99616953D01*
X91755058Y-99649908D01*
X91755056Y-99649908D01*
X91755060Y-99649909D01*
X91755062Y-99649910D01*
X91850565Y-99675500D01*
X91850567Y-99675500D01*
X91949433Y-99675500D01*
X91949435Y-99675500D01*
X92044938Y-99649910D01*
X92044940Y-99649908D01*
X92044942Y-99649908D01*
X92090160Y-99623801D01*
X92130562Y-99600475D01*
X92200475Y-99530562D01*
X92249910Y-99444938D01*
X92275500Y-99349435D01*
X92275500Y-99300565D01*
X93966400Y-99300565D01*
X93966400Y-99399435D01*
X93982787Y-99460591D01*
X93991991Y-99494942D01*
X94041066Y-99579940D01*
X94041425Y-99580562D01*
X94111338Y-99650475D01*
X94111340Y-99650476D01*
X94196958Y-99699908D01*
X94196956Y-99699908D01*
X94196960Y-99699909D01*
X94196962Y-99699910D01*
X94292465Y-99725500D01*
X94292467Y-99725500D01*
X94391333Y-99725500D01*
X94391335Y-99725500D01*
X94486838Y-99699910D01*
X94486840Y-99699908D01*
X94486842Y-99699908D01*
X94536678Y-99671135D01*
X94572462Y-99650475D01*
X94642375Y-99580562D01*
X94679637Y-99516022D01*
X94691808Y-99494942D01*
X94691808Y-99494940D01*
X94691810Y-99494938D01*
X94717400Y-99399435D01*
X94717400Y-99300565D01*
X94691810Y-99205062D01*
X94691808Y-99205059D01*
X94691808Y-99205057D01*
X94642376Y-99119440D01*
X94642375Y-99119438D01*
X94572462Y-99049525D01*
X94569580Y-99047861D01*
X94486841Y-99000091D01*
X94486843Y-99000091D01*
X94449785Y-98990161D01*
X94391335Y-98974500D01*
X94292465Y-98974500D01*
X94234014Y-98990161D01*
X94196957Y-99000091D01*
X94111340Y-99049523D01*
X94041423Y-99119440D01*
X93991991Y-99205057D01*
X93981514Y-99244159D01*
X93966400Y-99300565D01*
X92275500Y-99300565D01*
X92275500Y-99250565D01*
X92253088Y-99166923D01*
X92252299Y-99162159D01*
X92256183Y-99136456D01*
X92257543Y-99110502D01*
X92260693Y-99106611D01*
X92261442Y-99101660D01*
X92279690Y-99083151D01*
X92296048Y-99062952D01*
X92300885Y-99061655D01*
X92304400Y-99058091D01*
X92330041Y-99053843D01*
X92355149Y-99047116D01*
X92359953Y-99048888D01*
X92364762Y-99048092D01*
X92384272Y-99057859D01*
X92406441Y-99066038D01*
X92406619Y-99065731D01*
X92408405Y-99066762D01*
X92410234Y-99067437D01*
X92412235Y-99068972D01*
X92412238Y-99068975D01*
X92429616Y-99079008D01*
X92497858Y-99118408D01*
X92497856Y-99118408D01*
X92497860Y-99118409D01*
X92497862Y-99118410D01*
X92593365Y-99144000D01*
X92593367Y-99144000D01*
X92692233Y-99144000D01*
X92692235Y-99144000D01*
X92787738Y-99118410D01*
X92787740Y-99118408D01*
X92787742Y-99118408D01*
X92842585Y-99086744D01*
X92873362Y-99068975D01*
X92943275Y-98999062D01*
X92978449Y-98938138D01*
X92992708Y-98913442D01*
X92992708Y-98913440D01*
X92992710Y-98913438D01*
X93018300Y-98817935D01*
X93018300Y-98719065D01*
X92992710Y-98623562D01*
X92992708Y-98623559D01*
X92992708Y-98623557D01*
X92950273Y-98550059D01*
X92943275Y-98537938D01*
X92873362Y-98468025D01*
X92872264Y-98467391D01*
X92787741Y-98418591D01*
X92787743Y-98418591D01*
X92750685Y-98408661D01*
X92692235Y-98393000D01*
X92593365Y-98393000D01*
X92534914Y-98408661D01*
X92497857Y-98418591D01*
X92412240Y-98468023D01*
X92342323Y-98537940D01*
X92292891Y-98623557D01*
X92285679Y-98650475D01*
X92267300Y-98719065D01*
X92267300Y-98817935D01*
X92282333Y-98874038D01*
X92288458Y-98896896D01*
X92285255Y-98957997D01*
X92246750Y-99005547D01*
X92187650Y-99021383D01*
X92136358Y-99002461D01*
X92136181Y-99002769D01*
X92134394Y-99001737D01*
X92132566Y-99001063D01*
X92130559Y-98999523D01*
X92044941Y-98950091D01*
X92044943Y-98950091D01*
X92000340Y-98938140D01*
X91949435Y-98924500D01*
X91850565Y-98924500D01*
X91799660Y-98938140D01*
X91755057Y-98950091D01*
X91669440Y-98999523D01*
X91599523Y-99069440D01*
X91595744Y-99075986D01*
X91550273Y-99116925D01*
X91489423Y-99123318D01*
X91436436Y-99092723D01*
X91431464Y-99086744D01*
X91430386Y-99085339D01*
X91430385Y-99085337D01*
X91351163Y-99006115D01*
X91351160Y-99006113D01*
X91254140Y-98950098D01*
X91254142Y-98950098D01*
X91212151Y-98938847D01*
X91145918Y-98921100D01*
X91033882Y-98921100D01*
X90967648Y-98938847D01*
X90925658Y-98950098D01*
X90828639Y-99006113D01*
X90749413Y-99085339D01*
X90693398Y-99182358D01*
X90677186Y-99242863D01*
X90664400Y-99290582D01*
X82350000Y-99290582D01*
X82350000Y-98679665D01*
X88097300Y-98679665D01*
X88097300Y-98778535D01*
X88108087Y-98818791D01*
X88122891Y-98874042D01*
X88172323Y-98959659D01*
X88172325Y-98959662D01*
X88242238Y-99029575D01*
X88242240Y-99029576D01*
X88327858Y-99079008D01*
X88327856Y-99079008D01*
X88327860Y-99079009D01*
X88327862Y-99079010D01*
X88423365Y-99104600D01*
X88423367Y-99104600D01*
X88522233Y-99104600D01*
X88522235Y-99104600D01*
X88617738Y-99079010D01*
X88617740Y-99079008D01*
X88617742Y-99079008D01*
X88643177Y-99064322D01*
X88703362Y-99029575D01*
X88773275Y-98959662D01*
X88822710Y-98874038D01*
X88848300Y-98778535D01*
X88848300Y-98679665D01*
X88822710Y-98584162D01*
X88822708Y-98584159D01*
X88822708Y-98584157D01*
X88773276Y-98498540D01*
X88773275Y-98498538D01*
X88703362Y-98428625D01*
X88685981Y-98418590D01*
X88617741Y-98379191D01*
X88617743Y-98379191D01*
X88576753Y-98368208D01*
X88522235Y-98353600D01*
X88423365Y-98353600D01*
X88368847Y-98368208D01*
X88327857Y-98379191D01*
X88242240Y-98428623D01*
X88172323Y-98498540D01*
X88122891Y-98584157D01*
X88118646Y-98600000D01*
X88097300Y-98679665D01*
X82350000Y-98679665D01*
X82350000Y-95530000D01*
X84275143Y-95530000D01*
X84750193Y-95530000D01*
X84730445Y-95564205D01*
X84710001Y-95640504D01*
X84710001Y-95719496D01*
X84730445Y-95795795D01*
X84750193Y-95830000D01*
X84275143Y-95830000D01*
X84288822Y-95898767D01*
X84345358Y-96035257D01*
X84427434Y-96158093D01*
X84531906Y-96262565D01*
X84654742Y-96344641D01*
X84791229Y-96401176D01*
X84791235Y-96401178D01*
X84936128Y-96429999D01*
X84936132Y-96430000D01*
X85259999Y-96430000D01*
X85260000Y-96429999D01*
X85260000Y-95979999D01*
X85560000Y-95979999D01*
X85560000Y-96429999D01*
X85560001Y-96430000D01*
X85883868Y-96430000D01*
X85883871Y-96429999D01*
X86028764Y-96401178D01*
X86028770Y-96401176D01*
X86165257Y-96344641D01*
X86288093Y-96262565D01*
X86392565Y-96158093D01*
X86474641Y-96035257D01*
X86531177Y-95898767D01*
X86544857Y-95830000D01*
X86069807Y-95830000D01*
X86089555Y-95795795D01*
X86109999Y-95719496D01*
X86109999Y-95640504D01*
X86089555Y-95564205D01*
X86069807Y-95530000D01*
X86544857Y-95530000D01*
X88305143Y-95530000D01*
X88780181Y-95530000D01*
X88760433Y-95564205D01*
X88739989Y-95640504D01*
X88739989Y-95719496D01*
X88760433Y-95795795D01*
X88780181Y-95830000D01*
X88305143Y-95830000D01*
X88318822Y-95898767D01*
X88375358Y-96035257D01*
X88457434Y-96158093D01*
X88561906Y-96262565D01*
X88684742Y-96344641D01*
X88821229Y-96401176D01*
X88821237Y-96401178D01*
X88912019Y-96419236D01*
X88965404Y-96449132D01*
X88991020Y-96504697D01*
X88979083Y-96564707D01*
X88934154Y-96606240D01*
X88918331Y-96611960D01*
X88887166Y-96620311D01*
X88887164Y-96620311D01*
X88887164Y-96620312D01*
X88767335Y-96689495D01*
X88669495Y-96787335D01*
X88600312Y-96907164D01*
X88564500Y-97040817D01*
X88564500Y-97179183D01*
X88600312Y-97312836D01*
X88669495Y-97432665D01*
X88767335Y-97530505D01*
X88887164Y-97599688D01*
X89020817Y-97635500D01*
X89020819Y-97635500D01*
X89159181Y-97635500D01*
X89159183Y-97635500D01*
X89292836Y-97599688D01*
X89377920Y-97550565D01*
X89794500Y-97550565D01*
X89794500Y-97649435D01*
X89806694Y-97694942D01*
X89820091Y-97744942D01*
X89859647Y-97813453D01*
X89869525Y-97830562D01*
X89939438Y-97900475D01*
X89939440Y-97900476D01*
X90025058Y-97949908D01*
X90025056Y-97949908D01*
X90025060Y-97949909D01*
X90025062Y-97949910D01*
X90120565Y-97975500D01*
X90120567Y-97975500D01*
X90219433Y-97975500D01*
X90219435Y-97975500D01*
X90244197Y-97968865D01*
X94245700Y-97968865D01*
X94245700Y-98067735D01*
X94260097Y-98121466D01*
X94271291Y-98163242D01*
X94314028Y-98237263D01*
X94320725Y-98248862D01*
X94390638Y-98318775D01*
X94390640Y-98318776D01*
X94476258Y-98368208D01*
X94476256Y-98368208D01*
X94476260Y-98368209D01*
X94476262Y-98368210D01*
X94571765Y-98393800D01*
X94571767Y-98393800D01*
X94670633Y-98393800D01*
X94670635Y-98393800D01*
X94766138Y-98368210D01*
X94766140Y-98368208D01*
X94766142Y-98368208D01*
X94808303Y-98343866D01*
X94851762Y-98318775D01*
X94905498Y-98265038D01*
X94960013Y-98237263D01*
X95020445Y-98246834D01*
X95063710Y-98290099D01*
X95074500Y-98335044D01*
X95074500Y-98399435D01*
X95085852Y-98441800D01*
X95100091Y-98494942D01*
X95132168Y-98550500D01*
X95144890Y-98610348D01*
X95132168Y-98649500D01*
X95100091Y-98705057D01*
X95089869Y-98743208D01*
X95074500Y-98800565D01*
X95074500Y-98899435D01*
X95091845Y-98964166D01*
X95100091Y-98994942D01*
X95146883Y-99075986D01*
X95149525Y-99080562D01*
X95219438Y-99150475D01*
X95239675Y-99162159D01*
X95305058Y-99199908D01*
X95305056Y-99199908D01*
X95305060Y-99199909D01*
X95305062Y-99199910D01*
X95400565Y-99225500D01*
X95400567Y-99225500D01*
X95499433Y-99225500D01*
X95499435Y-99225500D01*
X95594938Y-99199910D01*
X95594940Y-99199908D01*
X95594942Y-99199908D01*
X95625339Y-99182358D01*
X95680562Y-99150475D01*
X95750475Y-99080562D01*
X95796935Y-99000091D01*
X95799908Y-98994942D01*
X95799908Y-98994940D01*
X95799910Y-98994938D01*
X95825500Y-98899435D01*
X95825500Y-98800565D01*
X95799910Y-98705062D01*
X95767830Y-98649498D01*
X95755109Y-98589653D01*
X95767831Y-98550500D01*
X95799910Y-98494938D01*
X95825500Y-98399435D01*
X95825500Y-98300565D01*
X102174500Y-98300565D01*
X102174500Y-98399435D01*
X102185852Y-98441800D01*
X102200091Y-98494942D01*
X102248992Y-98579639D01*
X102249525Y-98580562D01*
X102319438Y-98650475D01*
X102342327Y-98663690D01*
X102405058Y-98699908D01*
X102405056Y-98699908D01*
X102405060Y-98699909D01*
X102405062Y-98699910D01*
X102500565Y-98725500D01*
X102500567Y-98725500D01*
X102599433Y-98725500D01*
X102599435Y-98725500D01*
X102694938Y-98699910D01*
X102694940Y-98699908D01*
X102694942Y-98699908D01*
X102730003Y-98679665D01*
X102780562Y-98650475D01*
X102816270Y-98614766D01*
X102870784Y-98586990D01*
X102931216Y-98596561D01*
X102974481Y-98639825D01*
X102984053Y-98700257D01*
X102981899Y-98710393D01*
X102973107Y-98743208D01*
X102966500Y-98767865D01*
X102966500Y-98866735D01*
X102975262Y-98899435D01*
X102992091Y-98962242D01*
X103041094Y-99047116D01*
X103041525Y-99047862D01*
X103111438Y-99117775D01*
X103114322Y-99119440D01*
X103197058Y-99167208D01*
X103197056Y-99167208D01*
X103197060Y-99167209D01*
X103197062Y-99167210D01*
X103292565Y-99192800D01*
X103292567Y-99192800D01*
X103391433Y-99192800D01*
X103391435Y-99192800D01*
X103486938Y-99167210D01*
X103486940Y-99167208D01*
X103486942Y-99167208D01*
X103527139Y-99144000D01*
X103569981Y-99119265D01*
X109774600Y-99119265D01*
X109774600Y-99218135D01*
X109781573Y-99244159D01*
X109800191Y-99313642D01*
X109849623Y-99399259D01*
X109849625Y-99399262D01*
X109919538Y-99469175D01*
X109919540Y-99469176D01*
X110005158Y-99518608D01*
X110005156Y-99518608D01*
X110005160Y-99518609D01*
X110005162Y-99518610D01*
X110100665Y-99544200D01*
X110100667Y-99544200D01*
X110199533Y-99544200D01*
X110199535Y-99544200D01*
X110295038Y-99518610D01*
X110295040Y-99518608D01*
X110295042Y-99518608D01*
X110336039Y-99494938D01*
X110380662Y-99469175D01*
X110450575Y-99399262D01*
X110450576Y-99399259D01*
X110455163Y-99394673D01*
X110456954Y-99396464D01*
X110498392Y-99367956D01*
X110552178Y-99367239D01*
X110633765Y-99389100D01*
X110633766Y-99389100D01*
X110732633Y-99389100D01*
X110732635Y-99389100D01*
X110828138Y-99363510D01*
X110828140Y-99363508D01*
X110828142Y-99363508D01*
X110853577Y-99348822D01*
X110913762Y-99314075D01*
X110983675Y-99244162D01*
X111028103Y-99167210D01*
X111033108Y-99158542D01*
X111033108Y-99158540D01*
X111033110Y-99158538D01*
X111058700Y-99063035D01*
X111058700Y-98964165D01*
X111033110Y-98868662D01*
X111033108Y-98868659D01*
X111033108Y-98868657D01*
X110983676Y-98783040D01*
X110983675Y-98783038D01*
X110913762Y-98713125D01*
X110913759Y-98713123D01*
X110828141Y-98663691D01*
X110828143Y-98663691D01*
X110780252Y-98650859D01*
X110732635Y-98638100D01*
X110633765Y-98638100D01*
X110586148Y-98650859D01*
X110538257Y-98663691D01*
X110452640Y-98713123D01*
X110452638Y-98713124D01*
X110452638Y-98713125D01*
X110382725Y-98783038D01*
X110382723Y-98783040D01*
X110378137Y-98787627D01*
X110376353Y-98785843D01*
X110334848Y-98814361D01*
X110281121Y-98815060D01*
X110199535Y-98793200D01*
X110100665Y-98793200D01*
X110042214Y-98808861D01*
X110005157Y-98818791D01*
X109919540Y-98868223D01*
X109849623Y-98938140D01*
X109800191Y-99023757D01*
X109789689Y-99062952D01*
X109774600Y-99119265D01*
X103569981Y-99119265D01*
X103572562Y-99117775D01*
X103642475Y-99047862D01*
X103690797Y-98964166D01*
X103691908Y-98962242D01*
X103691908Y-98962240D01*
X103691910Y-98962238D01*
X103717500Y-98866735D01*
X103717500Y-98767865D01*
X103691910Y-98672362D01*
X103691908Y-98672359D01*
X103691908Y-98672357D01*
X103642476Y-98586740D01*
X103642475Y-98586738D01*
X103572562Y-98516825D01*
X103572559Y-98516823D01*
X103486941Y-98467391D01*
X103486943Y-98467391D01*
X103449885Y-98457461D01*
X103391435Y-98441800D01*
X103292565Y-98441800D01*
X103234114Y-98457461D01*
X103197057Y-98467391D01*
X103111438Y-98516824D01*
X103075730Y-98552532D01*
X103049669Y-98565810D01*
X103023990Y-98579829D01*
X103022526Y-98579639D01*
X103021213Y-98580309D01*
X102992334Y-98575734D01*
X102963310Y-98571981D01*
X102962237Y-98570967D01*
X102960781Y-98570737D01*
X102940104Y-98550059D01*
X102918832Y-98529965D01*
X102918672Y-98528627D01*
X102917517Y-98527472D01*
X102907545Y-98469830D01*
X102908391Y-98463284D01*
X102925500Y-98399435D01*
X102925500Y-98343865D01*
X106789700Y-98343865D01*
X106789700Y-98442735D01*
X106804653Y-98498540D01*
X106815291Y-98538242D01*
X106864549Y-98623557D01*
X106864725Y-98623862D01*
X106934638Y-98693775D01*
X106954188Y-98705062D01*
X107020258Y-98743208D01*
X107020256Y-98743208D01*
X107020260Y-98743209D01*
X107020262Y-98743210D01*
X107115765Y-98768800D01*
X107115767Y-98768800D01*
X107214633Y-98768800D01*
X107214635Y-98768800D01*
X107310138Y-98743210D01*
X107310140Y-98743208D01*
X107310142Y-98743208D01*
X107348995Y-98720776D01*
X107395762Y-98693775D01*
X107465675Y-98623862D01*
X107515110Y-98538238D01*
X107540700Y-98442735D01*
X107540700Y-98370865D01*
X115502300Y-98370865D01*
X115502300Y-98469735D01*
X115523823Y-98550059D01*
X115527891Y-98565242D01*
X115577102Y-98650476D01*
X115577325Y-98650862D01*
X115647238Y-98720775D01*
X115647240Y-98720776D01*
X115732858Y-98770208D01*
X115732856Y-98770208D01*
X115732860Y-98770209D01*
X115732862Y-98770210D01*
X115828365Y-98795800D01*
X115828367Y-98795800D01*
X115927233Y-98795800D01*
X115927235Y-98795800D01*
X116022738Y-98770210D01*
X116022740Y-98770208D01*
X116022742Y-98770208D01*
X116069503Y-98743210D01*
X116108362Y-98720775D01*
X116178275Y-98650862D01*
X116213614Y-98589653D01*
X116227708Y-98565242D01*
X116227708Y-98565240D01*
X116227710Y-98565238D01*
X116253300Y-98469735D01*
X116253300Y-98370865D01*
X116227710Y-98275362D01*
X116227708Y-98275359D01*
X116227708Y-98275357D01*
X116178276Y-98189740D01*
X116178275Y-98189738D01*
X116108362Y-98119825D01*
X116108359Y-98119823D01*
X116022741Y-98070391D01*
X116022743Y-98070391D01*
X115967078Y-98055476D01*
X115927235Y-98044800D01*
X115828365Y-98044800D01*
X115788522Y-98055476D01*
X115732857Y-98070391D01*
X115647240Y-98119823D01*
X115577323Y-98189740D01*
X115527891Y-98275357D01*
X115516257Y-98318775D01*
X115502300Y-98370865D01*
X107540700Y-98370865D01*
X107540700Y-98343865D01*
X107515110Y-98248362D01*
X107515108Y-98248359D01*
X107515108Y-98248357D01*
X107465676Y-98162740D01*
X107465675Y-98162738D01*
X107395762Y-98092825D01*
X107395759Y-98092823D01*
X107310141Y-98043391D01*
X107310143Y-98043391D01*
X107272317Y-98033256D01*
X107214635Y-98017800D01*
X107115765Y-98017800D01*
X107058083Y-98033256D01*
X107020257Y-98043391D01*
X106934640Y-98092823D01*
X106864723Y-98162740D01*
X106815291Y-98248357D01*
X106815156Y-98248862D01*
X106789700Y-98343865D01*
X102925500Y-98343865D01*
X102925500Y-98300565D01*
X102899910Y-98205062D01*
X102899908Y-98205059D01*
X102899908Y-98205057D01*
X102850476Y-98119440D01*
X102850475Y-98119438D01*
X102780562Y-98049525D01*
X102780559Y-98049523D01*
X102694941Y-98000091D01*
X102694943Y-98000091D01*
X102657885Y-97990161D01*
X102599435Y-97974500D01*
X102500565Y-97974500D01*
X102442114Y-97990161D01*
X102405057Y-98000091D01*
X102319440Y-98049523D01*
X102249523Y-98119440D01*
X102200091Y-98205057D01*
X102200090Y-98205062D01*
X102174500Y-98300565D01*
X95825500Y-98300565D01*
X95799910Y-98205062D01*
X95799908Y-98205059D01*
X95799908Y-98205057D01*
X95750476Y-98119440D01*
X95750475Y-98119438D01*
X95680562Y-98049525D01*
X95680559Y-98049523D01*
X95594941Y-98000091D01*
X95594943Y-98000091D01*
X95557885Y-97990161D01*
X95499435Y-97974500D01*
X95400565Y-97974500D01*
X95342114Y-97990161D01*
X95305057Y-98000091D01*
X95219440Y-98049523D01*
X95219438Y-98049524D01*
X95219438Y-98049525D01*
X95165701Y-98103261D01*
X95111187Y-98131037D01*
X95050755Y-98121466D01*
X95007490Y-98078201D01*
X94996700Y-98033256D01*
X94996700Y-97968866D01*
X94990153Y-97944433D01*
X94971110Y-97873362D01*
X94971108Y-97873359D01*
X94971108Y-97873357D01*
X94921676Y-97787740D01*
X94921675Y-97787738D01*
X94851762Y-97717825D01*
X94849190Y-97716340D01*
X94766141Y-97668391D01*
X94766143Y-97668391D01*
X94710336Y-97653438D01*
X94670635Y-97642800D01*
X94571765Y-97642800D01*
X94532064Y-97653438D01*
X94476257Y-97668391D01*
X94390640Y-97717823D01*
X94320723Y-97787740D01*
X94271291Y-97873357D01*
X94264831Y-97897466D01*
X94245700Y-97968865D01*
X90244197Y-97968865D01*
X90314938Y-97949910D01*
X90314940Y-97949908D01*
X90314942Y-97949908D01*
X90357217Y-97925500D01*
X90400562Y-97900475D01*
X90470475Y-97830562D01*
X90519910Y-97744938D01*
X90545500Y-97649435D01*
X90545500Y-97550565D01*
X90519910Y-97455062D01*
X90519908Y-97455059D01*
X90519908Y-97455057D01*
X90470476Y-97369440D01*
X90470475Y-97369438D01*
X90400562Y-97299525D01*
X90400559Y-97299523D01*
X90314941Y-97250091D01*
X90314943Y-97250091D01*
X90277885Y-97240161D01*
X90219435Y-97224500D01*
X90120565Y-97224500D01*
X90062114Y-97240161D01*
X90025057Y-97250091D01*
X89939440Y-97299523D01*
X89869523Y-97369440D01*
X89820091Y-97455057D01*
X89820090Y-97455062D01*
X89794500Y-97550565D01*
X89377920Y-97550565D01*
X89412665Y-97530505D01*
X89510505Y-97432665D01*
X89579688Y-97312836D01*
X89615500Y-97179183D01*
X89615500Y-97040817D01*
X89579688Y-96907164D01*
X89510505Y-96787335D01*
X89454835Y-96731665D01*
X90705300Y-96731665D01*
X90705300Y-96830535D01*
X90717628Y-96876542D01*
X90730891Y-96926042D01*
X90774606Y-97001757D01*
X90780325Y-97011662D01*
X90850238Y-97081575D01*
X90850240Y-97081576D01*
X90935858Y-97131008D01*
X90935856Y-97131008D01*
X90935860Y-97131009D01*
X90935862Y-97131010D01*
X91031365Y-97156600D01*
X91031367Y-97156600D01*
X91130233Y-97156600D01*
X91130235Y-97156600D01*
X91225738Y-97131010D01*
X91225740Y-97131008D01*
X91225742Y-97131008D01*
X91260583Y-97110892D01*
X91289872Y-97093982D01*
X95224500Y-97093982D01*
X95224500Y-97206018D01*
X95244460Y-97280509D01*
X95253498Y-97314241D01*
X95309513Y-97411260D01*
X95309515Y-97411263D01*
X95388737Y-97490485D01*
X95388739Y-97490486D01*
X95485759Y-97546501D01*
X95485757Y-97546501D01*
X95485761Y-97546502D01*
X95485763Y-97546503D01*
X95593982Y-97575500D01*
X95593984Y-97575500D01*
X95706016Y-97575500D01*
X95706018Y-97575500D01*
X95814237Y-97546503D01*
X95814239Y-97546501D01*
X95814241Y-97546501D01*
X95852455Y-97524438D01*
X95893804Y-97500565D01*
X99374500Y-97500565D01*
X99374500Y-97599435D01*
X99392977Y-97668391D01*
X99400091Y-97694942D01*
X99449523Y-97780559D01*
X99449525Y-97780562D01*
X99519438Y-97850475D01*
X99519440Y-97850476D01*
X99605058Y-97899908D01*
X99605056Y-97899908D01*
X99605060Y-97899909D01*
X99605062Y-97899910D01*
X99700565Y-97925500D01*
X99700567Y-97925500D01*
X99799433Y-97925500D01*
X99799435Y-97925500D01*
X99894938Y-97899910D01*
X99894940Y-97899908D01*
X99894942Y-97899908D01*
X99920377Y-97885222D01*
X99980562Y-97850475D01*
X100050475Y-97780562D01*
X100093775Y-97705565D01*
X105349500Y-97705565D01*
X105349500Y-97804435D01*
X105361837Y-97850476D01*
X105375091Y-97899942D01*
X105424523Y-97985559D01*
X105424525Y-97985562D01*
X105494438Y-98055475D01*
X105515673Y-98067735D01*
X105580058Y-98104908D01*
X105580056Y-98104908D01*
X105580060Y-98104909D01*
X105580062Y-98104910D01*
X105675565Y-98130500D01*
X105675567Y-98130500D01*
X105774433Y-98130500D01*
X105774435Y-98130500D01*
X105869938Y-98104910D01*
X105869940Y-98104908D01*
X105869942Y-98104908D01*
X105916199Y-98078201D01*
X105955562Y-98055475D01*
X106025475Y-97985562D01*
X106060222Y-97925377D01*
X106074908Y-97899942D01*
X106074908Y-97899940D01*
X106074910Y-97899938D01*
X106089479Y-97845565D01*
X110069500Y-97845565D01*
X110069500Y-97944435D01*
X110077556Y-97974500D01*
X110095091Y-98039942D01*
X110142160Y-98121466D01*
X110144525Y-98125562D01*
X110214438Y-98195475D01*
X110214440Y-98195476D01*
X110300058Y-98244908D01*
X110300056Y-98244908D01*
X110300060Y-98244909D01*
X110300062Y-98244910D01*
X110395565Y-98270500D01*
X110395567Y-98270500D01*
X110494433Y-98270500D01*
X110494435Y-98270500D01*
X110589938Y-98244910D01*
X110589940Y-98244908D01*
X110589942Y-98244908D01*
X110615377Y-98230222D01*
X110675562Y-98195475D01*
X110745475Y-98125562D01*
X110792103Y-98044800D01*
X110794908Y-98039942D01*
X110794908Y-98039940D01*
X110794910Y-98039938D01*
X110820500Y-97944435D01*
X110820500Y-97897465D01*
X111048000Y-97897465D01*
X111048000Y-97996335D01*
X111063847Y-98055475D01*
X111073591Y-98091842D01*
X111114815Y-98163242D01*
X111123025Y-98177462D01*
X111192938Y-98247375D01*
X111195514Y-98248862D01*
X111278558Y-98296808D01*
X111278556Y-98296808D01*
X111278560Y-98296809D01*
X111278562Y-98296810D01*
X111374065Y-98322400D01*
X111374067Y-98322400D01*
X111472933Y-98322400D01*
X111472935Y-98322400D01*
X111568438Y-98296810D01*
X111654062Y-98247375D01*
X111723975Y-98177462D01*
X111772840Y-98092825D01*
X111773408Y-98091842D01*
X111773408Y-98091840D01*
X111773410Y-98091838D01*
X111799000Y-97996335D01*
X111799000Y-97945842D01*
X111817907Y-97887651D01*
X111848500Y-97860105D01*
X111851433Y-97858411D01*
X111851438Y-97858410D01*
X111937062Y-97808975D01*
X112006975Y-97739062D01*
X112006976Y-97739059D01*
X112011563Y-97734473D01*
X112012452Y-97735362D01*
X112057288Y-97704543D01*
X112118453Y-97706140D01*
X112166997Y-97743384D01*
X112181038Y-97773838D01*
X112190454Y-97808975D01*
X112200091Y-97844942D01*
X112246602Y-97925500D01*
X112249525Y-97930562D01*
X112319438Y-98000475D01*
X112319440Y-98000476D01*
X112405058Y-98049908D01*
X112405056Y-98049908D01*
X112405060Y-98049909D01*
X112405062Y-98049910D01*
X112500565Y-98075500D01*
X112500567Y-98075500D01*
X112599433Y-98075500D01*
X112599435Y-98075500D01*
X112694938Y-98049910D01*
X112694940Y-98049908D01*
X112694942Y-98049908D01*
X112750554Y-98017800D01*
X112780562Y-98000475D01*
X112850475Y-97930562D01*
X112896713Y-97850475D01*
X112899908Y-97844942D01*
X112899908Y-97844940D01*
X112899910Y-97844938D01*
X112925500Y-97749435D01*
X112925500Y-97650565D01*
X112899910Y-97555062D01*
X112899908Y-97555059D01*
X112899908Y-97555057D01*
X112850476Y-97469440D01*
X112850475Y-97469438D01*
X112780562Y-97399525D01*
X112745878Y-97379500D01*
X112694941Y-97350091D01*
X112694943Y-97350091D01*
X112657885Y-97340161D01*
X112599435Y-97324500D01*
X112500565Y-97324500D01*
X112442114Y-97340161D01*
X112405057Y-97350091D01*
X112319440Y-97399523D01*
X112319438Y-97399524D01*
X112319438Y-97399525D01*
X112249525Y-97469438D01*
X112249523Y-97469440D01*
X112244937Y-97474027D01*
X112244050Y-97473140D01*
X112199190Y-97503962D01*
X112138026Y-97502352D01*
X112089489Y-97465097D01*
X112075461Y-97434661D01*
X112056410Y-97363562D01*
X112006975Y-97277938D01*
X111937062Y-97208025D01*
X111937059Y-97208023D01*
X111851441Y-97158591D01*
X111851443Y-97158591D01*
X111814385Y-97148661D01*
X111755935Y-97133000D01*
X111657065Y-97133000D01*
X111598614Y-97148661D01*
X111561557Y-97158591D01*
X111475940Y-97208023D01*
X111406023Y-97277940D01*
X111356591Y-97363557D01*
X111342283Y-97416953D01*
X111332217Y-97454525D01*
X111331000Y-97459066D01*
X111331000Y-97509556D01*
X111312093Y-97567747D01*
X111281501Y-97595292D01*
X111192939Y-97646424D01*
X111123023Y-97716340D01*
X111073591Y-97801957D01*
X111061907Y-97845565D01*
X111048000Y-97897465D01*
X110820500Y-97897465D01*
X110820500Y-97845565D01*
X110794910Y-97750062D01*
X110794908Y-97750059D01*
X110794908Y-97750057D01*
X110745476Y-97664440D01*
X110745475Y-97664438D01*
X110675562Y-97594525D01*
X110675559Y-97594523D01*
X110589941Y-97545091D01*
X110589943Y-97545091D01*
X110535502Y-97530504D01*
X110494435Y-97519500D01*
X110395565Y-97519500D01*
X110354498Y-97530504D01*
X110300057Y-97545091D01*
X110214440Y-97594523D01*
X110144523Y-97664440D01*
X110095091Y-97750057D01*
X110084995Y-97787738D01*
X110069500Y-97845565D01*
X106089479Y-97845565D01*
X106100500Y-97804435D01*
X106100500Y-97705565D01*
X106074910Y-97610062D01*
X106074908Y-97610059D01*
X106074908Y-97610057D01*
X106025476Y-97524440D01*
X106025475Y-97524438D01*
X105955562Y-97454525D01*
X105921150Y-97434657D01*
X105869941Y-97405091D01*
X105869943Y-97405091D01*
X105832885Y-97395161D01*
X105774435Y-97379500D01*
X105675565Y-97379500D01*
X105617114Y-97395161D01*
X105580057Y-97405091D01*
X105494440Y-97454523D01*
X105424523Y-97524440D01*
X105375091Y-97610057D01*
X105364540Y-97649435D01*
X105349500Y-97705565D01*
X100093775Y-97705565D01*
X100099910Y-97694938D01*
X100125500Y-97599435D01*
X100125500Y-97500565D01*
X100099910Y-97405062D01*
X100099908Y-97405059D01*
X100099908Y-97405057D01*
X100054668Y-97326700D01*
X100050475Y-97319438D01*
X99980562Y-97249525D01*
X99980559Y-97249523D01*
X99894941Y-97200091D01*
X99894943Y-97200091D01*
X99843544Y-97186319D01*
X99799435Y-97174500D01*
X99700565Y-97174500D01*
X99656456Y-97186319D01*
X99605057Y-97200091D01*
X99519440Y-97249523D01*
X99449523Y-97319440D01*
X99400091Y-97405057D01*
X99385783Y-97458453D01*
X99374500Y-97500565D01*
X95893804Y-97500565D01*
X95911263Y-97490485D01*
X95990485Y-97411263D01*
X96029859Y-97343064D01*
X96046501Y-97314241D01*
X96046501Y-97314239D01*
X96046503Y-97314237D01*
X96075500Y-97206018D01*
X96075500Y-97093982D01*
X96046503Y-96985763D01*
X96046501Y-96985760D01*
X96046501Y-96985758D01*
X95990486Y-96888739D01*
X95990485Y-96888737D01*
X95911263Y-96809515D01*
X95874364Y-96788211D01*
X95874363Y-96788210D01*
X95814240Y-96753498D01*
X95814242Y-96753498D01*
X95772251Y-96742247D01*
X95706018Y-96724500D01*
X95593982Y-96724500D01*
X95527748Y-96742247D01*
X95485758Y-96753498D01*
X95388739Y-96809513D01*
X95309513Y-96888739D01*
X95253498Y-96985758D01*
X95238989Y-97039908D01*
X95224500Y-97093982D01*
X91289872Y-97093982D01*
X91311362Y-97081575D01*
X91381275Y-97011662D01*
X91430710Y-96926038D01*
X91456300Y-96830535D01*
X91456300Y-96731665D01*
X91431890Y-96640565D01*
X93829900Y-96640565D01*
X93829900Y-96739435D01*
X93847806Y-96806262D01*
X93855491Y-96834942D01*
X93904923Y-96920559D01*
X93904925Y-96920562D01*
X93974838Y-96990475D01*
X93974840Y-96990476D01*
X94060458Y-97039908D01*
X94060456Y-97039908D01*
X94060460Y-97039909D01*
X94060462Y-97039910D01*
X94155965Y-97065500D01*
X94155967Y-97065500D01*
X94254833Y-97065500D01*
X94254835Y-97065500D01*
X94350338Y-97039910D01*
X94350340Y-97039908D01*
X94350342Y-97039908D01*
X94416412Y-97001762D01*
X94416421Y-97001757D01*
X94418368Y-97000633D01*
X94435962Y-96990475D01*
X94505875Y-96920562D01*
X94555310Y-96834938D01*
X94580900Y-96739435D01*
X94580900Y-96708965D01*
X96341800Y-96708965D01*
X96341800Y-96807835D01*
X96360209Y-96876538D01*
X96367391Y-96903342D01*
X96414975Y-96985758D01*
X96416825Y-96988962D01*
X96486738Y-97058875D01*
X96486740Y-97058876D01*
X96572358Y-97108308D01*
X96572356Y-97108308D01*
X96572360Y-97108309D01*
X96572362Y-97108310D01*
X96667865Y-97133900D01*
X96667867Y-97133900D01*
X96766735Y-97133900D01*
X96778326Y-97130794D01*
X96839427Y-97133995D01*
X96886978Y-97172499D01*
X96889671Y-97176893D01*
X96909515Y-97211263D01*
X96988737Y-97290485D01*
X96988739Y-97290486D01*
X97085759Y-97346501D01*
X97085757Y-97346501D01*
X97085761Y-97346502D01*
X97085763Y-97346503D01*
X97193982Y-97375500D01*
X97193984Y-97375500D01*
X97306016Y-97375500D01*
X97306018Y-97375500D01*
X97414237Y-97346503D01*
X97414239Y-97346501D01*
X97414241Y-97346501D01*
X97470123Y-97314237D01*
X97511263Y-97290485D01*
X97590485Y-97211263D01*
X97590486Y-97211260D01*
X97595073Y-97206674D01*
X97596073Y-97207674D01*
X97640488Y-97177137D01*
X97701653Y-97178727D01*
X97718123Y-97186318D01*
X97735763Y-97196503D01*
X97843982Y-97225500D01*
X97843984Y-97225500D01*
X97956016Y-97225500D01*
X97956018Y-97225500D01*
X98064237Y-97196503D01*
X98077205Y-97189016D01*
X98137053Y-97176293D01*
X98192949Y-97201178D01*
X98196691Y-97204728D01*
X98223038Y-97231075D01*
X98223040Y-97231076D01*
X98308658Y-97280508D01*
X98308656Y-97280508D01*
X98308660Y-97280509D01*
X98308662Y-97280510D01*
X98404165Y-97306100D01*
X98404167Y-97306100D01*
X98503033Y-97306100D01*
X98503035Y-97306100D01*
X98598538Y-97280510D01*
X98633211Y-97260491D01*
X98693057Y-97247770D01*
X98732207Y-97260490D01*
X98802562Y-97301110D01*
X98898065Y-97326700D01*
X98898067Y-97326700D01*
X98996933Y-97326700D01*
X98996935Y-97326700D01*
X99092438Y-97301110D01*
X99092440Y-97301108D01*
X99092442Y-97301108D01*
X99128122Y-97280508D01*
X99178062Y-97251675D01*
X99247975Y-97181762D01*
X99288892Y-97110892D01*
X99297408Y-97096142D01*
X99297408Y-97096140D01*
X99297410Y-97096138D01*
X99323000Y-97000635D01*
X99323000Y-96901765D01*
X99297410Y-96806262D01*
X99247975Y-96720638D01*
X99209502Y-96682165D01*
X101508900Y-96682165D01*
X101508900Y-96781035D01*
X101531467Y-96865257D01*
X101534491Y-96876542D01*
X101583923Y-96962159D01*
X101583925Y-96962162D01*
X101653838Y-97032075D01*
X101653840Y-97032076D01*
X101739458Y-97081508D01*
X101739456Y-97081508D01*
X101739460Y-97081509D01*
X101739462Y-97081510D01*
X101834965Y-97107100D01*
X101834967Y-97107100D01*
X101933833Y-97107100D01*
X101933835Y-97107100D01*
X102029338Y-97081510D01*
X102029340Y-97081508D01*
X102029342Y-97081508D01*
X102068543Y-97058875D01*
X102114962Y-97032075D01*
X102184875Y-96962162D01*
X102234310Y-96876538D01*
X102259900Y-96781035D01*
X102259900Y-96682165D01*
X102234310Y-96586662D01*
X102234308Y-96586659D01*
X102234308Y-96586657D01*
X102189419Y-96508909D01*
X102184875Y-96501038D01*
X102114962Y-96431125D01*
X102114959Y-96431123D01*
X102084028Y-96413265D01*
X106711800Y-96413265D01*
X106711800Y-96512135D01*
X106734367Y-96596357D01*
X106737391Y-96607642D01*
X106784650Y-96689495D01*
X106786825Y-96693262D01*
X106856738Y-96763175D01*
X106856740Y-96763176D01*
X106942358Y-96812608D01*
X106942356Y-96812608D01*
X106942360Y-96812609D01*
X106942362Y-96812610D01*
X107037865Y-96838200D01*
X107037867Y-96838200D01*
X107136733Y-96838200D01*
X107136735Y-96838200D01*
X107232238Y-96812610D01*
X107232240Y-96812608D01*
X107232242Y-96812608D01*
X107257677Y-96797922D01*
X107317862Y-96763175D01*
X107387775Y-96693262D01*
X107433848Y-96613462D01*
X107437208Y-96607642D01*
X107437208Y-96607640D01*
X107437210Y-96607638D01*
X107462800Y-96512135D01*
X107462800Y-96413265D01*
X107437210Y-96317762D01*
X107437208Y-96317759D01*
X107437208Y-96317757D01*
X107387776Y-96232140D01*
X107387775Y-96232138D01*
X107317862Y-96162225D01*
X107317859Y-96162223D01*
X107232241Y-96112791D01*
X107232243Y-96112791D01*
X107195185Y-96102861D01*
X107136735Y-96087200D01*
X107037865Y-96087200D01*
X106979414Y-96102861D01*
X106942357Y-96112791D01*
X106856740Y-96162223D01*
X106786823Y-96232140D01*
X106737391Y-96317757D01*
X106731407Y-96340090D01*
X106711800Y-96413265D01*
X102084028Y-96413265D01*
X102029341Y-96381691D01*
X102029343Y-96381691D01*
X101992285Y-96371761D01*
X101933835Y-96356100D01*
X101834965Y-96356100D01*
X101776514Y-96371761D01*
X101739457Y-96381691D01*
X101653840Y-96431123D01*
X101583923Y-96501040D01*
X101534491Y-96586657D01*
X101522844Y-96630125D01*
X101508900Y-96682165D01*
X99209502Y-96682165D01*
X99178062Y-96650725D01*
X99178059Y-96650723D01*
X99092441Y-96601291D01*
X99092443Y-96601291D01*
X99055385Y-96591361D01*
X98996935Y-96575700D01*
X98898065Y-96575700D01*
X98813842Y-96598267D01*
X98802558Y-96601291D01*
X98767888Y-96621308D01*
X98708040Y-96634029D01*
X98668889Y-96621307D01*
X98605137Y-96584500D01*
X98598540Y-96580691D01*
X98598539Y-96580690D01*
X98598538Y-96580690D01*
X98503035Y-96555100D01*
X98404165Y-96555100D01*
X98378929Y-96561861D01*
X98342708Y-96571567D01*
X98281607Y-96568364D01*
X98246356Y-96542042D01*
X98245073Y-96543326D01*
X98240486Y-96538739D01*
X98240485Y-96538737D01*
X98161263Y-96459515D01*
X98161260Y-96459513D01*
X98064240Y-96403498D01*
X98064242Y-96403498D01*
X98012085Y-96389523D01*
X97956018Y-96374500D01*
X97843982Y-96374500D01*
X97787915Y-96389523D01*
X97735758Y-96403498D01*
X97638737Y-96459514D01*
X97554926Y-96543325D01*
X97553928Y-96542327D01*
X97509498Y-96572866D01*
X97448334Y-96571267D01*
X97431876Y-96563681D01*
X97414238Y-96553497D01*
X97371486Y-96542042D01*
X97306018Y-96524500D01*
X97193982Y-96524500D01*
X97107588Y-96547648D01*
X97046487Y-96544446D01*
X97011964Y-96522027D01*
X96947862Y-96457925D01*
X96942640Y-96454910D01*
X96862241Y-96408491D01*
X96862243Y-96408491D01*
X96825185Y-96398561D01*
X96766735Y-96382900D01*
X96667865Y-96382900D01*
X96609414Y-96398561D01*
X96572357Y-96408491D01*
X96486740Y-96457923D01*
X96416823Y-96527840D01*
X96367391Y-96613457D01*
X96360128Y-96640565D01*
X96341800Y-96708965D01*
X94580900Y-96708965D01*
X94580900Y-96640565D01*
X94561994Y-96570007D01*
X94565196Y-96508909D01*
X94603701Y-96461359D01*
X94609429Y-96458345D01*
X94609319Y-96458155D01*
X94676727Y-96419236D01*
X94700562Y-96405475D01*
X94770475Y-96335562D01*
X94819910Y-96249938D01*
X94845500Y-96154435D01*
X94845500Y-96055565D01*
X94819910Y-95960062D01*
X94819617Y-95959555D01*
X94814427Y-95950565D01*
X113764500Y-95950565D01*
X113764500Y-96049435D01*
X113766143Y-96055565D01*
X113790091Y-96144942D01*
X113836307Y-96224989D01*
X113839525Y-96230562D01*
X113909438Y-96300475D01*
X113909440Y-96300476D01*
X113995058Y-96349908D01*
X113995056Y-96349908D01*
X113995060Y-96349909D01*
X113995062Y-96349910D01*
X114090565Y-96375500D01*
X114090567Y-96375500D01*
X114189433Y-96375500D01*
X114189435Y-96375500D01*
X114284938Y-96349910D01*
X114284940Y-96349908D01*
X114284942Y-96349908D01*
X114313117Y-96333641D01*
X114370562Y-96300475D01*
X114440475Y-96230562D01*
X114489910Y-96144938D01*
X114515500Y-96049435D01*
X114515500Y-95950565D01*
X114489910Y-95855062D01*
X114489908Y-95855059D01*
X114489908Y-95855057D01*
X114440476Y-95769440D01*
X114440475Y-95769438D01*
X114370562Y-95699525D01*
X114370559Y-95699523D01*
X114284941Y-95650091D01*
X114284943Y-95650091D01*
X114247885Y-95640161D01*
X114189435Y-95624500D01*
X114090565Y-95624500D01*
X114032114Y-95640161D01*
X113995057Y-95650091D01*
X113909440Y-95699523D01*
X113839523Y-95769440D01*
X113790091Y-95855057D01*
X113778379Y-95898767D01*
X113764500Y-95950565D01*
X94814427Y-95950565D01*
X94770476Y-95874440D01*
X94770475Y-95874438D01*
X94700562Y-95804525D01*
X94700559Y-95804523D01*
X94614941Y-95755091D01*
X94614943Y-95755091D01*
X94577885Y-95745161D01*
X94519435Y-95729500D01*
X94420565Y-95729500D01*
X94362114Y-95745161D01*
X94325057Y-95755091D01*
X94239440Y-95804523D01*
X94169523Y-95874440D01*
X94120091Y-95960057D01*
X94114748Y-95979999D01*
X94094500Y-96055565D01*
X94094500Y-96154435D01*
X94113405Y-96224989D01*
X94110202Y-96286091D01*
X94071697Y-96333641D01*
X94065971Y-96336656D01*
X94066081Y-96336845D01*
X93974840Y-96389523D01*
X93904923Y-96459440D01*
X93855491Y-96545057D01*
X93845943Y-96580690D01*
X93829900Y-96640565D01*
X91431890Y-96640565D01*
X91430710Y-96636162D01*
X91422133Y-96621307D01*
X91381276Y-96550540D01*
X91381275Y-96550538D01*
X91311362Y-96480625D01*
X91311359Y-96480623D01*
X91225741Y-96431191D01*
X91225743Y-96431191D01*
X91181125Y-96419236D01*
X91130235Y-96405600D01*
X91031365Y-96405600D01*
X90980475Y-96419236D01*
X90935857Y-96431191D01*
X90850240Y-96480623D01*
X90780323Y-96550540D01*
X90730891Y-96636157D01*
X90718563Y-96682166D01*
X90705300Y-96731665D01*
X89454835Y-96731665D01*
X89412665Y-96689495D01*
X89292836Y-96620312D01*
X89292833Y-96620311D01*
X89287216Y-96617068D01*
X89287880Y-96615917D01*
X89246678Y-96580730D01*
X89232393Y-96521235D01*
X89255806Y-96464707D01*
X89307974Y-96432736D01*
X89331088Y-96430000D01*
X89439999Y-96430000D01*
X89440000Y-96429999D01*
X89440000Y-95979999D01*
X89740000Y-95979999D01*
X89740000Y-96429999D01*
X89740001Y-96430000D01*
X90213868Y-96430000D01*
X90213871Y-96429999D01*
X90358764Y-96401178D01*
X90358770Y-96401176D01*
X90495257Y-96344641D01*
X90618093Y-96262565D01*
X90722565Y-96158093D01*
X90804641Y-96035257D01*
X90861177Y-95898767D01*
X90874857Y-95830000D01*
X90399819Y-95830000D01*
X90419567Y-95795795D01*
X90440011Y-95719496D01*
X90440011Y-95640504D01*
X90419567Y-95564205D01*
X90399819Y-95530000D01*
X90874857Y-95530000D01*
X90861177Y-95461232D01*
X90815792Y-95351662D01*
X90804641Y-95324742D01*
X90801650Y-95320265D01*
X107205500Y-95320265D01*
X107205500Y-95419135D01*
X107211075Y-95439941D01*
X107231091Y-95514642D01*
X107259707Y-95564205D01*
X107280525Y-95600262D01*
X107350438Y-95670175D01*
X107350440Y-95670176D01*
X107436058Y-95719608D01*
X107436056Y-95719608D01*
X107436060Y-95719609D01*
X107436062Y-95719610D01*
X107531565Y-95745200D01*
X107531567Y-95745200D01*
X107630433Y-95745200D01*
X107630435Y-95745200D01*
X107725938Y-95719610D01*
X107725940Y-95719608D01*
X107725942Y-95719608D01*
X107760730Y-95699523D01*
X107811562Y-95670175D01*
X107881475Y-95600262D01*
X107930910Y-95514638D01*
X107956500Y-95419135D01*
X107956500Y-95388165D01*
X115249400Y-95388165D01*
X115249400Y-95487035D01*
X115270078Y-95564205D01*
X115274991Y-95582542D01*
X115324423Y-95668159D01*
X115324425Y-95668162D01*
X115394338Y-95738075D01*
X115394340Y-95738076D01*
X115479958Y-95787508D01*
X115479956Y-95787508D01*
X115479960Y-95787509D01*
X115479962Y-95787510D01*
X115575465Y-95813100D01*
X115575467Y-95813100D01*
X115674333Y-95813100D01*
X115674335Y-95813100D01*
X115769838Y-95787510D01*
X115769840Y-95787508D01*
X115769842Y-95787508D01*
X115825989Y-95755091D01*
X115855462Y-95738075D01*
X115925375Y-95668162D01*
X115974810Y-95582538D01*
X116000400Y-95487035D01*
X116000400Y-95388165D01*
X115974810Y-95292662D01*
X115974808Y-95292659D01*
X115974808Y-95292657D01*
X115925376Y-95207040D01*
X115925375Y-95207038D01*
X115855462Y-95137125D01*
X115855459Y-95137123D01*
X115769841Y-95087691D01*
X115769843Y-95087691D01*
X115732785Y-95077761D01*
X115674335Y-95062100D01*
X115575465Y-95062100D01*
X115517014Y-95077761D01*
X115479957Y-95087691D01*
X115394340Y-95137123D01*
X115324423Y-95207040D01*
X115274991Y-95292657D01*
X115266394Y-95324742D01*
X115249400Y-95388165D01*
X107956500Y-95388165D01*
X107956500Y-95320265D01*
X107930910Y-95224762D01*
X107930908Y-95224759D01*
X107930908Y-95224757D01*
X107881476Y-95139140D01*
X107881475Y-95139138D01*
X107811562Y-95069225D01*
X107811559Y-95069223D01*
X107725941Y-95019791D01*
X107725943Y-95019791D01*
X107688885Y-95009861D01*
X107630435Y-94994200D01*
X107531565Y-94994200D01*
X107473114Y-95009861D01*
X107436057Y-95019791D01*
X107350440Y-95069223D01*
X107280523Y-95139140D01*
X107231091Y-95224757D01*
X107231090Y-95224762D01*
X107205500Y-95320265D01*
X90801650Y-95320265D01*
X90722565Y-95201906D01*
X90618093Y-95097434D01*
X90495257Y-95015358D01*
X90358770Y-94958823D01*
X90358764Y-94958821D01*
X90213871Y-94930000D01*
X89823831Y-94930000D01*
X89765640Y-94911093D01*
X89729676Y-94861593D01*
X89729676Y-94800407D01*
X89765640Y-94750907D01*
X89793950Y-94737403D01*
X89793946Y-94737392D01*
X89794173Y-94737297D01*
X89798207Y-94735373D01*
X89799938Y-94734910D01*
X89885562Y-94685475D01*
X89955475Y-94615562D01*
X90004910Y-94529938D01*
X90030500Y-94434435D01*
X90030500Y-94335565D01*
X90004910Y-94240062D01*
X90004908Y-94240059D01*
X90004908Y-94240057D01*
X89955476Y-94154440D01*
X89955475Y-94154438D01*
X89885562Y-94084525D01*
X89885559Y-94084523D01*
X89799941Y-94035091D01*
X89799943Y-94035091D01*
X89762885Y-94025161D01*
X89745732Y-94020565D01*
X95694500Y-94020565D01*
X95694500Y-94119435D01*
X95702842Y-94150566D01*
X95720091Y-94214942D01*
X95769523Y-94300559D01*
X95769525Y-94300562D01*
X95839438Y-94370475D01*
X95839440Y-94370476D01*
X95925058Y-94419908D01*
X95925056Y-94419908D01*
X95925060Y-94419909D01*
X95925062Y-94419910D01*
X96020565Y-94445500D01*
X96020567Y-94445500D01*
X96119433Y-94445500D01*
X96119435Y-94445500D01*
X96214938Y-94419910D01*
X96214940Y-94419908D01*
X96214942Y-94419908D01*
X96240377Y-94405222D01*
X96300562Y-94370475D01*
X96370475Y-94300562D01*
X96419910Y-94214938D01*
X96445500Y-94119435D01*
X96445500Y-94020565D01*
X98954500Y-94020565D01*
X98954500Y-94119435D01*
X98962842Y-94150566D01*
X98980091Y-94214942D01*
X99029523Y-94300559D01*
X99029525Y-94300562D01*
X99099438Y-94370475D01*
X99099440Y-94370476D01*
X99185058Y-94419908D01*
X99185056Y-94419908D01*
X99185060Y-94419909D01*
X99185062Y-94419910D01*
X99280565Y-94445500D01*
X99280567Y-94445500D01*
X99379433Y-94445500D01*
X99379435Y-94445500D01*
X99474938Y-94419910D01*
X99474940Y-94419908D01*
X99474942Y-94419908D01*
X99500377Y-94405222D01*
X99560562Y-94370475D01*
X99584998Y-94346038D01*
X99639513Y-94318263D01*
X99699945Y-94327834D01*
X99725000Y-94346037D01*
X99749438Y-94370475D01*
X99749440Y-94370476D01*
X99835058Y-94419908D01*
X99835056Y-94419908D01*
X99835060Y-94419909D01*
X99835062Y-94419910D01*
X99930565Y-94445500D01*
X99930567Y-94445500D01*
X100029433Y-94445500D01*
X100029435Y-94445500D01*
X100124938Y-94419910D01*
X100124940Y-94419908D01*
X100124942Y-94419908D01*
X100150377Y-94405222D01*
X100210562Y-94370475D01*
X100220472Y-94360565D01*
X104474500Y-94360565D01*
X104474500Y-94459435D01*
X104485497Y-94500475D01*
X104500091Y-94554942D01*
X104535091Y-94615562D01*
X104549525Y-94640562D01*
X104619438Y-94710475D01*
X104619440Y-94710476D01*
X104705058Y-94759908D01*
X104705056Y-94759908D01*
X104705060Y-94759909D01*
X104705062Y-94759910D01*
X104800565Y-94785500D01*
X104800567Y-94785500D01*
X104899433Y-94785500D01*
X104899435Y-94785500D01*
X104994938Y-94759910D01*
X104994940Y-94759908D01*
X104994942Y-94759908D01*
X105034105Y-94737297D01*
X105080562Y-94710475D01*
X105150475Y-94640562D01*
X105199910Y-94554938D01*
X105225500Y-94459435D01*
X105225500Y-94360565D01*
X105199910Y-94265062D01*
X105199908Y-94265059D01*
X105199908Y-94265057D01*
X105150476Y-94179440D01*
X105150475Y-94179438D01*
X105080562Y-94109525D01*
X105080559Y-94109523D01*
X104994941Y-94060091D01*
X104994943Y-94060091D01*
X104957885Y-94050161D01*
X104899435Y-94034500D01*
X104800565Y-94034500D01*
X104742114Y-94050161D01*
X104705057Y-94060091D01*
X104619440Y-94109523D01*
X104549523Y-94179440D01*
X104500091Y-94265057D01*
X104490578Y-94300562D01*
X104474500Y-94360565D01*
X100220472Y-94360565D01*
X100280475Y-94300562D01*
X100329910Y-94214938D01*
X100355500Y-94119435D01*
X100355500Y-94020565D01*
X100329910Y-93925062D01*
X100329908Y-93925059D01*
X100329908Y-93925057D01*
X100287818Y-93852157D01*
X100280475Y-93839438D01*
X100210562Y-93769525D01*
X100210559Y-93769523D01*
X100124941Y-93720091D01*
X100124943Y-93720091D01*
X100087885Y-93710161D01*
X100029435Y-93694500D01*
X99930565Y-93694500D01*
X99872114Y-93710161D01*
X99835057Y-93720091D01*
X99749440Y-93769523D01*
X99749438Y-93769524D01*
X99749438Y-93769525D01*
X99725001Y-93793961D01*
X99670487Y-93821737D01*
X99610055Y-93812166D01*
X99584999Y-93793962D01*
X99560562Y-93769525D01*
X99560559Y-93769523D01*
X99474941Y-93720091D01*
X99474943Y-93720091D01*
X99437885Y-93710161D01*
X99379435Y-93694500D01*
X99280565Y-93694500D01*
X99222114Y-93710161D01*
X99185057Y-93720091D01*
X99099440Y-93769523D01*
X99029523Y-93839440D01*
X98980091Y-93925057D01*
X98980090Y-93925062D01*
X98954500Y-94020565D01*
X96445500Y-94020565D01*
X96419910Y-93925062D01*
X96419908Y-93925059D01*
X96419908Y-93925057D01*
X96377818Y-93852157D01*
X96370475Y-93839438D01*
X96300562Y-93769525D01*
X96300559Y-93769523D01*
X96214941Y-93720091D01*
X96214943Y-93720091D01*
X96177885Y-93710161D01*
X96119435Y-93694500D01*
X96020565Y-93694500D01*
X95962114Y-93710161D01*
X95925057Y-93720091D01*
X95839440Y-93769523D01*
X95769523Y-93839440D01*
X95720091Y-93925057D01*
X95720090Y-93925062D01*
X95694500Y-94020565D01*
X89745732Y-94020565D01*
X89704435Y-94009500D01*
X89605565Y-94009500D01*
X89547114Y-94025161D01*
X89510057Y-94035091D01*
X89424440Y-94084523D01*
X89354523Y-94154440D01*
X89305091Y-94240057D01*
X89298391Y-94265062D01*
X89279500Y-94335565D01*
X89279500Y-94434435D01*
X89297196Y-94500476D01*
X89305091Y-94529942D01*
X89354523Y-94615559D01*
X89354525Y-94615562D01*
X89424438Y-94685475D01*
X89424440Y-94685476D01*
X89510058Y-94734908D01*
X89510059Y-94734908D01*
X89510062Y-94734910D01*
X89511791Y-94735373D01*
X89512868Y-94736072D01*
X89516054Y-94737392D01*
X89515809Y-94737982D01*
X89563106Y-94768697D01*
X89585033Y-94825818D01*
X89569198Y-94884919D01*
X89521648Y-94923424D01*
X89486169Y-94930000D01*
X88966128Y-94930000D01*
X88821235Y-94958821D01*
X88821229Y-94958823D01*
X88684742Y-95015358D01*
X88561906Y-95097434D01*
X88457434Y-95201906D01*
X88375358Y-95324742D01*
X88318822Y-95461232D01*
X88305143Y-95530000D01*
X86544857Y-95530000D01*
X86531177Y-95461232D01*
X86474641Y-95324742D01*
X86392565Y-95201906D01*
X86288093Y-95097434D01*
X86165257Y-95015358D01*
X86028770Y-94958823D01*
X86028764Y-94958821D01*
X85883871Y-94930000D01*
X85560001Y-94930000D01*
X85560000Y-94930001D01*
X85560000Y-95380001D01*
X85260000Y-95380001D01*
X85260000Y-94930001D01*
X85259999Y-94930000D01*
X84936128Y-94930000D01*
X84791235Y-94958821D01*
X84791229Y-94958823D01*
X84654742Y-95015358D01*
X84531906Y-95097434D01*
X84427434Y-95201906D01*
X84345358Y-95324742D01*
X84288822Y-95461232D01*
X84275143Y-95530000D01*
X82350000Y-95530000D01*
X82350000Y-94150565D01*
X82824500Y-94150565D01*
X82824500Y-94249435D01*
X82845507Y-94327834D01*
X82850091Y-94344942D01*
X82893374Y-94419908D01*
X82899525Y-94430562D01*
X82969438Y-94500475D01*
X82969440Y-94500476D01*
X83055058Y-94549908D01*
X83055056Y-94549908D01*
X83055060Y-94549909D01*
X83055062Y-94549910D01*
X83150565Y-94575500D01*
X83150567Y-94575500D01*
X83249433Y-94575500D01*
X83249435Y-94575500D01*
X83344938Y-94549910D01*
X83344940Y-94549908D01*
X83344942Y-94549908D01*
X83370377Y-94535222D01*
X83430562Y-94500475D01*
X83500475Y-94430562D01*
X83549910Y-94344938D01*
X83575500Y-94249435D01*
X83575500Y-94150565D01*
X83549910Y-94055062D01*
X83549908Y-94055059D01*
X83549908Y-94055057D01*
X83500476Y-93969440D01*
X83500475Y-93969438D01*
X83430562Y-93899525D01*
X83430559Y-93899523D01*
X83344941Y-93850091D01*
X83344943Y-93850091D01*
X83305184Y-93839438D01*
X83249435Y-93824500D01*
X83150565Y-93824500D01*
X83094816Y-93839438D01*
X83055057Y-93850091D01*
X82969440Y-93899523D01*
X82899523Y-93969440D01*
X82850091Y-94055057D01*
X82848742Y-94060091D01*
X82824500Y-94150565D01*
X82350000Y-94150565D01*
X82350000Y-92650565D01*
X82824500Y-92650565D01*
X82824500Y-92749435D01*
X82847067Y-92833657D01*
X82850091Y-92844942D01*
X82899523Y-92930559D01*
X82899525Y-92930562D01*
X82969438Y-93000475D01*
X82969440Y-93000476D01*
X83055058Y-93049908D01*
X83055056Y-93049908D01*
X83055060Y-93049909D01*
X83055062Y-93049910D01*
X83150565Y-93075500D01*
X83150567Y-93075500D01*
X83249433Y-93075500D01*
X83249435Y-93075500D01*
X83344938Y-93049910D01*
X83344940Y-93049908D01*
X83344942Y-93049908D01*
X83370377Y-93035222D01*
X83430562Y-93000475D01*
X83500475Y-92930562D01*
X83549910Y-92844938D01*
X83575500Y-92749435D01*
X83575500Y-92650565D01*
X83549910Y-92555062D01*
X83549908Y-92555059D01*
X83549908Y-92555057D01*
X83500476Y-92469440D01*
X83500475Y-92469438D01*
X83430562Y-92399525D01*
X83430559Y-92399523D01*
X83344941Y-92350091D01*
X83344943Y-92350091D01*
X83307885Y-92340161D01*
X83249435Y-92324500D01*
X83150565Y-92324500D01*
X83092114Y-92340161D01*
X83055057Y-92350091D01*
X82969440Y-92399523D01*
X82899523Y-92469440D01*
X82850091Y-92555057D01*
X82850090Y-92555062D01*
X82824500Y-92650565D01*
X82350000Y-92650565D01*
X82350000Y-91395565D01*
X111619500Y-91395565D01*
X111619500Y-91494435D01*
X111642067Y-91578657D01*
X111645091Y-91589942D01*
X111694523Y-91675559D01*
X111694525Y-91675562D01*
X111764438Y-91745475D01*
X111764440Y-91745476D01*
X111850058Y-91794908D01*
X111850056Y-91794908D01*
X111850060Y-91794909D01*
X111850062Y-91794910D01*
X111945565Y-91820500D01*
X111945567Y-91820500D01*
X112044433Y-91820500D01*
X112044435Y-91820500D01*
X112139938Y-91794910D01*
X112139940Y-91794908D01*
X112139942Y-91794908D01*
X112165377Y-91780222D01*
X112225562Y-91745475D01*
X112295475Y-91675562D01*
X112315608Y-91640691D01*
X113449500Y-91640691D01*
X113449500Y-91759309D01*
X113465896Y-91820500D01*
X113480202Y-91873890D01*
X113539507Y-91976608D01*
X113539509Y-91976610D01*
X113539511Y-91976613D01*
X113623387Y-92060489D01*
X113623389Y-92060490D01*
X113623391Y-92060492D01*
X113726110Y-92119797D01*
X113726111Y-92119797D01*
X113726114Y-92119799D01*
X113840691Y-92150500D01*
X113840693Y-92150500D01*
X113959307Y-92150500D01*
X113959309Y-92150500D01*
X114073886Y-92119799D01*
X114073888Y-92119797D01*
X114073890Y-92119797D01*
X114176608Y-92060492D01*
X114176608Y-92060491D01*
X114176613Y-92060489D01*
X114229998Y-92007103D01*
X114284513Y-91979328D01*
X114344945Y-91988899D01*
X114370000Y-92007102D01*
X114423387Y-92060489D01*
X114423389Y-92060490D01*
X114423391Y-92060492D01*
X114526110Y-92119797D01*
X114526111Y-92119797D01*
X114526114Y-92119799D01*
X114640691Y-92150500D01*
X114640693Y-92150500D01*
X114759307Y-92150500D01*
X114759309Y-92150500D01*
X114873886Y-92119799D01*
X114873888Y-92119797D01*
X114873890Y-92119797D01*
X114976608Y-92060492D01*
X114976608Y-92060491D01*
X114976613Y-92060489D01*
X115060489Y-91976613D01*
X115060492Y-91976608D01*
X115119797Y-91873890D01*
X115119797Y-91873888D01*
X115119799Y-91873886D01*
X115150500Y-91759309D01*
X115150500Y-91640691D01*
X115119799Y-91526114D01*
X115119797Y-91526111D01*
X115119797Y-91526109D01*
X115060492Y-91423391D01*
X115060490Y-91423389D01*
X115060489Y-91423387D01*
X114976613Y-91339511D01*
X114976610Y-91339509D01*
X114976608Y-91339507D01*
X114873889Y-91280202D01*
X114873890Y-91280202D01*
X114860351Y-91276574D01*
X114759309Y-91249500D01*
X114640691Y-91249500D01*
X114570567Y-91268289D01*
X114526109Y-91280202D01*
X114423391Y-91339507D01*
X114423390Y-91339508D01*
X114423387Y-91339510D01*
X114423387Y-91339511D01*
X114370001Y-91392896D01*
X114315487Y-91420672D01*
X114255055Y-91411101D01*
X114229999Y-91392897D01*
X114176613Y-91339511D01*
X114176610Y-91339509D01*
X114176608Y-91339507D01*
X114073889Y-91280202D01*
X114073890Y-91280202D01*
X114060351Y-91276574D01*
X113959309Y-91249500D01*
X113840691Y-91249500D01*
X113770567Y-91268289D01*
X113726109Y-91280202D01*
X113623391Y-91339507D01*
X113539507Y-91423391D01*
X113480202Y-91526109D01*
X113480201Y-91526114D01*
X113449500Y-91640691D01*
X112315608Y-91640691D01*
X112344910Y-91589938D01*
X112370500Y-91494435D01*
X112370500Y-91395565D01*
X112344910Y-91300062D01*
X112344908Y-91300059D01*
X112344908Y-91300057D01*
X112295476Y-91214440D01*
X112295475Y-91214438D01*
X112225562Y-91144525D01*
X112225559Y-91144523D01*
X112139941Y-91095091D01*
X112139943Y-91095091D01*
X112102885Y-91085161D01*
X112044435Y-91069500D01*
X111945565Y-91069500D01*
X111887114Y-91085161D01*
X111850057Y-91095091D01*
X111764440Y-91144523D01*
X111694523Y-91214440D01*
X111645091Y-91300057D01*
X111645090Y-91300062D01*
X111619500Y-91395565D01*
X82350000Y-91395565D01*
X82350000Y-90693065D01*
X92063600Y-90693065D01*
X92063600Y-90791935D01*
X92086167Y-90876157D01*
X92089191Y-90887442D01*
X92138623Y-90973059D01*
X92138625Y-90973062D01*
X92208538Y-91042975D01*
X92208540Y-91042976D01*
X92294158Y-91092408D01*
X92294156Y-91092408D01*
X92294160Y-91092409D01*
X92294162Y-91092410D01*
X92389665Y-91118000D01*
X92389667Y-91118000D01*
X92488533Y-91118000D01*
X92488535Y-91118000D01*
X92584038Y-91092410D01*
X92584040Y-91092408D01*
X92584042Y-91092408D01*
X92623719Y-91069500D01*
X92669662Y-91042975D01*
X92739575Y-90973062D01*
X92789010Y-90887438D01*
X92814600Y-90791935D01*
X92814600Y-90693065D01*
X92789010Y-90597562D01*
X92789008Y-90597559D01*
X92789008Y-90597557D01*
X92739576Y-90511940D01*
X92739575Y-90511938D01*
X92669662Y-90442025D01*
X92650047Y-90430700D01*
X92584041Y-90392591D01*
X92584043Y-90392591D01*
X92546985Y-90382661D01*
X92488535Y-90367000D01*
X92389665Y-90367000D01*
X92331214Y-90382661D01*
X92294157Y-90392591D01*
X92208540Y-90442023D01*
X92138623Y-90511940D01*
X92089191Y-90597557D01*
X92089190Y-90597562D01*
X92063600Y-90693065D01*
X82350000Y-90693065D01*
X82350000Y-89650565D01*
X82824500Y-89650565D01*
X82824500Y-89749435D01*
X82838193Y-89800538D01*
X82850091Y-89844942D01*
X82889697Y-89913540D01*
X82899525Y-89930562D01*
X82969438Y-90000475D01*
X82978159Y-90005510D01*
X83055058Y-90049908D01*
X83055056Y-90049908D01*
X83055060Y-90049909D01*
X83055062Y-90049910D01*
X83150565Y-90075500D01*
X83150567Y-90075500D01*
X83249433Y-90075500D01*
X83249435Y-90075500D01*
X83344938Y-90049910D01*
X83344940Y-90049908D01*
X83344942Y-90049908D01*
X83385643Y-90026409D01*
X83430562Y-90000475D01*
X83500475Y-89930562D01*
X83549910Y-89844938D01*
X83575500Y-89749435D01*
X83575500Y-89650565D01*
X83549910Y-89555062D01*
X83549908Y-89555059D01*
X83549908Y-89555057D01*
X83500476Y-89469440D01*
X83500475Y-89469438D01*
X83430562Y-89399525D01*
X83430559Y-89399523D01*
X83344941Y-89350091D01*
X83344943Y-89350091D01*
X83307885Y-89340161D01*
X83249435Y-89324500D01*
X83150565Y-89324500D01*
X83092114Y-89340161D01*
X83055057Y-89350091D01*
X82969440Y-89399523D01*
X82899523Y-89469440D01*
X82850091Y-89555057D01*
X82850090Y-89555062D01*
X82824500Y-89650565D01*
X82350000Y-89650565D01*
X82350000Y-84781745D01*
X82368907Y-84723554D01*
X82418407Y-84687590D01*
X82479593Y-84687590D01*
X82519003Y-84711740D01*
X83652689Y-85845427D01*
X84224143Y-86416881D01*
X84251920Y-86471398D01*
X84248876Y-86515622D01*
X84209565Y-86645216D01*
X84209563Y-86645224D01*
X84150000Y-87249997D01*
X84150000Y-87250003D01*
X84209563Y-87854774D01*
X84209564Y-87854779D01*
X84385973Y-88436318D01*
X84385975Y-88436323D01*
X84672441Y-88972264D01*
X84925075Y-89280100D01*
X85057968Y-89442031D01*
X85057973Y-89442035D01*
X85527734Y-89827557D01*
X86063675Y-90114023D01*
X86063681Y-90114026D01*
X86468811Y-90236920D01*
X86645219Y-90290434D01*
X86645224Y-90290435D01*
X87249997Y-90350000D01*
X87250000Y-90350000D01*
X87250003Y-90350000D01*
X87854774Y-90290435D01*
X87854779Y-90290434D01*
X88436318Y-90114026D01*
X88731823Y-89956075D01*
X88972264Y-89827557D01*
X88972265Y-89827555D01*
X88972267Y-89827555D01*
X89242032Y-89606165D01*
X93178200Y-89606165D01*
X93178200Y-89705035D01*
X93200767Y-89789257D01*
X93203791Y-89800542D01*
X93246492Y-89874500D01*
X93253225Y-89886162D01*
X93323138Y-89956075D01*
X93323140Y-89956076D01*
X93408758Y-90005508D01*
X93408756Y-90005508D01*
X93408760Y-90005509D01*
X93408762Y-90005510D01*
X93504265Y-90031100D01*
X93504267Y-90031100D01*
X93603133Y-90031100D01*
X93603135Y-90031100D01*
X93697686Y-90005765D01*
X102409500Y-90005765D01*
X102409500Y-90104635D01*
X102432067Y-90188857D01*
X102435091Y-90200142D01*
X102484523Y-90285759D01*
X102484525Y-90285762D01*
X102554438Y-90355675D01*
X102582530Y-90371894D01*
X102640058Y-90405108D01*
X102640056Y-90405108D01*
X102640060Y-90405109D01*
X102640062Y-90405110D01*
X102735565Y-90430700D01*
X102735567Y-90430700D01*
X102834433Y-90430700D01*
X102834435Y-90430700D01*
X102929938Y-90405110D01*
X102987470Y-90371893D01*
X103047316Y-90359172D01*
X103103212Y-90384058D01*
X103122705Y-90408129D01*
X103157895Y-90469079D01*
X103164525Y-90480562D01*
X103234438Y-90550475D01*
X103234440Y-90550476D01*
X103320058Y-90599908D01*
X103320056Y-90599908D01*
X103320060Y-90599909D01*
X103320062Y-90599910D01*
X103415565Y-90625500D01*
X103415567Y-90625500D01*
X103514433Y-90625500D01*
X103514435Y-90625500D01*
X103609938Y-90599910D01*
X103609940Y-90599908D01*
X103609942Y-90599908D01*
X103635377Y-90585222D01*
X103695562Y-90550475D01*
X103765475Y-90480562D01*
X103809037Y-90405110D01*
X103814908Y-90394942D01*
X103814908Y-90394940D01*
X103814910Y-90394938D01*
X103840500Y-90299435D01*
X103840500Y-90200565D01*
X103814910Y-90105062D01*
X103814908Y-90105059D01*
X103814908Y-90105057D01*
X103765476Y-90019440D01*
X103765475Y-90019438D01*
X103695562Y-89949525D01*
X103690328Y-89946503D01*
X103609941Y-89900091D01*
X103609943Y-89900091D01*
X103557958Y-89886162D01*
X103514435Y-89874500D01*
X103415565Y-89874500D01*
X103372053Y-89886159D01*
X103320060Y-89900090D01*
X103262530Y-89933306D01*
X103202681Y-89946027D01*
X103146786Y-89921140D01*
X103127294Y-89897070D01*
X103110212Y-89867484D01*
X103085475Y-89824638D01*
X103015562Y-89754725D01*
X103015559Y-89754723D01*
X102929941Y-89705291D01*
X102929943Y-89705291D01*
X102892885Y-89695361D01*
X102834435Y-89679700D01*
X102735565Y-89679700D01*
X102677114Y-89695361D01*
X102640057Y-89705291D01*
X102554440Y-89754723D01*
X102484523Y-89824640D01*
X102435091Y-89910257D01*
X102428915Y-89933306D01*
X102409500Y-90005765D01*
X93697686Y-90005765D01*
X93698638Y-90005510D01*
X93698640Y-90005508D01*
X93698642Y-90005508D01*
X93724077Y-89990822D01*
X93784262Y-89956075D01*
X93854175Y-89886162D01*
X93903610Y-89800538D01*
X93929200Y-89705035D01*
X93929200Y-89606165D01*
X93903610Y-89510662D01*
X93903608Y-89510659D01*
X93903608Y-89510657D01*
X93893980Y-89493982D01*
X94824500Y-89493982D01*
X94824500Y-89606018D01*
X94836437Y-89650566D01*
X94853498Y-89714241D01*
X94903323Y-89800538D01*
X94909515Y-89811263D01*
X94988737Y-89890485D01*
X94988739Y-89890486D01*
X95085759Y-89946501D01*
X95085757Y-89946501D01*
X95085761Y-89946502D01*
X95085763Y-89946503D01*
X95193982Y-89975500D01*
X95193984Y-89975500D01*
X95306016Y-89975500D01*
X95306018Y-89975500D01*
X95414237Y-89946503D01*
X95511263Y-89890485D01*
X95590485Y-89811263D01*
X95646503Y-89714237D01*
X95675500Y-89606018D01*
X95675500Y-89493982D01*
X95646503Y-89385763D01*
X95646501Y-89385760D01*
X95646501Y-89385758D01*
X95590486Y-89288739D01*
X95590485Y-89288737D01*
X95511263Y-89209515D01*
X95511260Y-89209513D01*
X95414240Y-89153498D01*
X95414242Y-89153498D01*
X95372251Y-89142247D01*
X95306018Y-89124500D01*
X95193982Y-89124500D01*
X95127748Y-89142247D01*
X95085758Y-89153498D01*
X94988739Y-89209513D01*
X94909513Y-89288739D01*
X94853498Y-89385758D01*
X94842973Y-89425038D01*
X94824500Y-89493982D01*
X93893980Y-89493982D01*
X93854176Y-89425040D01*
X93854175Y-89425038D01*
X93784262Y-89355125D01*
X93775543Y-89350091D01*
X93698641Y-89305691D01*
X93698643Y-89305691D01*
X93661585Y-89295761D01*
X93603135Y-89280100D01*
X93504265Y-89280100D01*
X93445814Y-89295761D01*
X93408757Y-89305691D01*
X93323140Y-89355123D01*
X93253223Y-89425040D01*
X93203791Y-89510657D01*
X93203790Y-89510662D01*
X93178200Y-89606165D01*
X89242032Y-89606165D01*
X89442031Y-89442031D01*
X89827555Y-88972267D01*
X89944561Y-88753365D01*
X107861700Y-88753365D01*
X107861700Y-88852235D01*
X107884267Y-88936457D01*
X107887291Y-88947742D01*
X107936723Y-89033359D01*
X107936725Y-89033362D01*
X108006638Y-89103275D01*
X108006640Y-89103276D01*
X108092258Y-89152708D01*
X108092256Y-89152708D01*
X108092260Y-89152709D01*
X108092262Y-89152710D01*
X108187765Y-89178300D01*
X108187767Y-89178300D01*
X108286633Y-89178300D01*
X108286635Y-89178300D01*
X108382138Y-89152710D01*
X108382140Y-89152708D01*
X108382142Y-89152708D01*
X108430999Y-89124500D01*
X108467762Y-89103275D01*
X108537675Y-89033362D01*
X108587110Y-88947738D01*
X108612700Y-88852235D01*
X108612700Y-88753365D01*
X108587110Y-88657862D01*
X108587108Y-88657859D01*
X108587108Y-88657857D01*
X108537676Y-88572240D01*
X108537675Y-88572238D01*
X108467762Y-88502325D01*
X108467759Y-88502323D01*
X108382141Y-88452891D01*
X108382143Y-88452891D01*
X108345085Y-88442961D01*
X108286635Y-88427300D01*
X108187765Y-88427300D01*
X108129314Y-88442961D01*
X108092257Y-88452891D01*
X108006640Y-88502323D01*
X107936723Y-88572240D01*
X107887291Y-88657857D01*
X107886410Y-88661145D01*
X107861700Y-88753365D01*
X89944561Y-88753365D01*
X90114026Y-88436318D01*
X90161273Y-88280565D01*
X100254500Y-88280565D01*
X100254500Y-88379435D01*
X100269742Y-88436318D01*
X100280091Y-88474942D01*
X100329523Y-88560559D01*
X100329525Y-88560562D01*
X100399438Y-88630475D01*
X100399440Y-88630476D01*
X100485058Y-88679908D01*
X100485056Y-88679908D01*
X100485060Y-88679909D01*
X100485062Y-88679910D01*
X100580565Y-88705500D01*
X100580567Y-88705500D01*
X100679433Y-88705500D01*
X100679435Y-88705500D01*
X100774938Y-88679910D01*
X100774940Y-88679908D01*
X100774942Y-88679908D01*
X100807440Y-88661145D01*
X100807449Y-88661140D01*
X100815936Y-88656239D01*
X100860562Y-88630475D01*
X100930475Y-88560562D01*
X100979910Y-88474938D01*
X101005500Y-88379435D01*
X101005500Y-88280565D01*
X100979910Y-88185062D01*
X100979908Y-88185059D01*
X100979908Y-88185057D01*
X100930476Y-88099440D01*
X100930475Y-88099438D01*
X100860562Y-88029525D01*
X100860559Y-88029523D01*
X100774941Y-87980091D01*
X100774943Y-87980091D01*
X100737885Y-87970161D01*
X100679435Y-87954500D01*
X100580565Y-87954500D01*
X100522114Y-87970161D01*
X100485057Y-87980091D01*
X100399440Y-88029523D01*
X100329523Y-88099440D01*
X100280091Y-88185057D01*
X100280090Y-88185062D01*
X100254500Y-88280565D01*
X90161273Y-88280565D01*
X90290434Y-87854779D01*
X90290435Y-87854774D01*
X90350000Y-87250003D01*
X90350000Y-87249997D01*
X90330026Y-87047197D01*
X90329709Y-87043982D01*
X95324500Y-87043982D01*
X95324500Y-87156018D01*
X95332373Y-87185400D01*
X95353498Y-87264241D01*
X95409513Y-87361260D01*
X95409515Y-87361263D01*
X95488737Y-87440485D01*
X95488739Y-87440486D01*
X95585759Y-87496501D01*
X95585757Y-87496501D01*
X95585761Y-87496502D01*
X95585763Y-87496503D01*
X95693982Y-87525500D01*
X95693984Y-87525500D01*
X95806016Y-87525500D01*
X95806018Y-87525500D01*
X95846082Y-87514765D01*
X98346400Y-87514765D01*
X98346400Y-87613635D01*
X98366094Y-87687133D01*
X98371991Y-87709142D01*
X98421423Y-87794759D01*
X98421425Y-87794762D01*
X98491338Y-87864675D01*
X98491340Y-87864676D01*
X98576958Y-87914108D01*
X98576956Y-87914108D01*
X98576960Y-87914109D01*
X98576962Y-87914110D01*
X98672465Y-87939700D01*
X98672467Y-87939700D01*
X98771333Y-87939700D01*
X98771335Y-87939700D01*
X98866838Y-87914110D01*
X98898006Y-87896114D01*
X98957854Y-87883393D01*
X99013750Y-87908279D01*
X99017491Y-87911828D01*
X99043838Y-87938175D01*
X99072114Y-87954500D01*
X99129458Y-87987608D01*
X99129456Y-87987608D01*
X99129460Y-87987609D01*
X99129462Y-87987610D01*
X99224965Y-88013200D01*
X99224967Y-88013200D01*
X99323833Y-88013200D01*
X99323835Y-88013200D01*
X99419338Y-87987610D01*
X99419340Y-87987608D01*
X99419342Y-87987608D01*
X99476686Y-87954500D01*
X99504962Y-87938175D01*
X99574875Y-87868262D01*
X99617312Y-87794759D01*
X99624308Y-87782642D01*
X99624308Y-87782640D01*
X99624310Y-87782638D01*
X99649900Y-87687135D01*
X99649900Y-87588265D01*
X99629321Y-87511465D01*
X103951500Y-87511465D01*
X103951500Y-87610335D01*
X103965038Y-87660859D01*
X103977091Y-87705842D01*
X104026523Y-87791459D01*
X104026525Y-87791462D01*
X104096438Y-87861375D01*
X104108367Y-87868262D01*
X104182058Y-87910808D01*
X104182056Y-87910808D01*
X104182060Y-87910809D01*
X104182062Y-87910810D01*
X104277565Y-87936400D01*
X104277567Y-87936400D01*
X104376433Y-87936400D01*
X104376435Y-87936400D01*
X104471938Y-87910810D01*
X104471940Y-87910808D01*
X104471942Y-87910808D01*
X104497391Y-87896115D01*
X104557562Y-87861375D01*
X104627475Y-87791462D01*
X104662513Y-87730775D01*
X104676908Y-87705842D01*
X104676908Y-87705840D01*
X104676910Y-87705838D01*
X104702500Y-87610335D01*
X104702500Y-87511465D01*
X104676910Y-87415962D01*
X104676908Y-87415959D01*
X104676908Y-87415957D01*
X104656647Y-87380865D01*
X105543500Y-87380865D01*
X105543500Y-87479735D01*
X105552887Y-87514766D01*
X105569091Y-87575242D01*
X105618523Y-87660859D01*
X105618525Y-87660862D01*
X105688438Y-87730775D01*
X105688440Y-87730776D01*
X105774058Y-87780208D01*
X105774056Y-87780208D01*
X105774060Y-87780209D01*
X105774062Y-87780210D01*
X105869565Y-87805800D01*
X105869567Y-87805800D01*
X105968433Y-87805800D01*
X105968435Y-87805800D01*
X106063938Y-87780210D01*
X106063940Y-87780208D01*
X106063942Y-87780208D01*
X106089377Y-87765522D01*
X106149562Y-87730775D01*
X106219475Y-87660862D01*
X106268910Y-87575238D01*
X106294500Y-87479735D01*
X106294500Y-87380865D01*
X106268910Y-87285362D01*
X106268908Y-87285359D01*
X106268908Y-87285357D01*
X106219476Y-87199740D01*
X106219475Y-87199738D01*
X106149562Y-87129825D01*
X106149559Y-87129823D01*
X106063941Y-87080391D01*
X106063943Y-87080391D01*
X106026885Y-87070461D01*
X105968435Y-87054800D01*
X105869565Y-87054800D01*
X105811114Y-87070461D01*
X105774057Y-87080391D01*
X105688440Y-87129823D01*
X105618523Y-87199740D01*
X105569091Y-87285357D01*
X105569090Y-87285362D01*
X105543500Y-87380865D01*
X104656647Y-87380865D01*
X104627476Y-87330340D01*
X104627475Y-87330338D01*
X104557562Y-87260425D01*
X104539511Y-87250003D01*
X104471941Y-87210991D01*
X104471943Y-87210991D01*
X104434885Y-87201061D01*
X104376435Y-87185400D01*
X104277565Y-87185400D01*
X104219114Y-87201061D01*
X104182057Y-87210991D01*
X104096440Y-87260423D01*
X104026523Y-87330340D01*
X103977091Y-87415957D01*
X103974534Y-87425500D01*
X103951500Y-87511465D01*
X99629321Y-87511465D01*
X99624310Y-87492762D01*
X99624308Y-87492759D01*
X99624308Y-87492757D01*
X99581872Y-87419257D01*
X99574875Y-87407138D01*
X99504962Y-87337225D01*
X99498753Y-87333640D01*
X99419341Y-87287791D01*
X99419343Y-87287791D01*
X99382285Y-87277861D01*
X99323835Y-87262200D01*
X99224965Y-87262200D01*
X99129462Y-87287790D01*
X99129461Y-87287790D01*
X99129459Y-87287791D01*
X99098290Y-87305786D01*
X99038441Y-87318505D01*
X98982546Y-87293618D01*
X98978807Y-87290070D01*
X98952462Y-87263725D01*
X98948198Y-87261263D01*
X98866841Y-87214291D01*
X98866843Y-87214291D01*
X98829785Y-87204361D01*
X98771335Y-87188700D01*
X98672465Y-87188700D01*
X98614014Y-87204361D01*
X98576957Y-87214291D01*
X98491340Y-87263723D01*
X98421423Y-87333640D01*
X98371991Y-87419257D01*
X98366303Y-87440485D01*
X98346400Y-87514765D01*
X95846082Y-87514765D01*
X95914237Y-87496503D01*
X95914239Y-87496501D01*
X95914241Y-87496501D01*
X95943283Y-87479733D01*
X96011263Y-87440485D01*
X96090485Y-87361263D01*
X96132905Y-87287790D01*
X96146501Y-87264241D01*
X96146501Y-87264239D01*
X96146503Y-87264237D01*
X96175500Y-87156018D01*
X96175500Y-87043982D01*
X96153832Y-86963115D01*
X96153832Y-86963113D01*
X96148705Y-86943982D01*
X96824500Y-86943982D01*
X96824500Y-87056018D01*
X96850072Y-87151455D01*
X96853498Y-87164241D01*
X96903012Y-87250000D01*
X96909515Y-87261263D01*
X96988737Y-87340485D01*
X96988739Y-87340486D01*
X97085759Y-87396501D01*
X97085757Y-87396501D01*
X97085761Y-87396502D01*
X97085763Y-87396503D01*
X97193982Y-87425500D01*
X97193984Y-87425500D01*
X97306016Y-87425500D01*
X97306018Y-87425500D01*
X97414237Y-87396503D01*
X97414239Y-87396501D01*
X97414241Y-87396501D01*
X97475274Y-87361263D01*
X97511263Y-87340485D01*
X97590485Y-87261263D01*
X97646503Y-87164237D01*
X97675500Y-87056018D01*
X97675500Y-86943982D01*
X97646503Y-86835763D01*
X97646501Y-86835760D01*
X97646501Y-86835758D01*
X97590486Y-86738739D01*
X97590485Y-86738737D01*
X97511263Y-86659515D01*
X97511260Y-86659513D01*
X97417820Y-86605565D01*
X102694500Y-86605565D01*
X102694500Y-86704435D01*
X102703692Y-86738739D01*
X102720091Y-86799942D01*
X102769523Y-86885559D01*
X102769525Y-86885562D01*
X102839438Y-86955475D01*
X102852673Y-86963116D01*
X102925058Y-87004908D01*
X102925056Y-87004908D01*
X102925060Y-87004909D01*
X102925062Y-87004910D01*
X103020565Y-87030500D01*
X103020567Y-87030500D01*
X103119433Y-87030500D01*
X103119435Y-87030500D01*
X103214938Y-87004910D01*
X103214940Y-87004908D01*
X103214942Y-87004908D01*
X103240377Y-86990222D01*
X103300562Y-86955475D01*
X103370475Y-86885562D01*
X103419910Y-86799938D01*
X103445500Y-86704435D01*
X103445500Y-86605565D01*
X103419910Y-86510062D01*
X103419908Y-86510059D01*
X103419908Y-86510057D01*
X103370476Y-86424440D01*
X103370475Y-86424438D01*
X103300562Y-86354525D01*
X103300559Y-86354523D01*
X103214941Y-86305091D01*
X103214943Y-86305091D01*
X103177885Y-86295161D01*
X103119435Y-86279500D01*
X103020565Y-86279500D01*
X102962114Y-86295161D01*
X102925057Y-86305091D01*
X102839440Y-86354523D01*
X102769523Y-86424440D01*
X102720091Y-86510057D01*
X102720090Y-86510062D01*
X102694500Y-86605565D01*
X97417820Y-86605565D01*
X97414240Y-86603498D01*
X97414242Y-86603498D01*
X97372251Y-86592247D01*
X97306018Y-86574500D01*
X97193982Y-86574500D01*
X97127748Y-86592247D01*
X97085758Y-86603498D01*
X96988739Y-86659513D01*
X96909513Y-86738739D01*
X96853498Y-86835758D01*
X96840154Y-86885559D01*
X96824500Y-86943982D01*
X96148705Y-86943982D01*
X96146503Y-86935763D01*
X96146501Y-86935759D01*
X96090486Y-86838739D01*
X96090485Y-86838737D01*
X96011263Y-86759515D01*
X96011260Y-86759513D01*
X95914240Y-86703498D01*
X95914242Y-86703498D01*
X95872251Y-86692247D01*
X95806018Y-86674500D01*
X95693982Y-86674500D01*
X95627748Y-86692247D01*
X95585758Y-86703498D01*
X95488739Y-86759513D01*
X95409513Y-86838739D01*
X95353498Y-86935758D01*
X95346168Y-86963116D01*
X95324500Y-87043982D01*
X90329709Y-87043982D01*
X90290435Y-86645224D01*
X90290434Y-86645219D01*
X90221168Y-86416881D01*
X90114026Y-86063681D01*
X89997367Y-85845427D01*
X89827557Y-85527734D01*
X89442035Y-85057973D01*
X89442031Y-85057968D01*
X89442025Y-85057963D01*
X88972264Y-84672441D01*
X88436323Y-84385975D01*
X88436318Y-84385973D01*
X87854779Y-84209564D01*
X87854774Y-84209563D01*
X87250003Y-84150000D01*
X87249997Y-84150000D01*
X86645224Y-84209563D01*
X86645216Y-84209565D01*
X86515622Y-84248876D01*
X86454449Y-84247674D01*
X86416881Y-84224143D01*
X86056818Y-83864080D01*
X85993303Y-83800565D01*
X93324500Y-83800565D01*
X93324500Y-83899435D01*
X93347067Y-83983657D01*
X93350091Y-83994942D01*
X93399523Y-84080559D01*
X93399525Y-84080562D01*
X93469438Y-84150475D01*
X93469440Y-84150476D01*
X93555058Y-84199908D01*
X93555056Y-84199908D01*
X93555060Y-84199909D01*
X93555062Y-84199910D01*
X93650565Y-84225500D01*
X93650567Y-84225500D01*
X93749433Y-84225500D01*
X93749435Y-84225500D01*
X93844938Y-84199910D01*
X93844940Y-84199908D01*
X93844942Y-84199908D01*
X93870377Y-84185222D01*
X93930562Y-84150475D01*
X94000475Y-84080562D01*
X94049910Y-83994938D01*
X94075500Y-83899435D01*
X94075500Y-83800565D01*
X94049910Y-83705062D01*
X94049908Y-83705059D01*
X94049908Y-83705057D01*
X94000476Y-83619440D01*
X94000475Y-83619438D01*
X93930562Y-83549525D01*
X93892078Y-83527306D01*
X93844941Y-83500091D01*
X93844943Y-83500091D01*
X93798866Y-83487745D01*
X93749435Y-83474500D01*
X93650565Y-83474500D01*
X93601134Y-83487745D01*
X93555057Y-83500091D01*
X93469440Y-83549523D01*
X93399523Y-83619440D01*
X93350091Y-83705057D01*
X93350090Y-83705062D01*
X93324500Y-83800565D01*
X85993303Y-83800565D01*
X85742261Y-83549523D01*
X85343303Y-83150565D01*
X89624500Y-83150565D01*
X89624500Y-83249435D01*
X89647067Y-83333657D01*
X89650091Y-83344942D01*
X89699523Y-83430559D01*
X89699525Y-83430562D01*
X89769438Y-83500475D01*
X89769440Y-83500476D01*
X89855058Y-83549908D01*
X89855056Y-83549908D01*
X89855060Y-83549909D01*
X89855062Y-83549910D01*
X89950565Y-83575500D01*
X89950567Y-83575500D01*
X90049433Y-83575500D01*
X90049435Y-83575500D01*
X90144938Y-83549910D01*
X90144940Y-83549908D01*
X90144942Y-83549908D01*
X90184089Y-83527306D01*
X90230562Y-83500475D01*
X90300475Y-83430562D01*
X90349910Y-83344938D01*
X90375500Y-83249435D01*
X90375500Y-83150565D01*
X91124500Y-83150565D01*
X91124500Y-83249435D01*
X91147067Y-83333657D01*
X91150091Y-83344942D01*
X91199523Y-83430559D01*
X91199525Y-83430562D01*
X91269438Y-83500475D01*
X91269440Y-83500476D01*
X91355058Y-83549908D01*
X91355056Y-83549908D01*
X91355060Y-83549909D01*
X91355062Y-83549910D01*
X91450565Y-83575500D01*
X91450567Y-83575500D01*
X91549433Y-83575500D01*
X91549435Y-83575500D01*
X91644938Y-83549910D01*
X91644940Y-83549908D01*
X91644942Y-83549908D01*
X91684089Y-83527306D01*
X91730562Y-83500475D01*
X91800475Y-83430562D01*
X91849910Y-83344938D01*
X91875500Y-83249435D01*
X91875500Y-83150565D01*
X100324500Y-83150565D01*
X100324500Y-83249435D01*
X100347067Y-83333657D01*
X100350091Y-83344942D01*
X100399523Y-83430559D01*
X100399525Y-83430562D01*
X100469438Y-83500475D01*
X100469440Y-83500476D01*
X100555058Y-83549908D01*
X100555056Y-83549908D01*
X100555060Y-83549909D01*
X100555062Y-83549910D01*
X100650565Y-83575500D01*
X100650567Y-83575500D01*
X100749433Y-83575500D01*
X100749435Y-83575500D01*
X100844938Y-83549910D01*
X100844940Y-83549908D01*
X100844942Y-83549908D01*
X100884089Y-83527306D01*
X100930562Y-83500475D01*
X101000475Y-83430562D01*
X101049910Y-83344938D01*
X101075500Y-83249435D01*
X101075500Y-83150565D01*
X106124500Y-83150565D01*
X106124500Y-83249435D01*
X106147067Y-83333657D01*
X106150091Y-83344942D01*
X106199523Y-83430559D01*
X106199525Y-83430562D01*
X106269438Y-83500475D01*
X106269440Y-83500476D01*
X106355058Y-83549908D01*
X106355056Y-83549908D01*
X106355060Y-83549909D01*
X106355062Y-83549910D01*
X106450565Y-83575500D01*
X106450567Y-83575500D01*
X106549433Y-83575500D01*
X106549435Y-83575500D01*
X106644938Y-83549910D01*
X106644940Y-83549908D01*
X106644942Y-83549908D01*
X106684089Y-83527306D01*
X106730562Y-83500475D01*
X106800475Y-83430562D01*
X106849910Y-83344938D01*
X106875500Y-83249435D01*
X106875500Y-83150565D01*
X107624500Y-83150565D01*
X107624500Y-83249435D01*
X107647067Y-83333657D01*
X107650091Y-83344942D01*
X107699523Y-83430559D01*
X107699525Y-83430562D01*
X107769438Y-83500475D01*
X107769440Y-83500476D01*
X107855058Y-83549908D01*
X107855056Y-83549908D01*
X107855060Y-83549909D01*
X107855062Y-83549910D01*
X107950565Y-83575500D01*
X107950567Y-83575500D01*
X108049433Y-83575500D01*
X108049435Y-83575500D01*
X108144938Y-83549910D01*
X108144940Y-83549908D01*
X108144942Y-83549908D01*
X108184089Y-83527306D01*
X108230562Y-83500475D01*
X108300475Y-83430562D01*
X108349910Y-83344938D01*
X108375500Y-83249435D01*
X108375500Y-83150565D01*
X108349910Y-83055062D01*
X108349908Y-83055059D01*
X108349908Y-83055057D01*
X108300476Y-82969440D01*
X108300475Y-82969438D01*
X108230562Y-82899525D01*
X108230559Y-82899523D01*
X108144941Y-82850091D01*
X108144943Y-82850091D01*
X108107885Y-82840161D01*
X108049435Y-82824500D01*
X107950565Y-82824500D01*
X107892114Y-82840161D01*
X107855057Y-82850091D01*
X107769440Y-82899523D01*
X107699523Y-82969440D01*
X107650091Y-83055057D01*
X107650090Y-83055062D01*
X107624500Y-83150565D01*
X106875500Y-83150565D01*
X106849910Y-83055062D01*
X106849908Y-83055059D01*
X106849908Y-83055057D01*
X106800476Y-82969440D01*
X106800475Y-82969438D01*
X106730562Y-82899525D01*
X106730559Y-82899523D01*
X106644941Y-82850091D01*
X106644943Y-82850091D01*
X106607885Y-82840161D01*
X106549435Y-82824500D01*
X106450565Y-82824500D01*
X106392114Y-82840161D01*
X106355057Y-82850091D01*
X106269440Y-82899523D01*
X106199523Y-82969440D01*
X106150091Y-83055057D01*
X106150090Y-83055062D01*
X106124500Y-83150565D01*
X101075500Y-83150565D01*
X101049910Y-83055062D01*
X101049908Y-83055059D01*
X101049908Y-83055057D01*
X101000476Y-82969440D01*
X101000475Y-82969438D01*
X100930562Y-82899525D01*
X100930559Y-82899523D01*
X100844941Y-82850091D01*
X100844943Y-82850091D01*
X100807885Y-82840161D01*
X100749435Y-82824500D01*
X100650565Y-82824500D01*
X100592114Y-82840161D01*
X100555057Y-82850091D01*
X100469440Y-82899523D01*
X100399523Y-82969440D01*
X100350091Y-83055057D01*
X100350090Y-83055062D01*
X100324500Y-83150565D01*
X91875500Y-83150565D01*
X91849910Y-83055062D01*
X91849908Y-83055059D01*
X91849908Y-83055057D01*
X91800476Y-82969440D01*
X91800475Y-82969438D01*
X91730562Y-82899525D01*
X91730559Y-82899523D01*
X91644941Y-82850091D01*
X91644943Y-82850091D01*
X91607885Y-82840161D01*
X91549435Y-82824500D01*
X91450565Y-82824500D01*
X91392114Y-82840161D01*
X91355057Y-82850091D01*
X91269440Y-82899523D01*
X91199523Y-82969440D01*
X91150091Y-83055057D01*
X91150090Y-83055062D01*
X91124500Y-83150565D01*
X90375500Y-83150565D01*
X90349910Y-83055062D01*
X90349908Y-83055059D01*
X90349908Y-83055057D01*
X90300476Y-82969440D01*
X90300475Y-82969438D01*
X90230562Y-82899525D01*
X90230559Y-82899523D01*
X90144941Y-82850091D01*
X90144943Y-82850091D01*
X90107885Y-82840161D01*
X90049435Y-82824500D01*
X89950565Y-82824500D01*
X89892114Y-82840161D01*
X89855057Y-82850091D01*
X89769440Y-82899523D01*
X89699523Y-82969440D01*
X89650091Y-83055057D01*
X89650090Y-83055062D01*
X89624500Y-83150565D01*
X85343303Y-83150565D01*
X84711740Y-82519003D01*
X84683964Y-82464487D01*
X84693535Y-82404055D01*
X84736800Y-82360790D01*
X84781745Y-82350000D01*
X115218254Y-82350000D01*
X115276445Y-82368907D01*
G37*
%TD.AperFunction*%
%TD*%
M02*
