%TF.GenerationSoftware,KiCad,Pcbnew,10.0.6-10.0.6~ubuntu24.04.1*%
%TF.CreationDate,2026-10-02T08:53:21+00:00*%
%TF.ProjectId,ridge3-fc,72696467-6533-42d6-9663-2e6b69636164,2.0*%
%TF.SameCoordinates,Original*%
%TF.FileFunction,Paste,Top*%
%TF.FilePolarity,Positive*%
%FSLAX46Y46*%
G04 Gerber Fmt 4.6, Leading zero omitted, Abs format (unit mm)*
G04 Created by KiCad (PCBNEW 10.0.6-10.0.6~ubuntu24.04.1) date 2026-10-02 08:53:21*
%MOMM*%
%LPD*%
G01*
G04 APERTURE LIST*
G04 Aperture macros list*
%AMRoundRect*
0 Rectangle with rounded corners*
0 $1 Rounding radius*
0 $2 $3 $4 $5 $6 $7 $8 $9 X,Y pos of 4 corners*
0 Add a 4 corners polygon primitive as box body*
4,1,4,$2,$3,$4,$5,$6,$7,$8,$9,$2,$3,0*
0 Add four circle primitives for the rounded corners*
1,1,$1+$1,$2,$3*
1,1,$1+$1,$4,$5*
1,1,$1+$1,$6,$7*
1,1,$1+$1,$8,$9*
0 Add four rect primitives between the rounded corners*
20,1,$1+$1,$2,$3,$4,$5,0*
20,1,$1+$1,$4,$5,$6,$7,0*
20,1,$1+$1,$6,$7,$8,$9,0*
20,1,$1+$1,$8,$9,$2,$3,0*%
G04 Aperture macros list end*
%ADD10RoundRect,0.250000X-0.325000X-1.100000X0.325000X-1.100000X0.325000X1.100000X-0.325000X1.100000X0*%
%ADD11RoundRect,0.140000X0.170000X-0.140000X0.170000X0.140000X-0.170000X0.140000X-0.170000X-0.140000X0*%
%ADD12RoundRect,0.140000X-0.140000X-0.170000X0.140000X-0.170000X0.140000X0.170000X-0.140000X0.170000X0*%
%ADD13R,1.000000X0.900000*%
%ADD14R,0.550000X1.700000*%
%ADD15R,1.000000X0.800000*%
%ADD16RoundRect,0.225000X0.225000X0.250000X-0.225000X0.250000X-0.225000X-0.250000X0.225000X-0.250000X0*%
%ADD17RoundRect,0.225000X0.250000X-0.225000X0.250000X0.225000X-0.250000X0.225000X-0.250000X-0.225000X0*%
%ADD18RoundRect,0.135000X0.185000X-0.135000X0.185000X0.135000X-0.185000X0.135000X-0.185000X-0.135000X0*%
%ADD19R,0.532000X1.072000*%
%ADD20R,1.550000X0.600000*%
%ADD21R,1.800000X1.200000*%
%ADD22RoundRect,0.147500X0.172500X-0.147500X0.172500X0.147500X-0.172500X0.147500X-0.172500X-0.147500X0*%
%ADD23RoundRect,0.225000X-0.225000X-0.250000X0.225000X-0.250000X0.225000X0.250000X-0.225000X0.250000X0*%
%ADD24RoundRect,0.135000X-0.135000X-0.185000X0.135000X-0.185000X0.135000X0.185000X-0.135000X0.185000X0*%
%ADD25R,1.110000X0.600000*%
%ADD26R,1.150000X0.600000*%
%ADD27R,1.150000X0.300000*%
%ADD28R,1.200000X1.400000*%
%ADD29R,0.800000X1.200000*%
%ADD30R,1.300000X2.150000*%
%ADD31RoundRect,0.140000X0.140000X0.170000X-0.140000X0.170000X-0.140000X-0.170000X0.140000X-0.170000X0*%
%ADD32O,0.280000X0.900000*%
%ADD33O,0.900000X0.280000*%
%ADD34R,5.600000X5.600000*%
%ADD35R,0.800000X0.800000*%
%ADD36R,1.200000X1.200000*%
%ADD37R,1.000000X0.650000*%
%ADD38R,2.700000X1.500000*%
%ADD39R,0.280000X0.675000*%
%ADD40R,0.675000X0.280000*%
%ADD41O,0.581000X1.276000*%
%ADD42R,4.300000X3.400000*%
%ADD43O,0.343000X1.731000*%
%ADD44R,6.700000X2.900000*%
%ADD45RoundRect,0.135000X0.135000X0.185000X-0.135000X0.185000X-0.135000X-0.185000X0.135000X-0.185000X0*%
G04 APERTURE END LIST*
D10*
%TO.C,C8*%
X110525000Y-107900000D03*
X113475000Y-107900000D03*
%TD*%
D11*
%TO.C,C26*%
X92555000Y-110235000D03*
X92555000Y-109275000D03*
%TD*%
D12*
%TO.C,C19*%
X103725000Y-97955000D03*
X104685000Y-97955000D03*
%TD*%
D13*
%TO.C,SW_BOOT*%
X115410000Y-103950000D03*
X117010000Y-103950000D03*
X117010000Y-108050000D03*
X115410000Y-108050000D03*
D14*
X114790000Y-106000000D03*
%TD*%
D12*
%TO.C,C22*%
X105775000Y-97955000D03*
X106735000Y-97955000D03*
%TD*%
D15*
%TO.C,LED_PWR*%
X113945000Y-102695000D03*
X113945000Y-101095000D03*
%TD*%
D16*
%TO.C,C28*%
X110350000Y-101775000D03*
X108800000Y-101775000D03*
%TD*%
D17*
%TO.C,C32*%
X91775000Y-89750000D03*
X91775000Y-88200000D03*
%TD*%
D12*
%TO.C,C31*%
X103725000Y-86655000D03*
X104685000Y-86655000D03*
%TD*%
D18*
%TO.C,R4*%
X112415000Y-99135000D03*
X112415000Y-98115000D03*
%TD*%
D19*
%TO.C,U_ESD*%
X93805000Y-96131000D03*
X92855000Y-96131000D03*
X91905000Y-96131000D03*
X91905000Y-98431000D03*
X92855000Y-98431000D03*
X93805000Y-98431000D03*
%TD*%
D20*
%TO.C,J_HD*%
X114140000Y-93000000D03*
X114140000Y-94000000D03*
X114140000Y-95000000D03*
X114140000Y-96000000D03*
X114140000Y-97000000D03*
X114140000Y-98000000D03*
D21*
X116660000Y-99300000D03*
X116660000Y-91700000D03*
%TD*%
D22*
%TO.C,FB_OSD*%
X93215000Y-90860000D03*
X93215000Y-89890000D03*
%TD*%
D23*
%TO.C,C23*%
X104800000Y-99375000D03*
X106350000Y-99375000D03*
%TD*%
D12*
%TO.C,C21*%
X91575000Y-103555000D03*
X92535000Y-103555000D03*
%TD*%
D24*
%TO.C,R1*%
X110115000Y-96615000D03*
X111135000Y-96615000D03*
%TD*%
D25*
%TO.C,J_USB*%
X89380000Y-96800000D03*
D26*
X89360000Y-97600000D03*
D27*
X89360000Y-98750000D03*
X89360000Y-99750000D03*
X89360000Y-100250000D03*
X89360000Y-101250000D03*
D25*
X89380000Y-103200000D03*
D26*
X89360000Y-102400000D03*
D27*
X89360000Y-101750000D03*
X89360000Y-100750000D03*
X89360000Y-99250000D03*
X89360000Y-98250000D03*
%TD*%
D11*
%TO.C,C29*%
X107405000Y-104735000D03*
X107405000Y-103775000D03*
%TD*%
D28*
%TO.C,Y2*%
X91045000Y-92295000D03*
X91045000Y-94495000D03*
X92745000Y-94495000D03*
X92745000Y-92295000D03*
%TD*%
D24*
%TO.C,R2*%
X110115000Y-97765000D03*
X111135000Y-97765000D03*
%TD*%
D17*
%TO.C,C24*%
X93925000Y-104900000D03*
X93925000Y-103350000D03*
%TD*%
D18*
%TO.C,R3*%
X112415000Y-97085000D03*
X112415000Y-96065000D03*
%TD*%
D29*
%TO.C,J_ESC*%
X93320000Y-113450000D03*
X94570000Y-113450000D03*
X95820000Y-113450000D03*
X97070000Y-113450000D03*
X98320000Y-113450000D03*
X99570000Y-113450000D03*
X100820000Y-113450000D03*
X102070000Y-113450000D03*
D30*
X91420000Y-115750000D03*
X103980000Y-115750000D03*
%TD*%
D31*
%TO.C,C18*%
X96435000Y-110055000D03*
X95475000Y-110055000D03*
%TD*%
D18*
%TO.C,R21*%
X107415000Y-102735000D03*
X107415000Y-101715000D03*
%TD*%
D24*
%TO.C,R20*%
X93265000Y-101965000D03*
X94285000Y-101965000D03*
%TD*%
D32*
%TO.C,U_FC*%
X96250000Y-104650000D03*
X96750000Y-104650000D03*
X97250000Y-104650000D03*
X97750000Y-104650000D03*
X98250000Y-104650000D03*
X98750000Y-104650000D03*
X99250000Y-104650000D03*
X99750000Y-104650000D03*
X100250000Y-104650000D03*
X100750000Y-104650000D03*
X101250000Y-104650000D03*
X101750000Y-104650000D03*
D33*
X102550000Y-103850000D03*
X102550000Y-103350000D03*
X102550000Y-102850000D03*
X102550000Y-102350000D03*
X102550000Y-101850000D03*
X102550000Y-101350000D03*
X102550000Y-100850000D03*
X102550000Y-100350000D03*
X102550000Y-99850000D03*
X102550000Y-99350000D03*
X102550000Y-98850000D03*
X102550000Y-98350000D03*
D32*
X101750000Y-97550000D03*
X101250000Y-97550000D03*
X100750000Y-97550000D03*
X100250000Y-97550000D03*
X99750000Y-97550000D03*
X99250000Y-97550000D03*
X98750000Y-97550000D03*
X98250000Y-97550000D03*
X97750000Y-97550000D03*
X97250000Y-97550000D03*
X96750000Y-97550000D03*
X96250000Y-97550000D03*
D33*
X95450000Y-98350000D03*
X95450000Y-98850000D03*
X95450000Y-99350000D03*
X95450000Y-99850000D03*
X95450000Y-100350000D03*
X95450000Y-100850000D03*
X95450000Y-101350000D03*
X95450000Y-101850000D03*
X95450000Y-102350000D03*
X95450000Y-102850000D03*
X95450000Y-103350000D03*
X95450000Y-103850000D03*
D34*
X99000000Y-101100000D03*
%TD*%
D35*
%TO.C,LED_STAT*%
X92495000Y-104745000D03*
X90795000Y-104745000D03*
%TD*%
D36*
%TO.C,D_TVS9*%
X107000000Y-110760000D03*
X107000000Y-114140000D03*
%TD*%
D11*
%TO.C,C27*%
X94355000Y-110985000D03*
X94355000Y-110025000D03*
%TD*%
D37*
%TO.C,Q_VTX*%
X112545000Y-105245000D03*
X112545000Y-103345000D03*
X110545000Y-104295000D03*
%TD*%
D38*
%TO.C,Y1*%
X94695000Y-106645000D03*
X94695000Y-108545000D03*
%TD*%
D12*
%TO.C,C1*%
X110125000Y-98905000D03*
X111085000Y-98905000D03*
%TD*%
D39*
%TO.C,U_IMU*%
X104450000Y-103460000D03*
X104950000Y-103460000D03*
X105450000Y-103460000D03*
X105950000Y-103460000D03*
D40*
X106210000Y-102700000D03*
X106210000Y-102200000D03*
X106210000Y-101700000D03*
D39*
X105950000Y-100940000D03*
X105450000Y-100940000D03*
X104950000Y-100940000D03*
X104450000Y-100940000D03*
D40*
X104190000Y-101700000D03*
X104190000Y-102200000D03*
X104190000Y-102700000D03*
%TD*%
D18*
%TO.C,R30*%
X92565000Y-108235000D03*
X92565000Y-107215000D03*
%TD*%
D41*
%TO.C,U_FLASH*%
X104850000Y-94410000D03*
X106120000Y-94410000D03*
X107380000Y-94410000D03*
X108650000Y-94410000D03*
X108650000Y-88390000D03*
X107380000Y-88390000D03*
X106120000Y-88390000D03*
X104850000Y-88390000D03*
D42*
X106750000Y-91400000D03*
%TD*%
D18*
%TO.C,R12*%
X109015000Y-106235000D03*
X109015000Y-105215000D03*
%TD*%
D11*
%TO.C,C25*%
X103755000Y-106385000D03*
X103755000Y-105425000D03*
%TD*%
D43*
%TO.C,U_OSD*%
X94770000Y-94070000D03*
X95420000Y-94070000D03*
X96070000Y-94070000D03*
X96720000Y-94070000D03*
X97370000Y-94070000D03*
X98020000Y-94070000D03*
X98680000Y-94070000D03*
X99330000Y-94070000D03*
X99980000Y-94070000D03*
X100630000Y-94070000D03*
X101280000Y-94070000D03*
X101930000Y-94070000D03*
X102580000Y-94070000D03*
X103230000Y-94070000D03*
X103230000Y-88330000D03*
X102580000Y-88330000D03*
X101930000Y-88330000D03*
X101280000Y-88330000D03*
X100630000Y-88330000D03*
X99980000Y-88330000D03*
X99330000Y-88330000D03*
X98680000Y-88330000D03*
X98020000Y-88330000D03*
X97370000Y-88330000D03*
X96720000Y-88330000D03*
X96070000Y-88330000D03*
X95420000Y-88330000D03*
X94770000Y-88330000D03*
D44*
X99000000Y-91200000D03*
%TD*%
D12*
%TO.C,C2*%
X111625000Y-100205000D03*
X112585000Y-100205000D03*
%TD*%
D18*
%TO.C,R11*%
X109265000Y-104185000D03*
X109265000Y-103165000D03*
%TD*%
D11*
%TO.C,C33*%
X89655000Y-94385000D03*
X89655000Y-93425000D03*
%TD*%
D45*
%TO.C,R29*%
X115935000Y-109265000D03*
X114915000Y-109265000D03*
%TD*%
D11*
%TO.C,C30*%
X107705000Y-100385000D03*
X107705000Y-99425000D03*
%TD*%
M02*
