%TF.GenerationSoftware,KiCad,Pcbnew,10.0.6-10.0.6~ubuntu24.04.1*%
%TF.CreationDate,2026-10-02T08:53:21+00:00*%
%TF.ProjectId,ridge3-fc,72696467-6533-42d6-9663-2e6b69636164,2.0*%
%TF.SameCoordinates,Original*%
%TF.FileFunction,Paste,Bot*%
%TF.FilePolarity,Positive*%
%FSLAX46Y46*%
G04 Gerber Fmt 4.6, Leading zero omitted, Abs format (unit mm)*
G04 Created by KiCad (PCBNEW 10.0.6-10.0.6~ubuntu24.04.1) date 2026-10-02 08:53:21*
%MOMM*%
%LPD*%
G01*
G04 APERTURE LIST*
G04 Aperture macros list*
%AMRoundRect*
0 Rectangle with rounded corners*
0 $1 Rounding radius*
0 $2 $3 $4 $5 $6 $7 $8 $9 X,Y pos of 4 corners*
0 Add a 4 corners polygon primitive as box body*
4,1,4,$2,$3,$4,$5,$6,$7,$8,$9,$2,$3,0*
0 Add four circle primitives for the rounded corners*
1,1,$1+$1,$2,$3*
1,1,$1+$1,$4,$5*
1,1,$1+$1,$6,$7*
1,1,$1+$1,$8,$9*
0 Add four rect primitives between the rounded corners*
20,1,$1+$1,$2,$3,$4,$5,0*
20,1,$1+$1,$4,$5,$6,$7,0*
20,1,$1+$1,$6,$7,$8,$9,0*
20,1,$1+$1,$8,$9,$2,$3,0*%
G04 Aperture macros list end*
%ADD10RoundRect,0.250000X1.100000X-0.325000X1.100000X0.325000X-1.100000X0.325000X-1.100000X-0.325000X0*%
%ADD11RoundRect,0.250000X-0.250000X-0.475000X0.250000X-0.475000X0.250000X0.475000X-0.250000X0.475000X0*%
%ADD12RoundRect,0.135000X0.185000X-0.135000X0.185000X0.135000X-0.185000X0.135000X-0.185000X-0.135000X0*%
%ADD13R,0.680000X0.280000*%
%ADD14RoundRect,0.140000X0.140000X0.170000X-0.140000X0.170000X-0.140000X-0.170000X0.140000X-0.170000X0*%
%ADD15RoundRect,0.140000X-0.140000X-0.170000X0.140000X-0.170000X0.140000X0.170000X-0.140000X0.170000X0*%
%ADD16R,3.400000X2.000000*%
%ADD17R,1.000000X2.200000*%
%ADD18RoundRect,0.135000X-0.135000X-0.185000X0.135000X-0.185000X0.135000X0.185000X-0.135000X0.185000X0*%
%ADD19O,0.630000X1.865000*%
%ADD20R,3.400000X2.710000*%
%ADD21RoundRect,0.225000X-0.225000X-0.250000X0.225000X-0.250000X0.225000X0.250000X-0.225000X0.250000X0*%
%ADD22R,2.000000X1.100000*%
%ADD23R,0.900000X1.100000*%
%ADD24RoundRect,0.225000X0.250000X-0.225000X0.250000X0.225000X-0.250000X0.225000X-0.250000X-0.225000X0*%
%ADD25RoundRect,0.135000X0.135000X0.185000X-0.135000X0.185000X-0.135000X-0.185000X0.135000X-0.185000X0*%
%ADD26R,0.850000X0.350000*%
%ADD27RoundRect,0.140000X0.170000X-0.140000X0.170000X0.140000X-0.170000X0.140000X-0.170000X-0.140000X0*%
%ADD28R,0.300000X0.600000*%
%ADD29RoundRect,0.250000X-1.100000X0.325000X-1.100000X-0.325000X1.100000X-0.325000X1.100000X0.325000X0*%
%ADD30RoundRect,0.135000X-0.185000X0.135000X-0.185000X-0.135000X0.185000X-0.135000X0.185000X0.135000X0*%
%ADD31R,1.200000X1.200000*%
G04 APERTURE END LIST*
D10*
%TO.C,C6*%
X108100000Y-111775000D03*
X108100000Y-108825000D03*
%TD*%
D11*
%TO.C,C14*%
X90700000Y-95850000D03*
X92600000Y-95850000D03*
%TD*%
D12*
%TO.C,R23*%
X102315000Y-89585000D03*
X102315000Y-88565000D03*
%TD*%
D13*
%TO.C,U_BUCK3*%
X90460000Y-94350000D03*
X90460000Y-93850000D03*
X90460000Y-93350000D03*
X90460000Y-92850000D03*
X91740000Y-92850000D03*
X91740000Y-93350000D03*
X91740000Y-93850000D03*
X91740000Y-94350000D03*
%TD*%
D12*
%TO.C,R10*%
X109615000Y-105585000D03*
X109615000Y-104565000D03*
%TD*%
D14*
%TO.C,C35*%
X98885000Y-90655000D03*
X97925000Y-90655000D03*
%TD*%
D12*
%TO.C,R5*%
X93500000Y-114910000D03*
X93500000Y-113890000D03*
%TD*%
D15*
%TO.C,C5*%
X97790000Y-107400000D03*
X98750000Y-107400000D03*
%TD*%
D12*
%TO.C,R15*%
X102565000Y-106785000D03*
X102565000Y-105765000D03*
%TD*%
%TO.C,R9*%
X110350000Y-109410000D03*
X110350000Y-108390000D03*
%TD*%
D16*
%TO.C,L_5V*%
X103150000Y-108800000D03*
X103150000Y-114400000D03*
%TD*%
D10*
%TO.C,C7*%
X108100000Y-116525000D03*
X108100000Y-113575000D03*
%TD*%
D16*
%TO.C,L_9V*%
X113300000Y-98000000D03*
X113300000Y-92400000D03*
%TD*%
D14*
%TO.C,C11*%
X108485000Y-103755000D03*
X107525000Y-103755000D03*
%TD*%
D17*
%TO.C,L_3V3*%
X93100000Y-93600000D03*
X95160000Y-93600000D03*
%TD*%
D18*
%TO.C,R28*%
X86290000Y-99900000D03*
X87310000Y-99900000D03*
%TD*%
D19*
%TO.C,U_BUCK5*%
X98900000Y-114580000D03*
X97630000Y-114580000D03*
X96370000Y-114580000D03*
X95100000Y-114580000D03*
X95100000Y-109220000D03*
X96370000Y-109220000D03*
X97630000Y-109220000D03*
X98900000Y-109220000D03*
D20*
X97000000Y-111900000D03*
%TD*%
D18*
%TO.C,R27*%
X86290000Y-98800000D03*
X87310000Y-98800000D03*
%TD*%
D12*
%TO.C,R24*%
X101165000Y-89585000D03*
X101165000Y-88565000D03*
%TD*%
D21*
%TO.C,C9*%
X112855000Y-108450000D03*
X114405000Y-108450000D03*
%TD*%
D22*
%TO.C,D_USB*%
X87770000Y-101300000D03*
D23*
X85830000Y-101300000D03*
%TD*%
D19*
%TO.C,U_BUCK9*%
X114900000Y-106680000D03*
X113630000Y-106680000D03*
X112370000Y-106680000D03*
X111100000Y-106680000D03*
X111100000Y-101320000D03*
X112370000Y-101320000D03*
X113630000Y-101320000D03*
X114900000Y-101320000D03*
D20*
X113000000Y-104000000D03*
%TD*%
D24*
%TO.C,C15*%
X95000000Y-91575000D03*
X95000000Y-90025000D03*
%TD*%
D18*
%TO.C,R16*%
X108765000Y-99765000D03*
X109785000Y-99765000D03*
%TD*%
%TO.C,R7*%
X94065000Y-106265000D03*
X95085000Y-106265000D03*
%TD*%
D25*
%TO.C,R8*%
X109860000Y-106680000D03*
X108840000Y-106680000D03*
%TD*%
D15*
%TO.C,C10*%
X113820000Y-99700000D03*
X114780000Y-99700000D03*
%TD*%
D26*
%TO.C,Q_TSW*%
X105470000Y-106595000D03*
X105470000Y-105945000D03*
X105470000Y-105295000D03*
X107670000Y-105295000D03*
X107670000Y-105945000D03*
X107670000Y-106595000D03*
%TD*%
D15*
%TO.C,C20*%
X95125000Y-96105000D03*
X96085000Y-96105000D03*
%TD*%
D25*
%TO.C,R26*%
X95935000Y-88615000D03*
X94915000Y-88615000D03*
%TD*%
D27*
%TO.C,C34*%
X100005000Y-89585000D03*
X100005000Y-88625000D03*
%TD*%
D28*
%TO.C,U_TSW*%
X108795000Y-101045000D03*
X109295000Y-101045000D03*
X109795000Y-101045000D03*
X109795000Y-102545000D03*
X109295000Y-102545000D03*
X108795000Y-102545000D03*
%TD*%
D12*
%TO.C,R25*%
X98865000Y-89585000D03*
X98865000Y-88565000D03*
%TD*%
%TO.C,R13*%
X107715000Y-102285000D03*
X107715000Y-101265000D03*
%TD*%
D10*
%TO.C,C3*%
X92600000Y-112475000D03*
X92600000Y-109525000D03*
%TD*%
D29*
%TO.C,C12*%
X108100000Y-93125000D03*
X108100000Y-96075000D03*
%TD*%
D21*
%TO.C,C4*%
X96855000Y-116450000D03*
X98405000Y-116450000D03*
%TD*%
D24*
%TO.C,C16*%
X96550000Y-91575000D03*
X96550000Y-90025000D03*
%TD*%
D27*
%TO.C,C17*%
X88055000Y-92485000D03*
X88055000Y-91525000D03*
%TD*%
D12*
%TO.C,R14*%
X103715000Y-106785000D03*
X103715000Y-105765000D03*
%TD*%
D14*
%TO.C,C36*%
X98885000Y-91805000D03*
X97925000Y-91805000D03*
%TD*%
D30*
%TO.C,R17*%
X109265000Y-97665000D03*
X109265000Y-98685000D03*
%TD*%
D18*
%TO.C,R6*%
X94065000Y-107415000D03*
X95085000Y-107415000D03*
%TD*%
D12*
%TO.C,R22*%
X103465000Y-89585000D03*
X103465000Y-88565000D03*
%TD*%
D10*
%TO.C,C13*%
X108100000Y-91375000D03*
X108100000Y-88425000D03*
%TD*%
D31*
%TO.C,D_TVS*%
X93590000Y-116600000D03*
X90210000Y-116600000D03*
%TD*%
D12*
%TO.C,R18*%
X89215000Y-92485000D03*
X89215000Y-91465000D03*
%TD*%
D18*
%TO.C,R19*%
X89665000Y-90365000D03*
X90685000Y-90365000D03*
%TD*%
M02*
