%TF.GenerationSoftware,KiCad,Pcbnew,10.0.6-10.0.6~ubuntu24.04.1*%
%TF.CreationDate,2026-09-27T20:11:49+00:00*%
%TF.ProjectId,ridge3-fc,72696467-6533-42d6-9663-2e6b69636164,rev?*%
%TF.SameCoordinates,Original*%
%TF.FileFunction,Copper,L3,Inr*%
%TF.FilePolarity,Positive*%
%FSLAX46Y46*%
G04 Gerber Fmt 4.6, Leading zero omitted, Abs format (unit mm)*
G04 Created by KiCad (PCBNEW 10.0.6-10.0.6~ubuntu24.04.1) date 2026-09-27 20:11:49*
%MOMM*%
%LPD*%
G01*
G04 APERTURE LIST*
%TA.AperFunction,ComponentPad*%
%ADD10O,2.100000X1.000000*%
%TD*%
%TA.AperFunction,ComponentPad*%
%ADD11O,1.800000X1.000000*%
%TD*%
%TA.AperFunction,ViaPad*%
%ADD12C,0.350000*%
%TD*%
%TA.AperFunction,ViaPad*%
%ADD13C,0.500000*%
%TD*%
%TA.AperFunction,ViaPad*%
%ADD14C,0.450000*%
%TD*%
%TA.AperFunction,Conductor*%
%ADD15C,0.100000*%
%TD*%
%TA.AperFunction,Conductor*%
%ADD16C,0.200000*%
%TD*%
%TA.AperFunction,Conductor*%
%ADD17C,0.300000*%
%TD*%
G04 APERTURE END LIST*
D10*
%TO.N,GND*%
%TO.C,J_USB*%
X89590000Y-95680000D03*
D11*
X85410000Y-95680000D03*
X85410000Y-104320000D03*
D10*
X89590000Y-104320000D03*
%TD*%
D12*
%TO.N,VTX_OFF_G*%
X110150100Y-99168700D03*
X109819400Y-103475000D03*
%TO.N,GND*%
X91800000Y-109525000D03*
X113267000Y-96747300D03*
X98200000Y-103500000D03*
X93970200Y-113420000D03*
X106375000Y-98242300D03*
X105150000Y-92200000D03*
X110815000Y-108910000D03*
X105150000Y-90600000D03*
X106750000Y-92200000D03*
X101400000Y-98700000D03*
X99800000Y-92000000D03*
X103961000Y-100464000D03*
X93717700Y-101925000D03*
X115450000Y-110015000D03*
X106750000Y-90600000D03*
X98200000Y-101900000D03*
D13*
X98000000Y-110900000D03*
D12*
X104500000Y-107825000D03*
X96542300Y-95264100D03*
D13*
X98900000Y-114080000D03*
D12*
X94215000Y-101650000D03*
X109715000Y-104250000D03*
X117367000Y-108412000D03*
X111313000Y-99632400D03*
X106200000Y-116320000D03*
X98200000Y-98700000D03*
X109455000Y-100320000D03*
X91577500Y-102308000D03*
X96600000Y-90400000D03*
X111777000Y-95492900D03*
X109277000Y-99583500D03*
X93055000Y-102220000D03*
X108400000Y-110480000D03*
X98055400Y-87755400D03*
X99225000Y-116450000D03*
X99772500Y-84191600D03*
X87975000Y-98800000D03*
X87975000Y-99900000D03*
X99800000Y-101900000D03*
X109586000Y-94119100D03*
X99800000Y-100300000D03*
X107078000Y-102758000D03*
X106100000Y-107825000D03*
X90730000Y-96080000D03*
X101400000Y-103500000D03*
X106822000Y-101397000D03*
X108515000Y-105350000D03*
X103755000Y-104720000D03*
X101400000Y-100300000D03*
X95750000Y-106265000D03*
X109490000Y-104755000D03*
X101400000Y-101900000D03*
D13*
X96000000Y-110900000D03*
D12*
X116603000Y-103553000D03*
X101400000Y-92000000D03*
X84345000Y-107900000D03*
X105583000Y-100271000D03*
D13*
X97000000Y-110900000D03*
D12*
X98200000Y-92000000D03*
X96600000Y-103500000D03*
X105340000Y-86655000D03*
X96184000Y-105668000D03*
X100061000Y-87125500D03*
X92918200Y-108812000D03*
X89655000Y-92770000D03*
X90406000Y-94871900D03*
X107340000Y-97755000D03*
X96600000Y-101900000D03*
X96740000Y-96105000D03*
X108350000Y-90600000D03*
X91800000Y-111165000D03*
X115590000Y-93323000D03*
X108142000Y-98661800D03*
X101400000Y-90400000D03*
X107455000Y-99470000D03*
D13*
X112000000Y-104500000D03*
D12*
X114400000Y-101615000D03*
X117227000Y-90066500D03*
X106892000Y-102200000D03*
X105055000Y-98220000D03*
X99800000Y-103500000D03*
X98200000Y-90400000D03*
X93206000Y-109522000D03*
X109122000Y-105422000D03*
X109277000Y-88616500D03*
X90730000Y-103920000D03*
X93295500Y-95118000D03*
X93384000Y-91018100D03*
X98200000Y-100300000D03*
X96600000Y-100300000D03*
X100005000Y-87970000D03*
X103905000Y-97720000D03*
X95147500Y-110722000D03*
D13*
X107828000Y-108195000D03*
D12*
X99800000Y-98700000D03*
X106200000Y-108680000D03*
X84345000Y-91200000D03*
X96600000Y-92000000D03*
X97938900Y-87125500D03*
X113087000Y-97382500D03*
X91805000Y-87870000D03*
X96555000Y-86990000D03*
X111335000Y-95180000D03*
X95272500Y-84191600D03*
X96077000Y-111623000D03*
X109927000Y-92515000D03*
X99800000Y-90400000D03*
X104500000Y-100427000D03*
D13*
X98900000Y-115080000D03*
D12*
X109005000Y-106538000D03*
X96600000Y-98700000D03*
D13*
X112000000Y-105500000D03*
D12*
X107835000Y-96442300D03*
%TO.N,+3V3_GYRO*%
X106177700Y-100940000D03*
X105725000Y-97755000D03*
%TO.N,+3V3*%
X92439100Y-90742500D03*
X103070000Y-86655000D03*
X103465000Y-90250000D03*
X91577500Y-104402000D03*
X94470000Y-96105000D03*
X103342000Y-98817300D03*
X104327000Y-87560900D03*
X117335000Y-107102000D03*
X103735000Y-99967700D03*
X105919000Y-87430300D03*
X104400000Y-99835000D03*
X96717300Y-96758400D03*
X95764800Y-105276000D03*
X94823600Y-104335000D03*
X106532000Y-100402000D03*
X107581000Y-95369700D03*
X107242000Y-104925000D03*
X102785000Y-90055200D03*
X92487800Y-104162000D03*
X91889100Y-108568000D03*
X103341000Y-100392000D03*
D13*
X107182000Y-108954000D03*
X105326000Y-106845000D03*
D12*
X109261000Y-102548000D03*
X91470000Y-101755000D03*
%TO.N,+3V3_OSD*%
X93553700Y-89655600D03*
X89655000Y-94385000D03*
X99274400Y-87637700D03*
X96070000Y-94070000D03*
%TO.N,BEEPER_G*%
X116001700Y-106161500D03*
X108234700Y-104205600D03*
%TO.N,UART4_TX*%
X94341900Y-99350000D03*
X90000000Y-83200000D03*
%TO.N,UART2_TX*%
X83200000Y-94200000D03*
X95450000Y-100350000D03*
%TO.N,VBAT*%
X109350000Y-108800000D03*
X109150000Y-109650000D03*
D13*
X113500000Y-109100000D03*
D12*
X111706500Y-97508500D03*
X97750000Y-114850000D03*
D13*
X95600000Y-116550000D03*
X114300000Y-109100000D03*
X95600000Y-117250000D03*
X112700000Y-109100000D03*
D12*
%TO.N,USB_VBUS*%
X91900000Y-99300000D03*
X92642800Y-98768500D03*
X90900000Y-102250000D03*
X90170000Y-97600000D03*
%TO.N,USB_CC1*%
X88472800Y-98729100D03*
D14*
%TO.N,USB_DP*%
X95650000Y-97150000D03*
X97250000Y-96950000D03*
%TO.N,USB_DM*%
X91089900Y-99346600D03*
X97900000Y-96800000D03*
X91089900Y-100347000D03*
D12*
%TO.N,USB_CC2*%
X86290000Y-99900000D03*
%TO.N,ADC_CURR*%
X102888400Y-101350000D03*
X108605000Y-100085000D03*
%TO.N,UART1_TX*%
X106500000Y-83200000D03*
X107087300Y-96462700D03*
X98947500Y-96951200D03*
X115624900Y-95437600D03*
%TO.N,ADC_VBAT*%
X107165200Y-98393300D03*
X103848800Y-100922000D03*
%TO.N,+5V*%
X109900000Y-110250000D03*
X83200000Y-89700000D03*
X101884400Y-96731600D03*
X83200000Y-106400000D03*
X110683200Y-99013600D03*
X116800000Y-100900000D03*
X92848900Y-106315600D03*
X100700000Y-83200000D03*
X107850000Y-106450000D03*
X110683200Y-100317000D03*
D14*
%TO.N,SPI1_SCK*%
X103200000Y-103750000D03*
X103450000Y-102300000D03*
%TO.N,CAM_VIDEO*%
X97250000Y-87000000D03*
D12*
%TO.N,UART1_RX*%
X114140000Y-96000000D03*
X98453600Y-96930600D03*
X108000000Y-83200000D03*
%TO.N,CUR*%
X111423500Y-97946900D03*
X99380100Y-110712800D03*
%TO.N,TLM*%
X98988500Y-111671700D03*
X102550000Y-98350000D03*
D13*
%TO.N,+9V*%
X113900000Y-91700000D03*
D12*
X114300000Y-102250000D03*
X93700000Y-83850000D03*
D13*
X114700000Y-91700000D03*
D12*
X112550000Y-97700000D03*
%TO.N,UART4_RX*%
X91500000Y-83200000D03*
X95343600Y-99810500D03*
D14*
%TO.N,HSE_OUT*%
X93300000Y-107400000D03*
X96750000Y-107950000D03*
D12*
%TO.N,NRST*%
X94295000Y-110395000D03*
X99250000Y-104650000D03*
X103755000Y-106335000D03*
%TO.N,SPI2_MOSI*%
X108237200Y-88802800D03*
X99980000Y-94070000D03*
%TO.N,FLASH_CS*%
X104850000Y-94410000D03*
X99750000Y-97550000D03*
%TO.N,OSD_CS*%
X99330000Y-94070000D03*
%TO.N,SWDIO*%
X94205400Y-96690000D03*
%TO.N,SWCLK*%
X91080800Y-96781100D03*
X95450000Y-98350000D03*
%TO.N,BEEPER*%
X109249700Y-104141000D03*
X95450000Y-98850000D03*
%TO.N,UART2_RX*%
X111995000Y-91445000D03*
X94621200Y-98018300D03*
X83200000Y-92700000D03*
%TO.N,VTX_OFF*%
X108119300Y-102671500D03*
X95450000Y-101350000D03*
%TO.N,BOOT0*%
X116680900Y-104680900D03*
X94215000Y-103335000D03*
%TO.N,BUCK9_EN*%
X109788400Y-114616000D03*
X110445000Y-97895000D03*
X114597700Y-106490000D03*
%TO.N,OSD_RST*%
X100630000Y-88330000D03*
%TO.N,OSD_VIN*%
X98721900Y-87564200D03*
D14*
%TO.N,OSD_VOUT*%
X95250000Y-89550000D03*
%TO.N,VTX_VIDEO*%
X95750000Y-87100000D03*
D12*
%TO.N,BUCK9_VCC*%
X114900000Y-107500000D03*
X114000000Y-103700000D03*
%TO.N,BUCK9_RT*%
X115069900Y-102793900D03*
X117165000Y-105135000D03*
%TO.N,BUCK9_FB*%
X115978700Y-103607800D03*
X115877800Y-98420300D03*
%TO.N,BUCK5_FB*%
X94700000Y-111050000D03*
X94750000Y-107500000D03*
%TD*%
%TO.N,VTX_OFF_G*%
D15*
X110150100Y-103144300D02*
X109819400Y-103475000D01*
X110150100Y-99168700D02*
X110150100Y-103144300D01*
%TO.N,+3V3_OSD*%
D16*
X93553700Y-89655600D02*
X96070000Y-92171900D01*
X96070000Y-92171900D02*
X96070000Y-94070000D01*
%TO.N,UART4_TX*%
D15*
X91173300Y-96181400D02*
X94341900Y-99350000D01*
X91173300Y-84373300D02*
X91173300Y-96181400D01*
X90000000Y-83200000D02*
X91173300Y-84373300D01*
%TO.N,VBAT*%
D17*
X112700000Y-109100000D02*
X112700000Y-101424500D01*
X111900200Y-97702200D02*
X111706500Y-97508500D01*
X112700000Y-101424500D02*
X111900200Y-100624700D01*
X111900200Y-100624700D02*
X111900200Y-97702200D01*
%TO.N,USB_VBUS*%
X90900000Y-101900000D02*
X90850000Y-101850000D01*
X90850000Y-101450000D02*
X91900000Y-100400000D01*
X90850000Y-101850000D02*
X90850000Y-101450000D01*
X91900000Y-100400000D02*
X91900000Y-99300000D01*
X90900000Y-102250000D02*
X90900000Y-101900000D01*
%TO.N,UART1_TX*%
D15*
X107087300Y-83787300D02*
X106500000Y-83200000D01*
X107087300Y-96462700D02*
X107087300Y-83787300D01*
%TO.N,ADC_VBAT*%
X107165200Y-98393300D02*
X107165200Y-99154200D01*
X105397400Y-100922000D02*
X103848800Y-100922000D01*
X107165200Y-99154200D02*
X105397400Y-100922000D01*
%TO.N,+5V*%
D17*
X110683200Y-108311600D02*
X110683200Y-100317000D01*
X109900000Y-109094800D02*
X110683200Y-108311600D01*
D16*
X107850000Y-106450000D02*
X109900000Y-108500000D01*
D17*
X100700000Y-83200000D02*
X101884400Y-84384400D01*
X110683200Y-100317000D02*
X110683200Y-99013600D01*
X82718000Y-90182000D02*
X83200000Y-89700000D01*
X83200000Y-106400000D02*
X82718000Y-105918000D01*
X101884400Y-84384400D02*
X101884400Y-96731600D01*
X82718000Y-105918000D02*
X82718000Y-90182000D01*
D16*
X109900000Y-108500000D02*
X109900000Y-110250000D01*
%TO.N,UART1_RX*%
D15*
X114140000Y-94240100D02*
X108000000Y-88100100D01*
X114140000Y-96000000D02*
X114140000Y-94240100D01*
X108000000Y-88100100D02*
X108000000Y-83200000D01*
%TO.N,CUR*%
X102208400Y-98152400D02*
X102381600Y-97979200D01*
X102208400Y-107884500D02*
X102208400Y-98152400D01*
X99380100Y-110712800D02*
X102208400Y-107884500D01*
X107470500Y-97423500D02*
X108315500Y-98268500D01*
X102924600Y-98051700D02*
X104430400Y-98051700D01*
X102381600Y-97979200D02*
X102852100Y-97979200D01*
X105058600Y-97423500D02*
X107470500Y-97423500D01*
X104430400Y-98051700D02*
X105058600Y-97423500D01*
X111101900Y-98268500D02*
X111423500Y-97946900D01*
X102852100Y-97979200D02*
X102924600Y-98051700D01*
X108315500Y-98268500D02*
X111101900Y-98268500D01*
%TO.N,TLM*%
X102550000Y-98350000D02*
X102550000Y-108110200D01*
X102550000Y-108110200D02*
X98988500Y-111671700D01*
%TO.N,+9V*%
D16*
X114300000Y-102250000D02*
X112550000Y-100500000D01*
X112550000Y-100500000D02*
X112550000Y-97700000D01*
%TO.N,UART4_RX*%
D15*
X91474300Y-83225700D02*
X91500000Y-83200000D01*
X91474300Y-95941200D02*
X91474300Y-83225700D01*
X95343600Y-99810500D02*
X91474300Y-95941200D01*
%TO.N,NRST*%
X94295000Y-110395000D02*
X94295000Y-109605000D01*
X94295000Y-109605000D02*
X99250000Y-104650000D01*
%TO.N,FLASH_CS*%
X104850000Y-94410000D02*
X101710000Y-97550000D01*
X101710000Y-97550000D02*
X99750000Y-97550000D01*
%TO.N,BUCK9_EN*%
X114726700Y-97735800D02*
X114726700Y-106361000D01*
X113409700Y-96418800D02*
X114726700Y-97735800D01*
X110445000Y-97895000D02*
X111921200Y-96418800D01*
X111921200Y-96418800D02*
X113409700Y-96418800D01*
X114726700Y-106361000D02*
X114597700Y-106490000D01*
%TO.N,BUCK9_VCC*%
D16*
X114000000Y-106600000D02*
X114900000Y-107500000D01*
X114000000Y-103700000D02*
X114000000Y-106600000D01*
%TO.N,BUCK9_RT*%
D15*
X115069900Y-103581200D02*
X116623700Y-105135000D01*
X116623700Y-105135000D02*
X117165000Y-105135000D01*
X115069900Y-102793900D02*
X115069900Y-103581200D01*
%TO.N,BUCK9_FB*%
X115877800Y-98420300D02*
X115877800Y-103506900D01*
X115877800Y-103506900D02*
X115978700Y-103607800D01*
%TD*%
M02*
