%TF.GenerationSoftware,KiCad,Pcbnew,10.0.6-10.0.6~ubuntu24.04.1*%
%TF.CreationDate,2026-09-28T15:42:59+00:00*%
%TF.ProjectId,ridge3-fc,72696467-6533-42d6-9663-2e6b69636164,rev?*%
%TF.SameCoordinates,Original*%
%TF.FileFunction,Paste,Bot*%
%TF.FilePolarity,Positive*%
%FSLAX46Y46*%
G04 Gerber Fmt 4.6, Leading zero omitted, Abs format (unit mm)*
G04 Created by KiCad (PCBNEW 10.0.6-10.0.6~ubuntu24.04.1) date 2026-09-28 15:42:59*
%MOMM*%
%LPD*%
G01*
G04 APERTURE LIST*
G04 Aperture macros list*
%AMRoundRect*
0 Rectangle with rounded corners*
0 $1 Rounding radius*
0 $2 $3 $4 $5 $6 $7 $8 $9 X,Y pos of 4 corners*
0 Add a 4 corners polygon primitive as box body*
4,1,4,$2,$3,$4,$5,$6,$7,$8,$9,$2,$3,0*
0 Add four circle primitives for the rounded corners*
1,1,$1+$1,$2,$3*
1,1,$1+$1,$4,$5*
1,1,$1+$1,$6,$7*
1,1,$1+$1,$8,$9*
0 Add four rect primitives between the rounded corners*
20,1,$1+$1,$2,$3,$4,$5,0*
20,1,$1+$1,$4,$5,$6,$7,0*
20,1,$1+$1,$6,$7,$8,$9,0*
20,1,$1+$1,$8,$9,$2,$3,0*%
G04 Aperture macros list end*
%ADD10R,0.250000X0.800000*%
%ADD11R,0.800000X0.250000*%
%ADD12R,4.500000X1.800000*%
%ADD13RoundRect,0.135000X-0.135000X-0.185000X0.135000X-0.185000X0.135000X0.185000X-0.135000X0.185000X0*%
%ADD14RoundRect,0.140000X0.170000X-0.140000X0.170000X0.140000X-0.170000X0.140000X-0.170000X-0.140000X0*%
%ADD15RoundRect,0.250000X1.100000X-0.325000X1.100000X0.325000X-1.100000X0.325000X-1.100000X-0.325000X0*%
%ADD16RoundRect,0.140000X-0.140000X-0.170000X0.140000X-0.170000X0.140000X0.170000X-0.140000X0.170000X0*%
%ADD17RoundRect,0.225000X-0.225000X-0.250000X0.225000X-0.250000X0.225000X0.250000X-0.225000X0.250000X0*%
%ADD18RoundRect,0.250000X0.475000X-0.250000X0.475000X0.250000X-0.475000X0.250000X-0.475000X-0.250000X0*%
%ADD19RoundRect,0.135000X0.185000X-0.135000X0.185000X0.135000X-0.185000X0.135000X-0.185000X-0.135000X0*%
%ADD20O,0.630000X1.865000*%
%ADD21R,3.400000X2.710000*%
%ADD22R,3.000000X2.000000*%
%ADD23RoundRect,0.250000X-0.250000X-0.475000X0.250000X-0.475000X0.250000X0.475000X-0.250000X0.475000X0*%
%ADD24R,2.000000X1.100000*%
%ADD25R,0.900000X1.100000*%
%ADD26RoundRect,0.250000X-0.475000X0.250000X-0.475000X-0.250000X0.475000X-0.250000X0.475000X0.250000X0*%
%ADD27RoundRect,0.135000X0.135000X0.185000X-0.135000X0.185000X-0.135000X-0.185000X0.135000X-0.185000X0*%
%ADD28RoundRect,0.225000X0.225000X0.250000X-0.225000X0.250000X-0.225000X-0.250000X0.225000X-0.250000X0*%
%ADD29R,3.430000X2.420000*%
%ADD30O,0.607000X0.364000*%
%ADD31R,1.000000X1.600000*%
G04 APERTURE END LIST*
D10*
%TO.C,U_BUCK9*%
X110500000Y-103100000D03*
X111000000Y-103100000D03*
X111500000Y-103100000D03*
X112000000Y-103100000D03*
X112500000Y-103100000D03*
X113000000Y-103100000D03*
X113500000Y-103100000D03*
X114000000Y-103100000D03*
X114500000Y-103100000D03*
X115000000Y-103100000D03*
X115500000Y-103100000D03*
D11*
X116000000Y-104250000D03*
X116000000Y-104750000D03*
X116000000Y-105250000D03*
X116000000Y-105750000D03*
D10*
X115500000Y-106900000D03*
X115000000Y-106900000D03*
X114500000Y-106900000D03*
X114000000Y-106900000D03*
X113500000Y-106900000D03*
X113000000Y-106900000D03*
X112500000Y-106900000D03*
X112000000Y-106900000D03*
X111500000Y-106900000D03*
X111000000Y-106900000D03*
X110500000Y-106900000D03*
D11*
X110000000Y-105750000D03*
X110000000Y-105250000D03*
X110000000Y-104750000D03*
X110000000Y-104250000D03*
D12*
X113000000Y-105000000D03*
%TD*%
D13*
%TO.C,R9*%
X109315000Y-109615000D03*
X110335000Y-109615000D03*
%TD*%
D14*
%TO.C,C37*%
X100005000Y-89585000D03*
X100005000Y-88625000D03*
%TD*%
D15*
%TO.C,C4*%
X92600000Y-112475000D03*
X92600000Y-109525000D03*
%TD*%
D16*
%TO.C,C19*%
X107875000Y-105905000D03*
X108835000Y-105905000D03*
%TD*%
D17*
%TO.C,C5*%
X96855000Y-116450000D03*
X98405000Y-116450000D03*
%TD*%
D18*
%TO.C,C8*%
X106200000Y-111650000D03*
X106200000Y-109750000D03*
%TD*%
%TO.C,C9*%
X108400000Y-113450000D03*
X108400000Y-111550000D03*
%TD*%
D13*
%TO.C,R6*%
X94065000Y-107415000D03*
X95085000Y-107415000D03*
%TD*%
D19*
%TO.C,R18*%
X101165000Y-89585000D03*
X101165000Y-88565000D03*
%TD*%
%TO.C,R8*%
X117165000Y-105135000D03*
X117165000Y-104115000D03*
%TD*%
D14*
%TO.C,C39*%
X97705000Y-89585000D03*
X97705000Y-88625000D03*
%TD*%
D16*
%TO.C,C6*%
X97790000Y-107400000D03*
X98750000Y-107400000D03*
%TD*%
D19*
%TO.C,R19*%
X102315000Y-89585000D03*
X102315000Y-88565000D03*
%TD*%
%TO.C,R17*%
X103465000Y-89585000D03*
X103465000Y-88565000D03*
%TD*%
%TO.C,R5*%
X93500000Y-114910000D03*
X93500000Y-113890000D03*
%TD*%
D18*
%TO.C,C17*%
X109000000Y-91550000D03*
X109000000Y-89650000D03*
%TD*%
D20*
%TO.C,U_BUCK5*%
X98900000Y-114580000D03*
X97630000Y-114580000D03*
X96370000Y-114580000D03*
X95100000Y-114580000D03*
X95100000Y-109220000D03*
X96370000Y-109220000D03*
X97630000Y-109220000D03*
X98900000Y-109220000D03*
D21*
X97000000Y-111900000D03*
%TD*%
D18*
%TO.C,C16*%
X109000000Y-94950000D03*
X109000000Y-93050000D03*
%TD*%
D22*
%TO.C,L_5V*%
X102450000Y-109230000D03*
X102450000Y-113970000D03*
%TD*%
D13*
%TO.C,R23*%
X86290000Y-99900000D03*
X87310000Y-99900000D03*
%TD*%
D16*
%TO.C,C23*%
X95125000Y-96105000D03*
X96085000Y-96105000D03*
%TD*%
D23*
%TO.C,C18*%
X115050000Y-91100000D03*
X116950000Y-91100000D03*
%TD*%
D24*
%TO.C,D_USB*%
X87770000Y-101300000D03*
D25*
X85830000Y-101300000D03*
%TD*%
D19*
%TO.C,R20*%
X98865000Y-89585000D03*
X98865000Y-88565000D03*
%TD*%
%TO.C,R13*%
X117165000Y-103085000D03*
X117165000Y-102065000D03*
%TD*%
D14*
%TO.C,C38*%
X96555000Y-89585000D03*
X96555000Y-88625000D03*
%TD*%
D13*
%TO.C,R7*%
X94065000Y-106265000D03*
X95085000Y-106265000D03*
%TD*%
D19*
%TO.C,R21*%
X95415000Y-89585000D03*
X95415000Y-88565000D03*
%TD*%
D26*
%TO.C,C15*%
X109000000Y-96650000D03*
X109000000Y-98550000D03*
%TD*%
D13*
%TO.C,R22*%
X86290000Y-98800000D03*
X87310000Y-98800000D03*
%TD*%
D27*
%TO.C,R14*%
X116085000Y-101615000D03*
X115065000Y-101615000D03*
%TD*%
D16*
%TO.C,C20*%
X107875000Y-104755000D03*
X108835000Y-104755000D03*
%TD*%
D28*
%TO.C,C11*%
X112775000Y-108200000D03*
X111225000Y-108200000D03*
%TD*%
D27*
%TO.C,R10*%
X117135000Y-110015000D03*
X116115000Y-110015000D03*
%TD*%
D29*
%TO.C,L_9V*%
X113500000Y-99620000D03*
X113500000Y-93780000D03*
%TD*%
D17*
%TO.C,C13*%
X115025000Y-108200000D03*
X116575000Y-108200000D03*
%TD*%
D28*
%TO.C,C12*%
X113475000Y-101750000D03*
X111925000Y-101750000D03*
%TD*%
D14*
%TO.C,C14*%
X109455000Y-101935000D03*
X109455000Y-100975000D03*
%TD*%
D26*
%TO.C,C7*%
X106200000Y-113350000D03*
X106200000Y-115250000D03*
%TD*%
D30*
%TO.C,U_LDO*%
X106798000Y-108345000D03*
X106798000Y-107695000D03*
X106798000Y-107045000D03*
X108858000Y-107045000D03*
X108858000Y-107695000D03*
X108858000Y-108345000D03*
D31*
X107828000Y-107695000D03*
%TD*%
M02*
