%TF.GenerationSoftware,KiCad,Pcbnew,10.0.6-10.0.6~ubuntu24.04.1*%
%TF.CreationDate,2026-09-29T02:45:49+00:00*%
%TF.ProjectId,ridge3-fc,72696467-6533-42d6-9663-2e6b69636164,1.0*%
%TF.SameCoordinates,Original*%
%TF.FileFunction,Copper,L3,Inr*%
%TF.FilePolarity,Positive*%
%FSLAX46Y46*%
G04 Gerber Fmt 4.6, Leading zero omitted, Abs format (unit mm)*
G04 Created by KiCad (PCBNEW 10.0.6-10.0.6~ubuntu24.04.1) date 2026-09-29 02:45:49*
%MOMM*%
%LPD*%
G01*
G04 APERTURE LIST*
%TA.AperFunction,ComponentPad*%
%ADD10O,2.100000X1.000000*%
%TD*%
%TA.AperFunction,ComponentPad*%
%ADD11O,1.800000X1.000000*%
%TD*%
%TA.AperFunction,ViaPad*%
%ADD12C,0.350000*%
%TD*%
%TA.AperFunction,ViaPad*%
%ADD13C,0.500000*%
%TD*%
%TA.AperFunction,ViaPad*%
%ADD14C,0.450000*%
%TD*%
%TA.AperFunction,Conductor*%
%ADD15C,0.150000*%
%TD*%
%TA.AperFunction,Conductor*%
%ADD16C,0.200000*%
%TD*%
%TA.AperFunction,Conductor*%
%ADD17C,0.100000*%
%TD*%
%TA.AperFunction,Conductor*%
%ADD18C,0.300000*%
%TD*%
%TA.AperFunction,Conductor*%
%ADD19C,0.400000*%
%TD*%
G04 APERTURE END LIST*
D10*
%TO.N,GND*%
%TO.C,J_USB*%
X88780000Y-95680000D03*
D11*
X84600000Y-95680000D03*
X84600000Y-104320000D03*
D10*
X88780000Y-104320000D03*
%TD*%
D12*
%TO.N,VTX_OFF_G*%
X109657500Y-103102600D03*
X111363000Y-98845000D03*
%TO.N,GND*%
X98200000Y-100300000D03*
X107340000Y-97755000D03*
X93055000Y-102220000D03*
X107455000Y-99470000D03*
X98055400Y-87755400D03*
X115590000Y-93323000D03*
X99800000Y-100300000D03*
D13*
X96000000Y-110900000D03*
D12*
X106100000Y-107825000D03*
X115450000Y-110015000D03*
X107835000Y-96442300D03*
X108142000Y-98661800D03*
D13*
X98900000Y-115080000D03*
D12*
X103961000Y-100464000D03*
X98200000Y-103500000D03*
X106750000Y-92200000D03*
X105150000Y-90600000D03*
X109277000Y-99583500D03*
X99800000Y-103500000D03*
X109277000Y-88616500D03*
X96600000Y-90400000D03*
X98200000Y-90400000D03*
X100061000Y-87125500D03*
X101400000Y-101900000D03*
X99800000Y-98700000D03*
X92918200Y-108812000D03*
X91800000Y-109525000D03*
X96077000Y-111623000D03*
X106200000Y-116320000D03*
D13*
X98000000Y-110900000D03*
D12*
X99772500Y-84191600D03*
X113267000Y-96747300D03*
X109122000Y-105422000D03*
X84345000Y-107900000D03*
X108350000Y-90600000D03*
X96184000Y-105668000D03*
X105750000Y-116050000D03*
X98200000Y-98700000D03*
X91800000Y-111165000D03*
X89920000Y-96080000D03*
X101400000Y-103500000D03*
D13*
X112000000Y-105500000D03*
D12*
X106750000Y-90600000D03*
X111313000Y-99632400D03*
X99800000Y-101900000D03*
X105750000Y-116550000D03*
X93206000Y-109522000D03*
X105340000Y-86655000D03*
X106892000Y-102200000D03*
X108400000Y-110480000D03*
X94215000Y-101650000D03*
X103905000Y-97720000D03*
D13*
X107828000Y-107395000D03*
D12*
X93295500Y-96894000D03*
X101400000Y-98700000D03*
X107078000Y-102758000D03*
X96600000Y-100300000D03*
X93717700Y-101925000D03*
X101400000Y-92000000D03*
X106822000Y-101397000D03*
X109490000Y-104755000D03*
X98200000Y-92000000D03*
X111335000Y-95180000D03*
X110815000Y-108910000D03*
X92500000Y-109450000D03*
X99800000Y-90400000D03*
D13*
X97000000Y-110900000D03*
D12*
X117367000Y-108412000D03*
X96542300Y-95264100D03*
X101400000Y-90400000D03*
X104500000Y-100427000D03*
X89655000Y-92770000D03*
X96600000Y-103500000D03*
X105583000Y-100271000D03*
X96600000Y-92000000D03*
X99800000Y-92000000D03*
X105055000Y-98220000D03*
X93384000Y-91468100D03*
D13*
X107828000Y-108195000D03*
D12*
X106200000Y-108680000D03*
X101400000Y-100300000D03*
X108515000Y-105350000D03*
X106375000Y-98242300D03*
X97938900Y-87125500D03*
X104500000Y-107825000D03*
X103755000Y-104720000D03*
X96555000Y-86990000D03*
X87975000Y-99900000D03*
X95272500Y-84191600D03*
X117227000Y-90066500D03*
X91805000Y-87870000D03*
X93970200Y-113420000D03*
X95750000Y-106265000D03*
X95147500Y-110722000D03*
X116603000Y-103553000D03*
X99225000Y-116450000D03*
X96600000Y-101900000D03*
X105150000Y-92200000D03*
X113087000Y-97382500D03*
X109715000Y-104250000D03*
X114400000Y-101615000D03*
X109005000Y-106538000D03*
X96740000Y-96105000D03*
X111777000Y-95492900D03*
X100005000Y-87970000D03*
X98200000Y-101900000D03*
X109927000Y-92515000D03*
D13*
X98900000Y-114080000D03*
D12*
X96600000Y-98700000D03*
X89920000Y-103920000D03*
X109455000Y-100320000D03*
D13*
X112000000Y-104500000D03*
D12*
X109586000Y-94119100D03*
X84345000Y-91200000D03*
X91577500Y-102308000D03*
X87975000Y-98800000D03*
X90213800Y-95128300D03*
X112900000Y-106100000D03*
%TO.N,+3V3_GYRO*%
X105725000Y-97755000D03*
X107405000Y-104285000D03*
X107665000Y-102215000D03*
%TO.N,+3V3*%
X94470000Y-96105000D03*
X91889100Y-108568000D03*
X103465000Y-90250000D03*
X117335000Y-107102000D03*
X107581000Y-95369700D03*
X92439100Y-91192500D03*
X91577500Y-104402000D03*
X106532000Y-100402000D03*
X96717300Y-96758400D03*
X92487800Y-104162000D03*
X95764800Y-105276000D03*
X103735000Y-99967700D03*
X103070000Y-86655000D03*
X103341000Y-100392000D03*
X91470000Y-101755000D03*
X104327000Y-87560900D03*
D13*
X107182000Y-108954000D03*
D12*
X107242000Y-104925000D03*
X103342000Y-98817300D03*
D13*
X105326000Y-106845000D03*
D12*
X105919000Y-87430300D03*
X104400000Y-99835000D03*
X109261000Y-102548000D03*
X94823600Y-104335000D03*
X102785000Y-90055200D03*
%TO.N,+3V3_OSD*%
X95984600Y-93984600D03*
X99353600Y-87727300D03*
X94135700Y-91010700D03*
%TO.N,UART4_TX*%
X90000000Y-83200000D03*
X93465100Y-99513400D03*
%TO.N,UART2_TX*%
X83200000Y-94200000D03*
X94743900Y-100380500D03*
D13*
%TO.N,VBAT*%
X113500000Y-109100000D03*
D12*
X110263000Y-98876900D03*
D13*
X95600000Y-116550000D03*
D12*
X111631400Y-97508500D03*
D13*
X114300000Y-109100000D03*
X95600000Y-117250000D03*
X112700000Y-109100000D03*
D12*
X97750000Y-114850000D03*
X109150000Y-109700000D03*
X109350000Y-108800000D03*
%TO.N,USB_VBUS*%
X85830000Y-101300000D03*
X89686900Y-102326600D03*
X89360000Y-97600000D03*
X92636500Y-99223400D03*
%TO.N,USB_CC1*%
X88472800Y-98932300D03*
D14*
%TO.N,USB_DP*%
X95650000Y-97150000D03*
X97250000Y-96950000D03*
%TO.N,USB_DM*%
X90279900Y-100347000D03*
X92200000Y-97600000D03*
X97900000Y-96800000D03*
X90279900Y-99346600D03*
D12*
%TO.N,USB_CC2*%
X86290000Y-99900000D03*
%TO.N,ADC_CURR*%
X108605000Y-100085000D03*
X102550000Y-101350000D03*
%TO.N,UART1_TX*%
X106500000Y-83200000D03*
X104105000Y-93026100D03*
X98591100Y-96745700D03*
%TO.N,ADC_VBAT*%
X102550000Y-100850000D03*
X104781200Y-96330500D03*
%TO.N,+5V*%
X100700000Y-83200000D03*
X109900000Y-110250000D03*
X116284300Y-100955500D03*
X91102300Y-105025600D03*
X83200000Y-89700000D03*
X91102900Y-84762500D03*
X83200000Y-106400000D03*
X87341400Y-101148600D03*
X107850000Y-106450000D03*
X92039600Y-105962900D03*
D14*
%TO.N,SPI1_SCK*%
X103450000Y-102300000D03*
X103200000Y-103750000D03*
%TO.N,CAM_VIDEO*%
X97250000Y-87000000D03*
D12*
%TO.N,UART1_RX*%
X108000000Y-83200000D03*
X98250000Y-97550000D03*
X114140000Y-96000000D03*
%TO.N,CUR*%
X98976800Y-110851600D03*
X115641300Y-100278300D03*
%TO.N,TLM*%
X102550000Y-98350000D03*
X98988500Y-111671700D03*
D13*
%TO.N,+9V*%
X113900000Y-91700000D03*
D12*
X112550000Y-97700000D03*
X114300000Y-102250000D03*
D13*
X114700000Y-91700000D03*
D12*
X93391400Y-83486000D03*
X94746200Y-87038300D03*
%TO.N,LED_STRIP*%
X83200000Y-109400000D03*
X95450000Y-101850000D03*
%TO.N,UART4_RX*%
X91500000Y-83200000D03*
X93800500Y-99850000D03*
D14*
%TO.N,HSE_OUT*%
X96750000Y-107950000D03*
X93250000Y-107550000D03*
D12*
%TO.N,NRST*%
X94295000Y-110395000D03*
X99250000Y-104650000D03*
X103755000Y-106335000D03*
%TO.N,SPI2_MISO*%
X101262300Y-95109400D03*
X106120000Y-94410000D03*
%TO.N,SPI2_MOSI*%
X105535000Y-87690300D03*
X99980000Y-94070000D03*
%TO.N,FLASH_CS*%
X99750000Y-97550000D03*
X104850000Y-94410000D03*
%TO.N,OSD_CS*%
X99330000Y-94070000D03*
%TO.N,SWDIO*%
X94622400Y-97976100D03*
%TO.N,SWCLK*%
X95450000Y-98350000D03*
%TO.N,BEEPER*%
X95450000Y-98850000D03*
X116114000Y-106155400D03*
%TO.N,UART2_RX*%
X111995000Y-91445000D03*
X95450000Y-100850000D03*
X83200000Y-92700000D03*
%TO.N,VTX_OFF*%
X95450000Y-101350000D03*
X110097900Y-99810800D03*
X109791200Y-102579400D03*
%TO.N,BOOT0*%
X111114200Y-100572500D03*
X94215000Y-103335000D03*
%TO.N,BUCK9_EN*%
X115800000Y-108652700D03*
X109788400Y-114616000D03*
X110445000Y-97895000D03*
%TO.N,OSD_RST*%
X100630000Y-88330000D03*
%TO.N,OSD_VIN*%
X98721900Y-87564200D03*
D14*
%TO.N,OSD_VOUT*%
X95250000Y-89550000D03*
%TO.N,VTX_VIDEO*%
X95750000Y-87100000D03*
D12*
%TO.N,BUCK9_VCC*%
X114900000Y-107500000D03*
X114000000Y-103700000D03*
%TO.N,BUCK9_FB*%
X116691900Y-105564900D03*
X117039000Y-98422800D03*
%TO.N,BUCK5_FB*%
X94750000Y-107500000D03*
X94700000Y-111050000D03*
%TD*%
%TO.N,+3V3_GYRO*%
D15*
X107665000Y-100972700D02*
X105725000Y-99032700D01*
X105725000Y-99032700D02*
X105725000Y-97755000D01*
X107665000Y-104025000D02*
X107405000Y-104285000D01*
X107665000Y-102215000D02*
X107665000Y-100972700D01*
X107665000Y-102215000D02*
X107665000Y-104025000D01*
%TO.N,+3V3_OSD*%
D16*
X95207900Y-92082900D02*
X94135700Y-91010700D01*
X95984600Y-92082900D02*
X99353600Y-88713900D01*
X99353600Y-88713900D02*
X99353600Y-87727300D01*
X95984600Y-93984600D02*
X95984600Y-92082900D01*
X95984600Y-92082900D02*
X95207900Y-92082900D01*
%TO.N,UART4_TX*%
D17*
X92933700Y-98982000D02*
X92933700Y-86060600D01*
X90073100Y-83200000D02*
X90000000Y-83200000D01*
X93465100Y-99513400D02*
X92933700Y-98982000D01*
X92933700Y-86060600D02*
X90073100Y-83200000D01*
%TO.N,VBAT*%
D18*
X110574600Y-99188500D02*
X110263000Y-98876900D01*
X112700000Y-109100000D02*
X110574600Y-106974600D01*
X110574600Y-106974600D02*
X110574600Y-99188500D01*
%TO.N,UART1_TX*%
D17*
X103690000Y-92611100D02*
X102725700Y-92611100D01*
X103690000Y-92611100D02*
X106500000Y-89801100D01*
X102725700Y-92611100D02*
X98591100Y-96745700D01*
X106500000Y-89801100D02*
X106500000Y-83200000D01*
X104105000Y-93026100D02*
X103690000Y-92611100D01*
%TO.N,ADC_VBAT*%
X102550000Y-99141000D02*
X103227500Y-98463500D01*
X103227500Y-97884200D02*
X104781200Y-96330500D01*
X103227500Y-98463500D02*
X103227500Y-97884200D01*
X102550000Y-100850000D02*
X102550000Y-99141000D01*
%TO.N,+5V*%
D18*
X92039600Y-105962900D02*
X91102300Y-105025600D01*
X91102900Y-90264600D02*
X91102900Y-84762500D01*
X83200000Y-89700000D02*
X83200000Y-90846000D01*
X87341400Y-94026100D02*
X91102900Y-90264600D01*
X87341400Y-101148600D02*
X87341400Y-94026100D01*
D16*
X109900000Y-108500000D02*
X109900000Y-110250000D01*
D18*
X83200000Y-90846000D02*
X86380100Y-94026100D01*
X86380100Y-94026100D02*
X87341400Y-94026100D01*
D16*
X107850000Y-106450000D02*
X109900000Y-108500000D01*
%TO.N,UART1_RX*%
D17*
X108000000Y-88100100D02*
X108000000Y-83200000D01*
X114140000Y-94240100D02*
X108000000Y-88100100D01*
X114140000Y-96000000D02*
X114140000Y-94240100D01*
%TO.N,TLM*%
X100876900Y-100023100D02*
X102550000Y-98350000D01*
X98988500Y-111671700D02*
X100876900Y-109783300D01*
X100876900Y-109783300D02*
X100876900Y-100023100D01*
%TO.N,+9V*%
D19*
X94746200Y-84840800D02*
X93391400Y-83486000D01*
D16*
X112550000Y-100500000D02*
X112550000Y-97700000D01*
X114300000Y-102250000D02*
X112550000Y-100500000D01*
D19*
X94746200Y-87038300D02*
X94746200Y-84840800D01*
%TO.N,UART4_RX*%
D17*
X93800500Y-85500500D02*
X93800500Y-99850000D01*
X91500000Y-83200000D02*
X93800500Y-85500500D01*
%TO.N,NRST*%
X94295000Y-110395000D02*
X94295000Y-109605000D01*
X94295000Y-109605000D02*
X99250000Y-104650000D01*
%TO.N,SPI2_MOSI*%
X105535000Y-88765900D02*
X105535000Y-87690300D01*
X99980000Y-94070000D02*
X100230900Y-94070000D01*
X100230900Y-94070000D02*
X105535000Y-88765900D01*
%TO.N,FLASH_CS*%
X104850000Y-94410000D02*
X102890000Y-94410000D01*
X102890000Y-94410000D02*
X99750000Y-97550000D01*
%TO.N,VTX_OFF*%
X110097900Y-99810800D02*
X110097900Y-102272700D01*
X110097900Y-102272700D02*
X109791200Y-102579400D01*
%TO.N,BUCK9_EN*%
X110445000Y-97895000D02*
X110926300Y-98376300D01*
X115787300Y-108640000D02*
X115800000Y-108652700D01*
X110926300Y-99919500D02*
X115787300Y-104780500D01*
X115787300Y-104780500D02*
X115787300Y-108640000D01*
X110926300Y-98376300D02*
X110926300Y-99919500D01*
%TO.N,BUCK9_VCC*%
D16*
X114000000Y-106600000D02*
X114900000Y-107500000D01*
X114000000Y-103700000D02*
X114000000Y-106600000D01*
%TO.N,BUCK9_FB*%
D17*
X117039000Y-98422800D02*
X117039000Y-105217800D01*
X117039000Y-105217800D02*
X116691900Y-105564900D01*
%TD*%
M02*
