%TF.GenerationSoftware,KiCad,Pcbnew,10.0.6-10.0.6~ubuntu24.04.1*%
%TF.CreationDate,2026-10-03T13:57:21+00:00*%
%TF.ProjectId,ridge3-fc,72696467-6533-42d6-9663-2e6b69636164,2.0*%
%TF.SameCoordinates,Original*%
%TF.FileFunction,Copper,L4,Inr*%
%TF.FilePolarity,Positive*%
%FSLAX46Y46*%
G04 Gerber Fmt 4.6, Leading zero omitted, Abs format (unit mm)*
G04 Created by KiCad (PCBNEW 10.0.6-10.0.6~ubuntu24.04.1) date 2026-10-03 13:57:21*
%MOMM*%
%LPD*%
G01*
G04 APERTURE LIST*
%TA.AperFunction,ComponentPad*%
%ADD10O,2.100000X1.000000*%
%TD*%
%TA.AperFunction,ComponentPad*%
%ADD11O,1.800000X1.000000*%
%TD*%
%TA.AperFunction,ViaPad*%
%ADD12C,0.350000*%
%TD*%
%TA.AperFunction,ViaPad*%
%ADD13C,0.450000*%
%TD*%
%TA.AperFunction,ViaPad*%
%ADD14C,0.500000*%
%TD*%
%TA.AperFunction,Conductor*%
%ADD15C,0.100000*%
%TD*%
%TA.AperFunction,Conductor*%
%ADD16C,0.300000*%
%TD*%
G04 APERTURE END LIST*
D10*
%TO.N,GND*%
%TO.C,J_USB*%
X88780000Y-95680000D03*
D11*
X84600000Y-95680000D03*
X84600000Y-104320000D03*
D10*
X88780000Y-104320000D03*
%TD*%
D12*
%TO.N,+3V3*%
X103070000Y-86655000D03*
X88055000Y-93140000D03*
X103465000Y-90250000D03*
X103980000Y-99375000D03*
X104327000Y-87560900D03*
X93345200Y-105480000D03*
X96717300Y-96758400D03*
X103342000Y-98817300D03*
X103092000Y-97785500D03*
X117412000Y-103207000D03*
X89042900Y-93127300D03*
X105312000Y-97491800D03*
X117412000Y-108793000D03*
X107350000Y-102950000D03*
X90920000Y-103555000D03*
X91989100Y-108568000D03*
X102785000Y-90055200D03*
X94823600Y-104335000D03*
X103325000Y-100186000D03*
X95000000Y-92395000D03*
X94470000Y-96105000D03*
X95764800Y-105276000D03*
X95294300Y-91911500D03*
X108485000Y-104410000D03*
X97000000Y-107650000D03*
X105919000Y-87430300D03*
X96935800Y-108186000D03*
X103619000Y-99767800D03*
X102565000Y-107450000D03*
X108034000Y-95140700D03*
X106945000Y-103205000D03*
X109850000Y-103550000D03*
X116600000Y-109265000D03*
X92639100Y-91192500D03*
X103715000Y-107450000D03*
X100750000Y-114400000D03*
%TO.N,NRST*%
X101872000Y-106654000D03*
X99419500Y-106516000D03*
D13*
%TO.N,SPI1_SCK*%
X103450000Y-102300000D03*
X103100000Y-103800000D03*
D12*
%TO.N,ADC_VBAT*%
X109314000Y-99307000D03*
X102550000Y-100850000D03*
%TO.N,SPI2_SCK*%
X101024000Y-95337400D03*
X101316000Y-96835900D03*
%TO.N,FLASH_CS*%
X100050000Y-96091600D03*
X104850000Y-94410000D03*
%TO.N,OSD_CS*%
X99668400Y-93052800D03*
%TO.N,UART1_TX*%
X98760700Y-97446100D03*
X105664000Y-97005200D03*
X106897000Y-83200000D03*
X115987000Y-96080300D03*
%TO.N,UART1_RX*%
X98230500Y-97309600D03*
X101943000Y-96587800D03*
D13*
%TO.N,USB_DM*%
X90279900Y-100347000D03*
X92200000Y-97600000D03*
X90279900Y-99346600D03*
X97900000Y-96800000D03*
%TO.N,USB_DP*%
X95650000Y-97150000D03*
X97250000Y-96950000D03*
D12*
%TO.N,SWDIO*%
X96290400Y-97964600D03*
%TO.N,SWCLK*%
X94424600Y-98773700D03*
%TO.N,UART4_TX*%
X90000000Y-83200000D03*
X93781000Y-100637000D03*
%TO.N,UART4_RX*%
X94000900Y-99850000D03*
X91500000Y-83200000D03*
%TO.N,UART2_TX*%
X93453500Y-100227000D03*
X83967400Y-97094500D03*
%TO.N,UART2_RX*%
X94321300Y-100569000D03*
X83200000Y-92700000D03*
%TO.N,VTX_OFF*%
X108252000Y-102816000D03*
X95450000Y-101350000D03*
%TO.N,LED0*%
X95236900Y-102410000D03*
X93397400Y-104019000D03*
%TO.N,BOOT0*%
X115410000Y-103950000D03*
X93265000Y-101965000D03*
X95450000Y-102850000D03*
%TO.N,GND*%
X96600000Y-103500000D03*
X105500000Y-116300000D03*
X93190000Y-103555000D03*
X115808000Y-94572500D03*
X98200000Y-90400000D03*
X106000000Y-116200000D03*
X107390000Y-97955000D03*
X109173000Y-95239100D03*
D14*
X114900000Y-106180000D03*
D12*
X98200000Y-101900000D03*
X106870000Y-103755000D03*
D14*
X114000000Y-105000000D03*
D12*
X101400000Y-100300000D03*
X94617500Y-102541000D03*
X105340000Y-86655000D03*
D14*
X98000000Y-111900000D03*
X89966700Y-92271900D03*
D12*
X113726000Y-103511000D03*
X111548000Y-99368200D03*
X84345000Y-107900000D03*
X105150000Y-90600000D03*
X101400000Y-92000000D03*
X93295500Y-96894000D03*
X112785000Y-102535000D03*
X109591000Y-104882000D03*
D14*
X98900000Y-115080000D03*
X112000000Y-103000000D03*
D12*
X106892000Y-102200000D03*
X96600000Y-100300000D03*
D14*
X98000000Y-110900000D03*
D12*
X97270000Y-90655000D03*
X105583000Y-100271000D03*
D14*
X113000000Y-104000000D03*
D12*
X97938900Y-87125500D03*
X107170000Y-99375000D03*
X99772500Y-84191600D03*
X92600000Y-96920000D03*
D14*
X97000000Y-110900000D03*
D12*
X101400000Y-98700000D03*
X111800000Y-96615000D03*
X93925000Y-102530000D03*
X96600000Y-98700000D03*
X99800000Y-98700000D03*
D14*
X112000000Y-104000000D03*
D12*
X98200000Y-100300000D03*
X91327300Y-90537100D03*
X101400000Y-90400000D03*
X99800000Y-90400000D03*
D14*
X114450000Y-107200000D03*
D12*
X93018200Y-108812000D03*
X107139000Y-100932000D03*
X98176500Y-88167500D03*
D14*
X97000000Y-111900000D03*
D12*
X108370000Y-107150000D03*
X107300000Y-108825000D03*
X108000000Y-88350000D03*
X99800000Y-101900000D03*
X109270000Y-88450000D03*
X114481000Y-104846000D03*
X100005000Y-87970000D03*
X104807000Y-106987000D03*
X99800000Y-103500000D03*
X98200000Y-98700000D03*
X91775000Y-87380000D03*
X95290800Y-105497000D03*
X96600000Y-101900000D03*
X95011800Y-110518000D03*
X107300000Y-113575000D03*
X108900000Y-108825000D03*
X113650000Y-108050000D03*
X92500000Y-109450000D03*
X107300000Y-96075000D03*
X110153000Y-100508000D03*
X113135000Y-99960000D03*
X107868000Y-103312000D03*
X94408700Y-112519000D03*
X101400000Y-101900000D03*
X108333000Y-104903000D03*
X99800000Y-92000000D03*
X99225000Y-116450000D03*
X106722000Y-101249000D03*
X89982500Y-92857800D03*
X112824000Y-99512500D03*
D14*
X91680000Y-95107600D03*
D12*
X105148000Y-98418200D03*
X96600000Y-90400000D03*
X101400000Y-103500000D03*
X109295000Y-100400000D03*
X89715200Y-95964800D03*
X113650000Y-108550000D03*
X109039000Y-104898000D03*
D14*
X114000000Y-103000000D03*
D12*
X108689000Y-99017500D03*
X87975000Y-99900000D03*
X99800000Y-100300000D03*
X89920000Y-103920000D03*
X94420200Y-89445200D03*
X93576200Y-91661700D03*
X108090000Y-101365000D03*
X91800000Y-109525000D03*
X108900000Y-96075000D03*
X97260100Y-89615000D03*
X95272500Y-84191600D03*
X98200000Y-103500000D03*
X87975000Y-98800000D03*
X105150000Y-92200000D03*
X93787800Y-109698000D03*
X94075900Y-113558000D03*
X108900000Y-113575000D03*
X103755000Y-104770000D03*
X100061000Y-87125500D03*
X96542300Y-95264100D03*
X107705000Y-98770000D03*
X114193000Y-109242000D03*
D14*
X114000000Y-104000000D03*
D12*
X89265000Y-116600000D03*
X107000000Y-115085000D03*
X96740000Y-96105000D03*
X84345000Y-91200000D03*
D14*
X113000000Y-103000000D03*
D12*
X89819100Y-94997900D03*
D14*
%TO.N,VBAT_VTX*%
X112200000Y-109300000D03*
X111400000Y-109300000D03*
D12*
%TO.N,CUR*%
X99221500Y-111438000D03*
X103914000Y-98746000D03*
%TO.N,+5V*%
X101450000Y-114950000D03*
X87400900Y-106400000D03*
X94750000Y-111600000D03*
X100150000Y-83600000D03*
X88200000Y-93700000D03*
X88900000Y-94350000D03*
%TO.N,+3V3_OSD*%
X96126400Y-94070000D03*
X97477000Y-88581800D03*
%TO.N,+3V3_GYRO*%
X106210000Y-102700000D03*
X106210000Y-100984000D03*
%TO.N,USB_VBUS*%
X89696500Y-102327000D03*
X92769200Y-99106800D03*
X89360000Y-97600000D03*
D14*
%TO.N,+9V*%
X114700000Y-91700000D03*
D12*
X109500000Y-91000000D03*
D14*
X113900000Y-91700000D03*
D12*
X93700000Y-83500000D03*
D14*
%TO.N,VBAT*%
X95550000Y-116300000D03*
D12*
X97630000Y-114580000D03*
X113586000Y-96541600D03*
X99419500Y-110444000D03*
D14*
X96300000Y-117300000D03*
X95550000Y-117050000D03*
D12*
X105467000Y-110444000D03*
%TO.N,BUCK9_EN*%
X109954000Y-105246000D03*
X113630000Y-105980000D03*
%TO.N,USB_CC1*%
X88472800Y-98732400D03*
%TO.N,USB_CC2*%
X86290000Y-99900000D03*
%TO.N,OSD_RST*%
X100700000Y-88550000D03*
D13*
%TO.N,OSD_VIN*%
X98700000Y-87800000D03*
D12*
X98400000Y-95200000D03*
D13*
%TO.N,OSD_VOUT*%
X96050000Y-88300000D03*
%TO.N,CAM_VIDEO*%
X98850000Y-86750000D03*
%TO.N,VTX_VIDEO*%
X95750000Y-87100000D03*
%TD*%
%TO.N,+3V3*%
D15*
X97000000Y-109200000D02*
X98750000Y-110950000D01*
X97000000Y-107650000D02*
X97000000Y-109200000D01*
X107350000Y-103400000D02*
X107650000Y-103700000D01*
X107350000Y-102950000D02*
X107350000Y-103400000D01*
X98750000Y-110950000D02*
X98750000Y-112400000D01*
X107650000Y-103700000D02*
X109700000Y-103700000D01*
X98750000Y-112400000D02*
X100750000Y-114400000D01*
X109700000Y-103700000D02*
X109850000Y-103550000D01*
%TO.N,NRST*%
X99419500Y-106516000D02*
X99557000Y-106654000D01*
X99557000Y-106654000D02*
X101872000Y-106654000D01*
%TO.N,ADC_VBAT*%
X108919000Y-99701700D02*
X104271000Y-99701700D01*
X104271000Y-99701700D02*
X103123000Y-100850000D01*
X109314000Y-99307000D02*
X108919000Y-99701700D01*
X103123000Y-100850000D02*
X102550000Y-100850000D01*
%TO.N,FLASH_CS*%
X100050000Y-96091600D02*
X103168000Y-96091600D01*
X103168000Y-96091600D02*
X104850000Y-94410000D01*
%TO.N,UART1_TX*%
X105506000Y-97162600D02*
X105664000Y-97005200D01*
X98760700Y-97446100D02*
X99044200Y-97162600D01*
X99044200Y-97162600D02*
X105506000Y-97162600D01*
X115987000Y-96080300D02*
X115062000Y-97005200D01*
X115062000Y-97005200D02*
X105664000Y-97005200D01*
%TO.N,UART1_RX*%
X101943000Y-96587800D02*
X101865000Y-96509200D01*
X99030900Y-96509200D02*
X98230500Y-97309600D01*
X101865000Y-96509200D02*
X99030900Y-96509200D01*
%TO.N,UART2_TX*%
X83967400Y-97094500D02*
X85232700Y-98359800D01*
X91183200Y-98359800D02*
X93050300Y-100227000D01*
X93050300Y-100227000D02*
X93453500Y-100227000D01*
X85232700Y-98359800D02*
X91183200Y-98359800D01*
%TO.N,UART2_RX*%
X92696700Y-99588100D02*
X91266700Y-98158100D01*
X87579800Y-97079800D02*
X83200000Y-92700000D01*
X87579800Y-97418700D02*
X87579800Y-97079800D01*
X94321300Y-100569000D02*
X94257700Y-100569000D01*
X91266700Y-98158100D02*
X88319200Y-98158100D01*
X88319200Y-98158100D02*
X87579800Y-97418700D01*
X93276800Y-99588100D02*
X92696700Y-99588100D01*
X94257700Y-100569000D02*
X93276800Y-99588100D01*
%TO.N,VTX_OFF*%
X102485000Y-101835000D02*
X102000000Y-101350000D01*
X107271000Y-101835000D02*
X102485000Y-101835000D01*
X102000000Y-101350000D02*
X95450000Y-101350000D01*
X108252000Y-102816000D02*
X107271000Y-101835000D01*
%TO.N,BOOT0*%
X111415000Y-104015000D02*
X111842000Y-104442000D01*
X103967000Y-104085000D02*
X108110000Y-104085000D01*
X114918000Y-104442000D02*
X115410000Y-103950000D01*
X95285800Y-101965000D02*
X93265000Y-101965000D01*
X95620500Y-102300000D02*
X95285800Y-101965000D01*
X95450000Y-102850000D02*
X102732000Y-102850000D01*
X95450000Y-102850000D02*
X95620500Y-102680000D01*
X111842000Y-104442000D02*
X114918000Y-104442000D01*
X108110000Y-104085000D02*
X108180000Y-104015000D01*
X102732000Y-102850000D02*
X103967000Y-104085000D01*
X108180000Y-104015000D02*
X111415000Y-104015000D01*
X95620500Y-102680000D02*
X95620500Y-102300000D01*
%TO.N,+5V*%
D16*
X91900000Y-90000000D02*
X91900000Y-91700000D01*
X100150000Y-83600000D02*
X98300000Y-83600000D01*
X99900000Y-114400000D02*
X100450000Y-114950000D01*
X98550000Y-114400000D02*
X99900000Y-114400000D01*
X89250000Y-94350000D02*
X88900000Y-94350000D01*
X100450000Y-114950000D02*
X101450000Y-114950000D01*
X95750000Y-111600000D02*
X98550000Y-114400000D01*
X91900000Y-91700000D02*
X89250000Y-94350000D01*
X94750000Y-111600000D02*
X95750000Y-111600000D01*
X98300000Y-83600000D02*
X91900000Y-90000000D01*
%TO.N,USB_VBUS*%
X91262400Y-97600000D02*
X92769200Y-99106800D01*
X89360000Y-97600000D02*
X91262400Y-97600000D01*
%TO.N,VBAT*%
X99419500Y-110444000D02*
X105467000Y-110444000D01*
%TO.N,BUCK9_EN*%
D15*
X110688000Y-105980000D02*
X109954000Y-105246000D01*
X113630000Y-105980000D02*
X110688000Y-105980000D01*
%TD*%
M02*
