%TF.GenerationSoftware,KiCad,Pcbnew,10.0.6-10.0.6~ubuntu24.04.1*%
%TF.CreationDate,2026-09-28T08:32:18+00:00*%
%TF.ProjectId,ridge3-fc,72696467-6533-42d6-9663-2e6b69636164,rev?*%
%TF.SameCoordinates,Original*%
%TF.FileFunction,Drillmap*%
%TF.FilePolarity,Positive*%
%FSLAX45Y45*%
G04 Gerber Fmt 4.5, Leading zero omitted, Abs format (unit mm)*
G04 Created by KiCad (PCBNEW 10.0.6-10.0.6~ubuntu24.04.1) date 2026-09-28 08:32:18*
%MOMM*%
%LPD*%
G01*
G04 APERTURE LIST*
%ADD10C,0.100000*%
%ADD11C,0.200000*%
G04 APERTURE END LIST*
D10*
X8200000Y-8376777D02*
X8565989Y-8742766D01*
X8200000Y-11623223D02*
X8200000Y-8376777D01*
X8376777Y-8200000D02*
X11623223Y-8200000D01*
X8376777Y-11800000D02*
X8742766Y-11434010D01*
X8565989Y-11257234D02*
X8200000Y-11623223D01*
X8565989Y-11257234D02*
G75*
G02*
X8742766Y-11434011I159011J-17766D01*
G01*
X8742766Y-8565989D02*
X8376777Y-8200000D01*
X8742766Y-8565989D02*
G75*
G02*
X8565989Y-8742766I-17766J-159011D01*
G01*
X11257234Y-11434010D02*
G75*
G02*
X11434010Y-11257234I17766J159011D01*
G01*
X11257234Y-11434010D02*
X11623223Y-11800000D01*
X11434010Y-8742766D02*
G75*
G02*
X11257234Y-8565990I-159011J17766D01*
G01*
X11434010Y-8742766D02*
X11800000Y-8376777D01*
X11623223Y-8200000D02*
X11257234Y-8565989D01*
X11623223Y-11800000D02*
X8376777Y-11800000D01*
X11800000Y-8376777D02*
X11800000Y-11623223D01*
X11800000Y-11623223D02*
X11434010Y-11257234D01*
D11*
D10*
X8795500Y-9678500D02*
X8860500Y-9743500D01*
X8860500Y-9678500D02*
X8795500Y-9743500D01*
X8795500Y-10256500D02*
X8860500Y-10321500D01*
X8860500Y-10256500D02*
X8795500Y-10321500D01*
D11*
X8455777Y-12116484D02*
X8455777Y-11916484D01*
X8455777Y-11916484D02*
X8503396Y-11916484D01*
X8503396Y-11916484D02*
X8531967Y-11926008D01*
X8531967Y-11926008D02*
X8551015Y-11945055D01*
X8551015Y-11945055D02*
X8560539Y-11964103D01*
X8560539Y-11964103D02*
X8570063Y-12002198D01*
X8570063Y-12002198D02*
X8570063Y-12030769D01*
X8570063Y-12030769D02*
X8560539Y-12068865D01*
X8560539Y-12068865D02*
X8551015Y-12087912D01*
X8551015Y-12087912D02*
X8531967Y-12106960D01*
X8531967Y-12106960D02*
X8503396Y-12116484D01*
X8503396Y-12116484D02*
X8455777Y-12116484D01*
X8655777Y-12116484D02*
X8655777Y-11983150D01*
X8655777Y-12021246D02*
X8665301Y-12002198D01*
X8665301Y-12002198D02*
X8674824Y-11992674D01*
X8674824Y-11992674D02*
X8693872Y-11983150D01*
X8693872Y-11983150D02*
X8712920Y-11983150D01*
X8779586Y-12116484D02*
X8779586Y-11983150D01*
X8779586Y-11916484D02*
X8770063Y-11926008D01*
X8770063Y-11926008D02*
X8779586Y-11935531D01*
X8779586Y-11935531D02*
X8789110Y-11926008D01*
X8789110Y-11926008D02*
X8779586Y-11916484D01*
X8779586Y-11916484D02*
X8779586Y-11935531D01*
X8903396Y-12116484D02*
X8884348Y-12106960D01*
X8884348Y-12106960D02*
X8874824Y-12087912D01*
X8874824Y-12087912D02*
X8874824Y-11916484D01*
X9008158Y-12116484D02*
X8989110Y-12106960D01*
X8989110Y-12106960D02*
X8979586Y-12087912D01*
X8979586Y-12087912D02*
X8979586Y-11916484D01*
X9236729Y-12116484D02*
X9236729Y-11916484D01*
X9236729Y-11916484D02*
X9303396Y-12059341D01*
X9303396Y-12059341D02*
X9370063Y-11916484D01*
X9370063Y-11916484D02*
X9370063Y-12116484D01*
X9551015Y-12116484D02*
X9551015Y-12011722D01*
X9551015Y-12011722D02*
X9541491Y-11992674D01*
X9541491Y-11992674D02*
X9522444Y-11983150D01*
X9522444Y-11983150D02*
X9484348Y-11983150D01*
X9484348Y-11983150D02*
X9465301Y-11992674D01*
X9551015Y-12106960D02*
X9531967Y-12116484D01*
X9531967Y-12116484D02*
X9484348Y-12116484D01*
X9484348Y-12116484D02*
X9465301Y-12106960D01*
X9465301Y-12106960D02*
X9455777Y-12087912D01*
X9455777Y-12087912D02*
X9455777Y-12068865D01*
X9455777Y-12068865D02*
X9465301Y-12049817D01*
X9465301Y-12049817D02*
X9484348Y-12040293D01*
X9484348Y-12040293D02*
X9531967Y-12040293D01*
X9531967Y-12040293D02*
X9551015Y-12030769D01*
X9646253Y-11983150D02*
X9646253Y-12183150D01*
X9646253Y-11992674D02*
X9665301Y-11983150D01*
X9665301Y-11983150D02*
X9703396Y-11983150D01*
X9703396Y-11983150D02*
X9722444Y-11992674D01*
X9722444Y-11992674D02*
X9731967Y-12002198D01*
X9731967Y-12002198D02*
X9741491Y-12021246D01*
X9741491Y-12021246D02*
X9741491Y-12078388D01*
X9741491Y-12078388D02*
X9731967Y-12097436D01*
X9731967Y-12097436D02*
X9722444Y-12106960D01*
X9722444Y-12106960D02*
X9703396Y-12116484D01*
X9703396Y-12116484D02*
X9665301Y-12116484D01*
X9665301Y-12116484D02*
X9646253Y-12106960D01*
X9827205Y-12097436D02*
X9836729Y-12106960D01*
X9836729Y-12106960D02*
X9827205Y-12116484D01*
X9827205Y-12116484D02*
X9817682Y-12106960D01*
X9817682Y-12106960D02*
X9827205Y-12097436D01*
X9827205Y-12097436D02*
X9827205Y-12116484D01*
X9827205Y-11992674D02*
X9836729Y-12002198D01*
X9836729Y-12002198D02*
X9827205Y-12011722D01*
X9827205Y-12011722D02*
X9817682Y-12002198D01*
X9817682Y-12002198D02*
X9827205Y-11992674D01*
X9827205Y-11992674D02*
X9827205Y-12011722D01*
D10*
X8130000Y-12412500D02*
X8195000Y-12477500D01*
X8195000Y-12412500D02*
X8130000Y-12477500D01*
D11*
X8493872Y-12336484D02*
X8512920Y-12336484D01*
X8512920Y-12336484D02*
X8531967Y-12346008D01*
X8531967Y-12346008D02*
X8541491Y-12355531D01*
X8541491Y-12355531D02*
X8551015Y-12374579D01*
X8551015Y-12374579D02*
X8560539Y-12412674D01*
X8560539Y-12412674D02*
X8560539Y-12460293D01*
X8560539Y-12460293D02*
X8551015Y-12498388D01*
X8551015Y-12498388D02*
X8541491Y-12517436D01*
X8541491Y-12517436D02*
X8531967Y-12526960D01*
X8531967Y-12526960D02*
X8512920Y-12536484D01*
X8512920Y-12536484D02*
X8493872Y-12536484D01*
X8493872Y-12536484D02*
X8474824Y-12526960D01*
X8474824Y-12526960D02*
X8465301Y-12517436D01*
X8465301Y-12517436D02*
X8455777Y-12498388D01*
X8455777Y-12498388D02*
X8446253Y-12460293D01*
X8446253Y-12460293D02*
X8446253Y-12412674D01*
X8446253Y-12412674D02*
X8455777Y-12374579D01*
X8455777Y-12374579D02*
X8465301Y-12355531D01*
X8465301Y-12355531D02*
X8474824Y-12346008D01*
X8474824Y-12346008D02*
X8493872Y-12336484D01*
X8646253Y-12517436D02*
X8655777Y-12526960D01*
X8655777Y-12526960D02*
X8646253Y-12536484D01*
X8646253Y-12536484D02*
X8636729Y-12526960D01*
X8636729Y-12526960D02*
X8646253Y-12517436D01*
X8646253Y-12517436D02*
X8646253Y-12536484D01*
X8827205Y-12336484D02*
X8789110Y-12336484D01*
X8789110Y-12336484D02*
X8770063Y-12346008D01*
X8770063Y-12346008D02*
X8760539Y-12355531D01*
X8760539Y-12355531D02*
X8741491Y-12384103D01*
X8741491Y-12384103D02*
X8731967Y-12422198D01*
X8731967Y-12422198D02*
X8731967Y-12498388D01*
X8731967Y-12498388D02*
X8741491Y-12517436D01*
X8741491Y-12517436D02*
X8751015Y-12526960D01*
X8751015Y-12526960D02*
X8770063Y-12536484D01*
X8770063Y-12536484D02*
X8808158Y-12536484D01*
X8808158Y-12536484D02*
X8827205Y-12526960D01*
X8827205Y-12526960D02*
X8836729Y-12517436D01*
X8836729Y-12517436D02*
X8846253Y-12498388D01*
X8846253Y-12498388D02*
X8846253Y-12450769D01*
X8846253Y-12450769D02*
X8836729Y-12431722D01*
X8836729Y-12431722D02*
X8827205Y-12422198D01*
X8827205Y-12422198D02*
X8808158Y-12412674D01*
X8808158Y-12412674D02*
X8770063Y-12412674D01*
X8770063Y-12412674D02*
X8751015Y-12422198D01*
X8751015Y-12422198D02*
X8741491Y-12431722D01*
X8741491Y-12431722D02*
X8731967Y-12450769D01*
X9027205Y-12336484D02*
X8931967Y-12336484D01*
X8931967Y-12336484D02*
X8922444Y-12431722D01*
X8922444Y-12431722D02*
X8931967Y-12422198D01*
X8931967Y-12422198D02*
X8951015Y-12412674D01*
X8951015Y-12412674D02*
X8998634Y-12412674D01*
X8998634Y-12412674D02*
X9017682Y-12422198D01*
X9017682Y-12422198D02*
X9027205Y-12431722D01*
X9027205Y-12431722D02*
X9036729Y-12450769D01*
X9036729Y-12450769D02*
X9036729Y-12498388D01*
X9036729Y-12498388D02*
X9027205Y-12517436D01*
X9027205Y-12517436D02*
X9017682Y-12526960D01*
X9017682Y-12526960D02*
X8998634Y-12536484D01*
X8998634Y-12536484D02*
X8951015Y-12536484D01*
X8951015Y-12536484D02*
X8931967Y-12526960D01*
X8931967Y-12526960D02*
X8922444Y-12517436D01*
X9160539Y-12336484D02*
X9179586Y-12336484D01*
X9179586Y-12336484D02*
X9198634Y-12346008D01*
X9198634Y-12346008D02*
X9208158Y-12355531D01*
X9208158Y-12355531D02*
X9217682Y-12374579D01*
X9217682Y-12374579D02*
X9227205Y-12412674D01*
X9227205Y-12412674D02*
X9227205Y-12460293D01*
X9227205Y-12460293D02*
X9217682Y-12498388D01*
X9217682Y-12498388D02*
X9208158Y-12517436D01*
X9208158Y-12517436D02*
X9198634Y-12526960D01*
X9198634Y-12526960D02*
X9179586Y-12536484D01*
X9179586Y-12536484D02*
X9160539Y-12536484D01*
X9160539Y-12536484D02*
X9141491Y-12526960D01*
X9141491Y-12526960D02*
X9131967Y-12517436D01*
X9131967Y-12517436D02*
X9122444Y-12498388D01*
X9122444Y-12498388D02*
X9112920Y-12460293D01*
X9112920Y-12460293D02*
X9112920Y-12412674D01*
X9112920Y-12412674D02*
X9122444Y-12374579D01*
X9122444Y-12374579D02*
X9131967Y-12355531D01*
X9131967Y-12355531D02*
X9141491Y-12346008D01*
X9141491Y-12346008D02*
X9160539Y-12336484D01*
X9312920Y-12536484D02*
X9312920Y-12403150D01*
X9312920Y-12422198D02*
X9322444Y-12412674D01*
X9322444Y-12412674D02*
X9341491Y-12403150D01*
X9341491Y-12403150D02*
X9370063Y-12403150D01*
X9370063Y-12403150D02*
X9389110Y-12412674D01*
X9389110Y-12412674D02*
X9398634Y-12431722D01*
X9398634Y-12431722D02*
X9398634Y-12536484D01*
X9398634Y-12431722D02*
X9408158Y-12412674D01*
X9408158Y-12412674D02*
X9427205Y-12403150D01*
X9427205Y-12403150D02*
X9455777Y-12403150D01*
X9455777Y-12403150D02*
X9474825Y-12412674D01*
X9474825Y-12412674D02*
X9484348Y-12431722D01*
X9484348Y-12431722D02*
X9484348Y-12536484D01*
X9579586Y-12536484D02*
X9579586Y-12403150D01*
X9579586Y-12422198D02*
X9589110Y-12412674D01*
X9589110Y-12412674D02*
X9608158Y-12403150D01*
X9608158Y-12403150D02*
X9636729Y-12403150D01*
X9636729Y-12403150D02*
X9655777Y-12412674D01*
X9655777Y-12412674D02*
X9665301Y-12431722D01*
X9665301Y-12431722D02*
X9665301Y-12536484D01*
X9665301Y-12431722D02*
X9674825Y-12412674D01*
X9674825Y-12412674D02*
X9693872Y-12403150D01*
X9693872Y-12403150D02*
X9722444Y-12403150D01*
X9722444Y-12403150D02*
X9741491Y-12412674D01*
X9741491Y-12412674D02*
X9751015Y-12431722D01*
X9751015Y-12431722D02*
X9751015Y-12536484D01*
X10141491Y-12326960D02*
X9970063Y-12584103D01*
X10398634Y-12336484D02*
X10417682Y-12336484D01*
X10417682Y-12336484D02*
X10436729Y-12346008D01*
X10436729Y-12346008D02*
X10446253Y-12355531D01*
X10446253Y-12355531D02*
X10455777Y-12374579D01*
X10455777Y-12374579D02*
X10465301Y-12412674D01*
X10465301Y-12412674D02*
X10465301Y-12460293D01*
X10465301Y-12460293D02*
X10455777Y-12498388D01*
X10455777Y-12498388D02*
X10446253Y-12517436D01*
X10446253Y-12517436D02*
X10436729Y-12526960D01*
X10436729Y-12526960D02*
X10417682Y-12536484D01*
X10417682Y-12536484D02*
X10398634Y-12536484D01*
X10398634Y-12536484D02*
X10379587Y-12526960D01*
X10379587Y-12526960D02*
X10370063Y-12517436D01*
X10370063Y-12517436D02*
X10360539Y-12498388D01*
X10360539Y-12498388D02*
X10351015Y-12460293D01*
X10351015Y-12460293D02*
X10351015Y-12412674D01*
X10351015Y-12412674D02*
X10360539Y-12374579D01*
X10360539Y-12374579D02*
X10370063Y-12355531D01*
X10370063Y-12355531D02*
X10379587Y-12346008D01*
X10379587Y-12346008D02*
X10398634Y-12336484D01*
X10551015Y-12517436D02*
X10560539Y-12526960D01*
X10560539Y-12526960D02*
X10551015Y-12536484D01*
X10551015Y-12536484D02*
X10541491Y-12526960D01*
X10541491Y-12526960D02*
X10551015Y-12517436D01*
X10551015Y-12517436D02*
X10551015Y-12536484D01*
X10684348Y-12336484D02*
X10703396Y-12336484D01*
X10703396Y-12336484D02*
X10722444Y-12346008D01*
X10722444Y-12346008D02*
X10731968Y-12355531D01*
X10731968Y-12355531D02*
X10741491Y-12374579D01*
X10741491Y-12374579D02*
X10751015Y-12412674D01*
X10751015Y-12412674D02*
X10751015Y-12460293D01*
X10751015Y-12460293D02*
X10741491Y-12498388D01*
X10741491Y-12498388D02*
X10731968Y-12517436D01*
X10731968Y-12517436D02*
X10722444Y-12526960D01*
X10722444Y-12526960D02*
X10703396Y-12536484D01*
X10703396Y-12536484D02*
X10684348Y-12536484D01*
X10684348Y-12536484D02*
X10665301Y-12526960D01*
X10665301Y-12526960D02*
X10655777Y-12517436D01*
X10655777Y-12517436D02*
X10646253Y-12498388D01*
X10646253Y-12498388D02*
X10636729Y-12460293D01*
X10636729Y-12460293D02*
X10636729Y-12412674D01*
X10636729Y-12412674D02*
X10646253Y-12374579D01*
X10646253Y-12374579D02*
X10655777Y-12355531D01*
X10655777Y-12355531D02*
X10665301Y-12346008D01*
X10665301Y-12346008D02*
X10684348Y-12336484D01*
X10827206Y-12355531D02*
X10836729Y-12346008D01*
X10836729Y-12346008D02*
X10855777Y-12336484D01*
X10855777Y-12336484D02*
X10903396Y-12336484D01*
X10903396Y-12336484D02*
X10922444Y-12346008D01*
X10922444Y-12346008D02*
X10931968Y-12355531D01*
X10931968Y-12355531D02*
X10941491Y-12374579D01*
X10941491Y-12374579D02*
X10941491Y-12393627D01*
X10941491Y-12393627D02*
X10931968Y-12422198D01*
X10931968Y-12422198D02*
X10817682Y-12536484D01*
X10817682Y-12536484D02*
X10941491Y-12536484D01*
X11122444Y-12336484D02*
X11027206Y-12336484D01*
X11027206Y-12336484D02*
X11017682Y-12431722D01*
X11017682Y-12431722D02*
X11027206Y-12422198D01*
X11027206Y-12422198D02*
X11046253Y-12412674D01*
X11046253Y-12412674D02*
X11093872Y-12412674D01*
X11093872Y-12412674D02*
X11112920Y-12422198D01*
X11112920Y-12422198D02*
X11122444Y-12431722D01*
X11122444Y-12431722D02*
X11131968Y-12450769D01*
X11131968Y-12450769D02*
X11131968Y-12498388D01*
X11131968Y-12498388D02*
X11122444Y-12517436D01*
X11122444Y-12517436D02*
X11112920Y-12526960D01*
X11112920Y-12526960D02*
X11093872Y-12536484D01*
X11093872Y-12536484D02*
X11046253Y-12536484D01*
X11046253Y-12536484D02*
X11027206Y-12526960D01*
X11027206Y-12526960D02*
X11017682Y-12517436D01*
X11303396Y-12336484D02*
X11265301Y-12336484D01*
X11265301Y-12336484D02*
X11246253Y-12346008D01*
X11246253Y-12346008D02*
X11236729Y-12355531D01*
X11236729Y-12355531D02*
X11217682Y-12384103D01*
X11217682Y-12384103D02*
X11208158Y-12422198D01*
X11208158Y-12422198D02*
X11208158Y-12498388D01*
X11208158Y-12498388D02*
X11217682Y-12517436D01*
X11217682Y-12517436D02*
X11227206Y-12526960D01*
X11227206Y-12526960D02*
X11246253Y-12536484D01*
X11246253Y-12536484D02*
X11284348Y-12536484D01*
X11284348Y-12536484D02*
X11303396Y-12526960D01*
X11303396Y-12526960D02*
X11312920Y-12517436D01*
X11312920Y-12517436D02*
X11322444Y-12498388D01*
X11322444Y-12498388D02*
X11322444Y-12450769D01*
X11322444Y-12450769D02*
X11312920Y-12431722D01*
X11312920Y-12431722D02*
X11303396Y-12422198D01*
X11303396Y-12422198D02*
X11284348Y-12412674D01*
X11284348Y-12412674D02*
X11246253Y-12412674D01*
X11246253Y-12412674D02*
X11227206Y-12422198D01*
X11227206Y-12422198D02*
X11217682Y-12431722D01*
X11217682Y-12431722D02*
X11208158Y-12450769D01*
X11398634Y-12336484D02*
X11398634Y-12374579D01*
X11474825Y-12336484D02*
X11474825Y-12374579D01*
X11770063Y-12612674D02*
X11760539Y-12603150D01*
X11760539Y-12603150D02*
X11741491Y-12574579D01*
X11741491Y-12574579D02*
X11731968Y-12555531D01*
X11731968Y-12555531D02*
X11722444Y-12526960D01*
X11722444Y-12526960D02*
X11712920Y-12479341D01*
X11712920Y-12479341D02*
X11712920Y-12441246D01*
X11712920Y-12441246D02*
X11722444Y-12393627D01*
X11722444Y-12393627D02*
X11731968Y-12365055D01*
X11731968Y-12365055D02*
X11741491Y-12346008D01*
X11741491Y-12346008D02*
X11760539Y-12317436D01*
X11760539Y-12317436D02*
X11770063Y-12307912D01*
X11836729Y-12355531D02*
X11846253Y-12346008D01*
X11846253Y-12346008D02*
X11865301Y-12336484D01*
X11865301Y-12336484D02*
X11912920Y-12336484D01*
X11912920Y-12336484D02*
X11931968Y-12346008D01*
X11931968Y-12346008D02*
X11941491Y-12355531D01*
X11941491Y-12355531D02*
X11951015Y-12374579D01*
X11951015Y-12374579D02*
X11951015Y-12393627D01*
X11951015Y-12393627D02*
X11941491Y-12422198D01*
X11941491Y-12422198D02*
X11827206Y-12536484D01*
X11827206Y-12536484D02*
X11951015Y-12536484D01*
X12189110Y-12536484D02*
X12189110Y-12336484D01*
X12274825Y-12536484D02*
X12274825Y-12431722D01*
X12274825Y-12431722D02*
X12265301Y-12412674D01*
X12265301Y-12412674D02*
X12246253Y-12403150D01*
X12246253Y-12403150D02*
X12217682Y-12403150D01*
X12217682Y-12403150D02*
X12198634Y-12412674D01*
X12198634Y-12412674D02*
X12189110Y-12422198D01*
X12398634Y-12536484D02*
X12379587Y-12526960D01*
X12379587Y-12526960D02*
X12370063Y-12517436D01*
X12370063Y-12517436D02*
X12360539Y-12498388D01*
X12360539Y-12498388D02*
X12360539Y-12441246D01*
X12360539Y-12441246D02*
X12370063Y-12422198D01*
X12370063Y-12422198D02*
X12379587Y-12412674D01*
X12379587Y-12412674D02*
X12398634Y-12403150D01*
X12398634Y-12403150D02*
X12427206Y-12403150D01*
X12427206Y-12403150D02*
X12446253Y-12412674D01*
X12446253Y-12412674D02*
X12455777Y-12422198D01*
X12455777Y-12422198D02*
X12465301Y-12441246D01*
X12465301Y-12441246D02*
X12465301Y-12498388D01*
X12465301Y-12498388D02*
X12455777Y-12517436D01*
X12455777Y-12517436D02*
X12446253Y-12526960D01*
X12446253Y-12526960D02*
X12427206Y-12536484D01*
X12427206Y-12536484D02*
X12398634Y-12536484D01*
X12579587Y-12536484D02*
X12560539Y-12526960D01*
X12560539Y-12526960D02*
X12551015Y-12507912D01*
X12551015Y-12507912D02*
X12551015Y-12336484D01*
X12731968Y-12526960D02*
X12712920Y-12536484D01*
X12712920Y-12536484D02*
X12674825Y-12536484D01*
X12674825Y-12536484D02*
X12655777Y-12526960D01*
X12655777Y-12526960D02*
X12646253Y-12507912D01*
X12646253Y-12507912D02*
X12646253Y-12431722D01*
X12646253Y-12431722D02*
X12655777Y-12412674D01*
X12655777Y-12412674D02*
X12674825Y-12403150D01*
X12674825Y-12403150D02*
X12712920Y-12403150D01*
X12712920Y-12403150D02*
X12731968Y-12412674D01*
X12731968Y-12412674D02*
X12741491Y-12431722D01*
X12741491Y-12431722D02*
X12741491Y-12450769D01*
X12741491Y-12450769D02*
X12646253Y-12469817D01*
X12817682Y-12526960D02*
X12836730Y-12536484D01*
X12836730Y-12536484D02*
X12874825Y-12536484D01*
X12874825Y-12536484D02*
X12893872Y-12526960D01*
X12893872Y-12526960D02*
X12903396Y-12507912D01*
X12903396Y-12507912D02*
X12903396Y-12498388D01*
X12903396Y-12498388D02*
X12893872Y-12479341D01*
X12893872Y-12479341D02*
X12874825Y-12469817D01*
X12874825Y-12469817D02*
X12846253Y-12469817D01*
X12846253Y-12469817D02*
X12827206Y-12460293D01*
X12827206Y-12460293D02*
X12817682Y-12441246D01*
X12817682Y-12441246D02*
X12817682Y-12431722D01*
X12817682Y-12431722D02*
X12827206Y-12412674D01*
X12827206Y-12412674D02*
X12846253Y-12403150D01*
X12846253Y-12403150D02*
X12874825Y-12403150D01*
X12874825Y-12403150D02*
X12893872Y-12412674D01*
X12970063Y-12612674D02*
X12979587Y-12603150D01*
X12979587Y-12603150D02*
X12998634Y-12574579D01*
X12998634Y-12574579D02*
X13008158Y-12555531D01*
X13008158Y-12555531D02*
X13017682Y-12526960D01*
X13017682Y-12526960D02*
X13027206Y-12479341D01*
X13027206Y-12479341D02*
X13027206Y-12441246D01*
X13027206Y-12441246D02*
X13017682Y-12393627D01*
X13017682Y-12393627D02*
X13008158Y-12365055D01*
X13008158Y-12365055D02*
X12998634Y-12346008D01*
X12998634Y-12346008D02*
X12979587Y-12317436D01*
X12979587Y-12317436D02*
X12970063Y-12307912D01*
X13331968Y-12612674D02*
X13322444Y-12603150D01*
X13322444Y-12603150D02*
X13303396Y-12574579D01*
X13303396Y-12574579D02*
X13293872Y-12555531D01*
X13293872Y-12555531D02*
X13284349Y-12526960D01*
X13284349Y-12526960D02*
X13274825Y-12479341D01*
X13274825Y-12479341D02*
X13274825Y-12441246D01*
X13274825Y-12441246D02*
X13284349Y-12393627D01*
X13284349Y-12393627D02*
X13293872Y-12365055D01*
X13293872Y-12365055D02*
X13303396Y-12346008D01*
X13303396Y-12346008D02*
X13322444Y-12317436D01*
X13322444Y-12317436D02*
X13331968Y-12307912D01*
X13408158Y-12403150D02*
X13408158Y-12536484D01*
X13408158Y-12422198D02*
X13417682Y-12412674D01*
X13417682Y-12412674D02*
X13436730Y-12403150D01*
X13436730Y-12403150D02*
X13465301Y-12403150D01*
X13465301Y-12403150D02*
X13484349Y-12412674D01*
X13484349Y-12412674D02*
X13493872Y-12431722D01*
X13493872Y-12431722D02*
X13493872Y-12536484D01*
X13617682Y-12536484D02*
X13598634Y-12526960D01*
X13598634Y-12526960D02*
X13589111Y-12517436D01*
X13589111Y-12517436D02*
X13579587Y-12498388D01*
X13579587Y-12498388D02*
X13579587Y-12441246D01*
X13579587Y-12441246D02*
X13589111Y-12422198D01*
X13589111Y-12422198D02*
X13598634Y-12412674D01*
X13598634Y-12412674D02*
X13617682Y-12403150D01*
X13617682Y-12403150D02*
X13646253Y-12403150D01*
X13646253Y-12403150D02*
X13665301Y-12412674D01*
X13665301Y-12412674D02*
X13674825Y-12422198D01*
X13674825Y-12422198D02*
X13684349Y-12441246D01*
X13684349Y-12441246D02*
X13684349Y-12498388D01*
X13684349Y-12498388D02*
X13674825Y-12517436D01*
X13674825Y-12517436D02*
X13665301Y-12526960D01*
X13665301Y-12526960D02*
X13646253Y-12536484D01*
X13646253Y-12536484D02*
X13617682Y-12536484D01*
X13741492Y-12403150D02*
X13817682Y-12403150D01*
X13770063Y-12336484D02*
X13770063Y-12507912D01*
X13770063Y-12507912D02*
X13779587Y-12526960D01*
X13779587Y-12526960D02*
X13798634Y-12536484D01*
X13798634Y-12536484D02*
X13817682Y-12536484D01*
X14036730Y-12403150D02*
X14036730Y-12603150D01*
X14036730Y-12412674D02*
X14055777Y-12403150D01*
X14055777Y-12403150D02*
X14093873Y-12403150D01*
X14093873Y-12403150D02*
X14112920Y-12412674D01*
X14112920Y-12412674D02*
X14122444Y-12422198D01*
X14122444Y-12422198D02*
X14131968Y-12441246D01*
X14131968Y-12441246D02*
X14131968Y-12498388D01*
X14131968Y-12498388D02*
X14122444Y-12517436D01*
X14122444Y-12517436D02*
X14112920Y-12526960D01*
X14112920Y-12526960D02*
X14093873Y-12536484D01*
X14093873Y-12536484D02*
X14055777Y-12536484D01*
X14055777Y-12536484D02*
X14036730Y-12526960D01*
X14246253Y-12536484D02*
X14227206Y-12526960D01*
X14227206Y-12526960D02*
X14217682Y-12507912D01*
X14217682Y-12507912D02*
X14217682Y-12336484D01*
X14408158Y-12536484D02*
X14408158Y-12431722D01*
X14408158Y-12431722D02*
X14398634Y-12412674D01*
X14398634Y-12412674D02*
X14379587Y-12403150D01*
X14379587Y-12403150D02*
X14341492Y-12403150D01*
X14341492Y-12403150D02*
X14322444Y-12412674D01*
X14408158Y-12526960D02*
X14389111Y-12536484D01*
X14389111Y-12536484D02*
X14341492Y-12536484D01*
X14341492Y-12536484D02*
X14322444Y-12526960D01*
X14322444Y-12526960D02*
X14312920Y-12507912D01*
X14312920Y-12507912D02*
X14312920Y-12488865D01*
X14312920Y-12488865D02*
X14322444Y-12469817D01*
X14322444Y-12469817D02*
X14341492Y-12460293D01*
X14341492Y-12460293D02*
X14389111Y-12460293D01*
X14389111Y-12460293D02*
X14408158Y-12450769D01*
X14474825Y-12403150D02*
X14551015Y-12403150D01*
X14503396Y-12336484D02*
X14503396Y-12507912D01*
X14503396Y-12507912D02*
X14512920Y-12526960D01*
X14512920Y-12526960D02*
X14531968Y-12536484D01*
X14531968Y-12536484D02*
X14551015Y-12536484D01*
X14693873Y-12526960D02*
X14674825Y-12536484D01*
X14674825Y-12536484D02*
X14636730Y-12536484D01*
X14636730Y-12536484D02*
X14617682Y-12526960D01*
X14617682Y-12526960D02*
X14608158Y-12507912D01*
X14608158Y-12507912D02*
X14608158Y-12431722D01*
X14608158Y-12431722D02*
X14617682Y-12412674D01*
X14617682Y-12412674D02*
X14636730Y-12403150D01*
X14636730Y-12403150D02*
X14674825Y-12403150D01*
X14674825Y-12403150D02*
X14693873Y-12412674D01*
X14693873Y-12412674D02*
X14703396Y-12431722D01*
X14703396Y-12431722D02*
X14703396Y-12450769D01*
X14703396Y-12450769D02*
X14608158Y-12469817D01*
X14874825Y-12536484D02*
X14874825Y-12336484D01*
X14874825Y-12526960D02*
X14855777Y-12536484D01*
X14855777Y-12536484D02*
X14817682Y-12536484D01*
X14817682Y-12536484D02*
X14798634Y-12526960D01*
X14798634Y-12526960D02*
X14789111Y-12517436D01*
X14789111Y-12517436D02*
X14779587Y-12498388D01*
X14779587Y-12498388D02*
X14779587Y-12441246D01*
X14779587Y-12441246D02*
X14789111Y-12422198D01*
X14789111Y-12422198D02*
X14798634Y-12412674D01*
X14798634Y-12412674D02*
X14817682Y-12403150D01*
X14817682Y-12403150D02*
X14855777Y-12403150D01*
X14855777Y-12403150D02*
X14874825Y-12412674D01*
X14951015Y-12612674D02*
X14960539Y-12603150D01*
X14960539Y-12603150D02*
X14979587Y-12574579D01*
X14979587Y-12574579D02*
X14989111Y-12555531D01*
X14989111Y-12555531D02*
X14998634Y-12526960D01*
X14998634Y-12526960D02*
X15008158Y-12479341D01*
X15008158Y-12479341D02*
X15008158Y-12441246D01*
X15008158Y-12441246D02*
X14998634Y-12393627D01*
X14998634Y-12393627D02*
X14989111Y-12365055D01*
X14989111Y-12365055D02*
X14979587Y-12346008D01*
X14979587Y-12346008D02*
X14960539Y-12317436D01*
X14960539Y-12317436D02*
X14951015Y-12307912D01*
M02*
