M48
; DRILL file KiCad 10.0.6-10.0.6~ubuntu24.04.1 date 2026-10-03T13:57:22
; FORMAT={-:-/ absolute / metric / decimal}
; #@! TF.CreationDate,2026-10-03T13:57:22+00:00
; #@! TF.GenerationSoftware,Kicad,Pcbnew,10.0.6-10.0.6~ubuntu24.04.1
; #@! TF.FileFunction,Plated,1,6,PTH
FMAT,2
METRIC
; #@! TA.AperFunction,Plated,PTH,ViaDrill
T1C0.150
; #@! TA.AperFunction,Plated,PTH,ViaDrill
T2C0.250
; #@! TA.AperFunction,Plated,PTH,ComponentDrill
T3C0.600
%
G90
G05
T1
X83.2Y-92.7
X83.967Y-97.094
X84.345Y-91.2
X84.345Y-107.9
X86.29Y-99.9
X87.401Y-106.4
X87.975Y-98.8
X87.975Y-99.9
X88.055Y-93.14
X88.2Y-93.7
X88.473Y-98.732
X88.9Y-94.35
X89.043Y-93.127
X89.265Y-116.6
X89.36Y-97.6
X89.697Y-102.327
X89.715Y-95.965
X89.819Y-94.998
X89.92Y-103.92
X89.983Y-92.858
X90.0Y-83.2
X90.92Y-103.555
X91.327Y-90.537
X91.5Y-83.2
X91.775Y-87.38
X91.8Y-109.525
X91.989Y-108.568
X92.5Y-109.45
X92.6Y-96.92
X92.639Y-91.192
X92.769Y-99.107
X93.018Y-108.812
X93.19Y-103.555
X93.265Y-101.965
X93.295Y-96.894
X93.345Y-105.48
X93.397Y-104.019
X93.453Y-100.227
X93.576Y-91.662
X93.7Y-83.5
X93.781Y-100.637
X93.788Y-109.698
X93.925Y-102.53
X94.001Y-99.85
X94.076Y-113.558
X94.321Y-100.569
X94.409Y-112.519
X94.42Y-89.445
X94.425Y-98.774
X94.47Y-96.105
X94.617Y-102.541
X94.75Y-111.6
X94.824Y-104.335
X95.0Y-92.395
X95.012Y-110.518
X95.237Y-102.41
X95.272Y-84.192
X95.291Y-105.497
X95.294Y-91.911
X95.45Y-101.35
X95.45Y-102.85
X95.765Y-105.276
X96.126Y-94.07
X96.29Y-97.965
X96.542Y-95.264
X96.6Y-90.4
X96.6Y-98.7
X96.6Y-100.3
X96.6Y-101.9
X96.6Y-103.5
X96.717Y-96.758
X96.74Y-96.105
X96.936Y-108.186
X97.0Y-107.65
X97.26Y-89.615
X97.27Y-90.655
X97.477Y-88.582
X97.63Y-114.58
X97.939Y-87.126
X98.176Y-88.167
X98.2Y-90.4
X98.2Y-98.7
X98.2Y-100.3
X98.2Y-101.9
X98.2Y-103.5
X98.23Y-97.31
X98.4Y-95.2
X98.761Y-97.446
X99.221Y-111.438
X99.225Y-116.45
X99.419Y-106.516
X99.419Y-110.444
X99.668Y-93.053
X99.772Y-84.192
X99.8Y-90.4
X99.8Y-92.0
X99.8Y-98.7
X99.8Y-100.3
X99.8Y-101.9
X99.8Y-103.5
X100.005Y-87.97
X100.05Y-96.092
X100.061Y-87.126
X100.15Y-83.6
X100.7Y-88.55
X100.75Y-114.4
X101.024Y-95.337
X101.316Y-96.836
X101.4Y-90.4
X101.4Y-92.0
X101.4Y-98.7
X101.4Y-100.3
X101.4Y-101.9
X101.4Y-103.5
X101.45Y-114.95
X101.872Y-106.654
X101.943Y-96.588
X102.55Y-100.85
X102.565Y-107.45
X102.785Y-90.055
X103.07Y-86.655
X103.092Y-97.785
X103.325Y-100.186
X103.342Y-98.817
X103.465Y-90.25
X103.619Y-99.768
X103.715Y-107.45
X103.755Y-104.77
X103.914Y-98.746
X103.98Y-99.375
X104.327Y-87.561
X104.807Y-106.987
X104.85Y-94.41
X105.148Y-98.418
X105.15Y-90.6
X105.15Y-92.2
X105.312Y-97.492
X105.34Y-86.655
X105.467Y-110.444
X105.5Y-116.3
X105.583Y-100.271
X105.664Y-97.005
X105.919Y-87.43
X106.0Y-116.2
X106.21Y-100.984
X106.21Y-102.7
X106.722Y-101.249
X106.87Y-103.755
X106.892Y-102.2
X106.897Y-83.2
X106.945Y-103.205
X107.0Y-115.085
X107.139Y-100.932
X107.17Y-99.375
X107.3Y-96.075
X107.3Y-108.825
X107.3Y-113.575
X107.35Y-102.95
X107.39Y-97.955
X107.705Y-98.77
X107.868Y-103.312
X108.0Y-88.35
X108.034Y-95.141
X108.09Y-101.365
X108.252Y-102.816
X108.333Y-104.903
X108.37Y-107.15
X108.485Y-104.41
X108.689Y-99.017
X108.9Y-96.075
X108.9Y-108.825
X108.9Y-113.575
X109.039Y-104.898
X109.173Y-95.239
X109.27Y-88.45
X109.295Y-100.4
X109.314Y-99.307
X109.5Y-91.0
X109.591Y-104.882
X109.85Y-103.55
X109.954Y-105.246
X110.153Y-100.508
X111.548Y-99.368
X111.8Y-96.615
X112.785Y-102.535
X112.824Y-99.512
X113.135Y-99.96
X113.586Y-96.542
X113.63Y-105.98
X113.65Y-108.05
X113.65Y-108.55
X113.726Y-103.511
X114.193Y-109.242
X114.481Y-104.846
X115.41Y-103.95
X115.808Y-94.572
X115.987Y-96.08
X116.6Y-109.265
X117.412Y-103.207
X117.412Y-108.793
T2
X89.967Y-92.272
X90.28Y-99.347
X90.28Y-100.347
X91.68Y-95.108
X92.2Y-97.6
X95.55Y-116.3
X95.55Y-117.05
X95.65Y-97.15
X95.75Y-87.1
X96.05Y-88.3
X96.3Y-117.3
X97.0Y-110.9
X97.0Y-111.9
X97.25Y-96.95
X97.9Y-96.8
X98.0Y-110.9
X98.0Y-111.9
X98.7Y-87.8
X98.85Y-86.75
X98.9Y-115.08
X103.1Y-103.8
X103.45Y-102.3
X111.4Y-109.3
X112.0Y-103.0
X112.0Y-104.0
X112.2Y-109.3
X113.0Y-103.0
X113.0Y-104.0
X113.9Y-91.7
X114.0Y-103.0
X114.0Y-104.0
X114.0Y-105.0
X114.45Y-107.2
X114.7Y-91.7
X114.9Y-106.18
T3
X85.0Y-95.68G85X84.2Y-95.68
G05
X85.0Y-104.32G85X84.2Y-104.32
G05
X89.33Y-95.68G85X88.23Y-95.68
G05
X89.33Y-104.32G85X88.23Y-104.32
G05
M30
