%TF.GenerationSoftware,KiCad,Pcbnew,10.0.6-10.0.6~ubuntu24.04.1*%
%TF.CreationDate,2026-09-29T06:48:57+00:00*%
%TF.ProjectId,ridge3-fc,72696467-6533-42d6-9663-2e6b69636164,1.0*%
%TF.SameCoordinates,Original*%
%TF.FileFunction,Copper,L4,Inr*%
%TF.FilePolarity,Positive*%
%FSLAX46Y46*%
G04 Gerber Fmt 4.6, Leading zero omitted, Abs format (unit mm)*
G04 Created by KiCad (PCBNEW 10.0.6-10.0.6~ubuntu24.04.1) date 2026-09-29 06:48:57*
%MOMM*%
%LPD*%
G01*
G04 APERTURE LIST*
%TA.AperFunction,ComponentPad*%
%ADD10O,2.100000X1.000000*%
%TD*%
%TA.AperFunction,ComponentPad*%
%ADD11O,1.800000X1.000000*%
%TD*%
%TA.AperFunction,ViaPad*%
%ADD12C,0.350000*%
%TD*%
%TA.AperFunction,ViaPad*%
%ADD13C,0.500000*%
%TD*%
%TA.AperFunction,ViaPad*%
%ADD14C,0.450000*%
%TD*%
%TA.AperFunction,Conductor*%
%ADD15C,0.300000*%
%TD*%
%TA.AperFunction,Conductor*%
%ADD16C,0.100000*%
%TD*%
%TA.AperFunction,Conductor*%
%ADD17C,0.200000*%
%TD*%
G04 APERTURE END LIST*
D10*
%TO.N,GND*%
%TO.C,J_USB*%
X88780000Y-95680000D03*
D11*
X84600000Y-95680000D03*
X84600000Y-104320000D03*
D10*
X88780000Y-104320000D03*
%TD*%
D12*
%TO.N,VBAT*%
X105750000Y-110650000D03*
X97750000Y-113950000D03*
D13*
X114300000Y-109100000D03*
D12*
X109200000Y-109700000D03*
X111974200Y-96032200D03*
X104950000Y-109200000D03*
X109350000Y-109200000D03*
D13*
X95600000Y-117250000D03*
X95600000Y-116550000D03*
X112700000Y-109100000D03*
X113500000Y-109100000D03*
D12*
X105300000Y-110775000D03*
X106847300Y-95906100D03*
%TO.N,+3V3_GYRO*%
X105950000Y-100940000D03*
X105363900Y-97767500D03*
D13*
%TO.N,GND*%
X112000000Y-104500000D03*
D12*
X106100000Y-107825000D03*
X96555000Y-86990000D03*
X101400000Y-103500000D03*
X99800000Y-98700000D03*
X84345000Y-107900000D03*
X93206000Y-109522000D03*
X101400000Y-92000000D03*
X107078000Y-102758000D03*
X94215000Y-101650000D03*
X105750000Y-116050000D03*
X113267000Y-96747300D03*
X103755000Y-104720000D03*
X113087000Y-97382500D03*
X99800000Y-90400000D03*
X109277000Y-99583500D03*
X105340000Y-86655000D03*
X91800000Y-109525000D03*
X111313000Y-99632400D03*
D13*
X98900000Y-115080000D03*
D12*
X98200000Y-98700000D03*
X117367000Y-108412000D03*
X89920000Y-96080000D03*
X100061000Y-87125500D03*
X95750000Y-106265000D03*
X99225000Y-116450000D03*
X106750000Y-90600000D03*
X109490000Y-104755000D03*
X98200000Y-101900000D03*
X91800000Y-111165000D03*
D13*
X97000000Y-110900000D03*
D12*
X99800000Y-100300000D03*
X96600000Y-100300000D03*
X92500000Y-109450000D03*
X96184000Y-105668000D03*
X109586000Y-94119100D03*
X101400000Y-100300000D03*
D13*
X107828000Y-108195000D03*
X107828000Y-107395000D03*
D12*
X106200000Y-116320000D03*
X99772500Y-84191600D03*
X108400000Y-110480000D03*
X96740000Y-96105000D03*
D13*
X112000000Y-105500000D03*
D12*
X99800000Y-103500000D03*
X98200000Y-103500000D03*
X116603000Y-103553000D03*
X106892000Y-102200000D03*
X106750000Y-92200000D03*
X93384000Y-91468100D03*
X98200000Y-90400000D03*
X96600000Y-103500000D03*
X106375000Y-98242300D03*
X98200000Y-100300000D03*
X98055400Y-87755400D03*
X95147500Y-110722000D03*
X110815000Y-108910000D03*
X100005000Y-87970000D03*
X109122000Y-105422000D03*
X95272500Y-84191600D03*
X105750000Y-116550000D03*
X109455000Y-100320000D03*
D13*
X98000000Y-110900000D03*
D12*
X96077000Y-111623000D03*
X112900000Y-106100000D03*
X108515000Y-105350000D03*
X91805000Y-87870000D03*
X96542300Y-95264100D03*
X109927000Y-92515000D03*
X105150000Y-92200000D03*
X104500000Y-107825000D03*
X106200000Y-108680000D03*
X109277000Y-88616500D03*
X109005000Y-106538000D03*
X96600000Y-98700000D03*
X114400000Y-101615000D03*
X93295500Y-96894000D03*
X115590000Y-93323000D03*
X93717700Y-101925000D03*
X90213800Y-95128300D03*
X91577500Y-102308000D03*
X111335000Y-95180000D03*
X105055000Y-98220000D03*
D13*
X96000000Y-110900000D03*
D12*
X89920000Y-103920000D03*
X98200000Y-92000000D03*
X89655000Y-92770000D03*
X99800000Y-92000000D03*
X109715000Y-104250000D03*
X107340000Y-97755000D03*
X101400000Y-90400000D03*
X108142000Y-98661800D03*
D13*
X98900000Y-114080000D03*
D12*
X96600000Y-90400000D03*
X93055000Y-102220000D03*
X97938900Y-87125500D03*
X96600000Y-92000000D03*
X101400000Y-101900000D03*
X87975000Y-98800000D03*
X92918200Y-108812000D03*
X111777000Y-95492900D03*
X105150000Y-90600000D03*
X99800000Y-101900000D03*
X115450000Y-110015000D03*
X87975000Y-99900000D03*
X84345000Y-91200000D03*
X106822000Y-101397000D03*
X103905000Y-97720000D03*
X117227000Y-90066500D03*
X96600000Y-101900000D03*
X93970200Y-113420000D03*
X108350000Y-90600000D03*
X107455000Y-99470000D03*
X107835000Y-96442300D03*
X101400000Y-98700000D03*
%TO.N,UART1_TX*%
X98632000Y-96893000D03*
X107098100Y-93525800D03*
X107098100Y-83200000D03*
%TO.N,+3V3*%
X107581000Y-95369700D03*
X107242000Y-104925000D03*
X91470000Y-101755000D03*
X103465000Y-90250000D03*
X91889100Y-108568000D03*
X102785000Y-90055200D03*
X117335000Y-107102000D03*
X92487800Y-104162000D03*
X104488000Y-100162000D03*
X103905000Y-99990000D03*
X103070000Y-86655000D03*
X109261000Y-102548000D03*
X104327000Y-87560900D03*
X106532000Y-100402000D03*
X91577500Y-104402000D03*
X94470000Y-96105000D03*
D13*
X105326000Y-106845000D03*
D12*
X92439100Y-91192500D03*
X96717300Y-96758400D03*
D13*
X107182000Y-108954000D03*
D12*
X95764800Y-105276000D03*
X105919000Y-87430300D03*
X103516000Y-100678000D03*
X103325000Y-100186000D03*
X94823600Y-104335000D03*
X103342000Y-98817300D03*
D14*
%TO.N,HSE_OUT*%
X96750000Y-107950000D03*
X93250000Y-107550000D03*
D12*
%TO.N,NRST*%
X99250000Y-104650000D03*
X101943400Y-105366300D03*
X94295000Y-110395000D03*
D14*
%TO.N,SPI1_SCK*%
X103200000Y-103750000D03*
X103450000Y-102300000D03*
D12*
%TO.N,ADC_CURR*%
X108605000Y-100085000D03*
X102973300Y-101418000D03*
%TO.N,ADC_VBAT*%
X107027000Y-98535500D03*
X103534700Y-101305500D03*
%TO.N,TLM*%
X99419500Y-110752200D03*
X102550000Y-98350000D03*
%TO.N,SPI2_MOSI*%
X103201200Y-90956300D03*
X108601700Y-88492800D03*
X99980000Y-94070000D03*
%TO.N,FLASH_CS*%
X99750000Y-97550000D03*
X104850000Y-94410000D03*
%TO.N,OSD_CS*%
X99330000Y-94070000D03*
%TO.N,UART1_RX*%
X113390800Y-96249000D03*
X98250000Y-97550000D03*
D14*
%TO.N,USB_DM*%
X90279900Y-100347000D03*
X92200000Y-97600000D03*
X90279900Y-99346600D03*
X97900000Y-96800000D03*
%TO.N,USB_DP*%
X97250000Y-96950000D03*
X95650000Y-97150000D03*
D12*
%TO.N,SWDIO*%
X94435800Y-97975000D03*
%TO.N,SWCLK*%
X95450000Y-98350000D03*
%TO.N,BEEPER*%
X95450000Y-98850000D03*
X103132600Y-97910400D03*
%TO.N,UART4_TX*%
X90000000Y-83200000D03*
X93670000Y-99350000D03*
%TO.N,UART4_RX*%
X91500000Y-83200000D03*
X94000700Y-99850000D03*
%TO.N,UART2_TX*%
X93623500Y-100162500D03*
X84485900Y-98275100D03*
%TO.N,UART2_RX*%
X87933700Y-92700000D03*
X111995000Y-91445000D03*
X91319400Y-100850000D03*
%TO.N,VTX_OFF*%
X95584600Y-101361000D03*
X108421400Y-101536800D03*
%TO.N,BOOT0*%
X95450000Y-102850000D03*
X115304900Y-103812000D03*
%TO.N,USB_VBUS*%
X92974200Y-98208800D03*
X89360000Y-97600000D03*
X89721800Y-102326600D03*
%TO.N,+5V*%
X83200000Y-89700000D03*
X100950000Y-111500000D03*
X109900000Y-110250000D03*
X98600000Y-106550000D03*
X90000000Y-90500000D03*
X110929100Y-100672900D03*
X107850000Y-106450000D03*
X100150000Y-83450000D03*
X90611000Y-105426300D03*
X87024800Y-91085900D03*
X87429400Y-101805700D03*
D14*
%TO.N,CAM_VIDEO*%
X97250000Y-87000000D03*
D12*
%TO.N,BEEPER_G*%
X107027300Y-106209900D03*
X116114000Y-106163900D03*
%TO.N,+9V*%
X112550000Y-97700000D03*
X93700000Y-83500000D03*
D13*
X114700000Y-91700000D03*
X113900000Y-91700000D03*
D12*
X114300000Y-102250000D03*
%TO.N,VTX_OFF_G*%
X109912600Y-103344900D03*
X109912600Y-100099100D03*
%TO.N,USB_CC1*%
X89360000Y-98750000D03*
%TO.N,USB_CC2*%
X86290000Y-99900000D03*
%TO.N,+3V3_OSD*%
X93015000Y-89890000D03*
X99484500Y-87671400D03*
X96260300Y-94070000D03*
%TO.N,OSD_RST*%
X100630000Y-88330000D03*
%TO.N,OSD_VIN*%
X98787600Y-87761600D03*
D14*
%TO.N,OSD_VOUT*%
X95250000Y-89550000D03*
D12*
%TO.N,BUCK9_EN*%
X115800000Y-108652700D03*
X109788400Y-114616000D03*
X110445000Y-97895000D03*
%TO.N,CUR*%
X109992000Y-99032600D03*
X102000000Y-110918700D03*
D14*
%TO.N,VTX_VIDEO*%
X95750000Y-87100000D03*
D12*
%TO.N,BUCK9_FB*%
X116681000Y-105556300D03*
X115864000Y-98411800D03*
%TO.N,BUCK5_FB*%
X94700500Y-105642700D03*
X93563600Y-110614700D03*
%TO.N,BUCK9_VCC*%
X114900000Y-107500000D03*
X114000000Y-103700000D03*
%TO.N,BUCK9_RT*%
X117165000Y-105135000D03*
X115000000Y-103100000D03*
%TD*%
%TO.N,VBAT*%
D15*
X97750000Y-113950000D02*
X102500000Y-109200000D01*
X111974200Y-96032200D02*
X108374300Y-96032200D01*
X108248200Y-95906100D02*
X106847300Y-95906100D01*
X102500000Y-109200000D02*
X104950000Y-109200000D01*
X108374300Y-96032200D02*
X108248200Y-95906100D01*
%TO.N,UART1_TX*%
D16*
X101999200Y-93525800D02*
X98632000Y-96893000D01*
X107098100Y-93525800D02*
X101999200Y-93525800D01*
%TO.N,NRST*%
X101943400Y-105366300D02*
X99966300Y-105366300D01*
X99966300Y-105366300D02*
X99250000Y-104650000D01*
%TO.N,ADC_CURR*%
X107441800Y-100085000D02*
X105910900Y-101615900D01*
X103195900Y-101640600D02*
X102973300Y-101418000D01*
X105910900Y-101615900D02*
X105625700Y-101615900D01*
X105601000Y-101640600D02*
X103195900Y-101640600D01*
X108605000Y-100085000D02*
X107441800Y-100085000D01*
X105625700Y-101615900D02*
X105601000Y-101640600D01*
%TO.N,ADC_VBAT*%
X103534700Y-101305500D02*
X104257000Y-101305500D01*
X104257000Y-101305500D02*
X107027000Y-98535500D01*
%TO.N,SPI2_MOSI*%
X105255700Y-90956300D02*
X103201200Y-90956300D01*
X107719200Y-88492800D02*
X105255700Y-90956300D01*
X108601700Y-88492800D02*
X107719200Y-88492800D01*
%TO.N,FLASH_CS*%
X99750000Y-97550000D02*
X102890000Y-94410000D01*
X102890000Y-94410000D02*
X104850000Y-94410000D01*
%TO.N,UART1_RX*%
X103023400Y-97072000D02*
X111467100Y-97072000D01*
X98250000Y-97550000D02*
X98610500Y-97910500D01*
X112290100Y-96249000D02*
X113390800Y-96249000D01*
X111467100Y-97072000D02*
X112290100Y-96249000D01*
X102184900Y-97910500D02*
X103023400Y-97072000D01*
X98610500Y-97910500D02*
X102184900Y-97910500D01*
%TO.N,BEEPER*%
X103132600Y-98297500D02*
X102397300Y-99032800D01*
X103132600Y-97910400D02*
X103132600Y-98297500D01*
X95632800Y-99032800D02*
X95450000Y-98850000D01*
X102397300Y-99032800D02*
X95632800Y-99032800D01*
%TO.N,UART2_TX*%
X84485900Y-98275100D02*
X85560800Y-99350000D01*
X90222000Y-99846800D02*
X93307800Y-99846800D01*
X93307800Y-99846800D02*
X93623500Y-100162500D01*
X85560800Y-99350000D02*
X89725200Y-99350000D01*
X89725200Y-99350000D02*
X90222000Y-99846800D01*
%TO.N,UART2_RX*%
X111995000Y-91445000D02*
X94026900Y-91445000D01*
X93028600Y-92443300D02*
X88190400Y-92443300D01*
X94026900Y-91445000D02*
X93028600Y-92443300D01*
X88190400Y-92443300D02*
X87933700Y-92700000D01*
%TO.N,VTX_OFF*%
X101323000Y-101361000D02*
X95584600Y-101361000D01*
X105785400Y-101882800D02*
X101844800Y-101882800D01*
X108117400Y-101840800D02*
X105827400Y-101840800D01*
X108421400Y-101536800D02*
X108117400Y-101840800D01*
X101844800Y-101882800D02*
X101323000Y-101361000D01*
X105827400Y-101840800D02*
X105785400Y-101882800D01*
%TO.N,BOOT0*%
X103994300Y-103374800D02*
X109480600Y-103374800D01*
X95450000Y-102850000D02*
X103469500Y-102850000D01*
X109480600Y-103374800D02*
X110133600Y-104027800D01*
X103469500Y-102850000D02*
X103994300Y-103374800D01*
X110133600Y-104027800D02*
X115089100Y-104027800D01*
X115089100Y-104027800D02*
X115304900Y-103812000D01*
%TO.N,USB_VBUS*%
D15*
X89360000Y-97600000D02*
X89968800Y-98208800D01*
X89968800Y-98208800D02*
X92974200Y-98208800D01*
%TO.N,+5V*%
X86209800Y-91085900D02*
X87024800Y-91085900D01*
X83200000Y-89700000D02*
X84823900Y-89700000D01*
X98450000Y-83450000D02*
X100150000Y-83450000D01*
X84823900Y-89700000D02*
X86209800Y-91085900D01*
X91400000Y-90500000D02*
X98450000Y-83450000D01*
X90000000Y-90500000D02*
X91400000Y-90500000D01*
%TO.N,BEEPER_G*%
D16*
X109076200Y-106059000D02*
X107178200Y-106059000D01*
X116114000Y-106163900D02*
X115806500Y-106471400D01*
X109488600Y-106471400D02*
X109076200Y-106059000D01*
X115806500Y-106471400D02*
X109488600Y-106471400D01*
X107178200Y-106059000D02*
X107027300Y-106209900D01*
%TO.N,+3V3_OSD*%
D17*
X93015000Y-89890000D02*
X94749500Y-88155500D01*
X99000400Y-88155500D02*
X99484500Y-87671400D01*
X94749500Y-88155500D02*
X99000400Y-88155500D01*
%TO.N,BUCK9_EN*%
D16*
X112327000Y-108565300D02*
X115712600Y-108565300D01*
X109451100Y-111441200D02*
X112327000Y-108565300D01*
X109451100Y-114278700D02*
X109451100Y-111441200D01*
X109788400Y-114616000D02*
X109451100Y-114278700D01*
X115712600Y-108565300D02*
X115800000Y-108652700D01*
%TD*%
M02*
