%TF.GenerationSoftware,KiCad,Pcbnew,10.0.6-10.0.6~ubuntu24.04.1*%
%TF.CreationDate,2026-10-02T16:28:41+00:00*%
%TF.ProjectId,ridge3-fc,72696467-6533-42d6-9663-2e6b69636164,2.0*%
%TF.SameCoordinates,Original*%
%TF.FileFunction,Copper,L4,Inr*%
%TF.FilePolarity,Positive*%
%FSLAX46Y46*%
G04 Gerber Fmt 4.6, Leading zero omitted, Abs format (unit mm)*
G04 Created by KiCad (PCBNEW 10.0.6-10.0.6~ubuntu24.04.1) date 2026-10-02 16:28:41*
%MOMM*%
%LPD*%
G01*
G04 APERTURE LIST*
%TA.AperFunction,ComponentPad*%
%ADD10O,2.100000X1.000000*%
%TD*%
%TA.AperFunction,ComponentPad*%
%ADD11O,1.800000X1.000000*%
%TD*%
%TA.AperFunction,ViaPad*%
%ADD12C,0.350000*%
%TD*%
%TA.AperFunction,ViaPad*%
%ADD13C,0.500000*%
%TD*%
%TA.AperFunction,ViaPad*%
%ADD14C,0.450000*%
%TD*%
%TA.AperFunction,Conductor*%
%ADD15C,0.300000*%
%TD*%
%TA.AperFunction,Conductor*%
%ADD16C,0.200000*%
%TD*%
%TA.AperFunction,Conductor*%
%ADD17C,0.100000*%
%TD*%
G04 APERTURE END LIST*
D10*
%TO.N,GND*%
%TO.C,J_USB*%
X88780000Y-95680000D03*
D11*
X84600000Y-95680000D03*
X84600000Y-104320000D03*
D10*
X88780000Y-104320000D03*
%TD*%
D12*
%TO.N,+3V3_GYRO*%
X105485000Y-102489000D03*
X105950000Y-100940000D03*
%TO.N,GND*%
X113650000Y-108550000D03*
X111548000Y-99368200D03*
D13*
X98000000Y-111900000D03*
D12*
X98200000Y-100300000D03*
X99800000Y-103500000D03*
X93018200Y-108812000D03*
X105150000Y-92200000D03*
X105583000Y-100271000D03*
X93576200Y-91661700D03*
X89920000Y-103920000D03*
X96600000Y-101900000D03*
X97260100Y-89615000D03*
X99772500Y-84191600D03*
X97270000Y-90655000D03*
X101400000Y-103500000D03*
X87975000Y-99900000D03*
X108000000Y-88350000D03*
X101400000Y-90400000D03*
X93787800Y-109698000D03*
X97938900Y-87125500D03*
D13*
X113000000Y-104000000D03*
D12*
X106000000Y-116200000D03*
X107139000Y-100932000D03*
X106722000Y-101249000D03*
X101400000Y-100300000D03*
X104807000Y-106987000D03*
X99800000Y-92000000D03*
X89265000Y-116600000D03*
X91327300Y-90537100D03*
X101400000Y-101900000D03*
X100005000Y-87970000D03*
X105148000Y-98418200D03*
X109039000Y-104898000D03*
X96600000Y-98700000D03*
X109591000Y-104882000D03*
X112785000Y-102535000D03*
X91775000Y-87380000D03*
X96740000Y-96105000D03*
X101400000Y-92000000D03*
X109295000Y-100400000D03*
X103755000Y-104770000D03*
D13*
X89966700Y-92271900D03*
D12*
X111068000Y-98476100D03*
D13*
X114000000Y-105000000D03*
D12*
X114481000Y-104846000D03*
X109270000Y-88450000D03*
X99800000Y-98700000D03*
X108900000Y-113575000D03*
X98200000Y-103500000D03*
D13*
X112000000Y-104000000D03*
D12*
X94075900Y-113558000D03*
X114193000Y-109242000D03*
X110153000Y-100508000D03*
X105500000Y-116300000D03*
X99800000Y-101900000D03*
X92600000Y-96920000D03*
X84345000Y-91200000D03*
X99800000Y-100300000D03*
X108090000Y-101365000D03*
X95272500Y-84191600D03*
X106870000Y-103755000D03*
X113125000Y-96526100D03*
X109173000Y-95239100D03*
X107000000Y-115085000D03*
X96600000Y-103500000D03*
X95011800Y-110518000D03*
D13*
X114000000Y-103000000D03*
D12*
X108900000Y-108825000D03*
X108689000Y-99017500D03*
D13*
X114450000Y-107200000D03*
D12*
X106892000Y-102200000D03*
X96600000Y-90400000D03*
X107868000Y-103312000D03*
X113650000Y-108050000D03*
X113726000Y-103511000D03*
X113024000Y-93903000D03*
X108370000Y-107150000D03*
X96600000Y-100300000D03*
X107300000Y-96075000D03*
D13*
X98000000Y-110900000D03*
D12*
X107705000Y-98770000D03*
D13*
X114000000Y-104000000D03*
D12*
X113218000Y-100035000D03*
X99800000Y-90400000D03*
X111800000Y-96615000D03*
X98200000Y-101900000D03*
X89982500Y-92857800D03*
X89715200Y-95964800D03*
X99225000Y-116450000D03*
D13*
X97000000Y-110900000D03*
D12*
X89819100Y-94997900D03*
D13*
X97000000Y-111900000D03*
D12*
X91800000Y-109525000D03*
X96542300Y-95264100D03*
D13*
X113000000Y-103000000D03*
X114900000Y-106180000D03*
D12*
X105150000Y-90600000D03*
X93925000Y-102530000D03*
X87975000Y-98800000D03*
X108900000Y-96075000D03*
X93295500Y-96894000D03*
X93190000Y-103555000D03*
X108333000Y-104903000D03*
D13*
X91680000Y-95107600D03*
D12*
X94617500Y-102541000D03*
X94408700Y-112519000D03*
X94420200Y-89445200D03*
X105340000Y-86655000D03*
X98200000Y-90400000D03*
X98200000Y-98700000D03*
X95290800Y-105497000D03*
X84345000Y-107900000D03*
X107390000Y-97955000D03*
X92500000Y-109450000D03*
X107300000Y-108825000D03*
X107170000Y-99375000D03*
X100061000Y-87125500D03*
X98176500Y-88167500D03*
X107300000Y-113575000D03*
X101400000Y-98700000D03*
D13*
X112000000Y-103000000D03*
X98900000Y-115080000D03*
D12*
%TO.N,+3V3*%
X91989100Y-108568000D03*
X106700000Y-104750000D03*
X103980000Y-99375000D03*
X103070000Y-86655000D03*
X96717300Y-96758400D03*
X117412000Y-108793000D03*
X90920000Y-103555000D03*
X95000000Y-92395000D03*
X103342000Y-98817300D03*
X105312000Y-97491800D03*
X96950000Y-110150000D03*
X94470000Y-96105000D03*
X88055000Y-93140000D03*
X106945000Y-103205000D03*
X108034000Y-95140700D03*
X89042900Y-93127300D03*
X103715000Y-107450000D03*
X104327000Y-87560900D03*
X105919000Y-87430300D03*
X117412000Y-103207000D03*
X116600000Y-109265000D03*
X103092000Y-97785500D03*
X94823600Y-104335000D03*
X93345200Y-105480000D03*
X103465000Y-90250000D03*
X95764800Y-105276000D03*
X103619000Y-99767800D03*
X102565000Y-107450000D03*
X103325000Y-100186000D03*
X110300000Y-102700000D03*
X94900000Y-112200000D03*
X92639100Y-91192500D03*
X108485000Y-104410000D03*
X95294300Y-91911500D03*
X96935800Y-108186000D03*
X102785000Y-90055200D03*
D13*
%TO.N,VBAT_VTX*%
X111400000Y-109300000D03*
X112200000Y-109300000D03*
D12*
%TO.N,+5V*%
X87400900Y-106400000D03*
X88200000Y-93700000D03*
X94750000Y-111600000D03*
X88350000Y-100950000D03*
X99100000Y-111200000D03*
X88900000Y-94350000D03*
X100150000Y-83600000D03*
X90350000Y-96550000D03*
%TO.N,+3V3_OSD*%
X97366400Y-88581800D03*
X93066500Y-89127100D03*
X96092500Y-94070000D03*
%TO.N,UART2_TX*%
X92852500Y-100407000D03*
X83200000Y-94200000D03*
%TO.N,BOOT0*%
X95450000Y-102850000D03*
X93265000Y-101965000D03*
X111006000Y-103459000D03*
D14*
%TO.N,SPI1_SCK*%
X103450000Y-102300000D03*
X103100000Y-103800000D03*
D12*
%TO.N,ADC_VBAT*%
X110686000Y-97282900D03*
X103535000Y-100850000D03*
X105679000Y-98586300D03*
%TO.N,FLASH_CS*%
X99750000Y-96551200D03*
X104499000Y-93578500D03*
%TO.N,OSD_CS*%
X99330000Y-94070000D03*
%TO.N,UART1_TX*%
X98909900Y-96496900D03*
X105664000Y-96330000D03*
%TO.N,UART1_RX*%
X108000000Y-83200000D03*
X114140000Y-96000000D03*
X98582600Y-96810800D03*
D14*
%TO.N,USB_DM*%
X97900000Y-96800000D03*
X90279900Y-100347000D03*
X90279900Y-99346600D03*
X92200000Y-97600000D03*
%TO.N,USB_DP*%
X95650000Y-97150000D03*
X97250000Y-96950000D03*
D12*
%TO.N,SWDIO*%
X96290400Y-97964600D03*
%TO.N,SWCLK*%
X94521800Y-98393500D03*
%TO.N,UART4_TX*%
X94145300Y-92700000D03*
X95126300Y-99365100D03*
%TO.N,UART4_RX*%
X93969800Y-86207800D03*
X93818600Y-99709400D03*
%TO.N,UART2_RX*%
X94651900Y-100716000D03*
X110483000Y-89662100D03*
X85933400Y-96796600D03*
%TO.N,VTX_OFF*%
X108252000Y-102816000D03*
X95450000Y-101350000D03*
%TO.N,LED0*%
X93187900Y-102660000D03*
X95450000Y-102350000D03*
%TO.N,+9V*%
X93700000Y-83500000D03*
D13*
X114700000Y-91700000D03*
X113900000Y-91700000D03*
D12*
%TO.N,USB_VBUS*%
X89360000Y-97600000D03*
X91619500Y-102221000D03*
X92546500Y-98431000D03*
%TO.N,CUR*%
X105717300Y-113601600D03*
X109972500Y-97435500D03*
%TO.N,OSD_RST*%
X100700000Y-88550000D03*
%TO.N,OSD_VIN*%
X98400000Y-95200000D03*
D14*
X98700000Y-87800000D03*
%TO.N,OSD_VOUT*%
X96050000Y-88300000D03*
D12*
%TO.N,VBAT*%
X97630000Y-114580000D03*
D13*
X95550000Y-117050000D03*
X95550000Y-116300000D03*
D12*
X115914000Y-110225000D03*
D13*
X96300000Y-117300000D03*
D12*
X115914000Y-101651000D03*
D14*
%TO.N,VTX_VIDEO*%
X95750000Y-87100000D03*
D12*
%TO.N,BUCK9_EN*%
X113630000Y-105980000D03*
%TO.N,USB_CC1*%
X88472800Y-98685400D03*
%TO.N,USB_CC2*%
X86290000Y-99900000D03*
D14*
%TO.N,CAM_VIDEO*%
X98850000Y-86750000D03*
%TD*%
%TO.N,+5V*%
D15*
X91900000Y-89450000D02*
X91900000Y-91700000D01*
X99100000Y-111700000D02*
X99100000Y-111200000D01*
X98250000Y-112550000D02*
X99100000Y-111700000D01*
X97750000Y-83600000D02*
X91900000Y-89450000D01*
X100150000Y-83600000D02*
X97750000Y-83600000D01*
X91900000Y-91700000D02*
X89250000Y-94350000D01*
X94750000Y-111600000D02*
X95750000Y-111600000D01*
X96700000Y-112550000D02*
X98250000Y-112550000D01*
X95750000Y-111600000D02*
X96700000Y-112550000D01*
X89250000Y-94350000D02*
X88900000Y-94350000D01*
%TO.N,+3V3_OSD*%
D16*
X97366400Y-88581800D02*
X97166900Y-88781300D01*
X93412300Y-88781300D02*
X93066500Y-89127100D01*
X97166900Y-88781300D02*
X93412300Y-88781300D01*
%TO.N,UART2_TX*%
D17*
X90769200Y-98323500D02*
X85882300Y-98323500D01*
X85882300Y-98323500D02*
X83200000Y-95641200D01*
X83200000Y-95641200D02*
X83200000Y-94200000D01*
X92852500Y-100407000D02*
X90769200Y-98323500D01*
%TO.N,BOOT0*%
X103194000Y-103100000D02*
X95699700Y-103100000D01*
X108379000Y-103459000D02*
X107727000Y-104110000D01*
X104204000Y-104110000D02*
X103194000Y-103100000D01*
X107727000Y-104110000D02*
X104204000Y-104110000D01*
X95699700Y-103100000D02*
X95450000Y-102850000D01*
X111006000Y-103459000D02*
X108379000Y-103459000D01*
%TO.N,ADC_VBAT*%
X105914000Y-98351300D02*
X109617000Y-98351300D01*
X109617000Y-98351300D02*
X110686000Y-97282900D01*
X105679000Y-98586300D02*
X105914000Y-98351300D01*
%TO.N,FLASH_CS*%
X99750000Y-96551200D02*
X101527000Y-96551200D01*
X101527000Y-96551200D02*
X104499000Y-93578500D01*
%TO.N,UART1_TX*%
X105664000Y-96330000D02*
X105093000Y-96901000D01*
X99314000Y-96901000D02*
X98909900Y-96496900D01*
X105093000Y-96901000D02*
X99314000Y-96901000D01*
%TO.N,UART1_RX*%
X110404000Y-97102700D02*
X98874500Y-97102700D01*
X111507000Y-96000000D02*
X110404000Y-97102700D01*
X114140000Y-96000000D02*
X111507000Y-96000000D01*
X98874500Y-97102700D02*
X98582600Y-96810800D01*
%TO.N,UART2_RX*%
X108745000Y-91400000D02*
X110483000Y-89662100D01*
X91263700Y-97789300D02*
X94190600Y-100716000D01*
X91263700Y-97789300D02*
X97653000Y-91400000D01*
X97653000Y-91400000D02*
X108745000Y-91400000D01*
X87159500Y-98022700D02*
X85933400Y-96796600D01*
X91263700Y-97789300D02*
X91030300Y-98022700D01*
X94190600Y-100716000D02*
X94651900Y-100716000D01*
X91030300Y-98022700D02*
X87159500Y-98022700D01*
%TO.N,VTX_OFF*%
X96915800Y-102816000D02*
X95450000Y-101350000D01*
X108252000Y-102816000D02*
X96915800Y-102816000D01*
%TO.N,LED0*%
X95303300Y-102203000D02*
X95450000Y-102350000D01*
X93187900Y-102660000D02*
X93644600Y-102203000D01*
X93644600Y-102203000D02*
X95303300Y-102203000D01*
%TO.N,VBAT*%
D15*
X101985000Y-110225000D02*
X115914000Y-110225000D01*
X97630000Y-114580000D02*
X101985000Y-110225000D01*
%TD*%
M02*
