%TF.GenerationSoftware,KiCad,Pcbnew,10.0.6-10.0.6~ubuntu24.04.1*%
%TF.CreationDate,2026-09-27T20:11:49+00:00*%
%TF.ProjectId,ridge3-fc,72696467-6533-42d6-9663-2e6b69636164,rev?*%
%TF.SameCoordinates,Original*%
%TF.FileFunction,Drillmap*%
%TF.FilePolarity,Positive*%
%FSLAX45Y45*%
G04 Gerber Fmt 4.5, Leading zero omitted, Abs format (unit mm)*
G04 Created by KiCad (PCBNEW 10.0.6-10.0.6~ubuntu24.04.1) date 2026-09-27 20:11:49*
%MOMM*%
%LPD*%
G01*
G04 APERTURE LIST*
%ADD10C,0.100000*%
%ADD11C,0.200000*%
G04 APERTURE END LIST*
D10*
X8200000Y-8376777D02*
X8565989Y-8742766D01*
X8200000Y-11623223D02*
X8200000Y-8376777D01*
X8376777Y-8200000D02*
X11623223Y-8200000D01*
X8376777Y-11800000D02*
X8742766Y-11434010D01*
X8565989Y-11257234D02*
X8200000Y-11623223D01*
X8565989Y-11257234D02*
G75*
G02*
X8742766Y-11434011I159011J-17766D01*
G01*
X8742766Y-8565989D02*
X8376777Y-8200000D01*
X8742766Y-8565989D02*
G75*
G02*
X8565989Y-8742766I-17766J-159011D01*
G01*
X11257234Y-11434010D02*
G75*
G02*
X11434010Y-11257234I17766J159011D01*
G01*
X11257234Y-11434010D02*
X11623223Y-11800000D01*
X11434010Y-8742766D02*
G75*
G02*
X11257234Y-8565990I-159011J17766D01*
G01*
X11434010Y-8742766D02*
X11800000Y-8376777D01*
X11623223Y-8200000D02*
X11257234Y-8565989D01*
X11623223Y-11800000D02*
X8376777Y-11800000D01*
X11800000Y-8376777D02*
X11800000Y-11623223D01*
X11800000Y-11623223D02*
X11434010Y-11257234D01*
D11*
D10*
X8312500Y-8962500D02*
X8327500Y-8977500D01*
X8327500Y-8962500D02*
X8312500Y-8977500D01*
X8312500Y-9262500D02*
X8327500Y-9277500D01*
X8327500Y-9262500D02*
X8312500Y-9277500D01*
X8312500Y-9412500D02*
X8327500Y-9427500D01*
X8327500Y-9412500D02*
X8312500Y-9427500D01*
X8312500Y-10632500D02*
X8327500Y-10647500D01*
X8327500Y-10632500D02*
X8312500Y-10647500D01*
X8427000Y-9112500D02*
X8442000Y-9127500D01*
X8442000Y-9112500D02*
X8427000Y-9127500D01*
X8427000Y-10782500D02*
X8442000Y-10797500D01*
X8442000Y-10782500D02*
X8427000Y-10797500D01*
X8621500Y-9982500D02*
X8636500Y-9997500D01*
X8636500Y-9982500D02*
X8621500Y-9997500D01*
X8790000Y-9872500D02*
X8805000Y-9887500D01*
X8805000Y-9872500D02*
X8790000Y-9887500D01*
X8790000Y-9982500D02*
X8805000Y-9997500D01*
X8805000Y-9982500D02*
X8790000Y-9997500D01*
X8839780Y-9865410D02*
X8854780Y-9880410D01*
X8854780Y-9865410D02*
X8839780Y-9880410D01*
X8958000Y-9269500D02*
X8973000Y-9284500D01*
X8973000Y-9269500D02*
X8958000Y-9284500D01*
X8958000Y-9431000D02*
X8973000Y-9446000D01*
X8973000Y-9431000D02*
X8958000Y-9446000D01*
X8992500Y-8312500D02*
X9007500Y-8327500D01*
X9007500Y-8312500D02*
X8992500Y-8327500D01*
X9009500Y-9752500D02*
X9024500Y-9767500D01*
X9024500Y-9752500D02*
X9009500Y-9767500D01*
X9033100Y-9479690D02*
X9048100Y-9494690D01*
X9048100Y-9479690D02*
X9033100Y-9494690D01*
X9065500Y-9600500D02*
X9080500Y-9615500D01*
X9080500Y-9600500D02*
X9065500Y-9615500D01*
X9065500Y-10384500D02*
X9080500Y-10399500D01*
X9080500Y-10384500D02*
X9065500Y-10399500D01*
X9082500Y-10217500D02*
X9097500Y-10232500D01*
X9097500Y-10217500D02*
X9082500Y-10232500D01*
X9100580Y-9670610D02*
X9115580Y-9685610D01*
X9115580Y-9670610D02*
X9100580Y-9685610D01*
X9139500Y-10168000D02*
X9154500Y-10183000D01*
X9154500Y-10168000D02*
X9139500Y-10183000D01*
X9142500Y-8312500D02*
X9157500Y-8327500D01*
X9157500Y-8312500D02*
X9142500Y-8327500D01*
X9150250Y-10223300D02*
X9165250Y-10238300D01*
X9165250Y-10223300D02*
X9150250Y-10238300D01*
X9150250Y-10432700D02*
X9165250Y-10447700D01*
X9165250Y-10432700D02*
X9150250Y-10447700D01*
X9172500Y-10945000D02*
X9187500Y-10960000D01*
X9187500Y-10945000D02*
X9172500Y-10960000D01*
X9172500Y-11109000D02*
X9187500Y-11124000D01*
X9187500Y-11109000D02*
X9172500Y-11124000D01*
X9173000Y-8779500D02*
X9188000Y-8794500D01*
X9188000Y-8779500D02*
X9173000Y-8794500D01*
X9181410Y-10849300D02*
X9196410Y-10864300D01*
X9196410Y-10849300D02*
X9181410Y-10864300D01*
X9182500Y-9922500D02*
X9197500Y-9937500D01*
X9197500Y-9922500D02*
X9182500Y-9937500D01*
X9236410Y-9066750D02*
X9251410Y-9081750D01*
X9251410Y-9066750D02*
X9236410Y-9081750D01*
X9241280Y-10408700D02*
X9256280Y-10423700D01*
X9256280Y-10408700D02*
X9241280Y-10423700D01*
X9256780Y-9869350D02*
X9271780Y-9884350D01*
X9271780Y-9869350D02*
X9256780Y-9884350D01*
X9277390Y-10624060D02*
X9292390Y-10639060D01*
X9292390Y-10624060D02*
X9277390Y-10639060D01*
X9284320Y-10873700D02*
X9299320Y-10888700D01*
X9299320Y-10873700D02*
X9284320Y-10888700D01*
X9298000Y-10214500D02*
X9313000Y-10229500D01*
X9313000Y-10214500D02*
X9298000Y-10229500D01*
X9313100Y-10944700D02*
X9328100Y-10959700D01*
X9328100Y-10944700D02*
X9313100Y-10959700D01*
X9322050Y-9504300D02*
X9337050Y-9519300D01*
X9337050Y-9504300D02*
X9322050Y-9519300D01*
X9330900Y-9094310D02*
X9345900Y-9109310D01*
X9345900Y-9094310D02*
X9330900Y-9109310D01*
X9347870Y-8958060D02*
X9362870Y-8973060D01*
X9362870Y-8958060D02*
X9347870Y-8973060D01*
X9362500Y-8377500D02*
X9377500Y-8392500D01*
X9377500Y-8377500D02*
X9362500Y-8392500D01*
X9364270Y-10185000D02*
X9379270Y-10200000D01*
X9379270Y-10185000D02*
X9364270Y-10200000D01*
X9389520Y-11334500D02*
X9404520Y-11349500D01*
X9404520Y-11334500D02*
X9389520Y-11349500D01*
X9413040Y-9661500D02*
X9428040Y-9676500D01*
X9428040Y-9661500D02*
X9413040Y-9676500D01*
X9414000Y-10157500D02*
X9429000Y-10172500D01*
X9429000Y-10157500D02*
X9414000Y-10172500D01*
X9414000Y-10326000D02*
X9429000Y-10341000D01*
X9429000Y-10326000D02*
X9414000Y-10341000D01*
X9422000Y-11032000D02*
X9437000Y-11047000D01*
X9437000Y-11032000D02*
X9422000Y-11047000D01*
X9426690Y-9927500D02*
X9441690Y-9942500D01*
X9441690Y-9927500D02*
X9426690Y-9942500D01*
X9439500Y-9603000D02*
X9454500Y-9618000D01*
X9454500Y-9603000D02*
X9439500Y-9618000D01*
X9454620Y-9794330D02*
X9469620Y-9809330D01*
X9469620Y-9794330D02*
X9454620Y-9809330D01*
X9462500Y-11097500D02*
X9477500Y-11112500D01*
X9477500Y-11097500D02*
X9462500Y-11112500D01*
X9467500Y-10742500D02*
X9482500Y-10757500D01*
X9482500Y-10742500D02*
X9467500Y-10757500D01*
X9474860Y-10426000D02*
X9489860Y-10441000D01*
X9489860Y-10426000D02*
X9474860Y-10441000D01*
X9507250Y-11064700D02*
X9522250Y-11079700D01*
X9522250Y-11064700D02*
X9507250Y-11079700D01*
X9519750Y-8411660D02*
X9534750Y-8426660D01*
X9534750Y-8411660D02*
X9519750Y-8426660D01*
X9526860Y-9973550D02*
X9541860Y-9988550D01*
X9541860Y-9973550D02*
X9526860Y-9988550D01*
X9537500Y-9827500D02*
X9552500Y-9842500D01*
X9552500Y-9827500D02*
X9537500Y-9842500D01*
X9537500Y-9877500D02*
X9552500Y-9892500D01*
X9552500Y-9877500D02*
X9537500Y-9892500D01*
X9537500Y-10027500D02*
X9552500Y-10042500D01*
X9552500Y-10027500D02*
X9537500Y-10042500D01*
X9537500Y-10127500D02*
X9552500Y-10142500D01*
X9552500Y-10127500D02*
X9537500Y-10142500D01*
X9567500Y-10619000D02*
X9582500Y-10634000D01*
X9582500Y-10619000D02*
X9567500Y-10634000D01*
X9568980Y-10520100D02*
X9583980Y-10535100D01*
X9583980Y-10520100D02*
X9568980Y-10535100D01*
X9599500Y-9399500D02*
X9614500Y-9414500D01*
X9614500Y-9399500D02*
X9599500Y-9414500D01*
X9600200Y-11154800D02*
X9615200Y-11169800D01*
X9615200Y-11154800D02*
X9600200Y-11169800D01*
X9610900Y-10559300D02*
X9625900Y-10574300D01*
X9625900Y-10559300D02*
X9610900Y-10574300D01*
X9646730Y-9518910D02*
X9661730Y-9533910D01*
X9661730Y-9518910D02*
X9646730Y-9533910D01*
X9648000Y-8691500D02*
X9663000Y-8706500D01*
X9663000Y-8691500D02*
X9648000Y-8706500D01*
X9652500Y-9032500D02*
X9667500Y-9047500D01*
X9667500Y-9032500D02*
X9652500Y-9047500D01*
X9652500Y-9192500D02*
X9667500Y-9207500D01*
X9667500Y-9192500D02*
X9652500Y-9207500D01*
X9652500Y-9862500D02*
X9667500Y-9877500D01*
X9667500Y-9862500D02*
X9652500Y-9877500D01*
X9652500Y-10022500D02*
X9667500Y-10037500D01*
X9667500Y-10022500D02*
X9652500Y-10037500D01*
X9652500Y-10182500D02*
X9667500Y-10197500D01*
X9667500Y-10182500D02*
X9652500Y-10197500D01*
X9652500Y-10342500D02*
X9667500Y-10357500D01*
X9667500Y-10342500D02*
X9652500Y-10357500D01*
X9664230Y-9668340D02*
X9679230Y-9683340D01*
X9679230Y-9668340D02*
X9664230Y-9683340D01*
X9666500Y-9603000D02*
X9681500Y-9618000D01*
X9681500Y-9603000D02*
X9666500Y-9618000D01*
X9767500Y-11477500D02*
X9782500Y-11492500D01*
X9782500Y-11477500D02*
X9767500Y-11492500D01*
X9786390Y-8705050D02*
X9801390Y-8720050D01*
X9801390Y-8705050D02*
X9786390Y-8720050D01*
X9798040Y-8768040D02*
X9813040Y-8783040D01*
X9813040Y-8768040D02*
X9798040Y-8783040D01*
X9812500Y-9032500D02*
X9827500Y-9047500D01*
X9827500Y-9032500D02*
X9812500Y-9047500D01*
X9812500Y-9192500D02*
X9827500Y-9207500D01*
X9827500Y-9192500D02*
X9812500Y-9207500D01*
X9812500Y-9862500D02*
X9827500Y-9877500D01*
X9827500Y-9862500D02*
X9812500Y-9877500D01*
X9812500Y-10022500D02*
X9827500Y-10037500D01*
X9827500Y-10022500D02*
X9812500Y-10037500D01*
X9812500Y-10182500D02*
X9827500Y-10197500D01*
X9827500Y-10182500D02*
X9812500Y-10197500D01*
X9812500Y-10342500D02*
X9827500Y-10357500D01*
X9827500Y-10342500D02*
X9812500Y-10357500D01*
X9837860Y-9685560D02*
X9852860Y-9700560D01*
X9852860Y-9685560D02*
X9837860Y-9700560D01*
X9864690Y-8748920D02*
X9879690Y-8763920D01*
X9879690Y-8748920D02*
X9864690Y-8763920D01*
X9887250Y-9687620D02*
X9902250Y-9702620D01*
X9902250Y-9687620D02*
X9887250Y-9702620D01*
X9891350Y-11159670D02*
X9906350Y-11174670D01*
X9906350Y-11159670D02*
X9891350Y-11174670D01*
X9915000Y-11637500D02*
X9930000Y-11652500D01*
X9930000Y-11637500D02*
X9915000Y-11652500D01*
X9917500Y-10457500D02*
X9932500Y-10472500D01*
X9932500Y-10457500D02*
X9917500Y-10472500D01*
X9919940Y-8756270D02*
X9934940Y-8771270D01*
X9934940Y-8756270D02*
X9919940Y-8771270D01*
X9925500Y-9399500D02*
X9940500Y-9414500D01*
X9940500Y-9399500D02*
X9925500Y-9414500D01*
X9930510Y-11063780D02*
X9945510Y-11078780D01*
X9945510Y-11063780D02*
X9930510Y-11078780D01*
X9967500Y-9747500D02*
X9982500Y-9762500D01*
X9982500Y-9747500D02*
X9967500Y-9762500D01*
X9969750Y-8411660D02*
X9984750Y-8426660D01*
X9984750Y-8411660D02*
X9969750Y-8426660D01*
X9972500Y-9032500D02*
X9987500Y-9047500D01*
X9987500Y-9032500D02*
X9972500Y-9047500D01*
X9972500Y-9192500D02*
X9987500Y-9207500D01*
X9987500Y-9192500D02*
X9972500Y-9207500D01*
X9972500Y-9862500D02*
X9987500Y-9877500D01*
X9987500Y-9862500D02*
X9972500Y-9877500D01*
X9972500Y-10022500D02*
X9987500Y-10037500D01*
X9987500Y-10022500D02*
X9972500Y-10037500D01*
X9972500Y-10182500D02*
X9987500Y-10197500D01*
X9987500Y-10182500D02*
X9972500Y-10197500D01*
X9972500Y-10342500D02*
X9987500Y-10357500D01*
X9987500Y-10342500D02*
X9972500Y-10357500D01*
X9990500Y-9399500D02*
X10005500Y-9414500D01*
X10005500Y-9399500D02*
X9990500Y-9414500D01*
X9993000Y-8789500D02*
X10008000Y-8804500D01*
X10008000Y-8789500D02*
X9993000Y-8804500D01*
X9998600Y-8705050D02*
X10013600Y-8720050D01*
X10013600Y-8705050D02*
X9998600Y-8720050D01*
X10055500Y-8825500D02*
X10070500Y-8840500D01*
X10070500Y-8825500D02*
X10055500Y-8840500D01*
X10062500Y-8312500D02*
X10077500Y-8327500D01*
X10077500Y-8312500D02*
X10062500Y-8327500D01*
X10132500Y-9032500D02*
X10147500Y-9047500D01*
X10147500Y-9032500D02*
X10132500Y-9047500D01*
X10132500Y-9192500D02*
X10147500Y-9207500D01*
X10147500Y-9192500D02*
X10132500Y-9207500D01*
X10132500Y-9862500D02*
X10147500Y-9877500D01*
X10147500Y-9862500D02*
X10132500Y-9877500D01*
X10132500Y-10022500D02*
X10147500Y-10037500D01*
X10147500Y-10022500D02*
X10132500Y-10037500D01*
X10132500Y-10182500D02*
X10147500Y-10197500D01*
X10147500Y-10182500D02*
X10132500Y-10197500D01*
X10132500Y-10342500D02*
X10147500Y-10357500D01*
X10147500Y-10342500D02*
X10132500Y-10357500D01*
X10180940Y-9665660D02*
X10195940Y-9680660D01*
X10195940Y-9665660D02*
X10180940Y-9680660D01*
X10247500Y-9827500D02*
X10262500Y-9842500D01*
X10262500Y-9827500D02*
X10247500Y-9842500D01*
X10271000Y-8998020D02*
X10286000Y-9013020D01*
X10286000Y-8998020D02*
X10271000Y-9013020D01*
X10281340Y-10127500D02*
X10296340Y-10142500D01*
X10296340Y-10127500D02*
X10281340Y-10142500D01*
X10299500Y-8658000D02*
X10314500Y-8673000D01*
X10314500Y-8658000D02*
X10299500Y-8673000D01*
X10326600Y-10031700D02*
X10341600Y-10046700D01*
X10341600Y-10031700D02*
X10326600Y-10046700D01*
X10326700Y-9874230D02*
X10341700Y-9889230D01*
X10341700Y-9874230D02*
X10326700Y-9889230D01*
X10339000Y-9017500D02*
X10354000Y-9032500D01*
X10354000Y-9017500D02*
X10339000Y-9032500D01*
X10366000Y-9989270D02*
X10381000Y-10004270D01*
X10381000Y-9989270D02*
X10366000Y-10004270D01*
X10368000Y-10464500D02*
X10383000Y-10479500D01*
X10383000Y-10464500D02*
X10368000Y-10479500D01*
X10368000Y-10626000D02*
X10383000Y-10641000D01*
X10383000Y-10626000D02*
X10368000Y-10641000D01*
X10377380Y-10084700D02*
X10392380Y-10099700D01*
X10392380Y-10084700D02*
X10377380Y-10099700D01*
X10383000Y-9764500D02*
X10398000Y-9779500D01*
X10398000Y-9764500D02*
X10383000Y-9779500D01*
X10388600Y-10038900D02*
X10403600Y-10053900D01*
X10403600Y-10038900D02*
X10388600Y-10053900D01*
X10425200Y-8748590D02*
X10440200Y-8763590D01*
X10440200Y-8748590D02*
X10425200Y-8763590D01*
X10432500Y-9976000D02*
X10447500Y-9991000D01*
X10447500Y-9976000D02*
X10432500Y-9991000D01*
X10442500Y-10035200D02*
X10457500Y-10050200D01*
X10457500Y-10035200D02*
X10442500Y-10050200D01*
X10442500Y-10775000D02*
X10457500Y-10790000D01*
X10457500Y-10775000D02*
X10442500Y-10790000D01*
X10477500Y-9433500D02*
X10492500Y-9448500D01*
X10492500Y-9433500D02*
X10477500Y-9448500D01*
X10498000Y-9814500D02*
X10513000Y-9829500D01*
X10513000Y-9814500D02*
X10498000Y-9829500D01*
X10507500Y-9052500D02*
X10522500Y-9067500D01*
X10522500Y-9052500D02*
X10507500Y-9067500D01*
X10507500Y-9212500D02*
X10522500Y-9227500D01*
X10522500Y-9212500D02*
X10507500Y-9227500D01*
X10526500Y-8658000D02*
X10541500Y-8673000D01*
X10541500Y-8658000D02*
X10526500Y-8673000D01*
X10550800Y-10019600D02*
X10565800Y-10034600D01*
X10565800Y-10019600D02*
X10550800Y-10034600D01*
X10565000Y-9768000D02*
X10580000Y-9783000D01*
X10580000Y-9768000D02*
X10565000Y-9783000D01*
X10584400Y-8735530D02*
X10599400Y-8750530D01*
X10599400Y-8735530D02*
X10584400Y-8750530D01*
X10602500Y-10775000D02*
X10617500Y-10790000D01*
X10617500Y-10775000D02*
X10602500Y-10790000D01*
X10610270Y-10086500D02*
X10625270Y-10101500D01*
X10625270Y-10086500D02*
X10610270Y-10101500D01*
X10612500Y-10860500D02*
X10627500Y-10875500D01*
X10627500Y-10860500D02*
X10612500Y-10875500D01*
X10612500Y-11624500D02*
X10627500Y-11639500D01*
X10627500Y-11624500D02*
X10612500Y-11639500D01*
X10630000Y-9816730D02*
X10645000Y-9831730D01*
X10645000Y-9816730D02*
X10630000Y-9831730D01*
X10642500Y-8312500D02*
X10657500Y-8327500D01*
X10657500Y-8312500D02*
X10642500Y-8327500D01*
X10645700Y-10032700D02*
X10660700Y-10047700D01*
X10660700Y-10032700D02*
X10645700Y-10047700D01*
X10667500Y-9052500D02*
X10682500Y-9067500D01*
X10682500Y-9052500D02*
X10667500Y-9067500D01*
X10667500Y-9212500D02*
X10682500Y-9227500D01*
X10682500Y-9212500D02*
X10667500Y-9227500D01*
X10674700Y-10132200D02*
X10689700Y-10147200D01*
X10689700Y-10132200D02*
X10674700Y-10147200D01*
X10681700Y-10212500D02*
X10696700Y-10227500D01*
X10696700Y-10212500D02*
X10681700Y-10227500D01*
X10700300Y-10268300D02*
X10715300Y-10283300D01*
X10715300Y-10268300D02*
X10700300Y-10283300D01*
X10701230Y-9638770D02*
X10716230Y-9653770D01*
X10716230Y-9638770D02*
X10701230Y-9653770D01*
X10709020Y-9831830D02*
X10724020Y-9846830D01*
X10724020Y-9831830D02*
X10709020Y-9846830D01*
X10716700Y-10485000D02*
X10731700Y-10500000D01*
X10731700Y-10485000D02*
X10716700Y-10500000D01*
X10726500Y-9768000D02*
X10741500Y-9783000D01*
X10741500Y-9768000D02*
X10726500Y-9783000D01*
X10738000Y-9939500D02*
X10753000Y-9954500D01*
X10753000Y-9939500D02*
X10738000Y-9954500D01*
X10750600Y-9529470D02*
X10765600Y-9544470D01*
X10765600Y-9529470D02*
X10750600Y-9544470D01*
X10776000Y-9636730D02*
X10791000Y-9651730D01*
X10791000Y-9636730D02*
X10776000Y-9651730D01*
X10777500Y-10637500D02*
X10792500Y-10652500D01*
X10792500Y-10637500D02*
X10777500Y-10652500D01*
X10792500Y-8312500D02*
X10807500Y-8327500D01*
X10807500Y-8312500D02*
X10792500Y-8327500D01*
X10804430Y-10259650D02*
X10819430Y-10274650D01*
X10819430Y-10259650D02*
X10804430Y-10274650D01*
X10806700Y-9858680D02*
X10821700Y-9873680D01*
X10821700Y-9858680D02*
X10806700Y-9873680D01*
X10815970Y-10413060D02*
X10830970Y-10428060D01*
X10830970Y-10413060D02*
X10815970Y-10428060D01*
X10816220Y-8872780D02*
X10831220Y-8887780D01*
X10831220Y-8872780D02*
X10816220Y-8887780D01*
X10827500Y-9052500D02*
X10842500Y-9067500D01*
X10842500Y-9052500D02*
X10827500Y-9067500D01*
X10832500Y-11040500D02*
X10847500Y-11055500D01*
X10847500Y-11040500D02*
X10832500Y-11055500D01*
X10844000Y-10527500D02*
X10859000Y-10542500D01*
X10859000Y-10527500D02*
X10844000Y-10542500D01*
X10853000Y-10001000D02*
X10868000Y-10016000D01*
X10868000Y-10001000D02*
X10853000Y-10016000D01*
X10893000Y-10646300D02*
X10908000Y-10661300D01*
X10908000Y-10646300D02*
X10893000Y-10661300D01*
X10904700Y-10534700D02*
X10919700Y-10549700D01*
X10919700Y-10534700D02*
X10904700Y-10549700D01*
X10907500Y-10957500D02*
X10922500Y-10972500D01*
X10922500Y-10957500D02*
X10907500Y-10972500D01*
X10917470Y-10406600D02*
X10932470Y-10421600D01*
X10932470Y-10406600D02*
X10917470Y-10421600D01*
X10918600Y-10247300D02*
X10933600Y-10262300D01*
X10933600Y-10247300D02*
X10918600Y-10262300D01*
X10920200Y-8854150D02*
X10935200Y-8869150D01*
X10935200Y-8854150D02*
X10920200Y-8869150D01*
X10920200Y-9950850D02*
X10935200Y-9965850D01*
X10935200Y-9950850D02*
X10920200Y-9965850D01*
X10927500Y-10872500D02*
X10942500Y-10887500D01*
X10942500Y-10872500D02*
X10927500Y-10887500D01*
X10938000Y-10024500D02*
X10953000Y-10039500D01*
X10953000Y-10024500D02*
X10938000Y-10039500D01*
X10941500Y-10468000D02*
X10956500Y-10483000D01*
X10956500Y-10468000D02*
X10941500Y-10483000D01*
X10951100Y-9404410D02*
X10966100Y-9419410D01*
X10966100Y-9404410D02*
X10951100Y-9419410D01*
X10964000Y-10417500D02*
X10979000Y-10432500D01*
X10979000Y-10417500D02*
X10964000Y-10432500D01*
X10971340Y-11454100D02*
X10986340Y-11469100D01*
X10986340Y-11454100D02*
X10971340Y-11469100D01*
X10974440Y-10340000D02*
X10989440Y-10355000D01*
X10989440Y-10340000D02*
X10974440Y-10355000D01*
X10982500Y-11017500D02*
X10997500Y-11032500D01*
X10997500Y-11017500D02*
X10982500Y-11032500D01*
X10985200Y-9244000D02*
X11000200Y-9259000D01*
X11000200Y-9244000D02*
X10985200Y-9259000D01*
X11007510Y-9909370D02*
X11022510Y-9924370D01*
X11022510Y-9909370D02*
X11007510Y-9924370D01*
X11037000Y-9782000D02*
X11052000Y-9797000D01*
X11052000Y-9782000D02*
X11037000Y-9797000D01*
X11060820Y-9893860D02*
X11075820Y-9908860D01*
X11075820Y-9893860D02*
X11060820Y-9908860D01*
X11060820Y-10024200D02*
X11075820Y-10039200D01*
X11075820Y-10024200D02*
X11060820Y-10039200D01*
X11074000Y-10883500D02*
X11089000Y-10898500D01*
X11089000Y-10883500D02*
X11074000Y-10898500D01*
X11123800Y-9955740D02*
X11138800Y-9970740D01*
X11138800Y-9955740D02*
X11123800Y-9970740D01*
X11126000Y-9510500D02*
X11141000Y-9525500D01*
X11141000Y-9510500D02*
X11126000Y-9525500D01*
X11134850Y-9787190D02*
X11149850Y-9802190D01*
X11149850Y-9787190D02*
X11134850Y-9802190D01*
X11163150Y-9743350D02*
X11178150Y-9758350D01*
X11178150Y-9743350D02*
X11163150Y-9758350D01*
X11170200Y-9541790D02*
X11185200Y-9556790D01*
X11185200Y-9541790D02*
X11170200Y-9556790D01*
X11192000Y-9137000D02*
X11207000Y-9152000D01*
X11207000Y-9137000D02*
X11192000Y-9152000D01*
X11247500Y-9762500D02*
X11262500Y-9777500D01*
X11262500Y-9762500D02*
X11247500Y-9777500D01*
X11301200Y-9730750D02*
X11316200Y-9745750D01*
X11316200Y-9730750D02*
X11301200Y-9745750D01*
X11319200Y-9667230D02*
X11334200Y-9682230D01*
X11334200Y-9667230D02*
X11319200Y-9682230D01*
X11392500Y-10362500D02*
X11407500Y-10377500D01*
X11407500Y-10362500D02*
X11392500Y-10377500D01*
X11406500Y-9592500D02*
X11421500Y-9607500D01*
X11421500Y-9592500D02*
X11406500Y-9607500D01*
X11422500Y-10217500D02*
X11437500Y-10232500D01*
X11437500Y-10217500D02*
X11422500Y-10232500D01*
X11432500Y-10154000D02*
X11447500Y-10169000D01*
X11447500Y-10154000D02*
X11432500Y-10169000D01*
X11452270Y-10641500D02*
X11467270Y-10656500D01*
X11467270Y-10641500D02*
X11452270Y-10656500D01*
X11482500Y-10742500D02*
X11497500Y-10757500D01*
X11497500Y-10742500D02*
X11482500Y-10757500D01*
X11499490Y-10271890D02*
X11514490Y-10286890D01*
X11514490Y-10271890D02*
X11499490Y-10286890D01*
X11537500Y-10994000D02*
X11552500Y-11009000D01*
X11552500Y-10994000D02*
X11537500Y-11009000D01*
X11551500Y-9324800D02*
X11566500Y-9339800D01*
X11566500Y-9324800D02*
X11551500Y-9339800D01*
X11554990Y-9536260D02*
X11569990Y-9551260D01*
X11569990Y-9536260D02*
X11554990Y-9551260D01*
X11580280Y-9834530D02*
X11595280Y-9849530D01*
X11595280Y-9834530D02*
X11580280Y-9849530D01*
X11590370Y-10353280D02*
X11605370Y-10368280D01*
X11605370Y-10353280D02*
X11590370Y-10368280D01*
X11592670Y-10608650D02*
X11607670Y-10623650D01*
X11607670Y-10608650D02*
X11592670Y-10623650D01*
X11652800Y-10347800D02*
X11667800Y-10362800D01*
X11667800Y-10347800D02*
X11652800Y-10362800D01*
X11660590Y-10460590D02*
X11675590Y-10475590D01*
X11675590Y-10460590D02*
X11660590Y-10475590D01*
X11672500Y-10082500D02*
X11687500Y-10097500D01*
X11687500Y-10082500D02*
X11672500Y-10097500D01*
X11709000Y-10506000D02*
X11724000Y-10521000D01*
X11724000Y-10506000D02*
X11709000Y-10521000D01*
X11715200Y-8999150D02*
X11730200Y-9014150D01*
X11730200Y-8999150D02*
X11715200Y-9014150D01*
X11726000Y-10702700D02*
X11741000Y-10717700D01*
X11741000Y-10702700D02*
X11726000Y-10717700D01*
X11729200Y-10833700D02*
X11744200Y-10848700D01*
X11744200Y-10833700D02*
X11729200Y-10848700D01*
X9121490Y-9934660D02*
G75*
G02*
X9096490Y-9934660I-12500J0D01*
G01*
X9096490Y-9934660D02*
G75*
G02*
X9121490Y-9934660I12500J0D01*
G01*
X9121490Y-10034700D02*
G75*
G02*
X9096490Y-10034700I-12500J0D01*
G01*
X9096490Y-10034700D02*
G75*
G02*
X9121490Y-10034700I12500J0D01*
G01*
X9342500Y-10740000D02*
G75*
G02*
X9317500Y-10740000I-12500J0D01*
G01*
X9317500Y-10740000D02*
G75*
G02*
X9342500Y-10740000I12500J0D01*
G01*
X9537500Y-8955000D02*
G75*
G02*
X9512500Y-8955000I-12500J0D01*
G01*
X9512500Y-8955000D02*
G75*
G02*
X9537500Y-8955000I12500J0D01*
G01*
X9572500Y-11655000D02*
G75*
G02*
X9547500Y-11655000I-12500J0D01*
G01*
X9547500Y-11655000D02*
G75*
G02*
X9572500Y-11655000I12500J0D01*
G01*
X9572500Y-11725000D02*
G75*
G02*
X9547500Y-11725000I-12500J0D01*
G01*
X9547500Y-11725000D02*
G75*
G02*
X9572500Y-11725000I12500J0D01*
G01*
X9577500Y-9715000D02*
G75*
G02*
X9552500Y-9715000I-12500J0D01*
G01*
X9552500Y-9715000D02*
G75*
G02*
X9577500Y-9715000I12500J0D01*
G01*
X9587500Y-8710000D02*
G75*
G02*
X9562500Y-8710000I-12500J0D01*
G01*
X9562500Y-8710000D02*
G75*
G02*
X9587500Y-8710000I12500J0D01*
G01*
X9612500Y-11090000D02*
G75*
G02*
X9587500Y-11090000I-12500J0D01*
G01*
X9587500Y-11090000D02*
G75*
G02*
X9612500Y-11090000I12500J0D01*
G01*
X9687500Y-10795000D02*
G75*
G02*
X9662500Y-10795000I-12500J0D01*
G01*
X9662500Y-10795000D02*
G75*
G02*
X9687500Y-10795000I12500J0D01*
G01*
X9712500Y-11090000D02*
G75*
G02*
X9687500Y-11090000I-12500J0D01*
G01*
X9687500Y-11090000D02*
G75*
G02*
X9712500Y-11090000I12500J0D01*
G01*
X9737500Y-8700000D02*
G75*
G02*
X9712500Y-8700000I-12500J0D01*
G01*
X9712500Y-8700000D02*
G75*
G02*
X9737500Y-8700000I12500J0D01*
G01*
X9737500Y-9695000D02*
G75*
G02*
X9712500Y-9695000I-12500J0D01*
G01*
X9712500Y-9695000D02*
G75*
G02*
X9737500Y-9695000I12500J0D01*
G01*
X9802500Y-9680000D02*
G75*
G02*
X9777500Y-9680000I-12500J0D01*
G01*
X9777500Y-9680000D02*
G75*
G02*
X9802500Y-9680000I12500J0D01*
G01*
X9812500Y-11090000D02*
G75*
G02*
X9787500Y-11090000I-12500J0D01*
G01*
X9787500Y-11090000D02*
G75*
G02*
X9812500Y-11090000I12500J0D01*
G01*
X9902500Y-11408000D02*
G75*
G02*
X9877500Y-11408000I-12500J0D01*
G01*
X9877500Y-11408000D02*
G75*
G02*
X9902500Y-11408000I12500J0D01*
G01*
X9902500Y-11508000D02*
G75*
G02*
X9877500Y-11508000I-12500J0D01*
G01*
X9877500Y-11508000D02*
G75*
G02*
X9902500Y-11508000I12500J0D01*
G01*
X10332500Y-10375000D02*
G75*
G02*
X10307500Y-10375000I-12500J0D01*
G01*
X10307500Y-10375000D02*
G75*
G02*
X10332500Y-10375000I12500J0D01*
G01*
X10357500Y-10230000D02*
G75*
G02*
X10332500Y-10230000I-12500J0D01*
G01*
X10332500Y-10230000D02*
G75*
G02*
X10357500Y-10230000I12500J0D01*
G01*
X10545100Y-10684500D02*
G75*
G02*
X10520100Y-10684500I-12500J0D01*
G01*
X10520100Y-10684500D02*
G75*
G02*
X10545100Y-10684500I12500J0D01*
G01*
X10730700Y-10895400D02*
G75*
G02*
X10705700Y-10895400I-12500J0D01*
G01*
X10705700Y-10895400D02*
G75*
G02*
X10730700Y-10895400I12500J0D01*
G01*
X10795300Y-10819500D02*
G75*
G02*
X10770300Y-10819500I-12500J0D01*
G01*
X10770300Y-10819500D02*
G75*
G02*
X10795300Y-10819500I12500J0D01*
G01*
X11212500Y-10450000D02*
G75*
G02*
X11187500Y-10450000I-12500J0D01*
G01*
X11187500Y-10450000D02*
G75*
G02*
X11212500Y-10450000I12500J0D01*
G01*
X11212500Y-10550000D02*
G75*
G02*
X11187500Y-10550000I-12500J0D01*
G01*
X11187500Y-10550000D02*
G75*
G02*
X11212500Y-10550000I12500J0D01*
G01*
X11282500Y-10910000D02*
G75*
G02*
X11257500Y-10910000I-12500J0D01*
G01*
X11257500Y-10910000D02*
G75*
G02*
X11282500Y-10910000I12500J0D01*
G01*
X11362500Y-10910000D02*
G75*
G02*
X11337500Y-10910000I-12500J0D01*
G01*
X11337500Y-10910000D02*
G75*
G02*
X11362500Y-10910000I12500J0D01*
G01*
X11402500Y-9170000D02*
G75*
G02*
X11377500Y-9170000I-12500J0D01*
G01*
X11377500Y-9170000D02*
G75*
G02*
X11402500Y-9170000I12500J0D01*
G01*
X11442500Y-10910000D02*
G75*
G02*
X11417500Y-10910000I-12500J0D01*
G01*
X11417500Y-10910000D02*
G75*
G02*
X11442500Y-10910000I12500J0D01*
G01*
X11482500Y-9170000D02*
G75*
G02*
X11457500Y-9170000I-12500J0D01*
G01*
X11457500Y-9170000D02*
G75*
G02*
X11482500Y-9170000I12500J0D01*
G01*
X8541000Y-9538000D02*
X8541000Y-9598000D01*
X8511000Y-9568000D02*
X8571000Y-9568000D01*
X8581000Y-9538000D02*
X8501000Y-9538000D01*
X8501000Y-9598000D02*
G75*
G02*
X8501000Y-9538000I0J30000D01*
G01*
X8501000Y-9598000D02*
X8581000Y-9598000D01*
X8581000Y-9598000D02*
G75*
G03*
X8581000Y-9538000I0J30000D01*
G01*
X8541000Y-10402000D02*
X8541000Y-10462000D01*
X8511000Y-10432000D02*
X8571000Y-10432000D01*
X8581000Y-10402000D02*
X8501000Y-10402000D01*
X8501000Y-10462000D02*
G75*
G02*
X8501000Y-10402000I0J30000D01*
G01*
X8501000Y-10462000D02*
X8581000Y-10462000D01*
X8581000Y-10462000D02*
G75*
G03*
X8581000Y-10402000I0J30000D01*
G01*
X8959000Y-9538000D02*
X8959000Y-9598000D01*
X8929000Y-9568000D02*
X8989000Y-9568000D01*
X9014001Y-9538000D02*
X8903999Y-9538000D01*
X8903999Y-9598000D02*
G75*
G02*
X8903999Y-9538000I0J30000D01*
G01*
X8903999Y-9598000D02*
X9014001Y-9598000D01*
X9014001Y-9598000D02*
G75*
G03*
X9014001Y-9538000I0J30000D01*
G01*
X8959000Y-10402000D02*
X8959000Y-10462000D01*
X8929000Y-10432000D02*
X8989000Y-10432000D01*
X9014000Y-10402000D02*
X8904000Y-10402000D01*
X8904000Y-10462000D02*
G75*
G02*
X8904000Y-10402000I0J30000D01*
G01*
X8904000Y-10462000D02*
X9014000Y-10462000D01*
X9014000Y-10462000D02*
G75*
G03*
X9014000Y-10402000I0J30000D01*
G01*
D11*
X8455777Y-12116484D02*
X8455777Y-11916484D01*
X8455777Y-11916484D02*
X8503396Y-11916484D01*
X8503396Y-11916484D02*
X8531967Y-11926008D01*
X8531967Y-11926008D02*
X8551015Y-11945055D01*
X8551015Y-11945055D02*
X8560539Y-11964103D01*
X8560539Y-11964103D02*
X8570063Y-12002198D01*
X8570063Y-12002198D02*
X8570063Y-12030769D01*
X8570063Y-12030769D02*
X8560539Y-12068865D01*
X8560539Y-12068865D02*
X8551015Y-12087912D01*
X8551015Y-12087912D02*
X8531967Y-12106960D01*
X8531967Y-12106960D02*
X8503396Y-12116484D01*
X8503396Y-12116484D02*
X8455777Y-12116484D01*
X8655777Y-12116484D02*
X8655777Y-11983150D01*
X8655777Y-12021246D02*
X8665301Y-12002198D01*
X8665301Y-12002198D02*
X8674824Y-11992674D01*
X8674824Y-11992674D02*
X8693872Y-11983150D01*
X8693872Y-11983150D02*
X8712920Y-11983150D01*
X8779586Y-12116484D02*
X8779586Y-11983150D01*
X8779586Y-11916484D02*
X8770063Y-11926008D01*
X8770063Y-11926008D02*
X8779586Y-11935531D01*
X8779586Y-11935531D02*
X8789110Y-11926008D01*
X8789110Y-11926008D02*
X8779586Y-11916484D01*
X8779586Y-11916484D02*
X8779586Y-11935531D01*
X8903396Y-12116484D02*
X8884348Y-12106960D01*
X8884348Y-12106960D02*
X8874824Y-12087912D01*
X8874824Y-12087912D02*
X8874824Y-11916484D01*
X9008158Y-12116484D02*
X8989110Y-12106960D01*
X8989110Y-12106960D02*
X8979586Y-12087912D01*
X8979586Y-12087912D02*
X8979586Y-11916484D01*
X9236729Y-12116484D02*
X9236729Y-11916484D01*
X9236729Y-11916484D02*
X9303396Y-12059341D01*
X9303396Y-12059341D02*
X9370063Y-11916484D01*
X9370063Y-11916484D02*
X9370063Y-12116484D01*
X9551015Y-12116484D02*
X9551015Y-12011722D01*
X9551015Y-12011722D02*
X9541491Y-11992674D01*
X9541491Y-11992674D02*
X9522444Y-11983150D01*
X9522444Y-11983150D02*
X9484348Y-11983150D01*
X9484348Y-11983150D02*
X9465301Y-11992674D01*
X9551015Y-12106960D02*
X9531967Y-12116484D01*
X9531967Y-12116484D02*
X9484348Y-12116484D01*
X9484348Y-12116484D02*
X9465301Y-12106960D01*
X9465301Y-12106960D02*
X9455777Y-12087912D01*
X9455777Y-12087912D02*
X9455777Y-12068865D01*
X9455777Y-12068865D02*
X9465301Y-12049817D01*
X9465301Y-12049817D02*
X9484348Y-12040293D01*
X9484348Y-12040293D02*
X9531967Y-12040293D01*
X9531967Y-12040293D02*
X9551015Y-12030769D01*
X9646253Y-11983150D02*
X9646253Y-12183150D01*
X9646253Y-11992674D02*
X9665301Y-11983150D01*
X9665301Y-11983150D02*
X9703396Y-11983150D01*
X9703396Y-11983150D02*
X9722444Y-11992674D01*
X9722444Y-11992674D02*
X9731967Y-12002198D01*
X9731967Y-12002198D02*
X9741491Y-12021246D01*
X9741491Y-12021246D02*
X9741491Y-12078388D01*
X9741491Y-12078388D02*
X9731967Y-12097436D01*
X9731967Y-12097436D02*
X9722444Y-12106960D01*
X9722444Y-12106960D02*
X9703396Y-12116484D01*
X9703396Y-12116484D02*
X9665301Y-12116484D01*
X9665301Y-12116484D02*
X9646253Y-12106960D01*
X9827205Y-12097436D02*
X9836729Y-12106960D01*
X9836729Y-12106960D02*
X9827205Y-12116484D01*
X9827205Y-12116484D02*
X9817682Y-12106960D01*
X9817682Y-12106960D02*
X9827205Y-12097436D01*
X9827205Y-12097436D02*
X9827205Y-12116484D01*
X9827205Y-11992674D02*
X9836729Y-12002198D01*
X9836729Y-12002198D02*
X9827205Y-12011722D01*
X9827205Y-12011722D02*
X9817682Y-12002198D01*
X9817682Y-12002198D02*
X9827205Y-11992674D01*
X9827205Y-11992674D02*
X9827205Y-12011722D01*
D10*
X8180000Y-12437500D02*
X8195000Y-12452500D01*
X8195000Y-12437500D02*
X8180000Y-12452500D01*
D11*
X8493872Y-12336484D02*
X8512920Y-12336484D01*
X8512920Y-12336484D02*
X8531967Y-12346008D01*
X8531967Y-12346008D02*
X8541491Y-12355531D01*
X8541491Y-12355531D02*
X8551015Y-12374579D01*
X8551015Y-12374579D02*
X8560539Y-12412674D01*
X8560539Y-12412674D02*
X8560539Y-12460293D01*
X8560539Y-12460293D02*
X8551015Y-12498388D01*
X8551015Y-12498388D02*
X8541491Y-12517436D01*
X8541491Y-12517436D02*
X8531967Y-12526960D01*
X8531967Y-12526960D02*
X8512920Y-12536484D01*
X8512920Y-12536484D02*
X8493872Y-12536484D01*
X8493872Y-12536484D02*
X8474824Y-12526960D01*
X8474824Y-12526960D02*
X8465301Y-12517436D01*
X8465301Y-12517436D02*
X8455777Y-12498388D01*
X8455777Y-12498388D02*
X8446253Y-12460293D01*
X8446253Y-12460293D02*
X8446253Y-12412674D01*
X8446253Y-12412674D02*
X8455777Y-12374579D01*
X8455777Y-12374579D02*
X8465301Y-12355531D01*
X8465301Y-12355531D02*
X8474824Y-12346008D01*
X8474824Y-12346008D02*
X8493872Y-12336484D01*
X8646253Y-12517436D02*
X8655777Y-12526960D01*
X8655777Y-12526960D02*
X8646253Y-12536484D01*
X8646253Y-12536484D02*
X8636729Y-12526960D01*
X8636729Y-12526960D02*
X8646253Y-12517436D01*
X8646253Y-12517436D02*
X8646253Y-12536484D01*
X8846253Y-12536484D02*
X8731967Y-12536484D01*
X8789110Y-12536484D02*
X8789110Y-12336484D01*
X8789110Y-12336484D02*
X8770063Y-12365055D01*
X8770063Y-12365055D02*
X8751015Y-12384103D01*
X8751015Y-12384103D02*
X8731967Y-12393627D01*
X9027205Y-12336484D02*
X8931967Y-12336484D01*
X8931967Y-12336484D02*
X8922444Y-12431722D01*
X8922444Y-12431722D02*
X8931967Y-12422198D01*
X8931967Y-12422198D02*
X8951015Y-12412674D01*
X8951015Y-12412674D02*
X8998634Y-12412674D01*
X8998634Y-12412674D02*
X9017682Y-12422198D01*
X9017682Y-12422198D02*
X9027205Y-12431722D01*
X9027205Y-12431722D02*
X9036729Y-12450769D01*
X9036729Y-12450769D02*
X9036729Y-12498388D01*
X9036729Y-12498388D02*
X9027205Y-12517436D01*
X9027205Y-12517436D02*
X9017682Y-12526960D01*
X9017682Y-12526960D02*
X8998634Y-12536484D01*
X8998634Y-12536484D02*
X8951015Y-12536484D01*
X8951015Y-12536484D02*
X8931967Y-12526960D01*
X8931967Y-12526960D02*
X8922444Y-12517436D01*
X9160539Y-12336484D02*
X9179586Y-12336484D01*
X9179586Y-12336484D02*
X9198634Y-12346008D01*
X9198634Y-12346008D02*
X9208158Y-12355531D01*
X9208158Y-12355531D02*
X9217682Y-12374579D01*
X9217682Y-12374579D02*
X9227205Y-12412674D01*
X9227205Y-12412674D02*
X9227205Y-12460293D01*
X9227205Y-12460293D02*
X9217682Y-12498388D01*
X9217682Y-12498388D02*
X9208158Y-12517436D01*
X9208158Y-12517436D02*
X9198634Y-12526960D01*
X9198634Y-12526960D02*
X9179586Y-12536484D01*
X9179586Y-12536484D02*
X9160539Y-12536484D01*
X9160539Y-12536484D02*
X9141491Y-12526960D01*
X9141491Y-12526960D02*
X9131967Y-12517436D01*
X9131967Y-12517436D02*
X9122444Y-12498388D01*
X9122444Y-12498388D02*
X9112920Y-12460293D01*
X9112920Y-12460293D02*
X9112920Y-12412674D01*
X9112920Y-12412674D02*
X9122444Y-12374579D01*
X9122444Y-12374579D02*
X9131967Y-12355531D01*
X9131967Y-12355531D02*
X9141491Y-12346008D01*
X9141491Y-12346008D02*
X9160539Y-12336484D01*
X9312920Y-12536484D02*
X9312920Y-12403150D01*
X9312920Y-12422198D02*
X9322444Y-12412674D01*
X9322444Y-12412674D02*
X9341491Y-12403150D01*
X9341491Y-12403150D02*
X9370063Y-12403150D01*
X9370063Y-12403150D02*
X9389110Y-12412674D01*
X9389110Y-12412674D02*
X9398634Y-12431722D01*
X9398634Y-12431722D02*
X9398634Y-12536484D01*
X9398634Y-12431722D02*
X9408158Y-12412674D01*
X9408158Y-12412674D02*
X9427205Y-12403150D01*
X9427205Y-12403150D02*
X9455777Y-12403150D01*
X9455777Y-12403150D02*
X9474825Y-12412674D01*
X9474825Y-12412674D02*
X9484348Y-12431722D01*
X9484348Y-12431722D02*
X9484348Y-12536484D01*
X9579586Y-12536484D02*
X9579586Y-12403150D01*
X9579586Y-12422198D02*
X9589110Y-12412674D01*
X9589110Y-12412674D02*
X9608158Y-12403150D01*
X9608158Y-12403150D02*
X9636729Y-12403150D01*
X9636729Y-12403150D02*
X9655777Y-12412674D01*
X9655777Y-12412674D02*
X9665301Y-12431722D01*
X9665301Y-12431722D02*
X9665301Y-12536484D01*
X9665301Y-12431722D02*
X9674825Y-12412674D01*
X9674825Y-12412674D02*
X9693872Y-12403150D01*
X9693872Y-12403150D02*
X9722444Y-12403150D01*
X9722444Y-12403150D02*
X9741491Y-12412674D01*
X9741491Y-12412674D02*
X9751015Y-12431722D01*
X9751015Y-12431722D02*
X9751015Y-12536484D01*
X10141491Y-12326960D02*
X9970063Y-12584103D01*
X10398634Y-12336484D02*
X10417682Y-12336484D01*
X10417682Y-12336484D02*
X10436729Y-12346008D01*
X10436729Y-12346008D02*
X10446253Y-12355531D01*
X10446253Y-12355531D02*
X10455777Y-12374579D01*
X10455777Y-12374579D02*
X10465301Y-12412674D01*
X10465301Y-12412674D02*
X10465301Y-12460293D01*
X10465301Y-12460293D02*
X10455777Y-12498388D01*
X10455777Y-12498388D02*
X10446253Y-12517436D01*
X10446253Y-12517436D02*
X10436729Y-12526960D01*
X10436729Y-12526960D02*
X10417682Y-12536484D01*
X10417682Y-12536484D02*
X10398634Y-12536484D01*
X10398634Y-12536484D02*
X10379587Y-12526960D01*
X10379587Y-12526960D02*
X10370063Y-12517436D01*
X10370063Y-12517436D02*
X10360539Y-12498388D01*
X10360539Y-12498388D02*
X10351015Y-12460293D01*
X10351015Y-12460293D02*
X10351015Y-12412674D01*
X10351015Y-12412674D02*
X10360539Y-12374579D01*
X10360539Y-12374579D02*
X10370063Y-12355531D01*
X10370063Y-12355531D02*
X10379587Y-12346008D01*
X10379587Y-12346008D02*
X10398634Y-12336484D01*
X10551015Y-12517436D02*
X10560539Y-12526960D01*
X10560539Y-12526960D02*
X10551015Y-12536484D01*
X10551015Y-12536484D02*
X10541491Y-12526960D01*
X10541491Y-12526960D02*
X10551015Y-12517436D01*
X10551015Y-12517436D02*
X10551015Y-12536484D01*
X10684348Y-12336484D02*
X10703396Y-12336484D01*
X10703396Y-12336484D02*
X10722444Y-12346008D01*
X10722444Y-12346008D02*
X10731968Y-12355531D01*
X10731968Y-12355531D02*
X10741491Y-12374579D01*
X10741491Y-12374579D02*
X10751015Y-12412674D01*
X10751015Y-12412674D02*
X10751015Y-12460293D01*
X10751015Y-12460293D02*
X10741491Y-12498388D01*
X10741491Y-12498388D02*
X10731968Y-12517436D01*
X10731968Y-12517436D02*
X10722444Y-12526960D01*
X10722444Y-12526960D02*
X10703396Y-12536484D01*
X10703396Y-12536484D02*
X10684348Y-12536484D01*
X10684348Y-12536484D02*
X10665301Y-12526960D01*
X10665301Y-12526960D02*
X10655777Y-12517436D01*
X10655777Y-12517436D02*
X10646253Y-12498388D01*
X10646253Y-12498388D02*
X10636729Y-12460293D01*
X10636729Y-12460293D02*
X10636729Y-12412674D01*
X10636729Y-12412674D02*
X10646253Y-12374579D01*
X10646253Y-12374579D02*
X10655777Y-12355531D01*
X10655777Y-12355531D02*
X10665301Y-12346008D01*
X10665301Y-12346008D02*
X10684348Y-12336484D01*
X10874825Y-12336484D02*
X10893872Y-12336484D01*
X10893872Y-12336484D02*
X10912920Y-12346008D01*
X10912920Y-12346008D02*
X10922444Y-12355531D01*
X10922444Y-12355531D02*
X10931968Y-12374579D01*
X10931968Y-12374579D02*
X10941491Y-12412674D01*
X10941491Y-12412674D02*
X10941491Y-12460293D01*
X10941491Y-12460293D02*
X10931968Y-12498388D01*
X10931968Y-12498388D02*
X10922444Y-12517436D01*
X10922444Y-12517436D02*
X10912920Y-12526960D01*
X10912920Y-12526960D02*
X10893872Y-12536484D01*
X10893872Y-12536484D02*
X10874825Y-12536484D01*
X10874825Y-12536484D02*
X10855777Y-12526960D01*
X10855777Y-12526960D02*
X10846253Y-12517436D01*
X10846253Y-12517436D02*
X10836729Y-12498388D01*
X10836729Y-12498388D02*
X10827206Y-12460293D01*
X10827206Y-12460293D02*
X10827206Y-12412674D01*
X10827206Y-12412674D02*
X10836729Y-12374579D01*
X10836729Y-12374579D02*
X10846253Y-12355531D01*
X10846253Y-12355531D02*
X10855777Y-12346008D01*
X10855777Y-12346008D02*
X10874825Y-12336484D01*
X11122444Y-12336484D02*
X11027206Y-12336484D01*
X11027206Y-12336484D02*
X11017682Y-12431722D01*
X11017682Y-12431722D02*
X11027206Y-12422198D01*
X11027206Y-12422198D02*
X11046253Y-12412674D01*
X11046253Y-12412674D02*
X11093872Y-12412674D01*
X11093872Y-12412674D02*
X11112920Y-12422198D01*
X11112920Y-12422198D02*
X11122444Y-12431722D01*
X11122444Y-12431722D02*
X11131968Y-12450769D01*
X11131968Y-12450769D02*
X11131968Y-12498388D01*
X11131968Y-12498388D02*
X11122444Y-12517436D01*
X11122444Y-12517436D02*
X11112920Y-12526960D01*
X11112920Y-12526960D02*
X11093872Y-12536484D01*
X11093872Y-12536484D02*
X11046253Y-12536484D01*
X11046253Y-12536484D02*
X11027206Y-12526960D01*
X11027206Y-12526960D02*
X11017682Y-12517436D01*
X11227206Y-12536484D02*
X11265301Y-12536484D01*
X11265301Y-12536484D02*
X11284348Y-12526960D01*
X11284348Y-12526960D02*
X11293872Y-12517436D01*
X11293872Y-12517436D02*
X11312920Y-12488865D01*
X11312920Y-12488865D02*
X11322444Y-12450769D01*
X11322444Y-12450769D02*
X11322444Y-12374579D01*
X11322444Y-12374579D02*
X11312920Y-12355531D01*
X11312920Y-12355531D02*
X11303396Y-12346008D01*
X11303396Y-12346008D02*
X11284348Y-12336484D01*
X11284348Y-12336484D02*
X11246253Y-12336484D01*
X11246253Y-12336484D02*
X11227206Y-12346008D01*
X11227206Y-12346008D02*
X11217682Y-12355531D01*
X11217682Y-12355531D02*
X11208158Y-12374579D01*
X11208158Y-12374579D02*
X11208158Y-12422198D01*
X11208158Y-12422198D02*
X11217682Y-12441246D01*
X11217682Y-12441246D02*
X11227206Y-12450769D01*
X11227206Y-12450769D02*
X11246253Y-12460293D01*
X11246253Y-12460293D02*
X11284348Y-12460293D01*
X11284348Y-12460293D02*
X11303396Y-12450769D01*
X11303396Y-12450769D02*
X11312920Y-12441246D01*
X11312920Y-12441246D02*
X11322444Y-12422198D01*
X11398634Y-12336484D02*
X11398634Y-12374579D01*
X11474825Y-12336484D02*
X11474825Y-12374579D01*
X11770063Y-12612674D02*
X11760539Y-12603150D01*
X11760539Y-12603150D02*
X11741491Y-12574579D01*
X11741491Y-12574579D02*
X11731968Y-12555531D01*
X11731968Y-12555531D02*
X11722444Y-12526960D01*
X11722444Y-12526960D02*
X11712920Y-12479341D01*
X11712920Y-12479341D02*
X11712920Y-12441246D01*
X11712920Y-12441246D02*
X11722444Y-12393627D01*
X11722444Y-12393627D02*
X11731968Y-12365055D01*
X11731968Y-12365055D02*
X11741491Y-12346008D01*
X11741491Y-12346008D02*
X11760539Y-12317436D01*
X11760539Y-12317436D02*
X11770063Y-12307912D01*
X11836729Y-12355531D02*
X11846253Y-12346008D01*
X11846253Y-12346008D02*
X11865301Y-12336484D01*
X11865301Y-12336484D02*
X11912920Y-12336484D01*
X11912920Y-12336484D02*
X11931968Y-12346008D01*
X11931968Y-12346008D02*
X11941491Y-12355531D01*
X11941491Y-12355531D02*
X11951015Y-12374579D01*
X11951015Y-12374579D02*
X11951015Y-12393627D01*
X11951015Y-12393627D02*
X11941491Y-12422198D01*
X11941491Y-12422198D02*
X11827206Y-12536484D01*
X11827206Y-12536484D02*
X11951015Y-12536484D01*
X12141491Y-12536484D02*
X12027206Y-12536484D01*
X12084348Y-12536484D02*
X12084348Y-12336484D01*
X12084348Y-12336484D02*
X12065301Y-12365055D01*
X12065301Y-12365055D02*
X12046253Y-12384103D01*
X12046253Y-12384103D02*
X12027206Y-12393627D01*
X12322444Y-12336484D02*
X12227206Y-12336484D01*
X12227206Y-12336484D02*
X12217682Y-12431722D01*
X12217682Y-12431722D02*
X12227206Y-12422198D01*
X12227206Y-12422198D02*
X12246253Y-12412674D01*
X12246253Y-12412674D02*
X12293872Y-12412674D01*
X12293872Y-12412674D02*
X12312920Y-12422198D01*
X12312920Y-12422198D02*
X12322444Y-12431722D01*
X12322444Y-12431722D02*
X12331968Y-12450769D01*
X12331968Y-12450769D02*
X12331968Y-12498388D01*
X12331968Y-12498388D02*
X12322444Y-12517436D01*
X12322444Y-12517436D02*
X12312920Y-12526960D01*
X12312920Y-12526960D02*
X12293872Y-12536484D01*
X12293872Y-12536484D02*
X12246253Y-12536484D01*
X12246253Y-12536484D02*
X12227206Y-12526960D01*
X12227206Y-12526960D02*
X12217682Y-12517436D01*
X12570063Y-12536484D02*
X12570063Y-12336484D01*
X12655777Y-12536484D02*
X12655777Y-12431722D01*
X12655777Y-12431722D02*
X12646253Y-12412674D01*
X12646253Y-12412674D02*
X12627206Y-12403150D01*
X12627206Y-12403150D02*
X12598634Y-12403150D01*
X12598634Y-12403150D02*
X12579587Y-12412674D01*
X12579587Y-12412674D02*
X12570063Y-12422198D01*
X12779587Y-12536484D02*
X12760539Y-12526960D01*
X12760539Y-12526960D02*
X12751015Y-12517436D01*
X12751015Y-12517436D02*
X12741491Y-12498388D01*
X12741491Y-12498388D02*
X12741491Y-12441246D01*
X12741491Y-12441246D02*
X12751015Y-12422198D01*
X12751015Y-12422198D02*
X12760539Y-12412674D01*
X12760539Y-12412674D02*
X12779587Y-12403150D01*
X12779587Y-12403150D02*
X12808158Y-12403150D01*
X12808158Y-12403150D02*
X12827206Y-12412674D01*
X12827206Y-12412674D02*
X12836730Y-12422198D01*
X12836730Y-12422198D02*
X12846253Y-12441246D01*
X12846253Y-12441246D02*
X12846253Y-12498388D01*
X12846253Y-12498388D02*
X12836730Y-12517436D01*
X12836730Y-12517436D02*
X12827206Y-12526960D01*
X12827206Y-12526960D02*
X12808158Y-12536484D01*
X12808158Y-12536484D02*
X12779587Y-12536484D01*
X12960539Y-12536484D02*
X12941491Y-12526960D01*
X12941491Y-12526960D02*
X12931968Y-12507912D01*
X12931968Y-12507912D02*
X12931968Y-12336484D01*
X13112920Y-12526960D02*
X13093872Y-12536484D01*
X13093872Y-12536484D02*
X13055777Y-12536484D01*
X13055777Y-12536484D02*
X13036730Y-12526960D01*
X13036730Y-12526960D02*
X13027206Y-12507912D01*
X13027206Y-12507912D02*
X13027206Y-12431722D01*
X13027206Y-12431722D02*
X13036730Y-12412674D01*
X13036730Y-12412674D02*
X13055777Y-12403150D01*
X13055777Y-12403150D02*
X13093872Y-12403150D01*
X13093872Y-12403150D02*
X13112920Y-12412674D01*
X13112920Y-12412674D02*
X13122444Y-12431722D01*
X13122444Y-12431722D02*
X13122444Y-12450769D01*
X13122444Y-12450769D02*
X13027206Y-12469817D01*
X13198634Y-12526960D02*
X13217682Y-12536484D01*
X13217682Y-12536484D02*
X13255777Y-12536484D01*
X13255777Y-12536484D02*
X13274825Y-12526960D01*
X13274825Y-12526960D02*
X13284349Y-12507912D01*
X13284349Y-12507912D02*
X13284349Y-12498388D01*
X13284349Y-12498388D02*
X13274825Y-12479341D01*
X13274825Y-12479341D02*
X13255777Y-12469817D01*
X13255777Y-12469817D02*
X13227206Y-12469817D01*
X13227206Y-12469817D02*
X13208158Y-12460293D01*
X13208158Y-12460293D02*
X13198634Y-12441246D01*
X13198634Y-12441246D02*
X13198634Y-12431722D01*
X13198634Y-12431722D02*
X13208158Y-12412674D01*
X13208158Y-12412674D02*
X13227206Y-12403150D01*
X13227206Y-12403150D02*
X13255777Y-12403150D01*
X13255777Y-12403150D02*
X13274825Y-12412674D01*
X13351015Y-12612674D02*
X13360539Y-12603150D01*
X13360539Y-12603150D02*
X13379587Y-12574579D01*
X13379587Y-12574579D02*
X13389111Y-12555531D01*
X13389111Y-12555531D02*
X13398634Y-12526960D01*
X13398634Y-12526960D02*
X13408158Y-12479341D01*
X13408158Y-12479341D02*
X13408158Y-12441246D01*
X13408158Y-12441246D02*
X13398634Y-12393627D01*
X13398634Y-12393627D02*
X13389111Y-12365055D01*
X13389111Y-12365055D02*
X13379587Y-12346008D01*
X13379587Y-12346008D02*
X13360539Y-12317436D01*
X13360539Y-12317436D02*
X13351015Y-12307912D01*
D10*
X8195000Y-12709000D02*
G75*
G02*
X8170000Y-12709000I-12500J0D01*
G01*
X8170000Y-12709000D02*
G75*
G02*
X8195000Y-12709000I12500J0D01*
G01*
D11*
X8493872Y-12600484D02*
X8512920Y-12600484D01*
X8512920Y-12600484D02*
X8531967Y-12610008D01*
X8531967Y-12610008D02*
X8541491Y-12619531D01*
X8541491Y-12619531D02*
X8551015Y-12638579D01*
X8551015Y-12638579D02*
X8560539Y-12676674D01*
X8560539Y-12676674D02*
X8560539Y-12724293D01*
X8560539Y-12724293D02*
X8551015Y-12762388D01*
X8551015Y-12762388D02*
X8541491Y-12781436D01*
X8541491Y-12781436D02*
X8531967Y-12790960D01*
X8531967Y-12790960D02*
X8512920Y-12800484D01*
X8512920Y-12800484D02*
X8493872Y-12800484D01*
X8493872Y-12800484D02*
X8474824Y-12790960D01*
X8474824Y-12790960D02*
X8465301Y-12781436D01*
X8465301Y-12781436D02*
X8455777Y-12762388D01*
X8455777Y-12762388D02*
X8446253Y-12724293D01*
X8446253Y-12724293D02*
X8446253Y-12676674D01*
X8446253Y-12676674D02*
X8455777Y-12638579D01*
X8455777Y-12638579D02*
X8465301Y-12619531D01*
X8465301Y-12619531D02*
X8474824Y-12610008D01*
X8474824Y-12610008D02*
X8493872Y-12600484D01*
X8646253Y-12781436D02*
X8655777Y-12790960D01*
X8655777Y-12790960D02*
X8646253Y-12800484D01*
X8646253Y-12800484D02*
X8636729Y-12790960D01*
X8636729Y-12790960D02*
X8646253Y-12781436D01*
X8646253Y-12781436D02*
X8646253Y-12800484D01*
X8731967Y-12619531D02*
X8741491Y-12610008D01*
X8741491Y-12610008D02*
X8760539Y-12600484D01*
X8760539Y-12600484D02*
X8808158Y-12600484D01*
X8808158Y-12600484D02*
X8827205Y-12610008D01*
X8827205Y-12610008D02*
X8836729Y-12619531D01*
X8836729Y-12619531D02*
X8846253Y-12638579D01*
X8846253Y-12638579D02*
X8846253Y-12657627D01*
X8846253Y-12657627D02*
X8836729Y-12686198D01*
X8836729Y-12686198D02*
X8722444Y-12800484D01*
X8722444Y-12800484D02*
X8846253Y-12800484D01*
X9027205Y-12600484D02*
X8931967Y-12600484D01*
X8931967Y-12600484D02*
X8922444Y-12695722D01*
X8922444Y-12695722D02*
X8931967Y-12686198D01*
X8931967Y-12686198D02*
X8951015Y-12676674D01*
X8951015Y-12676674D02*
X8998634Y-12676674D01*
X8998634Y-12676674D02*
X9017682Y-12686198D01*
X9017682Y-12686198D02*
X9027205Y-12695722D01*
X9027205Y-12695722D02*
X9036729Y-12714769D01*
X9036729Y-12714769D02*
X9036729Y-12762388D01*
X9036729Y-12762388D02*
X9027205Y-12781436D01*
X9027205Y-12781436D02*
X9017682Y-12790960D01*
X9017682Y-12790960D02*
X8998634Y-12800484D01*
X8998634Y-12800484D02*
X8951015Y-12800484D01*
X8951015Y-12800484D02*
X8931967Y-12790960D01*
X8931967Y-12790960D02*
X8922444Y-12781436D01*
X9160539Y-12600484D02*
X9179586Y-12600484D01*
X9179586Y-12600484D02*
X9198634Y-12610008D01*
X9198634Y-12610008D02*
X9208158Y-12619531D01*
X9208158Y-12619531D02*
X9217682Y-12638579D01*
X9217682Y-12638579D02*
X9227205Y-12676674D01*
X9227205Y-12676674D02*
X9227205Y-12724293D01*
X9227205Y-12724293D02*
X9217682Y-12762388D01*
X9217682Y-12762388D02*
X9208158Y-12781436D01*
X9208158Y-12781436D02*
X9198634Y-12790960D01*
X9198634Y-12790960D02*
X9179586Y-12800484D01*
X9179586Y-12800484D02*
X9160539Y-12800484D01*
X9160539Y-12800484D02*
X9141491Y-12790960D01*
X9141491Y-12790960D02*
X9131967Y-12781436D01*
X9131967Y-12781436D02*
X9122444Y-12762388D01*
X9122444Y-12762388D02*
X9112920Y-12724293D01*
X9112920Y-12724293D02*
X9112920Y-12676674D01*
X9112920Y-12676674D02*
X9122444Y-12638579D01*
X9122444Y-12638579D02*
X9131967Y-12619531D01*
X9131967Y-12619531D02*
X9141491Y-12610008D01*
X9141491Y-12610008D02*
X9160539Y-12600484D01*
X9312920Y-12800484D02*
X9312920Y-12667150D01*
X9312920Y-12686198D02*
X9322444Y-12676674D01*
X9322444Y-12676674D02*
X9341491Y-12667150D01*
X9341491Y-12667150D02*
X9370063Y-12667150D01*
X9370063Y-12667150D02*
X9389110Y-12676674D01*
X9389110Y-12676674D02*
X9398634Y-12695722D01*
X9398634Y-12695722D02*
X9398634Y-12800484D01*
X9398634Y-12695722D02*
X9408158Y-12676674D01*
X9408158Y-12676674D02*
X9427205Y-12667150D01*
X9427205Y-12667150D02*
X9455777Y-12667150D01*
X9455777Y-12667150D02*
X9474825Y-12676674D01*
X9474825Y-12676674D02*
X9484348Y-12695722D01*
X9484348Y-12695722D02*
X9484348Y-12800484D01*
X9579586Y-12800484D02*
X9579586Y-12667150D01*
X9579586Y-12686198D02*
X9589110Y-12676674D01*
X9589110Y-12676674D02*
X9608158Y-12667150D01*
X9608158Y-12667150D02*
X9636729Y-12667150D01*
X9636729Y-12667150D02*
X9655777Y-12676674D01*
X9655777Y-12676674D02*
X9665301Y-12695722D01*
X9665301Y-12695722D02*
X9665301Y-12800484D01*
X9665301Y-12695722D02*
X9674825Y-12676674D01*
X9674825Y-12676674D02*
X9693872Y-12667150D01*
X9693872Y-12667150D02*
X9722444Y-12667150D01*
X9722444Y-12667150D02*
X9741491Y-12676674D01*
X9741491Y-12676674D02*
X9751015Y-12695722D01*
X9751015Y-12695722D02*
X9751015Y-12800484D01*
X10141491Y-12590960D02*
X9970063Y-12848103D01*
X10398634Y-12600484D02*
X10417682Y-12600484D01*
X10417682Y-12600484D02*
X10436729Y-12610008D01*
X10436729Y-12610008D02*
X10446253Y-12619531D01*
X10446253Y-12619531D02*
X10455777Y-12638579D01*
X10455777Y-12638579D02*
X10465301Y-12676674D01*
X10465301Y-12676674D02*
X10465301Y-12724293D01*
X10465301Y-12724293D02*
X10455777Y-12762388D01*
X10455777Y-12762388D02*
X10446253Y-12781436D01*
X10446253Y-12781436D02*
X10436729Y-12790960D01*
X10436729Y-12790960D02*
X10417682Y-12800484D01*
X10417682Y-12800484D02*
X10398634Y-12800484D01*
X10398634Y-12800484D02*
X10379587Y-12790960D01*
X10379587Y-12790960D02*
X10370063Y-12781436D01*
X10370063Y-12781436D02*
X10360539Y-12762388D01*
X10360539Y-12762388D02*
X10351015Y-12724293D01*
X10351015Y-12724293D02*
X10351015Y-12676674D01*
X10351015Y-12676674D02*
X10360539Y-12638579D01*
X10360539Y-12638579D02*
X10370063Y-12619531D01*
X10370063Y-12619531D02*
X10379587Y-12610008D01*
X10379587Y-12610008D02*
X10398634Y-12600484D01*
X10551015Y-12781436D02*
X10560539Y-12790960D01*
X10560539Y-12790960D02*
X10551015Y-12800484D01*
X10551015Y-12800484D02*
X10541491Y-12790960D01*
X10541491Y-12790960D02*
X10551015Y-12781436D01*
X10551015Y-12781436D02*
X10551015Y-12800484D01*
X10684348Y-12600484D02*
X10703396Y-12600484D01*
X10703396Y-12600484D02*
X10722444Y-12610008D01*
X10722444Y-12610008D02*
X10731968Y-12619531D01*
X10731968Y-12619531D02*
X10741491Y-12638579D01*
X10741491Y-12638579D02*
X10751015Y-12676674D01*
X10751015Y-12676674D02*
X10751015Y-12724293D01*
X10751015Y-12724293D02*
X10741491Y-12762388D01*
X10741491Y-12762388D02*
X10731968Y-12781436D01*
X10731968Y-12781436D02*
X10722444Y-12790960D01*
X10722444Y-12790960D02*
X10703396Y-12800484D01*
X10703396Y-12800484D02*
X10684348Y-12800484D01*
X10684348Y-12800484D02*
X10665301Y-12790960D01*
X10665301Y-12790960D02*
X10655777Y-12781436D01*
X10655777Y-12781436D02*
X10646253Y-12762388D01*
X10646253Y-12762388D02*
X10636729Y-12724293D01*
X10636729Y-12724293D02*
X10636729Y-12676674D01*
X10636729Y-12676674D02*
X10646253Y-12638579D01*
X10646253Y-12638579D02*
X10655777Y-12619531D01*
X10655777Y-12619531D02*
X10665301Y-12610008D01*
X10665301Y-12610008D02*
X10684348Y-12600484D01*
X10874825Y-12600484D02*
X10893872Y-12600484D01*
X10893872Y-12600484D02*
X10912920Y-12610008D01*
X10912920Y-12610008D02*
X10922444Y-12619531D01*
X10922444Y-12619531D02*
X10931968Y-12638579D01*
X10931968Y-12638579D02*
X10941491Y-12676674D01*
X10941491Y-12676674D02*
X10941491Y-12724293D01*
X10941491Y-12724293D02*
X10931968Y-12762388D01*
X10931968Y-12762388D02*
X10922444Y-12781436D01*
X10922444Y-12781436D02*
X10912920Y-12790960D01*
X10912920Y-12790960D02*
X10893872Y-12800484D01*
X10893872Y-12800484D02*
X10874825Y-12800484D01*
X10874825Y-12800484D02*
X10855777Y-12790960D01*
X10855777Y-12790960D02*
X10846253Y-12781436D01*
X10846253Y-12781436D02*
X10836729Y-12762388D01*
X10836729Y-12762388D02*
X10827206Y-12724293D01*
X10827206Y-12724293D02*
X10827206Y-12676674D01*
X10827206Y-12676674D02*
X10836729Y-12638579D01*
X10836729Y-12638579D02*
X10846253Y-12619531D01*
X10846253Y-12619531D02*
X10855777Y-12610008D01*
X10855777Y-12610008D02*
X10874825Y-12600484D01*
X11036729Y-12800484D02*
X11074825Y-12800484D01*
X11074825Y-12800484D02*
X11093872Y-12790960D01*
X11093872Y-12790960D02*
X11103396Y-12781436D01*
X11103396Y-12781436D02*
X11122444Y-12752865D01*
X11122444Y-12752865D02*
X11131968Y-12714769D01*
X11131968Y-12714769D02*
X11131968Y-12638579D01*
X11131968Y-12638579D02*
X11122444Y-12619531D01*
X11122444Y-12619531D02*
X11112920Y-12610008D01*
X11112920Y-12610008D02*
X11093872Y-12600484D01*
X11093872Y-12600484D02*
X11055777Y-12600484D01*
X11055777Y-12600484D02*
X11036729Y-12610008D01*
X11036729Y-12610008D02*
X11027206Y-12619531D01*
X11027206Y-12619531D02*
X11017682Y-12638579D01*
X11017682Y-12638579D02*
X11017682Y-12686198D01*
X11017682Y-12686198D02*
X11027206Y-12705246D01*
X11027206Y-12705246D02*
X11036729Y-12714769D01*
X11036729Y-12714769D02*
X11055777Y-12724293D01*
X11055777Y-12724293D02*
X11093872Y-12724293D01*
X11093872Y-12724293D02*
X11112920Y-12714769D01*
X11112920Y-12714769D02*
X11122444Y-12705246D01*
X11122444Y-12705246D02*
X11131968Y-12686198D01*
X11246253Y-12686198D02*
X11227206Y-12676674D01*
X11227206Y-12676674D02*
X11217682Y-12667150D01*
X11217682Y-12667150D02*
X11208158Y-12648103D01*
X11208158Y-12648103D02*
X11208158Y-12638579D01*
X11208158Y-12638579D02*
X11217682Y-12619531D01*
X11217682Y-12619531D02*
X11227206Y-12610008D01*
X11227206Y-12610008D02*
X11246253Y-12600484D01*
X11246253Y-12600484D02*
X11284348Y-12600484D01*
X11284348Y-12600484D02*
X11303396Y-12610008D01*
X11303396Y-12610008D02*
X11312920Y-12619531D01*
X11312920Y-12619531D02*
X11322444Y-12638579D01*
X11322444Y-12638579D02*
X11322444Y-12648103D01*
X11322444Y-12648103D02*
X11312920Y-12667150D01*
X11312920Y-12667150D02*
X11303396Y-12676674D01*
X11303396Y-12676674D02*
X11284348Y-12686198D01*
X11284348Y-12686198D02*
X11246253Y-12686198D01*
X11246253Y-12686198D02*
X11227206Y-12695722D01*
X11227206Y-12695722D02*
X11217682Y-12705246D01*
X11217682Y-12705246D02*
X11208158Y-12724293D01*
X11208158Y-12724293D02*
X11208158Y-12762388D01*
X11208158Y-12762388D02*
X11217682Y-12781436D01*
X11217682Y-12781436D02*
X11227206Y-12790960D01*
X11227206Y-12790960D02*
X11246253Y-12800484D01*
X11246253Y-12800484D02*
X11284348Y-12800484D01*
X11284348Y-12800484D02*
X11303396Y-12790960D01*
X11303396Y-12790960D02*
X11312920Y-12781436D01*
X11312920Y-12781436D02*
X11322444Y-12762388D01*
X11322444Y-12762388D02*
X11322444Y-12724293D01*
X11322444Y-12724293D02*
X11312920Y-12705246D01*
X11312920Y-12705246D02*
X11303396Y-12695722D01*
X11303396Y-12695722D02*
X11284348Y-12686198D01*
X11398634Y-12600484D02*
X11398634Y-12638579D01*
X11474825Y-12600484D02*
X11474825Y-12638579D01*
X11770063Y-12876674D02*
X11760539Y-12867150D01*
X11760539Y-12867150D02*
X11741491Y-12838579D01*
X11741491Y-12838579D02*
X11731968Y-12819531D01*
X11731968Y-12819531D02*
X11722444Y-12790960D01*
X11722444Y-12790960D02*
X11712920Y-12743341D01*
X11712920Y-12743341D02*
X11712920Y-12705246D01*
X11712920Y-12705246D02*
X11722444Y-12657627D01*
X11722444Y-12657627D02*
X11731968Y-12629055D01*
X11731968Y-12629055D02*
X11741491Y-12610008D01*
X11741491Y-12610008D02*
X11760539Y-12581436D01*
X11760539Y-12581436D02*
X11770063Y-12571912D01*
X11836729Y-12619531D02*
X11846253Y-12610008D01*
X11846253Y-12610008D02*
X11865301Y-12600484D01*
X11865301Y-12600484D02*
X11912920Y-12600484D01*
X11912920Y-12600484D02*
X11931968Y-12610008D01*
X11931968Y-12610008D02*
X11941491Y-12619531D01*
X11941491Y-12619531D02*
X11951015Y-12638579D01*
X11951015Y-12638579D02*
X11951015Y-12657627D01*
X11951015Y-12657627D02*
X11941491Y-12686198D01*
X11941491Y-12686198D02*
X11827206Y-12800484D01*
X11827206Y-12800484D02*
X11951015Y-12800484D01*
X12046253Y-12800484D02*
X12084348Y-12800484D01*
X12084348Y-12800484D02*
X12103396Y-12790960D01*
X12103396Y-12790960D02*
X12112920Y-12781436D01*
X12112920Y-12781436D02*
X12131968Y-12752865D01*
X12131968Y-12752865D02*
X12141491Y-12714769D01*
X12141491Y-12714769D02*
X12141491Y-12638579D01*
X12141491Y-12638579D02*
X12131968Y-12619531D01*
X12131968Y-12619531D02*
X12122444Y-12610008D01*
X12122444Y-12610008D02*
X12103396Y-12600484D01*
X12103396Y-12600484D02*
X12065301Y-12600484D01*
X12065301Y-12600484D02*
X12046253Y-12610008D01*
X12046253Y-12610008D02*
X12036729Y-12619531D01*
X12036729Y-12619531D02*
X12027206Y-12638579D01*
X12027206Y-12638579D02*
X12027206Y-12686198D01*
X12027206Y-12686198D02*
X12036729Y-12705246D01*
X12036729Y-12705246D02*
X12046253Y-12714769D01*
X12046253Y-12714769D02*
X12065301Y-12724293D01*
X12065301Y-12724293D02*
X12103396Y-12724293D01*
X12103396Y-12724293D02*
X12122444Y-12714769D01*
X12122444Y-12714769D02*
X12131968Y-12705246D01*
X12131968Y-12705246D02*
X12141491Y-12686198D01*
X12379587Y-12800484D02*
X12379587Y-12600484D01*
X12465301Y-12800484D02*
X12465301Y-12695722D01*
X12465301Y-12695722D02*
X12455777Y-12676674D01*
X12455777Y-12676674D02*
X12436730Y-12667150D01*
X12436730Y-12667150D02*
X12408158Y-12667150D01*
X12408158Y-12667150D02*
X12389110Y-12676674D01*
X12389110Y-12676674D02*
X12379587Y-12686198D01*
X12589110Y-12800484D02*
X12570063Y-12790960D01*
X12570063Y-12790960D02*
X12560539Y-12781436D01*
X12560539Y-12781436D02*
X12551015Y-12762388D01*
X12551015Y-12762388D02*
X12551015Y-12705246D01*
X12551015Y-12705246D02*
X12560539Y-12686198D01*
X12560539Y-12686198D02*
X12570063Y-12676674D01*
X12570063Y-12676674D02*
X12589110Y-12667150D01*
X12589110Y-12667150D02*
X12617682Y-12667150D01*
X12617682Y-12667150D02*
X12636730Y-12676674D01*
X12636730Y-12676674D02*
X12646253Y-12686198D01*
X12646253Y-12686198D02*
X12655777Y-12705246D01*
X12655777Y-12705246D02*
X12655777Y-12762388D01*
X12655777Y-12762388D02*
X12646253Y-12781436D01*
X12646253Y-12781436D02*
X12636730Y-12790960D01*
X12636730Y-12790960D02*
X12617682Y-12800484D01*
X12617682Y-12800484D02*
X12589110Y-12800484D01*
X12770063Y-12800484D02*
X12751015Y-12790960D01*
X12751015Y-12790960D02*
X12741491Y-12771912D01*
X12741491Y-12771912D02*
X12741491Y-12600484D01*
X12922444Y-12790960D02*
X12903396Y-12800484D01*
X12903396Y-12800484D02*
X12865301Y-12800484D01*
X12865301Y-12800484D02*
X12846253Y-12790960D01*
X12846253Y-12790960D02*
X12836730Y-12771912D01*
X12836730Y-12771912D02*
X12836730Y-12695722D01*
X12836730Y-12695722D02*
X12846253Y-12676674D01*
X12846253Y-12676674D02*
X12865301Y-12667150D01*
X12865301Y-12667150D02*
X12903396Y-12667150D01*
X12903396Y-12667150D02*
X12922444Y-12676674D01*
X12922444Y-12676674D02*
X12931968Y-12695722D01*
X12931968Y-12695722D02*
X12931968Y-12714769D01*
X12931968Y-12714769D02*
X12836730Y-12733817D01*
X13008158Y-12790960D02*
X13027206Y-12800484D01*
X13027206Y-12800484D02*
X13065301Y-12800484D01*
X13065301Y-12800484D02*
X13084349Y-12790960D01*
X13084349Y-12790960D02*
X13093872Y-12771912D01*
X13093872Y-12771912D02*
X13093872Y-12762388D01*
X13093872Y-12762388D02*
X13084349Y-12743341D01*
X13084349Y-12743341D02*
X13065301Y-12733817D01*
X13065301Y-12733817D02*
X13036730Y-12733817D01*
X13036730Y-12733817D02*
X13017682Y-12724293D01*
X13017682Y-12724293D02*
X13008158Y-12705246D01*
X13008158Y-12705246D02*
X13008158Y-12695722D01*
X13008158Y-12695722D02*
X13017682Y-12676674D01*
X13017682Y-12676674D02*
X13036730Y-12667150D01*
X13036730Y-12667150D02*
X13065301Y-12667150D01*
X13065301Y-12667150D02*
X13084349Y-12676674D01*
X13160539Y-12876674D02*
X13170063Y-12867150D01*
X13170063Y-12867150D02*
X13189111Y-12838579D01*
X13189111Y-12838579D02*
X13198634Y-12819531D01*
X13198634Y-12819531D02*
X13208158Y-12790960D01*
X13208158Y-12790960D02*
X13217682Y-12743341D01*
X13217682Y-12743341D02*
X13217682Y-12705246D01*
X13217682Y-12705246D02*
X13208158Y-12657627D01*
X13208158Y-12657627D02*
X13198634Y-12629055D01*
X13198634Y-12629055D02*
X13189111Y-12610008D01*
X13189111Y-12610008D02*
X13170063Y-12581436D01*
X13170063Y-12581436D02*
X13160539Y-12571912D01*
D10*
X8165000Y-12943000D02*
X8165000Y-13003000D01*
X8135000Y-12973000D02*
X8195000Y-12973000D01*
D11*
X8493872Y-12864484D02*
X8512920Y-12864484D01*
X8512920Y-12864484D02*
X8531967Y-12874008D01*
X8531967Y-12874008D02*
X8541491Y-12883531D01*
X8541491Y-12883531D02*
X8551015Y-12902579D01*
X8551015Y-12902579D02*
X8560539Y-12940674D01*
X8560539Y-12940674D02*
X8560539Y-12988293D01*
X8560539Y-12988293D02*
X8551015Y-13026388D01*
X8551015Y-13026388D02*
X8541491Y-13045436D01*
X8541491Y-13045436D02*
X8531967Y-13054960D01*
X8531967Y-13054960D02*
X8512920Y-13064484D01*
X8512920Y-13064484D02*
X8493872Y-13064484D01*
X8493872Y-13064484D02*
X8474824Y-13054960D01*
X8474824Y-13054960D02*
X8465301Y-13045436D01*
X8465301Y-13045436D02*
X8455777Y-13026388D01*
X8455777Y-13026388D02*
X8446253Y-12988293D01*
X8446253Y-12988293D02*
X8446253Y-12940674D01*
X8446253Y-12940674D02*
X8455777Y-12902579D01*
X8455777Y-12902579D02*
X8465301Y-12883531D01*
X8465301Y-12883531D02*
X8474824Y-12874008D01*
X8474824Y-12874008D02*
X8493872Y-12864484D01*
X8646253Y-13045436D02*
X8655777Y-13054960D01*
X8655777Y-13054960D02*
X8646253Y-13064484D01*
X8646253Y-13064484D02*
X8636729Y-13054960D01*
X8636729Y-13054960D02*
X8646253Y-13045436D01*
X8646253Y-13045436D02*
X8646253Y-13064484D01*
X8827205Y-12864484D02*
X8789110Y-12864484D01*
X8789110Y-12864484D02*
X8770063Y-12874008D01*
X8770063Y-12874008D02*
X8760539Y-12883531D01*
X8760539Y-12883531D02*
X8741491Y-12912103D01*
X8741491Y-12912103D02*
X8731967Y-12950198D01*
X8731967Y-12950198D02*
X8731967Y-13026388D01*
X8731967Y-13026388D02*
X8741491Y-13045436D01*
X8741491Y-13045436D02*
X8751015Y-13054960D01*
X8751015Y-13054960D02*
X8770063Y-13064484D01*
X8770063Y-13064484D02*
X8808158Y-13064484D01*
X8808158Y-13064484D02*
X8827205Y-13054960D01*
X8827205Y-13054960D02*
X8836729Y-13045436D01*
X8836729Y-13045436D02*
X8846253Y-13026388D01*
X8846253Y-13026388D02*
X8846253Y-12978769D01*
X8846253Y-12978769D02*
X8836729Y-12959722D01*
X8836729Y-12959722D02*
X8827205Y-12950198D01*
X8827205Y-12950198D02*
X8808158Y-12940674D01*
X8808158Y-12940674D02*
X8770063Y-12940674D01*
X8770063Y-12940674D02*
X8751015Y-12950198D01*
X8751015Y-12950198D02*
X8741491Y-12959722D01*
X8741491Y-12959722D02*
X8731967Y-12978769D01*
X8970063Y-12864484D02*
X8989110Y-12864484D01*
X8989110Y-12864484D02*
X9008158Y-12874008D01*
X9008158Y-12874008D02*
X9017682Y-12883531D01*
X9017682Y-12883531D02*
X9027205Y-12902579D01*
X9027205Y-12902579D02*
X9036729Y-12940674D01*
X9036729Y-12940674D02*
X9036729Y-12988293D01*
X9036729Y-12988293D02*
X9027205Y-13026388D01*
X9027205Y-13026388D02*
X9017682Y-13045436D01*
X9017682Y-13045436D02*
X9008158Y-13054960D01*
X9008158Y-13054960D02*
X8989110Y-13064484D01*
X8989110Y-13064484D02*
X8970063Y-13064484D01*
X8970063Y-13064484D02*
X8951015Y-13054960D01*
X8951015Y-13054960D02*
X8941491Y-13045436D01*
X8941491Y-13045436D02*
X8931967Y-13026388D01*
X8931967Y-13026388D02*
X8922444Y-12988293D01*
X8922444Y-12988293D02*
X8922444Y-12940674D01*
X8922444Y-12940674D02*
X8931967Y-12902579D01*
X8931967Y-12902579D02*
X8941491Y-12883531D01*
X8941491Y-12883531D02*
X8951015Y-12874008D01*
X8951015Y-12874008D02*
X8970063Y-12864484D01*
X9160539Y-12864484D02*
X9179586Y-12864484D01*
X9179586Y-12864484D02*
X9198634Y-12874008D01*
X9198634Y-12874008D02*
X9208158Y-12883531D01*
X9208158Y-12883531D02*
X9217682Y-12902579D01*
X9217682Y-12902579D02*
X9227205Y-12940674D01*
X9227205Y-12940674D02*
X9227205Y-12988293D01*
X9227205Y-12988293D02*
X9217682Y-13026388D01*
X9217682Y-13026388D02*
X9208158Y-13045436D01*
X9208158Y-13045436D02*
X9198634Y-13054960D01*
X9198634Y-13054960D02*
X9179586Y-13064484D01*
X9179586Y-13064484D02*
X9160539Y-13064484D01*
X9160539Y-13064484D02*
X9141491Y-13054960D01*
X9141491Y-13054960D02*
X9131967Y-13045436D01*
X9131967Y-13045436D02*
X9122444Y-13026388D01*
X9122444Y-13026388D02*
X9112920Y-12988293D01*
X9112920Y-12988293D02*
X9112920Y-12940674D01*
X9112920Y-12940674D02*
X9122444Y-12902579D01*
X9122444Y-12902579D02*
X9131967Y-12883531D01*
X9131967Y-12883531D02*
X9141491Y-12874008D01*
X9141491Y-12874008D02*
X9160539Y-12864484D01*
X9312920Y-13064484D02*
X9312920Y-12931150D01*
X9312920Y-12950198D02*
X9322444Y-12940674D01*
X9322444Y-12940674D02*
X9341491Y-12931150D01*
X9341491Y-12931150D02*
X9370063Y-12931150D01*
X9370063Y-12931150D02*
X9389110Y-12940674D01*
X9389110Y-12940674D02*
X9398634Y-12959722D01*
X9398634Y-12959722D02*
X9398634Y-13064484D01*
X9398634Y-12959722D02*
X9408158Y-12940674D01*
X9408158Y-12940674D02*
X9427205Y-12931150D01*
X9427205Y-12931150D02*
X9455777Y-12931150D01*
X9455777Y-12931150D02*
X9474825Y-12940674D01*
X9474825Y-12940674D02*
X9484348Y-12959722D01*
X9484348Y-12959722D02*
X9484348Y-13064484D01*
X9579586Y-13064484D02*
X9579586Y-12931150D01*
X9579586Y-12950198D02*
X9589110Y-12940674D01*
X9589110Y-12940674D02*
X9608158Y-12931150D01*
X9608158Y-12931150D02*
X9636729Y-12931150D01*
X9636729Y-12931150D02*
X9655777Y-12940674D01*
X9655777Y-12940674D02*
X9665301Y-12959722D01*
X9665301Y-12959722D02*
X9665301Y-13064484D01*
X9665301Y-12959722D02*
X9674825Y-12940674D01*
X9674825Y-12940674D02*
X9693872Y-12931150D01*
X9693872Y-12931150D02*
X9722444Y-12931150D01*
X9722444Y-12931150D02*
X9741491Y-12940674D01*
X9741491Y-12940674D02*
X9751015Y-12959722D01*
X9751015Y-12959722D02*
X9751015Y-13064484D01*
X10141491Y-12854960D02*
X9970063Y-13112103D01*
X10398634Y-12864484D02*
X10417682Y-12864484D01*
X10417682Y-12864484D02*
X10436729Y-12874008D01*
X10436729Y-12874008D02*
X10446253Y-12883531D01*
X10446253Y-12883531D02*
X10455777Y-12902579D01*
X10455777Y-12902579D02*
X10465301Y-12940674D01*
X10465301Y-12940674D02*
X10465301Y-12988293D01*
X10465301Y-12988293D02*
X10455777Y-13026388D01*
X10455777Y-13026388D02*
X10446253Y-13045436D01*
X10446253Y-13045436D02*
X10436729Y-13054960D01*
X10436729Y-13054960D02*
X10417682Y-13064484D01*
X10417682Y-13064484D02*
X10398634Y-13064484D01*
X10398634Y-13064484D02*
X10379587Y-13054960D01*
X10379587Y-13054960D02*
X10370063Y-13045436D01*
X10370063Y-13045436D02*
X10360539Y-13026388D01*
X10360539Y-13026388D02*
X10351015Y-12988293D01*
X10351015Y-12988293D02*
X10351015Y-12940674D01*
X10351015Y-12940674D02*
X10360539Y-12902579D01*
X10360539Y-12902579D02*
X10370063Y-12883531D01*
X10370063Y-12883531D02*
X10379587Y-12874008D01*
X10379587Y-12874008D02*
X10398634Y-12864484D01*
X10551015Y-13045436D02*
X10560539Y-13054960D01*
X10560539Y-13054960D02*
X10551015Y-13064484D01*
X10551015Y-13064484D02*
X10541491Y-13054960D01*
X10541491Y-13054960D02*
X10551015Y-13045436D01*
X10551015Y-13045436D02*
X10551015Y-13064484D01*
X10684348Y-12864484D02*
X10703396Y-12864484D01*
X10703396Y-12864484D02*
X10722444Y-12874008D01*
X10722444Y-12874008D02*
X10731968Y-12883531D01*
X10731968Y-12883531D02*
X10741491Y-12902579D01*
X10741491Y-12902579D02*
X10751015Y-12940674D01*
X10751015Y-12940674D02*
X10751015Y-12988293D01*
X10751015Y-12988293D02*
X10741491Y-13026388D01*
X10741491Y-13026388D02*
X10731968Y-13045436D01*
X10731968Y-13045436D02*
X10722444Y-13054960D01*
X10722444Y-13054960D02*
X10703396Y-13064484D01*
X10703396Y-13064484D02*
X10684348Y-13064484D01*
X10684348Y-13064484D02*
X10665301Y-13054960D01*
X10665301Y-13054960D02*
X10655777Y-13045436D01*
X10655777Y-13045436D02*
X10646253Y-13026388D01*
X10646253Y-13026388D02*
X10636729Y-12988293D01*
X10636729Y-12988293D02*
X10636729Y-12940674D01*
X10636729Y-12940674D02*
X10646253Y-12902579D01*
X10646253Y-12902579D02*
X10655777Y-12883531D01*
X10655777Y-12883531D02*
X10665301Y-12874008D01*
X10665301Y-12874008D02*
X10684348Y-12864484D01*
X10827206Y-12883531D02*
X10836729Y-12874008D01*
X10836729Y-12874008D02*
X10855777Y-12864484D01*
X10855777Y-12864484D02*
X10903396Y-12864484D01*
X10903396Y-12864484D02*
X10922444Y-12874008D01*
X10922444Y-12874008D02*
X10931968Y-12883531D01*
X10931968Y-12883531D02*
X10941491Y-12902579D01*
X10941491Y-12902579D02*
X10941491Y-12921627D01*
X10941491Y-12921627D02*
X10931968Y-12950198D01*
X10931968Y-12950198D02*
X10817682Y-13064484D01*
X10817682Y-13064484D02*
X10941491Y-13064484D01*
X11008158Y-12864484D02*
X11131968Y-12864484D01*
X11131968Y-12864484D02*
X11065301Y-12940674D01*
X11065301Y-12940674D02*
X11093872Y-12940674D01*
X11093872Y-12940674D02*
X11112920Y-12950198D01*
X11112920Y-12950198D02*
X11122444Y-12959722D01*
X11122444Y-12959722D02*
X11131968Y-12978769D01*
X11131968Y-12978769D02*
X11131968Y-13026388D01*
X11131968Y-13026388D02*
X11122444Y-13045436D01*
X11122444Y-13045436D02*
X11112920Y-13054960D01*
X11112920Y-13054960D02*
X11093872Y-13064484D01*
X11093872Y-13064484D02*
X11036729Y-13064484D01*
X11036729Y-13064484D02*
X11017682Y-13054960D01*
X11017682Y-13054960D02*
X11008158Y-13045436D01*
X11303396Y-12864484D02*
X11265301Y-12864484D01*
X11265301Y-12864484D02*
X11246253Y-12874008D01*
X11246253Y-12874008D02*
X11236729Y-12883531D01*
X11236729Y-12883531D02*
X11217682Y-12912103D01*
X11217682Y-12912103D02*
X11208158Y-12950198D01*
X11208158Y-12950198D02*
X11208158Y-13026388D01*
X11208158Y-13026388D02*
X11217682Y-13045436D01*
X11217682Y-13045436D02*
X11227206Y-13054960D01*
X11227206Y-13054960D02*
X11246253Y-13064484D01*
X11246253Y-13064484D02*
X11284348Y-13064484D01*
X11284348Y-13064484D02*
X11303396Y-13054960D01*
X11303396Y-13054960D02*
X11312920Y-13045436D01*
X11312920Y-13045436D02*
X11322444Y-13026388D01*
X11322444Y-13026388D02*
X11322444Y-12978769D01*
X11322444Y-12978769D02*
X11312920Y-12959722D01*
X11312920Y-12959722D02*
X11303396Y-12950198D01*
X11303396Y-12950198D02*
X11284348Y-12940674D01*
X11284348Y-12940674D02*
X11246253Y-12940674D01*
X11246253Y-12940674D02*
X11227206Y-12950198D01*
X11227206Y-12950198D02*
X11217682Y-12959722D01*
X11217682Y-12959722D02*
X11208158Y-12978769D01*
X11398634Y-12864484D02*
X11398634Y-12902579D01*
X11474825Y-12864484D02*
X11474825Y-12902579D01*
X11770063Y-13140674D02*
X11760539Y-13131150D01*
X11760539Y-13131150D02*
X11741491Y-13102579D01*
X11741491Y-13102579D02*
X11731968Y-13083531D01*
X11731968Y-13083531D02*
X11722444Y-13054960D01*
X11722444Y-13054960D02*
X11712920Y-13007341D01*
X11712920Y-13007341D02*
X11712920Y-12969246D01*
X11712920Y-12969246D02*
X11722444Y-12921627D01*
X11722444Y-12921627D02*
X11731968Y-12893055D01*
X11731968Y-12893055D02*
X11741491Y-12874008D01*
X11741491Y-12874008D02*
X11760539Y-12845436D01*
X11760539Y-12845436D02*
X11770063Y-12835912D01*
X11884348Y-12864484D02*
X11903396Y-12864484D01*
X11903396Y-12864484D02*
X11922444Y-12874008D01*
X11922444Y-12874008D02*
X11931968Y-12883531D01*
X11931968Y-12883531D02*
X11941491Y-12902579D01*
X11941491Y-12902579D02*
X11951015Y-12940674D01*
X11951015Y-12940674D02*
X11951015Y-12988293D01*
X11951015Y-12988293D02*
X11941491Y-13026388D01*
X11941491Y-13026388D02*
X11931968Y-13045436D01*
X11931968Y-13045436D02*
X11922444Y-13054960D01*
X11922444Y-13054960D02*
X11903396Y-13064484D01*
X11903396Y-13064484D02*
X11884348Y-13064484D01*
X11884348Y-13064484D02*
X11865301Y-13054960D01*
X11865301Y-13054960D02*
X11855777Y-13045436D01*
X11855777Y-13045436D02*
X11846253Y-13026388D01*
X11846253Y-13026388D02*
X11836729Y-12988293D01*
X11836729Y-12988293D02*
X11836729Y-12940674D01*
X11836729Y-12940674D02*
X11846253Y-12902579D01*
X11846253Y-12902579D02*
X11855777Y-12883531D01*
X11855777Y-12883531D02*
X11865301Y-12874008D01*
X11865301Y-12874008D02*
X11884348Y-12864484D01*
X12189110Y-13064484D02*
X12189110Y-12864484D01*
X12274825Y-13064484D02*
X12274825Y-12959722D01*
X12274825Y-12959722D02*
X12265301Y-12940674D01*
X12265301Y-12940674D02*
X12246253Y-12931150D01*
X12246253Y-12931150D02*
X12217682Y-12931150D01*
X12217682Y-12931150D02*
X12198634Y-12940674D01*
X12198634Y-12940674D02*
X12189110Y-12950198D01*
X12398634Y-13064484D02*
X12379587Y-13054960D01*
X12379587Y-13054960D02*
X12370063Y-13045436D01*
X12370063Y-13045436D02*
X12360539Y-13026388D01*
X12360539Y-13026388D02*
X12360539Y-12969246D01*
X12360539Y-12969246D02*
X12370063Y-12950198D01*
X12370063Y-12950198D02*
X12379587Y-12940674D01*
X12379587Y-12940674D02*
X12398634Y-12931150D01*
X12398634Y-12931150D02*
X12427206Y-12931150D01*
X12427206Y-12931150D02*
X12446253Y-12940674D01*
X12446253Y-12940674D02*
X12455777Y-12950198D01*
X12455777Y-12950198D02*
X12465301Y-12969246D01*
X12465301Y-12969246D02*
X12465301Y-13026388D01*
X12465301Y-13026388D02*
X12455777Y-13045436D01*
X12455777Y-13045436D02*
X12446253Y-13054960D01*
X12446253Y-13054960D02*
X12427206Y-13064484D01*
X12427206Y-13064484D02*
X12398634Y-13064484D01*
X12579587Y-13064484D02*
X12560539Y-13054960D01*
X12560539Y-13054960D02*
X12551015Y-13035912D01*
X12551015Y-13035912D02*
X12551015Y-12864484D01*
X12731968Y-13054960D02*
X12712920Y-13064484D01*
X12712920Y-13064484D02*
X12674825Y-13064484D01*
X12674825Y-13064484D02*
X12655777Y-13054960D01*
X12655777Y-13054960D02*
X12646253Y-13035912D01*
X12646253Y-13035912D02*
X12646253Y-12959722D01*
X12646253Y-12959722D02*
X12655777Y-12940674D01*
X12655777Y-12940674D02*
X12674825Y-12931150D01*
X12674825Y-12931150D02*
X12712920Y-12931150D01*
X12712920Y-12931150D02*
X12731968Y-12940674D01*
X12731968Y-12940674D02*
X12741491Y-12959722D01*
X12741491Y-12959722D02*
X12741491Y-12978769D01*
X12741491Y-12978769D02*
X12646253Y-12997817D01*
X12817682Y-13054960D02*
X12836730Y-13064484D01*
X12836730Y-13064484D02*
X12874825Y-13064484D01*
X12874825Y-13064484D02*
X12893872Y-13054960D01*
X12893872Y-13054960D02*
X12903396Y-13035912D01*
X12903396Y-13035912D02*
X12903396Y-13026388D01*
X12903396Y-13026388D02*
X12893872Y-13007341D01*
X12893872Y-13007341D02*
X12874825Y-12997817D01*
X12874825Y-12997817D02*
X12846253Y-12997817D01*
X12846253Y-12997817D02*
X12827206Y-12988293D01*
X12827206Y-12988293D02*
X12817682Y-12969246D01*
X12817682Y-12969246D02*
X12817682Y-12959722D01*
X12817682Y-12959722D02*
X12827206Y-12940674D01*
X12827206Y-12940674D02*
X12846253Y-12931150D01*
X12846253Y-12931150D02*
X12874825Y-12931150D01*
X12874825Y-12931150D02*
X12893872Y-12940674D01*
X13141492Y-12988293D02*
X13293873Y-12988293D01*
X13217682Y-13064484D02*
X13217682Y-12912103D01*
X13627206Y-12931150D02*
X13627206Y-13064484D01*
X13579587Y-12854960D02*
X13531968Y-12997817D01*
X13531968Y-12997817D02*
X13655777Y-12997817D01*
X13874825Y-13054960D02*
X13893873Y-13064484D01*
X13893873Y-13064484D02*
X13931968Y-13064484D01*
X13931968Y-13064484D02*
X13951015Y-13054960D01*
X13951015Y-13054960D02*
X13960539Y-13035912D01*
X13960539Y-13035912D02*
X13960539Y-13026388D01*
X13960539Y-13026388D02*
X13951015Y-13007341D01*
X13951015Y-13007341D02*
X13931968Y-12997817D01*
X13931968Y-12997817D02*
X13903396Y-12997817D01*
X13903396Y-12997817D02*
X13884349Y-12988293D01*
X13884349Y-12988293D02*
X13874825Y-12969246D01*
X13874825Y-12969246D02*
X13874825Y-12959722D01*
X13874825Y-12959722D02*
X13884349Y-12940674D01*
X13884349Y-12940674D02*
X13903396Y-12931150D01*
X13903396Y-12931150D02*
X13931968Y-12931150D01*
X13931968Y-12931150D02*
X13951015Y-12940674D01*
X14074825Y-13064484D02*
X14055777Y-13054960D01*
X14055777Y-13054960D02*
X14046254Y-13035912D01*
X14046254Y-13035912D02*
X14046254Y-12864484D01*
X14179587Y-13064484D02*
X14160539Y-13054960D01*
X14160539Y-13054960D02*
X14151015Y-13045436D01*
X14151015Y-13045436D02*
X14141492Y-13026388D01*
X14141492Y-13026388D02*
X14141492Y-12969246D01*
X14141492Y-12969246D02*
X14151015Y-12950198D01*
X14151015Y-12950198D02*
X14160539Y-12940674D01*
X14160539Y-12940674D02*
X14179587Y-12931150D01*
X14179587Y-12931150D02*
X14208158Y-12931150D01*
X14208158Y-12931150D02*
X14227206Y-12940674D01*
X14227206Y-12940674D02*
X14236730Y-12950198D01*
X14236730Y-12950198D02*
X14246254Y-12969246D01*
X14246254Y-12969246D02*
X14246254Y-13026388D01*
X14246254Y-13026388D02*
X14236730Y-13045436D01*
X14236730Y-13045436D02*
X14227206Y-13054960D01*
X14227206Y-13054960D02*
X14208158Y-13064484D01*
X14208158Y-13064484D02*
X14179587Y-13064484D01*
X14303396Y-12931150D02*
X14379587Y-12931150D01*
X14331968Y-12864484D02*
X14331968Y-13035912D01*
X14331968Y-13035912D02*
X14341492Y-13054960D01*
X14341492Y-13054960D02*
X14360539Y-13064484D01*
X14360539Y-13064484D02*
X14379587Y-13064484D01*
X14436730Y-13054960D02*
X14455777Y-13064484D01*
X14455777Y-13064484D02*
X14493873Y-13064484D01*
X14493873Y-13064484D02*
X14512920Y-13054960D01*
X14512920Y-13054960D02*
X14522444Y-13035912D01*
X14522444Y-13035912D02*
X14522444Y-13026388D01*
X14522444Y-13026388D02*
X14512920Y-13007341D01*
X14512920Y-13007341D02*
X14493873Y-12997817D01*
X14493873Y-12997817D02*
X14465301Y-12997817D01*
X14465301Y-12997817D02*
X14446254Y-12988293D01*
X14446254Y-12988293D02*
X14436730Y-12969246D01*
X14436730Y-12969246D02*
X14436730Y-12959722D01*
X14436730Y-12959722D02*
X14446254Y-12940674D01*
X14446254Y-12940674D02*
X14465301Y-12931150D01*
X14465301Y-12931150D02*
X14493873Y-12931150D01*
X14493873Y-12931150D02*
X14512920Y-12940674D01*
X14589111Y-13140674D02*
X14598635Y-13131150D01*
X14598635Y-13131150D02*
X14617682Y-13102579D01*
X14617682Y-13102579D02*
X14627206Y-13083531D01*
X14627206Y-13083531D02*
X14636730Y-13054960D01*
X14636730Y-13054960D02*
X14646254Y-13007341D01*
X14646254Y-13007341D02*
X14646254Y-12969246D01*
X14646254Y-12969246D02*
X14636730Y-12921627D01*
X14636730Y-12921627D02*
X14627206Y-12893055D01*
X14627206Y-12893055D02*
X14617682Y-12874008D01*
X14617682Y-12874008D02*
X14598635Y-12845436D01*
X14598635Y-12845436D02*
X14589111Y-12835912D01*
M02*
