%TF.GenerationSoftware,KiCad,Pcbnew,10.0.6-10.0.6~ubuntu24.04.1*%
%TF.CreationDate,2026-10-02T08:53:22+00:00*%
%TF.ProjectId,ridge3-fc,72696467-6533-42d6-9663-2e6b69636164,2.0*%
%TF.SameCoordinates,Original*%
%TF.FileFunction,Drillmap*%
%TF.FilePolarity,Positive*%
%FSLAX45Y45*%
G04 Gerber Fmt 4.5, Leading zero omitted, Abs format (unit mm)*
G04 Created by KiCad (PCBNEW 10.0.6-10.0.6~ubuntu24.04.1) date 2026-10-02 08:53:22*
%MOMM*%
%LPD*%
G01*
G04 APERTURE LIST*
%ADD10C,0.100000*%
%ADD11C,0.200000*%
G04 APERTURE END LIST*
D10*
X8200000Y-8471777D02*
G75*
G02*
X8240246Y-8443584I30000J-3D01*
G01*
X8200000Y-11528223D02*
X8200000Y-8471777D01*
X8240247Y-8443581D02*
G75*
G02*
X8313353Y-8490132I-68317J-187969D01*
G01*
X8240247Y-11556419D02*
G75*
G02*
X8199997Y-11528223I-10247J28199D01*
G01*
X8313354Y-8490131D02*
X8558910Y-8735687D01*
X8313354Y-11509869D02*
G75*
G02*
X8240248Y-11556420I-141424J141419D01*
G01*
X8443581Y-8240247D02*
G75*
G02*
X8471777Y-8199997I28199J10247D01*
G01*
X8443581Y-11759753D02*
G75*
G02*
X8490132Y-11686647I187969J-68317D01*
G01*
X8471777Y-8200000D02*
X11528223Y-8200000D01*
X8471777Y-11800000D02*
G75*
G02*
X8443584Y-11759754I3J30000D01*
G01*
X8490131Y-8313354D02*
G75*
G02*
X8443580Y-8240248I141419J141424D01*
G01*
X8490131Y-11686646D02*
X8735687Y-11441090D01*
X8558910Y-8735687D02*
G75*
G02*
X8567272Y-8751863I-21210J-21213D01*
G01*
X8558910Y-11264313D02*
X8313354Y-11509869D01*
X8567271Y-11248137D02*
G75*
G02*
X8558910Y-11264312I-29571J5037D01*
G01*
X8567271Y-11248137D02*
G75*
G02*
X8751863Y-11432729I157729J-26863D01*
G01*
X8735687Y-8558910D02*
X8490131Y-8313354D01*
X8735687Y-11441090D02*
G75*
G02*
X8751863Y-11432728I21213J-21210D01*
G01*
X8751863Y-8567271D02*
G75*
G02*
X8567271Y-8751863I-26863J-157729D01*
G01*
X8751863Y-8567271D02*
G75*
G02*
X8735688Y-8558910I5037J29571D01*
G01*
X11248137Y-11432729D02*
G75*
G02*
X11264312Y-11441090I-5037J-29571D01*
G01*
X11248137Y-11432729D02*
G75*
G02*
X11432729Y-11248137I26863J157729D01*
G01*
X11264313Y-8558910D02*
G75*
G02*
X11248137Y-8567272I-21213J21210D01*
G01*
X11264313Y-11441090D02*
X11509869Y-11686646D01*
X11432729Y-8751863D02*
G75*
G02*
X11248137Y-8567271I-157729J26863D01*
G01*
X11432729Y-8751863D02*
G75*
G02*
X11441090Y-8735687I29571J-5037D01*
G01*
X11441090Y-8735687D02*
X11686646Y-8490131D01*
X11441090Y-11264313D02*
G75*
G02*
X11432728Y-11248137I21210J21213D01*
G01*
X11509869Y-8313354D02*
X11264313Y-8558910D01*
X11509869Y-11686646D02*
G75*
G02*
X11556420Y-11759752I-141419J-141424D01*
G01*
X11528223Y-8200000D02*
G75*
G02*
X11556416Y-8240246I-3J-30000D01*
G01*
X11528223Y-11800000D02*
X8471777Y-11800000D01*
X11556419Y-8240247D02*
G75*
G02*
X11509868Y-8313353I-187969J68317D01*
G01*
X11556419Y-11759753D02*
G75*
G02*
X11528223Y-11800003I-28199J-10247D01*
G01*
X11686646Y-8490131D02*
G75*
G02*
X11759752Y-8443580I141424J-141419D01*
G01*
X11686646Y-11509869D02*
X11441090Y-11264313D01*
X11759753Y-8443581D02*
G75*
G02*
X11800003Y-8471777I10247J-28199D01*
G01*
X11759753Y-11556419D02*
G75*
G02*
X11686647Y-11509868I68317J187969D01*
G01*
X11800000Y-8471777D02*
X11800000Y-11528223D01*
X11800000Y-11528223D02*
G75*
G02*
X11759754Y-11556416I-30000J3D01*
G01*
D11*
D10*
X8427000Y-9112500D02*
X8442000Y-9127500D01*
X8442000Y-9112500D02*
X8427000Y-9127500D01*
X8427000Y-10782500D02*
X8442000Y-10797500D01*
X8442000Y-10782500D02*
X8427000Y-10797500D01*
X8441090Y-9449770D02*
X8456090Y-9464770D01*
X8456090Y-9449770D02*
X8441090Y-9464770D01*
X8607500Y-9212500D02*
X8622500Y-9227500D01*
X8622500Y-9212500D02*
X8607500Y-9227500D01*
X8621500Y-9982500D02*
X8636500Y-9997500D01*
X8636500Y-9982500D02*
X8621500Y-9997500D01*
X8732590Y-10632500D02*
X8747590Y-10647500D01*
X8747590Y-10632500D02*
X8732590Y-10647500D01*
X8740090Y-9344150D02*
X8755090Y-9359150D01*
X8755090Y-9344150D02*
X8740090Y-9359150D01*
X8790000Y-9872500D02*
X8805000Y-9887500D01*
X8805000Y-9872500D02*
X8790000Y-9887500D01*
X8790000Y-9982500D02*
X8805000Y-9997500D01*
X8805000Y-9982500D02*
X8790000Y-9997500D01*
X8798000Y-9306500D02*
X8813000Y-9321500D01*
X8813000Y-9306500D02*
X8798000Y-9321500D01*
X8827500Y-10087500D02*
X8842500Y-10102500D01*
X8842500Y-10087500D02*
X8827500Y-10102500D01*
X8839780Y-9865740D02*
X8854780Y-9880740D01*
X8854780Y-9865740D02*
X8839780Y-9880740D01*
X8857500Y-9402500D02*
X8872500Y-9417500D01*
X8872500Y-9402500D02*
X8857500Y-9417500D01*
X8882500Y-9442500D02*
X8897500Y-9457500D01*
X8897500Y-9442500D02*
X8882500Y-9457500D01*
X8896790Y-9305230D02*
X8911790Y-9320230D01*
X8911790Y-9305230D02*
X8896790Y-9320230D01*
X8919000Y-11652500D02*
X8934000Y-11667500D01*
X8934000Y-11652500D02*
X8919000Y-11667500D01*
X8928500Y-9752500D02*
X8943500Y-9767500D01*
X8943500Y-9752500D02*
X8928500Y-9767500D01*
X8964020Y-9588980D02*
X8979020Y-9603980D01*
X8979020Y-9588980D02*
X8964020Y-9603980D01*
X8974410Y-9492290D02*
X8989410Y-9507290D01*
X8989410Y-9492290D02*
X8974410Y-9507290D01*
X8984500Y-10384500D02*
X8999500Y-10399500D01*
X8999500Y-10384500D02*
X8984500Y-10399500D01*
X8990750Y-9278280D02*
X9005750Y-9293280D01*
X9005750Y-9278280D02*
X8990750Y-9293280D01*
X9021290Y-10274300D02*
X9036290Y-10289300D01*
X9036290Y-10274300D02*
X9021290Y-10289300D01*
X9027500Y-9647500D02*
X9042500Y-9662500D01*
X9042500Y-9647500D02*
X9027500Y-9662500D01*
X9072180Y-10534060D02*
X9087180Y-10549060D01*
X9087180Y-10534060D02*
X9072180Y-10549060D01*
X9084500Y-10348000D02*
X9099500Y-10363000D01*
X9099500Y-10348000D02*
X9084500Y-10363000D01*
X9125230Y-9046210D02*
X9140230Y-9061210D01*
X9140230Y-9046210D02*
X9125230Y-9061210D01*
X9132500Y-9692500D02*
X9147500Y-9707500D01*
X9147500Y-9692500D02*
X9132500Y-9707500D01*
X9170000Y-8730500D02*
X9185000Y-8745500D01*
X9185000Y-8730500D02*
X9170000Y-8745500D01*
X9172500Y-10945000D02*
X9187500Y-10960000D01*
X9187500Y-10945000D02*
X9172500Y-10960000D01*
X9191410Y-10849300D02*
X9206410Y-10864300D01*
X9206410Y-10849300D02*
X9191410Y-10864300D01*
X9242500Y-10937500D02*
X9257500Y-10952500D01*
X9257500Y-10937500D02*
X9242500Y-10952500D01*
X9252500Y-8922500D02*
X9267500Y-8937500D01*
X9267500Y-8922500D02*
X9252500Y-8937500D01*
X9252500Y-9684500D02*
X9267500Y-9699500D01*
X9267500Y-9684500D02*
X9252500Y-9699500D01*
X9256410Y-9111750D02*
X9271410Y-9126750D01*
X9271410Y-9111750D02*
X9256410Y-9126750D01*
X9269280Y-9895820D02*
X9284280Y-9910820D01*
X9284280Y-9895820D02*
X9269280Y-9910820D01*
X9294320Y-10873700D02*
X9309320Y-10888700D01*
X9309320Y-10873700D02*
X9294320Y-10888700D01*
X9303040Y-8452740D02*
X9318040Y-8467740D01*
X9318040Y-8452740D02*
X9303040Y-8467740D01*
X9311500Y-10348000D02*
X9326500Y-10363000D01*
X9326500Y-10348000D02*
X9311500Y-10363000D01*
X9320650Y-10077500D02*
X9335650Y-10092500D01*
X9335650Y-10077500D02*
X9320650Y-10092500D01*
X9322050Y-9681900D02*
X9337050Y-9696900D01*
X9337050Y-9681900D02*
X9322050Y-9696900D01*
X9327020Y-10540500D02*
X9342020Y-10555500D01*
X9342020Y-10540500D02*
X9327020Y-10555500D01*
X9340160Y-9989510D02*
X9355160Y-10004510D01*
X9355160Y-9989510D02*
X9340160Y-10004510D01*
X9342500Y-8912500D02*
X9357500Y-8927500D01*
X9357500Y-8912500D02*
X9342500Y-8927500D01*
X9350120Y-9158670D02*
X9365120Y-9173670D01*
X9365120Y-9158670D02*
X9350120Y-9173670D01*
X9362500Y-8342500D02*
X9377500Y-8357500D01*
X9377500Y-8342500D02*
X9362500Y-8357500D01*
X9371280Y-10962300D02*
X9386280Y-10977300D01*
X9386280Y-10962300D02*
X9371280Y-10977300D01*
X9372830Y-9957880D02*
X9387830Y-9972880D01*
X9387830Y-9957880D02*
X9372830Y-9972880D01*
X9385000Y-10245500D02*
X9400000Y-10260500D01*
X9400000Y-10245500D02*
X9385000Y-10260500D01*
X9400090Y-11348300D02*
X9415090Y-11363300D01*
X9415090Y-11348300D02*
X9400090Y-11363300D01*
X9431330Y-9827500D02*
X9446330Y-9842500D01*
X9446330Y-9827500D02*
X9431330Y-9842500D01*
X9433370Y-11244400D02*
X9448370Y-11259400D01*
X9448370Y-11244400D02*
X9433370Y-11259400D01*
X9434520Y-8937020D02*
X9449520Y-8952020D01*
X9449520Y-8937020D02*
X9434520Y-8952020D01*
X9439500Y-9603000D02*
X9454500Y-9618000D01*
X9454500Y-9603000D02*
X9439500Y-9618000D01*
X9447500Y-9547500D02*
X9462500Y-9562500D01*
X9462500Y-9547500D02*
X9447500Y-9562500D01*
X9454250Y-10246600D02*
X9469250Y-10261600D01*
X9469250Y-10246600D02*
X9454250Y-10261600D01*
X9467500Y-11152500D02*
X9482500Y-11167500D01*
X9482500Y-11152500D02*
X9467500Y-11167500D01*
X9474860Y-10426000D02*
X9489860Y-10441000D01*
X9489860Y-10426000D02*
X9474860Y-10441000D01*
X9487500Y-9922500D02*
X9502500Y-9937500D01*
X9502500Y-9922500D02*
X9487500Y-9937500D01*
X9492500Y-9232000D02*
X9507500Y-9247000D01*
X9507500Y-9232000D02*
X9492500Y-9247000D01*
X9493680Y-11044300D02*
X9508680Y-11059300D01*
X9508680Y-11044300D02*
X9493680Y-11059300D01*
X9519750Y-8411660D02*
X9534750Y-8426660D01*
X9534750Y-8411660D02*
X9519750Y-8426660D01*
X9521580Y-10542200D02*
X9536580Y-10557200D01*
X9536580Y-10542200D02*
X9521580Y-10557200D01*
X9521930Y-9183650D02*
X9536930Y-9198650D01*
X9536930Y-9183650D02*
X9521930Y-9198650D01*
X9537500Y-10127500D02*
X9552500Y-10142500D01*
X9552500Y-10127500D02*
X9537500Y-10142500D01*
X9537500Y-10227500D02*
X9552500Y-10242500D01*
X9552500Y-10227500D02*
X9537500Y-10242500D01*
X9537500Y-10277500D02*
X9552500Y-10292500D01*
X9552500Y-10277500D02*
X9537500Y-10292500D01*
X9568980Y-10520100D02*
X9583980Y-10535100D01*
X9583980Y-10520100D02*
X9568980Y-10535100D01*
X9605140Y-9399500D02*
X9620140Y-9414500D01*
X9620140Y-9399500D02*
X9605140Y-9414500D01*
X9646730Y-9518910D02*
X9661730Y-9533910D01*
X9661730Y-9518910D02*
X9646730Y-9533910D01*
X9652500Y-9032500D02*
X9667500Y-9047500D01*
X9667500Y-9032500D02*
X9652500Y-9047500D01*
X9652500Y-9862500D02*
X9667500Y-9877500D01*
X9667500Y-9862500D02*
X9652500Y-9877500D01*
X9652500Y-10022500D02*
X9667500Y-10037500D01*
X9667500Y-10022500D02*
X9652500Y-10037500D01*
X9652500Y-10182500D02*
X9667500Y-10197500D01*
X9667500Y-10182500D02*
X9652500Y-10197500D01*
X9652500Y-10342500D02*
X9667500Y-10357500D01*
X9667500Y-10342500D02*
X9652500Y-10357500D01*
X9664230Y-9668340D02*
X9679230Y-9683340D01*
X9679230Y-9668340D02*
X9664230Y-9683340D01*
X9666500Y-9603000D02*
X9681500Y-9618000D01*
X9681500Y-9603000D02*
X9666500Y-9618000D01*
X9686080Y-10811100D02*
X9701080Y-10826100D01*
X9701080Y-10811100D02*
X9686080Y-10826100D01*
X9718510Y-8954000D02*
X9733510Y-8969000D01*
X9733510Y-8954000D02*
X9718510Y-8969000D01*
X9719500Y-9058000D02*
X9734500Y-9073000D01*
X9734500Y-9058000D02*
X9719500Y-9073000D01*
X9740200Y-8850680D02*
X9755200Y-8865680D01*
X9755200Y-8850680D02*
X9740200Y-8865680D01*
X9755500Y-11450500D02*
X9770500Y-11465500D01*
X9770500Y-11450500D02*
X9755500Y-11465500D01*
X9786390Y-8705050D02*
X9801390Y-8720050D01*
X9801390Y-8705050D02*
X9786390Y-8720050D01*
X9810150Y-8809250D02*
X9825150Y-8824250D01*
X9825150Y-8809250D02*
X9810150Y-8824250D01*
X9812500Y-9032500D02*
X9827500Y-9047500D01*
X9827500Y-9032500D02*
X9812500Y-9047500D01*
X9812500Y-9862500D02*
X9827500Y-9877500D01*
X9827500Y-9862500D02*
X9812500Y-9877500D01*
X9812500Y-10022500D02*
X9827500Y-10037500D01*
X9827500Y-10022500D02*
X9812500Y-10037500D01*
X9812500Y-10182500D02*
X9827500Y-10197500D01*
X9827500Y-10182500D02*
X9812500Y-10197500D01*
X9812500Y-10342500D02*
X9827500Y-10357500D01*
X9827500Y-10342500D02*
X9812500Y-10357500D01*
X9832500Y-9512500D02*
X9847500Y-9527500D01*
X9847500Y-9512500D02*
X9832500Y-9527500D01*
X9850760Y-9673650D02*
X9865760Y-9688650D01*
X9865760Y-9673650D02*
X9850760Y-9688650D01*
X9866520Y-9719330D02*
X9881520Y-9734330D01*
X9881520Y-9719330D02*
X9866520Y-9734330D01*
X9915000Y-11637500D02*
X9930000Y-11652500D01*
X9930000Y-11637500D02*
X9915000Y-11652500D01*
X9917500Y-10457500D02*
X9932500Y-10472500D01*
X9932500Y-10457500D02*
X9917500Y-10472500D01*
X9925500Y-9399500D02*
X9940500Y-9414500D01*
X9940500Y-9399500D02*
X9925500Y-9414500D01*
X9950170Y-11203420D02*
X9965170Y-11218420D01*
X9965170Y-11203420D02*
X9950170Y-11218420D01*
X9967500Y-9647620D02*
X9982500Y-9662620D01*
X9982500Y-9647620D02*
X9967500Y-9662620D01*
X9969750Y-8411660D02*
X9984750Y-8426660D01*
X9984750Y-8411660D02*
X9969750Y-8426660D01*
X9972500Y-9032500D02*
X9987500Y-9047500D01*
X9987500Y-9032500D02*
X9972500Y-9047500D01*
X9972500Y-9192500D02*
X9987500Y-9207500D01*
X9987500Y-9192500D02*
X9972500Y-9207500D01*
X9972500Y-9862500D02*
X9987500Y-9877500D01*
X9987500Y-9862500D02*
X9972500Y-9877500D01*
X9972500Y-10022500D02*
X9987500Y-10037500D01*
X9987500Y-10022500D02*
X9972500Y-10037500D01*
X9972500Y-10182500D02*
X9987500Y-10197500D01*
X9987500Y-10182500D02*
X9972500Y-10197500D01*
X9972500Y-10342500D02*
X9987500Y-10357500D01*
X9987500Y-10342500D02*
X9972500Y-10357500D01*
X9993000Y-8789500D02*
X10008000Y-8804500D01*
X10008000Y-8789500D02*
X9993000Y-8804500D01*
X9998600Y-8705050D02*
X10013600Y-8720050D01*
X10013600Y-8705050D02*
X9998600Y-8720050D01*
X10007500Y-8352500D02*
X10022500Y-8367500D01*
X10022500Y-8352500D02*
X10007500Y-8367500D01*
X10062500Y-8847500D02*
X10077500Y-8862500D01*
X10077500Y-8847500D02*
X10062500Y-8862500D01*
X10132500Y-9032500D02*
X10147500Y-9047500D01*
X10147500Y-9032500D02*
X10132500Y-9047500D01*
X10132500Y-9192500D02*
X10147500Y-9207500D01*
X10147500Y-9192500D02*
X10132500Y-9207500D01*
X10132500Y-9862500D02*
X10147500Y-9877500D01*
X10147500Y-9862500D02*
X10132500Y-9877500D01*
X10132500Y-10022500D02*
X10147500Y-10037500D01*
X10147500Y-10022500D02*
X10132500Y-10037500D01*
X10132500Y-10182500D02*
X10147500Y-10197500D01*
X10147500Y-10182500D02*
X10132500Y-10197500D01*
X10132500Y-10342500D02*
X10147500Y-10357500D01*
X10147500Y-10342500D02*
X10132500Y-10357500D01*
X10247500Y-9827500D02*
X10262500Y-9842500D01*
X10262500Y-9827500D02*
X10247500Y-9842500D01*
X10249000Y-10737500D02*
X10264000Y-10752500D01*
X10264000Y-10737500D02*
X10249000Y-10752500D01*
X10271000Y-8998020D02*
X10286000Y-9013020D01*
X10286000Y-8998020D02*
X10271000Y-9013020D01*
X10282500Y-11377500D02*
X10297500Y-11392500D01*
X10297500Y-11377500D02*
X10282500Y-11392500D01*
X10299500Y-8658000D02*
X10314500Y-8673000D01*
X10314500Y-8658000D02*
X10299500Y-8673000D01*
X10301190Y-10496860D02*
X10316190Y-10511860D01*
X10316190Y-10496860D02*
X10301190Y-10511860D01*
X10301700Y-9771050D02*
X10316700Y-9786050D01*
X10316700Y-9771050D02*
X10301700Y-9786050D01*
X10325000Y-10011100D02*
X10340000Y-10026100D01*
X10340000Y-10011100D02*
X10325000Y-10026100D01*
X10326700Y-9874230D02*
X10341700Y-9889230D01*
X10341700Y-9874230D02*
X10326700Y-9889230D01*
X10339000Y-9017500D02*
X10354000Y-9032500D01*
X10354000Y-9017500D02*
X10339000Y-9032500D01*
X10354400Y-9969280D02*
X10369400Y-9984280D01*
X10369400Y-9969280D02*
X10354400Y-9984280D01*
X10357110Y-10047830D02*
X10372110Y-10062830D01*
X10372110Y-10047830D02*
X10357110Y-10062830D01*
X10364000Y-10737500D02*
X10379000Y-10752500D01*
X10379000Y-10737500D02*
X10364000Y-10752500D01*
X10368000Y-10469500D02*
X10383000Y-10484500D01*
X10383000Y-10469500D02*
X10368000Y-10484500D01*
X10390500Y-9930000D02*
X10405500Y-9945000D01*
X10405500Y-9930000D02*
X10390500Y-9945000D01*
X10425200Y-8748590D02*
X10440200Y-8763590D01*
X10440200Y-8748590D02*
X10425200Y-8763590D01*
X10473200Y-10691200D02*
X10488200Y-10706200D01*
X10488200Y-10691200D02*
X10473200Y-10706200D01*
X10477500Y-9433500D02*
X10492500Y-9448500D01*
X10492500Y-9433500D02*
X10477500Y-9448500D01*
X10507300Y-9834320D02*
X10522300Y-9849320D01*
X10522300Y-9834320D02*
X10507300Y-9849320D01*
X10507500Y-9052500D02*
X10522500Y-9067500D01*
X10522500Y-9052500D02*
X10507500Y-9067500D01*
X10507500Y-9212500D02*
X10522500Y-9227500D01*
X10522500Y-9212500D02*
X10507500Y-9227500D01*
X10523700Y-9741680D02*
X10538700Y-9756680D01*
X10538700Y-9741680D02*
X10523700Y-9756680D01*
X10526500Y-8658000D02*
X10541500Y-8673000D01*
X10541500Y-8658000D02*
X10526500Y-8673000D01*
X10542500Y-11622500D02*
X10557500Y-11637500D01*
X10557500Y-11622500D02*
X10542500Y-11637500D01*
X10550800Y-10019600D02*
X10565800Y-10034600D01*
X10565800Y-10019600D02*
X10550800Y-10034600D01*
X10564230Y-11430810D02*
X10579230Y-11445810D01*
X10579230Y-11430810D02*
X10564230Y-11445810D01*
X10568280Y-9713520D02*
X10583280Y-9728520D01*
X10583280Y-9713520D02*
X10568280Y-9728520D01*
X10584400Y-8735530D02*
X10599400Y-8750530D01*
X10599400Y-8735530D02*
X10584400Y-8750530D01*
X10592500Y-11612500D02*
X10607500Y-11627500D01*
X10607500Y-11612500D02*
X10592500Y-11627500D01*
X10664700Y-10117400D02*
X10679700Y-10132400D01*
X10679700Y-10117400D02*
X10664700Y-10132400D01*
X10679500Y-10368000D02*
X10694500Y-10383000D01*
X10694500Y-10368000D02*
X10679500Y-10383000D01*
X10681700Y-10212500D02*
X10696700Y-10227500D01*
X10696700Y-10212500D02*
X10681700Y-10227500D01*
X10687000Y-10313000D02*
X10702000Y-10328000D01*
X10702000Y-10313000D02*
X10687000Y-10328000D01*
X10692500Y-11501000D02*
X10707500Y-11516000D01*
X10707500Y-11501000D02*
X10692500Y-11516000D01*
X10706400Y-10085700D02*
X10721400Y-10100700D01*
X10721400Y-10085700D02*
X10706400Y-10100700D01*
X10709500Y-9930000D02*
X10724500Y-9945000D01*
X10724500Y-9930000D02*
X10709500Y-9945000D01*
X10722500Y-9600000D02*
X10737500Y-9615000D01*
X10737500Y-9600000D02*
X10722500Y-9615000D01*
X10722500Y-10875000D02*
X10737500Y-10890000D01*
X10737500Y-10875000D02*
X10722500Y-10890000D01*
X10722500Y-11350000D02*
X10737500Y-11365000D01*
X10737500Y-11350000D02*
X10722500Y-11365000D01*
X10731500Y-9788000D02*
X10746500Y-9803000D01*
X10746500Y-9788000D02*
X10731500Y-9803000D01*
X10763000Y-9869500D02*
X10778000Y-9884500D01*
X10778000Y-9869500D02*
X10763000Y-9884500D01*
X10779300Y-10323700D02*
X10794300Y-10338700D01*
X10794300Y-10323700D02*
X10779300Y-10338700D01*
X10792500Y-8312500D02*
X10807500Y-8327500D01*
X10807500Y-8312500D02*
X10792500Y-8327500D01*
X10792500Y-8827500D02*
X10807500Y-8842500D01*
X10807500Y-8827500D02*
X10792500Y-8842500D01*
X10795900Y-9506570D02*
X10810900Y-9521570D01*
X10810900Y-9506570D02*
X10795900Y-9521570D01*
X10801500Y-10129000D02*
X10816500Y-10144000D01*
X10816500Y-10129000D02*
X10801500Y-10144000D01*
X10814770Y-9769000D02*
X10829770Y-9784000D01*
X10829770Y-9769000D02*
X10814770Y-9784000D01*
X10817680Y-10274080D02*
X10832680Y-10289080D01*
X10832680Y-10274080D02*
X10817680Y-10289080D01*
X10825800Y-10482800D02*
X10840800Y-10497800D01*
X10840800Y-10482800D02*
X10825800Y-10497800D01*
X10829500Y-10707500D02*
X10844500Y-10722500D01*
X10844500Y-10707500D02*
X10829500Y-10722500D01*
X10832500Y-10382500D02*
X10847500Y-10397500D01*
X10847500Y-10382500D02*
X10832500Y-10397500D01*
X10841000Y-10433500D02*
X10856000Y-10448500D01*
X10856000Y-10433500D02*
X10841000Y-10448500D01*
X10861400Y-9894250D02*
X10876400Y-9909250D01*
X10876400Y-9894250D02*
X10861400Y-9909250D01*
X10882500Y-9600000D02*
X10897500Y-9615000D01*
X10897500Y-9600000D02*
X10882500Y-9615000D01*
X10882500Y-10875000D02*
X10897500Y-10890000D01*
X10897500Y-10875000D02*
X10882500Y-10890000D01*
X10882500Y-11350000D02*
X10897500Y-11365000D01*
X10897500Y-11350000D02*
X10882500Y-11365000D01*
X10896400Y-10482300D02*
X10911400Y-10497300D01*
X10911400Y-10482300D02*
X10896400Y-10497300D01*
X10909800Y-9516410D02*
X10924800Y-9531410D01*
X10924800Y-9516410D02*
X10909800Y-9531410D01*
X10919500Y-8837500D02*
X10934500Y-8852500D01*
X10934500Y-8837500D02*
X10919500Y-8852500D01*
X10922000Y-10032500D02*
X10937000Y-10047500D01*
X10937000Y-10032500D02*
X10922000Y-10047500D01*
X10951600Y-10480700D02*
X10966600Y-10495700D01*
X10966600Y-10480700D02*
X10951600Y-10495700D01*
X10987500Y-10317500D02*
X11002500Y-10332500D01*
X11002500Y-10317500D02*
X10987500Y-10332500D01*
X11007800Y-10043300D02*
X11022800Y-10058300D01*
X11022800Y-10043300D02*
X11007800Y-10058300D01*
X11022330Y-10422000D02*
X11037330Y-10437000D01*
X11037330Y-10422000D02*
X11022330Y-10437000D01*
X11026410Y-11048920D02*
X11041410Y-11063920D01*
X11041410Y-11048920D02*
X11026410Y-11063920D01*
X11073210Y-10327740D02*
X11088210Y-10342740D01*
X11088210Y-10327740D02*
X11073210Y-10342740D01*
X11080220Y-10267620D02*
X11095220Y-10282620D01*
X11095220Y-10267620D02*
X11080220Y-10282620D01*
X11099300Y-9840110D02*
X11114300Y-9855110D01*
X11114300Y-9840110D02*
X11099300Y-9855110D01*
X11147300Y-9929320D02*
X11162300Y-9944320D01*
X11162300Y-9929320D02*
X11147300Y-9944320D01*
X11155000Y-10013000D02*
X11170000Y-10028000D01*
X11170000Y-10013000D02*
X11155000Y-10028000D01*
X11165570Y-9024110D02*
X11180570Y-9039110D01*
X11180570Y-9024110D02*
X11165570Y-9039110D01*
X11172500Y-9654000D02*
X11187500Y-9669000D01*
X11187500Y-9654000D02*
X11172500Y-9669000D01*
X11234000Y-9599000D02*
X11249000Y-9614000D01*
X11249000Y-9599000D02*
X11234000Y-9614000D01*
X11271000Y-10246000D02*
X11286000Y-10261000D01*
X11286000Y-10246000D02*
X11271000Y-10261000D01*
X11294900Y-9382800D02*
X11309900Y-9397800D01*
X11309900Y-9382800D02*
X11294900Y-9397800D01*
X11305000Y-9645110D02*
X11320000Y-9660110D01*
X11320000Y-9645110D02*
X11305000Y-9660110D01*
X11314300Y-9996000D02*
X11329300Y-10011000D01*
X11329300Y-9996000D02*
X11314300Y-10011000D01*
X11355500Y-10590500D02*
X11370500Y-10605500D01*
X11370500Y-10590500D02*
X11355500Y-10605500D01*
X11357500Y-10797500D02*
X11372500Y-10812500D01*
X11372500Y-10797500D02*
X11357500Y-10812500D01*
X11357500Y-10847500D02*
X11372500Y-10862500D01*
X11372500Y-10847500D02*
X11357500Y-10862500D01*
X11365100Y-10343600D02*
X11380100Y-10358600D01*
X11380100Y-10343600D02*
X11365100Y-10358600D01*
X11406500Y-9592500D02*
X11421500Y-9607500D01*
X11421500Y-9592500D02*
X11406500Y-9607500D01*
X11411800Y-10916700D02*
X11426800Y-10931700D01*
X11426800Y-10916700D02*
X11411800Y-10931700D01*
X11440600Y-10477100D02*
X11455600Y-10492100D01*
X11455600Y-10477100D02*
X11440600Y-10492100D01*
X11530350Y-10951660D02*
X11545350Y-10966660D01*
X11545350Y-10951660D02*
X11530350Y-10966660D01*
X11533500Y-10387500D02*
X11548500Y-10402500D01*
X11548500Y-10387500D02*
X11533500Y-10402500D01*
X11652500Y-10919000D02*
X11667500Y-10934000D01*
X11667500Y-10919000D02*
X11652500Y-10934000D01*
X11733700Y-10313200D02*
X11748700Y-10328200D01*
X11748700Y-10313200D02*
X11733700Y-10328200D01*
X11733700Y-10871800D02*
X11748700Y-10886800D01*
X11748700Y-10871800D02*
X11733700Y-10886800D01*
X9009170Y-9227190D02*
G75*
G02*
X8984170Y-9227190I-12500J0D01*
G01*
X8984170Y-9227190D02*
G75*
G02*
X9009170Y-9227190I12500J0D01*
G01*
X9040490Y-9934660D02*
G75*
G02*
X9015490Y-9934660I-12500J0D01*
G01*
X9015490Y-9934660D02*
G75*
G02*
X9040490Y-9934660I12500J0D01*
G01*
X9040490Y-10034700D02*
G75*
G02*
X9015490Y-10034700I-12500J0D01*
G01*
X9015490Y-10034700D02*
G75*
G02*
X9040490Y-10034700I12500J0D01*
G01*
X9180500Y-9510760D02*
G75*
G02*
X9155500Y-9510760I-12500J0D01*
G01*
X9155500Y-9510760D02*
G75*
G02*
X9180500Y-9510760I12500J0D01*
G01*
X9232500Y-9760000D02*
G75*
G02*
X9207500Y-9760000I-12500J0D01*
G01*
X9207500Y-9760000D02*
G75*
G02*
X9232500Y-9760000I12500J0D01*
G01*
X9567500Y-11630000D02*
G75*
G02*
X9542500Y-11630000I-12500J0D01*
G01*
X9542500Y-11630000D02*
G75*
G02*
X9567500Y-11630000I12500J0D01*
G01*
X9567500Y-11705000D02*
G75*
G02*
X9542500Y-11705000I-12500J0D01*
G01*
X9542500Y-11705000D02*
G75*
G02*
X9567500Y-11705000I12500J0D01*
G01*
X9577500Y-9715000D02*
G75*
G02*
X9552500Y-9715000I-12500J0D01*
G01*
X9552500Y-9715000D02*
G75*
G02*
X9577500Y-9715000I12500J0D01*
G01*
X9587500Y-8710000D02*
G75*
G02*
X9562500Y-8710000I-12500J0D01*
G01*
X9562500Y-8710000D02*
G75*
G02*
X9587500Y-8710000I12500J0D01*
G01*
X9617500Y-8830000D02*
G75*
G02*
X9592500Y-8830000I-12500J0D01*
G01*
X9592500Y-8830000D02*
G75*
G02*
X9617500Y-8830000I12500J0D01*
G01*
X9642500Y-11730000D02*
G75*
G02*
X9617500Y-11730000I-12500J0D01*
G01*
X9617500Y-11730000D02*
G75*
G02*
X9642500Y-11730000I12500J0D01*
G01*
X9712500Y-11090000D02*
G75*
G02*
X9687500Y-11090000I-12500J0D01*
G01*
X9687500Y-11090000D02*
G75*
G02*
X9712500Y-11090000I12500J0D01*
G01*
X9712500Y-11190000D02*
G75*
G02*
X9687500Y-11190000I-12500J0D01*
G01*
X9687500Y-11190000D02*
G75*
G02*
X9712500Y-11190000I12500J0D01*
G01*
X9737500Y-9695000D02*
G75*
G02*
X9712500Y-9695000I-12500J0D01*
G01*
X9712500Y-9695000D02*
G75*
G02*
X9737500Y-9695000I12500J0D01*
G01*
X9802500Y-9680000D02*
G75*
G02*
X9777500Y-9680000I-12500J0D01*
G01*
X9777500Y-9680000D02*
G75*
G02*
X9802500Y-9680000I12500J0D01*
G01*
X9812500Y-11090000D02*
G75*
G02*
X9787500Y-11090000I-12500J0D01*
G01*
X9787500Y-11090000D02*
G75*
G02*
X9812500Y-11090000I12500J0D01*
G01*
X9812500Y-11190000D02*
G75*
G02*
X9787500Y-11190000I-12500J0D01*
G01*
X9787500Y-11190000D02*
G75*
G02*
X9812500Y-11190000I12500J0D01*
G01*
X9882500Y-8780000D02*
G75*
G02*
X9857500Y-8780000I-12500J0D01*
G01*
X9857500Y-8780000D02*
G75*
G02*
X9882500Y-8780000I12500J0D01*
G01*
X9897500Y-8675000D02*
G75*
G02*
X9872500Y-8675000I-12500J0D01*
G01*
X9872500Y-8675000D02*
G75*
G02*
X9897500Y-8675000I12500J0D01*
G01*
X9902500Y-11508000D02*
G75*
G02*
X9877500Y-11508000I-12500J0D01*
G01*
X9877500Y-11508000D02*
G75*
G02*
X9902500Y-11508000I12500J0D01*
G01*
X10322500Y-10380000D02*
G75*
G02*
X10297500Y-10380000I-12500J0D01*
G01*
X10297500Y-10380000D02*
G75*
G02*
X10322500Y-10380000I12500J0D01*
G01*
X10357500Y-10230000D02*
G75*
G02*
X10332500Y-10230000I-12500J0D01*
G01*
X10332500Y-10230000D02*
G75*
G02*
X10357500Y-10230000I12500J0D01*
G01*
X11152500Y-10930000D02*
G75*
G02*
X11127500Y-10930000I-12500J0D01*
G01*
X11127500Y-10930000D02*
G75*
G02*
X11152500Y-10930000I12500J0D01*
G01*
X11212500Y-10300000D02*
G75*
G02*
X11187500Y-10300000I-12500J0D01*
G01*
X11187500Y-10300000D02*
G75*
G02*
X11212500Y-10300000I12500J0D01*
G01*
X11212500Y-10400000D02*
G75*
G02*
X11187500Y-10400000I-12500J0D01*
G01*
X11187500Y-10400000D02*
G75*
G02*
X11212500Y-10400000I12500J0D01*
G01*
X11232500Y-10930000D02*
G75*
G02*
X11207500Y-10930000I-12500J0D01*
G01*
X11207500Y-10930000D02*
G75*
G02*
X11232500Y-10930000I12500J0D01*
G01*
X11312500Y-10300000D02*
G75*
G02*
X11287500Y-10300000I-12500J0D01*
G01*
X11287500Y-10300000D02*
G75*
G02*
X11312500Y-10300000I12500J0D01*
G01*
X11312500Y-10400000D02*
G75*
G02*
X11287500Y-10400000I-12500J0D01*
G01*
X11287500Y-10400000D02*
G75*
G02*
X11312500Y-10400000I12500J0D01*
G01*
X11402500Y-9170000D02*
G75*
G02*
X11377500Y-9170000I-12500J0D01*
G01*
X11377500Y-9170000D02*
G75*
G02*
X11402500Y-9170000I12500J0D01*
G01*
X11412500Y-10300000D02*
G75*
G02*
X11387500Y-10300000I-12500J0D01*
G01*
X11387500Y-10300000D02*
G75*
G02*
X11412500Y-10300000I12500J0D01*
G01*
X11412500Y-10400000D02*
G75*
G02*
X11387500Y-10400000I-12500J0D01*
G01*
X11387500Y-10400000D02*
G75*
G02*
X11412500Y-10400000I12500J0D01*
G01*
X11412500Y-10500000D02*
G75*
G02*
X11387500Y-10500000I-12500J0D01*
G01*
X11387500Y-10500000D02*
G75*
G02*
X11412500Y-10500000I12500J0D01*
G01*
X11457500Y-10720000D02*
G75*
G02*
X11432500Y-10720000I-12500J0D01*
G01*
X11432500Y-10720000D02*
G75*
G02*
X11457500Y-10720000I12500J0D01*
G01*
X11482500Y-9170000D02*
G75*
G02*
X11457500Y-9170000I-12500J0D01*
G01*
X11457500Y-9170000D02*
G75*
G02*
X11482500Y-9170000I12500J0D01*
G01*
X11502500Y-10618000D02*
G75*
G02*
X11477500Y-10618000I-12500J0D01*
G01*
X11477500Y-10618000D02*
G75*
G02*
X11502500Y-10618000I12500J0D01*
G01*
X8460000Y-9538000D02*
X8460000Y-9598000D01*
X8430000Y-9568000D02*
X8490000Y-9568000D01*
X8500000Y-9538000D02*
X8420000Y-9538000D01*
X8420000Y-9598000D02*
G75*
G02*
X8420000Y-9538000I0J30000D01*
G01*
X8420000Y-9598000D02*
X8500000Y-9598000D01*
X8500000Y-9598000D02*
G75*
G03*
X8500000Y-9538000I0J30000D01*
G01*
X8460000Y-10402000D02*
X8460000Y-10462000D01*
X8430000Y-10432000D02*
X8490000Y-10432000D01*
X8500000Y-10402000D02*
X8420000Y-10402000D01*
X8420000Y-10462000D02*
G75*
G02*
X8420000Y-10402000I0J30000D01*
G01*
X8420000Y-10462000D02*
X8500000Y-10462000D01*
X8500000Y-10462000D02*
G75*
G03*
X8500000Y-10402000I0J30000D01*
G01*
X8878000Y-9538000D02*
X8878000Y-9598000D01*
X8848000Y-9568000D02*
X8908000Y-9568000D01*
X8933001Y-9538000D02*
X8822999Y-9538000D01*
X8822999Y-9598000D02*
G75*
G02*
X8822999Y-9538000I0J30000D01*
G01*
X8822999Y-9598000D02*
X8933001Y-9598000D01*
X8933001Y-9598000D02*
G75*
G03*
X8933001Y-9538000I0J30000D01*
G01*
X8878000Y-10402000D02*
X8878000Y-10462000D01*
X8848000Y-10432000D02*
X8908000Y-10432000D01*
X8933000Y-10402000D02*
X8823000Y-10402000D01*
X8823000Y-10462000D02*
G75*
G02*
X8823000Y-10402000I0J30000D01*
G01*
X8823000Y-10462000D02*
X8933000Y-10462000D01*
X8933000Y-10462000D02*
G75*
G03*
X8933000Y-10402000I0J30000D01*
G01*
D11*
X8455777Y-12116484D02*
X8455777Y-11916484D01*
X8455777Y-11916484D02*
X8503396Y-11916484D01*
X8503396Y-11916484D02*
X8531967Y-11926008D01*
X8531967Y-11926008D02*
X8551015Y-11945055D01*
X8551015Y-11945055D02*
X8560539Y-11964103D01*
X8560539Y-11964103D02*
X8570063Y-12002198D01*
X8570063Y-12002198D02*
X8570063Y-12030769D01*
X8570063Y-12030769D02*
X8560539Y-12068865D01*
X8560539Y-12068865D02*
X8551015Y-12087912D01*
X8551015Y-12087912D02*
X8531967Y-12106960D01*
X8531967Y-12106960D02*
X8503396Y-12116484D01*
X8503396Y-12116484D02*
X8455777Y-12116484D01*
X8655777Y-12116484D02*
X8655777Y-11983150D01*
X8655777Y-12021246D02*
X8665301Y-12002198D01*
X8665301Y-12002198D02*
X8674824Y-11992674D01*
X8674824Y-11992674D02*
X8693872Y-11983150D01*
X8693872Y-11983150D02*
X8712920Y-11983150D01*
X8779586Y-12116484D02*
X8779586Y-11983150D01*
X8779586Y-11916484D02*
X8770063Y-11926008D01*
X8770063Y-11926008D02*
X8779586Y-11935531D01*
X8779586Y-11935531D02*
X8789110Y-11926008D01*
X8789110Y-11926008D02*
X8779586Y-11916484D01*
X8779586Y-11916484D02*
X8779586Y-11935531D01*
X8903396Y-12116484D02*
X8884348Y-12106960D01*
X8884348Y-12106960D02*
X8874824Y-12087912D01*
X8874824Y-12087912D02*
X8874824Y-11916484D01*
X9008158Y-12116484D02*
X8989110Y-12106960D01*
X8989110Y-12106960D02*
X8979586Y-12087912D01*
X8979586Y-12087912D02*
X8979586Y-11916484D01*
X9236729Y-12116484D02*
X9236729Y-11916484D01*
X9236729Y-11916484D02*
X9303396Y-12059341D01*
X9303396Y-12059341D02*
X9370063Y-11916484D01*
X9370063Y-11916484D02*
X9370063Y-12116484D01*
X9551015Y-12116484D02*
X9551015Y-12011722D01*
X9551015Y-12011722D02*
X9541491Y-11992674D01*
X9541491Y-11992674D02*
X9522444Y-11983150D01*
X9522444Y-11983150D02*
X9484348Y-11983150D01*
X9484348Y-11983150D02*
X9465301Y-11992674D01*
X9551015Y-12106960D02*
X9531967Y-12116484D01*
X9531967Y-12116484D02*
X9484348Y-12116484D01*
X9484348Y-12116484D02*
X9465301Y-12106960D01*
X9465301Y-12106960D02*
X9455777Y-12087912D01*
X9455777Y-12087912D02*
X9455777Y-12068865D01*
X9455777Y-12068865D02*
X9465301Y-12049817D01*
X9465301Y-12049817D02*
X9484348Y-12040293D01*
X9484348Y-12040293D02*
X9531967Y-12040293D01*
X9531967Y-12040293D02*
X9551015Y-12030769D01*
X9646253Y-11983150D02*
X9646253Y-12183150D01*
X9646253Y-11992674D02*
X9665301Y-11983150D01*
X9665301Y-11983150D02*
X9703396Y-11983150D01*
X9703396Y-11983150D02*
X9722444Y-11992674D01*
X9722444Y-11992674D02*
X9731967Y-12002198D01*
X9731967Y-12002198D02*
X9741491Y-12021246D01*
X9741491Y-12021246D02*
X9741491Y-12078388D01*
X9741491Y-12078388D02*
X9731967Y-12097436D01*
X9731967Y-12097436D02*
X9722444Y-12106960D01*
X9722444Y-12106960D02*
X9703396Y-12116484D01*
X9703396Y-12116484D02*
X9665301Y-12116484D01*
X9665301Y-12116484D02*
X9646253Y-12106960D01*
X9827205Y-12097436D02*
X9836729Y-12106960D01*
X9836729Y-12106960D02*
X9827205Y-12116484D01*
X9827205Y-12116484D02*
X9817682Y-12106960D01*
X9817682Y-12106960D02*
X9827205Y-12097436D01*
X9827205Y-12097436D02*
X9827205Y-12116484D01*
X9827205Y-11992674D02*
X9836729Y-12002198D01*
X9836729Y-12002198D02*
X9827205Y-12011722D01*
X9827205Y-12011722D02*
X9817682Y-12002198D01*
X9817682Y-12002198D02*
X9827205Y-11992674D01*
X9827205Y-11992674D02*
X9827205Y-12011722D01*
D10*
X8180000Y-12437500D02*
X8195000Y-12452500D01*
X8195000Y-12437500D02*
X8180000Y-12452500D01*
D11*
X8493872Y-12336484D02*
X8512920Y-12336484D01*
X8512920Y-12336484D02*
X8531967Y-12346008D01*
X8531967Y-12346008D02*
X8541491Y-12355531D01*
X8541491Y-12355531D02*
X8551015Y-12374579D01*
X8551015Y-12374579D02*
X8560539Y-12412674D01*
X8560539Y-12412674D02*
X8560539Y-12460293D01*
X8560539Y-12460293D02*
X8551015Y-12498388D01*
X8551015Y-12498388D02*
X8541491Y-12517436D01*
X8541491Y-12517436D02*
X8531967Y-12526960D01*
X8531967Y-12526960D02*
X8512920Y-12536484D01*
X8512920Y-12536484D02*
X8493872Y-12536484D01*
X8493872Y-12536484D02*
X8474824Y-12526960D01*
X8474824Y-12526960D02*
X8465301Y-12517436D01*
X8465301Y-12517436D02*
X8455777Y-12498388D01*
X8455777Y-12498388D02*
X8446253Y-12460293D01*
X8446253Y-12460293D02*
X8446253Y-12412674D01*
X8446253Y-12412674D02*
X8455777Y-12374579D01*
X8455777Y-12374579D02*
X8465301Y-12355531D01*
X8465301Y-12355531D02*
X8474824Y-12346008D01*
X8474824Y-12346008D02*
X8493872Y-12336484D01*
X8646253Y-12517436D02*
X8655777Y-12526960D01*
X8655777Y-12526960D02*
X8646253Y-12536484D01*
X8646253Y-12536484D02*
X8636729Y-12526960D01*
X8636729Y-12526960D02*
X8646253Y-12517436D01*
X8646253Y-12517436D02*
X8646253Y-12536484D01*
X8846253Y-12536484D02*
X8731967Y-12536484D01*
X8789110Y-12536484D02*
X8789110Y-12336484D01*
X8789110Y-12336484D02*
X8770063Y-12365055D01*
X8770063Y-12365055D02*
X8751015Y-12384103D01*
X8751015Y-12384103D02*
X8731967Y-12393627D01*
X9027205Y-12336484D02*
X8931967Y-12336484D01*
X8931967Y-12336484D02*
X8922444Y-12431722D01*
X8922444Y-12431722D02*
X8931967Y-12422198D01*
X8931967Y-12422198D02*
X8951015Y-12412674D01*
X8951015Y-12412674D02*
X8998634Y-12412674D01*
X8998634Y-12412674D02*
X9017682Y-12422198D01*
X9017682Y-12422198D02*
X9027205Y-12431722D01*
X9027205Y-12431722D02*
X9036729Y-12450769D01*
X9036729Y-12450769D02*
X9036729Y-12498388D01*
X9036729Y-12498388D02*
X9027205Y-12517436D01*
X9027205Y-12517436D02*
X9017682Y-12526960D01*
X9017682Y-12526960D02*
X8998634Y-12536484D01*
X8998634Y-12536484D02*
X8951015Y-12536484D01*
X8951015Y-12536484D02*
X8931967Y-12526960D01*
X8931967Y-12526960D02*
X8922444Y-12517436D01*
X9160539Y-12336484D02*
X9179586Y-12336484D01*
X9179586Y-12336484D02*
X9198634Y-12346008D01*
X9198634Y-12346008D02*
X9208158Y-12355531D01*
X9208158Y-12355531D02*
X9217682Y-12374579D01*
X9217682Y-12374579D02*
X9227205Y-12412674D01*
X9227205Y-12412674D02*
X9227205Y-12460293D01*
X9227205Y-12460293D02*
X9217682Y-12498388D01*
X9217682Y-12498388D02*
X9208158Y-12517436D01*
X9208158Y-12517436D02*
X9198634Y-12526960D01*
X9198634Y-12526960D02*
X9179586Y-12536484D01*
X9179586Y-12536484D02*
X9160539Y-12536484D01*
X9160539Y-12536484D02*
X9141491Y-12526960D01*
X9141491Y-12526960D02*
X9131967Y-12517436D01*
X9131967Y-12517436D02*
X9122444Y-12498388D01*
X9122444Y-12498388D02*
X9112920Y-12460293D01*
X9112920Y-12460293D02*
X9112920Y-12412674D01*
X9112920Y-12412674D02*
X9122444Y-12374579D01*
X9122444Y-12374579D02*
X9131967Y-12355531D01*
X9131967Y-12355531D02*
X9141491Y-12346008D01*
X9141491Y-12346008D02*
X9160539Y-12336484D01*
X9312920Y-12536484D02*
X9312920Y-12403150D01*
X9312920Y-12422198D02*
X9322444Y-12412674D01*
X9322444Y-12412674D02*
X9341491Y-12403150D01*
X9341491Y-12403150D02*
X9370063Y-12403150D01*
X9370063Y-12403150D02*
X9389110Y-12412674D01*
X9389110Y-12412674D02*
X9398634Y-12431722D01*
X9398634Y-12431722D02*
X9398634Y-12536484D01*
X9398634Y-12431722D02*
X9408158Y-12412674D01*
X9408158Y-12412674D02*
X9427205Y-12403150D01*
X9427205Y-12403150D02*
X9455777Y-12403150D01*
X9455777Y-12403150D02*
X9474825Y-12412674D01*
X9474825Y-12412674D02*
X9484348Y-12431722D01*
X9484348Y-12431722D02*
X9484348Y-12536484D01*
X9579586Y-12536484D02*
X9579586Y-12403150D01*
X9579586Y-12422198D02*
X9589110Y-12412674D01*
X9589110Y-12412674D02*
X9608158Y-12403150D01*
X9608158Y-12403150D02*
X9636729Y-12403150D01*
X9636729Y-12403150D02*
X9655777Y-12412674D01*
X9655777Y-12412674D02*
X9665301Y-12431722D01*
X9665301Y-12431722D02*
X9665301Y-12536484D01*
X9665301Y-12431722D02*
X9674825Y-12412674D01*
X9674825Y-12412674D02*
X9693872Y-12403150D01*
X9693872Y-12403150D02*
X9722444Y-12403150D01*
X9722444Y-12403150D02*
X9741491Y-12412674D01*
X9741491Y-12412674D02*
X9751015Y-12431722D01*
X9751015Y-12431722D02*
X9751015Y-12536484D01*
X10141491Y-12326960D02*
X9970063Y-12584103D01*
X10398634Y-12336484D02*
X10417682Y-12336484D01*
X10417682Y-12336484D02*
X10436729Y-12346008D01*
X10436729Y-12346008D02*
X10446253Y-12355531D01*
X10446253Y-12355531D02*
X10455777Y-12374579D01*
X10455777Y-12374579D02*
X10465301Y-12412674D01*
X10465301Y-12412674D02*
X10465301Y-12460293D01*
X10465301Y-12460293D02*
X10455777Y-12498388D01*
X10455777Y-12498388D02*
X10446253Y-12517436D01*
X10446253Y-12517436D02*
X10436729Y-12526960D01*
X10436729Y-12526960D02*
X10417682Y-12536484D01*
X10417682Y-12536484D02*
X10398634Y-12536484D01*
X10398634Y-12536484D02*
X10379587Y-12526960D01*
X10379587Y-12526960D02*
X10370063Y-12517436D01*
X10370063Y-12517436D02*
X10360539Y-12498388D01*
X10360539Y-12498388D02*
X10351015Y-12460293D01*
X10351015Y-12460293D02*
X10351015Y-12412674D01*
X10351015Y-12412674D02*
X10360539Y-12374579D01*
X10360539Y-12374579D02*
X10370063Y-12355531D01*
X10370063Y-12355531D02*
X10379587Y-12346008D01*
X10379587Y-12346008D02*
X10398634Y-12336484D01*
X10551015Y-12517436D02*
X10560539Y-12526960D01*
X10560539Y-12526960D02*
X10551015Y-12536484D01*
X10551015Y-12536484D02*
X10541491Y-12526960D01*
X10541491Y-12526960D02*
X10551015Y-12517436D01*
X10551015Y-12517436D02*
X10551015Y-12536484D01*
X10684348Y-12336484D02*
X10703396Y-12336484D01*
X10703396Y-12336484D02*
X10722444Y-12346008D01*
X10722444Y-12346008D02*
X10731968Y-12355531D01*
X10731968Y-12355531D02*
X10741491Y-12374579D01*
X10741491Y-12374579D02*
X10751015Y-12412674D01*
X10751015Y-12412674D02*
X10751015Y-12460293D01*
X10751015Y-12460293D02*
X10741491Y-12498388D01*
X10741491Y-12498388D02*
X10731968Y-12517436D01*
X10731968Y-12517436D02*
X10722444Y-12526960D01*
X10722444Y-12526960D02*
X10703396Y-12536484D01*
X10703396Y-12536484D02*
X10684348Y-12536484D01*
X10684348Y-12536484D02*
X10665301Y-12526960D01*
X10665301Y-12526960D02*
X10655777Y-12517436D01*
X10655777Y-12517436D02*
X10646253Y-12498388D01*
X10646253Y-12498388D02*
X10636729Y-12460293D01*
X10636729Y-12460293D02*
X10636729Y-12412674D01*
X10636729Y-12412674D02*
X10646253Y-12374579D01*
X10646253Y-12374579D02*
X10655777Y-12355531D01*
X10655777Y-12355531D02*
X10665301Y-12346008D01*
X10665301Y-12346008D02*
X10684348Y-12336484D01*
X10874825Y-12336484D02*
X10893872Y-12336484D01*
X10893872Y-12336484D02*
X10912920Y-12346008D01*
X10912920Y-12346008D02*
X10922444Y-12355531D01*
X10922444Y-12355531D02*
X10931968Y-12374579D01*
X10931968Y-12374579D02*
X10941491Y-12412674D01*
X10941491Y-12412674D02*
X10941491Y-12460293D01*
X10941491Y-12460293D02*
X10931968Y-12498388D01*
X10931968Y-12498388D02*
X10922444Y-12517436D01*
X10922444Y-12517436D02*
X10912920Y-12526960D01*
X10912920Y-12526960D02*
X10893872Y-12536484D01*
X10893872Y-12536484D02*
X10874825Y-12536484D01*
X10874825Y-12536484D02*
X10855777Y-12526960D01*
X10855777Y-12526960D02*
X10846253Y-12517436D01*
X10846253Y-12517436D02*
X10836729Y-12498388D01*
X10836729Y-12498388D02*
X10827206Y-12460293D01*
X10827206Y-12460293D02*
X10827206Y-12412674D01*
X10827206Y-12412674D02*
X10836729Y-12374579D01*
X10836729Y-12374579D02*
X10846253Y-12355531D01*
X10846253Y-12355531D02*
X10855777Y-12346008D01*
X10855777Y-12346008D02*
X10874825Y-12336484D01*
X11122444Y-12336484D02*
X11027206Y-12336484D01*
X11027206Y-12336484D02*
X11017682Y-12431722D01*
X11017682Y-12431722D02*
X11027206Y-12422198D01*
X11027206Y-12422198D02*
X11046253Y-12412674D01*
X11046253Y-12412674D02*
X11093872Y-12412674D01*
X11093872Y-12412674D02*
X11112920Y-12422198D01*
X11112920Y-12422198D02*
X11122444Y-12431722D01*
X11122444Y-12431722D02*
X11131968Y-12450769D01*
X11131968Y-12450769D02*
X11131968Y-12498388D01*
X11131968Y-12498388D02*
X11122444Y-12517436D01*
X11122444Y-12517436D02*
X11112920Y-12526960D01*
X11112920Y-12526960D02*
X11093872Y-12536484D01*
X11093872Y-12536484D02*
X11046253Y-12536484D01*
X11046253Y-12536484D02*
X11027206Y-12526960D01*
X11027206Y-12526960D02*
X11017682Y-12517436D01*
X11227206Y-12536484D02*
X11265301Y-12536484D01*
X11265301Y-12536484D02*
X11284348Y-12526960D01*
X11284348Y-12526960D02*
X11293872Y-12517436D01*
X11293872Y-12517436D02*
X11312920Y-12488865D01*
X11312920Y-12488865D02*
X11322444Y-12450769D01*
X11322444Y-12450769D02*
X11322444Y-12374579D01*
X11322444Y-12374579D02*
X11312920Y-12355531D01*
X11312920Y-12355531D02*
X11303396Y-12346008D01*
X11303396Y-12346008D02*
X11284348Y-12336484D01*
X11284348Y-12336484D02*
X11246253Y-12336484D01*
X11246253Y-12336484D02*
X11227206Y-12346008D01*
X11227206Y-12346008D02*
X11217682Y-12355531D01*
X11217682Y-12355531D02*
X11208158Y-12374579D01*
X11208158Y-12374579D02*
X11208158Y-12422198D01*
X11208158Y-12422198D02*
X11217682Y-12441246D01*
X11217682Y-12441246D02*
X11227206Y-12450769D01*
X11227206Y-12450769D02*
X11246253Y-12460293D01*
X11246253Y-12460293D02*
X11284348Y-12460293D01*
X11284348Y-12460293D02*
X11303396Y-12450769D01*
X11303396Y-12450769D02*
X11312920Y-12441246D01*
X11312920Y-12441246D02*
X11322444Y-12422198D01*
X11398634Y-12336484D02*
X11398634Y-12374579D01*
X11474825Y-12336484D02*
X11474825Y-12374579D01*
X11770063Y-12612674D02*
X11760539Y-12603150D01*
X11760539Y-12603150D02*
X11741491Y-12574579D01*
X11741491Y-12574579D02*
X11731968Y-12555531D01*
X11731968Y-12555531D02*
X11722444Y-12526960D01*
X11722444Y-12526960D02*
X11712920Y-12479341D01*
X11712920Y-12479341D02*
X11712920Y-12441246D01*
X11712920Y-12441246D02*
X11722444Y-12393627D01*
X11722444Y-12393627D02*
X11731968Y-12365055D01*
X11731968Y-12365055D02*
X11741491Y-12346008D01*
X11741491Y-12346008D02*
X11760539Y-12317436D01*
X11760539Y-12317436D02*
X11770063Y-12307912D01*
X11836729Y-12355531D02*
X11846253Y-12346008D01*
X11846253Y-12346008D02*
X11865301Y-12336484D01*
X11865301Y-12336484D02*
X11912920Y-12336484D01*
X11912920Y-12336484D02*
X11931968Y-12346008D01*
X11931968Y-12346008D02*
X11941491Y-12355531D01*
X11941491Y-12355531D02*
X11951015Y-12374579D01*
X11951015Y-12374579D02*
X11951015Y-12393627D01*
X11951015Y-12393627D02*
X11941491Y-12422198D01*
X11941491Y-12422198D02*
X11827206Y-12536484D01*
X11827206Y-12536484D02*
X11951015Y-12536484D01*
X12074825Y-12336484D02*
X12093872Y-12336484D01*
X12093872Y-12336484D02*
X12112920Y-12346008D01*
X12112920Y-12346008D02*
X12122444Y-12355531D01*
X12122444Y-12355531D02*
X12131968Y-12374579D01*
X12131968Y-12374579D02*
X12141491Y-12412674D01*
X12141491Y-12412674D02*
X12141491Y-12460293D01*
X12141491Y-12460293D02*
X12131968Y-12498388D01*
X12131968Y-12498388D02*
X12122444Y-12517436D01*
X12122444Y-12517436D02*
X12112920Y-12526960D01*
X12112920Y-12526960D02*
X12093872Y-12536484D01*
X12093872Y-12536484D02*
X12074825Y-12536484D01*
X12074825Y-12536484D02*
X12055777Y-12526960D01*
X12055777Y-12526960D02*
X12046253Y-12517436D01*
X12046253Y-12517436D02*
X12036729Y-12498388D01*
X12036729Y-12498388D02*
X12027206Y-12460293D01*
X12027206Y-12460293D02*
X12027206Y-12412674D01*
X12027206Y-12412674D02*
X12036729Y-12374579D01*
X12036729Y-12374579D02*
X12046253Y-12355531D01*
X12046253Y-12355531D02*
X12055777Y-12346008D01*
X12055777Y-12346008D02*
X12074825Y-12336484D01*
X12217682Y-12355531D02*
X12227206Y-12346008D01*
X12227206Y-12346008D02*
X12246253Y-12336484D01*
X12246253Y-12336484D02*
X12293872Y-12336484D01*
X12293872Y-12336484D02*
X12312920Y-12346008D01*
X12312920Y-12346008D02*
X12322444Y-12355531D01*
X12322444Y-12355531D02*
X12331968Y-12374579D01*
X12331968Y-12374579D02*
X12331968Y-12393627D01*
X12331968Y-12393627D02*
X12322444Y-12422198D01*
X12322444Y-12422198D02*
X12208158Y-12536484D01*
X12208158Y-12536484D02*
X12331968Y-12536484D01*
X12570063Y-12536484D02*
X12570063Y-12336484D01*
X12655777Y-12536484D02*
X12655777Y-12431722D01*
X12655777Y-12431722D02*
X12646253Y-12412674D01*
X12646253Y-12412674D02*
X12627206Y-12403150D01*
X12627206Y-12403150D02*
X12598634Y-12403150D01*
X12598634Y-12403150D02*
X12579587Y-12412674D01*
X12579587Y-12412674D02*
X12570063Y-12422198D01*
X12779587Y-12536484D02*
X12760539Y-12526960D01*
X12760539Y-12526960D02*
X12751015Y-12517436D01*
X12751015Y-12517436D02*
X12741491Y-12498388D01*
X12741491Y-12498388D02*
X12741491Y-12441246D01*
X12741491Y-12441246D02*
X12751015Y-12422198D01*
X12751015Y-12422198D02*
X12760539Y-12412674D01*
X12760539Y-12412674D02*
X12779587Y-12403150D01*
X12779587Y-12403150D02*
X12808158Y-12403150D01*
X12808158Y-12403150D02*
X12827206Y-12412674D01*
X12827206Y-12412674D02*
X12836730Y-12422198D01*
X12836730Y-12422198D02*
X12846253Y-12441246D01*
X12846253Y-12441246D02*
X12846253Y-12498388D01*
X12846253Y-12498388D02*
X12836730Y-12517436D01*
X12836730Y-12517436D02*
X12827206Y-12526960D01*
X12827206Y-12526960D02*
X12808158Y-12536484D01*
X12808158Y-12536484D02*
X12779587Y-12536484D01*
X12960539Y-12536484D02*
X12941491Y-12526960D01*
X12941491Y-12526960D02*
X12931968Y-12507912D01*
X12931968Y-12507912D02*
X12931968Y-12336484D01*
X13112920Y-12526960D02*
X13093872Y-12536484D01*
X13093872Y-12536484D02*
X13055777Y-12536484D01*
X13055777Y-12536484D02*
X13036730Y-12526960D01*
X13036730Y-12526960D02*
X13027206Y-12507912D01*
X13027206Y-12507912D02*
X13027206Y-12431722D01*
X13027206Y-12431722D02*
X13036730Y-12412674D01*
X13036730Y-12412674D02*
X13055777Y-12403150D01*
X13055777Y-12403150D02*
X13093872Y-12403150D01*
X13093872Y-12403150D02*
X13112920Y-12412674D01*
X13112920Y-12412674D02*
X13122444Y-12431722D01*
X13122444Y-12431722D02*
X13122444Y-12450769D01*
X13122444Y-12450769D02*
X13027206Y-12469817D01*
X13198634Y-12526960D02*
X13217682Y-12536484D01*
X13217682Y-12536484D02*
X13255777Y-12536484D01*
X13255777Y-12536484D02*
X13274825Y-12526960D01*
X13274825Y-12526960D02*
X13284349Y-12507912D01*
X13284349Y-12507912D02*
X13284349Y-12498388D01*
X13284349Y-12498388D02*
X13274825Y-12479341D01*
X13274825Y-12479341D02*
X13255777Y-12469817D01*
X13255777Y-12469817D02*
X13227206Y-12469817D01*
X13227206Y-12469817D02*
X13208158Y-12460293D01*
X13208158Y-12460293D02*
X13198634Y-12441246D01*
X13198634Y-12441246D02*
X13198634Y-12431722D01*
X13198634Y-12431722D02*
X13208158Y-12412674D01*
X13208158Y-12412674D02*
X13227206Y-12403150D01*
X13227206Y-12403150D02*
X13255777Y-12403150D01*
X13255777Y-12403150D02*
X13274825Y-12412674D01*
X13351015Y-12612674D02*
X13360539Y-12603150D01*
X13360539Y-12603150D02*
X13379587Y-12574579D01*
X13379587Y-12574579D02*
X13389111Y-12555531D01*
X13389111Y-12555531D02*
X13398634Y-12526960D01*
X13398634Y-12526960D02*
X13408158Y-12479341D01*
X13408158Y-12479341D02*
X13408158Y-12441246D01*
X13408158Y-12441246D02*
X13398634Y-12393627D01*
X13398634Y-12393627D02*
X13389111Y-12365055D01*
X13389111Y-12365055D02*
X13379587Y-12346008D01*
X13379587Y-12346008D02*
X13360539Y-12317436D01*
X13360539Y-12317436D02*
X13351015Y-12307912D01*
D10*
X8195000Y-12709000D02*
G75*
G02*
X8170000Y-12709000I-12500J0D01*
G01*
X8170000Y-12709000D02*
G75*
G02*
X8195000Y-12709000I12500J0D01*
G01*
D11*
X8493872Y-12600484D02*
X8512920Y-12600484D01*
X8512920Y-12600484D02*
X8531967Y-12610008D01*
X8531967Y-12610008D02*
X8541491Y-12619531D01*
X8541491Y-12619531D02*
X8551015Y-12638579D01*
X8551015Y-12638579D02*
X8560539Y-12676674D01*
X8560539Y-12676674D02*
X8560539Y-12724293D01*
X8560539Y-12724293D02*
X8551015Y-12762388D01*
X8551015Y-12762388D02*
X8541491Y-12781436D01*
X8541491Y-12781436D02*
X8531967Y-12790960D01*
X8531967Y-12790960D02*
X8512920Y-12800484D01*
X8512920Y-12800484D02*
X8493872Y-12800484D01*
X8493872Y-12800484D02*
X8474824Y-12790960D01*
X8474824Y-12790960D02*
X8465301Y-12781436D01*
X8465301Y-12781436D02*
X8455777Y-12762388D01*
X8455777Y-12762388D02*
X8446253Y-12724293D01*
X8446253Y-12724293D02*
X8446253Y-12676674D01*
X8446253Y-12676674D02*
X8455777Y-12638579D01*
X8455777Y-12638579D02*
X8465301Y-12619531D01*
X8465301Y-12619531D02*
X8474824Y-12610008D01*
X8474824Y-12610008D02*
X8493872Y-12600484D01*
X8646253Y-12781436D02*
X8655777Y-12790960D01*
X8655777Y-12790960D02*
X8646253Y-12800484D01*
X8646253Y-12800484D02*
X8636729Y-12790960D01*
X8636729Y-12790960D02*
X8646253Y-12781436D01*
X8646253Y-12781436D02*
X8646253Y-12800484D01*
X8731967Y-12619531D02*
X8741491Y-12610008D01*
X8741491Y-12610008D02*
X8760539Y-12600484D01*
X8760539Y-12600484D02*
X8808158Y-12600484D01*
X8808158Y-12600484D02*
X8827205Y-12610008D01*
X8827205Y-12610008D02*
X8836729Y-12619531D01*
X8836729Y-12619531D02*
X8846253Y-12638579D01*
X8846253Y-12638579D02*
X8846253Y-12657627D01*
X8846253Y-12657627D02*
X8836729Y-12686198D01*
X8836729Y-12686198D02*
X8722444Y-12800484D01*
X8722444Y-12800484D02*
X8846253Y-12800484D01*
X9027205Y-12600484D02*
X8931967Y-12600484D01*
X8931967Y-12600484D02*
X8922444Y-12695722D01*
X8922444Y-12695722D02*
X8931967Y-12686198D01*
X8931967Y-12686198D02*
X8951015Y-12676674D01*
X8951015Y-12676674D02*
X8998634Y-12676674D01*
X8998634Y-12676674D02*
X9017682Y-12686198D01*
X9017682Y-12686198D02*
X9027205Y-12695722D01*
X9027205Y-12695722D02*
X9036729Y-12714769D01*
X9036729Y-12714769D02*
X9036729Y-12762388D01*
X9036729Y-12762388D02*
X9027205Y-12781436D01*
X9027205Y-12781436D02*
X9017682Y-12790960D01*
X9017682Y-12790960D02*
X8998634Y-12800484D01*
X8998634Y-12800484D02*
X8951015Y-12800484D01*
X8951015Y-12800484D02*
X8931967Y-12790960D01*
X8931967Y-12790960D02*
X8922444Y-12781436D01*
X9160539Y-12600484D02*
X9179586Y-12600484D01*
X9179586Y-12600484D02*
X9198634Y-12610008D01*
X9198634Y-12610008D02*
X9208158Y-12619531D01*
X9208158Y-12619531D02*
X9217682Y-12638579D01*
X9217682Y-12638579D02*
X9227205Y-12676674D01*
X9227205Y-12676674D02*
X9227205Y-12724293D01*
X9227205Y-12724293D02*
X9217682Y-12762388D01*
X9217682Y-12762388D02*
X9208158Y-12781436D01*
X9208158Y-12781436D02*
X9198634Y-12790960D01*
X9198634Y-12790960D02*
X9179586Y-12800484D01*
X9179586Y-12800484D02*
X9160539Y-12800484D01*
X9160539Y-12800484D02*
X9141491Y-12790960D01*
X9141491Y-12790960D02*
X9131967Y-12781436D01*
X9131967Y-12781436D02*
X9122444Y-12762388D01*
X9122444Y-12762388D02*
X9112920Y-12724293D01*
X9112920Y-12724293D02*
X9112920Y-12676674D01*
X9112920Y-12676674D02*
X9122444Y-12638579D01*
X9122444Y-12638579D02*
X9131967Y-12619531D01*
X9131967Y-12619531D02*
X9141491Y-12610008D01*
X9141491Y-12610008D02*
X9160539Y-12600484D01*
X9312920Y-12800484D02*
X9312920Y-12667150D01*
X9312920Y-12686198D02*
X9322444Y-12676674D01*
X9322444Y-12676674D02*
X9341491Y-12667150D01*
X9341491Y-12667150D02*
X9370063Y-12667150D01*
X9370063Y-12667150D02*
X9389110Y-12676674D01*
X9389110Y-12676674D02*
X9398634Y-12695722D01*
X9398634Y-12695722D02*
X9398634Y-12800484D01*
X9398634Y-12695722D02*
X9408158Y-12676674D01*
X9408158Y-12676674D02*
X9427205Y-12667150D01*
X9427205Y-12667150D02*
X9455777Y-12667150D01*
X9455777Y-12667150D02*
X9474825Y-12676674D01*
X9474825Y-12676674D02*
X9484348Y-12695722D01*
X9484348Y-12695722D02*
X9484348Y-12800484D01*
X9579586Y-12800484D02*
X9579586Y-12667150D01*
X9579586Y-12686198D02*
X9589110Y-12676674D01*
X9589110Y-12676674D02*
X9608158Y-12667150D01*
X9608158Y-12667150D02*
X9636729Y-12667150D01*
X9636729Y-12667150D02*
X9655777Y-12676674D01*
X9655777Y-12676674D02*
X9665301Y-12695722D01*
X9665301Y-12695722D02*
X9665301Y-12800484D01*
X9665301Y-12695722D02*
X9674825Y-12676674D01*
X9674825Y-12676674D02*
X9693872Y-12667150D01*
X9693872Y-12667150D02*
X9722444Y-12667150D01*
X9722444Y-12667150D02*
X9741491Y-12676674D01*
X9741491Y-12676674D02*
X9751015Y-12695722D01*
X9751015Y-12695722D02*
X9751015Y-12800484D01*
X10141491Y-12590960D02*
X9970063Y-12848103D01*
X10398634Y-12600484D02*
X10417682Y-12600484D01*
X10417682Y-12600484D02*
X10436729Y-12610008D01*
X10436729Y-12610008D02*
X10446253Y-12619531D01*
X10446253Y-12619531D02*
X10455777Y-12638579D01*
X10455777Y-12638579D02*
X10465301Y-12676674D01*
X10465301Y-12676674D02*
X10465301Y-12724293D01*
X10465301Y-12724293D02*
X10455777Y-12762388D01*
X10455777Y-12762388D02*
X10446253Y-12781436D01*
X10446253Y-12781436D02*
X10436729Y-12790960D01*
X10436729Y-12790960D02*
X10417682Y-12800484D01*
X10417682Y-12800484D02*
X10398634Y-12800484D01*
X10398634Y-12800484D02*
X10379587Y-12790960D01*
X10379587Y-12790960D02*
X10370063Y-12781436D01*
X10370063Y-12781436D02*
X10360539Y-12762388D01*
X10360539Y-12762388D02*
X10351015Y-12724293D01*
X10351015Y-12724293D02*
X10351015Y-12676674D01*
X10351015Y-12676674D02*
X10360539Y-12638579D01*
X10360539Y-12638579D02*
X10370063Y-12619531D01*
X10370063Y-12619531D02*
X10379587Y-12610008D01*
X10379587Y-12610008D02*
X10398634Y-12600484D01*
X10551015Y-12781436D02*
X10560539Y-12790960D01*
X10560539Y-12790960D02*
X10551015Y-12800484D01*
X10551015Y-12800484D02*
X10541491Y-12790960D01*
X10541491Y-12790960D02*
X10551015Y-12781436D01*
X10551015Y-12781436D02*
X10551015Y-12800484D01*
X10684348Y-12600484D02*
X10703396Y-12600484D01*
X10703396Y-12600484D02*
X10722444Y-12610008D01*
X10722444Y-12610008D02*
X10731968Y-12619531D01*
X10731968Y-12619531D02*
X10741491Y-12638579D01*
X10741491Y-12638579D02*
X10751015Y-12676674D01*
X10751015Y-12676674D02*
X10751015Y-12724293D01*
X10751015Y-12724293D02*
X10741491Y-12762388D01*
X10741491Y-12762388D02*
X10731968Y-12781436D01*
X10731968Y-12781436D02*
X10722444Y-12790960D01*
X10722444Y-12790960D02*
X10703396Y-12800484D01*
X10703396Y-12800484D02*
X10684348Y-12800484D01*
X10684348Y-12800484D02*
X10665301Y-12790960D01*
X10665301Y-12790960D02*
X10655777Y-12781436D01*
X10655777Y-12781436D02*
X10646253Y-12762388D01*
X10646253Y-12762388D02*
X10636729Y-12724293D01*
X10636729Y-12724293D02*
X10636729Y-12676674D01*
X10636729Y-12676674D02*
X10646253Y-12638579D01*
X10646253Y-12638579D02*
X10655777Y-12619531D01*
X10655777Y-12619531D02*
X10665301Y-12610008D01*
X10665301Y-12610008D02*
X10684348Y-12600484D01*
X10874825Y-12600484D02*
X10893872Y-12600484D01*
X10893872Y-12600484D02*
X10912920Y-12610008D01*
X10912920Y-12610008D02*
X10922444Y-12619531D01*
X10922444Y-12619531D02*
X10931968Y-12638579D01*
X10931968Y-12638579D02*
X10941491Y-12676674D01*
X10941491Y-12676674D02*
X10941491Y-12724293D01*
X10941491Y-12724293D02*
X10931968Y-12762388D01*
X10931968Y-12762388D02*
X10922444Y-12781436D01*
X10922444Y-12781436D02*
X10912920Y-12790960D01*
X10912920Y-12790960D02*
X10893872Y-12800484D01*
X10893872Y-12800484D02*
X10874825Y-12800484D01*
X10874825Y-12800484D02*
X10855777Y-12790960D01*
X10855777Y-12790960D02*
X10846253Y-12781436D01*
X10846253Y-12781436D02*
X10836729Y-12762388D01*
X10836729Y-12762388D02*
X10827206Y-12724293D01*
X10827206Y-12724293D02*
X10827206Y-12676674D01*
X10827206Y-12676674D02*
X10836729Y-12638579D01*
X10836729Y-12638579D02*
X10846253Y-12619531D01*
X10846253Y-12619531D02*
X10855777Y-12610008D01*
X10855777Y-12610008D02*
X10874825Y-12600484D01*
X11036729Y-12800484D02*
X11074825Y-12800484D01*
X11074825Y-12800484D02*
X11093872Y-12790960D01*
X11093872Y-12790960D02*
X11103396Y-12781436D01*
X11103396Y-12781436D02*
X11122444Y-12752865D01*
X11122444Y-12752865D02*
X11131968Y-12714769D01*
X11131968Y-12714769D02*
X11131968Y-12638579D01*
X11131968Y-12638579D02*
X11122444Y-12619531D01*
X11122444Y-12619531D02*
X11112920Y-12610008D01*
X11112920Y-12610008D02*
X11093872Y-12600484D01*
X11093872Y-12600484D02*
X11055777Y-12600484D01*
X11055777Y-12600484D02*
X11036729Y-12610008D01*
X11036729Y-12610008D02*
X11027206Y-12619531D01*
X11027206Y-12619531D02*
X11017682Y-12638579D01*
X11017682Y-12638579D02*
X11017682Y-12686198D01*
X11017682Y-12686198D02*
X11027206Y-12705246D01*
X11027206Y-12705246D02*
X11036729Y-12714769D01*
X11036729Y-12714769D02*
X11055777Y-12724293D01*
X11055777Y-12724293D02*
X11093872Y-12724293D01*
X11093872Y-12724293D02*
X11112920Y-12714769D01*
X11112920Y-12714769D02*
X11122444Y-12705246D01*
X11122444Y-12705246D02*
X11131968Y-12686198D01*
X11246253Y-12686198D02*
X11227206Y-12676674D01*
X11227206Y-12676674D02*
X11217682Y-12667150D01*
X11217682Y-12667150D02*
X11208158Y-12648103D01*
X11208158Y-12648103D02*
X11208158Y-12638579D01*
X11208158Y-12638579D02*
X11217682Y-12619531D01*
X11217682Y-12619531D02*
X11227206Y-12610008D01*
X11227206Y-12610008D02*
X11246253Y-12600484D01*
X11246253Y-12600484D02*
X11284348Y-12600484D01*
X11284348Y-12600484D02*
X11303396Y-12610008D01*
X11303396Y-12610008D02*
X11312920Y-12619531D01*
X11312920Y-12619531D02*
X11322444Y-12638579D01*
X11322444Y-12638579D02*
X11322444Y-12648103D01*
X11322444Y-12648103D02*
X11312920Y-12667150D01*
X11312920Y-12667150D02*
X11303396Y-12676674D01*
X11303396Y-12676674D02*
X11284348Y-12686198D01*
X11284348Y-12686198D02*
X11246253Y-12686198D01*
X11246253Y-12686198D02*
X11227206Y-12695722D01*
X11227206Y-12695722D02*
X11217682Y-12705246D01*
X11217682Y-12705246D02*
X11208158Y-12724293D01*
X11208158Y-12724293D02*
X11208158Y-12762388D01*
X11208158Y-12762388D02*
X11217682Y-12781436D01*
X11217682Y-12781436D02*
X11227206Y-12790960D01*
X11227206Y-12790960D02*
X11246253Y-12800484D01*
X11246253Y-12800484D02*
X11284348Y-12800484D01*
X11284348Y-12800484D02*
X11303396Y-12790960D01*
X11303396Y-12790960D02*
X11312920Y-12781436D01*
X11312920Y-12781436D02*
X11322444Y-12762388D01*
X11322444Y-12762388D02*
X11322444Y-12724293D01*
X11322444Y-12724293D02*
X11312920Y-12705246D01*
X11312920Y-12705246D02*
X11303396Y-12695722D01*
X11303396Y-12695722D02*
X11284348Y-12686198D01*
X11398634Y-12600484D02*
X11398634Y-12638579D01*
X11474825Y-12600484D02*
X11474825Y-12638579D01*
X11770063Y-12876674D02*
X11760539Y-12867150D01*
X11760539Y-12867150D02*
X11741491Y-12838579D01*
X11741491Y-12838579D02*
X11731968Y-12819531D01*
X11731968Y-12819531D02*
X11722444Y-12790960D01*
X11722444Y-12790960D02*
X11712920Y-12743341D01*
X11712920Y-12743341D02*
X11712920Y-12705246D01*
X11712920Y-12705246D02*
X11722444Y-12657627D01*
X11722444Y-12657627D02*
X11731968Y-12629055D01*
X11731968Y-12629055D02*
X11741491Y-12610008D01*
X11741491Y-12610008D02*
X11760539Y-12581436D01*
X11760539Y-12581436D02*
X11770063Y-12571912D01*
X11827206Y-12600484D02*
X11951015Y-12600484D01*
X11951015Y-12600484D02*
X11884348Y-12676674D01*
X11884348Y-12676674D02*
X11912920Y-12676674D01*
X11912920Y-12676674D02*
X11931968Y-12686198D01*
X11931968Y-12686198D02*
X11941491Y-12695722D01*
X11941491Y-12695722D02*
X11951015Y-12714769D01*
X11951015Y-12714769D02*
X11951015Y-12762388D01*
X11951015Y-12762388D02*
X11941491Y-12781436D01*
X11941491Y-12781436D02*
X11931968Y-12790960D01*
X11931968Y-12790960D02*
X11912920Y-12800484D01*
X11912920Y-12800484D02*
X11855777Y-12800484D01*
X11855777Y-12800484D02*
X11836729Y-12790960D01*
X11836729Y-12790960D02*
X11827206Y-12781436D01*
X12131968Y-12600484D02*
X12036729Y-12600484D01*
X12036729Y-12600484D02*
X12027206Y-12695722D01*
X12027206Y-12695722D02*
X12036729Y-12686198D01*
X12036729Y-12686198D02*
X12055777Y-12676674D01*
X12055777Y-12676674D02*
X12103396Y-12676674D01*
X12103396Y-12676674D02*
X12122444Y-12686198D01*
X12122444Y-12686198D02*
X12131968Y-12695722D01*
X12131968Y-12695722D02*
X12141491Y-12714769D01*
X12141491Y-12714769D02*
X12141491Y-12762388D01*
X12141491Y-12762388D02*
X12131968Y-12781436D01*
X12131968Y-12781436D02*
X12122444Y-12790960D01*
X12122444Y-12790960D02*
X12103396Y-12800484D01*
X12103396Y-12800484D02*
X12055777Y-12800484D01*
X12055777Y-12800484D02*
X12036729Y-12790960D01*
X12036729Y-12790960D02*
X12027206Y-12781436D01*
X12379587Y-12800484D02*
X12379587Y-12600484D01*
X12465301Y-12800484D02*
X12465301Y-12695722D01*
X12465301Y-12695722D02*
X12455777Y-12676674D01*
X12455777Y-12676674D02*
X12436730Y-12667150D01*
X12436730Y-12667150D02*
X12408158Y-12667150D01*
X12408158Y-12667150D02*
X12389110Y-12676674D01*
X12389110Y-12676674D02*
X12379587Y-12686198D01*
X12589110Y-12800484D02*
X12570063Y-12790960D01*
X12570063Y-12790960D02*
X12560539Y-12781436D01*
X12560539Y-12781436D02*
X12551015Y-12762388D01*
X12551015Y-12762388D02*
X12551015Y-12705246D01*
X12551015Y-12705246D02*
X12560539Y-12686198D01*
X12560539Y-12686198D02*
X12570063Y-12676674D01*
X12570063Y-12676674D02*
X12589110Y-12667150D01*
X12589110Y-12667150D02*
X12617682Y-12667150D01*
X12617682Y-12667150D02*
X12636730Y-12676674D01*
X12636730Y-12676674D02*
X12646253Y-12686198D01*
X12646253Y-12686198D02*
X12655777Y-12705246D01*
X12655777Y-12705246D02*
X12655777Y-12762388D01*
X12655777Y-12762388D02*
X12646253Y-12781436D01*
X12646253Y-12781436D02*
X12636730Y-12790960D01*
X12636730Y-12790960D02*
X12617682Y-12800484D01*
X12617682Y-12800484D02*
X12589110Y-12800484D01*
X12770063Y-12800484D02*
X12751015Y-12790960D01*
X12751015Y-12790960D02*
X12741491Y-12771912D01*
X12741491Y-12771912D02*
X12741491Y-12600484D01*
X12922444Y-12790960D02*
X12903396Y-12800484D01*
X12903396Y-12800484D02*
X12865301Y-12800484D01*
X12865301Y-12800484D02*
X12846253Y-12790960D01*
X12846253Y-12790960D02*
X12836730Y-12771912D01*
X12836730Y-12771912D02*
X12836730Y-12695722D01*
X12836730Y-12695722D02*
X12846253Y-12676674D01*
X12846253Y-12676674D02*
X12865301Y-12667150D01*
X12865301Y-12667150D02*
X12903396Y-12667150D01*
X12903396Y-12667150D02*
X12922444Y-12676674D01*
X12922444Y-12676674D02*
X12931968Y-12695722D01*
X12931968Y-12695722D02*
X12931968Y-12714769D01*
X12931968Y-12714769D02*
X12836730Y-12733817D01*
X13008158Y-12790960D02*
X13027206Y-12800484D01*
X13027206Y-12800484D02*
X13065301Y-12800484D01*
X13065301Y-12800484D02*
X13084349Y-12790960D01*
X13084349Y-12790960D02*
X13093872Y-12771912D01*
X13093872Y-12771912D02*
X13093872Y-12762388D01*
X13093872Y-12762388D02*
X13084349Y-12743341D01*
X13084349Y-12743341D02*
X13065301Y-12733817D01*
X13065301Y-12733817D02*
X13036730Y-12733817D01*
X13036730Y-12733817D02*
X13017682Y-12724293D01*
X13017682Y-12724293D02*
X13008158Y-12705246D01*
X13008158Y-12705246D02*
X13008158Y-12695722D01*
X13008158Y-12695722D02*
X13017682Y-12676674D01*
X13017682Y-12676674D02*
X13036730Y-12667150D01*
X13036730Y-12667150D02*
X13065301Y-12667150D01*
X13065301Y-12667150D02*
X13084349Y-12676674D01*
X13160539Y-12876674D02*
X13170063Y-12867150D01*
X13170063Y-12867150D02*
X13189111Y-12838579D01*
X13189111Y-12838579D02*
X13198634Y-12819531D01*
X13198634Y-12819531D02*
X13208158Y-12790960D01*
X13208158Y-12790960D02*
X13217682Y-12743341D01*
X13217682Y-12743341D02*
X13217682Y-12705246D01*
X13217682Y-12705246D02*
X13208158Y-12657627D01*
X13208158Y-12657627D02*
X13198634Y-12629055D01*
X13198634Y-12629055D02*
X13189111Y-12610008D01*
X13189111Y-12610008D02*
X13170063Y-12581436D01*
X13170063Y-12581436D02*
X13160539Y-12571912D01*
D10*
X8165000Y-12943000D02*
X8165000Y-13003000D01*
X8135000Y-12973000D02*
X8195000Y-12973000D01*
D11*
X8493872Y-12864484D02*
X8512920Y-12864484D01*
X8512920Y-12864484D02*
X8531967Y-12874008D01*
X8531967Y-12874008D02*
X8541491Y-12883531D01*
X8541491Y-12883531D02*
X8551015Y-12902579D01*
X8551015Y-12902579D02*
X8560539Y-12940674D01*
X8560539Y-12940674D02*
X8560539Y-12988293D01*
X8560539Y-12988293D02*
X8551015Y-13026388D01*
X8551015Y-13026388D02*
X8541491Y-13045436D01*
X8541491Y-13045436D02*
X8531967Y-13054960D01*
X8531967Y-13054960D02*
X8512920Y-13064484D01*
X8512920Y-13064484D02*
X8493872Y-13064484D01*
X8493872Y-13064484D02*
X8474824Y-13054960D01*
X8474824Y-13054960D02*
X8465301Y-13045436D01*
X8465301Y-13045436D02*
X8455777Y-13026388D01*
X8455777Y-13026388D02*
X8446253Y-12988293D01*
X8446253Y-12988293D02*
X8446253Y-12940674D01*
X8446253Y-12940674D02*
X8455777Y-12902579D01*
X8455777Y-12902579D02*
X8465301Y-12883531D01*
X8465301Y-12883531D02*
X8474824Y-12874008D01*
X8474824Y-12874008D02*
X8493872Y-12864484D01*
X8646253Y-13045436D02*
X8655777Y-13054960D01*
X8655777Y-13054960D02*
X8646253Y-13064484D01*
X8646253Y-13064484D02*
X8636729Y-13054960D01*
X8636729Y-13054960D02*
X8646253Y-13045436D01*
X8646253Y-13045436D02*
X8646253Y-13064484D01*
X8827205Y-12864484D02*
X8789110Y-12864484D01*
X8789110Y-12864484D02*
X8770063Y-12874008D01*
X8770063Y-12874008D02*
X8760539Y-12883531D01*
X8760539Y-12883531D02*
X8741491Y-12912103D01*
X8741491Y-12912103D02*
X8731967Y-12950198D01*
X8731967Y-12950198D02*
X8731967Y-13026388D01*
X8731967Y-13026388D02*
X8741491Y-13045436D01*
X8741491Y-13045436D02*
X8751015Y-13054960D01*
X8751015Y-13054960D02*
X8770063Y-13064484D01*
X8770063Y-13064484D02*
X8808158Y-13064484D01*
X8808158Y-13064484D02*
X8827205Y-13054960D01*
X8827205Y-13054960D02*
X8836729Y-13045436D01*
X8836729Y-13045436D02*
X8846253Y-13026388D01*
X8846253Y-13026388D02*
X8846253Y-12978769D01*
X8846253Y-12978769D02*
X8836729Y-12959722D01*
X8836729Y-12959722D02*
X8827205Y-12950198D01*
X8827205Y-12950198D02*
X8808158Y-12940674D01*
X8808158Y-12940674D02*
X8770063Y-12940674D01*
X8770063Y-12940674D02*
X8751015Y-12950198D01*
X8751015Y-12950198D02*
X8741491Y-12959722D01*
X8741491Y-12959722D02*
X8731967Y-12978769D01*
X8970063Y-12864484D02*
X8989110Y-12864484D01*
X8989110Y-12864484D02*
X9008158Y-12874008D01*
X9008158Y-12874008D02*
X9017682Y-12883531D01*
X9017682Y-12883531D02*
X9027205Y-12902579D01*
X9027205Y-12902579D02*
X9036729Y-12940674D01*
X9036729Y-12940674D02*
X9036729Y-12988293D01*
X9036729Y-12988293D02*
X9027205Y-13026388D01*
X9027205Y-13026388D02*
X9017682Y-13045436D01*
X9017682Y-13045436D02*
X9008158Y-13054960D01*
X9008158Y-13054960D02*
X8989110Y-13064484D01*
X8989110Y-13064484D02*
X8970063Y-13064484D01*
X8970063Y-13064484D02*
X8951015Y-13054960D01*
X8951015Y-13054960D02*
X8941491Y-13045436D01*
X8941491Y-13045436D02*
X8931967Y-13026388D01*
X8931967Y-13026388D02*
X8922444Y-12988293D01*
X8922444Y-12988293D02*
X8922444Y-12940674D01*
X8922444Y-12940674D02*
X8931967Y-12902579D01*
X8931967Y-12902579D02*
X8941491Y-12883531D01*
X8941491Y-12883531D02*
X8951015Y-12874008D01*
X8951015Y-12874008D02*
X8970063Y-12864484D01*
X9160539Y-12864484D02*
X9179586Y-12864484D01*
X9179586Y-12864484D02*
X9198634Y-12874008D01*
X9198634Y-12874008D02*
X9208158Y-12883531D01*
X9208158Y-12883531D02*
X9217682Y-12902579D01*
X9217682Y-12902579D02*
X9227205Y-12940674D01*
X9227205Y-12940674D02*
X9227205Y-12988293D01*
X9227205Y-12988293D02*
X9217682Y-13026388D01*
X9217682Y-13026388D02*
X9208158Y-13045436D01*
X9208158Y-13045436D02*
X9198634Y-13054960D01*
X9198634Y-13054960D02*
X9179586Y-13064484D01*
X9179586Y-13064484D02*
X9160539Y-13064484D01*
X9160539Y-13064484D02*
X9141491Y-13054960D01*
X9141491Y-13054960D02*
X9131967Y-13045436D01*
X9131967Y-13045436D02*
X9122444Y-13026388D01*
X9122444Y-13026388D02*
X9112920Y-12988293D01*
X9112920Y-12988293D02*
X9112920Y-12940674D01*
X9112920Y-12940674D02*
X9122444Y-12902579D01*
X9122444Y-12902579D02*
X9131967Y-12883531D01*
X9131967Y-12883531D02*
X9141491Y-12874008D01*
X9141491Y-12874008D02*
X9160539Y-12864484D01*
X9312920Y-13064484D02*
X9312920Y-12931150D01*
X9312920Y-12950198D02*
X9322444Y-12940674D01*
X9322444Y-12940674D02*
X9341491Y-12931150D01*
X9341491Y-12931150D02*
X9370063Y-12931150D01*
X9370063Y-12931150D02*
X9389110Y-12940674D01*
X9389110Y-12940674D02*
X9398634Y-12959722D01*
X9398634Y-12959722D02*
X9398634Y-13064484D01*
X9398634Y-12959722D02*
X9408158Y-12940674D01*
X9408158Y-12940674D02*
X9427205Y-12931150D01*
X9427205Y-12931150D02*
X9455777Y-12931150D01*
X9455777Y-12931150D02*
X9474825Y-12940674D01*
X9474825Y-12940674D02*
X9484348Y-12959722D01*
X9484348Y-12959722D02*
X9484348Y-13064484D01*
X9579586Y-13064484D02*
X9579586Y-12931150D01*
X9579586Y-12950198D02*
X9589110Y-12940674D01*
X9589110Y-12940674D02*
X9608158Y-12931150D01*
X9608158Y-12931150D02*
X9636729Y-12931150D01*
X9636729Y-12931150D02*
X9655777Y-12940674D01*
X9655777Y-12940674D02*
X9665301Y-12959722D01*
X9665301Y-12959722D02*
X9665301Y-13064484D01*
X9665301Y-12959722D02*
X9674825Y-12940674D01*
X9674825Y-12940674D02*
X9693872Y-12931150D01*
X9693872Y-12931150D02*
X9722444Y-12931150D01*
X9722444Y-12931150D02*
X9741491Y-12940674D01*
X9741491Y-12940674D02*
X9751015Y-12959722D01*
X9751015Y-12959722D02*
X9751015Y-13064484D01*
X10141491Y-12854960D02*
X9970063Y-13112103D01*
X10398634Y-12864484D02*
X10417682Y-12864484D01*
X10417682Y-12864484D02*
X10436729Y-12874008D01*
X10436729Y-12874008D02*
X10446253Y-12883531D01*
X10446253Y-12883531D02*
X10455777Y-12902579D01*
X10455777Y-12902579D02*
X10465301Y-12940674D01*
X10465301Y-12940674D02*
X10465301Y-12988293D01*
X10465301Y-12988293D02*
X10455777Y-13026388D01*
X10455777Y-13026388D02*
X10446253Y-13045436D01*
X10446253Y-13045436D02*
X10436729Y-13054960D01*
X10436729Y-13054960D02*
X10417682Y-13064484D01*
X10417682Y-13064484D02*
X10398634Y-13064484D01*
X10398634Y-13064484D02*
X10379587Y-13054960D01*
X10379587Y-13054960D02*
X10370063Y-13045436D01*
X10370063Y-13045436D02*
X10360539Y-13026388D01*
X10360539Y-13026388D02*
X10351015Y-12988293D01*
X10351015Y-12988293D02*
X10351015Y-12940674D01*
X10351015Y-12940674D02*
X10360539Y-12902579D01*
X10360539Y-12902579D02*
X10370063Y-12883531D01*
X10370063Y-12883531D02*
X10379587Y-12874008D01*
X10379587Y-12874008D02*
X10398634Y-12864484D01*
X10551015Y-13045436D02*
X10560539Y-13054960D01*
X10560539Y-13054960D02*
X10551015Y-13064484D01*
X10551015Y-13064484D02*
X10541491Y-13054960D01*
X10541491Y-13054960D02*
X10551015Y-13045436D01*
X10551015Y-13045436D02*
X10551015Y-13064484D01*
X10684348Y-12864484D02*
X10703396Y-12864484D01*
X10703396Y-12864484D02*
X10722444Y-12874008D01*
X10722444Y-12874008D02*
X10731968Y-12883531D01*
X10731968Y-12883531D02*
X10741491Y-12902579D01*
X10741491Y-12902579D02*
X10751015Y-12940674D01*
X10751015Y-12940674D02*
X10751015Y-12988293D01*
X10751015Y-12988293D02*
X10741491Y-13026388D01*
X10741491Y-13026388D02*
X10731968Y-13045436D01*
X10731968Y-13045436D02*
X10722444Y-13054960D01*
X10722444Y-13054960D02*
X10703396Y-13064484D01*
X10703396Y-13064484D02*
X10684348Y-13064484D01*
X10684348Y-13064484D02*
X10665301Y-13054960D01*
X10665301Y-13054960D02*
X10655777Y-13045436D01*
X10655777Y-13045436D02*
X10646253Y-13026388D01*
X10646253Y-13026388D02*
X10636729Y-12988293D01*
X10636729Y-12988293D02*
X10636729Y-12940674D01*
X10636729Y-12940674D02*
X10646253Y-12902579D01*
X10646253Y-12902579D02*
X10655777Y-12883531D01*
X10655777Y-12883531D02*
X10665301Y-12874008D01*
X10665301Y-12874008D02*
X10684348Y-12864484D01*
X10827206Y-12883531D02*
X10836729Y-12874008D01*
X10836729Y-12874008D02*
X10855777Y-12864484D01*
X10855777Y-12864484D02*
X10903396Y-12864484D01*
X10903396Y-12864484D02*
X10922444Y-12874008D01*
X10922444Y-12874008D02*
X10931968Y-12883531D01*
X10931968Y-12883531D02*
X10941491Y-12902579D01*
X10941491Y-12902579D02*
X10941491Y-12921627D01*
X10941491Y-12921627D02*
X10931968Y-12950198D01*
X10931968Y-12950198D02*
X10817682Y-13064484D01*
X10817682Y-13064484D02*
X10941491Y-13064484D01*
X11008158Y-12864484D02*
X11131968Y-12864484D01*
X11131968Y-12864484D02*
X11065301Y-12940674D01*
X11065301Y-12940674D02*
X11093872Y-12940674D01*
X11093872Y-12940674D02*
X11112920Y-12950198D01*
X11112920Y-12950198D02*
X11122444Y-12959722D01*
X11122444Y-12959722D02*
X11131968Y-12978769D01*
X11131968Y-12978769D02*
X11131968Y-13026388D01*
X11131968Y-13026388D02*
X11122444Y-13045436D01*
X11122444Y-13045436D02*
X11112920Y-13054960D01*
X11112920Y-13054960D02*
X11093872Y-13064484D01*
X11093872Y-13064484D02*
X11036729Y-13064484D01*
X11036729Y-13064484D02*
X11017682Y-13054960D01*
X11017682Y-13054960D02*
X11008158Y-13045436D01*
X11303396Y-12864484D02*
X11265301Y-12864484D01*
X11265301Y-12864484D02*
X11246253Y-12874008D01*
X11246253Y-12874008D02*
X11236729Y-12883531D01*
X11236729Y-12883531D02*
X11217682Y-12912103D01*
X11217682Y-12912103D02*
X11208158Y-12950198D01*
X11208158Y-12950198D02*
X11208158Y-13026388D01*
X11208158Y-13026388D02*
X11217682Y-13045436D01*
X11217682Y-13045436D02*
X11227206Y-13054960D01*
X11227206Y-13054960D02*
X11246253Y-13064484D01*
X11246253Y-13064484D02*
X11284348Y-13064484D01*
X11284348Y-13064484D02*
X11303396Y-13054960D01*
X11303396Y-13054960D02*
X11312920Y-13045436D01*
X11312920Y-13045436D02*
X11322444Y-13026388D01*
X11322444Y-13026388D02*
X11322444Y-12978769D01*
X11322444Y-12978769D02*
X11312920Y-12959722D01*
X11312920Y-12959722D02*
X11303396Y-12950198D01*
X11303396Y-12950198D02*
X11284348Y-12940674D01*
X11284348Y-12940674D02*
X11246253Y-12940674D01*
X11246253Y-12940674D02*
X11227206Y-12950198D01*
X11227206Y-12950198D02*
X11217682Y-12959722D01*
X11217682Y-12959722D02*
X11208158Y-12978769D01*
X11398634Y-12864484D02*
X11398634Y-12902579D01*
X11474825Y-12864484D02*
X11474825Y-12902579D01*
X11770063Y-13140674D02*
X11760539Y-13131150D01*
X11760539Y-13131150D02*
X11741491Y-13102579D01*
X11741491Y-13102579D02*
X11731968Y-13083531D01*
X11731968Y-13083531D02*
X11722444Y-13054960D01*
X11722444Y-13054960D02*
X11712920Y-13007341D01*
X11712920Y-13007341D02*
X11712920Y-12969246D01*
X11712920Y-12969246D02*
X11722444Y-12921627D01*
X11722444Y-12921627D02*
X11731968Y-12893055D01*
X11731968Y-12893055D02*
X11741491Y-12874008D01*
X11741491Y-12874008D02*
X11760539Y-12845436D01*
X11760539Y-12845436D02*
X11770063Y-12835912D01*
X11884348Y-12864484D02*
X11903396Y-12864484D01*
X11903396Y-12864484D02*
X11922444Y-12874008D01*
X11922444Y-12874008D02*
X11931968Y-12883531D01*
X11931968Y-12883531D02*
X11941491Y-12902579D01*
X11941491Y-12902579D02*
X11951015Y-12940674D01*
X11951015Y-12940674D02*
X11951015Y-12988293D01*
X11951015Y-12988293D02*
X11941491Y-13026388D01*
X11941491Y-13026388D02*
X11931968Y-13045436D01*
X11931968Y-13045436D02*
X11922444Y-13054960D01*
X11922444Y-13054960D02*
X11903396Y-13064484D01*
X11903396Y-13064484D02*
X11884348Y-13064484D01*
X11884348Y-13064484D02*
X11865301Y-13054960D01*
X11865301Y-13054960D02*
X11855777Y-13045436D01*
X11855777Y-13045436D02*
X11846253Y-13026388D01*
X11846253Y-13026388D02*
X11836729Y-12988293D01*
X11836729Y-12988293D02*
X11836729Y-12940674D01*
X11836729Y-12940674D02*
X11846253Y-12902579D01*
X11846253Y-12902579D02*
X11855777Y-12883531D01*
X11855777Y-12883531D02*
X11865301Y-12874008D01*
X11865301Y-12874008D02*
X11884348Y-12864484D01*
X12189110Y-13064484D02*
X12189110Y-12864484D01*
X12274825Y-13064484D02*
X12274825Y-12959722D01*
X12274825Y-12959722D02*
X12265301Y-12940674D01*
X12265301Y-12940674D02*
X12246253Y-12931150D01*
X12246253Y-12931150D02*
X12217682Y-12931150D01*
X12217682Y-12931150D02*
X12198634Y-12940674D01*
X12198634Y-12940674D02*
X12189110Y-12950198D01*
X12398634Y-13064484D02*
X12379587Y-13054960D01*
X12379587Y-13054960D02*
X12370063Y-13045436D01*
X12370063Y-13045436D02*
X12360539Y-13026388D01*
X12360539Y-13026388D02*
X12360539Y-12969246D01*
X12360539Y-12969246D02*
X12370063Y-12950198D01*
X12370063Y-12950198D02*
X12379587Y-12940674D01*
X12379587Y-12940674D02*
X12398634Y-12931150D01*
X12398634Y-12931150D02*
X12427206Y-12931150D01*
X12427206Y-12931150D02*
X12446253Y-12940674D01*
X12446253Y-12940674D02*
X12455777Y-12950198D01*
X12455777Y-12950198D02*
X12465301Y-12969246D01*
X12465301Y-12969246D02*
X12465301Y-13026388D01*
X12465301Y-13026388D02*
X12455777Y-13045436D01*
X12455777Y-13045436D02*
X12446253Y-13054960D01*
X12446253Y-13054960D02*
X12427206Y-13064484D01*
X12427206Y-13064484D02*
X12398634Y-13064484D01*
X12579587Y-13064484D02*
X12560539Y-13054960D01*
X12560539Y-13054960D02*
X12551015Y-13035912D01*
X12551015Y-13035912D02*
X12551015Y-12864484D01*
X12731968Y-13054960D02*
X12712920Y-13064484D01*
X12712920Y-13064484D02*
X12674825Y-13064484D01*
X12674825Y-13064484D02*
X12655777Y-13054960D01*
X12655777Y-13054960D02*
X12646253Y-13035912D01*
X12646253Y-13035912D02*
X12646253Y-12959722D01*
X12646253Y-12959722D02*
X12655777Y-12940674D01*
X12655777Y-12940674D02*
X12674825Y-12931150D01*
X12674825Y-12931150D02*
X12712920Y-12931150D01*
X12712920Y-12931150D02*
X12731968Y-12940674D01*
X12731968Y-12940674D02*
X12741491Y-12959722D01*
X12741491Y-12959722D02*
X12741491Y-12978769D01*
X12741491Y-12978769D02*
X12646253Y-12997817D01*
X12817682Y-13054960D02*
X12836730Y-13064484D01*
X12836730Y-13064484D02*
X12874825Y-13064484D01*
X12874825Y-13064484D02*
X12893872Y-13054960D01*
X12893872Y-13054960D02*
X12903396Y-13035912D01*
X12903396Y-13035912D02*
X12903396Y-13026388D01*
X12903396Y-13026388D02*
X12893872Y-13007341D01*
X12893872Y-13007341D02*
X12874825Y-12997817D01*
X12874825Y-12997817D02*
X12846253Y-12997817D01*
X12846253Y-12997817D02*
X12827206Y-12988293D01*
X12827206Y-12988293D02*
X12817682Y-12969246D01*
X12817682Y-12969246D02*
X12817682Y-12959722D01*
X12817682Y-12959722D02*
X12827206Y-12940674D01*
X12827206Y-12940674D02*
X12846253Y-12931150D01*
X12846253Y-12931150D02*
X12874825Y-12931150D01*
X12874825Y-12931150D02*
X12893872Y-12940674D01*
X13141492Y-12988293D02*
X13293873Y-12988293D01*
X13217682Y-13064484D02*
X13217682Y-12912103D01*
X13627206Y-12931150D02*
X13627206Y-13064484D01*
X13579587Y-12854960D02*
X13531968Y-12997817D01*
X13531968Y-12997817D02*
X13655777Y-12997817D01*
X13874825Y-13054960D02*
X13893873Y-13064484D01*
X13893873Y-13064484D02*
X13931968Y-13064484D01*
X13931968Y-13064484D02*
X13951015Y-13054960D01*
X13951015Y-13054960D02*
X13960539Y-13035912D01*
X13960539Y-13035912D02*
X13960539Y-13026388D01*
X13960539Y-13026388D02*
X13951015Y-13007341D01*
X13951015Y-13007341D02*
X13931968Y-12997817D01*
X13931968Y-12997817D02*
X13903396Y-12997817D01*
X13903396Y-12997817D02*
X13884349Y-12988293D01*
X13884349Y-12988293D02*
X13874825Y-12969246D01*
X13874825Y-12969246D02*
X13874825Y-12959722D01*
X13874825Y-12959722D02*
X13884349Y-12940674D01*
X13884349Y-12940674D02*
X13903396Y-12931150D01*
X13903396Y-12931150D02*
X13931968Y-12931150D01*
X13931968Y-12931150D02*
X13951015Y-12940674D01*
X14074825Y-13064484D02*
X14055777Y-13054960D01*
X14055777Y-13054960D02*
X14046254Y-13035912D01*
X14046254Y-13035912D02*
X14046254Y-12864484D01*
X14179587Y-13064484D02*
X14160539Y-13054960D01*
X14160539Y-13054960D02*
X14151015Y-13045436D01*
X14151015Y-13045436D02*
X14141492Y-13026388D01*
X14141492Y-13026388D02*
X14141492Y-12969246D01*
X14141492Y-12969246D02*
X14151015Y-12950198D01*
X14151015Y-12950198D02*
X14160539Y-12940674D01*
X14160539Y-12940674D02*
X14179587Y-12931150D01*
X14179587Y-12931150D02*
X14208158Y-12931150D01*
X14208158Y-12931150D02*
X14227206Y-12940674D01*
X14227206Y-12940674D02*
X14236730Y-12950198D01*
X14236730Y-12950198D02*
X14246254Y-12969246D01*
X14246254Y-12969246D02*
X14246254Y-13026388D01*
X14246254Y-13026388D02*
X14236730Y-13045436D01*
X14236730Y-13045436D02*
X14227206Y-13054960D01*
X14227206Y-13054960D02*
X14208158Y-13064484D01*
X14208158Y-13064484D02*
X14179587Y-13064484D01*
X14303396Y-12931150D02*
X14379587Y-12931150D01*
X14331968Y-12864484D02*
X14331968Y-13035912D01*
X14331968Y-13035912D02*
X14341492Y-13054960D01*
X14341492Y-13054960D02*
X14360539Y-13064484D01*
X14360539Y-13064484D02*
X14379587Y-13064484D01*
X14436730Y-13054960D02*
X14455777Y-13064484D01*
X14455777Y-13064484D02*
X14493873Y-13064484D01*
X14493873Y-13064484D02*
X14512920Y-13054960D01*
X14512920Y-13054960D02*
X14522444Y-13035912D01*
X14522444Y-13035912D02*
X14522444Y-13026388D01*
X14522444Y-13026388D02*
X14512920Y-13007341D01*
X14512920Y-13007341D02*
X14493873Y-12997817D01*
X14493873Y-12997817D02*
X14465301Y-12997817D01*
X14465301Y-12997817D02*
X14446254Y-12988293D01*
X14446254Y-12988293D02*
X14436730Y-12969246D01*
X14436730Y-12969246D02*
X14436730Y-12959722D01*
X14436730Y-12959722D02*
X14446254Y-12940674D01*
X14446254Y-12940674D02*
X14465301Y-12931150D01*
X14465301Y-12931150D02*
X14493873Y-12931150D01*
X14493873Y-12931150D02*
X14512920Y-12940674D01*
X14589111Y-13140674D02*
X14598635Y-13131150D01*
X14598635Y-13131150D02*
X14617682Y-13102579D01*
X14617682Y-13102579D02*
X14627206Y-13083531D01*
X14627206Y-13083531D02*
X14636730Y-13054960D01*
X14636730Y-13054960D02*
X14646254Y-13007341D01*
X14646254Y-13007341D02*
X14646254Y-12969246D01*
X14646254Y-12969246D02*
X14636730Y-12921627D01*
X14636730Y-12921627D02*
X14627206Y-12893055D01*
X14627206Y-12893055D02*
X14617682Y-12874008D01*
X14617682Y-12874008D02*
X14598635Y-12845436D01*
X14598635Y-12845436D02*
X14589111Y-12835912D01*
M02*
