%TF.GenerationSoftware,KiCad,Pcbnew,10.0.6-10.0.6~ubuntu24.04.1*%
%TF.CreationDate,2026-09-29T06:48:57+00:00*%
%TF.ProjectId,ridge3-fc,72696467-6533-42d6-9663-2e6b69636164,1.0*%
%TF.SameCoordinates,Original*%
%TF.FileFunction,Copper,L2,Inr*%
%TF.FilePolarity,Positive*%
%FSLAX46Y46*%
G04 Gerber Fmt 4.6, Leading zero omitted, Abs format (unit mm)*
G04 Created by KiCad (PCBNEW 10.0.6-10.0.6~ubuntu24.04.1) date 2026-09-29 06:48:57*
%MOMM*%
%LPD*%
G01*
G04 APERTURE LIST*
%TA.AperFunction,ComponentPad*%
%ADD10O,2.100000X1.000000*%
%TD*%
%TA.AperFunction,ComponentPad*%
%ADD11O,1.800000X1.000000*%
%TD*%
%TA.AperFunction,ViaPad*%
%ADD12C,0.350000*%
%TD*%
%TA.AperFunction,ViaPad*%
%ADD13C,0.500000*%
%TD*%
%TA.AperFunction,ViaPad*%
%ADD14C,0.450000*%
%TD*%
G04 APERTURE END LIST*
D10*
%TO.N,GND*%
%TO.C,J_USB*%
X88780000Y-95680000D03*
D11*
X84600000Y-95680000D03*
X84600000Y-104320000D03*
D10*
X88780000Y-104320000D03*
%TD*%
D12*
%TO.N,VBAT*%
X105750000Y-110650000D03*
X97750000Y-113950000D03*
D13*
X114300000Y-109100000D03*
D12*
X109200000Y-109700000D03*
X111974200Y-96032200D03*
X104950000Y-109200000D03*
X109350000Y-109200000D03*
D13*
X95600000Y-117250000D03*
X95600000Y-116550000D03*
X112700000Y-109100000D03*
X113500000Y-109100000D03*
D12*
X105300000Y-110775000D03*
X106847300Y-95906100D03*
%TO.N,+3V3_GYRO*%
X105950000Y-100940000D03*
X105363900Y-97767500D03*
D13*
%TO.N,GND*%
X112000000Y-104500000D03*
D12*
X106100000Y-107825000D03*
X96555000Y-86990000D03*
X101400000Y-103500000D03*
X99800000Y-98700000D03*
X84345000Y-107900000D03*
X93206000Y-109522000D03*
X101400000Y-92000000D03*
X107078000Y-102758000D03*
X94215000Y-101650000D03*
X105750000Y-116050000D03*
X113267000Y-96747300D03*
X103755000Y-104720000D03*
X113087000Y-97382500D03*
X99800000Y-90400000D03*
X109277000Y-99583500D03*
X105340000Y-86655000D03*
X91800000Y-109525000D03*
X111313000Y-99632400D03*
D13*
X98900000Y-115080000D03*
D12*
X98200000Y-98700000D03*
X117367000Y-108412000D03*
X89920000Y-96080000D03*
X100061000Y-87125500D03*
X95750000Y-106265000D03*
X99225000Y-116450000D03*
X106750000Y-90600000D03*
X109490000Y-104755000D03*
X98200000Y-101900000D03*
X91800000Y-111165000D03*
D13*
X97000000Y-110900000D03*
D12*
X99800000Y-100300000D03*
X96600000Y-100300000D03*
X92500000Y-109450000D03*
X96184000Y-105668000D03*
X109586000Y-94119100D03*
X101400000Y-100300000D03*
D13*
X107828000Y-108195000D03*
X107828000Y-107395000D03*
D12*
X106200000Y-116320000D03*
X99772500Y-84191600D03*
X108400000Y-110480000D03*
X96740000Y-96105000D03*
D13*
X112000000Y-105500000D03*
D12*
X99800000Y-103500000D03*
X98200000Y-103500000D03*
X116603000Y-103553000D03*
X106892000Y-102200000D03*
X106750000Y-92200000D03*
X93384000Y-91468100D03*
X98200000Y-90400000D03*
X96600000Y-103500000D03*
X106375000Y-98242300D03*
X98200000Y-100300000D03*
X98055400Y-87755400D03*
X95147500Y-110722000D03*
X110815000Y-108910000D03*
X100005000Y-87970000D03*
X109122000Y-105422000D03*
X95272500Y-84191600D03*
X105750000Y-116550000D03*
X109455000Y-100320000D03*
D13*
X98000000Y-110900000D03*
D12*
X96077000Y-111623000D03*
X112900000Y-106100000D03*
X108515000Y-105350000D03*
X91805000Y-87870000D03*
X96542300Y-95264100D03*
X109927000Y-92515000D03*
X105150000Y-92200000D03*
X104500000Y-107825000D03*
X106200000Y-108680000D03*
X109277000Y-88616500D03*
X109005000Y-106538000D03*
X96600000Y-98700000D03*
X114400000Y-101615000D03*
X93295500Y-96894000D03*
X115590000Y-93323000D03*
X93717700Y-101925000D03*
X90213800Y-95128300D03*
X91577500Y-102308000D03*
X111335000Y-95180000D03*
X105055000Y-98220000D03*
D13*
X96000000Y-110900000D03*
D12*
X89920000Y-103920000D03*
X98200000Y-92000000D03*
X89655000Y-92770000D03*
X99800000Y-92000000D03*
X109715000Y-104250000D03*
X107340000Y-97755000D03*
X101400000Y-90400000D03*
X108142000Y-98661800D03*
D13*
X98900000Y-114080000D03*
D12*
X96600000Y-90400000D03*
X93055000Y-102220000D03*
X97938900Y-87125500D03*
X96600000Y-92000000D03*
X101400000Y-101900000D03*
X87975000Y-98800000D03*
X92918200Y-108812000D03*
X111777000Y-95492900D03*
X105150000Y-90600000D03*
X99800000Y-101900000D03*
X115450000Y-110015000D03*
X87975000Y-99900000D03*
X84345000Y-91200000D03*
X106822000Y-101397000D03*
X103905000Y-97720000D03*
X117227000Y-90066500D03*
X96600000Y-101900000D03*
X93970200Y-113420000D03*
X108350000Y-90600000D03*
X107455000Y-99470000D03*
X107835000Y-96442300D03*
X101400000Y-98700000D03*
%TO.N,UART1_TX*%
X98632000Y-96893000D03*
X107098100Y-93525800D03*
X107098100Y-83200000D03*
%TO.N,+3V3*%
X107581000Y-95369700D03*
X107242000Y-104925000D03*
X91470000Y-101755000D03*
X103465000Y-90250000D03*
X91889100Y-108568000D03*
X102785000Y-90055200D03*
X117335000Y-107102000D03*
X92487800Y-104162000D03*
X104488000Y-100162000D03*
X103905000Y-99990000D03*
X103070000Y-86655000D03*
X109261000Y-102548000D03*
X104327000Y-87560900D03*
X106532000Y-100402000D03*
X91577500Y-104402000D03*
X94470000Y-96105000D03*
D13*
X105326000Y-106845000D03*
D12*
X92439100Y-91192500D03*
X96717300Y-96758400D03*
D13*
X107182000Y-108954000D03*
D12*
X95764800Y-105276000D03*
X105919000Y-87430300D03*
X103516000Y-100678000D03*
X103325000Y-100186000D03*
X94823600Y-104335000D03*
X103342000Y-98817300D03*
D14*
%TO.N,HSE_OUT*%
X96750000Y-107950000D03*
X93250000Y-107550000D03*
D12*
%TO.N,NRST*%
X99250000Y-104650000D03*
X101943400Y-105366300D03*
X94295000Y-110395000D03*
D14*
%TO.N,SPI1_SCK*%
X103200000Y-103750000D03*
X103450000Y-102300000D03*
D12*
%TO.N,ADC_CURR*%
X108605000Y-100085000D03*
X102973300Y-101418000D03*
%TO.N,ADC_VBAT*%
X107027000Y-98535500D03*
X103534700Y-101305500D03*
%TO.N,TLM*%
X99419500Y-110752200D03*
X102550000Y-98350000D03*
%TO.N,SPI2_MOSI*%
X103201200Y-90956300D03*
X108601700Y-88492800D03*
X99980000Y-94070000D03*
%TO.N,FLASH_CS*%
X99750000Y-97550000D03*
X104850000Y-94410000D03*
%TO.N,OSD_CS*%
X99330000Y-94070000D03*
%TO.N,UART1_RX*%
X113390800Y-96249000D03*
X98250000Y-97550000D03*
D14*
%TO.N,USB_DM*%
X90279900Y-100347000D03*
X92200000Y-97600000D03*
X90279900Y-99346600D03*
X97900000Y-96800000D03*
%TO.N,USB_DP*%
X97250000Y-96950000D03*
X95650000Y-97150000D03*
D12*
%TO.N,SWDIO*%
X94435800Y-97975000D03*
%TO.N,SWCLK*%
X95450000Y-98350000D03*
%TO.N,BEEPER*%
X95450000Y-98850000D03*
X103132600Y-97910400D03*
%TO.N,UART4_TX*%
X90000000Y-83200000D03*
X93670000Y-99350000D03*
%TO.N,UART4_RX*%
X91500000Y-83200000D03*
X94000700Y-99850000D03*
%TO.N,UART2_TX*%
X93623500Y-100162500D03*
X84485900Y-98275100D03*
%TO.N,UART2_RX*%
X87933700Y-92700000D03*
X111995000Y-91445000D03*
X91319400Y-100850000D03*
%TO.N,VTX_OFF*%
X95584600Y-101361000D03*
X108421400Y-101536800D03*
%TO.N,BOOT0*%
X95450000Y-102850000D03*
X115304900Y-103812000D03*
%TO.N,USB_VBUS*%
X92974200Y-98208800D03*
X89360000Y-97600000D03*
X89721800Y-102326600D03*
%TO.N,+5V*%
X83200000Y-89700000D03*
X100950000Y-111500000D03*
X109900000Y-110250000D03*
X98600000Y-106550000D03*
X90000000Y-90500000D03*
X110929100Y-100672900D03*
X107850000Y-106450000D03*
X100150000Y-83450000D03*
X90611000Y-105426300D03*
X87024800Y-91085900D03*
X87429400Y-101805700D03*
D14*
%TO.N,CAM_VIDEO*%
X97250000Y-87000000D03*
D12*
%TO.N,BEEPER_G*%
X107027300Y-106209900D03*
X116114000Y-106163900D03*
%TO.N,+9V*%
X112550000Y-97700000D03*
X93700000Y-83500000D03*
D13*
X114700000Y-91700000D03*
X113900000Y-91700000D03*
D12*
X114300000Y-102250000D03*
%TO.N,VTX_OFF_G*%
X109912600Y-103344900D03*
X109912600Y-100099100D03*
%TO.N,USB_CC1*%
X89360000Y-98750000D03*
%TO.N,USB_CC2*%
X86290000Y-99900000D03*
%TO.N,+3V3_OSD*%
X93015000Y-89890000D03*
X99484500Y-87671400D03*
X96260300Y-94070000D03*
%TO.N,OSD_RST*%
X100630000Y-88330000D03*
%TO.N,OSD_VIN*%
X98787600Y-87761600D03*
D14*
%TO.N,OSD_VOUT*%
X95250000Y-89550000D03*
D12*
%TO.N,BUCK9_EN*%
X115800000Y-108652700D03*
X109788400Y-114616000D03*
X110445000Y-97895000D03*
%TO.N,CUR*%
X109992000Y-99032600D03*
X102000000Y-110918700D03*
D14*
%TO.N,VTX_VIDEO*%
X95750000Y-87100000D03*
D12*
%TO.N,BUCK9_FB*%
X116681000Y-105556300D03*
X115864000Y-98411800D03*
%TO.N,BUCK5_FB*%
X94700500Y-105642700D03*
X93563600Y-110614700D03*
%TO.N,BUCK9_VCC*%
X114900000Y-107500000D03*
X114000000Y-103700000D03*
%TO.N,BUCK9_RT*%
X117165000Y-105135000D03*
X115000000Y-103100000D03*
%TD*%
%TA.AperFunction,Conductor*%
%TO.N,GND*%
G36*
X115165652Y-82368907D02*
G01*
X115201616Y-82418407D01*
X115201616Y-82479593D01*
X115193747Y-82497536D01*
X115120692Y-82627411D01*
X115114888Y-82636526D01*
X115013168Y-82778529D01*
X115006405Y-82786957D01*
X114888013Y-82919037D01*
X114884299Y-82922960D01*
X114858233Y-82949027D01*
X114858232Y-82949029D01*
X113583116Y-84224143D01*
X113528599Y-84251920D01*
X113484374Y-84248876D01*
X113354779Y-84209564D01*
X113354774Y-84209563D01*
X112750003Y-84150000D01*
X112749997Y-84150000D01*
X112145224Y-84209563D01*
X112145219Y-84209564D01*
X111563680Y-84385973D01*
X111563675Y-84385975D01*
X111027734Y-84672441D01*
X110557973Y-85057963D01*
X110557963Y-85057973D01*
X110172441Y-85527734D01*
X109885975Y-86063675D01*
X109885973Y-86063680D01*
X109709564Y-86645219D01*
X109709563Y-86645224D01*
X109650000Y-87249997D01*
X109650000Y-87250003D01*
X109709563Y-87854774D01*
X109709564Y-87854779D01*
X109885973Y-88436318D01*
X109885975Y-88436323D01*
X110172441Y-88972264D01*
X110432163Y-89288737D01*
X110557968Y-89442031D01*
X110557973Y-89442035D01*
X111027734Y-89827557D01*
X111563675Y-90114023D01*
X111563681Y-90114026D01*
X111968811Y-90236920D01*
X112145219Y-90290434D01*
X112145224Y-90290435D01*
X112749997Y-90350000D01*
X112750000Y-90350000D01*
X112750003Y-90350000D01*
X113354774Y-90290435D01*
X113354779Y-90290434D01*
X113936318Y-90114026D01*
X114195482Y-89975500D01*
X114472264Y-89827557D01*
X114472265Y-89827555D01*
X114472267Y-89827555D01*
X114942031Y-89442031D01*
X115327555Y-88972267D01*
X115614026Y-88436318D01*
X115790434Y-87854779D01*
X115790435Y-87854774D01*
X115850000Y-87250003D01*
X115850000Y-87249996D01*
X115790435Y-86645224D01*
X115790434Y-86645219D01*
X115751121Y-86515622D01*
X115752322Y-86454449D01*
X115775855Y-86416880D01*
X117045289Y-85147448D01*
X117045290Y-85147447D01*
X117077062Y-85115675D01*
X117080952Y-85111993D01*
X117213053Y-84993583D01*
X117221456Y-84986839D01*
X117363491Y-84885097D01*
X117372576Y-84879313D01*
X117502465Y-84806250D01*
X117562452Y-84794202D01*
X117618065Y-84819713D01*
X117648061Y-84873041D01*
X117650000Y-84892537D01*
X117650000Y-104854572D01*
X117631093Y-104912763D01*
X117581593Y-104948727D01*
X117520407Y-104948727D01*
X117470907Y-104912763D01*
X117465643Y-104904656D01*
X117465480Y-104904444D01*
X117465476Y-104904440D01*
X117465475Y-104904438D01*
X117395562Y-104834525D01*
X117395559Y-104834523D01*
X117309941Y-104785091D01*
X117309943Y-104785091D01*
X117272885Y-104775161D01*
X117214435Y-104759500D01*
X117115565Y-104759500D01*
X117057114Y-104775161D01*
X117020057Y-104785091D01*
X116934440Y-104834523D01*
X116864523Y-104904440D01*
X116815091Y-104990057D01*
X116789499Y-105085567D01*
X116788653Y-105091999D01*
X116786287Y-105091687D01*
X116770593Y-105139991D01*
X116721093Y-105175955D01*
X116690500Y-105180800D01*
X116631565Y-105180800D01*
X116575816Y-105195738D01*
X116536057Y-105206391D01*
X116450440Y-105255823D01*
X116380523Y-105325740D01*
X116331091Y-105411357D01*
X116316783Y-105464753D01*
X116305500Y-105506865D01*
X116305500Y-105605735D01*
X116321856Y-105666775D01*
X116324839Y-105677909D01*
X116321636Y-105739011D01*
X116283131Y-105786561D01*
X116224030Y-105802396D01*
X116203590Y-105799159D01*
X116177087Y-105792058D01*
X116163435Y-105788400D01*
X116064565Y-105788400D01*
X116006114Y-105804061D01*
X115969057Y-105813991D01*
X115883440Y-105863423D01*
X115813523Y-105933340D01*
X115764091Y-106018957D01*
X115764090Y-106018962D01*
X115738500Y-106114465D01*
X115738500Y-106213335D01*
X115745568Y-106239712D01*
X115764091Y-106308842D01*
X115790650Y-106354842D01*
X115813525Y-106394462D01*
X115883438Y-106464375D01*
X115883440Y-106464376D01*
X115969058Y-106513808D01*
X115969056Y-106513808D01*
X115969060Y-106513809D01*
X115969062Y-106513810D01*
X116064565Y-106539400D01*
X116064567Y-106539400D01*
X116163433Y-106539400D01*
X116163435Y-106539400D01*
X116258938Y-106513810D01*
X116258940Y-106513808D01*
X116258942Y-106513808D01*
X116309692Y-106484507D01*
X116344562Y-106464375D01*
X116414475Y-106394462D01*
X116463910Y-106308838D01*
X116489500Y-106213335D01*
X116489500Y-106114465D01*
X116470160Y-106042287D01*
X116473362Y-105981189D01*
X116511867Y-105933639D01*
X116570968Y-105917803D01*
X116591405Y-105921039D01*
X116631565Y-105931800D01*
X116631567Y-105931800D01*
X116730433Y-105931800D01*
X116730435Y-105931800D01*
X116825938Y-105906210D01*
X116825940Y-105906208D01*
X116825942Y-105906208D01*
X116851377Y-105891522D01*
X116911562Y-105856775D01*
X116981475Y-105786862D01*
X117030910Y-105701238D01*
X117056500Y-105605735D01*
X117056500Y-105605732D01*
X117057347Y-105599301D01*
X117059712Y-105599612D01*
X117075407Y-105551309D01*
X117124907Y-105515345D01*
X117155500Y-105510500D01*
X117214433Y-105510500D01*
X117214435Y-105510500D01*
X117309938Y-105484910D01*
X117309940Y-105484908D01*
X117309942Y-105484908D01*
X117335377Y-105470222D01*
X117395562Y-105435475D01*
X117465475Y-105365562D01*
X117465477Y-105365557D01*
X117465480Y-105365555D01*
X117469424Y-105360416D01*
X117470483Y-105361228D01*
X117510728Y-105324988D01*
X117571578Y-105318589D01*
X117624568Y-105349179D01*
X117649457Y-105405073D01*
X117650000Y-105415427D01*
X117650000Y-106678802D01*
X117631093Y-106736993D01*
X117581593Y-106772957D01*
X117520407Y-106772957D01*
X117501500Y-106764538D01*
X117479941Y-106752091D01*
X117479943Y-106752091D01*
X117423595Y-106736993D01*
X117384435Y-106726500D01*
X117285565Y-106726500D01*
X117246405Y-106736993D01*
X117190057Y-106752091D01*
X117104440Y-106801523D01*
X117034523Y-106871440D01*
X116985091Y-106957057D01*
X116985090Y-106957062D01*
X116959500Y-107052565D01*
X116959500Y-107151435D01*
X116960053Y-107153497D01*
X116985091Y-107246942D01*
X117013127Y-107295500D01*
X117034525Y-107332562D01*
X117104438Y-107402475D01*
X117104440Y-107402476D01*
X117190058Y-107451908D01*
X117190056Y-107451908D01*
X117190060Y-107451909D01*
X117190062Y-107451910D01*
X117285565Y-107477500D01*
X117285567Y-107477500D01*
X117384433Y-107477500D01*
X117384435Y-107477500D01*
X117479938Y-107451910D01*
X117501498Y-107439461D01*
X117561345Y-107426739D01*
X117617242Y-107451624D01*
X117647836Y-107504611D01*
X117650000Y-107525197D01*
X117650000Y-115107461D01*
X117631093Y-115165652D01*
X117581593Y-115201616D01*
X117520407Y-115201616D01*
X117502465Y-115193747D01*
X117372588Y-115120692D01*
X117363478Y-115114892D01*
X117221468Y-115013167D01*
X117213041Y-115006405D01*
X117080970Y-114888021D01*
X117077047Y-114884307D01*
X117045291Y-114852552D01*
X117045289Y-114852551D01*
X115775854Y-113583116D01*
X115748077Y-113528599D01*
X115751121Y-113484374D01*
X115790434Y-113354779D01*
X115790434Y-113354774D01*
X115790435Y-113354774D01*
X115850000Y-112750003D01*
X115850000Y-112749996D01*
X115790435Y-112145224D01*
X115790434Y-112145219D01*
X115708615Y-111875500D01*
X115614026Y-111563681D01*
X115614023Y-111563675D01*
X115327557Y-111027734D01*
X114942035Y-110557973D01*
X114942031Y-110557968D01*
X114840353Y-110474523D01*
X114472264Y-110172441D01*
X113936323Y-109885975D01*
X113936318Y-109885973D01*
X113469078Y-109744237D01*
X113418881Y-109709252D01*
X113398835Y-109651444D01*
X113416596Y-109592893D01*
X113465381Y-109555964D01*
X113497816Y-109550500D01*
X113559307Y-109550500D01*
X113559309Y-109550500D01*
X113673886Y-109519799D01*
X113673888Y-109519797D01*
X113673890Y-109519797D01*
X113776608Y-109460492D01*
X113776608Y-109460491D01*
X113776613Y-109460489D01*
X113829998Y-109407103D01*
X113884513Y-109379328D01*
X113944945Y-109388899D01*
X113970000Y-109407102D01*
X114023387Y-109460489D01*
X114023389Y-109460490D01*
X114023391Y-109460492D01*
X114126110Y-109519797D01*
X114126111Y-109519797D01*
X114126114Y-109519799D01*
X114240691Y-109550500D01*
X114240693Y-109550500D01*
X114359307Y-109550500D01*
X114359309Y-109550500D01*
X114473886Y-109519799D01*
X114473888Y-109519797D01*
X114473890Y-109519797D01*
X114576608Y-109460492D01*
X114576608Y-109460491D01*
X114576613Y-109460489D01*
X114660489Y-109376613D01*
X114664477Y-109369705D01*
X114719797Y-109273890D01*
X114719797Y-109273888D01*
X114719799Y-109273886D01*
X114750500Y-109159309D01*
X114750500Y-109040691D01*
X114719799Y-108926114D01*
X114719797Y-108926111D01*
X114719797Y-108926109D01*
X114660492Y-108823391D01*
X114660490Y-108823389D01*
X114660489Y-108823387D01*
X114576613Y-108739511D01*
X114576610Y-108739509D01*
X114576608Y-108739507D01*
X114477890Y-108682512D01*
X114477889Y-108682512D01*
X114473888Y-108680202D01*
X114473887Y-108680201D01*
X114473886Y-108680201D01*
X114359309Y-108649500D01*
X114240691Y-108649500D01*
X114170567Y-108668289D01*
X114126109Y-108680202D01*
X114023391Y-108739507D01*
X114023390Y-108739508D01*
X114023387Y-108739510D01*
X114023387Y-108739511D01*
X113970001Y-108792896D01*
X113915487Y-108820672D01*
X113855055Y-108811101D01*
X113829999Y-108792897D01*
X113776613Y-108739511D01*
X113776610Y-108739509D01*
X113776608Y-108739507D01*
X113673889Y-108680202D01*
X113673890Y-108680202D01*
X113660351Y-108676574D01*
X113559309Y-108649500D01*
X113440691Y-108649500D01*
X113370567Y-108668289D01*
X113326109Y-108680202D01*
X113223391Y-108739507D01*
X113223390Y-108739508D01*
X113223387Y-108739510D01*
X113223387Y-108739511D01*
X113170001Y-108792896D01*
X113115487Y-108820672D01*
X113055055Y-108811101D01*
X113029999Y-108792897D01*
X112976613Y-108739511D01*
X112976610Y-108739509D01*
X112976608Y-108739507D01*
X112873889Y-108680202D01*
X112873890Y-108680202D01*
X112860351Y-108676574D01*
X112759309Y-108649500D01*
X112640691Y-108649500D01*
X112570567Y-108668289D01*
X112526109Y-108680202D01*
X112423391Y-108739507D01*
X112339507Y-108823391D01*
X112280202Y-108926109D01*
X112280201Y-108926114D01*
X112249500Y-109040691D01*
X112249500Y-109159309D01*
X112268605Y-109230608D01*
X112280202Y-109273890D01*
X112339507Y-109376608D01*
X112339509Y-109376610D01*
X112339511Y-109376613D01*
X112423387Y-109460489D01*
X112423392Y-109460492D01*
X112484553Y-109495804D01*
X112525493Y-109541274D01*
X112531888Y-109602124D01*
X112501295Y-109655112D01*
X112445400Y-109679998D01*
X112444756Y-109680063D01*
X112145224Y-109709563D01*
X112145219Y-109709564D01*
X111563680Y-109885973D01*
X111563675Y-109885975D01*
X111027734Y-110172441D01*
X110557973Y-110557963D01*
X110557963Y-110557973D01*
X110172441Y-111027734D01*
X109885975Y-111563675D01*
X109885973Y-111563680D01*
X109709564Y-112145219D01*
X109709563Y-112145224D01*
X109650000Y-112749997D01*
X109650000Y-112750003D01*
X109709563Y-113354774D01*
X109709564Y-113354779D01*
X109885973Y-113936318D01*
X109885975Y-113936323D01*
X109976136Y-114105002D01*
X109986892Y-114165234D01*
X109960191Y-114220286D01*
X109906230Y-114249128D01*
X109863205Y-114247297D01*
X109837837Y-114240500D01*
X109837835Y-114240500D01*
X109738965Y-114240500D01*
X109680514Y-114256161D01*
X109643457Y-114266091D01*
X109557840Y-114315523D01*
X109487923Y-114385440D01*
X109438491Y-114471057D01*
X109438490Y-114471062D01*
X109412900Y-114566565D01*
X109412900Y-114665435D01*
X109421662Y-114698134D01*
X109438491Y-114760942D01*
X109487923Y-114846559D01*
X109487925Y-114846562D01*
X109557838Y-114916475D01*
X109557840Y-114916476D01*
X109643458Y-114965908D01*
X109643456Y-114965908D01*
X109643460Y-114965909D01*
X109643462Y-114965910D01*
X109738965Y-114991500D01*
X109738967Y-114991500D01*
X109837833Y-114991500D01*
X109837835Y-114991500D01*
X109933338Y-114965910D01*
X109933340Y-114965908D01*
X109933342Y-114965908D01*
X109958777Y-114951222D01*
X110018962Y-114916475D01*
X110088875Y-114846562D01*
X110138310Y-114760938D01*
X110155139Y-114698130D01*
X110188460Y-114646819D01*
X110245581Y-114624892D01*
X110304682Y-114640727D01*
X110327292Y-114660951D01*
X110510595Y-114884307D01*
X110557968Y-114942031D01*
X110557973Y-114942035D01*
X111027734Y-115327557D01*
X111563675Y-115614023D01*
X111563681Y-115614026D01*
X111954455Y-115732566D01*
X112145219Y-115790434D01*
X112145224Y-115790435D01*
X112749997Y-115850000D01*
X112750000Y-115850000D01*
X112750003Y-115850000D01*
X113354774Y-115790435D01*
X113354774Y-115790434D01*
X113354779Y-115790434D01*
X113484375Y-115751121D01*
X113545547Y-115752322D01*
X113583116Y-115775854D01*
X114852551Y-117045289D01*
X114852552Y-117045291D01*
X114884307Y-117077047D01*
X114888021Y-117080970D01*
X115006405Y-117213041D01*
X115013167Y-117221468D01*
X115114892Y-117363478D01*
X115120692Y-117372588D01*
X115193747Y-117502465D01*
X115205796Y-117562452D01*
X115180285Y-117618065D01*
X115126957Y-117648061D01*
X115107461Y-117650000D01*
X96060725Y-117650000D01*
X96002534Y-117631093D01*
X95966570Y-117581593D01*
X95966570Y-117520407D01*
X95974989Y-117501500D01*
X96019797Y-117423890D01*
X96019797Y-117423888D01*
X96019799Y-117423886D01*
X96050500Y-117309309D01*
X96050500Y-117190691D01*
X96019799Y-117076114D01*
X96019797Y-117076111D01*
X96019797Y-117076109D01*
X95960492Y-116973391D01*
X95960490Y-116973389D01*
X95960489Y-116973387D01*
X95957103Y-116970001D01*
X95929328Y-116915487D01*
X95938899Y-116855055D01*
X95957102Y-116829999D01*
X95960489Y-116826613D01*
X96019799Y-116723886D01*
X96050500Y-116609309D01*
X96050500Y-116490691D01*
X96019799Y-116376114D01*
X96019797Y-116376111D01*
X96019797Y-116376109D01*
X95960492Y-116273391D01*
X95960490Y-116273389D01*
X95960489Y-116273387D01*
X95876613Y-116189511D01*
X95876610Y-116189509D01*
X95876608Y-116189507D01*
X95773889Y-116130202D01*
X95773890Y-116130202D01*
X95760351Y-116126574D01*
X95659309Y-116099500D01*
X95540691Y-116099500D01*
X95470567Y-116118289D01*
X95426109Y-116130202D01*
X95323391Y-116189507D01*
X95239507Y-116273391D01*
X95180202Y-116376109D01*
X95180201Y-116376114D01*
X95149500Y-116490691D01*
X95149500Y-116609309D01*
X95176574Y-116710351D01*
X95180202Y-116723890D01*
X95239507Y-116826608D01*
X95239513Y-116826616D01*
X95242898Y-116830001D01*
X95270672Y-116884519D01*
X95261097Y-116944951D01*
X95242898Y-116969999D01*
X95239513Y-116973383D01*
X95239507Y-116973391D01*
X95180202Y-117076109D01*
X95180201Y-117076114D01*
X95149500Y-117190691D01*
X95149500Y-117309309D01*
X95164013Y-117363472D01*
X95180202Y-117423890D01*
X95225011Y-117501500D01*
X95237733Y-117561348D01*
X95212847Y-117617244D01*
X95159859Y-117647837D01*
X95139275Y-117650000D01*
X84892538Y-117650000D01*
X84834347Y-117631093D01*
X84798383Y-117581593D01*
X84798383Y-117520407D01*
X84806252Y-117502465D01*
X84843349Y-117436512D01*
X84879313Y-117372576D01*
X84885097Y-117363491D01*
X84986839Y-117221456D01*
X84993583Y-117213053D01*
X85111993Y-117080952D01*
X85115692Y-117077046D01*
X85161360Y-117031376D01*
X85161360Y-117031375D01*
X86416882Y-115775852D01*
X86471397Y-115748077D01*
X86515622Y-115751121D01*
X86645219Y-115790434D01*
X86645224Y-115790435D01*
X87249997Y-115850000D01*
X87250000Y-115850000D01*
X87250003Y-115850000D01*
X87854774Y-115790435D01*
X87854779Y-115790434D01*
X87980417Y-115752322D01*
X88436318Y-115614026D01*
X88950571Y-115339152D01*
X88972264Y-115327557D01*
X88972265Y-115327555D01*
X88972267Y-115327555D01*
X89442031Y-114942031D01*
X89827555Y-114472267D01*
X89911336Y-114315525D01*
X90114023Y-113936323D01*
X90114026Y-113936318D01*
X90124872Y-113900565D01*
X97374500Y-113900565D01*
X97374500Y-113999435D01*
X97397067Y-114083657D01*
X97400091Y-114094942D01*
X97434519Y-114154571D01*
X97449525Y-114180562D01*
X97519438Y-114250475D01*
X97519440Y-114250476D01*
X97605058Y-114299908D01*
X97605056Y-114299908D01*
X97605060Y-114299909D01*
X97605062Y-114299910D01*
X97700565Y-114325500D01*
X97700567Y-114325500D01*
X97799433Y-114325500D01*
X97799435Y-114325500D01*
X97894938Y-114299910D01*
X97894940Y-114299908D01*
X97894942Y-114299908D01*
X97953514Y-114266091D01*
X97980562Y-114250475D01*
X98050475Y-114180562D01*
X98099910Y-114094938D01*
X98125500Y-113999435D01*
X98125500Y-113900565D01*
X98099910Y-113805062D01*
X98099908Y-113805059D01*
X98099908Y-113805057D01*
X98050476Y-113719440D01*
X98050475Y-113719438D01*
X97980562Y-113649525D01*
X97980559Y-113649523D01*
X97894941Y-113600091D01*
X97894943Y-113600091D01*
X97857885Y-113590161D01*
X97799435Y-113574500D01*
X97700565Y-113574500D01*
X97642114Y-113590161D01*
X97605057Y-113600091D01*
X97519440Y-113649523D01*
X97449523Y-113719440D01*
X97400091Y-113805057D01*
X97400090Y-113805062D01*
X97374500Y-113900565D01*
X90124872Y-113900565D01*
X90290434Y-113354779D01*
X90290435Y-113354774D01*
X90350000Y-112750003D01*
X90350000Y-112749997D01*
X90290435Y-112145224D01*
X90290434Y-112145219D01*
X90208615Y-111875500D01*
X90114026Y-111563681D01*
X90114023Y-111563675D01*
X90075041Y-111490744D01*
X90053565Y-111450565D01*
X100574500Y-111450565D01*
X100574500Y-111549435D01*
X100597067Y-111633657D01*
X100600091Y-111644942D01*
X100649523Y-111730559D01*
X100649525Y-111730562D01*
X100719438Y-111800475D01*
X100719440Y-111800476D01*
X100805058Y-111849908D01*
X100805056Y-111849908D01*
X100805060Y-111849909D01*
X100805062Y-111849910D01*
X100900565Y-111875500D01*
X100900567Y-111875500D01*
X100999433Y-111875500D01*
X100999435Y-111875500D01*
X101094938Y-111849910D01*
X101094940Y-111849908D01*
X101094942Y-111849908D01*
X101120377Y-111835222D01*
X101180562Y-111800475D01*
X101250475Y-111730562D01*
X101299910Y-111644938D01*
X101325500Y-111549435D01*
X101325500Y-111450565D01*
X101299910Y-111355062D01*
X101299908Y-111355059D01*
X101299908Y-111355057D01*
X101250476Y-111269440D01*
X101250475Y-111269438D01*
X101180562Y-111199525D01*
X101180559Y-111199523D01*
X101094941Y-111150091D01*
X101094943Y-111150091D01*
X101057885Y-111140161D01*
X100999435Y-111124500D01*
X100900565Y-111124500D01*
X100842114Y-111140161D01*
X100805057Y-111150091D01*
X100719440Y-111199523D01*
X100649523Y-111269440D01*
X100600091Y-111355057D01*
X100600090Y-111355062D01*
X100574500Y-111450565D01*
X90053565Y-111450565D01*
X89827557Y-111027734D01*
X89494237Y-110621581D01*
X89448019Y-110565265D01*
X93188100Y-110565265D01*
X93188100Y-110664135D01*
X93209743Y-110744908D01*
X93213691Y-110759642D01*
X93263123Y-110845259D01*
X93263125Y-110845262D01*
X93333038Y-110915175D01*
X93333040Y-110915176D01*
X93418658Y-110964608D01*
X93418656Y-110964608D01*
X93418660Y-110964609D01*
X93418662Y-110964610D01*
X93514165Y-110990200D01*
X93514167Y-110990200D01*
X93613033Y-110990200D01*
X93613035Y-110990200D01*
X93708538Y-110964610D01*
X93708540Y-110964608D01*
X93708542Y-110964608D01*
X93733977Y-110949922D01*
X93794162Y-110915175D01*
X93864075Y-110845262D01*
X93905356Y-110773762D01*
X93913508Y-110759642D01*
X93913508Y-110759641D01*
X93913510Y-110759638D01*
X93915226Y-110753231D01*
X93948546Y-110701918D01*
X94005666Y-110679988D01*
X94060354Y-110693116D01*
X94064435Y-110695472D01*
X94064438Y-110695475D01*
X94150062Y-110744910D01*
X94245565Y-110770500D01*
X94245567Y-110770500D01*
X94344433Y-110770500D01*
X94344435Y-110770500D01*
X94439938Y-110744910D01*
X94439940Y-110744908D01*
X94439942Y-110744908D01*
X94473443Y-110725566D01*
X94512935Y-110702765D01*
X99044000Y-110702765D01*
X99044000Y-110801635D01*
X99062122Y-110869266D01*
X99069591Y-110897142D01*
X99110579Y-110968133D01*
X99119025Y-110982762D01*
X99188938Y-111052675D01*
X99217479Y-111069153D01*
X99274558Y-111102108D01*
X99274556Y-111102108D01*
X99274560Y-111102109D01*
X99274562Y-111102110D01*
X99370065Y-111127700D01*
X99370067Y-111127700D01*
X99468933Y-111127700D01*
X99468935Y-111127700D01*
X99564438Y-111102110D01*
X99564440Y-111102108D01*
X99564442Y-111102108D01*
X99610571Y-111075475D01*
X99650062Y-111052675D01*
X99719975Y-110982762D01*
X99769410Y-110897138D01*
X99776879Y-110869265D01*
X101624500Y-110869265D01*
X101624500Y-110968135D01*
X101633014Y-110999908D01*
X101650091Y-111063642D01*
X101685464Y-111124908D01*
X101699525Y-111149262D01*
X101769438Y-111219175D01*
X101769440Y-111219176D01*
X101855058Y-111268608D01*
X101855056Y-111268608D01*
X101855060Y-111268609D01*
X101855062Y-111268610D01*
X101950565Y-111294200D01*
X101950567Y-111294200D01*
X102049433Y-111294200D01*
X102049435Y-111294200D01*
X102144938Y-111268610D01*
X102144940Y-111268608D01*
X102144942Y-111268608D01*
X102170377Y-111253922D01*
X102230562Y-111219175D01*
X102300475Y-111149262D01*
X102349910Y-111063638D01*
X102375500Y-110968135D01*
X102375500Y-110869265D01*
X102349910Y-110773762D01*
X102349909Y-110773760D01*
X102349908Y-110773756D01*
X102346919Y-110768579D01*
X102346917Y-110768577D01*
X102322084Y-110725565D01*
X104924500Y-110725565D01*
X104924500Y-110824435D01*
X104939539Y-110880562D01*
X104950091Y-110919942D01*
X104999523Y-111005559D01*
X104999525Y-111005562D01*
X105069438Y-111075475D01*
X105069440Y-111075476D01*
X105155058Y-111124908D01*
X105155056Y-111124908D01*
X105155060Y-111124909D01*
X105155062Y-111124910D01*
X105250565Y-111150500D01*
X105250567Y-111150500D01*
X105349433Y-111150500D01*
X105349435Y-111150500D01*
X105444938Y-111124910D01*
X105444940Y-111124908D01*
X105444942Y-111124908D01*
X105484432Y-111102108D01*
X105530562Y-111075475D01*
X105565486Y-111040550D01*
X105620000Y-111012774D01*
X105661109Y-111014927D01*
X105700565Y-111025500D01*
X105700567Y-111025500D01*
X105799433Y-111025500D01*
X105799435Y-111025500D01*
X105894938Y-110999910D01*
X105894940Y-110999908D01*
X105894942Y-110999908D01*
X105924644Y-110982759D01*
X105980562Y-110950475D01*
X106050475Y-110880562D01*
X106085222Y-110820377D01*
X106099908Y-110794942D01*
X106099908Y-110794940D01*
X106099910Y-110794938D01*
X106125500Y-110699435D01*
X106125500Y-110600565D01*
X106099910Y-110505062D01*
X106099908Y-110505059D01*
X106099908Y-110505057D01*
X106050476Y-110419440D01*
X106050475Y-110419438D01*
X105980562Y-110349525D01*
X105973705Y-110345566D01*
X105894941Y-110300091D01*
X105894943Y-110300091D01*
X105857885Y-110290161D01*
X105799435Y-110274500D01*
X105700565Y-110274500D01*
X105642114Y-110290161D01*
X105605057Y-110300091D01*
X105519438Y-110349524D01*
X105484514Y-110384448D01*
X105429997Y-110412225D01*
X105388890Y-110410071D01*
X105349437Y-110399500D01*
X105349435Y-110399500D01*
X105250565Y-110399500D01*
X105211114Y-110410071D01*
X105155057Y-110425091D01*
X105069440Y-110474523D01*
X104999523Y-110544440D01*
X104950091Y-110630057D01*
X104950090Y-110630062D01*
X104924500Y-110725565D01*
X102322084Y-110725565D01*
X102308920Y-110702765D01*
X102300475Y-110688138D01*
X102230562Y-110618225D01*
X102199976Y-110600566D01*
X102144941Y-110568791D01*
X102144943Y-110568791D01*
X102104531Y-110557963D01*
X102049435Y-110543200D01*
X101950565Y-110543200D01*
X101895469Y-110557963D01*
X101855057Y-110568791D01*
X101769440Y-110618223D01*
X101699523Y-110688140D01*
X101650091Y-110773757D01*
X101650090Y-110773762D01*
X101624500Y-110869265D01*
X99776879Y-110869265D01*
X99795000Y-110801635D01*
X99795000Y-110702765D01*
X99769410Y-110607262D01*
X99769408Y-110607259D01*
X99769408Y-110607257D01*
X99719976Y-110521640D01*
X99719975Y-110521638D01*
X99650062Y-110451725D01*
X99650059Y-110451723D01*
X99564441Y-110402291D01*
X99564443Y-110402291D01*
X99527385Y-110392361D01*
X99468935Y-110376700D01*
X99370065Y-110376700D01*
X99311614Y-110392361D01*
X99274557Y-110402291D01*
X99188940Y-110451723D01*
X99119023Y-110521640D01*
X99069591Y-110607257D01*
X99064496Y-110626272D01*
X99044000Y-110702765D01*
X94512935Y-110702765D01*
X94525562Y-110695475D01*
X94595475Y-110625562D01*
X94630287Y-110565265D01*
X94644908Y-110539942D01*
X94644908Y-110539940D01*
X94644910Y-110539938D01*
X94670500Y-110444435D01*
X94670500Y-110345565D01*
X94644910Y-110250062D01*
X94644908Y-110250059D01*
X94644908Y-110250057D01*
X94600097Y-110172444D01*
X94595475Y-110164438D01*
X94525562Y-110094525D01*
X94525559Y-110094523D01*
X94439941Y-110045091D01*
X94439943Y-110045091D01*
X94402885Y-110035161D01*
X94344435Y-110019500D01*
X94245565Y-110019500D01*
X94187114Y-110035161D01*
X94150057Y-110045091D01*
X94064440Y-110094523D01*
X93994523Y-110164440D01*
X93945091Y-110250058D01*
X93945090Y-110250059D01*
X93943372Y-110256473D01*
X93910046Y-110307787D01*
X93852924Y-110329712D01*
X93798245Y-110316583D01*
X93794163Y-110314226D01*
X93794162Y-110314225D01*
X93708538Y-110264790D01*
X93613035Y-110239200D01*
X93514165Y-110239200D01*
X93473639Y-110250059D01*
X93418657Y-110264791D01*
X93333040Y-110314223D01*
X93263123Y-110384140D01*
X93213691Y-110469757D01*
X93210797Y-110480559D01*
X93188100Y-110565265D01*
X89448019Y-110565265D01*
X89442035Y-110557973D01*
X89442031Y-110557968D01*
X89340353Y-110474523D01*
X88972264Y-110172441D01*
X88436323Y-109885975D01*
X88436318Y-109885973D01*
X87854779Y-109709564D01*
X87854774Y-109709563D01*
X87255740Y-109650565D01*
X108824500Y-109650565D01*
X108824500Y-109749435D01*
X108843258Y-109819442D01*
X108850091Y-109844942D01*
X108892640Y-109918637D01*
X108899525Y-109930562D01*
X108969438Y-110000475D01*
X108969440Y-110000476D01*
X109055058Y-110049908D01*
X109055056Y-110049908D01*
X109055060Y-110049909D01*
X109055062Y-110049910D01*
X109150565Y-110075500D01*
X109150567Y-110075500D01*
X109249433Y-110075500D01*
X109249435Y-110075500D01*
X109344938Y-110049910D01*
X109398132Y-110019198D01*
X109457977Y-110006476D01*
X109513873Y-110031361D01*
X109544467Y-110084348D01*
X109543258Y-110130556D01*
X109532035Y-110172444D01*
X109524500Y-110200565D01*
X109524500Y-110299435D01*
X109537922Y-110349525D01*
X109550091Y-110394942D01*
X109599523Y-110480559D01*
X109599525Y-110480562D01*
X109669438Y-110550475D01*
X109669440Y-110550476D01*
X109755058Y-110599908D01*
X109755056Y-110599908D01*
X109755060Y-110599909D01*
X109755062Y-110599910D01*
X109850565Y-110625500D01*
X109850567Y-110625500D01*
X109949433Y-110625500D01*
X109949435Y-110625500D01*
X110044938Y-110599910D01*
X110044940Y-110599908D01*
X110044942Y-110599908D01*
X110070377Y-110585222D01*
X110130562Y-110550475D01*
X110200475Y-110480562D01*
X110245665Y-110402291D01*
X110249908Y-110394942D01*
X110249908Y-110394940D01*
X110249910Y-110394938D01*
X110275500Y-110299435D01*
X110275500Y-110200565D01*
X110249910Y-110105062D01*
X110249908Y-110105059D01*
X110249908Y-110105057D01*
X110200476Y-110019440D01*
X110200475Y-110019438D01*
X110130562Y-109949525D01*
X110130559Y-109949523D01*
X110044941Y-109900091D01*
X110044943Y-109900091D01*
X109992260Y-109885975D01*
X109949435Y-109874500D01*
X109850565Y-109874500D01*
X109807740Y-109885975D01*
X109755057Y-109900091D01*
X109701868Y-109930801D01*
X109642020Y-109943523D01*
X109586124Y-109918637D01*
X109555531Y-109865649D01*
X109556740Y-109819444D01*
X109575500Y-109749435D01*
X109575500Y-109650565D01*
X109559645Y-109591393D01*
X109562846Y-109530295D01*
X109585266Y-109495770D01*
X109650475Y-109430562D01*
X109699910Y-109344938D01*
X109725500Y-109249435D01*
X109725500Y-109150565D01*
X109699910Y-109055062D01*
X109699908Y-109055059D01*
X109699908Y-109055057D01*
X109650476Y-108969440D01*
X109650475Y-108969438D01*
X109580562Y-108899525D01*
X109580559Y-108899523D01*
X109494941Y-108850091D01*
X109494943Y-108850091D01*
X109457885Y-108840161D01*
X109399435Y-108824500D01*
X109300565Y-108824500D01*
X109242114Y-108840161D01*
X109205057Y-108850091D01*
X109119440Y-108899523D01*
X109049523Y-108969440D01*
X109000091Y-109055057D01*
X109000090Y-109055062D01*
X108974500Y-109150565D01*
X108974500Y-109249435D01*
X108990354Y-109308606D01*
X108987153Y-109369705D01*
X108964732Y-109404230D01*
X108899524Y-109469438D01*
X108850091Y-109555057D01*
X108840354Y-109591396D01*
X108824500Y-109650565D01*
X87255740Y-109650565D01*
X87250003Y-109650000D01*
X87249997Y-109650000D01*
X86645224Y-109709563D01*
X86645219Y-109709564D01*
X86063680Y-109885973D01*
X86063675Y-109885975D01*
X85527734Y-110172441D01*
X85057973Y-110557963D01*
X85057963Y-110557973D01*
X84672441Y-111027734D01*
X84385975Y-111563675D01*
X84385973Y-111563680D01*
X84209564Y-112145219D01*
X84209563Y-112145224D01*
X84150000Y-112749997D01*
X84150000Y-112750003D01*
X84209563Y-113354774D01*
X84209564Y-113354779D01*
X84248876Y-113484374D01*
X84247675Y-113545548D01*
X84224143Y-113583116D01*
X83906695Y-113900565D01*
X82954709Y-114852551D01*
X82954707Y-114852553D01*
X82922950Y-114884308D01*
X82919028Y-114888021D01*
X82786957Y-115006405D01*
X82778529Y-115013168D01*
X82636526Y-115114888D01*
X82627411Y-115120692D01*
X82497536Y-115193746D01*
X82437548Y-115205795D01*
X82381935Y-115180284D01*
X82351939Y-115126956D01*
X82350000Y-115107460D01*
X82350000Y-109150565D01*
X104574500Y-109150565D01*
X104574500Y-109249435D01*
X104581052Y-109273886D01*
X104600091Y-109344942D01*
X104634322Y-109404230D01*
X104649525Y-109430562D01*
X104719438Y-109500475D01*
X104719440Y-109500476D01*
X104805058Y-109549908D01*
X104805056Y-109549908D01*
X104805060Y-109549909D01*
X104805062Y-109549910D01*
X104900565Y-109575500D01*
X104900567Y-109575500D01*
X104999433Y-109575500D01*
X104999435Y-109575500D01*
X105094938Y-109549910D01*
X105094940Y-109549908D01*
X105094942Y-109549908D01*
X105133937Y-109527394D01*
X105180562Y-109500475D01*
X105250475Y-109430562D01*
X105299910Y-109344938D01*
X105325500Y-109249435D01*
X105325500Y-109150565D01*
X105299910Y-109055062D01*
X105299908Y-109055059D01*
X105299908Y-109055057D01*
X105250476Y-108969440D01*
X105250475Y-108969438D01*
X105180562Y-108899525D01*
X105180559Y-108899523D01*
X105172190Y-108894691D01*
X106731500Y-108894691D01*
X106731500Y-109013309D01*
X106742688Y-109055062D01*
X106762202Y-109127890D01*
X106821507Y-109230608D01*
X106821509Y-109230610D01*
X106821511Y-109230613D01*
X106905387Y-109314489D01*
X106905389Y-109314490D01*
X106905391Y-109314492D01*
X107008110Y-109373797D01*
X107008111Y-109373797D01*
X107008114Y-109373799D01*
X107122691Y-109404500D01*
X107122693Y-109404500D01*
X107241307Y-109404500D01*
X107241309Y-109404500D01*
X107355886Y-109373799D01*
X107355888Y-109373797D01*
X107355890Y-109373797D01*
X107458608Y-109314492D01*
X107458608Y-109314491D01*
X107458613Y-109314489D01*
X107542489Y-109230613D01*
X107601799Y-109127886D01*
X107632500Y-109013309D01*
X107632500Y-108894691D01*
X107601799Y-108780114D01*
X107601797Y-108780111D01*
X107601797Y-108780109D01*
X107542492Y-108677391D01*
X107542490Y-108677389D01*
X107542489Y-108677387D01*
X107468367Y-108603265D01*
X115424500Y-108603265D01*
X115424500Y-108702135D01*
X115427395Y-108712938D01*
X115450091Y-108797642D01*
X115490988Y-108868476D01*
X115499525Y-108883262D01*
X115569438Y-108953175D01*
X115569440Y-108953176D01*
X115655058Y-109002608D01*
X115655056Y-109002608D01*
X115655060Y-109002609D01*
X115655062Y-109002610D01*
X115750565Y-109028200D01*
X115750567Y-109028200D01*
X115849433Y-109028200D01*
X115849435Y-109028200D01*
X115944938Y-109002610D01*
X115944940Y-109002608D01*
X115944942Y-109002608D01*
X115970377Y-108987922D01*
X116030562Y-108953175D01*
X116100475Y-108883262D01*
X116149377Y-108798562D01*
X116149908Y-108797642D01*
X116149908Y-108797640D01*
X116149910Y-108797638D01*
X116175500Y-108702135D01*
X116175500Y-108603265D01*
X116149910Y-108507762D01*
X116149908Y-108507759D01*
X116149908Y-108507757D01*
X116101008Y-108423062D01*
X116100475Y-108422138D01*
X116030562Y-108352225D01*
X116030559Y-108352223D01*
X115944941Y-108302791D01*
X115944943Y-108302791D01*
X115899015Y-108290485D01*
X115849435Y-108277200D01*
X115750565Y-108277200D01*
X115700985Y-108290485D01*
X115655057Y-108302791D01*
X115569440Y-108352223D01*
X115499523Y-108422140D01*
X115450091Y-108507757D01*
X115450090Y-108507762D01*
X115424500Y-108603265D01*
X107468367Y-108603265D01*
X107458613Y-108593511D01*
X107458610Y-108593509D01*
X107458608Y-108593507D01*
X107355889Y-108534202D01*
X107355890Y-108534202D01*
X107342351Y-108530574D01*
X107241309Y-108503500D01*
X107122691Y-108503500D01*
X107052567Y-108522289D01*
X107008109Y-108534202D01*
X106905391Y-108593507D01*
X106821507Y-108677391D01*
X106762202Y-108780109D01*
X106757258Y-108798562D01*
X106731500Y-108894691D01*
X105172190Y-108894691D01*
X105094941Y-108850091D01*
X105094943Y-108850091D01*
X105057885Y-108840161D01*
X104999435Y-108824500D01*
X104900565Y-108824500D01*
X104842114Y-108840161D01*
X104805057Y-108850091D01*
X104719440Y-108899523D01*
X104649523Y-108969440D01*
X104600091Y-109055057D01*
X104600090Y-109055062D01*
X104574500Y-109150565D01*
X82350000Y-109150565D01*
X82350000Y-108518565D01*
X91513600Y-108518565D01*
X91513600Y-108617435D01*
X91531037Y-108682512D01*
X91539191Y-108712942D01*
X91588094Y-108797642D01*
X91588625Y-108798562D01*
X91658538Y-108868475D01*
X91658540Y-108868476D01*
X91744158Y-108917908D01*
X91744156Y-108917908D01*
X91744160Y-108917909D01*
X91744162Y-108917910D01*
X91839665Y-108943500D01*
X91839667Y-108943500D01*
X91938533Y-108943500D01*
X91938535Y-108943500D01*
X92034038Y-108917910D01*
X92034040Y-108917908D01*
X92034042Y-108917908D01*
X92065885Y-108899523D01*
X92119662Y-108868475D01*
X92189575Y-108798562D01*
X92239010Y-108712938D01*
X92264600Y-108617435D01*
X92264600Y-108518565D01*
X92239010Y-108423062D01*
X92239008Y-108423059D01*
X92239008Y-108423057D01*
X92194809Y-108346503D01*
X92189575Y-108337438D01*
X92119662Y-108267525D01*
X92119659Y-108267523D01*
X92034041Y-108218091D01*
X92034043Y-108218091D01*
X91996985Y-108208161D01*
X91938535Y-108192500D01*
X91839665Y-108192500D01*
X91781214Y-108208161D01*
X91744157Y-108218091D01*
X91658540Y-108267523D01*
X91588623Y-108337440D01*
X91539191Y-108423057D01*
X91539190Y-108423062D01*
X91513600Y-108518565D01*
X82350000Y-108518565D01*
X82350000Y-107493982D01*
X92824500Y-107493982D01*
X92824500Y-107606018D01*
X92834929Y-107644938D01*
X92853498Y-107714241D01*
X92903287Y-107800476D01*
X92909515Y-107811263D01*
X92988737Y-107890485D01*
X92988739Y-107890486D01*
X93085759Y-107946501D01*
X93085757Y-107946501D01*
X93085761Y-107946502D01*
X93085763Y-107946503D01*
X93193982Y-107975500D01*
X93193984Y-107975500D01*
X93306016Y-107975500D01*
X93306018Y-107975500D01*
X93414237Y-107946503D01*
X93414239Y-107946501D01*
X93414241Y-107946501D01*
X93443064Y-107929859D01*
X93505206Y-107893982D01*
X96324500Y-107893982D01*
X96324500Y-108006018D01*
X96350072Y-108101455D01*
X96353498Y-108114241D01*
X96398682Y-108192500D01*
X96409515Y-108211263D01*
X96488737Y-108290485D01*
X96488739Y-108290486D01*
X96585759Y-108346501D01*
X96585757Y-108346501D01*
X96585761Y-108346502D01*
X96585763Y-108346503D01*
X96693982Y-108375500D01*
X96693984Y-108375500D01*
X96806016Y-108375500D01*
X96806018Y-108375500D01*
X96914237Y-108346503D01*
X96914239Y-108346501D01*
X96914241Y-108346501D01*
X96989948Y-108302791D01*
X97011263Y-108290485D01*
X97090485Y-108211263D01*
X97146503Y-108114237D01*
X97175500Y-108006018D01*
X97175500Y-107893982D01*
X97146503Y-107785763D01*
X97146501Y-107785760D01*
X97146501Y-107785758D01*
X97090486Y-107688739D01*
X97090485Y-107688737D01*
X97011263Y-107609515D01*
X97011260Y-107609513D01*
X96914240Y-107553498D01*
X96914242Y-107553498D01*
X96892591Y-107547697D01*
X96806018Y-107524500D01*
X96693982Y-107524500D01*
X96627748Y-107542247D01*
X96585758Y-107553498D01*
X96488739Y-107609513D01*
X96409513Y-107688739D01*
X96353498Y-107785758D01*
X96346665Y-107811260D01*
X96324500Y-107893982D01*
X93505206Y-107893982D01*
X93511263Y-107890485D01*
X93590485Y-107811263D01*
X93637078Y-107730562D01*
X93646501Y-107714241D01*
X93646501Y-107714239D01*
X93646503Y-107714237D01*
X93675500Y-107606018D01*
X93675500Y-107493982D01*
X93663867Y-107450565D01*
X114524500Y-107450565D01*
X114524500Y-107549435D01*
X114547067Y-107633657D01*
X114550091Y-107644942D01*
X114590102Y-107714241D01*
X114599525Y-107730562D01*
X114669438Y-107800475D01*
X114669440Y-107800476D01*
X114755058Y-107849908D01*
X114755056Y-107849908D01*
X114755060Y-107849909D01*
X114755062Y-107849910D01*
X114850565Y-107875500D01*
X114850567Y-107875500D01*
X114949433Y-107875500D01*
X114949435Y-107875500D01*
X115044938Y-107849910D01*
X115044940Y-107849908D01*
X115044942Y-107849908D01*
X115070377Y-107835222D01*
X115130562Y-107800475D01*
X115200475Y-107730562D01*
X115249910Y-107644938D01*
X115275500Y-107549435D01*
X115275500Y-107450565D01*
X115249910Y-107355062D01*
X115249908Y-107355059D01*
X115249908Y-107355057D01*
X115200476Y-107269440D01*
X115200475Y-107269438D01*
X115130562Y-107199525D01*
X115118372Y-107192487D01*
X115044941Y-107150091D01*
X115044943Y-107150091D01*
X115007885Y-107140161D01*
X114949435Y-107124500D01*
X114850565Y-107124500D01*
X114792114Y-107140161D01*
X114755057Y-107150091D01*
X114669440Y-107199523D01*
X114599523Y-107269440D01*
X114550091Y-107355057D01*
X114550090Y-107355062D01*
X114524500Y-107450565D01*
X93663867Y-107450565D01*
X93646503Y-107385763D01*
X93646501Y-107385760D01*
X93646501Y-107385758D01*
X93590486Y-107288739D01*
X93590485Y-107288737D01*
X93511263Y-107209515D01*
X93493960Y-107199525D01*
X93414240Y-107153498D01*
X93414242Y-107153498D01*
X93372251Y-107142247D01*
X93306018Y-107124500D01*
X93193982Y-107124500D01*
X93127748Y-107142247D01*
X93085758Y-107153498D01*
X92988739Y-107209513D01*
X92909513Y-107288739D01*
X92853498Y-107385758D01*
X92839108Y-107439462D01*
X92824500Y-107493982D01*
X82350000Y-107493982D01*
X82350000Y-106500565D01*
X98224500Y-106500565D01*
X98224500Y-106599435D01*
X98243705Y-106671109D01*
X98250091Y-106694942D01*
X98295134Y-106772957D01*
X98299525Y-106780562D01*
X98369438Y-106850475D01*
X98369440Y-106850476D01*
X98455058Y-106899908D01*
X98455056Y-106899908D01*
X98455060Y-106899909D01*
X98455062Y-106899910D01*
X98550565Y-106925500D01*
X98550567Y-106925500D01*
X98649433Y-106925500D01*
X98649435Y-106925500D01*
X98744938Y-106899910D01*
X98744940Y-106899908D01*
X98744942Y-106899908D01*
X98770377Y-106885222D01*
X98830562Y-106850475D01*
X98895346Y-106785691D01*
X104875500Y-106785691D01*
X104875500Y-106904309D01*
X104889634Y-106957057D01*
X104906202Y-107018890D01*
X104965507Y-107121608D01*
X104965509Y-107121610D01*
X104965511Y-107121613D01*
X105049387Y-107205489D01*
X105049389Y-107205490D01*
X105049391Y-107205492D01*
X105152110Y-107264797D01*
X105152111Y-107264797D01*
X105152114Y-107264799D01*
X105266691Y-107295500D01*
X105266693Y-107295500D01*
X105385307Y-107295500D01*
X105385309Y-107295500D01*
X105499886Y-107264799D01*
X105499888Y-107264797D01*
X105499890Y-107264797D01*
X105602608Y-107205492D01*
X105602608Y-107205491D01*
X105602613Y-107205489D01*
X105686489Y-107121613D01*
X105745799Y-107018886D01*
X105776500Y-106904309D01*
X105776500Y-106785691D01*
X105745799Y-106671114D01*
X105745797Y-106671111D01*
X105745797Y-106671109D01*
X105686492Y-106568391D01*
X105686490Y-106568389D01*
X105686489Y-106568387D01*
X105602613Y-106484511D01*
X105602610Y-106484509D01*
X105602608Y-106484507D01*
X105499889Y-106425202D01*
X105499890Y-106425202D01*
X105486351Y-106421574D01*
X105385309Y-106394500D01*
X105266691Y-106394500D01*
X105196567Y-106413289D01*
X105152109Y-106425202D01*
X105049391Y-106484507D01*
X104965507Y-106568391D01*
X104906202Y-106671109D01*
X104906201Y-106671114D01*
X104875500Y-106785691D01*
X98895346Y-106785691D01*
X98900475Y-106780562D01*
X98949910Y-106694938D01*
X98975500Y-106599435D01*
X98975500Y-106500565D01*
X98949910Y-106405062D01*
X98949908Y-106405059D01*
X98949908Y-106405057D01*
X98900476Y-106319440D01*
X98900475Y-106319438D01*
X98830562Y-106249525D01*
X98813564Y-106239711D01*
X98813563Y-106239710D01*
X98744941Y-106200091D01*
X98744943Y-106200091D01*
X98707885Y-106190161D01*
X98649435Y-106174500D01*
X98550565Y-106174500D01*
X98492114Y-106190161D01*
X98455057Y-106200091D01*
X98369440Y-106249523D01*
X98299523Y-106319440D01*
X98250091Y-106405057D01*
X98235783Y-106458453D01*
X98224500Y-106500565D01*
X82350000Y-106500565D01*
X82350000Y-106160465D01*
X106651800Y-106160465D01*
X106651800Y-106259335D01*
X106667905Y-106319438D01*
X106677391Y-106354842D01*
X106721176Y-106430678D01*
X106726825Y-106440462D01*
X106796738Y-106510375D01*
X106796740Y-106510376D01*
X106882358Y-106559808D01*
X106882356Y-106559808D01*
X106882360Y-106559809D01*
X106882362Y-106559810D01*
X106977865Y-106585400D01*
X106977867Y-106585400D01*
X107076733Y-106585400D01*
X107076735Y-106585400D01*
X107172238Y-106559810D01*
X107172240Y-106559808D01*
X107172242Y-106559808D01*
X107251912Y-106513810D01*
X107257862Y-106510375D01*
X107309782Y-106458454D01*
X107364296Y-106430678D01*
X107424728Y-106440249D01*
X107467993Y-106483513D01*
X107475410Y-106502835D01*
X107500089Y-106594937D01*
X107500091Y-106594941D01*
X107502686Y-106599435D01*
X107549525Y-106680562D01*
X107619438Y-106750475D01*
X107622237Y-106752091D01*
X107705058Y-106799908D01*
X107705056Y-106799908D01*
X107705060Y-106799909D01*
X107705062Y-106799910D01*
X107800565Y-106825500D01*
X107800567Y-106825500D01*
X107899433Y-106825500D01*
X107899435Y-106825500D01*
X107994938Y-106799910D01*
X107994940Y-106799908D01*
X107994942Y-106799908D01*
X108041622Y-106772957D01*
X108080562Y-106750475D01*
X108150475Y-106680562D01*
X108199910Y-106594938D01*
X108225500Y-106499435D01*
X108225500Y-106400565D01*
X108199910Y-106305062D01*
X108199908Y-106305059D01*
X108199908Y-106305057D01*
X108150476Y-106219440D01*
X108150475Y-106219438D01*
X108080562Y-106149525D01*
X108080559Y-106149523D01*
X107994941Y-106100091D01*
X107994943Y-106100091D01*
X107957885Y-106090161D01*
X107899435Y-106074500D01*
X107800565Y-106074500D01*
X107742114Y-106090161D01*
X107705057Y-106100091D01*
X107619438Y-106149524D01*
X107567518Y-106201444D01*
X107513001Y-106229221D01*
X107452569Y-106219649D01*
X107409305Y-106176384D01*
X107401888Y-106157063D01*
X107377210Y-106064962D01*
X107377208Y-106064959D01*
X107377208Y-106064957D01*
X107327776Y-105979340D01*
X107327775Y-105979338D01*
X107257862Y-105909425D01*
X107257859Y-105909423D01*
X107172241Y-105859991D01*
X107172243Y-105859991D01*
X107135185Y-105850061D01*
X107076735Y-105834400D01*
X106977865Y-105834400D01*
X106919414Y-105850061D01*
X106882357Y-105859991D01*
X106796740Y-105909423D01*
X106726823Y-105979340D01*
X106677391Y-106064957D01*
X106677390Y-106064962D01*
X106651800Y-106160465D01*
X82350000Y-106160465D01*
X82350000Y-105376865D01*
X90235500Y-105376865D01*
X90235500Y-105475735D01*
X90255750Y-105551309D01*
X90261091Y-105571242D01*
X90307429Y-105651500D01*
X90310525Y-105656862D01*
X90380438Y-105726775D01*
X90380440Y-105726776D01*
X90466058Y-105776208D01*
X90466056Y-105776208D01*
X90466060Y-105776209D01*
X90466062Y-105776210D01*
X90561565Y-105801800D01*
X90561567Y-105801800D01*
X90660433Y-105801800D01*
X90660435Y-105801800D01*
X90755938Y-105776210D01*
X90755940Y-105776208D01*
X90755942Y-105776208D01*
X90781377Y-105761522D01*
X90841562Y-105726775D01*
X90911475Y-105656862D01*
X90948193Y-105593265D01*
X94325000Y-105593265D01*
X94325000Y-105692135D01*
X94338308Y-105741800D01*
X94350591Y-105787642D01*
X94400023Y-105873259D01*
X94400025Y-105873262D01*
X94469938Y-105943175D01*
X94469940Y-105943176D01*
X94555558Y-105992608D01*
X94555556Y-105992608D01*
X94555560Y-105992609D01*
X94555562Y-105992610D01*
X94651065Y-106018200D01*
X94651067Y-106018200D01*
X94749933Y-106018200D01*
X94749935Y-106018200D01*
X94845438Y-105992610D01*
X94845440Y-105992608D01*
X94845442Y-105992608D01*
X94870877Y-105977922D01*
X94931062Y-105943175D01*
X95000975Y-105873262D01*
X95035722Y-105813077D01*
X95050408Y-105787642D01*
X95050408Y-105787640D01*
X95050410Y-105787638D01*
X95076000Y-105692135D01*
X95076000Y-105593265D01*
X95050410Y-105497762D01*
X95050408Y-105497759D01*
X95050408Y-105497757D01*
X95003052Y-105415735D01*
X95000975Y-105412138D01*
X94931062Y-105342225D01*
X94867993Y-105305812D01*
X94867991Y-105305810D01*
X94845441Y-105292791D01*
X94845443Y-105292791D01*
X94802788Y-105281362D01*
X94749935Y-105267200D01*
X94651065Y-105267200D01*
X94598212Y-105281362D01*
X94555557Y-105292791D01*
X94469940Y-105342223D01*
X94400023Y-105412140D01*
X94350591Y-105497757D01*
X94336283Y-105551153D01*
X94325000Y-105593265D01*
X90948193Y-105593265D01*
X90960910Y-105571238D01*
X90986500Y-105475735D01*
X90986500Y-105376865D01*
X90960910Y-105281362D01*
X90960908Y-105281359D01*
X90960908Y-105281357D01*
X90929273Y-105226565D01*
X95389300Y-105226565D01*
X95389300Y-105325435D01*
X95398673Y-105360416D01*
X95414891Y-105420942D01*
X95451823Y-105484908D01*
X95464325Y-105506562D01*
X95534238Y-105576475D01*
X95534240Y-105576476D01*
X95619858Y-105625908D01*
X95619856Y-105625908D01*
X95619860Y-105625909D01*
X95619862Y-105625910D01*
X95715365Y-105651500D01*
X95715367Y-105651500D01*
X95814233Y-105651500D01*
X95814235Y-105651500D01*
X95909738Y-105625910D01*
X95909740Y-105625908D01*
X95909742Y-105625908D01*
X95944682Y-105605735D01*
X95995362Y-105576475D01*
X96065275Y-105506562D01*
X96100022Y-105446377D01*
X96114708Y-105420942D01*
X96114708Y-105420940D01*
X96114710Y-105420938D01*
X96140300Y-105325435D01*
X96140300Y-105316865D01*
X101567900Y-105316865D01*
X101567900Y-105415735D01*
X101588799Y-105493730D01*
X101593491Y-105511242D01*
X101631155Y-105576476D01*
X101642925Y-105596862D01*
X101712838Y-105666775D01*
X101712840Y-105666776D01*
X101798458Y-105716208D01*
X101798456Y-105716208D01*
X101798460Y-105716209D01*
X101798462Y-105716210D01*
X101893965Y-105741800D01*
X101893967Y-105741800D01*
X101992833Y-105741800D01*
X101992835Y-105741800D01*
X102088338Y-105716210D01*
X102088340Y-105716208D01*
X102088342Y-105716208D01*
X102130037Y-105692135D01*
X102173962Y-105666775D01*
X102243875Y-105596862D01*
X102293310Y-105511238D01*
X102318900Y-105415735D01*
X102318900Y-105316865D01*
X102293310Y-105221362D01*
X102293308Y-105221359D01*
X102293308Y-105221357D01*
X102243876Y-105135740D01*
X102243875Y-105135738D01*
X102173962Y-105065825D01*
X102173959Y-105065823D01*
X102088341Y-105016391D01*
X102088343Y-105016391D01*
X102051285Y-105006461D01*
X101992835Y-104990800D01*
X101893965Y-104990800D01*
X101835514Y-105006461D01*
X101798457Y-105016391D01*
X101712840Y-105065823D01*
X101642923Y-105135740D01*
X101593491Y-105221357D01*
X101584256Y-105255823D01*
X101567900Y-105316865D01*
X96140300Y-105316865D01*
X96140300Y-105226565D01*
X96114710Y-105131062D01*
X96114708Y-105131059D01*
X96114708Y-105131057D01*
X96065276Y-105045440D01*
X96065275Y-105045438D01*
X95995362Y-104975525D01*
X95995359Y-104975523D01*
X95909741Y-104926091D01*
X95909743Y-104926091D01*
X95860001Y-104912763D01*
X95814235Y-104900500D01*
X95715365Y-104900500D01*
X95669599Y-104912763D01*
X95619857Y-104926091D01*
X95534240Y-104975523D01*
X95464323Y-105045440D01*
X95414891Y-105131057D01*
X95412497Y-105139991D01*
X95389300Y-105226565D01*
X90929273Y-105226565D01*
X90918818Y-105208457D01*
X90911475Y-105195738D01*
X90841562Y-105125825D01*
X90841559Y-105125823D01*
X90755941Y-105076391D01*
X90755943Y-105076391D01*
X90716501Y-105065823D01*
X90660435Y-105050800D01*
X90561565Y-105050800D01*
X90505499Y-105065823D01*
X90466057Y-105076391D01*
X90380440Y-105125823D01*
X90310523Y-105195740D01*
X90261091Y-105281357D01*
X90251577Y-105316865D01*
X90235500Y-105376865D01*
X82350000Y-105376865D01*
X82350000Y-104170000D01*
X83465143Y-104170000D01*
X83940193Y-104170000D01*
X83920445Y-104204205D01*
X83900001Y-104280504D01*
X83900001Y-104359496D01*
X83920445Y-104435795D01*
X83940193Y-104470000D01*
X83465143Y-104470000D01*
X83478822Y-104538767D01*
X83535358Y-104675257D01*
X83617434Y-104798093D01*
X83721906Y-104902565D01*
X83844742Y-104984641D01*
X83981229Y-105041176D01*
X83981235Y-105041178D01*
X84126128Y-105069999D01*
X84126132Y-105070000D01*
X84449999Y-105070000D01*
X84450000Y-105069999D01*
X84450000Y-104619999D01*
X84750000Y-104619999D01*
X84750000Y-105069999D01*
X84750001Y-105070000D01*
X85073868Y-105070000D01*
X85073871Y-105069999D01*
X85218764Y-105041178D01*
X85218770Y-105041176D01*
X85355257Y-104984641D01*
X85478093Y-104902565D01*
X85582565Y-104798093D01*
X85664641Y-104675257D01*
X85721177Y-104538767D01*
X85734857Y-104470000D01*
X85259807Y-104470000D01*
X85279555Y-104435795D01*
X85299999Y-104359496D01*
X85299999Y-104280504D01*
X85279555Y-104204205D01*
X85259807Y-104170000D01*
X85734857Y-104170000D01*
X87495143Y-104170000D01*
X87970193Y-104170000D01*
X87950445Y-104204205D01*
X87930001Y-104280504D01*
X87930001Y-104359496D01*
X87950445Y-104435795D01*
X87970193Y-104470000D01*
X87495143Y-104470000D01*
X87508822Y-104538767D01*
X87565358Y-104675257D01*
X87647434Y-104798093D01*
X87751906Y-104902565D01*
X87874742Y-104984641D01*
X88011229Y-105041176D01*
X88011235Y-105041178D01*
X88156128Y-105069999D01*
X88156132Y-105070000D01*
X88629999Y-105070000D01*
X88630000Y-105069999D01*
X88630000Y-104619999D01*
X88930000Y-104619999D01*
X88930000Y-105069999D01*
X88930001Y-105070000D01*
X89403868Y-105070000D01*
X89403871Y-105069999D01*
X89548764Y-105041178D01*
X89548770Y-105041176D01*
X89685257Y-104984641D01*
X89808093Y-104902565D01*
X89912565Y-104798093D01*
X89994641Y-104675257D01*
X90051177Y-104538767D01*
X90064857Y-104470000D01*
X89589807Y-104470000D01*
X89609555Y-104435795D01*
X89629999Y-104359496D01*
X89629999Y-104352565D01*
X91202000Y-104352565D01*
X91202000Y-104451435D01*
X91218204Y-104511908D01*
X91227591Y-104546942D01*
X91277023Y-104632559D01*
X91277025Y-104632562D01*
X91346938Y-104702475D01*
X91346940Y-104702476D01*
X91432558Y-104751908D01*
X91432556Y-104751908D01*
X91432560Y-104751909D01*
X91432562Y-104751910D01*
X91528065Y-104777500D01*
X91528067Y-104777500D01*
X91626933Y-104777500D01*
X91626935Y-104777500D01*
X91722438Y-104751910D01*
X91722440Y-104751908D01*
X91722442Y-104751908D01*
X91747877Y-104737222D01*
X91808062Y-104702475D01*
X91877975Y-104632562D01*
X91912722Y-104572377D01*
X91927408Y-104546942D01*
X91927408Y-104546940D01*
X91927410Y-104546938D01*
X91953000Y-104451435D01*
X91953000Y-104352565D01*
X91927410Y-104257062D01*
X91877975Y-104171438D01*
X91819102Y-104112565D01*
X92112300Y-104112565D01*
X92112300Y-104211435D01*
X92137890Y-104306938D01*
X92144419Y-104318247D01*
X92144420Y-104318249D01*
X92182633Y-104384435D01*
X92187325Y-104392562D01*
X92257238Y-104462475D01*
X92285779Y-104478953D01*
X92342858Y-104511908D01*
X92342856Y-104511908D01*
X92342860Y-104511909D01*
X92342862Y-104511910D01*
X92438365Y-104537500D01*
X92438367Y-104537500D01*
X92537233Y-104537500D01*
X92537235Y-104537500D01*
X92632738Y-104511910D01*
X92632740Y-104511908D01*
X92632742Y-104511908D01*
X92688115Y-104479938D01*
X92718362Y-104462475D01*
X92788275Y-104392562D01*
X92837710Y-104306938D01*
X92843437Y-104285565D01*
X94448100Y-104285565D01*
X94448100Y-104384435D01*
X94450277Y-104392559D01*
X94473691Y-104479942D01*
X94519948Y-104560059D01*
X94523125Y-104565562D01*
X94593038Y-104635475D01*
X94593040Y-104635476D01*
X94678658Y-104684908D01*
X94678656Y-104684908D01*
X94678660Y-104684909D01*
X94678662Y-104684910D01*
X94774165Y-104710500D01*
X94774167Y-104710500D01*
X94873033Y-104710500D01*
X94873035Y-104710500D01*
X94968538Y-104684910D01*
X94968540Y-104684908D01*
X94968542Y-104684908D01*
X94993977Y-104670222D01*
X95054162Y-104635475D01*
X95089072Y-104600565D01*
X98874500Y-104600565D01*
X98874500Y-104699435D01*
X98896103Y-104780057D01*
X98900091Y-104794942D01*
X98949523Y-104880559D01*
X98949525Y-104880562D01*
X99019438Y-104950475D01*
X99019440Y-104950476D01*
X99105058Y-104999908D01*
X99105056Y-104999908D01*
X99105060Y-104999909D01*
X99105062Y-104999910D01*
X99200565Y-105025500D01*
X99200567Y-105025500D01*
X99299433Y-105025500D01*
X99299435Y-105025500D01*
X99394938Y-104999910D01*
X99394940Y-104999908D01*
X99394942Y-104999908D01*
X99437174Y-104975525D01*
X99480562Y-104950475D01*
X99550475Y-104880562D01*
X99553360Y-104875565D01*
X106866500Y-104875565D01*
X106866500Y-104974435D01*
X106873326Y-104999910D01*
X106892091Y-105069942D01*
X106932535Y-105139991D01*
X106941525Y-105155562D01*
X107011438Y-105225475D01*
X107011440Y-105225476D01*
X107097058Y-105274908D01*
X107097056Y-105274908D01*
X107097060Y-105274909D01*
X107097062Y-105274910D01*
X107192565Y-105300500D01*
X107192567Y-105300500D01*
X107291433Y-105300500D01*
X107291435Y-105300500D01*
X107386938Y-105274910D01*
X107386940Y-105274908D01*
X107386942Y-105274908D01*
X107419998Y-105255823D01*
X107472562Y-105225475D01*
X107542475Y-105155562D01*
X107582888Y-105085565D01*
X107591908Y-105069942D01*
X107591908Y-105069940D01*
X107591910Y-105069938D01*
X107617500Y-104974435D01*
X107617500Y-104875565D01*
X107591910Y-104780062D01*
X107591908Y-104780059D01*
X107591908Y-104780057D01*
X107542476Y-104694440D01*
X107542475Y-104694438D01*
X107472562Y-104624525D01*
X107464723Y-104619999D01*
X107386941Y-104575091D01*
X107386943Y-104575091D01*
X107349885Y-104565161D01*
X107291435Y-104549500D01*
X107192565Y-104549500D01*
X107134114Y-104565161D01*
X107097057Y-104575091D01*
X107011440Y-104624523D01*
X106941523Y-104694440D01*
X106892091Y-104780057D01*
X106877783Y-104833453D01*
X106866500Y-104875565D01*
X99553360Y-104875565D01*
X99585687Y-104819573D01*
X99599908Y-104794942D01*
X99599908Y-104794940D01*
X99599910Y-104794938D01*
X99625500Y-104699435D01*
X99625500Y-104600565D01*
X99599910Y-104505062D01*
X99599908Y-104505059D01*
X99599908Y-104505057D01*
X99550476Y-104419440D01*
X99550475Y-104419438D01*
X99480562Y-104349525D01*
X99480559Y-104349523D01*
X99394941Y-104300091D01*
X99394943Y-104300091D01*
X99357885Y-104290161D01*
X99299435Y-104274500D01*
X99200565Y-104274500D01*
X99142114Y-104290161D01*
X99105057Y-104300091D01*
X99019440Y-104349523D01*
X98949523Y-104419440D01*
X98900091Y-104505057D01*
X98888869Y-104546938D01*
X98874500Y-104600565D01*
X95089072Y-104600565D01*
X95124075Y-104565562D01*
X95173510Y-104479938D01*
X95199100Y-104384435D01*
X95199100Y-104285565D01*
X95173510Y-104190062D01*
X95173508Y-104190059D01*
X95173508Y-104190057D01*
X95124076Y-104104440D01*
X95124075Y-104104438D01*
X95054162Y-104034525D01*
X95054159Y-104034523D01*
X94968541Y-103985091D01*
X94968543Y-103985091D01*
X94931485Y-103975161D01*
X94873035Y-103959500D01*
X94774165Y-103959500D01*
X94715714Y-103975161D01*
X94678657Y-103985091D01*
X94593040Y-104034523D01*
X94523123Y-104104440D01*
X94473691Y-104190057D01*
X94467963Y-104211435D01*
X94448100Y-104285565D01*
X92843437Y-104285565D01*
X92863300Y-104211435D01*
X92863300Y-104112565D01*
X92837710Y-104017062D01*
X92837708Y-104017059D01*
X92837708Y-104017057D01*
X92788276Y-103931440D01*
X92788275Y-103931438D01*
X92718362Y-103861525D01*
X92718359Y-103861523D01*
X92632741Y-103812091D01*
X92632743Y-103812091D01*
X92595685Y-103802161D01*
X92537235Y-103786500D01*
X92438365Y-103786500D01*
X92379914Y-103802161D01*
X92342857Y-103812091D01*
X92257240Y-103861523D01*
X92187323Y-103931440D01*
X92137891Y-104017057D01*
X92131058Y-104042559D01*
X92112300Y-104112565D01*
X91819102Y-104112565D01*
X91808062Y-104101525D01*
X91807555Y-104101232D01*
X91722441Y-104052091D01*
X91722443Y-104052091D01*
X91678978Y-104040445D01*
X91626935Y-104026500D01*
X91528065Y-104026500D01*
X91476022Y-104040445D01*
X91432557Y-104052091D01*
X91346940Y-104101523D01*
X91277023Y-104171440D01*
X91227591Y-104257057D01*
X91219952Y-104285566D01*
X91202000Y-104352565D01*
X89629999Y-104352565D01*
X89629999Y-104280504D01*
X89609555Y-104204205D01*
X89589807Y-104170000D01*
X90064857Y-104170000D01*
X90051177Y-104101232D01*
X89994641Y-103964742D01*
X89912565Y-103841906D01*
X89808093Y-103737434D01*
X89743062Y-103693982D01*
X102774500Y-103693982D01*
X102774500Y-103806018D01*
X102789373Y-103861525D01*
X102803498Y-103914241D01*
X102853287Y-104000476D01*
X102859515Y-104011263D01*
X102938737Y-104090485D01*
X102938739Y-104090486D01*
X103035759Y-104146501D01*
X103035757Y-104146501D01*
X103035761Y-104146502D01*
X103035763Y-104146503D01*
X103143982Y-104175500D01*
X103143984Y-104175500D01*
X103256016Y-104175500D01*
X103256018Y-104175500D01*
X103364237Y-104146503D01*
X103364239Y-104146501D01*
X103364241Y-104146501D01*
X103393064Y-104129859D01*
X103461263Y-104090485D01*
X103540485Y-104011263D01*
X103587078Y-103930562D01*
X103596501Y-103914241D01*
X103596501Y-103914239D01*
X103596503Y-103914237D01*
X103625500Y-103806018D01*
X103625500Y-103693982D01*
X103596503Y-103585763D01*
X103596501Y-103585760D01*
X103596501Y-103585758D01*
X103540486Y-103488739D01*
X103540485Y-103488737D01*
X103461263Y-103409515D01*
X103445607Y-103400476D01*
X103400983Y-103374712D01*
X103400982Y-103374712D01*
X103364239Y-103353498D01*
X103364238Y-103353497D01*
X103364237Y-103353497D01*
X103256018Y-103324500D01*
X103143982Y-103324500D01*
X103077748Y-103342247D01*
X103035758Y-103353498D01*
X102938739Y-103409513D01*
X102859513Y-103488739D01*
X102803498Y-103585758D01*
X102795951Y-103613925D01*
X102774500Y-103693982D01*
X89743062Y-103693982D01*
X89685257Y-103655358D01*
X89548770Y-103598823D01*
X89548764Y-103598821D01*
X89403871Y-103570000D01*
X88930001Y-103570000D01*
X88930000Y-103570001D01*
X88930000Y-104020001D01*
X88630000Y-104020001D01*
X88630000Y-103570001D01*
X88629999Y-103570000D01*
X88521088Y-103570000D01*
X88462897Y-103551093D01*
X88426933Y-103501593D01*
X88426933Y-103440407D01*
X88462897Y-103390907D01*
X88479708Y-103381492D01*
X88482829Y-103379689D01*
X88482836Y-103379688D01*
X88602665Y-103310505D01*
X88617705Y-103295465D01*
X109537100Y-103295465D01*
X109537100Y-103394335D01*
X109551991Y-103449908D01*
X109562691Y-103489842D01*
X109608972Y-103570001D01*
X109612125Y-103575462D01*
X109682038Y-103645375D01*
X109691029Y-103650566D01*
X109767658Y-103694808D01*
X109767656Y-103694808D01*
X109767660Y-103694809D01*
X109767662Y-103694810D01*
X109863165Y-103720400D01*
X109863167Y-103720400D01*
X109962033Y-103720400D01*
X109962035Y-103720400D01*
X110057538Y-103694810D01*
X110057540Y-103694808D01*
X110057542Y-103694808D01*
X110105599Y-103667062D01*
X110134173Y-103650565D01*
X113624500Y-103650565D01*
X113624500Y-103749435D01*
X113641289Y-103812091D01*
X113650091Y-103844942D01*
X113690102Y-103914241D01*
X113699525Y-103930562D01*
X113769438Y-104000475D01*
X113769440Y-104000476D01*
X113855058Y-104049908D01*
X113855056Y-104049908D01*
X113855060Y-104049909D01*
X113855062Y-104049910D01*
X113950565Y-104075500D01*
X113950567Y-104075500D01*
X114049433Y-104075500D01*
X114049435Y-104075500D01*
X114144938Y-104049910D01*
X114144940Y-104049908D01*
X114144942Y-104049908D01*
X114185485Y-104026500D01*
X114230562Y-104000475D01*
X114300475Y-103930562D01*
X114335222Y-103870377D01*
X114349908Y-103844942D01*
X114349908Y-103844940D01*
X114349910Y-103844938D01*
X114375500Y-103749435D01*
X114375500Y-103650565D01*
X114349910Y-103555062D01*
X114349908Y-103555059D01*
X114349908Y-103555057D01*
X114300476Y-103469440D01*
X114300475Y-103469438D01*
X114230562Y-103399525D01*
X114221573Y-103394335D01*
X114144941Y-103350091D01*
X114144943Y-103350091D01*
X114107885Y-103340161D01*
X114049435Y-103324500D01*
X113950565Y-103324500D01*
X113892114Y-103340161D01*
X113855057Y-103350091D01*
X113769440Y-103399523D01*
X113699523Y-103469440D01*
X113650091Y-103555057D01*
X113643022Y-103581440D01*
X113624500Y-103650565D01*
X110134173Y-103650565D01*
X110143162Y-103645375D01*
X110213075Y-103575462D01*
X110262510Y-103489838D01*
X110288100Y-103394335D01*
X110288100Y-103295465D01*
X110262510Y-103199962D01*
X110262508Y-103199959D01*
X110262508Y-103199957D01*
X110213076Y-103114340D01*
X110213075Y-103114338D01*
X110149302Y-103050565D01*
X114624500Y-103050565D01*
X114624500Y-103149435D01*
X114644882Y-103225500D01*
X114650091Y-103244942D01*
X114687945Y-103310505D01*
X114699525Y-103330562D01*
X114769438Y-103400475D01*
X114769440Y-103400476D01*
X114855058Y-103449908D01*
X114855056Y-103449908D01*
X114855060Y-103449909D01*
X114855062Y-103449910D01*
X114925556Y-103468798D01*
X114976869Y-103502122D01*
X114998796Y-103559244D01*
X114985668Y-103613925D01*
X114954991Y-103667057D01*
X114947555Y-103694808D01*
X114929400Y-103762565D01*
X114929400Y-103861435D01*
X114947922Y-103930559D01*
X114954991Y-103956942D01*
X115004423Y-104042559D01*
X115004425Y-104042562D01*
X115074338Y-104112475D01*
X115074340Y-104112476D01*
X115159958Y-104161908D01*
X115159956Y-104161908D01*
X115159960Y-104161909D01*
X115159962Y-104161910D01*
X115255465Y-104187500D01*
X115255467Y-104187500D01*
X115354333Y-104187500D01*
X115354335Y-104187500D01*
X115449838Y-104161910D01*
X115449840Y-104161908D01*
X115449842Y-104161908D01*
X115476527Y-104146501D01*
X115535462Y-104112475D01*
X115605375Y-104042562D01*
X115640122Y-103982377D01*
X115654808Y-103956942D01*
X115654808Y-103956940D01*
X115654810Y-103956938D01*
X115680400Y-103861435D01*
X115680400Y-103762565D01*
X115654810Y-103667062D01*
X115654808Y-103667059D01*
X115654808Y-103667057D01*
X115605376Y-103581440D01*
X115605375Y-103581438D01*
X115535462Y-103511525D01*
X115519176Y-103502122D01*
X115449841Y-103462091D01*
X115449837Y-103462089D01*
X115379343Y-103443200D01*
X115328029Y-103409876D01*
X115306103Y-103352754D01*
X115319231Y-103298075D01*
X115349910Y-103244938D01*
X115375500Y-103149435D01*
X115375500Y-103050565D01*
X115349910Y-102955062D01*
X115349908Y-102955059D01*
X115349908Y-102955057D01*
X115300476Y-102869440D01*
X115300475Y-102869438D01*
X115230562Y-102799525D01*
X115230559Y-102799523D01*
X115144941Y-102750091D01*
X115144943Y-102750091D01*
X115107885Y-102740161D01*
X115049435Y-102724500D01*
X114950565Y-102724500D01*
X114892114Y-102740161D01*
X114855057Y-102750091D01*
X114769440Y-102799523D01*
X114699523Y-102869440D01*
X114650091Y-102955057D01*
X114646248Y-102969400D01*
X114624500Y-103050565D01*
X110149302Y-103050565D01*
X110143162Y-103044425D01*
X110143159Y-103044423D01*
X110057541Y-102994991D01*
X110057543Y-102994991D01*
X110020485Y-102985061D01*
X109962035Y-102969400D01*
X109863165Y-102969400D01*
X109804714Y-102985061D01*
X109767657Y-102994991D01*
X109682040Y-103044423D01*
X109612123Y-103114340D01*
X109562691Y-103199957D01*
X109559286Y-103212665D01*
X109537100Y-103295465D01*
X88617705Y-103295465D01*
X88700505Y-103212665D01*
X88769688Y-103092836D01*
X88805500Y-102959183D01*
X88805500Y-102820817D01*
X88800074Y-102800565D01*
X95074500Y-102800565D01*
X95074500Y-102899435D01*
X95093247Y-102969400D01*
X95100091Y-102994942D01*
X95149523Y-103080559D01*
X95149525Y-103080562D01*
X95219438Y-103150475D01*
X95219440Y-103150476D01*
X95305058Y-103199908D01*
X95305056Y-103199908D01*
X95305060Y-103199909D01*
X95305062Y-103199910D01*
X95400565Y-103225500D01*
X95400567Y-103225500D01*
X95499433Y-103225500D01*
X95499435Y-103225500D01*
X95594938Y-103199910D01*
X95594940Y-103199908D01*
X95594942Y-103199908D01*
X95620377Y-103185222D01*
X95680562Y-103150475D01*
X95750475Y-103080562D01*
X95785222Y-103020377D01*
X95799908Y-102994942D01*
X95799908Y-102994940D01*
X95799910Y-102994938D01*
X95825500Y-102899435D01*
X95825500Y-102800565D01*
X95799910Y-102705062D01*
X95799908Y-102705059D01*
X95799908Y-102705057D01*
X95750476Y-102619440D01*
X95750475Y-102619438D01*
X95680562Y-102549525D01*
X95680559Y-102549523D01*
X95594941Y-102500091D01*
X95594943Y-102500091D01*
X95557885Y-102490161D01*
X95499435Y-102474500D01*
X95400565Y-102474500D01*
X95342114Y-102490161D01*
X95305057Y-102500091D01*
X95219440Y-102549523D01*
X95149523Y-102619440D01*
X95100091Y-102705057D01*
X95088025Y-102750090D01*
X95074500Y-102800565D01*
X88800074Y-102800565D01*
X88769688Y-102687164D01*
X88700505Y-102567335D01*
X88602665Y-102469495D01*
X88482836Y-102400312D01*
X88349183Y-102364500D01*
X88210817Y-102364500D01*
X88077164Y-102400312D01*
X87957335Y-102469495D01*
X87859495Y-102567335D01*
X87790312Y-102687164D01*
X87754500Y-102820817D01*
X87754500Y-102959183D01*
X87790312Y-103092836D01*
X87859495Y-103212665D01*
X87957335Y-103310505D01*
X88077164Y-103379688D01*
X88108330Y-103388038D01*
X88159643Y-103421362D01*
X88181570Y-103478483D01*
X88165735Y-103537584D01*
X88118185Y-103576089D01*
X88102020Y-103580763D01*
X88011235Y-103598821D01*
X88011229Y-103598823D01*
X87874742Y-103655358D01*
X87751906Y-103737434D01*
X87647434Y-103841906D01*
X87565358Y-103964742D01*
X87508822Y-104101232D01*
X87495143Y-104170000D01*
X85734857Y-104170000D01*
X85721177Y-104101232D01*
X85664641Y-103964742D01*
X85582565Y-103841906D01*
X85478093Y-103737434D01*
X85355257Y-103655358D01*
X85218770Y-103598823D01*
X85218764Y-103598821D01*
X85073871Y-103570000D01*
X84750001Y-103570000D01*
X84750000Y-103570001D01*
X84750000Y-104020001D01*
X84450000Y-104020001D01*
X84450000Y-103570001D01*
X84449999Y-103570000D01*
X84126128Y-103570000D01*
X83981235Y-103598821D01*
X83981229Y-103598823D01*
X83844742Y-103655358D01*
X83721906Y-103737434D01*
X83617434Y-103841906D01*
X83535358Y-103964742D01*
X83478822Y-104101232D01*
X83465143Y-104170000D01*
X82350000Y-104170000D01*
X82350000Y-102277165D01*
X89346300Y-102277165D01*
X89346300Y-102376035D01*
X89352805Y-102400312D01*
X89371891Y-102471542D01*
X89421323Y-102557159D01*
X89421325Y-102557162D01*
X89491238Y-102627075D01*
X89491240Y-102627076D01*
X89576858Y-102676508D01*
X89576856Y-102676508D01*
X89576860Y-102676509D01*
X89576862Y-102676510D01*
X89672365Y-102702100D01*
X89672367Y-102702100D01*
X89771233Y-102702100D01*
X89771235Y-102702100D01*
X89866738Y-102676510D01*
X89866740Y-102676508D01*
X89866742Y-102676508D01*
X89929133Y-102640486D01*
X89952362Y-102627075D01*
X90022275Y-102557162D01*
X90071710Y-102471538D01*
X90097300Y-102376035D01*
X90097300Y-102277165D01*
X90088409Y-102243982D01*
X103024500Y-102243982D01*
X103024500Y-102356018D01*
X103050072Y-102451455D01*
X103053498Y-102464241D01*
X103107147Y-102557162D01*
X103109515Y-102561263D01*
X103188737Y-102640485D01*
X103188739Y-102640486D01*
X103285759Y-102696501D01*
X103285757Y-102696501D01*
X103285761Y-102696502D01*
X103285763Y-102696503D01*
X103393982Y-102725500D01*
X103393984Y-102725500D01*
X103506016Y-102725500D01*
X103506018Y-102725500D01*
X103614237Y-102696503D01*
X103614239Y-102696501D01*
X103614241Y-102696501D01*
X103648869Y-102676508D01*
X103711263Y-102640485D01*
X103790485Y-102561263D01*
X103826684Y-102498565D01*
X108885500Y-102498565D01*
X108885500Y-102597435D01*
X108897035Y-102640485D01*
X108911091Y-102692942D01*
X108944087Y-102750091D01*
X108960525Y-102778562D01*
X109030438Y-102848475D01*
X109030440Y-102848476D01*
X109116058Y-102897908D01*
X109116056Y-102897908D01*
X109116060Y-102897909D01*
X109116062Y-102897910D01*
X109211565Y-102923500D01*
X109211567Y-102923500D01*
X109310433Y-102923500D01*
X109310435Y-102923500D01*
X109405938Y-102897910D01*
X109405940Y-102897908D01*
X109405942Y-102897908D01*
X109431377Y-102883222D01*
X109491562Y-102848475D01*
X109561475Y-102778562D01*
X109603913Y-102705057D01*
X109610908Y-102692942D01*
X109610908Y-102692940D01*
X109610910Y-102692938D01*
X109636500Y-102597435D01*
X109636500Y-102498565D01*
X109610910Y-102403062D01*
X109610908Y-102403059D01*
X109610908Y-102403057D01*
X109561476Y-102317440D01*
X109561475Y-102317438D01*
X109491562Y-102247525D01*
X109491559Y-102247523D01*
X109410226Y-102200565D01*
X113924500Y-102200565D01*
X113924500Y-102299435D01*
X113941934Y-102364500D01*
X113950091Y-102394942D01*
X113990101Y-102464240D01*
X113999525Y-102480562D01*
X114069438Y-102550475D01*
X114069440Y-102550476D01*
X114155058Y-102599908D01*
X114155056Y-102599908D01*
X114155060Y-102599909D01*
X114155062Y-102599910D01*
X114250565Y-102625500D01*
X114250567Y-102625500D01*
X114349433Y-102625500D01*
X114349435Y-102625500D01*
X114444938Y-102599910D01*
X114444940Y-102599908D01*
X114444942Y-102599908D01*
X114470377Y-102585222D01*
X114530562Y-102550475D01*
X114600475Y-102480562D01*
X114645220Y-102403062D01*
X114649908Y-102394942D01*
X114649908Y-102394940D01*
X114649910Y-102394938D01*
X114675500Y-102299435D01*
X114675500Y-102200565D01*
X114649910Y-102105062D01*
X114649908Y-102105059D01*
X114649908Y-102105057D01*
X114600476Y-102019440D01*
X114600475Y-102019438D01*
X114530562Y-101949525D01*
X114530559Y-101949523D01*
X114444941Y-101900091D01*
X114444943Y-101900091D01*
X114395003Y-101886710D01*
X114349435Y-101874500D01*
X114250565Y-101874500D01*
X114204997Y-101886710D01*
X114155057Y-101900091D01*
X114069440Y-101949523D01*
X113999523Y-102019440D01*
X113950091Y-102105057D01*
X113943274Y-102130500D01*
X113924500Y-102200565D01*
X109410226Y-102200565D01*
X109405941Y-102198091D01*
X109405943Y-102198091D01*
X109368885Y-102188161D01*
X109310435Y-102172500D01*
X109211565Y-102172500D01*
X109153114Y-102188161D01*
X109116057Y-102198091D01*
X109030440Y-102247523D01*
X108960523Y-102317440D01*
X108911091Y-102403057D01*
X108911090Y-102403062D01*
X108885500Y-102498565D01*
X103826684Y-102498565D01*
X103846503Y-102464237D01*
X103875500Y-102356018D01*
X103875500Y-102243982D01*
X103846503Y-102135763D01*
X103846501Y-102135760D01*
X103846501Y-102135758D01*
X103790486Y-102038739D01*
X103790485Y-102038737D01*
X103711263Y-101959515D01*
X103693960Y-101949525D01*
X103614240Y-101903498D01*
X103614242Y-101903498D01*
X103564290Y-101890113D01*
X103506018Y-101874500D01*
X103393982Y-101874500D01*
X103327748Y-101892247D01*
X103285758Y-101903498D01*
X103188739Y-101959513D01*
X103109513Y-102038739D01*
X103053498Y-102135758D01*
X103048179Y-102155610D01*
X103024500Y-102243982D01*
X90088409Y-102243982D01*
X90071710Y-102181662D01*
X90071708Y-102181659D01*
X90071708Y-102181657D01*
X90022276Y-102096040D01*
X90022275Y-102096038D01*
X89952362Y-102026125D01*
X89952359Y-102026123D01*
X89866741Y-101976691D01*
X89866743Y-101976691D01*
X89829685Y-101966761D01*
X89771235Y-101951100D01*
X89672365Y-101951100D01*
X89613914Y-101966761D01*
X89576857Y-101976691D01*
X89491240Y-102026123D01*
X89421323Y-102096040D01*
X89371891Y-102181657D01*
X89357583Y-102235053D01*
X89346300Y-102277165D01*
X82350000Y-102277165D01*
X82350000Y-101756265D01*
X87053900Y-101756265D01*
X87053900Y-101855135D01*
X87076467Y-101939357D01*
X87079491Y-101950642D01*
X87123071Y-102026123D01*
X87128925Y-102036262D01*
X87198838Y-102106175D01*
X87198840Y-102106176D01*
X87284458Y-102155608D01*
X87284456Y-102155608D01*
X87284460Y-102155609D01*
X87284462Y-102155610D01*
X87379965Y-102181200D01*
X87379967Y-102181200D01*
X87478833Y-102181200D01*
X87478835Y-102181200D01*
X87574338Y-102155610D01*
X87574340Y-102155608D01*
X87574342Y-102155608D01*
X87608723Y-102135758D01*
X87659962Y-102106175D01*
X87729875Y-102036262D01*
X87774186Y-101959513D01*
X87779308Y-101950642D01*
X87779308Y-101950640D01*
X87779310Y-101950638D01*
X87804900Y-101855135D01*
X87804900Y-101756265D01*
X87779310Y-101660762D01*
X87779308Y-101660759D01*
X87779308Y-101660757D01*
X87729876Y-101575140D01*
X87729875Y-101575138D01*
X87659962Y-101505225D01*
X87659959Y-101505223D01*
X87574341Y-101455791D01*
X87574343Y-101455791D01*
X87537285Y-101445861D01*
X87478835Y-101430200D01*
X87379965Y-101430200D01*
X87321514Y-101445861D01*
X87284457Y-101455791D01*
X87198840Y-101505223D01*
X87128923Y-101575140D01*
X87079491Y-101660757D01*
X87078578Y-101664165D01*
X87053900Y-101756265D01*
X82350000Y-101756265D01*
X82350000Y-100800565D01*
X90943900Y-100800565D01*
X90943900Y-100899435D01*
X90965079Y-100978475D01*
X90969491Y-100994942D01*
X91015678Y-101074938D01*
X91018925Y-101080562D01*
X91088838Y-101150475D01*
X91117379Y-101166953D01*
X91174458Y-101199908D01*
X91174456Y-101199908D01*
X91174460Y-101199909D01*
X91174462Y-101199910D01*
X91269965Y-101225500D01*
X91269967Y-101225500D01*
X91276399Y-101226347D01*
X91276105Y-101228572D01*
X91324839Y-101244407D01*
X91360803Y-101293907D01*
X91360803Y-101355093D01*
X91324839Y-101404593D01*
X91316148Y-101410236D01*
X91239440Y-101454523D01*
X91169523Y-101524440D01*
X91120091Y-101610057D01*
X91120090Y-101610062D01*
X91094500Y-101705565D01*
X91094500Y-101804435D01*
X91103300Y-101837276D01*
X91120091Y-101899942D01*
X91164403Y-101976691D01*
X91169525Y-101985562D01*
X91239438Y-102055475D01*
X91239440Y-102055476D01*
X91325058Y-102104908D01*
X91325056Y-102104908D01*
X91325060Y-102104909D01*
X91325062Y-102104910D01*
X91420565Y-102130500D01*
X91420567Y-102130500D01*
X91519433Y-102130500D01*
X91519435Y-102130500D01*
X91614938Y-102104910D01*
X91614940Y-102104908D01*
X91614942Y-102104908D01*
X91640377Y-102090222D01*
X91700562Y-102055475D01*
X91770475Y-101985562D01*
X91819822Y-101900091D01*
X91819908Y-101899942D01*
X91819908Y-101899940D01*
X91819910Y-101899938D01*
X91845500Y-101804435D01*
X91845500Y-101705565D01*
X91819910Y-101610062D01*
X91819908Y-101610059D01*
X91819908Y-101610057D01*
X91770476Y-101524440D01*
X91770475Y-101524438D01*
X91700562Y-101454525D01*
X91693492Y-101450443D01*
X91614941Y-101405091D01*
X91614942Y-101405091D01*
X91599696Y-101401006D01*
X91599699Y-101401006D01*
X91519435Y-101379500D01*
X91510931Y-101379500D01*
X91499440Y-101376716D01*
X91482964Y-101366572D01*
X91464561Y-101360593D01*
X91457526Y-101350910D01*
X91447338Y-101344638D01*
X91439971Y-101326748D01*
X91428940Y-101311565D01*
X95209100Y-101311565D01*
X95209100Y-101410435D01*
X95220914Y-101454525D01*
X95234691Y-101505942D01*
X95281048Y-101586233D01*
X95284125Y-101591562D01*
X95354038Y-101661475D01*
X95354040Y-101661476D01*
X95439658Y-101710908D01*
X95439656Y-101710908D01*
X95439660Y-101710909D01*
X95439662Y-101710910D01*
X95535165Y-101736500D01*
X95535167Y-101736500D01*
X95634033Y-101736500D01*
X95634035Y-101736500D01*
X95729538Y-101710910D01*
X95729540Y-101710908D01*
X95729542Y-101710908D01*
X95780065Y-101681738D01*
X95815162Y-101661475D01*
X95885075Y-101591562D01*
X95934510Y-101505938D01*
X95960100Y-101410435D01*
X95960100Y-101368565D01*
X102597800Y-101368565D01*
X102597800Y-101467435D01*
X102616188Y-101536059D01*
X102623391Y-101562942D01*
X102672750Y-101648432D01*
X102672825Y-101648562D01*
X102742738Y-101718475D01*
X102742740Y-101718476D01*
X102828358Y-101767908D01*
X102828356Y-101767908D01*
X102828360Y-101767909D01*
X102828362Y-101767910D01*
X102923865Y-101793500D01*
X102923867Y-101793500D01*
X103022733Y-101793500D01*
X103022735Y-101793500D01*
X103118238Y-101767910D01*
X103118240Y-101767908D01*
X103118242Y-101767908D01*
X103148115Y-101750660D01*
X103203862Y-101718475D01*
X103258173Y-101664163D01*
X103312687Y-101636387D01*
X103373119Y-101645958D01*
X103377655Y-101648420D01*
X103389762Y-101655410D01*
X103485265Y-101681000D01*
X103538607Y-101681000D01*
X103584133Y-101681000D01*
X103584135Y-101681000D01*
X103679638Y-101655410D01*
X103679640Y-101655408D01*
X103679642Y-101655408D01*
X103712587Y-101636387D01*
X103765262Y-101605975D01*
X103835175Y-101536062D01*
X103863290Y-101487365D01*
X108045900Y-101487365D01*
X108045900Y-101586235D01*
X108066061Y-101661475D01*
X108071491Y-101681742D01*
X108120923Y-101767359D01*
X108120925Y-101767362D01*
X108190838Y-101837275D01*
X108190840Y-101837276D01*
X108276458Y-101886708D01*
X108276456Y-101886708D01*
X108276460Y-101886709D01*
X108276462Y-101886710D01*
X108371965Y-101912300D01*
X108371967Y-101912300D01*
X108470833Y-101912300D01*
X108470835Y-101912300D01*
X108566338Y-101886710D01*
X108566340Y-101886708D01*
X108566342Y-101886708D01*
X108591777Y-101872022D01*
X108651962Y-101837275D01*
X108721875Y-101767362D01*
X108757553Y-101705566D01*
X108771308Y-101681742D01*
X108771308Y-101681740D01*
X108771310Y-101681738D01*
X108796900Y-101586235D01*
X108796900Y-101487365D01*
X108771310Y-101391862D01*
X108771308Y-101391859D01*
X108771308Y-101391857D01*
X108724951Y-101311566D01*
X108721875Y-101306238D01*
X108651962Y-101236325D01*
X108638577Y-101228597D01*
X108566341Y-101186891D01*
X108566343Y-101186891D01*
X108529285Y-101176961D01*
X108470835Y-101161300D01*
X108371965Y-101161300D01*
X108313514Y-101176961D01*
X108276457Y-101186891D01*
X108190840Y-101236323D01*
X108120923Y-101306240D01*
X108071491Y-101391857D01*
X108066514Y-101410433D01*
X108045900Y-101487365D01*
X103863290Y-101487365D01*
X103884610Y-101450438D01*
X103910200Y-101354935D01*
X103910200Y-101256065D01*
X103884610Y-101160562D01*
X103884608Y-101160559D01*
X103884608Y-101160557D01*
X103835175Y-101074938D01*
X103812639Y-101052401D01*
X103784863Y-100997884D01*
X103794435Y-100937452D01*
X103799012Y-100929421D01*
X103804880Y-100920156D01*
X103816475Y-100908562D01*
X103826866Y-100890565D01*
X105574500Y-100890565D01*
X105574500Y-100989435D01*
X105583443Y-101022810D01*
X105600091Y-101084942D01*
X105649523Y-101170559D01*
X105649525Y-101170562D01*
X105719438Y-101240475D01*
X105735775Y-101249907D01*
X105805058Y-101289908D01*
X105805056Y-101289908D01*
X105805060Y-101289909D01*
X105805062Y-101289910D01*
X105900565Y-101315500D01*
X105900567Y-101315500D01*
X105999433Y-101315500D01*
X105999435Y-101315500D01*
X106094938Y-101289910D01*
X106094940Y-101289908D01*
X106094942Y-101289908D01*
X106130708Y-101269258D01*
X106180562Y-101240475D01*
X106250475Y-101170562D01*
X106299910Y-101084938D01*
X106325500Y-100989435D01*
X106325500Y-100890565D01*
X106325093Y-100889046D01*
X106325152Y-100887923D01*
X106324653Y-100884133D01*
X106325355Y-100884040D01*
X106328291Y-100827949D01*
X106366792Y-100780396D01*
X106425891Y-100764555D01*
X106446341Y-100767793D01*
X106482565Y-100777500D01*
X106482566Y-100777500D01*
X106581433Y-100777500D01*
X106581435Y-100777500D01*
X106676938Y-100751910D01*
X106676940Y-100751908D01*
X106676942Y-100751908D01*
X106728163Y-100722335D01*
X106762562Y-100702475D01*
X106832475Y-100632562D01*
X106837727Y-100623465D01*
X110553600Y-100623465D01*
X110553600Y-100722335D01*
X110573086Y-100795057D01*
X110579191Y-100817842D01*
X110621179Y-100890566D01*
X110628625Y-100903462D01*
X110698538Y-100973375D01*
X110719539Y-100985500D01*
X110784158Y-101022808D01*
X110784156Y-101022808D01*
X110784160Y-101022809D01*
X110784162Y-101022810D01*
X110879665Y-101048400D01*
X110879667Y-101048400D01*
X110978533Y-101048400D01*
X110978535Y-101048400D01*
X111074038Y-101022810D01*
X111074040Y-101022808D01*
X111074042Y-101022808D01*
X111099477Y-101008122D01*
X111159662Y-100973375D01*
X111229575Y-100903462D01*
X111264322Y-100843277D01*
X111279008Y-100817842D01*
X111279008Y-100817840D01*
X111279010Y-100817838D01*
X111304600Y-100722335D01*
X111304600Y-100623465D01*
X111279010Y-100527962D01*
X111279008Y-100527959D01*
X111279008Y-100527957D01*
X111229576Y-100442340D01*
X111229575Y-100442338D01*
X111159662Y-100372425D01*
X111147668Y-100365500D01*
X111074041Y-100322991D01*
X111074043Y-100322991D01*
X111036985Y-100313061D01*
X110978535Y-100297400D01*
X110879665Y-100297400D01*
X110821214Y-100313061D01*
X110784157Y-100322991D01*
X110698540Y-100372423D01*
X110628623Y-100442340D01*
X110579191Y-100527957D01*
X110568602Y-100567476D01*
X110553600Y-100623465D01*
X106837727Y-100623465D01*
X106866167Y-100574206D01*
X106870053Y-100567476D01*
X106870053Y-100567475D01*
X106870498Y-100566703D01*
X106881910Y-100546938D01*
X106907500Y-100451435D01*
X106907500Y-100352565D01*
X106881910Y-100257062D01*
X106881908Y-100257059D01*
X106881908Y-100257057D01*
X106832476Y-100171440D01*
X106832475Y-100171438D01*
X106762562Y-100101525D01*
X106762559Y-100101523D01*
X106676941Y-100052091D01*
X106676943Y-100052091D01*
X106635762Y-100041057D01*
X106615266Y-100035565D01*
X108229500Y-100035565D01*
X108229500Y-100134435D01*
X108247196Y-100200476D01*
X108255091Y-100229942D01*
X108299836Y-100307441D01*
X108304525Y-100315562D01*
X108374438Y-100385475D01*
X108374440Y-100385476D01*
X108460058Y-100434908D01*
X108460056Y-100434908D01*
X108460060Y-100434909D01*
X108460062Y-100434910D01*
X108555565Y-100460500D01*
X108555567Y-100460500D01*
X108654433Y-100460500D01*
X108654435Y-100460500D01*
X108749938Y-100434910D01*
X108749940Y-100434908D01*
X108749942Y-100434908D01*
X108781723Y-100416559D01*
X108835562Y-100385475D01*
X108905475Y-100315562D01*
X108946767Y-100244042D01*
X108954908Y-100229942D01*
X108954908Y-100229940D01*
X108954910Y-100229938D01*
X108980500Y-100134435D01*
X108980500Y-100049665D01*
X109537100Y-100049665D01*
X109537100Y-100148535D01*
X109554088Y-100211935D01*
X109562691Y-100244042D01*
X109603984Y-100315562D01*
X109612125Y-100329662D01*
X109682038Y-100399575D01*
X109710579Y-100416053D01*
X109767658Y-100449008D01*
X109767656Y-100449008D01*
X109767660Y-100449009D01*
X109767662Y-100449010D01*
X109863165Y-100474600D01*
X109863167Y-100474600D01*
X109962033Y-100474600D01*
X109962035Y-100474600D01*
X110057538Y-100449010D01*
X110057540Y-100449008D01*
X110057542Y-100449008D01*
X110082977Y-100434322D01*
X110143162Y-100399575D01*
X110213075Y-100329662D01*
X110254991Y-100257062D01*
X110262508Y-100244042D01*
X110262508Y-100244040D01*
X110262510Y-100244038D01*
X110288100Y-100148535D01*
X110288100Y-100049665D01*
X110262510Y-99954162D01*
X110262508Y-99954159D01*
X110262508Y-99954157D01*
X110213076Y-99868540D01*
X110213075Y-99868538D01*
X110143162Y-99798625D01*
X110143159Y-99798623D01*
X110057541Y-99749191D01*
X110057543Y-99749191D01*
X110020485Y-99739261D01*
X109962035Y-99723600D01*
X109863165Y-99723600D01*
X109804714Y-99739261D01*
X109767657Y-99749191D01*
X109682040Y-99798623D01*
X109612123Y-99868540D01*
X109562691Y-99954157D01*
X109551764Y-99994938D01*
X109537100Y-100049665D01*
X108980500Y-100049665D01*
X108980500Y-100035565D01*
X108954910Y-99940062D01*
X108954908Y-99940059D01*
X108954908Y-99940057D01*
X108909567Y-99861525D01*
X108905475Y-99854438D01*
X108835562Y-99784525D01*
X108835559Y-99784523D01*
X108749941Y-99735091D01*
X108749943Y-99735091D01*
X108707057Y-99723600D01*
X108654435Y-99709500D01*
X108555565Y-99709500D01*
X108502943Y-99723600D01*
X108460057Y-99735091D01*
X108374440Y-99784523D01*
X108304523Y-99854440D01*
X108255091Y-99940057D01*
X108251313Y-99954157D01*
X108229500Y-100035565D01*
X106615266Y-100035565D01*
X106581435Y-100026500D01*
X106482565Y-100026500D01*
X106428238Y-100041057D01*
X106387057Y-100052091D01*
X106301440Y-100101523D01*
X106231523Y-100171440D01*
X106182091Y-100257057D01*
X106173001Y-100290982D01*
X106159892Y-100339908D01*
X106156500Y-100352566D01*
X106156500Y-100451434D01*
X106156908Y-100452957D01*
X106156848Y-100454084D01*
X106157347Y-100457867D01*
X106156645Y-100457959D01*
X106153705Y-100514058D01*
X106115200Y-100561608D01*
X106056099Y-100577443D01*
X106035659Y-100574206D01*
X106019748Y-100569943D01*
X105999435Y-100564500D01*
X105900565Y-100564500D01*
X105842114Y-100580161D01*
X105805057Y-100590091D01*
X105719440Y-100639523D01*
X105649523Y-100709440D01*
X105600091Y-100795057D01*
X105591278Y-100827949D01*
X105574500Y-100890565D01*
X103826866Y-100890565D01*
X103865910Y-100822938D01*
X103891500Y-100727435D01*
X103891500Y-100628565D01*
X103865910Y-100533062D01*
X103854904Y-100514000D01*
X103842183Y-100454153D01*
X103867069Y-100398257D01*
X103920057Y-100367664D01*
X103940641Y-100365500D01*
X103954433Y-100365500D01*
X103954435Y-100365500D01*
X104049938Y-100339910D01*
X104049940Y-100339908D01*
X104049943Y-100339908D01*
X104055936Y-100337426D01*
X104057153Y-100340365D01*
X104104224Y-100330252D01*
X104160175Y-100355015D01*
X104179828Y-100379230D01*
X104187525Y-100392562D01*
X104257438Y-100462475D01*
X104257440Y-100462476D01*
X104343058Y-100511908D01*
X104343056Y-100511908D01*
X104343060Y-100511909D01*
X104343062Y-100511910D01*
X104438565Y-100537500D01*
X104438567Y-100537500D01*
X104537433Y-100537500D01*
X104537435Y-100537500D01*
X104632938Y-100511910D01*
X104632940Y-100511908D01*
X104632942Y-100511908D01*
X104669917Y-100490560D01*
X104718562Y-100462475D01*
X104788475Y-100392562D01*
X104837620Y-100307440D01*
X104837908Y-100306942D01*
X104837908Y-100306940D01*
X104837910Y-100306938D01*
X104863500Y-100211435D01*
X104863500Y-100112565D01*
X104837910Y-100017062D01*
X104837908Y-100017059D01*
X104837908Y-100017057D01*
X104788476Y-99931440D01*
X104788475Y-99931438D01*
X104718562Y-99861525D01*
X104718559Y-99861523D01*
X104632941Y-99812091D01*
X104632943Y-99812091D01*
X104582686Y-99798625D01*
X104537435Y-99786500D01*
X104438565Y-99786500D01*
X104343062Y-99812090D01*
X104343060Y-99812090D01*
X104343060Y-99812091D01*
X104337068Y-99814573D01*
X104335880Y-99811705D01*
X104288351Y-99821703D01*
X104232508Y-99796699D01*
X104213171Y-99772768D01*
X104207768Y-99763410D01*
X104205475Y-99759438D01*
X104135562Y-99689525D01*
X104131336Y-99687085D01*
X104049941Y-99640091D01*
X104049943Y-99640091D01*
X104012885Y-99630161D01*
X103954435Y-99614500D01*
X103855565Y-99614500D01*
X103797114Y-99630161D01*
X103760057Y-99640091D01*
X103674440Y-99689523D01*
X103604524Y-99759439D01*
X103586148Y-99791266D01*
X103540677Y-99832205D01*
X103479826Y-99838599D01*
X103474790Y-99837390D01*
X103441843Y-99828562D01*
X103374435Y-99810500D01*
X103275565Y-99810500D01*
X103233755Y-99821703D01*
X103180057Y-99836091D01*
X103094440Y-99885523D01*
X103024523Y-99955440D01*
X102975091Y-100041057D01*
X102972135Y-100052090D01*
X102949500Y-100136565D01*
X102949500Y-100235435D01*
X102964384Y-100290982D01*
X102975091Y-100330942D01*
X103014718Y-100399576D01*
X103024525Y-100416562D01*
X103094438Y-100486475D01*
X103101514Y-100490560D01*
X103142454Y-100536030D01*
X103148849Y-100596880D01*
X103147640Y-100601918D01*
X103140500Y-100628565D01*
X103140500Y-100727435D01*
X103151314Y-100767794D01*
X103166091Y-100822942D01*
X103215522Y-100908558D01*
X103217258Y-100910820D01*
X103217939Y-100912743D01*
X103218769Y-100914181D01*
X103218502Y-100914334D01*
X103237679Y-100968497D01*
X103220299Y-101027162D01*
X103171756Y-101064407D01*
X103113091Y-101066710D01*
X103022735Y-101042500D01*
X102923865Y-101042500D01*
X102865414Y-101058161D01*
X102828357Y-101068091D01*
X102742740Y-101117523D01*
X102672823Y-101187440D01*
X102623391Y-101273057D01*
X102614500Y-101306240D01*
X102597800Y-101368565D01*
X95960100Y-101368565D01*
X95960100Y-101311565D01*
X95934510Y-101216062D01*
X95934508Y-101216059D01*
X95934508Y-101216057D01*
X95885076Y-101130440D01*
X95885075Y-101130438D01*
X95815162Y-101060525D01*
X95801091Y-101052401D01*
X95729541Y-101011091D01*
X95729543Y-101011091D01*
X95692485Y-101001161D01*
X95634035Y-100985500D01*
X95535165Y-100985500D01*
X95476714Y-101001161D01*
X95439657Y-101011091D01*
X95354040Y-101060523D01*
X95284123Y-101130440D01*
X95234691Y-101216057D01*
X95228148Y-101240476D01*
X95209100Y-101311565D01*
X91428940Y-101311565D01*
X91428597Y-101311093D01*
X91428597Y-101299126D01*
X91424041Y-101288062D01*
X91428597Y-101269258D01*
X91428597Y-101249907D01*
X91435631Y-101240224D01*
X91438449Y-101228597D01*
X91453186Y-101216063D01*
X91464561Y-101200407D01*
X91473252Y-101194764D01*
X91515175Y-101170559D01*
X91549962Y-101150475D01*
X91619875Y-101080562D01*
X91669310Y-100994938D01*
X91694900Y-100899435D01*
X91694900Y-100800565D01*
X91669310Y-100705062D01*
X91669308Y-100705059D01*
X91669308Y-100705057D01*
X91625144Y-100628565D01*
X91619875Y-100619438D01*
X91549962Y-100549525D01*
X91545485Y-100546940D01*
X91464341Y-100500091D01*
X91464343Y-100500091D01*
X91413526Y-100486475D01*
X91368835Y-100474500D01*
X91269965Y-100474500D01*
X91225274Y-100486475D01*
X91174457Y-100500091D01*
X91088840Y-100549523D01*
X91018923Y-100619440D01*
X90969491Y-100705057D01*
X90963495Y-100727435D01*
X90943900Y-100800565D01*
X82350000Y-100800565D01*
X82350000Y-99850565D01*
X85914500Y-99850565D01*
X85914500Y-99949435D01*
X85926693Y-99994938D01*
X85940091Y-100044942D01*
X85989523Y-100130559D01*
X85989525Y-100130562D01*
X86059438Y-100200475D01*
X86059440Y-100200476D01*
X86145058Y-100249908D01*
X86145056Y-100249908D01*
X86145060Y-100249909D01*
X86145062Y-100249910D01*
X86240565Y-100275500D01*
X86240567Y-100275500D01*
X86339433Y-100275500D01*
X86339435Y-100275500D01*
X86434938Y-100249910D01*
X86434940Y-100249908D01*
X86434942Y-100249908D01*
X86460377Y-100235222D01*
X86520562Y-100200475D01*
X86590475Y-100130562D01*
X86635781Y-100052090D01*
X86639908Y-100044942D01*
X86639908Y-100044940D01*
X86639910Y-100044938D01*
X86665500Y-99949435D01*
X86665500Y-99850565D01*
X86639910Y-99755062D01*
X86639908Y-99755059D01*
X86639908Y-99755057D01*
X86590476Y-99669440D01*
X86590475Y-99669438D01*
X86520562Y-99599525D01*
X86520559Y-99599523D01*
X86434941Y-99550091D01*
X86434943Y-99550091D01*
X86397885Y-99540161D01*
X86339435Y-99524500D01*
X86240565Y-99524500D01*
X86182114Y-99540161D01*
X86145057Y-99550091D01*
X86059440Y-99599523D01*
X85989523Y-99669440D01*
X85940091Y-99755057D01*
X85932196Y-99784523D01*
X85914500Y-99850565D01*
X82350000Y-99850565D01*
X82350000Y-99290582D01*
X89854400Y-99290582D01*
X89854400Y-99402618D01*
X89873661Y-99474500D01*
X89883398Y-99510841D01*
X89934600Y-99599523D01*
X89939415Y-99607863D01*
X90018637Y-99687085D01*
X90049765Y-99705057D01*
X90115659Y-99743101D01*
X90115660Y-99743101D01*
X90115663Y-99743103D01*
X90145782Y-99751173D01*
X90197097Y-99784498D01*
X90219023Y-99841619D01*
X90203187Y-99900720D01*
X90155637Y-99939225D01*
X90145787Y-99942425D01*
X90131462Y-99946263D01*
X90115658Y-99950498D01*
X90018639Y-100006513D01*
X89939413Y-100085739D01*
X89883398Y-100182758D01*
X89869284Y-100235433D01*
X89854400Y-100290982D01*
X89854400Y-100403018D01*
X89873580Y-100474600D01*
X89883398Y-100511241D01*
X89939413Y-100608260D01*
X89939415Y-100608263D01*
X90018637Y-100687485D01*
X90018639Y-100687486D01*
X90115659Y-100743501D01*
X90115657Y-100743501D01*
X90115661Y-100743502D01*
X90115663Y-100743503D01*
X90223882Y-100772500D01*
X90223884Y-100772500D01*
X90335916Y-100772500D01*
X90335918Y-100772500D01*
X90444137Y-100743503D01*
X90444139Y-100743501D01*
X90444141Y-100743501D01*
X90480801Y-100722335D01*
X90541163Y-100687485D01*
X90620385Y-100608263D01*
X90666750Y-100527957D01*
X90676401Y-100511241D01*
X90676401Y-100511239D01*
X90676403Y-100511237D01*
X90705400Y-100403018D01*
X90705400Y-100290982D01*
X90676403Y-100182763D01*
X90676401Y-100182760D01*
X90676401Y-100182758D01*
X90660997Y-100156078D01*
X90660996Y-100156077D01*
X90636163Y-100113065D01*
X93248000Y-100113065D01*
X93248000Y-100211935D01*
X93260092Y-100257062D01*
X93273591Y-100307442D01*
X93322735Y-100392560D01*
X93323025Y-100393062D01*
X93392938Y-100462975D01*
X93392940Y-100462976D01*
X93478558Y-100512408D01*
X93478556Y-100512408D01*
X93478560Y-100512409D01*
X93478562Y-100512410D01*
X93574065Y-100538000D01*
X93574067Y-100538000D01*
X93672933Y-100538000D01*
X93672935Y-100538000D01*
X93768438Y-100512410D01*
X93768440Y-100512408D01*
X93768442Y-100512408D01*
X93806283Y-100490560D01*
X93854062Y-100462975D01*
X93923975Y-100393062D01*
X93973410Y-100307438D01*
X93976334Y-100296522D01*
X94009654Y-100245209D01*
X94046339Y-100226516D01*
X94050131Y-100225500D01*
X94050135Y-100225500D01*
X94145638Y-100199910D01*
X94231262Y-100150475D01*
X94301175Y-100080562D01*
X94350610Y-99994938D01*
X94376200Y-99899435D01*
X94376200Y-99800565D01*
X94350610Y-99705062D01*
X94350608Y-99705059D01*
X94350608Y-99705057D01*
X94301176Y-99619440D01*
X94301175Y-99619438D01*
X94231262Y-99549525D01*
X94231259Y-99549523D01*
X94145641Y-99500091D01*
X94145640Y-99500090D01*
X94118874Y-99492918D01*
X94067561Y-99459593D01*
X94045636Y-99402471D01*
X94045500Y-99397292D01*
X94045500Y-99300566D01*
X94042825Y-99290582D01*
X94019910Y-99205062D01*
X94019908Y-99205059D01*
X94019908Y-99205057D01*
X93970476Y-99119440D01*
X93970475Y-99119438D01*
X93900562Y-99049525D01*
X93897682Y-99047862D01*
X93814941Y-99000091D01*
X93814943Y-99000091D01*
X93777885Y-98990161D01*
X93719435Y-98974500D01*
X93620565Y-98974500D01*
X93562114Y-98990161D01*
X93525057Y-99000091D01*
X93439440Y-99049523D01*
X93369523Y-99119440D01*
X93320091Y-99205057D01*
X93305783Y-99258453D01*
X93294500Y-99300565D01*
X93294500Y-99399435D01*
X93295353Y-99402618D01*
X93320091Y-99494942D01*
X93369523Y-99580559D01*
X93369525Y-99580562D01*
X93439438Y-99650475D01*
X93450896Y-99657090D01*
X93491836Y-99702560D01*
X93498231Y-99763410D01*
X93467638Y-99816398D01*
X93450896Y-99828562D01*
X93392939Y-99862024D01*
X93323023Y-99931940D01*
X93273591Y-100017557D01*
X93264988Y-100049665D01*
X93248000Y-100113065D01*
X90636163Y-100113065D01*
X90620385Y-100085737D01*
X90541163Y-100006515D01*
X90541160Y-100006513D01*
X90444140Y-99950498D01*
X90444142Y-99950498D01*
X90432962Y-99947502D01*
X90414015Y-99942426D01*
X90362703Y-99909103D01*
X90340776Y-99851982D01*
X90356611Y-99792881D01*
X90404161Y-99754376D01*
X90414006Y-99751176D01*
X90444137Y-99743103D01*
X90444139Y-99743101D01*
X90444141Y-99743101D01*
X90502339Y-99709500D01*
X90541163Y-99687085D01*
X90620385Y-99607863D01*
X90676403Y-99510837D01*
X90705400Y-99402618D01*
X90705400Y-99290582D01*
X90676403Y-99182363D01*
X90676401Y-99182360D01*
X90676401Y-99182358D01*
X90620386Y-99085339D01*
X90620385Y-99085337D01*
X90541163Y-99006115D01*
X90541160Y-99006113D01*
X90444140Y-98950098D01*
X90444142Y-98950098D01*
X90402151Y-98938847D01*
X90335918Y-98921100D01*
X90223882Y-98921100D01*
X90157648Y-98938847D01*
X90115658Y-98950098D01*
X90018639Y-99006113D01*
X89939413Y-99085339D01*
X89883398Y-99182358D01*
X89867186Y-99242863D01*
X89854400Y-99290582D01*
X82350000Y-99290582D01*
X82350000Y-98700565D01*
X88984500Y-98700565D01*
X88984500Y-98799435D01*
X89002533Y-98866735D01*
X89010091Y-98894942D01*
X89056025Y-98974500D01*
X89059525Y-98980562D01*
X89129438Y-99050475D01*
X89129440Y-99050476D01*
X89215058Y-99099908D01*
X89215056Y-99099908D01*
X89215060Y-99099909D01*
X89215062Y-99099910D01*
X89310565Y-99125500D01*
X89310567Y-99125500D01*
X89409433Y-99125500D01*
X89409435Y-99125500D01*
X89504938Y-99099910D01*
X89504940Y-99099908D01*
X89504942Y-99099908D01*
X89538455Y-99080559D01*
X89590562Y-99050475D01*
X89660475Y-98980562D01*
X89709910Y-98894938D01*
X89735500Y-98799435D01*
X89735500Y-98700565D01*
X89709910Y-98605062D01*
X89709908Y-98605059D01*
X89709908Y-98605057D01*
X89660476Y-98519440D01*
X89660475Y-98519438D01*
X89590562Y-98449525D01*
X89577182Y-98441800D01*
X89504941Y-98400091D01*
X89504943Y-98400091D01*
X89467885Y-98390161D01*
X89409435Y-98374500D01*
X89310565Y-98374500D01*
X89252114Y-98390161D01*
X89215057Y-98400091D01*
X89129440Y-98449523D01*
X89059523Y-98519440D01*
X89010091Y-98605057D01*
X89007489Y-98614768D01*
X88984500Y-98700565D01*
X82350000Y-98700565D01*
X82350000Y-98225665D01*
X84110400Y-98225665D01*
X84110400Y-98324535D01*
X84123788Y-98374500D01*
X84135991Y-98420042D01*
X84185423Y-98505659D01*
X84185425Y-98505662D01*
X84255338Y-98575575D01*
X84255340Y-98575576D01*
X84340958Y-98625008D01*
X84340956Y-98625008D01*
X84340960Y-98625009D01*
X84340962Y-98625010D01*
X84436465Y-98650600D01*
X84436467Y-98650600D01*
X84535333Y-98650600D01*
X84535335Y-98650600D01*
X84630838Y-98625010D01*
X84716462Y-98575575D01*
X84786375Y-98505662D01*
X84835810Y-98420038D01*
X84861400Y-98324535D01*
X84861400Y-98225665D01*
X84843635Y-98159365D01*
X92598700Y-98159365D01*
X92598700Y-98258235D01*
X92610043Y-98300566D01*
X92624291Y-98353742D01*
X92673723Y-98439359D01*
X92673725Y-98439362D01*
X92743638Y-98509275D01*
X92743640Y-98509276D01*
X92829258Y-98558708D01*
X92829256Y-98558708D01*
X92829260Y-98558709D01*
X92829262Y-98558710D01*
X92924765Y-98584300D01*
X92924767Y-98584300D01*
X93023633Y-98584300D01*
X93023635Y-98584300D01*
X93119138Y-98558710D01*
X93119140Y-98558708D01*
X93119142Y-98558708D01*
X93144577Y-98544022D01*
X93204762Y-98509275D01*
X93274675Y-98439362D01*
X93324110Y-98353738D01*
X93349700Y-98258235D01*
X93349700Y-98159365D01*
X93324110Y-98063862D01*
X93324108Y-98063858D01*
X93324108Y-98063857D01*
X93274678Y-97978243D01*
X93274677Y-97978242D01*
X93274675Y-97978238D01*
X93222002Y-97925565D01*
X94060300Y-97925565D01*
X94060300Y-98024435D01*
X94071967Y-98067975D01*
X94085891Y-98119942D01*
X94135033Y-98205057D01*
X94135325Y-98205562D01*
X94205238Y-98275475D01*
X94205240Y-98275476D01*
X94290858Y-98324908D01*
X94290856Y-98324908D01*
X94290860Y-98324909D01*
X94290862Y-98324910D01*
X94386365Y-98350500D01*
X94386367Y-98350500D01*
X94485233Y-98350500D01*
X94485235Y-98350500D01*
X94580738Y-98324910D01*
X94580740Y-98324908D01*
X94580742Y-98324908D01*
X94615327Y-98304940D01*
X94622905Y-98300565D01*
X95074500Y-98300565D01*
X95074500Y-98399435D01*
X95085852Y-98441800D01*
X95100091Y-98494942D01*
X95132168Y-98550500D01*
X95144890Y-98610348D01*
X95132168Y-98649500D01*
X95100091Y-98705057D01*
X95092839Y-98732123D01*
X95074500Y-98800565D01*
X95074500Y-98899435D01*
X95088075Y-98950097D01*
X95100091Y-98994942D01*
X95149523Y-99080559D01*
X95149525Y-99080562D01*
X95219438Y-99150475D01*
X95219440Y-99150476D01*
X95305058Y-99199908D01*
X95305056Y-99199908D01*
X95305060Y-99199909D01*
X95305062Y-99199910D01*
X95400565Y-99225500D01*
X95400567Y-99225500D01*
X95499433Y-99225500D01*
X95499435Y-99225500D01*
X95594938Y-99199910D01*
X95594940Y-99199908D01*
X95594942Y-99199908D01*
X95625339Y-99182358D01*
X95680562Y-99150475D01*
X95750475Y-99080562D01*
X95796935Y-99000091D01*
X95799908Y-98994942D01*
X95799908Y-98994940D01*
X95799910Y-98994938D01*
X95825500Y-98899435D01*
X95825500Y-98800565D01*
X95799910Y-98705062D01*
X95767830Y-98649498D01*
X95755109Y-98589653D01*
X95767831Y-98550500D01*
X95799910Y-98494938D01*
X95825500Y-98399435D01*
X95825500Y-98300565D01*
X102174500Y-98300565D01*
X102174500Y-98399435D01*
X102185852Y-98441800D01*
X102200091Y-98494942D01*
X102246646Y-98575576D01*
X102249525Y-98580562D01*
X102319438Y-98650475D01*
X102319440Y-98650476D01*
X102405058Y-98699908D01*
X102405056Y-98699908D01*
X102405060Y-98699909D01*
X102405062Y-98699910D01*
X102500565Y-98725500D01*
X102500567Y-98725500D01*
X102599433Y-98725500D01*
X102599435Y-98725500D01*
X102694938Y-98699910D01*
X102694940Y-98699908D01*
X102694942Y-98699908D01*
X102728658Y-98680442D01*
X102780562Y-98650475D01*
X102816270Y-98614766D01*
X102870784Y-98586990D01*
X102931216Y-98596561D01*
X102974481Y-98639825D01*
X102984053Y-98700257D01*
X102981899Y-98710393D01*
X102968150Y-98761708D01*
X102966500Y-98767865D01*
X102966500Y-98866735D01*
X102975262Y-98899435D01*
X102992091Y-98962242D01*
X103017422Y-99006115D01*
X103041525Y-99047862D01*
X103111438Y-99117775D01*
X103114322Y-99119440D01*
X103197058Y-99167208D01*
X103197056Y-99167208D01*
X103197060Y-99167209D01*
X103197062Y-99167210D01*
X103292565Y-99192800D01*
X103292567Y-99192800D01*
X103391433Y-99192800D01*
X103391435Y-99192800D01*
X103486938Y-99167210D01*
X103486940Y-99167208D01*
X103486942Y-99167208D01*
X103515924Y-99150475D01*
X103572562Y-99117775D01*
X103642475Y-99047862D01*
X103679828Y-98983165D01*
X109616500Y-98983165D01*
X109616500Y-99082035D01*
X109634839Y-99150476D01*
X109642091Y-99177542D01*
X109691523Y-99263159D01*
X109691525Y-99263162D01*
X109761438Y-99333075D01*
X109761440Y-99333076D01*
X109847058Y-99382508D01*
X109847056Y-99382508D01*
X109847060Y-99382509D01*
X109847062Y-99382510D01*
X109942565Y-99408100D01*
X109942567Y-99408100D01*
X110041433Y-99408100D01*
X110041435Y-99408100D01*
X110136938Y-99382510D01*
X110136940Y-99382508D01*
X110136942Y-99382508D01*
X110162377Y-99367822D01*
X110222562Y-99333075D01*
X110292475Y-99263162D01*
X110328995Y-99199908D01*
X110341908Y-99177542D01*
X110341908Y-99177540D01*
X110341910Y-99177538D01*
X110367500Y-99082035D01*
X110367500Y-98983165D01*
X110341910Y-98887662D01*
X110341908Y-98887659D01*
X110341908Y-98887657D01*
X110292476Y-98802040D01*
X110292475Y-98802038D01*
X110222562Y-98732125D01*
X110222559Y-98732123D01*
X110136941Y-98682691D01*
X110136943Y-98682691D01*
X110098375Y-98672357D01*
X110041435Y-98657100D01*
X109942565Y-98657100D01*
X109885625Y-98672357D01*
X109847057Y-98682691D01*
X109761440Y-98732123D01*
X109691523Y-98802040D01*
X109642091Y-98887657D01*
X109633130Y-98921100D01*
X109616500Y-98983165D01*
X103679828Y-98983165D01*
X103691910Y-98962238D01*
X103717500Y-98866735D01*
X103717500Y-98767865D01*
X103691910Y-98672362D01*
X103691908Y-98672359D01*
X103691908Y-98672357D01*
X103642476Y-98586740D01*
X103642475Y-98586738D01*
X103572562Y-98516825D01*
X103559487Y-98509276D01*
X103519285Y-98486065D01*
X106651500Y-98486065D01*
X106651500Y-98584935D01*
X106669062Y-98650476D01*
X106677091Y-98680442D01*
X106706930Y-98732123D01*
X106726525Y-98766062D01*
X106796438Y-98835975D01*
X106796440Y-98835976D01*
X106882058Y-98885408D01*
X106882056Y-98885408D01*
X106882060Y-98885409D01*
X106882062Y-98885410D01*
X106977565Y-98911000D01*
X106977567Y-98911000D01*
X107076433Y-98911000D01*
X107076435Y-98911000D01*
X107171938Y-98885410D01*
X107171940Y-98885408D01*
X107171942Y-98885408D01*
X107204284Y-98866735D01*
X107257562Y-98835975D01*
X107327475Y-98766062D01*
X107365669Y-98699908D01*
X107376908Y-98680442D01*
X107376908Y-98680440D01*
X107376910Y-98680438D01*
X107402500Y-98584935D01*
X107402500Y-98486065D01*
X107376910Y-98390562D01*
X107376908Y-98390559D01*
X107376908Y-98390557D01*
X107360631Y-98362365D01*
X115488500Y-98362365D01*
X115488500Y-98461235D01*
X115504096Y-98519440D01*
X115514091Y-98556742D01*
X115562060Y-98639825D01*
X115563525Y-98642362D01*
X115633438Y-98712275D01*
X115633440Y-98712276D01*
X115719058Y-98761708D01*
X115719056Y-98761708D01*
X115719060Y-98761709D01*
X115719062Y-98761710D01*
X115814565Y-98787300D01*
X115814567Y-98787300D01*
X115913433Y-98787300D01*
X115913435Y-98787300D01*
X116008938Y-98761710D01*
X116008940Y-98761708D01*
X116008942Y-98761708D01*
X116034377Y-98747022D01*
X116094562Y-98712275D01*
X116164475Y-98642362D01*
X116203034Y-98575576D01*
X116213908Y-98556742D01*
X116213908Y-98556740D01*
X116213910Y-98556738D01*
X116239500Y-98461235D01*
X116239500Y-98362365D01*
X116213910Y-98266862D01*
X116213908Y-98266859D01*
X116213908Y-98266857D01*
X116164476Y-98181240D01*
X116164475Y-98181238D01*
X116094562Y-98111325D01*
X116094559Y-98111323D01*
X116008941Y-98061891D01*
X116008943Y-98061891D01*
X115971885Y-98051961D01*
X115913435Y-98036300D01*
X115814565Y-98036300D01*
X115756114Y-98051961D01*
X115719057Y-98061891D01*
X115633440Y-98111323D01*
X115563523Y-98181240D01*
X115514091Y-98266857D01*
X115503887Y-98304940D01*
X115488500Y-98362365D01*
X107360631Y-98362365D01*
X107327476Y-98304940D01*
X107327475Y-98304938D01*
X107257562Y-98235025D01*
X107241352Y-98225666D01*
X107171941Y-98185591D01*
X107171943Y-98185591D01*
X107134885Y-98175661D01*
X107076435Y-98160000D01*
X106977565Y-98160000D01*
X106919114Y-98175661D01*
X106882057Y-98185591D01*
X106796440Y-98235023D01*
X106726523Y-98304940D01*
X106677091Y-98390557D01*
X106669192Y-98420038D01*
X106651500Y-98486065D01*
X103519285Y-98486065D01*
X103486941Y-98467391D01*
X103486943Y-98467391D01*
X103449885Y-98457461D01*
X103391435Y-98441800D01*
X103332662Y-98441800D01*
X103274471Y-98422893D01*
X103238507Y-98373393D01*
X103238507Y-98312207D01*
X103274471Y-98262707D01*
X103283161Y-98257064D01*
X103305160Y-98244362D01*
X103363162Y-98210875D01*
X103433075Y-98140962D01*
X103467822Y-98080777D01*
X103482508Y-98055342D01*
X103482508Y-98055340D01*
X103482510Y-98055338D01*
X103508100Y-97959835D01*
X103508100Y-97860965D01*
X103482510Y-97765462D01*
X103482508Y-97765459D01*
X103482508Y-97765457D01*
X103479977Y-97761073D01*
X103455146Y-97718065D01*
X104988400Y-97718065D01*
X104988400Y-97816935D01*
X104999642Y-97858890D01*
X105013991Y-97912442D01*
X105062525Y-97996503D01*
X105063425Y-97998062D01*
X105133338Y-98067975D01*
X105133340Y-98067976D01*
X105218958Y-98117408D01*
X105218956Y-98117408D01*
X105218960Y-98117409D01*
X105218962Y-98117410D01*
X105314465Y-98143000D01*
X105314467Y-98143000D01*
X105413333Y-98143000D01*
X105413335Y-98143000D01*
X105508838Y-98117410D01*
X105508840Y-98117408D01*
X105508842Y-98117408D01*
X105534277Y-98102722D01*
X105594462Y-98067975D01*
X105664375Y-97998062D01*
X105713810Y-97912438D01*
X105731729Y-97845565D01*
X110069500Y-97845565D01*
X110069500Y-97944435D01*
X110084413Y-98000090D01*
X110095091Y-98039942D01*
X110136304Y-98111323D01*
X110144525Y-98125562D01*
X110214438Y-98195475D01*
X110214440Y-98195476D01*
X110300058Y-98244908D01*
X110300056Y-98244908D01*
X110300060Y-98244909D01*
X110300062Y-98244910D01*
X110395565Y-98270500D01*
X110395567Y-98270500D01*
X110494433Y-98270500D01*
X110494435Y-98270500D01*
X110589938Y-98244910D01*
X110589940Y-98244908D01*
X110589942Y-98244908D01*
X110615377Y-98230222D01*
X110675562Y-98195475D01*
X110745475Y-98125562D01*
X110780222Y-98065377D01*
X110794908Y-98039942D01*
X110794908Y-98039940D01*
X110794910Y-98039938D01*
X110820500Y-97944435D01*
X110820500Y-97845565D01*
X110794910Y-97750062D01*
X110745475Y-97664438D01*
X110731602Y-97650565D01*
X112174500Y-97650565D01*
X112174500Y-97749435D01*
X112192586Y-97816931D01*
X112200091Y-97844942D01*
X112249523Y-97930559D01*
X112249525Y-97930562D01*
X112319438Y-98000475D01*
X112319440Y-98000476D01*
X112405058Y-98049908D01*
X112405056Y-98049908D01*
X112405060Y-98049909D01*
X112405062Y-98049910D01*
X112500565Y-98075500D01*
X112500567Y-98075500D01*
X112599433Y-98075500D01*
X112599435Y-98075500D01*
X112694938Y-98049910D01*
X112694940Y-98049908D01*
X112694942Y-98049908D01*
X112739065Y-98024433D01*
X112780562Y-98000475D01*
X112850475Y-97930562D01*
X112890485Y-97861263D01*
X112899908Y-97844942D01*
X112899908Y-97844940D01*
X112899910Y-97844938D01*
X112925500Y-97749435D01*
X112925500Y-97650565D01*
X112899910Y-97555062D01*
X112899908Y-97555059D01*
X112899908Y-97555057D01*
X112850476Y-97469440D01*
X112850475Y-97469438D01*
X112780562Y-97399525D01*
X112780559Y-97399523D01*
X112694941Y-97350091D01*
X112694943Y-97350091D01*
X112657885Y-97340161D01*
X112599435Y-97324500D01*
X112500565Y-97324500D01*
X112442114Y-97340161D01*
X112405057Y-97350091D01*
X112319440Y-97399523D01*
X112249523Y-97469440D01*
X112200091Y-97555057D01*
X112189516Y-97594523D01*
X112174500Y-97650565D01*
X110731602Y-97650565D01*
X110675562Y-97594525D01*
X110642610Y-97575500D01*
X110589941Y-97545091D01*
X110589943Y-97545091D01*
X110535502Y-97530504D01*
X110494435Y-97519500D01*
X110395565Y-97519500D01*
X110354498Y-97530504D01*
X110300057Y-97545091D01*
X110214440Y-97594523D01*
X110144523Y-97664440D01*
X110095091Y-97750057D01*
X110082770Y-97796042D01*
X110069500Y-97845565D01*
X105731729Y-97845565D01*
X105739400Y-97816935D01*
X105739400Y-97718065D01*
X105713810Y-97622562D01*
X105713808Y-97622559D01*
X105713808Y-97622557D01*
X105664376Y-97536940D01*
X105664375Y-97536938D01*
X105594462Y-97467025D01*
X105594459Y-97467023D01*
X105508841Y-97417591D01*
X105508843Y-97417591D01*
X105462083Y-97405062D01*
X105413335Y-97392000D01*
X105314465Y-97392000D01*
X105265717Y-97405062D01*
X105218957Y-97417591D01*
X105133340Y-97467023D01*
X105063423Y-97536940D01*
X105013991Y-97622557D01*
X105006486Y-97650566D01*
X104988400Y-97718065D01*
X103455146Y-97718065D01*
X103433076Y-97679840D01*
X103433075Y-97679838D01*
X103363162Y-97609925D01*
X103363159Y-97609923D01*
X103277541Y-97560491D01*
X103277543Y-97560491D01*
X103240485Y-97550561D01*
X103182035Y-97534900D01*
X103083165Y-97534900D01*
X103024714Y-97550561D01*
X102987657Y-97560491D01*
X102902040Y-97609923D01*
X102832123Y-97679840D01*
X102782691Y-97765457D01*
X102782690Y-97765462D01*
X102761227Y-97845565D01*
X102757100Y-97860966D01*
X102757100Y-97887727D01*
X102738193Y-97945918D01*
X102688693Y-97981882D01*
X102632478Y-97983353D01*
X102599435Y-97974500D01*
X102500565Y-97974500D01*
X102442114Y-97990161D01*
X102405057Y-98000091D01*
X102319440Y-98049523D01*
X102249523Y-98119440D01*
X102200091Y-98205057D01*
X102199956Y-98205562D01*
X102174500Y-98300565D01*
X95825500Y-98300565D01*
X95799910Y-98205062D01*
X95799908Y-98205059D01*
X95799908Y-98205057D01*
X95750476Y-98119440D01*
X95750475Y-98119438D01*
X95680562Y-98049525D01*
X95671928Y-98044540D01*
X95594941Y-98000091D01*
X95594943Y-98000091D01*
X95557885Y-97990161D01*
X95499435Y-97974500D01*
X95400565Y-97974500D01*
X95342114Y-97990161D01*
X95305057Y-98000091D01*
X95219440Y-98049523D01*
X95149523Y-98119440D01*
X95100091Y-98205057D01*
X95099956Y-98205562D01*
X95074500Y-98300565D01*
X94622905Y-98300565D01*
X94666362Y-98275475D01*
X94736275Y-98205562D01*
X94785710Y-98119938D01*
X94811300Y-98024435D01*
X94811300Y-97925565D01*
X94785710Y-97830062D01*
X94785708Y-97830059D01*
X94785708Y-97830057D01*
X94736276Y-97744440D01*
X94736275Y-97744438D01*
X94666362Y-97674525D01*
X94666359Y-97674523D01*
X94580741Y-97625091D01*
X94580743Y-97625091D01*
X94543685Y-97615161D01*
X94485235Y-97599500D01*
X94386365Y-97599500D01*
X94327914Y-97615161D01*
X94290857Y-97625091D01*
X94205240Y-97674523D01*
X94135323Y-97744440D01*
X94085891Y-97830057D01*
X94077530Y-97861263D01*
X94060300Y-97925565D01*
X93222002Y-97925565D01*
X93204762Y-97908325D01*
X93204759Y-97908323D01*
X93119141Y-97858891D01*
X93119143Y-97858891D01*
X93069412Y-97845566D01*
X93023635Y-97833300D01*
X92924765Y-97833300D01*
X92878988Y-97845566D01*
X92829257Y-97858891D01*
X92743640Y-97908323D01*
X92743638Y-97908325D01*
X92673725Y-97978238D01*
X92636078Y-98043444D01*
X92636069Y-98043456D01*
X92624291Y-98063858D01*
X92624290Y-98063862D01*
X92598700Y-98159365D01*
X84843635Y-98159365D01*
X84835810Y-98130162D01*
X84835808Y-98130159D01*
X84835808Y-98130157D01*
X84789704Y-98050304D01*
X84786375Y-98044538D01*
X84716462Y-97974625D01*
X84716459Y-97974623D01*
X84630841Y-97925191D01*
X84630843Y-97925191D01*
X84583247Y-97912438D01*
X84535335Y-97899600D01*
X84436465Y-97899600D01*
X84388553Y-97912438D01*
X84340957Y-97925191D01*
X84255340Y-97974623D01*
X84185423Y-98044540D01*
X84135991Y-98130157D01*
X84135990Y-98130162D01*
X84110400Y-98225665D01*
X82350000Y-98225665D01*
X82350000Y-95530000D01*
X83465143Y-95530000D01*
X83940193Y-95530000D01*
X83920445Y-95564205D01*
X83900001Y-95640504D01*
X83900001Y-95719496D01*
X83920445Y-95795795D01*
X83940193Y-95830000D01*
X83465143Y-95830000D01*
X83478822Y-95898767D01*
X83535358Y-96035257D01*
X83617434Y-96158093D01*
X83721906Y-96262565D01*
X83844742Y-96344641D01*
X83981229Y-96401176D01*
X83981235Y-96401178D01*
X84126128Y-96429999D01*
X84126132Y-96430000D01*
X84449999Y-96430000D01*
X84450000Y-96429999D01*
X84450000Y-95979999D01*
X84750000Y-95979999D01*
X84750000Y-96429999D01*
X84750001Y-96430000D01*
X85073868Y-96430000D01*
X85073871Y-96429999D01*
X85218764Y-96401178D01*
X85218770Y-96401176D01*
X85355257Y-96344641D01*
X85478093Y-96262565D01*
X85582565Y-96158093D01*
X85664641Y-96035257D01*
X85721177Y-95898767D01*
X85734857Y-95830000D01*
X85259807Y-95830000D01*
X85279555Y-95795795D01*
X85299999Y-95719496D01*
X85299999Y-95640504D01*
X85279555Y-95564205D01*
X85259807Y-95530000D01*
X85734857Y-95530000D01*
X87495143Y-95530000D01*
X87970181Y-95530000D01*
X87950433Y-95564205D01*
X87929989Y-95640504D01*
X87929989Y-95719496D01*
X87950433Y-95795795D01*
X87970181Y-95830000D01*
X87495143Y-95830000D01*
X87508822Y-95898767D01*
X87565358Y-96035257D01*
X87647434Y-96158093D01*
X87751906Y-96262565D01*
X87874742Y-96344641D01*
X88011229Y-96401176D01*
X88011237Y-96401178D01*
X88102019Y-96419236D01*
X88155404Y-96449132D01*
X88181020Y-96504697D01*
X88169083Y-96564707D01*
X88124154Y-96606240D01*
X88108331Y-96611960D01*
X88077166Y-96620311D01*
X88077164Y-96620311D01*
X88077164Y-96620312D01*
X87957335Y-96689495D01*
X87859495Y-96787335D01*
X87790312Y-96907164D01*
X87754500Y-97040817D01*
X87754500Y-97179183D01*
X87790312Y-97312836D01*
X87859495Y-97432665D01*
X87957335Y-97530505D01*
X88077164Y-97599688D01*
X88210817Y-97635500D01*
X88210819Y-97635500D01*
X88349181Y-97635500D01*
X88349183Y-97635500D01*
X88482836Y-97599688D01*
X88567920Y-97550565D01*
X88984500Y-97550565D01*
X88984500Y-97649435D01*
X88996328Y-97693577D01*
X89010091Y-97744942D01*
X89051655Y-97816931D01*
X89059525Y-97830562D01*
X89129438Y-97900475D01*
X89157979Y-97916953D01*
X89215058Y-97949908D01*
X89215056Y-97949908D01*
X89215060Y-97949909D01*
X89215062Y-97949910D01*
X89310565Y-97975500D01*
X89310567Y-97975500D01*
X89409433Y-97975500D01*
X89409435Y-97975500D01*
X89504938Y-97949910D01*
X89504940Y-97949908D01*
X89504942Y-97949908D01*
X89547103Y-97925566D01*
X89590562Y-97900475D01*
X89660475Y-97830562D01*
X89695222Y-97770377D01*
X89709908Y-97744942D01*
X89709908Y-97744940D01*
X89709910Y-97744938D01*
X89735500Y-97649435D01*
X89735500Y-97550565D01*
X89733736Y-97543982D01*
X91774500Y-97543982D01*
X91774500Y-97656018D01*
X91791126Y-97718066D01*
X91803498Y-97764241D01*
X91859513Y-97861260D01*
X91859515Y-97861263D01*
X91938737Y-97940485D01*
X91938739Y-97940486D01*
X92035759Y-97996501D01*
X92035757Y-97996501D01*
X92035761Y-97996502D01*
X92035763Y-97996503D01*
X92143982Y-98025500D01*
X92143984Y-98025500D01*
X92256016Y-98025500D01*
X92256018Y-98025500D01*
X92364237Y-97996503D01*
X92364239Y-97996501D01*
X92364241Y-97996501D01*
X92402347Y-97974500D01*
X92461263Y-97940485D01*
X92540485Y-97861263D01*
X92596503Y-97764237D01*
X92625500Y-97656018D01*
X92625500Y-97543982D01*
X92596503Y-97435763D01*
X92596501Y-97435760D01*
X92596501Y-97435758D01*
X92544969Y-97346503D01*
X92540485Y-97338737D01*
X92461263Y-97259515D01*
X92461260Y-97259513D01*
X92364240Y-97203498D01*
X92364242Y-97203498D01*
X92326834Y-97193475D01*
X92256018Y-97174500D01*
X92143982Y-97174500D01*
X92099873Y-97186319D01*
X92035758Y-97203498D01*
X91938739Y-97259513D01*
X91859513Y-97338739D01*
X91803498Y-97435758D01*
X91803497Y-97435763D01*
X91774500Y-97543982D01*
X89733736Y-97543982D01*
X89709910Y-97455062D01*
X89709908Y-97455059D01*
X89709908Y-97455057D01*
X89660476Y-97369440D01*
X89660475Y-97369438D01*
X89590562Y-97299525D01*
X89590559Y-97299523D01*
X89504941Y-97250091D01*
X89504943Y-97250091D01*
X89467885Y-97240161D01*
X89409435Y-97224500D01*
X89310565Y-97224500D01*
X89252114Y-97240161D01*
X89215057Y-97250091D01*
X89129440Y-97299523D01*
X89059523Y-97369440D01*
X89010091Y-97455057D01*
X89006238Y-97469438D01*
X88984500Y-97550565D01*
X88567920Y-97550565D01*
X88602665Y-97530505D01*
X88700505Y-97432665D01*
X88769688Y-97312836D01*
X88805500Y-97179183D01*
X88805500Y-97093982D01*
X95224500Y-97093982D01*
X95224500Y-97206018D01*
X95241242Y-97268499D01*
X95253498Y-97314241D01*
X95288867Y-97375500D01*
X95309515Y-97411263D01*
X95388737Y-97490485D01*
X95388739Y-97490486D01*
X95485759Y-97546501D01*
X95485757Y-97546501D01*
X95485761Y-97546502D01*
X95485763Y-97546503D01*
X95593982Y-97575500D01*
X95593984Y-97575500D01*
X95706016Y-97575500D01*
X95706018Y-97575500D01*
X95814237Y-97546503D01*
X95814239Y-97546501D01*
X95814241Y-97546501D01*
X95843064Y-97529859D01*
X95911263Y-97490485D01*
X95990485Y-97411263D01*
X96046503Y-97314237D01*
X96075500Y-97206018D01*
X96075500Y-97093982D01*
X96046503Y-96985763D01*
X96046501Y-96985760D01*
X96046501Y-96985758D01*
X95990486Y-96888739D01*
X95990485Y-96888737D01*
X95911263Y-96809515D01*
X95874364Y-96788211D01*
X95874363Y-96788210D01*
X95814240Y-96753498D01*
X95814242Y-96753498D01*
X95772251Y-96742247D01*
X95706018Y-96724500D01*
X95593982Y-96724500D01*
X95527748Y-96742247D01*
X95485758Y-96753498D01*
X95388739Y-96809513D01*
X95309513Y-96888739D01*
X95253498Y-96985758D01*
X95252640Y-96988962D01*
X95224500Y-97093982D01*
X88805500Y-97093982D01*
X88805500Y-97040817D01*
X88769688Y-96907164D01*
X88700505Y-96787335D01*
X88622135Y-96708965D01*
X96341800Y-96708965D01*
X96341800Y-96807835D01*
X96351374Y-96843565D01*
X96367391Y-96903342D01*
X96414975Y-96985758D01*
X96416825Y-96988962D01*
X96486738Y-97058875D01*
X96486740Y-97058876D01*
X96572358Y-97108308D01*
X96572356Y-97108308D01*
X96572360Y-97108309D01*
X96572362Y-97108310D01*
X96667865Y-97133900D01*
X96667867Y-97133900D01*
X96766735Y-97133900D01*
X96778326Y-97130794D01*
X96839427Y-97133995D01*
X96886978Y-97172499D01*
X96889671Y-97176893D01*
X96909515Y-97211263D01*
X96988737Y-97290485D01*
X96988739Y-97290486D01*
X97085759Y-97346501D01*
X97085757Y-97346501D01*
X97085761Y-97346502D01*
X97085763Y-97346503D01*
X97193982Y-97375500D01*
X97193984Y-97375500D01*
X97306016Y-97375500D01*
X97306018Y-97375500D01*
X97414237Y-97346503D01*
X97414239Y-97346501D01*
X97414241Y-97346501D01*
X97470123Y-97314237D01*
X97511263Y-97290485D01*
X97590485Y-97211263D01*
X97590486Y-97211260D01*
X97595073Y-97206674D01*
X97596073Y-97207674D01*
X97640488Y-97177137D01*
X97701653Y-97178727D01*
X97718123Y-97186318D01*
X97735763Y-97196503D01*
X97843982Y-97225500D01*
X97843989Y-97225500D01*
X97845567Y-97225708D01*
X97846601Y-97226201D01*
X97850250Y-97227179D01*
X97850068Y-97227854D01*
X97900794Y-97252043D01*
X97929995Y-97305811D01*
X97922014Y-97366474D01*
X97918392Y-97373360D01*
X97900091Y-97405059D01*
X97900090Y-97405061D01*
X97900090Y-97405062D01*
X97874500Y-97500565D01*
X97874500Y-97599435D01*
X97897067Y-97683657D01*
X97900091Y-97694942D01*
X97940102Y-97764241D01*
X97949525Y-97780562D01*
X98019438Y-97850475D01*
X98019440Y-97850476D01*
X98105058Y-97899908D01*
X98105056Y-97899908D01*
X98105060Y-97899909D01*
X98105062Y-97899910D01*
X98200565Y-97925500D01*
X98200567Y-97925500D01*
X98299433Y-97925500D01*
X98299435Y-97925500D01*
X98394938Y-97899910D01*
X98394940Y-97899908D01*
X98394942Y-97899908D01*
X98420377Y-97885222D01*
X98480562Y-97850475D01*
X98550475Y-97780562D01*
X98599910Y-97694938D01*
X98625500Y-97599435D01*
X98625500Y-97500565D01*
X99374500Y-97500565D01*
X99374500Y-97599435D01*
X99397067Y-97683657D01*
X99400091Y-97694942D01*
X99440102Y-97764241D01*
X99449525Y-97780562D01*
X99519438Y-97850475D01*
X99519440Y-97850476D01*
X99605058Y-97899908D01*
X99605056Y-97899908D01*
X99605060Y-97899909D01*
X99605062Y-97899910D01*
X99700565Y-97925500D01*
X99700567Y-97925500D01*
X99799433Y-97925500D01*
X99799435Y-97925500D01*
X99894938Y-97899910D01*
X99894940Y-97899908D01*
X99894942Y-97899908D01*
X99920377Y-97885222D01*
X99980562Y-97850475D01*
X100050475Y-97780562D01*
X100099910Y-97694938D01*
X100125500Y-97599435D01*
X100125500Y-97500565D01*
X100099910Y-97405062D01*
X100099908Y-97405059D01*
X100099908Y-97405057D01*
X100057145Y-97330991D01*
X100050475Y-97319438D01*
X99980562Y-97249525D01*
X99980559Y-97249523D01*
X99894941Y-97200091D01*
X99894943Y-97200091D01*
X99843544Y-97186319D01*
X99799435Y-97174500D01*
X99700565Y-97174500D01*
X99656456Y-97186319D01*
X99605057Y-97200091D01*
X99519440Y-97249523D01*
X99449523Y-97319440D01*
X99400091Y-97405057D01*
X99385783Y-97458453D01*
X99374500Y-97500565D01*
X98625500Y-97500565D01*
X98599910Y-97405062D01*
X98598118Y-97401959D01*
X98595536Y-97392071D01*
X98596949Y-97367994D01*
X98595056Y-97343947D01*
X98598712Y-97337979D01*
X98599123Y-97330991D01*
X98614421Y-97312341D01*
X98627022Y-97291776D01*
X98633747Y-97288781D01*
X98637928Y-97283685D01*
X98655506Y-97279093D01*
X98675205Y-97270322D01*
X98675167Y-97270179D01*
X98676073Y-97269936D01*
X98678405Y-97268898D01*
X98681428Y-97268500D01*
X98681435Y-97268500D01*
X98776938Y-97242910D01*
X98776940Y-97242908D01*
X98776942Y-97242908D01*
X98831752Y-97211263D01*
X98862562Y-97193475D01*
X98932475Y-97123562D01*
X98968443Y-97061263D01*
X98981908Y-97037942D01*
X98981908Y-97037940D01*
X98981910Y-97037938D01*
X99007500Y-96942435D01*
X99007500Y-96843565D01*
X98981910Y-96748062D01*
X98981908Y-96748059D01*
X98981908Y-96748057D01*
X98932476Y-96662440D01*
X98932475Y-96662438D01*
X98862562Y-96592525D01*
X98862559Y-96592523D01*
X98776941Y-96543091D01*
X98776943Y-96543091D01*
X98720024Y-96527840D01*
X98681435Y-96517500D01*
X98582565Y-96517500D01*
X98543976Y-96527840D01*
X98487057Y-96543091D01*
X98401436Y-96592525D01*
X98400968Y-96592885D01*
X98400570Y-96593025D01*
X98395819Y-96595769D01*
X98395310Y-96594887D01*
X98343290Y-96613301D01*
X98284626Y-96595916D01*
X98254976Y-96563836D01*
X98240485Y-96538737D01*
X98161263Y-96459515D01*
X98161260Y-96459513D01*
X98064240Y-96403498D01*
X98064242Y-96403498D01*
X98022251Y-96392247D01*
X97956018Y-96374500D01*
X97843982Y-96374500D01*
X97777748Y-96392247D01*
X97735758Y-96403498D01*
X97638737Y-96459514D01*
X97554926Y-96543325D01*
X97553928Y-96542327D01*
X97509498Y-96572866D01*
X97448334Y-96571267D01*
X97431876Y-96563681D01*
X97414238Y-96553497D01*
X97359155Y-96538738D01*
X97306018Y-96524500D01*
X97193982Y-96524500D01*
X97107588Y-96547648D01*
X97046487Y-96544446D01*
X97011964Y-96522027D01*
X96947862Y-96457925D01*
X96942640Y-96454910D01*
X96862241Y-96408491D01*
X96862243Y-96408491D01*
X96807929Y-96393938D01*
X96766735Y-96382900D01*
X96667865Y-96382900D01*
X96626671Y-96393938D01*
X96572357Y-96408491D01*
X96486740Y-96457923D01*
X96416823Y-96527840D01*
X96367391Y-96613457D01*
X96364432Y-96624500D01*
X96341800Y-96708965D01*
X88622135Y-96708965D01*
X88602665Y-96689495D01*
X88482836Y-96620312D01*
X88482833Y-96620311D01*
X88477216Y-96617068D01*
X88477880Y-96615917D01*
X88436678Y-96580730D01*
X88422393Y-96521235D01*
X88445806Y-96464707D01*
X88497974Y-96432736D01*
X88521088Y-96430000D01*
X88629999Y-96430000D01*
X88630000Y-96429999D01*
X88630000Y-95979999D01*
X88930000Y-95979999D01*
X88930000Y-96429999D01*
X88930001Y-96430000D01*
X89403868Y-96430000D01*
X89403871Y-96429999D01*
X89548764Y-96401178D01*
X89548770Y-96401176D01*
X89685257Y-96344641D01*
X89808093Y-96262565D01*
X89912565Y-96158093D01*
X89981071Y-96055565D01*
X94094500Y-96055565D01*
X94094500Y-96154435D01*
X94106593Y-96199565D01*
X94120091Y-96249942D01*
X94169523Y-96335559D01*
X94169525Y-96335562D01*
X94239438Y-96405475D01*
X94239440Y-96405476D01*
X94325058Y-96454908D01*
X94325056Y-96454908D01*
X94325060Y-96454909D01*
X94325062Y-96454910D01*
X94420565Y-96480500D01*
X94420567Y-96480500D01*
X94519433Y-96480500D01*
X94519435Y-96480500D01*
X94614938Y-96454910D01*
X94614940Y-96454908D01*
X94614942Y-96454908D01*
X94640377Y-96440222D01*
X94700562Y-96405475D01*
X94770475Y-96335562D01*
X94812620Y-96262565D01*
X94819908Y-96249942D01*
X94819908Y-96249940D01*
X94819910Y-96249938D01*
X94845500Y-96154435D01*
X94845500Y-96055565D01*
X94819910Y-95960062D01*
X94770475Y-95874438D01*
X94752702Y-95856665D01*
X106471800Y-95856665D01*
X106471800Y-95955535D01*
X106494367Y-96039757D01*
X106497391Y-96051042D01*
X106528003Y-96104062D01*
X106546825Y-96136662D01*
X106616738Y-96206575D01*
X106616740Y-96206576D01*
X106702358Y-96256008D01*
X106702356Y-96256008D01*
X106702360Y-96256009D01*
X106702362Y-96256010D01*
X106797865Y-96281600D01*
X106797867Y-96281600D01*
X106896733Y-96281600D01*
X106896735Y-96281600D01*
X106992238Y-96256010D01*
X106992240Y-96256008D01*
X106992242Y-96256008D01*
X107017677Y-96241322D01*
X107077862Y-96206575D01*
X107147775Y-96136662D01*
X107194596Y-96055566D01*
X107197208Y-96051042D01*
X107197208Y-96051041D01*
X107197210Y-96051038D01*
X107215504Y-95982765D01*
X111598700Y-95982765D01*
X111598700Y-96081635D01*
X111618206Y-96154433D01*
X111624291Y-96177142D01*
X111673611Y-96262565D01*
X111673725Y-96262762D01*
X111743638Y-96332675D01*
X111764364Y-96344641D01*
X111829258Y-96382108D01*
X111829256Y-96382108D01*
X111829260Y-96382109D01*
X111829262Y-96382110D01*
X111924765Y-96407700D01*
X111924767Y-96407700D01*
X112023633Y-96407700D01*
X112023635Y-96407700D01*
X112119138Y-96382110D01*
X112119140Y-96382108D01*
X112119142Y-96382108D01*
X112144577Y-96367422D01*
X112204762Y-96332675D01*
X112274675Y-96262762D01*
X112311162Y-96199565D01*
X113015300Y-96199565D01*
X113015300Y-96298435D01*
X113025248Y-96335562D01*
X113040891Y-96393942D01*
X113081748Y-96464707D01*
X113090325Y-96479562D01*
X113160238Y-96549475D01*
X113184844Y-96563681D01*
X113245858Y-96598908D01*
X113245856Y-96598908D01*
X113245860Y-96598909D01*
X113245862Y-96598910D01*
X113341365Y-96624500D01*
X113341367Y-96624500D01*
X113440233Y-96624500D01*
X113440235Y-96624500D01*
X113535738Y-96598910D01*
X113535740Y-96598908D01*
X113535742Y-96598908D01*
X113574517Y-96576521D01*
X113621362Y-96549475D01*
X113691275Y-96479562D01*
X113732308Y-96408491D01*
X113740708Y-96393942D01*
X113740708Y-96393940D01*
X113740710Y-96393938D01*
X113766300Y-96298435D01*
X113766300Y-96199565D01*
X113740710Y-96104062D01*
X113740708Y-96104059D01*
X113740708Y-96104057D01*
X113691276Y-96018440D01*
X113691275Y-96018438D01*
X113621362Y-95948525D01*
X113621359Y-95948523D01*
X113535741Y-95899091D01*
X113535743Y-95899091D01*
X113491595Y-95887262D01*
X113440235Y-95873500D01*
X113341365Y-95873500D01*
X113290005Y-95887262D01*
X113245857Y-95899091D01*
X113160240Y-95948523D01*
X113090323Y-96018440D01*
X113040891Y-96104057D01*
X113040890Y-96104062D01*
X113015300Y-96199565D01*
X112311162Y-96199565D01*
X112324110Y-96177138D01*
X112349700Y-96081635D01*
X112349700Y-95982765D01*
X112324110Y-95887262D01*
X112324108Y-95887259D01*
X112324108Y-95887257D01*
X112274676Y-95801640D01*
X112274675Y-95801638D01*
X112204762Y-95731725D01*
X112204759Y-95731723D01*
X112119141Y-95682291D01*
X112119143Y-95682291D01*
X112073924Y-95670175D01*
X112023635Y-95656700D01*
X111924765Y-95656700D01*
X111874476Y-95670175D01*
X111829257Y-95682291D01*
X111743640Y-95731723D01*
X111673723Y-95801640D01*
X111624291Y-95887257D01*
X111615502Y-95920059D01*
X111598700Y-95982765D01*
X107215504Y-95982765D01*
X107222800Y-95955535D01*
X107222800Y-95856665D01*
X107202185Y-95779729D01*
X107205386Y-95718628D01*
X107243891Y-95671078D01*
X107302992Y-95655242D01*
X107347311Y-95668370D01*
X107436058Y-95719608D01*
X107436056Y-95719608D01*
X107436060Y-95719609D01*
X107436062Y-95719610D01*
X107531565Y-95745200D01*
X107531567Y-95745200D01*
X107630433Y-95745200D01*
X107630435Y-95745200D01*
X107725938Y-95719610D01*
X107725940Y-95719608D01*
X107725942Y-95719608D01*
X107790576Y-95682291D01*
X107811562Y-95670175D01*
X107881475Y-95600262D01*
X107930910Y-95514638D01*
X107956500Y-95419135D01*
X107956500Y-95320265D01*
X107930910Y-95224762D01*
X107930908Y-95224759D01*
X107930908Y-95224757D01*
X107881476Y-95139140D01*
X107881475Y-95139138D01*
X107811562Y-95069225D01*
X107811559Y-95069223D01*
X107725941Y-95019791D01*
X107725943Y-95019791D01*
X107688885Y-95009861D01*
X107630435Y-94994200D01*
X107531565Y-94994200D01*
X107473114Y-95009861D01*
X107436057Y-95019791D01*
X107350440Y-95069223D01*
X107280523Y-95139140D01*
X107231091Y-95224757D01*
X107231090Y-95224762D01*
X107205500Y-95320265D01*
X107205500Y-95419135D01*
X107226115Y-95496070D01*
X107222912Y-95557172D01*
X107184407Y-95604721D01*
X107125307Y-95620557D01*
X107080988Y-95607430D01*
X107077858Y-95605623D01*
X107057774Y-95594027D01*
X106992239Y-95556190D01*
X106960403Y-95547660D01*
X106896735Y-95530600D01*
X106797865Y-95530600D01*
X106739414Y-95546261D01*
X106702357Y-95556191D01*
X106616740Y-95605623D01*
X106546823Y-95675540D01*
X106497391Y-95761157D01*
X106488110Y-95795795D01*
X106471800Y-95856665D01*
X94752702Y-95856665D01*
X94700562Y-95804525D01*
X94700559Y-95804523D01*
X94614941Y-95755091D01*
X94614943Y-95755091D01*
X94577885Y-95745161D01*
X94519435Y-95729500D01*
X94420565Y-95729500D01*
X94362114Y-95745161D01*
X94325057Y-95755091D01*
X94239440Y-95804523D01*
X94169523Y-95874440D01*
X94120091Y-95960057D01*
X94120090Y-95960062D01*
X94094500Y-96055565D01*
X89981071Y-96055565D01*
X89994642Y-96035255D01*
X90004610Y-96011191D01*
X90004610Y-96011190D01*
X90051177Y-95898767D01*
X90064857Y-95830000D01*
X89589819Y-95830000D01*
X89609567Y-95795795D01*
X89630011Y-95719496D01*
X89630011Y-95640504D01*
X89609567Y-95564205D01*
X89589819Y-95530000D01*
X90064857Y-95530000D01*
X90051177Y-95461232D01*
X89994641Y-95324742D01*
X89912565Y-95201906D01*
X89808093Y-95097434D01*
X89685257Y-95015358D01*
X89548770Y-94958823D01*
X89548764Y-94958821D01*
X89403871Y-94930000D01*
X88930001Y-94930000D01*
X88930000Y-94930001D01*
X88930000Y-95380001D01*
X88630000Y-95380001D01*
X88630000Y-94930001D01*
X88629999Y-94930000D01*
X88156128Y-94930000D01*
X88011235Y-94958821D01*
X88011229Y-94958823D01*
X87874742Y-95015358D01*
X87751906Y-95097434D01*
X87647434Y-95201906D01*
X87565358Y-95324742D01*
X87508822Y-95461232D01*
X87495143Y-95530000D01*
X85734857Y-95530000D01*
X85721177Y-95461232D01*
X85664641Y-95324742D01*
X85582565Y-95201906D01*
X85478093Y-95097434D01*
X85355257Y-95015358D01*
X85218770Y-94958823D01*
X85218764Y-94958821D01*
X85073871Y-94930000D01*
X84750001Y-94930000D01*
X84750000Y-94930001D01*
X84750000Y-95380001D01*
X84450000Y-95380001D01*
X84450000Y-94930001D01*
X84449999Y-94930000D01*
X84126128Y-94930000D01*
X83981235Y-94958821D01*
X83981229Y-94958823D01*
X83844742Y-95015358D01*
X83721906Y-95097434D01*
X83617434Y-95201906D01*
X83535358Y-95324742D01*
X83478822Y-95461232D01*
X83465143Y-95530000D01*
X82350000Y-95530000D01*
X82350000Y-94020565D01*
X95884800Y-94020565D01*
X95884800Y-94119435D01*
X95900878Y-94179438D01*
X95910391Y-94214942D01*
X95959823Y-94300559D01*
X95959825Y-94300562D01*
X96029738Y-94370475D01*
X96029740Y-94370476D01*
X96115358Y-94419908D01*
X96115356Y-94419908D01*
X96115360Y-94419909D01*
X96115362Y-94419910D01*
X96210865Y-94445500D01*
X96210867Y-94445500D01*
X96309733Y-94445500D01*
X96309735Y-94445500D01*
X96405238Y-94419910D01*
X96405240Y-94419908D01*
X96405242Y-94419908D01*
X96430677Y-94405222D01*
X96490862Y-94370475D01*
X96560775Y-94300562D01*
X96610210Y-94214938D01*
X96635800Y-94119435D01*
X96635800Y-94020565D01*
X98954500Y-94020565D01*
X98954500Y-94119435D01*
X98970578Y-94179438D01*
X98980091Y-94214942D01*
X99029523Y-94300559D01*
X99029525Y-94300562D01*
X99099438Y-94370475D01*
X99099440Y-94370476D01*
X99185058Y-94419908D01*
X99185056Y-94419908D01*
X99185060Y-94419909D01*
X99185062Y-94419910D01*
X99280565Y-94445500D01*
X99280567Y-94445500D01*
X99379433Y-94445500D01*
X99379435Y-94445500D01*
X99474938Y-94419910D01*
X99474940Y-94419908D01*
X99474942Y-94419908D01*
X99500377Y-94405222D01*
X99560562Y-94370475D01*
X99584998Y-94346038D01*
X99639513Y-94318263D01*
X99699945Y-94327834D01*
X99725000Y-94346037D01*
X99749438Y-94370475D01*
X99749440Y-94370476D01*
X99835058Y-94419908D01*
X99835056Y-94419908D01*
X99835060Y-94419909D01*
X99835062Y-94419910D01*
X99930565Y-94445500D01*
X99930567Y-94445500D01*
X100029433Y-94445500D01*
X100029435Y-94445500D01*
X100124938Y-94419910D01*
X100124940Y-94419908D01*
X100124942Y-94419908D01*
X100150377Y-94405222D01*
X100210562Y-94370475D01*
X100220472Y-94360565D01*
X104474500Y-94360565D01*
X104474500Y-94459435D01*
X104497067Y-94543657D01*
X104500091Y-94554942D01*
X104549523Y-94640559D01*
X104549525Y-94640562D01*
X104619438Y-94710475D01*
X104619440Y-94710476D01*
X104705058Y-94759908D01*
X104705056Y-94759908D01*
X104705060Y-94759909D01*
X104705062Y-94759910D01*
X104800565Y-94785500D01*
X104800567Y-94785500D01*
X104899433Y-94785500D01*
X104899435Y-94785500D01*
X104994938Y-94759910D01*
X104994940Y-94759908D01*
X104994942Y-94759908D01*
X105020377Y-94745222D01*
X105080562Y-94710475D01*
X105150475Y-94640562D01*
X105199910Y-94554938D01*
X105225500Y-94459435D01*
X105225500Y-94360565D01*
X105199910Y-94265062D01*
X105199908Y-94265059D01*
X105199908Y-94265057D01*
X105150476Y-94179440D01*
X105150475Y-94179438D01*
X105080562Y-94109525D01*
X105080559Y-94109523D01*
X104994941Y-94060091D01*
X104994943Y-94060091D01*
X104957885Y-94050161D01*
X104899435Y-94034500D01*
X104800565Y-94034500D01*
X104742114Y-94050161D01*
X104705057Y-94060091D01*
X104619440Y-94109523D01*
X104549523Y-94179440D01*
X104500091Y-94265057D01*
X104490578Y-94300562D01*
X104474500Y-94360565D01*
X100220472Y-94360565D01*
X100280475Y-94300562D01*
X100329910Y-94214938D01*
X100355500Y-94119435D01*
X100355500Y-94020565D01*
X100329910Y-93925062D01*
X100329908Y-93925059D01*
X100329908Y-93925057D01*
X100280476Y-93839440D01*
X100280475Y-93839438D01*
X100210562Y-93769525D01*
X100210559Y-93769523D01*
X100124941Y-93720091D01*
X100124943Y-93720091D01*
X100087885Y-93710161D01*
X100029435Y-93694500D01*
X99930565Y-93694500D01*
X99872114Y-93710161D01*
X99835057Y-93720091D01*
X99749440Y-93769523D01*
X99749438Y-93769524D01*
X99749438Y-93769525D01*
X99725001Y-93793961D01*
X99670487Y-93821737D01*
X99610055Y-93812166D01*
X99584999Y-93793962D01*
X99560562Y-93769525D01*
X99560559Y-93769523D01*
X99474941Y-93720091D01*
X99474943Y-93720091D01*
X99437885Y-93710161D01*
X99379435Y-93694500D01*
X99280565Y-93694500D01*
X99222114Y-93710161D01*
X99185057Y-93720091D01*
X99099440Y-93769523D01*
X99029523Y-93839440D01*
X98980091Y-93925057D01*
X98980090Y-93925062D01*
X98954500Y-94020565D01*
X96635800Y-94020565D01*
X96610210Y-93925062D01*
X96610208Y-93925059D01*
X96610208Y-93925057D01*
X96560776Y-93839440D01*
X96560775Y-93839438D01*
X96490862Y-93769525D01*
X96490859Y-93769523D01*
X96405241Y-93720091D01*
X96405243Y-93720091D01*
X96368185Y-93710161D01*
X96309735Y-93694500D01*
X96210865Y-93694500D01*
X96152414Y-93710161D01*
X96115357Y-93720091D01*
X96029740Y-93769523D01*
X95959823Y-93839440D01*
X95910391Y-93925057D01*
X95910390Y-93925062D01*
X95884800Y-94020565D01*
X82350000Y-94020565D01*
X82350000Y-93476365D01*
X106722600Y-93476365D01*
X106722600Y-93575235D01*
X106745167Y-93659457D01*
X106748191Y-93670742D01*
X106797623Y-93756359D01*
X106797625Y-93756362D01*
X106867538Y-93826275D01*
X106896079Y-93842753D01*
X106953158Y-93875708D01*
X106953156Y-93875708D01*
X106953160Y-93875709D01*
X106953162Y-93875710D01*
X107048665Y-93901300D01*
X107048667Y-93901300D01*
X107147533Y-93901300D01*
X107147535Y-93901300D01*
X107243038Y-93875710D01*
X107243040Y-93875708D01*
X107243042Y-93875708D01*
X107268477Y-93861022D01*
X107328662Y-93826275D01*
X107398575Y-93756362D01*
X107448010Y-93670738D01*
X107473600Y-93575235D01*
X107473600Y-93476365D01*
X107448010Y-93380862D01*
X107448008Y-93380859D01*
X107448008Y-93380857D01*
X107398576Y-93295240D01*
X107398575Y-93295238D01*
X107328662Y-93225325D01*
X107328659Y-93225323D01*
X107243041Y-93175891D01*
X107243043Y-93175891D01*
X107205985Y-93165961D01*
X107147535Y-93150300D01*
X107048665Y-93150300D01*
X106990214Y-93165961D01*
X106953157Y-93175891D01*
X106867540Y-93225323D01*
X106797623Y-93295240D01*
X106748191Y-93380857D01*
X106748190Y-93380862D01*
X106722600Y-93476365D01*
X82350000Y-93476365D01*
X82350000Y-92650565D01*
X87558200Y-92650565D01*
X87558200Y-92749435D01*
X87580767Y-92833657D01*
X87583791Y-92844942D01*
X87633223Y-92930559D01*
X87633225Y-92930562D01*
X87703138Y-93000475D01*
X87703140Y-93000476D01*
X87788758Y-93049908D01*
X87788756Y-93049908D01*
X87788760Y-93049909D01*
X87788762Y-93049910D01*
X87884265Y-93075500D01*
X87884267Y-93075500D01*
X87983133Y-93075500D01*
X87983135Y-93075500D01*
X88078638Y-93049910D01*
X88078640Y-93049908D01*
X88078642Y-93049908D01*
X88104077Y-93035222D01*
X88164262Y-93000475D01*
X88234175Y-92930562D01*
X88283610Y-92844938D01*
X88309200Y-92749435D01*
X88309200Y-92650565D01*
X88283610Y-92555062D01*
X88283608Y-92555059D01*
X88283608Y-92555057D01*
X88234176Y-92469440D01*
X88234175Y-92469438D01*
X88164262Y-92399525D01*
X88164259Y-92399523D01*
X88078641Y-92350091D01*
X88078643Y-92350091D01*
X88041585Y-92340161D01*
X87983135Y-92324500D01*
X87884265Y-92324500D01*
X87825814Y-92340161D01*
X87788757Y-92350091D01*
X87703140Y-92399523D01*
X87633223Y-92469440D01*
X87583791Y-92555057D01*
X87583790Y-92555062D01*
X87558200Y-92650565D01*
X82350000Y-92650565D01*
X82350000Y-91036465D01*
X86649300Y-91036465D01*
X86649300Y-91135335D01*
X86663106Y-91186859D01*
X86674891Y-91230842D01*
X86718405Y-91306209D01*
X86724325Y-91316462D01*
X86794238Y-91386375D01*
X86794240Y-91386376D01*
X86879858Y-91435808D01*
X86879856Y-91435808D01*
X86879860Y-91435809D01*
X86879862Y-91435810D01*
X86975365Y-91461400D01*
X86975367Y-91461400D01*
X87074233Y-91461400D01*
X87074235Y-91461400D01*
X87169738Y-91435810D01*
X87169740Y-91435808D01*
X87169742Y-91435808D01*
X87212535Y-91411101D01*
X87255362Y-91386375D01*
X87325275Y-91316462D01*
X87360022Y-91256277D01*
X87374708Y-91230842D01*
X87374708Y-91230840D01*
X87374710Y-91230838D01*
X87398229Y-91143065D01*
X92063600Y-91143065D01*
X92063600Y-91241935D01*
X92086167Y-91326157D01*
X92089191Y-91337442D01*
X92122750Y-91395566D01*
X92138625Y-91423062D01*
X92208538Y-91492975D01*
X92211067Y-91494435D01*
X92294158Y-91542408D01*
X92294156Y-91542408D01*
X92294160Y-91542409D01*
X92294162Y-91542410D01*
X92389665Y-91568000D01*
X92389667Y-91568000D01*
X92488533Y-91568000D01*
X92488535Y-91568000D01*
X92584038Y-91542410D01*
X92584040Y-91542408D01*
X92584042Y-91542408D01*
X92609477Y-91527722D01*
X92669662Y-91492975D01*
X92739575Y-91423062D01*
X92755450Y-91395565D01*
X111619500Y-91395565D01*
X111619500Y-91494435D01*
X111632355Y-91542410D01*
X111645091Y-91589942D01*
X111694523Y-91675559D01*
X111694525Y-91675562D01*
X111764438Y-91745475D01*
X111764440Y-91745476D01*
X111850058Y-91794908D01*
X111850056Y-91794908D01*
X111850060Y-91794909D01*
X111850062Y-91794910D01*
X111945565Y-91820500D01*
X111945567Y-91820500D01*
X112044433Y-91820500D01*
X112044435Y-91820500D01*
X112139938Y-91794910D01*
X112139940Y-91794908D01*
X112139942Y-91794908D01*
X112165377Y-91780222D01*
X112225562Y-91745475D01*
X112295475Y-91675562D01*
X112315608Y-91640691D01*
X113449500Y-91640691D01*
X113449500Y-91759309D01*
X113465896Y-91820500D01*
X113480202Y-91873890D01*
X113539507Y-91976608D01*
X113539509Y-91976610D01*
X113539511Y-91976613D01*
X113623387Y-92060489D01*
X113623389Y-92060490D01*
X113623391Y-92060492D01*
X113726110Y-92119797D01*
X113726111Y-92119797D01*
X113726114Y-92119799D01*
X113840691Y-92150500D01*
X113840693Y-92150500D01*
X113959307Y-92150500D01*
X113959309Y-92150500D01*
X114073886Y-92119799D01*
X114073888Y-92119797D01*
X114073890Y-92119797D01*
X114176608Y-92060492D01*
X114176608Y-92060491D01*
X114176613Y-92060489D01*
X114229998Y-92007103D01*
X114284513Y-91979328D01*
X114344945Y-91988899D01*
X114370000Y-92007102D01*
X114423387Y-92060489D01*
X114423389Y-92060490D01*
X114423391Y-92060492D01*
X114526110Y-92119797D01*
X114526111Y-92119797D01*
X114526114Y-92119799D01*
X114640691Y-92150500D01*
X114640693Y-92150500D01*
X114759307Y-92150500D01*
X114759309Y-92150500D01*
X114873886Y-92119799D01*
X114873888Y-92119797D01*
X114873890Y-92119797D01*
X114976608Y-92060492D01*
X114976608Y-92060491D01*
X114976613Y-92060489D01*
X115060489Y-91976613D01*
X115060492Y-91976608D01*
X115119797Y-91873890D01*
X115119797Y-91873888D01*
X115119799Y-91873886D01*
X115150500Y-91759309D01*
X115150500Y-91640691D01*
X115119799Y-91526114D01*
X115119797Y-91526111D01*
X115119797Y-91526109D01*
X115060492Y-91423391D01*
X115060490Y-91423389D01*
X115060489Y-91423387D01*
X114976613Y-91339511D01*
X114976610Y-91339509D01*
X114976608Y-91339507D01*
X114873889Y-91280202D01*
X114873890Y-91280202D01*
X114860351Y-91276574D01*
X114759309Y-91249500D01*
X114640691Y-91249500D01*
X114570567Y-91268289D01*
X114526109Y-91280202D01*
X114423391Y-91339507D01*
X114423390Y-91339508D01*
X114423387Y-91339510D01*
X114423387Y-91339511D01*
X114370001Y-91392896D01*
X114315487Y-91420672D01*
X114255055Y-91411101D01*
X114229999Y-91392897D01*
X114176613Y-91339511D01*
X114176610Y-91339509D01*
X114176608Y-91339507D01*
X114073889Y-91280202D01*
X114073890Y-91280202D01*
X114060351Y-91276574D01*
X113959309Y-91249500D01*
X113840691Y-91249500D01*
X113770567Y-91268289D01*
X113726109Y-91280202D01*
X113623391Y-91339507D01*
X113539507Y-91423391D01*
X113480202Y-91526109D01*
X113463099Y-91589938D01*
X113449500Y-91640691D01*
X112315608Y-91640691D01*
X112344910Y-91589938D01*
X112370500Y-91494435D01*
X112370500Y-91395565D01*
X112344910Y-91300062D01*
X112344908Y-91300059D01*
X112344908Y-91300057D01*
X112295476Y-91214440D01*
X112295475Y-91214438D01*
X112225562Y-91144525D01*
X112223035Y-91143066D01*
X112139941Y-91095091D01*
X112139943Y-91095091D01*
X112102885Y-91085161D01*
X112044435Y-91069500D01*
X111945565Y-91069500D01*
X111887114Y-91085161D01*
X111850057Y-91095091D01*
X111764440Y-91144523D01*
X111694523Y-91214440D01*
X111645091Y-91300057D01*
X111636586Y-91331800D01*
X111619500Y-91395565D01*
X92755450Y-91395565D01*
X92787815Y-91339508D01*
X92789008Y-91337442D01*
X92789008Y-91337440D01*
X92789010Y-91337438D01*
X92814600Y-91241935D01*
X92814600Y-91143065D01*
X92789010Y-91047562D01*
X92789008Y-91047559D01*
X92789008Y-91047557D01*
X92739576Y-90961940D01*
X92739575Y-90961938D01*
X92669662Y-90892025D01*
X92669659Y-90892023D01*
X92584041Y-90842591D01*
X92584043Y-90842591D01*
X92546985Y-90832661D01*
X92488535Y-90817000D01*
X92389665Y-90817000D01*
X92331214Y-90832661D01*
X92294157Y-90842591D01*
X92208540Y-90892023D01*
X92138623Y-90961940D01*
X92089191Y-91047557D01*
X92089190Y-91047562D01*
X92063600Y-91143065D01*
X87398229Y-91143065D01*
X87400300Y-91135335D01*
X87400300Y-91036465D01*
X87374710Y-90940962D01*
X87374708Y-90940959D01*
X87374708Y-90940957D01*
X87325276Y-90855340D01*
X87325275Y-90855338D01*
X87255362Y-90785425D01*
X87255359Y-90785423D01*
X87169741Y-90735991D01*
X87169743Y-90735991D01*
X87131477Y-90725738D01*
X87074235Y-90710400D01*
X86975365Y-90710400D01*
X86918123Y-90725738D01*
X86879857Y-90735991D01*
X86794240Y-90785423D01*
X86724323Y-90855340D01*
X86674891Y-90940957D01*
X86674890Y-90940962D01*
X86649300Y-91036465D01*
X82350000Y-91036465D01*
X82350000Y-90450565D01*
X89624500Y-90450565D01*
X89624500Y-90549435D01*
X89640015Y-90607336D01*
X89650091Y-90644942D01*
X89687884Y-90710400D01*
X89699525Y-90730562D01*
X89769438Y-90800475D01*
X89769440Y-90800476D01*
X89855058Y-90849908D01*
X89855056Y-90849908D01*
X89855060Y-90849909D01*
X89855062Y-90849910D01*
X89950565Y-90875500D01*
X89950567Y-90875500D01*
X90049433Y-90875500D01*
X90049435Y-90875500D01*
X90144938Y-90849910D01*
X90144940Y-90849908D01*
X90144942Y-90849908D01*
X90170377Y-90835222D01*
X90230562Y-90800475D01*
X90300475Y-90730562D01*
X90335222Y-90670377D01*
X90349908Y-90644942D01*
X90349908Y-90644940D01*
X90349910Y-90644938D01*
X90375500Y-90549435D01*
X90375500Y-90450565D01*
X90349910Y-90355062D01*
X90349908Y-90355059D01*
X90349908Y-90355057D01*
X90300476Y-90269440D01*
X90300475Y-90269438D01*
X90230562Y-90199525D01*
X90214889Y-90190476D01*
X90144941Y-90150091D01*
X90144943Y-90150091D01*
X90107885Y-90140161D01*
X90049435Y-90124500D01*
X89950565Y-90124500D01*
X89892114Y-90140161D01*
X89855057Y-90150091D01*
X89769440Y-90199523D01*
X89699523Y-90269440D01*
X89650091Y-90355057D01*
X89639405Y-90394938D01*
X89624500Y-90450565D01*
X82350000Y-90450565D01*
X82350000Y-89650565D01*
X82824500Y-89650565D01*
X82824500Y-89749435D01*
X82826674Y-89757548D01*
X82850091Y-89844942D01*
X82889697Y-89913540D01*
X82899525Y-89930562D01*
X82969438Y-90000475D01*
X82969440Y-90000476D01*
X83055058Y-90049908D01*
X83055056Y-90049908D01*
X83055060Y-90049909D01*
X83055062Y-90049910D01*
X83150565Y-90075500D01*
X83150567Y-90075500D01*
X83249433Y-90075500D01*
X83249435Y-90075500D01*
X83344938Y-90049910D01*
X83344940Y-90049908D01*
X83344942Y-90049908D01*
X83385643Y-90026409D01*
X83430562Y-90000475D01*
X83500475Y-89930562D01*
X83549910Y-89844938D01*
X83575500Y-89749435D01*
X83575500Y-89650565D01*
X83549910Y-89555062D01*
X83549908Y-89555059D01*
X83549908Y-89555057D01*
X83500476Y-89469440D01*
X83500475Y-89469438D01*
X83430562Y-89399525D01*
X83430559Y-89399523D01*
X83344941Y-89350091D01*
X83344943Y-89350091D01*
X83307885Y-89340161D01*
X83249435Y-89324500D01*
X83150565Y-89324500D01*
X83092114Y-89340161D01*
X83055057Y-89350091D01*
X82969440Y-89399523D01*
X82899523Y-89469440D01*
X82850091Y-89555057D01*
X82850090Y-89555062D01*
X82824500Y-89650565D01*
X82350000Y-89650565D01*
X82350000Y-84892538D01*
X82368907Y-84834347D01*
X82418407Y-84798383D01*
X82479593Y-84798383D01*
X82497533Y-84806251D01*
X82627422Y-84879313D01*
X82636515Y-84885103D01*
X82778529Y-84986830D01*
X82786957Y-84993593D01*
X82919028Y-85111977D01*
X82922951Y-85115691D01*
X82954708Y-85147447D01*
X82954710Y-85147448D01*
X84224143Y-86416881D01*
X84251920Y-86471398D01*
X84248876Y-86515622D01*
X84209565Y-86645216D01*
X84209563Y-86645224D01*
X84150000Y-87249997D01*
X84150000Y-87250003D01*
X84209563Y-87854774D01*
X84209564Y-87854779D01*
X84385973Y-88436318D01*
X84385975Y-88436323D01*
X84672441Y-88972264D01*
X84932163Y-89288737D01*
X85057968Y-89442031D01*
X85057973Y-89442035D01*
X85527734Y-89827557D01*
X86063675Y-90114023D01*
X86063681Y-90114026D01*
X86468811Y-90236920D01*
X86645219Y-90290434D01*
X86645224Y-90290435D01*
X87249997Y-90350000D01*
X87250000Y-90350000D01*
X87250003Y-90350000D01*
X87295154Y-90345553D01*
X87854774Y-90290435D01*
X87854779Y-90290434D01*
X88436318Y-90114026D01*
X88695482Y-89975500D01*
X88947928Y-89840565D01*
X92639500Y-89840565D01*
X92639500Y-89939435D01*
X92642204Y-89949525D01*
X92665091Y-90034942D01*
X92710751Y-90114025D01*
X92714525Y-90120562D01*
X92784438Y-90190475D01*
X92801916Y-90200566D01*
X92870058Y-90239908D01*
X92870056Y-90239908D01*
X92870060Y-90239909D01*
X92870062Y-90239910D01*
X92965565Y-90265500D01*
X92965567Y-90265500D01*
X93064433Y-90265500D01*
X93064435Y-90265500D01*
X93159938Y-90239910D01*
X93159940Y-90239908D01*
X93159942Y-90239908D01*
X93185377Y-90225222D01*
X93245562Y-90190475D01*
X93315475Y-90120562D01*
X93364910Y-90034938D01*
X93372727Y-90005765D01*
X102409500Y-90005765D01*
X102409500Y-90104635D01*
X102413767Y-90120559D01*
X102435091Y-90200142D01*
X102484523Y-90285759D01*
X102484525Y-90285762D01*
X102554438Y-90355675D01*
X102554440Y-90355676D01*
X102640058Y-90405108D01*
X102640056Y-90405108D01*
X102640060Y-90405109D01*
X102640062Y-90405110D01*
X102735565Y-90430700D01*
X102735567Y-90430700D01*
X102834433Y-90430700D01*
X102834435Y-90430700D01*
X102929938Y-90405110D01*
X102987470Y-90371893D01*
X103047316Y-90359172D01*
X103103212Y-90384058D01*
X103122705Y-90408129D01*
X103148424Y-90452674D01*
X103161146Y-90512522D01*
X103136260Y-90568418D01*
X103088313Y-90597801D01*
X103056261Y-90606390D01*
X103056258Y-90606391D01*
X102970640Y-90655823D01*
X102900723Y-90725740D01*
X102851291Y-90811357D01*
X102851290Y-90811362D01*
X102825700Y-90906865D01*
X102825700Y-91005735D01*
X102836906Y-91047557D01*
X102851291Y-91101242D01*
X102900723Y-91186859D01*
X102900725Y-91186862D01*
X102970638Y-91256775D01*
X102970640Y-91256776D01*
X103056258Y-91306208D01*
X103056256Y-91306208D01*
X103056260Y-91306209D01*
X103056262Y-91306210D01*
X103151765Y-91331800D01*
X103151767Y-91331800D01*
X103250633Y-91331800D01*
X103250635Y-91331800D01*
X103346138Y-91306210D01*
X103431762Y-91256775D01*
X103501675Y-91186862D01*
X103551110Y-91101238D01*
X103576700Y-91005735D01*
X103576700Y-90906865D01*
X103551110Y-90811362D01*
X103517774Y-90753623D01*
X103505053Y-90693777D01*
X103529939Y-90637881D01*
X103577887Y-90608497D01*
X103609938Y-90599910D01*
X103695562Y-90550475D01*
X103765475Y-90480562D01*
X103809037Y-90405110D01*
X103814908Y-90394942D01*
X103814908Y-90394940D01*
X103814910Y-90394938D01*
X103840500Y-90299435D01*
X103840500Y-90200565D01*
X103814910Y-90105062D01*
X103814908Y-90105059D01*
X103814908Y-90105057D01*
X103765476Y-90019440D01*
X103765475Y-90019438D01*
X103695562Y-89949525D01*
X103690328Y-89946503D01*
X103609941Y-89900091D01*
X103609943Y-89900091D01*
X103572885Y-89890161D01*
X103514435Y-89874500D01*
X103415565Y-89874500D01*
X103367813Y-89887295D01*
X103320060Y-89900090D01*
X103262530Y-89933306D01*
X103202681Y-89946027D01*
X103146786Y-89921140D01*
X103127294Y-89897070D01*
X103110212Y-89867484D01*
X103085475Y-89824638D01*
X103015562Y-89754725D01*
X103015559Y-89754723D01*
X102929941Y-89705291D01*
X102929943Y-89705291D01*
X102892885Y-89695361D01*
X102834435Y-89679700D01*
X102735565Y-89679700D01*
X102677114Y-89695361D01*
X102640057Y-89705291D01*
X102554440Y-89754723D01*
X102484523Y-89824640D01*
X102435091Y-89910257D01*
X102427273Y-89939435D01*
X102409500Y-90005765D01*
X93372727Y-90005765D01*
X93390500Y-89939435D01*
X93390500Y-89840565D01*
X93364910Y-89745062D01*
X93364908Y-89745059D01*
X93364908Y-89745057D01*
X93315476Y-89659440D01*
X93315475Y-89659438D01*
X93245562Y-89589525D01*
X93245559Y-89589523D01*
X93217337Y-89573229D01*
X93217336Y-89573229D01*
X93159940Y-89540091D01*
X93159939Y-89540090D01*
X93159938Y-89540090D01*
X93064435Y-89514500D01*
X92965565Y-89514500D01*
X92907114Y-89530161D01*
X92870057Y-89540091D01*
X92784440Y-89589523D01*
X92714523Y-89659440D01*
X92665091Y-89745057D01*
X92663918Y-89749435D01*
X92639500Y-89840565D01*
X88947928Y-89840565D01*
X88972264Y-89827557D01*
X88972265Y-89827555D01*
X88972267Y-89827555D01*
X89378728Y-89493982D01*
X94824500Y-89493982D01*
X94824500Y-89606018D01*
X94844243Y-89679700D01*
X94853498Y-89714241D01*
X94909513Y-89811260D01*
X94909515Y-89811263D01*
X94988737Y-89890485D01*
X94988739Y-89890486D01*
X95085759Y-89946501D01*
X95085757Y-89946501D01*
X95085761Y-89946502D01*
X95085763Y-89946503D01*
X95193982Y-89975500D01*
X95193984Y-89975500D01*
X95306016Y-89975500D01*
X95306018Y-89975500D01*
X95414237Y-89946503D01*
X95511263Y-89890485D01*
X95590485Y-89811263D01*
X95646503Y-89714237D01*
X95675500Y-89606018D01*
X95675500Y-89493982D01*
X95646503Y-89385763D01*
X95646501Y-89385760D01*
X95646501Y-89385758D01*
X95590486Y-89288739D01*
X95590485Y-89288737D01*
X95511263Y-89209515D01*
X95511260Y-89209513D01*
X95414240Y-89153498D01*
X95414242Y-89153498D01*
X95372251Y-89142247D01*
X95306018Y-89124500D01*
X95193982Y-89124500D01*
X95127748Y-89142247D01*
X95085758Y-89153498D01*
X94988739Y-89209513D01*
X94909513Y-89288739D01*
X94853498Y-89385758D01*
X94838422Y-89442025D01*
X94824500Y-89493982D01*
X89378728Y-89493982D01*
X89442031Y-89442031D01*
X89827555Y-88972267D01*
X90114026Y-88436318D01*
X90161273Y-88280565D01*
X100254500Y-88280565D01*
X100254500Y-88379435D01*
X100263026Y-88411253D01*
X100280091Y-88474942D01*
X100329523Y-88560559D01*
X100329525Y-88560562D01*
X100399438Y-88630475D01*
X100399440Y-88630476D01*
X100485058Y-88679908D01*
X100485056Y-88679908D01*
X100485060Y-88679909D01*
X100485062Y-88679910D01*
X100580565Y-88705500D01*
X100580567Y-88705500D01*
X100679433Y-88705500D01*
X100679435Y-88705500D01*
X100774938Y-88679910D01*
X100774940Y-88679908D01*
X100774942Y-88679908D01*
X100800377Y-88665222D01*
X100860562Y-88630475D01*
X100930475Y-88560562D01*
X100979910Y-88474938D01*
X100988370Y-88443365D01*
X108226200Y-88443365D01*
X108226200Y-88542235D01*
X108231110Y-88560559D01*
X108251791Y-88637742D01*
X108290912Y-88705500D01*
X108301225Y-88723362D01*
X108371138Y-88793275D01*
X108371140Y-88793276D01*
X108456758Y-88842708D01*
X108456756Y-88842708D01*
X108456760Y-88842709D01*
X108456762Y-88842710D01*
X108552265Y-88868300D01*
X108552267Y-88868300D01*
X108651133Y-88868300D01*
X108651135Y-88868300D01*
X108746638Y-88842710D01*
X108746640Y-88842708D01*
X108746642Y-88842708D01*
X108772077Y-88828022D01*
X108832262Y-88793275D01*
X108902175Y-88723362D01*
X108951610Y-88637738D01*
X108977200Y-88542235D01*
X108977200Y-88443365D01*
X108951610Y-88347862D01*
X108951608Y-88347859D01*
X108951608Y-88347857D01*
X108902176Y-88262240D01*
X108902175Y-88262238D01*
X108832262Y-88192325D01*
X108832259Y-88192323D01*
X108746641Y-88142891D01*
X108746643Y-88142891D01*
X108709585Y-88132961D01*
X108651135Y-88117300D01*
X108552265Y-88117300D01*
X108493814Y-88132961D01*
X108456757Y-88142891D01*
X108371140Y-88192323D01*
X108301223Y-88262240D01*
X108251791Y-88347857D01*
X108243330Y-88379435D01*
X108226200Y-88443365D01*
X100988370Y-88443365D01*
X101005500Y-88379435D01*
X101005500Y-88280565D01*
X100979910Y-88185062D01*
X100979908Y-88185059D01*
X100979908Y-88185057D01*
X100930476Y-88099440D01*
X100930475Y-88099438D01*
X100860562Y-88029525D01*
X100860559Y-88029523D01*
X100774941Y-87980091D01*
X100774943Y-87980091D01*
X100720028Y-87965377D01*
X100679435Y-87954500D01*
X100580565Y-87954500D01*
X100539972Y-87965377D01*
X100485057Y-87980091D01*
X100399440Y-88029523D01*
X100329523Y-88099440D01*
X100280091Y-88185057D01*
X100280090Y-88185062D01*
X100254500Y-88280565D01*
X90161273Y-88280565D01*
X90290434Y-87854779D01*
X90290435Y-87854774D01*
X90304481Y-87712165D01*
X98412100Y-87712165D01*
X98412100Y-87811035D01*
X98422108Y-87848384D01*
X98437691Y-87906542D01*
X98483500Y-87985884D01*
X98487125Y-87992162D01*
X98557038Y-88062075D01*
X98557040Y-88062076D01*
X98642658Y-88111508D01*
X98642656Y-88111508D01*
X98642660Y-88111509D01*
X98642662Y-88111510D01*
X98738165Y-88137100D01*
X98738167Y-88137100D01*
X98837033Y-88137100D01*
X98837035Y-88137100D01*
X98932538Y-88111510D01*
X98932540Y-88111508D01*
X98932542Y-88111508D01*
X98957977Y-88096822D01*
X99018162Y-88062075D01*
X99088075Y-87992162D01*
X99091700Y-87985882D01*
X99137167Y-87944941D01*
X99198017Y-87938544D01*
X99247438Y-87965375D01*
X99253938Y-87971875D01*
X99253940Y-87971876D01*
X99339558Y-88021308D01*
X99339556Y-88021308D01*
X99339560Y-88021309D01*
X99339562Y-88021310D01*
X99435065Y-88046900D01*
X99435067Y-88046900D01*
X99533933Y-88046900D01*
X99533935Y-88046900D01*
X99629438Y-88021310D01*
X99629440Y-88021308D01*
X99629442Y-88021308D01*
X99654877Y-88006622D01*
X99715062Y-87971875D01*
X99784975Y-87901962D01*
X99834410Y-87816338D01*
X99860000Y-87720835D01*
X99860000Y-87621965D01*
X99834410Y-87526462D01*
X99834408Y-87526459D01*
X99834408Y-87526457D01*
X99825752Y-87511465D01*
X103951500Y-87511465D01*
X103951500Y-87610335D01*
X103954617Y-87621966D01*
X103977091Y-87705842D01*
X104026523Y-87791459D01*
X104026525Y-87791462D01*
X104096438Y-87861375D01*
X104096440Y-87861376D01*
X104182058Y-87910808D01*
X104182056Y-87910808D01*
X104182060Y-87910809D01*
X104182062Y-87910810D01*
X104277565Y-87936400D01*
X104277567Y-87936400D01*
X104376433Y-87936400D01*
X104376435Y-87936400D01*
X104471938Y-87910810D01*
X104471940Y-87910808D01*
X104471942Y-87910808D01*
X104497377Y-87896122D01*
X104557562Y-87861375D01*
X104627475Y-87791462D01*
X104662513Y-87730775D01*
X104676908Y-87705842D01*
X104676908Y-87705840D01*
X104676910Y-87705838D01*
X104702500Y-87610335D01*
X104702500Y-87511465D01*
X104676910Y-87415962D01*
X104676908Y-87415959D01*
X104676908Y-87415957D01*
X104656647Y-87380865D01*
X105543500Y-87380865D01*
X105543500Y-87479735D01*
X105557129Y-87530599D01*
X105569091Y-87575242D01*
X105596068Y-87621966D01*
X105618525Y-87660862D01*
X105688438Y-87730775D01*
X105688440Y-87730776D01*
X105774058Y-87780208D01*
X105774056Y-87780208D01*
X105774060Y-87780209D01*
X105774062Y-87780210D01*
X105869565Y-87805800D01*
X105869567Y-87805800D01*
X105968433Y-87805800D01*
X105968435Y-87805800D01*
X106063938Y-87780210D01*
X106063940Y-87780208D01*
X106063942Y-87780208D01*
X106089377Y-87765522D01*
X106149562Y-87730775D01*
X106219475Y-87660862D01*
X106268910Y-87575238D01*
X106294500Y-87479735D01*
X106294500Y-87380865D01*
X106268910Y-87285362D01*
X106268908Y-87285359D01*
X106268908Y-87285357D01*
X106219476Y-87199740D01*
X106219475Y-87199738D01*
X106149562Y-87129825D01*
X106149559Y-87129823D01*
X106063941Y-87080391D01*
X106063943Y-87080391D01*
X106026885Y-87070461D01*
X105968435Y-87054800D01*
X105869565Y-87054800D01*
X105811114Y-87070461D01*
X105774057Y-87080391D01*
X105688440Y-87129823D01*
X105618523Y-87199740D01*
X105569091Y-87285357D01*
X105559409Y-87321491D01*
X105543500Y-87380865D01*
X104656647Y-87380865D01*
X104627476Y-87330340D01*
X104627475Y-87330338D01*
X104557562Y-87260425D01*
X104539511Y-87250003D01*
X104471941Y-87210991D01*
X104471943Y-87210991D01*
X104434885Y-87201061D01*
X104376435Y-87185400D01*
X104277565Y-87185400D01*
X104219114Y-87201061D01*
X104182057Y-87210991D01*
X104096440Y-87260423D01*
X104026523Y-87330340D01*
X103977091Y-87415957D01*
X103977090Y-87415962D01*
X103951500Y-87511465D01*
X99825752Y-87511465D01*
X99784976Y-87440840D01*
X99784975Y-87440838D01*
X99715062Y-87370925D01*
X99715059Y-87370923D01*
X99629441Y-87321491D01*
X99629443Y-87321491D01*
X99592385Y-87311561D01*
X99533935Y-87295900D01*
X99435065Y-87295900D01*
X99376614Y-87311561D01*
X99339557Y-87321491D01*
X99253940Y-87370923D01*
X99184023Y-87440840D01*
X99180395Y-87447124D01*
X99134923Y-87488062D01*
X99074072Y-87494453D01*
X99024660Y-87467623D01*
X99018162Y-87461125D01*
X98993912Y-87447124D01*
X98932541Y-87411691D01*
X98932543Y-87411691D01*
X98875859Y-87396503D01*
X98837035Y-87386100D01*
X98738165Y-87386100D01*
X98699341Y-87396503D01*
X98642657Y-87411691D01*
X98557040Y-87461123D01*
X98487123Y-87531040D01*
X98437691Y-87616657D01*
X98425847Y-87660859D01*
X98412100Y-87712165D01*
X90304481Y-87712165D01*
X90306076Y-87695972D01*
X90350000Y-87250003D01*
X90350000Y-87249997D01*
X90330026Y-87047197D01*
X90329709Y-87043982D01*
X95324500Y-87043982D01*
X95324500Y-87156018D01*
X95332373Y-87185400D01*
X95353498Y-87264241D01*
X95397519Y-87340486D01*
X95409515Y-87361263D01*
X95488737Y-87440485D01*
X95489352Y-87440840D01*
X95585759Y-87496501D01*
X95585757Y-87496501D01*
X95585761Y-87496502D01*
X95585763Y-87496503D01*
X95693982Y-87525500D01*
X95693984Y-87525500D01*
X95806016Y-87525500D01*
X95806018Y-87525500D01*
X95914237Y-87496503D01*
X95914239Y-87496501D01*
X95914241Y-87496501D01*
X95975513Y-87461125D01*
X96011263Y-87440485D01*
X96090485Y-87361263D01*
X96129859Y-87293064D01*
X96146501Y-87264241D01*
X96146501Y-87264239D01*
X96146503Y-87264237D01*
X96175500Y-87156018D01*
X96175500Y-87043982D01*
X96153832Y-86963115D01*
X96153832Y-86963113D01*
X96148705Y-86943982D01*
X96824500Y-86943982D01*
X96824500Y-87056018D01*
X96850072Y-87151455D01*
X96853498Y-87164241D01*
X96903012Y-87250000D01*
X96909515Y-87261263D01*
X96988737Y-87340485D01*
X96988739Y-87340486D01*
X97085759Y-87396501D01*
X97085757Y-87396501D01*
X97085761Y-87396502D01*
X97085763Y-87396503D01*
X97193982Y-87425500D01*
X97193984Y-87425500D01*
X97306016Y-87425500D01*
X97306018Y-87425500D01*
X97414237Y-87396503D01*
X97414239Y-87396501D01*
X97414241Y-87396501D01*
X97475274Y-87361263D01*
X97511263Y-87340485D01*
X97590485Y-87261263D01*
X97646503Y-87164237D01*
X97675500Y-87056018D01*
X97675500Y-86943982D01*
X97646503Y-86835763D01*
X97646501Y-86835760D01*
X97646501Y-86835758D01*
X97590486Y-86738739D01*
X97590485Y-86738737D01*
X97511263Y-86659515D01*
X97511260Y-86659513D01*
X97417820Y-86605565D01*
X102694500Y-86605565D01*
X102694500Y-86704435D01*
X102703692Y-86738739D01*
X102720091Y-86799942D01*
X102769523Y-86885559D01*
X102769525Y-86885562D01*
X102839438Y-86955475D01*
X102852673Y-86963116D01*
X102925058Y-87004908D01*
X102925056Y-87004908D01*
X102925060Y-87004909D01*
X102925062Y-87004910D01*
X103020565Y-87030500D01*
X103020567Y-87030500D01*
X103119433Y-87030500D01*
X103119435Y-87030500D01*
X103214938Y-87004910D01*
X103214940Y-87004908D01*
X103214942Y-87004908D01*
X103240377Y-86990222D01*
X103300562Y-86955475D01*
X103370475Y-86885562D01*
X103419910Y-86799938D01*
X103445500Y-86704435D01*
X103445500Y-86605565D01*
X103419910Y-86510062D01*
X103419908Y-86510059D01*
X103419908Y-86510057D01*
X103370476Y-86424440D01*
X103370475Y-86424438D01*
X103300562Y-86354525D01*
X103300559Y-86354523D01*
X103214941Y-86305091D01*
X103214943Y-86305091D01*
X103177885Y-86295161D01*
X103119435Y-86279500D01*
X103020565Y-86279500D01*
X102962114Y-86295161D01*
X102925057Y-86305091D01*
X102839440Y-86354523D01*
X102769523Y-86424440D01*
X102720091Y-86510057D01*
X102720090Y-86510062D01*
X102694500Y-86605565D01*
X97417820Y-86605565D01*
X97414240Y-86603498D01*
X97414242Y-86603498D01*
X97372251Y-86592247D01*
X97306018Y-86574500D01*
X97193982Y-86574500D01*
X97127748Y-86592247D01*
X97085758Y-86603498D01*
X96988739Y-86659513D01*
X96909513Y-86738739D01*
X96853498Y-86835758D01*
X96840154Y-86885559D01*
X96824500Y-86943982D01*
X96148705Y-86943982D01*
X96146503Y-86935763D01*
X96146501Y-86935759D01*
X96090486Y-86838739D01*
X96090485Y-86838737D01*
X96011263Y-86759515D01*
X96011260Y-86759513D01*
X95914240Y-86703498D01*
X95914242Y-86703498D01*
X95872251Y-86692247D01*
X95806018Y-86674500D01*
X95693982Y-86674500D01*
X95627748Y-86692247D01*
X95585758Y-86703498D01*
X95488739Y-86759513D01*
X95409513Y-86838739D01*
X95353498Y-86935758D01*
X95346168Y-86963116D01*
X95324500Y-87043982D01*
X90329709Y-87043982D01*
X90290435Y-86645224D01*
X90290434Y-86645219D01*
X90221168Y-86416880D01*
X90114026Y-86063681D01*
X89997367Y-85845427D01*
X89827557Y-85527734D01*
X89442035Y-85057973D01*
X89442031Y-85057968D01*
X89355349Y-84986830D01*
X88972264Y-84672441D01*
X88436323Y-84385975D01*
X88436318Y-84385973D01*
X87854779Y-84209564D01*
X87854774Y-84209563D01*
X87250003Y-84150000D01*
X87249997Y-84150000D01*
X86645224Y-84209563D01*
X86645216Y-84209565D01*
X86515622Y-84248876D01*
X86454449Y-84247674D01*
X86416881Y-84224143D01*
X85343303Y-83150565D01*
X89624500Y-83150565D01*
X89624500Y-83249435D01*
X89639404Y-83305057D01*
X89650091Y-83344942D01*
X89693253Y-83419699D01*
X89699525Y-83430562D01*
X89769438Y-83500475D01*
X89769440Y-83500476D01*
X89855058Y-83549908D01*
X89855056Y-83549908D01*
X89855060Y-83549909D01*
X89855062Y-83549910D01*
X89950565Y-83575500D01*
X89950567Y-83575500D01*
X90049433Y-83575500D01*
X90049435Y-83575500D01*
X90144938Y-83549910D01*
X90144940Y-83549908D01*
X90144942Y-83549908D01*
X90170377Y-83535222D01*
X90230562Y-83500475D01*
X90300475Y-83430562D01*
X90349910Y-83344938D01*
X90375500Y-83249435D01*
X90375500Y-83150565D01*
X91124500Y-83150565D01*
X91124500Y-83249435D01*
X91139404Y-83305057D01*
X91150091Y-83344942D01*
X91193253Y-83419699D01*
X91199525Y-83430562D01*
X91269438Y-83500475D01*
X91269440Y-83500476D01*
X91355058Y-83549908D01*
X91355056Y-83549908D01*
X91355060Y-83549909D01*
X91355062Y-83549910D01*
X91450565Y-83575500D01*
X91450567Y-83575500D01*
X91549433Y-83575500D01*
X91549435Y-83575500D01*
X91644938Y-83549910D01*
X91644940Y-83549908D01*
X91644942Y-83549908D01*
X91670377Y-83535222D01*
X91730562Y-83500475D01*
X91780472Y-83450565D01*
X93324500Y-83450565D01*
X93324500Y-83549435D01*
X93331484Y-83575500D01*
X93350091Y-83644942D01*
X93399523Y-83730559D01*
X93399525Y-83730562D01*
X93469438Y-83800475D01*
X93469440Y-83800476D01*
X93555058Y-83849908D01*
X93555056Y-83849908D01*
X93555060Y-83849909D01*
X93555062Y-83849910D01*
X93650565Y-83875500D01*
X93650567Y-83875500D01*
X93749433Y-83875500D01*
X93749435Y-83875500D01*
X93844938Y-83849910D01*
X93844940Y-83849908D01*
X93844942Y-83849908D01*
X93887217Y-83825500D01*
X93930562Y-83800475D01*
X94000475Y-83730562D01*
X94049910Y-83644938D01*
X94075500Y-83549435D01*
X94075500Y-83450565D01*
X94062103Y-83400565D01*
X99774500Y-83400565D01*
X99774500Y-83499435D01*
X99788024Y-83549908D01*
X99800091Y-83594942D01*
X99849523Y-83680559D01*
X99849525Y-83680562D01*
X99919438Y-83750475D01*
X99919440Y-83750476D01*
X100005058Y-83799908D01*
X100005056Y-83799908D01*
X100005060Y-83799909D01*
X100005062Y-83799910D01*
X100100565Y-83825500D01*
X100100567Y-83825500D01*
X100199433Y-83825500D01*
X100199435Y-83825500D01*
X100294938Y-83799910D01*
X100294940Y-83799908D01*
X100294942Y-83799908D01*
X100320377Y-83785222D01*
X100380562Y-83750475D01*
X100450475Y-83680562D01*
X100499910Y-83594938D01*
X100525500Y-83499435D01*
X100525500Y-83400565D01*
X100499910Y-83305062D01*
X100499908Y-83305059D01*
X100499908Y-83305057D01*
X100450476Y-83219440D01*
X100450475Y-83219438D01*
X100381602Y-83150565D01*
X106722600Y-83150565D01*
X106722600Y-83249435D01*
X106737504Y-83305057D01*
X106748191Y-83344942D01*
X106791353Y-83419699D01*
X106797625Y-83430562D01*
X106867538Y-83500475D01*
X106867540Y-83500476D01*
X106953158Y-83549908D01*
X106953156Y-83549908D01*
X106953160Y-83549909D01*
X106953162Y-83549910D01*
X107048665Y-83575500D01*
X107048667Y-83575500D01*
X107147533Y-83575500D01*
X107147535Y-83575500D01*
X107243038Y-83549910D01*
X107243040Y-83549908D01*
X107243042Y-83549908D01*
X107268477Y-83535222D01*
X107328662Y-83500475D01*
X107398575Y-83430562D01*
X107448010Y-83344938D01*
X107473600Y-83249435D01*
X107473600Y-83150565D01*
X107448010Y-83055062D01*
X107448008Y-83055059D01*
X107448008Y-83055057D01*
X107398576Y-82969440D01*
X107398575Y-82969438D01*
X107328662Y-82899525D01*
X107328659Y-82899523D01*
X107243041Y-82850091D01*
X107243043Y-82850091D01*
X107205985Y-82840161D01*
X107147535Y-82824500D01*
X107048665Y-82824500D01*
X106990214Y-82840161D01*
X106953157Y-82850091D01*
X106867540Y-82899523D01*
X106797623Y-82969440D01*
X106748191Y-83055057D01*
X106736125Y-83100090D01*
X106722600Y-83150565D01*
X100381602Y-83150565D01*
X100380562Y-83149525D01*
X100380559Y-83149523D01*
X100294941Y-83100091D01*
X100294943Y-83100091D01*
X100257885Y-83090161D01*
X100199435Y-83074500D01*
X100100565Y-83074500D01*
X100042114Y-83090161D01*
X100005057Y-83100091D01*
X99919440Y-83149523D01*
X99849523Y-83219440D01*
X99800091Y-83305057D01*
X99785783Y-83358453D01*
X99774500Y-83400565D01*
X94062103Y-83400565D01*
X94049910Y-83355062D01*
X94049908Y-83355059D01*
X94049908Y-83355057D01*
X94000476Y-83269440D01*
X94000475Y-83269438D01*
X93930562Y-83199525D01*
X93930559Y-83199523D01*
X93844941Y-83150091D01*
X93844943Y-83150091D01*
X93807885Y-83140161D01*
X93749435Y-83124500D01*
X93650565Y-83124500D01*
X93592114Y-83140161D01*
X93555057Y-83150091D01*
X93469440Y-83199523D01*
X93399523Y-83269440D01*
X93350091Y-83355057D01*
X93337897Y-83400565D01*
X93324500Y-83450565D01*
X91780472Y-83450565D01*
X91800475Y-83430562D01*
X91849910Y-83344938D01*
X91875500Y-83249435D01*
X91875500Y-83150565D01*
X91849910Y-83055062D01*
X91849908Y-83055059D01*
X91849908Y-83055057D01*
X91800476Y-82969440D01*
X91800475Y-82969438D01*
X91730562Y-82899525D01*
X91730559Y-82899523D01*
X91644941Y-82850091D01*
X91644943Y-82850091D01*
X91607885Y-82840161D01*
X91549435Y-82824500D01*
X91450565Y-82824500D01*
X91392114Y-82840161D01*
X91355057Y-82850091D01*
X91269440Y-82899523D01*
X91199523Y-82969440D01*
X91150091Y-83055057D01*
X91138025Y-83100090D01*
X91124500Y-83150565D01*
X90375500Y-83150565D01*
X90349910Y-83055062D01*
X90349908Y-83055059D01*
X90349908Y-83055057D01*
X90300476Y-82969440D01*
X90300475Y-82969438D01*
X90230562Y-82899525D01*
X90230559Y-82899523D01*
X90144941Y-82850091D01*
X90144943Y-82850091D01*
X90107885Y-82840161D01*
X90049435Y-82824500D01*
X89950565Y-82824500D01*
X89892114Y-82840161D01*
X89855057Y-82850091D01*
X89769440Y-82899523D01*
X89699523Y-82969440D01*
X89650091Y-83055057D01*
X89638025Y-83100090D01*
X89624500Y-83150565D01*
X85343303Y-83150565D01*
X85141767Y-82949029D01*
X85141767Y-82949028D01*
X85141765Y-82949027D01*
X85115699Y-82922960D01*
X85111985Y-82919037D01*
X84993593Y-82786957D01*
X84986830Y-82778529D01*
X84885103Y-82636515D01*
X84879313Y-82627422D01*
X84806251Y-82497535D01*
X84794203Y-82437548D01*
X84819714Y-82381935D01*
X84873042Y-82351939D01*
X84892538Y-82350000D01*
X115107461Y-82350000D01*
X115165652Y-82368907D01*
G37*
%TD.AperFunction*%
%TD*%
M02*
