%TF.GenerationSoftware,KiCad,Pcbnew,10.0.6-10.0.6~ubuntu24.04.1*%
%TF.CreationDate,2026-10-03T13:57:21+00:00*%
%TF.ProjectId,ridge3-fc,72696467-6533-42d6-9663-2e6b69636164,2.0*%
%TF.SameCoordinates,Original*%
%TF.FileFunction,Copper,L2,Inr*%
%TF.FilePolarity,Positive*%
%FSLAX46Y46*%
G04 Gerber Fmt 4.6, Leading zero omitted, Abs format (unit mm)*
G04 Created by KiCad (PCBNEW 10.0.6-10.0.6~ubuntu24.04.1) date 2026-10-03 13:57:21*
%MOMM*%
%LPD*%
G01*
G04 APERTURE LIST*
%TA.AperFunction,ComponentPad*%
%ADD10O,2.100000X1.000000*%
%TD*%
%TA.AperFunction,ComponentPad*%
%ADD11O,1.800000X1.000000*%
%TD*%
%TA.AperFunction,ViaPad*%
%ADD12C,0.350000*%
%TD*%
%TA.AperFunction,ViaPad*%
%ADD13C,0.450000*%
%TD*%
%TA.AperFunction,ViaPad*%
%ADD14C,0.500000*%
%TD*%
G04 APERTURE END LIST*
D10*
%TO.N,GND*%
%TO.C,J_USB*%
X88780000Y-95680000D03*
D11*
X84600000Y-95680000D03*
X84600000Y-104320000D03*
D10*
X88780000Y-104320000D03*
%TD*%
D12*
%TO.N,+3V3*%
X103070000Y-86655000D03*
X88055000Y-93140000D03*
X103465000Y-90250000D03*
X103980000Y-99375000D03*
X104327000Y-87560900D03*
X93345200Y-105480000D03*
X96717300Y-96758400D03*
X103342000Y-98817300D03*
X103092000Y-97785500D03*
X117412000Y-103207000D03*
X89042900Y-93127300D03*
X105312000Y-97491800D03*
X117412000Y-108793000D03*
X107350000Y-102950000D03*
X90920000Y-103555000D03*
X91989100Y-108568000D03*
X102785000Y-90055200D03*
X94823600Y-104335000D03*
X103325000Y-100186000D03*
X95000000Y-92395000D03*
X94470000Y-96105000D03*
X95764800Y-105276000D03*
X95294300Y-91911500D03*
X108485000Y-104410000D03*
X97000000Y-107650000D03*
X105919000Y-87430300D03*
X96935800Y-108186000D03*
X103619000Y-99767800D03*
X102565000Y-107450000D03*
X108034000Y-95140700D03*
X106945000Y-103205000D03*
X109850000Y-103550000D03*
X116600000Y-109265000D03*
X92639100Y-91192500D03*
X103715000Y-107450000D03*
X100750000Y-114400000D03*
%TO.N,NRST*%
X101872000Y-106654000D03*
X99419500Y-106516000D03*
D13*
%TO.N,SPI1_SCK*%
X103450000Y-102300000D03*
X103100000Y-103800000D03*
D12*
%TO.N,ADC_VBAT*%
X109314000Y-99307000D03*
X102550000Y-100850000D03*
%TO.N,SPI2_SCK*%
X101024000Y-95337400D03*
X101316000Y-96835900D03*
%TO.N,FLASH_CS*%
X100050000Y-96091600D03*
X104850000Y-94410000D03*
%TO.N,OSD_CS*%
X99668400Y-93052800D03*
%TO.N,UART1_TX*%
X98760700Y-97446100D03*
X105664000Y-97005200D03*
X106897000Y-83200000D03*
X115987000Y-96080300D03*
%TO.N,UART1_RX*%
X98230500Y-97309600D03*
X101943000Y-96587800D03*
D13*
%TO.N,USB_DM*%
X90279900Y-100347000D03*
X92200000Y-97600000D03*
X90279900Y-99346600D03*
X97900000Y-96800000D03*
%TO.N,USB_DP*%
X95650000Y-97150000D03*
X97250000Y-96950000D03*
D12*
%TO.N,SWDIO*%
X96290400Y-97964600D03*
%TO.N,SWCLK*%
X94424600Y-98773700D03*
%TO.N,UART4_TX*%
X90000000Y-83200000D03*
X93781000Y-100637000D03*
%TO.N,UART4_RX*%
X94000900Y-99850000D03*
X91500000Y-83200000D03*
%TO.N,UART2_TX*%
X93453500Y-100227000D03*
X83967400Y-97094500D03*
%TO.N,UART2_RX*%
X94321300Y-100569000D03*
X83200000Y-92700000D03*
%TO.N,VTX_OFF*%
X108252000Y-102816000D03*
X95450000Y-101350000D03*
%TO.N,LED0*%
X95236900Y-102410000D03*
X93397400Y-104019000D03*
%TO.N,BOOT0*%
X115410000Y-103950000D03*
X93265000Y-101965000D03*
X95450000Y-102850000D03*
%TO.N,GND*%
X96600000Y-103500000D03*
X105500000Y-116300000D03*
X93190000Y-103555000D03*
X115808000Y-94572500D03*
X98200000Y-90400000D03*
X106000000Y-116200000D03*
X107390000Y-97955000D03*
X109173000Y-95239100D03*
D14*
X114900000Y-106180000D03*
D12*
X98200000Y-101900000D03*
X106870000Y-103755000D03*
D14*
X114000000Y-105000000D03*
D12*
X101400000Y-100300000D03*
X94617500Y-102541000D03*
X105340000Y-86655000D03*
D14*
X98000000Y-111900000D03*
X89966700Y-92271900D03*
D12*
X113726000Y-103511000D03*
X111548000Y-99368200D03*
X84345000Y-107900000D03*
X105150000Y-90600000D03*
X101400000Y-92000000D03*
X93295500Y-96894000D03*
X112785000Y-102535000D03*
X109591000Y-104882000D03*
D14*
X98900000Y-115080000D03*
X112000000Y-103000000D03*
D12*
X106892000Y-102200000D03*
X96600000Y-100300000D03*
D14*
X98000000Y-110900000D03*
D12*
X97270000Y-90655000D03*
X105583000Y-100271000D03*
D14*
X113000000Y-104000000D03*
D12*
X97938900Y-87125500D03*
X107170000Y-99375000D03*
X99772500Y-84191600D03*
X92600000Y-96920000D03*
D14*
X97000000Y-110900000D03*
D12*
X101400000Y-98700000D03*
X111800000Y-96615000D03*
X93925000Y-102530000D03*
X96600000Y-98700000D03*
X99800000Y-98700000D03*
D14*
X112000000Y-104000000D03*
D12*
X98200000Y-100300000D03*
X91327300Y-90537100D03*
X101400000Y-90400000D03*
X99800000Y-90400000D03*
D14*
X114450000Y-107200000D03*
D12*
X93018200Y-108812000D03*
X107139000Y-100932000D03*
X98176500Y-88167500D03*
D14*
X97000000Y-111900000D03*
D12*
X108370000Y-107150000D03*
X107300000Y-108825000D03*
X108000000Y-88350000D03*
X99800000Y-101900000D03*
X109270000Y-88450000D03*
X114481000Y-104846000D03*
X100005000Y-87970000D03*
X104807000Y-106987000D03*
X99800000Y-103500000D03*
X98200000Y-98700000D03*
X91775000Y-87380000D03*
X95290800Y-105497000D03*
X96600000Y-101900000D03*
X95011800Y-110518000D03*
X107300000Y-113575000D03*
X108900000Y-108825000D03*
X113650000Y-108050000D03*
X92500000Y-109450000D03*
X107300000Y-96075000D03*
X110153000Y-100508000D03*
X113135000Y-99960000D03*
X107868000Y-103312000D03*
X94408700Y-112519000D03*
X101400000Y-101900000D03*
X108333000Y-104903000D03*
X99800000Y-92000000D03*
X99225000Y-116450000D03*
X106722000Y-101249000D03*
X89982500Y-92857800D03*
X112824000Y-99512500D03*
D14*
X91680000Y-95107600D03*
D12*
X105148000Y-98418200D03*
X96600000Y-90400000D03*
X101400000Y-103500000D03*
X109295000Y-100400000D03*
X89715200Y-95964800D03*
X113650000Y-108550000D03*
X109039000Y-104898000D03*
D14*
X114000000Y-103000000D03*
D12*
X108689000Y-99017500D03*
X87975000Y-99900000D03*
X99800000Y-100300000D03*
X89920000Y-103920000D03*
X94420200Y-89445200D03*
X93576200Y-91661700D03*
X108090000Y-101365000D03*
X91800000Y-109525000D03*
X108900000Y-96075000D03*
X97260100Y-89615000D03*
X95272500Y-84191600D03*
X98200000Y-103500000D03*
X87975000Y-98800000D03*
X105150000Y-92200000D03*
X93787800Y-109698000D03*
X94075900Y-113558000D03*
X108900000Y-113575000D03*
X103755000Y-104770000D03*
X100061000Y-87125500D03*
X96542300Y-95264100D03*
X107705000Y-98770000D03*
X114193000Y-109242000D03*
D14*
X114000000Y-104000000D03*
D12*
X89265000Y-116600000D03*
X107000000Y-115085000D03*
X96740000Y-96105000D03*
X84345000Y-91200000D03*
D14*
X113000000Y-103000000D03*
D12*
X89819100Y-94997900D03*
D14*
%TO.N,VBAT_VTX*%
X112200000Y-109300000D03*
X111400000Y-109300000D03*
D12*
%TO.N,CUR*%
X99221500Y-111438000D03*
X103914000Y-98746000D03*
%TO.N,+5V*%
X101450000Y-114950000D03*
X87400900Y-106400000D03*
X94750000Y-111600000D03*
X100150000Y-83600000D03*
X88200000Y-93700000D03*
X88900000Y-94350000D03*
%TO.N,+3V3_OSD*%
X96126400Y-94070000D03*
X97477000Y-88581800D03*
%TO.N,+3V3_GYRO*%
X106210000Y-102700000D03*
X106210000Y-100984000D03*
%TO.N,USB_VBUS*%
X89696500Y-102327000D03*
X92769200Y-99106800D03*
X89360000Y-97600000D03*
D14*
%TO.N,+9V*%
X114700000Y-91700000D03*
D12*
X109500000Y-91000000D03*
D14*
X113900000Y-91700000D03*
D12*
X93700000Y-83500000D03*
D14*
%TO.N,VBAT*%
X95550000Y-116300000D03*
D12*
X97630000Y-114580000D03*
X113586000Y-96541600D03*
X99419500Y-110444000D03*
D14*
X96300000Y-117300000D03*
X95550000Y-117050000D03*
D12*
X105467000Y-110444000D03*
%TO.N,BUCK9_EN*%
X109954000Y-105246000D03*
X113630000Y-105980000D03*
%TO.N,USB_CC1*%
X88472800Y-98732400D03*
%TO.N,USB_CC2*%
X86290000Y-99900000D03*
%TO.N,OSD_RST*%
X100700000Y-88550000D03*
D13*
%TO.N,OSD_VIN*%
X98700000Y-87800000D03*
D12*
X98400000Y-95200000D03*
D13*
%TO.N,OSD_VOUT*%
X96050000Y-88300000D03*
%TO.N,CAM_VIDEO*%
X98850000Y-86750000D03*
%TO.N,VTX_VIDEO*%
X95750000Y-87100000D03*
%TD*%
%TA.AperFunction,Conductor*%
%TO.N,GND*%
G36*
X109509191Y-82368907D02*
G01*
X109545155Y-82418407D01*
X109550000Y-82449000D01*
X109550000Y-82500000D01*
X114774811Y-82500000D01*
X114833002Y-82518907D01*
X114868966Y-82568407D01*
X114868966Y-82629593D01*
X114851456Y-82661662D01*
X114837690Y-82678500D01*
X114836541Y-82679879D01*
X114820032Y-82699341D01*
X114818854Y-82700705D01*
X114802019Y-82719834D01*
X114800816Y-82721176D01*
X114783636Y-82739995D01*
X114782409Y-82741315D01*
X114764858Y-82759851D01*
X114763610Y-82761146D01*
X114743912Y-82781207D01*
X114743276Y-82781849D01*
X112348204Y-85176921D01*
X112303636Y-85202594D01*
X112071403Y-85264333D01*
X112027973Y-85278026D01*
X112027950Y-85278035D01*
X111985955Y-85295620D01*
X111985951Y-85295621D01*
X111722713Y-85420234D01*
X111722676Y-85420253D01*
X111682455Y-85441588D01*
X111682437Y-85441599D01*
X111644335Y-85466499D01*
X111644334Y-85466500D01*
X111407994Y-85636809D01*
X111372301Y-85665087D01*
X111339318Y-85696506D01*
X111339315Y-85696509D01*
X111137802Y-85906803D01*
X111107806Y-85941105D01*
X111107806Y-85941106D01*
X111081074Y-85977972D01*
X111081071Y-85977977D01*
X110921008Y-86221334D01*
X110920993Y-86221358D01*
X110897742Y-86260482D01*
X110897731Y-86260503D01*
X110878125Y-86301605D01*
X110764831Y-86569950D01*
X110764830Y-86569951D01*
X110749045Y-86612677D01*
X110737212Y-86656665D01*
X110674442Y-86941091D01*
X110674438Y-86941113D01*
X110666662Y-86985971D01*
X110663003Y-87031342D01*
X110663000Y-87031383D01*
X110652833Y-87322472D01*
X110652833Y-87322481D01*
X110653318Y-87368028D01*
X110653319Y-87368032D01*
X110657944Y-87413306D01*
X110657947Y-87413333D01*
X110700719Y-87701450D01*
X110709455Y-87746164D01*
X110722222Y-87789887D01*
X110722224Y-87789893D01*
X110816515Y-88065471D01*
X110833211Y-88107859D01*
X110853696Y-88148550D01*
X110853702Y-88148561D01*
X110880643Y-88196503D01*
X110996383Y-88402469D01*
X110996388Y-88402477D01*
X111020474Y-88441107D01*
X111020480Y-88441116D01*
X111020487Y-88441127D01*
X111048009Y-88477431D01*
X111234363Y-88701276D01*
X111265075Y-88734924D01*
X111298723Y-88765636D01*
X111522568Y-88951990D01*
X111558872Y-88979512D01*
X111597530Y-89003616D01*
X111851449Y-89146303D01*
X111892140Y-89166788D01*
X111934528Y-89183484D01*
X112210106Y-89277775D01*
X112253837Y-89290544D01*
X112298549Y-89299280D01*
X112586654Y-89342050D01*
X112586678Y-89342052D01*
X112586692Y-89342054D01*
X112613589Y-89344801D01*
X112631966Y-89346679D01*
X112631970Y-89346680D01*
X112634626Y-89346708D01*
X112677530Y-89347166D01*
X112968615Y-89336999D01*
X113005456Y-89334027D01*
X113014027Y-89333336D01*
X113058885Y-89325560D01*
X113058907Y-89325556D01*
X113058906Y-89325556D01*
X113058913Y-89325555D01*
X113343332Y-89262787D01*
X113387325Y-89250953D01*
X113430059Y-89235164D01*
X113698387Y-89121876D01*
X113739506Y-89102262D01*
X113778669Y-89078988D01*
X114022013Y-88918933D01*
X114022022Y-88918926D01*
X114022026Y-88918924D01*
X114033867Y-88910337D01*
X114058896Y-88892190D01*
X114093190Y-88862202D01*
X114303488Y-88660685D01*
X114334911Y-88627699D01*
X114363201Y-88591990D01*
X114533482Y-88355689D01*
X114558405Y-88317553D01*
X114579753Y-88277308D01*
X114704375Y-88014052D01*
X114721971Y-87972030D01*
X114735669Y-87928582D01*
X114797405Y-87696361D01*
X114823075Y-87651796D01*
X117218256Y-85256616D01*
X117218560Y-85256314D01*
X117238918Y-85236324D01*
X117240147Y-85235140D01*
X117250659Y-85225187D01*
X117258720Y-85217553D01*
X117259960Y-85216401D01*
X117278866Y-85199142D01*
X117280120Y-85198018D01*
X117299354Y-85181091D01*
X117300657Y-85179966D01*
X117320119Y-85163457D01*
X117321455Y-85162343D01*
X117334541Y-85151645D01*
X117338343Y-85148538D01*
X117395362Y-85126348D01*
X117454535Y-85141911D01*
X117493260Y-85189282D01*
X117500000Y-85225187D01*
X117500000Y-90450000D01*
X117551000Y-90450000D01*
X117609191Y-90468907D01*
X117645155Y-90518407D01*
X117650000Y-90549000D01*
X117650000Y-102753006D01*
X117631093Y-102811197D01*
X117581593Y-102847161D01*
X117525378Y-102848633D01*
X117479420Y-102836319D01*
X117461435Y-102831500D01*
X117362565Y-102831500D01*
X117315377Y-102844144D01*
X117267057Y-102857091D01*
X117181440Y-102906523D01*
X117111523Y-102976440D01*
X117062091Y-103062057D01*
X117062090Y-103062062D01*
X117036500Y-103157565D01*
X117036500Y-103256435D01*
X117057299Y-103334059D01*
X117062091Y-103351942D01*
X117110370Y-103435562D01*
X117111525Y-103437562D01*
X117181438Y-103507475D01*
X117181440Y-103507476D01*
X117267058Y-103556908D01*
X117267056Y-103556908D01*
X117267060Y-103556909D01*
X117267062Y-103556910D01*
X117362565Y-103582500D01*
X117362567Y-103582500D01*
X117461433Y-103582500D01*
X117461435Y-103582500D01*
X117525379Y-103565366D01*
X117586478Y-103568568D01*
X117634028Y-103607073D01*
X117650000Y-103660993D01*
X117650000Y-108339006D01*
X117631093Y-108397197D01*
X117581593Y-108433161D01*
X117525378Y-108434633D01*
X117482174Y-108423057D01*
X117461435Y-108417500D01*
X117362565Y-108417500D01*
X117304114Y-108433161D01*
X117267057Y-108443091D01*
X117181440Y-108492523D01*
X117111523Y-108562440D01*
X117062091Y-108648057D01*
X117062090Y-108648062D01*
X117036500Y-108743565D01*
X117036500Y-108842435D01*
X117043478Y-108868476D01*
X117056723Y-108917910D01*
X117062090Y-108937938D01*
X117111525Y-109023562D01*
X117181438Y-109093475D01*
X117181440Y-109093476D01*
X117267058Y-109142908D01*
X117267056Y-109142908D01*
X117267060Y-109142909D01*
X117267062Y-109142910D01*
X117362565Y-109168500D01*
X117362567Y-109168500D01*
X117461433Y-109168500D01*
X117461435Y-109168500D01*
X117525379Y-109151366D01*
X117586478Y-109154568D01*
X117634028Y-109193073D01*
X117650000Y-109246993D01*
X117650000Y-109451000D01*
X117631093Y-109509191D01*
X117581593Y-109545155D01*
X117551000Y-109550000D01*
X117500000Y-109550000D01*
X117500000Y-109550001D01*
X117500000Y-114774811D01*
X117481093Y-114833002D01*
X117431593Y-114868966D01*
X117370407Y-114868966D01*
X117338343Y-114851460D01*
X117321503Y-114837694D01*
X117320119Y-114836541D01*
X117300657Y-114820032D01*
X117299293Y-114818854D01*
X117280164Y-114802019D01*
X117278822Y-114800816D01*
X117260003Y-114783636D01*
X117258683Y-114782409D01*
X117240147Y-114764858D01*
X117238852Y-114763610D01*
X117224900Y-114749910D01*
X117218675Y-114743797D01*
X117218149Y-114743276D01*
X114823077Y-112348204D01*
X114797405Y-112303637D01*
X114735669Y-112071417D01*
X114721971Y-112027969D01*
X114704375Y-111985947D01*
X114659968Y-111892140D01*
X114579764Y-111722713D01*
X114579745Y-111722676D01*
X114558410Y-111682455D01*
X114558408Y-111682452D01*
X114558405Y-111682446D01*
X114554624Y-111676661D01*
X114533499Y-111644335D01*
X114533498Y-111644334D01*
X114533494Y-111644329D01*
X114533482Y-111644310D01*
X114363201Y-111408009D01*
X114334911Y-111372300D01*
X114303488Y-111339314D01*
X114093190Y-111137797D01*
X114058896Y-111107809D01*
X114058893Y-111107806D01*
X114022026Y-111081074D01*
X114022021Y-111081071D01*
X113778664Y-110921008D01*
X113778640Y-110920993D01*
X113739516Y-110897742D01*
X113739495Y-110897731D01*
X113698393Y-110878125D01*
X113576869Y-110826818D01*
X113430059Y-110764835D01*
X113430047Y-110764830D01*
X113406874Y-110756268D01*
X113387325Y-110749046D01*
X113370332Y-110744475D01*
X113343333Y-110737212D01*
X113058907Y-110674442D01*
X113058885Y-110674438D01*
X113014026Y-110666662D01*
X113014028Y-110666662D01*
X112968656Y-110663003D01*
X112968615Y-110663000D01*
X112677530Y-110652833D01*
X112677523Y-110652833D01*
X112677521Y-110652833D01*
X112631970Y-110653318D01*
X112631966Y-110653319D01*
X112586692Y-110657944D01*
X112586665Y-110657947D01*
X112298548Y-110700719D01*
X112253834Y-110709455D01*
X112210111Y-110722222D01*
X111934533Y-110816513D01*
X111892146Y-110833208D01*
X111851437Y-110853702D01*
X111597521Y-110996388D01*
X111558891Y-111020474D01*
X111558866Y-111020491D01*
X111522580Y-111047999D01*
X111298713Y-111234371D01*
X111265081Y-111265069D01*
X111265069Y-111265081D01*
X111234371Y-111298713D01*
X111047999Y-111522580D01*
X111020491Y-111558866D01*
X111020474Y-111558891D01*
X110996388Y-111597521D01*
X110853702Y-111851437D01*
X110833208Y-111892146D01*
X110816513Y-111934533D01*
X110722222Y-112210111D01*
X110709455Y-112253834D01*
X110700719Y-112298548D01*
X110657947Y-112586665D01*
X110657944Y-112586692D01*
X110653319Y-112631966D01*
X110653318Y-112631970D01*
X110652833Y-112677517D01*
X110652833Y-112677526D01*
X110663000Y-112968615D01*
X110663003Y-112968656D01*
X110666662Y-113014027D01*
X110674438Y-113058885D01*
X110674442Y-113058907D01*
X110737212Y-113343333D01*
X110749045Y-113387321D01*
X110764830Y-113430047D01*
X110764835Y-113430059D01*
X110826818Y-113576869D01*
X110878125Y-113698393D01*
X110897731Y-113739495D01*
X110897742Y-113739516D01*
X110920993Y-113778640D01*
X110921008Y-113778664D01*
X111081071Y-114022021D01*
X111081074Y-114022026D01*
X111107806Y-114058892D01*
X111107806Y-114058893D01*
X111107809Y-114058896D01*
X111137797Y-114093190D01*
X111339314Y-114303488D01*
X111372300Y-114334911D01*
X111408009Y-114363201D01*
X111644310Y-114533482D01*
X111644329Y-114533494D01*
X111644334Y-114533498D01*
X111644335Y-114533499D01*
X111676661Y-114554624D01*
X111682446Y-114558405D01*
X111722691Y-114579753D01*
X111722698Y-114579756D01*
X111722713Y-114579764D01*
X111985951Y-114704377D01*
X111985952Y-114704377D01*
X112027969Y-114721971D01*
X112037380Y-114724938D01*
X112071403Y-114735665D01*
X112071407Y-114735666D01*
X112071417Y-114735669D01*
X112303637Y-114797405D01*
X112348204Y-114823077D01*
X114743276Y-117218149D01*
X114743797Y-117218675D01*
X114763610Y-117238852D01*
X114764858Y-117240147D01*
X114782409Y-117258683D01*
X114783636Y-117260003D01*
X114800816Y-117278822D01*
X114802019Y-117280164D01*
X114818854Y-117299293D01*
X114820032Y-117300657D01*
X114836541Y-117320119D01*
X114837692Y-117321500D01*
X114851459Y-117338340D01*
X114873651Y-117395359D01*
X114858090Y-117454532D01*
X114810720Y-117493258D01*
X114774812Y-117500000D01*
X109550000Y-117500000D01*
X109550000Y-117500001D01*
X109550000Y-117551000D01*
X109531093Y-117609191D01*
X109481593Y-117645155D01*
X109451000Y-117650000D01*
X96789593Y-117650000D01*
X96731402Y-117631093D01*
X96695438Y-117581593D01*
X96695438Y-117520407D01*
X96703856Y-117501500D01*
X96715638Y-117481093D01*
X96719799Y-117473886D01*
X96750500Y-117359309D01*
X96750500Y-117240691D01*
X96719799Y-117126114D01*
X96719797Y-117126111D01*
X96719797Y-117126109D01*
X96660492Y-117023391D01*
X96660490Y-117023389D01*
X96660489Y-117023387D01*
X96576613Y-116939511D01*
X96576610Y-116939509D01*
X96576608Y-116939507D01*
X96473889Y-116880202D01*
X96473890Y-116880202D01*
X96458615Y-116876109D01*
X96359309Y-116849500D01*
X96240691Y-116849500D01*
X96170567Y-116868289D01*
X96126109Y-116880202D01*
X96096384Y-116897365D01*
X96036536Y-116910087D01*
X95980640Y-116885201D01*
X95961148Y-116861129D01*
X95910492Y-116773391D01*
X95910490Y-116773389D01*
X95910489Y-116773387D01*
X95882103Y-116745001D01*
X95854328Y-116690487D01*
X95863899Y-116630055D01*
X95882102Y-116604999D01*
X95910489Y-116576613D01*
X95969799Y-116473886D01*
X96000500Y-116359309D01*
X96000500Y-116240691D01*
X95969799Y-116126114D01*
X95969797Y-116126111D01*
X95969797Y-116126109D01*
X95910492Y-116023391D01*
X95910490Y-116023389D01*
X95910489Y-116023387D01*
X95826613Y-115939511D01*
X95826610Y-115939509D01*
X95826608Y-115939507D01*
X95723889Y-115880202D01*
X95723890Y-115880202D01*
X95710351Y-115876574D01*
X95609309Y-115849500D01*
X95490691Y-115849500D01*
X95420567Y-115868289D01*
X95376109Y-115880202D01*
X95273391Y-115939507D01*
X95189507Y-116023391D01*
X95130202Y-116126109D01*
X95130201Y-116126114D01*
X95099500Y-116240691D01*
X95099500Y-116359309D01*
X95126574Y-116460351D01*
X95130202Y-116473890D01*
X95189507Y-116576608D01*
X95189508Y-116576609D01*
X95189509Y-116576610D01*
X95189511Y-116576613D01*
X95217894Y-116604996D01*
X95217895Y-116604997D01*
X95245671Y-116659514D01*
X95236099Y-116719946D01*
X95217895Y-116745003D01*
X95189507Y-116773391D01*
X95130202Y-116876109D01*
X95127766Y-116885201D01*
X95099500Y-116990691D01*
X95099500Y-117109309D01*
X95104002Y-117126109D01*
X95130202Y-117223890D01*
X95189507Y-117326608D01*
X95189509Y-117326610D01*
X95189511Y-117326613D01*
X95273387Y-117410489D01*
X95273389Y-117410490D01*
X95273391Y-117410492D01*
X95368258Y-117465264D01*
X95409199Y-117510733D01*
X95415595Y-117571584D01*
X95385002Y-117624572D01*
X95329106Y-117649458D01*
X95318758Y-117650000D01*
X90549000Y-117650000D01*
X90490809Y-117631093D01*
X90454845Y-117581593D01*
X90450000Y-117551000D01*
X90450000Y-117500001D01*
X90450000Y-117500000D01*
X90449999Y-117500000D01*
X85225187Y-117500000D01*
X85166996Y-117481093D01*
X85131032Y-117431593D01*
X85131032Y-117370407D01*
X85148538Y-117338343D01*
X85158131Y-117326608D01*
X85162343Y-117321455D01*
X85163457Y-117320119D01*
X85179966Y-117300657D01*
X85181091Y-117299354D01*
X85198018Y-117280120D01*
X85199142Y-117278866D01*
X85216401Y-117259960D01*
X85217553Y-117258720D01*
X85235147Y-117240139D01*
X85236324Y-117238918D01*
X85256314Y-117218560D01*
X85256616Y-117218256D01*
X87651796Y-114823075D01*
X87696361Y-114797405D01*
X87928582Y-114735669D01*
X87972030Y-114721971D01*
X88014052Y-114704375D01*
X88277308Y-114579753D01*
X88317553Y-114558405D01*
X88355689Y-114533482D01*
X88359737Y-114530565D01*
X97254500Y-114530565D01*
X97254500Y-114629435D01*
X97273535Y-114700475D01*
X97280091Y-114724942D01*
X97329523Y-114810559D01*
X97329525Y-114810562D01*
X97399438Y-114880475D01*
X97399440Y-114880476D01*
X97485058Y-114929908D01*
X97485056Y-114929908D01*
X97485060Y-114929909D01*
X97485062Y-114929910D01*
X97580565Y-114955500D01*
X97580567Y-114955500D01*
X97679433Y-114955500D01*
X97679435Y-114955500D01*
X97774938Y-114929910D01*
X97774940Y-114929908D01*
X97774942Y-114929908D01*
X97825765Y-114900565D01*
X97860562Y-114880475D01*
X97930475Y-114810562D01*
X97969323Y-114743276D01*
X97979908Y-114724942D01*
X97979908Y-114724940D01*
X97979910Y-114724938D01*
X98005500Y-114629435D01*
X98005500Y-114530565D01*
X97979910Y-114435062D01*
X97931126Y-114350565D01*
X100374500Y-114350565D01*
X100374500Y-114449435D01*
X100393258Y-114519442D01*
X100400091Y-114544942D01*
X100442640Y-114618637D01*
X100449525Y-114630562D01*
X100519438Y-114700475D01*
X100526198Y-114704378D01*
X100605058Y-114749908D01*
X100605056Y-114749908D01*
X100605060Y-114749909D01*
X100605062Y-114749910D01*
X100700565Y-114775500D01*
X100700567Y-114775500D01*
X100799433Y-114775500D01*
X100799435Y-114775500D01*
X100894938Y-114749910D01*
X100948132Y-114719198D01*
X101007977Y-114706476D01*
X101063873Y-114731361D01*
X101094467Y-114784348D01*
X101093258Y-114830556D01*
X101082967Y-114868966D01*
X101074500Y-114900565D01*
X101074500Y-114999435D01*
X101097067Y-115083657D01*
X101100091Y-115094942D01*
X101149523Y-115180559D01*
X101149525Y-115180562D01*
X101219438Y-115250475D01*
X101219440Y-115250476D01*
X101305058Y-115299908D01*
X101305056Y-115299908D01*
X101305060Y-115299909D01*
X101305062Y-115299910D01*
X101400565Y-115325500D01*
X101400567Y-115325500D01*
X101499433Y-115325500D01*
X101499435Y-115325500D01*
X101594938Y-115299910D01*
X101594940Y-115299908D01*
X101594942Y-115299908D01*
X101620377Y-115285222D01*
X101680562Y-115250475D01*
X101750475Y-115180562D01*
X101799910Y-115094938D01*
X101825500Y-114999435D01*
X101825500Y-114900565D01*
X101799910Y-114805062D01*
X101799908Y-114805059D01*
X101799908Y-114805057D01*
X101750476Y-114719440D01*
X101750475Y-114719438D01*
X101680562Y-114649525D01*
X101680559Y-114649523D01*
X101594941Y-114600091D01*
X101594943Y-114600091D01*
X101557885Y-114590161D01*
X101499435Y-114574500D01*
X101400565Y-114574500D01*
X101342114Y-114590161D01*
X101305057Y-114600091D01*
X101251868Y-114630801D01*
X101192020Y-114643523D01*
X101136124Y-114618637D01*
X101105531Y-114565649D01*
X101106740Y-114519444D01*
X101125500Y-114449435D01*
X101125500Y-114350565D01*
X101099910Y-114255062D01*
X101099908Y-114255059D01*
X101099908Y-114255057D01*
X101050476Y-114169440D01*
X101050475Y-114169438D01*
X100980562Y-114099525D01*
X100980559Y-114099523D01*
X100894941Y-114050091D01*
X100894943Y-114050091D01*
X100857885Y-114040161D01*
X100799435Y-114024500D01*
X100700565Y-114024500D01*
X100642114Y-114040161D01*
X100605057Y-114050091D01*
X100519440Y-114099523D01*
X100449523Y-114169440D01*
X100400091Y-114255057D01*
X100393535Y-114279525D01*
X100374500Y-114350565D01*
X97931126Y-114350565D01*
X97930475Y-114349438D01*
X97860562Y-114279525D01*
X97860559Y-114279523D01*
X97774941Y-114230091D01*
X97774943Y-114230091D01*
X97737885Y-114220161D01*
X97679435Y-114204500D01*
X97580565Y-114204500D01*
X97522114Y-114220161D01*
X97485057Y-114230091D01*
X97399440Y-114279523D01*
X97329523Y-114349440D01*
X97280091Y-114435057D01*
X97280090Y-114435062D01*
X97254500Y-114530565D01*
X88359737Y-114530565D01*
X88591990Y-114363201D01*
X88627699Y-114334911D01*
X88660685Y-114303488D01*
X88862202Y-114093190D01*
X88892190Y-114058896D01*
X88918933Y-114022013D01*
X89078988Y-113778669D01*
X89102262Y-113739506D01*
X89121876Y-113698387D01*
X89235164Y-113430059D01*
X89250953Y-113387325D01*
X89262787Y-113343332D01*
X89325555Y-113058913D01*
X89333336Y-113014025D01*
X89336999Y-112968615D01*
X89347166Y-112677530D01*
X89346680Y-112631975D01*
X89346680Y-112631970D01*
X89346679Y-112631966D01*
X89342054Y-112586692D01*
X89342051Y-112586665D01*
X89342050Y-112586654D01*
X89299280Y-112298549D01*
X89290544Y-112253837D01*
X89277775Y-112210106D01*
X89183484Y-111934528D01*
X89166788Y-111892140D01*
X89146303Y-111851449D01*
X89003616Y-111597530D01*
X88979512Y-111558872D01*
X88973214Y-111550565D01*
X94374500Y-111550565D01*
X94374500Y-111649435D01*
X94383348Y-111682455D01*
X94400091Y-111744942D01*
X94439674Y-111813500D01*
X94449525Y-111830562D01*
X94519438Y-111900475D01*
X94519440Y-111900476D01*
X94605058Y-111949908D01*
X94605056Y-111949908D01*
X94605060Y-111949909D01*
X94605062Y-111949910D01*
X94700565Y-111975500D01*
X94700567Y-111975500D01*
X94799433Y-111975500D01*
X94799435Y-111975500D01*
X94894938Y-111949910D01*
X94894940Y-111949908D01*
X94894942Y-111949908D01*
X94921580Y-111934528D01*
X94980562Y-111900475D01*
X95050475Y-111830562D01*
X95099910Y-111744938D01*
X95125500Y-111649435D01*
X95125500Y-111550565D01*
X95099910Y-111455062D01*
X95099908Y-111455059D01*
X95099908Y-111455057D01*
X95086351Y-111431576D01*
X95061518Y-111388565D01*
X98846000Y-111388565D01*
X98846000Y-111487435D01*
X98855414Y-111522568D01*
X98871591Y-111582942D01*
X98909982Y-111649435D01*
X98921025Y-111668562D01*
X98990938Y-111738475D01*
X98990940Y-111738476D01*
X99076558Y-111787908D01*
X99076556Y-111787908D01*
X99076560Y-111787909D01*
X99076562Y-111787910D01*
X99172065Y-111813500D01*
X99172067Y-111813500D01*
X99270933Y-111813500D01*
X99270935Y-111813500D01*
X99366438Y-111787910D01*
X99366440Y-111787908D01*
X99366442Y-111787908D01*
X99391877Y-111773222D01*
X99452062Y-111738475D01*
X99521975Y-111668562D01*
X99571410Y-111582938D01*
X99597000Y-111487435D01*
X99597000Y-111388565D01*
X99571410Y-111293062D01*
X99571408Y-111293059D01*
X99571408Y-111293057D01*
X99521976Y-111207440D01*
X99521975Y-111207438D01*
X99452062Y-111137525D01*
X99452059Y-111137523D01*
X99366441Y-111088091D01*
X99366443Y-111088091D01*
X99329385Y-111078161D01*
X99270935Y-111062500D01*
X99172065Y-111062500D01*
X99113614Y-111078161D01*
X99076557Y-111088091D01*
X98990940Y-111137523D01*
X98921023Y-111207440D01*
X98871591Y-111293057D01*
X98859196Y-111339318D01*
X98846000Y-111388565D01*
X95061518Y-111388565D01*
X95050476Y-111369440D01*
X95050475Y-111369438D01*
X94980562Y-111299525D01*
X94969368Y-111293062D01*
X94894941Y-111250091D01*
X94894943Y-111250091D01*
X94857885Y-111240161D01*
X94799435Y-111224500D01*
X94700565Y-111224500D01*
X94642114Y-111240161D01*
X94605057Y-111250091D01*
X94519440Y-111299523D01*
X94449523Y-111369440D01*
X94400091Y-111455057D01*
X94400090Y-111455062D01*
X94374500Y-111550565D01*
X88973214Y-111550565D01*
X88951990Y-111522568D01*
X88765636Y-111298723D01*
X88734924Y-111265075D01*
X88701276Y-111234363D01*
X88477431Y-111048009D01*
X88441127Y-111020487D01*
X88441116Y-111020480D01*
X88441107Y-111020474D01*
X88402477Y-110996388D01*
X88402469Y-110996383D01*
X88148550Y-110853696D01*
X88107859Y-110833211D01*
X88107854Y-110833209D01*
X88107852Y-110833208D01*
X88073049Y-110819500D01*
X88065471Y-110816515D01*
X87789893Y-110722224D01*
X87789891Y-110722223D01*
X87789887Y-110722222D01*
X87746164Y-110709455D01*
X87701450Y-110700719D01*
X87413333Y-110657947D01*
X87413306Y-110657944D01*
X87368032Y-110653319D01*
X87368028Y-110653318D01*
X87322481Y-110652833D01*
X87322472Y-110652833D01*
X87322471Y-110652833D01*
X87322469Y-110652833D01*
X87104155Y-110660458D01*
X87031383Y-110663000D01*
X87031342Y-110663003D01*
X86985971Y-110666662D01*
X86941113Y-110674438D01*
X86941091Y-110674442D01*
X86656665Y-110737212D01*
X86612677Y-110749045D01*
X86569951Y-110764830D01*
X86569950Y-110764831D01*
X86569944Y-110764833D01*
X86569940Y-110764835D01*
X86519353Y-110786192D01*
X86301605Y-110878125D01*
X86260503Y-110897731D01*
X86260482Y-110897742D01*
X86221358Y-110920993D01*
X86221334Y-110921008D01*
X85977977Y-111081071D01*
X85977972Y-111081074D01*
X85941106Y-111107806D01*
X85941105Y-111107806D01*
X85906803Y-111137802D01*
X85696509Y-111339315D01*
X85696506Y-111339318D01*
X85665087Y-111372301D01*
X85636809Y-111407994D01*
X85636800Y-111408006D01*
X85636798Y-111408009D01*
X85500227Y-111597531D01*
X85466500Y-111644334D01*
X85466499Y-111644335D01*
X85441599Y-111682437D01*
X85441588Y-111682455D01*
X85420253Y-111722676D01*
X85420234Y-111722713D01*
X85295621Y-111985951D01*
X85295620Y-111985955D01*
X85278035Y-112027950D01*
X85278026Y-112027973D01*
X85264333Y-112071403D01*
X85202594Y-112303636D01*
X85176921Y-112348204D01*
X82781849Y-114743276D01*
X82781207Y-114743912D01*
X82761146Y-114763610D01*
X82759851Y-114764858D01*
X82741315Y-114782409D01*
X82739995Y-114783636D01*
X82721176Y-114800816D01*
X82719834Y-114802019D01*
X82700705Y-114818854D01*
X82699341Y-114820032D01*
X82679879Y-114836541D01*
X82678497Y-114837693D01*
X82661659Y-114851458D01*
X82604640Y-114873649D01*
X82545467Y-114858088D01*
X82506741Y-114810717D01*
X82500000Y-114774810D01*
X82500000Y-110394565D01*
X99044000Y-110394565D01*
X99044000Y-110493435D01*
X99066567Y-110577657D01*
X99069591Y-110588942D01*
X99118957Y-110674444D01*
X99119025Y-110674562D01*
X99188938Y-110744475D01*
X99196855Y-110749046D01*
X99274558Y-110793908D01*
X99274556Y-110793908D01*
X99274560Y-110793909D01*
X99274562Y-110793910D01*
X99370065Y-110819500D01*
X99370067Y-110819500D01*
X99468933Y-110819500D01*
X99468935Y-110819500D01*
X99564438Y-110793910D01*
X99564440Y-110793908D01*
X99564442Y-110793908D01*
X99614806Y-110764830D01*
X99650062Y-110744475D01*
X99719975Y-110674562D01*
X99769410Y-110588938D01*
X99795000Y-110493435D01*
X99795000Y-110394565D01*
X105091500Y-110394565D01*
X105091500Y-110493435D01*
X105114067Y-110577657D01*
X105117091Y-110588942D01*
X105166457Y-110674444D01*
X105166525Y-110674562D01*
X105236438Y-110744475D01*
X105244355Y-110749046D01*
X105322058Y-110793908D01*
X105322056Y-110793908D01*
X105322060Y-110793909D01*
X105322062Y-110793910D01*
X105417565Y-110819500D01*
X105417567Y-110819500D01*
X105516433Y-110819500D01*
X105516435Y-110819500D01*
X105611938Y-110793910D01*
X105611940Y-110793908D01*
X105611942Y-110793908D01*
X105662306Y-110764830D01*
X105697562Y-110744475D01*
X105767475Y-110674562D01*
X105816910Y-110588938D01*
X105842500Y-110493435D01*
X105842500Y-110394565D01*
X105816910Y-110299062D01*
X105816908Y-110299059D01*
X105816908Y-110299057D01*
X105767476Y-110213440D01*
X105767475Y-110213438D01*
X105697562Y-110143525D01*
X105697559Y-110143523D01*
X105611941Y-110094091D01*
X105611943Y-110094091D01*
X105574885Y-110084161D01*
X105516435Y-110068500D01*
X105417565Y-110068500D01*
X105359114Y-110084161D01*
X105322057Y-110094091D01*
X105236440Y-110143523D01*
X105166523Y-110213440D01*
X105117091Y-110299057D01*
X105117090Y-110299062D01*
X105091500Y-110394565D01*
X99795000Y-110394565D01*
X99769410Y-110299062D01*
X99769408Y-110299059D01*
X99769408Y-110299057D01*
X99719976Y-110213440D01*
X99719975Y-110213438D01*
X99650062Y-110143525D01*
X99650059Y-110143523D01*
X99564441Y-110094091D01*
X99564443Y-110094091D01*
X99527385Y-110084161D01*
X99468935Y-110068500D01*
X99370065Y-110068500D01*
X99311614Y-110084161D01*
X99274557Y-110094091D01*
X99188940Y-110143523D01*
X99119023Y-110213440D01*
X99069591Y-110299057D01*
X99069590Y-110299062D01*
X99044000Y-110394565D01*
X82500000Y-110394565D01*
X82500000Y-109550001D01*
X82500000Y-109550000D01*
X82499999Y-109550000D01*
X82449000Y-109550000D01*
X82390809Y-109531093D01*
X82354845Y-109481593D01*
X82350000Y-109451000D01*
X82350000Y-109240691D01*
X110949500Y-109240691D01*
X110949500Y-109359309D01*
X110963066Y-109409938D01*
X110980202Y-109473890D01*
X111039507Y-109576608D01*
X111039509Y-109576610D01*
X111039511Y-109576613D01*
X111123387Y-109660489D01*
X111123389Y-109660490D01*
X111123391Y-109660492D01*
X111226110Y-109719797D01*
X111226111Y-109719797D01*
X111226114Y-109719799D01*
X111340691Y-109750500D01*
X111340693Y-109750500D01*
X111459307Y-109750500D01*
X111459309Y-109750500D01*
X111573886Y-109719799D01*
X111573888Y-109719797D01*
X111573890Y-109719797D01*
X111676608Y-109660492D01*
X111676608Y-109660491D01*
X111676613Y-109660489D01*
X111729998Y-109607103D01*
X111784513Y-109579328D01*
X111844945Y-109588899D01*
X111870000Y-109607102D01*
X111923387Y-109660489D01*
X111923389Y-109660490D01*
X111923391Y-109660492D01*
X112026110Y-109719797D01*
X112026111Y-109719797D01*
X112026114Y-109719799D01*
X112140691Y-109750500D01*
X112140693Y-109750500D01*
X112259307Y-109750500D01*
X112259309Y-109750500D01*
X112373886Y-109719799D01*
X112373888Y-109719797D01*
X112373890Y-109719797D01*
X112476608Y-109660492D01*
X112476608Y-109660491D01*
X112476613Y-109660489D01*
X112560489Y-109576613D01*
X112575854Y-109550000D01*
X112619797Y-109473890D01*
X112619797Y-109473888D01*
X112619799Y-109473886D01*
X112650500Y-109359309D01*
X112650500Y-109240691D01*
X112643767Y-109215565D01*
X116224500Y-109215565D01*
X116224500Y-109314435D01*
X116236524Y-109359309D01*
X116250091Y-109409942D01*
X116291460Y-109481593D01*
X116299525Y-109495562D01*
X116369438Y-109565475D01*
X116369440Y-109565476D01*
X116455058Y-109614908D01*
X116455056Y-109614908D01*
X116455060Y-109614909D01*
X116455062Y-109614910D01*
X116550565Y-109640500D01*
X116550567Y-109640500D01*
X116649433Y-109640500D01*
X116649435Y-109640500D01*
X116744938Y-109614910D01*
X116744940Y-109614908D01*
X116744942Y-109614908D01*
X116789990Y-109588899D01*
X116830562Y-109565475D01*
X116900475Y-109495562D01*
X116949910Y-109409938D01*
X116975500Y-109314435D01*
X116975500Y-109215565D01*
X116949910Y-109120062D01*
X116900475Y-109034438D01*
X116830562Y-108964525D01*
X116794146Y-108943500D01*
X116744941Y-108915091D01*
X116744943Y-108915091D01*
X116707885Y-108905161D01*
X116649435Y-108889500D01*
X116550565Y-108889500D01*
X116492114Y-108905161D01*
X116455057Y-108915091D01*
X116369440Y-108964523D01*
X116299523Y-109034440D01*
X116250091Y-109120057D01*
X116248468Y-109126114D01*
X116224500Y-109215565D01*
X112643767Y-109215565D01*
X112619799Y-109126114D01*
X112619797Y-109126111D01*
X112619797Y-109126109D01*
X112560492Y-109023391D01*
X112560490Y-109023389D01*
X112560489Y-109023387D01*
X112476613Y-108939511D01*
X112476610Y-108939509D01*
X112476608Y-108939507D01*
X112373889Y-108880202D01*
X112373890Y-108880202D01*
X112360351Y-108876574D01*
X112259309Y-108849500D01*
X112140691Y-108849500D01*
X112070567Y-108868289D01*
X112026109Y-108880202D01*
X111923391Y-108939507D01*
X111923390Y-108939508D01*
X111923387Y-108939510D01*
X111923387Y-108939511D01*
X111870001Y-108992896D01*
X111815487Y-109020672D01*
X111755055Y-109011101D01*
X111729999Y-108992897D01*
X111676613Y-108939511D01*
X111676610Y-108939509D01*
X111676608Y-108939507D01*
X111573889Y-108880202D01*
X111573890Y-108880202D01*
X111560351Y-108876574D01*
X111459309Y-108849500D01*
X111340691Y-108849500D01*
X111270567Y-108868289D01*
X111226109Y-108880202D01*
X111123391Y-108939507D01*
X111039507Y-109023391D01*
X110980202Y-109126109D01*
X110975701Y-109142908D01*
X110949500Y-109240691D01*
X82350000Y-109240691D01*
X82350000Y-108518565D01*
X91613600Y-108518565D01*
X91613600Y-108617435D01*
X91636167Y-108701657D01*
X91639191Y-108712942D01*
X91688623Y-108798559D01*
X91688625Y-108798562D01*
X91758538Y-108868475D01*
X91758540Y-108868476D01*
X91844158Y-108917908D01*
X91844156Y-108917908D01*
X91844160Y-108917909D01*
X91844162Y-108917910D01*
X91939665Y-108943500D01*
X91939667Y-108943500D01*
X92038533Y-108943500D01*
X92038535Y-108943500D01*
X92134038Y-108917910D01*
X92134040Y-108917908D01*
X92134042Y-108917908D01*
X92159477Y-108903222D01*
X92219662Y-108868475D01*
X92289575Y-108798562D01*
X92339010Y-108712938D01*
X92364600Y-108617435D01*
X92364600Y-108518565D01*
X92339010Y-108423062D01*
X92339008Y-108423059D01*
X92339008Y-108423057D01*
X92289576Y-108337440D01*
X92289575Y-108337438D01*
X92219662Y-108267525D01*
X92176850Y-108242807D01*
X92134040Y-108218091D01*
X92134039Y-108218090D01*
X92134038Y-108218090D01*
X92038535Y-108192500D01*
X91939665Y-108192500D01*
X91881214Y-108208161D01*
X91844157Y-108218091D01*
X91758540Y-108267523D01*
X91688623Y-108337440D01*
X91639191Y-108423057D01*
X91633823Y-108443091D01*
X91613600Y-108518565D01*
X82350000Y-108518565D01*
X82350000Y-108136565D01*
X96560300Y-108136565D01*
X96560300Y-108235435D01*
X96568899Y-108267525D01*
X96585891Y-108330942D01*
X96635323Y-108416559D01*
X96635325Y-108416562D01*
X96705238Y-108486475D01*
X96715717Y-108492525D01*
X96790858Y-108535908D01*
X96790856Y-108535908D01*
X96790860Y-108535909D01*
X96790862Y-108535910D01*
X96886365Y-108561500D01*
X96886367Y-108561500D01*
X96985233Y-108561500D01*
X96985235Y-108561500D01*
X97080738Y-108535910D01*
X97080740Y-108535908D01*
X97080742Y-108535908D01*
X97110780Y-108518565D01*
X97166362Y-108486475D01*
X97236275Y-108416562D01*
X97285710Y-108330938D01*
X97311300Y-108235435D01*
X97311300Y-108136565D01*
X97285710Y-108041062D01*
X97270349Y-108014457D01*
X97257628Y-107954610D01*
X97282514Y-107898714D01*
X97286065Y-107894971D01*
X97300475Y-107880562D01*
X97334550Y-107821542D01*
X97349908Y-107794942D01*
X97349908Y-107794940D01*
X97349910Y-107794938D01*
X97375500Y-107699435D01*
X97375500Y-107600565D01*
X97349910Y-107505062D01*
X97300475Y-107419438D01*
X97281602Y-107400565D01*
X102189500Y-107400565D01*
X102189500Y-107499435D01*
X102191007Y-107505059D01*
X102215091Y-107594942D01*
X102264523Y-107680559D01*
X102264525Y-107680562D01*
X102334438Y-107750475D01*
X102334440Y-107750476D01*
X102420058Y-107799908D01*
X102420056Y-107799908D01*
X102420060Y-107799909D01*
X102420062Y-107799910D01*
X102515565Y-107825500D01*
X102515567Y-107825500D01*
X102614433Y-107825500D01*
X102614435Y-107825500D01*
X102709938Y-107799910D01*
X102709940Y-107799908D01*
X102709942Y-107799908D01*
X102735377Y-107785222D01*
X102795562Y-107750475D01*
X102865475Y-107680562D01*
X102914910Y-107594938D01*
X102940500Y-107499435D01*
X102940500Y-107400565D01*
X103339500Y-107400565D01*
X103339500Y-107499435D01*
X103341007Y-107505059D01*
X103365091Y-107594942D01*
X103414523Y-107680559D01*
X103414525Y-107680562D01*
X103484438Y-107750475D01*
X103484440Y-107750476D01*
X103570058Y-107799908D01*
X103570056Y-107799908D01*
X103570060Y-107799909D01*
X103570062Y-107799910D01*
X103665565Y-107825500D01*
X103665567Y-107825500D01*
X103764433Y-107825500D01*
X103764435Y-107825500D01*
X103859938Y-107799910D01*
X103859940Y-107799908D01*
X103859942Y-107799908D01*
X103885377Y-107785222D01*
X103945562Y-107750475D01*
X104015475Y-107680562D01*
X104064910Y-107594938D01*
X104090500Y-107499435D01*
X104090500Y-107400565D01*
X104064910Y-107305062D01*
X104064908Y-107305059D01*
X104064908Y-107305057D01*
X104015476Y-107219440D01*
X104015475Y-107219438D01*
X103945562Y-107149525D01*
X103945559Y-107149523D01*
X103859941Y-107100091D01*
X103859943Y-107100091D01*
X103822885Y-107090161D01*
X103764435Y-107074500D01*
X103665565Y-107074500D01*
X103607114Y-107090161D01*
X103570057Y-107100091D01*
X103484440Y-107149523D01*
X103414523Y-107219440D01*
X103365091Y-107305057D01*
X103365090Y-107305062D01*
X103339500Y-107400565D01*
X102940500Y-107400565D01*
X102914910Y-107305062D01*
X102914908Y-107305059D01*
X102914908Y-107305057D01*
X102865476Y-107219440D01*
X102865475Y-107219438D01*
X102795562Y-107149525D01*
X102795559Y-107149523D01*
X102709941Y-107100091D01*
X102709943Y-107100091D01*
X102672885Y-107090161D01*
X102614435Y-107074500D01*
X102515565Y-107074500D01*
X102457114Y-107090161D01*
X102420057Y-107100091D01*
X102334440Y-107149523D01*
X102264523Y-107219440D01*
X102215091Y-107305057D01*
X102215090Y-107305062D01*
X102189500Y-107400565D01*
X97281602Y-107400565D01*
X97230562Y-107349525D01*
X97230559Y-107349523D01*
X97144941Y-107300091D01*
X97144943Y-107300091D01*
X97107885Y-107290161D01*
X97049435Y-107274500D01*
X96950565Y-107274500D01*
X96892114Y-107290161D01*
X96855057Y-107300091D01*
X96769440Y-107349523D01*
X96699523Y-107419440D01*
X96650091Y-107505057D01*
X96650090Y-107505062D01*
X96624500Y-107600565D01*
X96624500Y-107699435D01*
X96647067Y-107783657D01*
X96650091Y-107794942D01*
X96665449Y-107821542D01*
X96678171Y-107881390D01*
X96653284Y-107937286D01*
X96649718Y-107941044D01*
X96635324Y-107955437D01*
X96585891Y-108041057D01*
X96585890Y-108041062D01*
X96560300Y-108136565D01*
X82350000Y-108136565D01*
X82350000Y-106350565D01*
X87025400Y-106350565D01*
X87025400Y-106449435D01*
X87041376Y-106509057D01*
X87050991Y-106544942D01*
X87085416Y-106604566D01*
X87100425Y-106630562D01*
X87170338Y-106700475D01*
X87175465Y-106703435D01*
X87255958Y-106749908D01*
X87255956Y-106749908D01*
X87255960Y-106749909D01*
X87255962Y-106749910D01*
X87351465Y-106775500D01*
X87351467Y-106775500D01*
X87450333Y-106775500D01*
X87450335Y-106775500D01*
X87545838Y-106749910D01*
X87545840Y-106749908D01*
X87545842Y-106749908D01*
X87571277Y-106735222D01*
X87631462Y-106700475D01*
X87701375Y-106630562D01*
X87750810Y-106544938D01*
X87771810Y-106466565D01*
X99044000Y-106466565D01*
X99044000Y-106565435D01*
X99054485Y-106604565D01*
X99069591Y-106660942D01*
X99119023Y-106746559D01*
X99119025Y-106746562D01*
X99188938Y-106816475D01*
X99188940Y-106816476D01*
X99274558Y-106865908D01*
X99274556Y-106865908D01*
X99274560Y-106865909D01*
X99274562Y-106865910D01*
X99370065Y-106891500D01*
X99370067Y-106891500D01*
X99468933Y-106891500D01*
X99468935Y-106891500D01*
X99564438Y-106865910D01*
X99564440Y-106865908D01*
X99564442Y-106865908D01*
X99589877Y-106851222D01*
X99650062Y-106816475D01*
X99719975Y-106746562D01*
X99769410Y-106660938D01*
X99784515Y-106604565D01*
X101496500Y-106604565D01*
X101496500Y-106703435D01*
X101508953Y-106749910D01*
X101522091Y-106798942D01*
X101560755Y-106865908D01*
X101571525Y-106884562D01*
X101641438Y-106954475D01*
X101641440Y-106954476D01*
X101727058Y-107003908D01*
X101727056Y-107003908D01*
X101727060Y-107003909D01*
X101727062Y-107003910D01*
X101822565Y-107029500D01*
X101822567Y-107029500D01*
X101921433Y-107029500D01*
X101921435Y-107029500D01*
X102016938Y-107003910D01*
X102016940Y-107003908D01*
X102016942Y-107003908D01*
X102042377Y-106989222D01*
X102102562Y-106954475D01*
X102172475Y-106884562D01*
X102207222Y-106824377D01*
X102221908Y-106798942D01*
X102221908Y-106798940D01*
X102221910Y-106798938D01*
X102247500Y-106703435D01*
X102247500Y-106604565D01*
X102221910Y-106509062D01*
X102221908Y-106509059D01*
X102221908Y-106509057D01*
X102172476Y-106423440D01*
X102172475Y-106423438D01*
X102102562Y-106353525D01*
X102097437Y-106350566D01*
X102016941Y-106304091D01*
X102016943Y-106304091D01*
X101979885Y-106294161D01*
X101921435Y-106278500D01*
X101822565Y-106278500D01*
X101764114Y-106294161D01*
X101727057Y-106304091D01*
X101641440Y-106353523D01*
X101571523Y-106423440D01*
X101522091Y-106509057D01*
X101522090Y-106509062D01*
X101496500Y-106604565D01*
X99784515Y-106604565D01*
X99795000Y-106565435D01*
X99795000Y-106466565D01*
X99769410Y-106371062D01*
X99769408Y-106371059D01*
X99769408Y-106371057D01*
X99719976Y-106285440D01*
X99719975Y-106285438D01*
X99650062Y-106215525D01*
X99641461Y-106210559D01*
X99564441Y-106166091D01*
X99564443Y-106166091D01*
X99527385Y-106156161D01*
X99468935Y-106140500D01*
X99370065Y-106140500D01*
X99311614Y-106156161D01*
X99274557Y-106166091D01*
X99188940Y-106215523D01*
X99119023Y-106285440D01*
X99069591Y-106371057D01*
X99069590Y-106371062D01*
X99044000Y-106466565D01*
X87771810Y-106466565D01*
X87776400Y-106449435D01*
X87776400Y-106350565D01*
X87750810Y-106255062D01*
X87750808Y-106255059D01*
X87750808Y-106255057D01*
X87701376Y-106169440D01*
X87701375Y-106169438D01*
X87631462Y-106099525D01*
X87631459Y-106099523D01*
X87545841Y-106050091D01*
X87545843Y-106050091D01*
X87508785Y-106040161D01*
X87450335Y-106024500D01*
X87351465Y-106024500D01*
X87293014Y-106040161D01*
X87255957Y-106050091D01*
X87170340Y-106099523D01*
X87100423Y-106169440D01*
X87050991Y-106255057D01*
X87044180Y-106280476D01*
X87025400Y-106350565D01*
X82350000Y-106350565D01*
X82350000Y-105930565D01*
X113254500Y-105930565D01*
X113254500Y-106029435D01*
X113260035Y-106050090D01*
X113280091Y-106124942D01*
X113329523Y-106210559D01*
X113329525Y-106210562D01*
X113399438Y-106280475D01*
X113399440Y-106280476D01*
X113485058Y-106329908D01*
X113485056Y-106329908D01*
X113485060Y-106329909D01*
X113485062Y-106329910D01*
X113580565Y-106355500D01*
X113580567Y-106355500D01*
X113679433Y-106355500D01*
X113679435Y-106355500D01*
X113774938Y-106329910D01*
X113774940Y-106329908D01*
X113774942Y-106329908D01*
X113800377Y-106315222D01*
X113860562Y-106280475D01*
X113930475Y-106210562D01*
X113979910Y-106124938D01*
X114005500Y-106029435D01*
X114005500Y-105930565D01*
X113979910Y-105835062D01*
X113979908Y-105835059D01*
X113979908Y-105835057D01*
X113930476Y-105749440D01*
X113930475Y-105749438D01*
X113860562Y-105679525D01*
X113860559Y-105679523D01*
X113774941Y-105630091D01*
X113774943Y-105630091D01*
X113737885Y-105620161D01*
X113679435Y-105604500D01*
X113580565Y-105604500D01*
X113522114Y-105620161D01*
X113485057Y-105630091D01*
X113399440Y-105679523D01*
X113329523Y-105749440D01*
X113280091Y-105835057D01*
X113265783Y-105888453D01*
X113254500Y-105930565D01*
X82350000Y-105930565D01*
X82350000Y-105430565D01*
X92969700Y-105430565D01*
X92969700Y-105529435D01*
X92987512Y-105595910D01*
X92995291Y-105624942D01*
X93044723Y-105710559D01*
X93044725Y-105710562D01*
X93114638Y-105780475D01*
X93114640Y-105780476D01*
X93200258Y-105829908D01*
X93200256Y-105829908D01*
X93200260Y-105829909D01*
X93200262Y-105829910D01*
X93295765Y-105855500D01*
X93295767Y-105855500D01*
X93394633Y-105855500D01*
X93394635Y-105855500D01*
X93490138Y-105829910D01*
X93490140Y-105829908D01*
X93490142Y-105829908D01*
X93515577Y-105815222D01*
X93575762Y-105780475D01*
X93645675Y-105710562D01*
X93692135Y-105630091D01*
X93695108Y-105624942D01*
X93695108Y-105624940D01*
X93695110Y-105624938D01*
X93720700Y-105529435D01*
X93720700Y-105430565D01*
X93695110Y-105335062D01*
X93695108Y-105335059D01*
X93695108Y-105335057D01*
X93657302Y-105269576D01*
X93645676Y-105249440D01*
X93645675Y-105249438D01*
X93622802Y-105226565D01*
X95389300Y-105226565D01*
X95389300Y-105325435D01*
X95391880Y-105335062D01*
X95414891Y-105420942D01*
X95464323Y-105506559D01*
X95464325Y-105506562D01*
X95534238Y-105576475D01*
X95534240Y-105576476D01*
X95619858Y-105625908D01*
X95619856Y-105625908D01*
X95619860Y-105625909D01*
X95619862Y-105625910D01*
X95715365Y-105651500D01*
X95715367Y-105651500D01*
X95814233Y-105651500D01*
X95814235Y-105651500D01*
X95909738Y-105625910D01*
X95909740Y-105625908D01*
X95909742Y-105625908D01*
X95946821Y-105604500D01*
X95995362Y-105576475D01*
X96065275Y-105506562D01*
X96114710Y-105420938D01*
X96140300Y-105325435D01*
X96140300Y-105226565D01*
X96132262Y-105196565D01*
X109578500Y-105196565D01*
X109578500Y-105295435D01*
X109589117Y-105335057D01*
X109604091Y-105390942D01*
X109653523Y-105476559D01*
X109653525Y-105476562D01*
X109723438Y-105546475D01*
X109723440Y-105546476D01*
X109809058Y-105595908D01*
X109809056Y-105595908D01*
X109809060Y-105595909D01*
X109809062Y-105595910D01*
X109904565Y-105621500D01*
X109904567Y-105621500D01*
X110003433Y-105621500D01*
X110003435Y-105621500D01*
X110098938Y-105595910D01*
X110098940Y-105595908D01*
X110098942Y-105595908D01*
X110132600Y-105576475D01*
X110184562Y-105546475D01*
X110254475Y-105476562D01*
X110303910Y-105390938D01*
X110329500Y-105295435D01*
X110329500Y-105196565D01*
X110303910Y-105101062D01*
X110303908Y-105101059D01*
X110303908Y-105101057D01*
X110254476Y-105015440D01*
X110254475Y-105015438D01*
X110184562Y-104945525D01*
X110184559Y-104945523D01*
X110098941Y-104896091D01*
X110098943Y-104896091D01*
X110061885Y-104886161D01*
X110003435Y-104870500D01*
X109904565Y-104870500D01*
X109846114Y-104886161D01*
X109809057Y-104896091D01*
X109723440Y-104945523D01*
X109653523Y-105015440D01*
X109604091Y-105101057D01*
X109589783Y-105154453D01*
X109578500Y-105196565D01*
X96132262Y-105196565D01*
X96114710Y-105131062D01*
X96114708Y-105131059D01*
X96114708Y-105131057D01*
X96065276Y-105045440D01*
X96065275Y-105045438D01*
X95995362Y-104975525D01*
X95995359Y-104975523D01*
X95909741Y-104926091D01*
X95909743Y-104926091D01*
X95872685Y-104916161D01*
X95814235Y-104900500D01*
X95715365Y-104900500D01*
X95656914Y-104916161D01*
X95619857Y-104926091D01*
X95534240Y-104975523D01*
X95464323Y-105045440D01*
X95414891Y-105131057D01*
X95414890Y-105131062D01*
X95389300Y-105226565D01*
X93622802Y-105226565D01*
X93575762Y-105179525D01*
X93575759Y-105179523D01*
X93490141Y-105130091D01*
X93490143Y-105130091D01*
X93453085Y-105120161D01*
X93394635Y-105104500D01*
X93295765Y-105104500D01*
X93237314Y-105120161D01*
X93200257Y-105130091D01*
X93114640Y-105179523D01*
X93044723Y-105249440D01*
X92995291Y-105335057D01*
X92995290Y-105335062D01*
X92969700Y-105430565D01*
X82350000Y-105430565D01*
X82350000Y-104170000D01*
X83465143Y-104170000D01*
X83940193Y-104170000D01*
X83920445Y-104204205D01*
X83900001Y-104280504D01*
X83900001Y-104359496D01*
X83920445Y-104435795D01*
X83940193Y-104470000D01*
X83465143Y-104470000D01*
X83478822Y-104538767D01*
X83535358Y-104675257D01*
X83617434Y-104798093D01*
X83721906Y-104902565D01*
X83844742Y-104984641D01*
X83981229Y-105041176D01*
X83981235Y-105041178D01*
X84126128Y-105069999D01*
X84126132Y-105070000D01*
X84449999Y-105070000D01*
X84450000Y-105069999D01*
X84450000Y-104619999D01*
X84750000Y-104619999D01*
X84750000Y-105069999D01*
X84750001Y-105070000D01*
X85073868Y-105070000D01*
X85073871Y-105069999D01*
X85218764Y-105041178D01*
X85218770Y-105041176D01*
X85355257Y-104984641D01*
X85478093Y-104902565D01*
X85582565Y-104798093D01*
X85664641Y-104675257D01*
X85721177Y-104538767D01*
X85734857Y-104470000D01*
X85259807Y-104470000D01*
X85279555Y-104435795D01*
X85299999Y-104359496D01*
X85299999Y-104280504D01*
X85279555Y-104204205D01*
X85259807Y-104170000D01*
X85734857Y-104170000D01*
X87495143Y-104170000D01*
X87970193Y-104170000D01*
X87950445Y-104204205D01*
X87930001Y-104280504D01*
X87930001Y-104359496D01*
X87950445Y-104435795D01*
X87970193Y-104470000D01*
X87495143Y-104470000D01*
X87508822Y-104538767D01*
X87565358Y-104675257D01*
X87647434Y-104798093D01*
X87751906Y-104902565D01*
X87874742Y-104984641D01*
X88011229Y-105041176D01*
X88011235Y-105041178D01*
X88156128Y-105069999D01*
X88156132Y-105070000D01*
X88629999Y-105070000D01*
X88630000Y-105069999D01*
X88630000Y-104619999D01*
X88930000Y-104619999D01*
X88930000Y-105069999D01*
X88930001Y-105070000D01*
X89403868Y-105070000D01*
X89403871Y-105069999D01*
X89548764Y-105041178D01*
X89548770Y-105041176D01*
X89685257Y-104984641D01*
X89808093Y-104902565D01*
X89912565Y-104798093D01*
X89994641Y-104675257D01*
X90051177Y-104538767D01*
X90064857Y-104470000D01*
X89589807Y-104470000D01*
X89609555Y-104435795D01*
X89629999Y-104359496D01*
X89629999Y-104280504D01*
X89609555Y-104204205D01*
X89589807Y-104170000D01*
X90064857Y-104170000D01*
X90051177Y-104101232D01*
X89996639Y-103969565D01*
X93021900Y-103969565D01*
X93021900Y-104068435D01*
X93029003Y-104094942D01*
X93047491Y-104163942D01*
X93085386Y-104229576D01*
X93096925Y-104249562D01*
X93166838Y-104319475D01*
X93166840Y-104319476D01*
X93252458Y-104368908D01*
X93252456Y-104368908D01*
X93252460Y-104368909D01*
X93252462Y-104368910D01*
X93347965Y-104394500D01*
X93347967Y-104394500D01*
X93446833Y-104394500D01*
X93446835Y-104394500D01*
X93542338Y-104368910D01*
X93542340Y-104368908D01*
X93542342Y-104368908D01*
X93567777Y-104354222D01*
X93627962Y-104319475D01*
X93661872Y-104285565D01*
X94448100Y-104285565D01*
X94448100Y-104384435D01*
X94450797Y-104394500D01*
X94473691Y-104479942D01*
X94519948Y-104560059D01*
X94523125Y-104565562D01*
X94593038Y-104635475D01*
X94593040Y-104635476D01*
X94678658Y-104684908D01*
X94678656Y-104684908D01*
X94678660Y-104684909D01*
X94678662Y-104684910D01*
X94774165Y-104710500D01*
X94774167Y-104710500D01*
X94873033Y-104710500D01*
X94873035Y-104710500D01*
X94968538Y-104684910D01*
X94968540Y-104684908D01*
X94968542Y-104684908D01*
X94993977Y-104670222D01*
X95054162Y-104635475D01*
X95124075Y-104565562D01*
X95173510Y-104479938D01*
X95199100Y-104384435D01*
X95199100Y-104360565D01*
X108109500Y-104360565D01*
X108109500Y-104459435D01*
X108114994Y-104479938D01*
X108135091Y-104554942D01*
X108184523Y-104640559D01*
X108184525Y-104640562D01*
X108254438Y-104710475D01*
X108282979Y-104726953D01*
X108340058Y-104759908D01*
X108340056Y-104759908D01*
X108340060Y-104759909D01*
X108340062Y-104759910D01*
X108435565Y-104785500D01*
X108435567Y-104785500D01*
X108534433Y-104785500D01*
X108534435Y-104785500D01*
X108629938Y-104759910D01*
X108629940Y-104759908D01*
X108629942Y-104759908D01*
X108655377Y-104745222D01*
X108715562Y-104710475D01*
X108785475Y-104640562D01*
X108828778Y-104565559D01*
X108834908Y-104554942D01*
X108834908Y-104554940D01*
X108834910Y-104554938D01*
X108860500Y-104459435D01*
X108860500Y-104360565D01*
X108834910Y-104265062D01*
X108834908Y-104265059D01*
X108834908Y-104265057D01*
X108785476Y-104179440D01*
X108785475Y-104179438D01*
X108715562Y-104109525D01*
X108706755Y-104104440D01*
X108629941Y-104060091D01*
X108629943Y-104060091D01*
X108592885Y-104050161D01*
X108534435Y-104034500D01*
X108435565Y-104034500D01*
X108377114Y-104050161D01*
X108340057Y-104060091D01*
X108254440Y-104109523D01*
X108184523Y-104179440D01*
X108135091Y-104265057D01*
X108135090Y-104265062D01*
X108109500Y-104360565D01*
X95199100Y-104360565D01*
X95199100Y-104285565D01*
X95173510Y-104190062D01*
X95173508Y-104190059D01*
X95173508Y-104190057D01*
X95124076Y-104104440D01*
X95124075Y-104104438D01*
X95054162Y-104034525D01*
X95029006Y-104020001D01*
X94968541Y-103985091D01*
X94968543Y-103985091D01*
X94931485Y-103975161D01*
X94873035Y-103959500D01*
X94774165Y-103959500D01*
X94715714Y-103975161D01*
X94678657Y-103985091D01*
X94593040Y-104034523D01*
X94523123Y-104104440D01*
X94473691Y-104190057D01*
X94463102Y-104229576D01*
X94448100Y-104285565D01*
X93661872Y-104285565D01*
X93697875Y-104249562D01*
X93747310Y-104163938D01*
X93772900Y-104068435D01*
X93772900Y-103969565D01*
X93747310Y-103874062D01*
X93747308Y-103874059D01*
X93747308Y-103874057D01*
X93697877Y-103788441D01*
X93697876Y-103788440D01*
X93697875Y-103788438D01*
X93653419Y-103743982D01*
X102674500Y-103743982D01*
X102674500Y-103856018D01*
X102693118Y-103925500D01*
X102703498Y-103964241D01*
X102758838Y-104060091D01*
X102759515Y-104061263D01*
X102838737Y-104140485D01*
X102838739Y-104140486D01*
X102935759Y-104196501D01*
X102935757Y-104196501D01*
X102935761Y-104196502D01*
X102935763Y-104196503D01*
X103043982Y-104225500D01*
X103043984Y-104225500D01*
X103156016Y-104225500D01*
X103156018Y-104225500D01*
X103264237Y-104196503D01*
X103264239Y-104196501D01*
X103264241Y-104196501D01*
X103293794Y-104179438D01*
X103361263Y-104140485D01*
X103440485Y-104061263D01*
X103484464Y-103985090D01*
X103496501Y-103964241D01*
X103496501Y-103964239D01*
X103496503Y-103964237D01*
X103525500Y-103856018D01*
X103525500Y-103743982D01*
X103496503Y-103635763D01*
X103496501Y-103635760D01*
X103496501Y-103635758D01*
X103440486Y-103538739D01*
X103440485Y-103538737D01*
X103361263Y-103459515D01*
X103345713Y-103450537D01*
X103264240Y-103403498D01*
X103264242Y-103403498D01*
X103217250Y-103390907D01*
X103156018Y-103374500D01*
X103043982Y-103374500D01*
X102982750Y-103390907D01*
X102935758Y-103403498D01*
X102838739Y-103459513D01*
X102759513Y-103538739D01*
X102703498Y-103635758D01*
X102694567Y-103669090D01*
X102674500Y-103743982D01*
X93653419Y-103743982D01*
X93627962Y-103718525D01*
X93627959Y-103718523D01*
X93542341Y-103669091D01*
X93542343Y-103669091D01*
X93505285Y-103659161D01*
X93446835Y-103643500D01*
X93347965Y-103643500D01*
X93289514Y-103659161D01*
X93252457Y-103669091D01*
X93166840Y-103718523D01*
X93096923Y-103788440D01*
X93047491Y-103874057D01*
X93040388Y-103900566D01*
X93021900Y-103969565D01*
X89996639Y-103969565D01*
X89994641Y-103964742D01*
X89912565Y-103841906D01*
X89808093Y-103737434D01*
X89685257Y-103655358D01*
X89548770Y-103598823D01*
X89548764Y-103598821D01*
X89535454Y-103596174D01*
X89403871Y-103570000D01*
X88930001Y-103570000D01*
X88930000Y-103570001D01*
X88930000Y-104020001D01*
X88630000Y-104020001D01*
X88630000Y-103570001D01*
X88629999Y-103570000D01*
X88521088Y-103570000D01*
X88462897Y-103551093D01*
X88429819Y-103505565D01*
X90544500Y-103505565D01*
X90544500Y-103604435D01*
X90556582Y-103649525D01*
X90570091Y-103699942D01*
X90616638Y-103780562D01*
X90619525Y-103785562D01*
X90689438Y-103855475D01*
X90689440Y-103855476D01*
X90775058Y-103904908D01*
X90775056Y-103904908D01*
X90775060Y-103904909D01*
X90775062Y-103904910D01*
X90870565Y-103930500D01*
X90870567Y-103930500D01*
X90969433Y-103930500D01*
X90969435Y-103930500D01*
X91064938Y-103904910D01*
X91150562Y-103855475D01*
X91220475Y-103785562D01*
X91269910Y-103699938D01*
X91295500Y-103604435D01*
X91295500Y-103505565D01*
X91269910Y-103410062D01*
X91269908Y-103410059D01*
X91269908Y-103410057D01*
X91220476Y-103324440D01*
X91220475Y-103324438D01*
X91150562Y-103254525D01*
X91150559Y-103254523D01*
X91064941Y-103205091D01*
X91064943Y-103205091D01*
X91027885Y-103195161D01*
X90969435Y-103179500D01*
X90870565Y-103179500D01*
X90812114Y-103195161D01*
X90775057Y-103205091D01*
X90689440Y-103254523D01*
X90619523Y-103324440D01*
X90570091Y-103410057D01*
X90570090Y-103410062D01*
X90544500Y-103505565D01*
X88429819Y-103505565D01*
X88426933Y-103501593D01*
X88426933Y-103440407D01*
X88462897Y-103390907D01*
X88479708Y-103381492D01*
X88482829Y-103379689D01*
X88482836Y-103379688D01*
X88602665Y-103310505D01*
X88700505Y-103212665D01*
X88769688Y-103092836D01*
X88805500Y-102959183D01*
X88805500Y-102820817D01*
X88769688Y-102687164D01*
X88700505Y-102567335D01*
X88602665Y-102469495D01*
X88482836Y-102400312D01*
X88349183Y-102364500D01*
X88210817Y-102364500D01*
X88077164Y-102400312D01*
X87957335Y-102469495D01*
X87859495Y-102567335D01*
X87790312Y-102687164D01*
X87754500Y-102820817D01*
X87754500Y-102959183D01*
X87790312Y-103092836D01*
X87859495Y-103212665D01*
X87957335Y-103310505D01*
X88077164Y-103379688D01*
X88108330Y-103388038D01*
X88159643Y-103421362D01*
X88181570Y-103478483D01*
X88165735Y-103537584D01*
X88118185Y-103576089D01*
X88102020Y-103580763D01*
X88011235Y-103598821D01*
X88011229Y-103598823D01*
X87874742Y-103655358D01*
X87751906Y-103737434D01*
X87647434Y-103841906D01*
X87565358Y-103964742D01*
X87508822Y-104101232D01*
X87495143Y-104170000D01*
X85734857Y-104170000D01*
X85721177Y-104101232D01*
X85664641Y-103964742D01*
X85582565Y-103841906D01*
X85478093Y-103737434D01*
X85355257Y-103655358D01*
X85218770Y-103598823D01*
X85218764Y-103598821D01*
X85073871Y-103570000D01*
X84750001Y-103570000D01*
X84750000Y-103570001D01*
X84750000Y-104020001D01*
X84450000Y-104020001D01*
X84450000Y-103570001D01*
X84449999Y-103570000D01*
X84126128Y-103570000D01*
X83981235Y-103598821D01*
X83981229Y-103598823D01*
X83844742Y-103655358D01*
X83721906Y-103737434D01*
X83617434Y-103841906D01*
X83535358Y-103964742D01*
X83478822Y-104101232D01*
X83465143Y-104170000D01*
X82350000Y-104170000D01*
X82350000Y-102277565D01*
X89321000Y-102277565D01*
X89321000Y-102376435D01*
X89327187Y-102399525D01*
X89346591Y-102471942D01*
X89396023Y-102557559D01*
X89396025Y-102557562D01*
X89465938Y-102627475D01*
X89465940Y-102627476D01*
X89551558Y-102676908D01*
X89551556Y-102676908D01*
X89551560Y-102676909D01*
X89551562Y-102676910D01*
X89647065Y-102702500D01*
X89647067Y-102702500D01*
X89745933Y-102702500D01*
X89745935Y-102702500D01*
X89841438Y-102676910D01*
X89841440Y-102676908D01*
X89841442Y-102676908D01*
X89887067Y-102650566D01*
X89927062Y-102627475D01*
X89996975Y-102557562D01*
X90046410Y-102471938D01*
X90072000Y-102376435D01*
X90072000Y-102360565D01*
X94861400Y-102360565D01*
X94861400Y-102459435D01*
X94876429Y-102515523D01*
X94886991Y-102554942D01*
X94936381Y-102640486D01*
X94936425Y-102640562D01*
X95006338Y-102710475D01*
X95006340Y-102710476D01*
X95024998Y-102721248D01*
X95065940Y-102766716D01*
X95074500Y-102806985D01*
X95074500Y-102899435D01*
X95097067Y-102983657D01*
X95100091Y-102994942D01*
X95137689Y-103060062D01*
X95149525Y-103080562D01*
X95219438Y-103150475D01*
X95219440Y-103150476D01*
X95305058Y-103199908D01*
X95305056Y-103199908D01*
X95305060Y-103199909D01*
X95305062Y-103199910D01*
X95400565Y-103225500D01*
X95400567Y-103225500D01*
X95499433Y-103225500D01*
X95499435Y-103225500D01*
X95594938Y-103199910D01*
X95594940Y-103199908D01*
X95594942Y-103199908D01*
X95638949Y-103174500D01*
X95680562Y-103150475D01*
X95750475Y-103080562D01*
X95799910Y-102994938D01*
X95825500Y-102899435D01*
X95825500Y-102800565D01*
X95799910Y-102705062D01*
X95799908Y-102705059D01*
X95799908Y-102705057D01*
X95750476Y-102619440D01*
X95750475Y-102619438D01*
X95680562Y-102549525D01*
X95661898Y-102538749D01*
X95620959Y-102493280D01*
X95612400Y-102453014D01*
X95612400Y-102360566D01*
X95612400Y-102360565D01*
X95586810Y-102265062D01*
X95586808Y-102265059D01*
X95586808Y-102265057D01*
X95574640Y-102243982D01*
X103024500Y-102243982D01*
X103024500Y-102356018D01*
X103047137Y-102440500D01*
X103053498Y-102464241D01*
X103105932Y-102555057D01*
X103109515Y-102561263D01*
X103188737Y-102640485D01*
X103204391Y-102649523D01*
X103285759Y-102696501D01*
X103285757Y-102696501D01*
X103285761Y-102696502D01*
X103285763Y-102696503D01*
X103393982Y-102725500D01*
X103393984Y-102725500D01*
X103506016Y-102725500D01*
X103506018Y-102725500D01*
X103614237Y-102696503D01*
X103614239Y-102696501D01*
X103614241Y-102696501D01*
X103648173Y-102676910D01*
X103693804Y-102650565D01*
X105834500Y-102650565D01*
X105834500Y-102749435D01*
X105846650Y-102794780D01*
X105860091Y-102844942D01*
X105895646Y-102906523D01*
X105909525Y-102930562D01*
X105979438Y-103000475D01*
X105979440Y-103000476D01*
X106065058Y-103049908D01*
X106065056Y-103049908D01*
X106065060Y-103049909D01*
X106065062Y-103049910D01*
X106160565Y-103075500D01*
X106160567Y-103075500D01*
X106259433Y-103075500D01*
X106259435Y-103075500D01*
X106354938Y-103049910D01*
X106435276Y-103003526D01*
X106495119Y-102990806D01*
X106551015Y-103015691D01*
X106581608Y-103068679D01*
X106580399Y-103114885D01*
X106569500Y-103155562D01*
X106569500Y-103155565D01*
X106569500Y-103254435D01*
X106581685Y-103299910D01*
X106595091Y-103349942D01*
X106644523Y-103435559D01*
X106644525Y-103435562D01*
X106714438Y-103505475D01*
X106714440Y-103505476D01*
X106800058Y-103554908D01*
X106800056Y-103554908D01*
X106800060Y-103554909D01*
X106800062Y-103554910D01*
X106895565Y-103580500D01*
X106895567Y-103580500D01*
X106994433Y-103580500D01*
X106994435Y-103580500D01*
X107089938Y-103554910D01*
X107089940Y-103554908D01*
X107089942Y-103554908D01*
X107117950Y-103538737D01*
X107175562Y-103505475D01*
X107180472Y-103500565D01*
X109474500Y-103500565D01*
X109474500Y-103599435D01*
X109493164Y-103669090D01*
X109500091Y-103694942D01*
X109549523Y-103780559D01*
X109549525Y-103780562D01*
X109619438Y-103850475D01*
X109619440Y-103850476D01*
X109705058Y-103899908D01*
X109705056Y-103899908D01*
X109705060Y-103899909D01*
X109705062Y-103899910D01*
X109800565Y-103925500D01*
X109800567Y-103925500D01*
X109899433Y-103925500D01*
X109899435Y-103925500D01*
X109992494Y-103900565D01*
X115034500Y-103900565D01*
X115034500Y-103999435D01*
X115050753Y-104060091D01*
X115060091Y-104094942D01*
X115099927Y-104163938D01*
X115109525Y-104180562D01*
X115179438Y-104250475D01*
X115179440Y-104250476D01*
X115265058Y-104299908D01*
X115265056Y-104299908D01*
X115265060Y-104299909D01*
X115265062Y-104299910D01*
X115360565Y-104325500D01*
X115360567Y-104325500D01*
X115459433Y-104325500D01*
X115459435Y-104325500D01*
X115554938Y-104299910D01*
X115554940Y-104299908D01*
X115554942Y-104299908D01*
X115588550Y-104280504D01*
X115640562Y-104250475D01*
X115710475Y-104180562D01*
X115759910Y-104094938D01*
X115785500Y-103999435D01*
X115785500Y-103900565D01*
X115759910Y-103805062D01*
X115759908Y-103805059D01*
X115759908Y-103805057D01*
X115710476Y-103719440D01*
X115710475Y-103719438D01*
X115640562Y-103649525D01*
X115640559Y-103649523D01*
X115554941Y-103600091D01*
X115554943Y-103600091D01*
X115517885Y-103590161D01*
X115459435Y-103574500D01*
X115360565Y-103574500D01*
X115302114Y-103590161D01*
X115265057Y-103600091D01*
X115179440Y-103649523D01*
X115109523Y-103719440D01*
X115060091Y-103805057D01*
X115060090Y-103805062D01*
X115034500Y-103900565D01*
X109992494Y-103900565D01*
X109994938Y-103899910D01*
X109994940Y-103899908D01*
X109994942Y-103899908D01*
X110039708Y-103874062D01*
X110080562Y-103850475D01*
X110150475Y-103780562D01*
X110199910Y-103694938D01*
X110225500Y-103599435D01*
X110225500Y-103500565D01*
X110199910Y-103405062D01*
X110199908Y-103405059D01*
X110199908Y-103405057D01*
X110150476Y-103319440D01*
X110150475Y-103319438D01*
X110080562Y-103249525D01*
X110080559Y-103249523D01*
X109994941Y-103200091D01*
X109994943Y-103200091D01*
X109957885Y-103190161D01*
X109899435Y-103174500D01*
X109800565Y-103174500D01*
X109742114Y-103190161D01*
X109705057Y-103200091D01*
X109619440Y-103249523D01*
X109549523Y-103319440D01*
X109500091Y-103405057D01*
X109491552Y-103436926D01*
X109474500Y-103500565D01*
X107180472Y-103500565D01*
X107245475Y-103435562D01*
X107280647Y-103374640D01*
X107280785Y-103374407D01*
X107303453Y-103354279D01*
X107325910Y-103334059D01*
X107326325Y-103333970D01*
X107326538Y-103333782D01*
X107327791Y-103333658D01*
X107366177Y-103325500D01*
X107399433Y-103325500D01*
X107399435Y-103325500D01*
X107494938Y-103299910D01*
X107494940Y-103299908D01*
X107494942Y-103299908D01*
X107520377Y-103285222D01*
X107580562Y-103250475D01*
X107650475Y-103180562D01*
X107699910Y-103094938D01*
X107725500Y-102999435D01*
X107725500Y-102999432D01*
X107726662Y-102995096D01*
X107759986Y-102943782D01*
X107817108Y-102921855D01*
X107876208Y-102937691D01*
X107908025Y-102971219D01*
X107951523Y-103046559D01*
X107951525Y-103046562D01*
X108021438Y-103116475D01*
X108021440Y-103116476D01*
X108107058Y-103165908D01*
X108107056Y-103165908D01*
X108107060Y-103165909D01*
X108107062Y-103165910D01*
X108202565Y-103191500D01*
X108202567Y-103191500D01*
X108301433Y-103191500D01*
X108301435Y-103191500D01*
X108396938Y-103165910D01*
X108396940Y-103165908D01*
X108396942Y-103165908D01*
X108423672Y-103150475D01*
X108482562Y-103116475D01*
X108552475Y-103046562D01*
X108601910Y-102960938D01*
X108627500Y-102865435D01*
X108627500Y-102766565D01*
X108601910Y-102671062D01*
X108601908Y-102671058D01*
X108601908Y-102671057D01*
X108552476Y-102585440D01*
X108552475Y-102585438D01*
X108482562Y-102515525D01*
X108461516Y-102503374D01*
X108396941Y-102466091D01*
X108396943Y-102466091D01*
X108359885Y-102456161D01*
X108301435Y-102440500D01*
X108202565Y-102440500D01*
X108144114Y-102456161D01*
X108107057Y-102466091D01*
X108021440Y-102515523D01*
X107951523Y-102585440D01*
X107902091Y-102671058D01*
X107902089Y-102671062D01*
X107875336Y-102770904D01*
X107842012Y-102822218D01*
X107784890Y-102844144D01*
X107725790Y-102828308D01*
X107693974Y-102794780D01*
X107650476Y-102719440D01*
X107650475Y-102719438D01*
X107580562Y-102649525D01*
X107565038Y-102640562D01*
X107494941Y-102600091D01*
X107494943Y-102600091D01*
X107457885Y-102590161D01*
X107399435Y-102574500D01*
X107300565Y-102574500D01*
X107242114Y-102590161D01*
X107205057Y-102600091D01*
X107119440Y-102649523D01*
X107049523Y-102719440D01*
X107014559Y-102780000D01*
X106969090Y-102820941D01*
X106928823Y-102829500D01*
X106895565Y-102829500D01*
X106840913Y-102844144D01*
X106800057Y-102855091D01*
X106719727Y-102901471D01*
X106659879Y-102914193D01*
X106603983Y-102889307D01*
X106573390Y-102836319D01*
X106574599Y-102790114D01*
X106585500Y-102749435D01*
X106585500Y-102650565D01*
X106559910Y-102555062D01*
X106559908Y-102555059D01*
X106559908Y-102555057D01*
X106510476Y-102469440D01*
X106510475Y-102469438D01*
X106440562Y-102399525D01*
X106440559Y-102399523D01*
X106354941Y-102350091D01*
X106354943Y-102350091D01*
X106317885Y-102340161D01*
X106259435Y-102324500D01*
X106160565Y-102324500D01*
X106102114Y-102340161D01*
X106065057Y-102350091D01*
X105979440Y-102399523D01*
X105909523Y-102469440D01*
X105860091Y-102555057D01*
X105851951Y-102585438D01*
X105834500Y-102650565D01*
X103693804Y-102650565D01*
X103711263Y-102640485D01*
X103790485Y-102561263D01*
X103842057Y-102471938D01*
X103846501Y-102464241D01*
X103846501Y-102464239D01*
X103846503Y-102464237D01*
X103875500Y-102356018D01*
X103875500Y-102243982D01*
X103846503Y-102135763D01*
X103846501Y-102135760D01*
X103846501Y-102135758D01*
X103790486Y-102038739D01*
X103790485Y-102038737D01*
X103711263Y-101959515D01*
X103697381Y-101951500D01*
X103614240Y-101903498D01*
X103614242Y-101903498D01*
X103572251Y-101892247D01*
X103506018Y-101874500D01*
X103393982Y-101874500D01*
X103327748Y-101892247D01*
X103285758Y-101903498D01*
X103188739Y-101959513D01*
X103109513Y-102038739D01*
X103053498Y-102135758D01*
X103053497Y-102135763D01*
X103024500Y-102243982D01*
X95574640Y-102243982D01*
X95537376Y-102179440D01*
X95537375Y-102179438D01*
X95467462Y-102109525D01*
X95467459Y-102109523D01*
X95381841Y-102060091D01*
X95381843Y-102060091D01*
X95344785Y-102050161D01*
X95286335Y-102034500D01*
X95187465Y-102034500D01*
X95129014Y-102050161D01*
X95091957Y-102060091D01*
X95006340Y-102109523D01*
X94936423Y-102179440D01*
X94886991Y-102265057D01*
X94873634Y-102314908D01*
X94861400Y-102360565D01*
X90072000Y-102360565D01*
X90072000Y-102277565D01*
X90046410Y-102182062D01*
X90046408Y-102182059D01*
X90046408Y-102182057D01*
X89996976Y-102096440D01*
X89996975Y-102096438D01*
X89927062Y-102026525D01*
X89927059Y-102026523D01*
X89872134Y-101994812D01*
X89872133Y-101994812D01*
X89841440Y-101977091D01*
X89841439Y-101977090D01*
X89841438Y-101977090D01*
X89745935Y-101951500D01*
X89647065Y-101951500D01*
X89588614Y-101967161D01*
X89551557Y-101977091D01*
X89465940Y-102026523D01*
X89396023Y-102096440D01*
X89346591Y-102182057D01*
X89332283Y-102235453D01*
X89321000Y-102277565D01*
X82350000Y-102277565D01*
X82350000Y-101915565D01*
X92889500Y-101915565D01*
X92889500Y-102014435D01*
X92901733Y-102060090D01*
X92915091Y-102109942D01*
X92964523Y-102195559D01*
X92964525Y-102195562D01*
X93034438Y-102265475D01*
X93055379Y-102277565D01*
X93120058Y-102314908D01*
X93120056Y-102314908D01*
X93120060Y-102314909D01*
X93120062Y-102314910D01*
X93215565Y-102340500D01*
X93215567Y-102340500D01*
X93314433Y-102340500D01*
X93314435Y-102340500D01*
X93409938Y-102314910D01*
X93409940Y-102314908D01*
X93409942Y-102314908D01*
X93490600Y-102268340D01*
X93491622Y-102267749D01*
X93495562Y-102265475D01*
X93565475Y-102195562D01*
X93614910Y-102109938D01*
X93640500Y-102014435D01*
X93640500Y-101915565D01*
X93614910Y-101820062D01*
X93614908Y-101820059D01*
X93614908Y-101820057D01*
X93565476Y-101734440D01*
X93565475Y-101734438D01*
X93495562Y-101664525D01*
X93495559Y-101664523D01*
X93409941Y-101615091D01*
X93409943Y-101615091D01*
X93372885Y-101605161D01*
X93314435Y-101589500D01*
X93215565Y-101589500D01*
X93157114Y-101605161D01*
X93120057Y-101615091D01*
X93034440Y-101664523D01*
X92964523Y-101734440D01*
X92915091Y-101820057D01*
X92915090Y-101820062D01*
X92889500Y-101915565D01*
X82350000Y-101915565D01*
X82350000Y-101300565D01*
X95074500Y-101300565D01*
X95074500Y-101399435D01*
X95097067Y-101483657D01*
X95100091Y-101494942D01*
X95149523Y-101580559D01*
X95149525Y-101580562D01*
X95219438Y-101650475D01*
X95219440Y-101650476D01*
X95305058Y-101699908D01*
X95305056Y-101699908D01*
X95305060Y-101699909D01*
X95305062Y-101699910D01*
X95400565Y-101725500D01*
X95400567Y-101725500D01*
X95499433Y-101725500D01*
X95499435Y-101725500D01*
X95594938Y-101699910D01*
X95594940Y-101699908D01*
X95594942Y-101699908D01*
X95620377Y-101685222D01*
X95680562Y-101650475D01*
X95750475Y-101580562D01*
X95799910Y-101494938D01*
X95825500Y-101399435D01*
X95825500Y-101300565D01*
X95799910Y-101205062D01*
X95799908Y-101205059D01*
X95799908Y-101205057D01*
X95750476Y-101119440D01*
X95750475Y-101119438D01*
X95680562Y-101049525D01*
X95680559Y-101049523D01*
X95594941Y-101000091D01*
X95594943Y-101000091D01*
X95557885Y-100990161D01*
X95499435Y-100974500D01*
X95400565Y-100974500D01*
X95342114Y-100990161D01*
X95305057Y-101000091D01*
X95219440Y-101049523D01*
X95149523Y-101119440D01*
X95100091Y-101205057D01*
X95085783Y-101258453D01*
X95074500Y-101300565D01*
X82350000Y-101300565D01*
X82350000Y-99850565D01*
X85914500Y-99850565D01*
X85914500Y-99949435D01*
X85927095Y-99996440D01*
X85940091Y-100044942D01*
X85989523Y-100130559D01*
X85989525Y-100130562D01*
X86059438Y-100200475D01*
X86059440Y-100200476D01*
X86145058Y-100249908D01*
X86145056Y-100249908D01*
X86145060Y-100249909D01*
X86145062Y-100249910D01*
X86240565Y-100275500D01*
X86240567Y-100275500D01*
X86339433Y-100275500D01*
X86339435Y-100275500D01*
X86434938Y-100249910D01*
X86434940Y-100249908D01*
X86434942Y-100249908D01*
X86483354Y-100221957D01*
X86520562Y-100200475D01*
X86590475Y-100130562D01*
X86626436Y-100068275D01*
X86639908Y-100044942D01*
X86639908Y-100044940D01*
X86639910Y-100044938D01*
X86665500Y-99949435D01*
X86665500Y-99850565D01*
X86639910Y-99755062D01*
X86639908Y-99755059D01*
X86639908Y-99755057D01*
X86590476Y-99669440D01*
X86590475Y-99669438D01*
X86520562Y-99599525D01*
X86520559Y-99599523D01*
X86434941Y-99550091D01*
X86434943Y-99550091D01*
X86388183Y-99537562D01*
X86339435Y-99524500D01*
X86240565Y-99524500D01*
X86191817Y-99537562D01*
X86145057Y-99550091D01*
X86059440Y-99599523D01*
X85989523Y-99669440D01*
X85940091Y-99755057D01*
X85929956Y-99792881D01*
X85914500Y-99850565D01*
X82350000Y-99850565D01*
X82350000Y-99290582D01*
X89854400Y-99290582D01*
X89854400Y-99402618D01*
X89868894Y-99456710D01*
X89883398Y-99510841D01*
X89939413Y-99607860D01*
X89939415Y-99607863D01*
X90018637Y-99687085D01*
X90018639Y-99687086D01*
X90115659Y-99743101D01*
X90115660Y-99743101D01*
X90115663Y-99743103D01*
X90145782Y-99751173D01*
X90197097Y-99784498D01*
X90219023Y-99841619D01*
X90203187Y-99900720D01*
X90155637Y-99939225D01*
X90145787Y-99942425D01*
X90131462Y-99946263D01*
X90115658Y-99950498D01*
X90018639Y-100006513D01*
X89939413Y-100085739D01*
X89883398Y-100182758D01*
X89878651Y-100200475D01*
X89854400Y-100290982D01*
X89854400Y-100403018D01*
X89876762Y-100486475D01*
X89883398Y-100511241D01*
X89939413Y-100608260D01*
X89939415Y-100608263D01*
X90018637Y-100687485D01*
X90018639Y-100687486D01*
X90115659Y-100743501D01*
X90115657Y-100743501D01*
X90115661Y-100743502D01*
X90115663Y-100743503D01*
X90223882Y-100772500D01*
X90223884Y-100772500D01*
X90335916Y-100772500D01*
X90335918Y-100772500D01*
X90444137Y-100743503D01*
X90444139Y-100743501D01*
X90444141Y-100743501D01*
X90495345Y-100713938D01*
X90541163Y-100687485D01*
X90620385Y-100608263D01*
X90662159Y-100535908D01*
X90676401Y-100511241D01*
X90676401Y-100511239D01*
X90676403Y-100511237D01*
X90705400Y-100403018D01*
X90705400Y-100290982D01*
X90679752Y-100195263D01*
X90676402Y-100182761D01*
X90676401Y-100182759D01*
X90673402Y-100177565D01*
X93078000Y-100177565D01*
X93078000Y-100276435D01*
X93092604Y-100330938D01*
X93103591Y-100371942D01*
X93153023Y-100457559D01*
X93153025Y-100457562D01*
X93222938Y-100527475D01*
X93237548Y-100535910D01*
X93308558Y-100576908D01*
X93308559Y-100576909D01*
X93308561Y-100576909D01*
X93308562Y-100576910D01*
X93332122Y-100583223D01*
X93383436Y-100616545D01*
X93405364Y-100673666D01*
X93405500Y-100678849D01*
X93405500Y-100686435D01*
X93423454Y-100753440D01*
X93431091Y-100781942D01*
X93480523Y-100867559D01*
X93480525Y-100867562D01*
X93550438Y-100937475D01*
X93550440Y-100937476D01*
X93636058Y-100986908D01*
X93636056Y-100986908D01*
X93636060Y-100986909D01*
X93636062Y-100986910D01*
X93731565Y-101012500D01*
X93731567Y-101012500D01*
X93830433Y-101012500D01*
X93830435Y-101012500D01*
X93925938Y-100986910D01*
X93925940Y-100986908D01*
X93925942Y-100986908D01*
X93999394Y-100944500D01*
X94011562Y-100937475D01*
X94029937Y-100919099D01*
X94084451Y-100891322D01*
X94144883Y-100900892D01*
X94149436Y-100903364D01*
X94176362Y-100918910D01*
X94271865Y-100944500D01*
X94271867Y-100944500D01*
X94370733Y-100944500D01*
X94370735Y-100944500D01*
X94466238Y-100918910D01*
X94466240Y-100918908D01*
X94466242Y-100918908D01*
X94499973Y-100899433D01*
X94551862Y-100869475D01*
X94620772Y-100800565D01*
X102174500Y-100800565D01*
X102174500Y-100899435D01*
X102184693Y-100937475D01*
X102200091Y-100994942D01*
X102249523Y-101080559D01*
X102249525Y-101080562D01*
X102319438Y-101150475D01*
X102319440Y-101150476D01*
X102405058Y-101199908D01*
X102405056Y-101199908D01*
X102405060Y-101199909D01*
X102405062Y-101199910D01*
X102500565Y-101225500D01*
X102500567Y-101225500D01*
X102599433Y-101225500D01*
X102599435Y-101225500D01*
X102694938Y-101199910D01*
X102694940Y-101199908D01*
X102694942Y-101199908D01*
X102720377Y-101185222D01*
X102780562Y-101150475D01*
X102850475Y-101080562D01*
X102896935Y-101000091D01*
X102899908Y-100994942D01*
X102899908Y-100994940D01*
X102899910Y-100994938D01*
X102916087Y-100934565D01*
X105834500Y-100934565D01*
X105834500Y-101033435D01*
X105847127Y-101080559D01*
X105860091Y-101128942D01*
X105904037Y-101205057D01*
X105909525Y-101214562D01*
X105979438Y-101284475D01*
X105979440Y-101284476D01*
X106065058Y-101333908D01*
X106065056Y-101333908D01*
X106065060Y-101333909D01*
X106065062Y-101333910D01*
X106160565Y-101359500D01*
X106160567Y-101359500D01*
X106259433Y-101359500D01*
X106259435Y-101359500D01*
X106354938Y-101333910D01*
X106354940Y-101333908D01*
X106354942Y-101333908D01*
X106380377Y-101319222D01*
X106440562Y-101284475D01*
X106510475Y-101214562D01*
X106559910Y-101128938D01*
X106585500Y-101033435D01*
X106585500Y-100934565D01*
X106559910Y-100839062D01*
X106559908Y-100839059D01*
X106559908Y-100839057D01*
X106510476Y-100753440D01*
X106510475Y-100753438D01*
X106440562Y-100683525D01*
X106423486Y-100673666D01*
X106354941Y-100634091D01*
X106354943Y-100634091D01*
X106317885Y-100624161D01*
X106259435Y-100608500D01*
X106160565Y-100608500D01*
X106102114Y-100624161D01*
X106065057Y-100634091D01*
X105979440Y-100683523D01*
X105909523Y-100753440D01*
X105860091Y-100839057D01*
X105846087Y-100891322D01*
X105834500Y-100934565D01*
X102916087Y-100934565D01*
X102925500Y-100899435D01*
X102925500Y-100800565D01*
X102899910Y-100705062D01*
X102899908Y-100705059D01*
X102899908Y-100705057D01*
X102850476Y-100619440D01*
X102850475Y-100619438D01*
X102780562Y-100549525D01*
X102780559Y-100549523D01*
X102694941Y-100500091D01*
X102694943Y-100500091D01*
X102657885Y-100490161D01*
X102599435Y-100474500D01*
X102500565Y-100474500D01*
X102442114Y-100490161D01*
X102405057Y-100500091D01*
X102319440Y-100549523D01*
X102249523Y-100619440D01*
X102200091Y-100705057D01*
X102187128Y-100753438D01*
X102174500Y-100800565D01*
X94620772Y-100800565D01*
X94621775Y-100799562D01*
X94671210Y-100713938D01*
X94696800Y-100618435D01*
X94696800Y-100519565D01*
X94671210Y-100424062D01*
X94671208Y-100424059D01*
X94671208Y-100424057D01*
X94621776Y-100338440D01*
X94621775Y-100338438D01*
X94551862Y-100268525D01*
X94551859Y-100268523D01*
X94471206Y-100221957D01*
X94471201Y-100221955D01*
X94466238Y-100219090D01*
X94378063Y-100195463D01*
X94377358Y-100195263D01*
X94352577Y-100178624D01*
X94327506Y-100162343D01*
X94327220Y-100161598D01*
X94326561Y-100161156D01*
X94317551Y-100136565D01*
X102949500Y-100136565D01*
X102949500Y-100235435D01*
X102960486Y-100276435D01*
X102975091Y-100330942D01*
X103016704Y-100403016D01*
X103024525Y-100416562D01*
X103094438Y-100486475D01*
X103094440Y-100486476D01*
X103180058Y-100535908D01*
X103180056Y-100535908D01*
X103180060Y-100535909D01*
X103180062Y-100535910D01*
X103275565Y-100561500D01*
X103275567Y-100561500D01*
X103374433Y-100561500D01*
X103374435Y-100561500D01*
X103469938Y-100535910D01*
X103469940Y-100535908D01*
X103469942Y-100535908D01*
X103531978Y-100500091D01*
X103555562Y-100486475D01*
X103625475Y-100416562D01*
X103670580Y-100338438D01*
X103674908Y-100330942D01*
X103674908Y-100330940D01*
X103674910Y-100330938D01*
X103700500Y-100235435D01*
X103700500Y-100210136D01*
X103719407Y-100151945D01*
X103758443Y-100121172D01*
X103758318Y-100120955D01*
X103759817Y-100120089D01*
X103761618Y-100118670D01*
X103763927Y-100117712D01*
X103763938Y-100117710D01*
X103849562Y-100068275D01*
X103919475Y-99998362D01*
X103968910Y-99912738D01*
X103994500Y-99817235D01*
X103994500Y-99817233D01*
X103996179Y-99810967D01*
X103999232Y-99811785D01*
X104019954Y-99768207D01*
X104066223Y-99740642D01*
X104124938Y-99724910D01*
X104210562Y-99675475D01*
X104280475Y-99605562D01*
X104329910Y-99519938D01*
X104355500Y-99424435D01*
X104355500Y-99325565D01*
X104337279Y-99257565D01*
X108938500Y-99257565D01*
X108938500Y-99356435D01*
X108943432Y-99374841D01*
X108964091Y-99451942D01*
X109013338Y-99537238D01*
X109013525Y-99537562D01*
X109083438Y-99607475D01*
X109083440Y-99607476D01*
X109169058Y-99656908D01*
X109169056Y-99656908D01*
X109169060Y-99656909D01*
X109169062Y-99656910D01*
X109264565Y-99682500D01*
X109264567Y-99682500D01*
X109363433Y-99682500D01*
X109363435Y-99682500D01*
X109458938Y-99656910D01*
X109458940Y-99656908D01*
X109458942Y-99656908D01*
X109484377Y-99642222D01*
X109544562Y-99607475D01*
X109614475Y-99537562D01*
X109655026Y-99467325D01*
X109663908Y-99451942D01*
X109663908Y-99451940D01*
X109663910Y-99451938D01*
X109689500Y-99356435D01*
X109689500Y-99257565D01*
X109663910Y-99162062D01*
X109663908Y-99162059D01*
X109663908Y-99162057D01*
X109617864Y-99082308D01*
X109614475Y-99076438D01*
X109544562Y-99006525D01*
X109543852Y-99006115D01*
X109458941Y-98957091D01*
X109458943Y-98957091D01*
X109421885Y-98947161D01*
X109363435Y-98931500D01*
X109264565Y-98931500D01*
X109206114Y-98947161D01*
X109169057Y-98957091D01*
X109083440Y-99006523D01*
X109013523Y-99076440D01*
X108964091Y-99162057D01*
X108958650Y-99182363D01*
X108938500Y-99257565D01*
X104337279Y-99257565D01*
X104329910Y-99230062D01*
X104329908Y-99230059D01*
X104329908Y-99230057D01*
X104280476Y-99144440D01*
X104280475Y-99144438D01*
X104230899Y-99094862D01*
X104203124Y-99040348D01*
X104212695Y-98979916D01*
X104215169Y-98975361D01*
X104263908Y-98890942D01*
X104263908Y-98890940D01*
X104263910Y-98890938D01*
X104289500Y-98795435D01*
X104289500Y-98696565D01*
X104263910Y-98601062D01*
X104263908Y-98601059D01*
X104263908Y-98601057D01*
X104215276Y-98516825D01*
X104214475Y-98515438D01*
X104144562Y-98445525D01*
X104144559Y-98445523D01*
X104058941Y-98396091D01*
X104058943Y-98396091D01*
X104021885Y-98386161D01*
X103963435Y-98370500D01*
X103864565Y-98370500D01*
X103806114Y-98386161D01*
X103769057Y-98396091D01*
X103683440Y-98445523D01*
X103651367Y-98477596D01*
X103596850Y-98505372D01*
X103536418Y-98495800D01*
X103531864Y-98493328D01*
X103486939Y-98467390D01*
X103455103Y-98458860D01*
X103391435Y-98441800D01*
X103292565Y-98441800D01*
X103234114Y-98457461D01*
X103197057Y-98467391D01*
X103111440Y-98516823D01*
X103041523Y-98586740D01*
X102992091Y-98672357D01*
X102978183Y-98724265D01*
X102966500Y-98767865D01*
X102966500Y-98866735D01*
X102981067Y-98921100D01*
X102992091Y-98962242D01*
X103040724Y-99046475D01*
X103041525Y-99047862D01*
X103111438Y-99117775D01*
X103111440Y-99117776D01*
X103197058Y-99167208D01*
X103197056Y-99167208D01*
X103197060Y-99167209D01*
X103197062Y-99167210D01*
X103292565Y-99192800D01*
X103292567Y-99192800D01*
X103391433Y-99192800D01*
X103391435Y-99192800D01*
X103486938Y-99167210D01*
X103486939Y-99167209D01*
X103493206Y-99165530D01*
X103494006Y-99168518D01*
X103542327Y-99164663D01*
X103594531Y-99196576D01*
X103618006Y-99253079D01*
X103614947Y-99286575D01*
X103602821Y-99331832D01*
X103599827Y-99331029D01*
X103578809Y-99374841D01*
X103532775Y-99402157D01*
X103474062Y-99417889D01*
X103474058Y-99417891D01*
X103388440Y-99467323D01*
X103318523Y-99537240D01*
X103269091Y-99622857D01*
X103269090Y-99622862D01*
X103251882Y-99687085D01*
X103243500Y-99718366D01*
X103243500Y-99743663D01*
X103224593Y-99801854D01*
X103185555Y-99832628D01*
X103185681Y-99832845D01*
X103184184Y-99833709D01*
X103182387Y-99835126D01*
X103180062Y-99836088D01*
X103094440Y-99885523D01*
X103024523Y-99955440D01*
X102975091Y-100041057D01*
X102967798Y-100068275D01*
X102949500Y-100136565D01*
X94317551Y-100136565D01*
X94316293Y-100133132D01*
X94305580Y-100105221D01*
X94305772Y-100104417D01*
X94305512Y-100103705D01*
X94308281Y-100093970D01*
X94318707Y-100050541D01*
X94350810Y-99994938D01*
X94376400Y-99899435D01*
X94376400Y-99800565D01*
X94350810Y-99705062D01*
X94350808Y-99705059D01*
X94350808Y-99705057D01*
X94301376Y-99619440D01*
X94301375Y-99619438D01*
X94231462Y-99549525D01*
X94231459Y-99549523D01*
X94145841Y-99500091D01*
X94145843Y-99500091D01*
X94108785Y-99490161D01*
X94050335Y-99474500D01*
X93951465Y-99474500D01*
X93893014Y-99490161D01*
X93855957Y-99500091D01*
X93770340Y-99549523D01*
X93700423Y-99619440D01*
X93650992Y-99705056D01*
X93650990Y-99705060D01*
X93650990Y-99705062D01*
X93630086Y-99783078D01*
X93596761Y-99834392D01*
X93539640Y-99856318D01*
X93508841Y-99853082D01*
X93502937Y-99851500D01*
X93502935Y-99851500D01*
X93404065Y-99851500D01*
X93345614Y-99867161D01*
X93308557Y-99877091D01*
X93222940Y-99926523D01*
X93153023Y-99996440D01*
X93103591Y-100082057D01*
X93094039Y-100117706D01*
X93078000Y-100177565D01*
X90673402Y-100177565D01*
X90620386Y-100085739D01*
X90620385Y-100085737D01*
X90541163Y-100006515D01*
X90527042Y-99998362D01*
X90444140Y-99950498D01*
X90444142Y-99950498D01*
X90432962Y-99947502D01*
X90414015Y-99942426D01*
X90362703Y-99909103D01*
X90340776Y-99851982D01*
X90356611Y-99792881D01*
X90404161Y-99754376D01*
X90414006Y-99751176D01*
X90444137Y-99743103D01*
X90444139Y-99743101D01*
X90444141Y-99743101D01*
X90475652Y-99724908D01*
X90541163Y-99687085D01*
X90620385Y-99607863D01*
X90676403Y-99510837D01*
X90705400Y-99402618D01*
X90705400Y-99290582D01*
X90676403Y-99182363D01*
X90676401Y-99182360D01*
X90676401Y-99182358D01*
X90629068Y-99100376D01*
X90620386Y-99085339D01*
X90620385Y-99085337D01*
X90592413Y-99057365D01*
X92393700Y-99057365D01*
X92393700Y-99156235D01*
X92413481Y-99230057D01*
X92419291Y-99251742D01*
X92465532Y-99331832D01*
X92468725Y-99337362D01*
X92538638Y-99407275D01*
X92567179Y-99423753D01*
X92624258Y-99456708D01*
X92624256Y-99456708D01*
X92624260Y-99456709D01*
X92624262Y-99456710D01*
X92719765Y-99482300D01*
X92719767Y-99482300D01*
X92818633Y-99482300D01*
X92818635Y-99482300D01*
X92914138Y-99456710D01*
X92914140Y-99456708D01*
X92914142Y-99456708D01*
X92939577Y-99442022D01*
X92999762Y-99407275D01*
X93069675Y-99337362D01*
X93119110Y-99251738D01*
X93144700Y-99156235D01*
X93144700Y-99057365D01*
X93119110Y-98961862D01*
X93119108Y-98961859D01*
X93119108Y-98961857D01*
X93069676Y-98876240D01*
X93069675Y-98876238D01*
X92999762Y-98806325D01*
X92914138Y-98756890D01*
X92818635Y-98731300D01*
X92719765Y-98731300D01*
X92661314Y-98746961D01*
X92624257Y-98756891D01*
X92538640Y-98806323D01*
X92468723Y-98876240D01*
X92419291Y-98961857D01*
X92419290Y-98961862D01*
X92393700Y-99057365D01*
X90592413Y-99057365D01*
X90541163Y-99006115D01*
X90537954Y-99004262D01*
X90444140Y-98950098D01*
X90444142Y-98950098D01*
X90402151Y-98938847D01*
X90335918Y-98921100D01*
X90223882Y-98921100D01*
X90157648Y-98938847D01*
X90115658Y-98950098D01*
X90018639Y-99006113D01*
X89939413Y-99085339D01*
X89883398Y-99182358D01*
X89870616Y-99230062D01*
X89854400Y-99290582D01*
X82350000Y-99290582D01*
X82350000Y-98682965D01*
X88097300Y-98682965D01*
X88097300Y-98781835D01*
X88119867Y-98866057D01*
X88122891Y-98877342D01*
X88168935Y-98957091D01*
X88172325Y-98962962D01*
X88242238Y-99032875D01*
X88242240Y-99032876D01*
X88327858Y-99082308D01*
X88327856Y-99082308D01*
X88327860Y-99082309D01*
X88327862Y-99082310D01*
X88423365Y-99107900D01*
X88423367Y-99107900D01*
X88522233Y-99107900D01*
X88522235Y-99107900D01*
X88617738Y-99082310D01*
X88617740Y-99082308D01*
X88617742Y-99082308D01*
X88660944Y-99057365D01*
X88703362Y-99032875D01*
X88773275Y-98962962D01*
X88822710Y-98877338D01*
X88848300Y-98781835D01*
X88848300Y-98724265D01*
X94049100Y-98724265D01*
X94049100Y-98823135D01*
X94063624Y-98877338D01*
X94074691Y-98918642D01*
X94124123Y-99004259D01*
X94124125Y-99004262D01*
X94194038Y-99074175D01*
X94194040Y-99074176D01*
X94279658Y-99123608D01*
X94279656Y-99123608D01*
X94279660Y-99123609D01*
X94279662Y-99123610D01*
X94375165Y-99149200D01*
X94375167Y-99149200D01*
X94474033Y-99149200D01*
X94474035Y-99149200D01*
X94569538Y-99123610D01*
X94569540Y-99123608D01*
X94569542Y-99123608D01*
X94596749Y-99107900D01*
X94655162Y-99074175D01*
X94725075Y-99004262D01*
X94774510Y-98918638D01*
X94800100Y-98823135D01*
X94800100Y-98724265D01*
X94774510Y-98628762D01*
X94774508Y-98628759D01*
X94774508Y-98628757D01*
X94725076Y-98543140D01*
X94725075Y-98543138D01*
X94655162Y-98473225D01*
X94655159Y-98473223D01*
X94569541Y-98423791D01*
X94569543Y-98423791D01*
X94532485Y-98413861D01*
X94474035Y-98398200D01*
X94375165Y-98398200D01*
X94316714Y-98413861D01*
X94279657Y-98423791D01*
X94194040Y-98473223D01*
X94124123Y-98543140D01*
X94074691Y-98628757D01*
X94074690Y-98628762D01*
X94049100Y-98724265D01*
X88848300Y-98724265D01*
X88848300Y-98682965D01*
X88822710Y-98587462D01*
X88822708Y-98587459D01*
X88822708Y-98587457D01*
X88773276Y-98501840D01*
X88773275Y-98501838D01*
X88703362Y-98431925D01*
X88703359Y-98431923D01*
X88617741Y-98382491D01*
X88617743Y-98382491D01*
X88572991Y-98370500D01*
X88522235Y-98356900D01*
X88423365Y-98356900D01*
X88372609Y-98370500D01*
X88327857Y-98382491D01*
X88242240Y-98431923D01*
X88172323Y-98501840D01*
X88122891Y-98587457D01*
X88122890Y-98587462D01*
X88097300Y-98682965D01*
X82350000Y-98682965D01*
X82350000Y-97045065D01*
X83591900Y-97045065D01*
X83591900Y-97143935D01*
X83605986Y-97196503D01*
X83617491Y-97239442D01*
X83659866Y-97312836D01*
X83666925Y-97325062D01*
X83736838Y-97394975D01*
X83762862Y-97410000D01*
X83822458Y-97444408D01*
X83822456Y-97444408D01*
X83822460Y-97444409D01*
X83822462Y-97444410D01*
X83917965Y-97470000D01*
X83917967Y-97470000D01*
X84016833Y-97470000D01*
X84016835Y-97470000D01*
X84112338Y-97444410D01*
X84112340Y-97444408D01*
X84112342Y-97444408D01*
X84169750Y-97411263D01*
X84197962Y-97394975D01*
X84267875Y-97325062D01*
X84305720Y-97259513D01*
X84317308Y-97239442D01*
X84317308Y-97239440D01*
X84317310Y-97239438D01*
X84342900Y-97143935D01*
X84342900Y-97045065D01*
X84317310Y-96949562D01*
X84317308Y-96949559D01*
X84317308Y-96949557D01*
X84267876Y-96863940D01*
X84267875Y-96863938D01*
X84197962Y-96794025D01*
X84187894Y-96788212D01*
X84112341Y-96744591D01*
X84112343Y-96744591D01*
X84068106Y-96732738D01*
X84016835Y-96719000D01*
X83917965Y-96719000D01*
X83866694Y-96732738D01*
X83822457Y-96744591D01*
X83736840Y-96794023D01*
X83666923Y-96863940D01*
X83617491Y-96949557D01*
X83606933Y-96988962D01*
X83591900Y-97045065D01*
X82350000Y-97045065D01*
X82350000Y-95530000D01*
X83465143Y-95530000D01*
X83940193Y-95530000D01*
X83920445Y-95564205D01*
X83900001Y-95640504D01*
X83900001Y-95719496D01*
X83920445Y-95795795D01*
X83940193Y-95830000D01*
X83465143Y-95830000D01*
X83478822Y-95898767D01*
X83535358Y-96035257D01*
X83617434Y-96158093D01*
X83721906Y-96262565D01*
X83844742Y-96344641D01*
X83981229Y-96401176D01*
X83981235Y-96401178D01*
X84126128Y-96429999D01*
X84126132Y-96430000D01*
X84449999Y-96430000D01*
X84450000Y-96429999D01*
X84450000Y-95979999D01*
X84750000Y-95979999D01*
X84750000Y-96429999D01*
X84750001Y-96430000D01*
X85073868Y-96430000D01*
X85073871Y-96429999D01*
X85218764Y-96401178D01*
X85218770Y-96401176D01*
X85355257Y-96344641D01*
X85478093Y-96262565D01*
X85582565Y-96158093D01*
X85664641Y-96035257D01*
X85721177Y-95898767D01*
X85734857Y-95830000D01*
X85259807Y-95830000D01*
X85279555Y-95795795D01*
X85299999Y-95719496D01*
X85299999Y-95640504D01*
X85279555Y-95564205D01*
X85259807Y-95530000D01*
X85734857Y-95530000D01*
X87495143Y-95530000D01*
X87970181Y-95530000D01*
X87950433Y-95564205D01*
X87929989Y-95640504D01*
X87929989Y-95719496D01*
X87950433Y-95795795D01*
X87970181Y-95830000D01*
X87495143Y-95830000D01*
X87508822Y-95898767D01*
X87565358Y-96035257D01*
X87647434Y-96158093D01*
X87751906Y-96262565D01*
X87874742Y-96344641D01*
X88011229Y-96401176D01*
X88011237Y-96401178D01*
X88102019Y-96419236D01*
X88155404Y-96449132D01*
X88181020Y-96504697D01*
X88169083Y-96564707D01*
X88124154Y-96606240D01*
X88108331Y-96611960D01*
X88077166Y-96620311D01*
X88077164Y-96620311D01*
X88077164Y-96620312D01*
X87957335Y-96689495D01*
X87859495Y-96787335D01*
X87790312Y-96907164D01*
X87754500Y-97040817D01*
X87754500Y-97179183D01*
X87790312Y-97312836D01*
X87859495Y-97432665D01*
X87957335Y-97530505D01*
X88077164Y-97599688D01*
X88210817Y-97635500D01*
X88210819Y-97635500D01*
X88349181Y-97635500D01*
X88349183Y-97635500D01*
X88482836Y-97599688D01*
X88567920Y-97550565D01*
X88984500Y-97550565D01*
X88984500Y-97649435D01*
X89004040Y-97722359D01*
X89010091Y-97744942D01*
X89059523Y-97830559D01*
X89059525Y-97830562D01*
X89129438Y-97900475D01*
X89129440Y-97900476D01*
X89215058Y-97949908D01*
X89215056Y-97949908D01*
X89215060Y-97949909D01*
X89215062Y-97949910D01*
X89310565Y-97975500D01*
X89310567Y-97975500D01*
X89409433Y-97975500D01*
X89409435Y-97975500D01*
X89504938Y-97949910D01*
X89504940Y-97949908D01*
X89504942Y-97949908D01*
X89530377Y-97935222D01*
X89590562Y-97900475D01*
X89660475Y-97830562D01*
X89698768Y-97764237D01*
X89709908Y-97744942D01*
X89709908Y-97744940D01*
X89709910Y-97744938D01*
X89735500Y-97649435D01*
X89735500Y-97550565D01*
X89733736Y-97543982D01*
X91774500Y-97543982D01*
X91774500Y-97656018D01*
X91792276Y-97722359D01*
X91803498Y-97764241D01*
X91859513Y-97861260D01*
X91859515Y-97861263D01*
X91938737Y-97940485D01*
X91938739Y-97940486D01*
X92035759Y-97996501D01*
X92035757Y-97996501D01*
X92035761Y-97996502D01*
X92035763Y-97996503D01*
X92143982Y-98025500D01*
X92143984Y-98025500D01*
X92256016Y-98025500D01*
X92256018Y-98025500D01*
X92364237Y-97996503D01*
X92364239Y-97996501D01*
X92364241Y-97996501D01*
X92400615Y-97975500D01*
X92461263Y-97940485D01*
X92486583Y-97915165D01*
X95914900Y-97915165D01*
X95914900Y-98014035D01*
X95934176Y-98085975D01*
X95940491Y-98109542D01*
X95989923Y-98195159D01*
X95989925Y-98195162D01*
X96059838Y-98265075D01*
X96059840Y-98265076D01*
X96145458Y-98314508D01*
X96145456Y-98314508D01*
X96145460Y-98314509D01*
X96145462Y-98314510D01*
X96240965Y-98340100D01*
X96240967Y-98340100D01*
X96339833Y-98340100D01*
X96339835Y-98340100D01*
X96435338Y-98314510D01*
X96435340Y-98314508D01*
X96435342Y-98314508D01*
X96460777Y-98299822D01*
X96520962Y-98265075D01*
X96590875Y-98195162D01*
X96640310Y-98109538D01*
X96665900Y-98014035D01*
X96665900Y-97915165D01*
X96640310Y-97819662D01*
X96640308Y-97819659D01*
X96640308Y-97819657D01*
X96590876Y-97734040D01*
X96590875Y-97734038D01*
X96520962Y-97664125D01*
X96520959Y-97664123D01*
X96435341Y-97614691D01*
X96435343Y-97614691D01*
X96398285Y-97604761D01*
X96339835Y-97589100D01*
X96240965Y-97589100D01*
X96182514Y-97604761D01*
X96145457Y-97614691D01*
X96059840Y-97664123D01*
X95989923Y-97734040D01*
X95940491Y-97819657D01*
X95929343Y-97861263D01*
X95914900Y-97915165D01*
X92486583Y-97915165D01*
X92540485Y-97861263D01*
X92596503Y-97764237D01*
X92625500Y-97656018D01*
X92625500Y-97543982D01*
X92596503Y-97435763D01*
X92596501Y-97435760D01*
X92596501Y-97435758D01*
X92544969Y-97346503D01*
X92540485Y-97338737D01*
X92461263Y-97259515D01*
X92461260Y-97259513D01*
X92364240Y-97203498D01*
X92364242Y-97203498D01*
X92318810Y-97191325D01*
X92256018Y-97174500D01*
X92143982Y-97174500D01*
X92099873Y-97186319D01*
X92035758Y-97203498D01*
X91938739Y-97259513D01*
X91859513Y-97338739D01*
X91803498Y-97435758D01*
X91801180Y-97444410D01*
X91774500Y-97543982D01*
X89733736Y-97543982D01*
X89709910Y-97455062D01*
X89709908Y-97455059D01*
X89709908Y-97455057D01*
X89660476Y-97369440D01*
X89660475Y-97369438D01*
X89590562Y-97299525D01*
X89590060Y-97299235D01*
X89504941Y-97250091D01*
X89504943Y-97250091D01*
X89451454Y-97235759D01*
X89409435Y-97224500D01*
X89310565Y-97224500D01*
X89268546Y-97235759D01*
X89215057Y-97250091D01*
X89129440Y-97299523D01*
X89059523Y-97369440D01*
X89010091Y-97455057D01*
X89010090Y-97455062D01*
X88984500Y-97550565D01*
X88567920Y-97550565D01*
X88602665Y-97530505D01*
X88700505Y-97432665D01*
X88769688Y-97312836D01*
X88805500Y-97179183D01*
X88805500Y-97093982D01*
X95224500Y-97093982D01*
X95224500Y-97206018D01*
X95239009Y-97260165D01*
X95253498Y-97314241D01*
X95301087Y-97396666D01*
X95309515Y-97411263D01*
X95388737Y-97490485D01*
X95397484Y-97495535D01*
X95485759Y-97546501D01*
X95485757Y-97546501D01*
X95485761Y-97546502D01*
X95485763Y-97546503D01*
X95593982Y-97575500D01*
X95593984Y-97575500D01*
X95706016Y-97575500D01*
X95706018Y-97575500D01*
X95814237Y-97546503D01*
X95814239Y-97546501D01*
X95814241Y-97546501D01*
X95843064Y-97529859D01*
X95911263Y-97490485D01*
X95990485Y-97411263D01*
X96046503Y-97314237D01*
X96075500Y-97206018D01*
X96075500Y-97093982D01*
X96046503Y-96985763D01*
X96046501Y-96985760D01*
X96046501Y-96985758D01*
X95990486Y-96888739D01*
X95990485Y-96888737D01*
X95911263Y-96809515D01*
X95874364Y-96788211D01*
X95874363Y-96788210D01*
X95814240Y-96753498D01*
X95814242Y-96753498D01*
X95772251Y-96742247D01*
X95706018Y-96724500D01*
X95593982Y-96724500D01*
X95527748Y-96742247D01*
X95485758Y-96753498D01*
X95388739Y-96809513D01*
X95309513Y-96888739D01*
X95253498Y-96985758D01*
X95252640Y-96988962D01*
X95224500Y-97093982D01*
X88805500Y-97093982D01*
X88805500Y-97040817D01*
X88769688Y-96907164D01*
X88700505Y-96787335D01*
X88622135Y-96708965D01*
X96341800Y-96708965D01*
X96341800Y-96807835D01*
X96355848Y-96860262D01*
X96367391Y-96903342D01*
X96412137Y-96980842D01*
X96416825Y-96988962D01*
X96486738Y-97058875D01*
X96486740Y-97058876D01*
X96572358Y-97108308D01*
X96572356Y-97108308D01*
X96572360Y-97108309D01*
X96572362Y-97108310D01*
X96667865Y-97133900D01*
X96667867Y-97133900D01*
X96766735Y-97133900D01*
X96778326Y-97130794D01*
X96839427Y-97133995D01*
X96886978Y-97172499D01*
X96889671Y-97176893D01*
X96909515Y-97211263D01*
X96988737Y-97290485D01*
X97007230Y-97301162D01*
X97085759Y-97346501D01*
X97085757Y-97346501D01*
X97085761Y-97346502D01*
X97085763Y-97346503D01*
X97193982Y-97375500D01*
X97193984Y-97375500D01*
X97306016Y-97375500D01*
X97306018Y-97375500D01*
X97414237Y-97346503D01*
X97414239Y-97346501D01*
X97414241Y-97346501D01*
X97470123Y-97314237D01*
X97511263Y-97290485D01*
X97590485Y-97211263D01*
X97590486Y-97211260D01*
X97595073Y-97206674D01*
X97596073Y-97207674D01*
X97640488Y-97177137D01*
X97701653Y-97178727D01*
X97718123Y-97186318D01*
X97735763Y-97196503D01*
X97781624Y-97208791D01*
X97832937Y-97242113D01*
X97854864Y-97299235D01*
X97855000Y-97304417D01*
X97855000Y-97359035D01*
X97874729Y-97432664D01*
X97880591Y-97454542D01*
X97930023Y-97540159D01*
X97930025Y-97540162D01*
X97999938Y-97610075D01*
X98007933Y-97614691D01*
X98085558Y-97659508D01*
X98085556Y-97659508D01*
X98085560Y-97659509D01*
X98085562Y-97659510D01*
X98181065Y-97685100D01*
X98181067Y-97685100D01*
X98279933Y-97685100D01*
X98279935Y-97685100D01*
X98373571Y-97660010D01*
X98434671Y-97663213D01*
X98469194Y-97685631D01*
X98530138Y-97746575D01*
X98530140Y-97746576D01*
X98615758Y-97796008D01*
X98615756Y-97796008D01*
X98615760Y-97796009D01*
X98615762Y-97796010D01*
X98711265Y-97821600D01*
X98711267Y-97821600D01*
X98810133Y-97821600D01*
X98810135Y-97821600D01*
X98905638Y-97796010D01*
X98905640Y-97796008D01*
X98905642Y-97796008D01*
X98931077Y-97781322D01*
X98991262Y-97746575D01*
X99001772Y-97736065D01*
X102716500Y-97736065D01*
X102716500Y-97834935D01*
X102734062Y-97900476D01*
X102742091Y-97930442D01*
X102791523Y-98016059D01*
X102791525Y-98016062D01*
X102861438Y-98085975D01*
X102861440Y-98085976D01*
X102947058Y-98135408D01*
X102947056Y-98135408D01*
X102947060Y-98135409D01*
X102947062Y-98135410D01*
X103042565Y-98161000D01*
X103042567Y-98161000D01*
X103141433Y-98161000D01*
X103141435Y-98161000D01*
X103236938Y-98135410D01*
X103236940Y-98135408D01*
X103236942Y-98135408D01*
X103262377Y-98120722D01*
X103322562Y-98085975D01*
X103392475Y-98016062D01*
X103436109Y-97940486D01*
X103441908Y-97930442D01*
X103441908Y-97930440D01*
X103441910Y-97930438D01*
X103467500Y-97834935D01*
X103467500Y-97736065D01*
X103441910Y-97640562D01*
X103441908Y-97640559D01*
X103441908Y-97640557D01*
X103392476Y-97554940D01*
X103392475Y-97554938D01*
X103322562Y-97485025D01*
X103303591Y-97474072D01*
X103248674Y-97442365D01*
X104936500Y-97442365D01*
X104936500Y-97541235D01*
X104954946Y-97610075D01*
X104962091Y-97636742D01*
X105011523Y-97722359D01*
X105011525Y-97722362D01*
X105081438Y-97792275D01*
X105081440Y-97792276D01*
X105167058Y-97841708D01*
X105167056Y-97841708D01*
X105167060Y-97841709D01*
X105167062Y-97841710D01*
X105262565Y-97867300D01*
X105262567Y-97867300D01*
X105361433Y-97867300D01*
X105361435Y-97867300D01*
X105456938Y-97841710D01*
X105456940Y-97841708D01*
X105456942Y-97841708D01*
X105482377Y-97827022D01*
X105542562Y-97792275D01*
X105612475Y-97722362D01*
X105650780Y-97656016D01*
X105661908Y-97636742D01*
X105661908Y-97636740D01*
X105661910Y-97636738D01*
X105687500Y-97541235D01*
X105687500Y-97463614D01*
X105706407Y-97405423D01*
X105755907Y-97369459D01*
X105760854Y-97367993D01*
X105808938Y-97355110D01*
X105894562Y-97305675D01*
X105964475Y-97235762D01*
X106013910Y-97150138D01*
X106039500Y-97054635D01*
X106039500Y-96955765D01*
X106013910Y-96860262D01*
X106013908Y-96860259D01*
X106013908Y-96860257D01*
X105964476Y-96774640D01*
X105964475Y-96774638D01*
X105894562Y-96704725D01*
X105870724Y-96690962D01*
X105808941Y-96655291D01*
X105808943Y-96655291D01*
X105771885Y-96645361D01*
X105713435Y-96629700D01*
X105614565Y-96629700D01*
X105556114Y-96645361D01*
X105519057Y-96655291D01*
X105433440Y-96704723D01*
X105363523Y-96774640D01*
X105314091Y-96860257D01*
X105305718Y-96891508D01*
X105290164Y-96949557D01*
X105288500Y-96955766D01*
X105288500Y-97033385D01*
X105269593Y-97091576D01*
X105220093Y-97127540D01*
X105215124Y-97129011D01*
X105167062Y-97141889D01*
X105167058Y-97141891D01*
X105081440Y-97191323D01*
X105011523Y-97261240D01*
X104962091Y-97346857D01*
X104956041Y-97369438D01*
X104936500Y-97442365D01*
X103248674Y-97442365D01*
X103236941Y-97435591D01*
X103236943Y-97435591D01*
X103199885Y-97425661D01*
X103141435Y-97410000D01*
X103042565Y-97410000D01*
X102984114Y-97425661D01*
X102947057Y-97435591D01*
X102861440Y-97485023D01*
X102791523Y-97554940D01*
X102742091Y-97640557D01*
X102732417Y-97676662D01*
X102716500Y-97736065D01*
X99001772Y-97736065D01*
X99061175Y-97676662D01*
X99110610Y-97591038D01*
X99136200Y-97495535D01*
X99136200Y-97396665D01*
X99110610Y-97301162D01*
X99110608Y-97301159D01*
X99110608Y-97301157D01*
X99061176Y-97215540D01*
X99061175Y-97215538D01*
X98991262Y-97145625D01*
X98988335Y-97143935D01*
X98905641Y-97096191D01*
X98905643Y-97096191D01*
X98868585Y-97086261D01*
X98810135Y-97070600D01*
X98711265Y-97070600D01*
X98617628Y-97095689D01*
X98556529Y-97092487D01*
X98522005Y-97070068D01*
X98461062Y-97009125D01*
X98426139Y-96988962D01*
X98373629Y-96958645D01*
X98359312Y-96942743D01*
X98342188Y-96929913D01*
X98340092Y-96921397D01*
X98332689Y-96913175D01*
X98324141Y-96871450D01*
X98324302Y-96860486D01*
X98325500Y-96856018D01*
X98325500Y-96786465D01*
X100940500Y-96786465D01*
X100940500Y-96885335D01*
X100957708Y-96949557D01*
X100966091Y-96980842D01*
X101011145Y-97058876D01*
X101015525Y-97066462D01*
X101085438Y-97136375D01*
X101109276Y-97150138D01*
X101171058Y-97185808D01*
X101171056Y-97185808D01*
X101171060Y-97185809D01*
X101171062Y-97185810D01*
X101266565Y-97211400D01*
X101266567Y-97211400D01*
X101365433Y-97211400D01*
X101365435Y-97211400D01*
X101460938Y-97185810D01*
X101460940Y-97185808D01*
X101460942Y-97185808D01*
X101486377Y-97171122D01*
X101546562Y-97136375D01*
X101616475Y-97066462D01*
X101665910Y-96980838D01*
X101665910Y-96980834D01*
X101668122Y-96977005D01*
X101713592Y-96936064D01*
X101774442Y-96929668D01*
X101791632Y-96936268D01*
X101792064Y-96935226D01*
X101798056Y-96937708D01*
X101798060Y-96937709D01*
X101798062Y-96937710D01*
X101893565Y-96963300D01*
X101893567Y-96963300D01*
X101992433Y-96963300D01*
X101992435Y-96963300D01*
X102087938Y-96937710D01*
X102087940Y-96937708D01*
X102087942Y-96937708D01*
X102116193Y-96921397D01*
X102173562Y-96888275D01*
X102243475Y-96818362D01*
X102292910Y-96732738D01*
X102318500Y-96637235D01*
X102318500Y-96538365D01*
X102306121Y-96492165D01*
X113210500Y-96492165D01*
X113210500Y-96591035D01*
X113233067Y-96675257D01*
X113236091Y-96686542D01*
X113274749Y-96753498D01*
X113285525Y-96772162D01*
X113355438Y-96842075D01*
X113355440Y-96842076D01*
X113441058Y-96891508D01*
X113441056Y-96891508D01*
X113441060Y-96891509D01*
X113441062Y-96891510D01*
X113536565Y-96917100D01*
X113536567Y-96917100D01*
X113635433Y-96917100D01*
X113635435Y-96917100D01*
X113730938Y-96891510D01*
X113730940Y-96891508D01*
X113730942Y-96891508D01*
X113772807Y-96867337D01*
X113816562Y-96842075D01*
X113886475Y-96772162D01*
X113935910Y-96686538D01*
X113961500Y-96591035D01*
X113961500Y-96492165D01*
X113935910Y-96396662D01*
X113935908Y-96396659D01*
X113935908Y-96396657D01*
X113886476Y-96311040D01*
X113886475Y-96311038D01*
X113816562Y-96241125D01*
X113810959Y-96237890D01*
X113730941Y-96191691D01*
X113730943Y-96191691D01*
X113693885Y-96181761D01*
X113635435Y-96166100D01*
X113536565Y-96166100D01*
X113478114Y-96181761D01*
X113441057Y-96191691D01*
X113355440Y-96241123D01*
X113285523Y-96311040D01*
X113236091Y-96396657D01*
X113224073Y-96441510D01*
X113210500Y-96492165D01*
X102306121Y-96492165D01*
X102292910Y-96442862D01*
X102292908Y-96442859D01*
X102292908Y-96442857D01*
X102243476Y-96357240D01*
X102243475Y-96357238D01*
X102173562Y-96287325D01*
X102173559Y-96287323D01*
X102087941Y-96237891D01*
X102087943Y-96237891D01*
X102040720Y-96225238D01*
X101992435Y-96212300D01*
X101893565Y-96212300D01*
X101845280Y-96225238D01*
X101798057Y-96237891D01*
X101712440Y-96287323D01*
X101642524Y-96357239D01*
X101590876Y-96446695D01*
X101545406Y-96487635D01*
X101484556Y-96494030D01*
X101467364Y-96487438D01*
X101466936Y-96488474D01*
X101460943Y-96485991D01*
X101423885Y-96476061D01*
X101365435Y-96460400D01*
X101266565Y-96460400D01*
X101208114Y-96476061D01*
X101171057Y-96485991D01*
X101085440Y-96535423D01*
X101015523Y-96605340D01*
X100966091Y-96690957D01*
X100954896Y-96732738D01*
X100940500Y-96786465D01*
X98325500Y-96786465D01*
X98325500Y-96743982D01*
X98296503Y-96635763D01*
X98296501Y-96635760D01*
X98296501Y-96635758D01*
X98240486Y-96538739D01*
X98240485Y-96538737D01*
X98161263Y-96459515D01*
X98161260Y-96459513D01*
X98064240Y-96403498D01*
X98064242Y-96403498D01*
X98021609Y-96392075D01*
X97956018Y-96374500D01*
X97843982Y-96374500D01*
X97778391Y-96392075D01*
X97735758Y-96403498D01*
X97638737Y-96459514D01*
X97554926Y-96543325D01*
X97553928Y-96542327D01*
X97509498Y-96572866D01*
X97448334Y-96571267D01*
X97431876Y-96563681D01*
X97414238Y-96553497D01*
X97372550Y-96542327D01*
X97306018Y-96524500D01*
X97193982Y-96524500D01*
X97107588Y-96547648D01*
X97046487Y-96544446D01*
X97011964Y-96522027D01*
X96947862Y-96457925D01*
X96947859Y-96457923D01*
X96862241Y-96408491D01*
X96862243Y-96408491D01*
X96818095Y-96396662D01*
X96766735Y-96382900D01*
X96667865Y-96382900D01*
X96616505Y-96396662D01*
X96572357Y-96408491D01*
X96486740Y-96457923D01*
X96416823Y-96527840D01*
X96367391Y-96613457D01*
X96361020Y-96637235D01*
X96341800Y-96708965D01*
X88622135Y-96708965D01*
X88602665Y-96689495D01*
X88482836Y-96620312D01*
X88482833Y-96620311D01*
X88477216Y-96617068D01*
X88477880Y-96615917D01*
X88436678Y-96580730D01*
X88422393Y-96521235D01*
X88445806Y-96464707D01*
X88497974Y-96432736D01*
X88521088Y-96430000D01*
X88629999Y-96430000D01*
X88630000Y-96429999D01*
X88630000Y-95979999D01*
X88930000Y-95979999D01*
X88930000Y-96429999D01*
X88930001Y-96430000D01*
X89403868Y-96430000D01*
X89403871Y-96429999D01*
X89548764Y-96401178D01*
X89548770Y-96401176D01*
X89685257Y-96344641D01*
X89808093Y-96262565D01*
X89912565Y-96158093D01*
X89981071Y-96055565D01*
X94094500Y-96055565D01*
X94094500Y-96154435D01*
X94104483Y-96191691D01*
X94120091Y-96249942D01*
X94169523Y-96335559D01*
X94169525Y-96335562D01*
X94239438Y-96405475D01*
X94239440Y-96405476D01*
X94325058Y-96454908D01*
X94325056Y-96454908D01*
X94325060Y-96454909D01*
X94325062Y-96454910D01*
X94420565Y-96480500D01*
X94420567Y-96480500D01*
X94519433Y-96480500D01*
X94519435Y-96480500D01*
X94614938Y-96454910D01*
X94614940Y-96454908D01*
X94614942Y-96454908D01*
X94640377Y-96440222D01*
X94700562Y-96405475D01*
X94770475Y-96335562D01*
X94819910Y-96249938D01*
X94845500Y-96154435D01*
X94845500Y-96055565D01*
X94841909Y-96042165D01*
X99674500Y-96042165D01*
X99674500Y-96141035D01*
X99697062Y-96225238D01*
X99700091Y-96236542D01*
X99749523Y-96322159D01*
X99749525Y-96322162D01*
X99819438Y-96392075D01*
X99842649Y-96405476D01*
X99905058Y-96441508D01*
X99905056Y-96441508D01*
X99905060Y-96441509D01*
X99905062Y-96441510D01*
X100000565Y-96467100D01*
X100000567Y-96467100D01*
X100099433Y-96467100D01*
X100099435Y-96467100D01*
X100194938Y-96441510D01*
X100194940Y-96441508D01*
X100194942Y-96441508D01*
X100220377Y-96426822D01*
X100280562Y-96392075D01*
X100350475Y-96322162D01*
X100399129Y-96237891D01*
X100399908Y-96236542D01*
X100399908Y-96236540D01*
X100399910Y-96236538D01*
X100425500Y-96141035D01*
X100425500Y-96042165D01*
X100422472Y-96030865D01*
X115611500Y-96030865D01*
X115611500Y-96129735D01*
X115619099Y-96158093D01*
X115637091Y-96225242D01*
X115686523Y-96310859D01*
X115686525Y-96310862D01*
X115756438Y-96380775D01*
X115756440Y-96380776D01*
X115842058Y-96430208D01*
X115842056Y-96430208D01*
X115842060Y-96430209D01*
X115842062Y-96430210D01*
X115937565Y-96455800D01*
X115937567Y-96455800D01*
X116036433Y-96455800D01*
X116036435Y-96455800D01*
X116131938Y-96430210D01*
X116131940Y-96430208D01*
X116131942Y-96430208D01*
X116169558Y-96408490D01*
X116217562Y-96380775D01*
X116287475Y-96310862D01*
X116329605Y-96237891D01*
X116336908Y-96225242D01*
X116336908Y-96225240D01*
X116336910Y-96225238D01*
X116362500Y-96129735D01*
X116362500Y-96030865D01*
X116336910Y-95935362D01*
X116336908Y-95935359D01*
X116336908Y-95935357D01*
X116287476Y-95849740D01*
X116287475Y-95849738D01*
X116217562Y-95779825D01*
X116217559Y-95779823D01*
X116131941Y-95730391D01*
X116131943Y-95730391D01*
X116078607Y-95716100D01*
X116036435Y-95704800D01*
X115937565Y-95704800D01*
X115895393Y-95716100D01*
X115842057Y-95730391D01*
X115756440Y-95779823D01*
X115686523Y-95849740D01*
X115637091Y-95935357D01*
X115622783Y-95988753D01*
X115611500Y-96030865D01*
X100422472Y-96030865D01*
X100399910Y-95946662D01*
X100399908Y-95946659D01*
X100399908Y-95946657D01*
X100350476Y-95861040D01*
X100350475Y-95861038D01*
X100280562Y-95791125D01*
X100260990Y-95779825D01*
X100194941Y-95741691D01*
X100194943Y-95741691D01*
X100157885Y-95731761D01*
X100099435Y-95716100D01*
X100000565Y-95716100D01*
X99942114Y-95731761D01*
X99905057Y-95741691D01*
X99819440Y-95791123D01*
X99749523Y-95861040D01*
X99700091Y-95946657D01*
X99700090Y-95946662D01*
X99674500Y-96042165D01*
X94841909Y-96042165D01*
X94819910Y-95960062D01*
X94819908Y-95960059D01*
X94819908Y-95960057D01*
X94770476Y-95874440D01*
X94770475Y-95874438D01*
X94700562Y-95804525D01*
X94700559Y-95804523D01*
X94614941Y-95755091D01*
X94614943Y-95755091D01*
X94564932Y-95741691D01*
X94519435Y-95729500D01*
X94420565Y-95729500D01*
X94375068Y-95741691D01*
X94325057Y-95755091D01*
X94239440Y-95804523D01*
X94169523Y-95874440D01*
X94120091Y-95960057D01*
X94120090Y-95960062D01*
X94094500Y-96055565D01*
X89981071Y-96055565D01*
X89994642Y-96035255D01*
X90004610Y-96011191D01*
X90004610Y-96011190D01*
X90051177Y-95898767D01*
X90064857Y-95830000D01*
X89589819Y-95830000D01*
X89609567Y-95795795D01*
X89630011Y-95719496D01*
X89630011Y-95640504D01*
X89609567Y-95564205D01*
X89589819Y-95530000D01*
X90064857Y-95530000D01*
X90051177Y-95461232D01*
X89994641Y-95324742D01*
X89912565Y-95201906D01*
X89861224Y-95150565D01*
X98024500Y-95150565D01*
X98024500Y-95249435D01*
X98047067Y-95333657D01*
X98050091Y-95344942D01*
X98099523Y-95430559D01*
X98099525Y-95430562D01*
X98169438Y-95500475D01*
X98169440Y-95500476D01*
X98255058Y-95549908D01*
X98255056Y-95549908D01*
X98255060Y-95549909D01*
X98255062Y-95549910D01*
X98350565Y-95575500D01*
X98350567Y-95575500D01*
X98449433Y-95575500D01*
X98449435Y-95575500D01*
X98544938Y-95549910D01*
X98544940Y-95549908D01*
X98544942Y-95549908D01*
X98603325Y-95516200D01*
X98630562Y-95500475D01*
X98700475Y-95430562D01*
X98749910Y-95344938D01*
X98765176Y-95287965D01*
X100648500Y-95287965D01*
X100648500Y-95386835D01*
X100663061Y-95441176D01*
X100674091Y-95482342D01*
X100721356Y-95564205D01*
X100723525Y-95567962D01*
X100793438Y-95637875D01*
X100793440Y-95637876D01*
X100879058Y-95687308D01*
X100879056Y-95687308D01*
X100879060Y-95687309D01*
X100879062Y-95687310D01*
X100974565Y-95712900D01*
X100974567Y-95712900D01*
X101073433Y-95712900D01*
X101073435Y-95712900D01*
X101168938Y-95687310D01*
X101168940Y-95687308D01*
X101168942Y-95687308D01*
X101194377Y-95672622D01*
X101254562Y-95637875D01*
X101324475Y-95567962D01*
X101369134Y-95490610D01*
X101373908Y-95482342D01*
X101373908Y-95482340D01*
X101373910Y-95482338D01*
X101399500Y-95386835D01*
X101399500Y-95287965D01*
X101373910Y-95192462D01*
X101373908Y-95192459D01*
X101373908Y-95192457D01*
X101340318Y-95134278D01*
X101340317Y-95134277D01*
X101324476Y-95106840D01*
X101324475Y-95106838D01*
X101308902Y-95091265D01*
X107658500Y-95091265D01*
X107658500Y-95190135D01*
X107676109Y-95255852D01*
X107684091Y-95285642D01*
X107718329Y-95344942D01*
X107733525Y-95371262D01*
X107803438Y-95441175D01*
X107803440Y-95441176D01*
X107889058Y-95490608D01*
X107889056Y-95490608D01*
X107889060Y-95490609D01*
X107889062Y-95490610D01*
X107984565Y-95516200D01*
X107984567Y-95516200D01*
X108083433Y-95516200D01*
X108083435Y-95516200D01*
X108178938Y-95490610D01*
X108178940Y-95490608D01*
X108178942Y-95490608D01*
X108229822Y-95461232D01*
X108264562Y-95441175D01*
X108334475Y-95371262D01*
X108383910Y-95285638D01*
X108409500Y-95190135D01*
X108409500Y-95091265D01*
X108383910Y-94995762D01*
X108383908Y-94995759D01*
X108383908Y-94995757D01*
X108334476Y-94910140D01*
X108334475Y-94910138D01*
X108264562Y-94840225D01*
X108264559Y-94840223D01*
X108178941Y-94790791D01*
X108178943Y-94790791D01*
X108141885Y-94780861D01*
X108083435Y-94765200D01*
X107984565Y-94765200D01*
X107926114Y-94780861D01*
X107889057Y-94790791D01*
X107803440Y-94840223D01*
X107733523Y-94910140D01*
X107684091Y-94995757D01*
X107684090Y-94995762D01*
X107658500Y-95091265D01*
X101308902Y-95091265D01*
X101254562Y-95036925D01*
X101254559Y-95036923D01*
X101168941Y-94987491D01*
X101168943Y-94987491D01*
X101131885Y-94977561D01*
X101073435Y-94961900D01*
X100974565Y-94961900D01*
X100916114Y-94977561D01*
X100879057Y-94987491D01*
X100793440Y-95036923D01*
X100723523Y-95106840D01*
X100674091Y-95192457D01*
X100674090Y-95192462D01*
X100648500Y-95287965D01*
X98765176Y-95287965D01*
X98775500Y-95249435D01*
X98775500Y-95150565D01*
X98749910Y-95055062D01*
X98749908Y-95055059D01*
X98749908Y-95055057D01*
X98700476Y-94969440D01*
X98700475Y-94969438D01*
X98630562Y-94899525D01*
X98630559Y-94899523D01*
X98544941Y-94850091D01*
X98544943Y-94850091D01*
X98507885Y-94840161D01*
X98449435Y-94824500D01*
X98350565Y-94824500D01*
X98292114Y-94840161D01*
X98255057Y-94850091D01*
X98169440Y-94899523D01*
X98099523Y-94969440D01*
X98050091Y-95055057D01*
X98050090Y-95055062D01*
X98024500Y-95150565D01*
X89861224Y-95150565D01*
X89808093Y-95097434D01*
X89685257Y-95015358D01*
X89548770Y-94958823D01*
X89548764Y-94958821D01*
X89403871Y-94930000D01*
X88930001Y-94930000D01*
X88930000Y-94930001D01*
X88930000Y-95380001D01*
X88630000Y-95380001D01*
X88630000Y-94930001D01*
X88629999Y-94930000D01*
X88156128Y-94930000D01*
X88011235Y-94958821D01*
X88011229Y-94958823D01*
X87874742Y-95015358D01*
X87751906Y-95097434D01*
X87647434Y-95201906D01*
X87565358Y-95324742D01*
X87508822Y-95461232D01*
X87495143Y-95530000D01*
X85734857Y-95530000D01*
X85721177Y-95461232D01*
X85664641Y-95324742D01*
X85582565Y-95201906D01*
X85478093Y-95097434D01*
X85355257Y-95015358D01*
X85218770Y-94958823D01*
X85218764Y-94958821D01*
X85073871Y-94930000D01*
X84750001Y-94930000D01*
X84750000Y-94930001D01*
X84750000Y-95380001D01*
X84450000Y-95380001D01*
X84450000Y-94930001D01*
X84449999Y-94930000D01*
X84126128Y-94930000D01*
X83981235Y-94958821D01*
X83981229Y-94958823D01*
X83844742Y-95015358D01*
X83721906Y-95097434D01*
X83617434Y-95201906D01*
X83535358Y-95324742D01*
X83478822Y-95461232D01*
X83465143Y-95530000D01*
X82350000Y-95530000D01*
X82350000Y-94300565D01*
X88524500Y-94300565D01*
X88524500Y-94399435D01*
X88540577Y-94459435D01*
X88550091Y-94494942D01*
X88584733Y-94554942D01*
X88599525Y-94580562D01*
X88669438Y-94650475D01*
X88669440Y-94650476D01*
X88755058Y-94699908D01*
X88755056Y-94699908D01*
X88755060Y-94699909D01*
X88755062Y-94699910D01*
X88850565Y-94725500D01*
X88850567Y-94725500D01*
X88949433Y-94725500D01*
X88949435Y-94725500D01*
X89044938Y-94699910D01*
X89044940Y-94699908D01*
X89044942Y-94699908D01*
X89070377Y-94685222D01*
X89130562Y-94650475D01*
X89200475Y-94580562D01*
X89249910Y-94494938D01*
X89275500Y-94399435D01*
X89275500Y-94300565D01*
X89249910Y-94205062D01*
X89249908Y-94205059D01*
X89249908Y-94205057D01*
X89200476Y-94119440D01*
X89200475Y-94119438D01*
X89130562Y-94049525D01*
X89130559Y-94049523D01*
X89080403Y-94020565D01*
X95750900Y-94020565D01*
X95750900Y-94119435D01*
X95766978Y-94179438D01*
X95776491Y-94214942D01*
X95825923Y-94300559D01*
X95825925Y-94300562D01*
X95895838Y-94370475D01*
X95895840Y-94370476D01*
X95981458Y-94419908D01*
X95981456Y-94419908D01*
X95981460Y-94419909D01*
X95981462Y-94419910D01*
X96076965Y-94445500D01*
X96076967Y-94445500D01*
X96175833Y-94445500D01*
X96175835Y-94445500D01*
X96271338Y-94419910D01*
X96271340Y-94419908D01*
X96271342Y-94419908D01*
X96306805Y-94399433D01*
X96356962Y-94370475D01*
X96366872Y-94360565D01*
X104474500Y-94360565D01*
X104474500Y-94459435D01*
X104484013Y-94494938D01*
X104500091Y-94554942D01*
X104549523Y-94640559D01*
X104549525Y-94640562D01*
X104619438Y-94710475D01*
X104619440Y-94710476D01*
X104705058Y-94759908D01*
X104705056Y-94759908D01*
X104705060Y-94759909D01*
X104705062Y-94759910D01*
X104800565Y-94785500D01*
X104800567Y-94785500D01*
X104899433Y-94785500D01*
X104899435Y-94785500D01*
X104994938Y-94759910D01*
X104994940Y-94759908D01*
X104994942Y-94759908D01*
X105020377Y-94745222D01*
X105080562Y-94710475D01*
X105150475Y-94640562D01*
X105199910Y-94554938D01*
X105225500Y-94459435D01*
X105225500Y-94360565D01*
X105199910Y-94265062D01*
X105199908Y-94265059D01*
X105199908Y-94265057D01*
X105150476Y-94179440D01*
X105150475Y-94179438D01*
X105080562Y-94109525D01*
X105080559Y-94109523D01*
X104994941Y-94060091D01*
X104994943Y-94060091D01*
X104955501Y-94049523D01*
X104899435Y-94034500D01*
X104800565Y-94034500D01*
X104744499Y-94049523D01*
X104705057Y-94060091D01*
X104619440Y-94109523D01*
X104549523Y-94179440D01*
X104500091Y-94265057D01*
X104490578Y-94300562D01*
X104474500Y-94360565D01*
X96366872Y-94360565D01*
X96426875Y-94300562D01*
X96476310Y-94214938D01*
X96501900Y-94119435D01*
X96501900Y-94020565D01*
X96476310Y-93925062D01*
X96476308Y-93925059D01*
X96476308Y-93925057D01*
X96426876Y-93839440D01*
X96426875Y-93839438D01*
X96356962Y-93769525D01*
X96356959Y-93769523D01*
X96271341Y-93720091D01*
X96271343Y-93720091D01*
X96234285Y-93710161D01*
X96175835Y-93694500D01*
X96076965Y-93694500D01*
X96018514Y-93710161D01*
X95981457Y-93720091D01*
X95895840Y-93769523D01*
X95825923Y-93839440D01*
X95776491Y-93925057D01*
X95776490Y-93925062D01*
X95750900Y-94020565D01*
X89080403Y-94020565D01*
X89044941Y-94000091D01*
X89044943Y-94000091D01*
X89007885Y-93990161D01*
X88949435Y-93974500D01*
X88850565Y-93974500D01*
X88792114Y-93990161D01*
X88755057Y-94000091D01*
X88669440Y-94049523D01*
X88599523Y-94119440D01*
X88550091Y-94205057D01*
X88535783Y-94258453D01*
X88524500Y-94300565D01*
X82350000Y-94300565D01*
X82350000Y-93090565D01*
X87679500Y-93090565D01*
X87679500Y-93189435D01*
X87681725Y-93197738D01*
X87705091Y-93284942D01*
X87748294Y-93359770D01*
X87754525Y-93370562D01*
X87824438Y-93440475D01*
X87824440Y-93440476D01*
X87829027Y-93445063D01*
X87826835Y-93447254D01*
X87854307Y-93487226D01*
X87852706Y-93548390D01*
X87850852Y-93553219D01*
X87850093Y-93555050D01*
X87850090Y-93555062D01*
X87824500Y-93650565D01*
X87824500Y-93749435D01*
X87847067Y-93833657D01*
X87850091Y-93844942D01*
X87899523Y-93930559D01*
X87899525Y-93930562D01*
X87969438Y-94000475D01*
X87969440Y-94000476D01*
X88055058Y-94049908D01*
X88055056Y-94049908D01*
X88055060Y-94049909D01*
X88055062Y-94049910D01*
X88150565Y-94075500D01*
X88150567Y-94075500D01*
X88249433Y-94075500D01*
X88249435Y-94075500D01*
X88344938Y-94049910D01*
X88344940Y-94049908D01*
X88344942Y-94049908D01*
X88395765Y-94020565D01*
X88430562Y-94000475D01*
X88500475Y-93930562D01*
X88549910Y-93844938D01*
X88575500Y-93749435D01*
X88575500Y-93650565D01*
X88549910Y-93555062D01*
X88549908Y-93555059D01*
X88549908Y-93555057D01*
X88500476Y-93469440D01*
X88500475Y-93469438D01*
X88430562Y-93399525D01*
X88430559Y-93399523D01*
X88425973Y-93394937D01*
X88428159Y-93392750D01*
X88400681Y-93352735D01*
X88402307Y-93291571D01*
X88404152Y-93286766D01*
X88404903Y-93284949D01*
X88404910Y-93284938D01*
X88430500Y-93189435D01*
X88430500Y-93090565D01*
X88427097Y-93077865D01*
X88667400Y-93077865D01*
X88667400Y-93176735D01*
X88670803Y-93189435D01*
X88692991Y-93272242D01*
X88739777Y-93353276D01*
X88742425Y-93357862D01*
X88812338Y-93427775D01*
X88834335Y-93440475D01*
X88897958Y-93477208D01*
X88897956Y-93477208D01*
X88897960Y-93477209D01*
X88897962Y-93477210D01*
X88993465Y-93502800D01*
X88993467Y-93502800D01*
X89092333Y-93502800D01*
X89092335Y-93502800D01*
X89187838Y-93477210D01*
X89187840Y-93477208D01*
X89187842Y-93477208D01*
X89243518Y-93445063D01*
X89273462Y-93427775D01*
X89343375Y-93357862D01*
X89384422Y-93286766D01*
X89392808Y-93272242D01*
X89392808Y-93272240D01*
X89392810Y-93272238D01*
X89418400Y-93176735D01*
X89418400Y-93077865D01*
X89398438Y-93003365D01*
X99292900Y-93003365D01*
X99292900Y-93102235D01*
X99312862Y-93176733D01*
X99318491Y-93197742D01*
X99367923Y-93283359D01*
X99367925Y-93283362D01*
X99437838Y-93353275D01*
X99437840Y-93353276D01*
X99523458Y-93402708D01*
X99523456Y-93402708D01*
X99523460Y-93402709D01*
X99523462Y-93402710D01*
X99618965Y-93428300D01*
X99618967Y-93428300D01*
X99717833Y-93428300D01*
X99717835Y-93428300D01*
X99813338Y-93402710D01*
X99813340Y-93402708D01*
X99813342Y-93402708D01*
X99838777Y-93388022D01*
X99898962Y-93353275D01*
X99968875Y-93283362D01*
X100018310Y-93197738D01*
X100043900Y-93102235D01*
X100043900Y-93003365D01*
X100018310Y-92907862D01*
X100018308Y-92907859D01*
X100018308Y-92907857D01*
X99968876Y-92822240D01*
X99968875Y-92822238D01*
X99898962Y-92752325D01*
X99898053Y-92751800D01*
X99813341Y-92702891D01*
X99813343Y-92702891D01*
X99776285Y-92692961D01*
X99717835Y-92677300D01*
X99618965Y-92677300D01*
X99560514Y-92692961D01*
X99523457Y-92702891D01*
X99437840Y-92752323D01*
X99367923Y-92822240D01*
X99318491Y-92907857D01*
X99304183Y-92961253D01*
X99292900Y-93003365D01*
X89398438Y-93003365D01*
X89392810Y-92982362D01*
X89392808Y-92982359D01*
X89392808Y-92982357D01*
X89343376Y-92896740D01*
X89343375Y-92896738D01*
X89273462Y-92826825D01*
X89265521Y-92822240D01*
X89187841Y-92777391D01*
X89187843Y-92777391D01*
X89139732Y-92764500D01*
X89092335Y-92751800D01*
X88993465Y-92751800D01*
X88946068Y-92764500D01*
X88897957Y-92777391D01*
X88812340Y-92826823D01*
X88742423Y-92896740D01*
X88692991Y-92982357D01*
X88688136Y-93000476D01*
X88667400Y-93077865D01*
X88427097Y-93077865D01*
X88404910Y-92995062D01*
X88404908Y-92995059D01*
X88404908Y-92995057D01*
X88355476Y-92909440D01*
X88355475Y-92909438D01*
X88285562Y-92839525D01*
X88285559Y-92839523D01*
X88199941Y-92790091D01*
X88199943Y-92790091D01*
X88162885Y-92780161D01*
X88104435Y-92764500D01*
X88005565Y-92764500D01*
X87947114Y-92780161D01*
X87910057Y-92790091D01*
X87824440Y-92839523D01*
X87754523Y-92909440D01*
X87705091Y-92995057D01*
X87703639Y-93000476D01*
X87679500Y-93090565D01*
X82350000Y-93090565D01*
X82350000Y-92650565D01*
X82824500Y-92650565D01*
X82824500Y-92749435D01*
X82835394Y-92790091D01*
X82850091Y-92844942D01*
X82886416Y-92907857D01*
X82899525Y-92930562D01*
X82969438Y-93000475D01*
X82997979Y-93016953D01*
X83055058Y-93049908D01*
X83055056Y-93049908D01*
X83055060Y-93049909D01*
X83055062Y-93049910D01*
X83150565Y-93075500D01*
X83150567Y-93075500D01*
X83249433Y-93075500D01*
X83249435Y-93075500D01*
X83344938Y-93049910D01*
X83430562Y-93000475D01*
X83500475Y-92930562D01*
X83549910Y-92844938D01*
X83575500Y-92749435D01*
X83575500Y-92650565D01*
X83549910Y-92555062D01*
X83549908Y-92555059D01*
X83549908Y-92555057D01*
X83500476Y-92469440D01*
X83500475Y-92469438D01*
X83430562Y-92399525D01*
X83430559Y-92399523D01*
X83344941Y-92350091D01*
X83344943Y-92350091D01*
X83328052Y-92345565D01*
X94624500Y-92345565D01*
X94624500Y-92444435D01*
X94631200Y-92469438D01*
X94650091Y-92539942D01*
X94699523Y-92625559D01*
X94699525Y-92625562D01*
X94769438Y-92695475D01*
X94769440Y-92695476D01*
X94855058Y-92744908D01*
X94855056Y-92744908D01*
X94855060Y-92744909D01*
X94855062Y-92744910D01*
X94950565Y-92770500D01*
X94950567Y-92770500D01*
X95049433Y-92770500D01*
X95049435Y-92770500D01*
X95144938Y-92744910D01*
X95144940Y-92744908D01*
X95144942Y-92744908D01*
X95170377Y-92730222D01*
X95230562Y-92695475D01*
X95300475Y-92625562D01*
X95349910Y-92539938D01*
X95375500Y-92444435D01*
X95375500Y-92353961D01*
X95394407Y-92295770D01*
X95433698Y-92264794D01*
X95433618Y-92264655D01*
X95434581Y-92264098D01*
X95436612Y-92262498D01*
X95439231Y-92261411D01*
X95439238Y-92261410D01*
X95524862Y-92211975D01*
X95594775Y-92142062D01*
X95629522Y-92081877D01*
X95644208Y-92056442D01*
X95644208Y-92056440D01*
X95644210Y-92056438D01*
X95669800Y-91960935D01*
X95669800Y-91862065D01*
X95644210Y-91766562D01*
X95644208Y-91766559D01*
X95644208Y-91766557D01*
X95596372Y-91683704D01*
X95596371Y-91683703D01*
X95594776Y-91680940D01*
X95594775Y-91680938D01*
X95554528Y-91640691D01*
X113449500Y-91640691D01*
X113449500Y-91759309D01*
X113476574Y-91860351D01*
X113480202Y-91873890D01*
X113539507Y-91976608D01*
X113539509Y-91976610D01*
X113539511Y-91976613D01*
X113623387Y-92060489D01*
X113623389Y-92060490D01*
X113623391Y-92060492D01*
X113726110Y-92119797D01*
X113726111Y-92119797D01*
X113726114Y-92119799D01*
X113840691Y-92150500D01*
X113840693Y-92150500D01*
X113959307Y-92150500D01*
X113959309Y-92150500D01*
X114073886Y-92119799D01*
X114073888Y-92119797D01*
X114073890Y-92119797D01*
X114176608Y-92060492D01*
X114176608Y-92060491D01*
X114176613Y-92060489D01*
X114229998Y-92007103D01*
X114284513Y-91979328D01*
X114344945Y-91988899D01*
X114370000Y-92007102D01*
X114423387Y-92060489D01*
X114423389Y-92060490D01*
X114423391Y-92060492D01*
X114526110Y-92119797D01*
X114526111Y-92119797D01*
X114526114Y-92119799D01*
X114640691Y-92150500D01*
X114640693Y-92150500D01*
X114759307Y-92150500D01*
X114759309Y-92150500D01*
X114873886Y-92119799D01*
X114873888Y-92119797D01*
X114873890Y-92119797D01*
X114976608Y-92060492D01*
X114976608Y-92060491D01*
X114976613Y-92060489D01*
X115060489Y-91976613D01*
X115074388Y-91952539D01*
X115119797Y-91873890D01*
X115119797Y-91873888D01*
X115119799Y-91873886D01*
X115150500Y-91759309D01*
X115150500Y-91640691D01*
X115119799Y-91526114D01*
X115119797Y-91526111D01*
X115119797Y-91526109D01*
X115060492Y-91423391D01*
X115060490Y-91423389D01*
X115060489Y-91423387D01*
X114976613Y-91339511D01*
X114976610Y-91339509D01*
X114976608Y-91339507D01*
X114873889Y-91280202D01*
X114873890Y-91280202D01*
X114860351Y-91276574D01*
X114759309Y-91249500D01*
X114640691Y-91249500D01*
X114570567Y-91268289D01*
X114526109Y-91280202D01*
X114423391Y-91339507D01*
X114423390Y-91339508D01*
X114423387Y-91339510D01*
X114423387Y-91339511D01*
X114370001Y-91392896D01*
X114315487Y-91420672D01*
X114255055Y-91411101D01*
X114229999Y-91392897D01*
X114176613Y-91339511D01*
X114176610Y-91339509D01*
X114176608Y-91339507D01*
X114073889Y-91280202D01*
X114073890Y-91280202D01*
X114060351Y-91276574D01*
X113959309Y-91249500D01*
X113840691Y-91249500D01*
X113770567Y-91268289D01*
X113726109Y-91280202D01*
X113623391Y-91339507D01*
X113539507Y-91423391D01*
X113480202Y-91526109D01*
X113463037Y-91590169D01*
X113449500Y-91640691D01*
X95554528Y-91640691D01*
X95524862Y-91611025D01*
X95524859Y-91611023D01*
X95439241Y-91561591D01*
X95439243Y-91561591D01*
X95402185Y-91551661D01*
X95343735Y-91536000D01*
X95244865Y-91536000D01*
X95186414Y-91551661D01*
X95149357Y-91561591D01*
X95063740Y-91611023D01*
X94993823Y-91680940D01*
X94944391Y-91766557D01*
X94918800Y-91862066D01*
X94918800Y-91952539D01*
X94899893Y-92010730D01*
X94860600Y-92041704D01*
X94860681Y-92041845D01*
X94859715Y-92042402D01*
X94857685Y-92044003D01*
X94855060Y-92045090D01*
X94769440Y-92094523D01*
X94699523Y-92164440D01*
X94650091Y-92250057D01*
X94641269Y-92282981D01*
X94624500Y-92345565D01*
X83328052Y-92345565D01*
X83307885Y-92340161D01*
X83249435Y-92324500D01*
X83150565Y-92324500D01*
X83092114Y-92340161D01*
X83055057Y-92350091D01*
X82969440Y-92399523D01*
X82899523Y-92469440D01*
X82850091Y-92555057D01*
X82850090Y-92555062D01*
X82824500Y-92650565D01*
X82350000Y-92650565D01*
X82350000Y-91143065D01*
X92263600Y-91143065D01*
X92263600Y-91241935D01*
X92273854Y-91280202D01*
X92289191Y-91337442D01*
X92331719Y-91411101D01*
X92338625Y-91423062D01*
X92408538Y-91492975D01*
X92408540Y-91492976D01*
X92494158Y-91542408D01*
X92494156Y-91542408D01*
X92494160Y-91542409D01*
X92494162Y-91542410D01*
X92589665Y-91568000D01*
X92589667Y-91568000D01*
X92688533Y-91568000D01*
X92688535Y-91568000D01*
X92784038Y-91542410D01*
X92784040Y-91542408D01*
X92784042Y-91542408D01*
X92809477Y-91527722D01*
X92869662Y-91492975D01*
X92939575Y-91423062D01*
X92981809Y-91349910D01*
X92989008Y-91337442D01*
X92989008Y-91337440D01*
X92989010Y-91337438D01*
X93014600Y-91241935D01*
X93014600Y-91143065D01*
X92989010Y-91047562D01*
X92989008Y-91047559D01*
X92989008Y-91047557D01*
X92957843Y-90993578D01*
X92957842Y-90993577D01*
X92939576Y-90961940D01*
X92939575Y-90961938D01*
X92928202Y-90950565D01*
X109124500Y-90950565D01*
X109124500Y-91049435D01*
X109147067Y-91133657D01*
X109150091Y-91144942D01*
X109199523Y-91230559D01*
X109199525Y-91230562D01*
X109269438Y-91300475D01*
X109269440Y-91300476D01*
X109355058Y-91349908D01*
X109355056Y-91349908D01*
X109355060Y-91349909D01*
X109355062Y-91349910D01*
X109450565Y-91375500D01*
X109450567Y-91375500D01*
X109549433Y-91375500D01*
X109549435Y-91375500D01*
X109644938Y-91349910D01*
X109644940Y-91349908D01*
X109644942Y-91349908D01*
X109670377Y-91335222D01*
X109730562Y-91300475D01*
X109800475Y-91230562D01*
X109849910Y-91144938D01*
X109875500Y-91049435D01*
X109875500Y-90950565D01*
X109849910Y-90855062D01*
X109849908Y-90855059D01*
X109849908Y-90855057D01*
X109800476Y-90769440D01*
X109800475Y-90769438D01*
X109730562Y-90699525D01*
X109730559Y-90699523D01*
X109644941Y-90650091D01*
X109644943Y-90650091D01*
X109607885Y-90640161D01*
X109549435Y-90624500D01*
X109450565Y-90624500D01*
X109392114Y-90640161D01*
X109355057Y-90650091D01*
X109269440Y-90699523D01*
X109199523Y-90769440D01*
X109150091Y-90855057D01*
X109150090Y-90855062D01*
X109124500Y-90950565D01*
X92928202Y-90950565D01*
X92869662Y-90892025D01*
X92869659Y-90892023D01*
X92784041Y-90842591D01*
X92784043Y-90842591D01*
X92746985Y-90832661D01*
X92688535Y-90817000D01*
X92589665Y-90817000D01*
X92531214Y-90832661D01*
X92494157Y-90842591D01*
X92408540Y-90892023D01*
X92338623Y-90961940D01*
X92289191Y-91047557D01*
X92288688Y-91049435D01*
X92263600Y-91143065D01*
X82350000Y-91143065D01*
X82350000Y-90549000D01*
X82368907Y-90490809D01*
X82418407Y-90454845D01*
X82449000Y-90450000D01*
X82499999Y-90450000D01*
X82500000Y-90450000D01*
X82500000Y-90005765D01*
X102409500Y-90005765D01*
X102409500Y-90104635D01*
X102432067Y-90188857D01*
X102435091Y-90200142D01*
X102484523Y-90285759D01*
X102484525Y-90285762D01*
X102554438Y-90355675D01*
X102554440Y-90355676D01*
X102640058Y-90405108D01*
X102640056Y-90405108D01*
X102640060Y-90405109D01*
X102640062Y-90405110D01*
X102735565Y-90430700D01*
X102735567Y-90430700D01*
X102834433Y-90430700D01*
X102834435Y-90430700D01*
X102929938Y-90405110D01*
X102987470Y-90371893D01*
X103047316Y-90359172D01*
X103103212Y-90384058D01*
X103122705Y-90408129D01*
X103135737Y-90430700D01*
X103164525Y-90480562D01*
X103234438Y-90550475D01*
X103234440Y-90550476D01*
X103320058Y-90599908D01*
X103320056Y-90599908D01*
X103320060Y-90599909D01*
X103320062Y-90599910D01*
X103415565Y-90625500D01*
X103415567Y-90625500D01*
X103514433Y-90625500D01*
X103514435Y-90625500D01*
X103609938Y-90599910D01*
X103609940Y-90599908D01*
X103609942Y-90599908D01*
X103635377Y-90585222D01*
X103695562Y-90550475D01*
X103765475Y-90480562D01*
X103809037Y-90405110D01*
X103814908Y-90394942D01*
X103814908Y-90394940D01*
X103814910Y-90394938D01*
X103840500Y-90299435D01*
X103840500Y-90200565D01*
X103814910Y-90105062D01*
X103814908Y-90105059D01*
X103814908Y-90105057D01*
X103765476Y-90019440D01*
X103765475Y-90019438D01*
X103695562Y-89949525D01*
X103695559Y-89949523D01*
X103609941Y-89900091D01*
X103609943Y-89900091D01*
X103572885Y-89890161D01*
X103514435Y-89874500D01*
X103415565Y-89874500D01*
X103367813Y-89887295D01*
X103320060Y-89900090D01*
X103262530Y-89933306D01*
X103202681Y-89946027D01*
X103146786Y-89921140D01*
X103127294Y-89897070D01*
X103085476Y-89824640D01*
X103085475Y-89824638D01*
X103015562Y-89754725D01*
X103015559Y-89754723D01*
X102929941Y-89705291D01*
X102929943Y-89705291D01*
X102892885Y-89695361D01*
X102834435Y-89679700D01*
X102735565Y-89679700D01*
X102677114Y-89695361D01*
X102640057Y-89705291D01*
X102554440Y-89754723D01*
X102484523Y-89824640D01*
X102435091Y-89910257D01*
X102435090Y-89910262D01*
X102409500Y-90005765D01*
X82500000Y-90005765D01*
X82500000Y-85225187D01*
X82518907Y-85166997D01*
X82568407Y-85131033D01*
X82629593Y-85131033D01*
X82661658Y-85148539D01*
X82678531Y-85162333D01*
X82679879Y-85163457D01*
X82699341Y-85179966D01*
X82700705Y-85181144D01*
X82719834Y-85197979D01*
X82721176Y-85199182D01*
X82739995Y-85216362D01*
X82741315Y-85217589D01*
X82759851Y-85235140D01*
X82761133Y-85236375D01*
X82781324Y-85256202D01*
X82781849Y-85256722D01*
X85176921Y-87651794D01*
X85202594Y-87696362D01*
X85264333Y-87928595D01*
X85278026Y-87972025D01*
X85278035Y-87972048D01*
X85295620Y-88014043D01*
X85295621Y-88014047D01*
X85420234Y-88277285D01*
X85420253Y-88277322D01*
X85441588Y-88317543D01*
X85441599Y-88317561D01*
X85466499Y-88355663D01*
X85466500Y-88355664D01*
X85466507Y-88355673D01*
X85466517Y-88355689D01*
X85636798Y-88591990D01*
X85665088Y-88627699D01*
X85696511Y-88660685D01*
X85906809Y-88862202D01*
X85932529Y-88884693D01*
X85941105Y-88892192D01*
X85977972Y-88918924D01*
X85977977Y-88918927D01*
X85977984Y-88918932D01*
X85977986Y-88918933D01*
X86221330Y-89078988D01*
X86221346Y-89078997D01*
X86221358Y-89079005D01*
X86260482Y-89102256D01*
X86260503Y-89102267D01*
X86301605Y-89121873D01*
X86301611Y-89121875D01*
X86301612Y-89121876D01*
X86569940Y-89235164D01*
X86612674Y-89250953D01*
X86656667Y-89262787D01*
X86941086Y-89325555D01*
X86941091Y-89325556D01*
X86941113Y-89325560D01*
X86985972Y-89333336D01*
X86985970Y-89333336D01*
X87001632Y-89334599D01*
X87031384Y-89336999D01*
X87322469Y-89347166D01*
X87365997Y-89346701D01*
X87368028Y-89346680D01*
X87368030Y-89346679D01*
X87413345Y-89342050D01*
X87701450Y-89299280D01*
X87746162Y-89290544D01*
X87789893Y-89277775D01*
X88065471Y-89183484D01*
X88107859Y-89166788D01*
X88148550Y-89146303D01*
X88402469Y-89003616D01*
X88441127Y-88979512D01*
X88477431Y-88951990D01*
X88701276Y-88765636D01*
X88734924Y-88734924D01*
X88765636Y-88701276D01*
X88951990Y-88477431D01*
X88979512Y-88441127D01*
X89003616Y-88402469D01*
X89092676Y-88243982D01*
X95624500Y-88243982D01*
X95624500Y-88356018D01*
X95636949Y-88402477D01*
X95653498Y-88464241D01*
X95692831Y-88532366D01*
X95709515Y-88561263D01*
X95788737Y-88640485D01*
X95788739Y-88640486D01*
X95885759Y-88696501D01*
X95885757Y-88696501D01*
X95885761Y-88696502D01*
X95885763Y-88696503D01*
X95993982Y-88725500D01*
X95993984Y-88725500D01*
X96106016Y-88725500D01*
X96106018Y-88725500D01*
X96214237Y-88696503D01*
X96214239Y-88696501D01*
X96214241Y-88696501D01*
X96243064Y-88679859D01*
X96311263Y-88640485D01*
X96390485Y-88561263D01*
X96407169Y-88532365D01*
X97101500Y-88532365D01*
X97101500Y-88631235D01*
X97120270Y-88701285D01*
X97127091Y-88726742D01*
X97158165Y-88780562D01*
X97176525Y-88812362D01*
X97246438Y-88882275D01*
X97246440Y-88882276D01*
X97332058Y-88931708D01*
X97332056Y-88931708D01*
X97332060Y-88931709D01*
X97332062Y-88931710D01*
X97427565Y-88957300D01*
X97427567Y-88957300D01*
X97526433Y-88957300D01*
X97526435Y-88957300D01*
X97621938Y-88931710D01*
X97621940Y-88931708D01*
X97621942Y-88931708D01*
X97677017Y-88899910D01*
X97707562Y-88882275D01*
X97777475Y-88812362D01*
X97826910Y-88726738D01*
X97852500Y-88631235D01*
X97852500Y-88532365D01*
X97843979Y-88500565D01*
X100324500Y-88500565D01*
X100324500Y-88599435D01*
X100340912Y-88660685D01*
X100350091Y-88694942D01*
X100390902Y-88765627D01*
X100399525Y-88780562D01*
X100469438Y-88850475D01*
X100469440Y-88850476D01*
X100555058Y-88899908D01*
X100555056Y-88899908D01*
X100555060Y-88899909D01*
X100555062Y-88899910D01*
X100650565Y-88925500D01*
X100650567Y-88925500D01*
X100749433Y-88925500D01*
X100749435Y-88925500D01*
X100844938Y-88899910D01*
X100844940Y-88899908D01*
X100844942Y-88899908D01*
X100875483Y-88882275D01*
X100930562Y-88850475D01*
X101000475Y-88780562D01*
X101046251Y-88701276D01*
X101049908Y-88694942D01*
X101049908Y-88694940D01*
X101049910Y-88694938D01*
X101075500Y-88599435D01*
X101075500Y-88500565D01*
X101049910Y-88405062D01*
X101049908Y-88405059D01*
X101049908Y-88405057D01*
X101000476Y-88319440D01*
X101000475Y-88319438D01*
X100930562Y-88249525D01*
X100930559Y-88249523D01*
X100844941Y-88200091D01*
X100844943Y-88200091D01*
X100803520Y-88188992D01*
X100749435Y-88174500D01*
X100650565Y-88174500D01*
X100596480Y-88188992D01*
X100555057Y-88200091D01*
X100469440Y-88249523D01*
X100399523Y-88319440D01*
X100350091Y-88405057D01*
X100341569Y-88436862D01*
X100324500Y-88500565D01*
X97843979Y-88500565D01*
X97826910Y-88436862D01*
X97826908Y-88436859D01*
X97826908Y-88436857D01*
X97780235Y-88356018D01*
X97777475Y-88351238D01*
X97707562Y-88281325D01*
X97700629Y-88277322D01*
X97621941Y-88231891D01*
X97621943Y-88231891D01*
X97584885Y-88221961D01*
X97526435Y-88206300D01*
X97427565Y-88206300D01*
X97369114Y-88221961D01*
X97332057Y-88231891D01*
X97246440Y-88281323D01*
X97176523Y-88351240D01*
X97127091Y-88436857D01*
X97112783Y-88490253D01*
X97101500Y-88532365D01*
X96407169Y-88532365D01*
X96420671Y-88508979D01*
X96439495Y-88476376D01*
X96439495Y-88476375D01*
X96446503Y-88464237D01*
X96475500Y-88356018D01*
X96475500Y-88243982D01*
X96446503Y-88135763D01*
X96446501Y-88135760D01*
X96446501Y-88135758D01*
X96390486Y-88038739D01*
X96390485Y-88038737D01*
X96311263Y-87959515D01*
X96271227Y-87936400D01*
X96214240Y-87903498D01*
X96214242Y-87903498D01*
X96172251Y-87892247D01*
X96106018Y-87874500D01*
X95993982Y-87874500D01*
X95927748Y-87892247D01*
X95885758Y-87903498D01*
X95788739Y-87959513D01*
X95709513Y-88038739D01*
X95653498Y-88135758D01*
X95639234Y-88188992D01*
X95624500Y-88243982D01*
X89092676Y-88243982D01*
X89146303Y-88148550D01*
X89166788Y-88107859D01*
X89183484Y-88065471D01*
X89277775Y-87789893D01*
X89290544Y-87746162D01*
X89290970Y-87743982D01*
X98274500Y-87743982D01*
X98274500Y-87856018D01*
X98293947Y-87928595D01*
X98303498Y-87964241D01*
X98359513Y-88061260D01*
X98359515Y-88061263D01*
X98438737Y-88140485D01*
X98452748Y-88148574D01*
X98535759Y-88196501D01*
X98535757Y-88196501D01*
X98535761Y-88196502D01*
X98535763Y-88196503D01*
X98643982Y-88225500D01*
X98643984Y-88225500D01*
X98756016Y-88225500D01*
X98756018Y-88225500D01*
X98864237Y-88196503D01*
X98864239Y-88196501D01*
X98864241Y-88196501D01*
X98902347Y-88174500D01*
X98961263Y-88140485D01*
X99040485Y-88061263D01*
X99079859Y-87993064D01*
X99096501Y-87964241D01*
X99096501Y-87964239D01*
X99096503Y-87964237D01*
X99125500Y-87856018D01*
X99125500Y-87743982D01*
X99096503Y-87635763D01*
X99040485Y-87538737D01*
X99013213Y-87511465D01*
X103951500Y-87511465D01*
X103951500Y-87610335D01*
X103962609Y-87651794D01*
X103977091Y-87705842D01*
X104025619Y-87789893D01*
X104026525Y-87791462D01*
X104096438Y-87861375D01*
X104096440Y-87861376D01*
X104182058Y-87910808D01*
X104182056Y-87910808D01*
X104182060Y-87910809D01*
X104182062Y-87910810D01*
X104277565Y-87936400D01*
X104277567Y-87936400D01*
X104376433Y-87936400D01*
X104376435Y-87936400D01*
X104471938Y-87910810D01*
X104471940Y-87910808D01*
X104471942Y-87910808D01*
X104497377Y-87896122D01*
X104557562Y-87861375D01*
X104627475Y-87791462D01*
X104676910Y-87705838D01*
X104702500Y-87610335D01*
X104702500Y-87511465D01*
X104676910Y-87415962D01*
X104676908Y-87415959D01*
X104676908Y-87415957D01*
X104656647Y-87380865D01*
X105543500Y-87380865D01*
X105543500Y-87479735D01*
X105555763Y-87525500D01*
X105569091Y-87575242D01*
X105618523Y-87660859D01*
X105618525Y-87660862D01*
X105688438Y-87730775D01*
X105688440Y-87730776D01*
X105774058Y-87780208D01*
X105774056Y-87780208D01*
X105774060Y-87780209D01*
X105774062Y-87780210D01*
X105869565Y-87805800D01*
X105869567Y-87805800D01*
X105968433Y-87805800D01*
X105968435Y-87805800D01*
X106063938Y-87780210D01*
X106063940Y-87780208D01*
X106063942Y-87780208D01*
X106122907Y-87746164D01*
X106149562Y-87730775D01*
X106219475Y-87660862D01*
X106268910Y-87575238D01*
X106294500Y-87479735D01*
X106294500Y-87380865D01*
X106268910Y-87285362D01*
X106268908Y-87285359D01*
X106268908Y-87285357D01*
X106219476Y-87199740D01*
X106219475Y-87199738D01*
X106149562Y-87129825D01*
X106149559Y-87129823D01*
X106063941Y-87080391D01*
X106063943Y-87080391D01*
X106026885Y-87070461D01*
X105968435Y-87054800D01*
X105869565Y-87054800D01*
X105811114Y-87070461D01*
X105774057Y-87080391D01*
X105688440Y-87129823D01*
X105618523Y-87199740D01*
X105569091Y-87285357D01*
X105569090Y-87285362D01*
X105543500Y-87380865D01*
X104656647Y-87380865D01*
X104627476Y-87330340D01*
X104627475Y-87330338D01*
X104557562Y-87260425D01*
X104557559Y-87260423D01*
X104471941Y-87210991D01*
X104471943Y-87210991D01*
X104434885Y-87201061D01*
X104376435Y-87185400D01*
X104277565Y-87185400D01*
X104219114Y-87201061D01*
X104182057Y-87210991D01*
X104096440Y-87260423D01*
X104026523Y-87330340D01*
X103977091Y-87415957D01*
X103965420Y-87459515D01*
X103951500Y-87511465D01*
X99013213Y-87511465D01*
X98961263Y-87459515D01*
X98961260Y-87459513D01*
X98864240Y-87403498D01*
X98864242Y-87403498D01*
X98822251Y-87392247D01*
X98756018Y-87374500D01*
X98643982Y-87374500D01*
X98577748Y-87392247D01*
X98535758Y-87403498D01*
X98438739Y-87459513D01*
X98359513Y-87538739D01*
X98303498Y-87635758D01*
X98296772Y-87660862D01*
X98274500Y-87743982D01*
X89290970Y-87743982D01*
X89293550Y-87730775D01*
X89295948Y-87718507D01*
X89299278Y-87701459D01*
X89299280Y-87701450D01*
X89342050Y-87413345D01*
X89346680Y-87368024D01*
X89347166Y-87322469D01*
X89337439Y-87043982D01*
X95324500Y-87043982D01*
X95324500Y-87156018D01*
X95332373Y-87185400D01*
X95353498Y-87264241D01*
X95409513Y-87361260D01*
X95409515Y-87361263D01*
X95488737Y-87440485D01*
X95488739Y-87440486D01*
X95585759Y-87496501D01*
X95585757Y-87496501D01*
X95585761Y-87496502D01*
X95585763Y-87496503D01*
X95693982Y-87525500D01*
X95693984Y-87525500D01*
X95806016Y-87525500D01*
X95806018Y-87525500D01*
X95914237Y-87496503D01*
X95914239Y-87496501D01*
X95914241Y-87496501D01*
X95943283Y-87479733D01*
X96011263Y-87440485D01*
X96090485Y-87361263D01*
X96129859Y-87293064D01*
X96146501Y-87264241D01*
X96146501Y-87264239D01*
X96146503Y-87264237D01*
X96175500Y-87156018D01*
X96175500Y-87043982D01*
X96146503Y-86935763D01*
X96146501Y-86935760D01*
X96146501Y-86935758D01*
X96090486Y-86838739D01*
X96090485Y-86838737D01*
X96011263Y-86759515D01*
X96011260Y-86759513D01*
X95914240Y-86703498D01*
X95914242Y-86703498D01*
X95878726Y-86693982D01*
X98424500Y-86693982D01*
X98424500Y-86806018D01*
X98433267Y-86838737D01*
X98453498Y-86914241D01*
X98494914Y-86985974D01*
X98509515Y-87011263D01*
X98588737Y-87090485D01*
X98588739Y-87090486D01*
X98685759Y-87146501D01*
X98685757Y-87146501D01*
X98685761Y-87146502D01*
X98685763Y-87146503D01*
X98793982Y-87175500D01*
X98793984Y-87175500D01*
X98906016Y-87175500D01*
X98906018Y-87175500D01*
X99014237Y-87146503D01*
X99014239Y-87146501D01*
X99014241Y-87146501D01*
X99043128Y-87129823D01*
X99111263Y-87090485D01*
X99190485Y-87011263D01*
X99246503Y-86914237D01*
X99275500Y-86806018D01*
X99275500Y-86693982D01*
X99251809Y-86605565D01*
X102694500Y-86605565D01*
X102694500Y-86704435D01*
X102709258Y-86759513D01*
X102720091Y-86799942D01*
X102769523Y-86885559D01*
X102769525Y-86885562D01*
X102839438Y-86955475D01*
X102839440Y-86955476D01*
X102925058Y-87004908D01*
X102925056Y-87004908D01*
X102925060Y-87004909D01*
X102925062Y-87004910D01*
X103020565Y-87030500D01*
X103020567Y-87030500D01*
X103119433Y-87030500D01*
X103119435Y-87030500D01*
X103214938Y-87004910D01*
X103214940Y-87004908D01*
X103214942Y-87004908D01*
X103247741Y-86985971D01*
X103300562Y-86955475D01*
X103370475Y-86885562D01*
X103419910Y-86799938D01*
X103445500Y-86704435D01*
X103445500Y-86605565D01*
X103419910Y-86510062D01*
X103419908Y-86510059D01*
X103419908Y-86510057D01*
X103370476Y-86424440D01*
X103370475Y-86424438D01*
X103300562Y-86354525D01*
X103300559Y-86354523D01*
X103214941Y-86305091D01*
X103214943Y-86305091D01*
X103177885Y-86295161D01*
X103119435Y-86279500D01*
X103020565Y-86279500D01*
X102962114Y-86295161D01*
X102925057Y-86305091D01*
X102839440Y-86354523D01*
X102769523Y-86424440D01*
X102720091Y-86510057D01*
X102720090Y-86510062D01*
X102694500Y-86605565D01*
X99251809Y-86605565D01*
X99246503Y-86585763D01*
X99237373Y-86569950D01*
X99190486Y-86488739D01*
X99190485Y-86488737D01*
X99111263Y-86409515D01*
X99111260Y-86409513D01*
X99014240Y-86353498D01*
X99014242Y-86353498D01*
X98972251Y-86342247D01*
X98906018Y-86324500D01*
X98793982Y-86324500D01*
X98727748Y-86342247D01*
X98685758Y-86353498D01*
X98588739Y-86409513D01*
X98509513Y-86488739D01*
X98453498Y-86585758D01*
X98453497Y-86585763D01*
X98424500Y-86693982D01*
X95878726Y-86693982D01*
X95872251Y-86692247D01*
X95806018Y-86674500D01*
X95693982Y-86674500D01*
X95627748Y-86692247D01*
X95585758Y-86703498D01*
X95488739Y-86759513D01*
X95409513Y-86838739D01*
X95353498Y-86935758D01*
X95352069Y-86941091D01*
X95324500Y-87043982D01*
X89337439Y-87043982D01*
X89336999Y-87031384D01*
X89333336Y-86985974D01*
X89333336Y-86985971D01*
X89325560Y-86941113D01*
X89325556Y-86941091D01*
X89324379Y-86935758D01*
X89262787Y-86656667D01*
X89250953Y-86612674D01*
X89235164Y-86569940D01*
X89121876Y-86301612D01*
X89111328Y-86279500D01*
X89102267Y-86260503D01*
X89102256Y-86260482D01*
X89079005Y-86221358D01*
X89078990Y-86221334D01*
X89078988Y-86221330D01*
X88918933Y-85977986D01*
X88918932Y-85977984D01*
X88918927Y-85977977D01*
X88918924Y-85977972D01*
X88892192Y-85941106D01*
X88892192Y-85941105D01*
X88884693Y-85932529D01*
X88862202Y-85906809D01*
X88660685Y-85696511D01*
X88627699Y-85665088D01*
X88591990Y-85636798D01*
X88355689Y-85466517D01*
X88355673Y-85466507D01*
X88355664Y-85466500D01*
X88355663Y-85466499D01*
X88317561Y-85441599D01*
X88317543Y-85441588D01*
X88277322Y-85420253D01*
X88277285Y-85420234D01*
X88014047Y-85295621D01*
X88014043Y-85295620D01*
X87972048Y-85278035D01*
X87972025Y-85278026D01*
X87928595Y-85264333D01*
X87696362Y-85202594D01*
X87651794Y-85176921D01*
X85625438Y-83150565D01*
X89624500Y-83150565D01*
X89624500Y-83249435D01*
X89637921Y-83299523D01*
X89650091Y-83344942D01*
X89699523Y-83430559D01*
X89699525Y-83430562D01*
X89769438Y-83500475D01*
X89769440Y-83500476D01*
X89855058Y-83549908D01*
X89855056Y-83549908D01*
X89855060Y-83549909D01*
X89855062Y-83549910D01*
X89950565Y-83575500D01*
X89950567Y-83575500D01*
X90049433Y-83575500D01*
X90049435Y-83575500D01*
X90144938Y-83549910D01*
X90144940Y-83549908D01*
X90144942Y-83549908D01*
X90170377Y-83535222D01*
X90230562Y-83500475D01*
X90300475Y-83430562D01*
X90349910Y-83344938D01*
X90375500Y-83249435D01*
X90375500Y-83150565D01*
X91124500Y-83150565D01*
X91124500Y-83249435D01*
X91137921Y-83299523D01*
X91150091Y-83344942D01*
X91199523Y-83430559D01*
X91199525Y-83430562D01*
X91269438Y-83500475D01*
X91269440Y-83500476D01*
X91355058Y-83549908D01*
X91355056Y-83549908D01*
X91355060Y-83549909D01*
X91355062Y-83549910D01*
X91450565Y-83575500D01*
X91450567Y-83575500D01*
X91549433Y-83575500D01*
X91549435Y-83575500D01*
X91644938Y-83549910D01*
X91644940Y-83549908D01*
X91644942Y-83549908D01*
X91670377Y-83535222D01*
X91730562Y-83500475D01*
X91780472Y-83450565D01*
X93324500Y-83450565D01*
X93324500Y-83549435D01*
X93331484Y-83575500D01*
X93350091Y-83644942D01*
X93399523Y-83730559D01*
X93399525Y-83730562D01*
X93469438Y-83800475D01*
X93469440Y-83800476D01*
X93555058Y-83849908D01*
X93555056Y-83849908D01*
X93555060Y-83849909D01*
X93555062Y-83849910D01*
X93650565Y-83875500D01*
X93650567Y-83875500D01*
X93749433Y-83875500D01*
X93749435Y-83875500D01*
X93844938Y-83849910D01*
X93844940Y-83849908D01*
X93844942Y-83849908D01*
X93878455Y-83830559D01*
X93930562Y-83800475D01*
X94000475Y-83730562D01*
X94049910Y-83644938D01*
X94075197Y-83550565D01*
X99774500Y-83550565D01*
X99774500Y-83649435D01*
X99796237Y-83730559D01*
X99800091Y-83744942D01*
X99849523Y-83830559D01*
X99849525Y-83830562D01*
X99919438Y-83900475D01*
X99919440Y-83900476D01*
X100005058Y-83949908D01*
X100005056Y-83949908D01*
X100005060Y-83949909D01*
X100005062Y-83949910D01*
X100100565Y-83975500D01*
X100100567Y-83975500D01*
X100199433Y-83975500D01*
X100199435Y-83975500D01*
X100294938Y-83949910D01*
X100294940Y-83949908D01*
X100294942Y-83949908D01*
X100320377Y-83935222D01*
X100380562Y-83900475D01*
X100450475Y-83830562D01*
X100499910Y-83744938D01*
X100525500Y-83649435D01*
X100525500Y-83550565D01*
X100499910Y-83455062D01*
X100499908Y-83455059D01*
X100499908Y-83455057D01*
X100450476Y-83369440D01*
X100450475Y-83369438D01*
X100380562Y-83299525D01*
X100380559Y-83299523D01*
X100294941Y-83250091D01*
X100294943Y-83250091D01*
X100281013Y-83246358D01*
X100199435Y-83224500D01*
X100100565Y-83224500D01*
X100043827Y-83239703D01*
X100005057Y-83250091D01*
X99919440Y-83299523D01*
X99849523Y-83369440D01*
X99800091Y-83455057D01*
X99800090Y-83455062D01*
X99774500Y-83550565D01*
X94075197Y-83550565D01*
X94075500Y-83549435D01*
X94075500Y-83450565D01*
X94049910Y-83355062D01*
X94049908Y-83355059D01*
X94049908Y-83355057D01*
X94000476Y-83269440D01*
X94000475Y-83269438D01*
X93930562Y-83199525D01*
X93930559Y-83199523D01*
X93845762Y-83150565D01*
X106521500Y-83150565D01*
X106521500Y-83249435D01*
X106534921Y-83299523D01*
X106547091Y-83344942D01*
X106596523Y-83430559D01*
X106596525Y-83430562D01*
X106666438Y-83500475D01*
X106666440Y-83500476D01*
X106752058Y-83549908D01*
X106752056Y-83549908D01*
X106752060Y-83549909D01*
X106752062Y-83549910D01*
X106847565Y-83575500D01*
X106847567Y-83575500D01*
X106946433Y-83575500D01*
X106946435Y-83575500D01*
X107041938Y-83549910D01*
X107041940Y-83549908D01*
X107041942Y-83549908D01*
X107067377Y-83535222D01*
X107127562Y-83500475D01*
X107197475Y-83430562D01*
X107246910Y-83344938D01*
X107272500Y-83249435D01*
X107272500Y-83150565D01*
X107246910Y-83055062D01*
X107246908Y-83055059D01*
X107246908Y-83055057D01*
X107197476Y-82969440D01*
X107197475Y-82969438D01*
X107127562Y-82899525D01*
X107127559Y-82899523D01*
X107041941Y-82850091D01*
X107041943Y-82850091D01*
X107004885Y-82840161D01*
X106946435Y-82824500D01*
X106847565Y-82824500D01*
X106789114Y-82840161D01*
X106752057Y-82850091D01*
X106666440Y-82899523D01*
X106596523Y-82969440D01*
X106547091Y-83055057D01*
X106547090Y-83055062D01*
X106521500Y-83150565D01*
X93845762Y-83150565D01*
X93844941Y-83150091D01*
X93844943Y-83150091D01*
X93807885Y-83140161D01*
X93749435Y-83124500D01*
X93650565Y-83124500D01*
X93592114Y-83140161D01*
X93555057Y-83150091D01*
X93469440Y-83199523D01*
X93399523Y-83269440D01*
X93350091Y-83355057D01*
X93335783Y-83408453D01*
X93324500Y-83450565D01*
X91780472Y-83450565D01*
X91800475Y-83430562D01*
X91849910Y-83344938D01*
X91875500Y-83249435D01*
X91875500Y-83150565D01*
X91849910Y-83055062D01*
X91849908Y-83055059D01*
X91849908Y-83055057D01*
X91800476Y-82969440D01*
X91800475Y-82969438D01*
X91730562Y-82899525D01*
X91730559Y-82899523D01*
X91644941Y-82850091D01*
X91644943Y-82850091D01*
X91607885Y-82840161D01*
X91549435Y-82824500D01*
X91450565Y-82824500D01*
X91392114Y-82840161D01*
X91355057Y-82850091D01*
X91269440Y-82899523D01*
X91199523Y-82969440D01*
X91150091Y-83055057D01*
X91150090Y-83055062D01*
X91124500Y-83150565D01*
X90375500Y-83150565D01*
X90349910Y-83055062D01*
X90349908Y-83055059D01*
X90349908Y-83055057D01*
X90300476Y-82969440D01*
X90300475Y-82969438D01*
X90230562Y-82899525D01*
X90230559Y-82899523D01*
X90144941Y-82850091D01*
X90144943Y-82850091D01*
X90107885Y-82840161D01*
X90049435Y-82824500D01*
X89950565Y-82824500D01*
X89892114Y-82840161D01*
X89855057Y-82850091D01*
X89769440Y-82899523D01*
X89699523Y-82969440D01*
X89650091Y-83055057D01*
X89650090Y-83055062D01*
X89624500Y-83150565D01*
X85625438Y-83150565D01*
X85256722Y-82781849D01*
X85256202Y-82781324D01*
X85236375Y-82761133D01*
X85235140Y-82759851D01*
X85217589Y-82741315D01*
X85216362Y-82739995D01*
X85199182Y-82721176D01*
X85197979Y-82719834D01*
X85181144Y-82700705D01*
X85179966Y-82699341D01*
X85163457Y-82679879D01*
X85162308Y-82678500D01*
X85148539Y-82661658D01*
X85126349Y-82604640D01*
X85141910Y-82545467D01*
X85189281Y-82506741D01*
X85225188Y-82500000D01*
X90449999Y-82500000D01*
X90450000Y-82500000D01*
X90450000Y-82449000D01*
X90468907Y-82390809D01*
X90518407Y-82354845D01*
X90549000Y-82350000D01*
X109451000Y-82350000D01*
X109509191Y-82368907D01*
G37*
%TD.AperFunction*%
%TD*%
M02*
