M48
; DRILL file KiCad 10.0.6-10.0.6~ubuntu24.04.1 date 2026-09-27T20:11:49
; FORMAT={-:-/ absolute / metric / decimal}
; #@! TF.CreationDate,2026-09-27T20:11:49+00:00
; #@! TF.GenerationSoftware,Kicad,Pcbnew,10.0.6-10.0.6~ubuntu24.04.1
; #@! TF.FileFunction,Plated,1,6,PTH
FMAT,2
METRIC
; #@! TA.AperFunction,Plated,PTH,ViaDrill
T1C0.150
; #@! TA.AperFunction,Plated,PTH,ViaDrill
T2C0.250
; #@! TA.AperFunction,Plated,PTH,ComponentDrill
T3C0.600
%
G90
G05
T1
X83.2Y-89.7
X83.2Y-92.7
X83.2Y-94.2
X83.2Y-106.4
X84.345Y-91.2
X84.345Y-107.9
X86.29Y-99.9
X87.975Y-98.8
X87.975Y-99.9
X88.473Y-98.729
X89.655Y-92.77
X89.655Y-94.385
X90.0Y-83.2
X90.17Y-97.6
X90.406Y-94.872
X90.73Y-96.08
X90.73Y-103.92
X90.9Y-102.25
X91.081Y-96.781
X91.47Y-101.755
X91.5Y-83.2
X91.578Y-102.308
X91.578Y-104.402
X91.8Y-109.525
X91.8Y-111.165
X91.805Y-87.87
X91.889Y-108.568
X91.9Y-99.3
X92.439Y-90.742
X92.488Y-104.162
X92.643Y-98.768
X92.849Y-106.316
X92.918Y-108.812
X93.055Y-102.22
X93.206Y-109.522
X93.295Y-95.118
X93.384Y-91.018
X93.554Y-89.656
X93.7Y-83.85
X93.718Y-101.925
X93.97Y-113.42
X94.205Y-96.69
X94.215Y-101.65
X94.215Y-103.335
X94.295Y-110.395
X94.342Y-99.35
X94.47Y-96.105
X94.621Y-98.018
X94.7Y-111.05
X94.75Y-107.5
X94.824Y-104.335
X95.147Y-110.722
X95.272Y-84.192
X95.344Y-99.81
X95.45Y-98.35
X95.45Y-98.85
X95.45Y-100.35
X95.45Y-101.35
X95.75Y-106.265
X95.765Y-105.276
X96.07Y-94.07
X96.077Y-111.623
X96.184Y-105.668
X96.542Y-95.264
X96.555Y-86.99
X96.6Y-90.4
X96.6Y-92.0
X96.6Y-98.7
X96.6Y-100.3
X96.6Y-101.9
X96.6Y-103.5
X96.717Y-96.758
X96.74Y-96.105
X97.75Y-114.85
X97.939Y-87.126
X98.055Y-87.755
X98.2Y-90.4
X98.2Y-92.0
X98.2Y-98.7
X98.2Y-100.3
X98.2Y-101.9
X98.2Y-103.5
X98.454Y-96.931
X98.722Y-87.564
X98.947Y-96.951
X98.989Y-111.672
X99.225Y-116.45
X99.25Y-104.65
X99.274Y-87.638
X99.33Y-94.07
X99.38Y-110.713
X99.75Y-97.55
X99.772Y-84.192
X99.8Y-90.4
X99.8Y-92.0
X99.8Y-98.7
X99.8Y-100.3
X99.8Y-101.9
X99.8Y-103.5
X99.98Y-94.07
X100.005Y-87.97
X100.061Y-87.126
X100.63Y-88.33
X100.7Y-83.2
X101.4Y-90.4
X101.4Y-92.0
X101.4Y-98.7
X101.4Y-100.3
X101.4Y-101.9
X101.4Y-103.5
X101.884Y-96.732
X102.55Y-98.35
X102.785Y-90.055
X102.888Y-101.35
X103.07Y-86.655
X103.341Y-100.392
X103.342Y-98.817
X103.465Y-90.25
X103.735Y-99.968
X103.755Y-104.72
X103.755Y-106.335
X103.849Y-100.922
X103.905Y-97.72
X103.961Y-100.464
X104.327Y-87.561
X104.4Y-99.835
X104.5Y-100.427
X104.5Y-107.825
X104.85Y-94.41
X105.055Y-98.22
X105.15Y-90.6
X105.15Y-92.2
X105.34Y-86.655
X105.583Y-100.271
X105.725Y-97.755
X105.919Y-87.43
X106.1Y-107.825
X106.178Y-100.94
X106.2Y-108.68
X106.2Y-116.32
X106.375Y-98.242
X106.5Y-83.2
X106.532Y-100.402
X106.75Y-90.6
X106.75Y-92.2
X106.822Y-101.397
X106.892Y-102.2
X107.078Y-102.758
X107.087Y-96.463
X107.165Y-98.393
X107.242Y-104.925
X107.34Y-97.755
X107.455Y-99.47
X107.581Y-95.37
X107.835Y-96.442
X107.85Y-106.45
X108.0Y-83.2
X108.119Y-102.671
X108.142Y-98.662
X108.235Y-104.206
X108.237Y-88.803
X108.35Y-90.6
X108.4Y-110.48
X108.515Y-105.35
X108.605Y-100.085
X109.005Y-106.538
X109.122Y-105.422
X109.15Y-109.65
X109.25Y-104.141
X109.261Y-102.548
X109.277Y-88.617
X109.277Y-99.584
X109.35Y-108.8
X109.455Y-100.32
X109.49Y-104.755
X109.586Y-94.119
X109.715Y-104.25
X109.788Y-114.616
X109.819Y-103.475
X109.9Y-110.25
X109.927Y-92.515
X110.15Y-99.169
X110.445Y-97.895
X110.683Y-99.014
X110.683Y-100.317
X110.815Y-108.91
X111.313Y-99.632
X111.335Y-95.18
X111.423Y-97.947
X111.706Y-97.508
X111.777Y-95.493
X111.995Y-91.445
X112.55Y-97.7
X113.087Y-97.382
X113.267Y-96.747
X114.0Y-103.7
X114.14Y-96.0
X114.3Y-102.25
X114.4Y-101.615
X114.598Y-106.49
X114.9Y-107.5
X115.07Y-102.794
X115.45Y-110.015
X115.59Y-93.323
X115.625Y-95.438
X115.878Y-98.42
X115.979Y-103.608
X116.002Y-106.161
X116.603Y-103.553
X116.681Y-104.681
X116.8Y-100.9
X117.165Y-105.135
X117.227Y-90.066
X117.335Y-107.102
X117.367Y-108.412
T2
X91.09Y-99.347
X91.09Y-100.347
X93.3Y-107.4
X95.25Y-89.55
X95.6Y-116.55
X95.6Y-117.25
X95.65Y-97.15
X95.75Y-87.1
X96.0Y-110.9
X96.75Y-107.95
X97.0Y-110.9
X97.25Y-87.0
X97.25Y-96.95
X97.9Y-96.8
X98.0Y-110.9
X98.9Y-114.08
X98.9Y-115.08
X103.2Y-103.75
X103.45Y-102.3
X105.326Y-106.845
X107.182Y-108.954
X107.828Y-108.195
X112.0Y-104.5
X112.0Y-105.5
X112.7Y-109.1
X113.5Y-109.1
X113.9Y-91.7
X114.3Y-109.1
X114.7Y-91.7
T3
X85.81Y-95.68G85X85.01Y-95.68
G05
X85.81Y-104.32G85X85.01Y-104.32
G05
X90.14Y-95.68G85X89.04Y-95.68
G05
X90.14Y-104.32G85X89.04Y-104.32
G05
M30
